<svg xmlns="http://www.w3.org/2000/svg" viewBox="0 0 1080 1920"><g style="isolation:isolate"><g id="eyebrow"><g id="_2" data-name="2"><path d="M689.34,380.63a3.84,3.84,0,0,1-.29-.27A45.63,45.63,0,0,0,675.18,371a47.73,47.73,0,0,0-26.48-3.46A204.15,204.15,0,0,0,610.9,377L608,378c-5.8,2.2-9,3.77-9,3.77L594.64,356c1.51-.11,1.21-.08,2.66-.21l2.91,13.37V358a3.36,3.36,0,0,1,3-3.33,193.66,193.66,0,0,0,31.06-6.09l.52-.15a41.31,41.31,0,0,1,4.13-1,42.83,42.83,0,0,1,40.21,13.67,41.61,41.61,0,0,1,5.07,7.12A49.51,49.51,0,0,1,689.34,380.63Z" fill="#42210b"/><path d="M464.55,380.63l.28-.27A45.63,45.63,0,0,1,478.7,371a47.74,47.74,0,0,1,26.48-3.46A204.15,204.15,0,0,1,543,377l2.88,1c5.8,2.2,9,3.77,9,3.77l4.4-25.74c-1.52-.11-1.22-.08-2.67-.21l-2.91,13.37V358a3.36,3.36,0,0,0-3-3.33,193.66,193.66,0,0,1-31.06-6.09l-.52-.15a41.31,41.31,0,0,0-4.13-1,42.83,42.83,0,0,0-40.21,13.67,41.61,41.61,0,0,0-5.07,7.12A49.47,49.47,0,0,0,464.55,380.63Z" fill="#42210b"/><path d="M679.13,361.12l-4,9.86a47.73,47.73,0,0,0-26.48-3.46A204.15,204.15,0,0,0,610.9,377L608,378c2.8-16,6-21.68,6-21.68l1.16,13.73s10.15-13.67,23.77-22.6A42.83,42.83,0,0,1,679.13,361.12Z" fill="#fff" opacity="0.5" style="mix-blend-mode:overlay"/><path d="M474.75,361.12,478.7,371a47.74,47.74,0,0,1,26.48-3.46A204.15,204.15,0,0,1,543,377l2.88,1c-2.8-16-6-21.68-6-21.68l-1.16,13.73s-10.15-13.67-23.77-22.6A42.83,42.83,0,0,0,474.75,361.12Z" fill="#fff" opacity="0.5" style="mix-blend-mode:overlay"/></g></g></g></svg>