<svg xmlns="http://www.w3.org/2000/svg" viewBox="0 0 1080 1920"><g style="isolation:isolate"><g id="eyebrow"><g id="_3" data-name="3"><path d="M688.09,360a3.9,3.9,0,0,1-.35-.19,45.68,45.68,0,0,0-14-5.59,47.88,47.88,0,0,0-28.24,2.47,205.16,205.16,0,0,0-34.57,17.95c-1.31.85-2.47,1.65-3.53,2.4a97.74,97.74,0,0,0-8.49,6.64l-3.46-27.54c1.44-.45.4-.19,1.77-.66l2.94,13.67c0-13.17.43-17.26,2.88-18.14,11.88-4.37,16.62-5.19,23.93-9.31l.11-.06.47-.27a42.88,42.88,0,0,1,47.28,2.9A45.26,45.26,0,0,1,688.09,360Z" fill="#42210b"/><path d="M464.36,360l.34-.19a45.68,45.68,0,0,1,14-5.59,47.88,47.88,0,0,1,28.24,2.47,205.33,205.33,0,0,1,34.58,17.95c1.3.85,2.46,1.65,3.52,2.4a98.91,98.91,0,0,1,8.5,6.64L557,356.17c-1.44-.45-.4-.19-1.77-.66l-2.94,13.67c0-13.17-.42-17.26-2.88-18.14-11.88-4.37-16.62-5.19-23.93-9.31l-.11-.06-.47-.27a42.88,42.88,0,0,0-47.28,2.9A45.24,45.24,0,0,0,464.36,360Z" fill="#42210b"/><path d="M674.84,344.3l-1.09,9.95a47.88,47.88,0,0,0-28.24,2.47,205.16,205.16,0,0,0-34.57,17.95c-1.31.85-2.47,1.65-3.53,2.4-1.21-17.2.33-23.86.33-23.86l4.91,15.27A124.3,124.3,0,0,1,627,341.73l.11-.06.47-.27A42.88,42.88,0,0,1,674.84,344.3Z" fill="#fff" opacity="0.5" style="mix-blend-mode:overlay"/><path d="M477.6,344.3l1.09,9.95a47.88,47.88,0,0,1,28.24,2.47,205.33,205.33,0,0,1,34.58,17.95c1.3.85,2.46,1.65,3.52,2.4,1.21-17.2-.33-23.86-.33-23.86l-4.91,15.27a124.3,124.3,0,0,0-14.33-26.75l-.11-.06-.47-.27A42.88,42.88,0,0,0,477.6,344.3Z" fill="#fff" opacity="0.5" style="mix-blend-mode:overlay"/></g></g></g></svg>