<svg xmlns="http://www.w3.org/2000/svg" viewBox="0 0 1080 1920"><g style="isolation:isolate"><g id="eyebrow"><g id="_4" data-name="4"><path d="M687.86,387.79c-.09-.11-.17-.22-.24-.32a46,46,0,0,0-12.29-11.37,47.82,47.82,0,0,0-25.67-7.39,203.52,203.52,0,0,0-38.78,3.65c-1.06.2-2.08.39-3,.59-2.3.48-4.21.95-5.69,1.33-2.46.64-3.77,1.05-3.77,1.05l-1.55-18.53c1.52.13,1.21.12,2.67.19l1.94,6.07.62-3.45a3.35,3.35,0,0,1,3.45-2.84,248,248,0,0,0,26.52-1c18.62-1.4,35.11-2.64,45,6.73a24.07,24.07,0,0,1,3.66,4.45,41.63,41.63,0,0,1,3.94,7.8A48.83,48.83,0,0,1,687.86,387.79Z" fill="#42210b"/><path d="M467.46,387.79c.09-.11.17-.22.24-.32a46.64,46.64,0,0,1,16.64-13.81,47.9,47.9,0,0,1,21.32-5,203.52,203.52,0,0,1,38.78,3.65c1.06.2,2.08.39,3,.59,2.3.48,4.21.95,5.69,1.33,2.46.64,3.77,1.05,3.77,1.05l1.55-18.53c-1.52.13-1.21.12-2.67.19l-1.93,6.07-.62-3.45a3.37,3.37,0,0,0-3.46-2.84,248.14,248.14,0,0,1-26.52-1c-18.62-1.4-35.11-2.64-45,6.73a24.07,24.07,0,0,0-3.66,4.45,41.63,41.63,0,0,0-3.94,7.8A49.21,49.21,0,0,0,467.46,387.79Z" fill="#42210b"/><path d="M677.05,362.5,671,373.66a47.9,47.9,0,0,0-21.32-5,203.52,203.52,0,0,0-38.78,3.65c-1.06.2-2.08.39-3,.59-2.3.48-4.21.95-5.69,1.33,5.45-14.06,7.23-14.61,7.23-14.61v9s4.08-6.69,22.65-12.88C650.69,354.37,667.18,353.13,677.05,362.5Z" fill="#fff" opacity="0.5" style="mix-blend-mode:overlay"/><path d="M478.27,362.5l6.07,11.16a47.9,47.9,0,0,1,21.32-5,203.52,203.52,0,0,1,38.78,3.65c1.06.2,2.08.39,3,.59,2.3.48,4.21.95,5.69,1.33-5.45-14.06-7.23-14.61-7.23-14.61v9s-4.07-6.69-22.65-12.88C504.63,354.37,488.14,353.13,478.27,362.5Z" fill="#fff" opacity="0.5" style="mix-blend-mode:overlay"/></g></g></g></svg>