<svg xmlns="http://www.w3.org/2000/svg" xmlns:xlink="http://www.w3.org/1999/xlink" viewBox="0 0 1080 1920"><defs><clipPath id="clip-path"><path d="M498.47,360.78a101.92,101.92,0,0,1,28.46-5l13.13-.33a12.48,12.48,0,0,1,6.25,1.22c4,2.09,6,6.67,4.81,11.51a13.21,13.21,0,0,0-.31-8.88,14.17,14.17,0,0,0-2-3.39,13.62,13.62,0,0,1,4.41,3.26,11.82,11.82,0,0,1,2.8,7.76,26.2,26.2,0,0,1-1.13,7.61h0s-7.88-1.19-18.12-2.22c-9.13-.91-20.48-1.9-32.27-1.25-21.71,1.19-33.35,7.51-34.44,5.73S482.82,366,498.47,360.78Z" fill="none"/></clipPath><clipPath id="clip-path-2"><path d="M659.89,358.33a102.35,102.35,0,0,0-28.55-5.07,59,59,0,0,1-10.71,0c-.85-.08-1.67-.18-2.48-.3a12.65,12.65,0,0,0-6.26,1.23c-4.06,2.1-6,6.7-4.83,11.55a13.23,13.23,0,0,1,.31-8.91,14,14,0,0,1,2-3.41,13.93,13.93,0,0,0-4.43,3.28,11.85,11.85,0,0,0-2.81,7.78,26.45,26.45,0,0,0,1.13,7.65h0s7.92-1.19,18.19-2.22c9.16-.92,20.55-1.91,32.38-1.26,21.79,1.2,33.47,7.54,34.56,5.75S675.6,363.53,659.89,358.33Z" fill="none"/></clipPath></defs><g style="isolation:isolate"><g id="eyebrow"><g id="_5" data-name="5"><g id="_Right_Eyebrow" data-name="+Right Eyebrow"><g id="normal"><g clip-path="url(#clip-path)"><path d="M498.47,360.78a101.92,101.92,0,0,1,28.46-5l13.13-.33a12.48,12.48,0,0,1,6.25,1.22c4,2.09,6,6.67,4.81,11.51a13.21,13.21,0,0,0-.31-8.88,14.17,14.17,0,0,0-2-3.39,13.62,13.62,0,0,1,4.41,3.26,11.82,11.82,0,0,1,2.8,7.76,26.2,26.2,0,0,1-1.13,7.61h0s-7.88-1.19-18.12-2.22c-9.13-.91-20.48-1.9-32.27-1.25-21.71,1.19-33.35,7.51-34.44,5.73S482.82,366,498.47,360.78Z" fill="#42210b"/><path d="M491.36,370.35c8.73-2,13.68-3.14,20.61-3.16,4.14,0,11,.34,14.21.55l7.49.48c.36,0,5.39-.3,7.12-3.09s-.45-8-6.65-10.17a14.57,14.57,0,0,1,5.76,1.63c.42.22,5.63,3.12,5.74,8.23a8.59,8.59,0,0,1-1.54,4.92c3.87-1.67,5.83-5.34,4.72-8.75-1.06-3.22-4.64-5.53-8.76-5.59a12.33,12.33,0,0,1,6.86,1.57,9.37,9.37,0,0,1,4.06,5.24,11.26,11.26,0,0,1,.23,7.33,8.62,8.62,0,0,0,2.54-5c.58-5.07-4.51-8.44-4.93-8.71a13.75,13.75,0,0,1,5,4c2,2.69,2.12,5.33,2.21,7.59a18.2,18.2,0,0,1-1.14,7,164.43,164.43,0,0,0-53.4-3.86,159.06,159.06,0,0,0-31.43,6.13A168,168,0,0,1,491.36,370.35Z" fill="#fff" opacity="0.5" style="mix-blend-mode:overlay"/></g></g></g><g id="normal-2" data-name="normal"><g clip-path="url(#clip-path-2)"><path d="M659.89,358.33a102.35,102.35,0,0,0-28.55-5.07,59,59,0,0,1-10.71,0c-.85-.08-1.67-.18-2.48-.3a12.65,12.65,0,0,0-6.26,1.23c-4.06,2.1-6,6.7-4.83,11.55a13.23,13.23,0,0,1,.31-8.91,14,14,0,0,1,2-3.41,13.93,13.93,0,0,0-4.43,3.28,11.85,11.85,0,0,0-2.81,7.78,26.45,26.45,0,0,0,1.13,7.65h0s7.92-1.19,18.19-2.22c9.16-.92,20.55-1.91,32.38-1.26,21.79,1.2,33.47,7.54,34.56,5.75S675.6,363.53,659.89,358.33Z" fill="#42210b"/><path d="M667,367.94c-8.76-2-13.74-3.16-20.68-3.18-4.16,0-11,.34-14.26.55l-7.52.49c-.36,0-5.41-.31-7.14-3.11s.44-8,6.67-10.2a14.6,14.6,0,0,0-5.79,1.63c-.42.22-5.64,3.13-5.75,8.26a8.52,8.52,0,0,0,1.54,4.93c-3.88-1.66-5.84-5.35-4.73-8.77,1-3.24,4.65-5.55,8.78-5.62a12.54,12.54,0,0,0-6.88,1.58,9.53,9.53,0,0,0-4.08,5.26,11.27,11.27,0,0,0-.22,7.36,8.69,8.69,0,0,1-2.55-5c-.58-5.08,4.52-8.47,5-8.75a14,14,0,0,0-5,4c-2,2.7-2.13,5.36-2.22,7.62a18.39,18.39,0,0,0,1.14,7.06,164.94,164.94,0,0,1,53.59-3.88,159.89,159.89,0,0,1,31.54,6.15A168.09,168.09,0,0,0,667,367.94Z" fill="#fff" opacity="0.5" style="mix-blend-mode:overlay"/></g></g></g></g></g></svg>