<svg xmlns="http://www.w3.org/2000/svg" viewBox="0 0 1080 1920"><g style="isolation:isolate"><g id="eyebrow"><g id="_1" data-name="1"><path d="M690.49,381.52A87.84,87.84,0,0,0,669,366.36a209.19,209.19,0,0,0-57,11.47,119.59,119.59,0,0,0-11.86,4.83l-7-26c1.52-.12,1.22-.09,2.67-.22l5.49,13.65V358.9a3.36,3.36,0,0,1,3-3.33,195.07,195.07,0,0,0,31.08-6.09c17.07-5,24.72-10.4,24.72-10.4S685.62,361.21,690.49,381.52Z" fill="#42210b"/><path d="M690.49,381.52A87.84,87.84,0,0,0,669,366.36a209.19,209.19,0,0,0-57,11.47l-1.39-14.91,4.48,9.88s5-10.22,20.29-23.32c17.07-5,24.72-10.4,24.72-10.4S685.62,361.21,690.49,381.52Z" fill="#fff" opacity="0.5" style="mix-blend-mode:overlay"/><path d="M563,356.63l-7,26s-2.74-1.36-7.76-3.3a207.2,207.2,0,0,0-61.07-13s-2.51,1.19-6.13,3.41a82.12,82.12,0,0,0-15.34,11.75c4.87-20.31,30.33-42.44,30.33-42.44s10.13,7.2,33.07,12.56a206.58,206.58,0,0,0,22.73,3.93,2.74,2.74,0,0,1,.71.18,3.34,3.34,0,0,1,2.28,3.15v11.16l5.48-13.65C561.76,356.54,561.46,356.51,563,356.63Z" fill="#42210b"/><path d="M548.25,379.36a207.2,207.2,0,0,0-61.07-13s-2.51,1.19-6.13,3.41c7.89-15.06,19.47-21,20-21.28-.32.39-5.31,6.65-6.71,12.39,5.41-4,18-8,34.73-9.24a206.58,206.58,0,0,0,22.73,3.93,2.74,2.74,0,0,1,.71.18C550.18,359.5,547.55,366.61,548.25,379.36Z" fill="#fff" opacity="0.5" style="mix-blend-mode:overlay"/></g></g></g></svg>