<svg xmlns="http://www.w3.org/2000/svg" viewBox="0 0 1080 1920"><g style="isolation:isolate"><g id="eyebrow"><g id="_6" data-name="6"><path d="M690.49,380c-9.44-6.7-21.47-10.77-21.47-10.77a284.82,284.82,0,0,0-57,8.15c-7.62,1.93-11.86,3.43-11.86,3.43l-7-18.49c1.52-.08,1.22-.06,2.67-.16l5.49,9.7V364c0-1.21,1.28-2.22,3-2.36a267.39,267.39,0,0,0,31.08-4.33c17.07-3.53,24.72-7.39,24.72-7.39S685.62,365.6,690.49,380Z" fill="#42210b"/><path d="M690.49,380c-9.44-6.7-21.47-10.77-21.47-10.77a284.82,284.82,0,0,0-57,8.15l-1.39-10.59,4.48,7s5-7.26,20.29-16.57c17.07-3.53,24.72-7.39,24.72-7.39S685.62,365.6,690.49,380Z" fill="#fff" opacity="0.5" style="mix-blend-mode:overlay"/><path d="M563,362.35l-7,18.49s-2.74-1-7.76-2.35a281.2,281.2,0,0,0-61.07-9.23s-2.51.85-6.13,2.42A86,86,0,0,0,465.71,380C470.58,365.6,496,349.88,496,349.88s10.13,5.12,33.07,8.93c6.52,1.08,14.08,2.06,22.73,2.79a3.9,3.9,0,0,1,.71.12,2.61,2.61,0,0,1,2.28,2.24v7.93l5.48-9.7C561.76,362.29,561.46,362.27,563,362.35Z" fill="#42210b"/><path d="M548.25,378.49a281.2,281.2,0,0,0-61.07-9.23s-2.51.85-6.13,2.42a46.69,46.69,0,0,1,20-15.11c-.32.27-5.31,4.72-6.71,8.8,5.41-2.86,18-5.68,34.73-6.56,6.52,1.08,14.08,2.06,22.73,2.79a3.9,3.9,0,0,1,.71.12C550.18,364.39,547.55,369.44,548.25,378.49Z" fill="#fff" opacity="0.5" style="mix-blend-mode:overlay"/></g></g></g></svg>