<svg xmlns="http://www.w3.org/2000/svg" viewBox="0 0 1080 1920"><g style="isolation:isolate"><g id="costumes"><g id="_1" data-name="1"><path d="M678.65,1006.76c.73,13.58,1.42,30.67,1.7,50.45.06,4.58.22,17.65,0,35.31-.4,32.79-.68,55.41-3.47,84-.85,8.67-1.39,12.35-2.73,23.56-1.77,14.74-2.91,22.08-3.53,30.94a337.18,337.18,0,0,0-.4,34.15c.14,5.22.36,9.57.9,18.54,2,32.84,2.82,35.41,3.24,47,.37,10.48-.47,22.83-2.16,47.52-1.06,15.47-.77,31-2.52,46.46-.59,5.22-.8,7.17-.17,10.39s1.66,4.77,1.1,7.22c-.59,2.6-2.09,2.37-3.47,5.55-1,2.24-1.06,4.33-1.22,8.52a56.23,56.23,0,0,0,.18,7.24,58.94,58.94,0,0,1-25.35,9.46,55.46,55.46,0,0,1-25.55-3,177.19,177.19,0,0,0-1.31-21.75c-.71-5.78-1.08-8.71-2.13-11.31-2.54-6.25-6.27-8.65-5.91-13.09a9.32,9.32,0,0,1,2.5-5.35c-.38-2.56-1-6.35-1.92-10.89-1.33-6.51-2.64-11.18-3.33-13.7-2.14-7.78-5-18-6.67-27.12a153.32,153.32,0,0,1-2.63-27.47c0-3.22.09-6.22.27-9a179.67,179.67,0,0,1,2.35-18.39c.86-5.87.83-9.22.9-22.24.16-28.1.44-31.46.36-38.16-.29-24.6-4.87-46.29-9.94-77.85-4.67-29-9.85-61.41-12.15-100.48-1.68-28.48-1.26-51.82-.67-66.79,2.65-4,19.08-27.93,47.31-30.32C656.1,973.37,676.87,1004,678.65,1006.76Z" fill="#1a1a1a"/><path d="M661.5,1291.36a38,38,0,0,1-9.7,14.77c-12.09,11.3-27.57,10.53-30.44,10.34a136.07,136.07,0,0,0,40.14-25.11Z" fill="#2e2d30"/><path d="M659.05,1284.53a32.13,32.13,0,0,1-17.44,7.5,30.32,30.32,0,0,1-19.05-4.4,82.8,82.8,0,0,0,22.94,0A83.83,83.83,0,0,0,659.05,1284.53Z" fill="#2e2d30"/><path d="M665,1444a61.35,61.35,0,0,1-17,9.49,60.42,60.42,0,0,1-17.1,3.58A29,29,0,0,0,665,1444Z" fill="#2e2d30"/><path d="M610.05,1426.85A101.45,101.45,0,0,0,620,1436a100.19,100.19,0,0,0,12.12,8.36,25.81,25.81,0,0,1-14.43-5.93A25,25,0,0,1,610.05,1426.85Z" fill="#2e2d30"/><path d="M682.79,1110.93c.42,15.21.11,27.47-.24,35.89-.42,9.92-1,16.29,0,25.58a104.57,104.57,0,0,0,5.24,23.17,62,62,0,0,1-12.41,10c-6.32,3.87-17.4,10.66-23.57,7.12-4.33-2.48-3.58-8.53-4.74-29.32-.9-15.94-1.15-9-2-26-.6-11.69-1.13-27.5-.92-46.63Z" fill="#656566"/><path d="M633.5,1091.73c-2.16,18-2.93,32.83-3.23,43.11-.77,26.51,1.51,26,0,44.49-1.7,20.19-5,27.75-.13,32.82,5.35,5.59,17,4.43,31.83-.63l-12.3-108.73Z" fill="#2a2a2b"/><path d="M684.71,1074.62a115.68,115.68,0,0,1-20.33,9.61,113.28,113.28,0,0,1-31,6.39c-.25,1.94-1.78,14.92,7.26,23.82a24.4,24.4,0,0,0,11.64,6.46c2.44.56,5.71.89,15.45-1.11a153.94,153.94,0,0,0,19.44-5.36Q686,1094.53,684.71,1074.62Z" fill="#3e3e3f"/><path d="M472.92,1002.2c-.68,11.78-1.41,29.64-1.08,51.48.27,18.06.9,14.72,1.83,42.16.45,13.42,2.1,67.1,3.82,84,.88,8.67,1.44,12.35,2.83,23.55,2.11,17,3.46,25.52,3.65,30.93.37,10.42-.83,10.59-1.45,32.62-.21,7.46-.16,10.63-.24,17-.3,24.29-1.64,31.58-2.16,49.68-.46,15.92-.85,29.19,1.08,46.92,1.72,15.79,2.67,31.67,4.52,47.44.74,6.23.72,7.74.22,10.39-.61,3.28-1.64,4.78-1.07,7.23.6,2.6,2.1,2.36,3.49,5.53,1,2.24,1.08,4.33,1.26,8.51a59.51,59.51,0,0,1-.15,7.25,59,59,0,0,0,25.39,9.35,55.5,55.5,0,0,0,25.53-3.09,180.35,180.35,0,0,1,1.22-21.76c.69-5.78,1-8.72,2.09-11.31,2.52-6.27,6.23-8.68,5.85-13.12a9.24,9.24,0,0,0-2.52-5.34c.37-2.56,1-6.35,1.87-10.9,1.31-6.51,2.59-11.19,3.28-13.71,2.1-7.8,4.88-18.07,6.55-27.15a153.56,153.56,0,0,0,2.52-27.48c0-3.23-.12-6.22-.31-9a181.22,181.22,0,0,0-2.43-18.39c-.88-5.86-.86-9.21-1-22.23-.11-11.73-.57-10.76-.29-22.41.21-9,.91-15.87,1.33-19.91,6.35-60.79,8.06-73.73,8.06-73.73,7-52.74,10.56-79.11,11.73-100.52,1.56-28.49,1-51.83.39-66.8-2.11-3.28-17.56-26.42-47.44-30.12C497.07,975.07,474.68,1000.15,472.92,1002.2Z" fill="#1a1a1a"/><path d="M493.35,1294.59a38.09,38.09,0,0,0,9.76,14.73c12.14,11.25,27.62,10.41,30.49,10.21a136.18,136.18,0,0,1-40.25-24.94Z" fill="#2e2d30"/><path d="M495.77,1287.75a32.18,32.18,0,0,0,17.47,7.43,30.31,30.31,0,0,0,19-4.49,82.91,82.91,0,0,1-22.93.08A84.16,84.16,0,0,1,495.77,1287.75Z" fill="#2e2d30"/><path d="M490.52,1447.21a61.21,61.21,0,0,0,17,9.43,60.32,60.32,0,0,0,17.11,3.5,28.93,28.93,0,0,1-34.1-12.93Z" fill="#2e2d30"/><path d="M545.36,1429.86a100.53,100.53,0,0,1-9.87,9.16,102.66,102.66,0,0,1-12.09,8.42,25.81,25.81,0,0,0,14.41-6A24.85,24.85,0,0,0,545.36,1429.86Z" fill="#2e2d30"/><path d="M471.3,1114.26c-.35,15.21,0,27.46.4,35.88.46,9.92,1.06,16.28.08,25.58a104,104,0,0,1-5.15,23.19,62.53,62.53,0,0,0,12.46,10c6.33,3.84,17.45,10.59,23.6,7,4.32-2.5,3.54-8.55,4.62-29.34.83-16,1.11-9,1.91-26,.55-11.7,1-27.52.72-46.64Z" fill="#656566"/><path d="M520.52,1094.85c2.23,18,3.06,32.81,3.41,43.09.88,26.5-1.4,26,.23,44.49,1.78,20.18,5.12,27.73.27,32.82-5.33,5.61-17,4.5-31.83-.5q5.91-54.39,11.84-108.77Z" fill="#2a2a2b"/><path d="M469.24,1078a114.7,114.7,0,0,0,20.37,9.52,113.31,113.31,0,0,0,31,6.27c.26,1.93,1.84,14.91-7.16,23.85a24.58,24.58,0,0,1-11.61,6.51c-2.44.56-5.71.91-15.46-1a153.65,153.65,0,0,1-19.46-5.28Q468.06,1097.85,469.24,1078Z" fill="#3e3e3f"/><path d="M548.47,1039.43c-5.16-33.62,9.48-62.17,25.61-66.81,18.19-5.24,46.11,17.71,48.77,58.46-2.87,3.39-21.23,24.42-47.24,21.16C562.69,1050.62,553.3,1043.68,548.47,1039.43Z" fill="#1a1a1a"/><path d="M557,1043.75a44.11,44.11,0,0,0,22.13,7.15c12.65.39,22.68-5.37,28.44-9.56-2.75,3.78-12.12,15.7-25.75,16.09C568.79,1057.8,559.86,1047.35,557,1043.75Z"/><path d="M535.1,1487c-2-4.35-1.24-8.74,1.19-10.56,2-1.52,4.93-1,6.77.1,6.08,3.66,6.1,17.18,2.68,18.76C544.82,1495.72,542.19,1496,535.1,1487Z" fill="#333" stroke="#000" stroke-miterlimit="10" stroke-width="1.82"/><path d="M421.08,1545.59a30.43,30.43,0,0,0-2.32,13.18,31.37,31.37,0,0,0,2.9,11.71A101.42,101.42,0,0,0,453,1576.9a99.66,99.66,0,0,0,37-5.5c5.94-2.09,9.89-4.12,29.73-15.88,9.18-5.44,20.25-12.07,32.8-19.74a39,39,0,0,0-4.71-20.55,282.71,282.71,0,0,1-30,19.28c-13.67,7.59-26.12,14.38-43.7,18.18a94.51,94.51,0,0,1-24.34,2.19c-11.72-.51-11-2.78-20.35-3.8-1.34-.15-4.79-.47-7-3.15A7.85,7.85,0,0,1,421.08,1545.59Z" fill="#fff" stroke="#000" stroke-miterlimit="10" stroke-width="1.82"/><path d="M421.08,1545.59c.86,5,13.39,7,20.95,8.12a87.11,87.11,0,0,0,32-1c32.7-7.29,66.93-32.41,73.71-37.46a50.27,50.27,0,0,0-2.71-20.58c-.92-2.57-5.2-14.55-10.27-14.45-3.61.06-3.61,6.17-9.84,9.54-4.57,2.48-9.38,1.71-13.62,1-13.93-2.22-20.62-11.49-25.78-8.49-1.92,1.11-4.32,4.34-4.66,4.79a38.88,38.88,0,0,0-2.75,4.49,63.32,63.32,0,0,1-5.22,7.42c-5.09,6.67-10.36,14.22-12.42,17C443.69,1538.09,419.86,1538.58,421.08,1545.59Z" fill="#333" stroke="#000" stroke-miterlimit="10" stroke-width="1.82"/><path d="M452.58,1525c-1,1.43-2.06,3.45-1.46,5.27.65,2,2.84,2.42,8.79,4.72,7.71,3,7.31,3.52,10.65,4.18a24,24,0,0,0,9.95.19c5.65-1.19,6.6-3.88,10.85-4.54,2.65-.4,6.56,0,11.86,3.76l25.44-14.94a28.12,28.12,0,0,1,.89-12.26c3.56-11.44,13.64-15.94,15.5-16.73a85.64,85.64,0,0,0-4.49-9.31c-1.22-2.18-2.31-3.91-4.23-4.49a4.54,4.54,0,0,0-2.59,0c-2.17.67-2.62,2.87-4.49,5.18a14.22,14.22,0,0,1-5,3.86c-4,2-8.19,1.5-12.36.82a47.67,47.67,0,0,1-17.3-6.52c-2.39-1.43-5.81-2.92-9-1.88-3.83,1.24-4.63,5.18-8.05,11.49-2,3.6-6.54,8.82-15.12,19.71C458.33,1518.6,454.82,1522.56,452.58,1525Z" fill="#72726e" stroke="#000" stroke-miterlimit="10" stroke-width="1.82"/><path d="M459.25,1512.18c-2.46-.77-4.52.78-4.66,2.33a3.65,3.65,0,0,0,2.56,3.31A119.07,119.07,0,0,1,474.7,1521a36.12,36.12,0,0,1,9.49,3.69,34.06,34.06,0,0,1,5.11,3.57c2.47,2.09,5.32,1.67,6.08.4s0-3.74-2.21-5.41a59.58,59.58,0,0,0-16.55-8.36A56.51,56.51,0,0,0,459.25,1512.18Z" fill="#fff"/><path d="M466.5,1504.28c-2.46-.77-4.51.78-4.65,2.33a3.65,3.65,0,0,0,2.56,3.31A119.33,119.33,0,0,1,482,1513.1a36,36,0,0,1,9.49,3.69,35.15,35.15,0,0,1,5.11,3.57c2.46,2.09,5.31,1.67,6.07.4s0-3.74-2.2-5.41a59.64,59.64,0,0,0-16.56-8.37A56.71,56.71,0,0,0,466.5,1504.28Z" fill="#fff"/><path d="M474.13,1493.57c-2.46-.77-4.52.78-4.65,2.34a3.63,3.63,0,0,0,2.55,3.3,119.26,119.26,0,0,1,17.56,3.18,36.75,36.75,0,0,1,9.49,3.69,35.15,35.15,0,0,1,5.11,3.57c2.46,2.09,5.31,1.67,6.07.41s0-3.74-2.2-5.41a59.51,59.51,0,0,0-16.56-8.37A56.51,56.51,0,0,0,474.13,1493.57Z" fill="#fff"/><path d="M452.76,1519.57c-2.45-.8-4.53.72-4.68,2.27a3.63,3.63,0,0,0,2.52,3.34,118.88,118.88,0,0,1,17.51,3.41,36.21,36.21,0,0,1,9.45,3.82,34.21,34.21,0,0,1,5.07,3.64c2.44,2.12,5.29,1.74,6.07.48s.08-3.73-2.14-5.43a59.42,59.42,0,0,0-16.46-8.59A56.73,56.73,0,0,0,452.76,1519.57Z" fill="#fff"/><path d="M619.52,1484.22c2-4.35,1.24-8.74-1.19-10.55-2-1.52-4.93-1-6.77.1-6.08,3.65-6.1,17.18-2.68,18.75C609.8,1492.94,612.43,1493.18,619.52,1484.22Z" fill="#333" stroke="#000" stroke-miterlimit="10" stroke-width="1.82"/><path d="M733.54,1542.81a30.46,30.46,0,0,1,2.32,13.18,31.29,31.29,0,0,1-2.9,11.72,101.75,101.75,0,0,1-31.29,6.41,99.45,99.45,0,0,1-37-5.5c-5.94-2.08-9.89-4.11-29.73-15.88-9.18-5.44-20.25-12.07-32.8-19.74a39.1,39.1,0,0,1,4.71-20.55,281.11,281.11,0,0,0,30,19.28c13.67,7.59,26.12,14.39,43.7,18.18a94.06,94.06,0,0,0,24.34,2.19c11.72-.51,11-2.78,20.35-3.8,1.34-.14,4.79-.47,7-3.15A7.74,7.74,0,0,0,733.54,1542.81Z" fill="#fff" stroke="#000" stroke-miterlimit="10" stroke-width="1.82"/><path d="M733.54,1542.81c-.86,5-13.39,7-20.95,8.12a86.65,86.65,0,0,1-32-1c-32.7-7.29-66.93-32.4-73.71-37.46a50.29,50.29,0,0,1,2.71-20.58c.92-2.57,5.2-14.55,10.27-14.45,3.61.07,3.61,6.17,9.84,9.55,4.57,2.47,9.38,1.7,13.62,1,13.93-2.23,20.62-11.5,25.78-8.5,1.92,1.12,4.32,4.34,4.66,4.79a37.65,37.65,0,0,1,2.75,4.5,63.22,63.22,0,0,0,5.22,7.41c5.09,6.67,10.36,14.22,12.42,17C710.93,1535.31,734.76,1535.8,733.54,1542.81Z" fill="#333" stroke="#000" stroke-miterlimit="10" stroke-width="1.82"/><path d="M702,1522.23c1,1.42,2.06,3.44,1.46,5.26-.65,2-2.84,2.42-8.79,4.72-7.7,3-7.31,3.53-10.65,4.19a24.21,24.21,0,0,1-9.95.18c-5.65-1.18-6.6-3.87-10.85-4.53-2.65-.41-6.56,0-11.86,3.75L626,1520.86a28.12,28.12,0,0,0-.89-12.26c-3.56-11.44-13.64-15.94-15.5-16.73a85.64,85.64,0,0,1,4.49-9.31c1.22-2.18,2.32-3.9,4.23-4.48a4.36,4.36,0,0,1,2.59,0c2.17.67,2.62,2.86,4.49,5.18a14.29,14.29,0,0,0,5,3.85c4,2,8.19,1.5,12.36.82a47.8,47.8,0,0,0,17.3-6.51c2.39-1.44,5.81-2.93,9-1.89,3.83,1.24,4.63,5.18,8,11.49,2,3.6,6.54,8.82,15.13,19.72C696.29,1515.83,699.8,1519.78,702,1522.23Z" fill="#72726e" stroke="#000" stroke-miterlimit="10" stroke-width="1.82"/><path d="M695.37,1509.4c2.46-.77,4.52.78,4.66,2.34a3.65,3.65,0,0,1-2.56,3.31,118,118,0,0,0-17.55,3.17,36.48,36.48,0,0,0-9.49,3.69,34.06,34.06,0,0,0-5.11,3.57c-2.47,2.09-5.31,1.67-6.08.41s0-3.74,2.21-5.41a59.29,59.29,0,0,1,16.55-8.37A56.51,56.51,0,0,1,695.37,1509.4Z" fill="#fff"/><path d="M688.12,1501.5c2.46-.77,4.52.78,4.65,2.34a3.64,3.64,0,0,1-2.56,3.3,119.33,119.33,0,0,0-17.55,3.18,36.75,36.75,0,0,0-9.49,3.69,35.15,35.15,0,0,0-5.11,3.57c-2.46,2.09-5.31,1.67-6.07.41s0-3.74,2.2-5.42a59.8,59.8,0,0,1,16.56-8.36A56.51,56.51,0,0,1,688.12,1501.5Z" fill="#fff"/><path d="M680.49,1490.8c2.46-.78,4.52.77,4.65,2.33a3.65,3.65,0,0,1-2.55,3.31,119.52,119.52,0,0,0-17.56,3.17,36.75,36.75,0,0,0-9.49,3.69,36,36,0,0,0-5.11,3.57c-2.46,2.09-5.31,1.68-6.07.41s0-3.74,2.2-5.41a59.51,59.51,0,0,1,16.56-8.37A56.75,56.75,0,0,1,680.49,1490.8Z" fill="#fff"/><path d="M701.86,1516.79c2.45-.8,4.53.72,4.69,2.27a3.68,3.68,0,0,1-2.52,3.35,119.32,119.32,0,0,0-17.52,3.4,36.91,36.91,0,0,0-9.45,3.82,35.53,35.53,0,0,0-5.07,3.64c-2.44,2.12-5.29,1.74-6.07.49s-.08-3.74,2.14-5.44a59.42,59.42,0,0,1,16.46-8.59A56.73,56.73,0,0,1,701.86,1516.79Z" fill="#fff"/><path d="M529.26,635.88a136.94,136.94,0,0,0,80.42-.57,69.55,69.55,0,0,0-11.1,24.23,77.9,77.9,0,0,0-1.24,29.58c3,22.18,10.13,142.33,19.49,310.73H536.17a1407.27,1407.27,0,0,0,7.4-214.67A1399.18,1399.18,0,0,0,529.26,635.88Z" fill="#fffffd" stroke="#a9a9a4" stroke-miterlimit="10" stroke-width="2.93"/><path d="M533,656.16c15.06,1.27,30,2,45.08,1.05,15.07-.74,29.87-3.07,44.71-5.93A143.92,143.92,0,0,1,533,656.16Z" fill="#a9a9a4"/><path d="M424.52,650.12c-3.84,6.17-3.87,12.78,13.11,68C445,742.2,449,753.8,453.35,773.73c2.94,13.43,4.59,23.93,5.24,28.26,4.76,31.71,4.39,57.45,5,100.5.06,4.31,0,8.63,0,13.68A715.83,715.83,0,0,1,458.23,992a11.46,11.46,0,0,0,3.06,9.43,207.47,207.47,0,0,0,44.11,34A191.62,191.62,0,0,0,537.32,1050c6.16,2.16,12.3-3.41,11.91-10.77-1-19.57-1.86-42.07-2.09-67-.37-39.23-.6-64,2.21-97.71,3.28-39.48,7.59-53.51,8.59-96,.22-9.37.23-19.16.25-38.74,0-27.44-.21-50.32-.44-66.69a11.54,11.54,0,0,1,1.73-6.34l4.89-7.77a11.73,11.73,0,0,0-1-13.71c-3.64-4.09-5.86-7.7-9.08-10.21a93.74,93.74,0,0,1-17.68-18.53l-1.72-3.37,4-8.2a7.1,7.1,0,0,0-3.77-1.07,8.36,8.36,0,0,0-3.13.85c-9.81,3.19-16.14,10.43-19.32,14.78a423.54,423.54,0,0,0-52.38,13.29C429.93,642.57,426.12,647.55,424.52,650.12Z" fill="#534741"/><path d="M512.6,619.5,527,678.27q6.62-6.72,13.26-13.47,5.29-5.35,10.56-10.67l7.12.28,7.86.84a13.42,13.42,0,0,0-.49-7.16c-.36-.94-.76-1.57-4.67-6.17-2.33-2.74-3.51-4.14-4.54-5.2-1.87-1.93-2.78-2.61-5-4.63a107.87,107.87,0,0,1-9.33-9.27,75.71,75.71,0,0,1-5.28-6.73l.12.42q1-6.6,2-13.2a29.45,29.45,0,0,0-12,3.09A35.07,35.07,0,0,0,512.6,619.5Z" fill="#fff" opacity="0.5" style="mix-blend-mode:overlay"/><g opacity="0.4"><path d="M512.6,619.5c.74,2.48,1.43,5,2.12,7.46s1.4,5,2,7.48c1.35,5,2.63,10,3.91,15q3.81,15,7.29,30.14l-1.77-.51c2-2.1,4.1-4.15,6.15-6.23s4.11-4.13,6.18-6.19c1.06-1,2-2.08,3-3.16l3-3.2c2-2.14,4-4.24,6-6.36l.12-.12h.13q3.55.25,7.11.59c-2.38,0-4.76,0-7.13,0l.25-.11c-1.86,2.26-3.7,4.54-5.59,6.78s-3.7,4.55-5.73,6.67-4,4.29-6,6.41-4,4.28-6.05,6.38l-1.31,1.36-.46-1.87q-3.67-15-7-30.18c-1.11-5-2.22-10.1-3.26-15.16-.54-2.52-1-5.07-1.53-7.6S513.06,622.05,512.6,619.5Z"/></g><g opacity="0.4"><path d="M539,665.92c-4.07,63.2-3.49,126.6-9.73,189.66-6,63-3.19,126.49-2.06,189.64-2.77-55.31-4.76-110.8-2-166.15,1.51-23.71,4.58-47.25,5.78-71,.93-13.82,1.59-33.4,2.12-47.4,1.21-31.64,3.55-63.21,5.91-94.78Z"/><path d="M532.53,673.64c0,1,0,2,.05,2.92" fill="none" stroke="#000" stroke-miterlimit="10" stroke-width="2.19"/><path d="M532.64,682.35c0,8.06-.16,14.81-.36,19.93-.28,7.16-.6,11.15-2,30.74-1.15,16.58-1.73,24.86-1.84,27-1.18,21.49-.4,26.56-1.23,46.61-.12,2.88-.29,6.51-2.46,34.95-3.63,47.8-4.14,50.52-4.66,62.75-.32,7.49-.59,17.29,0,50.26.38,21.17,1.08,49.58,2.46,83.74" fill="none" stroke="#000" stroke-miterlimit="10" stroke-width="2.19" stroke-dasharray="5.79 5.79"/><path d="M522.71,1041.18l.12,2.92" fill="none" stroke="#000" stroke-miterlimit="10" stroke-width="2.19"/><path d="M542,706.21c0,.67,3.15,1.5,6,1.54,2.68,0,5.76-.6,5.77-1.26s-3.23-1.34-5.9-1.4S542,705.54,542,706.21Z" fill="none" stroke="#000" stroke-miterlimit="10" stroke-width="2.19"/><path d="M540.39,760c0,.67,3.15,1.51,6,1.55,2.69,0,5.77-.61,5.77-1.27s-3.22-1.34-5.89-1.4S540.41,759.3,540.39,760Z" fill="none" stroke="#000" stroke-miterlimit="10" stroke-width="2.19"/><path d="M538.18,814c0,.67,3.15,1.5,6,1.54,2.69,0,5.77-.6,5.77-1.26s-3.22-1.34-5.89-1.4S538.2,813.35,538.18,814Z" fill="none" stroke="#000" stroke-miterlimit="10" stroke-width="2.19"/><path d="M532.65,865.82c0,.67,3.15,1.5,6,1.54,2.68,0,5.76-.6,5.77-1.26s-3.23-1.35-5.9-1.4S532.67,865.15,532.65,865.82Z" fill="none" stroke="#000" stroke-miterlimit="10" stroke-width="2.19"/><path d="M529.46,921c0,.67,3.15,1.5,6,1.54,2.68,0,5.76-.61,5.77-1.26s-3.23-1.35-5.9-1.41S529.48,920.32,529.46,921Z" fill="none" stroke="#000" stroke-miterlimit="10" stroke-width="2.19"/><path d="M530.2,979.67c0,.66,3.15,1.5,6,1.54,2.69,0,5.77-.61,5.77-1.26s-3.22-1.35-5.89-1.41S530.22,979,530.2,979.67Z" fill="none" stroke="#000" stroke-miterlimit="10" stroke-width="2.19"/></g><path d="M434.36,680.71c6.24,13.78,16.67,28.23,22.1,35.75a86.16,86.16,0,0,1,9.93,16.26,100.72,100.72,0,0,1,5.69,16.76A77.71,77.71,0,0,1,474,759.69c2.32,18.13-1,21.78,1.31,42.3,1.18,10.32,2.92,17.24,8.51,37.44,4.54,16.35,10.34,36.87,17.35,60.64-14.41-31.46-19.91-36.89-22.26-35.94-3.63,1.48.74,18.11.66,52.41,0,15.32-.93,17-2.29,49.41-.76,18-1.13,32.55-1.31,41.74a251.56,251.56,0,0,0,24.71,20.22c21.56,15.46,37.72,21.43,37.49,22.08-.35,1-34.2-14.61-47.84-24.14-8.13-5.68-14.55-11.23-14.55-11.23-1.26-1.09-1.78-1.58-4.07-3.56-2.83-2.44-5.59-5-8.42-7.46a14.41,14.41,0,0,1-1.73-1.71,15.57,15.57,0,0,1-2.78-5.24c-.82-2.85-.37-5.28,0-7.67.69-4.52.62-9.15,1.31-13.67,1.2-7.83,1.67-16.57,2.62-34.06.33-6.16.79-14.89.9-26.49.09-10.13-.13-17.85-.41-27.42-.2-6.76-.39-13.53-.9-22.46-.72-12.58-1.14-13.5-2.13-28.26-.84-12.59-.45-13.31-1.39-27.89s-1.61-19.29-2.62-24.14c-.76-3.66-.79-2.94-4.09-15.73-3-11.74-3.16-12.94-5.08-20-1-3.92-2.56-8.92-5.56-18.91-3.84-12.77-5.76-19.15-7.86-25.64-4.05-12.54-6.22-19.09-6.22-19.09-3.86-11.66-5.69-16.87-4.58-23.58a26.72,26.72,0,0,1,3.44-9.36A106.73,106.73,0,0,0,434.36,680.71Z" fill="#fff" opacity="0.5" style="mix-blend-mode:overlay"/><path d="M723.75,655.81c9.18,16.37,6.77,41-.82,58.4-7.75,17.82-28.28,45.11-29.22,53.91-.35,3.19-.44,6.43-.44,6.43-.08,4.71.53,7.76.11,26.32-1,41.75-4.37,55-5,100.5,0,4.31,0,8.63.05,13.67a715.41,715.41,0,0,0,5.27,75.79,11.49,11.49,0,0,1-3.07,9.43,207.31,207.31,0,0,1-44.1,34,191.65,191.65,0,0,1-31.92,14.58c-6.17,2.15-12.31-3.41-11.92-10.77,1-19.57,1.86-42.07,2.1-67,.36-39.22.59-64-2.21-97.7-3.29-39.48-7.6-53.51-8.6-96-.22-9.37-.23-19.16-.24-38.74,0-27.45.21-50.33.44-66.7a11.68,11.68,0,0,0-1.74-6.34q-2.44-3.89-4.88-7.76a11.72,11.72,0,0,1,1-13.71c3.64-4.09,5.87-7.7,9.09-10.22,7.48-5.85,13.19-12.83,17.67-18.53.44-.55,1.9-2.43,4.06-5.11s3.83-4.72,5-6.08l-1.22-2.84c1.32,0,2.66.09,4,.16l.85,0a9.36,9.36,0,0,1,4,.15A10.18,10.18,0,0,1,636.2,604c4,3.61,4.33,9.4,4.4,10.63a18.55,18.55,0,0,1-.1,3.27c21.47,6.52,38,11.22,51.17,14.32a46.83,46.83,0,0,1,18.82,8.42A51.44,51.44,0,0,1,723.75,655.81Z" fill="#534741"/><path d="M640.76,616.88Q632.87,647,625,677.15q-6.6-6.74-13.26-13.48-5.28-5.34-10.56-10.66l-7.12.28-7.85.84a13.22,13.22,0,0,1,.49-7.16c.36-.94.75-1.57,4.66-6.18,2.33-2.74,3.52-4.13,4.55-5.19.28-.29.71-.78,1.35-1.35s1-.77,1.6-1.26,1.1-.91,2-1.74a117.29,117.29,0,0,0,9.15-9.18c1.77-2,2.28-2.77,5.55-6.9,2-2.58,5-6.36,8.84-11l-1.22-2.84,5,.18a9.27,9.27,0,0,1,5.57.75C638,604.39,640.78,610.15,640.76,616.88Z" fill="#fff" opacity="0.5" style="mix-blend-mode:overlay"/><g opacity="0.4"><path d="M639.92,620.36c-4,19.17-8.86,38.15-13.94,57.06l-.49,1.81-1.29-1.34c-7.77-8-15.79-16.4-23.29-24.65l.25.09q-3.57,0-7.14,0c2.41-.24,4.83-.43,7.24-.62l.11.11q9.33,8.65,18.34,17.64l6,6-1.77.47c4.89-19,10-37.86,16-56.52Z"/></g><path d="M612.93,664.8c2.51,31.55,4.91,63.13,6.18,94.76.57,14.14,1.24,33.52,2.17,47.39,1.22,23.73,4.32,47.26,5.8,71,2.72,55.37.66,110.87-2.37,166.18.84-63.14,3.63-126.68-2.42-189.61-6.2-63.08-5.59-126.46-9.36-189.69Z" fill="#44433a"/><path d="M619.44,672.52c0,1.24-.05,2.45-.07,3.64" fill="none" stroke="#44433a" stroke-miterlimit="10" stroke-width="0.73"/><path d="M619.32,683.59c0,7,.18,13,.36,17.57.28,7.16.6,11.15,2,30.74,1.16,16.57,1.73,24.86,1.85,27,1.18,21.49.39,26.56,1.22,46.61.12,2.88.3,6.51,2.46,34.95,3.64,47.79,4.14,50.52,4.66,62.75.32,7.49.6,17.29,0,50.25-.37,20.86-1.06,48.73-2.4,82.21" fill="none" stroke="#44433a" stroke-miterlimit="10" stroke-width="0.73" stroke-dasharray="7.42 7.42"/><path d="M629.28,1039.33c0,1.21-.1,2.42-.15,3.65" fill="none" stroke="#44433a" stroke-miterlimit="10" stroke-width="0.73"/><path d="M621.77,978.54c-.08,4.06-4,7.06-7.36,6.18a6.41,6.41,0,0,1-4.43-5.9c-.16-3.67,2.79-7,6.15-6.88C619.22,972.09,621.83,975.17,621.77,978.54Z" fill="none" stroke="#000" stroke-miterlimit="10" stroke-width="2.19" opacity="0.4"/><path d="M622.1,911.54c-.08,4.05-4,7.05-7.36,6.17a6.4,6.4,0,0,1-4.43-5.89c-.16-3.67,2.79-7,6.15-6.88C619.55,905.08,622.16,908.16,622.1,911.54Z" fill="none" stroke="#000" stroke-miterlimit="10" stroke-width="2.19" opacity="0.4"/><path d="M619.15,856.51c-.08,4-4,7-7.36,6.17a6.41,6.41,0,0,1-4.43-5.89c-.16-3.67,2.79-7,6.15-6.88C616.6,850.05,619.21,853.13,619.15,856.51Z" fill="none" stroke="#000" stroke-miterlimit="10" stroke-width="2.19" opacity="0.4"/><path d="M614.24,810.09c-.08,4.06-4,7-7.36,6.18a6.42,6.42,0,0,1-4.43-5.9c-.16-3.67,2.79-7,6.15-6.88C611.69,803.64,614.3,806.72,614.24,810.09Z" fill="none" stroke="#000" stroke-miterlimit="10" stroke-width="2.19" opacity="0.4"/><path d="M611.29,761.05c-.08,4.06-4,7.06-7.35,6.18a6.41,6.41,0,0,1-4.43-5.9c-.16-3.67,2.78-7,6.14-6.88C608.74,754.6,611.36,757.68,611.29,761.05Z" fill="none" stroke="#000" stroke-miterlimit="10" stroke-width="2.19" opacity="0.4"/><path d="M611,708.64c-.07,4.06-4,7.06-7.35,6.18a6.4,6.4,0,0,1-4.43-5.9c-.16-3.67,2.78-7,6.15-6.88C608.42,702.19,611,705.27,611,708.64Z" fill="none" stroke="#000" stroke-miterlimit="10" stroke-width="2.19" opacity="0.4"/><path d="M704.93,724.13c-7.4,12.64-12.74,16.68-18.09,31.63-3.07,8.6-5.43,20.77-10.16,45.11-.75,3.87-2.37,11.32-4.55,21.58-.84,3.95-2,8.84-4,15.85-4.53,16.36-10.34,36.87-17.35,60.65,14.41-31.46,19.92-36.89,22.26-35.94,3.64,1.48-.74,18.1-.65,52.41,0,15.32.92,17,2.29,49.41.76,18,1.12,32.54,1.31,41.74a255.87,255.87,0,0,1-24.72,20.22c-21.56,15.46-37.71,21.43-37.48,22.08.34,1,34.2-14.61,47.84-24.14,8.12-5.69,14.54-11.23,14.54-11.23,1.26-1.09,1.78-1.58,4.07-3.56,2.84-2.45,5.59-5,8.42-7.46a13.71,13.71,0,0,0,1.73-1.71,15.38,15.38,0,0,0,2.78-5.24c.82-2.85.37-5.29,0-7.68-.68-4.51-.61-9.15-1.3-13.66-1.2-7.83-1.68-16.58-2.62-34.06-.34-6.16-.8-14.9-.9-26.49-.1-10.14.13-17.85.41-27.42.19-6.76.39-13.53.9-22.46.71-12.58,1.14-13.5,2.12-28.26.45-6.76,1-15.87,1.39-27.89.22-7.68.41-14.16.25-23-.08-4.51-.19-6.1-.19-8.15,0-.8,0-1.51,0-2.33,0,0,.08-3,.41-6,1.13-10.5,15.47-29.76,15.47-29.76,3.74-5,13.66-18.61,18.17-37.34,1.43-5.95,5-21.58-.57-38a50.34,50.34,0,0,0-2-5C721.58,690.2,712.61,711,704.93,724.13Z" fill="#fff" opacity="0.5" style="mix-blend-mode:overlay"/><path d="M765.84,838.37l-7,1.39c-.45-4.44-1.06-10.38-1.82-17.4-1.86-17.16-3.58-31.29-4.83-41.2-4.76-37.9-7.14-56.85-10.76-74.23a197.45,197.45,0,0,0-15.2-47.42c-4.3-9.07-7.88-14.64-14.15-17.55-9.48-4.4-22.44-1.48-30.41,4.46-35.63,26.56-1,135.43,4.45,152.93.94,3,5.84,18.1,10.39,39,1.2,5.48,2.06,9.94,2.56,12.58L688.59,853q2.92,17,5.84,34l77.25-10Q768.77,857.64,765.84,838.37Z" fill="#534741"/><path d="M766.26,838.23q2.93,19.49,5.84,39L694.43,887q-2.92-17-5.84-34Z" fill="#fff" opacity="0.5" style="mix-blend-mode:overlay"/><path d="M771.68,876.93a90.26,90.26,0,0,0-17.12-11.88c-32.06-17.12-65.44-9.53-65.69-11.51-.18-1.38,16.16-5.29,77.39-15.31Q769,857.58,771.68,876.93Z" opacity="0.29"/><path d="M674.84,752.36c6.21,15.48,12.29,32.14,18,49.92,4.28,13.32,8,26.22,11.28,38.64l54.68-1.16-59.91,10.16c-1.16-6.62-3.17-16.93-6.53-29.4-3.49-12.94-5.87-18.72-9.12-30A310.63,310.63,0,0,1,674.84,752.36Z" opacity="0.14"/><path d="M377.51,840.53l7,1.39c.45-4.44,1.06-10.38,1.82-17.4,1.86-17.16,3.58-31.29,4.83-41.2,4.76-37.9,7.14-56.85,10.76-74.23a197.94,197.94,0,0,1,15.2-47.42c4.3-9.07,7.89-14.64,14.15-17.55,9.48-4.4,22.44-1.48,30.41,4.46,35.63,26.56,1,135.43-4.45,152.93-.94,3-5.84,18.1-10.39,39-1.2,5.48-2.06,9.94-2.56,12.58l10.44,2.08q-2.91,17-5.84,34l-77.25-10Q374.6,859.8,377.51,840.53Z" fill="#534741"/><path d="M377.1,840.39l-5.85,39,77.67,9.75q2.93-17,5.84-34Z" fill="#fff" opacity="0.5" style="mix-blend-mode:overlay"/><path d="M371.67,879.09a90.26,90.26,0,0,1,17.12-11.88c32.07-17.12,65.44-9.53,65.7-11.51.17-1.38-16.17-5.29-77.39-15.31Z" opacity="0.29"/><path d="M467.24,767.24c-6,11.93-12.06,25.14-17.76,39.6-4.57,11.6-8.43,22.74-11.7,33.27l-53.23,1.81,59.91,10.16c2.56-12.33,5-22.51,6.94-29.88,2.41-9.35,4.45-16.4,7.82-28C462.44,783.06,465.23,773.82,467.24,767.24Z" opacity="0.14"/></g></g></g></svg>