<svg xmlns="http://www.w3.org/2000/svg" viewBox="0 0 1080 1920"><g style="isolation:isolate"><g id="costumes"><g id="_10" data-name="10"><path d="M465.14,971c-1,47-.12,97.92,3.52,152.28,3.3,49.29,8.5,95.45,14.8,138.14-.55,8.36-1.48,21.44-2.88,37.54-1.1,12.67-2,21.06-3.56,39.16-3.34,38.24-3,42.6-1.42,48.67,2.33,8.75,5,11.8,9,26.94a214,214,0,0,1,4.86,23l63.61,7.55a315.69,315.69,0,0,0,3.67-66.94c-.47-8.44-1.17-14.1-1.54-26.17a422.79,422.79,0,0,1,1.45-50.3c4-47.38,8.62-78.51,12.73-123.33.5-5.4.83-9.31,1.11-12.88.91-11.82,1.43-20.56,1.55-22.66,1-17,3.37-36.26,4.83-50.18,4.12-39.15,6.17-58.73,4.45-69.64-2-12.62-8.69-55.22-42-68.64C516.06,944.08,487.44,951.82,465.14,971Z" fill="#476588"/><path d="M476.63,1342.31a111.09,111.09,0,0,0,16,39.14c-2.82-8.45-5.58-17.37-8.19-26.72q-3.81-13.62-6.69-26.33Q477.2,1335.36,476.63,1342.31Z" fill="#1d2a41"/><path d="M555.38,1358.31c-2,7.14-4.36,14.64-7.1,22.43q-3.54,10-7.29,19,5.09-9.42,10.11-19.2,2.7-5.25,5.31-10.45Q555.9,1364.2,555.38,1358.31Z" fill="#1d2a41"/><path d="M498.21,1277a30.83,30.83,0,0,0,41.9.66c-.32.79-5.16,12.12-16.65,14.2C513.44,1293.68,502.7,1287.67,498.21,1277Z" fill="#1d2a41" opacity="0.5"/><path d="M474.17,1378.71c1.52,5.94,6,19.91,19.13,30.21a49.26,49.26,0,0,0,17.87,9c4.4,1.1,18.9,4.73,31.93-3.91A36.55,36.55,0,0,0,557,1395.71a278.31,278.31,0,0,1-1.47,30.73c-.64,6.22-1.46,12.13-2.4,17.74L515,1439.65l-25.48-3a103.19,103.19,0,0,0-5.57-25c-2.4-6.62-4.58-13.32-6.91-20a54.58,54.58,0,0,1-2.09-7.63C474.51,1381.79,474.29,1380,474.17,1378.71Z" fill="#1d2a41"/><path d="M475.29,1416.47c-1.38,1.1-2.3,3.18-1.22,14.93,1.26,13.71,1.89,20.56,4.53,23.36s12.9,2.42,33.3,2c8.92-.18,12.47-.38,19.12,0,6.14.34,7.92.76,13.47.79,9.79,0,16.08,0,18.93-3.87,1.3-1.76,1.41-3.44,1.12-8.8-1-19.67.5-22.11-2.07-24-2.79-2.13-5.83-.13-19.9,3.11-10.26,2.37-15.38,3.55-19.66,3.61-8.15.12-15.2-2.28-29.3-7.08C482.16,1416.54,478.08,1414.26,475.29,1416.47Z" fill="#829cb8"/><path d="M473.86,1429.2c.6,3.7,2.58,12.54,9.9,17.06,2.7,1.67,5.26,2.22,8.91,2.72,10.44,1.44,17.39.81,29,.34a171.38,171.38,0,0,0,27-2.64,18.74,18.74,0,0,0,15.4-13.24,127.23,127.23,0,0,1,.65,13c0,3.92-.19,5.65-1.34,7.21-2,2.74-5.69,3.2-7.89,3.43-10.5,1.09-18.86,0-27.32-.43-8-.39-15.38-.11-18.88.07-5.72.29-11.49-.21-17.16.58-3,.43-7.95,1.3-11.87-1.29a10.56,10.56,0,0,1-2.51-2.33c-1.41-1.89-1.67-3.7-2.17-7.79-.82-6.69-1-8.84-1-8.84C474.41,1435.06,474.16,1432.38,473.86,1429.2Z" fill="#14253c"/><path d="M394.83,1563.41a30.64,30.64,0,0,1,2.28-15.85c1.25-2.81,3.71-7.14,10.83-12.83,10.62-8.46,16.6-8,27.77-14.37,6.09-3.48,2.87-2.79,20.68-17.14,19.83-16,24.83-17.63,27.52-25.78,1.34-4.08,1.54-8.08,5.28-12.11,1.16-1.25,6.1-6.57,13.05-5.56,5.52.8,9.54,5.2,11,9.7a14.9,14.9,0,0,1,.19,8.48,24.77,24.77,0,0,0,5.56.17,26.94,26.94,0,0,0,11.33-3.77c5.59-3.33,6.93-6.73,9.23-6.06,1.79.53,2.55,3.06,3,4.62,1,3.47,0,5.49-.09,9.36a28.12,28.12,0,0,0,1.69,10.2c2.09,6.37,4.26,5.25,6.4,11.27,1.6,4.51,1.82,9.15,2.09,14.88.09,1.84.1,3.36.1,4.38a9.85,9.85,0,0,1,1.8,2c1.61,2.44,1.58,4.94,1.63,7.43s.2,5.76.66,10.08c-5.17,1.9-13.62,5.11-23.93,9.46-27.69,11.69-34.56,17.21-51,21.18a121.17,121.17,0,0,1-33.87,3.1A138,138,0,0,1,394.83,1563.41Z" fill="#343334"/><path d="M396.49,1549.25a87.27,87.27,0,0,0,15.5,6c8.63,2.45,16.1,3.13,26.41,3.36a332.27,332.27,0,0,0,42.31-1.83q.62,8.19,1.24,16.36l4.81-.91q-.69-8.25-1.39-16.5c11.2-5.49,20.62-9.37,27.31-12s10.67-3.87,24.37-8.89c8-2.91,14.46-5.35,18.83-7a7.23,7.23,0,0,0-1.33-3.26,7.34,7.34,0,0,0-1.74-1.65l-12.39,5.2c-16.48,6.94-33.29,13.1-49.5,20.62a59.68,59.68,0,0,1-9,3.42,63.64,63.64,0,0,1-15.16,2.39c-15.75.89-23.62,1.34-34.67.19-7.36-.76-14.28-1.52-23.07-4.6a83.62,83.62,0,0,1-10.93-4.73Z" fill="#636363"/><path d="M485.89,1559.32q11.72-5,23.77-9.89,23.62-9.63,46.55-18.16c.07,1,.14,2,.22,3.06-3.53,1.11-8.81,2.86-15.1,5.32-8.71,3.4-14.92,6.44-17.24,7.55a377.42,377.42,0,0,1-37.84,15.33Z" fill="#0a0a09"/><g opacity="0.53"><path d="M395.46,1552.13l1.36.7" fill="none" stroke="#fff" stroke-miterlimit="10" stroke-width="1.83"/><path d="M399.63,1554.19a107.87,107.87,0,0,0,20.47,7.19c16.45,3.95,30,3,39.7,2.33a158.25,158.25,0,0,0,17.83-2.35" fill="none" stroke="#fff" stroke-miterlimit="10" stroke-width="1.83" stroke-dasharray="3.12 3.12"/><path d="M479.16,1561.06l1.49-.3" fill="none" stroke="#fff" stroke-miterlimit="10" stroke-width="1.83"/></g><path d="M403.36,1538.93a68.62,68.62,0,0,0,17.85,6.92c3.19.74,16.25,3.52,40.63-2.08,3-.69,3.16-.82,31.51-10.51,23.6-8.07,30.53-10.39,40.24-15.82a138.16,138.16,0,0,0,17.73-11.81c.49,2.78.9,5.82,1.17,9.11.23,2.94.32,5.7.32,8.26-8.22,3.29-15,6-20,8.06-16.07,6.51-24.1,9.76-26.46,10.91a160.56,160.56,0,0,1-18.32,8.16,88.46,88.46,0,0,1-9.22,2.91c-5.71,1.42-10.51,1.85-22.42,2-12.85.21-19.27.31-24.73-.25a94.05,94.05,0,0,1-20.79-4.07,88,88,0,0,1-12.77-5.27,29.56,29.56,0,0,1,3.19-4.43A28.27,28.27,0,0,1,403.36,1538.93Z" fill="#1c1c1c"/><path d="M488.82,1543.24a2.64,2.64,0,0,1-3-1.62,2.76,2.76,0,0,1,2.49-3.27,2.57,2.57,0,0,1,2.6,1.77A2.67,2.67,0,0,1,488.82,1543.24Z" fill="#1c1b1c" stroke="#fff" stroke-miterlimit="10" stroke-width="0.61" opacity="0.47"/><path d="M500.15,1539.55a2.65,2.65,0,0,1-3-1.62,2.76,2.76,0,0,1,2.49-3.27,2.56,2.56,0,0,1,2.6,1.77A2.68,2.68,0,0,1,500.15,1539.55Z" fill="#1c1b1c" stroke="#fff" stroke-miterlimit="10" stroke-width="0.61" opacity="0.47"/><path d="M422.75,1526.5c3.42,2.09,7,4.48,10.7,7.22a143.85,143.85,0,0,1,14.77,12.62,65.21,65.21,0,0,1-44.86-7.41,46.22,46.22,0,0,1,9.89-8A46.86,46.86,0,0,1,422.75,1526.5Z" fill="#5c5c5c"/><path d="M532.57,1507.8c-5.66,2.36-12.89-1.36-14.07-7.58a10.18,10.18,0,0,1,20-4.1A10.3,10.3,0,0,1,532.57,1507.8Z" fill="#1b1b1b"/><path d="M424.49,1525.81a48.23,48.23,0,0,0,12.7-6.32c4-2.8,4.52-4.11,11.41-10,3.19-2.75,6-4.92,11.53-9.26,6.6-5.16,9.9-7.73,11.22-8.7,4.93-3.63,6.34-4.42,8.29-6.88a35.3,35.3,0,0,0,4.64-8.44c2.53-5.83,1.8-6.61,3.74-9.41a15.63,15.63,0,0,1,8.31-6.33,14.06,14.06,0,0,1,10.44.75c6.81,3.54,7.31,11.8,7.33,12.2-1,1.34-2.42,3.08-4.09,5.06,0,0-4.55,5.41-9.54,10.42-2.32,2.33-6.34,6.18-21.64,18.37-6.81,5.43-13.2,11.36-19.92,16.91-2.52,2.08-5.16,4.24-7.17,8.06-3,5.77-2.73,11.75-2.18,15.41a39.46,39.46,0,0,0-7.78-9.26c-2.7-2.35-4.55-3.28-10.26-7.35C428.48,1528.86,426.06,1527,424.49,1525.81Z" fill="#1c1b1c"/><path d="M422.75,1526.5c5.39,3.53,10.36,7,14.94,10.42,0,0,9.44,7,11,12a27.41,27.41,0,0,1,1,4.81c.06.63.09,1.16.11,1.53l2,0a43,43,0,0,1-.6-13.74c.48-4,.88-7.3,3.05-10.75s4.24-4.08,9.91-8.41c1-.77.82-.66,10.61-9.31,9.17-8.1,11.32-10,14.49-12.76,5.67-5,13.8-12.38,24.23-22.34l.63-4.55c-7,6.37-12.71,11.55-16.49,15-15.92,14.54-16.08,14.86-20.5,18.6-5.38,4.54-10.48,9.41-16.08,13.67-3.69,2.8-6.21,4.5-8.46,7.94a25.24,25.24,0,0,0-3.78,14c-2.84-2.57-5.92-5.2-9.25-7.84-4.66-3.7-9.21-7-13.53-9.79Z"/><path d="M471.91,1531.55a84.47,84.47,0,0,0-33.83-13.78c-1-.27-1.65-1-1.57-1.51s1.07-1.07,2.29-.76a66.4,66.4,0,0,1,11.41,2.32,67.81,67.81,0,0,1,22.87,12,1.25,1.25,0,0,1,.69,1.36A1.31,1.31,0,0,1,471.91,1531.55Z"/><path d="M477.23,1520.91a84.9,84.9,0,0,0-36.38-3.21c-1.08.06-1.89-.48-2-1s.7-1.34,2-1.4a65.52,65.52,0,0,1,11.59-1.14,67.93,67.93,0,0,1,25.39,4.72,1.26,1.26,0,0,1,1.06,1.1A1.3,1.3,0,0,1,477.23,1520.91Z"/><path d="M471.47,1531a77.16,77.16,0,0,0-20.83-25.87c-.72-.67-.87-1.54-.59-1.89s1.32-.38,2.16.4a60.7,60.7,0,0,1,21,26.5,1.16,1.16,0,0,1-.05,1.39A1.18,1.18,0,0,1,471.47,1531Z"/><path d="M488.89,1508.64a84.5,84.5,0,0,0-36.36-3.54c-1.08,0-1.88-.5-1.93-1s.71-1.34,2-1.39a66.41,66.41,0,0,1,11.6-1,67.71,67.71,0,0,1,25.35,5,1.24,1.24,0,0,1,1,1.1A1.3,1.3,0,0,1,488.89,1508.64Z"/><path d="M498.59,1499.94a78.67,78.67,0,0,0-19.48-3.9,77.5,77.5,0,0,0-14.41.32c-1,0-1.76-.49-1.81-.95s.65-1.27,1.83-1.31a60.14,60.14,0,0,1,10.8-.9,62.45,62.45,0,0,1,23.64,4.86,1.21,1.21,0,0,1,1,1A1.19,1.19,0,0,1,498.59,1499.94Z"/><path d="M489,1507.79a56.3,56.3,0,0,0-8.44-12.54,51.74,51.74,0,0,0-7.93-7.17,1.37,1.37,0,0,1-.48-1.55,1.16,1.16,0,0,1,1.67.08,39.9,39.9,0,0,1,6.29,4.94,44.72,44.72,0,0,1,10.18,15.3,1.08,1.08,0,0,1,0,1.2A.81.81,0,0,1,489,1507.79Z"/><path d="M498.25,1498.8a68.54,68.54,0,0,0-9.48-14.33,69.54,69.54,0,0,0-9-8.7c-.64-.59-.78-1.37-.52-1.67s1.17-.35,1.91.35a52.94,52.94,0,0,1,7.14,6.13A54.41,54.41,0,0,1,499.75,1498a1,1,0,0,1,0,1.22A1.05,1.05,0,0,1,498.25,1498.8Z"/><path d="M507,1487.12a68.73,68.73,0,0,0-29.44-2.09c-.87.06-1.53-.36-1.59-.75s.55-1.1,1.57-1.17a54.08,54.08,0,0,1,9.34-1.08,54.9,54.9,0,0,1,20.58,3.47,1,1,0,0,1,.87.87A1,1,0,0,1,507,1487.12Z"/><path d="M688.07,976.78c.88,47-.08,97.92-3.83,152.28-3.4,49.28-8.69,95.43-15.08,138.11.54,8.36,1.44,21.44,2.81,37.54,1.08,12.67,1.93,21.06,3.48,39.17,3.27,38.25,3,42.6,1.33,48.67-2.36,8.74-5,11.79-9.11,26.92a214,214,0,0,0-4.91,22.94l-63.62,7.42a315.22,315.22,0,0,1-3.54-66.94c.49-8.44,1.2-14.11,1.6-26.17a424.54,424.54,0,0,0-1.35-50.3c-3.87-47.39-8.47-78.54-12.49-123.36-2.14-23.9-1.15-18.5-6.07-84.22-2.25-30.18-4.23-54.89-5.55-71.17-.86-10.49,7.85-54.82,42.18-68.55C637.2,949.81,665.81,957.6,688.07,976.78Z" fill="#476588"/><path d="M675.84,1348.12a111.26,111.26,0,0,1-16.13,39.11c2.84-8.45,5.61-17.36,8.25-26.71,2.56-9.07,4.79-17.86,6.74-26.31Z" fill="#1d2a41"/><path d="M597.05,1364c2,7.15,4.33,14.66,7.05,22.46q3.52,10,7.25,19-5.05-9.43-10.07-19.22c-1.79-3.51-3.56-7-5.29-10.47Q596.53,1369.85,597.05,1364Z" fill="#1d2a41"/><path d="M654.39,1282.77a30.85,30.85,0,0,1-41.91.58c.32.79,5.13,12.13,16.62,14.23C639.12,1299.42,649.87,1293.42,654.39,1282.77Z" fill="#1d2a41" opacity="0.5"/><path d="M678.22,1384.52c-1.53,5.94-6.05,19.9-19.19,30.17a49.25,49.25,0,0,1-17.89,9c-4.4,1.09-18.91,4.69-31.92-4a36.58,36.58,0,0,1-13.86-18.32,282.51,282.51,0,0,0,1.41,30.74c.63,6.22,1.44,12.13,2.37,17.74l38.13-4.45,25.49-3a103.18,103.18,0,0,1,5.62-25c2.42-6.62,4.61-13.31,7-20a53.1,53.1,0,0,0,2.1-7.63C677.87,1387.6,678.1,1385.76,678.22,1384.52Z" fill="#1d2a41"/><path d="M677,1422.28c1.38,1.1,2.3,3.18,1.19,14.94-1.29,13.7-1.93,20.55-4.58,23.34s-12.9,2.39-33.3,1.93c-8.92-.2-12.46-.4-19.12-.06-6.14.32-7.92.74-13.47.76-9.79,0-16.08,0-18.93-3.9-1.29-1.77-1.39-3.45-1.1-8.81,1.08-19.67-.45-22.11,2.12-24,2.8-2.12,5.83-.12,19.9,3.16,10.25,2.38,15.37,3.58,19.65,3.65,8.15.13,15.21-2.26,29.32-7C670.15,1422.34,674.24,1420.06,677,1422.28Z" fill="#829cb8"/><path d="M678.43,1435c-.61,3.7-2.61,12.54-9.94,17-2.7,1.66-5.27,2.2-8.91,2.69-10.44,1.42-17.4.78-29,.28-6.66-.28-16.37-.58-27-2.69a20,20,0,0,1-9.25-4,19.73,19.73,0,0,1-6.13-9.23,125.75,125.75,0,0,0-.68,13c0,3.92.18,5.65,1.32,7.22,2,2.73,5.69,3.21,7.89,3.44,10.5,1.11,18.87,0,27.33-.38,8-.37,15.37-.07,18.87.11,5.72.3,11.5-.19,17.16.62,3,.43,8,1.31,11.87-1.27a10.13,10.13,0,0,0,2.51-2.33c1.42-1.88,1.68-3.69,2.19-7.78.84-6.69,1-8.84,1-8.84C677.87,1440.87,678.12,1438.19,678.43,1435Z" fill="#14253c"/><path d="M757.18,1569.38a30.63,30.63,0,0,0-2.24-15.85c-1.24-2.82-3.7-7.15-10.81-12.85-10.6-8.49-16.58-8-27.74-14.43-6.08-3.49-2.86-2.8-20.65-17.18-19.79-16-24.79-17.69-27.46-25.84-1.33-4.08-1.52-8.08-5.26-12.12-1.16-1.25-6.08-6.58-13-5.59-5.52.79-9.56,5.19-11.06,9.68a14.77,14.77,0,0,0-.21,8.48,24.28,24.28,0,0,1-5.56.16,27,27,0,0,1-11.32-3.79c-5.59-3.34-6.92-6.74-9.22-6.08-1.79.52-2.56,3-3,4.61-1.05,3.47-.06,5.49.07,9.37a28.14,28.14,0,0,1-1.71,10.2c-2.1,6.35-4.27,5.23-6.42,11.25-1.61,4.5-1.84,9.15-2.12,14.87-.09,1.84-.11,3.37-.11,4.39a9.22,9.22,0,0,0-1.8,2c-1.62,2.43-1.59,4.93-1.65,7.42s-.21,5.76-.68,10.08c5.16,1.92,13.61,5.14,23.9,9.51,27.67,11.74,34.54,17.29,51,21.29a121.13,121.13,0,0,0,33.87,3.17A137.89,137.89,0,0,0,757.18,1569.38Z" fill="#343334"/><path d="M755.55,1555.22a87.71,87.71,0,0,1-15.51,6c-8.63,2.43-16.11,3.09-26.41,3.3a329.2,329.2,0,0,1-42.31-1.91q-.63,8.19-1.28,16.36l-4.8-.92q.71-8.25,1.42-16.5c-11.19-5.51-20.6-9.41-27.28-12s-10.67-3.88-24.36-8.93c-7.94-2.93-14.45-5.38-18.81-7a7.12,7.12,0,0,1,1.34-3.26,6.9,6.9,0,0,1,1.74-1.64c5.4,2.26,9.72,4.09,12.38,5.22,16.46,7,33.26,13.17,49.46,20.72a61.09,61.09,0,0,0,9,3.44,64.31,64.31,0,0,0,15.15,2.42c15.75.92,23.62,1.38,34.67.26,7.36-.75,14.28-1.5,23.08-4.56a82.84,82.84,0,0,0,10.94-4.71Z" fill="#636363"/><path d="M666.14,1565.11q-11.71-5-23.75-9.94-23.61-9.68-46.52-18.26c-.07,1-.15,2-.22,3.07,3.53,1.11,8.8,2.87,15.08,5.34,8.71,3.43,14.91,6.47,17.23,7.59a376.2,376.2,0,0,0,37.81,15.41C665.89,1567.25,666,1566.18,666.14,1565.11Z" fill="#0a0a09"/><g opacity="0.53"><path d="M756.58,1558.1l-1.36.69" fill="none" stroke="#fff" stroke-miterlimit="10" stroke-width="1.83"/><path d="M752.41,1560.15a106.71,106.71,0,0,1-20.49,7.15c-16.46,3.92-30,3-39.7,2.25a159.47,159.47,0,0,1-17.83-2.38" fill="none" stroke="#fff" stroke-miterlimit="10" stroke-width="1.83" stroke-dasharray="3.12 3.12"/><path d="M672.86,1566.86l-1.49-.3" fill="none" stroke="#fff" stroke-miterlimit="10" stroke-width="1.83"/></g><path d="M748.71,1544.89a68.74,68.74,0,0,1-17.87,6.88c-3.19.73-16.26,3.48-40.62-2.17-3-.69-3.16-.82-31.49-10.57-23.59-8.11-30.51-10.45-40.21-15.9a138,138,0,0,1-17.71-11.84c-.49,2.77-.91,5.82-1.18,9.1-.24,2.94-.34,5.71-.34,8.27,8.21,3.3,15,6.08,20,8.09,16.05,6.55,24.08,9.82,26.44,11a158.53,158.53,0,0,0,18.3,8.21,93.21,93.21,0,0,0,9.22,2.93c5.71,1.43,10.5,1.87,22.41,2.08,12.85.23,19.27.35,24.73-.2a94.34,94.34,0,0,0,20.8-4,86.79,86.79,0,0,0,12.78-5.25,29.23,29.23,0,0,0-3.18-4.43A28.27,28.27,0,0,0,748.71,1544.89Z" fill="#1c1c1c"/><path d="M663.24,1549a2.63,2.63,0,0,0,3-1.61,2.77,2.77,0,0,0-2.49-3.28,2.56,2.56,0,0,0-2.6,1.77A2.68,2.68,0,0,0,663.24,1549Z" fill="#1c1b1c" stroke="#fff" stroke-miterlimit="10" stroke-width="0.61" opacity="0.47"/><path d="M651.92,1545.31a2.61,2.61,0,0,0,3-1.61,2.75,2.75,0,0,0-2.48-3.28,2.56,2.56,0,0,0-2.6,1.76A2.69,2.69,0,0,0,651.92,1545.31Z" fill="#1c1b1c" stroke="#fff" stroke-miterlimit="10" stroke-width="0.61" opacity="0.47"/><path d="M729.34,1532.42c-3.42,2.08-7,4.46-10.71,7.2a141.91,141.91,0,0,0-14.8,12.59,65.36,65.36,0,0,0,44.88-7.32,46.42,46.42,0,0,0-19.37-12.47Z" fill="#5c5c5c"/><path d="M619.56,1513.5c5.65,2.37,12.89-1.33,14.08-7.56a10.19,10.19,0,1,0-14.08,7.56Z" fill="#1b1b1b"/><path d="M727.6,1531.72a48,48,0,0,1-12.69-6.35c-4-2.81-4.51-4.11-11.38-10-3.19-2.75-6-4.93-11.52-9.28-6.59-5.17-9.89-7.75-11.2-8.72-4.92-3.65-6.33-4.43-8.28-6.9a35.1,35.1,0,0,1-4.62-8.45c-2.52-5.83-1.79-6.62-3.72-9.42a15.65,15.65,0,0,0-8.29-6.34,14,14,0,0,0-10.44.73c-6.82,3.53-7.34,11.78-7.36,12.18,1,1.34,2.41,3.08,4.08,5.08,0,0,4.54,5.41,9.51,10.43,2.32,2.34,6.34,6.19,21.61,18.41,6.8,5.45,13.18,11.39,19.88,17,2.53,2.09,5.16,4.25,7.16,8.07a25.09,25.09,0,0,1,2.15,15.42,39.58,39.58,0,0,1,7.79-9.25c2.71-2.33,4.57-3.26,10.28-7.32C723.6,1534.76,726,1532.92,727.6,1531.72Z" fill="#1c1b1c"/><path d="M729.34,1532.42c-5.39,3.52-10.38,7-15,10.39,0,0-9.46,7-11,12a27.21,27.21,0,0,0-1,4.8c-.07.63-.1,1.16-.11,1.53l-2,0a42.57,42.57,0,0,0,.63-13.74c-.47-4-.86-7.3-3-10.76s-4.23-4.08-9.89-8.43c-1-.77-.82-.66-10.6-9.33-9.15-8.11-11.29-10-14.46-12.79-5.66-5-13.78-12.41-24.18-22.39-.21-1.52-.41-3-.62-4.55,7,6.38,12.69,11.57,16.46,15,15.89,14.58,16,14.9,20.46,18.64,5.37,4.55,10.46,9.44,16.06,13.71,3.68,2.81,6.19,4.51,8.43,8a25.23,25.23,0,0,1,3.76,14c2.84-2.57,5.93-5.19,9.26-7.82,4.67-3.69,9.22-6.93,13.55-9.76Z"/><path d="M680.17,1537.36A84.94,84.94,0,0,1,714,1523.65c1.05-.26,1.66-1,1.58-1.5s-1.07-1.08-2.29-.77A66.74,66.74,0,0,0,679,1535.63a1.25,1.25,0,0,0-.69,1.36A1.3,1.3,0,0,0,680.17,1537.36Z"/><path d="M674.87,1526.71a85.08,85.08,0,0,1,36.39-3.13c1.08.06,1.89-.48,2-1s-.7-1.34-2-1.4a65.35,65.35,0,0,0-11.59-1.17,67.72,67.72,0,0,0-25.4,4.68,1.25,1.25,0,0,0-1.06,1.09A1.3,1.3,0,0,0,674.87,1526.71Z"/><path d="M680.62,1536.86A76.95,76.95,0,0,1,701.49,1511c.72-.67.88-1.54.6-1.88s-1.33-.4-2.16.39a59.74,59.74,0,0,0-8.06,6.86,61.51,61.51,0,0,0-12.94,19.6,1.13,1.13,0,0,0,0,1.38A1.19,1.19,0,0,0,680.62,1536.86Z"/><path d="M663.24,1514.42A84.9,84.9,0,0,1,699.6,1511c1.08,0,1.88-.49,1.94-1s-.71-1.34-2-1.39a66.22,66.22,0,0,0-11.6-1.06,67.78,67.78,0,0,0-25.35,4.91,1.24,1.24,0,0,0-1,1.1A1.29,1.29,0,0,0,663.24,1514.42Z"/><path d="M653.55,1505.71a78.52,78.52,0,0,1,19.49-3.87,77.4,77.4,0,0,1,14.42.35c1,0,1.75-.48,1.8-1s-.65-1.26-1.82-1.3a60.82,60.82,0,0,0-10.8-.94,62.7,62.7,0,0,0-23.66,4.82,1,1,0,1,0,.57,1.89Z"/><path d="M663.14,1513.58a55.8,55.8,0,0,1,8.48-12.53,51,51,0,0,1,7.94-7.15,1.37,1.37,0,0,0,.48-1.55,1.15,1.15,0,0,0-1.67.08,38.68,38.68,0,0,0-6.29,4.92,44.71,44.71,0,0,0-10.22,15.28,1.1,1.1,0,0,0,0,1.2A.81.81,0,0,0,663.14,1513.58Z"/><path d="M653.89,1504.56a68.68,68.68,0,0,1,18.52-23c.63-.59.77-1.36.52-1.67s-1.18-.35-1.92.35a54.09,54.09,0,0,0-7.15,6.11,54.86,54.86,0,0,0-11.47,17.44,1,1,0,0,0,.05,1.23A1,1,0,0,0,653.89,1504.56Z"/><path d="M645.15,1492.87a68.78,68.78,0,0,1,17-2.74,67.67,67.67,0,0,1,12.49.71c.87.06,1.53-.36,1.58-.76s-.54-1.09-1.56-1.16a53,53,0,0,0-9.34-1.1,54.89,54.89,0,0,0-20.59,3.43,1,1,0,0,0-.87.86A1.06,1.06,0,0,0,645.15,1492.87Z"/><path d="M588,986.36q-2.82,64.08-2.88,64.08s.11-3.08.36-9.24c-8.5-.74-12.52-3.9-14.52-6.12-3.12-3.47-5.08-8.9-2.4-42.72.37-4.61.71-8.43,1-11Z" fill="#1d2a41" opacity="0.5"/><path d="M425.54,651c-13.53,19.3-3.94,43.56,12.74,107.83,9.16,35.28,15.32,59,18.63,78.42,5.22,30.65,7.69,76-7.85,135.28a288.64,288.64,0,0,0,253.89,0c-5.42-22.76-9.64-42.11-12.74-56.86-6.17-29.35-7.29-37.72-6.86-48,.77-18.62,6-30,12.74-48,14.36-38.63,19.7-68.89,30.39-129.4,4.63-26.19,4.91-33.94,0-41.17-9.81-14.45-29.78-11.3-67.64-26.47a242.87,242.87,0,0,1-30.39-14.7,52.92,52.92,0,0,1-12.74,17.64c-12.83,11.6-27.65,13.17-33.82,13.73-5.32.48-28.63,2.61-45.58-13.73A49.4,49.4,0,0,1,525,608.88,271.56,271.56,0,0,0,463.77,628C442.31,637.61,431.58,642.41,425.54,651Z" fill="#534741"/><path d="M511.31,611.82a70.76,70.76,0,0,0,30.88,32.1c22.24,11.54,43.24,7,49,5.64,30.46-7.1,45.33-31.41,48-36l-10.79-5.64a49.69,49.69,0,0,1-13.31,18.46c-8.68,7.48-17.69,9.8-23.94,11.34a61.71,61.71,0,0,1-23.94,1.62c-5-.68-22.6-3.35-34.87-18.19A48,48,0,0,1,525,608.88Z" fill="#fff" opacity="0.5" style="mix-blend-mode:overlay"/><path d="M524.71,868.32c.48-1,12.56,5.95,33.33,11.44a216.73,216.73,0,0,0,45.09,6.7c12.86.65,17.79-.16,17.81.16,0,.85-34.9,10-69.11-2.61C536.34,878.31,524.21,869.34,524.71,868.32Z" fill="#fff" opacity="0.5" style="mix-blend-mode:overlay"/><path d="M419.9,684.85c16.6,29.36,25.39,53.45,30.39,70.58,2.11,7.23,3.91,14.5,8.82,30.88,7.59,25.32,9.68,29.33,14.71,46.32,8.84,29.87,13.91,56.36,13,56.61-.48.12-2.33-7-7.35-20.1-5.36-14-12.47-30.09-13.72-29.65s5.65,15.1,6.62,35.53c.37,7.88-.12,16.84-5.15,38.23a477.28,477.28,0,0,1-18.14,59.31A332,332,0,0,0,460.34,902c.81-16.19,1.89-40.7-4.17-70.34-.74-3.61-2.31-10.14-5.45-23.22-5.86-24.35-10.52-42.16-12.44-49.56C434,742.2,427.76,717.78,419.9,684.85Z" fill="#fff" opacity="0.5" style="mix-blend-mode:overlay"/><path d="M725.17,696.45c-11.77,27.94-21.18,51.67-28.1,69.6-13.28,34.4-19.31,52.35-23.53,65.68-8.24,26-14,48.38-13.07,48.68,1.26.4,14.75-37.68,16-37.25.8.28-6,15.07-5.23,36,.2,5.81,1,10.19,2.61,18.95,2.23,12.17,4.7,25.58,11.11,41.5a164.63,164.63,0,0,0,18,33c-4.31-20.19-8.11-36.36-10.78-47.38-4-16.54-7-28-8.17-44.93-.94-13.89.07-21.49.49-24.34,1.33-8.9,3.36-13.65,9.15-29.9,1.83-5.13,7.41-20.81,11-32,4.11-13.06,6.19-22.43,9.8-38.89C717.66,740.19,721.59,720.34,725.17,696.45Z" fill="#fff" opacity="0.5" style="mix-blend-mode:overlay"/><path d="M546.66,1049c-1.55,2.47,15.32,12.81,35.18,13,23.45.18,38.68-13.93,40.68-15.84a199.44,199.44,0,0,1-40.68,4.32C560.39,1050.5,547.89,1047,546.66,1049Z" fill="#1d2a41" opacity="0.5"/><path d="M763.45,788.18l-71,36.32q-9.86-47.49-21.69-96.86-3.88-16.18-7.88-32c-1.25-21.46,6.11-41.56,18.82-51.06,16.41-12.27,39.39-5.08,52.35,18.79Q748.76,725.76,763.45,788.18Z" fill="#534741"/><path d="M763.45,788.18q-14.69-62.41-29.39-124.84c2.35,22.31,5.74,46.61,10.61,72.45,3.09,16.34,6.47,31.72,10,46.11L696,814.16l-10.56-24.44q3.51,17.38,7,34.78Z" fill="#fff" opacity="0.5" style="mix-blend-mode:overlay"/><path d="M388,789.33l68.62,36.14q9.6-47.4,21.12-96.69,3.79-16.15,7.67-32c1.24-21.43-5.85-41.47-18.13-50.93-15.86-12.22-38.1-5-50.66,18.82Z" fill="#534741"/><path d="M388,789.33,416.62,664.7C414.31,687,411,711.23,406.24,737c-3,16.32-6.3,31.67-9.73,46l56.69,32.12q5.13-12.21,10.25-24.41-3.4,17.36-6.83,34.72Z" fill="#fff" opacity="0.5" style="mix-blend-mode:overlay"/></g></g></g></svg>