<svg xmlns="http://www.w3.org/2000/svg" viewBox="0 0 1080 1920"><g style="isolation:isolate"><g id="costumes"><g id="_13" data-name="13"><path d="M454.86,984c.77,49.09,3.86,102.45,10.46,159.34,4.37,37.7,9.87,73.42,16.09,107A1055,1055,0,0,0,490.76,1468a89.42,89.42,0,0,1,21.6,1.44c5.66,1.1,9.33,2.42,18.72,4.32,5.21,1.06,9.49,1.75,12.24,2.16a1241.23,1241.23,0,0,0,14-132c1.72-33,2-64.28,1.34-93.62q7.14-54.33,13.69-108.72,10.32-85.59,19.2-171.36c-23.72-35-58.42-53.21-86.81-45.84C473.55,932.55,454.6,967.87,454.86,984Z" fill="#534741"/><path d="M540.87,1099.16c-1.22-.06-4.71,39-5.72,79.76-.79,32.07,0,65.07,1.08,65.09,1.39,0,3.29-51.49,3.93-71.53C540.36,1166.17,542.47,1099.23,540.87,1099.16Z" fill="#fff" opacity="0.5" style="mix-blend-mode:overlay"/><path d="M535.87,1296c-1.39,0-3.42,37.54-2.15,77.26.88,27.51,3.36,56.37,4.56,56.33,1.76-.07.63-62,.54-66.8C538.61,1351.68,537.56,1296,535.87,1296Z" fill="#fff" opacity="0.5" style="mix-blend-mode:overlay"/><path d="M400.19,1568.69a8,8,0,0,0-2.82,4.23,8.06,8.06,0,0,0,.47,5.41,72.08,72.08,0,0,0,12.7,8c22.62,11.11,44.27,6.79,48.46,5.88,6.49-1.41,21.52-4.68,32.47-16,3.14-3.24,7.83-9.1,16.94-17.4,3.47-3.17,6.45-5.66,8.46-7.3.48,2.2,1,4.39,1.42,6.59q8.87-3.37,18.35-7.53,7.1-3.13,13.64-6.35l-1.41-15.53a46.51,46.51,0,0,0-1.18-22.82c-2.58-8.12-8.6-18.85-13.41-18.11-4,.61-3.61,8.53-9.17,10.82-4.56,1.88-10.2-1.22-14.35-4.23l-9.65,16.15a109.62,109.62,0,0,0,5.88-11.57c1-2.29,1.32-3.23,1.3-4.46-.08-5.4-6.31-9.11-7.41-9.77-7.11-4.23-14.91-2.27-16.35-1.88-4.89,1.32-8.47,4.07-15.18,11.41-10,11-13,16.81-24.46,30.7-7.1,8.59-9.85,11-13.41,13.17-2.48,1.49-7.33,3.29-16.94,6.83-10.6,3.9-13.74,4.81-16.23,8.46-.69,1-3.66,5.37-2.12,10.12A10.42,10.42,0,0,0,400.19,1568.69Z" fill="#534741"/><path d="M400.19,1568.69a68.73,68.73,0,0,0,17.17,9.17,67.48,67.48,0,0,0,26.82,4A66.68,66.68,0,0,0,475,1571.74c8.9-5.63,7.35-7.69,20.7-19,9-7.69,17.12-14.45,28.94-19.06a74.22,74.22,0,0,1,24.23-4.94l1.41,15.53-32,13.88c-.47-2.25-.94-4.51-1.42-6.76-2.68,2.29-6.78,5.89-11.58,10.52-10.46,10.1-11.69,13-17.27,17.57-9.82,8-20.16,10.61-26,12.08a79.17,79.17,0,0,1-31.83,1.09,67.61,67.61,0,0,1-21.8-7.21,65.39,65.39,0,0,1-10.51-7.06,7.94,7.94,0,0,1-.41-5.88A7.69,7.69,0,0,1,400.19,1568.69Z" fill="#1a1a1a"/><path d="M401.92,1574.41c-.11.26,15.7,10.94,37,11.61,4,.12,22.1.32,36.7-9.26a137.43,137.43,0,0,0,11.29-8.62c6.09-5.13,8.4-7.89,12.23-11.45a105.59,105.59,0,0,1,23.53-16.16,128,128,0,0,1,24.15-9.88c-18.78,2.57-30.28,9-36.39,13.18-5.67,3.91-11.44,8.94-11.44,8.94-8.24,7.17-10.18,10.6-16.94,16a73.35,73.35,0,0,1-14.12,8.94c-16.84,8-33.43,5.74-40.46,4.71A86,86,0,0,1,401.92,1574.41Z" fill="#fff" opacity="0.5" style="mix-blend-mode:overlay"/><path d="M414.54,1544.93a40.66,40.66,0,0,0,14.51,11,48.56,48.56,0,0,0,25.41,2.51c18.68-3.08,36.85-21.62,46.65-47.91" fill="none" stroke="#000" stroke-miterlimit="10" stroke-width="1.96" stroke-dasharray="3.27"/><path d="M519.38,1535.83a22.58,22.58,0,0,1,1.57-10.66c2.58-6.18,7.36-9.33,11.29-11.92a42,42,0,0,1,16-6.28" fill="none" stroke="#000" stroke-miterlimit="10" stroke-width="1.96" stroke-dasharray="3.27"/><path d="M439.09,1538.34c1,.77-1.31,3.46-.32,6,.32.79,1.62,3.23,9.1,3.92,12.29,1.14,21.37-4.3,21.8-3.45s-6.84,7.15-17.25,9.41c-9.27,2-16.14-.3-22.27-2.35-3.48-1.17-5.39-2.25-5.49-3.61-.09-1.16,1.17-2,6.9-5.8C436.76,1538.92,438.38,1537.77,439.09,1538.34Z" fill="#fff" opacity="0.5" style="mix-blend-mode:overlay"/><path d="M448.65,1517a20.06,20.06,0,0,1,13.18-3.14c10.91,1.39,15.72,11.93,16,12.55" fill="none" stroke="#000" stroke-linecap="round" stroke-miterlimit="10" stroke-width="3.92"/><path d="M453.51,1509.17a20.06,20.06,0,0,1,13.18-3.14c10.91,1.39,15.73,11.93,16,12.55" fill="none" stroke="#000" stroke-linecap="round" stroke-miterlimit="10" stroke-width="3.92"/><path d="M459.47,1501a20.07,20.07,0,0,1,13.18-3.13c10.91,1.39,15.72,11.92,16,12.54" fill="none" stroke="#000" stroke-linecap="round" stroke-miterlimit="10" stroke-width="3.92"/><path d="M443.16,1525.64a20,20,0,0,1,13.18-3.14c10.91,1.39,15.72,11.93,16,12.55" fill="none" stroke="#000" stroke-linecap="round" stroke-miterlimit="10" stroke-width="3.92"/><path d="M698.43,984c-.77,49.09-3.87,102.45-10.46,159.34-4.37,37.7-9.87,73.42-16.1,107a1053.94,1053.94,0,0,1,.81,112.66c-1.77,38.08-5.46,73.23-10.15,105a89.42,89.42,0,0,0-21.6,1.44c-5.67,1.1-9.34,2.42-18.72,4.32-5.21,1.06-9.49,1.75-12.24,2.16a1238.63,1238.63,0,0,1-14-132c-1.72-33-2-64.28-1.34-93.62-4.94-34.83-9.08-71.63-12.07-110.25-4.79-61.78-6-119.69-4.83-173,9.9-30.34,40.77-48.47,70.82-42.65C676.35,929.83,697.41,954.58,698.43,984Z" fill="#534741"/><path d="M612.41,1099.16c1.22-.06,4.72,39,5.72,79.76.8,32.07,0,65.07-1.07,65.09-1.39,0-3.29-51.49-3.93-71.53C612.93,1166.17,610.82,1099.23,612.41,1099.16Z" fill="#fff" opacity="0.5" style="mix-blend-mode:overlay"/><path d="M617.42,1296c1.39,0,3.42,37.54,2.15,77.26-.89,27.51-3.36,56.37-4.56,56.33-1.77-.07-.63-62-.54-66.8C614.68,1351.68,615.73,1296,617.42,1296Z" fill="#fff" opacity="0.5" style="mix-blend-mode:overlay"/><path d="M753.1,1568.69a8,8,0,0,1,2.82,4.23,8.12,8.12,0,0,1-.47,5.41,71.84,71.84,0,0,1-12.71,8c-22.61,11.11-44.26,6.79-48.46,5.88-6.48-1.41-21.51-4.68-32.46-16-3.14-3.24-7.84-9.1-16.94-17.4-3.47-3.17-6.45-5.66-8.47-7.3L635,1558.1q-8.88-3.37-18.35-7.53-7.1-3.13-13.64-6.35l1.41-15.53a46.6,46.6,0,0,1,1.17-22.82c2.58-8.12,8.61-18.85,13.41-18.11,4,.61,3.62,8.53,9.18,10.82,4.56,1.88,10.2-1.22,14.35-4.23l9.64,16.15a113.64,113.64,0,0,1-5.88-11.57c-1-2.29-1.31-3.23-1.29-4.46.08-5.4,6.3-9.11,7.41-9.77,7.11-4.23,14.9-2.27,16.35-1.88,4.88,1.32,8.46,4.07,15.17,11.41,10,11,13,16.81,24.47,30.7,7.1,8.59,9.84,11,13.41,13.17,2.48,1.49,7.33,3.29,16.94,6.83,10.6,3.9,13.74,4.81,16.23,8.46.69,1,3.66,5.37,2.12,10.12A10.48,10.48,0,0,1,753.1,1568.69Z" fill="#534741"/><path d="M753.1,1568.69a68.64,68.64,0,0,1-17.18,9.17,67.44,67.44,0,0,1-26.82,4,66.65,66.65,0,0,1-30.81-10.12c-8.91-5.63-7.36-7.69-20.71-19-9-7.69-17.11-14.45-28.93-19.06a74.32,74.32,0,0,0-24.23-4.94L603,1544.22l32,13.88,1.41-6.76c2.69,2.29,6.79,5.89,11.59,10.52,10.46,10.1,11.68,13,17.27,17.57,9.82,8,20.15,10.61,26,12.08a79.23,79.23,0,0,0,31.84,1.09,67.61,67.61,0,0,0,21.8-7.21,65.39,65.39,0,0,0,10.51-7.06,8,8,0,0,0,.41-5.88A7.76,7.76,0,0,0,753.1,1568.69Z" fill="#1a1a1a"/><path d="M751.37,1574.41c.11.26-15.71,10.94-37,11.61-4,.12-22.1.32-36.7-9.26a137.43,137.43,0,0,1-11.29-8.62c-6.1-5.13-8.4-7.89-12.24-11.45a105.57,105.57,0,0,0-23.52-16.16,128.28,128.28,0,0,0-24.15-9.88c18.78,2.57,30.27,9,36.38,13.18,5.68,3.91,11.45,8.94,11.45,8.94,8.23,7.17,10.17,10.6,16.94,16a73.17,73.17,0,0,0,14.11,8.94c16.85,8,33.43,5.74,40.47,4.71A86,86,0,0,0,751.37,1574.41Z" fill="#fff" opacity="0.5" style="mix-blend-mode:overlay"/><path d="M738.75,1544.93a40.75,40.75,0,0,1-14.51,11,48.56,48.56,0,0,1-25.41,2.51c-18.68-3.08-36.85-21.62-46.66-47.91" fill="none" stroke="#000" stroke-miterlimit="10" stroke-width="1.96" stroke-dasharray="3.27"/><path d="M633.9,1535.83a22.33,22.33,0,0,0-1.57-10.66c-2.57-6.18-7.36-9.33-11.29-11.92a41.82,41.82,0,0,0-16-6.28" fill="none" stroke="#000" stroke-miterlimit="10" stroke-width="1.96" stroke-dasharray="3.27"/><path d="M714.2,1538.34c-1,.77,1.31,3.46.31,6-.31.79-1.62,3.23-9.09,3.92-12.3,1.14-21.38-4.3-21.8-3.45s6.84,7.15,17.25,9.41c9.27,2,16.14-.3,22.27-2.35,3.48-1.17,5.38-2.25,5.49-3.61.09-1.16-1.17-2-6.9-5.8C716.53,1538.92,714.91,1537.77,714.2,1538.34Z" fill="#fff" opacity="0.5" style="mix-blend-mode:overlay"/><path d="M704.63,1517a20,20,0,0,0-13.17-3.14c-10.91,1.39-15.73,11.93-16,12.55" fill="none" stroke="#000" stroke-linecap="round" stroke-miterlimit="10" stroke-width="3.92"/><path d="M699.77,1509.17A20,20,0,0,0,686.6,1506c-10.91,1.39-15.73,11.93-16,12.55" fill="none" stroke="#000" stroke-linecap="round" stroke-miterlimit="10" stroke-width="3.92"/><path d="M693.81,1501a20,20,0,0,0-13.17-3.13c-10.91,1.39-15.73,11.92-16,12.54" fill="none" stroke="#000" stroke-linecap="round" stroke-miterlimit="10" stroke-width="3.92"/><path d="M710.12,1525.64A20,20,0,0,0,697,1522.5c-10.91,1.39-15.73,11.93-16,12.55" fill="none" stroke="#000" stroke-linecap="round" stroke-miterlimit="10" stroke-width="3.92"/><path d="M524.12,620.36l10.56-8.4a98.84,98.84,0,0,0,31,12,81.23,81.23,0,0,0,22,1.88c18.68-1.18,32.92-9.85,40.88-15.85l11.16,13.17q.81,102.52,5.09,210.3,2.91,71.63,7.25,140.83c-6.14-4.8-37.95-28.66-82.89-23.34-41.47,4.91-65.93,31.33-71.62,37.82Z" fill="#f3ecee"/><path d="M570.74,659.72c-1.21,22.57-4.7,87.67-5.9,110.24-.16,2.92-2,37-3.94,74q-1,24.13-2,48.28l18.24,33.8,17.7-37q-5-115.2-9.92-230.42a7.39,7.39,0,0,0-14.22,1.08Z" fill="#7e132b"/><path d="M556.79,631.55a79.8,79.8,0,0,1,42.11-.27l-2.68,4a45.54,45.54,0,0,1-22.53,4.56,45,45,0,0,1-16.63-4.3Z" fill="#601327"/><path d="M558.67,634c5.67-.74,11.86-1.32,18.51-1.6,6.31-.27,12.24-.24,17.7,0a47.15,47.15,0,0,1-5.63,19.85,46.27,46.27,0,0,1-4.29,6.43l-14.22,1.08A32.9,32.9,0,0,1,558.67,634Z" fill="#7d0b22"/><path d="M568.19,636.65c0-1,7.68-1.54,15.89-2.08,4.55-.3,6-.26,7,.8,2.4,2.61-.38,8.83-1.75,11.87-2.13,4.77-5.1,8.41-5.49,8.18s.92-2.32,2.28-6.9c1.14-3.88,1.7-5.84,1-7-1-1.66-3.12-1.53-9.12-2.49C572.72,638.16,568.2,637.43,568.19,636.65Z" fill="#541224"/><path d="M532.65,614.76a15.56,15.56,0,0,1,1-4.24,15.89,15.89,0,0,1,3.78-5.76,82,82,0,0,0,42.42,21.36,27.28,27.28,0,0,0-13.26,6.36c-10,8.91-9.2,22.21-9.06,24A76.72,76.72,0,0,1,545.6,642.8a86,86,0,0,1-6.42-11.4A114.41,114.41,0,0,1,532.65,614.76Z" fill="#a49498"/><path d="M632.6,613.58a15.75,15.75,0,0,0-4-7.38,15.36,15.36,0,0,0-4.5-3.24c-5.68,3.32-11.68,6.64-18,9.9-10.69,5.52-21,10.21-30.78,14.22a34.57,34.57,0,0,1,9.24,5c9.44,7.23,12.4,17.4,13.32,21.36A102.31,102.31,0,0,0,609,644a125.67,125.67,0,0,0,11.76-13.8C623.94,626,628.07,620.44,632.6,613.58Z" fill="#a49498"/><path d="M564,649.9c-.47.26,1.21,4.77,4.35,8.65a11.32,11.32,0,0,0,3.69,3.28c3.08,1.54,6.77,1.12,6.91.4s-3.11-1.07-7-3.68C566.33,654.74,564.46,649.62,564,649.9Z" fill="#bb153d"/><g opacity="0.54"><path d="M562.47,1064.85c-.27-.87,9.65-7,21.64-6.64a37.71,37.71,0,0,1,21.16,7.74,69.61,69.61,0,0,0-23.42-3.68C570.34,1062.48,562.7,1065.59,562.47,1064.85Z" fill="#fff" opacity="0.5" style="mix-blend-mode:overlay"/><path d="M586.1,976.25q-.15,83.05-.32,83.06s-.09-3.9-.13-11.7A14.81,14.81,0,0,1,571,1034.16q-.31-33.68-.64-67.35l15.82-.66Z" fill="#fff" opacity="0.5" style="mix-blend-mode:overlay"/></g><path d="M530.5,740a203.32,203.32,0,0,0,32.19,52.59,198.46,198.46,0,0,0,24.95,24.65q-1.6,69.84-3.22,139.69l-34.6,51.76-39.44-18.07Z" fill="#534741"/><path d="M629.93,750.14c-2.42,7.79-13.27,39.58-43.63,53.32a69.45,69.45,0,0,1-22.18,5.84q-1.11,75.47-2.23,150.92l37.82,48.48,29-15.61Q629.31,871.62,629.93,750.14Z" fill="#534741"/><path d="M530.5,740a203.32,203.32,0,0,0,32.19,52.59c4.75,5.6,9.66,10.59,9.66,10.59,1.6,1.62,3,2.95,4,3.89a70.88,70.88,0,0,0,28.38-15.75l10.8,208.89-15.79,8.48-27-34.2-22.86,34.2-39.44-18.07Q520.45,865.32,530.5,740Z" fill="#fff" opacity="0.5" style="mix-blend-mode:overlay"/><path d="M629.93,750.14c-2.42,7.79-13.27,39.58-43.63,53.32a69.45,69.45,0,0,1-22.18,5.84q-1.11,75.47-2.23,150.92l37.82,48.48,29-15.61Q629.31,871.62,629.93,750.14Z" fill="#fff" opacity="0.5" style="mix-blend-mode:overlay"/><path d="M574.76,825.74a5,5,0,1,1-1.34-9.86,5,5,0,0,1,4.83,3.28A5.31,5.31,0,0,1,574.76,825.74Z" opacity="0.54"/><path d="M596.49,824.64a5,5,0,1,1-1.34-9.86,5,5,0,0,1,4.83,3.29A5.3,5.3,0,0,1,596.49,824.64Z" opacity="0.54"/><path d="M596.49,897a5,5,0,1,1-1.34-9.86,5,5,0,0,1,4.83,3.29A5.3,5.3,0,0,1,596.49,897Z" opacity="0.54"/><path d="M594.88,960.77a5,5,0,1,1-1.34-9.86,5,5,0,0,1,4.83,3.29A5.3,5.3,0,0,1,594.88,960.77Z" opacity="0.54"/><path d="M573.15,961.87a5,5,0,1,1-1.34-9.86,5,5,0,0,1,4.83,3.28A5.31,5.31,0,0,1,573.15,961.87Z" opacity="0.54"/><path d="M572.62,897.77a5,5,0,1,1-1.34-9.86,5,5,0,0,1,4.82,3.29A5.28,5.28,0,0,1,572.62,897.77Z" opacity="0.54"/><path d="M533.18,610.45a133.94,133.94,0,0,1-20.92,9.31c-11.34,3.93-22.73,5.78-45.06,9.32-13.89,2.2-20.67,3-30.58,7.12-5.16,2.16-11,4.61-15,8.22-13.1,11.7-9.43,37.58-5.91,55.87,11.52,59.84,28.84,76.94,37.56,124.35,3.29,17.92,3.45,32.58,3.75,61.9a699.23,699.23,0,0,1-10.73,129.29c18.23,10.53,34.09,18.87,46.68,25.19,11.5,5.78,18.72,9.09,26.82,6.58,11.8-3.66,17.45-17.19,18.24-19.17,2.46-6.13,2.27-10.51,2.69-18.63.6-11.58,3-23,4.29-34.51,5-44.34,7.48-66.5,8-73.95,2.65-35,1.84-61.66,1.07-84.91-.42-12.52-1.37-33.82-7.51-92.58C543.56,694.81,539.22,656.23,533.18,610.45Z" fill="#534741"/><path d="M533.18,610.45a133.94,133.94,0,0,1-20.92,9.31c-11.34,3.93-22.73,5.78-45.06,9.32-13.89,2.2-20.67,3-30.58,7.12-5.16,2.16-11,4.61-15,8.22-13.1,11.7-9.43,37.58-5.91,55.87,11.52,59.84,28.84,76.94,37.56,124.35,3.29,17.92,3.45,32.58,3.75,61.9a699.23,699.23,0,0,1-10.73,129.29c18.23,10.53,34.09,18.87,46.68,25.19,11.5,5.78,18.72,9.09,26.82,6.58,11.8-3.66,17.45-17.19,18.24-19.17,2.46-6.13,2.27-10.51,2.69-18.63.6-11.58,3-23,4.29-34.51,5-44.34,7.48-66.5,8-73.95,2.65-35,1.84-61.66,1.07-84.91-.42-12.52-1.37-33.82-7.51-92.58C543.56,694.81,539.22,656.23,533.18,610.45Z" fill="#534741"/><path d="M553.16,858.44c-5.21-22.92-11.28-46.83-18.37-71.6-8.45-29.54-17.51-57.32-26.82-83.26l16.36-12.05-15.56-16.71c.56-15.37.88-25.07,1.08-31.23.52-16.23.45-21.84,4.56-27.11,5.42-7,14.45-8.74,19.91-9.26l-1.14,3.23c2.31,17.17,5.34,40.59,8.59,68.48,4.59,39.46,7,60,8.85,85.45C552.3,787.79,553.8,819.83,553.16,858.44Z" fill="#534741" stroke="#2b292a" stroke-miterlimit="10" stroke-width="4.52"/><path d="M415.69,700.29a648.46,648.46,0,0,1,36.75,81.9,522.2,522.2,0,0,1,17.71,57.52,351.19,351.19,0,0,1,8.49,47.38c.82,7.81,1.22,14.39,1.43,19.18-1-.41-4.39-1.6-7.51,0s-3.95,4.71-5,8.21-2.51,8.39-.35,12.33c1.63,3,4.52,3.9,10.19,5.75,22.87,7.47,22.22,7.57,27.63,8.76,3.61.81,8.75,1.84,15,2.74a6.07,6.07,0,0,1,0,4.66c-.52,1-2.33,3.37-12.87,2.74-6.84-.41-14.76-1.92-26.83-6.57-4.91-1.9-8.87-3.68-11.53-4.93-2.06,23.19-6.46,38.38-10.45,48.38-1.53,3.85-4.72,11.24-2,18.72,2.09,5.69,6.69,8.94,12.42,12.42,21.37,13,32.05,19.44,43.56,17.46,15.59-2.68,25-15.75,28.08-20.52-1.36,17.17-11.75,29.95-23.76,31.68-6.92,1-12.88-1.89-16.2-4q-10.07-4.62-20.52-9.9c-11.95-6-23.18-12.23-33.69-18.41,4.08-21.46,6.39-39.71,7.78-53.41,3.29-32.34,3.14-56,2.95-86.56s-1.42-39.39-2.14-44.1c-3-19.14-8-33.89-13.41-49.85-7.88-23.12-11.51-27.73-17.71-48.48A327.2,327.2,0,0,1,415.69,700.29Z" fill="#fff" opacity="0.5" style="mix-blend-mode:overlay"/><path d="M480.07,906.27c5.9,2.37,8.84,3.56,11.45,5.11,5.74,3.42,10.7,4.51,20,6.57a98,98,0,0,0,16.63,2.19c.3,3.27,1.72,20.35-5.19,23.38-.6.26-1.51.52-6.7-.19a117.42,117.42,0,0,1-16.9-3.65c-5.18-1.48-3.6-1.22-15-4.75-2.72-.84-5.37-1.92-8.11-2.71s-4.36-1.12-6.24-2.47a10,10,0,0,1-3.71-4.31c-.8-2-.38-4.06.49-8.08,1-4.52,1.53-6.88,3.56-9.11a8.33,8.33,0,0,1,4-2.67A8.78,8.78,0,0,1,480.07,906.27Z" opacity="0.5"/><path d="M625,610.25a134.12,134.12,0,0,0,20,8.83c3.3,1.15,11.94,4.06,45.06,9.31,13.89,2.2,20.67,3,30.58,7.12,5.16,2.17,11,4.61,15,8.22,13.1,11.71,9.43,37.58,5.91,55.88C730,759.44,712.64,776.54,703.92,824c-3.29,17.91-3.45,32.57-3.75,61.9a699.13,699.13,0,0,0,10.73,129.28c-18.23,10.53-34.09,18.88-46.68,25.2-11.5,5.78-18.72,9.09-26.82,6.57-11.8-3.66-17.45-17.18-18.24-19.17-2.46-6.13-2.27-10.51-2.69-18.62-.59-11.58-3-23-4.29-34.52-5-44.33-7.48-66.5-8-74-2.66-34.94-1.85-61.65-1.08-84.91.07-1.93.14-4.06.25-6.51,1.55-35.54,4.52-62.78,7.26-86.07C615.9,677.87,621.05,638.75,625,610.25Z" fill="#534741"/><path d="M625,610.25a134.12,134.12,0,0,0,20,8.83c3.3,1.15,11.94,4.06,45.06,9.31,13.89,2.2,20.67,3,30.58,7.12,5.16,2.17,11,4.61,15,8.22,13.1,11.71,9.43,37.58,5.91,55.88C730,759.44,712.64,776.54,703.92,824c-3.29,17.91-3.45,32.57-3.75,61.9a699.13,699.13,0,0,0,10.73,129.28c-18.23,10.53-34.09,18.88-46.68,25.2-11.5,5.78-18.72,9.09-26.82,6.57-11.8-3.66-17.45-17.18-18.24-19.17-2.46-6.13-2.27-10.51-2.69-18.62-.59-11.58-3-23-4.29-34.52-5-44.33-7.48-66.5-8-74-2.66-34.94-1.85-61.65-1.08-84.91.07-1.93.14-4.06.25-6.51,1.55-35.54,4.52-62.78,7.26-86.07C615.9,677.87,621.05,638.75,625,610.25Z" fill="#534741"/><path d="M604.52,859.4c4.84-23.22,10.71-47.7,17.86-73.24,8.35-29.88,17.46-57.67,26.82-83.27l-16.36-12,15.56-16.71c.11-12.5-.44-23.1-1.08-31.22-1.25-16-3.14-21-6.08-25.31a35.08,35.08,0,0,0-15.57-12.3l.21,5.34c-3.33,18.7-7,41.5-10.48,67.6-2.82,21.38-6.49,49.37-8.85,85.46C604.89,789.06,603.67,821.49,604.52,859.4Z" fill="#534741" stroke="#2b292a" stroke-miterlimit="10" stroke-width="4.52"/><path d="M741.48,699.61a647.78,647.78,0,0,0-36.75,81.89A523.54,523.54,0,0,0,687,839a351.52,351.52,0,0,0-8.49,47.39c-.82,7.8-1.22,14.39-1.43,19.17,1-.41,4.39-1.59,7.51,0s3.95,4.71,5,8.22,2.51,8.39.35,12.32c-1.63,3-4.52,3.9-10.19,5.76-22.87,7.47-22.22,7.56-27.63,8.76-3.61.8-8.75,1.84-15,2.74a6.07,6.07,0,0,0,0,4.66c.52,1,2.33,3.36,12.88,2.73,6.83-.4,14.75-1.91,26.82-6.57,4.91-1.89,8.87-3.67,11.53-4.93,2.48,22.17,5.46,39.21,7.78,50.87,1.85,9.3,3.49,16.28-.42,22.5-2.49,4-5.86,5.42-26.4,12.78-20.34,7.29-21.89,7.6-24.48,7.38-14.47-1.23-24.25-15.93-28.2-22.8a44.29,44.29,0,0,0,3.48,19.92,31.29,31.29,0,0,0,5.52,9c1.7,1.91,5.6,6.27,11.76,8,6.7,1.88,12.54-.34,19.44-3,4.21-1.6,6.56-3,12.12-6.12,4.85-2.71,11.9-6.59,20.75-11.19l21.19-11.51c-4.09-21.57-6.4-39.85-7.78-53.41-3.29-32.33-3.14-56-3-86.55s1.42-39.4,2.14-44.1c3-19.15,8-33.9,13.41-49.85,7.88-23.13,11.51-27.73,17.71-48.48A327.85,327.85,0,0,0,741.48,699.61Z" fill="#fff" opacity="0.5" style="mix-blend-mode:overlay"/><path d="M677.1,905.58c-5.9,2.38-8.84,3.56-11.45,5.11-5.74,3.42-10.7,4.52-20,6.58A98,98,0,0,1,629,919.46c-.3,3.27-1.72,20.34,5.19,23.37.6.27,1.51.53,6.7-.18a117.42,117.42,0,0,0,16.9-3.65c5.18-1.48,3.6-1.23,15-4.75,2.72-.84,5.37-1.93,8.11-2.72s4.36-1.11,6.24-2.46a9.93,9.93,0,0,0,3.71-4.32c.8-2,.38-4-.49-8.08-1-4.51-1.53-6.88-3.56-9.1a8.28,8.28,0,0,0-4-2.67A8.75,8.75,0,0,0,677.1,905.58Z" opacity="0.5"/><path d="M412.15,977.86c1.78-5.68.61-9.33-.07-10.91-3.57-8.25-16.62-13-31.86-9.38q-1.16,6.13-2.32,12.25Z" fill="#efe7da"/><path d="M398,969.84c1.66.5,5.17,1.59,10,2.7,3.44.79,6.29,1.32,8.19,1.64q2.54-8.45,5.05-16.9c4.94-19.92,8.2-36.25,10.25-47.3,4.71-25.43,3.1-27,8.5-50.17,4.68-20.1,7.61-34.48,9.47-44.2.46-2.41,1.17-6.48,2.53-12,2.4-9.7,5.15-17.15,8.49-27.93,8.4-27.15,14-44.55,14.47-66.24.47-20.11,1.45-39.18-11.72-53.38-10.08-10.87-28.94-19.57-42-13.07-4.49,2.22-6.79,5.48-10,10-9.31,13.16-10.58,27.26-12.18,47.91-.67,8.61-.92,18.35-1.3,31.73-.59,20.85-.29,23.24-.88,35-.5,9.9-1,14.51-3,35.1-1,10.3-2.41,25.66-4.1,44.77a266.27,266.27,0,0,0-4.87,29.76c-1.34,12.68-1.13,19.6-2.16,37.52-.7,12.34-1.56,22.34-2.16,28.76q-2.26,10.05-4.52,20.1C386.41,966.44,393.32,968.44,398,969.84Z" fill="#534741"/><path d="M398,969.84c1.66.5,5.17,1.59,10,2.7,3.44.79,6.29,1.32,8.19,1.64q2.54-8.45,5.05-16.9c4.94-19.92,8.2-36.25,10.25-47.3,4.71-25.43,3.1-27,8.5-50.17,4.68-20.1,7.61-34.48,9.47-44.2.46-2.41,1.17-6.48,2.53-12,2.4-9.7,5.15-17.15,8.49-27.93,8.4-27.15,14-44.55,14.47-66.24.47-20.11,1.45-39.18-11.72-53.38-10.08-10.87-28.94-19.57-42-13.07-4.49,2.22-6.79,5.48-10,10-9.31,13.16-10.58,27.26-12.18,47.91-.67,8.61-.92,18.35-1.3,31.73-.59,20.85-.29,23.24-.88,35-.5,9.9-1,14.51-3,35.1-1,10.3-2.41,25.66-4.1,44.77a266.27,266.27,0,0,0-4.87,29.76c-1.34,12.68-1.13,19.6-2.16,37.52-.7,12.34-1.56,22.34-2.16,28.76q-2.26,10.05-4.52,20.1C386.41,966.44,393.32,968.44,398,969.84Z" fill="#534741"/><path d="M439.57,827.24a257.05,257.05,0,0,0-8.7,46.43c-2.51,22.86-6.91,56.17-15.22,101.69a591.41,591.41,0,0,0,20.16-84.61q2.56-15.9,4.16-30.94c3-13.08,5.22-23.73,6.73-31.08,2-9.82,2.76-14,4.39-21,2.74-11.69,5.56-21,7.51-27A236,236,0,0,0,439.57,827.24Z" fill="#141414"/><path d="M738.66,972c-1.78-5.68-.61-9.33.07-10.91,3.56-8.25,16.62-13,31.86-9.38L772.9,964Z" fill="#efe7da"/><path d="M752.83,964c-1.66.5-5.17,1.58-10,2.7-3.43.79-6.28,1.32-8.18,1.64q-2.53-8.45-5.06-16.9c-4.93-19.92-8.19-36.25-10.24-47.3-4.71-25.43-3.1-27-8.5-50.17-4.68-20.11-7.61-34.49-9.47-44.2-.46-2.41-1.18-6.48-2.53-11.95-2.4-9.71-5.15-17.15-8.49-27.93-8.4-27.15-14-44.55-14.47-66.24-.47-20.11-1.45-39.19,11.72-53.38,10.08-10.87,28.94-19.57,42-13.07,4.49,2.22,6.79,5.48,10,10,9.31,13.16,10.57,27.25,12.18,47.91.67,8.61.91,18.35,1.3,31.72.59,20.86.29,23.25.88,35,.5,9.9,1,14.51,3,35.1,1,10.3,2.41,25.66,4.09,44.77a264.4,264.4,0,0,1,4.88,29.76c1.34,12.68,1.13,19.59,2.15,37.52.71,12.33,1.57,22.33,2.17,28.75q2.26,10,4.52,20.11C764.4,960.61,757.49,962.61,752.83,964Z" fill="#534741"/><path d="M752.83,964c-1.66.5-5.17,1.58-10,2.7-3.43.79-6.28,1.32-8.18,1.64q-2.53-8.45-5.06-16.9c-4.93-19.92-8.19-36.25-10.24-47.3-4.71-25.43-3.1-27-8.5-50.17-4.68-20.11-7.61-34.49-9.47-44.2-.46-2.41-1.18-6.48-2.53-11.95-2.4-9.71-5.15-17.15-8.49-27.93-8.4-27.15-14-44.55-14.47-66.24-.47-20.11-1.45-39.19,11.72-53.38,10.08-10.87,28.94-19.57,42-13.07,4.49,2.22,6.79,5.48,10,10,9.31,13.16,10.57,27.25,12.18,47.91.67,8.61.91,18.35,1.3,31.72.59,20.86.29,23.25.88,35,.5,9.9,1,14.51,3,35.1,1,10.3,2.41,25.66,4.09,44.77a264.4,264.4,0,0,1,4.88,29.76c1.34,12.68,1.13,19.59,2.15,37.52.71,12.33,1.57,22.33,2.17,28.75q2.26,10,4.52,20.11C764.4,960.61,757.49,962.61,752.83,964Z" fill="#534741"/><path d="M711.24,821.41a257,257,0,0,1,8.7,46.42c2.51,22.86,6.91,56.18,15.22,101.7A590.39,590.39,0,0,1,715,884.92Q712.44,869,710.84,854c-3-13.08-5.22-23.73-6.73-31.08-2-9.82-2.76-14-4.4-20.95-2.73-11.69-5.55-21-7.5-27.05A235.79,235.79,0,0,1,711.24,821.41Z" fill="#141414"/></g></g></g></svg>