<svg xmlns="http://www.w3.org/2000/svg" xmlns:xlink="http://www.w3.org/1999/xlink" viewBox="0 0 1080 1920"><defs><clipPath id="clip-path"><path d="M609.41,953.84c-3.29.14-10.82,1-14.1,1.06-17.5.23-5.12,3.74-20.5,2.3-.53,3.37,7.16,6,6.52,10.13,2.31,0-10,5.54-.13,6.07,2.9.15,18.06,1.47,20,1.55,13.63-.11,23.53.24,37.16,0,11.95-.17-93.27,17.81-81.38,14.27-.49-3.84,6.19-46.53,5.86-49.91C540.45,936.37,631.92,955.52,609.41,953.84Z" fill="none"/></clipPath><radialGradient id="radial-gradient" cx="712.82" cy="747.39" fx="691.4381444284465" fy="713.9572373861968" r="76.89" gradientTransform="translate(-57.94 -561.09) scale(1.08 1.74)" gradientUnits="userSpaceOnUse"><stop offset="0.01" stop-color="#fff"/><stop offset="1" stop-color="#fff" stop-opacity="0"/></radialGradient><radialGradient id="radial-gradient-2" cx="968.63" cy="749.17" fx="947.2575491852787" fy="715.7294195883942" r="76.89" gradientTransform="matrix(-1.08, 0, 0, 1.74, 1477.02, -562.34)" xlink:href="#radial-gradient"/></defs><g style="isolation:isolate"><g id="costumes"><g id="_15" data-name="15"><path d="M469.4,967.16a1264.87,1264.87,0,0,0-1,161.76c2.54,43.74,7.19,84.35,13,121.44A1055,1055,0,0,0,490.76,1468a89.42,89.42,0,0,1,21.6,1.44c5.66,1.1,9.33,2.42,18.72,4.32,5.21,1.06,9.49,1.75,12.24,2.16a1241.23,1241.23,0,0,0,14-132c1.72-33,2-64.28,1.34-93.62q7-52.29,13.45-105.6,10.73-88.42,19.44-174.48c-18.36-39.51-58.16-56.79-86.81-45.84C479.52,934.09,470.72,962.66,469.4,967.16Z" fill="#0a0a0a"/><path d="M540.87,1099.16c-1.22-.06-4.71,39-5.72,79.76-.79,32.07,0,65.07,1.08,65.09,1.39,0,3.29-51.49,3.93-71.53C540.36,1166.17,542.47,1099.23,540.87,1099.16Z" opacity="0.4"/><path d="M535.87,1296c-1.39,0-3.42,37.54-2.15,77.26.88,27.51,3.36,56.37,4.56,56.33,1.76-.07.63-62,.54-66.8C538.61,1351.68,537.56,1296,535.87,1296Z" opacity="0.4"/><path d="M400.19,1568.69a8,8,0,0,0-2.82,4.23,8.06,8.06,0,0,0,.47,5.41,72.08,72.08,0,0,0,12.7,8c22.62,11.11,44.27,6.79,48.46,5.88,6.49-1.41,21.52-4.68,32.47-16,3.14-3.24,7.83-9.1,16.94-17.4,3.47-3.17,6.45-5.66,8.46-7.3.48,2.2,1,4.39,1.42,6.59q8.87-3.37,18.35-7.53,7.1-3.13,13.64-6.35l-1.41-15.53a46.51,46.51,0,0,0-1.18-22.82c-2.58-8.12-8.6-18.85-13.41-18.11-4,.61-3.61,8.53-9.17,10.82-4.56,1.88-10.2-1.22-14.35-4.23l-9.65,16.15a109.62,109.62,0,0,0,5.88-11.57c1-2.29,1.32-3.23,1.3-4.46-.08-5.4-6.31-9.11-7.41-9.77-7.11-4.23-14.91-2.27-16.35-1.88-4.89,1.32-8.47,4.07-15.18,11.41-10,11-13,16.81-24.46,30.7-7.1,8.59-9.85,11-13.41,13.17-2.48,1.49-7.33,3.29-16.94,6.83-10.6,3.9-13.74,4.81-16.23,8.46-.69,1-3.66,5.37-2.12,10.12A10.42,10.42,0,0,0,400.19,1568.69Z" fill="#1a1a1a"/><path d="M400.19,1568.69a68.73,68.73,0,0,0,17.17,9.17,67.48,67.48,0,0,0,26.82,4A66.68,66.68,0,0,0,475,1571.74c8.9-5.63,7.35-7.69,20.7-19,9-7.69,17.12-14.45,28.94-19.06a74.22,74.22,0,0,1,24.23-4.94l1.41,15.53-32,13.88c-.47-2.25-.94-4.51-1.42-6.76-2.68,2.29-6.78,5.89-11.58,10.52-10.46,10.1-11.69,13-17.27,17.57-9.82,8-20.16,10.61-26,12.08a79.17,79.17,0,0,1-31.83,1.09,67.61,67.61,0,0,1-21.8-7.21,65.39,65.39,0,0,1-10.51-7.06,7.94,7.94,0,0,1-.41-5.88A7.69,7.69,0,0,1,400.19,1568.69Z"/><path d="M401.92,1574.41c-.11.26,15.7,10.94,37,11.61,4,.12,22.1.32,36.7-9.26a137.43,137.43,0,0,0,11.29-8.62c6.09-5.13,8.4-7.89,12.23-11.45a105.59,105.59,0,0,1,23.53-16.16,128,128,0,0,1,24.15-9.88c-18.78,2.57-30.28,9-36.39,13.18-5.67,3.91-11.44,8.94-11.44,8.94-8.24,7.17-10.18,10.6-16.94,16a73.35,73.35,0,0,1-14.12,8.94c-16.84,8-33.43,5.74-40.46,4.71A86,86,0,0,1,401.92,1574.41Z" fill="#4d4d4d"/><path d="M414.54,1544.93a40.66,40.66,0,0,0,14.51,11,48.56,48.56,0,0,0,25.41,2.51c18.68-3.08,36.85-21.62,46.65-47.91" fill="none" stroke="#000" stroke-miterlimit="10" stroke-width="1.96" stroke-dasharray="3.27"/><path d="M519.38,1535.83a22.58,22.58,0,0,1,1.57-10.66c2.58-6.18,7.36-9.33,11.29-11.92a42,42,0,0,1,16-6.28" fill="none" stroke="#000" stroke-miterlimit="10" stroke-width="1.96" stroke-dasharray="3.27"/><path d="M439.09,1538.34c1,.77-1.31,3.46-.32,6,.32.79,1.62,3.23,9.1,3.92,12.29,1.14,21.37-4.3,21.8-3.45s-6.84,7.15-17.25,9.41c-9.27,2-16.14-.3-22.27-2.35-3.48-1.17-5.39-2.25-5.49-3.61-.09-1.16,1.17-2,6.9-5.8C436.76,1538.92,438.38,1537.77,439.09,1538.34Z" fill="#4d4d4d"/><path d="M448.65,1517a20.06,20.06,0,0,1,13.18-3.14c10.91,1.39,15.72,11.93,16,12.55" fill="none" stroke="#000" stroke-linecap="round" stroke-miterlimit="10" stroke-width="3.92"/><path d="M453.51,1509.17a20.06,20.06,0,0,1,13.18-3.14c10.91,1.39,15.73,11.93,16,12.55" fill="none" stroke="#000" stroke-linecap="round" stroke-miterlimit="10" stroke-width="3.92"/><path d="M459.47,1501a20.07,20.07,0,0,1,13.18-3.13c10.91,1.39,15.72,11.92,16,12.54" fill="none" stroke="#000" stroke-linecap="round" stroke-miterlimit="10" stroke-width="3.92"/><path d="M443.16,1525.64a20,20,0,0,1,13.18-3.14c10.91,1.39,15.72,11.93,16,12.55" fill="none" stroke="#000" stroke-linecap="round" stroke-miterlimit="10" stroke-width="3.92"/><path d="M683.72,969.08A862.38,862.38,0,0,1,688,1134a859.66,859.66,0,0,1-16.17,116.4,1053.94,1053.94,0,0,1,.81,112.66c-1.77,38.08-5.47,73.23-10.15,105a89.42,89.42,0,0,0-21.6,1.44c-5.67,1.1-9.34,2.42-18.72,4.32-5.21,1.06-9.49,1.75-12.24,2.16a1238.63,1238.63,0,0,1-14-132c-1.72-33-2-64.28-1.34-93.62-4.94-34.83-9.08-71.63-12.07-110.25-4.79-61.78-6-119.69-4.83-173,11.36-34,44.88-51,70.82-42.65C666.54,930.24,679.92,947.92,683.72,969.08Z" fill="#0a0a0a"/><path d="M612.41,1099.16c1.22-.06,4.72,39,5.72,79.76.8,32.07,0,65.07-1.07,65.09-1.39,0-3.29-51.49-3.93-71.53C612.93,1166.17,610.82,1099.23,612.41,1099.16Z" opacity="0.4"/><path d="M617.42,1296c1.39,0,3.42,37.54,2.15,77.26-.89,27.51-3.36,56.37-4.56,56.33-1.77-.07-.63-62-.54-66.8C614.68,1351.68,615.73,1296,617.42,1296Z" opacity="0.4"/><path d="M753.1,1568.69a8,8,0,0,1,2.82,4.23,8.12,8.12,0,0,1-.47,5.41,71.84,71.84,0,0,1-12.71,8c-22.61,11.11-44.26,6.79-48.46,5.88-6.48-1.41-21.51-4.68-32.46-16-3.14-3.24-7.84-9.1-16.94-17.4-3.47-3.17-6.45-5.66-8.47-7.3L635,1558.1q-8.88-3.37-18.35-7.53-7.1-3.13-13.64-6.35l1.41-15.53a46.6,46.6,0,0,1,1.17-22.82c2.58-8.12,8.61-18.85,13.41-18.11,4,.61,3.62,8.53,9.18,10.82,4.56,1.88,10.2-1.22,14.35-4.23l9.64,16.15a113.64,113.64,0,0,1-5.88-11.57c-1-2.29-1.31-3.23-1.29-4.46.08-5.4,6.3-9.11,7.41-9.77,7.11-4.23,14.9-2.27,16.35-1.88,4.88,1.32,8.46,4.07,15.17,11.41,10,11,13,16.81,24.47,30.7,7.1,8.59,9.84,11,13.41,13.17,2.48,1.49,7.33,3.29,16.94,6.83,10.6,3.9,13.74,4.81,16.23,8.46.69,1,3.66,5.37,2.12,10.12A10.48,10.48,0,0,1,753.1,1568.69Z" fill="#1a1a1a"/><path d="M753.1,1568.69a68.64,68.64,0,0,1-17.18,9.17,67.44,67.44,0,0,1-26.82,4,66.65,66.65,0,0,1-30.81-10.12c-8.91-5.63-7.36-7.69-20.71-19-9-7.69-17.11-14.45-28.93-19.06a74.32,74.32,0,0,0-24.23-4.94L603,1544.22l32,13.88,1.41-6.76c2.69,2.29,6.79,5.89,11.59,10.52,10.46,10.1,11.68,13,17.27,17.57,9.82,8,20.15,10.61,26,12.08a79.23,79.23,0,0,0,31.84,1.09,67.61,67.61,0,0,0,21.8-7.21,65.39,65.39,0,0,0,10.51-7.06,8,8,0,0,0,.41-5.88A7.76,7.76,0,0,0,753.1,1568.69Z"/><path d="M751.37,1574.41c.11.26-15.71,10.94-37,11.61-4,.12-22.1.32-36.7-9.26a137.43,137.43,0,0,1-11.29-8.62c-6.1-5.13-8.4-7.89-12.24-11.45a105.57,105.57,0,0,0-23.52-16.16,128.28,128.28,0,0,0-24.15-9.88c18.78,2.57,30.27,9,36.38,13.18,5.68,3.91,11.45,8.94,11.45,8.94,8.23,7.17,10.17,10.6,16.94,16a73.17,73.17,0,0,0,14.11,8.94c16.85,8,33.43,5.74,40.47,4.71A86,86,0,0,0,751.37,1574.41Z" fill="#4d4d4d"/><path d="M738.75,1544.93a40.75,40.75,0,0,1-14.51,11,48.56,48.56,0,0,1-25.41,2.51c-18.68-3.08-36.85-21.62-46.66-47.91" fill="none" stroke="#000" stroke-miterlimit="10" stroke-width="1.96" stroke-dasharray="3.27"/><path d="M633.9,1535.83a22.33,22.33,0,0,0-1.57-10.66c-2.57-6.18-7.36-9.33-11.29-11.92a41.82,41.82,0,0,0-16-6.28" fill="none" stroke="#000" stroke-miterlimit="10" stroke-width="1.96" stroke-dasharray="3.27"/><path d="M714.2,1538.34c-1,.77,1.31,3.46.31,6-.31.79-1.62,3.23-9.09,3.92-12.3,1.14-21.38-4.3-21.8-3.45s6.84,7.15,17.25,9.41c9.27,2,16.14-.3,22.27-2.35,3.48-1.17,5.38-2.25,5.49-3.61.09-1.16-1.17-2-6.9-5.8C716.53,1538.92,714.91,1537.77,714.2,1538.34Z" fill="#4d4d4d"/><path d="M704.63,1517a20,20,0,0,0-13.17-3.14c-10.91,1.39-15.73,11.93-16,12.55" fill="none" stroke="#000" stroke-linecap="round" stroke-miterlimit="10" stroke-width="3.92"/><path d="M699.77,1509.17A20,20,0,0,0,686.6,1506c-10.91,1.39-15.73,11.93-16,12.55" fill="none" stroke="#000" stroke-linecap="round" stroke-miterlimit="10" stroke-width="3.92"/><path d="M693.81,1501a20,20,0,0,0-13.17-3.13c-10.91,1.39-15.73,11.92-16,12.54" fill="none" stroke="#000" stroke-linecap="round" stroke-miterlimit="10" stroke-width="3.92"/><path d="M710.12,1525.64A20,20,0,0,0,697,1522.5c-10.91,1.39-15.73,11.93-16,12.55" fill="none" stroke="#000" stroke-linecap="round" stroke-miterlimit="10" stroke-width="3.92"/><path d="M503,622,534.68,612l40,22.44,14.88.24q3.36-2.83,7.08-5.64a170.46,170.46,0,0,1,31.92-19q19.1,8.26,40.08,16.32,20.74,7.92,40.32,14.4c14.73,13.78,19.64,26.48,21.6,34.56,8.5,35-20.47,56.53-37.44,121.68-4.4,16.87-5.94,28.82-8.64,49.68a564.62,564.62,0,0,0-2.88,118.08q-28.21-2.91-56.44-5.89-29.29-3.09-58.58-6.26l-95.22,10C475.71,901.47,468,854,459.8,821.48c-20-80-60.12-139.89-36-166.32,8.43-9.23,26.45-16.31,41.76-22.32A210,210,0,0,1,503,622Z" fill="#e7f0f8"/><path d="M574,664.76c-1.21,22.57-4.7,87.67-5.9,110.24-.16,2.92-2,37-3.94,74q-1,24.13-2,48.28l18.24,33.8,17.7-37q-5-115.2-9.92-230.42A7.39,7.39,0,0,0,574,664.76Z" fill="#1b1464"/><path d="M560,636.59A93.86,93.86,0,0,1,599.3,635L598,640.4a44.08,44.08,0,0,1-21.11,4.51A43.51,43.51,0,0,1,562,641.6Z" fill="#1b1464"/><path d="M561.91,639c5.67-.74,11.86-1.32,18.51-1.6,6.31-.27,12.24-.24,17.7,0a47.15,47.15,0,0,1-5.63,19.85,46.27,46.27,0,0,1-4.29,6.43L574,664.76A32.9,32.9,0,0,1,561.91,639Z" fill="#1b1464"/><path d="M571.43,641.69c0-1,7.68-1.54,15.89-2.08,4.55-.3,6-.26,7,.8,2.4,2.61-.38,8.83-1.75,11.87-2.13,4.77-5.1,8.41-5.49,8.18s.92-2.32,2.28-6.9c1.14-3.88,1.7-5.84,1-7-1-1.66-3.12-1.53-9.12-2.49C576,643.2,571.44,642.47,571.43,641.69Z" fill="#06067c"/><path d="M564,649.9c-.47.26,1.21,4.77,4.35,8.65a11.32,11.32,0,0,0,3.69,3.28c3.08,1.54,6.77,1.12,6.91.4s-3.11-1.07-7-3.68C566.33,654.74,564.46,649.62,564,649.9Z" fill="blue"/><g id="collar"><path id="color" d="M514.76,629.63l0,.08c5.1,7.61,8.94,15.54,13.1,23.4,3.27,6.17,6.53,12.34,9.27,18.61a170,170,0,0,1,9.23-18.79c4.74-8.17,9.75-17.91,17.93-24.93.07-.12.14-.24.22-.35L536,604.13A329.51,329.51,0,0,0,514.76,629.63Zm127.06.81c-6.09-9.2-11.6-18.59-16.75-28.08L593.89,629l.06.09c.49.46,1,.93,1.43,1.4,3.43,2.92,5.62,6.79,7.89,10.16a105.34,105.34,0,0,1,7.92,13.83,89.45,89.45,0,0,1,5.55,15.18l.42.67c11-16.25,24.8-39.51,24.8-39.51Z" fill="#e7f0f8"/><g id="effects"><path d="M607,623.81c1.63-7.29,11.29-12.4,15.35-19.08L593.89,629l.06.09c.49.46,1,.93,1.43,1.4,3.43,2.92,5.62,6.79,7.89,10.16a105.34,105.34,0,0,1,7.92,13.83c.95,2,1.8,4,2.58,6.1,2.27-8.46.56-12.88-1-19.67C610.82,632.64,606.7,624.91,607,623.81Z" fill="#fff" opacity="0.5"/><path d="M640.68,630.38c-6-9.07-10.95-16.89-16-26.25-3,3.63-5.54,5.75-8.85,9.2,4.14,4.27,7.29,11.39,8.19,14,4.36,12.8.08,25.19-9.26,35.86.75,2.13,1.45,4.26,2,6.42.14.22,23.94-39.25,23.94-39.25Z" opacity="0.1"/><path d="M536,604.13l-.11.13,0,0c3.25,4.14,5.15,7.09,8.83,10.87,2,2.09,3.29,3.32,4.12,5.87.55,1.71,1.38,6.33-1.65,12-3.88,7.18-7.77,16.68-8.78,24.43a39.41,39.41,0,0,0,.38,10.68,159.51,159.51,0,0,1,7.64-15.17c4.74-8.17,9.75-17.91,17.93-24.93.07-.12.14-.24.22-.35Z" fill="#fff" opacity="0.5"/><path d="M527.49,621.05a47.19,47.19,0,0,1,9.14-15.14,3.22,3.22,0,0,1-.46-.34c-7.38,8.07-13.76,15.34-20.13,23.82,0,0,7.86,13.84,12,21.69,3.28,6.18,6.59,13.19,9.33,19.46.29-.7,1.07-1.77,1.38-2.47a195.17,195.17,0,0,1-11.71-26.63C524.55,634.27,525.14,627.6,527.49,621.05Z" opacity="0.1"/></g><path d="M536,604.13l28.6,23.52,6,6.46-1.68,0-4.88-3S544.67,658,537.18,671.72c0,0,10.45-29.07,22.07-43.29Z" fill="#fff"/><path d="M625.07,602.36l-31,25.29-3.9,6.33h1.42l3-2.83S606,641.75,617.16,670.3c0,0-6.12-27.65-17.74-41.87Z" fill="#fff"/></g><g opacity="0.54"><path d="M562.47,1064.85c-.27-.87,9.65-7,21.64-6.64a37.71,37.71,0,0,1,21.16,7.74,69.61,69.61,0,0,0-23.42-3.68C570.34,1062.48,562.7,1065.59,562.47,1064.85Z"/><path d="M586.1,976.25q-.15,83.05-.32,83.06s-.09-3.9-.13-11.7A14.81,14.81,0,0,1,571,1034.16q-.31-33.68-.64-67.35l15.82-.66Z"/></g><path id="belt_color" data-name="belt color" d="M526.63,972.47c21.69.94,43.4,1.24,65.09,2.25l5.73.25c15.59.64,28.37.34,40.88,0,17.09-.44,32.57-1,46.35-1.46a27.83,27.83,0,0,0-3.24-22.68,582.38,582.38,0,0,1-67.2,3.66c-18.1-.06-30.9-.93-46.89-1.89-22.56-1.35-54.78-3.05-95-4.41a19.74,19.74,0,0,0-3.6,21.6,233.78,233.78,0,0,1,31.35.84c.76.08,1.62.23,3.17.33C511.09,971.5,518.85,972.13,526.63,972.47Z"/><g id="effects-2" data-name="effects"><path id="belt_effect" data-name="belt effect" d="M638.56,963.28c5.86-.2,11.71-.81,17.57-.88,6.13-.07,13.13,0,19.24,2.12q-.69-6.63-1.37-13.26a349.27,349.27,0,0,1-41.58,3.42c-9.3.2-17,0-22.86-.18-16-.45-27.89-1.43-32.58-1.8-14.66-1.17-37.68-2.76-76.73-5q-1,6.45-2,12.91c12.87,3.42,24.86,1.58,38-.4,10.19-1.53,20.47-2.06,29.12,4.79a43.54,43.54,0,0,0,6.41-2.68A37.49,37.49,0,0,1,582.92,959a73.92,73.92,0,0,1,31.37,2.21C622.39,961.85,630.4,963.56,638.56,963.28Z" fill="#989898" opacity="0.14"/><path d="M539.2,951.55c-1.57-3.24-5.37-3.95-8.26-2.83a6,6,0,0,0-1,2.69c-1.14,6.75-1.32,25.13,0,25.71,0,0,7.13,1.55,8.49.19,2-2,2.72-17.5,1.9-24.67A2.08,2.08,0,0,1,539.2,951.55Z" fill="#989898" opacity="0.2"/><path d="M638.59,978.84c1.3-3.56.1-22.66-.37-23.6s-9.18-1.61-10,.25-.51,21.44,1.18,24.77C629.75,980.92,637.86,980.84,638.59,978.84Z" fill="#989898" opacity="0.2"/></g><g id="clasp"><g clip-path="url(#clip-path)"><g id="clasp-2" data-name="clasp"><path id="color-2" data-name="color" d="M607.62,959.56s.44-3.37-1-5.6c-1.57-2.43-35.84-5-39-2.26-4.66,4.13-1.75,22.55-.92,24.1,1.37,2.57,27.1.77,32.08,0,4.79-.74,6.82-.5,8.23-2.6S607.64,960.21,607.62,959.56Zm-3.6,11.5c-1.12,1.52-2.32,1.28-6.35,1.7s-25.41,1-26.58-.83c-.71-1.14-2.81-14,.82-16.8,2.43-1.9,30.29-.21,31.7,1.58,1.3,1.64,1.17,4.62,1.17,4.62C604.82,961.8,605.13,969.54,604,971.06Z" fill="#8d9197"/><g id="effects-3" data-name="effects"><path d="M603.61,956.71c1.3,1.64,1.17,4.62,1.17,4.62,0,.41.27,6.3-.39,8.82,2.31-3.47,2.3-10.4,0-13.86-5.13-2.66-10.72-2-17.14-2.4-3.8-.25-8.77-.75-12.25.6C583.21,953.81,602.42,955.21,603.61,956.71Zm.7,17.94c-3.79,1.25-8.58.89-12.68,1-4.7.15-9.65.58-14.71.46-7.73-.18-10.41-2.43-10.44-9,0-4.74-1.12-10.85,1.32-15.56,0,0-.11.06-.14.09-4.66,4.13-1.75,22.55-.92,24.1,1.37,2.57,27.1.77,32.08,0,4.77-.74,6.8-.5,8.21-2.58A8.59,8.59,0,0,1,604.31,974.65Z" opacity="0.2"/><path d="M607.62,959.56s.44-3.37-1-5.6-26.17-4.25-35.84-3.1l-.39.34a3.48,3.48,0,0,0-1.14,1.83,50.66,50.66,0,0,0-.44,19.63,6.13,6.13,0,0,0,1.41,1.51,5.57,5.57,0,0,0,1.5.76c7.19.67,14.09.22,20.78-.14,5-.26,11.48.55,15-3.21C608.21,967.89,607.64,960.1,607.62,959.56Zm-2,10.57a3.92,3.92,0,0,1-2.36,1.63c-1,.73-2.41.66-5.64,1-4.18.43-25.41,1-26.58-.83-.58-.92-2.05-9.42-.67-14.23-1.38-6.82,9.94-5.46,14.78-5.08,3.59.28,7.54.19,11.11.67a2.22,2.22,0,0,1,.64,0c2.57.2,5.38.4,7.16,2.17s1.91,4.55,2.2,6.89S607.19,967.88,605.67,970.13Z" fill="#fff" opacity="0.3"/><path d="M607.14,966.74c.11-1.25.23-2.52.3-3.78.2-3.15.64-8.36-2.93-10-5.28-1.43-19.75-2.64-29.21-2.41a16.39,16.39,0,0,0-2,.28A5.9,5.9,0,0,0,569,954.6a50.7,50.7,0,0,0-.54,15.06,11.3,11.3,0,0,0,1.76,3.26,14.37,14.37,0,0,0,5,1.76c4.23.52,8.85,0,12.9-.32,2-.14,4.12-.48,6.15-.69-4,.13-8.25.33-12.57.25a34.1,34.1,0,0,1-8.29-.85,4.29,4.29,0,0,1-3.3-1.77c-1.37-2.14-1.15-5.42-1.05-7.83.1-2.16-.06-5.35,1-7.78h0c1.59-7.71,20.31-4.09,25.25-3.58,3.75.39,7.71.79,9.79,3.75a10.87,10.87,0,0,1,1.54,6.95,13.56,13.56,0,0,1,.11,2.63.53.53,0,0,1-.05.18,11.13,11.13,0,0,1-1.06,5.67,3.71,3.71,0,0,0,.54-.44,6.45,6.45,0,0,0,.8-1.44C607.08,968.51,607.07,967.55,607.14,966.74Z" fill="#fff" opacity="0.5"/><path d="M568,963.05a1.84,1.84,0,0,0-1.73.91,1.51,1.51,0,0,0,.34,1.78,4.22,4.22,0,0,0,2.64.82l6.58.51a5.89,5.89,0,0,0,1.11,0,2.26,2.26,0,0,0,2-2.53,1.69,1.69,0,0,0-1.23-1.33,2.72,2.72,0,0,0-.9,0c-3,.24-5.58-.4-8.78-.15" opacity="0.15"/></g><path id="color-3" data-name="color" d="M577.89,963.44a2.06,2.06,0,0,1,.53,1.27A1.43,1.43,0,0,1,578,966a2.31,2.31,0,0,1-1.63.32l-7.94-.36a2.86,2.86,0,0,1-1.86-.53,1.35,1.35,0,0,1,.24-2,4.63,4.63,0,0,1,2.32-.75,27,27,0,0,1,8.09.23" fill="#8d9197"/><g id="effects-4" data-name="effects"><path d="M570.63,964.62a27.76,27.76,0,0,0,3.76,0c.49,0,1.93-.16,2.25-.61s0-.87-.26-1.27a27.37,27.37,0,0,0-7.24-.11,4.63,4.63,0,0,0-2.32.75,1.62,1.62,0,0,0-.56,1C567.72,964.37,569.24,964.55,570.63,964.62Z" fill="#fff" opacity="0.3"/><path d="M576.61,963.14a1.9,1.9,0,0,0-.23-.39,27.37,27.37,0,0,0-7.24-.11,4.63,4.63,0,0,0-2.32.75,1.75,1.75,0,0,0-.33.39A30.39,30.39,0,0,1,576.61,963.14Z" fill="#fff" opacity="0.5"/><path d="M577,964.73c-1.32.82-3.09.74-4.69.65a57.26,57.26,0,0,1-5.94-.38,1.11,1.11,0,0,0,.26.39,2.86,2.86,0,0,0,1.86.53l7.94.36A2.31,2.31,0,0,0,578,966a1.43,1.43,0,0,0,.41-1.25,2.06,2.06,0,0,0-.53-1.27l-.5-.43A1.23,1.23,0,0,1,577,964.73Z" opacity="0.2"/></g></g></g></g><g id="belt_loops" data-name="belt loops"><path id="belt_loop_color" data-name="belt loop color" d="M538.4,948c-2.27-.66-8.11-4.37-9.24,2.38s-1.33,25.13,0,25.71c0,0,7.12,1.56,8.48.19C540.11,973.79,540.67,948.69,538.4,948Zm98.79,5.48c-.46-.93-9.2-1.63-10,.25s-.71,21.66,1,25c.33.66,8.48.59,9.23-1.43C638.69,973.76,637.66,954.46,637.19,953.51Z" fill="#141414"/><path id="belt_loops_effect" data-name="belt loops effect" d="M538.4,948c-2.25-.65-8-4.27-9.2,2.17a1.67,1.67,0,0,1,2.14.5c5,6.46,4.68,17.84,2.26,26.1,1.71.15,3.4.11,4-.49C540.11,973.79,540.67,948.69,538.4,948Zm98.79,5.48c-.46-.93-9.2-1.63-10,.25a11.26,11.26,0,0,0-.37,2.71,2.86,2.86,0,0,1,.81-.73,2,2,0,0,1,1.84-.18,1.28,1.28,0,0,1,1.37.31c2.56,3,3.07,8,2.64,13.59,0,3.15-.15,6.44-.19,9.54,1.94-.24,3.75-.75,4.09-1.65C638.69,973.76,637.66,954.46,637.19,953.51Z" opacity="0.1"/></g><rect x="574.64" y="634.4" width="16.2" height="317.4" opacity="0.1"/><path d="M665,777.56l-30.6,14.76-32-14.76.36-55.08H665Z" opacity="0.1"/><path d="M665,722.48H602.72l-.36-13.32,62.88-.72Z" opacity="0.29"/><g id="upperarm"><path d="M756.7,813.3c.4,4.57.4,4.57-.4,6.68a9.7,9.7,0,0,1-1.47,2.36,65,65,0,0,1-5,5.92,7.65,7.65,0,0,1-1.62-3.26c-1.53-4.26-5.4-7.75-5.66-12.25a.75.75,0,0,1,.09-.49.85.85,0,0,1,.53-.25,60,60,0,0,1,11.17-1.3" fill="#c4d0da"/><path id="color-4" data-name="color" d="M670.73,650.49c7.13-8.69,19-12.85,28.57-10.54,0,0,10.48,1.31,20.8,10.09a75.13,75.13,0,0,1,7.38,12.9,166.19,166.19,0,0,1,6.76,18.78c3.81,13.15,4.76,26.6,7.44,40.07,2.74,20.75,5.22,40.82,5.22,40.82l4.49,31.68,3.39.29c2.29,4.64,1.83,12.39,2,16.45,0,1.31,0,2.63,0,3.94a14.88,14.88,0,0,1-3.82.7s-35.53,10.6-44.34,17.83a17.37,17.37,0,0,0-5.9,9.71l.81,2.65-3.89-.47c-4-.47-6.74-11.49-8.36-17.08-1.67-5.75-5-14.68-2.91-18.57a7.06,7.06,0,0,1,2.57-2.09h0l-14.85-50.41s-12.23-38.17-13.58-62C661.14,671.76,663.57,659.22,670.73,650.49Z" fill="#e7f0f8"/><path id="color-5" data-name="color" d="M670.73,650.49c7.13-8.69,19-12.85,28.57-10.54,0,0,10.48,1.31,20.8,10.09a75.13,75.13,0,0,1,7.38,12.9,166.19,166.19,0,0,1,6.76,18.78c3.81,13.15,4.76,26.6,7.44,40.07,2.74,20.75,5.22,40.82,5.22,40.82l4.49,31.68,3.39.29c2.29,4.64,1.83,12.39,2,16.45,0,1.31,0,2.63,0,3.94a14.88,14.88,0,0,1-3.82.7s-35.53,10.6-44.34,17.83a17.37,17.37,0,0,0-5.9,9.71l.81,2.65-3.89-.47c-4-.47-6.74-11.49-8.36-17.08-1.67-5.75-5-14.68-2.91-18.57a7.06,7.06,0,0,1,2.57-2.09h0l-14.85-50.41s-12.23-38.17-13.58-62C661.14,671.76,663.57,659.22,670.73,650.49Z" fill-opacity="0.3" fill="url(#radial-gradient)"/><g id="effects-5" data-name="effects"><path d="M669.54,724.43c1.74,3.79,15.62,41,19.86,51.46,2.1,5.19,6.29,15.24,12.79,18,.19.2,34.26-4.28,45.69.13-2.75-.17-5.74-.3-8.66-.31h0a54.92,54.92,0,0,0-11.47.9c-8,1.84-27.38,8-35.69,12.34,1.46-.76,3.25-1.58,5.27-2.42a15.79,15.79,0,0,0-1.42,1.54c-2.67,3.36,1.58,18.29,2.13,19.48,4.66,10,7.3,2,23.18-3.29,29.61-9.9,32.8-8.56,35.46-9.27,0,.65,0,1.29,0,1.94a14.88,14.88,0,0,1-3.82.7s-35.52,10.61-44.34,17.83a17.29,17.29,0,0,0-5.89,9.71l.79,2.65-3.88-.47c-4-.48-6.74-11.49-8.36-17.08-1.66-5.75-5-14.68-2.91-18.58.32-.59,2.43-2,3.78-2.74C692.05,807,672.89,737.6,669.54,724.43Z" opacity="0.1"/><path d="M691.79,807.16l-.22.12Z" opacity="0.1"/><path d="M689.6,803.25l1.3,4.4c7.48-4.39,28.45-11.07,36.9-13a54.92,54.92,0,0,1,11.47-.9,46.34,46.34,0,0,0-6.12-.37c-4.17.1-8.35.33-12.52.72l-.28,0C710.8,795.81,697.58,796.66,689.6,803.25Z" opacity="0.1"/><path d="M678,677.86c2.8,11.2,8.56,21.75,9.52,33.24.37,4.39,0,8.92,1.47,13.1,4.19,12.12,20.33,15.45,29.49,24.66a55.78,55.78,0,0,1,3.95,6c3.19,5.84-1.41,24.85,3.42,27.36a17.93,17.93,0,0,0,2.22.92,7.21,7.21,0,0,0,6.07,2.35,6.19,6.19,0,0,0,1-.21c2.94.78,5.62,1.38,6.62,1.51,6,.75,3.59-6.83,1.67-17.33-1.35-7.4-2.59-14.78-3.77-22.14-1.71-20.34-4.49-40.59-10.07-60.25-2.87-10.1-6.12-25.16-13.08-33.2-6-7-21.41-11.92-31.35-6.92S675.79,669.2,678,677.86Z" fill="#fff" opacity="0.5"/><path d="M738.82,787.89c-2.89-1.38-5.34-3.25-6.62-6.23-3.83-8.91,1-19.15-1.38-28.39-1.59-6.11-5.8-11.06-10-15.7-3.59-3.93-9.06-8.6-7.31-14.36,1.11-3.66,3.6-6.88,5.18-10.36a31.34,31.34,0,0,0,2.51-10.24c.73-7.75,1-16.42-1.39-23.93-3.79-11.84-14-26.58-28.08-27.72a21.51,21.51,0,0,0-9.5,1.64,11.31,11.31,0,0,1,5.9-4.94c4.78-2,9.91.29,14.3,2.33,12.12,5.63,19.35,17.81,23,29.7,3.25,10.7,4,21.92,5.17,33A545.72,545.72,0,0,0,743,785.65,7.07,7.07,0,0,1,738.82,787.89Z" fill="#fff"/></g><path d="M754.52,812.58a19.55,19.55,0,0,0-3.1-5.73,6.15,6.15,0,0,0-2.48-2.07c-2.42-.94-5,.75-7.4,1.66-3.87,1.47-8.2.95-12.36.8a64.73,64.73,0,0,0-20.39,2.58,10.4,10.4,0,0,0-3.7,1.69c-2.07,1.69-2.57,4.56-2.74,7.18a55.26,55.26,0,0,0,0,6.93,33,33,0,0,1-4.91-13.32c-.23-1.76-.25-3.76,1-5a7,7,0,0,1,2.24-1.32l9.76-4.18a95.89,95.89,0,0,1,13.62-5c8-2.07,16.31-2.08,24.55-2.08,4.42,0,5.34,1.25,5.73,5.13.21,2.17.35,4.34.37,6.52C754.76,808,754,811,754.52,812.58Z" fill="#fff" opacity="0.5"/><path d="M751.63,799.18a8.1,8.1,0,0,0-4.81-1.93c-3.38-.43-7.33.11-10.71.5a58,58,0,0,0-7.24,1.58c-9.06,2.22-18.68,2.77-27.07,6.74a110.62,110.62,0,0,1,26.54-8.8,107.51,107.51,0,0,1,14.32-1.77c3-.16,7-.67,9.58,1,3.24,2.12,2,10.63,2.42,11.06C753.3,803.73,753.63,801.17,751.63,799.18Z" fill="#fff"/><path d="M698.23,837.5c-1.91-5.37-3.13-9.71-5-15.08,3.11,5.38,3.17,6.1,6.14,9.07,3.32,3.3,6.16,1.23,9.95-.75,9.19-4.79,11.56-5.25,21.57-9.25a117.43,117.43,0,0,1,13.72-4.71c1.84-.48,3.71-.95,5.6-1.25a38.38,38.38,0,0,1,4.4-.46,2.49,2.49,0,0,1,.8,0,14.52,14.52,0,0,1-.3,2.65c-.16,1-2.56,5.2-2.43,5.56a23.13,23.13,0,0,1-1.27-5c-6.57.55-12.7,3.29-18.67,6-7.52,3.4-16.3,4.92-22.56,10.19-5.08,4.28-6.4,7.85-6.4,10.38-1.56-.27-3.26.58-4.72,0-1.2-.51-1.77-1.83-2.2-3a157.49,157.49,0,0,1-7.07-26.59C693.77,825.72,694.15,831.38,698.23,837.5Z" opacity="0.1"/></g><g id="upperarm-2" data-name="upperarm"><path d="M387,815.14c-.4,4.57-.4,4.57.4,6.68a9.73,9.73,0,0,0,1.48,2.36,64.93,64.93,0,0,0,4.95,5.92,7.65,7.65,0,0,0,1.62-3.26c1.54-4.26,5.41-7.75,5.66-12.25a.75.75,0,0,0-.09-.49.83.83,0,0,0-.53-.25,60,60,0,0,0-11.17-1.3" fill="#c4d0da"/><path id="color-6" data-name="color" d="M473,652.33c-7.13-8.69-19-12.85-28.57-10.54,0,0-10.48,1.31-20.8,10.09a75.79,75.79,0,0,0-7.38,12.9,166.19,166.19,0,0,0-6.76,18.78c-3.81,13.15-4.75,26.6-7.44,40.07-2.74,20.75-5.22,40.82-5.22,40.82l-4.49,31.68-3.38.29c-2.3,4.64-1.83,12.39-2,16.45,0,1.31,0,2.63,0,3.94a14.92,14.92,0,0,0,3.83.7s35.52,10.6,44.33,17.83a17.3,17.3,0,0,1,5.9,9.71l-.8,2.65,3.88-.47c4-.47,6.74-11.49,8.36-17.08,1.67-5.75,5-14.68,2.91-18.57a7.06,7.06,0,0,0-2.57-2.09h0l14.86-50.41s12.22-38.17,13.57-62C482.55,673.6,480.12,661.06,473,652.33Z" fill="#e7f0f8"/><path id="color-7" data-name="color" d="M473,652.33c-7.13-8.69-19-12.85-28.57-10.54,0,0-10.48,1.31-20.8,10.09a75.79,75.79,0,0,0-7.38,12.9,166.19,166.19,0,0,0-6.76,18.78c-3.81,13.15-4.75,26.6-7.44,40.07-2.74,20.75-5.22,40.82-5.22,40.82l-4.49,31.68-3.38.29c-2.3,4.64-1.83,12.39-2,16.45,0,1.31,0,2.63,0,3.94a14.92,14.92,0,0,0,3.83.7s35.52,10.6,44.33,17.83a17.3,17.3,0,0,1,5.9,9.71l-.8,2.65,3.88-.47c4-.47,6.74-11.49,8.36-17.08,1.67-5.75,5-14.68,2.91-18.57a7.06,7.06,0,0,0-2.57-2.09h0l14.86-50.41s12.22-38.17,13.57-62C482.55,673.6,480.12,661.06,473,652.33Z" fill-opacity="0.3" fill="url(#radial-gradient-2)"/><g id="effects-6" data-name="effects"><path d="M474.14,726.27c-1.73,3.79-15.62,41-19.86,51.46-2.09,5.19-6.29,15.24-12.79,18-.19.2-34.25-4.28-45.68.13,2.74-.17,5.73-.3,8.66-.31h0a54.87,54.87,0,0,1,11.46.9c8,1.84,27.38,8,35.69,12.34-1.46-.76-3.25-1.58-5.27-2.42a17.27,17.27,0,0,1,1.43,1.54c2.67,3.36-1.59,18.29-2.14,19.48-4.66,10.05-7.3,2-23.17-3.29-29.62-9.9-32.8-8.56-35.47-9.27,0,.65,0,1.29,0,1.94a14.88,14.88,0,0,0,3.82.7s35.52,10.61,44.35,17.83a17.24,17.24,0,0,1,5.88,9.71l-.79,2.65,3.88-.47c4-.48,6.74-11.49,8.36-17.08,1.67-5.75,5-14.68,2.91-18.58-.32-.59-2.43-2-3.78-2.74C451.63,808.83,470.79,739.44,474.14,726.27Z" opacity="0.1"/><path d="M451.89,809l.22.12Z" opacity="0.1"/><path d="M454.08,805.09l-1.3,4.4c-7.48-4.39-28.44-11.07-36.9-13a54.87,54.87,0,0,0-11.46-.9,46.23,46.23,0,0,1,6.12-.37c4.17.1,8.34.33,12.51.72l.28,0C432.88,797.65,446.11,798.5,454.08,805.09Z" opacity="0.1"/><path d="M465.73,679.7c-2.8,11.2-8.57,21.75-9.53,33.24-.36,4.39,0,8.92-1.47,13.1-4.18,12.12-20.33,15.45-29.49,24.66a55.78,55.78,0,0,0-3.95,6c-3.18,5.84,1.42,24.85-3.42,27.36a17.93,17.93,0,0,1-2.22.92,7.2,7.2,0,0,1-6.07,2.35,6.45,6.45,0,0,1-1-.21c-2.93.78-5.62,1.38-6.62,1.51-6,.75-3.59-6.83-1.67-17.33,1.36-7.4,2.59-14.78,3.77-22.14,1.71-20.34,4.49-40.59,10.08-60.25,2.87-10.1,6.12-25.16,13.07-33.2,6-7,21.41-11.92,31.36-6.92S467.89,671,465.73,679.7Z" fill="#fff" opacity="0.5"/><path d="M404.87,789.73c2.88-1.38,5.33-3.25,6.62-6.23,3.83-8.91-1-19.15,1.37-28.39,1.6-6.11,5.8-11.06,10-15.7,3.58-3.93,9.05-8.6,7.3-14.36-1.11-3.66-3.6-6.88-5.18-10.36a31.07,31.07,0,0,1-2.5-10.24c-.74-7.75-1-16.42,1.38-23.93,3.8-11.84,14-26.58,28.08-27.72a21.51,21.51,0,0,1,9.5,1.64,11.28,11.28,0,0,0-5.9-4.94c-4.78-2-9.9.29-14.29,2.33-12.13,5.63-19.35,17.81-23,29.7-3.26,10.7-4.06,21.92-5.18,33a545.72,545.72,0,0,1-12.42,73A7.07,7.07,0,0,0,404.87,789.73Z" fill="#fff"/></g><path d="M389.16,814.42a19.35,19.35,0,0,1,3.11-5.73,6.18,6.18,0,0,1,2.47-2.07c2.42-.94,5,.75,7.4,1.66,3.87,1.47,8.2,1,12.36.8a64.73,64.73,0,0,1,20.39,2.58,10.4,10.4,0,0,1,3.7,1.69c2.08,1.69,2.57,4.56,2.74,7.18a55.26,55.26,0,0,1,0,6.93,33,33,0,0,0,4.9-13.32c.24-1.76.25-3.76-1-5a7.09,7.09,0,0,0-2.24-1.32l-9.76-4.18a96,96,0,0,0-13.63-5c-7.95-2.07-16.31-2.08-24.55-2.08-4.42,0-5.34,1.25-5.72,5.13q-.33,3.25-.38,6.52C388.93,809.87,389.7,812.83,389.16,814.42Z" fill="#fff" opacity="0.5"/><path d="M392.05,801a8.13,8.13,0,0,1,4.81-1.93c3.38-.43,7.33.11,10.72.5a58.29,58.29,0,0,1,7.23,1.58c9.06,2.22,18.68,2.77,27.07,6.74a110.47,110.47,0,0,0-26.54-8.8A107.57,107.57,0,0,0,401,797.34c-3-.16-7-.67-9.59,1-3.24,2.12-2,10.63-2.41,11.06C390.38,805.57,390.05,803,392.05,801Z" fill="#fff"/><path d="M445.45,839.34c1.91-5.37,3.14-9.71,5-15.08-3.1,5.38-3.16,6.1-6.14,9.07-3.32,3.3-6.15,1.23-10-.75-9.19-4.79-11.56-5.25-21.56-9.25a118.72,118.72,0,0,0-13.72-4.71c-1.85-.48-3.72-1-5.61-1.25a38.15,38.15,0,0,0-4.4-.46,2.49,2.49,0,0,0-.8,0,14.52,14.52,0,0,0,.3,2.65c.17,1,2.57,5.2,2.43,5.56a23.74,23.74,0,0,0,1.28-5c6.57.55,12.69,3.29,18.66,6,7.52,3.4,16.31,4.92,22.56,10.19,5.08,4.28,6.4,7.85,6.4,10.38,1.57-.27,3.26.58,4.72,0,1.21-.51,1.77-1.83,2.2-3a156.56,156.56,0,0,0,7.07-26.59C449.91,827.56,449.54,833.22,445.45,839.34Z" opacity="0.1"/></g><path d="M392.84,326.12c-2.81,3.77-25,32.68-53.76,29.76-29.71-3-45.55-37.9-47.52-42.24-30.45-67,49.15-207.43,167.52-266.88,112.58-56.54,259-39.27,351.36,41.76,4.55,4,113,101.77,90.72,208.8-7.06,33.88-29.77,80.91-61.92,85-25.46,3.21-38.52-22.78-73.44-49-77.54-58.13-175.69-51.8-219.6-49A402.18,402.18,0,0,0,392.84,326.12Z" fill="#fff"/><path d="M588.3,307.73c90,4.28,124.43,11.5,125.06,8.17.86-4.56-61.7-29.39-137.57-29.67-74.11-.27-138,23-137.47,25.51.22,1.13,13.07-1.44,38.74-3.6C504.06,305.86,532.64,305.08,588.3,307.73Z" fill="#020200" opacity="0.25"/><path d="M773.84,308c-3.06-16-3.21-38.67-6.27-54.65-2.58-13.44-13.5-59.22-46.7-86.7-29.6-24.52-56.72-33.4-53.42-31.65,6.17,3.26-7.87-10.58-14.73-12.22s-12.22,2.37-14.78-1.15c-10.92-15-25-17.43-51.44-18.14-23.32-.63-37.73-.71-50.93,15.29-2.77,3.35-7.77-1-14.82.32S499,133.35,505.36,130.43c3.39-1.55-24.18,5.8-55.11,28.63-34.67,25.59-48.13,70.68-51.45,84-3.57,14.29-5.79,40.47-9,55.83-.16.79,82.6-33.89,185.74-27.87,95.72,5.59,154.5,16.9,197.17,40.12" fill="#534741"/><path d="M650.4,157.66c19.76,5.45,31.91,22.1,35.38,42.3-2-10.86-2.85-21.71-6.89-32,32.48,16.92,82.86,114.81,90.08,140.14,1.23,4.3.66.36,4.33,2.91-3.06-40-4.51-77-24.32-109.76-3-4.9-5.92-11.6-9.77-15.83-4.52-5-8.4-9.25-12.83-14.28-4-4.54-9.9-7.15-14.31-11.31-10.4-9.8-25-17.64-41.86-22.18,0-6.7-8.74-11.66-15.16-13.52-6.12-1.78-16.64-2.56-15.79,0C642.34,133.42,648.64,149.31,650.4,157.66Z" fill="#fff" opacity="0.5" style="mix-blend-mode:overlay"/><path d="M432.91,285.56c-15.22,2.34-29.67,8.12-44,13.86l3-20.76c2.63-18.15,5.29-36.45,11.4-53.75,10.75-30.44,32.23-56.81,59.34-74.33,10.91-7.06,24.27-14.83,37.13-17.37C466.09,170,426.69,234.9,432.91,285.56Z" fill="#fff" opacity="0.5" style="mix-blend-mode:overlay"/><path d="M659,190.16c.62-2.71.31,2.26-.22-.47-5.26-26.94-6.86-23.37-14.8-49.65-1.9-6.26-3.89-12.55-7.15-18.21S628.9,111.1,622.9,108.5c-4.21-1.82-8.84-2.36-13.4-2.88-3.23-.36-19.72-3.57-16.34-.85C620.73,126.94,647.22,152.07,659,190.16Z" fill="#fff" opacity="0.5" style="mix-blend-mode:overlay"/><path d="M496.9,250.5a91.84,91.84,0,0,1,2.5-16c8.15-37.6,16.46-75.65,33.6-110.1a45.56,45.56,0,0,1,5.12-8.51c4.9-6,12.41-9.54,20.06-11,3-.59,24.18-1.94,21.16-.71C552,115.26,507.1,220.82,496.9,250.5Z" fill="#fff" opacity="0.5" style="mix-blend-mode:overlay"/><path d="M485.38,236.77c-.44,4-3.61,14.08.26,25.25a37.61,37.61,0,0,0,5.25,9.92,328.42,328.42,0,0,1,14.63-63.89c9.62-28.32,11.56-60.42,28.44-85.11,3-4.37-5.57-4.09-9.29-3.73C521.38,119.53,487.86,214.2,485.38,236.77Z" fill="#fff" opacity="0.5" style="mix-blend-mode:overlay"/><path d="M361.19,332.79c4.06-13.11,14.19-23.7,25.92-30.83s25.06-11.14,38.34-14.59A563.8,563.8,0,0,1,748.6,299.74c17.53,6,36.08,14,45.25,30.13,11,19.28-.12,58.45-31.69,19.78-4-5-27.76-23.25-43.92-31.17-9.82-4.8-20.29-8.14-30.86-10.92C643.68,296,598.07,293.75,552.88,294c-29.59.16-59.47,1.43-88,9.14s-56,22.38-74.52,45.45C388.62,350.71,357.6,344.43,361.19,332.79Z" fill="#534741" stroke="#000" stroke-miterlimit="10" stroke-width="1.57"/><path d="M540.35,112.16c-2.4,1.86-4.13,4.73-5.69,7.28A126,126,0,0,0,526.49,136c-3.93,9.28-7.27,18.8-10.32,28.41-4.43,14-8.24,28.15-11.71,42.39-4.75,19.47-8.84,39.1-12.55,58.79-.53,2.82-1.06,5.64-1.57,8.47-.27,1.47,2,2.11,2.26.62,3.72-20.35,7.82-40.64,12.57-60.78,3.49-14.81,7.33-29.54,11.78-44.08,3.08-10.08,6.45-20.1,10.42-29.87a144.09,144.09,0,0,1,8.42-17.76,55.23,55.23,0,0,1,3.3-5.13l.33-.44c.19-.25-.13.16,0,0l.19-.24c.22-.27.43-.54.66-.79a13.82,13.82,0,0,1,1.19-1.23l.51-.44c1.2-.92-.48-2.57-1.66-1.66Z"/><path d="M408.74,300.17c31.68-9.84,78.71-15.76,111.22-19.12,28.38-2.92,82.91-3,114.5.52,41.62,4.61,64.11,10.41,103.91,23.2,25.36,8.14,45.33,18.12,60.36,40.11,1-5.47-5.5-17.27-9.57-21.08-19.91-18.67-35.56-22.86-61.56-31.21-27.18-8.72-51.48-14.43-80-16.4-23.08-1.6-44.91-4.38-68-5.73-17.26-1-42.9.59-60.17,1.39-36.14,1.67-75,10.11-109.72,20.17-9.32,2.7-47.6,25.26-43.63,31C375,317.24,396.41,304,408.74,300.17Z" fill="#fff" opacity="0.5" style="mix-blend-mode:overlay"/><path d="M507.7,124.73c-1.27,0-2.12,1.55-2.66,2.47a57.37,57.37,0,0,0-3,6.16c-3.27,7.49-6.07,15.19-8.78,22.89-3.9,11.11-7.51,22.32-10.92,33.59q-6,19.86-11.1,40c-3.5,13.85-6.66,27.78-9.29,41.81-.32,1.74-.64,3.49-.95,5.23-.26,1.48,2,2.11,2.26.63,2.46-13.82,5.44-27.53,8.78-41.15q4.9-20,10.75-39.78,5.07-17.18,10.82-34.15c2.85-8.34,5.81-16.65,9.16-24.8,1-2.48,2.08-5,3.29-7.36.39-.77.79-1.54,1.25-2.27.11-.17.61-.87.38-.59.13-.16.3-.3.42-.46a.46.46,0,0,1-.42.16c1.51.06,1.51-2.29,0-2.35Z"/><path d="M798.81,345.45a42.13,42.13,0,0,0-4.45-16.34,42.71,42.71,0,0,0-10.87-12.87,105,105,0,0,0-20.61-13.13c-17.22-8.58-35.92-14.09-54.6-18.43a551.8,551.8,0,0,0-59.07-10q-23.7-2.82-47.54-4.17c-6.49-.36-13-.68-19.48-.81-6.28-.13-12.56-.09-18.83,0q-23,.29-45.86,1.73C498.24,272.62,479,274.5,460,277.5c-18.26,2.87-36.6,6.65-53.94,13.16-15.52,5.83-29.76,13.93-38.91,28.23a56.06,56.06,0,0,0-6.76,15.77,1.18,1.18,0,0,0,2.27.63,55.06,55.06,0,0,1,17.31-27.76,77.26,77.26,0,0,1,17.93-11c15.86-7.3,33.18-11.45,50.28-14.66a540.85,540.85,0,0,1,57.42-7.31c16.3-1.3,32.65-2.08,49-2.44,8.78-.19,17.57-.28,26.36-.16,4.07.06,8.14.22,12.21.41q20.34.91,40.62,2.92c19,1.87,38,4.42,56.77,8,19.19,3.66,38.33,8.35,56.58,15.4a150.63,150.63,0,0,1,23.71,11.39c7.89,4.77,16,10.63,20.73,18.72a38.79,38.79,0,0,1,4.93,16.6c.11,1.5,2.46,1.51,2.35,0Z"/><path d="M775.53,310.59a222.23,222.23,0,0,0-2.72-37.78,302,302,0,0,0-8.16-35.09c-6.57-23.07-16.6-45.38-33.31-62.94C721,164,708.49,155,695.74,147.3a157.29,157.29,0,0,0-25.19-12.71c-1-.39-3.77-1.87-4.45-.29-.76,1.8,3.42,3.4,4,1.33.29-1-.67-2-1.27-2.73a35.89,35.89,0,0,0-4.05-3.94c-3.21-2.77-6.85-5.72-10.91-7.11a18.76,18.76,0,0,0-8.53-.41,35.31,35.31,0,0,1-3.84.47,3.33,3.33,0,0,1-3.1-1.65,40.67,40.67,0,0,0-10.22-9.71c-8.75-5.64-19.48-7-29.65-7.74-6.89-.47-13.82-.64-20.73-.72a105.39,105.39,0,0,0-17,.9,41.65,41.65,0,0,0-14.28,4.75,38.65,38.65,0,0,0-6.32,4.52c-1,.89-2,1.83-2.92,2.81s-1.89,2.58-3.09,3.39c-1.86,1.25-5.27-.22-7.26-.52a16.8,16.8,0,0,0-7.91.37c-4.14,1.4-7.91,4.12-11.3,6.81-1.18.94-6.11,4.19-4.85,6.26,1.06,1.74,5.24-.37,3.63-2-1-1-3.65.29-4.68.62-3.56,1.16-7,2.55-10.49,4a206.2,206.2,0,0,0-35.51,19.62A126.75,126.75,0,0,0,425.64,182a147.3,147.3,0,0,0-17.46,30.78,277.19,277.19,0,0,0-9.51,26.72,230.64,230.64,0,0,0-9,41c-.67,5.57-1.1,11.17-1.33,16.78-.06,1.51,2.29,1.51,2.35,0a210.74,210.74,0,0,1,4.42-35.39A291.46,291.46,0,0,1,404,230.66c6.7-20.12,16-39.57,30.28-55.45,9.27-10.31,20.46-18.45,32.25-25.65a193.2,193.2,0,0,1,30-15.1c2.56-1,5.16-2,7.81-2.73a6.27,6.27,0,0,0,1-.25c.39-.2.29,0,.3-.07s-1-2.17-.62-2.07c-.06,0-.19.11-.25.12-1.52.11.19,1.42.33,1.35.29-.13.63-.74.86-1,.6-.62,1.25-1.2,1.91-1.76a53.26,53.26,0,0,1,4.95-3.76c3.77-2.55,7.53-4.65,12.22-4.26,2.51.21,5,1.15,7.48,1.17,2.12,0,3.35-1,4.67-2.5A39.65,39.65,0,0,1,549.05,109c9.24-4.72,20.07-4.72,30.19-4.57,11.56.18,23.53.15,34.84,2.84a38.36,38.36,0,0,1,22.11,13.9c1.27,1.65,2.33,2.87,4.53,3,2.55.19,5.13-.66,7.68-.74,4.76-.14,8.43,2.18,12.08,5a55.08,55.08,0,0,1,4.72,4c.56.54,1.12,1.09,1.63,1.67.17.18.75,1.16,1,1.23a8.79,8.79,0,0,0,1.05-1.12c0-.06-.41-.1-.48-.18a1.32,1.32,0,0,0-.47-.25c.39,0-.72,1.82-.64,2.06,0,0-.24-.16.2.07a7.16,7.16,0,0,0,1,.34c7.17,2.47,14,6.13,20.63,9.84A195.14,195.14,0,0,1,723,169.94c17.69,15.72,29.2,36.66,36.53,58.93,7.09,21.53,12.17,44,13.39,66.68q.4,7.51.3,15a1.18,1.18,0,0,0,2.35,0Z"/><path d="M775,361.54c-21.39-21-44.9-42.17-73.62-52.44-6.72-2.41-13.86-3.71-20.85-5.1-12.94-2.59-26-4.73-39.07-6.52a539.66,539.66,0,0,0-102.41-4.71q-22.43,1.2-44.73,4C485.22,298,476,299.22,467,301.07c-11.89,2.45-23.42,7.67-34,13.56-13.34,7.46-25.6,16.7-37.27,26.51-2.91,2.45-5.78,4.93-8.64,7.44-1.13,1,.53,2.66,1.66,1.66C411,330.7,435.86,311.29,465.1,303.9a208,208,0,0,1,21.47-3.7q20.54-2.9,41.25-4.37a532.66,532.66,0,0,1,101.94,2.49q21.11,2.52,42,6.37c8.16,1.51,16.38,3.06,24.4,5.21,12.12,3.24,23.59,9.73,33.95,16.65,12.75,8.52,24.38,18.61,35.48,29.15,2.61,2.47,5.19,5,7.76,7.5a1.17,1.17,0,0,0,1.66-1.66Z"/><path d="M631.82,116.38a9.56,9.56,0,0,1,1,1.06c.2.23.38.46.57.7-.22-.28,0,.06.14.19l.32.44a45.28,45.28,0,0,1,2.88,4.76A122.23,122.23,0,0,1,644,140.36c3.37,9.41,6.12,19,8.6,28.71,3.62,14.1,6.6,28.35,9.26,42.65,3.64,19.63,6.63,39.38,9.22,59.18.37,2.83.74,5.66,1.09,8.49.19,1.48,2.54,1.5,2.35,0-2.59-20.6-5.55-41.15-9.18-61.6-2.68-15.09-5.71-30.13-9.38-45-2.54-10.28-5.36-20.51-8.81-30.52a144.09,144.09,0,0,0-7.55-18.48,33.85,33.85,0,0,0-5.56-8.59c-.17-.17-.33-.33-.5-.48-1.14-1-2.81.67-1.67,1.67Z"/><path d="M667.55,135.82a2.66,2.66,0,0,1-.39-.11c.24,0-.24,0,0,0,0,0,.17.17.19.2-.23-.38,0,0,.06.11a16.55,16.55,0,0,1,.93,1.77c.87,1.9,1.69,4.26,2.42,6.43,2.54,7.55,4.65,15.24,6.67,22.94,6.22,23.66,11.35,47.62,15.68,71.69,2.77,15.34,5.17,30.75,7,46.23.18,1.48,2.53,1.5,2.35,0-3.33-27.63-8.25-55.08-14.16-82.27-2.51-11.54-5.2-23-8.17-34.47-2.1-8.07-4.28-16.13-6.91-24a74.39,74.39,0,0,0-2.91-7.74c-.51-1.11-1.28-3-2.75-3.06a1.18,1.18,0,0,0,0,2.35Z"/><path d="M415.12,646.32c27.29-15.57,51.94-18.1,78.74-30,12.85,34.48,81,122.28,80.53,129-1.25,17.09,2,168.4-1.65,249.92-33-2.19-100.62-5.65-129.18-23a911.93,911.93,0,0,0,14-186.81c-.16-5.77-.39-11.59-1.83-17.16-2.21-8.48-7.1-15.86-11.48-23.35a222.82,222.82,0,0,1-29.76-99.33" fill="#534741"/><path d="M416.15,648.09c12.54-7.12,26-12.07,39.69-16.37,13.17-4.14,26.4-8.07,39.05-13.68l-3-1.22C496,627.66,502,637.76,508,647.6c7.83,12.82,16.18,25.32,24.63,37.74,8,11.75,16.14,23.4,24.16,35.12,5,7.37,10.52,14.73,14.62,22.68.13.24.25.49.38.74s.44,1,.18.37c.14.35.24.7.36,1s0-.24,0-.12,0,.32,0,.48c0,.47-.06,1-.08,1.42-.12,2.93-.14,5.86-.17,8.8-.09,10.41,0,20.83,0,31.25q.1,22.22.24,44.43.14,25.85.14,51.69c0,17.67-.08,35.35-.3,53-.2,16.14-.5,32.28-1.07,48.42-.13,3.51-.26,7-.42,10.53l2-2c-16.51-1.1-33-2.13-49.48-3.84-18.53-1.92-37.19-4.44-55.16-9.47-8.13-2.27-16.25-5.07-23.51-9.45l.94,2.31a918.47,918.47,0,0,0,14.06-135.42q.5-17.05.35-34.13-.07-8.53-.31-17.06a93.12,93.12,0,0,0-1.44-16.34c-2.1-10.18-8.1-18.82-13.17-27.69a213.36,213.36,0,0,1-13.42-28,222.9,222.9,0,0,1-15.06-68.56c-.15-2.61-4.24-2.63-4.08,0a225.26,225.26,0,0,0,23.93,89.16c4.65,9.16,10.69,17.63,14.88,27,4.53,10.17,4.25,21.3,4.45,32.21q.31,16.88,0,33.76-.63,34.13-3.8,68.14-3.57,38.12-10.34,75.83a2.11,2.11,0,0,0,.94,2.31c14.13,8.54,31.28,12.11,47.35,14.94,18.7,3.31,37.65,5.16,56.58,6.59,8.76.66,17.52,1.21,26.28,1.79a2.09,2.09,0,0,0,2-2c.68-15.45,1.05-30.91,1.31-46.37.29-17.57.41-35.13.46-52.7s0-35-.06-52.55q-.11-23.46-.26-46.93c-.06-11.64-.14-23.27-.1-34.91,0-3.74,0-7.48.1-11.22,0-2,.52-4.38.06-6.33-.56-2.35-2.1-4.63-3.33-6.68-2.32-3.86-4.82-7.61-7.33-11.35-7.38-11-15-21.82-22.48-32.72-8.67-12.61-17.28-25.27-25.51-38.18-6.89-10.81-13.74-21.79-19.2-33.4-.95-2-1.84-4.06-2.62-6.14a2.09,2.09,0,0,0-3-1.22c-12.71,5.63-26.08,9.46-39.31,13.64-13.62,4.31-27,9.33-39.42,16.4-2.29,1.3-.23,4.83,2.06,3.53Z"/><path d="M452.37,912.44C489.69,917.36,536.76,925,573.72,923c.43-8.79.29-17.88.38-26.81a2.42,2.42,0,0,0-.75-1.94,2.48,2.48,0,0,0-1.46-.4c-24.21-1.51-39.48-1.53-63.69-3-7.54-.47-21.72-1.59-29.2-2.68-4.28-.63-15.55-2.29-22.65-3.28-2.28-.32-2.45,10.33-2.7,12.79C453.22,902,452.62,908.08,452.37,912.44Z" fill="#6b6b69"/><path d="M500.64,812.2c-13.47.23-28.67.13-42.27-1.94-.53,7.81-1.46,18.16-.71,26,37,5.2,76.4,5.33,114.07,4.08l.91-29.17c-15.68,1.93-27.26,1.69-44.48,1-.7,0-5.14.16-5.71-.28s-2.8-7.55-3.11-8.41c-4.63-13-6.52-22.46-11.14-35.47-8.55-24-17.11-48-24.29-72.55-6.7-22.85-13.45-46-17.71-69.51.27,1.48-18.29,6.49-20,6.94-1,.27,1,8.39,2.11,13.14,3.25,13.51,7.12,26.85,11.29,40.07,8.47,26.81,18.2,53.16,26.89,79.89C491.35,781,496.84,796.86,500.64,812.2Z" fill="#6b6b69"/><path d="M476.18,821.75c4.33,28.14,3.23,57-1.23,85.12C473,919,470.49,931,469.52,943.22c-1.07,13.41-.24,26.92,1,40.32l-21-6.88c-2-.66-4.29-1.52-5.18-3.55-.67-1.53-.37-3.31-.05-5A793.83,793.83,0,0,0,458,798.31c-.47-17.55-2.71-33.32-10.39-49,4.06,4.16,16.5,27.68,18.08,31.88A202.49,202.49,0,0,1,476.18,821.75Z" fill="#020200" opacity="0.25"/><path d="M417.55,674.07c26.26-18.74,51.69-33.84,80.91-46.93a57.5,57.5,0,0,0-3.14-7.82,6.49,6.49,0,0,0-1.68-2.52c-.92-.54-62.48,20.31-78.52,29.52C414,647,416.45,668.77,417.55,674.07Z" fill="#020200" opacity="0.25"/><path d="M415.3,647.19C428,640,441.55,635,455.4,630.72c13.15-4.1,26.36-8,39-13.56l-1.5-.61c4,10.74,10.05,20.78,16,30.56,7.75,12.79,16,25.28,24.38,37.69,8,11.83,16.09,23.56,24.1,35.37,5.08,7.49,10.55,15,14.73,23a11.38,11.38,0,0,1,1.08,2.47c.12.49.06.08,0,.64s0,.88-.07,1.31c-.12,2.88-.15,5.76-.17,8.64-.09,10.36,0,20.71.05,31.06q.12,22.08.29,44.15.15,25.84.18,51.71,0,26.57-.26,53.13c-.19,16.11-.48,32.23-1.05,48.34q-.18,5.29-.42,10.59l1-1c-16.51-1.09-33-2.13-49.48-3.84-18.62-1.93-37.37-4.45-55.43-9.5-8.21-2.3-16.43-5.13-23.76-9.56l.47,1.16a916.17,916.17,0,0,0,14-135.15q.49-17.05.35-34.13-.07-8.53-.31-17.06a92,92,0,0,0-1.4-16.07c-2.09-10.09-8-18.64-13.07-27.44a212.06,212.06,0,0,1-13.44-28.08,222.77,222.77,0,0,1-14.83-68.36c-.08-1.31-2.12-1.31-2.05,0a226.23,226.23,0,0,0,11.68,60.12,218.73,218.73,0,0,0,11.79,27.93c4.64,9.14,10.68,17.61,14.86,27,4.62,10.35,4.39,21.61,4.6,32.72s.21,22.51,0,33.76q-.63,34.13-3.8,68.14-3.57,38.25-10.38,76.1a1.08,1.08,0,0,0,.47,1.16c14.06,8.49,31.13,12,47.11,14.84,18.61,3.29,37.47,5.13,56.31,6.55,8.76.66,17.52,1.2,26.28,1.79a1.06,1.06,0,0,0,1-1c.68-15.51,1.05-31,1.3-46.57.28-17.52.39-35,.42-52.57s0-35.07-.11-52.6q-.12-23.33-.3-46.66c-.07-11.58-.16-23.17-.14-34.75,0-3.7,0-7.39.11-11.09,0-1.82.5-4.05.06-5.84-.59-2.36-2.17-4.65-3.4-6.7-2.33-3.88-4.83-7.66-7.33-11.43-7.37-11.08-15-22-22.45-33-8.59-12.61-17.12-25.27-25.27-38.17C509.81,645,503,634,497.55,622.38c-1-2.09-1.9-4.21-2.71-6.37a1,1,0,0,0-1.5-.61c-12.85,5.69-26.35,9.54-39.73,13.74-13.59,4.27-26.91,9.23-39.34,16.28a1,1,0,0,0,1,1.77Z"/><path d="M444.71,633.41c.94,8.34,3.46,16.57,5.77,24.61,3.64,12.71,7.66,25.31,11.73,37.89,4.67,14.41,9.47,28.79,14.26,43.17,4.53,13.59,9.07,27.18,13.47,40.81,3.24,10,6.5,20.09,9.21,30.29.23.86.45,1.73.67,2.59l1-1.29c-11.9-.34-23.82-.7-35.7-1.57-2.15-.16-4.32-.3-6.46-.64-1.28-.2-1.84,1.77-.54,2a137.16,137.16,0,0,0,13.72,1.14c6.44.35,12.88.61,19.32.84l9.66.3a1,1,0,0,0,1-1.29c-2.4-9.61-5.45-19.06-8.46-28.49-4.26-13.31-8.68-26.57-13.09-39.82q-7.17-21.49-14.25-43C461.77,688,457.6,675,453.75,662c-2.58-8.77-5.3-17.66-6.74-26.7-.12-.73-.18-1.19-.26-1.87-.14-1.29-2.19-1.31-2,0Z"/><path d="M465.09,626.93c3.53,17.9,8.32,35.55,13.32,53.07,5.64,19.76,11.72,39.38,18,58.94q8,24.75,16.41,49.34c2.67,7.77,5.15,15.68,8.24,23.29.57,1.41,2,1,3.32,1,3.62,0,7.24,0,10.86.09q15.09.21,30.18.63l5.82.19c1.32.05,1.32-2,0-2-9.55-.36-19.11-.54-28.67-.7q-6.8-.12-13.58-.19l-4.46,0H523a2.44,2.44,0,0,0-.47,0s-.21,0-.24,0c.37-.45.66.42.8.49-.07,0-.11-.45,0,.06,0-.12-.1-.24-.14-.36-.15-.38-.29-.76-.43-1.15-.51-1.36-1-2.72-1.49-4.09q-2.58-7.21-5.06-14.45-8.06-23.34-15.67-46.82c-6.28-19.36-12.36-38.79-18-58.34-5.2-17.87-10.17-35.84-14.06-54q-.58-2.75-1.13-5.5c-.26-1.29-2.23-.74-2,.54Z"/><path d="M457.86,836.85c14.53,2.09,29.2,3.07,43.85,3.71,15.75.7,31.52.92,47.28.79,7.69-.07,15.38-.22,23.06-.51,1.31,0,1.32-2.09,0-2-14.28.52-28.58.64-42.87.47-15.77-.19-31.56-.72-47.29-1.92-7.85-.59-15.69-1.35-23.48-2.48-1.29-.18-1.85,1.79-.55,2Z"/><path d="M455.38,885.64c14.1,2.88,28.6,4.06,42.93,5.24,17.08,1.39,34.19,2.39,51.31,3.22q11.83.58,23.68,1c1.32.06,1.32-2,0-2-15.1-.61-30.2-1.32-45.3-2.21-16.84-1-33.69-2.17-50.45-4-7.24-.82-14.49-1.73-21.63-3.19-1.28-.26-1.83,1.71-.54,2Z"/><path d="M452.4,913.15c15.17,2.36,30.42,4.19,45.68,5.82,17.09,1.82,34.23,3.37,51.39,4.34,8.08.46,16.17.8,24.27.78a1,1,0,0,0,0-2c-15.32,0-30.65-1-45.91-2.3q-25.68-2.12-51.25-5.31c-7.89-1-15.78-2-23.63-3.26-1.29-.2-1.84,1.77-.55,2Z"/><path d="M713.8,641.77a326.71,326.71,0,0,1-68-28.61c-11.87,18-28.32,44.17-46,77C584.71,718.33,572.72,740.05,573,744c1.25,17.09-5.13,169.72-1.49,251.24,33-2.19,100.62-5.65,129.19-23a911.93,911.93,0,0,1-14-186.81,70.68,70.68,0,0,1,1.84-17.16A64.18,64.18,0,0,1,700,744.87C707,735.4,713.77,709.91,713.8,641.77Z" fill="#534741"/><path d="M714.34,639.8a327.5,327.5,0,0,1-67.51-28.4,2.07,2.07,0,0,0-2.79.73c-19.7,29.84-37.28,60.84-54.2,92.31-4,7.46-8,14.91-11.86,22.45a106.48,106.48,0,0,0-6.38,13.91,15.94,15.94,0,0,0-.52,5.87c.06,2.6.06,5.21,0,7.82-.1,20.22-.72,40.45-1.16,60.68-.64,28.9-1.21,57.81-1.48,86.72-.26,28.17-.32,56.36.65,84.52.1,2.94.21,5.88.35,8.81a2.07,2.07,0,0,0,2,2c16.82-1.12,33.65-2.17,50.43-3.94,18.73-2,37.62-4.51,55.79-9.65,8.28-2.34,16.6-5.26,24-9.73a2.13,2.13,0,0,0,.94-2.31q-7.87-43.87-11.43-88.36-3.51-44.17-2.73-88.56c.11-5.71,0-11.5.52-17.2A56.71,56.71,0,0,1,694,758.79a65,65,0,0,1,6.55-11.23c.94-1.29,1.91-2.54,2.72-3.92,5-8.5,6.87-18.9,8.36-28.5,3.21-20.58,3.92-41.56,4.17-62.36q.06-5.5.06-11c0-2.63-4.08-2.63-4.09,0,0,22.56-.44,45.31-3.42,67.7a152.7,152.7,0,0,1-3.61,19.1,55.81,55.81,0,0,1-4.23,11.61c-2.17,4.16-5.34,7.69-7.64,11.8a64.62,64.62,0,0,0-6.56,16.79A79.4,79.4,0,0,0,684.66,785c-.66,29.55-.24,59.05,1.79,88.54s5.49,58.93,10.37,88.11q.91,5.52,1.91,11l.94-2.31a88.11,88.11,0,0,1-20.3,8.52,225.83,225.83,0,0,1-26.22,6c-18.46,3.25-37.17,5-55.86,6.45-8.59.65-17.18,1.18-25.77,1.75l2,2c-1.2-27.21-1.24-54.48-1.08-81.72.17-29.26.71-58.51,1.34-87.76.47-21.88,1.08-43.75,1.34-65.62.06-5.23.15-10.46-.08-15.69,0-.23,0-1.21-.06-.59a9.89,9.89,0,0,1,.49-1.85,52.37,52.37,0,0,1,2.41-5.74c2.91-6.23,6.15-12.31,9.37-18.39,17.23-32.46,35-64.59,54.92-95.47q2.65-4.11,5.35-8.2l-2.79.73a331.07,331.07,0,0,0,68.48,28.82C715.78,644.49,716.86,640.54,714.34,639.8Z"/><path d="M691.9,912.44C654.58,917.36,607.5,925,570.54,923c-.43-8.79-.29-17.88-.38-26.81a2,2,0,0,1,2.21-2.34c24.21-1.51,39.48-1.53,63.69-3,7.54-.47,21.72-1.59,29.2-2.68,4.28-.63,15.56-2.29,22.65-3.28,2.28-.32,2.45,10.33,2.7,12.79C691,902,691.64,908.08,691.9,912.44Z" fill="#6b6b69"/><path d="M643.63,812.2c13.46.23,28.66.13,42.26-1.94.53,7.81,1.47,18.16.71,26-37,5.2-76.39,5.33-114.07,4.08l-.91-29.17c15.69,1.93,27.26,1.69,44.48,1,.7,0,5.14.16,5.71-.28s2.8-7.55,3.11-8.41c4.63-13,4.66-21.25,9.29-34.25,8.55-24,11.22-42.66,18.4-67.17,6.7-22.85,13.7-51.79,17.95-75.28-.26,1.48,19,5.44,20.69,5.89,1,.27.69.66-.45,5.41-3.26,13.51-6,27.52-10.2,40.75-8.46,26.81-15.65,61.12-24.34,87.85C651.39,781.67,647.42,796.86,643.63,812.2Z" fill="#6b6b69"/><path d="M668.34,868.81c-.52,37.67,4.33,75.16,9.16,112.49,5.8-2.19,22.72-7.1,22.78-8.6.37-9.72-4.92-34.93-6.4-46.77-3.42-27.24-5.46-52-6.9-79.41-1.35-25.78-2-59.47,2.08-83.09C674.67,796.55,668.84,832.6,668.34,868.81Z" fill="#020200" opacity="0.25"/><path d="M714.76,641.11a335.1,335.1,0,0,1-68.44-28.83,1,1,0,0,0-1.4.36l-26.44,47.54q-10.86,19.5-21.7,39L577.06,734.6l-2.91,5.22c-.87,1.57-2.14,3.1-2.17,4.92-.07,4.07-.05,8.15-.07,12.22l-.15,25.2-.6,100.42q-.28,50.22-.59,100.43l-.07,12.21a1,1,0,0,0,1,1c16.82-1.12,33.65-2.17,50.43-3.94,18.64-2,37.44-4.5,55.52-9.62,8.2-2.32,16.42-5.2,23.75-9.62a1.06,1.06,0,0,0,.47-1.16q-7.86-43.81-11.43-88.26-3.53-44.17-2.77-88.55c.1-5.75,0-11.56.5-17.29a58.42,58.42,0,0,1,5-19.28,64.54,64.54,0,0,1,6.59-11.38c.95-1.31,1.94-2.57,2.77-4,5-8.41,6.88-18.74,8.43-28.24,3.32-20.4,4.17-41.21,4.58-61.84.08-3.67.13-7.33.16-11a1,1,0,0,0-2,0c-.2,22.58-.8,45.36-4,67.75-1.47,10.37-3.2,21.6-8.18,31-2.21,4.18-5.4,7.73-7.7,11.88a62.88,62.88,0,0,0-6.41,16.69,79.85,79.85,0,0,0-1.52,15.81c-.7,29.61-.23,59.19,1.81,88.75q3,43.93,10.31,87.46.93,5.52,1.92,11l.47-1.16a89.23,89.23,0,0,1-20.55,8.63,225.62,225.62,0,0,1-26.21,6c-18.56,3.27-37.36,5.08-56.14,6.49-8.59.65-17.18,1.18-25.77,1.75l1,1q.3-50,.59-100,.3-49.83.59-99.65l.15-24.82.08-12.6c0-4.17-.22-8.44.07-12.6.15-2.1,1.43-3.82,2.45-5.64s1.93-3.47,2.9-5.21q2.86-5.17,5.75-10.33l10-17.92Q605.91,687,616.7,667.59l28-50.33c.66-1.2,1.33-2.39,2-3.58l-1.4.36a337.43,337.43,0,0,0,68.93,29A1,1,0,0,0,714.76,641.11Z"/><path d="M689.88,634.48c-.91,8.09-3.1,16.42-5.06,24.43-3.08,12.56-6.46,25-9.89,37.5q-5.89,21.42-12,42.76c-3.84,13.47-7.71,26.93-11.52,40.41-2.82,10-5.65,19.94-8.23,30-.23.89-.45,1.78-.68,2.67a1,1,0,0,0,1,1.29c12-.34,24.09-.69,36.1-1.6,2.2-.16,4.42-.33,6.6-.68,1.3-.2.75-2.17-.54-2A135.85,135.85,0,0,1,672,810.36c-6.33.34-12.66.6-19,.82-3.16.11-6.33.21-9.49.3l1,1.29c2.36-9.52,5-19,7.7-28.4q5.6-19.82,11.28-39.61c4.09-14.32,8.17-28.65,12.14-43,3.56-12.84,7.07-25.69,10.31-38.62,2.18-8.72,4.46-17.52,5.75-26.43.11-.74.21-1.48.29-2.22.15-1.3-1.9-1.29-2,0Z"/><path d="M669.49,627.28c-3.47,17.64-7.71,35.14-12.09,52.58Q650,709.26,642,738.47q-6.71,24.49-13.74,48.92c-2.27,7.86-4.51,15.74-7,23.54-.27.87.16-.67.69-.34-.21-.13-.86,0-1.1,0h-1.75c-3.65,0-7.29.06-10.93.11-9.78.14-19.55.33-29.32.62-1.94.05-3.88.12-5.82.19-1.31,0-1.32,2.09,0,2,9.45-.35,18.9-.53,28.36-.69q6.71-.12,13.43-.19c1.56,0,3.13,0,4.69,0a11.32,11.32,0,0,0,2.85,0c.74-.23.89-1.19,1.1-1.83.38-1.21.75-2.43,1.11-3.64,1.37-4.54,2.7-9.09,4-13.64q6.78-23.29,13.22-46.7,8.07-29.26,15.63-58.67c4.63-18.14,9.1-36.32,12.9-54.65q.58-2.82,1.14-5.65c.26-1.28-1.71-1.83-2-.54Z"/><path d="M685.86,834.87a438.08,438.08,0,0,1-43.71,3.67c-15.68.68-31.38.9-47.07.76-7.62-.07-15.25-.22-22.87-.5-1.31,0-1.31,2,0,2,14.42.53,28.85.64,43.27.47,15.83-.2,31.67-.74,47.46-2,7.84-.6,15.67-1.38,23.46-2.5,1.3-.19.75-2.16-.54-2Z"/><path d="M688.34,883.67c-14.1,2.88-28.59,4-42.91,5.21-17,1.38-34.07,2.36-51.12,3.2q-11.67.55-23.35,1c-1.31,0-1.32,2.1,0,2,15.16-.61,30.33-1.32,45.48-2.22,16.88-1,33.78-2.17,50.59-4.07,7.31-.82,14.64-1.75,21.85-3.22,1.29-.26.74-2.23-.54-2Z"/><path d="M691.31,911.18c-15.1,2.35-30.3,4.16-45.5,5.78-17.08,1.82-34.21,3.36-51.36,4.33-8,.45-16,.78-23.92.76a1,1,0,0,0,0,2c15.44,0,30.89-1.06,46.27-2.33q25.66-2.12,51.23-5.32c8-1,15.9-2.05,23.83-3.29,1.29-.2.74-2.17-.55-2Z"/></g></g></g></svg>