<svg xmlns="http://www.w3.org/2000/svg" xmlns:xlink="http://www.w3.org/1999/xlink" viewBox="0 0 1080 1920"><defs><clipPath id="clip-path"><path d="M609.41,953.84c-3.29.14-10.82,1-14.1,1.06-17.5.23-5.12,3.74-20.5,2.3-.53,3.37,7.16,6,6.52,10.13,2.31,0-10,5.54-.13,6.07,2.9.15,18.06,1.47,20,1.55,13.63-.11,23.53.24,37.16,0,11.95-.17-93.27,17.81-81.38,14.27-.49-3.84,6.19-46.53,5.86-49.91C540.45,936.37,631.92,955.52,609.41,953.84Z" fill="none"/></clipPath></defs><g style="isolation:isolate"><g id="costumes"><g id="_16" data-name="16"><path d="M454.86,984c.77,49.09,3.86,102.45,10.46,159.34,4.37,37.7,9.87,73.42,16.09,107A1055,1055,0,0,0,490.76,1468a89.42,89.42,0,0,1,21.6,1.44c5.66,1.1,9.33,2.42,18.72,4.32,5.21,1.06,9.49,1.75,12.24,2.16a1241.23,1241.23,0,0,0,14-132c1.72-33,2-64.28,1.34-93.62q7.14-54.33,13.69-108.72,10.32-85.59,19.2-171.36c-23.72-35-58.42-53.21-86.81-45.84C473.55,932.55,454.6,967.87,454.86,984Z" fill="#534741"/><path d="M540.87,1099.16c-1.22-.06-4.71,39-5.72,79.76-.79,32.07,0,65.07,1.08,65.09,1.39,0,3.29-51.49,3.93-71.53C540.36,1166.17,542.47,1099.23,540.87,1099.16Z" fill="#fff" opacity="0.35" style="mix-blend-mode:overlay"/><path d="M535.87,1296c-1.39,0-3.42,37.54-2.15,77.26.88,27.51,3.36,56.37,4.56,56.33,1.76-.07.63-62,.54-66.8C538.61,1351.68,537.56,1296,535.87,1296Z" fill="#fff" opacity="0.35" style="mix-blend-mode:overlay"/><path d="M396.73,1560.91c19.64,8.24,35.17,10.38,44.21,11a71,71,0,0,0,17.9-.71c4.19-.75,10.88-2.37,22.7-8.4,11.07-5.66,11.31-7.36,23.87-14.77,10.65-6.28,19.4-10.32,31.73-16,8.05-3.72,15-6.66,20.1-8.79l1.26,15.7-27,14.14c-.73-1-6.72-8.93-9.5-7.66-1.19.55-1.51,2.67-2,5.89a30.49,30.49,0,0,0-.24,7.07c-13.11,7.57-24.35,13.6-33,18.1-7.64,4-12.39,6.28-19.16,7.93-7.42,1.81-14.32,2.11-23.4,1.49a195.83,195.83,0,0,1-48.22-9.85,10.75,10.75,0,0,1,.79-15.12Z" fill="#59433f" stroke="#000" stroke-miterlimit="10" stroke-width="1.31"/><path d="M396.88,1561.38a31,31,0,0,1,4.56-7.85c4.07-5.08,8.69-7.42,12.56-9.42,15.46-8,23.19-12,27.65-15.87,4.05-3.53,1.83-2.63,11.3-12.56,8.82-9.25,13.22-13.87,16.81-16.81,5.32-4.36,8.57-6.16,10.05-10.52a14.24,14.24,0,0,1,3-5.81,12.23,12.23,0,0,1,5-3.3c3.43-1.13,5.16.28,13.67,2.36,6.71,1.63,8.16,1.37,9.26,3,2.34,3.42-1,9.34-1.88,10.84a20.76,20.76,0,0,0,10.83,0c3.94-1.12,6.5-3.26,11.16-7.23a79.73,79.73,0,0,0,7.85-7.69,73.93,73.93,0,0,1,17.37,43.4,236.06,236.06,0,0,0-38.81,20.44c-15.88,10.39-20.12,15.9-34.4,22.38-5.74,2.61-18.22,8.14-34.39,9C424.64,1576.87,406,1567.14,396.88,1561.38Z" fill="#ece5dc" stroke="#000" stroke-miterlimit="10" stroke-width="1.31"/><path d="M437.56,1531.23c5.14,9.25,16,14.93,26.38,13.1,5.94-1.21,11.71-5.17,17.16-7.79,5.73-2.8,11.29-6,17.43-8,10.56-2.85,21.53,1.36,30.44,6.9-9.1-4.89-19.83-8.75-30.14-5.81-7.83,2.67-15.32,7.33-22.8,10.94-3.81,1.91-7.6,4.1-11.89,4.84-10.71,1.77-22-4.5-26.58-14.21Z"/><path d="M486.41,1534.68c-3.47-11-.15-24.42,9.07-31.69-7.74,8.55-10.62,20.35-9.07,31.69Z"/><path d="M477.81,1506.76c1.2.85,2.48-.37,8.83-2.94,3.76-1.52,10.34-3.94,15.91-5.77,3.1-1,4.48-1.4,6-2.83,2.28-2.14,4.32-6.11,2.95-9-.84-1.74-3-2.45-7.19-3.89a66.11,66.11,0,0,0-7.77-1.88c-7.22-1.52-7.94-1.46-8.72-1.26-4.08,1-6.31,4.87-6.95,6-1,1.72-1.36,3.17-2,6.71C477.2,1501.14,476.4,1505.77,477.81,1506.76Z" fill="none" stroke="#000" stroke-miterlimit="10" stroke-width="1.31"/><path d="M445.65,1539.87a398.83,398.83,0,0,1,32.16-33.11,400.44,400.44,0,0,1-32.16,33.11Z"/><path d="M442.71,1529a19,19,0,0,1,8.18.59,19.63,19.63,0,0,1,9.84,6.83,2.74,2.74,0,0,0,4.83-2.59,24.87,24.87,0,0,0-22.85-10.37,3.09,3.09,0,0,0-3.13,3.36A3,3,0,0,0,442.71,1529Z" fill="none" stroke="#000" stroke-miterlimit="10" stroke-width="1.31"/><path d="M448.48,1522.9a19.27,19.27,0,0,1,8.18.59,19.69,19.69,0,0,1,9.84,6.83,2.74,2.74,0,0,0,4.83-2.59,24.87,24.87,0,0,0-22.85-10.36,3.07,3.07,0,0,0-3.12,3.35A3,3,0,0,0,448.48,1522.9Z" fill="none" stroke="#000" stroke-miterlimit="10" stroke-width="1.31"/><path d="M454,1517.25a19,19,0,0,1,8.19.59,19.63,19.63,0,0,1,9.84,6.83,2.74,2.74,0,0,0,4.83-2.59A24.87,24.87,0,0,0,454,1511.71a3.09,3.09,0,0,0-3.12,3.36A3,3,0,0,0,454,1517.25Z" fill="none" stroke="#000" stroke-miterlimit="10" stroke-width="1.31"/><path d="M460.26,1511.24a19.27,19.27,0,0,1,8.18.59,19.63,19.63,0,0,1,9.84,6.83,2.74,2.74,0,0,0,4.83-2.59,24.84,24.84,0,0,0-22.85-10.37,3.08,3.08,0,0,0-3.12,3.36A3,3,0,0,0,460.26,1511.24Z" fill="none" stroke="#000" stroke-miterlimit="10" stroke-width="1.31"/><path d="M698.43,984c-.77,49.09-3.87,102.45-10.46,159.34-4.37,37.7-9.87,73.42-16.1,107a1053.94,1053.94,0,0,1,.81,112.66c-1.77,38.08-5.46,73.23-10.15,105a89.42,89.42,0,0,0-21.6,1.44c-5.67,1.1-9.34,2.42-18.72,4.32-5.21,1.06-9.49,1.75-12.24,2.16a1238.63,1238.63,0,0,1-14-132c-1.72-33-2-64.28-1.34-93.62-4.94-34.83-9.08-71.63-12.07-110.25-4.79-61.78-6-119.69-4.83-173,9.9-30.34,40.77-48.47,70.82-42.65C676.35,929.83,697.41,954.58,698.43,984Z" fill="#534741"/><path d="M612.41,1099.16c1.22-.06,4.72,39,5.72,79.76.8,32.07,0,65.07-1.07,65.09-1.39,0-3.29-51.49-3.93-71.53C612.93,1166.17,610.82,1099.23,612.41,1099.16Z" fill="#fff" opacity="0.35" style="mix-blend-mode:overlay"/><path d="M617.42,1296c1.39,0,3.42,37.54,2.15,77.26-.89,27.51-3.36,56.37-4.56,56.33-1.77-.07-.63-62-.54-66.8C614.68,1351.68,615.73,1296,617.42,1296Z" fill="#fff" opacity="0.35" style="mix-blend-mode:overlay"/><path d="M758.74,1562.35c-19.65,8.24-35.18,10.38-44.21,11a71.16,71.16,0,0,1-17.91-.71c-4.18-.75-10.88-2.37-22.69-8.4-11.08-5.66-11.32-7.36-23.88-14.77-10.64-6.28-19.39-10.32-31.72-16-8.05-3.72-15-6.66-20.11-8.79q-.63,7.85-1.25,15.7l27,14.14c.73-1,6.72-8.93,9.5-7.66,1.2.55,1.52,2.67,2,5.89a31,31,0,0,1,.23,7.07c13.12,7.57,24.35,13.6,33,18.1,7.64,4,12.39,6.28,19.17,7.93,7.42,1.81,14.31,2.11,23.4,1.49a195.92,195.92,0,0,0,48.22-9.85,10.77,10.77,0,0,0-.79-15.12Z" fill="#59433f" stroke="#000" stroke-miterlimit="10" stroke-width="1.31"/><path d="M758.58,1562.82A30.63,30.63,0,0,0,754,1555c-4.07-5.08-8.69-7.42-12.57-9.42-15.45-8-23.18-12-27.64-15.87-4.05-3.53-1.83-2.63-11.31-12.56-8.81-9.25-13.22-13.87-16.8-16.81-5.33-4.36-8.57-6.16-10.06-10.52a14.19,14.19,0,0,0-3-5.81,12.21,12.21,0,0,0-5-3.3c-3.43-1.13-5.16.28-13.66,2.36-6.71,1.63-8.17,1.37-9.27,3-2.34,3.42,1,9.34,1.89,10.84a20.81,20.81,0,0,1-10.84,0c-3.94-1.12-6.49-3.26-11.15-7.23a79.73,79.73,0,0,1-7.85-7.69,73.85,73.85,0,0,0-17.38,43.4,236.24,236.24,0,0,1,38.82,20.44c15.87,10.39,20.11,15.9,34.39,22.38,5.74,2.61,18.23,8.14,34.4,9C730.82,1578.31,749.45,1568.58,758.58,1562.82Z" fill="#ece5dc" stroke="#000" stroke-miterlimit="10" stroke-width="1.31"/><path d="M717.9,1532.67c-4.59,9.71-15.86,16-26.58,14.21-4.28-.74-8.07-2.93-11.89-4.84-7.47-3.62-15-8.27-22.8-10.94-10.3-2.94-21,.92-30.14,5.81,8.92-5.54,19.89-9.75,30.45-6.9,6.14,1.94,11.7,5.17,17.43,8,5.45,2.63,11.2,6.58,17.15,7.79,10.4,1.83,21.24-3.85,26.38-13.1Z"/><path d="M669.06,1536.12c1.55-11.34-1.34-23.14-9.07-31.69,9.21,7.27,12.53,20.67,9.07,31.69Z"/><path d="M677.66,1508.2c-1.2.85-2.48-.37-8.84-2.94-3.75-1.52-10.33-3.94-15.9-5.77-3.1-1-4.48-1.4-6-2.83-2.28-2.14-4.31-6.11-2.94-9,.84-1.74,2.95-2.45,7.18-3.89a66.68,66.68,0,0,1,7.78-1.88c7.21-1.52,7.94-1.46,8.71-1.26,4.09,1,6.32,4.87,7,6,1,1.72,1.37,3.17,2,6.71C678.27,1502.58,679.07,1507.21,677.66,1508.2Z" fill="none" stroke="#000" stroke-miterlimit="10" stroke-width="1.31"/><path d="M709.82,1541.31a397.24,397.24,0,0,1-32.16-33.11,398.83,398.83,0,0,1,32.16,33.11Z"/><path d="M712.76,1530.47a19,19,0,0,0-8.19.59,19.64,19.64,0,0,0-9.83,6.83,2.86,2.86,0,0,1-4,.88,2.83,2.83,0,0,1-.88-3.47,24.84,24.84,0,0,1,22.85-10.37,3.09,3.09,0,0,1,3.12,3.36A3,3,0,0,1,712.76,1530.47Z" fill="none" stroke="#000" stroke-miterlimit="10" stroke-width="1.31"/><path d="M707,1524.34a19.31,19.31,0,0,0-8.19.59,19.65,19.65,0,0,0-9.83,6.83,2.86,2.86,0,0,1-4,.89,2.83,2.83,0,0,1-.88-3.48A24.87,24.87,0,0,1,707,1518.81a3.08,3.08,0,0,1,3.12,3.35A3,3,0,0,1,707,1524.34Z" fill="none" stroke="#000" stroke-miterlimit="10" stroke-width="1.31"/><path d="M701.45,1518.69a19,19,0,0,0-8.18.59,19.63,19.63,0,0,0-9.84,6.83,2.74,2.74,0,0,1-4.83-2.59,24.84,24.84,0,0,1,22.85-10.37,3.09,3.09,0,0,1,3.12,3.36A3,3,0,0,1,701.45,1518.69Z" fill="none" stroke="#000" stroke-miterlimit="10" stroke-width="1.31"/><path d="M695.21,1512.68a19.31,19.31,0,0,0-8.19.59,19.64,19.64,0,0,0-9.83,6.83,2.87,2.87,0,0,1-4,.89,2.84,2.84,0,0,1-.88-3.48,24.84,24.84,0,0,1,22.85-10.37,3.09,3.09,0,0,1,3.12,3.36A3,3,0,0,1,695.21,1512.68Z" fill="none" stroke="#000" stroke-miterlimit="10" stroke-width="1.31"/><g opacity="0.54"><path d="M586.1,976.25q-.15,83.05-.32,83.06s-.09-3.9-.13-11.7A14.81,14.81,0,0,1,571,1034.16q-.31-33.68-.64-67.35l15.82-.66Z"/></g><path id="belt_color" data-name="belt color" d="M526.63,972.47c21.69.94,43.4,1.24,65.09,2.25l5.73.25c15.59.64,28.37.34,40.88,0,17.09-.44,32.57-1,46.35-1.46a27.83,27.83,0,0,0-3.24-22.68,582.38,582.38,0,0,1-67.2,3.66c-18.1-.06-30.9-.93-46.89-1.89-22.56-1.35-54.78-3.05-95-4.41a19.74,19.74,0,0,0-3.6,21.6,233.78,233.78,0,0,1,31.35.84c.76.08,1.62.23,3.17.33C511.09,971.5,518.85,972.13,526.63,972.47Z"/><g id="effects"><path id="belt_effect" data-name="belt effect" d="M638.56,963.28c5.86-.2,11.71-.81,17.57-.88,6.13-.07,13.13,0,19.24,2.12q-.69-6.63-1.37-13.26a349.27,349.27,0,0,1-41.58,3.42c-9.3.2-17,0-22.86-.18-16-.45-27.89-1.43-32.58-1.8-14.66-1.17-37.68-2.76-76.73-5q-1,6.45-2,12.91c12.87,3.42,24.86,1.58,38-.4,10.19-1.53,20.47-2.06,29.12,4.79a43.54,43.54,0,0,0,6.41-2.68A37.49,37.49,0,0,1,582.92,959a73.92,73.92,0,0,1,31.37,2.21C622.39,961.85,630.4,963.56,638.56,963.28Z" fill="#989898" opacity="0.14"/><path d="M539.2,951.55c-1.57-3.24-5.37-3.95-8.26-2.83a6,6,0,0,0-1,2.69c-1.14,6.75-1.32,25.13,0,25.71,0,0,7.13,1.55,8.49.19,2-2,2.72-17.5,1.9-24.67A2.08,2.08,0,0,1,539.2,951.55Z" fill="#989898" opacity="0.2"/><path d="M638.59,978.84c1.3-3.56.1-22.66-.37-23.6s-9.18-1.61-10,.25-.51,21.44,1.18,24.77C629.75,980.92,637.86,980.84,638.59,978.84Z" fill="#989898" opacity="0.2"/></g><g id="clasp"><g clip-path="url(#clip-path)"><g id="clasp-2" data-name="clasp"><path id="color" d="M607.62,959.56s.44-3.37-1-5.6c-1.57-2.43-35.84-5-39-2.26-4.66,4.13-1.75,22.55-.92,24.1,1.37,2.57,27.1.77,32.08,0,4.79-.74,6.82-.5,8.23-2.6S607.64,960.21,607.62,959.56Zm-3.6,11.5c-1.12,1.52-2.32,1.28-6.35,1.7s-25.41,1-26.58-.83c-.71-1.14-2.81-14,.82-16.8,2.43-1.9,30.29-.21,31.7,1.58,1.3,1.64,1.17,4.62,1.17,4.62C604.82,961.8,605.13,969.54,604,971.06Z" fill="#8d9197"/><g id="effects-2" data-name="effects"><path d="M603.61,956.71c1.3,1.64,1.17,4.62,1.17,4.62,0,.41.27,6.3-.39,8.82,2.31-3.47,2.3-10.4,0-13.86-5.13-2.66-10.72-2-17.14-2.4-3.8-.25-8.77-.75-12.25.6C583.21,953.81,602.42,955.21,603.61,956.71Zm.7,17.94c-3.79,1.25-8.58.89-12.68,1-4.7.15-9.65.58-14.71.46-7.73-.18-10.41-2.43-10.44-9,0-4.74-1.12-10.85,1.32-15.56,0,0-.11.06-.14.09-4.66,4.13-1.75,22.55-.92,24.1,1.37,2.57,27.1.77,32.08,0,4.77-.74,6.8-.5,8.21-2.58A8.59,8.59,0,0,1,604.31,974.65Z" opacity="0.2"/><path d="M607.62,959.56s.44-3.37-1-5.6-26.17-4.25-35.84-3.1l-.39.34a3.48,3.48,0,0,0-1.14,1.83,50.66,50.66,0,0,0-.44,19.63,6.13,6.13,0,0,0,1.41,1.51,5.57,5.57,0,0,0,1.5.76c7.19.67,14.09.22,20.78-.14,5-.26,11.48.55,15-3.21C608.21,967.89,607.64,960.1,607.62,959.56Zm-2,10.57a3.92,3.92,0,0,1-2.36,1.63c-1,.73-2.41.66-5.64,1-4.18.43-25.41,1-26.58-.83-.58-.92-2.05-9.42-.67-14.23-1.38-6.82,9.94-5.46,14.78-5.08,3.59.28,7.54.19,11.11.67a2.22,2.22,0,0,1,.64,0c2.57.2,5.38.4,7.16,2.17s1.91,4.55,2.2,6.89S607.19,967.88,605.67,970.13Z" fill="#fff" opacity="0.3"/><path d="M607.14,966.74c.11-1.25.23-2.52.3-3.78.2-3.15.64-8.36-2.93-10-5.28-1.43-19.75-2.64-29.21-2.41a16.39,16.39,0,0,0-2,.28A5.9,5.9,0,0,0,569,954.6a50.7,50.7,0,0,0-.54,15.06,11.3,11.3,0,0,0,1.76,3.26,14.37,14.37,0,0,0,5,1.76c4.23.52,8.85,0,12.9-.32,2-.14,4.12-.48,6.15-.69-4,.13-8.25.33-12.57.25a34.1,34.1,0,0,1-8.29-.85,4.29,4.29,0,0,1-3.3-1.77c-1.37-2.14-1.15-5.42-1.05-7.83.1-2.16-.06-5.35,1-7.78h0c1.59-7.71,20.31-4.09,25.25-3.58,3.75.39,7.71.79,9.79,3.75a10.87,10.87,0,0,1,1.54,6.95,13.56,13.56,0,0,1,.11,2.63.53.53,0,0,1-.05.18,11.13,11.13,0,0,1-1.06,5.67,3.71,3.71,0,0,0,.54-.44,6.45,6.45,0,0,0,.8-1.44C607.08,968.51,607.07,967.55,607.14,966.74Z" fill="#fff" opacity="0.5"/><path d="M568,963.05a1.84,1.84,0,0,0-1.73.91,1.51,1.51,0,0,0,.34,1.78,4.22,4.22,0,0,0,2.64.82l6.58.51a5.89,5.89,0,0,0,1.11,0,2.26,2.26,0,0,0,2-2.53,1.69,1.69,0,0,0-1.23-1.33,2.72,2.72,0,0,0-.9,0c-3,.24-5.58-.4-8.78-.15" opacity="0.15"/></g><path id="color-2" data-name="color" d="M577.89,963.44a2.06,2.06,0,0,1,.53,1.27A1.43,1.43,0,0,1,578,966a2.31,2.31,0,0,1-1.63.32l-7.94-.36a2.86,2.86,0,0,1-1.86-.53,1.35,1.35,0,0,1,.24-2,4.63,4.63,0,0,1,2.32-.75,27,27,0,0,1,8.09.23" fill="#8d9197"/><g id="effects-3" data-name="effects"><path d="M570.63,964.62a27.76,27.76,0,0,0,3.76,0c.49,0,1.93-.16,2.25-.61s0-.87-.26-1.27a27.37,27.37,0,0,0-7.24-.11,4.63,4.63,0,0,0-2.32.75,1.62,1.62,0,0,0-.56,1C567.72,964.37,569.24,964.55,570.63,964.62Z" fill="#fff" opacity="0.3"/><path d="M576.61,963.14a1.9,1.9,0,0,0-.23-.39,27.37,27.37,0,0,0-7.24-.11,4.63,4.63,0,0,0-2.32.75,1.75,1.75,0,0,0-.33.39A30.39,30.39,0,0,1,576.61,963.14Z" fill="#fff" opacity="0.5"/><path d="M577,964.73c-1.32.82-3.09.74-4.69.65a57.26,57.26,0,0,1-5.94-.38,1.11,1.11,0,0,0,.26.39,2.86,2.86,0,0,0,1.86.53l7.94.36A2.31,2.31,0,0,0,578,966a1.43,1.43,0,0,0,.41-1.25,2.06,2.06,0,0,0-.53-1.27l-.5-.43A1.23,1.23,0,0,1,577,964.73Z" opacity="0.2"/></g></g></g></g><g id="belt_loops" data-name="belt loops"><path id="belt_loop_color" data-name="belt loop color" d="M538.4,948c-2.27-.66-8.11-4.37-9.24,2.38s-1.33,25.13,0,25.71c0,0,7.12,1.56,8.48.19C540.11,973.79,540.67,948.69,538.4,948Zm98.79,5.48c-.46-.93-9.2-1.63-10,.25s-.71,21.66,1,25c.33.66,8.48.59,9.23-1.43C638.69,973.76,637.66,954.46,637.19,953.51Z" fill="#141414"/><path id="belt_loops_effect" data-name="belt loops effect" d="M538.4,948c-2.25-.65-8-4.27-9.2,2.17a1.67,1.67,0,0,1,2.14.5c5,6.46,4.68,17.84,2.26,26.1,1.71.15,3.4.11,4-.49C540.11,973.79,540.67,948.69,538.4,948Zm98.79,5.48c-.46-.93-9.2-1.63-10,.25a11.26,11.26,0,0,0-.37,2.71,2.86,2.86,0,0,1,.81-.73,2,2,0,0,1,1.84-.18,1.28,1.28,0,0,1,1.37.31c2.56,3,3.07,8,2.64,13.59,0,3.15-.15,6.44-.19,9.54,1.94-.24,3.75-.75,4.09-1.65C638.69,973.76,637.66,954.46,637.19,953.51Z" opacity="0.1"/></g><path d="M503,622,534.68,612l40,22.44,14.88.24q3.36-2.83,7.08-5.64a170.46,170.46,0,0,1,31.92-19q19.1,8.26,40.08,16.32,20.74,7.92,40.32,14.4c14.73,13.78,19.64,26.48,21.6,34.56,8.5,35-20.47,56.53-37.44,121.68-4.4,16.87-5.94,28.82-8.64,49.68a564.62,564.62,0,0,0-2.88,118.08q-28.21-2.91-56.44-5.89-29.29-3.09-58.58-6.26l-95.22,10C475.71,901.47,468,854,459.8,821.48c-20-80-60.12-139.89-36-166.32,8.43-9.23,26.45-16.31,41.76-22.32A210,210,0,0,1,503,622Z" fill="#534741"/><path d="M574,664.76c-1.21,22.57-4.7,87.67-5.9,110.24-.16,2.92-2,37-3.94,74q-1,24.13-2,48.28l18.24,33.8,17.7-37q-5-115.2-9.92-230.42A7.39,7.39,0,0,0,574,664.76Z" fill="#7e132b"/><path d="M560,636.59a79.8,79.8,0,0,1,42.11-.27l-2.68,4a45.54,45.54,0,0,1-22.53,4.56,45,45,0,0,1-16.63-4.3Z" fill="#601327"/><path d="M561.91,639c5.67-.74,11.86-1.32,18.51-1.6,6.31-.27,12.24-.24,17.7,0a47.15,47.15,0,0,1-5.63,19.85,46.27,46.27,0,0,1-4.29,6.43L574,664.76A32.9,32.9,0,0,1,561.91,639Z" fill="#7d0b22"/><path d="M571.43,641.69c0-1,7.68-1.54,15.89-2.08,4.55-.3,6-.26,7,.8,2.4,2.61-.38,8.83-1.75,11.87-2.13,4.77-5.1,8.41-5.49,8.18s.92-2.32,2.28-6.9c1.14-3.88,1.7-5.84,1-7-1-1.66-3.12-1.53-9.12-2.49C576,643.2,571.44,642.47,571.43,641.69Z" fill="#541224"/><path d="M564,649.9c-.47.26,1.21,4.77,4.35,8.65a11.32,11.32,0,0,0,3.69,3.28c3.08,1.54,6.77,1.12,6.91.4s-3.11-1.07-7-3.68C566.33,654.74,564.46,649.62,564,649.9Z" fill="#bb153d"/><g id="collar"><path id="color-3" data-name="color" d="M514.76,629.63l0,.08c5.1,7.61,8.94,15.54,13.1,23.4,3.27,6.17,6.53,12.34,9.27,18.61a170,170,0,0,1,9.23-18.79c4.74-8.17,9.75-17.91,17.93-24.93.07-.12.14-.24.22-.35L536,604.13A329.51,329.51,0,0,0,514.76,629.63Zm127.06.81c-6.09-9.2-11.6-18.59-16.75-28.08L593.89,629l.06.09c.49.46,1,.93,1.43,1.4,3.43,2.92,5.62,6.79,7.89,10.16a105.34,105.34,0,0,1,7.92,13.83,89.45,89.45,0,0,1,5.55,15.18l.42.67c11-16.25,24.8-39.51,24.8-39.51Z" fill="#534741"/><g id="effects-4" data-name="effects"><path d="M640.68,630.38c-6-9.07-10.95-16.89-16-26.25-3,3.63-5.54,5.75-8.85,9.2,4.14,4.27,7.29,11.39,8.19,14,4.36,12.8.08,25.19-9.26,35.86.75,2.13,1.45,4.26,2,6.42.14.22,23.94-39.25,23.94-39.25Z" opacity="0.1"/><path d="M527.49,621.05a47.19,47.19,0,0,1,9.14-15.14,3.22,3.22,0,0,1-.46-.34c-7.38,8.07-13.76,15.34-20.13,23.82,0,0,7.86,13.84,12,21.69,3.28,6.18,6.59,13.19,9.33,19.46.29-.7,1.07-1.77,1.38-2.47a195.17,195.17,0,0,1-11.71-26.63C524.55,634.27,525.14,627.6,527.49,621.05Z" opacity="0.1"/></g><path d="M536,604.13l28.6,23.52,6,6.46-1.68,0-4.88-3S544.67,658,537.18,671.72c0,0,10.45-29.07,22.07-43.29Z" fill="#534741"/><path d="M625.07,602.36l-31,25.29-3.9,6.33h1.42l3-2.83S606,641.75,617.16,670.3c0,0-6.12-27.65-17.74-41.87Z" fill="#534741"/></g><g id="collar-2" data-name="collar" opacity="0.5" style="mix-blend-mode:overlay"><path id="color-4" data-name="color" d="M514.76,629.63l0,.08c5.1,7.61,8.94,15.54,13.1,23.4,3.27,6.17,6.53,12.34,9.27,18.61a170,170,0,0,1,9.23-18.79c4.74-8.17,9.75-17.91,17.93-24.93.07-.12.14-.24.22-.35L536,604.13A329.51,329.51,0,0,0,514.76,629.63Zm127.06.81c-6.09-9.2-11.6-18.59-16.75-28.08L593.89,629l.06.09c.49.46,1,.93,1.43,1.4,3.43,2.92,5.62,6.79,7.89,10.16a105.34,105.34,0,0,1,7.92,13.83,89.45,89.45,0,0,1,5.55,15.18l.42.67c11-16.25,24.8-39.51,24.8-39.51Z" fill="#fff"/><g id="effects-5" data-name="effects"><path d="M640.68,630.38c-6-9.07-10.95-16.89-16-26.25-3,3.63-5.54,5.75-8.85,9.2,4.14,4.27,7.29,11.39,8.19,14,4.36,12.8.08,25.19-9.26,35.86.75,2.13,1.45,4.26,2,6.42.14.22,23.94-39.25,23.94-39.25Z" fill="#fff" opacity="0.1"/><path d="M527.49,621.05a47.19,47.19,0,0,1,9.14-15.14,3.22,3.22,0,0,1-.46-.34c-7.38,8.07-13.76,15.34-20.13,23.82,0,0,7.86,13.84,12,21.69,3.28,6.18,6.59,13.19,9.33,19.46.29-.7,1.07-1.77,1.38-2.47a195.17,195.17,0,0,1-11.71-26.63C524.55,634.27,525.14,627.6,527.49,621.05Z" fill="#fff" opacity="0.1"/></g><path d="M536,604.13l28.6,23.52,6,6.46-1.68,0-4.88-3S544.67,658,537.18,671.72c0,0,10.45-29.07,22.07-43.29Z" fill="#fff"/><path d="M625.07,602.36l-31,25.29-3.9,6.33h1.42l3-2.83S606,641.75,617.16,670.3c0,0-6.12-27.65-17.74-41.87Z" fill="#fff"/></g><path d="M530.36,615.56c-14.87,3.75-27.39,7-36.72,9.36-51,13.15-67.34,18-71.76,30.72-1.26,3.64-.62,8.08.72,16.8,5.93,38.66,8.94,58,9,58.39,7.28,30.6,19.28,94.8,21.69,151.13,1.38,32.25-.66,55.33-2.16,74.52-4.36,55.59-9.07,141.1-10.56,272,20.29-.06,36.77,0,48.24,0,12.94,0,22.44.1,40.08.12,11.88,0,21.62,0,28.08,0,8.08-223.1,11.07-389.29,10.8-450.36a365.58,365.58,0,0,0-10.41-89A358.85,358.85,0,0,0,530.36,615.56Z" fill="#fff"/><path d="M530.51,615.92a28.17,28.17,0,0,0,2.16-1.95,26.18,26.18,0,0,0,3.27-4,10.43,10.43,0,0,0-4.68-2.52c-5.06-1.15-9.42,2.28-11,3.51-5.63,4.43-7.42,10.94-8.39,14.66-3,11.62-6.19,23.85-9.42,37.25l38.11,6-25.33,25.92a344.45,344.45,0,0,1,20.62,33.47,348.87,348.87,0,0,1,31.21,80.21,345.32,345.32,0,0,0-2.4-84.48,390.79,390.79,0,0,0-12.54-53.22c-3.57-11.52-7-20.7-8.82-25.38C538.94,634.1,534.52,624.21,530.51,615.92Z" fill="#e3e3f1"/><path d="M430,664.47a318.45,318.45,0,0,0,14.35,52c10.52,28.47,17.79,35.34,31.38,68.8,12.91,31.78,20.23,59.74,18.83,60.4-.86.41-5.83-9.24-12-21.14-4.32-8.41-5.74-11.71-6.57-11.41-2,.72,5.16,20.59,3.59,48-.56,9.63-1.64,10.48-3,22.48a243.43,243.43,0,0,0-.3,49.67c1.3,17.9-.37,50.39-14.05,114.43-1.13-47-.35-84,.6-109.4.67-17.93,1.42-30.12,0-49-2-26.34-6.79-46.77-13.15-73.83-7.36-31.3-10.62-37.38-14.65-62.08-2.17-13.31-3.35-24.53-4.78-38.26-1.48-14.17-1.9-21.21-1.8-29.19A189.78,189.78,0,0,1,430,664.47Z" fill="#e3e3f0"/><path d="M461.43,1040.2a107.88,107.88,0,0,0,25.1,8.06,106.23,106.23,0,0,0,42.45-.67c.19,3,3.5,54.6-.6,71.48-.53,2.17-1.65,6.55-5.08,9.73-4.22,3.9-9.63,3.83-12.85,3.69-17.23-.78-45.49-7.24-49-8.06V1040.2Z" fill="#c6c6d7"/><g opacity="0.43"><path d="M465.61,1057.32a117.8,117.8,0,0,0,52.76,6.37c2.55-.23,5.08-.61,7.62-1-2.48.68-5,1.19-7.53,1.65a90.35,90.35,0,0,1-52.85-7Z"/></g><path d="M629.72,612.5c5,2.12,13.19,5.47,23.4,9.18,46.33,16.85,60.24,14.14,70.56,24.48,11.42,11.44,7.66,28.09-2.43,85.68-17,97.33-20.32,128.94-21.69,145.8-2.67,32.92-1.81,55.55-1.08,83.16,1.47,55.61,2.6,138.19,1.08,257-11,1-20.56,1.69-28.08,2.16-23.82,1.49-38.06,2.33-56.16,1.08a271.59,271.59,0,0,1-27-3.24l5.4-460.08c7.18-23,14.12-47.48,20.52-73.44C620.4,659.35,625.5,635.35,629.72,612.5Z" fill="#fff"/><path d="M629.9,611.06a7.36,7.36,0,0,1-4.14-4.68,12,12,0,0,1,3.55-1.19,14.2,14.2,0,0,1,5.27.29C642.5,607.55,653,636.2,653,636.2c4.59,12.52,8,22,9.6,26.4l-26.88,5.76,20.16,27.36a314,314,0,0,0-23.52,31.68,319.36,319.36,0,0,0-39.54,87.78c.06-7.73.19-19,.54-32.76.45-17.56.69-26.46,1.56-32.46,2.55-17.53,7.32-17.4,13.92-42.72,4.65-17.84,3.91-20.6,10.56-46.56,2-7.72,3.92-14.79,6.24-25.92C627.72,624.79,629.08,616.54,629.9,611.06Z" fill="#e3e3f1"/><path d="M722.89,665.48a318.45,318.45,0,0,1-14.35,52C698,746,690.75,752.82,677.16,786.28c-12.91,31.78-20.23,59.75-18.83,60.41.86.41,5.83-9.25,12-21.14,4.32-8.41,5.74-11.71,6.57-11.41,2,.71-5.16,20.59-3.59,48,.56,9.63,1.64,10.49,3,22.49a243.33,243.33,0,0,1,.3,49.66c-1.3,17.91.37,50.4,14.05,114.44,1.13-47,.35-84-.6-109.4-.67-17.94-1.42-30.12,0-49,2-26.33,6.79-46.76,13.15-73.82,7.36-31.3,10.62-37.39,14.65-62.09,2.17-13.3,3.35-24.53,4.78-38.25,1.48-14.17,1.9-21.21,1.8-29.2A189.76,189.76,0,0,0,722.89,665.48Z" fill="#e3e3f0"/><path d="M689.53,1036.41a108.36,108.36,0,0,1-25.1,8.06,106,106,0,0,1-42.45-.68c-.19,3-3.5,54.61.6,71.48.53,2.18,1.65,6.56,5.08,9.73,4.22,3.91,9.63,3.84,12.85,3.7,17.23-.79,45.49-7.24,49-8.06v-84.23Z" fill="#c6c6d7"/><g opacity="0.33"><path d="M685.35,1053.53a90.26,90.26,0,0,1-52.85,7c-2.53-.46-5-1-7.53-1.64,2.54.38,5.07.76,7.62,1a118.08,118.08,0,0,0,52.76-6.37Z"/></g><g opacity="0.64"><path d="M612.85,840.21c1.12,6-4,12.36-9.12,11.74-4-.48-7.21-5.1-7.17-9.9,0-3.76,2.07-7.8,5.53-9.06C606.63,831.34,611.9,835.12,612.85,840.21Z" fill="#7e7d88"/><path d="M612,919.23c1.12,6-4,12.37-9.11,11.75-4-.48-7.21-5.1-7.18-9.9,0-3.77,2.08-7.81,5.53-9.06C605.73,910.37,611,914.15,612,919.23Z" fill="#7e7d88"/><path d="M611.51,999.27c1.12,6-4,12.36-9.12,11.74-4-.48-7.21-5.1-7.17-9.9,0-3.76,2.07-7.8,5.53-9.06C605.28,990.41,610.55,994.18,611.51,999.27Z" fill="#7e7d88"/><path d="M609.26,1077.79c1.12,6-4,12.37-9.11,11.75-4-.48-7.21-5.1-7.18-9.9,0-3.77,2.08-7.81,5.53-9.06C603,1068.93,608.31,1072.71,609.26,1077.79Z" fill="#7e7d88"/></g><path d="M406.56,974.12c2-5.61,1.09-9.35.52-11-3-8.49-15.47-13.93-30.48-11.15q-1.47,6.11-2.92,12.19Z" fill="#534741"/><path d="M393.21,965.3c1.59.59,5,1.86,9.59,3.25,3.3,1,6,1.66,7.87,2.09l5.82-16.72c5.87-19.77,9.93-36,12.52-47,5.95-25.32,4.46-27,11-50,5.63-20,9.26-34.27,11.59-43.94.58-2.4,1.49-6.45,3.1-11.88,2.86-9.63,5.94-17,9.76-27.62,9.63-26.85,16-44.05,17.64-65.83,1.47-19.33,3.08-40.43-8.53-54.31-11.36-13.6-31.91-16.11-44.84-6.17a24.36,24.36,0,0,0-2.79,2.57c-8.29,8.46-13.54,20.34-17.21,45.19-.85,5.74-1.56,14.44-3,31.83-1.7,20.94-1.54,23.36-2.74,35.14-1,9.93-1.79,14.53-4.8,35.13-1.5,10.31-3.72,25.68-6.39,44.8a276,276,0,0,0-6.35,29.66c-2,12.68-2.15,19.65-4.11,37.62-1.35,12.36-2.72,22.37-3.65,28.79q-2.74,10-5.48,20C382.14,961.25,388.75,963.64,393.21,965.3Z" fill="#fff"/><path d="M441.34,824.14a265.54,265.54,0,0,0-11,46.21c-3.68,22.86-9.75,56.12-20.28,101.45a612.56,612.56,0,0,0,24.16-84q3.35-15.85,5.71-30.89c3.6-13,6.35-23.58,8.22-30.89,2.49-9.77,3.43-13.89,5.4-20.83,3.29-11.6,6.54-20.84,8.75-26.8A241.81,241.81,0,0,0,441.34,824.14Z" fill="#e3e3f1"/><path d="M735.15,974.66c-1.79-5.68-.61-9.33.07-10.91,3.56-8.25,16.61-13,31.86-9.38l2.31,12.25Z" fill="#534741"/><path d="M749.32,966.64c-1.66.5-5.18,1.58-10,2.7-3.43.79-6.29,1.32-8.19,1.64q-2.52-8.44-5-16.9c-4.93-19.92-8.2-36.25-10.25-47.3-4.71-25.43-3.09-27-8.49-50.17-4.68-20.1-7.62-34.48-9.47-44.2-.46-2.41-1.18-6.48-2.53-11.95-2.41-9.7-5.16-17.15-8.49-27.93-8.4-27.15-14-44.55-14.47-66.24-.45-19.24-.94-40.25,11.71-53.38,12.39-12.85,33.6-14.22,46.31-3.66a24.52,24.52,0,0,1,2.71,2.7c8,8.85,12.77,20.92,15.18,45.76.55,5.74.8,14.4,1.29,31.73.6,20.85.29,23.24.89,35,.5,9.9,1,14.51,3,35.1,1,10.3,2.41,25.66,4.09,44.77a264.4,264.4,0,0,1,4.88,29.76c1.34,12.68,1.13,19.6,2.15,37.52.71,12.34,1.57,22.34,2.17,28.76q2.26,10,4.52,20.1C760.89,963.24,754,965.24,749.32,966.64Z" fill="#fff"/><path d="M707.72,824a255.35,255.35,0,0,1,8.7,46.42c2.52,22.87,6.91,56.18,15.22,101.7a591.78,591.78,0,0,1-20.15-84.61q-2.57-15.9-4.16-30.94c-3-13.08-5.22-23.73-6.73-31.08-2-9.82-2.76-14-4.4-20.95-2.74-11.69-5.56-21-7.5-27.05A236.13,236.13,0,0,1,707.72,824Z" fill="#e3e3f1"/></g></g></g></svg>