<svg xmlns="http://www.w3.org/2000/svg" xmlns:xlink="http://www.w3.org/1999/xlink" viewBox="0 0 1080 1920"><defs><linearGradient id="linear-gradient" x1="579.13" y1="615.52" x2="579.13" y2="703.54" gradientTransform="matrix(0.8, -0.01, 0.01, 1, 117.48, 92.72)" gradientUnits="userSpaceOnUse"><stop offset="0.15" stop-color="#21687e"/><stop offset="0.49" stop-color="#023f5f"/><stop offset="0.98"/></linearGradient><radialGradient id="radial-gradient" cx="460.54" cy="334.76" r="231.55" gradientTransform="matrix(1.06, -0.01, 0.01, 1.07, 20.12, 55.56)" xlink:href="#linear-gradient"/><radialGradient id="radial-gradient-2" cx="514.94" cy="65.45" r="462.6" gradientTransform="matrix(1.06, -0.01, 0.01, 1.07, 20.12, 55.56)" gradientUnits="userSpaceOnUse"><stop offset="0.28" stop-color="#21687e"/><stop offset="0.42" stop-color="#0d3b59"/><stop offset="0.59" stop-color="#05294a"/><stop offset="0.71" stop-color="#031b31"/><stop offset="0.9" stop-color="#01070d"/><stop offset="1"/></radialGradient><radialGradient id="radial-gradient-3" cx="312" cy="195.34" r="290.78" gradientTransform="matrix(1.06, -0.01, 0.01, 1.07, 20.12, 55.56)" gradientUnits="userSpaceOnUse"><stop offset="0.29" stop-color="#fff"/><stop offset="0.69" stop-color="#6c6c6c"/><stop offset="1"/></radialGradient><radialGradient id="radial-gradient-4" cx="312.02" cy="195.32" r="290.8" xlink:href="#radial-gradient-3"/></defs><g style="isolation:isolate"><g id="costumes"><g id="_17" data-name="17"><path d="M745.33,679.26S804,793.57,804.2,899c0,0-.16,44.46-20.4,46-15.94,1.25-31.66-5.61-40.46-11.78a80.18,80.18,0,0,1-22.18-23.69l-64-175Z" fill="#ebebec"/><path d="M804.1,892.48a78.69,78.69,0,0,0-13.37-16.67A50.08,50.08,0,0,0,772.2,864.5a56.82,56.82,0,0,0-56.62,28.44,66.83,66.83,0,0,0,2,6.84,76.55,76.55,0,0,0,3.24,7.74c7.64,15.48,22.54,25.73,22.54,25.73,7.43,5.12,25.26,13,40.46,11.78,20.24-1.58,20.4-46,20.4-46C804.2,896.83,804.16,894.66,804.1,892.48Z" fill="#e35744"/><path d="M755,802.89c-3.48-12.88-8.38-25-13.69-36.94,8.62-15.07,15.39-31.2,21.46-47.74,15.63,38.36,36.68,99.88,40.72,161-12.35-9.43-25.86-15.94-40.08-21.62A256.37,256.37,0,0,0,755,802.89Z" fill="#d9d9db"/><path d="M700.23,823.39c-.81-2.09-1.62-4.19-2.46-6.29a197.26,197.26,0,0,1,82.33-51.49c1.27,3.93,2.52,7.95,3.75,12C753.48,783.8,723.63,800.63,700.23,823.39Z" fill="#e35744"/><path d="M745.33,679.26s5.17,10.08,12.44,27c-2.94,18.1-9,35.57-18.7,50.71-5.7,8.95-14.15,19.41-15.88,30.51-1.63,10.46,25.59,88,25,119.21-.17,9.63-.76,19.34-1.54,29L720.8,907.52l-63.61-173Z" fill="#d9d9db" opacity="0.8" style="mix-blend-mode:multiply"/><path d="M784,1017.93c-5.88-8.52-14.09-15.93-23.23-19.8-9.72-4.11-21.38-7.67-31.87-4.1-5,1.7-9.12,5.29-13.23,8.76.14-37.16,6-103.67,6-103.67s14.67-37.07,48.53-23.5c0,0,30.79,8.32,32.21,41.84,1,22.79-5.52,71.63-15.74,104.56C785.76,1020.55,784.84,1019.17,784,1017.93Z" fill="#d9d9db"/><path d="M784,1017.93c-5.88-8.52-14.09-15.93-23.23-19.8-4.6-1.94-16.89-7.74-31.87-4.1a43.83,43.83,0,0,0-15,6.92c0-20.33,1-42.25,3.24-65.52,1.24-12.62,2.79-24.73,4.57-36.31,0,0,14.67-37.07,48.53-23.5,0,0,30.79,8.32,32.21,41.84,1,22.79-5.52,71.63-15.74,104.56C785.76,1020.55,784.84,1019.17,784,1017.93Z" fill="#d9d9db"/><path d="M721.65,899.12S730.81,876,751.32,873c-.71.52-1.39,1.08-2.07,1.69-9.41,8.62-13.91,19.31-14.8,32.5-1.43,20.94-5.3,79.08-6.49,87.21a64,64,0,0,1-6.43,3.66,65.41,65.41,0,0,1-8.41,3.44q3-31.95,5.59-64.47Q720.24,918,721.65,899.12Z" fill="#d9d9db" style="mix-blend-mode:multiply"/><path d="M760.76,998.13c-2.74-1.15-5.64-2.27-8.62-3.19l5.78-108.48s5.52-6.31,21.83,1.41c0,0,20.86,9.08,20.21,41.48-.53,26.2-9.39,66-16.35,88.07C777.75,1009.12,769.71,1001.92,760.76,998.13Z" fill="#ebebec"/><path d="M713.12,1001.49a83.36,83.36,0,0,1,10.08-6.3c6.22-3.29,11.64-6.16,18.19-6.54s11.44,1.53,17.32,4.74a93.7,93.7,0,0,1,24.35,19.21c8.43,9.34,10.89,21.09,13.56,33.6,2.89,13.62,5.12,27.94,2.78,42a84.69,84.69,0,0,1-8.07,23.58c-2.42,4.84-6.34,14.92-12.31,15.15-2.72.11-4.09-1.92-4.67-4.65a59.26,59.26,0,0,1-3.83,5.2c-4.11,5-9.53,6.22-13.87,1.4a7.36,7.36,0,0,1-1.8-4,20.22,20.22,0,0,1-5,4c-7.91,4.1-12.23-.82-10.44-9.57,2-9.58,6.25-16.85,10.56-25.24a32.93,32.93,0,0,0,3.37-12.61c-.32.81-.63,1.62-1,2.4-5,11.83-14.3,29.46-26.66,32.08-11.78,2.5-9.46-14.71-6.58-21.4,3.9-9.06,10.07-16.9,14.3-25.84,5.68-12,6.64-18.75,6.74-23.29.13-5.72-.86-12.19-1.64-12.19-.41,0-.64,1.85-1.53,5.94-.72,3.35-1.66,6.66-2.49,10-3.18,12.92-4.83,19.41-7.44,20.4-3.38,1.28-8.25-1.77-11-5-6.81-8-4.18-21.94-1.68-35.52,0,0,1.28-7,.78-20.88a12.52,12.52,0,0,0-1.26-5.22A9.7,9.7,0,0,0,713.12,1001.49Z" fill="#ebebec"/><path d="M777.69,1037.83c-6.46-4.7-13.34-8.77-20.81-11.11.12-5.56-.55-11.47-.74-16a64.36,64.36,0,0,0-3.37-17.82,49.63,49.63,0,0,1,4.93,2.31A93.61,93.61,0,0,1,782,1014.46c8.43,9.34,10.89,21.1,13.56,33.6.62,2.93,1.2,5.9,1.73,8.89A93.23,93.23,0,0,0,777.69,1037.83Z" fill="#ebebec" opacity="0.7" style="mix-blend-mode:screen"/><path d="M672.82,619s53.12,14.3,82.7,47.1S693.06,816.43,667.28,775,661.26,615.28,672.82,619Z" fill="#ebebec"/><path d="M692.78,781.5c2.12-6,3.82-11.92,5.22-16.41,5.11-16.3,9.39-32.55,11.39-49.66,3.32-28.25,6.14-57.2-3.2-83.75A225.23,225.23,0,0,0,672.82,619c-11.56-3.72-31.32,114.67-5.54,156C673.12,784.4,682.34,785.58,692.78,781.5Z" fill="#d9d9db"/><path d="M728.73,649.56s30.14,11.27,28.55,39.22-28.71,59.75-45.88,76c0,0,36-40,38.67-67.57S728.73,649.56,728.73,649.56Z" fill="#ebebec" style="mix-blend-mode:screen"/><path d="M760,1043.32c0-.38.54,0,.53.27-.1,17-2.71,33.12-11.55,47.54-.06.08-.21-.08-.17-.16C755.53,1076.38,759,1059.44,760,1043.32Z" fill="#b1b2b4"/><path d="M753.09,1125.27C769.46,1105.09,778.94,1078,777,1051c0-.19.27,0,.29.12,4.75,24.16-5.52,59.09-23.55,74.83C753.41,1126.21,752.84,1125.6,753.09,1125.27Z" fill="#b1b2b4"/><path d="M714.2,1030.89c1.29-10.31,1.58-14.29,1.2-19.44a69.52,69.52,0,0,0-1.56-10.5c2-1.41,5-3.35,8.7-5.46.87-.49,2.67-1.52,4.32-2.34,3.85-1.91,8.53-4.24,14.53-4.5,2-.09,10.27-.45,16.13,5.1a16.18,16.18,0,0,1,2.22,2.58c-10.33-6.86-21.47-7.75-27.24-2.69a14.77,14.77,0,0,0-4.23,7.29c-1.37,5.33-1.31,18.2,5.19,19.76,13.72,3.31,14.73,26.63,9.6,38.92A222.68,222.68,0,0,0,733,1087.48c-1.74,5.82,3,11.65,8.59,7.72,6.49-4.52,10-12.67,12.85-20.28,3.23-8.72,4.83-18.9,6-28.18,1.71,12.2-.15,26.28-4.11,37.8-1.88,5.47-7.56,18-3.25,23.54,5.36,6.8,13.52-5.23,15.67-9.74,5.64-11.75,7.07-23.69,8.34-36.18,1.59,12.86.37,25.78-5.23,38.19-.93,2.06-8.56,17.26-1.24,17.16,8-.12,14.07-14.86,16.62-21.64a112.39,112.39,0,0,0,6.33-28.56,79.32,79.32,0,0,1-3.75,31.75c-2,5.93-6.55,12.24-6.37,18.72.07,2.31,1.34,3.29,2.89,3.53-2,3-4.41,5.46-7.31,5.58-2.72.11-4.09-1.92-4.67-4.65a59.26,59.26,0,0,1-3.83,5.2c-4.11,5-9.53,6.22-13.87,1.4a7.36,7.36,0,0,1-1.8-4,20.22,20.22,0,0,1-5,4c-7.91,4.1-12.23-.82-10.44-9.57,2-9.58,6.25-16.85,10.56-25.24a32.93,32.93,0,0,0,3.37-12.61c-.32.81-.63,1.62-1,2.4-5,11.83-14.3,29.46-26.66,32.08-11.78,2.5-9.46-14.71-6.58-21.4,3.49-8.08,5.14-8.23,14.3-25.84a60.23,60.23,0,0,0,5.6-14.92,52.84,52.84,0,0,0,1.14-8.37,32.16,32.16,0,0,0-.69-9.9c-.5-2.11-.79-2.29-1-2.29-.79,0-1.34,4.07-2.61,9.81-1,4.77-1,3.4-3.06,11.7-2.79,11.2-2.74,13.05-4.77,14.13-3.19,1.69-7.9-.49-10.44-2.61a13.64,13.64,0,0,1-4-5.85C711,1053,712.3,1046.12,714.2,1030.89Z" fill="#ebebec" style="mix-blend-mode:multiply"/><path d="M786.89,1096.81a113.94,113.94,0,0,0,6.11-25.46c-.47,6.17-1.63,12.36-2.55,17.55-.26,1.47-.56,2.9-.86,4.35A101.24,101.24,0,0,1,774,1122.56c-.12.15-.4-.15-.33-.32C777.87,1113.52,783.41,1106.19,786.89,1096.81Z" fill="#b1b2b4"/><path d="M400.56,672.59S341.87,786.9,341.68,892.32c0,0,.17,44.46,20.4,46,15.94,1.25,31.66-5.61,40.46-11.78a80,80,0,0,0,22.18-23.69q32-87.52,64-175Z" fill="#ebebec"/><path d="M341.78,885.81a78.45,78.45,0,0,1,13.38-16.67,50.2,50.2,0,0,1,18.52-11.32,56.85,56.85,0,0,1,56.62,28.45,67.56,67.56,0,0,1-2,6.84,76.55,76.55,0,0,1-3.24,7.74c-7.64,15.48-22.54,25.73-22.54,25.73-7.43,5.12-25.26,13-40.46,11.78-20.23-1.58-20.4-46-20.4-46C341.69,890.16,341.73,888,341.78,885.81Z" fill="#e35744"/><path d="M390.88,796.22c3.48-12.88,8.37-25,13.68-36.94-8.61-15.08-15.38-31.2-21.46-47.74-15.63,38.35-36.68,99.88-40.72,161,12.35-9.43,25.86-15.95,40.09-21.62A256.27,256.27,0,0,1,390.88,796.22Z" fill="#d9d9db"/><path d="M445.65,816.72c.82-2.09,1.62-4.19,2.46-6.29a197.26,197.26,0,0,0-82.33-51.49c-1.26,3.93-2.52,7.95-3.74,12C392.4,777.13,422.26,794,445.65,816.72Z" fill="#e35744"/><path d="M400.56,672.59s-5.17,10.07-12.45,27c2.95,18.09,9.05,35.57,18.7,50.71,5.7,8.94,14.15,19.41,15.88,30.5,1.63,10.47-25.58,88-25,119.21.17,9.64.76,19.35,1.55,29q12.93-14.09,25.87-28.15l63.62-173Z" fill="#d9d9db" opacity="0.8" style="mix-blend-mode:multiply"/><path d="M361.9,1011.26c5.88-8.52,14.09-15.94,23.23-19.8,9.71-4.11,21.37-7.67,31.86-4.1,5,1.7,9.12,5.29,13.24,8.76-.15-37.16-6-103.67-6-103.67s-14.67-37.07-48.52-23.5c0,0-30.79,8.32-32.22,41.84-1,22.79,5.52,71.63,15.75,104.56C360.12,1013.87,361,1012.5,361.9,1011.26Z" fill="#d9d9db"/><path d="M361.9,1011.26c6.27-7.32,12.47-15.25,23.23-19.8,4.6-1.94,16.89-7.74,31.86-4.1A43.74,43.74,0,0,1,432,994.28c0-20.33-1-42.25-3.24-65.52-1.24-12.62-2.79-24.73-4.57-36.31,0,0-14.67-37.07-48.52-23.5,0,0-17.21,4.65-26.49,21-4.24,7.46-5.32,14.66-5.73,20.84-2.15,33.09,10.86,86.33,13.28,96.07q-1.22,7.2-2.45,14.42A101.32,101.32,0,0,1,361.9,1011.26Z" fill="#d9d9db"/><path d="M424.23,892.45s-9.15-23.08-29.66-26.14c.7.53,1.39,1.08,2.07,1.7,9.41,8.62,13.91,19.31,14.8,32.5,1.42,20.94,5.29,79.08,6.48,87.21a64.38,64.38,0,0,0,14.84,7.1q-3-32-5.58-64.47Q425.64,911.32,424.23,892.45Z" fill="#d9d9db" style="mix-blend-mode:multiply"/><path d="M385.13,991.46a91.16,91.16,0,0,1,8.61-3.19L388,879.79s-5.53-6.31-21.83,1.41c0,0-20.87,9.08-20.22,41.48.53,26.2,9.4,66,16.35,88.07C368.14,1002.45,376.17,995.24,385.13,991.46Z" fill="#ebebec"/><path d="M432.76,994.82a82.57,82.57,0,0,0-10.08-6.3c-6.22-3.29-11.64-6.16-18.18-6.55s-11.45,1.54-17.33,4.75a93.86,93.86,0,0,0-24.35,19.21c-8.43,9.33-10.89,21.09-13.56,33.6-2.89,13.61-5.12,27.93-2.77,42a84.05,84.05,0,0,0,8.07,23.58c2.41,4.84,6.34,14.92,12.31,15.15,2.72.11,4.08-1.92,4.66-4.65a58.8,58.8,0,0,0,3.84,5.2c4.11,5,9.52,6.22,13.87,1.4a7.35,7.35,0,0,0,1.79-4.05,20.4,20.4,0,0,0,5,4c7.91,4.1,12.23-.82,10.45-9.57-2-9.59-6.26-16.85-10.57-25.24a33.21,33.21,0,0,1-3.37-12.61c.32.81.64,1.61,1,2.4,5,11.82,14.31,29.45,26.66,32.07,11.79,2.5,9.46-14.7,6.58-21.39-4.52-10.47-7.92-10.84-14.29-25.84-2.31-5.43-4.06-9.67-4.35-15.59a99.42,99.42,0,0,1,.77-14s1.77,7.08,2.49,10c3.19,12.92,4.83,19.4,7.44,20.4,3.38,1.28,8.25-1.77,11-5,6.81-8,4.18-22,1.68-35.52h0c-1.3-3.25-2.78-11.48-.78-20.88A38.36,38.36,0,0,1,432.76,994.82Z" fill="#ebebec"/><path d="M368.19,1031.15c6.46-4.69,13.34-8.76,20.82-11.1-.12-5.56.55-11.47.73-16a64.67,64.67,0,0,1,3.38-17.82,45.63,45.63,0,0,0-4.93,2.31,93.66,93.66,0,0,0-24.35,19.2c-8.43,9.35-10.89,21.11-13.56,33.61-.62,2.93-1.19,5.9-1.72,8.89A93.27,93.27,0,0,1,368.19,1031.15Z" fill="#ebebec" opacity="0.7" style="mix-blend-mode:screen"/><path d="M473.07,612.33s-53.13,14.29-82.7,47.09,62.45,150.33,88.23,109S484.62,608.61,473.07,612.33Z" fill="#ebebec"/><path d="M453.1,774.83c-2.12-6-3.81-11.92-5.22-16.41-5.11-16.3-9.38-32.55-11.39-49.66-3.32-28.26-6.14-57.2,3.21-83.75a224.76,224.76,0,0,1,33.37-12.68c11.55-3.72,31.31,114.67,5.53,156C472.77,777.73,463.54,778.91,453.1,774.83Z" fill="#d9d9db"/><path d="M417.16,642.89S387,654.15,388.6,682.11s28.71,59.75,45.88,75.95c0,0-36-40-38.66-67.56S417.16,642.89,417.16,642.89Z" fill="#ebebec" style="mix-blend-mode:screen"/><path d="M385.94,1036.65c0-.39-.55,0-.54.27.11,17,2.72,33.12,11.55,47.54.06.08.22-.08.18-.16C390.35,1069.71,386.86,1052.77,385.94,1036.65Z" fill="#b1b2b4"/><path d="M392.79,1118.6c-16.37-20.18-25.85-47.26-23.88-74.26,0-.19-.27,0-.29.12-4.75,24.16,5.52,59.09,23.55,74.83C392.47,1119.54,393.05,1118.93,392.79,1118.6Z" fill="#b1b2b4"/><path d="M431.68,1024.22c-1.29-10.32-1.57-14.29-1.2-19.44a70.84,70.84,0,0,1,1.56-10.5c-2-1.41-5-3.35-8.7-5.46-.86-.5-2.67-1.52-4.32-2.34-3.84-1.91-8.53-4.24-14.52-4.51-2.05-.08-10.28-.44-16.14,5.11a16.27,16.27,0,0,0-2.22,2.58c10.33-6.86,21.47-7.75,27.25-2.69a14.77,14.77,0,0,1,4.23,7.29c1.36,5.33,1.3,18.2-5.2,19.76-13.72,3.31-14.73,26.63-9.6,38.92a221.46,221.46,0,0,1,10.06,27.86c1.75,5.83-2.94,11.66-8.59,7.73-6.48-4.53-10-12.68-12.85-20.28-3.22-8.72-4.82-18.91-6-28.18-1.71,12.2.16,26.28,4.12,37.8,1.87,5.47,7.56,18.05,3.24,23.54-5.36,6.8-13.52-5.23-15.67-9.74-5.63-11.75-7.07-23.7-8.33-36.18-1.6,12.86-.38,25.78,5.23,38.19.92,2.06,8.56,17.26,1.24,17.16-8-.12-14.07-14.86-16.63-21.64a112.39,112.39,0,0,1-6.33-28.56,79.52,79.52,0,0,0,3.75,31.75c2,5.93,6.55,12.24,6.38,18.72-.07,2.31-1.34,3.29-2.89,3.53,2,3,4.4,5.46,7.31,5.58,2.72.11,4.08-1.92,4.66-4.65a58.8,58.8,0,0,0,3.84,5.2c4.11,5,9.52,6.22,13.87,1.4a7.35,7.35,0,0,0,1.79-4.05,20.4,20.4,0,0,0,5,4c7.91,4.1,12.23-.82,10.45-9.57-2-9.59-6.26-16.85-10.57-25.24a33.21,33.21,0,0,1-3.37-12.61c.32.81.64,1.61,1,2.4,5,11.82,14.31,29.45,26.66,32.07,11.79,2.5,9.46-14.7,6.58-21.39-2.35-5.45-3.87-7.29-7.42-13.33a119.15,119.15,0,0,1-6.87-12.51,81.57,81.57,0,0,1-4.89-13.61c0-.73,0-1.91.12-3.36.26-3.69.82-5.32,1.08-9,.06-.82.12-2.05.11-3.57.26.9.63,2.24,1.08,3.87,1.31,4.76,2.17,8.13,3.06,11.7,2.79,11.19,2.75,13,4.77,14.13,3.19,1.69,7.91-.49,10.44-2.61a13.64,13.64,0,0,0,4-5.85C434.91,1046.31,433.59,1039.45,431.68,1024.22Z" fill="#ebebec" style="mix-blend-mode:multiply"/><path d="M359,1090.14a114.49,114.49,0,0,1-6.11-25.46c.48,6.16,1.63,12.36,2.56,17.55.26,1.47.55,2.9.85,4.35a101.73,101.73,0,0,0,15.61,29.31c.12.15.4-.15.33-.32C368,1106.85,362.47,1099.52,359,1090.14Z" fill="#b1b2b4"/><path d="M575.38,1426.67l113,11.88c1.73,14,16.69,27.93,52.65,69.78,34.41,40,20.62,94.56,20.57,94.75a43.68,43.68,0,0,1-3,10.27c-12,27.57-108.41,15.85-111.4,14.13h0c-46.37-17.42-71.85-84.86-74.85-116.52S575.38,1426.67,575.38,1426.67Z" fill="#bebfc1"/><path d="M602.63,1577.07c2.86-12.2,7.28-24.24,14-34.35a94.07,94.07,0,0,1,63.47-40.92c21.42-3.49,43.5-.26,61.69,13.9a105.32,105.32,0,0,1,10.83,9.77c19.26,36.85,9,77.45,9,77.61a43.68,43.68,0,0,1-3,10.27c-12,27.57-108.41,15.85-111.4,14.13h0c-22.1-8.3-37.66-27.79-48.23-43.6C600.6,1580.06,601.64,1581.31,602.63,1577.07Z" fill="#ebebec"/><path d="M726.81,1498s-42.25-35.61-97.34,9.4c0,0-14.7,12.58-5.08,24.39,0,0,3,7.41,10.68,5s28.36-37.68,63.66-32.4,39.18,13.6,39.18,13.6S744.74,1512.42,726.81,1498Z" fill="#d9d9db"/><path d="M699.53,1468.23s-35-29.54-80.74,7.8c0,0-12.19,10.44-4.21,20.24,0,0,2.47,6.14,8.86,4.15s18.37-25.59,51.5-24.83c29.53.67,33.81,9.23,33.81,9.23S714.41,1480.18,699.53,1468.23Z" fill="#d9d9db"/><path d="M589.26,1517.34c7.25,14.31,15.57,27.84,25.54,39.82,20.33,24.4,46.71,28.75,74.9,30.4,17.82,1,37,2.34,53.9-5.51a31.94,31.94,0,0,0,15.58-15.41,28.5,28.5,0,0,0,3.79-8.77,126.6,126.6,0,0,1-1.38,45.21,43.68,43.68,0,0,1-3,10.27c-12,27.57-108.41,15.85-111.4,14.13h0c-46.37-17.42-71.85-84.86-74.85-116.52a257.48,257.48,0,0,1-.74-29.17C576.13,1494.42,582.37,1506.1,589.26,1517.34Z" fill="#bebfc1"/><path d="M575.38,1426.67l113,11.88c1,8,6.33,16,17.46,29.24-8.5,6.08-19.85,8.85-28.9,10.27-8.74,1.38-18.1,3.36-26.93,3.07-6.4-.22-12.52-1.56-18.85-2.37-22.32-2.85-13.94,22.21-6.45,35.31,4.34,7.6,9.08,10.58,16.84,7.31,10.2-4.3,19.3-14.32,31.41-17.87,21.34-6.27,46.35-4.67,64.26,13.58-27.48-11.31-61.81-15.46-84.47,10.52-8.83,10.12-22.59,67.11,6.8,82.69,16.69,8.85,35.14,5.87,53.56,5.5,14.24-.29,31.77-5.46,42.41-17.69a54.94,54.94,0,0,0,8.54-12.55,108.85,108.85,0,0,1-2.46,17.52,43.68,43.68,0,0,1-3,10.27c-12,27.57-108.41,15.85-111.4,14.13h0c-46.37-17.42-71.85-84.86-74.85-116.52S575.38,1426.67,575.38,1426.67Z" fill="#bebfc1" opacity="0.5" style="mix-blend-mode:multiply"/><path d="M694.14,1417.57s32.25,25,10.41,48.68c0,0-49.37,31.23-122-5.92,0,0-19.14-12.57-12.76-39.83,6.45-27.59,29.16-4.76,29.16-4.76Z" fill="#cdced0"/><path d="M569.8,1420.5c6.45-27.59,29.16-4.76,29.16-4.76l95.18,1.83a61,61,0,0,1,11.26,12.1c3,21.17-19.52,32.29-36,35.95a104.3,104.3,0,0,1-45.14.14c-12.65-2.88-24.51-8.37-37-11.57-1.17-.31-2,.59-2.17,1.88a13.29,13.29,0,0,0,1,6c-1.17-.56-2.32-1.1-3.5-1.7C582.56,1460.33,563.42,1447.76,569.8,1420.5Z" fill="#cdced0" opacity="0.4" style="mix-blend-mode:multiply"/><path d="M710.17,955.19s6.35,21.31,15.69,72.74,17.22,241.33-30.48,414.65c0,0-14.09,12.57-31.86,13.64s-77.57-1.38-83.95-30.4,15.37-164.16,3.79-266.09-23.19-106.68-8.1-127.6S685.17,946,710.17,955.19Z" fill="#ebebec"/><path d="M585.37,1182.54c-.51-7.74-1.16-15.37-2-22.81q-.43-3.86-.88-7.51c22-8.89,43.89-18.06,67.09-22.78,16.65-3.38,35.19-7.15,52.19-5,10.43,1.29,20.71,3.75,31.09,5.25.07,7.63.07,15.58,0,23.75C681.76,1138,632.71,1160,585.37,1182.54Z" fill="#e35744"/><path d="M645,1297.14c16.75,1.56,33.8,1.27,50.39-2.09a98.19,98.19,0,0,0,20.25-6.59c3-1.3,6.12-2.79,9.34-4q-1.66,14.93-3.75,30.12c-22.47,8.47-48.18,5.28-71.28,3.17-19.09-1.73-38.26-4.69-56.58-11.26-2.94-1.06-5.94-1.92-8.94-2.72.38-6.61.72-13.36,1-20.16A234.58,234.58,0,0,0,645,1297.14Z" fill="#e35744"/><path d="M585.37,1182.39c26.55-21.79,57.9-34,91-38.2,13.91-1.79,28-3.36,42-2.78a131.43,131.43,0,0,1,14.58,1.24q0,12.38-.28,25.58c-11.12-6.1-22.5-11.41-35.13-11.28-19,.21-38.53,3.59-55.64,13.5-26,15.08-48.4,49.17-32.62,83.09,13.42,28.86,48,37.43,74.34,34.4a83.46,83.46,0,0,0,42.87-17.51q-1.11,11-2.43,22.25c-20.7,6.87-43.21,8.52-63.93,8.59-24.48.08-51.28-1.37-75-11.06C586.88,1255.11,587.72,1217.49,585.37,1182.39Z" fill="#cdced0"/><path d="M647,1247.94c-21.66-28,4.87-57.41,29.3-64.61,14.93-4.42,30.76-6.39,45,1.69,3.61,2,7.12,4.28,10.63,6.5-.7,17.87-1.8,36.56-3.38,55.85C708.32,1271.11,666.14,1272.76,647,1247.94Z" fill="#d9d9db" style="mix-blend-mode:multiply"/><path d="M713.2,1014.59s18.95,108.26,8.36,212.24S691,1434.59,691,1434.59s6.53-103,14-194.59-21.92-225.41-21.92-225.41-4.53-11.49,0-22S708.34,979.84,713.2,1014.59Z" fill="#ebebec" opacity="0.5" style="mix-blend-mode:screen"/><path d="M583.36,1159.73c-11.59-101.94-23.19-106.68-8.1-127.6S685.17,946,710.17,955.19c0,0,4.46,15,11.39,50a83.18,83.18,0,0,0-6.72-14c-21.53-35.32-61.22,4.18-75.58,28.66-25.85,44.07-10.48,102.74-6.75,151.38,4.77,62.11-3.18,125.75-10.14,187.27-2.48,22-9.73,51-.42,72,6.08,13.72,18.15,21.86,31.18,24.54a61.31,61.31,0,0,0,10.12,1.17c-18.08,1-77.33-1.52-83.68-30.41S594.94,1261.66,583.36,1159.73Z" fill="#d9d9db" opacity="0.5" style="mix-blend-mode:multiply"/><path d="M555.21,1427l-122.72,3.78c-2.78,13.8-19.85,26.68-61.43,65.86-39.77,37.48-28.49,92.88-28.45,93.07a41.48,41.48,0,0,0,2.56,10.47c11.1,28.36,115.93,23.56,119.28,22.06h0c51.19-14.07,83.14-79.54,88.48-110.91S555.21,1427,555.21,1427Z" fill="#bebfc1"/><path d="M515.86,1575.07c-2.28-12.37-6.24-24.7-12.82-35.27-15-24-39.28-39.56-65.79-45.37-22.88-5-46.92-3.36-67.49,9.46a111.29,111.29,0,0,0-12.33,9c-23.22,35.39-14.86,76.63-14.82,76.79a41.48,41.48,0,0,0,2.56,10.47c11.1,28.36,115.93,23.56,119.28,22.06h0c24.4-6.71,42.47-25,54.92-40.06C517.86,1578.2,516.66,1579.37,515.86,1575.07Z" fill="#ebebec"/><path d="M387.08,1487.31s47.95-32.51,104.43,16.33c0,0,15,13.62,3.87,24.71a9.44,9.44,0,0,1-11.86,4.23c-8.14-2.94-28.12-39.62-66.56-36.88s-43.18,10.77-43.18,10.77S366.78,1500.4,387.08,1487.31Z" fill="#d9d9db"/><path d="M418.49,1459.55s39.76-27,86.61,13.55c0,0,12.48,11.29,3.21,20.5a7.81,7.81,0,0,1-9.83,3.5c-6.76-2.44-18.14-26.84-53.94-28.46-31.91-1.44-37.09,6.8-37.09,6.8S401.64,1470.41,418.49,1459.55Z" fill="#d9d9db"/><path d="M534.25,1516.44c-8.78,13.75-18.65,26.66-30.2,37.89-23.55,22.9-52.31,25.36-82.84,25-19.3-.24-40.11-.31-57.8-9.35a33.43,33.43,0,0,1-15.8-16.49,27.5,27.5,0,0,1-3.5-9,117.16,117.16,0,0,0-1.5,45.21,41.48,41.48,0,0,0,2.56,10.47c11.1,28.36,115.93,23.56,119.28,22.06h0c51.19-14.07,83.14-79.54,88.48-110.91a241.69,241.69,0,0,0,2.72-29.06C549.92,1494.5,542.43,1505.71,534.25,1516.44Z" fill="#bebfc1"/><path d="M555.21,1427l-122.72,3.78c-1.59,7.9-7.88,15.51-20.77,27.92,8.77,6.68,20.83,10.26,30.51,12.32,9.34,2,19.31,4.65,28.86,5,6.92.25,13.62-.65,20.5-1,24.28-1.24,13.57,23.16,4.62,35.7-5.19,7.27-10.5,9.9-18.66,6.08-10.71-5-19.87-15.66-32.71-20.08-22.61-7.77-49.71-8-70.24,9,30.4-9.31,67.73-11,90.46,16.54,8.86,10.73,19.94,68.58-12.8,82-18.6,7.63-38.31,3.34-58.16,1.66-15.35-1.31-33.93-7.73-44.6-20.69a55.09,55.09,0,0,1-8.39-13.13,99.5,99.5,0,0,0,1.5,17.65,41.48,41.48,0,0,0,2.56,10.47c11.1,28.36,115.93,23.56,119.28,22.06h0c51.19-14.07,83.14-79.54,88.48-110.91S555.21,1427,555.21,1427Z" fill="#bebfc1" opacity="0.5" style="mix-blend-mode:multiply"/><path d="M427.65,1409.38s-36.45,22.65-14.44,47.84c0,0,51.21,34.68,132,2.8,0,0,21.48-11.17,16.4-38.83-5.14-28-31.16-6.84-31.16-6.84Z" fill="#cdced0"/><path d="M561.64,1421.19c-5.14-28-31.16-6.84-31.16-6.84l-102.83-5a63.91,63.91,0,0,0-12.94,11.27c-4.61,20.92,18.92,33.61,36.48,38.45a121.84,121.84,0,0,0,48.7,3.36c13.84-2,27-6.6,40.67-8.9a1.91,1.91,0,0,1,2.22,2,12.47,12.47,0,0,1-1.43,5.89c1.3-.49,2.58-.94,3.89-1.46C545.24,1460,566.72,1448.85,561.64,1421.19Z" fill="#cdced0" opacity="0.4" style="mix-blend-mode:multiply"/><path d="M440.91,946.87s-8.26,20.81-21.74,71.46-34.53,239.57,5.5,415.92c0,0,14.36,13.55,33.48,15.89s83.8,4.17,92.6-24.34S545,1260.9,564.25,1160s32.07-104.79,17.17-126.73S468.5,939.53,440.91,946.87Z" fill="#ebebec"/><path d="M560.57,1182.64c1.06-7.69,2.27-15.26,3.68-22.62.48-2.54,1-5,1.44-7.43-23.19-10.44-46.17-21.16-70.89-27.52-17.75-4.57-37.51-9.65-56-8.77-11.34.54-22.6,2.26-33.9,3-.59,7.62-1.11,15.55-1.56,23.71C459.5,1131.28,511,1156.71,560.57,1182.64Z" fill="#e35744"/><path d="M488.68,1292.73c-18.19.36-36.56-1.15-54.25-5.69a112.31,112.31,0,0,1-21.41-8c-3.13-1.51-6.42-3.22-9.82-4.62q.81,15,2.06,30.33c23.69,10,51.64,8.71,76.71,8.26,20.71-.37,41.6-2,61.81-7.2,3.24-.84,6.52-1.49,9.82-2.08,0-6.62.11-13.38.22-20.19A270.85,270.85,0,0,1,488.68,1292.73Z" fill="#e35744"/><path d="M560.57,1182.49c-27.2-23.64-60.23-38-95.64-44.62-14.89-2.78-30-5.35-45.12-5.77a154.31,154.31,0,0,0-15.83.19q-.8,12.36-1.38,25.55c12.4-5.3,25-9.79,38.65-8.75,20.48,1.57,41.34,6.34,59.15,17.45,27.09,16.9,49,52.52,29.72,85.23-16.4,27.84-54.23,33.93-82.51,29a94.34,94.34,0,0,1-45.1-20.54q.47,11.1,1.16,22.38c21.88,8.34,46.06,11.59,68.42,13.14,26.41,1.83,55.43,2.29,81.63-5.68C554.14,1254.94,555.72,1217.35,560.57,1182.49Z" fill="#cdced0"/><path d="M489.78,1243.5c25.22-26.42-1.47-57.63-27.34-66.57-15.83-5.47-32.78-8.57-48.71-1.53-4,1.78-8,3.77-11.9,5.73-.43,17.87-.48,36.61-.05,56C422,1262.23,467.44,1266.89,489.78,1243.5Z" fill="#d9d9db" style="mix-blend-mode:multiply"/><path d="M433.72,1005.92s-27.61,106.67-23.05,211.18,19.24,209.49,19.24,209.49-.25-103.22-2.2-195.17,38.55-223.34,38.55-223.34,5.65-11.15,1.45-21.92S441.26,971.59,433.72,1005.92Z" fill="#ebebec" opacity="0.5" style="mix-blend-mode:screen"/><path d="M564.25,1160c19.23-100.88,32.07-104.79,17.17-126.73S468.5,939.53,440.91,946.87c0,0-5.8,14.61-15.6,49.1a80.57,80.57,0,0,1,8.18-13.52c25.57-33.7,65.79,8.55,79.67,34,25,45.82,4.52,103.26-2.72,151.52-9.25,61.64-4.87,125.71-1.43,187.59,1.23,22.08,7.13,51.61-4.31,71.9-7.47,13.24-21,20.51-35.26,22.25a71.18,71.18,0,0,1-11,.45c19.44,2.32,83.56,4,92.32-24.37S545,1260.9,564.25,1160Z" fill="#d9d9db" opacity="0.5" style="mix-blend-mode:multiply"/><path d="M436,932.6S425.33,950.27,426,979s120.6,81.72,151.44,89.13,137.4-69.78,136.24-99.56-4.87-42.25-19.29-42.74S436,932.6,436,932.6Z" fill="#ebebec"/><path d="M449,994.49c-2.28-20.85-1.89-41.47-2-62.22l-11,.33S425.33,950.27,426,979c.19,8.14,10,18.24,24.63,28.7C450,1003.27,449.45,998.85,449,994.49Z" fill="#ebebec" style="mix-blend-mode:multiply"/><path d="M694.41,925.8c-1.49,0-5.48,0-11.39.09,0,.4.1.79.14,1.19a346.37,346.37,0,0,1,2.2,36.31c0,16-1.21,31.88-1.77,47.82C701.5,995,714.1,978.89,713.7,968.54,712.54,938.76,708.83,926.29,694.41,925.8Z" fill="#ebebec" style="mix-blend-mode:multiply"/><path d="M705,635.58c-10.72-34.85-105.75-34.8-105.75-34.8L567.85,602l-31.43-.65s-95,1.74-105.07,36.8S424.52,925,437,945.83c8.54,14.3,53,31.15,101.55,38.76,10.91,1.71,21,1.61,31.93,2.25,10.94-.85,23.08-1,34-2.87,48.41-8.52,92.54-26.2,100.8-40.67C717.25,922.21,715.72,670.43,705,635.58Z" fill="#d3d4d5"/><path d="M697.42,633.68c-10.12-32.93-99.89-32.89-99.89-32.89L567.85,602l-29.69-.61S448.4,603,438.9,636.11s-6.45,270.95,5.3,290.66c8.06,13.52,50.06,29.43,95.94,36.62,10.3,1.61,19.8,1.52,30.16,2.12,10.34-.8,21.8-.9,32.08-2.71,45.73-8,87.42-24.75,95.22-38.43C709,904.46,707.55,666.59,697.42,633.68Z" fill="#ebebec"/><path d="M577.1,965.34c-37.75,1.79-76.52-8.67-107.52-37.05-19.4-17.75-32.52-40-41.9-65.14,1.95,42.36,5.09,75.65,9.28,82.68,8.54,14.3,53,31.15,101.55,38.76,10.91,1.71,21,1.61,31.93,2.25,10.94-.85,23.08-1,34-2.87,48.41-8.52,92.54-26.2,100.8-40.67,3.18-5.56,5.41-27.12,6.78-56.48C681.78,938,627.31,963,577.1,965.34Z" fill="#d9d9db" opacity="0.5" style="mix-blend-mode:multiply"/><path d="M570.1,668c26.77-1,53.47-8.37,78.47-20.22,14.16-6.71,31-14.41,41.51-29-29.75-18-90.82-17.92-90.82-17.92L567.85,602l-31.43-.65s-56.81,1-87.22,17.73C480.6,655.89,528.26,669.53,570.1,668Z" fill="#c9cacc" style="mix-blend-mode:multiply"/><path d="M642.31,699.39l-20.42.19-108.2,1-20.41.19c-20.23.19-23.35,19.77-25.62,35.32l.85,90,.66,70.55,0,2.61h.41c2.57,15,6.73,32.42,25.84,32.24l20.42-.2,108.2-1,20.41-.2c19.12-.18,23-17.67,25.24-32.72h.41l0-2.61-.67-70.55-.85-90C666,718.7,662.53,699.2,642.31,699.39Z" fill="#c6c8d0" style="mix-blend-mode:multiply"/><path d="M638.92,703.08l-19.2.18-101.81,1-19.21.19c-19,.17-22,18.59-24.11,33.23l.8,84.7.62,66.39,0,2.45h.39c2.41,14.12,6.33,30.51,24.32,30.34l19.2-.18,101.82-1,19.21-.18c18-.17,21.59-16.63,23.74-30.79h.39l0-2.45-.62-66.39-.8-84.7C661.25,721.26,658,702.9,638.92,703.08Z" fill="#ebebec"/><path d="M646,846.24l-4.45,0L618,846.5l-4.44,0c-4.41.05-5.1,4.32-5.59,7.7l.19,19.6.14,15.35v.57h.08c.56,3.27,1.48,7.06,5.64,7l4.44,0,23.56-.22,4.44,0c4.16,0,5-3.85,5.5-7.13H652v-.56l-.14-15.37-.19-19.6C651.14,850.45,650.37,846.2,646,846.24Z" fill="#c7c8ca" style="mix-blend-mode:multiply"/><path d="M643.8,848.7l-3.85,0-20.37.19-3.84,0c-3.81,0-4.4,3.72-4.82,6.65l.16,16.94.12,13.28v.49h.07c.48,2.82,1.27,6.1,4.87,6.07l3.84,0,20.37-.19,3.84,0c3.6,0,4.33-3.33,4.76-6.16H649v-.49l-.12-13.28-.17-17C648.26,852.34,647.6,848.67,643.8,848.7Z" fill="#ebebec"/><path d="M641,851.93l-3.06,0-16.23.15-3,0c-3,0-3.53,1.1-3.88,2l0,4.9,0,3.84V863h.06c.38.8,1,1.75,3.85,1.72l3.06,0,16.23-.16,3.06,0c2.87,0,3.46-1,3.82-1.8H645v-.14l0-3.84,0-4.91C644.51,853,644,851.91,641,851.93Z" fill="#ebebec" style="mix-blend-mode:screen"/><path d="M639.15,719.79l-8.65.07-45.86.44-8.65.08-9.57.09-8.65.08L511.9,721l-8.64.08c-8.58.08-9.93,5.44-10.92,9.69l.24,24.62.18,19.29v.72h.18c1.06,4.1,2.8,8.85,10.91,8.77l8.65-.08,45.86-.43,8.65-.08,9.57-.09,8.65-.08,45.86-.44,8.66-.07c8.1-.08,9.75-4.87,10.74-9h.17v-.72l-.18-19.29-.24-24.62C649.18,725,647.72,719.71,639.15,719.79Z" fill="#ebebec" style="mix-blend-mode:screen"/><path d="M598.23,846.69l-4.45,0-23.55.23-4.45,0c-4.4,0-5.08,4.31-5.58,7.7l.19,19.59.14,15.37v.57h.09c.56,3.26,1.46,7.06,5.63,7l4.44,0,23.56-.22,4.44,0c4.16,0,5-3.85,5.5-7.13h.08v-.57l-.14-15.35L604,854.27C603.39,850.9,602.63,846.65,598.23,846.69Z" fill="#c7c8ca" style="mix-blend-mode:multiply"/><path d="M596.05,849.15l-3.83,0-20.38.19-3.84,0c-3.81,0-4.4,3.73-4.82,6.66l.16,16.95.12,13.27v.5h.07c.49,2.82,1.27,6.1,4.87,6.06l3.84,0,20.38-.19,3.84,0c3.6,0,4.32-3.33,4.75-6.16h.07v-.49l-.13-13.28L601,855.71C600.52,852.79,599.87,849.12,596.05,849.15Z" fill="#ebebec"/><path d="M593.23,852.39l-3.06,0-16.22.16-3.07,0c-3,0-3.52,1.1-3.87,1.94l0,4.9,0,3.84v.14h.06c.37.81,1,1.76,3.84,1.74l3.06,0,16.23-.15,3.06,0c2.87,0,3.46-1,3.81-1.8h.07V863l0-3.84-.05-4.9C596.78,853.42,596.27,852.36,593.23,852.39Z" fill="#ebebec" style="mix-blend-mode:screen"/><path d="M590,814.84c.07,6.87-4.33,12.46-9.81,12.52h0c-5.48,0-10-5.47-10-12.33h0c-.07-6.86,4.33-12.47,9.81-12.52h0c5.48-.06,10,5.47,10,12.33Z" fill="#d9d9db"/><path d="M617.49,814.58c.07,6.86-4.32,12.47-9.8,12.52h0c-5.49,0-10-5.47-10.05-12.33h0c-.06-6.86,4.33-12.47,9.81-12.52h0c5.49,0,10,5.47,10,12.33Z" fill="#d9d9db"/><path d="M645,814.32c.06,6.87-4.33,12.46-9.82,12.52h0c-5.48,0-10-5.47-10-12.33h0c-.06-6.86,4.33-12.46,9.81-12.52h0c5.49,0,10,5.47,10.05,12.33Z" fill="#d9d9db"/><polygon points="551.54 899.93 494.43 900.47 493.46 797.44 550.57 796.9 551.54 899.93" fill="#d9d9db"/><polygon points="513.17 824.93 498.2 825.07 498.02 806.35 512.99 806.2 513.17 824.93" fill="#ebebec"/><rect x="514.7" y="806.12" width="14.97" height="18.73" transform="translate(-7.6 4.92) rotate(-0.54)" fill="#ebebec"/><rect x="531.3" y="805.96" width="14.97" height="18.73" transform="translate(-7.7 5.14) rotate(-0.54)" fill="#ebebec"/><rect x="498.31" y="828.28" width="14.97" height="18.73" transform="matrix(1, -0.01, 0.01, 1, -7.79, 4.75)" fill="#ebebec"/><rect x="514.91" y="828.12" width="14.97" height="18.73" transform="translate(-8.32 5.24) rotate(-0.57)" fill="#ebebec"/><rect x="531.5" y="827.96" width="14.98" height="18.73" transform="translate(-7.66 4.98) rotate(-0.53)" fill="#ebebec"/><rect x="498.53" y="850.67" width="14.97" height="18.74" transform="translate(-7.87 4.68) rotate(-0.53)" fill="#ebebec"/><rect x="515.12" y="850.52" width="14.97" height="18.74" transform="translate(-8.28 5.09) rotate(-0.55)" fill="#ebebec"/><polygon points="546.77 869.03 531.8 869.17 531.63 850.43 546.6 850.28 546.77 869.03" fill="#ebebec"/><rect x="498.73" y="872.68" width="14.97" height="18.74" transform="translate(-8.47 4.92) rotate(-0.55)" fill="#ebebec"/><polygon points="530.39 891.19 515.42 891.33 515.24 872.59 530.21 872.45 530.39 891.19" fill="#ebebec"/><rect x="531.92" y="872.37" width="14.98" height="18.73" transform="translate(-7.94 4.9) rotate(-0.52)" fill="#ebebec"/><path d="M637.87,727.39l-6.57.06-34.82.33-6.57.06-7.26.08-6.57.05-34.83.33-6.57.06c-6.51.07-7.53,4.14-8.28,7.37l.18,18.69.13,14.65,0,.54h.13c.8,3.11,2.13,6.72,8.28,6.67l6.57-.06,34.82-.34,6.57-.06,7.26-.06,6.57-.07,34.82-.33,6.57-.05c6.15-.07,7.41-3.7,8.16-6.83h.13v-.54l-.14-14.65-.18-18.69C645.49,731.38,644.38,727.33,637.87,727.39Z" fill="url(#linear-gradient)"/><path d="M582.56,751.87c14.93-.54,30-2,44.47-7,5-1.74,10.53-3.63,15.48-6.54l0-2.59c-.76-3-1.8-6.81-7.89-6.75l-96.61.91c-6.09.06-7.07,3.87-7.76,6.9l0,3.35C544.39,753.37,565.94,752.47,582.56,751.87Z" fill="#6b6c6f" style="mix-blend-mode:screen"/><path d="M458.37,932.56s-13.51-156.26-5.59-213.77c0,0,3.18-30,16.86-35.58S552,688.53,552,688.53l-69.77,3.94s-18.31,1.67-21.53,36.86C457.22,767.56,459.7,764.63,458.37,932.56Z" fill="#ebebec" style="mix-blend-mode:screen"/><path d="M680.79,930.47s10.56-156.5,1.56-213.84c0,0-3.75-29.9-17.52-35.26s-82.26,6.87-82.26,6.87l69.83,2.63s18.34,1.32,22.22,36.44C678.83,765.47,676.3,762.59,680.79,930.47Z" fill="#ebebec" style="mix-blend-mode:screen"/><path d="M570,873.8c-.59,7-4,38.72-29.76,58.56-29.07,22.4-74.82,20.58-109.92-7.2-7.79-4.34-17.5-.8-20.64,6.72-3,7.3.92,16.43,9.12,19.2,8.13,5.59,38.05,24.7,78.72,20.16a113.5,113.5,0,0,0,61-26.4c30.48-26.63,35.85-61.51,37-70.56.11-6.66-3.45-12.38-8.16-13.92C580.86,858.28,571.55,863.6,570,873.8Z" fill="#fff" stroke="#000" stroke-miterlimit="10"/><path d="M617.48,882.68c.25,4.66,1.52,15.16,9.36,23.52,10,10.64,24.26,11,32.64,11.28,11.3.32,20.81-2.51,39.84-8.16,4.73-1.4,8.61-2.69,11.28-3.6,9.49-3.31,13-12,10.8-16.32-1.78-3.52-7.87-5.44-14.4-3.84a177.53,177.53,0,0,1-36.48,11.28c-15.24,2.94-20.45,1.81-24.24-1-6.44-4.7-7.64-13.24-7.92-17-.89-6.14-5.11-10.66-9.36-11C623.51,867.31,616.71,873.63,617.48,882.68Z" fill="#fff" stroke="#000" stroke-miterlimit="10"/><path d="M222.2,577.4l171.47-77C387.83,487.64,347.33,395,395,300.92c35-69.09,111.83-127.62,198.72-121C684,186.89,736,260.48,749.24,279.32c75.47,107,36,233.44,30.41,250.22l123,75.94c99.53-114.13,131.42-266,79.92-391C907.52,32.57,691.66-5,570,2.84,400.12,13.73,198,126.73,163.88,316,142.07,437.06,198,538.76,222.2,577.4Z" fill="#fff"/><path d="M403.93,465.5c.34,36.73-24.71,66.74-56,67h0c-31.25.29-56.86-29.25-57.21-66l-.44-46.68c-.34-36.74,24.71-66.75,56-67h0c31.25-.3,56.88,29.24,57.21,66Z" fill="#ebebec"/><path d="M398.26,463.23c.31,33.06-22.24,60.1-50.38,60.36h0c-28.14.27-51.21-26.33-51.52-59.41l-.4-42c-.3-33.07,22.25-60.1,50.39-60.37h0c28.14-.26,51.21,26.34,51.52,59.41Z" fill="#c7c8ca" style="mix-blend-mode:multiply"/><path d="M331.18,396.86c.07,7.49-5,13.62-11.42,13.68s-11.6-6-11.67-13.46,5-13.62,11.41-13.67S331.11,389.37,331.18,396.86Z" fill="#2a416f"/><path d="M320.59,392.09a3.18,3.18,0,1,1-3.17-3.65A3.46,3.46,0,0,1,320.59,392.09Z" fill="#fff"/><path d="M314.39,399.9a1.46,1.46,0,1,1-1.45-1.68A1.58,1.58,0,0,1,314.39,399.9Z" fill="#fff"/><path d="M329.57,454c.08,7.5-5,13.61-11.41,13.68s-11.59-6-11.66-13.46,5-13.63,11.41-13.68S329.51,446.46,329.57,454Z" fill="#2a416f"/><path d="M319,449.19a3.18,3.18,0,1,1-3.17-3.65A3.44,3.44,0,0,1,319,449.19Z" fill="#fff"/><path d="M312.79,457a1.46,1.46,0,1,1-1.45-1.68A1.57,1.57,0,0,1,312.79,457Z" fill="#fff"/><path d="M346.27,352.85a48.91,48.91,0,0,0-17.47,3.43c-7.54,29.39-8.79,60.4-6.68,91.19,1.25,18.1,2.38,36.29,4.46,54.29,1,8.95,1.9,18.36,3.46,27.5A48.87,48.87,0,0,0,348,532.54c31.26-.3,56.31-30.31,56-67l-.45-46.68C403.15,382.09,377.52,352.55,346.27,352.85Z" fill="#c9cacc" style="mix-blend-mode:multiply"/><path d="M763.54,462.11c.34,36.73,25.8,66.27,56.86,66h0c31.06-.3,56-30.31,55.62-67l-.44-46.68c-.35-36.73-25.81-66.27-56.87-66h0c-31.07.28-56,30.3-55.61,67Z" fill="#ebebec"/><path d="M769.11,459.72c.32,33.08,23.24,59.68,51.21,59.42h0c28-.26,50.39-27.3,50.08-60.36l-.4-42c-.31-33.07-23.23-59.68-51.2-59.42h0c-28,.27-50.39,27.29-50.08,60.37Z" fill="#c7c8ca" style="mix-blend-mode:multiply"/><path d="M834.54,392.11c.06,7.5,5.26,13.52,11.6,13.46s11.41-6.18,11.34-13.67-5.26-13.53-11.59-13.46S834.46,384.62,834.54,392.11Z" fill="#2a416f"/><path d="M845,387.15a3.16,3.16,0,1,0,3.08-3.71A3.43,3.43,0,0,0,845,387.15Z" fill="#fff"/><path d="M851.27,394.84a1.45,1.45,0,1,0,1.42-1.7A1.58,1.58,0,0,0,851.27,394.84Z" fill="#fff"/><path d="M837.2,449.16c.07,7.51,5.26,13.54,11.6,13.48s11.42-6.19,11.34-13.68-5.26-13.53-11.6-13.46S837.13,441.67,837.2,449.16Z" fill="#2a416f"/><path d="M847.63,444.21a3.45,3.45,0,0,0,3.15,3.66c1.72,0,3.1-1.69,3.08-3.72a3.16,3.16,0,1,0-6.23.06Z" fill="#fff"/><path d="M853.94,451.89a1.45,1.45,0,1,0,2.86,0,1.45,1.45,0,1,0-2.86,0Z" fill="#fff"/><path d="M818.71,348.39a48.34,48.34,0,0,1,17.42,3.1c8,29.25,9.87,60.24,8.35,91.05-.88,18.12-1.67,36.33-3.41,54.37-.86,9-1.54,18.38-2.92,27.55a48.09,48.09,0,0,1-17.75,3.63c-31.06.29-56.52-29.25-56.86-66l-.44-46.68C762.75,378.69,787.64,348.67,818.71,348.39Z" fill="#c9cacc" style="mix-blend-mode:multiply"/><path d="M822,395.29c-1.08-114.46-78.11-226.74-211.63-241.81a246.83,246.83,0,0,0-62.87.6c-133.21,17.58-208.12,131.3-207,245.75,1.23,129.89,16.6,182.87,133.93,218.91,25.44,7.81,68,15.51,111.17,13.22a314.75,314.75,0,0,0,106.67-15.29C808.86,578.43,823.22,525.18,822,395.29ZM583,580.77c-104.79,1-190.49-79.56-191.45-179.9s83.24-182.5,188-183.48S770,296.94,771,397.3,687.75,579.78,583,580.77Z" fill="#ebebec"/><path d="M355.54,525.88c16.41,44.78,50.12,71.74,118.85,92.86,25.44,7.81,68,15.51,111.17,13.22a314.75,314.75,0,0,0,106.67-15.29C765.05,592.8,798,563.07,812.18,512.49l-85.95-21.6c-11,10.92-63.54,60.78-146.91,62.75-79.81,1.88-133.1-41.41-145.49-52.05Z" fill="#d9d9db"/><path d="M373.88,335.09c9,2.77,10.71-9.72,14.12-16.5,8-15.91,16.85-31.48,27.41-45.83,19.31-26.25,42.41-48.65,70.6-64.88-5.48-10.28-12.52-19.32-20.08-28-58.14,31-97.46,84.41-115,144.52C358.3,328.59,365.89,332.64,373.88,335.09Z" fill="#c9cacc" opacity="0.5" style="mix-blend-mode:multiply"/><path d="M749.2,273.27q9.33,16.43,17.64,33.34c.22-.21.46-.42.71-.62,9.17-7.66,18.64-14.92,27.9-22.43a237.88,237.88,0,0,0-63.62-80.26c-6.3,7.18-12.72,14.25-19,21.42C726,240,739,255.3,749.2,273.27Z" fill="#c9cacc" opacity="0.5" style="mix-blend-mode:multiply"/><path d="M783.3,408.87c1,106.8-88.58,194.23-200.12,195.28S380.43,519.47,379.42,412.68c-1-105.15,85.82-191.51,194.93-195.18C472,221.09,390.59,302.19,391.51,400.87c1,100.34,86.66,180.89,191.45,179.9s189-83.14,188-183.47c-.93-98.66-83.79-178.15-186.15-179.89C694,219.06,782.31,303.77,783.3,408.87Z" fill="#c9cacc" style="mix-blend-mode:multiply"/><path d="M771,397.3c.94,100.33-83.24,182.48-188,183.47s-190.49-79.56-191.45-179.9,83.24-182.5,188-183.48S770,296.94,771,397.3Z" opacity="0.21" fill="url(#radial-gradient)"/><path d="M749.64,315.22a156.53,156.53,0,0,1,12,77.82c-6.68,65-56.57,116.61-117.17,134.87-55.28,16.66-124.72,16.35-175.78-13.71C391.15,468.54,383.79,374.62,421,302a175.28,175.28,0,0,0-29.46,98.85c1,100.34,86.66,180.89,191.45,179.9s189-83.14,188-183.47A175,175,0,0,0,749.64,315.22Z" fill="url(#radial-gradient-2)" style="mix-blend-mode:multiply"/><path d="M417.9,436.8A207,207,0,0,0,424.74,468a192.17,192.17,0,0,0,9.49,24.59,319.49,319.49,0,0,0,26.4,20.4c14.85,10.31,30.27,20.23,46.62,27.89a233.61,233.61,0,0,1-32-82C455.82,452.23,436.34,445.72,417.9,436.8Z" opacity="0.33" fill="url(#radial-gradient-3)" style="mix-blend-mode:screen"/><path d="M566.83,233.16c-53.54,7.53-106.19,36.64-131.4,86.57-14.14,28-20.54,60.24-19.74,92.14,17.16,6.85,35.31,12,52.66,17.3l3.26,1a226,226,0,0,1,2-48.63c6.77-44.35,27-86.71,62.62-114.75a209.56,209.56,0,0,1,66.45-35.38A207.13,207.13,0,0,0,566.83,233.16Z" opacity="0.33" fill="url(#radial-gradient-4)" style="mix-blend-mode:screen"/></g></g></g></svg>