<svg xmlns="http://www.w3.org/2000/svg" xmlns:xlink="http://www.w3.org/1999/xlink" viewBox="0 0 1080 1920"><defs><clipPath id="clip-path"><path d="M609.41,953.84c-3.29.14-10.82,1-14.1,1.06-17.5.23-5.12,3.74-20.5,2.3-.53,3.37,7.16,6,6.52,10.13,2.31,0-10,5.54-.13,6.07,2.9.15,18.06,1.47,20,1.55,13.63-.11,23.53.24,37.16,0,11.95-.17-93.27,17.81-81.38,14.27-.49-3.84,6.19-46.53,5.86-49.91C540.45,936.37,631.92,955.52,609.41,953.84Z" fill="none"/></clipPath></defs><g style="isolation:isolate"><g id="costumes"><g id="_18" data-name="18"><path d="M469.4,967.16a1264.87,1264.87,0,0,0-1,161.76c2.54,43.74,7.19,84.35,13,121.44A1055,1055,0,0,0,490.76,1468a89.42,89.42,0,0,1,21.6,1.44c5.66,1.1,9.33,2.42,18.72,4.32,5.21,1.06,9.49,1.75,12.24,2.16a1241.23,1241.23,0,0,0,14-132c1.72-33,2-64.28,1.34-93.62q7-52.29,13.45-105.6,10.73-88.42,19.44-174.48c-18.36-39.51-58.16-56.79-86.81-45.84C479.52,934.09,470.72,962.66,469.4,967.16Z" fill="#b4b6b8"/><path d="M540.87,1099.16c-1.22-.06-4.71,39-5.72,79.76-.79,32.07,0,65.07,1.08,65.09,1.39,0,3.29-51.49,3.93-71.53C540.36,1166.17,542.47,1099.23,540.87,1099.16Z" opacity="0.4"/><path d="M535.87,1296c-1.39,0-3.42,37.54-2.15,77.26.88,27.51,3.36,56.37,4.56,56.33,1.76-.07.63-62,.54-66.8C538.61,1351.68,537.56,1296,535.87,1296Z" opacity="0.21"/><path d="M400.19,1568.69a8,8,0,0,0-2.82,4.23,8.06,8.06,0,0,0,.47,5.41,72.08,72.08,0,0,0,12.7,8c22.62,11.11,44.27,6.79,48.46,5.88,6.49-1.41,21.52-4.68,32.47-16,3.14-3.24,7.83-9.1,16.94-17.4,3.47-3.17,6.45-5.66,8.46-7.3.48,2.2,1,4.39,1.42,6.59q8.87-3.37,18.35-7.53,7.1-3.13,13.64-6.35l-1.41-15.53a46.51,46.51,0,0,0-1.18-22.82c-2.58-8.12-8.6-18.85-13.41-18.11-4,.61-3.61,8.53-9.17,10.82-4.56,1.88-10.2-1.22-14.35-4.23l-9.65,16.15a109.62,109.62,0,0,0,5.88-11.57c1-2.29,1.32-3.23,1.3-4.46-.08-5.4-6.31-9.11-7.41-9.77-7.11-4.23-14.91-2.27-16.35-1.88-4.89,1.32-8.47,4.07-15.18,11.41-10,11-13,16.81-24.46,30.7-7.1,8.59-9.85,11-13.41,13.17-2.48,1.49-7.33,3.29-16.94,6.83-10.6,3.9-13.74,4.81-16.23,8.46-.69,1-3.66,5.37-2.12,10.12A10.42,10.42,0,0,0,400.19,1568.69Z" fill="#6f5e56"/><path d="M400.19,1568.69a68.73,68.73,0,0,0,17.17,9.17,67.48,67.48,0,0,0,26.82,4A66.68,66.68,0,0,0,475,1571.74c8.9-5.63,7.35-7.69,20.7-19,9-7.69,17.12-14.45,28.94-19.06a74.22,74.22,0,0,1,24.23-4.94l1.41,15.53-32,13.88c-.47-2.25-.94-4.51-1.42-6.76-2.68,2.29-6.78,5.89-11.58,10.52-10.46,10.1-11.69,13-17.27,17.57-9.82,8-20.16,10.61-26,12.08a79.17,79.17,0,0,1-31.83,1.09,67.61,67.61,0,0,1-21.8-7.21,65.39,65.39,0,0,1-10.51-7.06,7.94,7.94,0,0,1-.41-5.88A7.69,7.69,0,0,1,400.19,1568.69Z"/><path d="M401.92,1574.41c-.11.26,15.7,10.94,37,11.61,4,.12,22.1.32,36.7-9.26a137.43,137.43,0,0,0,11.29-8.62c6.09-5.13,8.4-7.89,12.23-11.45a105.59,105.59,0,0,1,23.53-16.16,128,128,0,0,1,24.15-9.88c-18.78,2.57-30.28,9-36.39,13.18-5.67,3.91-11.44,8.94-11.44,8.94-8.24,7.17-10.18,10.6-16.94,16a73.35,73.35,0,0,1-14.12,8.94c-16.84,8-33.43,5.74-40.46,4.71A86,86,0,0,1,401.92,1574.41Z" fill="#4d4d4d"/><path d="M414.54,1544.93c5,5,10.84,9.15,17.64,11,11.1,2.93,23.41,2.45,33.63-3.07,16.71-8.94,27.52-25.52,35.3-42.41-4.17,13.67-11.53,26.7-22.05,36.61-7.14,6.57-16.05,11.72-25.84,12.9-14.88,1.77-29.68-2.59-38.68-15.08Z" fill="#473c38"/><path d="M519.38,1535.83c-2.1-7.58,1.4-16.2,7.73-20.81,6-4.7,13.42-8,21.13-8a72.24,72.24,0,0,0-10.19,4.39c-10.28,5.86-17.89,11.75-18.67,24.47Z" fill="#473c38"/><path d="M439.09,1538.34c1,.77-1.31,3.46-.32,6,.32.79,1.62,3.23,9.1,3.92,12.29,1.14,21.37-4.3,21.8-3.45s-6.84,7.15-17.25,9.41c-9.27,2-16.14-.3-22.27-2.35-3.48-1.17-5.39-2.25-5.49-3.61-.09-1.16,1.17-2,6.9-5.8C436.76,1538.92,438.38,1537.77,439.09,1538.34Z" fill="#968077"/><path d="M448.65,1517a20.06,20.06,0,0,1,13.18-3.14c10.91,1.39,15.72,11.93,16,12.55" fill="none" stroke="#473c38" stroke-linecap="round" stroke-miterlimit="10" stroke-width="3.92"/><path d="M453.51,1509.17a20.06,20.06,0,0,1,13.18-3.14c10.91,1.39,15.73,11.93,16,12.55" fill="none" stroke="#473c38" stroke-linecap="round" stroke-miterlimit="10" stroke-width="3.92"/><path d="M459.47,1501a20.07,20.07,0,0,1,13.18-3.13c10.91,1.39,15.72,11.92,16,12.54" fill="none" stroke="#473c38" stroke-linecap="round" stroke-miterlimit="10" stroke-width="3.92"/><path d="M443.16,1525.64a20,20,0,0,1,13.18-3.14c10.91,1.39,15.72,11.93,16,12.55" fill="none" stroke="#473c38" stroke-linecap="round" stroke-miterlimit="10" stroke-width="3.92"/><path d="M683.72,969.08A862.38,862.38,0,0,1,688,1134a859.66,859.66,0,0,1-16.17,116.4,1053.94,1053.94,0,0,1,.81,112.66c-1.77,38.08-5.47,73.23-10.15,105a89.42,89.42,0,0,0-21.6,1.44c-5.67,1.1-9.34,2.42-18.72,4.32-5.21,1.06-9.49,1.75-12.24,2.16a1238.63,1238.63,0,0,1-14-132c-1.72-33-2-64.28-1.34-93.62-4.94-34.83-9.08-71.63-12.07-110.25-4.79-61.78-6-119.69-4.83-173,11.36-34,44.88-51,70.82-42.65C666.54,930.24,679.92,947.92,683.72,969.08Z" fill="#b4b6b8"/><path d="M612.41,1099.16c1.22-.06,4.72,39,5.72,79.76.8,32.07,0,65.07-1.07,65.09-1.39,0-3.29-51.49-3.93-71.53C612.93,1166.17,610.82,1099.23,612.41,1099.16Z" opacity="0.4"/><path d="M617.42,1296c1.39,0,3.42,37.54,2.15,77.26-.89,27.51-3.36,56.37-4.56,56.33-1.77-.07-.63-62-.54-66.8C614.68,1351.68,615.73,1296,617.42,1296Z" opacity="0.21"/><path d="M753.1,1568.69a8,8,0,0,1,2.82,4.23,8.12,8.12,0,0,1-.47,5.41,71.84,71.84,0,0,1-12.71,8c-22.61,11.11-44.26,6.79-48.46,5.88-6.48-1.41-21.51-4.68-32.46-16-3.14-3.24-7.84-9.1-16.94-17.4-3.47-3.17-6.45-5.66-8.47-7.3L635,1558.1q-8.88-3.37-18.35-7.53-7.1-3.13-13.64-6.35l1.41-15.53a46.6,46.6,0,0,1,1.17-22.82c2.58-8.12,8.61-18.85,13.41-18.11,4,.61,3.62,8.53,9.18,10.82,4.56,1.88,10.2-1.22,14.35-4.23l9.64,16.15a113.64,113.64,0,0,1-5.88-11.57c-1-2.29-1.31-3.23-1.29-4.46.08-5.4,6.3-9.11,7.41-9.77,7.11-4.23,14.9-2.27,16.35-1.88,4.88,1.32,8.46,4.07,15.17,11.41,10,11,13,16.81,24.47,30.7,7.1,8.59,9.84,11,13.41,13.17,2.48,1.49,7.33,3.29,16.94,6.83,10.6,3.9,13.74,4.81,16.23,8.46.69,1,3.66,5.37,2.12,10.12A10.48,10.48,0,0,1,753.1,1568.69Z" fill="#6f5e56"/><path d="M753.1,1568.69a68.64,68.64,0,0,1-17.18,9.17,67.44,67.44,0,0,1-26.82,4,66.65,66.65,0,0,1-30.81-10.12c-8.91-5.63-7.36-7.69-20.71-19-9-7.69-17.11-14.45-28.93-19.06a74.32,74.32,0,0,0-24.23-4.94L603,1544.22l32,13.88,1.41-6.76c2.69,2.29,6.79,5.89,11.59,10.52,10.46,10.1,11.68,13,17.27,17.57,9.82,8,20.15,10.61,26,12.08a79.23,79.23,0,0,0,31.84,1.09,67.61,67.61,0,0,0,21.8-7.21,65.39,65.39,0,0,0,10.51-7.06,8,8,0,0,0,.41-5.88A7.76,7.76,0,0,0,753.1,1568.69Z"/><path d="M751.37,1574.41c.11.26-15.71,10.94-37,11.61-4,.12-22.1.32-36.7-9.26a137.43,137.43,0,0,1-11.29-8.62c-6.1-5.13-8.4-7.89-12.24-11.45a105.57,105.57,0,0,0-23.52-16.16,128.28,128.28,0,0,0-24.15-9.88c18.78,2.57,30.27,9,36.38,13.18,5.68,3.91,11.45,8.94,11.45,8.94,8.23,7.17,10.17,10.6,16.94,16a73.17,73.17,0,0,0,14.11,8.94c16.85,8,33.43,5.74,40.47,4.71A86,86,0,0,0,751.37,1574.41Z" fill="#4d4d4d"/><path d="M738.75,1544.93c-9,12.5-23.8,16.85-38.68,15.08-9.79-1.18-18.7-6.33-25.85-12.9-10.51-9.91-17.87-22.94-22.05-36.61,7.79,16.88,18.6,33.47,35.31,42.41,10.22,5.52,22.53,6,33.63,3.07,6.8-1.9,12.68-6,17.64-11Z" fill="#473c38"/><path d="M633.9,1535.83c-.78-12.73-8.38-18.61-18.66-24.47a72.74,72.74,0,0,0-10.19-4.39c7.7,0,15.08,3.35,21.12,8,6.33,4.61,9.84,13.23,7.73,20.81Z" fill="#473c38"/><path d="M714.2,1538.34c-1,.77,1.31,3.46.31,6-.31.79-1.62,3.23-9.09,3.92-12.3,1.14-21.38-4.3-21.8-3.45s6.84,7.15,17.25,9.41c9.27,2,16.14-.3,22.27-2.35,3.48-1.17,5.38-2.25,5.49-3.61.09-1.16-1.17-2-6.9-5.8C716.53,1538.92,714.91,1537.77,714.2,1538.34Z" fill="#968077"/><path d="M704.63,1517a20,20,0,0,0-13.17-3.14c-10.91,1.39-15.73,11.93-16,12.55" fill="none" stroke="#473c38" stroke-linecap="round" stroke-miterlimit="10" stroke-width="3.92"/><path d="M699.77,1509.17A20,20,0,0,0,686.6,1506c-10.91,1.39-15.73,11.93-16,12.55" fill="none" stroke="#473c38" stroke-linecap="round" stroke-miterlimit="10" stroke-width="3.92"/><path d="M693.81,1501a20,20,0,0,0-13.17-3.13c-10.91,1.39-15.73,11.92-16,12.54" fill="none" stroke="#473c38" stroke-linecap="round" stroke-miterlimit="10" stroke-width="3.92"/><path d="M710.12,1525.64A20,20,0,0,0,697,1522.5c-10.91,1.39-15.73,11.93-16,12.55" fill="none" stroke="#473c38" stroke-linecap="round" stroke-miterlimit="10" stroke-width="3.92"/><path d="M503,622,534.68,612l40,22.44,14.88.24q3.36-2.83,7.08-5.64a170.46,170.46,0,0,1,31.92-19q19.1,8.26,40.08,16.32,20.74,7.92,40.32,14.4c14.73,13.78,19.64,26.48,21.6,34.56,8.5,35-20.47,56.53-37.44,121.68-4.4,16.87-5.94,28.82-8.64,49.68a564.62,564.62,0,0,0-2.88,118.08q-28.21-2.91-56.44-5.89-29.29-3.09-58.58-6.26l-95.22,10C475.71,901.47,468,854,459.8,821.48c-20-80-60.12-139.89-36-166.32,8.43-9.23,26.45-16.31,41.76-22.32A210,210,0,0,1,503,622Z" fill="#534741"/><g id="collar"><path id="color" d="M514.76,629.63l0,.08c5.1,7.61,8.94,15.54,13.1,23.4,3.27,6.17,6.53,12.34,9.27,18.61a170,170,0,0,1,9.23-18.79c4.74-8.17,9.75-17.91,17.93-24.93.07-.12.14-.24.22-.35L536,604.13A329.51,329.51,0,0,0,514.76,629.63Zm127.06.81c-6.09-9.2-11.6-18.59-16.75-28.08L593.89,629l.06.09c.49.46,1,.93,1.43,1.4,3.43,2.92,5.62,6.79,7.89,10.16a105.34,105.34,0,0,1,7.92,13.83,89.45,89.45,0,0,1,5.55,15.18l.42.67c11-16.25,24.8-39.51,24.8-39.51Z" fill="#534741"/><g id="effects"><path d="M607,623.81c1.63-7.29,11.29-12.4,15.35-19.08L593.89,629l.06.09c.49.46,1,.93,1.43,1.4,3.43,2.92,5.62,6.79,7.89,10.16a105.34,105.34,0,0,1,7.92,13.83c.95,2,1.8,4,2.58,6.1,2.27-8.46.56-12.88-1-19.67C610.82,632.64,606.7,624.91,607,623.81Z" fill="#534741"/><path d="M640.68,630.38c-6-9.07-10.95-16.89-16-26.25-3,3.63-5.54,5.75-8.85,9.2,4.14,4.27,7.29,11.39,8.19,14,4.36,12.8.08,25.19-9.26,35.86.75,2.13,1.45,4.26,2,6.42.14.22,23.94-39.25,23.94-39.25Z" opacity="0.1"/><path d="M536,604.13l-.11.13,0,0c3.25,4.14,5.15,7.09,8.83,10.87,2,2.09,3.29,3.32,4.12,5.87.55,1.71,1.38,6.33-1.65,12-3.88,7.18-7.77,16.68-8.78,24.43a39.41,39.41,0,0,0,.38,10.68,159.51,159.51,0,0,1,7.64-15.17c4.74-8.17,9.75-17.91,17.93-24.93.07-.12.14-.24.22-.35Z" fill="#534741"/><path d="M527.49,621.05a47.19,47.19,0,0,1,9.14-15.14,3.22,3.22,0,0,1-.46-.34c-7.38,8.07-13.76,15.34-20.13,23.82,0,0,7.86,13.84,12,21.69,3.28,6.18,6.59,13.19,9.33,19.46.29-.7,1.07-1.77,1.38-2.47a195.17,195.17,0,0,1-11.71-26.63C524.55,634.27,525.14,627.6,527.49,621.05Z" opacity="0.1"/></g><path d="M536,604.13l28.6,23.52,6,6.46-1.68,0-4.88-3S544.67,658,537.18,671.72c0,0,10.45-29.07,22.07-43.29Z" fill="#534741"/><path d="M625.07,602.36l-31,25.29-3.9,6.33h1.42l3-2.83S606,641.75,617.16,670.3c0,0-6.12-27.65-17.74-41.87Z" fill="#534741"/></g><g id="collar-2" data-name="collar" opacity="0.5" style="mix-blend-mode:overlay"><path id="color-2" data-name="color" d="M514.76,629.63l0,.08c5.1,7.61,8.94,15.54,13.1,23.4,3.27,6.17,6.53,12.34,9.27,18.61a170,170,0,0,1,9.23-18.79c4.74-8.17,9.75-17.91,17.93-24.93.07-.12.14-.24.22-.35L536,604.13A329.51,329.51,0,0,0,514.76,629.63Zm127.06.81c-6.09-9.2-11.6-18.59-16.75-28.08L593.89,629l.06.09c.49.46,1,.93,1.43,1.4,3.43,2.92,5.62,6.79,7.89,10.16a105.34,105.34,0,0,1,7.92,13.83,89.45,89.45,0,0,1,5.55,15.18l.42.67c11-16.25,24.8-39.51,24.8-39.51Z" fill="#fff"/><g id="effects-2" data-name="effects"><path d="M607,623.81c1.63-7.29,11.29-12.4,15.35-19.08L593.89,629l.06.09c.49.46,1,.93,1.43,1.4,3.43,2.92,5.62,6.79,7.89,10.16a105.34,105.34,0,0,1,7.92,13.83c.95,2,1.8,4,2.58,6.1,2.27-8.46.56-12.88-1-19.67C610.82,632.64,606.7,624.91,607,623.81Z" fill="#fff"/><path d="M640.68,630.38c-6-9.07-10.95-16.89-16-26.25-3,3.63-5.54,5.75-8.85,9.2,4.14,4.27,7.29,11.39,8.19,14,4.36,12.8.08,25.19-9.26,35.86.75,2.13,1.45,4.26,2,6.42.14.22,23.94-39.25,23.94-39.25Z" fill="#fff" opacity="0.1"/><path d="M536,604.13l-.11.13,0,0c3.25,4.14,5.15,7.09,8.83,10.87,2,2.09,3.29,3.32,4.12,5.87.55,1.71,1.38,6.33-1.65,12-3.88,7.18-7.77,16.68-8.78,24.43a39.41,39.41,0,0,0,.38,10.68,159.51,159.51,0,0,1,7.64-15.17c4.74-8.17,9.75-17.91,17.93-24.93.07-.12.14-.24.22-.35Z" fill="#fff"/><path d="M527.49,621.05a47.19,47.19,0,0,1,9.14-15.14,3.22,3.22,0,0,1-.46-.34c-7.38,8.07-13.76,15.34-20.13,23.82,0,0,7.86,13.84,12,21.69,3.28,6.18,6.59,13.19,9.33,19.46.29-.7,1.07-1.77,1.38-2.47a195.17,195.17,0,0,1-11.71-26.63C524.55,634.27,525.14,627.6,527.49,621.05Z" fill="#fff" opacity="0.1"/></g><path d="M536,604.13l28.6,23.52,6,6.46-1.68,0-4.88-3S544.67,658,537.18,671.72c0,0,10.45-29.07,22.07-43.29Z" fill="#fff"/><path d="M625.07,602.36l-31,25.29-3.9,6.33h1.42l3-2.83S606,641.75,617.16,670.3c0,0-6.12-27.65-17.74-41.87Z" fill="#fff"/></g><g opacity="0.54"><path d="M562.47,1064.85c-.27-.87,9.65-7,21.64-6.64a37.71,37.71,0,0,1,21.16,7.74,69.61,69.61,0,0,0-23.42-3.68C570.34,1062.48,562.7,1065.59,562.47,1064.85Z" opacity="0.21"/><path d="M586.1,976.25q-.15,83.05-.32,83.06s-.09-3.9-.13-11.7A14.81,14.81,0,0,1,571,1034.16q-.31-33.68-.64-67.35l15.82-.66Z" opacity="0.21"/></g><path id="belt_color" data-name="belt color" d="M526.63,972.47c21.69.94,43.4,1.24,65.09,2.25l5.73.25c15.59.64,28.37.34,40.88,0,17.09-.44,32.57-1,46.35-1.46a27.83,27.83,0,0,0-3.24-22.68,582.38,582.38,0,0,1-67.2,3.66c-18.1-.06-30.9-.93-46.89-1.89-22.56-1.35-54.78-3.05-95-4.41a19.74,19.74,0,0,0-3.6,21.6,233.78,233.78,0,0,1,31.35.84c.76.08,1.62.23,3.17.33C511.09,971.5,518.85,972.13,526.63,972.47Z"/><g id="effects-3" data-name="effects"><path id="belt_effect" data-name="belt effect" d="M638.56,963.28c5.86-.2,11.71-.81,17.57-.88,6.13-.07,13.13,0,19.24,2.12q-.69-6.63-1.37-13.26a349.27,349.27,0,0,1-41.58,3.42c-9.3.2-17,0-22.86-.18-16-.45-27.89-1.43-32.58-1.8-14.66-1.17-37.68-2.76-76.73-5q-1,6.45-2,12.91c12.87,3.42,24.86,1.58,38-.4,10.19-1.53,20.47-2.06,29.12,4.79a43.54,43.54,0,0,0,6.41-2.68A37.49,37.49,0,0,1,582.92,959a73.92,73.92,0,0,1,31.37,2.21C622.39,961.85,630.4,963.56,638.56,963.28Z" fill="#989898" opacity="0.14"/><path d="M539.2,951.55c-1.57-3.24-5.37-3.95-8.26-2.83a6,6,0,0,0-1,2.69c-1.14,6.75-1.32,25.13,0,25.71,0,0,7.13,1.55,8.49.19,2-2,2.72-17.5,1.9-24.67A2.08,2.08,0,0,1,539.2,951.55Z" fill="#989898" opacity="0.2"/><path d="M638.59,978.84c1.3-3.56.1-22.66-.37-23.6s-9.18-1.61-10,.25-.51,21.44,1.18,24.77C629.75,980.92,637.86,980.84,638.59,978.84Z" fill="#989898" opacity="0.2"/></g><g id="clasp"><g clip-path="url(#clip-path)"><g id="clasp-2" data-name="clasp"><path id="color-3" data-name="color" d="M607.62,959.56s.44-3.37-1-5.6c-1.57-2.43-35.84-5-39-2.26-4.66,4.13-1.75,22.55-.92,24.1,1.37,2.57,27.1.77,32.08,0,4.79-.74,6.82-.5,8.23-2.6S607.64,960.21,607.62,959.56Zm-3.6,11.5c-1.12,1.52-2.32,1.28-6.35,1.7s-25.41,1-26.58-.83c-.71-1.14-2.81-14,.82-16.8,2.43-1.9,30.29-.21,31.7,1.58,1.3,1.64,1.17,4.62,1.17,4.62C604.82,961.8,605.13,969.54,604,971.06Z" fill="#8d9197"/><g id="effects-4" data-name="effects"><path d="M603.61,956.71c1.3,1.64,1.17,4.62,1.17,4.62,0,.41.27,6.3-.39,8.82,2.31-3.47,2.3-10.4,0-13.86-5.13-2.66-10.72-2-17.14-2.4-3.8-.25-8.77-.75-12.25.6C583.21,953.81,602.42,955.21,603.61,956.71Zm.7,17.94c-3.79,1.25-8.58.89-12.68,1-4.7.15-9.65.58-14.71.46-7.73-.18-10.41-2.43-10.44-9,0-4.74-1.12-10.85,1.32-15.56,0,0-.11.06-.14.09-4.66,4.13-1.75,22.55-.92,24.1,1.37,2.57,27.1.77,32.08,0,4.77-.74,6.8-.5,8.21-2.58A8.59,8.59,0,0,1,604.31,974.65Z" opacity="0.2"/><path d="M607.62,959.56s.44-3.37-1-5.6-26.17-4.25-35.84-3.1l-.39.34a3.48,3.48,0,0,0-1.14,1.83,50.66,50.66,0,0,0-.44,19.63,6.13,6.13,0,0,0,1.41,1.51,5.57,5.57,0,0,0,1.5.76c7.19.67,14.09.22,20.78-.14,5-.26,11.48.55,15-3.21C608.21,967.89,607.64,960.1,607.62,959.56Zm-2,10.57a3.92,3.92,0,0,1-2.36,1.63c-1,.73-2.41.66-5.64,1-4.18.43-25.41,1-26.58-.83-.58-.92-2.05-9.42-.67-14.23-1.38-6.82,9.94-5.46,14.78-5.08,3.59.28,7.54.19,11.11.67a2.22,2.22,0,0,1,.64,0c2.57.2,5.38.4,7.16,2.17s1.91,4.55,2.2,6.89S607.19,967.88,605.67,970.13Z" fill="#fff" opacity="0.3"/><path d="M607.14,966.74c.11-1.25.23-2.52.3-3.78.2-3.15.64-8.36-2.93-10-5.28-1.43-19.75-2.64-29.21-2.41a16.39,16.39,0,0,0-2,.28A5.9,5.9,0,0,0,569,954.6a50.7,50.7,0,0,0-.54,15.06,11.3,11.3,0,0,0,1.76,3.26,14.37,14.37,0,0,0,5,1.76c4.23.52,8.85,0,12.9-.32,2-.14,4.12-.48,6.15-.69-4,.13-8.25.33-12.57.25a34.1,34.1,0,0,1-8.29-.85,4.29,4.29,0,0,1-3.3-1.77c-1.37-2.14-1.15-5.42-1.05-7.83.1-2.16-.06-5.35,1-7.78h0c1.59-7.71,20.31-4.09,25.25-3.58,3.75.39,7.71.79,9.79,3.75a10.87,10.87,0,0,1,1.54,6.95,13.56,13.56,0,0,1,.11,2.63.53.53,0,0,1-.05.18,11.13,11.13,0,0,1-1.06,5.67,3.71,3.71,0,0,0,.54-.44,6.45,6.45,0,0,0,.8-1.44C607.08,968.51,607.07,967.55,607.14,966.74Z" fill="#fff" opacity="0.5"/><path d="M568,963.05a1.84,1.84,0,0,0-1.73.91,1.51,1.51,0,0,0,.34,1.78,4.22,4.22,0,0,0,2.64.82l6.58.51a5.89,5.89,0,0,0,1.11,0,2.26,2.26,0,0,0,2-2.53,1.69,1.69,0,0,0-1.23-1.33,2.72,2.72,0,0,0-.9,0c-3,.24-5.58-.4-8.78-.15" opacity="0.15"/></g><path id="color-4" data-name="color" d="M577.89,963.44a2.06,2.06,0,0,1,.53,1.27A1.43,1.43,0,0,1,578,966a2.31,2.31,0,0,1-1.63.32l-7.94-.36a2.86,2.86,0,0,1-1.86-.53,1.35,1.35,0,0,1,.24-2,4.63,4.63,0,0,1,2.32-.75,27,27,0,0,1,8.09.23" fill="#8d9197"/><g id="effects-5" data-name="effects"><path d="M570.63,964.62a27.76,27.76,0,0,0,3.76,0c.49,0,1.93-.16,2.25-.61s0-.87-.26-1.27a27.37,27.37,0,0,0-7.24-.11,4.63,4.63,0,0,0-2.32.75,1.62,1.62,0,0,0-.56,1C567.72,964.37,569.24,964.55,570.63,964.62Z" fill="#fff" opacity="0.3"/><path d="M576.61,963.14a1.9,1.9,0,0,0-.23-.39,27.37,27.37,0,0,0-7.24-.11,4.63,4.63,0,0,0-2.32.75,1.75,1.75,0,0,0-.33.39A30.39,30.39,0,0,1,576.61,963.14Z" fill="#fff" opacity="0.5"/><path d="M577,964.73c-1.32.82-3.09.74-4.69.65a57.26,57.26,0,0,1-5.94-.38,1.11,1.11,0,0,0,.26.39,2.86,2.86,0,0,0,1.86.53l7.94.36A2.31,2.31,0,0,0,578,966a1.43,1.43,0,0,0,.41-1.25,2.06,2.06,0,0,0-.53-1.27l-.5-.43A1.23,1.23,0,0,1,577,964.73Z" opacity="0.2"/></g></g></g></g><g id="belt_loops" data-name="belt loops"><path id="belt_loop_color" data-name="belt loop color" d="M538.4,948c-2.27-.66-8.11-4.37-9.24,2.38s-1.33,25.13,0,25.71c0,0,7.12,1.56,8.48.19C540.11,973.79,540.67,948.69,538.4,948Zm98.79,5.48c-.46-.93-9.2-1.63-10,.25s-.71,21.66,1,25c.33.66,8.48.59,9.23-1.43C638.69,973.76,637.66,954.46,637.19,953.51Z" fill="#141414"/><path id="belt_loops_effect" data-name="belt loops effect" d="M538.4,948c-2.25-.65-8-4.27-9.2,2.17a1.67,1.67,0,0,1,2.14.5c5,6.46,4.68,17.84,2.26,26.1,1.71.15,3.4.11,4-.49C540.11,973.79,540.67,948.69,538.4,948Zm98.79,5.48c-.46-.93-9.2-1.63-10,.25a11.26,11.26,0,0,0-.37,2.71,2.86,2.86,0,0,1,.81-.73,2,2,0,0,1,1.84-.18,1.28,1.28,0,0,1,1.37.31c2.56,3,3.07,8,2.64,13.59,0,3.15-.15,6.44-.19,9.54,1.94-.24,3.75-.75,4.09-1.65C638.69,973.76,637.66,954.46,637.19,953.51Z" opacity="0.1"/></g><rect x="574.64" y="634.4" width="16.2" height="317.4" opacity="0.1"/><path d="M665,777.56l-30.6,14.76-32-14.76.36-55.08H665Z" opacity="0.1"/><path d="M665,722.48H602.72l-.36-13.32,62.88-.72Z" opacity="0.29"/><path d="M530.36,615.56c-14.87,3.75-27.39,7-36.72,9.36-51,13.15-67.34,18-71.76,30.72-1.26,3.64-.62,8.08.72,16.8,5.93,38.66,8.94,58,9,58.39,7.28,30.6,19.28,94.8,21.69,151.13.38,8.91.5,17.11.45,24.73-.19,25.26-2,43.87-2.61,49.79-2.72,27.76-17,187.67-36.72,407.88q32.55-1,66.17-1.34,34.42-.37,67.75-.1c1.57-240.22,3-416.51,6.48-504.72,1-25.07,3.9-86.47-8.64-166.32C540.94,658.4,534.54,631.65,530.36,615.56Z"/><path d="M430,664.47a318.45,318.45,0,0,0,14.35,52c10.52,28.47,17.79,35.34,31.38,68.8,12.91,31.78,20.23,59.74,18.83,60.4-.86.41-5.83-9.24-12-21.14-4.32-8.41-5.74-11.71-6.57-11.41-2,.72,5.16,20.59,3.59,48-.43,7.42-1.17,9.63-2.11,15.75-.51,3.33-.75,5.62-.88,6.73-2.17,18.2-8.42,51.16-8.42,51.16-3.73,19.63-13.21,67.75-26.64,132,2-30.42,4.25-54.93,6-71.76,2.26-21.81,3.93-34,5-55.44,1.29-25,.83-43.63.72-47.76a616.08,616.08,0,0,0-7-75.12c-3.71-23.91-8.23-47.1-8.23-47.1-1.33-6.79-2-9.89-3.06-16.18-2.17-13.31-3.35-24.53-4.78-38.26-1.48-14.17-1.9-21.21-1.8-29.19A189.78,189.78,0,0,1,430,664.47Z" fill="#333"/><path d="M629.72,612.5c5,2.12,13.19,5.47,23.4,9.18,46.33,16.85,60.24,14.14,70.56,24.48,11.42,11.44,7.66,28.09-2.43,85.68-17,97.33-20.32,128.94-21.69,145.8-.71,8.74-1.17,16.75-1.45,24.33-1.1,29.94,0,52,.37,58.83,1.57,30.89,7.38,186.71,15.48,402.12l-116.64-5.76,11.52-581A539.28,539.28,0,0,1,629.72,612.5Z"/><path d="M722.89,665.48a318.45,318.45,0,0,1-14.35,52C698,746,690.75,752.82,677.16,786.28c-12.91,31.78-20.23,59.75-18.83,60.41.86.41,5.83-9.25,12-21.14,4.32-8.41,5.74-11.71,6.57-11.41,2,.71-5.16,20.59-3.59,48,.43,7.43,1.17,9.64,2.11,15.75.51,3.38.76,5.71.88,6.74,2.43,20.47,8.9,51,8.9,51,3.18,15,8.5,46.95,18,118.44-1.38-36.79-2.85-65.7-4-85.68-1-17.12-1.9-32.3-1.44-54,.41-19.32,1.73-34.56,2.52-43.56,1.93-21.88,4.35-38.09,6.84-54.72,1.48-9.9,3.81-25.48,7.63-45.49,1.5-7.84,2-9.85,3.06-16.19,2.17-13.3,3.35-24.53,4.78-38.25,1.48-14.17,1.9-21.21,1.8-29.2A189.76,189.76,0,0,0,722.89,665.48Z" fill="#333"/><path d="M406.56,974.12c2-5.61,1.09-9.35.52-11-3-8.49-15.47-13.93-30.48-11.15q-1.47,6.11-2.92,12.19Z" fill="#534741"/><path d="M393.21,965.3c1.59.59,5,1.86,9.59,3.25,3.3,1,6,1.66,7.87,2.09l5.82-16.72c5.87-19.77,9.93-36,12.52-47,5.95-25.32,4.46-27,11-50,5.63-20,9.26-34.27,11.59-43.94.58-2.4,1.49-6.45,3.1-11.88,2.86-9.63,5.94-17,9.76-27.62,9.63-26.85,16-44.05,17.64-65.83,1.47-19.33,3.08-40.43-8.53-54.31-11.36-13.6-31.91-16.11-44.84-6.17a24.36,24.36,0,0,0-2.79,2.57c-8.29,8.46-13.54,20.34-17.21,45.19-.85,5.74-1.56,14.44-3,31.83-1.7,20.94-1.54,23.36-2.74,35.14-1,9.93-1.79,14.53-4.8,35.13-1.5,10.31-3.72,25.68-6.39,44.8a276,276,0,0,0-6.35,29.66c-2,12.68-2.15,19.65-4.11,37.62-1.35,12.36-2.72,22.37-3.65,28.79q-2.74,10-5.48,20C382.14,961.25,388.75,963.64,393.21,965.3Z"/><path d="M441.34,824.14a265.54,265.54,0,0,0-11,46.21c-3.68,22.86-9.75,56.12-20.28,101.45a612.56,612.56,0,0,0,24.16-84q3.35-15.85,5.71-30.89c3.6-13,6.35-23.58,8.22-30.89,2.49-9.77,3.43-13.89,5.4-20.83,3.29-11.6,6.54-20.84,8.75-26.8A241.81,241.81,0,0,0,441.34,824.14Z" fill="#333"/><path d="M735.15,974.66c-1.79-5.68-.61-9.33.07-10.91,3.56-8.25,16.61-13,31.86-9.38l2.31,12.25Z" fill="#534741"/><path d="M749.32,966.64c-1.66.5-5.18,1.58-10,2.7-3.43.79-6.29,1.32-8.19,1.64q-2.52-8.44-5-16.9c-4.93-19.92-8.2-36.25-10.25-47.3-4.71-25.43-3.09-27-8.49-50.17-4.68-20.1-7.62-34.48-9.47-44.2-.46-2.41-1.18-6.48-2.53-11.95-2.41-9.7-5.16-17.15-8.49-27.93-8.4-27.15-14-44.55-14.47-66.24-.45-19.24-.94-40.25,11.71-53.38,12.39-12.85,33.6-14.22,46.31-3.66a24.52,24.52,0,0,1,2.71,2.7c8,8.85,12.77,20.92,15.18,45.76.55,5.74.8,14.4,1.29,31.73.6,20.85.29,23.24.89,35,.5,9.9,1,14.51,3,35.1,1,10.3,2.41,25.66,4.09,44.77a264.4,264.4,0,0,1,4.88,29.76c1.34,12.68,1.13,19.6,2.15,37.52.71,12.34,1.57,22.34,2.17,28.76q2.26,10,4.52,20.1C760.89,963.24,754,965.24,749.32,966.64Z"/><path d="M707.72,824a255.35,255.35,0,0,1,8.7,46.42c2.52,22.87,6.91,56.18,15.22,101.7a591.78,591.78,0,0,1-20.15-84.61q-2.57-15.9-4.16-30.94c-3-13.08-5.22-23.73-6.73-31.08-2-9.82-2.76-14-4.4-20.95-2.74-11.69-5.56-21-7.5-27.05A236.13,236.13,0,0,1,707.72,824Z" fill="#333"/></g></g></g></svg>