<svg xmlns="http://www.w3.org/2000/svg" viewBox="0 0 1080 1920"><g style="isolation:isolate"><g id="costumes"><g id="_19" data-name="19"><path d="M417.58,1541.45c-.49-3-1.47-11.36,3.68-17.79,4.25-5.3,10.58-6.63,18.39-8.27a60.6,60.6,0,0,1,15.33-1.23l12.57-17.78q9-12.75,18.09-25.45c-.2-.56-1.77-5.13.92-9.2a9.91,9.91,0,0,1,4.6-3.68q-2.3-12.57-4.6-25.14a60.07,60.07,0,0,1,59.48-3.07q-.3,22.4-.61,44.77A65,65,0,0,1,558,1517.84a15.53,15.53,0,0,1,4.29,4.6c1.88,3.11,2.21,6.27,2.76,12.26.19,2,.27,3.75.31,4.91L535.31,1554a10.7,10.7,0,0,0-11-4.91c-5.07,1.11-8.78,6.41-8,12.26a146.8,146.8,0,0,1-23.61,9.82c-11,3.5-23.22,7.37-38.32,6.43a80.87,80.87,0,0,1-39.25-13.49q-.09-11.13-.2-22.28Z" fill="#42210b"/><path d="M414.92,1549.93a84.69,84.69,0,0,0,56.59,8.93c12.83-2.16,24.56-8.13,35.79-14.46,5.8-3.14,10.85-7.32,16.65-10.57a100.8,100.8,0,0,1,37.73-12.31,126.75,126.75,0,0,0-36,15.16c-5.51,3.52-10.63,7.86-16.34,11.2a182.19,182.19,0,0,1-17.74,9.27c-24.53,10.65-54.95,8.94-76.67-7.22Z" fill="#2d1407"/><path d="M485.64,1470.93c5.31-1.19,14.61,0,17.83,5.12,1.58,2.34.95,5.81,1.52,8.12,2.26,10.28,7.41,11.31,16.94,9.61a92.85,92.85,0,0,0,28.91-10.28,56.46,56.46,0,0,1-22.94,12.82c-8.79,2.85-21.15,5-25.14-6.07a21.12,21.12,0,0,1-1.62-8.34c.18-2.34.26-4.41-1.56-6-3.74-3.08-9-4.66-13.94-4.94Z" fill="#2d1407"/><path d="M414.92,1553.2a72.83,72.83,0,0,0,26.16,11c15.54,3.16,28,.28,36-1.64A104.33,104.33,0,0,0,505.67,1551c3.39-2,6.52-4.21,15.13-9.4,4.82-2.91,9.74-5.88,13.28-7.77a93.91,93.91,0,0,1,29.23-9.61" fill="none" stroke="#fff" stroke-miterlimit="10" stroke-width="0.85" stroke-dasharray="2.78" opacity="0.44"/><path d="M482.17,1475.12a27.37,27.37,0,0,1,7.56,1.63c2.9,1.09,4.92,1.84,6.54,3.68,2.44,2.78,1.13,4.77,3.48,10.63,1,2.49,2,5.07,4.29,7.16,1,.91,3.68,3.08,10.42,3.67,1.73.16,9.41.7,21.26-4.08a74.39,74.39,0,0,0,17.17-9.81" fill="none" stroke="#fff" stroke-miterlimit="10" stroke-width="0.85" stroke-dasharray="2.78" opacity="0.44"/><path d="M419.42,1527a47.45,47.45,0,0,0,14.1,14.51c19,12.46,40.63,6.24,44.35,5.11a50.34,50.34,0,0,1-60.29-5.21,22.55,22.55,0,0,1,1.84-14.41Z" fill="#2d1407"/><path d="M431.91,1531.48c-.48.33.68,4.28,3.76,6.67,3.34,2.6,7.86,2.52,8,1.92s-3.22-1.28-7.58-4.83C433.32,1533,432.26,1531.25,431.91,1531.48Z" fill="#663114"/><path d="M446.7,1540.37c-.16.84,5.89,2.87,11.12,3.84,7.35,1.36,11,.25,12.19-.16,2.7-.93,5.92-2.77,5.67-3.68s-5.16.07-13.88.23C452.07,1540.79,446.86,1539.6,446.7,1540.37Z" fill="#663114"/><path d="M546,1429.84q-3,24-6,48a54.79,54.79,0,0,1,9.35,26.21c.34,4.58.64,9.54-2.14,14.87A23.69,23.69,0,0,1,536.54,1529a83.36,83.36,0,0,1,25.14-7.51,17.15,17.15,0,0,0-3.85-3.82c.12-1,.26-2.41.32-4.1a52.15,52.15,0,0,0-.59-9.43,70.71,70.71,0,0,0-5-17.4,64.12,64.12,0,0,0-7.15-12.16Q545.73,1452.23,546,1429.84Z" fill="#2d1407"/><path d="M744.62,1548.85c.49-2.95,1.46-11.36-3.68-17.79-4.25-5.3-10.58-6.63-18.4-8.27a60.53,60.53,0,0,0-15.32-1.23q-6.29-8.89-12.58-17.78-9-12.75-18.08-25.45c.2-.56,1.77-5.13-.92-9.2a10,10,0,0,0-4.6-3.68q2.3-12.57,4.6-25.14a60.07,60.07,0,0,0-59.48-3.07q.3,22.4.61,44.77a64.82,64.82,0,0,0-12.57,43.23,15.53,15.53,0,0,0-4.29,4.6c-1.89,3.11-2.21,6.27-2.76,12.26-.19,2.05-.27,3.75-.31,4.91l30,14.41a10.69,10.69,0,0,1,11-4.91c5.08,1.11,8.79,6.41,8,12.26a146.63,146.63,0,0,0,23.6,9.82c11,3.5,23.23,7.37,38.33,6.43a80.79,80.79,0,0,0,39.24-13.49l.21-22.28Z" fill="#42210b"/><path d="M747.28,1557.33c-21.73,16.16-52.14,17.87-76.68,7.22a182,182,0,0,1-17.73-9.27c-5.71-3.34-10.83-7.68-16.34-11.2a127,127,0,0,0-36-15.16,100.75,100.75,0,0,1,37.72,12.31c5.8,3.25,10.86,7.43,16.66,10.57,11.23,6.33,23,12.3,35.79,14.46a84.69,84.69,0,0,0,56.59-8.93Z" fill="#2d1407"/><path d="M676.56,1478.33c-5,.28-10.21,1.86-13.94,4.94-1.83,1.63-1.74,3.7-1.56,6a21,21,0,0,1-1.63,8.34c-4,11.11-16.35,8.92-25.13,6.07a56.56,56.56,0,0,1-22.95-12.82,93,93,0,0,0,28.92,10.28c9.55,1.7,14.67.67,16.93-9.61.58-2.3-.05-5.78,1.53-8.12,3.21-5.08,12.52-6.31,17.83-5.12Z" fill="#2d1407"/><path d="M747.28,1560.6a72.81,72.81,0,0,1-26.17,11c-15.53,3.16-28,.28-36-1.64a104.36,104.36,0,0,1-28.62-11.65c-3.38-2-6.51-4.21-15.12-9.4-4.82-2.91-9.75-5.88-13.29-7.77a93.81,93.81,0,0,0-29.23-9.61" fill="none" stroke="#fff" stroke-miterlimit="10" stroke-width="0.85" stroke-dasharray="2.78" opacity="0.44"/><path d="M680,1482.52a27.37,27.37,0,0,0-7.56,1.63c-2.91,1.09-4.92,1.84-6.54,3.68-2.44,2.78-1.13,4.77-3.48,10.63-1,2.49-2,5.07-4.29,7.16-1,.91-3.68,3.08-10.42,3.67-1.73.16-9.41.7-21.26-4.08a74,74,0,0,1-17.17-9.81" fill="none" stroke="#fff" stroke-miterlimit="10" stroke-width="0.85" stroke-dasharray="2.78" opacity="0.44"/><path d="M742.78,1534.44a47.57,47.57,0,0,1-14.1,14.51c-19,12.46-40.63,6.24-44.36,5.11a50.36,50.36,0,0,0,60.3-5.21,22.55,22.55,0,0,0-1.84-14.41Z" fill="#2d1407"/><path d="M730.29,1538.88c.48.33-.69,4.28-3.76,6.67-3.34,2.6-7.86,2.52-8,1.92s3.23-1.28,7.59-4.83C728.87,1540.36,729.94,1538.65,730.29,1538.88Z" fill="#663114"/><path d="M715.49,1547.77c.17.84-5.89,2.87-11.11,3.84-7.35,1.36-11,.25-12.19-.16-2.7-.93-5.93-2.77-5.67-3.68s5.15.07,13.87.23C710.13,1548.19,715.34,1547,715.49,1547.77Z" fill="#663114"/><path d="M616.16,1437.24l6,48a55,55,0,0,0-9.35,26.21c-.33,4.58-.63,9.54,2.15,14.87a23.64,23.64,0,0,0,10.73,10.12,83.36,83.36,0,0,0-25.14-7.51,16.86,16.86,0,0,1,1.67-2,17.5,17.5,0,0,1,2.17-1.86c-.12-1-.26-2.41-.31-4.1a52.74,52.74,0,0,1,.58-9.43,71.19,71.19,0,0,1,5-17.4,63.71,63.71,0,0,1,7.16-12.16Q616.45,1459.63,616.16,1437.24Z" fill="#2d1407"/><path d="M503,622,534.68,612l40,22.44,14.88.24q3.36-2.83,7.08-5.64a170.46,170.46,0,0,1,31.92-19q19.1,8.26,40.08,16.32,20.74,7.92,40.32,14.4c14.73,13.78,19.64,26.48,21.6,34.56,8.5,35-20.47,56.53-37.44,121.68-4.4,16.87-5.94,28.82-8.64,49.68a564.62,564.62,0,0,0-2.88,118.08q-28.21-2.91-56.44-5.89-29.29-3.09-58.58-6.26l-95.22,10C475.71,901.47,468,854,459.8,821.48c-20-80-60.12-139.89-36-166.32,8.43-9.23,26.45-16.31,41.76-22.32A210,210,0,0,1,503,622Z" fill="#534741"/><g id="collar"><path id="color" d="M514.76,629.63l0,.08c5.1,7.61,8.94,15.54,13.1,23.4,3.27,6.17,6.53,12.34,9.27,18.61a170,170,0,0,1,9.23-18.79c4.74-8.17,9.75-17.91,17.93-24.93.07-.12.14-.24.22-.35L536,604.13A329.51,329.51,0,0,0,514.76,629.63Zm127.06.81c-6.09-9.2-11.6-18.59-16.75-28.08L593.89,629l.06.09c.49.46,1,.93,1.43,1.4,3.43,2.92,5.62,6.79,7.89,10.16a105.34,105.34,0,0,1,7.92,13.83,89.45,89.45,0,0,1,5.55,15.18l.42.67c11-16.25,24.8-39.51,24.8-39.51Z" fill="#534741"/><path id="color-2" data-name="color" d="M514.76,629.63l0,.08c5.1,7.61,8.94,15.54,13.1,23.4,3.27,6.17,6.53,12.34,9.27,18.61a170,170,0,0,1,9.23-18.79c4.74-8.17,9.75-17.91,17.93-24.93.07-.12.14-.24.22-.35L536,604.13A329.51,329.51,0,0,0,514.76,629.63Zm127.06.81c-6.09-9.2-11.6-18.59-16.75-28.08L593.89,629l.06.09c.49.46,1,.93,1.43,1.4,3.43,2.92,5.62,6.79,7.89,10.16a105.34,105.34,0,0,1,7.92,13.83,89.45,89.45,0,0,1,5.55,15.18l.42.67c11-16.25,24.8-39.51,24.8-39.51Z" fill="#fff" opacity="0.5" style="mix-blend-mode:overlay"/><g id="effects"><path d="M607,623.81c1.63-7.29,11.29-12.4,15.35-19.08L593.89,629l.06.09c.49.46,1,.93,1.43,1.4,3.43,2.92,5.62,6.79,7.89,10.16a105.34,105.34,0,0,1,7.92,13.83c.95,2,1.8,4,2.58,6.1,2.27-8.46.56-12.88-1-19.67C610.82,632.64,606.7,624.91,607,623.81Z" fill="#fff" opacity="0.5"/><path d="M640.68,630.38c-6-9.07-10.95-16.89-16-26.25-3,3.63-5.54,5.75-8.85,9.2,4.14,4.27,7.29,11.39,8.19,14,4.36,12.8.08,25.19-9.26,35.86.75,2.13,1.45,4.26,2,6.42.14.22,23.94-39.25,23.94-39.25Z" opacity="0.1"/><path d="M536,604.13l-.11.13,0,0c3.25,4.14,5.15,7.09,8.83,10.87,2,2.09,3.29,3.32,4.12,5.87.55,1.71,1.38,6.33-1.65,12-3.88,7.18-7.77,16.68-8.78,24.43a39.41,39.41,0,0,0,.38,10.68,159.51,159.51,0,0,1,7.64-15.17c4.74-8.17,9.75-17.91,17.93-24.93.07-.12.14-.24.22-.35Z" fill="#fff" opacity="0.5"/><path d="M527.49,621.05a47.19,47.19,0,0,1,9.14-15.14,3.22,3.22,0,0,1-.46-.34c-7.38,8.07-13.76,15.34-20.13,23.82,0,0,7.86,13.84,12,21.69,3.28,6.18,6.59,13.19,9.33,19.46.29-.7,1.07-1.77,1.38-2.47a195.17,195.17,0,0,1-11.71-26.63C524.55,634.27,525.14,627.6,527.49,621.05Z" opacity="0.1"/></g></g><path d="M453.32,874.76A260.71,260.71,0,0,0,506.6,715.88l140.16,1.44c3.14,20.12,7.47,41.84,13.44,64.8a664.47,664.47,0,0,0,32.16,94.08l-1,59.52c3.66,17.11,8.66,43.13,12.48,75.12,4.15,34.75,3,43.63,5.76,141.12,2,69.68,3.36,92.17-.72,131.76-2.19,21.27-5.06,38.7-7.2,50.4a103.39,103.39,0,0,1,.72,46.8,102.09,102.09,0,0,1-10.32,27.36L682,1439.48q-12.33,0-25,.24-22.32.4-43.68,1.44a307.89,307.89,0,0,1-13.2-89.4c-.05-17-.55-42.61-2.88-73.8-2.5-33.47-6.78-57.64-7.68-70.56-2.29-32.94-6.31-81.55-13.92-148.8-3.09,59.48-3.08,105.57-2.4,137.76.48,22.53,1.63,54.82-4.32,98.4-2.59,19-5.76,34.5-8.16,45.12a159.51,159.51,0,0,1-12,97.92l-63.12,2.52A355.76,355.76,0,0,1,474,1368.2c-.61-10.44-.72-20.38-.48-29.76a591.4,591.4,0,0,1-16.32-77.28c-3.62-25.39-2.84-31.7-6.24-74.88-7.25-91.92-12.83-89.22-10.08-121.92,2.15-25.58,6.28-35.6,9.6-79.68,1.53-20.3,2.14-37.81,2.4-45.6C453.7,913.39,453.64,891.5,453.32,874.76Z" fill="#1d91c7"/><path d="M451.79,963.53A429.87,429.87,0,0,0,696.28,960q-2.44-12.13-4.88-24.27.2-13.56.42-27.12.25-16,.54-32c-3.83-8.89-8.46-20.2-13.32-33.48-2.67-7.31-9.33-25.93-16.2-50.76a701.86,701.86,0,0,1-16.38-75.06,536.71,536.71,0,0,1,1.44,65.16c-1.09,28.48-4.55,60.26-2,60.66,2.05.32,4.71-19.9,10.08-20,3.2-.05,7,12.15,14.58,36.54,3,9.79,4.7,15.8,5.94,23.76a149.76,149.76,0,0,1,1.62,18.54,158.1,158.1,0,0,1-1.08,23.22,356.68,356.68,0,0,1-38,9.9c-28.36,5.75-50.56,6-93.78,6.12,0,0-44.59.18-64.8-13.86a21.5,21.5,0,0,1-6.84-7.38c-3.19-5.86-2.58-12-1.38-19.5,2.94-18.34,6-27.12,6-27.12,7.45-21.39,19.93-51.07,23.52-49.92.41.13.42.56,1.44,5.28,1.74,8,2.61,12,3.12,12,1.57,0,3-20.57,3.6-29,.35-5.07.92-14.13,1.68-33.36.53-13.55.8-20.33.72-23.52a159.58,159.58,0,0,0-5.52-37.44,271.85,271.85,0,0,1-4.8,47.76,267.12,267.12,0,0,1-14.88,50.64,257.31,257.31,0,0,1-34.32,59.52q.44,20.1.24,41.28Q452.84,940.73,451.79,963.53Z" fill="#0f4a91"/><path d="M530,1051.16a79.39,79.39,0,0,0,27.36,10.44c23.6,4.24,42.57-3.6,50-7.2a407.59,407.59,0,0,1-43.56,0C551.77,1053.75,540.46,1052.61,530,1051.16Z" fill="#002d69"/><path d="M452.6,939a316.62,316.62,0,0,0,58.7,16.84c60.32,10.62,122.63,2.73,181.42-12.88a390.61,390.61,0,0,1-90,18.93c-20.44,1.71-41,2.6-61.46.73A269.23,269.23,0,0,1,452.6,939Z" fill="#002c6a"/><path d="M447.56,1150.28A265.45,265.45,0,0,0,573.08,1156a191.08,191.08,0,0,1-125.52-5.76Z" fill="#002c6a"/><path d="M586.52,1166.36c41.62,4.42,83.55-1.2,122.88-15.36-4.7,2.31-9.53,4.35-14.42,6.24-34.31,13-72.48,16.71-108.46,9.12Z" fill="#002c6a"/><path d="M474,1371.32a194.09,194.09,0,0,0,89.52,5.76,125,125,0,0,1-89.52-5.76Z" fill="#002c6a"/><path d="M473.24,1360.28c29.37,9.09,59.89,10.2,90,4.32-29,10-62.18,8.77-90-4.32Z" fill="#002c6a"/><path d="M612.08,1383.08a280.08,280.08,0,0,0,91.8-10.08,157.63,157.63,0,0,1-91.8,10.08Z" fill="#002c6a"/><path d="M610.64,1369.4a182.22,182.22,0,0,0,94-9.72c-28.33,15.34-63.1,19-94,9.72Z" fill="#002c6a"/><path d="M577.52,716.72c1.32,115.15.61,231.56-2.16,346.68-1.33-115.15-.59-231.56,2.16-346.68Z" fill="#002c6a"/><path d="M505.88,799.16c3.54-5.46,10-7.64,16-9.09s12.33-2.58,18.48-4c12.29-2.72,24.45-6.05,36.45-9.87l.12,0,.13,0,20.43,5.22c13.61,3.54,26.91,8.17,40.57,11.45,3.52.83,7.59,1.8,9.93,4.92s2.58,7.16,2.79,10.79.13,7.08.13,10.6l0,10.55c-.11,5.32.15,10.75-.91,16.06-1.37,5.39-3,10.56-6.77,15-4.84,5.91-12.93,7.54-20.09,7.88-17.59,1.25-35.26.46-52.79.55-7,0-14,.32-21,1-8.73.74-17.89,2.27-26.36-.81-22.3-8.43-21.36-29.53-20.35-49.6.16-3.51.29-7,.57-10.53s.67-7.12,2.63-10.1Zm0,0c-1.94,3-2.27,6.64-2.58,10.1s-.38,7-.53,10.53c-.87,19.72-1.56,40.88,20.58,48.67,8.38,2.83,17.29,1.1,25.88.19,14-1.67,28.14-1.62,42.22-1.77,10.52,0,21-.32,31.5-1.09,6.68-.42,13.64-1.62,18.06-7,3.13-3.67,4.92-8.91,6.12-13.62,1-5.05.79-10.28.91-15.47,0-7,.28-14.09.14-21-.13-4-.29-8.51-3.73-11-2-1.49-4.47-1.94-6.92-2.65-6.82-1.8-13.55-3.92-20.24-6.08-11.53-4-28.51-8.59-40.43-11.92-10.76,3.4-24.48,6.67-36.41,9.24-6.17,1.3-12.38,2.38-18.51,3.82s-12.5,3.57-16.06,9Z" fill="#002c6a"/><path d="M533.78,787.28c3.75,13.23,6.65,27.25,9.3,40.76s5,27.63,6.36,41.32c-3.75-13.23-6.65-27.25-9.3-40.76s-5-27.63-6.36-41.32Z" fill="#002c6a"/><path d="M620.18,789.08c-1.42,13.19-3.91,26.77-6.45,39.8s-5.61,26.5-9.39,39.22c1.41-13.19,3.91-26.77,6.45-39.8,2.69-13,5.61-26.49,9.39-39.22Z" fill="#002c6a"/><path d="M449.72,993.38a122.79,122.79,0,0,0,26.36-15.76,43.86,43.86,0,0,0,16.84-24.56c-.14,10.7-6.52,20.66-15,26.93s-17.84,11.48-28.2,13.39Z" fill="#002c6a"/><path d="M702.2,996.92c-12-1.69-23.31-6.76-33.45-13.3C658,977.15,650.11,966.74,649.64,954c2.92,12,10.32,20.93,20.73,27.14a146.77,146.77,0,0,0,31.83,15.82Z" fill="#002c6a"/><path d="M641,955.64c7.92,23.29,21.71,32.24,42.85,42.43a194.21,194.21,0,0,0,19.55,7.73,95.17,95.17,0,0,1-20.48-5.58,115,115,0,0,1-19-9.7,53.05,53.05,0,0,1-8.52-6.67A50.45,50.45,0,0,1,641,955.64Z" fill="#002c6a"/><path d="M448.76,1002.68c11.15-5.53,22.38-10.95,32.77-17.75,10.29-7,16.61-18,21-29.53-2.07,12.47-8.68,24.7-19.28,32a125.79,125.79,0,0,1-34.48,15.29Z" fill="#002c6a"/><path d="M463.4,921.56c53.05,14.57,108.89,17.86,163.4,10.91a472.77,472.77,0,0,0,54-10.19c-70.09,22-147.64,22.88-217.44-.72Z" fill="#002c6a"/><path d="M553.76,962.24c-.46,6.71-1.21,13.36-2.06,20s-1.82,13.07-1.44,19.71c.45,12.13,2,17.7,14.54,21a31.37,31.37,0,0,0,9.84.81,26.26,26.26,0,0,1-10.12.64c-7.18-1-14.3-4.46-15.95-12.16-2.32-10.09-1.38-20.42.82-30.4,1.3-6.59,2.69-13.15,4.37-19.64Z" fill="#002c6a"/><path d="M509.12,805.28c-2.08,4.67-3.22,9.93-3.06,21.24.17,12,.26,18,2.16,22.14,5.65,12.39,18.12,16.73,19.8,17.28a34.44,34.44,0,0,0,18,.9c-3.31-12.48-6.42-25.82-9.18-40q-3.52-18.09-5.76-34.74c-2.52-.17-10.63-.4-16.74,5.22A21.86,21.86,0,0,0,509.12,805.28Z" fill="none" stroke="#fff" stroke-miterlimit="10" stroke-width="3" opacity="0.42"/><path d="M538.46,790.52c3.28,11.59,6.37,24.27,9,38,2.44,12.73,4.18,24.77,5.4,36l19.26-.54,1.08-81.72q-7.08,2.18-14.94,4.14C551.34,788.09,544.71,789.45,538.46,790.52Z" fill="none" stroke="#fff" stroke-miterlimit="10" stroke-width="3" opacity="0.42"/><path d="M580.94,782.06l.54,81.18,20.34.9c1.71-11.92,3.78-24.36,6.3-37.26,2.39-12.24,5-24,7.74-35.1Z" fill="none" stroke="#fff" stroke-miterlimit="10" stroke-width="3" opacity="0.42"/><path d="M622.16,793q-2.52,17.24-6.12,35.82c-2.34,12-4.89,23.44-7.56,34.38a46.8,46.8,0,0,0,12.78.36c4.59-.51,8.78-1,12.6-3.6,4.52-3.11,6.17-7.64,8.1-13.14,2.35-6.71,2.62-12.79,3.06-24.66.34-9.14.49-13.76-.72-16.38C639.94,796.34,627.08,793.77,622.16,793Z" fill="none" stroke="#fff" stroke-miterlimit="10" stroke-width="3" opacity="0.42"/><path d="M452.78,933.8c75.66,28.9,159.54,26.61,236.94,5.76-9.57,3.15-19.29,5.83-29.08,8.27-68.42,16.75-142.9,14.76-207.86-14Z" fill="#fff"/><path d="M449.72,1146.2a318.47,318.47,0,0,0,119.16,5.4,208.23,208.23,0,0,1-119.16-5.4Z" fill="#fff"/><path d="M589.76,1159.88a362,362,0,0,0,115.56-14,221.06,221.06,0,0,1-115.56,14Z" fill="#fff"/><path d="M475.64,1354.64a251.1,251.1,0,0,0,81.9,4.86,133.6,133.6,0,0,1-81.9-4.86Z" fill="#fff"/><path d="M602.9,1361.12a246.28,246.28,0,0,0,98.28-7.92,154.68,154.68,0,0,1-98.28,7.92Z" fill="#fff"/><path d="M469.64,1411.4l6.24,35.52q26.88.67,53.76,1.44l32.64,1,5.28-39.36a337.58,337.58,0,0,0-97.92,1.44Z" fill="#176787" stroke="#000" stroke-miterlimit="10" stroke-width="2"/><path d="M469.64,1411.4l6.24,35.52q17.67.64,35.58,1.14,25.35.7,50.22,1.08a136.9,136.9,0,0,1-92-37.74Z" fill="#002c6a"/><path d="M598.76,1411.88,605,1447.4q26.88.67,53.76,1.44l32.64,1,5.28-39.36a337.58,337.58,0,0,0-97.92,1.44Z" fill="#176787" stroke="#000" stroke-miterlimit="10" stroke-width="2"/><path d="M598.76,1411.88,605,1447.4q17.67.64,35.58,1.14,25.35.7,50.22,1.08a136.9,136.9,0,0,1-92-37.74Z" fill="#002c6a"/><path d="M531.56,725.6l-1.08,35,26.28.36.24-35.28Z" fill="#0a2b4c"/><path d="M475,625.4a327.68,327.68,0,0,0,46.8,92.52L542,709.64a244.39,244.39,0,0,1-32.76-97.56Z" fill="#0f4a91"/><path d="M499.52,683l24.36-10.68L521,664.16a7.47,7.47,0,0,1,4.92-.12c2.35.85,3.52,2.94,5,6s3.44,7.22,5.4,12.24a6.19,6.19,0,0,1-.48,4.44,6.36,6.36,0,0,1-4.56,3.12l-5.76-13-23.28,11.4L509,699.2a6.55,6.55,0,0,1-4.68,1.44c-2-.27-3.29-1.66-4.44-3.12-4-5.12-7-12.52-8.16-15.72a8.4,8.4,0,0,1,.48-5.16,8.23,8.23,0,0,1,2.4-3.12Z" fill="#fff" stroke="#0f4a91" stroke-miterlimit="10"/><path d="M509,698.84l21.72-10.92,2.4,5.28q-5.07,2.64-10.2,5.28-5.42,2.79-10.8,5.52Z" fill="#082842"/><path d="M516.44,709.88c-.59.48-4.19,3.5-4.2,8.28,0,1,0,4.24,2.4,6.24s6.19,2,9.48,0a14.42,14.42,0,0,0,2.64,10.2c3.75,4.88,10.54,6.33,16.08,4.44a14.88,14.88,0,0,0,10.08-13.92c0-7-5.31-11.23-6-11.76,3.31-2.76,4.64-7,3.36-10.32-1.55-4.09-6.23-5.15-7.32-5.4a12.27,12.27,0,0,0-7.68.84l3.84,6.84c.42-.05,2.81-.33,4.08,1.08,1.51,1.69,1.11,5.46-2,8.16A10.55,10.55,0,0,1,547,725.84a9.23,9.23,0,0,1-17.4,2.76,10.69,10.69,0,0,1-.72-8.4c-4.26,2.61-8.9,1.61-10.44-1-1.32-2.2-.08-5.08.12-5.52Z" fill="#fff" stroke="#0f4a91" stroke-miterlimit="10"/><path d="M540.2,729.68a8.64,8.64,0,0,0-2.88,12.24c2.69,3.93,8.53,5,12.24,1.92s3.51-9,.48-12.24A8.44,8.44,0,0,0,540.2,729.68Z" fill="#0f4a91"/><path d="M541.64,732.92a4.5,4.5,0,1,0,6,6.6,4.51,4.51,0,0,0-6-6.6Z" fill="#fff"/><path d="M620.72,721.64l1.08,35-26.28.36-.24-35.28Z" fill="#0a2b4c"/><path d="M677.24,621.44A327.68,327.68,0,0,1,630.44,714l-20.16-8.28A244.39,244.39,0,0,0,643,608.12Z" fill="#0f4a91"/><path d="M652.76,679,628.4,668.36l2.88-8.16a7.47,7.47,0,0,0-4.92-.12c-2.35.85-3.52,2.94-5,6s-3.44,7.22-5.4,12.24a6.19,6.19,0,0,0,.48,4.44,6.36,6.36,0,0,0,4.56,3.12l5.76-13L650,684.32l-6.72,10.92a6.55,6.55,0,0,0,4.68,1.44c2-.27,3.29-1.66,4.44-3.12,4-5.12,7-12.52,8.16-15.72a8.4,8.4,0,0,0-.48-5.16,8.23,8.23,0,0,0-2.4-3.12Z" fill="#fff" stroke="#0f4a91" stroke-miterlimit="10"/><path d="M643.28,694.88,621.56,684l-2.4,5.28q5.07,2.64,10.2,5.28,5.42,2.79,10.8,5.52Z" fill="#082842"/><path d="M635.84,705.92c.59.48,4.19,3.5,4.2,8.28,0,1,0,4.24-2.4,6.24s-6.19,2-9.48,0a14.42,14.42,0,0,1-2.64,10.2c-3.75,4.88-10.54,6.33-16.08,4.44a14.88,14.88,0,0,1-10.08-13.92c0-7,5.31-11.23,6-11.76-3.31-2.76-4.64-6.95-3.36-10.32,1.55-4.09,6.23-5.15,7.32-5.4a12.27,12.27,0,0,1,7.68.84l-3.84,6.84c-.42-.05-2.81-.33-4.08,1.08-1.51,1.69-1.11,5.46,2,8.16a10.55,10.55,0,0,0-5.88,11.28,9.23,9.23,0,0,0,17.4,2.76,10.69,10.69,0,0,0,.72-8.4c4.26,2.61,8.9,1.61,10.44-1,1.32-2.2.08-5.08-.12-5.52Z" fill="#fff" stroke="#0f4a91" stroke-miterlimit="10"/><path d="M612.08,725.72A8.64,8.64,0,0,1,615,738c-2.69,3.93-8.53,5-12.24,1.92s-3.51-9-.48-12.24A8.44,8.44,0,0,1,612.08,725.72Z" fill="#0f4a91"/><path d="M610.64,729a4.5,4.5,0,1,1-6,6.6,4.51,4.51,0,0,1,6-6.6Z" fill="#fff"/><g id="upperarm"><path d="M756.7,813.3c.4,4.57.4,4.57-.4,6.68a9.7,9.7,0,0,1-1.47,2.36,65,65,0,0,1-5,5.92,7.65,7.65,0,0,1-1.62-3.26c-1.53-4.26-5.4-7.75-5.66-12.25a.75.75,0,0,1,.09-.49.85.85,0,0,1,.53-.25,60,60,0,0,1,11.17-1.3" fill="#28221f"/><path id="color-3" data-name="color" d="M670.73,650.49c7.13-8.69,19-12.85,28.57-10.54,0,0,10.48,1.31,20.8,10.09a75.13,75.13,0,0,1,7.38,12.9,166.19,166.19,0,0,1,6.76,18.78c3.81,13.15,4.76,26.6,7.44,40.07,2.74,20.75,5.22,40.82,5.22,40.82l4.49,31.68,3.39.29c2.29,4.64,1.83,12.39,2,16.45,0,1.31,0,2.63,0,3.94a14.88,14.88,0,0,1-3.82.7s-35.53,10.6-44.34,17.83a17.37,17.37,0,0,0-5.9,9.71l.81,2.65-3.89-.47c-4-.47-6.74-11.49-8.36-17.08-1.67-5.75-5-14.68-2.91-18.57a7.06,7.06,0,0,1,2.57-2.09h0l-14.85-50.41s-12.23-38.17-13.58-62C661.14,671.76,663.57,659.22,670.73,650.49Z" fill="#534741"/><g id="effects-2" data-name="effects" opacity="0.5" style="mix-blend-mode:overlay"><path d="M669.54,724.43c1.74,3.79,15.62,41,19.86,51.46,2.1,5.19,6.29,15.24,12.79,18,.19.2,34.26-4.28,45.69.13-2.75-.17-5.74-.3-8.66-.31h0a54.92,54.92,0,0,0-11.47.9c-8,1.84-27.38,8-35.69,12.34,1.46-.76,3.25-1.58,5.27-2.42a15.79,15.79,0,0,0-1.42,1.54c-2.67,3.36,1.58,18.29,2.13,19.48,4.66,10,7.3,2,23.18-3.29,29.61-9.9,32.8-8.56,35.46-9.27,0,.65,0,1.29,0,1.94a14.88,14.88,0,0,1-3.82.7s-35.52,10.61-44.34,17.83a17.29,17.29,0,0,0-5.89,9.71l.79,2.65-3.88-.47c-4-.48-6.74-11.49-8.36-17.08-1.66-5.75-5-14.68-2.91-18.58.32-.59,2.43-2,3.78-2.74C692.05,807,672.89,737.6,669.54,724.43Z" fill="#fff" opacity="0.1"/><path d="M691.79,807.16l-.22.12Z" fill="#fff" opacity="0.1"/><path d="M689.6,803.25l1.3,4.4c7.48-4.39,28.45-11.07,36.9-13a54.92,54.92,0,0,1,11.47-.9,46.34,46.34,0,0,0-6.12-.37c-4.17.1-8.35.33-12.52.72l-.28,0C710.8,795.81,697.58,796.66,689.6,803.25Z" fill="#fff" opacity="0.1"/><path d="M678,677.86c2.8,11.2,8.56,21.75,9.52,33.24.37,4.39,0,8.92,1.47,13.1,4.19,12.12,20.33,15.45,29.49,24.66a55.78,55.78,0,0,1,3.95,6c3.19,5.84-1.41,24.85,3.42,27.36a17.93,17.93,0,0,0,2.22.92,7.21,7.21,0,0,0,6.07,2.35,6.19,6.19,0,0,0,1-.21c2.94.78,5.62,1.38,6.62,1.51,6,.75,3.59-6.83,1.67-17.33-1.35-7.4-2.59-14.78-3.77-22.14-1.71-20.34-4.49-40.59-10.07-60.25-2.87-10.1-6.12-25.16-13.08-33.2-6-7-21.41-11.92-31.35-6.92S675.79,669.2,678,677.86Z" fill="#fff" opacity="0.5"/><path d="M738.82,787.89c-2.89-1.38-5.34-3.25-6.62-6.23-3.83-8.91,1-19.15-1.38-28.39-1.59-6.11-5.8-11.06-10-15.7-3.59-3.93-9.06-8.6-7.31-14.36,1.11-3.66,3.6-6.88,5.18-10.36a31.34,31.34,0,0,0,2.51-10.24c.73-7.75,1-16.42-1.39-23.93-3.79-11.84-14-26.58-28.08-27.72a21.51,21.51,0,0,0-9.5,1.64,11.31,11.31,0,0,1,5.9-4.94c4.78-2,9.91.29,14.3,2.33,12.12,5.63,19.35,17.81,23,29.7,3.25,10.7,4,21.92,5.17,33A545.72,545.72,0,0,0,743,785.65,7.07,7.07,0,0,1,738.82,787.89Z" fill="#fff"/></g><path d="M754.52,812.58a19.55,19.55,0,0,0-3.1-5.73,6.15,6.15,0,0,0-2.48-2.07c-2.42-.94-5,.75-7.4,1.66-3.87,1.47-8.2.95-12.36.8a64.73,64.73,0,0,0-20.39,2.58,10.4,10.4,0,0,0-3.7,1.69c-2.07,1.69-2.57,4.56-2.74,7.18a55.26,55.26,0,0,0,0,6.93,33,33,0,0,1-4.91-13.32c-.23-1.76-.25-3.76,1-5a7,7,0,0,1,2.24-1.32l9.76-4.18a95.89,95.89,0,0,1,13.62-5c8-2.07,16.31-2.08,24.55-2.08,4.42,0,5.34,1.25,5.73,5.13.21,2.17.35,4.34.37,6.52C754.76,808,754,811,754.52,812.58Z" fill="#fff" opacity="0.5" style="mix-blend-mode:overlay"/><path d="M751.63,799.18a8.1,8.1,0,0,0-4.81-1.93c-3.38-.43-7.33.11-10.71.5a58,58,0,0,0-7.24,1.58c-9.06,2.22-18.68,2.77-27.07,6.74a110.62,110.62,0,0,1,26.54-8.8,107.51,107.51,0,0,1,14.32-1.77c3-.16,7-.67,9.58,1,3.24,2.12,2,10.63,2.42,11.06C753.3,803.73,753.63,801.17,751.63,799.18Z" fill="#fff" opacity="0.5" style="mix-blend-mode:overlay"/><path d="M698.23,837.5c-1.91-5.37-3.13-9.71-5-15.08,3.11,5.38,3.17,6.1,6.14,9.07,3.32,3.3,6.16,1.23,9.95-.75,9.19-4.79,11.56-5.25,21.57-9.25a117.43,117.43,0,0,1,13.72-4.71c1.84-.48,3.71-.95,5.6-1.25a38.38,38.38,0,0,1,4.4-.46,2.49,2.49,0,0,1,.8,0,14.52,14.52,0,0,1-.3,2.65c-.16,1-2.56,5.2-2.43,5.56a23.13,23.13,0,0,1-1.27-5c-6.57.55-12.7,3.29-18.67,6-7.52,3.4-16.3,4.92-22.56,10.19-5.08,4.28-6.4,7.85-6.4,10.38-1.56-.27-3.26.58-4.72,0-1.2-.51-1.77-1.83-2.2-3a157.49,157.49,0,0,1-7.07-26.59C693.77,825.72,694.15,831.38,698.23,837.5Z"/></g><g id="upperarm-2" data-name="upperarm"><path d="M387.46,815.14c-.4,4.57-.4,4.57.4,6.68a9.73,9.73,0,0,0,1.48,2.36,64.93,64.93,0,0,0,5,5.92,7.65,7.65,0,0,0,1.62-3.26c1.54-4.26,5.41-7.75,5.66-12.25a.75.75,0,0,0-.09-.49.83.83,0,0,0-.53-.25,60,60,0,0,0-11.17-1.3" fill="#28221f"/><path id="color-4" data-name="color" d="M473.43,652.33c-7.13-8.69-19-12.85-28.57-10.54,0,0-10.48,1.31-20.8,10.09a75.79,75.79,0,0,0-7.38,12.9,166.19,166.19,0,0,0-6.76,18.78c-3.81,13.15-4.75,26.6-7.44,40.07-2.74,20.75-5.22,40.82-5.22,40.82l-4.49,31.68-3.38.29c-2.3,4.64-1.83,12.39-2,16.45,0,1.31,0,2.63,0,3.94a14.92,14.92,0,0,0,3.83.7s35.52,10.6,44.33,17.83a17.3,17.3,0,0,1,5.9,9.71l-.8,2.65,3.88-.47c4-.47,6.74-11.49,8.36-17.08,1.67-5.75,5-14.68,2.91-18.57a7.06,7.06,0,0,0-2.57-2.09h0l14.86-50.41s12.22-38.17,13.57-62C483,673.6,480.6,661.06,473.43,652.33Z" fill="#534741"/><g id="effects-3" data-name="effects" opacity="0.5" style="mix-blend-mode:overlay"><path d="M474.62,726.27c-1.73,3.79-15.62,41-19.86,51.46-2.09,5.19-6.29,15.24-12.79,18-.19.2-34.25-4.28-45.68.13,2.74-.17,5.73-.3,8.66-.31h0a54.87,54.87,0,0,1,11.46.9c8,1.84,27.38,8,35.69,12.34-1.46-.76-3.25-1.58-5.27-2.42a17.27,17.27,0,0,1,1.43,1.54c2.67,3.36-1.59,18.29-2.14,19.48-4.66,10.05-7.3,2-23.17-3.29-29.62-9.9-32.8-8.56-35.47-9.27,0,.65,0,1.29,0,1.94a14.88,14.88,0,0,0,3.82.7s35.52,10.61,44.35,17.83a17.24,17.24,0,0,1,5.88,9.71l-.79,2.65,3.88-.47c4-.48,6.74-11.49,8.36-17.08,1.67-5.75,5-14.68,2.91-18.58-.32-.59-2.43-2-3.78-2.74C452.11,808.83,471.27,739.44,474.62,726.27Z" fill="#fff" opacity="0.1"/><path d="M452.37,809l.22.12Z" fill="#fff" opacity="0.1"/><path d="M454.56,805.09l-1.3,4.4c-7.48-4.39-28.44-11.07-36.9-13a54.87,54.87,0,0,0-11.46-.9,46.23,46.23,0,0,1,6.12-.37c4.17.1,8.34.33,12.51.72l.28,0C433.36,797.65,446.59,798.5,454.56,805.09Z" fill="#fff" opacity="0.1"/><path d="M466.21,679.7c-2.8,11.2-8.57,21.75-9.53,33.24-.36,4.39,0,8.92-1.47,13.1-4.18,12.12-20.33,15.45-29.49,24.66a55.78,55.78,0,0,0-4,6c-3.18,5.84,1.42,24.85-3.42,27.36a17.93,17.93,0,0,1-2.22.92,7.2,7.2,0,0,1-6.07,2.35,6.45,6.45,0,0,1-1-.21c-2.93.78-5.62,1.38-6.62,1.51-6,.75-3.59-6.83-1.67-17.33,1.36-7.4,2.59-14.78,3.77-22.14,1.71-20.34,4.49-40.59,10.08-60.25,2.87-10.1,6.12-25.16,13.07-33.2,6-7,21.41-11.92,31.36-6.92S468.37,671,466.21,679.7Z" fill="#fff" opacity="0.5"/><path d="M405.35,789.73c2.88-1.38,5.33-3.25,6.62-6.23,3.83-8.91-1-19.15,1.37-28.39,1.6-6.11,5.8-11.06,10-15.7,3.58-3.93,9.05-8.6,7.3-14.36-1.11-3.66-3.6-6.88-5.18-10.36a31.07,31.07,0,0,1-2.5-10.24c-.74-7.75-1-16.42,1.38-23.93,3.8-11.84,14-26.58,28.08-27.72a21.51,21.51,0,0,1,9.5,1.64,11.28,11.28,0,0,0-5.9-4.94c-4.78-2-9.9.29-14.29,2.33-12.13,5.63-19.35,17.81-23,29.7-3.26,10.7-4.06,21.92-5.18,33a545.72,545.72,0,0,1-12.42,73A7.07,7.07,0,0,0,405.35,789.73Z" fill="#fff"/></g><path d="M389.64,814.42a19.35,19.35,0,0,1,3.11-5.73,6.18,6.18,0,0,1,2.47-2.07c2.42-.94,5,.75,7.4,1.66,3.87,1.47,8.2,1,12.36.8a64.73,64.73,0,0,1,20.39,2.58,10.4,10.4,0,0,1,3.7,1.69c2.08,1.69,2.57,4.56,2.74,7.18a55.26,55.26,0,0,1,0,6.93,33,33,0,0,0,4.9-13.32c.24-1.76.25-3.76-1-5a7.09,7.09,0,0,0-2.24-1.32l-9.76-4.18a96,96,0,0,0-13.63-5c-7.95-2.07-16.31-2.08-24.55-2.08-4.42,0-5.34,1.25-5.72,5.13q-.33,3.25-.38,6.52C389.41,809.87,390.18,812.83,389.64,814.42Z" fill="#fff" opacity="0.5" style="mix-blend-mode:overlay"/><path d="M392.53,801a8.13,8.13,0,0,1,4.81-1.93c3.38-.43,7.33.11,10.72.5a58.29,58.29,0,0,1,7.23,1.58c9.06,2.22,18.68,2.77,27.07,6.74a110.47,110.47,0,0,0-26.54-8.8,107.57,107.57,0,0,0-14.31-1.77c-3-.16-7-.67-9.59,1-3.24,2.12-2,10.63-2.41,11.06C390.86,805.57,390.53,803,392.53,801Z" fill="#fff" opacity="0.5" style="mix-blend-mode:overlay"/><path d="M445.93,839.34c1.91-5.37,3.14-9.71,5-15.08-3.1,5.38-3.16,6.1-6.14,9.07-3.32,3.3-6.15,1.23-9.95-.75-9.19-4.79-11.56-5.25-21.56-9.25a118.72,118.72,0,0,0-13.72-4.71c-1.85-.48-3.72-1-5.61-1.25a38.15,38.15,0,0,0-4.4-.46,2.49,2.49,0,0,0-.8,0,14.52,14.52,0,0,0,.3,2.65c.17,1,2.57,5.2,2.43,5.56a23.74,23.74,0,0,0,1.28-5c6.57.55,12.69,3.29,18.66,6,7.52,3.4,16.31,4.92,22.56,10.19,5.08,4.28,6.4,7.85,6.4,10.38,1.57-.27,3.26.58,4.72,0,1.21-.51,1.77-1.83,2.2-3a156.56,156.56,0,0,0,7.07-26.59C450.39,827.56,450,833.22,445.93,839.34Z"/></g></g></g></g></svg>