<svg xmlns="http://www.w3.org/2000/svg" viewBox="0 0 1080 1920"><g style="isolation:isolate"><g id="costumes"><g id="_2" data-name="2"><path d="M475.34,993.4q-6.64,99.42-13.28,198.84a80.61,80.61,0,0,0,55.46,26c32.62,1.47,53.87-17.26,57.42-20.5L580,1003.4c-6.24-21.09-23.6-36.87-44.63-40.48C511.55,958.81,487.08,971.07,475.34,993.4Z" fill="#7f807a" stroke="#000" stroke-miterlimit="10" stroke-width="1.93"/><path d="M475.34,993.4q3.82,101.1,7.64,202.2a66.07,66.07,0,0,0,32.45,12.32c33.7,3.08,56.75-22.1,59.23-24.9q.14,7.38.28,14.74c-3.7,3.25-25.86,22-59.09,19.86a81.81,81.81,0,0,1-53.79-25.38Q468.71,1092.82,475.34,993.4Z" fill="#616160"/><path d="M470.81,1112.48l10.48,11.24c3.64-13.74,7.76-27.93,12.46-42.51q3.72-11.57,7.63-22.56l-6.63-8Z" fill="#cececf"/><path d="M465.62,1184.57c23.45,21.74,60.61,27.92,88.81,11.94a74.53,74.53,0,0,0,17.37-13.66A64.88,64.88,0,0,1,555,1197.53c-28,17.37-67.14,10.87-89.41-13Z" fill="#2d2d2c"/><path d="M674.42,993.08l14,198.73c-3,3.56-21.4,24.71-53,26.45-31.28,1.71-51.78-16.86-55.2-20.07l-1.08-203.43c1-2.26,11.89-26.61,37.52-31.7C638.9,958.62,662.84,970.66,674.42,993.08Z" fill="#7f807a" stroke="#000" stroke-miterlimit="10" stroke-width="1.89"/><path d="M674.42,993.08l-6.06,202.25a62,62,0,0,1-31.05,12.57c-32.31,3.33-54.58-21.67-57-24.45l-.17,14.74c3.57,3.22,24.94,21.84,56.8,19.41,30.22-2.31,48-21.87,51.44-25.79Z" fill="#616160"/><path d="M679.51,1112.13l-10,11.31q-5.37-20.57-12.22-42.41-3.64-11.54-7.46-22.51l6.31-8Z" fill="#cececf"/><path d="M688.53,1183.74c-21.78,24.28-60.78,31.57-89.13,14.77a65.32,65.32,0,0,1-17.06-14.34,74,74,0,0,0,17.64,13.3c28.52,15.41,65.55,8.47,88.55-13.73Z" fill="#2d2d2c"/><path d="M532.72,985.38c-1,32.83,24,57.75,49.64,57.46,18.94-.21,37.22-14.18,45.12-34.89a146.25,146.25,0,0,0-94.76-22.57Z" fill="#7f807a"/><path d="M561,1032.31c1.38,1.67,8.15,9.51,19.55,10.53,15.81,1.42,25.65-11.6,26.18-12.33a54,54,0,0,1-45.73,1.8Z"/><path d="M557.11,1043.52c-.32,3.38-.65,6.75-1,10.13-.21,1.54.37,2.87,1.18,3.17,1,.36,2.8-.65,3.32-2.87l1.11-9.78a3.85,3.85,0,0,1-2.25.5A3.89,3.89,0,0,1,557.11,1043.52Z" fill="#fff" stroke="#000" stroke-miterlimit="10" stroke-width="0.63"/><path d="M595.87,1001.34l4.48,39.46a4.86,4.86,0,0,1-3.12,5.61c-2.38.64-5.43-1.32-5.74-4.58l-4.85-38.53Z" fill="#fff" stroke="#000" stroke-miterlimit="10" stroke-width="0.63"/><path d="M598.89,1045.32l1,10.14c.2,1.53-.37,2.87-1.19,3.16-1,.36-2.8-.65-3.32-2.87l-1.11-9.78a3.77,3.77,0,0,0,2.25.5A3.84,3.84,0,0,0,598.89,1045.32Z" fill="#fff" stroke="#000" stroke-miterlimit="10" stroke-width="0.63"/><path d="M560.13,999.53q-2.24,19.74-4.48,39.47a4.85,4.85,0,0,0,3.12,5.6c2.39.64,5.43-1.32,5.74-4.57q2.41-19.27,4.85-38.53Z" fill="#fff" stroke="#000" stroke-miterlimit="10" stroke-width="0.63"/><path d="M463,816.68a460.26,460.26,0,0,1,6,96,459.46,459.46,0,0,1-9.46,75.42c17.52,12.19,64.72,41.43,129.76,39.14,49.94-1.75,87-21.28,105.16-32.61a528.76,528.76,0,0,1-9.08-105.19c0-2.74.48-10.68.78-22.17.64-24.74.43-44.79.14-57.86-1.57-2.7-3.76-6.57-6.28-11.27-1.82-3.38-8.82-15.79-12-24.36a138.36,138.36,0,0,1-8.36-39.66h0q.53-22.79,1.93-46.89c1.34-22.5,3.22-44.11,5.51-64.78l-19.62-12.06c-.3,2.44-.76,5.85-1.42,9.9-1.62,9.84-3.4,17.27-3.86,19-2.83,10.26-6.37,23.08-15.07,34.54C623.24,678.92,609,696,586,698.6c-32.5,3.69-54.64-25.49-57.5-29.36C513.52,649,513.76,627,514.16,619.7l-22.5,5.76c1.89,10.5,12.62,72,4.26,121.24-2.08,12.25-5.38,30.61-17.74,50.47A120.31,120.31,0,0,1,463,816.68Z" fill="#534741"/><path d="M467.36,982.55a323.53,323.53,0,0,0,8.32-57.28,339.19,339.19,0,0,0-2.27-60.13,344.51,344.51,0,0,0-8.19-43.1,64.08,64.08,0,0,0,17-15c5.58-7,8.39-13.47,11.64-21.1a145.88,145.88,0,0,0,8.22-25.68c4.31-19.49,4.12-36.81,3.41-52.6a676,676,0,0,0-8.23-78.27l12.2-3.67a83,83,0,0,0,5,33.31c2.55,6.86,11,26.66,31.49,38.53,2.16,1.25,32.52,18.13,63.27,1.22,24.19-13.3,32.15-38.92,35.46-49.53a104.62,104.62,0,0,0,4.67-29.95l13,7.34c-3.52,21.06-5.49,39.24-6.65,53.49-.08,1-.2,2.45-.35,4.41,0,0-1.09,14.5-1.44,27.13-.37,13.57-.69,25.18,1.07,40A170.3,170.3,0,0,0,663,787.18c2.78,8.1,4.85,16.09,11.92,22.63a35.69,35.69,0,0,0,7.51,5.31c-1.84,21.45-2.71,39.72-3.15,53.79-.59,18.9-1.11,36.94.52,60A487.73,487.73,0,0,0,687,984.79c-19.7,11.9-56,29.86-103.27,31.39-40.58,1.32-70.65-10.07-77.17-12.63A191.09,191.09,0,0,1,467.36,982.55Z" fill="#fff" opacity="0.5" style="mix-blend-mode:overlay"/><path d="M734.75,1551.31A7.55,7.55,0,0,0,735,1548c-.92-5.5-8.34-7.9-14.72-10.94,0,0-7.8-3.72-18.57-12.49a48.7,48.7,0,0,1-7.78-7.72c-3.68-4.69-4-7-8.21-12.27-2.84-3.6-2.79-2.67-6.57-7.13-3.5-4.13-7-8.27-9.4-14.2a38.28,38.28,0,0,1-2.44-8.77,15.58,15.58,0,0,0-7.42-2.51,16.52,16.52,0,0,0-11.25,3.8,19.79,19.79,0,0,0-3.44,3.57c-2.15,2.67-2.74,4.56-5.44,7.12-4.85,4.6-13.29,8.34-18.92,5.51-3.87-1.94-4.11-5.85-7-5.81-4.07.07-7,8.07-7.21,8.82-1.51,4.3-1,7.15-1.13,12.52a85.59,85.59,0,0,1-1.87,16.06c21.49,11.34,38.15,20.79,48.75,26.93,18.61,10.77,38.4,22.82,53.54,19,4.87-1.23,13.09-3.29,16.08-9.83,1.29-2.81,1.35-5.88,3.91-7.76S732.13,1550.52,734.75,1551.31Z" fill="#ec1c24" stroke="#000" stroke-miterlimit="10" stroke-width="0.61"/><path d="M734.65,1551.68a17.92,17.92,0,0,1-.75,9.85c-.83,2.14-2.75,5.68-8.6,9.14-11.23,6.66-24.52,5.7-33.92,4.92a115.58,115.58,0,0,1-28.12-6.29,83.87,83.87,0,0,1-15.92-7.14c-9.32-5.52-8.38-7.64-15.44-10.86-5.77-2.63-8.25-2.07-19.86-6.14a32.18,32.18,0,0,1-13-8.23,35.08,35.08,0,0,1,1-9.23,34.56,34.56,0,0,1,3.67-9.14,124.4,124.4,0,0,0,10.94,8.5c15.73,10.87,21.6,9.53,39.41,19,14.45,7.71,18.59,12.86,32.06,17.31a70.68,70.68,0,0,0,15.53,2.75c8,.58,13.29.89,16.65-2.63,2.34-2.46,1.27-4.2,4.74-8.29,1.46-1.72,4.44-5.23,8.22-4.9A6.7,6.7,0,0,1,734.65,1551.68Z" fill="#000100"/><path d="M730.1,1560.14c.53.7-2.64,4.66-6.35,7.54-1.94,1.51-5.84,4.13-13.47,5.77-8.81,1.91-15.85,1.06-21.76.3a92.85,92.85,0,0,1-18.66-4.5,77.92,77.92,0,0,1-14.65-6.16c-8.41-4.74-7.82-6.83-15.38-11.08-2.64-1.48-4.1-2-18.85-7.1-4.7-1.63-8.8-1.91-14.12-4.88a41.69,41.69,0,0,1-6.55-4.53,32.56,32.56,0,0,1,.87-7.36,32.13,32.13,0,0,1,3-7.74,95,95,0,0,0,12.86,9.39c9.34,5.67,14.23,6.39,24.57,11.33s8.62,5.78,21.65,12.77c11.18,6,18.25,9.78,28.68,12,8.5,1.85,17.59,3.82,27.33-.25C725,1563.28,729.53,1559.36,730.1,1560.14Z" fill="#fbffff"/><path d="M618.91,1538.19a4.83,4.83,0,0,0,.75-2.42c.1-4.19-5.93-6.29-5.52-7.59.46-1.49,9-1.11,17.63,2.71a45.34,45.34,0,0,1,12.33,8.21c4.55,4.08,10.43,9.49,11.67,17.84.35,2.41.76,5.15-.56,6.15-2.74,2.08-8.91-6.41-20.7-12.68-12.06-6.42-24.69-7.7-24.46-9C610.21,1540.53,616.6,1541.85,618.91,1538.19Zm16.81,7.14c7,3.29,10.06,6.83,10.69,6.15.79-.86-2.7-7.89-9.07-11.07-7.31-3.66-15.93-1-16,.25C621.32,1541.7,627.17,1541.31,635.72,1545.33Z" fill="#534741" stroke="#000" stroke-miterlimit="10" stroke-width="0.61"/><path d="M697.86,1521.06a10.49,10.49,0,0,1-1.3,4.33c-2,3.59-5.81,4.65-8.41,5.39-2.43.69-6.22,1.75-10.13.21-3-1.18-3.94-3-9.39-10-2.25-2.87-4.14-5.12-7.91-9.61-4.2-5-7.2-8.57-11.48-12.87-3.06-3.08-6.33-6.09-7.29-7-1.63-1.49-3-2.72-4.06-3.63a21.08,21.08,0,0,0,3.12-2.65c2.13-2.19,2.18-3.2,4-5.72a21.24,21.24,0,0,1,2.82-3.18c.34-.32,6.35-5.72,13.66-4.13a13.33,13.33,0,0,1,5,2.24,52.12,52.12,0,0,0,6.26,15,58.93,58.93,0,0,0,9.28,11.36c.77.76,1.17,1.08,2,1.93a55.43,55.43,0,0,1,5.55,7.38c1.92,3,3,5.23,5.58,8.16A32.3,32.3,0,0,0,697.86,1521.06Z" fill="#9a101a"/><path d="M694.38,1519.28a93.42,93.42,0,0,0-10.37,5,97,97,0,0,0-8.33,5.26c-1.68,1.76-4.21,1.41-5.13,0a3.7,3.7,0,0,1,1-4.57,84.77,84.77,0,0,1,11.34-7.5,82.58,82.58,0,0,1,9-4.27,3.42,3.42,0,0,1,4.93,1.12A3.82,3.82,0,0,1,694.38,1519.28Z" fill="#fbffff"/><path d="M687.84,1512.27a91.75,91.75,0,0,0-10.37,5,94.58,94.58,0,0,0-8.33,5.26c-1.68,1.76-4.21,1.41-5.14,0a3.7,3.7,0,0,1,1-4.57,85.08,85.08,0,0,1,11.34-7.51,83.39,83.39,0,0,1,8.95-4.26,3.42,3.42,0,0,1,4.93,1.12A3.82,3.82,0,0,1,687.84,1512.27Z" fill="#fbffff"/><path d="M681.61,1505.28a93.61,93.61,0,0,0-10.37,5,92.07,92.07,0,0,0-8.32,5.26c-1.69,1.76-4.22,1.41-5.14,0a3.71,3.71,0,0,1,1-4.57,85.24,85.24,0,0,1,11.35-7.51,82.68,82.68,0,0,1,8.95-4.27,3.43,3.43,0,0,1,4.93,1.12A3.82,3.82,0,0,1,681.61,1505.28Z" fill="#fbffff"/><path d="M674.78,1497.91a93.31,93.31,0,0,0-18.69,10.26c-1.69,1.76-4.22,1.41-5.14,0a3.71,3.71,0,0,1,1-4.57,85.24,85.24,0,0,1,11.35-7.51,82.5,82.5,0,0,1,9-4.26,3.43,3.43,0,0,1,4.93,1.12A3.83,3.83,0,0,1,674.78,1497.91Z" fill="#fbffff"/><path d="M669.59,1488.71a90.06,90.06,0,0,0-10.37,5,94.58,94.58,0,0,0-8.33,5.26c-1.68,1.76-4.21,1.41-5.14,0a3.7,3.7,0,0,1,1-4.57,85.08,85.08,0,0,1,11.34-7.51,83.39,83.39,0,0,1,8.95-4.26,3.42,3.42,0,0,1,4.93,1.12A3.82,3.82,0,0,1,669.59,1488.71Z" fill="#fbffff"/><path d="M418,1552.26a7.55,7.55,0,0,1-.23-3.36c.92-5.5,8.34-7.9,14.72-10.94,0,0,7.81-3.72,18.57-12.49a48.7,48.7,0,0,0,7.78-7.72c3.68-4.69,4-7,8.21-12.27,2.84-3.61,2.79-2.67,6.57-7.13,3.5-4.14,7-8.28,9.4-14.2a38.21,38.21,0,0,0,2.44-8.78,15.69,15.69,0,0,1,7.42-2.51,16.49,16.49,0,0,1,11.25,3.81,19.79,19.79,0,0,1,3.44,3.57c2.15,2.67,2.74,4.56,5.45,7.12,4.84,4.6,13.28,8.34,18.91,5.51,3.87-1.95,4.11-5.85,7-5.81,4.07.07,6.95,8.07,7.22,8.82,1.5,4.3,1,7.15,1.12,12.52a84.93,84.93,0,0,0,1.88,16.06c-21.5,11.34-38.16,20.79-48.76,26.93-18.61,10.77-38.39,22.82-53.53,19-4.88-1.23-13.1-3.29-16.09-9.83-1.29-2.81-1.35-5.88-3.91-7.76S420.57,1551.46,418,1552.26Z" fill="#ec1c24" stroke="#000" stroke-miterlimit="10" stroke-width="0.61"/><path d="M418.05,1552.63a17.92,17.92,0,0,0,.75,9.85c.83,2.14,2.76,5.68,8.6,9.14,11.23,6.66,24.52,5.7,33.92,4.92a115.71,115.71,0,0,0,28.13-6.29,84.1,84.1,0,0,0,15.91-7.14c9.32-5.52,8.38-7.64,15.44-10.86,5.77-2.63,8.26-2.07,19.86-6.15a31.89,31.89,0,0,0,13-8.23,35,35,0,0,0-1-9.22,34.56,34.56,0,0,0-3.67-9.14A124.4,124.4,0,0,1,538,1528c-15.73,10.86-21.6,9.53-39.41,19-14.44,7.71-18.59,12.86-32.06,17.31a70.66,70.66,0,0,1-15.52,2.75c-8,.58-13.3.89-16.66-2.63-2.34-2.46-1.27-4.2-4.74-8.29-1.46-1.72-4.44-5.23-8.22-4.9A6.7,6.7,0,0,0,418.05,1552.63Z" fill="#000100"/><path d="M422.6,1561.09c-.52.7,2.65,4.66,6.35,7.54,1.95,1.51,5.84,4.13,13.47,5.77,8.81,1.9,15.85,1.06,21.77.3a92.72,92.72,0,0,0,18.65-4.5,78.59,78.59,0,0,0,14.65-6.16c8.42-4.74,7.82-6.83,15.38-11.08,2.64-1.48,4.1-2,18.85-7.1,4.71-1.63,8.8-1.91,14.12-4.88a41.69,41.69,0,0,0,6.55-4.53,31.92,31.92,0,0,0-3.82-15.1,94.21,94.21,0,0,1-12.86,9.38c-9.34,5.68-14.23,6.4-24.57,11.34s-8.61,5.78-21.65,12.77c-11.17,6-18.25,9.78-28.68,12.05-8.5,1.84-17.59,3.82-27.33-.25C427.71,1564.23,423.17,1560.31,422.6,1561.09Z" fill="#fbffff"/><path d="M533.79,1539.13a4.74,4.74,0,0,1-.75-2.41c-.1-4.19,5.93-6.29,5.52-7.6-.46-1.48-9-1.1-17.63,2.72a45.08,45.08,0,0,0-12.32,8.21c-4.56,4.08-10.43,9.49-11.68,17.84-.35,2.41-.76,5.15.56,6.15,2.74,2.08,8.91-6.41,20.7-12.68,12.06-6.42,24.69-7.7,24.46-9C542.49,1541.48,536.1,1542.8,533.79,1539.13ZM517,1546.28c-7,3.29-10.06,6.83-10.69,6.15-.79-.86,2.7-7.89,9.07-11.07,7.32-3.66,15.93-1,16,.25C531.38,1542.64,525.53,1542.26,517,1546.28Z" fill="#534741" stroke="#000" stroke-miterlimit="10" stroke-width="0.61"/><path d="M454.84,1522a10.49,10.49,0,0,0,1.3,4.33c2.06,3.59,5.81,4.65,8.41,5.39,2.44.69,6.22,1.75,10.14.21,3-1.18,3.94-3,9.38-10,2.25-2.87,4.14-5.12,7.91-9.62,4.2-5,7.2-8.56,11.48-12.86,3.06-3.08,6.33-6.09,7.29-7,1.63-1.49,3-2.73,4.07-3.63a21.17,21.17,0,0,1-3.13-2.65c-2.13-2.19-2.18-3.2-4.05-5.72a21.24,21.24,0,0,0-2.82-3.18c-.34-.32-6.35-5.73-13.66-4.13a13.23,13.23,0,0,0-5,2.24,53.07,53.07,0,0,1-2.15,6.78,51.63,51.63,0,0,1-4.11,8.22,58.93,58.93,0,0,1-9.28,11.36c-.77.76-1.17,1.08-1.95,1.93a55,55,0,0,0-5.54,7.37c-1.93,3-3,5.24-5.59,8.17A30.88,30.88,0,0,1,454.84,1522Z" fill="#9a101a"/><path d="M458.32,1520.23a91.75,91.75,0,0,1,10.37,5,97,97,0,0,1,8.33,5.26c1.68,1.76,4.21,1.41,5.14,0a3.72,3.72,0,0,0-1-4.57,83.63,83.63,0,0,0-20.29-11.77,3.42,3.42,0,0,0-4.93,1.12A3.82,3.82,0,0,0,458.32,1520.23Z" fill="#fbffff"/><path d="M464.86,1513.22a91,91,0,0,1,10.38,5,95.84,95.84,0,0,1,8.32,5.26c1.68,1.76,4.21,1.41,5.14,0a3.71,3.71,0,0,0-1-4.57,85.9,85.9,0,0,0-11.35-7.51,83.39,83.39,0,0,0-8.95-4.26,3.42,3.42,0,0,0-4.93,1.12A3.82,3.82,0,0,0,464.86,1513.22Z" fill="#fbffff"/><path d="M471.09,1506.23a92.64,92.64,0,0,1,18.69,10.27c1.69,1.75,4.22,1.4,5.14,0a3.72,3.72,0,0,0-1-4.57,85.25,85.25,0,0,0-11.35-7.5,82.68,82.68,0,0,0-8.95-4.27,3.43,3.43,0,0,0-4.93,1.12A3.83,3.83,0,0,0,471.09,1506.23Z" fill="#fbffff"/><path d="M477.92,1498.86a91.67,91.67,0,0,1,10.37,5,90.68,90.68,0,0,1,8.32,5.26c1.69,1.76,4.22,1.41,5.14,0a3.71,3.71,0,0,0-1-4.57,84.7,84.7,0,0,0-20.29-11.78,3.45,3.45,0,0,0-4.94,1.12A3.84,3.84,0,0,0,477.92,1498.86Z" fill="#fbffff"/><path d="M483.11,1489.65a94.46,94.46,0,0,1,18.7,10.27c1.68,1.76,4.21,1.41,5.14,0a3.71,3.71,0,0,0-1-4.57,84.47,84.47,0,0,0-20.3-11.78,3.44,3.44,0,0,0-4.93,1.12A3.81,3.81,0,0,0,483.11,1489.65Z" fill="#fbffff"/></g></g></g></svg>