<svg id="costumes" xmlns="http://www.w3.org/2000/svg" xmlns:xlink="http://www.w3.org/1999/xlink" viewBox="0 0 1080 1920"><defs><clipPath id="clip-path"><path d="M609.41,953.84c-3.29.14-10.82,1-14.1,1.06-17.5.23-5.12,3.74-20.5,2.3-.53,3.37,7.16,6,6.52,10.13,2.31,0-10,5.54-.13,6.07,2.9.15,18.06,1.47,20,1.55,13.63-.11,23.53.24,37.16,0,11.95-.17-93.27,17.81-81.38,14.27-.49-3.84,6.19-46.53,5.86-49.91C540.45,936.37,631.92,955.52,609.41,953.84Z" fill="none"/></clipPath><radialGradient id="radial-gradient" cx="636.53" cy="761.75" r="29.04" gradientTransform="matrix(1, 0, 0, -1.62, 0, 1995.99)" gradientUnits="userSpaceOnUse"><stop offset="0.01" stop-color="#e7f0f8"/><stop offset="1" stop-color="#fff" stop-opacity="0"/></radialGradient><radialGradient id="radial-gradient-2" cx="636.63" cy="725.03" r="19.94" gradientTransform="matrix(1, 0, 0, -1.62, 0, 1899.77)" xlink:href="#radial-gradient"/><radialGradient id="radial-gradient-3" cx="508.51" cy="765.09" r="29.62" gradientTransform="matrix(1, 0, 0, -1.62, 0, 2004.75)" xlink:href="#radial-gradient"/><radialGradient id="radial-gradient-4" cx="508.4" cy="727.63" r="20.34" gradientTransform="matrix(1, 0, 0, -1.62, 0, 1906.6)" xlink:href="#radial-gradient"/><radialGradient id="radial-gradient-5" cx="712.82" cy="747.39" fx="691.4381444284465" fy="713.9572373861968" r="76.89" gradientTransform="translate(-57.94 -561.09) scale(1.08 1.74)" gradientUnits="userSpaceOnUse"><stop offset="0.01" stop-color="#fff"/><stop offset="1" stop-color="#fff" stop-opacity="0"/></radialGradient><radialGradient id="radial-gradient-6" cx="968.63" cy="749.17" fx="947.2575491852787" fy="715.7294195883942" r="76.89" gradientTransform="matrix(-1.08, 0, 0, 1.74, 1477.02, -562.34)" xlink:href="#radial-gradient-5"/></defs><g id="_20" data-name="20"><path d="M469.4,967.16a1264.87,1264.87,0,0,0-1,161.76c2.54,43.74,7.19,84.35,13,121.44A1055,1055,0,0,0,490.76,1468a89.42,89.42,0,0,1,21.6,1.44c5.66,1.1,9.33,2.42,18.72,4.32,5.21,1.06,9.49,1.75,12.24,2.16a1241.23,1241.23,0,0,0,14-132c1.72-33,2-64.28,1.34-93.62q7-52.29,13.45-105.6,10.73-88.42,19.44-174.48c-18.36-39.51-58.16-56.79-86.81-45.84C479.52,934.09,470.72,962.66,469.4,967.16Z" fill="#1d7bbd"/><path d="M540.87,1099.16c-1.22-.06-4.71,39-5.72,79.76-.79,32.07,0,65.07,1.08,65.09,1.39,0,3.29-51.49,3.93-71.53C540.36,1166.17,542.47,1099.23,540.87,1099.16Z" opacity="0.26"/><path d="M535.87,1296c-1.39,0-3.42,37.54-2.15,77.26.88,27.51,3.36,56.37,4.56,56.33,1.76-.07.63-62,.54-66.8C538.61,1351.68,537.56,1296,535.87,1296Z" opacity="0.26"/><path d="M400.19,1568.69a8,8,0,0,0-2.82,4.23,8.06,8.06,0,0,0,.47,5.41,72.08,72.08,0,0,0,12.7,8c22.62,11.11,44.27,6.79,48.46,5.88,6.49-1.41,21.52-4.68,32.47-16,3.14-3.24,7.83-9.1,16.94-17.4,3.47-3.17,6.45-5.66,8.46-7.3.48,2.2,1,4.39,1.42,6.59q8.87-3.37,18.35-7.53,7.1-3.13,13.64-6.35l-1.41-15.53a46.51,46.51,0,0,0-1.18-22.82c-2.58-8.12-8.6-18.85-13.41-18.11-4,.61-3.61,8.53-9.17,10.82-4.56,1.88-10.2-1.22-14.35-4.23l-9.65,16.15a109.62,109.62,0,0,0,5.88-11.57c1-2.29,1.32-3.23,1.3-4.46-.08-5.4-6.31-9.11-7.41-9.77-7.11-4.23-14.91-2.27-16.35-1.88-4.89,1.32-8.47,4.07-15.18,11.41-10,11-13,16.81-24.46,30.7-7.1,8.59-9.85,11-13.41,13.17-2.48,1.49-7.33,3.29-16.94,6.83-10.6,3.9-13.74,4.81-16.23,8.46-.69,1-3.66,5.37-2.12,10.12A10.42,10.42,0,0,0,400.19,1568.69Z" fill="#613814"/><path d="M400.19,1568.69a68.73,68.73,0,0,0,17.17,9.17,67.48,67.48,0,0,0,26.82,4A66.68,66.68,0,0,0,475,1571.74c8.9-5.63,7.35-7.69,20.7-19,9-7.69,17.12-14.45,28.94-19.06a74.22,74.22,0,0,1,24.23-4.94l1.41,15.53-32,13.88c-.47-2.25-.94-4.51-1.42-6.76-2.68,2.29-6.78,5.89-11.58,10.52-10.46,10.1-11.69,13-17.27,17.57-9.82,8-20.16,10.61-26,12.08a79.17,79.17,0,0,1-31.83,1.09,67.61,67.61,0,0,1-21.8-7.21,65.39,65.39,0,0,1-10.51-7.06,7.94,7.94,0,0,1-.41-5.88A7.69,7.69,0,0,1,400.19,1568.69Z"/><path d="M401.92,1574.41c-.11.26,15.7,10.94,37,11.61,4,.12,22.1.32,36.7-9.26a137.43,137.43,0,0,0,11.29-8.62c6.09-5.13,8.4-7.89,12.23-11.45a105.59,105.59,0,0,1,23.53-16.16,128,128,0,0,1,24.15-9.88c-18.78,2.57-30.28,9-36.39,13.18-5.67,3.91-11.44,8.94-11.44,8.94-8.24,7.17-10.18,10.6-16.94,16a73.35,73.35,0,0,1-14.12,8.94c-16.84,8-33.43,5.74-40.46,4.71A86,86,0,0,1,401.92,1574.41Z" fill="#885f38"/><path d="M414.54,1544.93a40.66,40.66,0,0,0,14.51,11,48.56,48.56,0,0,0,25.41,2.51c18.68-3.08,36.85-21.62,46.65-47.91" fill="none" stroke="#000" stroke-miterlimit="10" stroke-width="1.96" stroke-dasharray="3.27"/><path d="M519.38,1535.83a22.58,22.58,0,0,1,1.57-10.66c2.58-6.18,7.36-9.33,11.29-11.92a42,42,0,0,1,16-6.28" fill="none" stroke="#000" stroke-miterlimit="10" stroke-width="1.96" stroke-dasharray="3.27"/><path d="M439.09,1538.34c1,.77-1.31,3.46-.32,6,.32.79,1.62,3.23,9.1,3.92,12.29,1.14,21.37-4.3,21.8-3.45s-6.84,7.15-17.25,9.41c-9.27,2-16.14-.3-22.27-2.35-3.48-1.17-5.39-2.25-5.49-3.61-.09-1.16,1.17-2,6.9-5.8C436.76,1538.92,438.38,1537.77,439.09,1538.34Z" fill="#885f38"/><path d="M448.65,1517a20.06,20.06,0,0,1,13.18-3.14c10.91,1.39,15.72,11.93,16,12.55" fill="none" stroke="#000" stroke-linecap="round" stroke-miterlimit="10" stroke-width="3.92"/><path d="M453.51,1509.17a20.06,20.06,0,0,1,13.18-3.14c10.91,1.39,15.73,11.93,16,12.55" fill="none" stroke="#000" stroke-linecap="round" stroke-miterlimit="10" stroke-width="3.92"/><path d="M459.47,1501a20.07,20.07,0,0,1,13.18-3.13c10.91,1.39,15.72,11.92,16,12.54" fill="none" stroke="#000" stroke-linecap="round" stroke-miterlimit="10" stroke-width="3.92"/><path d="M443.16,1525.64a20,20,0,0,1,13.18-3.14c10.91,1.39,15.72,11.93,16,12.55" fill="none" stroke="#000" stroke-linecap="round" stroke-miterlimit="10" stroke-width="3.92"/><path d="M683.72,969.08A862.38,862.38,0,0,1,688,1134a859.66,859.66,0,0,1-16.17,116.4,1053.94,1053.94,0,0,1,.81,112.66c-1.77,38.08-5.47,73.23-10.15,105a89.42,89.42,0,0,0-21.6,1.44c-5.67,1.1-9.34,2.42-18.72,4.32-5.21,1.06-9.49,1.75-12.24,2.16a1238.63,1238.63,0,0,1-14-132c-1.72-33-2-64.28-1.34-93.62-4.94-34.83-9.08-71.63-12.07-110.25-4.79-61.78-6-119.69-4.83-173,11.36-34,44.88-51,70.82-42.65C666.54,930.24,679.92,947.92,683.72,969.08Z" fill="#1d7bbd"/><path d="M612.41,1099.16c1.22-.06,4.72,39,5.72,79.76.8,32.07,0,65.07-1.07,65.09-1.39,0-3.29-51.49-3.93-71.53C612.93,1166.17,610.82,1099.23,612.41,1099.16Z" opacity="0.26"/><path d="M617.42,1296c1.39,0,3.42,37.54,2.15,77.26-.89,27.51-3.36,56.37-4.56,56.33-1.77-.07-.63-62-.54-66.8C614.68,1351.68,615.73,1296,617.42,1296Z" opacity="0.26"/><path d="M753.1,1568.69a8,8,0,0,1,2.82,4.23,8.12,8.12,0,0,1-.47,5.41,71.84,71.84,0,0,1-12.71,8c-22.61,11.11-44.26,6.79-48.46,5.88-6.48-1.41-21.51-4.68-32.46-16-3.14-3.24-7.84-9.1-16.94-17.4-3.47-3.17-6.45-5.66-8.47-7.3L635,1558.1q-8.88-3.37-18.35-7.53-7.1-3.13-13.64-6.35l1.41-15.53a46.6,46.6,0,0,1,1.17-22.82c2.58-8.12,8.61-18.85,13.41-18.11,4,.61,3.62,8.53,9.18,10.82,4.56,1.88,10.2-1.22,14.35-4.23l9.64,16.15a113.64,113.64,0,0,1-5.88-11.57c-1-2.29-1.31-3.23-1.29-4.46.08-5.4,6.3-9.11,7.41-9.77,7.11-4.23,14.9-2.27,16.35-1.88,4.88,1.32,8.46,4.07,15.17,11.41,10,11,13,16.81,24.47,30.7,7.1,8.59,9.84,11,13.41,13.17,2.48,1.49,7.33,3.29,16.94,6.83,10.6,3.9,13.74,4.81,16.23,8.46.69,1,3.66,5.37,2.12,10.12A10.48,10.48,0,0,1,753.1,1568.69Z" fill="#613814"/><path d="M753.1,1568.69a68.64,68.64,0,0,1-17.18,9.17,67.44,67.44,0,0,1-26.82,4,66.65,66.65,0,0,1-30.81-10.12c-8.91-5.63-7.36-7.69-20.71-19-9-7.69-17.11-14.45-28.93-19.06a74.32,74.32,0,0,0-24.23-4.94L603,1544.22l32,13.88,1.41-6.76c2.69,2.29,6.79,5.89,11.59,10.52,10.46,10.1,11.68,13,17.27,17.57,9.82,8,20.15,10.61,26,12.08a79.23,79.23,0,0,0,31.84,1.09,67.61,67.61,0,0,0,21.8-7.21,65.39,65.39,0,0,0,10.51-7.06,8,8,0,0,0,.41-5.88A7.76,7.76,0,0,0,753.1,1568.69Z"/><path d="M751.37,1574.41c.11.26-15.71,10.94-37,11.61-4,.12-22.1.32-36.7-9.26a137.43,137.43,0,0,1-11.29-8.62c-6.1-5.13-8.4-7.89-12.24-11.45a105.57,105.57,0,0,0-23.52-16.16,128.28,128.28,0,0,0-24.15-9.88c18.78,2.57,30.27,9,36.38,13.18,5.68,3.91,11.45,8.94,11.45,8.94,8.23,7.17,10.17,10.6,16.94,16a73.17,73.17,0,0,0,14.11,8.94c16.85,8,33.43,5.74,40.47,4.71A86,86,0,0,0,751.37,1574.41Z" fill="#885f38"/><path d="M738.75,1544.93a40.75,40.75,0,0,1-14.51,11,48.56,48.56,0,0,1-25.41,2.51c-18.68-3.08-36.85-21.62-46.66-47.91" fill="none" stroke="#000" stroke-miterlimit="10" stroke-width="1.96" stroke-dasharray="3.27"/><path d="M633.9,1535.83a22.33,22.33,0,0,0-1.57-10.66c-2.57-6.18-7.36-9.33-11.29-11.92a41.82,41.82,0,0,0-16-6.28" fill="none" stroke="#000" stroke-miterlimit="10" stroke-width="1.96" stroke-dasharray="3.27"/><path d="M714.2,1538.34c-1,.77,1.31,3.46.31,6-.31.79-1.62,3.23-9.09,3.92-12.3,1.14-21.38-4.3-21.8-3.45s6.84,7.15,17.25,9.41c9.27,2,16.14-.3,22.27-2.35,3.48-1.17,5.38-2.25,5.49-3.61.09-1.16-1.17-2-6.9-5.8C716.53,1538.92,714.91,1537.77,714.2,1538.34Z" fill="#885f38"/><path d="M704.63,1517a20,20,0,0,0-13.17-3.14c-10.91,1.39-15.73,11.93-16,12.55" fill="none" stroke="#000" stroke-linecap="round" stroke-miterlimit="10" stroke-width="3.92"/><path d="M699.77,1509.17A20,20,0,0,0,686.6,1506c-10.91,1.39-15.73,11.93-16,12.55" fill="none" stroke="#000" stroke-linecap="round" stroke-miterlimit="10" stroke-width="3.92"/><path d="M693.81,1501a20,20,0,0,0-13.17-3.13c-10.91,1.39-15.73,11.92-16,12.54" fill="none" stroke="#000" stroke-linecap="round" stroke-miterlimit="10" stroke-width="3.92"/><path d="M710.12,1525.64A20,20,0,0,0,697,1522.5c-10.91,1.39-15.73,11.93-16,12.55" fill="none" stroke="#000" stroke-linecap="round" stroke-miterlimit="10" stroke-width="3.92"/><path d="M503,622,534.68,612l40,22.44,14.88.24q3.36-2.83,7.08-5.64a170.46,170.46,0,0,1,31.92-19q19.1,8.26,40.08,16.32,20.74,7.92,40.32,14.4c14.73,13.78,19.64,26.48,21.6,34.56,8.5,35-20.47,56.53-37.44,121.68-4.4,16.87-5.94,28.82-8.64,49.68a564.62,564.62,0,0,0-2.88,118.08q-28.21-2.91-56.44-5.89-29.29-3.09-58.58-6.26l-95.22,10C475.71,901.47,468,854,459.8,821.48c-20-80-60.12-139.89-36-166.32,8.43-9.23,26.45-16.31,41.76-22.32A210,210,0,0,1,503,622Z" fill="#e7f0f8"/><path d="M574,664.76c-1.21,22.57-4.7,87.67-5.9,110.24-.16,2.92-2,37-3.94,74q-1,24.13-2,48.28l18.24,33.8,17.7-37q-5-115.2-9.92-230.42A7.39,7.39,0,0,0,574,664.76Z" fill="#1d7bbd"/><path d="M560,636.59a79.8,79.8,0,0,1,42.11-.27l-2.68,4a45.54,45.54,0,0,1-22.53,4.56,45,45,0,0,1-16.63-4.3Z" fill="#0d5375"/><path d="M561.91,639c5.67-.74,11.86-1.32,18.51-1.6,6.31-.27,12.24-.24,17.7,0a47.15,47.15,0,0,1-5.63,19.85,46.27,46.27,0,0,1-4.29,6.43L574,664.76A32.9,32.9,0,0,1,561.91,639Z" fill="#146da3"/><path d="M571.43,641.69c0-1,7.68-1.54,15.89-2.08,4.55-.3,6-.26,7,.8,2.4,2.61-.38,8.83-1.75,11.87-2.13,4.77-5.1,8.41-5.49,8.18s.92-2.32,2.28-6.9c1.14-3.88,1.7-5.84,1-7-1-1.66-3.12-1.53-9.12-2.49C576,643.2,571.44,642.47,571.43,641.69Z" fill="#0d5375"/><path d="M564,649.9c-.47.26,1.21,4.77,4.35,8.65a11.32,11.32,0,0,0,3.69,3.28c3.08,1.54,6.77,1.12,6.91.4s-3.11-1.07-7-3.68C566.33,654.74,564.46,649.62,564,649.9Z" fill="#3ba2e2"/><g id="collar"><path id="color" d="M514.76,629.63l0,.08c5.1,7.61,8.94,15.54,13.1,23.4,3.27,6.17,6.53,12.34,9.27,18.61a170,170,0,0,1,9.23-18.79c4.74-8.17,9.75-17.91,17.93-24.93.07-.12.14-.24.22-.35L536,604.13A329.51,329.51,0,0,0,514.76,629.63Zm127.06.81c-6.09-9.2-11.6-18.59-16.75-28.08L593.89,629l.06.09c.49.46,1,.93,1.43,1.4,3.43,2.92,5.62,6.79,7.89,10.16a105.34,105.34,0,0,1,7.92,13.83,89.45,89.45,0,0,1,5.55,15.18l.42.67c11-16.25,24.8-39.51,24.8-39.51Z" fill="#e7f0f8"/><g id="effects"><path d="M607,623.81c1.63-7.29,11.29-12.4,15.35-19.08L593.89,629l.06.09c.49.46,1,.93,1.43,1.4,3.43,2.92,5.62,6.79,7.89,10.16a105.34,105.34,0,0,1,7.92,13.83c.95,2,1.8,4,2.58,6.1,2.27-8.46.56-12.88-1-19.67C610.82,632.64,606.7,624.91,607,623.81Z" fill="#fff" opacity="0.5"/><path d="M640.68,630.38c-6-9.07-10.95-16.89-16-26.25-3,3.63-5.54,5.75-8.85,9.2,4.14,4.27,7.29,11.39,8.19,14,4.36,12.8.08,25.19-9.26,35.86.75,2.13,1.45,4.26,2,6.42.14.22,23.94-39.25,23.94-39.25Z" opacity="0.1"/><path d="M536,604.13l-.11.13,0,0c3.25,4.14,5.15,7.09,8.83,10.87,2,2.09,3.29,3.32,4.12,5.87.55,1.71,1.38,6.33-1.65,12-3.88,7.18-7.77,16.68-8.78,24.43a39.41,39.41,0,0,0,.38,10.68,159.51,159.51,0,0,1,7.64-15.17c4.74-8.17,9.75-17.91,17.93-24.93.07-.12.14-.24.22-.35Z" fill="#fff" opacity="0.5"/><path d="M527.49,621.05a47.19,47.19,0,0,1,9.14-15.14,3.22,3.22,0,0,1-.46-.34c-7.38,8.07-13.76,15.34-20.13,23.82,0,0,7.86,13.84,12,21.69,3.28,6.18,6.59,13.19,9.33,19.46.29-.7,1.07-1.77,1.38-2.47a195.17,195.17,0,0,1-11.71-26.63C524.55,634.27,525.14,627.6,527.49,621.05Z" opacity="0.1"/></g><path d="M536,604.13l28.6,23.52,6,6.46-1.68,0-4.88-3S544.67,658,537.18,671.72c0,0,10.45-29.07,22.07-43.29Z" fill="#fff"/><path d="M625.07,602.36l-31,25.29-3.9,6.33h1.42l3-2.83S606,641.75,617.16,670.3c0,0-6.12-27.65-17.74-41.87Z" fill="#fff"/></g><g opacity="0.54"><path d="M562.47,1064.85c-.27-.87,9.65-7,21.64-6.64a37.71,37.71,0,0,1,21.16,7.74,69.61,69.61,0,0,0-23.42-3.68C570.34,1062.48,562.7,1065.59,562.47,1064.85Z" opacity="0.26"/><path d="M586.1,976.25q-.15,83.05-.32,83.06s-.09-3.9-.13-11.7A14.81,14.81,0,0,1,571,1034.16q-.31-33.68-.64-67.35l15.82-.66Z" opacity="0.26"/></g><path id="belt_color" data-name="belt color" d="M526.63,972.47c21.69.94,43.4,1.24,65.09,2.25l5.73.25c15.59.64,28.37.34,40.88,0,17.09-.44,32.57-1,46.35-1.46a27.83,27.83,0,0,0-3.24-22.68,582.38,582.38,0,0,1-67.2,3.66c-18.1-.06-30.9-.93-46.89-1.89-22.56-1.35-54.78-3.05-95-4.41a19.74,19.74,0,0,0-3.6,21.6,233.78,233.78,0,0,1,31.35.84c.76.08,1.62.23,3.17.33C511.09,971.5,518.85,972.13,526.63,972.47Z"/><g id="effects-2" data-name="effects"><path id="belt_effect" data-name="belt effect" d="M638.56,963.28c5.86-.2,11.71-.81,17.57-.88,6.13-.07,13.13,0,19.24,2.12q-.69-6.63-1.37-13.26a349.27,349.27,0,0,1-41.58,3.42c-9.3.2-17,0-22.86-.18-16-.45-27.89-1.43-32.58-1.8-14.66-1.17-37.68-2.76-76.73-5q-1,6.45-2,12.91c12.87,3.42,24.86,1.58,38-.4,10.19-1.53,20.47-2.06,29.12,4.79a43.54,43.54,0,0,0,6.41-2.68A37.49,37.49,0,0,1,582.92,959a73.92,73.92,0,0,1,31.37,2.21C622.39,961.85,630.4,963.56,638.56,963.28Z" fill="#989898" opacity="0.14"/><path d="M539.2,951.55c-1.57-3.24-5.37-3.95-8.26-2.83a6,6,0,0,0-1,2.69c-1.14,6.75-1.32,25.13,0,25.71,0,0,7.13,1.55,8.49.19,2-2,2.72-17.5,1.9-24.67A2.08,2.08,0,0,1,539.2,951.55Z" fill="#989898" opacity="0.2"/><path d="M638.59,978.84c1.3-3.56.1-22.66-.37-23.6s-9.18-1.61-10,.25-.51,21.44,1.18,24.77C629.75,980.92,637.86,980.84,638.59,978.84Z" fill="#989898" opacity="0.2"/></g><g id="clasp"><g clip-path="url(#clip-path)"><g id="clasp-2" data-name="clasp"><path id="color-2" data-name="color" d="M607.62,959.56s.44-3.37-1-5.6c-1.57-2.43-35.84-5-39-2.26-4.66,4.13-1.75,22.55-.92,24.1,1.37,2.57,27.1.77,32.08,0,4.79-.74,6.82-.5,8.23-2.6S607.64,960.21,607.62,959.56Zm-3.6,11.5c-1.12,1.52-2.32,1.28-6.35,1.7s-25.41,1-26.58-.83c-.71-1.14-2.81-14,.82-16.8,2.43-1.9,30.29-.21,31.7,1.58,1.3,1.64,1.17,4.62,1.17,4.62C604.82,961.8,605.13,969.54,604,971.06Z" fill="#8d9197"/><g id="effects-3" data-name="effects"><path d="M603.61,956.71c1.3,1.64,1.17,4.62,1.17,4.62,0,.41.27,6.3-.39,8.82,2.31-3.47,2.3-10.4,0-13.86-5.13-2.66-10.72-2-17.14-2.4-3.8-.25-8.77-.75-12.25.6C583.21,953.81,602.42,955.21,603.61,956.71Zm.7,17.94c-3.79,1.25-8.58.89-12.68,1-4.7.15-9.65.58-14.71.46-7.73-.18-10.41-2.43-10.44-9,0-4.74-1.12-10.85,1.32-15.56,0,0-.11.06-.14.09-4.66,4.13-1.75,22.55-.92,24.1,1.37,2.57,27.1.77,32.08,0,4.77-.74,6.8-.5,8.21-2.58A8.59,8.59,0,0,1,604.31,974.65Z" opacity="0.2"/><path d="M607.62,959.56s.44-3.37-1-5.6-26.17-4.25-35.84-3.1l-.39.34a3.48,3.48,0,0,0-1.14,1.83,50.66,50.66,0,0,0-.44,19.63,6.13,6.13,0,0,0,1.41,1.51,5.57,5.57,0,0,0,1.5.76c7.19.67,14.09.22,20.78-.14,5-.26,11.48.55,15-3.21C608.21,967.89,607.64,960.1,607.62,959.56Zm-2,10.57a3.92,3.92,0,0,1-2.36,1.63c-1,.73-2.41.66-5.64,1-4.18.43-25.41,1-26.58-.83-.58-.92-2.05-9.42-.67-14.23-1.38-6.82,9.94-5.46,14.78-5.08,3.59.28,7.54.19,11.11.67a2.22,2.22,0,0,1,.64,0c2.57.2,5.38.4,7.16,2.17s1.91,4.55,2.2,6.89S607.19,967.88,605.67,970.13Z" fill="#fff" opacity="0.3"/><path d="M607.14,966.74c.11-1.25.23-2.52.3-3.78.2-3.15.64-8.36-2.93-10-5.28-1.43-19.75-2.64-29.21-2.41a16.39,16.39,0,0,0-2,.28A5.9,5.9,0,0,0,569,954.6a50.7,50.7,0,0,0-.54,15.06,11.3,11.3,0,0,0,1.76,3.26,14.37,14.37,0,0,0,5,1.76c4.23.52,8.85,0,12.9-.32,2-.14,4.12-.48,6.15-.69-4,.13-8.25.33-12.57.25a34.1,34.1,0,0,1-8.29-.85,4.29,4.29,0,0,1-3.3-1.77c-1.37-2.14-1.15-5.42-1.05-7.83.1-2.16-.06-5.35,1-7.78h0c1.59-7.71,20.31-4.09,25.25-3.58,3.75.39,7.71.79,9.79,3.75a10.87,10.87,0,0,1,1.54,6.95,13.56,13.56,0,0,1,.11,2.63.53.53,0,0,1-.05.18,11.13,11.13,0,0,1-1.06,5.67,3.71,3.71,0,0,0,.54-.44,6.45,6.45,0,0,0,.8-1.44C607.08,968.51,607.07,967.55,607.14,966.74Z" fill="#fff" opacity="0.5"/><path d="M568,963.05a1.84,1.84,0,0,0-1.73.91,1.51,1.51,0,0,0,.34,1.78,4.22,4.22,0,0,0,2.64.82l6.58.51a5.89,5.89,0,0,0,1.11,0,2.26,2.26,0,0,0,2-2.53,1.69,1.69,0,0,0-1.23-1.33,2.72,2.72,0,0,0-.9,0c-3,.24-5.58-.4-8.78-.15" opacity="0.15"/></g><path id="color-3" data-name="color" d="M577.89,963.44a2.06,2.06,0,0,1,.53,1.27A1.43,1.43,0,0,1,578,966a2.31,2.31,0,0,1-1.63.32l-7.94-.36a2.86,2.86,0,0,1-1.86-.53,1.35,1.35,0,0,1,.24-2,4.63,4.63,0,0,1,2.32-.75,27,27,0,0,1,8.09.23" fill="#8d9197"/><g id="effects-4" data-name="effects"><path d="M570.63,964.62a27.76,27.76,0,0,0,3.76,0c.49,0,1.93-.16,2.25-.61s0-.87-.26-1.27a27.37,27.37,0,0,0-7.24-.11,4.63,4.63,0,0,0-2.32.75,1.62,1.62,0,0,0-.56,1C567.72,964.37,569.24,964.55,570.63,964.62Z" fill="#fff" opacity="0.3"/><path d="M576.61,963.14a1.9,1.9,0,0,0-.23-.39,27.37,27.37,0,0,0-7.24-.11,4.63,4.63,0,0,0-2.32.75,1.75,1.75,0,0,0-.33.39A30.39,30.39,0,0,1,576.61,963.14Z" fill="#fff" opacity="0.5"/><path d="M577,964.73c-1.32.82-3.09.74-4.69.65a57.26,57.26,0,0,1-5.94-.38,1.11,1.11,0,0,0,.26.39,2.86,2.86,0,0,0,1.86.53l7.94.36A2.31,2.31,0,0,0,578,966a1.43,1.43,0,0,0,.41-1.25,2.06,2.06,0,0,0-.53-1.27l-.5-.43A1.23,1.23,0,0,1,577,964.73Z" opacity="0.2"/></g></g></g></g><g id="belt_loops" data-name="belt loops"><path id="belt_loop_color" data-name="belt loop color" d="M538.4,948c-2.27-.66-8.11-4.37-9.24,2.38s-1.33,25.13,0,25.71c0,0,7.12,1.56,8.48.19C540.11,973.79,540.67,948.69,538.4,948Zm98.79,5.48c-.46-.93-9.2-1.63-10,.25s-.71,21.66,1,25c.33.66,8.48.59,9.23-1.43C638.69,973.76,637.66,954.46,637.19,953.51Z" fill="#141414"/><path id="belt_loops_effect" data-name="belt loops effect" d="M538.4,948c-2.25-.65-8-4.27-9.2,2.17a1.67,1.67,0,0,1,2.14.5c5,6.46,4.68,17.84,2.26,26.1,1.71.15,3.4.11,4-.49C540.11,973.79,540.67,948.69,538.4,948Zm98.79,5.48c-.46-.93-9.2-1.63-10,.25a11.26,11.26,0,0,0-.37,2.71,2.86,2.86,0,0,1,.81-.73,2,2,0,0,1,1.84-.18,1.28,1.28,0,0,1,1.37.31c2.56,3,3.07,8,2.64,13.59,0,3.15-.15,6.44-.19,9.54,1.94-.24,3.75-.75,4.09-1.65C638.69,973.76,637.66,954.46,637.19,953.51Z" opacity="0.1"/></g><rect x="574.64" y="634.4" width="16.2" height="317.4" opacity="0.1"/><path d="M664,779.4l-26.79,12.92-28-12.92.31-48.23H664Z" stroke="#9dabad" stroke-miterlimit="10" stroke-width="0.88" fill="url(#radial-gradient)"/><path d="M664,731.17H609.42l-.31-11.66,55-.63Z" stroke="#9dabad" stroke-miterlimit="10" stroke-width="0.88" fill="url(#radial-gradient-2)"/><path d="M480.53,783.1l27.33,13.18,28.62-13.18-.32-49.2H480.53Z" stroke="#9dabad" stroke-miterlimit="10" stroke-width="0.89" fill="url(#radial-gradient-3)"/><path d="M480.53,733.9h55.63l.32-11.89-56.16-.65Z" stroke="#9dabad" stroke-miterlimit="10" stroke-width="0.89" fill="url(#radial-gradient-4)"/><path d="M453.05,637l5.85,6.39,36.18-10.08,6.84-9.18-6-1.71c-5.95,1.55-12.18,3.37-18.63,5.49C468.54,630.75,460.46,633.83,453.05,637Z"/><path d="M482.24,627l3.54,6.84,7.8-2.34,4.62-6-3.66-1.92Z" fill="#e7f0f8"/><path d="M455.72,636.4l4.74,6.18,3.48-1.08-5-6.6Z" fill="#fddb71"/><path d="M460.28,634.48l5,6.54,3.42-.84-5.1-7.08Z" fill="#fddb71"/><path d="M465.08,632.5l5.34,7.14,3.66-1-5.52-7.26Z" fill="#fddb71"/><path d="M470.66,630.46l5.58,7.68,3.36-.9L474,629.38Z" fill="#fddb71"/><path d="M698.66,636.44l-6.1,6.15-35.75-11.51-6.47-9.44,6.09-1.47q8.84,2.69,18.4,6.22C683.43,629.61,691.38,633,698.66,636.44Z"/><path d="M669.89,625.3,666.08,632l-7.7-2.65L654,623.16l3.73-1.77Z" fill="#e7f0f8"/><path d="M696,635.76l-5,6-3.43-1.22c1.74-2.13,3.49-4.26,5.23-6.4Z" fill="#fddb71"/><path d="M691.53,633.66,686.3,640l-3.39-1,5.38-6.87Z" fill="#fddb71"/><path d="M686.82,631.49l-5.62,6.93-3.62-1.11,5.8-7Z" fill="#fddb71"/><path d="M681.32,629.23l-5.88,7.46-3.32-1q2.94-3.81,5.89-7.63Z" fill="#fddb71"/><rect x="480.32" y="701.36" width="57" height="10.08" rx="5.04" fill="#9dabad"/><circle cx="508.76" cy="728.42" r="3.06" fill="#d6ae3c"/><circle cx="636.02" cy="725.18" r="3.06" fill="#d6ae3c"/><g id="upperarm"><path d="M756.7,813.3c.4,4.57.4,4.57-.4,6.68a9.7,9.7,0,0,1-1.47,2.36,65,65,0,0,1-5,5.92,7.65,7.65,0,0,1-1.62-3.26c-1.53-4.26-5.4-7.75-5.66-12.25a.75.75,0,0,1,.09-.49.85.85,0,0,1,.53-.25,60,60,0,0,1,11.17-1.3" fill="#c4d0da"/><path id="color-4" data-name="color" d="M670.73,650.49c7.13-8.69,19-12.85,28.57-10.54,0,0,10.48,1.31,20.8,10.09a75.13,75.13,0,0,1,7.38,12.9,166.19,166.19,0,0,1,6.76,18.78c3.81,13.15,4.76,26.6,7.44,40.07,2.74,20.75,5.22,40.82,5.22,40.82l4.49,31.68,3.39.29c2.29,4.64,1.83,12.39,2,16.45,0,1.31,0,2.63,0,3.94a14.88,14.88,0,0,1-3.82.7s-35.53,10.6-44.34,17.83a17.37,17.37,0,0,0-5.9,9.71l.81,2.65-3.89-.47c-4-.47-6.74-11.49-8.36-17.08-1.67-5.75-5-14.68-2.91-18.57a7.06,7.06,0,0,1,2.57-2.09h0l-14.85-50.41s-12.23-38.17-13.58-62C661.14,671.76,663.57,659.22,670.73,650.49Z" fill="#e7f0f8"/><path id="color-5" data-name="color" d="M670.73,650.49c7.13-8.69,19-12.85,28.57-10.54,0,0,10.48,1.31,20.8,10.09a75.13,75.13,0,0,1,7.38,12.9,166.19,166.19,0,0,1,6.76,18.78c3.81,13.15,4.76,26.6,7.44,40.07,2.74,20.75,5.22,40.82,5.22,40.82l4.49,31.68,3.39.29c2.29,4.64,1.83,12.39,2,16.45,0,1.31,0,2.63,0,3.94a14.88,14.88,0,0,1-3.82.7s-35.53,10.6-44.34,17.83a17.37,17.37,0,0,0-5.9,9.71l.81,2.65-3.89-.47c-4-.47-6.74-11.49-8.36-17.08-1.67-5.75-5-14.68-2.91-18.57a7.06,7.06,0,0,1,2.57-2.09h0l-14.85-50.41s-12.23-38.17-13.58-62C661.14,671.76,663.57,659.22,670.73,650.49Z" fill-opacity="0.3" fill="url(#radial-gradient-5)"/><g id="effects-5" data-name="effects"><path d="M669.54,724.43c1.74,3.79,15.62,41,19.86,51.46,2.1,5.19,6.29,15.24,12.79,18,.19.2,34.26-4.28,45.69.13-2.75-.17-5.74-.3-8.66-.31h0a54.92,54.92,0,0,0-11.47.9c-8,1.84-27.38,8-35.69,12.34,1.46-.76,3.25-1.58,5.27-2.42a15.79,15.79,0,0,0-1.42,1.54c-2.67,3.36,1.58,18.29,2.13,19.48,4.66,10,7.3,2,23.18-3.29,29.61-9.9,32.8-8.56,35.46-9.27,0,.65,0,1.29,0,1.94a14.88,14.88,0,0,1-3.82.7s-35.52,10.61-44.34,17.83a17.29,17.29,0,0,0-5.89,9.71l.79,2.65-3.88-.47c-4-.48-6.74-11.49-8.36-17.08-1.66-5.75-5-14.68-2.91-18.58.32-.59,2.43-2,3.78-2.74C692.05,807,672.89,737.6,669.54,724.43Z" opacity="0.1"/><path d="M691.79,807.16l-.22.12Z" opacity="0.1"/><path d="M689.6,803.25l1.3,4.4c7.48-4.39,28.45-11.07,36.9-13a54.92,54.92,0,0,1,11.47-.9,46.34,46.34,0,0,0-6.12-.37c-4.17.1-8.35.33-12.52.72l-.28,0C710.8,795.81,697.58,796.66,689.6,803.25Z" opacity="0.1"/><path d="M678,677.86c2.8,11.2,8.56,21.75,9.52,33.24.37,4.39,0,8.92,1.47,13.1,4.19,12.12,20.33,15.45,29.49,24.66a55.78,55.78,0,0,1,3.95,6c3.19,5.84-1.41,24.85,3.42,27.36a17.93,17.93,0,0,0,2.22.92,7.21,7.21,0,0,0,6.07,2.35,6.19,6.19,0,0,0,1-.21c2.94.78,5.62,1.38,6.62,1.51,6,.75,3.59-6.83,1.67-17.33-1.35-7.4-2.59-14.78-3.77-22.14-1.71-20.34-4.49-40.59-10.07-60.25-2.87-10.1-6.12-25.16-13.08-33.2-6-7-21.41-11.92-31.35-6.92S675.79,669.2,678,677.86Z" fill="#fff" opacity="0.5"/><path d="M738.82,787.89c-2.89-1.38-5.34-3.25-6.62-6.23-3.83-8.91,1-19.15-1.38-28.39-1.59-6.11-5.8-11.06-10-15.7-3.59-3.93-9.06-8.6-7.31-14.36,1.11-3.66,3.6-6.88,5.18-10.36a31.34,31.34,0,0,0,2.51-10.24c.73-7.75,1-16.42-1.39-23.93-3.79-11.84-14-26.58-28.08-27.72a21.51,21.51,0,0,0-9.5,1.64,11.31,11.31,0,0,1,5.9-4.94c4.78-2,9.91.29,14.3,2.33,12.12,5.63,19.35,17.81,23,29.7,3.25,10.7,4,21.92,5.17,33A545.72,545.72,0,0,0,743,785.65,7.07,7.07,0,0,1,738.82,787.89Z" fill="#fff"/></g><path d="M754.52,812.58a19.55,19.55,0,0,0-3.1-5.73,6.15,6.15,0,0,0-2.48-2.07c-2.42-.94-5,.75-7.4,1.66-3.87,1.47-8.2.95-12.36.8a64.73,64.73,0,0,0-20.39,2.58,10.4,10.4,0,0,0-3.7,1.69c-2.07,1.69-2.57,4.56-2.74,7.18a55.26,55.26,0,0,0,0,6.93,33,33,0,0,1-4.91-13.32c-.23-1.76-.25-3.76,1-5a7,7,0,0,1,2.24-1.32l9.76-4.18a95.89,95.89,0,0,1,13.62-5c8-2.07,16.31-2.08,24.55-2.08,4.42,0,5.34,1.25,5.73,5.13.21,2.17.35,4.34.37,6.52C754.76,808,754,811,754.52,812.58Z" fill="#fff" opacity="0.5"/><path d="M751.63,799.18a8.1,8.1,0,0,0-4.81-1.93c-3.38-.43-7.33.11-10.71.5a58,58,0,0,0-7.24,1.58c-9.06,2.22-18.68,2.77-27.07,6.74a110.62,110.62,0,0,1,26.54-8.8,107.51,107.51,0,0,1,14.32-1.77c3-.16,7-.67,9.58,1,3.24,2.12,2,10.63,2.42,11.06C753.3,803.73,753.63,801.17,751.63,799.18Z" fill="#fff"/><path d="M698.23,837.5c-1.91-5.37-3.13-9.71-5-15.08,3.11,5.38,3.17,6.1,6.14,9.07,3.32,3.3,6.16,1.23,9.95-.75,9.19-4.79,11.56-5.25,21.57-9.25a117.43,117.43,0,0,1,13.72-4.71c1.84-.48,3.71-.95,5.6-1.25a38.38,38.38,0,0,1,4.4-.46,2.49,2.49,0,0,1,.8,0,14.52,14.52,0,0,1-.3,2.65c-.16,1-2.56,5.2-2.43,5.56a23.13,23.13,0,0,1-1.27-5c-6.57.55-12.7,3.29-18.67,6-7.52,3.4-16.3,4.92-22.56,10.19-5.08,4.28-6.4,7.85-6.4,10.38-1.56-.27-3.26.58-4.72,0-1.2-.51-1.77-1.83-2.2-3a157.49,157.49,0,0,1-7.07-26.59C693.77,825.72,694.15,831.38,698.23,837.5Z" opacity="0.1"/></g><g id="upperarm-2" data-name="upperarm"><path d="M387,815.14c-.4,4.57-.4,4.57.4,6.68a9.73,9.73,0,0,0,1.48,2.36,64.93,64.93,0,0,0,4.95,5.92,7.65,7.65,0,0,0,1.62-3.26c1.54-4.26,5.41-7.75,5.66-12.25a.75.75,0,0,0-.09-.49.83.83,0,0,0-.53-.25,60,60,0,0,0-11.17-1.3" fill="#c4d0da"/><path id="color-6" data-name="color" d="M473,652.33c-7.13-8.69-19-12.85-28.57-10.54,0,0-10.48,1.31-20.8,10.09a75.79,75.79,0,0,0-7.38,12.9,166.19,166.19,0,0,0-6.76,18.78c-3.81,13.15-4.75,26.6-7.44,40.07-2.74,20.75-5.22,40.82-5.22,40.82l-4.49,31.68-3.38.29c-2.3,4.64-1.83,12.39-2,16.45,0,1.31,0,2.63,0,3.94a14.92,14.92,0,0,0,3.83.7s35.52,10.6,44.33,17.83a17.3,17.3,0,0,1,5.9,9.71l-.8,2.65,3.88-.47c4-.47,6.74-11.49,8.36-17.08,1.67-5.75,5-14.68,2.91-18.57a7.06,7.06,0,0,0-2.57-2.09h0l14.86-50.41s12.22-38.17,13.57-62C482.55,673.6,480.12,661.06,473,652.33Z" fill="#e7f0f8"/><path id="color-7" data-name="color" d="M473,652.33c-7.13-8.69-19-12.85-28.57-10.54,0,0-10.48,1.31-20.8,10.09a75.79,75.79,0,0,0-7.38,12.9,166.19,166.19,0,0,0-6.76,18.78c-3.81,13.15-4.75,26.6-7.44,40.07-2.74,20.75-5.22,40.82-5.22,40.82l-4.49,31.68-3.38.29c-2.3,4.64-1.83,12.39-2,16.45,0,1.31,0,2.63,0,3.94a14.92,14.92,0,0,0,3.83.7s35.52,10.6,44.33,17.83a17.3,17.3,0,0,1,5.9,9.71l-.8,2.65,3.88-.47c4-.47,6.74-11.49,8.36-17.08,1.67-5.75,5-14.68,2.91-18.57a7.06,7.06,0,0,0-2.57-2.09h0l14.86-50.41s12.22-38.17,13.57-62C482.55,673.6,480.12,661.06,473,652.33Z" fill-opacity="0.3" fill="url(#radial-gradient-6)"/><g id="effects-6" data-name="effects"><path d="M474.14,726.27c-1.73,3.79-15.62,41-19.86,51.46-2.09,5.19-6.29,15.24-12.79,18-.19.2-34.25-4.28-45.68.13,2.74-.17,5.73-.3,8.66-.31h0a54.87,54.87,0,0,1,11.46.9c8,1.84,27.38,8,35.69,12.34-1.46-.76-3.25-1.58-5.27-2.42a17.27,17.27,0,0,1,1.43,1.54c2.67,3.36-1.59,18.29-2.14,19.48-4.66,10.05-7.3,2-23.17-3.29-29.62-9.9-32.8-8.56-35.47-9.27,0,.65,0,1.29,0,1.94a14.88,14.88,0,0,0,3.82.7s35.52,10.61,44.35,17.83a17.24,17.24,0,0,1,5.88,9.71l-.79,2.65,3.88-.47c4-.48,6.74-11.49,8.36-17.08,1.67-5.75,5-14.68,2.91-18.58-.32-.59-2.43-2-3.78-2.74C451.63,808.83,470.79,739.44,474.14,726.27Z" opacity="0.1"/><path d="M451.89,809l.22.12Z" opacity="0.1"/><path d="M454.08,805.09l-1.3,4.4c-7.48-4.39-28.44-11.07-36.9-13a54.87,54.87,0,0,0-11.46-.9,46.23,46.23,0,0,1,6.12-.37c4.17.1,8.34.33,12.51.72l.28,0C432.88,797.65,446.11,798.5,454.08,805.09Z" opacity="0.1"/><path d="M465.73,679.7c-2.8,11.2-8.57,21.75-9.53,33.24-.36,4.39,0,8.92-1.47,13.1-4.18,12.12-20.33,15.45-29.49,24.66a55.78,55.78,0,0,0-3.95,6c-3.18,5.84,1.42,24.85-3.42,27.36a17.93,17.93,0,0,1-2.22.92,7.2,7.2,0,0,1-6.07,2.35,6.45,6.45,0,0,1-1-.21c-2.93.78-5.62,1.38-6.62,1.51-6,.75-3.59-6.83-1.67-17.33,1.36-7.4,2.59-14.78,3.77-22.14,1.71-20.34,4.49-40.59,10.08-60.25,2.87-10.1,6.12-25.16,13.07-33.2,6-7,21.41-11.92,31.36-6.92S467.89,671,465.73,679.7Z" fill="#fff" opacity="0.5"/><path d="M404.87,789.73c2.88-1.38,5.33-3.25,6.62-6.23,3.83-8.91-1-19.15,1.37-28.39,1.6-6.11,5.8-11.06,10-15.7,3.58-3.93,9.05-8.6,7.3-14.36-1.11-3.66-3.6-6.88-5.18-10.36a31.07,31.07,0,0,1-2.5-10.24c-.74-7.75-1-16.42,1.38-23.93,3.8-11.84,14-26.58,28.08-27.72a21.51,21.51,0,0,1,9.5,1.64,11.28,11.28,0,0,0-5.9-4.94c-4.78-2-9.9.29-14.29,2.33-12.13,5.63-19.35,17.81-23,29.7-3.26,10.7-4.06,21.92-5.18,33a545.72,545.72,0,0,1-12.42,73A7.07,7.07,0,0,0,404.87,789.73Z" fill="#fff"/></g><path d="M389.16,814.42a19.35,19.35,0,0,1,3.11-5.73,6.18,6.18,0,0,1,2.47-2.07c2.42-.94,5,.75,7.4,1.66,3.87,1.47,8.2,1,12.36.8a64.73,64.73,0,0,1,20.39,2.58,10.4,10.4,0,0,1,3.7,1.69c2.08,1.69,2.57,4.56,2.74,7.18a55.26,55.26,0,0,1,0,6.93,33,33,0,0,0,4.9-13.32c.24-1.76.25-3.76-1-5a7.09,7.09,0,0,0-2.24-1.32l-9.76-4.18a96,96,0,0,0-13.63-5c-7.95-2.07-16.31-2.08-24.55-2.08-4.42,0-5.34,1.25-5.72,5.13q-.33,3.25-.38,6.52C388.93,809.87,389.7,812.83,389.16,814.42Z" fill="#fff" opacity="0.5"/><path d="M392.05,801a8.13,8.13,0,0,1,4.81-1.93c3.38-.43,7.33.11,10.72.5a58.29,58.29,0,0,1,7.23,1.58c9.06,2.22,18.68,2.77,27.07,6.74a110.47,110.47,0,0,0-26.54-8.8A107.57,107.57,0,0,0,401,797.34c-3-.16-7-.67-9.59,1-3.24,2.12-2,10.63-2.41,11.06C390.38,805.57,390.05,803,392.05,801Z" fill="#fff"/><path d="M445.45,839.34c1.91-5.37,3.14-9.71,5-15.08-3.1,5.38-3.16,6.1-6.14,9.07-3.32,3.3-6.15,1.23-10-.75-9.19-4.79-11.56-5.25-21.56-9.25a118.72,118.72,0,0,0-13.72-4.71c-1.85-.48-3.72-1-5.61-1.25a38.15,38.15,0,0,0-4.4-.46,2.49,2.49,0,0,0-.8,0,14.52,14.52,0,0,0,.3,2.65c.17,1,2.57,5.2,2.43,5.56a23.74,23.74,0,0,0,1.28-5c6.57.55,12.69,3.29,18.66,6,7.52,3.4,16.31,4.92,22.56,10.19,5.08,4.28,6.4,7.85,6.4,10.38,1.57-.27,3.26.58,4.72,0,1.21-.51,1.77-1.83,2.2-3a156.56,156.56,0,0,0,7.07-26.59C449.91,827.56,449.54,833.22,445.45,839.34Z" opacity="0.1"/></g><path d="M454,231.08c-48,21.16-50.34,48.56-100.08,58.32-50.81,10-126.49-3.3-151.2-54.72-27.41-57,21.61-132.45,71.28-167,34.43-24,56.81-19.74,187.92-28.08,170.38-10.84,189.65-21.63,257-8.64,50.86,9.8,106.06,21.18,153.36,67,43.85,42.44,85.32,118.68,60.48,155.52-20.76,30.79-80.39,23-196.56,6.48C567.29,235.85,523.17,200.58,454,231.08Z" fill="#fff"/><path d="M448.28,331.88c-4.65-.74-50.49-8.82-68.4-48.24-2.14-4.72-9.8-22.19-5.76-43.92,5-26.85,24.59-42.82,36-51.84,10.09-8,38.69-28.42,121-36.72,50.21-5.06,97.9-9.37,154.8,9.36,54.62,18,73.94,42.78,80.64,52.56,6.11,8.91,17,24.84,15.84,44.64-1.81,30.32-31.3,58.42-74.16,70.56Z" fill="#f7f7f7" stroke="#000" stroke-miterlimit="10" stroke-width="3"/><path d="M386.09,214.52A331.22,331.22,0,0,0,420.2,249.8s25.48,22.59,51.12,37.44c60.23,34.89,174.35,44.3,218.88-3.6,1.1-1.19.28-.38,33.84-41,13.85-16.77,25.2-30.49,32.64-39.48A88.88,88.88,0,0,1,770.6,222.2c4.87,9,11.46,21.16,10.08,37C779.24,275.6,770,287,765.08,293a88.09,88.09,0,0,1-13.2,12.72,130.09,130.09,0,0,1-40.44,21.84l-263.16,4.32L408,315.08a79.09,79.09,0,0,1-19.08-18.84c-5.34-7.48-14.06-22.54-14.4-42.3A69.56,69.56,0,0,1,377,234.05,67.44,67.44,0,0,1,386.09,214.52Z" fill="#e4e4e4"/><path d="M446.6,276.2c-2.09,3.61-2.55,7.08-2.88,17.76-.29,9.38-.42,22,.24,37.2a53.78,53.78,0,0,0,15.12,18.48c14.95,11.42,32.35,11.13,44.16,11,28-.2,56,1.92,84,1.92,28.18,0,56.36-5.23,84.48-3.36,7.48.5,21.94,1.72,30.72-7.2,7.66-7.78,8.72-21,9-24.48a51.5,51.5,0,0,0-1.32-16.32c.61-7.89,1.35-14.27,1.92-18.72,1-8.08,1.86-12.17-.48-16.32a15.87,15.87,0,0,0-7.2-6.24c-18.4-9.26-44.34-12.42-49-13-10.14-1.18-15.21-1.77-23-2.4-22.3-1.8-39.82-1.92-48.48-1.92-30.07,0-55.09,3-105.12,9.12C468.62,263,453,265.14,446.6,276.2Z" fill="#333" stroke="#000" stroke-miterlimit="10" stroke-width="4"/><path d="M472,261.32A47.18,47.18,0,0,0,487.4,288.2a45.32,45.32,0,0,0,17.28,9.12q43.91-1.05,91.2,0,31,.74,60.48,2.4a54.57,54.57,0,0,0,23.52-37.92A611.5,611.5,0,0,0,472,261.32Z" fill="#1b1a1b"/><path d="M448.28,331.88a84.68,84.68,0,0,0,14.16,10.56C482.2,354.16,500.67,354,531.56,354c55.72,0,51.48.64,79.68,0,34.53-.78,49.36-1.94,67.68-8.64a145.38,145.38,0,0,0,27.36-13.44A397.89,397.89,0,0,0,597.8,311.24,418.85,418.85,0,0,0,503.24,318,428.55,428.55,0,0,0,448.28,331.88Z" fill="#1a1a1a"/><path d="M461,326.72a25.52,25.52,0,0,0,5.64,8,28.06,28.06,0,0,0,11.64,6.36c6.81,1.94,9.4.27,17.88,1a61,61,0,0,1,15.12,3.24,27.63,27.63,0,0,0-10.08-11.4c-4.94-3.06-9.78-3.69-13.68-4.2-6-.78-7.71.21-14-.36A54,54,0,0,1,461,326.72Z" fill="#e8bc48"/><path d="M512.16,335.94a25.65,25.65,0,0,0,7,6.87,28.13,28.13,0,0,0,12.61,4.11c7.05.65,9.29-1.46,17.75-2.34A60.66,60.66,0,0,1,565,345a27.61,27.61,0,0,0-12-9.35c-5.42-2.1-10.3-1.83-14.22-1.62-6.06.34-7.54,1.62-13.87,2.23A53.94,53.94,0,0,1,512.16,335.94Z" fill="#e8bc48"/><path d="M582.84,343.89a25.65,25.65,0,0,1,7-6.87,28.13,28.13,0,0,1,12.61-4.11c7-.65,9.29,1.46,17.75,2.34a60.66,60.66,0,0,0,15.46-.4,27.61,27.61,0,0,1-12,9.35c-5.42,2.1-10.3,1.83-14.22,1.62-6.06-.34-7.54-1.62-13.87-2.23A53.94,53.94,0,0,0,582.84,343.89Z" fill="#e8bc48"/><path d="M637.53,344a25.57,25.57,0,0,1,5.84-7.89,28.2,28.2,0,0,1,11.8-6.07c6.85-1.77,9.41,0,17.9-.5a61,61,0,0,0,15.2-2.86,27.65,27.65,0,0,1-10.37,11.14c-5,2.94-9.87,3.44-13.78,3.85-6,.63-7.7-.4-14,0A53.79,53.79,0,0,0,637.53,344Z" fill="#e8bc48"/><path d="M578.6,276.8c-26.13-.19-53.68-20.3-54.36-48.06-.71-28.83,27.9-51.93,56.34-50.58,29.78,1.41,55.91,29.46,51.3,58C627.89,260.78,602.31,277,578.6,276.8Z" fill="#0c0c0c"/><path d="M408,315.08A443.55,443.55,0,0,1,739,314.81c-3.32,2-7,4-11,6a143.56,143.56,0,0,1-15.9,6.63A396.11,396.11,0,0,0,443.33,330a205.21,205.21,0,0,1-19.8-7.38C417.88,320.16,412.69,317.62,408,315.08Z" fill="#d9a345"/></g></svg>