<svg xmlns="http://www.w3.org/2000/svg" viewBox="0 0 1080 1920"><g style="isolation:isolate"><g id="costumes"><g id="_23" data-name="23"><path d="M477.2,982.2c-30.16,25.58-57.81,68.31-71.63,96s-33.09,72.26-38.95,86.92c2.93,16.76,36-7.12,55.29-9.63-7.12,19.69-5.45,56.13,4.19,72.88,12.56-2.93,23.66-14.66,29.11-18.22,2.72,3.77,4.19,12.36,5.45,16.55,6.07-1.05,11.1-6.91,17.8-9.22,5.86,9.22,11.1,38.12,13.61,47.76,28.07-3.15,50.06-39.38,68.49-54.46,4.61,13.41,16.75,30.58,22.62,34.35,8.38-4.61,23-22.62,29.32-31,6.28,14.66,32.25,44.4,44.82,51.11,13.82-7.54,26-31.84,28.07-46.92,10.89,11.73,47.75,28.07,70,28.9-5-34.76-26.28-82.94-24-136.55S719.42,992.46,679.66,982.2C643.92,983.28,502.33,978.61,477.2,982.2Z" fill="#e36d0c"/><path d="M425.59,1187.76a20.72,20.72,0,0,0-1.17,6.63C424.86,1192.18,425.22,1190,425.59,1187.76Z" fill="#f8a41b"/><path d="M731.31,1110.62c2.25-53.55-11.85-118-51.49-128.37a30.3,30.3,0,0,1-4.07,1c55.29,47.75,17.59,120.64,25.13,183.47-15.07,0-12.56-17.6-20.1-27.65,0,25.13,10.05,47.75,27.64,62.83,14.88,14.87,31,28.53,46.47,42.55C749.21,1209.94,729.11,1162.88,731.31,1110.62Z" fill="#f8a41b"/><path d="M610.41,1023.49c-45.45-10.82-113.23,4.4-145.63-29.66-25.17,25.59-47.31,60.53-59.21,84.32-13.82,27.65-33.09,72.26-38.95,86.92a9.1,9.1,0,0,0,.64,2.1c25.7-8.94,48.94-23.56,62.19-48.18,0,22.93-.05,45.85-3.86,68.77,3.93-11.65,16.81-20.82,18.94-33.58,5,15.08-7.54,30.16,5,45.24,5-15.08,17.6-22.62,30.16-32.67v22.62c22.62-47.76,67.86-75.4,115.62-98,17.59-7.54,32.67-22.62,37.69-42.73.1-.37.16-.74.25-1.11C631.45,1035.77,625.67,1026.54,610.41,1023.49Z" fill="#f8a41b"/><path d="M657.33,1266.61l-.6-.31c-12.14-6.48-36.82-34.3-44.49-49.8-4.47,5.8-19.44,24.72-28.45,29.68l-.66.36-.63-.4c-6-3.83-17.52-20.22-22.51-33.29-5.1,4.42-10.54,10.4-16.26,16.7-14.75,16.24-31.47,34.64-51.52,36.89l-1.08.12-.28-1.06c-.6-2.31-1.36-5.71-2.23-9.65-2.63-11.82-6.54-29.44-10.71-36.87a41.34,41.34,0,0,0-7.19,4.11c-3.24,2.15-6.3,4.19-9.85,4.8l-1.1.19-.32-1.07c-.33-1.12-.68-2.55-1.07-4.11-.91-3.71-2-8.22-3.54-11-1.18.87-2.59,2-4.16,3.32-6.21,5.11-14.72,12.1-24.3,14.34l-.91.21L425,1229c-9.31-16.19-11.59-51-5-71.93-6.38,1.25-14.11,4.49-21.61,7.63-9.32,3.91-18.13,7.6-24.37,7.6-5,0-7.88-2.34-8.69-7l-.06-.35.13-.33c6.12-15.31,25.44-59.9,39-87,15.27-30.53,43.43-72.17,71.94-96.35l.27-.23.36,0c6.57-.94,21.43-1.4,45.44-1.4,23.82,0,52.59.44,80.41.86,23.68.35,46,.69,61.79.69,6.39,0,11.28-.05,15-.17h.17l.18,0c39.65,10.23,55,72.51,52.58,129.69-1.48,35.39,7.23,68,14.93,96.85,3.8,14.25,7.39,27.71,9.1,39.47l.21,1.5-1.51-.06c-21.75-.82-56.34-15.94-69.07-27.57-2.89,14.77-14.3,37.79-28.3,45.43ZM479,1215.92l.53.84c4.59,7.21,8.61,25.32,11.55,38.54.74,3.34,1.4,6.3,1.95,8.5,18.64-2.69,34.67-20.33,48.85-35.94,6.3-6.93,12.25-13.48,17.89-18.1l1.4-1.15.59,1.71c4.49,13.06,16,29.1,21.49,33.27,8.11-5,21.92-21.82,28.25-30.26l1.31-1.74.86,2c6.18,14.42,31.11,43,43.65,50.16,12.61-7.39,24.71-30.37,26.83-45.65l.36-2.62,1.81,1.94c10.18,11,45.51,26.93,67.56,28.42-1.76-11.27-5.19-24.11-8.81-37.67-7.74-29-16.51-61.83-15-97.6,2.28-54.27-12.57-117.13-50.53-127.11-3.69.11-8.55.16-14.86.16-15.77,0-38.14-.34-61.82-.69-27.82-.42-56.58-.86-80.38-.86-23.46,0-38.1.44-44.72,1.33-28.15,24-55.94,65.11-71,95.32-13.44,26.86-32.52,70.89-38.78,86.48.66,3.13,2.57,4.54,6.15,4.54,5.74,0,14.32-3.6,23.4-7.41,8.47-3.55,17.22-7.22,24.28-8.14l2-.26-.7,1.93c-7,19.35-5.12,54.7,3.64,71,8.65-2.33,16.54-8.82,22.36-13.6,2.12-1.75,4-3.26,5.43-4.22l1-.66.7,1c2.15,3,3.5,8.49,4.59,12.93.25,1,.49,2,.72,2.86,2.63-.73,5.15-2.41,7.79-4.17a38.76,38.76,0,0,1,8.72-4.74Z" fill="#8b2500"/><path d="M484.11,1026c-4.81,1.68-4.81,13.2,0,19.9,6.08,5.65,18.43,0,19.06-6.28S491.65,1024.33,484.11,1026Z" fill="#5e2300"/><path d="M463.38,1076.27c-7.54,10.68-15.71,47.12-11.31,58.75,5.65,1.88,12.88-9.43,18.85-10.37s7.85,5.65,15.39,4.4c8.8-6.6,9.82-29.53,5.54-40.21S478.14,1069,463.38,1076.27Z" fill="#5e2300"/><path d="M510.5,1198c-5.23,1.67-4.4,22.4,0,29.11,5.66,1,16.34-12.57,15.71-18.64S517,1195.86,510.5,1198Z" fill="#431400"/><path d="M555.43,1125.28c-6,1.57-18.54,19.48-13.51,33.93,7.22,6.91,22,1.25,26.39-7.54S566.11,1122.77,555.43,1125.28Z" fill="#431400"/><path d="M564.22,1048.94c-6.59-3.77-10.68-6-13.5,4.4s-2,30.78,4.5,35.18,10.89-4.08,19.37-7.22,20.11,1.57,24.51-5.35-3.46-23.86-10.69-30.15S569.56,1039.51,564.22,1048.94Z" fill="#5e2300"/><path d="M640.77,1121.93c-8.75,7.38-14,30.58-8.79,42.51s20.52,13.3,28.9-2.15,8.8-23,5.45-30.1S651.46,1112.92,640.77,1121.93Z" fill="#431400"/><path d="M656.9,1204.66c-4.61,4.81-7.12,18.64-2.3,27s12.56,1.26,15.92-8S667.16,1200.47,656.9,1204.66Z" fill="#431400"/><path d="M735,1159.53c-8.52,1.35-19,13.5-17.32,24s25.9,14,25.9,14C740.83,1186.92,738.45,1166.55,735,1159.53Z" fill="#5e2300"/><path d="M668.29,1018.46c-9.19,2.91-22.7,16.76-12.23,26.39s27.65-2.93,31.42-9.63S686.79,1012.6,668.29,1018.46Z" fill="#431400"/><path d="M478.88,950c-18.43-2.31-23.06,42.93-5.25,52.57s56.77,15.91,87.35,12.56c37.28,1.26,103.41-6.28,127.73-23.87,14.27-14.67,9.19-52.36-18.22-48.18C635.54,964,519.93,976.16,478.88,950Z" fill="#e36d0c"/><path d="M670.49,943.06c-1,.62-2.14,1.23-3.3,1.82,27.4,8.92,25.63,28.74,16.69,49.42a52.93,52.93,0,0,0,4.83-3.06C703,976.57,697.9,938.88,670.49,943.06Z" fill="#f8a41b"/><path d="M640.57,983.28c14.59-8.23,4-18.59-8.61-26.71-49.19,11.1-122.21,13.09-153.08-6.59-13.23-1.66-19.34,21.17-15.16,37.76C518.83,1019,592.18,1010.54,640.57,983.28Z" fill="#f8a41b"/><path d="M543.33,1017.28c-26.56,0-55.46-5.6-70.29-13.63-11-5.95-14-24.73-10.46-38.72,2.77-10.94,8.88-17.15,16.45-16.2l.52.19c14.88,9.48,41.69,14.71,75.49,14.71,44.86,0,94.21-9.3,114.8-21.64l.46-.17c11.31-1.72,20.3,3.35,24.74,13.85,5.1,12.07,2.71,28.08-5.43,36.44-24.58,17.81-86.79,24.39-120.27,24.39-2.93,0-5.74,0-8.4-.13A161,161,0,0,1,543.33,1017.28Zm-65.8-66.13c-5.55,0-10.23,5.38-12.51,14.4-3.31,13.07-.73,30.51,9.21,35.89,14.5,7.85,42.92,13.33,69.1,13.33a161.37,161.37,0,0,0,17.51-.91c2.82.08,5.6.13,8.5.13,41.58,0,97.29-8.33,118.64-23.77,7.32-7.55,9.48-22.36,4.74-33.57-3.94-9.33-11.78-13.83-21.8-12.38-21.06,12.48-70.78,21.87-115.88,21.87-34.09,0-61.27-5.3-76.59-14.95C478.14,951.16,477.83,951.15,477.53,951.15Z" fill="#8b2500"/><path d="M479.71,970.71c-1.61-3.23-9.44-6.42-16.17-4.33-2.48,11.12-.92,25.07,5.66,32.58C481.58,993.94,486.14,981.42,479.71,970.71Z" fill="#5e2300"/><path d="M539.84,975.19c-6.14,4.4-8.46,13-2.32,20.65,5,5,17.59,7.54,22.62,0C566.14,981.84,553,975.81,539.84,975.19Z" fill="#5e2300"/><path d="M668.21,968.2c4.57-7.61.82-15.21-5.61-21.14a168.22,168.22,0,0,1-28,8.87C640.58,969.81,659.31,983.77,668.21,968.2Z" fill="#431400"/><path d="M592.81,990.82c0,2.51-2.51,10,2.52,12.56,13.53,4.52,27-5.16,29.66-19.91C614.48,986.45,600.62,981.06,592.81,990.82Z" fill="#431400"/><path d="M547,678c.1-.22.2-.42.29-.63.68-1.43,1.45-2.85,2.17-4.3a60.28,60.28,0,0,1-7-9.74c-7.56-13.22-8.63-27-9.69-42.53-.22-3.19-.31-5.78-.36-7.32-.09-.13-.39-.57-.72-.54s-.77.79-.78,1.92c.11,1.3.27,3.22.46,5.54,2.84,33.36,4.34,40.78,8.61,48.3A46.35,46.35,0,0,0,547,678Z" fill="#5f4924"/><path d="M557.86,673.36c-.84-2.64-3.35-4.78-5.23-6.47-1.27-1.11-3.58-3.8-5.37-3.63-2.52.27-3.23,2.38-4.68,4.52-2.3,3.41-4.43,7-6.42,10.64a79.05,79.05,0,0,0-6,13.34c-2.7,4.77-4.25,9.49-.87,10.81,2.93,1.13,7.81-4.63,9.72-6.39a159.67,159.67,0,0,1,15.33-12.91C557.73,680.84,559.23,677.66,557.86,673.36Z" fill="#f1e6c3"/><path d="M557.76,673.4a11.22,11.22,0,0,0-3.56-4.77l-2.3-1.91a23.89,23.89,0,0,0-2.27-1.85,3.43,3.43,0,0,0-2.27-.87,3.26,3.26,0,0,0-2.08,1.14,18.81,18.81,0,0,0-1.61,2.42l-1.67,2.6-1.72,2.55c-.61.82-1.1,1.7-1.65,2.56-1.07,1.75-2.17,3.43-3.18,5.26-.52.88-1,1.78-1.45,2.72s-1,1.83-1.33,2.8-.83,1.91-1.15,2.88-.69,2-1,3l0,0v0a21.54,21.54,0,0,0-2.43,6.56,3.26,3.26,0,0,0,.6,2.74,2.17,2.17,0,0,0,1.12.58,1.2,1.2,0,0,0,.59,0,4.05,4.05,0,0,0,.64-.17,9.18,9.18,0,0,0,2.63-1.64,26.14,26.14,0,0,0,2.45-2.27c.82-.82,1.56-1.64,2.47-2.5l2.56-2.28,2.56-2.3c.88-.74,1.71-1.51,2.61-2.22,1.84-1.37,3.66-2.75,5.53-4.06l2.78-1.94.68-.49.61-.56a8.94,8.94,0,0,0,1.1-1.25,6.52,6.52,0,0,0,1.18-3.23A9.33,9.33,0,0,0,557.76,673.4Zm.17-.08a10.45,10.45,0,0,1,.52,3.65,8.1,8.1,0,0,1-1,3.56,10.81,10.81,0,0,1-2.32,2.72l-2.58,2.31c-1.71,1.52-3.45,3-5.17,4.41s-3.36,3.11-5.08,4.62l-2.58,2.28c-.78.71-1.61,1.58-2.45,2.36s-1.72,1.59-2.65,2.32a11.25,11.25,0,0,1-3.14,1.79,6.8,6.8,0,0,1-1,.19,2.9,2.9,0,0,1-1-.1,3.58,3.58,0,0,1-1.75-1,4.63,4.63,0,0,1-.8-4.1,22.42,22.42,0,0,1,3-6.73l0,.08c.4-1,.76-2,1.13-3s.83-1.92,1.25-2.9c.84-1.9,1.74-3.79,2.65-5.64s1.87-3.73,2.84-5.58c.49-.91.94-1.87,1.48-2.75l1.59-2.65,1.63-2.59a16.28,16.28,0,0,1,1.87-2.61,4.32,4.32,0,0,1,3-1.39,4.6,4.6,0,0,1,2.94,1.4c.76.68,1.47,1.43,2.14,2.16l2.13,2.14A14.09,14.09,0,0,1,557.93,673.32Z" fill="#eec9a8"/><path d="M537.19,676.63a1.2,1.2,0,0,1-.2.39l-.07.06c-.25.46-.51.9-.76,1.34a79.05,79.05,0,0,0-6,13.34,32.23,32.23,0,0,0-1.73,3.49,3.38,3.38,0,0,0,4.92,1.08,22,22,0,0,0,4-3.44c1.54-1.69,3.05-3.42,4.45-5.23,3-3.9,9.59-12.23,8.07-18-1.26-4.65-4.06-4.56-6.83-2.72l-.52.8C540.65,670.63,538.87,673.62,537.19,676.63Z" fill="#fff" opacity="0.5"/><path d="M557.86,673.36c-.84-2.64-3.35-4.78-5.23-6.47-1.27-1.11-3.58-3.8-5.37-3.63a3.67,3.67,0,0,0-2.14.93,10.72,10.72,0,0,1,6.24,6.5c2.61,7-3.79,13.52-7.91,17.6-3.39,3.34-10.19,13.63-15.58,11a3.52,3.52,0,0,1-.46-.28c-.13,1.67.38,3,1.9,3.56,2.93,1.13,7.81-4.63,9.72-6.39a159.67,159.67,0,0,1,15.33-12.91C557.73,680.84,559.23,677.66,557.86,673.36Z" fill="#eec9a8" opacity="0.5" style="mix-blend-mode:multiply"/><path d="M557.86,673.36a7.26,7.26,0,0,0-.54-1.25,9.34,9.34,0,0,1-.57,4.59c-1.45,3.42-3.88,5.53-6.53,7.73-3.4,2.8-6.7,5.73-9.89,8.83s-8,7.69-12.07,8.63a3.34,3.34,0,0,0,1,.68c2.93,1.13,7.81-4.63,9.72-6.39a159.67,159.67,0,0,1,15.33-12.91C557.73,680.84,559.23,677.66,557.86,673.36Z" fill="#eec9a8" style="mix-blend-mode:multiply"/><path d="M544.54,667.4c-1.28.36-4.08,4-1.93,5a.83.83,0,0,0,1-.41c.7-1.18,1.61-2.39,1.62-3.87C545.22,667.68,544.93,667.28,544.54,667.4Z" fill="#fff"/><path d="M540.14,674.2c-2.72,1.74-4.35,6.3-5.7,9.32s-3.5,5.73-3.36,9.16c0,.53.59,1.17,1,.55,1.54-2.6,2.77-5.6,4.09-8.36.78-1.6,1.4-3.32,2.14-5a25,25,0,0,0,2.19-5.35C540.5,674.32,540.33,674.07,540.14,674.2Z" fill="#fff"/><path d="M553.47,677c-2,.74-2.73,2.73-2.44,4.75a47,47,0,0,0,14.88,8.24c.36-1.67.7-3.33,1-5A42.3,42.3,0,0,1,553.47,677Z" fill="#5f4924"/><path d="M563.54,675.94a4,4,0,0,0-.48.89c-1.21,3.21-1.34,6.71-2.16,10s-1.58,6.51-2.24,9.81a70.32,70.32,0,0,0-1.24,8.8c-.13,1.58-.69,3.65-.16,5.18,1.37,3.9,3.74.3,5-1.46A54.16,54.16,0,0,0,570.2,695a74.35,74.35,0,0,1,3.28-7.71c.76-1.51,1.92-3.73,1.8-5.53-.27-4.47-6.23-7.33-9.69-7A3.17,3.17,0,0,0,563.54,675.94Z" fill="#f1e6c3"/><path d="M563.62,676l-.49.87c-.16.6-.47,1.56-.73,2.77s-.41,2.69-.6,4.43-.53,3.71-.95,5.8-.91,4.35-1.48,6.71-1.06,4.9-1.37,7.48c-.22,1.32-.41,2.67-.63,4a8.2,8.2,0,0,0,0,2,3.59,3.59,0,0,0,.77,1.7,1,1,0,0,0,1.44.1,6.36,6.36,0,0,0,1.37-1.33c.79-1.06,1.53-2.23,2.29-3.38l1.13-1.75,1-1.79a34.23,34.23,0,0,0,1.87-3.61,30.9,30.9,0,0,0,1.59-3.71c.5-1.21,1-2.51,1.45-3.73l.71-1.83c.27-.6.52-1.2.79-1.78.54-1.16,1.1-2.33,1.62-3.34a12.14,12.14,0,0,0,1.1-3.05,3.79,3.79,0,0,0,0-1.43,5.05,5.05,0,0,0-.42-1.28,9.2,9.2,0,0,0-3.6-3.64,10,10,0,0,0-3.76-1.32,3.1,3.1,0,0,0-2.43.48,4.57,4.57,0,0,0-.7.64Zm-.12-.1h0a4.81,4.81,0,0,1,.71-.7,3.63,3.63,0,0,1,2.55-.61,11.59,11.59,0,0,1,4,.94,9.13,9.13,0,0,1,4.4,3.61,6.2,6.2,0,0,1,.68,1.75,5.53,5.53,0,0,1,.11,1.93,12.5,12.5,0,0,1-1.17,3.62c-.49,1.09-1,2.19-1.55,3.33s-1,2.29-1.52,3.52-1,2.42-1.55,3.68a33.26,33.26,0,0,1-1.77,3.77,40.07,40.07,0,0,1-2.11,3.62l-1.17,1.73-1.23,1.64c-.83,1.1-1.64,2.18-2.55,3.24a6.8,6.8,0,0,1-1.52,1.41,2.08,2.08,0,0,1-1,.32,1.53,1.53,0,0,1-1-.54,4.73,4.73,0,0,1-.92-2,7.93,7.93,0,0,1-.06-2.17c.18-1.4.27-2.68.36-4.06a67.75,67.75,0,0,1,.89-7.73c.52-2.39,1-4.63,1.6-6.69s1.1-3.92,1.47-5.59.73-3.18,1-4.41.65-2.08.84-2.75.5-.87.5-.87Z" fill="#eec9a8"/><path d="M561.07,701.69a35.61,35.61,0,0,0,4.44-10.14c1.15-3.72,2.43-7.67,2.5-11.63.06-3.06-1.75-5.53-3.8-4.6a3.55,3.55,0,0,0-.67.62,4,4,0,0,0-.48.89c-1.21,3.21-1.34,6.71-2.16,10s-1.58,6.51-2.24,9.81a65.42,65.42,0,0,0-1,6.59C558.67,703.76,559.88,703.43,561.07,701.69Z" fill="#fff" opacity="0.5"/><path d="M568.25,675a8.59,8.59,0,0,1,2.82,5.83c.86,7.48-4.72,17.15-7.84,23.27-1.11,2.19-3.39,6.23-6,6.42a1,1,0,0,1,0,.16c1.37,3.9,3.74.3,5-1.46A54.16,54.16,0,0,0,570.2,695a74.35,74.35,0,0,1,3.28-7.71c.76-1.51,1.92-3.73,1.8-5.53C575.06,678.26,571.47,675.79,568.25,675Z" fill="#eec9a8" opacity="0.5" style="mix-blend-mode:multiply"/><path d="M571.06,676.11a12.48,12.48,0,0,1,1.56,9.72c-1.37,6.22-5.22,12.35-8.07,17.84-1.14,2.23-3.77,7-6.7,8.16,1.38,1.8,3.32-1.11,4.45-2.63A54.16,54.16,0,0,0,570.2,695a74.35,74.35,0,0,1,3.28-7.71c.76-1.51,1.92-3.73,1.8-5.53C575.13,679.27,573.26,677.32,571.06,676.11Z" fill="#eec9a8" style="mix-blend-mode:multiply"/><path d="M564.11,677.21a10.78,10.78,0,0,0-1.82,3.85c-.34,1.25,1.23,2.4,1.63.9a15.69,15.69,0,0,0,.76-4.31C564.68,677.34,564.38,676.86,564.11,677.21Z" fill="#fff"/><path d="M562,685.41A41.31,41.31,0,0,0,559,694.7c-.71,3.51-1.7,7.35-.83,10.92.09.41.59.68.71.14.73-3.33,1.2-6.77,1.82-10.12s1.68-6.76,1.76-10C562.42,685.39,562.15,685.12,562,685.41Z" fill="#fff"/><path d="M600.07,681.36A42.54,42.54,0,0,1,579,687.08a34.88,34.88,0,0,1-8.76-1.17c-2.26.68-1.68,3.09-.35,5.15a42.31,42.31,0,0,0,8.37,1.18c8.2.36,16.59-2.35,24.09-6.88C601.64,684,600.87,682.68,600.07,681.36Z" fill="#5f4924"/><path d="M603.79,667.09a8.25,8.25,0,0,0-2.28,0,22.82,22.82,0,0,0-8.24,3c-1.72,1-4.21,1.78-4.36,4.3-.12,2.33.94,4.09,1.46,6.22a23.91,23.91,0,0,1,.32,7.07,49.25,49.25,0,0,1-4.05,15.82c-1.82,4.12-5.06,6.61-7.22,10.34a3.76,3.76,0,0,0,.32,4.25c3.53,4.55,13.38-1.07,16.83-3,11.76-6.67,18.24-22,15.73-36.45C611.38,673.26,608.6,667.87,603.79,667.09Z" fill="#f1e6c3"/><path d="M603.78,667.16h-.38a4.41,4.41,0,0,0-1.08,0,8.13,8.13,0,0,0-1.74.25,14.81,14.81,0,0,0-2.31.61,28.32,28.32,0,0,0-5.86,2.92c-1.09.61-2.36,1.3-2.82,2.55-.16.23-.12.69-.2.87,0,.4.07.81.11,1.22a4.1,4.1,0,0,0,.24,1.12,10.25,10.25,0,0,0,.35,1.13c1.37,3.1,1.63,7.26,1.07,11.18-.15,1-.27,1.95-.41,3s-.48,2-.72,3a26.7,26.7,0,0,1-.91,3,28.74,28.74,0,0,1-1.07,3c-.43,1-.8,1.95-1.28,2.94a19.81,19.81,0,0,1-1.66,2.78c-1.24,1.75-2.7,3.28-4,5a18.74,18.74,0,0,0-1.72,2.73,3.39,3.39,0,0,0,.21,3,3,3,0,0,0,.44.59l.59.56a4.6,4.6,0,0,0,1.26.61,6.62,6.62,0,0,0,2.91.16c4-.59,7.68-2.68,11.21-4.74.81-.54,1.75-1.1,2.56-1.67a26.9,26.9,0,0,0,2.33-1.91,24,24,0,0,0,2.14-2.14c.69-.72,1.29-1.54,1.91-2.33a34.63,34.63,0,0,0,5.35-10.4,40,40,0,0,0,1.89-10.59,33.24,33.24,0,0,0-.76-9.13,14.77,14.77,0,0,0-2.9-6.22,5,5,0,0,0-.93-1,4.72,4.72,0,0,0-.86-.74,9.51,9.51,0,0,0-1.57-.86C604.26,667.32,603.78,667.16,603.78,667.16Zm0-.15,1.45.41a8.57,8.57,0,0,1,1.64.82,4.92,4.92,0,0,1,.89.74,5.36,5.36,0,0,1,1,.94,16.75,16.75,0,0,1,3.34,6.27,33.46,33.46,0,0,1,1.33,9.36,36.47,36.47,0,0,1-1.71,11.1,34.6,34.6,0,0,1-5.6,10.91,29.64,29.64,0,0,1-2,2.42,27.83,27.83,0,0,1-2.28,2.2c-.77.73-1.68,1.3-2.53,2s-1.71,1.1-2.65,1.64c-3.65,1.94-7.48,3.91-11.7,4.38a7.8,7.8,0,0,1-3.17-.33,5,5,0,0,1-1.49-.84l-.56-.58a3,3,0,0,1-.51-.73,4,4,0,0,1-.18-3.54,19.18,19.18,0,0,1,1.81-2.8c1.3-1.71,2.72-3.32,3.9-5.05a15.78,15.78,0,0,0,1.52-2.74c.42-.95.74-2,1.13-3a50,50,0,0,0,2.58-11.82c.43-3.84.36-7.4-.89-10.56a10.53,10.53,0,0,1-.56-2.6c0-.43,0-.82,0-1.23a4.81,4.81,0,0,1,.13-.74,1.48,1.48,0,0,1,.22-.63c.81-1.67,2.25-2.19,3.36-2.74s2.2-1.1,3.21-1.56,2-.8,2.85-1a14,14,0,0,1,2.33-.55,7.19,7.19,0,0,1,1.79-.2,4.73,4.73,0,0,1,1.08.05Z" fill="#eec9a8"/><path d="M605.06,675.92c-2.33-4.35-6.1-6.57-10-5.23a.57.57,0,0,1-.37.13,10,10,0,0,0-2.57,1.6,13.2,13.2,0,0,0-1.62,3,13.92,13.92,0,0,0,1.15,5.55,46.24,46.24,0,0,1,2.28,5.4,15.41,15.41,0,0,1-.16,8.41,22.92,22.92,0,0,1-5,8.61c-2,2.17-6.15,5-6.24,8.53a.08.08,0,0,1,0,0c5.52,1,11.11-2.79,15.31-6.42,3.66-3.15,7.11-7.25,8.33-12.35C607.47,687.9,607.69,680.83,605.06,675.92Z" fill="#fff" opacity="0.5"/><path d="M591.54,699.06c2.47-7.3,2.19-14.11-1.76-20.36a17.93,17.93,0,0,1,.59,1.88,23.91,23.91,0,0,1,.32,7.07,49.25,49.25,0,0,1-4.05,15.82,27,27,0,0,1-4.34,6.35C586,706.85,589.82,704.1,591.54,699.06Z" fill="#eec9a8" opacity="0.5" style="mix-blend-mode:multiply"/><path d="M603.79,667.09a8.25,8.25,0,0,0-2.28,0,22.82,22.82,0,0,0-8.24,3c-1.72,1-4.21,1.78-4.36,4.3a2.43,2.43,0,0,1,0,.27c4-4.59,10.17-7.56,15.54-3.48,6.27,4.77,6.42,14.68,4.18,22.08-3.15,10.41-9.89,17.08-18.93,21-3.05,1.34-6.69,3.54-9.9,1.34L579,715a3.8,3.8,0,0,0,.75,3.1c3.53,4.55,13.38-1.07,16.83-3,11.76-6.67,18.24-22,15.73-36.45C611.38,673.26,608.6,667.87,603.79,667.09Z" fill="#eec9a8" opacity="0.5" style="mix-blend-mode:multiply"/><path d="M590.21,697a30.16,30.16,0,0,0,.58-12.45c0,1.09,0,2.16-.1,3.14a49.25,49.25,0,0,1-4.05,15.82c-.19.42-.42.81-.62,1.19A19.58,19.58,0,0,0,590.21,697Z" fill="#eec9a8" style="mix-blend-mode:multiply"/><path d="M603.79,667.09a8.25,8.25,0,0,0-2.28,0,20.29,20.29,0,0,0-5.59,1.66c3.33.27,6.44-1.07,9.61,1.34a14.36,14.36,0,0,1,5.38,8.44,34.53,34.53,0,0,1-3.83,23.8,29.39,29.39,0,0,1-8.59,9.36c-3.88,2.62-8,5.82-12.51,6.68a12.67,12.67,0,0,1-6.15-.19c3.61,4.36,13.32-1.18,16.74-3.12,11.76-6.67,18.24-22,15.73-36.45C611.38,673.26,608.6,667.87,603.79,667.09Z" fill="#eec9a8" style="mix-blend-mode:multiply"/><path d="M605.74,679.8c-.11-.2-.35-.12-.33.12A32.27,32.27,0,0,1,601,699.45a22.38,22.38,0,0,1-6.14,6.41c-2.84,2-6.16,2.48-9.25,3.81-.24.11-.25.58,0,.67,2.66,1.32,6.88,0,9.39-1.43a23.73,23.73,0,0,0,8-8.22C606.56,694.87,608.63,686.45,605.74,679.8Z" fill="#fff"/><path d="M603.08,672.5a4.1,4.1,0,0,0-3.22-1c-.1,0-.12.21-.06.29.56.84,1.42,1.44,2,2.24a23.5,23.5,0,0,1,1.95,2.85c.67,1.11,1.77-.26,1.53-1.2A5.85,5.85,0,0,0,603.08,672.5Z" fill="#fff"/><path d="M617.51,664.84c-.22.31-.41.64-.64,1a52.88,52.88,0,0,1-9.4,10.35c-.29,1.37-.32,2.85.7,3.85a5.11,5.11,0,0,0,.87.66,60.41,60.41,0,0,0,10.89-11.45c.3-.41.57-.85.86-1.27C619.69,666.91,618.59,665.88,617.51,664.84Z" fill="#5f4924"/><path d="M628.23,665.84c-2.92-3.54-4.83-8-7.65-11.6-1-1.32-2-1.76-2.94-1.59a.19.19,0,0,0-.21,0l0,0a5.36,5.36,0,0,0-2.52,2.16,12.87,12.87,0,0,0-.73,1.14c-2.63,3.78-3.63,8.92-.47,12.85,2,2.5,5.4,3.3,8.14,4.24,4.52,1.57,9.8,2,14,4.46.91.54,1.33-1.07.9-1.73C634.24,672.08,631,669.23,628.23,665.84Z" fill="#f1e6c3"/><path d="M628.18,665.89c-.84-1.21-1.78-2.3-2.58-3.53l-2.49-3.65c-.77-1.24-1.68-2.35-2.53-3.49l-.3-.44-.09-.12h0c.05.06,0,0,0,0l-.05-.06-.2-.19a3,3,0,0,0-.72-.68,1.81,1.81,0,0,0-.72-.39c-.24-.16-.51-.05-.77-.1l-.29,0h0c0,.06.17,0,.2,0s0,0,0,0h0l0,0-.13,0a2.9,2.9,0,0,0-.84.46,5.79,5.79,0,0,0-.81.7,5.22,5.22,0,0,0-.36.42l-.2.2c-.07.11-.09.12-.15.22l-.68,1,0,0-.92,1.38-.77,1.5c-.19.55-.38,1.08-.55,1.64s-.22,1.13-.27,1.7a12.63,12.63,0,0,0,0,1.74,11.91,11.91,0,0,0,.39,1.67,9.51,9.51,0,0,0,.68,1.53c.32.45.62.94,1,1.33a8.51,8.51,0,0,0,2.57,1.87,21.47,21.47,0,0,0,2.95,1.11l3.07.93c1,.33,2,.57,3.06.8a61.51,61.51,0,0,1,6.24,1.61,20.77,20.77,0,0,1,3.08,1.26l.74.39.37.2c-.16-.09.28.1.17,0s-.07,0,0-.11a1.17,1.17,0,0,0,.07-.52c0-.08,0-.1,0-.17s-.14-.21-.21-.32l-.48-.71-1-1.41c-.64-.93-1.35-1.77-2.05-2.68C631.11,669.34,629.65,667.62,628.18,665.89Zm.1-.09c.74.84,1.49,1.68,2.26,2.48l2.38,2.37c.76.84,1.6,1.63,2.35,2.5l1.07,1.3.51.66a2.66,2.66,0,0,1,.29.38,2.25,2.25,0,0,1,.24.65,2.37,2.37,0,0,1-.09,1.24c-.2.38-.37,1-1.21,1-.34,0-.17,0-.58-.16l-.35-.18-.69-.37a19.09,19.09,0,0,0-2.91-1.14c-2-.63-4.08-1.13-6.16-1.67-1-.29-2.11-.58-3.1-.92l-3-1.1a18.41,18.41,0,0,1-3-1.39,9.44,9.44,0,0,1-2.59-2.2c-.39-.48-.66-1-1-1.48a11.46,11.46,0,0,1-.7-1.66,11.22,11.22,0,0,1-.36-1.78,18,18,0,0,1-.06-1.82c0-.59.17-1.18.24-1.78l.48-1.75.7-1.64.88-1.55h0l.6-1a1.35,1.35,0,0,1,.19-.28l.19-.26c.12-.17.24-.34.38-.51a6.24,6.24,0,0,1,.91-.87,4.46,4.46,0,0,1,1.15-.64l-.1.05v0c-.06.05,0,0,0,0h.05a.56.56,0,0,1,.16-.07.64.64,0,0,1,.43,0l-.26,0a2.88,2.88,0,0,1,1.24.09,2.45,2.45,0,0,1,1.1.58,5.09,5.09,0,0,1,.81.79l.19.21,0,.06.05.05,0,0,.08.12.31.46a39.87,39.87,0,0,1,2.3,3.82l2.14,3.88A34.56,34.56,0,0,0,628.28,665.8Z" fill="#eec9a8"/><path d="M617.48,664.18c3,2.83,6.31,2.88,10,3.91a24.27,24.27,0,0,1,4.18,1.58c-1.17-1.25-2.33-2.49-3.41-3.83-2.22-2.69-3.86-5.9-5.77-8.89C618.59,654.79,613.17,660.19,617.48,664.18Z" fill="#fff" opacity="0.5"/><path d="M614,663c-.88-2.13.34-5.06,1.9-6.35a5.77,5.77,0,0,1,5.33-1.49l-.63-.87c-1-1.32-2-1.76-2.94-1.59a.19.19,0,0,0-.21,0l0,0a5.36,5.36,0,0,0-2.52,2.16,12.87,12.87,0,0,0-.73,1.14c-2.63,3.78-3.63,8.92-.47,12.85,2,2.5,5.4,3.3,8.14,4.24,4.52,1.57,9.8,2,14,4.46a.57.57,0,0,0,.81-.12C632.4,671.1,617.05,670.39,614,663Z" fill="#eec9a8" opacity="0.5" style="mix-blend-mode:multiply"/><path d="M626.22,672.27c-3.36-1.22-7.81-1.71-10.7-4.18-3.49-3-3.48-7.05-2.1-10.89-2,3.62-2.56,8.12.26,11.65,2,2.5,5.4,3.3,8.14,4.24,4,1.4,8.65,1.89,12.57,3.74C632.18,674.55,628.87,673.23,626.22,672.27Z" fill="#eec9a8" style="mix-blend-mode:multiply"/><path d="M619,656c-1.57-.51-3.41,1.7-3,3.37.18.79,1,.79,1.26,0a3,3,0,0,1,.56-1.22c.39-.41.89-.74,1.27-1.19C619.36,656.73,619.44,656.13,619,656Z" fill="#fff"/><path d="M627.59,667.43c-1.27-1.35-3-1.72-4.68-2.15-2.57-.67-4-2.07-5.94-3.9-.15-.17-.37,0-.4.2-.73,5.31,7.63,6.66,10.78,6.75C627.7,668.34,627.82,667.65,627.59,667.43Z" fill="#fff"/><path d="M621.51,662.33a2.47,2.47,0,0,0,2.78-.22,64.84,64.84,0,0,0,5-12.83c-1.07-.91-2.17-1.8-3.3-2.59a66.35,66.35,0,0,1-5.45,13.12A2.73,2.73,0,0,0,621.51,662.33Z" fill="#5f4924"/><path d="M637.7,664.38c1.35-4-1.94-9.57-3.28-13.15a91.09,91.09,0,0,0-3.79-8.78c-.68-1.37-2.49-6.2-4.32-6-1.59.2-3.58,4.7-4.34,6.15-1.19,2.36-1.72,5.12-.14,7.41,1.86,2.72,5,4.72,7.3,7a52.68,52.68,0,0,1,4,4.55c.93,1.15,1.5,2.53,2.65,3.43A1.27,1.27,0,0,0,637.7,664.38Z" fill="#f1e6c3"/><path d="M637.64,664.36s.06-.27.19-.77a6.91,6.91,0,0,0,0-2.25,13.43,13.43,0,0,0-.93-3.31c-.5-1.25-1.18-2.56-1.9-4-.34-.74-.71-1.54-1-2.4s-.66-1.68-1-2.56c-.68-1.78-1.4-3.6-2.2-5.51a31.11,31.11,0,0,0-2.74-5.66c-.58-.81-1.5-1.55-2.24-.84a8.86,8.86,0,0,0-1.79,2.5c-.51,1-.94,2-1.37,3a10.65,10.65,0,0,0-1.05,2.93,6.06,6.06,0,0,0,.14,2.88,5.5,5.5,0,0,0,.59,1.22c.2.29.63.74.93,1.1a16.34,16.34,0,0,0,2,2c.63.63,1.4,1.21,2.07,1.82s1.33,1.22,2,1.8,1.11,1.34,1.64,2c1,1.27,1.92,2.38,2.7,3.53a15.8,15.8,0,0,0,1.88,2.81,1.23,1.23,0,0,0,1.73.39A1.27,1.27,0,0,0,637.64,664.36Zm.12,0a1.3,1.3,0,0,1-.48.65,1.41,1.41,0,0,1-1.95-.31,18.84,18.84,0,0,1-2.19-2.61c-.79-.93-1.91-1.92-3-3.09-.54-.55-1.12-1.24-1.71-1.73s-1.27-1.12-1.95-1.69-1.42-1.11-2.15-1.82a17.11,17.11,0,0,1-2.09-2.17c-.33-.43-.6-.71-1-1.25a6.83,6.83,0,0,1-.73-1.63,7.48,7.48,0,0,1-.07-3.61,11,11,0,0,1,.56-1.68,15.88,15.88,0,0,1,.74-1.49c.51-1,1-1.94,1.63-2.86a9.74,9.74,0,0,1,2.11-2.55,1.63,1.63,0,0,1,.8-.33,1.5,1.5,0,0,1,.85.19,3.84,3.84,0,0,1,1.17,1.17,50,50,0,0,1,3,5.58,55.93,55.93,0,0,1,2.6,5.37c.36.88.72,1.7,1,2.57s.64,1.59.92,2.37a43.19,43.19,0,0,1,1.49,4.33,18.2,18.2,0,0,1,.65,3.5,9.29,9.29,0,0,1-.09,2.31Z" fill="#eec9a8"/><path d="M629.36,641.13c-2.73.67-3.92,2.23-3.53,4.72a10.15,10.15,0,0,0,.68,2.94c1.3,2.46,3.46,3.66,5.11,5.7s2.53,6.33,4.69,7.78c1.1.73,1.42-.54,1.49-2-.63-3.16-2.47-6.55-3.38-9a89.9,89.9,0,0,0-3.63-8.43A5.58,5.58,0,0,0,629.36,641.13Z" fill="#fff" opacity="0.5"/><path d="M636.23,664.85c-1.06-1.32-1.42-3.27-2.5-4.63a39.19,39.19,0,0,0-3.29-3.4,29.37,29.37,0,0,1-4.84-5.45c-1.91-3.06-2.53-6.34-.56-9.61,1-1.66,2.26-2.89,3.71-3.12-.72-1.26-1.58-2.27-2.44-2.16-1.59.2-3.58,4.7-4.34,6.15-1.19,2.36-1.72,5.12-.14,7.41,1.86,2.72,5,4.72,7.3,7a52.68,52.68,0,0,1,4,4.55c.93,1.15,1.5,2.53,2.65,3.43a1.28,1.28,0,0,0,.79.24C636.45,665.1,636.34,665,636.23,664.85Z" fill="#eec9a8" opacity="0.5" style="mix-blend-mode:multiply"/><path d="M623.4,648.73a18.22,18.22,0,0,1-.08-8.75c-.58,1-1.07,2.09-1.35,2.65-1.19,2.36-1.72,5.12-.14,7.41,1.86,2.72,5,4.72,7.3,7a42.44,42.44,0,0,1,3.2,3.62C629.51,656.62,624.61,653.45,623.4,648.73Z" fill="#eec9a8" style="mix-blend-mode:multiply"/><path d="M627,644.46c.34-.5.4-1.14.73-1.65a11,11,0,0,0,1-1.49c.15-.33-.17-.49-.4-.44a3.88,3.88,0,0,0-2.13,1.29c-.52.59-1.08,1.89-.3,2.5A.72.72,0,0,0,627,644.46Z" fill="#fff"/><path d="M635.33,659.53a23.78,23.78,0,0,0-3.3-6.79c-1.71-2.15-4.24-2.81-5.12-5.82,0-.23-.42,0-.43.14-.38,2.57,1.7,4.06,3.35,5.4,2.47,2,2.3,6.06,4.71,7.78C634.93,660.51,635.5,660,635.33,659.53Z" fill="#fff"/><path d="M627.18,641.66a4.84,4.84,0,0,0,1.74,2.47c.68.3,1.32-.59,1.67-1.1.07-.08.11-.17.17-.25a111.9,111.9,0,0,0,.77-31.63c-.23-2.14-3.37-3.2-3.25-1,.52,10.16,1,20.07-.82,30.13C627.38,640.76,627.28,641.21,627.18,641.66Z" fill="#5f4924"/><path d="M588.94,686.84c-6.23,2-12,1.47-18.3.57,0,0,0,.08,0,.09a21.22,21.22,0,0,0,18.5-.17C589.38,687.21,589.2,686.76,588.94,686.84Z" fill="#ab8c64"/><path d="M559.43,683.19c-1-.71-2.19-.93-3.19-1.61s-2-1.73-3.18-2.42c-.29-.19-.54.22-.33.47a16.91,16.91,0,0,0,3,2.83c1,.74,2.38,1.67,3.58,1.38C559.64,683.77,559.64,683.35,559.43,683.19Z" fill="#ab8c64"/><path d="M541.51,664.11c-2.58-5.44-5.34-10.5-6.68-16.53-.06-.25-.36-.14-.32.1A39,39,0,0,0,541,664.57C541.22,664.92,541.68,664.46,541.51,664.11Z" fill="#ab8c64"/><path d="M613.8,671.27a16.3,16.3,0,0,0-2.25,2.68,24.51,24.51,0,0,1-3,2.8c-.15.1-.06.4.12.32a10,10,0,0,0,3.14-2.26,7.79,7.79,0,0,0,2.31-3.24C614.19,671.35,614,671.13,613.8,671.27Z" fill="#ab8c64"/><path d="M624.06,655.42c-.32,1-.9,2-1.32,2.9a18.45,18.45,0,0,0-1.35,2.66c0,.25.2.47.39.33a6.17,6.17,0,0,0,1.67-2.54,10.63,10.63,0,0,0,.73-3.35C624.19,655.34,624.08,655.34,624.06,655.42Z" fill="#ab8c64"/><path d="M630,620c0-.14-.22-.11-.22,0a82.73,82.73,0,0,1-1.5,20.53,2.17,2.17,0,0,0,.65,2.27A57.19,57.19,0,0,0,630,620Z" fill="#ab8c64"/><path d="M554.23,1434.54a3,3,0,0,0,3.88-1c3.13-4.21-.13-10.42-2.85-13.89h0c1.55-1.39,1.28-4.38.68-6.19-.89-2.65-2.94-4.48-3.52-7.23,1.88,1.12,3.83,1.42,5.33-.2,2.36-2.54,1.4-8.19.8-11.21a25.09,25.09,0,0,0-4.53-10c2.92.67,6,.39,7.65-1.79,1.86-2.39.19-6.16-1.45-7.81a10.67,10.67,0,0,0-7.47-3.33c1.55-1.64,3.09-3.28,4.53-5.06,1.74-2.17,4.69-5.87,3.74-9.15-1.67-5.78-8.69-1.43-12.53,2.38.33-3,0-5.79-2.59-6-2.16-.17-3.94,2.79-5.13,4.58a31.75,31.75,0,0,0-2.25,3.68c-.57-1.78-1.23-3.52-1.78-5-.92-2.56-2.78-7.34-5.84-6.61s-3.6,5.77-3.15,10.31c-.14-.21-.29-.43-.43-.62a48.41,48.41,0,0,0-5.62-7.15c-1.59-1.63-2.33-.14-2.83,1.73a5,5,0,0,0-4.08-2.93c-3.48-.25-9.81,3.66-12.05,8-.08-.78-.19-1.57-.28-2.3-.4-3-1-6.66-3-8.76-3.18-3.33-5.27,2.59-6.15,7.35a20.31,20.31,0,0,0-3.15-4.81c-1.16-1.46-3-4-4.9-3.72-2.23.34-2.31,2.9-1.71,5.63-1.51-1.25-3.91-1.58-5.46-1.84-1.85-.33-6.25-1-7.51,1.53-1.49,2.91.25,5.56,1.9,7.62a34.16,34.16,0,0,0,3.94,4c.28.25.56.54.86.82-3.56,3.85-8.51,12.34-6.73,17.85,1.17,3.62,4.28,4,7.4,3.65.06.13.17.21.29.15,2.43-1,2,.76,1.27,2.73s-1.64,3.6-2.52,5.34c-1,2-2.69,4.16-3.3,6.37-.86,3,.47,4.53,2.85,4.35.33,0,3.73-.53,1.9,1.34a22.46,22.46,0,0,1-3,2.21,6.47,6.47,0,0,0-2.61,3,1.1,1.1,0,0,0,.51,1.36c2.75.93,5.64,1.14,8.32,2.18-3.35,2.66-7.23,6.3-6.53,11.21.43,3,3,3.26,5.52,2.59a17.33,17.33,0,0,0-3.37,5.67c-.86,2.58.61,3.87,2.38,4.64-1.73,1-3.54,2.7-3.78,5-.39,3.57,3.46,4.82,6.5,4.55-3.27,3.54-5.26,9.44-6.13,14.08-.74,3.95.26,8.61,3.15,7.29-.7,2.36-.39,4.54,2.16,5.85,3,1.54,7.23-.55,10.1-2,1.09-.53,2.19-1.12,3.31-1.75v0c2.37,1.07,4.5,0,6.81-.67-1.59,3.43-4.43,9.6-.73,10.79,4.89,1.57,11-5.93,13.38-11.86a13.52,13.52,0,0,0,1.6,5.53c1.61,2.76,4.89,5.95,8,5,2.44-.71,3-4.29,2.67-7.93a23.33,23.33,0,0,0,1.88,2.24c2.34,2.52,5.24,4.92,8.44,5.47,2.88.51,3.75-1.6,3.73-4.4,1.92,4.31,7.17,8,10.28,3.69s1-13-.61-17.79c1.4,1.55,3,2.42,4.4,1.29,3.68-2.86,1-10.15-1-14.1a5.6,5.6,0,0,0,4.17,1.24,1,1,0,0,0,.72-.94C559.22,1445.2,557,1439.26,554.23,1434.54Z" fill="#ffa600"/><path d="M554.23,1434.54a3,3,0,0,0,3.88-1c3.13-4.21-.13-10.42-2.85-13.89h0c1.55-1.39,1.28-4.38.68-6.19-.89-2.65-2.94-4.48-3.52-7.23,1.88,1.12,3.83,1.42,5.33-.2,2.36-2.54,1.4-8.19.8-11.21a25.09,25.09,0,0,0-4.53-10c2.92.67,6,.39,7.65-1.79,1.86-2.39.19-6.16-1.45-7.81a10.67,10.67,0,0,0-7.47-3.33c1.55-1.64,3.09-3.28,4.53-5.06,1.74-2.17,4.69-5.87,3.74-9.15-1.67-5.78-8.69-1.43-12.53,2.38.33-3,0-5.79-2.59-6-2.16-.17-3.94,2.79-5.13,4.58a31.75,31.75,0,0,0-2.25,3.68c-.57-1.78-1.23-3.52-1.78-5-.92-2.56-2.78-7.34-5.84-6.61s-3.6,5.77-3.15,10.31c-.14-.21-.29-.43-.43-.62a48.41,48.41,0,0,0-5.62-7.15c-1.59-1.63-2.33-.14-2.83,1.73a5,5,0,0,0-4.08-2.93c-3.48-.25-9.81,3.66-12.05,8-.08-.78-.19-1.57-.28-2.3-.4-3-1-6.66-3-8.76-3.18-3.33-5.27,2.59-6.15,7.35a20.31,20.31,0,0,0-3.15-4.81c-1.16-1.46-3-4-4.9-3.72-2.23.34-2.31,2.9-1.71,5.63-1.51-1.25-3.91-1.58-5.46-1.84-1.85-.33-6.25-1-7.51,1.53-1.49,2.91.25,5.56,1.9,7.62a34.16,34.16,0,0,0,3.94,4c.28.25.56.54.86.82-3.56,3.85-8.51,12.34-6.73,17.85,1.17,3.62,4.28,4,7.4,3.65.06.13.17.21.29.15,2.43-1,2,.76,1.27,2.73s-1.64,3.6-2.52,5.34c-1,2-2.69,4.16-3.3,6.37-.86,3,.47,4.53,2.85,4.35.33,0,3.73-.53,1.9,1.34a22.46,22.46,0,0,1-3,2.21,6.47,6.47,0,0,0-2.61,3,1.1,1.1,0,0,0,.51,1.36c2.75.93,5.64,1.14,8.32,2.18-3.35,2.66-7.23,6.3-6.53,11.21.43,3,3,3.26,5.52,2.59a17.33,17.33,0,0,0-3.37,5.67c-.86,2.58.61,3.87,2.38,4.64-1.73,1-3.54,2.7-3.78,5-.39,3.57,3.46,4.82,6.5,4.55-3.27,3.54-5.26,9.44-6.13,14.08-.74,3.95.26,8.61,3.15,7.29-.7,2.36-.39,4.54,2.16,5.85,3,1.54,7.23-.55,10.1-2,1.09-.53,2.19-1.12,3.31-1.75v0c2.37,1.07,4.5,0,6.81-.67-1.59,3.43-4.43,9.6-.73,10.79,4.89,1.57,11-5.93,13.38-11.86a13.52,13.52,0,0,0,1.6,5.53c1.61,2.76,4.89,5.95,8,5,2.44-.71,3-4.29,2.67-7.93a23.33,23.33,0,0,0,1.88,2.24c2.34,2.52,5.24,4.92,8.44,5.47,2.88.51,3.75-1.6,3.73-4.4,1.92,4.31,7.17,8,10.28,3.69s1-13-.61-17.79c1.4,1.55,3,2.42,4.4,1.29,3.68-2.86,1-10.15-1-14.1a5.6,5.6,0,0,0,4.17,1.24,1,1,0,0,0,.72-.94C559.22,1445.2,557,1439.26,554.23,1434.54Zm-12,29.85c-4.78,2.5-8.4-4.05-11-9.77a21,21,0,0,1-.36,8.26.72.72,0,0,1-.74.55c-7.29-1.43-9.58-10.65-11.54-18.76,0,4-.58,8-3.6,10.35a.67.67,0,0,1-1-.09c-2.09-2.6-3-5.81-3.66-9.21-1.08,6.14-2.55,11.57-8.09,14.66a.69.69,0,0,1-1-.59,30.09,30.09,0,0,1,.25-6.22c-2.15,3.53-4.49,7.31-7.62,9.39-2.36,1.57-6.19,1.58-6.56-2.49-.4-4.59,2.7-9.1,5.16-12.33.91-1.19,1.87-2.43,2.87-3.61-1.92.75-3.85,1-5.36.1-3.2-1.91-.79-6.09,1.13-8.75a19.24,19.24,0,0,0-4.44,1.06.65.65,0,0,1-.75-.45c-1.55-4.78,1.48-8.07,4.76-10.53a.64.64,0,0,1,.86.22c3.33,4.4,7.49-2.2,10.1-4.64.51-.46,1.21,0,1.17.72a15.18,15.18,0,0,0,.59,6.24c2.75-3.59,3.57-8.45,4.32-13.17-1.44,2-3.24,3.38-5.68,3.45-.32,0-.57-.34-.63-.68-.29-2.12-.37-4.26-.52-6.38-4.08,5.49-7.09,12.23-14.17,10.79a.79.79,0,0,1-.63-.9c.65-4.91,2.86-9.06,5.2-13.08-2.38,1.36-5.45,2.54-6.7.35-1.64-2.84,1.13-6.25,2.44-9a8.41,8.41,0,0,0-2.36-.15.75.75,0,0,1-.82-.9,9.77,9.77,0,0,1,5.27-7.06.7.7,0,0,1,1,.59c1.3,7.69,6.38,2.16,10,0a.64.64,0,0,1,.94.38c.43,1.33,1.76,6.14,3.57,3.87a15.39,15.39,0,0,0,2.26-4.51c.37-1.06.69-2.12,1-3.17-2.23,1.29-5.1-.36-6.54-3.63-2.47,2.91-5.6,7.33-9,4.46-2.69-2.28-2-8.32-1.57-12.12-3.9,1.18-10.24,5.79-13.19,1.88-1.19-1.6-.24-5.61,1.08-6.81,2.29-2.1,4.84-.56,6.54-2.52-3.15-3.67-5.61-7.87-6.08-13.24a.88.88,0,0,1,.57-1c3.42-.76,5.89,2.4,8,5.5-.37-2.47-.22-5,1.64-5.49s3,2,3.6,4.5c.48-2.84,1.33-5.43,3.94-6.72a.66.66,0,0,1,.94.4c2.82,7.19,2.94,14.89,3.62,22.67,2.9-6.81,8.45-21.8,13.63-12.65,1.66,2.94,2,6.43,3.23,9.58.59,1.55,2.43,2.38,2.8.18.08-.47.16-1,.25-1.42a4.88,4.88,0,0,1,.9-2.12c3.08-4.23,6.48,1.38,8.7,4.4.08-6.21-2.36-12.73.76-18.44a.66.66,0,0,1,1.14-.08c3.47,5.45,3.82,12.25,5.49,18.6,2.11-2.54,4.46-4.47,7.57-4.87.62-.08,1,.65.68,1.31a76.07,76.07,0,0,1-9.51,13.87,7.14,7.14,0,0,1,5.21.57A4.23,4.23,0,0,1,544,1391c-1.06,2.18-4.72,1.58-8,.52,4.52,4,9.68,9.79,5.51,14.65s-10.37,1-15.3-2.67c1.53,1.78,3.11,3.53,4.49,5.48s4.64,6.13,3.46,9.2c-2.23,5.85-6.6-1.56-8.95,1.12-2.93,3.34-7.45.68-10.6-1.73,1.12,4.5,2.86,9.42,5.85,12.3,4-6.57,9.07-2.15,13.09,2.18.77-3.27,1.4-8,4-9.49s5.37.09,6.91,2.71c1.11,2,1.8,5.55.55,7.75a2.89,2.89,0,0,1-3.53,1.58c2.3,4,5.71,10,3,13.88-1,1.51-2.22,1.73-3.36,1.3C544,1455.27,546.4,1462.22,542.21,1464.39Z" fill="#d6972d" opacity="0.6" style="mix-blend-mode:multiply"/><path d="M554.23,1434.54a3,3,0,0,0,3.88-1c3.13-4.21-.13-10.42-2.85-13.89h0c1.55-1.39,1.28-4.38.68-6.19-.89-2.65-2.94-4.48-3.52-7.23,1.88,1.12,3.83,1.42,5.33-.2,2.36-2.54,1.4-8.19.8-11.21a25.09,25.09,0,0,0-4.53-10c2.92.67,6,.39,7.65-1.79,1.86-2.39.19-6.16-1.45-7.81a10.67,10.67,0,0,0-7.47-3.33c1.55-1.64,3.09-3.28,4.53-5.06,1.74-2.17,4.69-5.87,3.74-9.15-1.67-5.78-8.69-1.43-12.53,2.38.33-3,0-5.79-2.59-6-2.16-.17-3.94,2.79-5.13,4.58a31.75,31.75,0,0,0-2.25,3.68c-.57-1.78-1.23-3.52-1.78-5-.92-2.56-2.78-7.34-5.84-6.61s-3.6,5.77-3.15,10.31c-.14-.21-.29-.43-.43-.62a48.41,48.41,0,0,0-5.62-7.15c-1.59-1.63-2.33-.14-2.83,1.73a5,5,0,0,0-4.08-2.93c-3.48-.25-9.81,3.66-12.05,8-.08-.78-.19-1.57-.28-2.3-.4-3-1-6.66-3-8.76-3.18-3.33-5.27,2.59-6.15,7.35a20.31,20.31,0,0,0-3.15-4.81c-1.16-1.46-3-4-4.9-3.72-2.23.34-2.31,2.9-1.71,5.63-1.51-1.25-3.91-1.58-5.46-1.84-1.85-.33-6.25-1-7.51,1.53-1.49,2.91.25,5.56,1.9,7.62a34.16,34.16,0,0,0,3.94,4c.28.25.56.54.86.82-3.56,3.85-8.51,12.34-6.73,17.85,1.17,3.62,4.28,4,7.4,3.65.06.13.17.21.29.15,2.43-1,2,.76,1.27,2.73s-1.64,3.6-2.52,5.34c-1,2-2.69,4.16-3.3,6.37-.86,3,.47,4.53,2.85,4.35.33,0,3.73-.53,1.9,1.34a22.46,22.46,0,0,1-3,2.21,6.47,6.47,0,0,0-2.61,3,1.1,1.1,0,0,0,.51,1.36c2.75.93,5.64,1.14,8.32,2.18-3.35,2.66-7.23,6.3-6.53,11.21.43,3,3,3.26,5.52,2.59a17.33,17.33,0,0,0-3.37,5.67c-.86,2.58.61,3.87,2.38,4.64-1.73,1-3.54,2.7-3.78,5-.39,3.57,3.46,4.82,6.5,4.55-3.27,3.54-5.26,9.44-6.13,14.08-.74,3.95.26,8.61,3.15,7.29-.7,2.36-.39,4.54,2.16,5.85,3,1.54,7.23-.55,10.1-2,1.09-.53,2.19-1.12,3.31-1.75v0c2.37,1.07,4.5,0,6.81-.67-1.59,3.43-4.43,9.6-.73,10.79,4.89,1.57,11-5.93,13.38-11.86a13.52,13.52,0,0,0,1.6,5.53c1.61,2.76,4.89,5.95,8,5,2.44-.71,3-4.29,2.67-7.93a23.33,23.33,0,0,0,1.88,2.24c2.34,2.52,5.24,4.92,8.44,5.47,2.88.51,3.75-1.6,3.73-4.4,1.92,4.31,7.17,8,10.28,3.69s1-13-.61-17.79c1.4,1.55,3,2.42,4.4,1.29,3.68-2.86,1-10.15-1-14.1a5.6,5.6,0,0,0,4.17,1.24,1,1,0,0,0,.72-.94C559.22,1445.2,557,1439.26,554.23,1434.54Zm-6.42,2.67c-.3-.64-1.14-.19-.9.51,1.17,3.29,2.78,8.2,5.26,11.31a.81.81,0,0,0-.22.82c.93,3.26,4.68,9.87,2,13.18-1.53,1.93-6.17-5.51-7.14-6.62-.31-.37-.78.1-.54.55a46,46,0,0,0,3.13,5.32.65.65,0,0,0-.42.77c.66,4.16,1.5,8.35,1.4,12.64-.08,2.82-1,6.26-4,5.29-2.31-.75-4.24-3.44-5.36-5.81a.49.49,0,0,0-.56-.3,44.54,44.54,0,0,0-1.89-7.26c-.21-.57-.91-.24-.86.34.2,3,4,13.08-1.37,11.53-2.16-.61-4.08-2.38-5.8-3.9-1.15-1-3.48-2.86-4.38-4.87-.11-.56-.24-1.1-.36-1.6V1469a.5.5,0,0,0-.09-.29,15.94,15.94,0,0,0-.82-2.34c-.26-.53-1-.28-.89.34.27,2.42,2.76,11.88-.38,12.9-2.49.81-5.31-3-6.36-5.1-1.41-2.94-1.77-6.34-2.06-9.69,0-.47-.62-.4-.68,0-.11,1-.2,2.05-.23,3.12-3.33,5.24-6.11,12.06-12,13.62-3.72,1,.77-8.26,1.47-9.8a.83.83,0,0,0-.81-1.16c-2.14.16-4.1,1.41-6.16,1.6a44.52,44.52,0,0,0,6.4-4.71c.29-.28,0-.8-.35-.64-5.54,2.69-10.23,6.91-16.24,8.24a7.49,7.49,0,0,1-4.37-.34c-2.25-.85-1-3.76-.31-5.34a59.65,59.65,0,0,1,3.95-6.93c.25-.4-.21-.94-.53-.58a39.51,39.51,0,0,0-5,6.92c-2.08,1.05-2.51.13-2.25-2.56a27.42,27.42,0,0,1,1-5c1.44-5.14,4.06-10.06,7.68-13.36.34-.31.08-1.06-.35-.91a8.55,8.55,0,0,0-2.13,1.08c-2.08-.05-6.24-.15-6.29-2.69,0-1.54,2.25-2.9,3.18-3.52a9.11,9.11,0,0,1,1.39-.71.16.16,0,0,1,.09,0,.48.48,0,0,0,.56-.3,14.55,14.55,0,0,1,1.85-.54.36.36,0,0,0,.17-.56c-.72-1-2.08-.95-3.33-.58-1.63-.92-3.72-1.28-2.8-4a21.79,21.79,0,0,1,4.22-6.43,10.47,10.47,0,0,0,1.89-1.25c.44-.41.24-1.47-.38-1.44-1.7.12-7.78,3.49-7.74-.68,0-3.55,5.24-7,7.42-8.73a1.33,1.33,0,0,0-.27-2.07c-2.84-1.61-6-1.78-9-2.44,2.1-2.16,7.54-4.55,4.87-7.68-1-1.08-2.65-.64-3.82-.49-2.81.34.34-4.75.69-5.43,1.71-3.3,3.89-7,4.44-10.87a2.66,2.66,0,0,0-.06-1.37c.62-.15,1.19-.28,1.73-.38.3-.07.31-.69,0-.67-3,.1-8.91,1.44-10.56-2.3-1.17-2.66.87-7,1.85-9.48a46,46,0,0,1,3.85-7.2,3.93,3.93,0,0,0,1.39.79.51.51,0,0,0,.56-.73c-.64-1.6-2.61-2.79-3.73-3.89-1.75-1.76-4.07-4.13-4.49-7-.57-3.94,10.33-1,11.81.17a.62.62,0,0,0,.5.09c.57,1.81,1.26,3.42,1.55,4.18.16.43.67.13.55-.32a45.42,45.42,0,0,1-1.16-5.28c-.13-.93-.78-5.1.78-4.39,2.89,1.31,5,4.86,7.15,7.44a18.48,18.48,0,0,0-.25,3.38c0,.36.47.3.53,0a34.84,34.84,0,0,1,2.07-7.17c1.13-3,2.75-4.42,4.24-1.1,1.69,3.85,2.07,9.2,2,13.56,0,.57.7.84.87.21a15.37,15.37,0,0,0,.35-4.52,21.81,21.81,0,0,1,10.76-7.46c2.84-.76,3.88,1.3,4.4,4,0,.09-.07.19-.11.26a.51.51,0,0,0,.27.71c.3,2.09.37,4.37.75,5.82a.41.41,0,0,0,.8,0,19,19,0,0,0-.07-7.86c.11-.26.22-.54.31-.82.19-.6.3-1.24.46-1.83,0,0,1.33,1.52,1.67,2,2.44,3.14,4.55,6.38,6.67,9.74a10.15,10.15,0,0,0,.53,1.28.29.29,0,0,0,.36.13c.23.37.47.74.69,1.12s.75,0,.71-.4a12.12,12.12,0,0,0-1.32-4c-.42-4.36-1.12-11.49,1.52-11.59,2.47-.09,4.07,5.27,4.85,7.35,1.05,2.8,1.52,6.1,2.73,8.76a.4.4,0,0,0,.77-.17,15.94,15.94,0,0,0-.51-4.19c1.9-2.86,3.21-6.62,6.06-8.33,2-1.2,1.9,2.54,1.54,5.79-.14.2-.28.4-.38.57a.51.51,0,0,0,.22.74c-.19,1.38-.37,2.52-.38,2.89,0,.54.62.74.79.2a38.57,38.57,0,0,0,1.12-4.09,59,59,0,0,1,4.72-3.66c1.81-1.15,7.86-3.74,6.31,1.48-1.86,6.24-8,9.9-10.84,15.38-.23.44.21,1,.55.61,1-1.13,2-2.2,3-3.26a16.08,16.08,0,0,1,5.87,2.81c1.6,1.22,4.62,5.11,1.76,6.93-3.19,2-8.17-.41-11.23-1.54-.34-.13-.55.39-.29.64a12.3,12.3,0,0,0,4,2.42c3.07,5.57,7,12.69,5,19.85-1.33,4.68-8.79-4-10.16-5.2-.27-.24-.74.18-.55.56a20,20,0,0,0,5.26,6.21c-.52,1.63.2,3.22.87,4.63,1.07,2.18,2.49,4,2.28,6.76-.2,2.42-2.1.83-3.06,0a49.16,49.16,0,0,1-3.52-3.55c-.23-.25-.66.16-.49.49.94,1.89,4.29,6.73,6.83,6.2,1.85,2.93,4.35,7.79,3.1,11.29-1.65,4.65-6.49-.5-8.26-2.21-.23-.21-.56.21-.37.47a23.54,23.54,0,0,0,3.32,3.61c1.8,5.58,5,10.44,4.84,16.72C552.31,1450,549.74,1441.13,547.81,1437.21Z" fill="#b47c4e" opacity="0.8" style="mix-blend-mode:multiply"/><path d="M492.62,1369.54a12.38,12.38,0,0,1-5.46,5.36c-1.92,1.06-4.91.36-6.47,2.09a1.88,1.88,0,0,0-.36,1.94c1.3,3.65,6.09,1.49,8.13-.15a14.21,14.21,0,0,0,5.05-8.85C493.61,1369.36,492.86,1369,492.62,1369.54Z" fill="#ffe5a2"/><path d="M498.14,1374.3c-.5-.36-1,.21-.85.85a9.67,9.67,0,0,1-.88,6.76c-.82,1.55-3.46,3-1.94,5.12a1.7,1.7,0,0,0,1.76.74C500.21,1386.58,501.59,1376.79,498.14,1374.3Z" fill="#ffe5a2"/><path d="M516,1371.22c-.13-.3-.55-.15-.5.2a68.8,68.8,0,0,1,.67,7c.19,2.92-.38,5.63-.43,8.52,0,1.29,1.57,2.38,2.23.94C520.65,1382,518.17,1376.43,516,1371.22Z" fill="#ffe5a2"/><path d="M528.57,1374.2c-.51-.73-1.48,0-1.18.91.41,1.16.82,2.34,1.21,3.52s.62,2.61,1.07,3.86c.35,1,1.54.62,1.66-.36C531.66,1379.17,530.06,1376.33,528.57,1374.2Z" fill="#ffe5a2"/><path d="M535.31,1372.62c-.44-.75-1.39.19-.94.93a1.81,1.81,0,0,1,.27.83c0,.78,1.17.71,1.15-.09A3.19,3.19,0,0,0,535.31,1372.62Z" fill="#ffe5a2"/><path d="M500.77,1402.41c-.2-.9-1.27-.86-1.4.1-.37,2.77-2.53,5-4.07,7s-4.08,3.4-4,6.17a1.75,1.75,0,0,0,1.46,1.6c2.33.58,4.76-4.1,5.91-6C500.15,1408.82,501.38,1405.35,500.77,1402.41Z" fill="#ffe5a2"/><path d="M509.39,1404.54c0-1.13-1.5-1.79-1.8-.45-.22,1-.41,2.05-.65,3.07a10.66,10.66,0,0,0-.47,3.4,1,1,0,0,0,1.79.44C509.26,1409.3,509.41,1406.54,509.39,1404.54Z" fill="#ffe5a2"/><path d="M526.61,1405.09c-.55-.8-1.55-.11-1.49.86a15.53,15.53,0,0,0,1.06,5c.66,1.64,1.13,3.68,2.42,4.75a1.41,1.41,0,0,0,2.23-.85C531.93,1410.94,528.4,1407.71,526.61,1405.09Z" fill="#ffe5a2"/><path d="M538.05,1400.85a10.16,10.16,0,0,0-3.56-6.46c-.68-.57-1.61.57-1,1.32a20,20,0,0,1,2.73,5.89C536.6,1402.83,538.22,1402.13,538.05,1400.85Z" fill="#ffe5a2"/><path d="M500.43,1432.27a30.7,30.7,0,0,1-3.78,4.31c-1.36,1.36-3.06,2.59-3.29,4.81a1.9,1.9,0,0,0,2.07,2.24c1.86-.26,3.21-2.81,4.33-4.45a21.27,21.27,0,0,0,2.71-5.66C502.92,1432,501.29,1431,500.43,1432.27Z" fill="#ffe5a2"/><path d="M501.22,1444.09c-.61,1-1.28,2-1.93,2.91s-1.7,2.06-1.83,3.57c-.09,1.26,1,2.12,1.94,1.59,1.12-.6,1.69-2,2.27-3.15a11.27,11.27,0,0,0,1.26-4.19C503,1443.69,501.8,1443.17,501.22,1444.09Z" fill="#ffe5a2"/><path d="M517.51,1436.1c-.68-1.45-2.47-.42-2,1.13s.59,3.07.9,4.61a1.1,1.1,0,0,0,2.19-.16A11.28,11.28,0,0,0,517.51,1436.1Z" fill="#ffe5a2"/><path d="M532.16,1433.69c-.71-.7-1.93,0-2,1.09-.1,2.23.71,4,1.47,6a19.64,19.64,0,0,1,1.07,3.25,7.84,7.84,0,0,0,1.13,3.36,1.58,1.58,0,0,0,2.71-.17C538.92,1443.13,534.7,1436.16,532.16,1433.69Z" fill="#ffe5a2"/><path d="M527.07,1442.43c-.44-.88-1-1.69-1.42-2.55-.57-1-1.76.11-1.48,1.12s.52,1.75.8,2.62.69,2.06,1.67,2.13a.88.88,0,0,0,.81-.45C528.05,1444.24,527.55,1443.34,527.07,1442.43Z" fill="#ffe5a2"/><path d="M681.78,1433a3,3,0,0,0,3.82-1.26c2.89-4.39-.72-10.4-3.63-13.71h0c1.47-1.47,1-4.45.33-6.21-1-2.6-3.19-4.31-3.92-7,1.94,1,3.9,1.2,5.3-.5,2.22-2.67.94-8.26.17-11.23a25,25,0,0,0-5.09-9.77c3,.5,6,0,7.54-2.22,1.72-2.49-.16-6.17-1.9-7.72a10.68,10.68,0,0,0-7.64-2.9c1.45-1.72,2.89-3.45,4.23-5.31,1.61-2.27,4.35-6.12,3.22-9.34-2-5.68-8.76-.94-12.38,3.08.16-3-.38-5.77-2.92-5.83-2.17,0-3.77,3-4.86,4.86a32.07,32.07,0,0,0-2.05,3.8c-.67-1.74-1.42-3.44-2-4.87-1.07-2.51-3.2-7.17-6.21-6.26s-3.27,6-2.56,10.46l-.46-.59a48.13,48.13,0,0,0-6-6.82c-1.68-1.53-2.34,0-2.72,1.89a4.94,4.94,0,0,0-4.24-2.69c-3.5,0-9.59,4.21-11.58,8.69-.12-.78-.28-1.56-.41-2.28-.58-3-1.38-6.6-3.51-8.58-3.37-3.14-5.12,2.89-5.73,7.69a20.48,20.48,0,0,0-3.41-4.63c-1.25-1.39-3.2-3.83-5.11-3.43-2.21.46-2.14,3-1.39,5.71-1.57-1.15-4-1.35-5.55-1.53-1.87-.21-6.29-.59-7.41,2-1.32,3,.57,5.55,2.33,7.51a33.76,33.76,0,0,0,4.16,3.8c.29.23.59.51.9.77-3.33,4-7.8,12.8-5.7,18.2,1.37,3.55,4.5,3.8,7.6,3.23a.21.21,0,0,0,.29.13c2.37-1.16,2.08.65,1.42,2.65s-1.43,3.69-2.21,5.48c-.91,2-2.45,4.3-2.94,6.54-.68,3,.73,4.5,3.1,4.19.32,0,3.69-.74,2,1.23a23.84,23.84,0,0,1-2.87,2.38,6.41,6.41,0,0,0-2.43,3.19,1.1,1.1,0,0,0,.58,1.33c2.8.77,5.7.81,8.44,1.7-3.2,2.85-6.87,6.7-5.89,11.56.6,3,3.19,3.09,5.66,2.28a16.9,16.9,0,0,0-3,5.85c-.72,2.62.82,3.83,2.63,4.5-1.67,1.08-3.38,2.89-3.49,5.23-.18,3.58,3.73,4.62,6.76,4.17-3.07,3.73-4.73,9.73-5.33,14.41-.52,4,.75,8.59,3.56,7.1-.57,2.4-.13,4.55,2.49,5.72,3.11,1.36,7.19-1,10-2.52,1-.59,2.13-1.24,3.21-1.93h0c2.43.93,4.49-.27,6.75-1-1.39,3.51-3.87,9.84-.11,10.81,5,1.3,10.61-6.54,12.69-12.59a13.54,13.54,0,0,0,1.91,5.43c1.76,2.65,5.21,5.65,8.26,4.57,2.39-.86,2.7-4.45,2.22-8.07a24.54,24.54,0,0,0,2,2.13c2.48,2.38,5.51,4.61,8.74,5,2.9.34,3.65-1.82,3.48-4.61,2.15,4.2,7.61,7.62,10.46,3.1s.3-13-1.61-17.73c1.48,1.47,3.09,2.25,4.46,1.05,3.51-3.07.48-10.2-1.83-14a5.54,5.54,0,0,0,4.22,1,1,1,0,0,0,.67-1C687.37,1443.34,684.82,1437.54,681.78,1433Z" fill="#ffa600"/><path d="M681.78,1433a3,3,0,0,0,3.82-1.26c2.89-4.39-.72-10.4-3.63-13.71h0c1.47-1.47,1-4.45.33-6.21-1-2.6-3.19-4.31-3.92-7,1.94,1,3.9,1.2,5.3-.5,2.22-2.67.94-8.26.17-11.23a25,25,0,0,0-5.09-9.77c3,.5,6,0,7.54-2.22,1.72-2.49-.16-6.17-1.9-7.72a10.68,10.68,0,0,0-7.64-2.9c1.45-1.72,2.89-3.45,4.23-5.31,1.61-2.27,4.35-6.12,3.22-9.34-2-5.68-8.76-.94-12.38,3.08.16-3-.38-5.77-2.92-5.83-2.17,0-3.77,3-4.86,4.86a32.07,32.07,0,0,0-2.05,3.8c-.67-1.74-1.42-3.44-2-4.87-1.07-2.51-3.2-7.17-6.21-6.26s-3.27,6-2.56,10.46l-.46-.59a48.13,48.13,0,0,0-6-6.82c-1.68-1.53-2.34,0-2.72,1.89a4.94,4.94,0,0,0-4.24-2.69c-3.5,0-9.59,4.21-11.58,8.69-.12-.78-.28-1.56-.41-2.28-.58-3-1.38-6.6-3.51-8.58-3.37-3.14-5.12,2.89-5.73,7.69a20.48,20.48,0,0,0-3.41-4.63c-1.25-1.39-3.2-3.83-5.11-3.43-2.21.46-2.14,3-1.39,5.71-1.57-1.15-4-1.35-5.55-1.53-1.87-.21-6.29-.59-7.41,2-1.32,3,.57,5.55,2.33,7.51a33.76,33.76,0,0,0,4.16,3.8c.29.23.59.51.9.77-3.33,4-7.8,12.8-5.7,18.2,1.37,3.55,4.5,3.8,7.6,3.23a.21.21,0,0,0,.29.13c2.37-1.16,2.08.65,1.42,2.65s-1.43,3.69-2.21,5.48c-.91,2-2.45,4.3-2.94,6.54-.68,3,.73,4.5,3.1,4.19.32,0,3.69-.74,2,1.23a23.84,23.84,0,0,1-2.87,2.38,6.41,6.41,0,0,0-2.43,3.19,1.1,1.1,0,0,0,.58,1.33c2.8.77,5.7.81,8.44,1.7-3.2,2.85-6.87,6.7-5.89,11.56.6,3,3.19,3.09,5.66,2.28a16.9,16.9,0,0,0-3,5.85c-.72,2.62.82,3.83,2.63,4.5-1.67,1.08-3.38,2.89-3.49,5.23-.18,3.58,3.73,4.62,6.76,4.17-3.07,3.73-4.73,9.73-5.33,14.41-.52,4,.75,8.59,3.56,7.1-.57,2.4-.13,4.55,2.49,5.72,3.11,1.36,7.19-1,10-2.52,1-.59,2.13-1.24,3.21-1.93h0c2.43.93,4.49-.27,6.75-1-1.39,3.51-3.87,9.84-.11,10.81,5,1.3,10.61-6.54,12.69-12.59a13.54,13.54,0,0,0,1.91,5.43c1.76,2.65,5.21,5.65,8.26,4.57,2.39-.86,2.7-4.45,2.22-8.07a24.54,24.54,0,0,0,2,2.13c2.48,2.38,5.51,4.61,8.74,5,2.9.34,3.65-1.82,3.48-4.61,2.15,4.2,7.61,7.62,10.46,3.1s.3-13-1.61-17.73c1.48,1.47,3.09,2.25,4.46,1.05,3.51-3.07.48-10.2-1.83-14a5.54,5.54,0,0,0,4.22,1,1,1,0,0,0,.67-1C687.37,1443.34,684.82,1437.54,681.78,1433Zm-10.31,30.49c-4.63,2.76-8.62-3.58-11.48-9.14a21,21,0,0,1,.1,8.26.73.73,0,0,1-.7.6c-7.36-1-10.17-10.09-12.58-18.08.27,4-.14,8-3,10.54a.67.67,0,0,1-1,0c-2.23-2.47-3.36-5.62-4.18-9-.73,6.2-1.88,11.71-7.24,15.1a.69.69,0,0,1-1-.53,30.07,30.07,0,0,1-.09-6.22c-2,3.64-4.07,7.55-7.08,9.81-2.27,1.69-6.09,1.92-6.69-2.12-.66-4.56,2.18-9.24,4.45-12.6.84-1.24,1.73-2.53,2.66-3.77-1.87.85-3.78,1.19-5.34.4-3.3-1.72-1.14-6,.63-8.8a19.21,19.21,0,0,0-4.37,1.32.67.67,0,0,1-.78-.42c-1.81-4.68,1-8.13,4.16-10.78a.64.64,0,0,1,.87.17c3.57,4.21,7.35-2.62,9.82-5.2.48-.49,1.2-.11,1.21.65a15.08,15.08,0,0,0,.94,6.2c2.54-3.74,3.08-8.64,3.57-13.39-1.33,2.06-3,3.55-5.48,3.76-.31,0-.59-.31-.66-.65-.42-2.09-.61-4.23-.89-6.33-3.76,5.71-6.39,12.6-13.53,11.58a.79.79,0,0,1-.68-.87c.37-4.94,2.33-9.2,4.44-13.36-2.3,1.5-5.29,2.85-6.66.73-1.8-2.74.77-6.3,1.92-9.11a8.47,8.47,0,0,0-2.36,0,.75.75,0,0,1-.87-.85,9.79,9.79,0,0,1,4.86-7.36.7.7,0,0,1,1,.54c1.74,7.6,6.5,1.79,10-.59a.65.65,0,0,1,1,.33c.5,1.3,2.1,6,3.78,3.66a15.39,15.39,0,0,0,2-4.63c.31-1.08.57-2.16.81-3.22-2.15,1.41-5.11-.07-6.73-3.26-2.31,3-5.18,7.64-8.78,5-2.82-2.12-2.45-8.2-2.25-12-3.83,1.41-9.9,6.37-13.06,2.63-1.28-1.52-.56-5.59.69-6.86,2.16-2.23,4.8-.83,6.39-2.89-3.36-3.48-6.05-7.53-6.83-12.87a.89.89,0,0,1,.52-1c3.36-1,6,2.06,8.29,5-.51-2.44-.51-5,1.32-5.57s3.08,1.81,3.85,4.28c.32-2.86,1-5.5,3.55-6.93a.66.66,0,0,1,1,.35c3.23,7,3.79,14.69,4.91,22.42,2.5-7,7.2-22.24,12.88-13.4,1.83,2.84,2.37,6.31,3.77,9.39.68,1.51,2.56,2.23,2.8,0,.06-.46.11-1,.18-1.43a5,5,0,0,1,.77-2.17c2.84-4.39,6.56,1,8.94,3.9-.27-6.2-3.08-12.58-.29-18.45A.67.67,0,0,1,656,1356c3.77,5.25,4.51,12,6.53,18.27,2-2.66,4.2-4.72,7.29-5.3.61-.12,1.06.6.75,1.27a76,76,0,0,1-8.71,14.39,7.11,7.11,0,0,1,5.23.28,4.21,4.21,0,0,1,2,5.13c-.93,2.24-4.61,1.85-7.91,1,4.74,3.69,10.22,9.23,6.33,14.31s-10.29,1.59-15.42-1.8c1.63,1.7,3.3,3.36,4.79,5.22s5,5.86,4,9c-1.89,6-6.67-1.18-8.87,1.63-2.74,3.5-7.4,1.09-10.68-1.13,1.38,4.43,3.39,9.24,6.54,12,3.66-6.79,8.93-2.67,13.2,1.43.58-3.3.94-8.11,3.47-9.7s5.37-.22,7,2.32c1.22,1.89,2.11,5.44,1,7.7a2.89,2.89,0,0,1-3.43,1.78c2.51,3.86,6.26,9.61,3.75,13.69-1,1.56-2.12,1.85-3.28,1.49C672.71,1454.27,675.54,1461.06,671.47,1463.48Z" fill="#d6972d" opacity="0.6" style="mix-blend-mode:multiply"/><path d="M681.78,1433a3,3,0,0,0,3.82-1.26c2.89-4.39-.72-10.4-3.63-13.71h0c1.47-1.47,1-4.45.33-6.21-1-2.6-3.19-4.31-3.92-7,1.94,1,3.9,1.2,5.3-.5,2.22-2.67.94-8.26.17-11.23a25,25,0,0,0-5.09-9.77c3,.5,6,0,7.54-2.22,1.72-2.49-.16-6.17-1.9-7.72a10.68,10.68,0,0,0-7.64-2.9c1.45-1.72,2.89-3.45,4.23-5.31,1.61-2.27,4.35-6.12,3.22-9.34-2-5.68-8.76-.94-12.38,3.08.16-3-.38-5.77-2.92-5.83-2.17,0-3.77,3-4.86,4.86a32.07,32.07,0,0,0-2.05,3.8c-.67-1.74-1.42-3.44-2-4.87-1.07-2.51-3.2-7.17-6.21-6.26s-3.27,6-2.56,10.46l-.46-.59a48.13,48.13,0,0,0-6-6.82c-1.68-1.53-2.34,0-2.72,1.89a4.94,4.94,0,0,0-4.24-2.69c-3.5,0-9.59,4.21-11.58,8.69-.12-.78-.28-1.56-.41-2.28-.58-3-1.38-6.6-3.51-8.58-3.37-3.14-5.12,2.89-5.73,7.69a20.48,20.48,0,0,0-3.41-4.63c-1.25-1.39-3.2-3.83-5.11-3.43-2.21.46-2.14,3-1.39,5.71-1.57-1.15-4-1.35-5.55-1.53-1.87-.21-6.29-.59-7.41,2-1.32,3,.57,5.55,2.33,7.51a33.76,33.76,0,0,0,4.16,3.8c.29.23.59.51.9.77-3.33,4-7.8,12.8-5.7,18.2,1.37,3.55,4.5,3.8,7.6,3.23a.21.21,0,0,0,.29.13c2.37-1.16,2.08.65,1.42,2.65s-1.43,3.69-2.21,5.48c-.91,2-2.45,4.3-2.94,6.54-.68,3,.73,4.5,3.1,4.19.32,0,3.69-.74,2,1.23a23.84,23.84,0,0,1-2.87,2.38,6.41,6.41,0,0,0-2.43,3.19,1.1,1.1,0,0,0,.58,1.33c2.8.77,5.7.81,8.44,1.7-3.2,2.85-6.87,6.7-5.89,11.56.6,3,3.19,3.09,5.66,2.28a16.9,16.9,0,0,0-3,5.85c-.72,2.62.82,3.83,2.63,4.5-1.67,1.08-3.38,2.89-3.49,5.23-.18,3.58,3.73,4.62,6.76,4.17-3.07,3.73-4.73,9.73-5.33,14.41-.52,4,.75,8.59,3.56,7.1-.57,2.4-.13,4.55,2.49,5.72,3.11,1.36,7.19-1,10-2.52,1-.59,2.13-1.24,3.21-1.93h0c2.43.93,4.49-.27,6.75-1-1.39,3.51-3.87,9.84-.11,10.81,5,1.3,10.61-6.54,12.69-12.59a13.54,13.54,0,0,0,1.91,5.43c1.76,2.65,5.21,5.65,8.26,4.57,2.39-.86,2.7-4.45,2.22-8.07a24.54,24.54,0,0,0,2,2.13c2.48,2.38,5.51,4.61,8.74,5,2.9.34,3.65-1.82,3.48-4.61,2.15,4.2,7.61,7.62,10.46,3.1s.3-13-1.61-17.73c1.48,1.47,3.09,2.25,4.46,1.05,3.51-3.07.48-10.2-1.83-14a5.54,5.54,0,0,0,4.22,1,1,1,0,0,0,.67-1C687.37,1443.34,684.82,1437.54,681.78,1433Zm-6.25,3c-.35-.62-1.16-.13-.87.56,1.35,3.22,3.24,8,5.88,11a.8.8,0,0,0-.16.83c1.1,3.21,5.22,9.59,2.79,13-1.43,2-6.47-5.16-7.5-6.21-.34-.35-.78.14-.52.58a45.14,45.14,0,0,0,3.44,5.13.66.66,0,0,0-.39.79c.9,4.13,2,8.26,2.12,12.55.08,2.81-.67,6.3-3.69,5.5-2.34-.61-4.42-3.19-5.68-5.5a.49.49,0,0,0-.58-.26,43.44,43.44,0,0,0-2.29-7.14c-.24-.56-.92-.19-.84.38.37,2.94,4.75,12.84-.71,11.6-2.19-.49-4.21-2.15-6-3.57-1.2-1-3.63-2.66-4.64-4.61-.15-.56-.31-1.09-.46-1.58V1469a.51.51,0,0,0-.11-.29,15.8,15.8,0,0,0-.95-2.29c-.29-.5-1-.22-.87.4.41,2.4,3.43,11.7.35,12.89-2.43,1-5.46-2.65-6.63-4.72-1.58-2.86-2.13-6.24-2.61-9.56-.07-.46-.65-.36-.68.08,0,1-.08,2,0,3.12-3,5.43-5.41,12.39-11.18,14.29-3.66,1.22.29-8.3.9-9.88a.83.83,0,0,0-.87-1.11c-2.12.28-4,1.64-6.06,1.94a43.31,43.31,0,0,0,6.12-5.06c.28-.29-.07-.79-.38-.61-5.38,3-9.82,7.48-15.75,9.14a7.35,7.35,0,0,1-4.38-.1c-2.29-.72-1.18-3.69-.61-5.31a61.57,61.57,0,0,1,3.54-7.14c.23-.41-.25-.92-.55-.54a38.36,38.36,0,0,0-4.63,7.19c-2,1.16-2.5.27-2.4-2.43a28.65,28.65,0,0,1,.68-5c1.15-5.21,3.49-10.27,6.91-13.77.32-.33,0-1.06-.39-.89a8.33,8.33,0,0,0-2.08,1.2c-2.07.07-6.24.21-6.42-2.33-.12-1.53,2.07-3,3-3.7a9.69,9.69,0,0,1,1.34-.78h.1a.49.49,0,0,0,.54-.32,13.9,13.9,0,0,1,1.81-.65.37.37,0,0,0,.15-.57c-.78-1-2.13-.83-3.36-.39-1.68-.83-3.8-1.07-3-3.8a22.36,22.36,0,0,1,3.85-6.66,10.11,10.11,0,0,0,1.82-1.35c.42-.44.15-1.49-.46-1.41-1.69.21-7.57,3.91-7.76-.25-.16-3.55,4.83-7.26,6.9-9.13a1.32,1.32,0,0,0-.38-2c-2.93-1.45-6.06-1.44-9.15-1.93,2-2.28,7.27-5,4.42-7.94-1-1-2.68-.49-3.84-.27-2.79.5.07-4.77.38-5.47,1.53-3.39,3.48-7.22,3.82-11.1a2.65,2.65,0,0,0-.14-1.36c.61-.19,1.17-.35,1.7-.48.31-.08.27-.7,0-.67-3,.27-8.81,1.94-10.67-1.7-1.33-2.59.46-7.06,1.3-9.57a46.14,46.14,0,0,1,3.44-7.4,3.76,3.76,0,0,0,1.43.71.52.52,0,0,0,.52-.76c-.73-1.56-2.77-2.64-4-3.68-1.84-1.66-4.29-3.89-4.87-6.7-.79-3.9,10.25-1.62,11.8-.5a.61.61,0,0,0,.5.06c.68,1.77,1.45,3.35,1.79,4.09.18.42.67.08.53-.35a45,45,0,0,1-1.46-5.21c-.18-.93-1.07-5,.54-4.42,2.95,1.14,5.3,4.56,7.55,7a19,19,0,0,0-.06,3.39c0,.37.49.28.53-.06a35.13,35.13,0,0,1,1.66-7.28c1-3,2.5-4.57,4.17-1.33,1.91,3.74,2.59,9.06,2.77,13.41,0,.57.75.8.89.17a15.3,15.3,0,0,0,.09-4.54,21.74,21.74,0,0,1,10.32-8c2.79-.93,4,1.08,4.61,3.69a1.58,1.58,0,0,1-.09.26.52.52,0,0,0,.31.7c.42,2.06.62,4.34,1.09,5.77a.41.41,0,0,0,.79-.1,18.89,18.89,0,0,0-.52-7.84,7.46,7.46,0,0,0,.26-.84c.16-.61.23-1.25.36-1.85,0,0,1.42,1.44,1.78,1.85,2.61,3,4.91,6.11,7.21,9.34a11.65,11.65,0,0,0,.6,1.26.28.28,0,0,0,.36.1c.25.36.52.72.76,1.08s.75,0,.68-.44a12.08,12.08,0,0,0-1.54-3.93c-.67-4.33-1.77-11.41.86-11.67,2.47-.22,4.37,5,5.26,7.07,1.21,2.74,1.86,6,3.22,8.59a.4.4,0,0,0,.76-.21,15.83,15.83,0,0,0-.75-4.16c1.74-3,2.84-6.78,5.58-8.66,1.93-1.31,2,2.43,1.86,5.7-.12.21-.25.41-.34.59a.51.51,0,0,0,.26.72c-.11,1.39-.22,2.54-.21,2.91,0,.54.66.71.8.16a40.94,40.94,0,0,0,.89-4.15,57.39,57.39,0,0,1,4.5-3.92c1.74-1.25,7.63-4.18,6.38,1.11-1.5,6.35-7.39,10.34-10,16-.2.45.27,1,.58.57.89-1.18,1.83-2.3,2.78-3.42a16.13,16.13,0,0,1,6,2.48c1.66,1.12,4.9,4.83,2.15,6.82-3.08,2.18-8.19,0-11.3-.91-.35-.1-.54.43-.26.66a12.42,12.42,0,0,0,4.12,2.19c3.37,5.38,7.69,12.27,6.09,19.54-1.06,4.75-9-3.48-10.44-4.62-.28-.23-.72.22-.51.58a20.12,20.12,0,0,0,5.59,5.92c-.41,1.65.39,3.2,1.14,4.56,1.19,2.12,2.72,3.89,2.66,6.63-.06,2.42-2,.94-3.06.19-1.32-1-2.47-2.24-3.71-3.35-.24-.24-.65.2-.46.52,1,1.83,4.66,6.48,7.17,5.81,2,2.81,4.78,7.52,3.74,11.09-1.39,4.73-6.52-.13-8.38-1.74-.24-.2-.55.24-.34.49a23.09,23.09,0,0,0,3.52,3.41c2.12,5.48,5.61,10.15,5.78,16.42C680.74,1448.52,677.67,1439.82,675.53,1436Z" fill="#b47c4e" opacity="0.8" style="mix-blend-mode:multiply"/><path d="M616.58,1371.58a12.31,12.31,0,0,1-5.14,5.66c-1.86,1.18-4.88.64-6.34,2.46a1.87,1.87,0,0,0-.26,2c1.52,3.57,6.17,1.15,8.12-.61a14.18,14.18,0,0,0,4.54-9.11C617.56,1371.35,616.79,1371.05,616.58,1371.58Z" fill="#ffe5a2"/><path d="M622.37,1376c-.52-.33-1,.28-.81.9a9.68,9.68,0,0,1-.49,6.8c-.74,1.6-3.29,3.18-1.65,5.22a1.69,1.69,0,0,0,1.8.64C625.13,1388.17,626,1378.31,622.37,1376Z" fill="#ffe5a2"/><path d="M640,1371.94a.27.27,0,0,0-.49.22c.53,2.27.76,4.68,1.06,7,.36,2.9,0,5.64.05,8.52,0,1.3,1.71,2.29,2.29.82C645.28,1382.43,642.49,1377,640,1371.94Z" fill="#ffe5a2"/><path d="M652.74,1374.19c-.55-.69-1.47.13-1.13,1q.72,1.71,1.41,3.45c.5,1.25.77,2.57,1.29,3.8.4.95,1.58.53,1.64-.47C656.11,1379,654.35,1376.24,652.74,1374.19Z" fill="#ffe5a2"/><path d="M659.38,1372.24c-.48-.73-1.37.27-.88,1a1.74,1.74,0,0,1,.31.82c.06.77,1.21.63,1.15-.16A3.21,3.21,0,0,0,659.38,1372.24Z" fill="#ffe5a2"/><path d="M626.58,1403.94c-.25-.89-1.31-.78-1.38.18-.22,2.78-2.24,5.15-3.68,7.18s-3.88,3.63-3.6,6.4a1.75,1.75,0,0,0,1.55,1.5c2.35.45,4.52-4.36,5.56-6.33C626.33,1410.38,627.36,1406.84,626.58,1403.94Z" fill="#ffe5a2"/><path d="M635.31,1405.58c-.07-1.13-1.6-1.7-1.82-.35-.16,1-.29,2.07-.47,3.11a10.33,10.33,0,0,0-.28,3.41,1,1,0,0,0,1.81.34C635.45,1410.33,635.45,1407.57,635.31,1405.58Z" fill="#ffe5a2"/><path d="M652.53,1405.15c-.59-.77-1.55,0-1.44.94a15.46,15.46,0,0,0,1.35,5c.75,1.6,1.33,3.61,2.68,4.61a1.42,1.42,0,0,0,2.19-1C658.18,1410.69,654.47,1407.66,652.53,1405.15Z" fill="#ffe5a2"/><path d="M663.71,1400.27a10.14,10.14,0,0,0-3.91-6.25c-.71-.53-1.58.66-1,1.38a19.88,19.88,0,0,1,3.06,5.72C662.38,1402.32,664,1401.54,663.71,1400.27Z" fill="#ffe5a2"/><path d="M627.94,1433.77a30.77,30.77,0,0,1-3.53,4.52c-1.28,1.43-2.91,2.76-3,5a1.9,1.9,0,0,0,2.19,2.12c1.84-.37,3-3,4.07-4.69a21,21,0,0,0,2.38-5.8C630.41,1433.34,628.72,1432.47,627.94,1433.77Z" fill="#ffe5a2"/><path d="M629.4,1445.53c-.56,1-1.17,2-1.77,3-.7,1.15-1.58,2.16-1.62,3.67,0,1.26,1.09,2.06,2,1.48,1.09-.67,1.59-2,2.1-3.28a11.23,11.23,0,0,0,1-4.25C631.17,1445,629.92,1444.58,629.4,1445.53Z" fill="#ffe5a2"/><path d="M645.21,1436.62c-.76-1.4-2.49-.27-1.93,1.25s.76,3,1.16,4.55a1.09,1.09,0,0,0,2.17-.28A11.24,11.24,0,0,0,645.21,1436.62Z" fill="#ffe5a2"/><path d="M659.7,1433.39c-.75-.66-1.93.13-1.91,1.2,0,2.23.93,4,1.8,5.86a21,21,0,0,1,1.25,3.18,7.87,7.87,0,0,0,1.32,3.29,1.57,1.57,0,0,0,2.69-.33C667,1442.43,662.37,1435.71,659.7,1433.39Z" fill="#ffe5a2"/><path d="M655.12,1442.4c-.5-.85-1.07-1.63-1.57-2.46-.63-1-1.75.21-1.42,1.2s.62,1.72,1,2.57.79,2,1.78,2a.86.86,0,0,0,.79-.49C656.19,1444.16,655.64,1443.28,655.12,1442.4Z" fill="#ffe5a2"/></g></g></g></svg>