<svg xmlns="http://www.w3.org/2000/svg" xmlns:xlink="http://www.w3.org/1999/xlink" viewBox="0 0 1080 1920"><defs><clipPath id="clip-path"><path d="M609.41,953.84c-3.29.14-10.82,1-14.1,1.06-17.5.23-5.12,3.74-20.5,2.3-.53,3.37,7.16,6,6.52,10.13,2.31,0-10,5.54-.13,6.07,2.9.15,18.06,1.47,20,1.55,13.63-.11,23.53.24,37.16,0,11.95-.17-93.27,17.81-81.38,14.27-.49-3.84,6.19-46.53,5.86-49.91C540.45,936.37,631.92,955.52,609.41,953.84Z" fill="none"/></clipPath></defs><g style="isolation:isolate"><g id="costumes"><g id="_24" data-name="24"><path d="M1028.54,1050.86a426.77,426.77,0,0,1-48.2-23.09l-1.74-1-1.75-1-1.73-1-2.13-1.25q-2.12-1.25-4.16-2.52l-2-1.25h0l-3.57-2.26q-1.76-1.11-3.45-2.25h0q-2.55-1.68-5-3.36l-1.61-1.12c-.95-.66-1.88-1.32-2.8-2q-4.68-3.33-8.86-6.61L940,1001l-1.21-1-1.19-1c-2-1.57-3.82-3.14-5.61-4.69a.12.12,0,0,0-.05-.05c-2.17-1.88-4.22-3.72-6.17-5.54-.65-.6-1.28-1.2-1.91-1.8a.86.86,0,0,0-.14-.13c-.57-.55-1.14-1.1-1.69-1.65s-1.2-1.17-1.77-1.76l-.21-.21-1.48-1.52c-.56-.57-1.1-1.14-1.63-1.71s-1-1.12-1.55-1.68-1-1.1-1.49-1.65-1-1.08-1.42-1.62-.92-1.07-1.35-1.59L910,972.1c-.9-1.11-1.76-2.19-2.56-3.24-16.4-21.45-53-60.55-95.87-95.88-59.28-54.23-74.43-155.15-74.43-155.15L590.4,651.56l-138,5.09c-23.64,36.9-12.29,62.44-26.48,112.59C394.66,862,353,904.53,292.49,949c-1.16.67-2.32,1.34-3.46,2q-1.44.83-2.85,1.68-3,1.78-6,3.59l-3,1.83-1.74,1.08-3.2,2c-3.54,2.23-7,4.48-10.44,6.74-1.09.71-2.17,1.44-3.24,2.16q-17.72,11.88-33,24c-1,.77-2,1.54-2.93,2.31l-3.11,2.51-2.95,2.41q-4.38,3.62-8.57,7.23l-2.77,2.41q-10.12,8.88-19,17.66l-1.53,1.52a386.56,386.56,0,0,0-27.5,30.32q-1.59,2-3.12,3.91c-1.26,1.6-2.49,3.18-3.67,4.76q-.84,1.1-1.65,2.19l-1.61,2.17q-1.54,2.13-3,4.22c-.43.61-.85,1.21-1.26,1.81q-6,8.71-10.77,16.82c7.95,16.72,21.74,29,32.89,36.91l.55.39c1.41,1,2.77,1.9,4.06,2.73l1.43.91.28.17,1.29.8.75.45,1.17.7c4.79,2.79,7.92,4.19,7.92,4.19a15.86,15.86,0,0,0-.73,1.59q-.21.52-.36,1a9.24,9.24,0,0,0-.34,1.3c-.05.27-.1.54-.13.81s-.06.53-.08.8c0,.1,0,.21,0,.31s0,.41,0,.62,0,.44,0,.66v0c0,.25.06.51.1.76,0,0,0,0,0,.07,0,.27.1.53.16.79a10.52,10.52,0,0,0,.47,1.51,3.12,3.12,0,0,0,.15.39,15.17,15.17,0,0,0,.73,1.53c.16.29.32.57.5.86s.36.58.56.86.41.58.63.87a21.68,21.68,0,0,0,1.43,1.76c.26.3.53.59.81.89.42.45.86.9,1.32,1.36s1,.91,1.46,1.38l.34.32c4.91,4.46,11.76,9.41,20.18,15.48,16.68,9.07,32.35,16.29,43.81,17.79h0l1.07.13,1.05.09a23.88,23.88,0,0,0,2.91.06l.87,0c.58,0,1.14-.11,1.69-.2.36-.06.71-.13,1.06-.21l.51-.13.87-.26a12.28,12.28,0,0,0,1.62-.68c.25-.13.51-.27.75-.42s.56-.35.82-.54.51-.4.75-.61.47-.45.7-.68h0c.22-.24.44-.49.65-.75a13.22,13.22,0,0,0,2-3.79c5.65-16.43,45.21,6.17,42.12,16.44a10.32,10.32,0,0,0-.21,6.63c.05.22.12.43.19.65s.14.44.22.66.16.43.25.65c.18.44.37.89.59,1.33l.34.67c.36.67.76,1.35,1.2,2l.45.68.48.68c5.65,7.86,16.37,15.88,27.39,21.19l1.06.51.35.16,1.42.63c1.28.57,2.55,1.09,3.82,1.56l.93.34c.76.28,1.52.53,2.27.77q.69.23,1.38.42c21,6.17,42.12,0,69.34,15.93q4.14,2.43,8,4.61c.79.44,1.57.88,2.35,1.3,2.61,1.44,5.15,2.78,7.64,4q2.43,1.24,4.81,2.35c.69.33,1.38.64,2.07,1l1.09.49.95.42h0q1,.45,2,.87c.47.2.94.39,1.4.56,1.61.66,3.21,1.26,4.81,1.83l1.87.63c.67.22,1.34.44,2,.64v0a91,91,0,0,0,33.33,3.93,43.5,43.5,0,0,0,18.73-5.28c.79-.43,1.57-.88,2.32-1.34l1.11-.69.33-.21c.64-.42,1.27-.85,1.88-1.27s1.22-.86,1.81-1.3l.2-.15c.88-.65,1.74-1.31,2.58-2,.68-.54,1.35-1.07,2-1.58l1.22-1c.47-.37.94-.74,1.41-1.09,1-.76,2-1.5,3-2.18.37-.27.75-.53,1.12-.77.83-.55,1.66-1.06,2.5-1.54l.67-.37q.69-.37,1.38-.69l.7-.32c.46-.2.93-.39,1.4-.56a21.49,21.49,0,0,1,2.24-.69c.25-.07.5-.13.76-.18l.71-.14c.28-.06.57-.1.86-.14l.63-.08.24,0,.7-.06.88,0c18-.51,21.57,19.52,21.57,19.52a7.59,7.59,0,0,0,1.36,1.11l.36.23.31.19.32.19,0,0c.39.22.84.45,1.35.7l.22.1.48.22,1,.42.79.3.73.25c.75.26,1.57.51,2.48.73l1.61.39c.57.12,1.16.25,1.78.36a88,88,0,0,0,21.08,1c14.91-.84,27.82-6.47,38.31-12.32,2.18-1.21,4.25-2.44,6.21-3.62l2.81-1.73,1.56-1c1.48-.92,2.88-1.8,4.21-2.61.44-.28.88-.54,1.3-.79s.84-.51,1.25-.74l1.19-.69,1.14-.63,1.09-.56c11.3-5.65,118.14-8.73,137.15-8.22.67,0,1.32,0,2,.08s1.28.07,1.91.12c1,.06,1.9.15,2.82.24,1.51.16,3,.34,4.42.55l1.74.26c2.3.35,4.56.75,6.84,1.15l1.62.27,1.25.22,1.22.2,2.48.38c.42.07.84.13,1.27.18l.93.12a101.81,101.81,0,0,0,28-.18c23.3-3.13,43.08-23.07,47.75-28.12a19.86,19.86,0,0,1-8-6.47c-4.21-6.14,1.87-12.66,1.87-12.66,14.89-11.3,15.41-11.3,49.82-13.36,50.35-5.65,70.37-37.5,78.08-67.29s14.38-40.06,14.38-40.06,13.71-14.9,25.89-4.11C1061.67,1073.58,1050.54,1061.86,1028.54,1050.86Zm-615.81-42.63c-1.12,12.33-3.24,12.6-4.68,26.82-.57,5.64-2.16,11.26-1.8,16.92.19,3,.66,5.79-.81,6.75a3.21,3.21,0,0,1-2.8,0,19.52,19.52,0,0,1-5-3.15,19.79,19.79,0,0,1-6.12-10.8c-.87-4.16-.21-7,.9-13.14.6-3.35,1.36-7.88,2.15-13.38.21-1.5.43-3.07.64-4.71a69.84,69.84,0,0,0-16.38,22.68,62.68,62.68,0,0,0-4.68,15.48,58.33,58.33,0,0,0-.36,14.94,26.17,26.17,0,0,1,2.64,2.57,22.29,22.29,0,0,1,4,6.43c1.14,2.8,2.5,6.14,1,9.27-1,2-3.34,4.46-5.76,4.23a3.17,3.17,0,0,1-.81-.18c-.11,4.4-2.32,7.6-4.68,7.92a4.86,4.86,0,0,1-3.6-1.08c-.06-.06-.13-.11-.18-.17a4.71,4.71,0,0,1-1.17-1.9c-1.15-3.26-1.24-7-1.44-9.18a29.2,29.2,0,0,0-2.52-9.45,50.79,50.79,0,0,0-3.93-6.18c-3.58-5.23-4.14-5.46-5-7.2-2.06-4-1.77-8-1.44-11.52,1.79-18.86,4.56-30,4.56-30,3.86-15.53,5.79-23.29,7-26.16a97.53,97.53,0,0,1,17-27.42l24.9,4.71a37.62,37.62,0,0,1,4.77,7C410.3,980.75,414.45,989.3,412.73,1008.23ZM782.5,1087c-.2,2.17-.29,5.92-1.44,9.18a4.55,4.55,0,0,1-4.95,3.15c-2.37-.32-4.58-3.52-4.68-7.92a3.39,3.39,0,0,1-.81.18c-2.43.23-4.81-2.25-5.76-4.23-1.51-3.13-.15-6.47,1-9.27a23.16,23.16,0,0,1,6.66-9,58.33,58.33,0,0,0-.36-14.94,62.68,62.68,0,0,0-4.68-15.48A70,70,0,0,0,751.09,1016c1,7.65,2,13.82,2.79,18.09,1.1,6.18,1.77,9,.9,13.14a19.79,19.79,0,0,1-6.12,10.8c-.27.23-5.49,4.68-7.83,3.15-1.47-1-1-3.74-.81-6.75.35-5.66-1.23-11.28-1.8-16.92-1.45-14.22-3.56-14.49-4.68-26.82-1.72-18.93,2.43-27.48,3.69-29.88a37.14,37.14,0,0,1,4.77-7l6.48-1.23,18.42-3.48a97.77,97.77,0,0,1,17,27.42c1.16,2.87,3.09,10.63,7,26.16,0,0,2.77,11.14,4.56,30,.33,3.53.61,7.53-1.44,11.52-.9,1.74-1.47,2-5,7.2a50.79,50.79,0,0,0-3.93,6.18c-.27.59-.52,1.17-.73,1.74A29.44,29.44,0,0,0,782.5,1087Z" fill="#a81509"/><path d="M896.11,1222c-4.21-6.14,1.87-12.66,1.87-12.66,5.64,15.93,7.2,18,7.2,18s-.37.42-1.06,1.16A19.86,19.86,0,0,1,896.11,1222Z" fill="#401518"/><path d="M884.06,1097.12c7,9.45,14.34,19.11,22,29.07A351.94,351.94,0,0,1,884.06,1097.12Z" fill="#a81509"/><path d="M373.76,1066.64a58.33,58.33,0,0,1,.36-14.94,62.68,62.68,0,0,1,4.68-15.48,69.84,69.84,0,0,1,16.38-22.68c-.21,1.64-.43,3.21-.64,4.71-5.08,15.3-11.33,32.73-18.14,51A26.17,26.17,0,0,0,373.76,1066.64Z" fill="#750b0b"/><path d="M956.79,1059.05c13.1,21.45,16.87,46,16.87,46s-28.37-75.69-70-113.53S814.72,898.85,792,883.71c-20.23-13.48,32.51,126.68,92,213.41C792,973.48,755.39,893.06,746.61,842.09c-9.46-54.87-36,56.76,0,126.77l1.87,3.68L742,973.77a37.14,37.14,0,0,0-4.77,7c-1.26,2.4-5.41,11-3.69,29.88,1.12,12.33,3.23,12.6,4.68,26.82.57,5.64,2.15,11.26,1.8,16.92-.19,3-.66,5.79.81,6.75,2.34,1.53,7.56-2.92,7.83-3.15a19.79,19.79,0,0,0,6.12-10.8c.87-4.16.2-7-.9-13.14-.77-4.27-1.79-10.44-2.79-18.09a70,70,0,0,1,16.38,22.68,62.68,62.68,0,0,1,4.68,15.48,58.33,58.33,0,0,1,.36,14.94,23.16,23.16,0,0,0-6.66,9c-1.14,2.8-2.5,6.14-1,9.27.95,2,3.33,4.46,5.76,4.23a3.39,3.39,0,0,0,.81-.18c.1,4.4,2.31,7.6,4.68,7.92a4.55,4.55,0,0,0,4.95-3.15c1.15-3.26,1.24-7,1.44-9.18a29.44,29.44,0,0,1,1.79-7.71c5.22,27.23,6.7,49.92,5.84,63.65-1.19,18.9,21.21,74.6,38.21,113.83h0l-.93-.13c-.43-.05-.85-.11-1.27-.18l-2.48-.38-1.22-.2-1.25-.22-1.62-.27c-2.28-.4-4.54-.8-6.84-1.15L811,1254c-1.44-.21-2.91-.39-4.42-.55-.92-.09-1.86-.18-2.82-.24-.63,0-1.26-.09-1.91-.12s-1.3-.06-2-.08c-19-.51-125.85,2.57-137.15,8.22l-1.09.56-1.14.63-1.19.69c-.41.23-.82.48-1.25.74s-.86.51-1.3.79c-1.33.81-2.73,1.69-4.21,2.61l-1.56,1-2.81,1.73c-2,1.18-4,2.41-6.21,3.62-9-74.1-30.28-232.93-50.51-251.71-23.74-22-.38,142.81-8.88,263.07-.62-.11-1.21-.24-1.78-.36l-1.61-.39c-.91-.24-1.73-.49-2.48-.73l-.73-.25-.79-.3-1-.42-.48-.22-.22-.1c-.51-.25-1-.48-1.35-.7l0,0-.32-.19-.31-.19-.36-.23a7.59,7.59,0,0,1-1.36-1.11s-3.59-20-21.57-19.52l-.88,0-.7.06-.24,0-.63.08c-.29,0-.58.08-.86.14s-.48.08-.71.14-.51.11-.76.18a21.49,21.49,0,0,0-2.24.69c-.47.17-.94.36-1.4.56-.23.1-.47.2-.7.32q-.69.32-1.38.69c-.22.11-.45.24-.67.37-.84.48-1.67,1-2.5,1.54-.37.24-.75.5-1.12.77-1,.68-2,1.42-3,2.18-.47.35-.94.72-1.41,1.09l-1.22,1c-.67.51-1.34,1-2,1.58-.84.65-1.7,1.31-2.58,2l-.2.15c-.59.44-1.19.87-1.81,1.3s-1.24.85-1.88,1.27l-.33.21-1.11.69c-.75.46-1.53.91-2.32,1.34,2.82-45,9.58-127.65,22.94-167.76,17.26-51.77-48.86,49.09-75,169.11v0c-.67-.2-1.34-.42-2-.64l-1.87-.63c-1.6-.57-3.2-1.17-4.81-1.83-.46-.17-.93-.36-1.4-.56q-1-.42-2-.87l-1-.42-1.09-.49c-.69-.31-1.38-.62-2.07-1q-2.38-1.12-4.81-2.35c-2.49-1.26-5-2.6-7.64-4-.78-.42-1.56-.86-2.35-1.3q-3.9-2.17-8-4.61c-27.22-15.93-48.3-9.76-69.34-15.93q-.69-.19-1.38-.42c-.75-.24-1.51-.49-2.27-.77l-.93-.34c-1.27-.47-2.54-1-3.82-1.56l-1.42-.63-.35-.16-1.06-.51c30.2-56.91,49.11-128.28,58.84-182.17a3.21,3.21,0,0,0,2.8,0c1.47-1,1-3.74.81-6.75-.36-5.66,1.23-11.28,1.8-16.92,1.44-14.22,3.56-14.49,4.68-26.82,1.72-18.93-2.43-27.48-3.69-29.88a37.62,37.62,0,0,0-4.77-7l-24.9-4.71a97.53,97.53,0,0,0-17,27.42c-1.17,2.87-3.1,10.63-7,26.16,0,0-2.77,11.14-4.56,30-.33,3.53-.62,7.53,1.44,11.52.9,1.74,1.46,2,5,7.2a50.79,50.79,0,0,1,3.93,6.18,29.2,29.2,0,0,1,2.52,9.45c.2,2.17.29,5.92,1.44,9.18a4.71,4.71,0,0,0,1.17,1.9c-18.18,47.22-38.1,95.61-50,124.07l-.48-.68-.45-.68c-.44-.67-.84-1.35-1.2-2l-.34-.67c-.22-.44-.41-.89-.59-1.33-.09-.22-.18-.44-.25-.65s-.16-.44-.22-.66-.14-.43-.19-.65a10.32,10.32,0,0,1,.21-6.63c3.09-10.27-36.47-32.87-42.12-16.44a13.22,13.22,0,0,1-2,3.79c-.21.26-.43.51-.65.75h0c-.23.23-.46.46-.7.68s-.49.41-.75.61-.54.37-.82.54-.5.29-.75.42a14.54,14.54,0,0,1-1.62.68l-.87.26-.51.13c-.35.08-.7.15-1.06.21-.55.09-1.11.15-1.69.2l-.87,0a28.72,28.72,0,0,1-2.91-.06l-1.05-.09-1.07-.13h0C273.12,1101,328.18,998.71,402.23,910.2c77.59-92.72,45.42-145.69,34.06-121.1s-22.7,71.91-106,151.38c-73.15,61.45-122.55,175-141.19,223.26-.51-.47-1-.93-1.46-1.38s-.9-.91-1.32-1.36c-.28-.3-.55-.59-.81-.89-.51-.59-1-1.18-1.43-1.76q-.33-.43-.63-.87c-.2-.28-.38-.57-.56-.86s-.34-.57-.5-.86a15.17,15.17,0,0,1-.73-1.53,3.12,3.12,0,0,1-.15-.39,10.52,10.52,0,0,1-.47-1.51c-.06-.26-.12-.52-.16-.79,0,0,0,0,0-.07,0-.25-.07-.51-.1-.76v0q0-.33,0-.66c0-.21,0-.41,0-.62s0-.21,0-.31c0-.27,0-.53.08-.8s.08-.54.13-.81a13.14,13.14,0,0,1,.34-1.3q.15-.5.36-1c.21-.52.45-1.05.73-1.59,0,0-3.13-1.4-7.92-4.19l-1.17-.7-.75-.45-1.29-.8-.28-.17-1.43-.91c-1.29-.83-2.65-1.74-4.06-2.73l-.55-.38h0c29.34-84.25,90.72-135.6,67-132.21-17.77,2.55-61.92,48.5-89.09,78.48.41-.6.83-1.2,1.26-1.81q1.48-2.09,3-4.22l1.61-2.17q.81-1.1,1.65-2.19c1.18-1.58,2.41-3.16,3.67-4.76q1.53-1.95,3.12-3.91a386.56,386.56,0,0,1,27.5-30.32l1.53-1.52q8.9-8.76,19-17.66l2.77-2.41q4.19-3.62,8.57-7.23l2.95-2.41,3.11-2.51c1-.77,1.94-1.54,2.93-2.31q15.33-12.06,33-24c1.07-.72,2.15-1.45,3.24-2.16,3.41-2.26,6.9-4.51,10.44-6.74l3.2-2,1.74-1.08,3-1.83q3-1.8,6-3.59,1.41-.86,2.85-1.68c1.14-.68,2.3-1.35,3.46-2,60.55-44.47,102.17-87,133.4-179.76,14.19-50.15,2.84-75.69,26.48-112.59l138-5.09,146.74,66.27S752.29,818.75,811.57,873c42.89,35.33,79.47,74.43,95.87,95.88.8,1,1.66,2.13,2.56,3.24l1.11,1.33q.66.8,1.35,1.59c.46.54.93,1.08,1.42,1.62s1,1.1,1.49,1.65,1,1.12,1.55,1.68,1.07,1.14,1.63,1.71L920,983.2l.21.21,1.77,1.76,1.69,1.65a.86.86,0,0,1,.14.13c.63.6,1.26,1.2,1.91,1.8,2,1.82,4,3.66,6.17,5.54a.12.12,0,0,1,.05.05q2.68,2.31,5.61,4.69l1.19,1,1.21,1,1.53,1.21q4.2,3.26,8.86,6.61l2.8,2,1.61,1.12q2.43,1.67,5,3.36h0l3.45,2.25,3.57,2.26h0l2,1.25c1.37.84,2.75,1.68,4.16,2.52l2.13,1.25,1.73,1,1.75,1,1.78,1h0C945.17,1015.12,945.5,1040.57,956.79,1059.05Z" fill="#750b0b"/><path d="M469.4,967.16a1264.87,1264.87,0,0,0-1,161.76c2.54,43.74,7.19,84.35,13,121.44A1055,1055,0,0,0,490.76,1468a89.42,89.42,0,0,1,21.6,1.44c5.66,1.1,9.33,2.42,18.72,4.32,5.21,1.06,9.49,1.75,12.24,2.16a1241.23,1241.23,0,0,0,14-132c1.72-33,2-64.28,1.34-93.62q7-52.29,13.45-105.6,10.73-88.42,19.44-174.48c-18.36-39.51-58.16-56.79-86.81-45.84C479.52,934.09,470.72,962.66,469.4,967.16Z" fill="#0f0f0f"/><path d="M540.87,1099.16c-1.22-.06-4.71,39-5.72,79.76-.79,32.07,0,65.07,1.08,65.09,1.39,0,3.29-51.49,3.93-71.53C540.36,1166.17,542.47,1099.23,540.87,1099.16Z" opacity="0.4"/><path d="M535.87,1296c-1.39,0-3.42,37.54-2.15,77.26.88,27.51,3.36,56.37,4.56,56.33,1.76-.07.63-62,.54-66.8C538.61,1351.68,537.56,1296,535.87,1296Z" opacity="0.4"/><path d="M400.19,1568.69a8,8,0,0,0-2.82,4.23,8.06,8.06,0,0,0,.47,5.41,72.08,72.08,0,0,0,12.7,8c22.62,11.11,44.27,6.79,48.46,5.88,6.49-1.41,21.52-4.68,32.47-16,3.14-3.24,7.83-9.1,16.94-17.4,3.47-3.17,6.45-5.66,8.46-7.3.48,2.2,1,4.39,1.42,6.59q8.87-3.37,18.35-7.53,7.1-3.13,13.64-6.35l-1.41-15.53a46.51,46.51,0,0,0-1.18-22.82c-2.58-8.12-8.6-18.85-13.41-18.11-4,.61-3.61,8.53-9.17,10.82-4.56,1.88-10.2-1.22-14.35-4.23l-9.65,16.15a109.62,109.62,0,0,0,5.88-11.57c1-2.29,1.32-3.23,1.3-4.46-.08-5.4-6.31-9.11-7.41-9.77-7.11-4.23-14.91-2.27-16.35-1.88-4.89,1.32-8.47,4.07-15.18,11.41-10,11-13,16.81-24.46,30.7-7.1,8.59-9.85,11-13.41,13.17-2.48,1.49-7.33,3.29-16.94,6.83-10.6,3.9-13.74,4.81-16.23,8.46-.69,1-3.66,5.37-2.12,10.12A10.42,10.42,0,0,0,400.19,1568.69Z" fill="#0a0a0a"/><path d="M400.19,1568.69a68.73,68.73,0,0,0,17.17,9.17,67.48,67.48,0,0,0,26.82,4A66.68,66.68,0,0,0,475,1571.74c8.9-5.63,7.35-7.69,20.7-19,9-7.69,17.12-14.45,28.94-19.06a74.22,74.22,0,0,1,24.23-4.94l1.41,15.53-32,13.88c-.47-2.25-.94-4.51-1.42-6.76-2.68,2.29-6.78,5.89-11.58,10.52-10.46,10.1-11.69,13-17.27,17.57-9.82,8-20.16,10.61-26,12.08a79.17,79.17,0,0,1-31.83,1.09,67.61,67.61,0,0,1-21.8-7.21,65.39,65.39,0,0,1-10.51-7.06,7.94,7.94,0,0,1-.41-5.88A7.69,7.69,0,0,1,400.19,1568.69Z"/><path d="M401.92,1574.41c-.11.26,15.7,10.94,37,11.61,4,.12,22.1.32,36.7-9.26a137.43,137.43,0,0,0,11.29-8.62c6.09-5.13,8.4-7.89,12.23-11.45a105.59,105.59,0,0,1,23.53-16.16,128,128,0,0,1,24.15-9.88c-18.78,2.57-30.28,9-36.39,13.18-5.67,3.91-11.44,8.94-11.44,8.94-8.24,7.17-10.18,10.6-16.94,16a73.35,73.35,0,0,1-14.12,8.94c-16.84,8-33.43,5.74-40.46,4.71A86,86,0,0,1,401.92,1574.41Z" fill="#4d4d4d" opacity="0.47"/><path d="M414.54,1544.93a40.66,40.66,0,0,0,14.51,11,48.56,48.56,0,0,0,25.41,2.51c18.68-3.08,36.85-21.62,46.65-47.91" fill="none" stroke="#000" stroke-miterlimit="10" stroke-width="1.96" stroke-dasharray="3.27"/><path d="M519.38,1535.83a22.58,22.58,0,0,1,1.57-10.66c2.58-6.18,7.36-9.33,11.29-11.92a42,42,0,0,1,16-6.28" fill="none" stroke="#000" stroke-miterlimit="10" stroke-width="1.96" stroke-dasharray="3.27"/><path d="M439.09,1538.34c1,.77-1.31,3.46-.32,6,.32.79,1.62,3.23,9.1,3.92,12.29,1.14,21.37-4.3,21.8-3.45s-6.84,7.15-17.25,9.41c-9.27,2-16.14-.3-22.27-2.35-3.48-1.17-5.39-2.25-5.49-3.61-.09-1.16,1.17-2,6.9-5.8C436.76,1538.92,438.38,1537.77,439.09,1538.34Z" fill="#4d4d4d" opacity="0.47"/><path d="M448.65,1517a20.06,20.06,0,0,1,13.18-3.14c10.91,1.39,15.72,11.93,16,12.55" fill="none" stroke="#000" stroke-linecap="round" stroke-miterlimit="10" stroke-width="3.92"/><path d="M453.51,1509.17a20.06,20.06,0,0,1,13.18-3.14c10.91,1.39,15.73,11.93,16,12.55" fill="none" stroke="#000" stroke-linecap="round" stroke-miterlimit="10" stroke-width="3.92"/><path d="M459.47,1501a20.07,20.07,0,0,1,13.18-3.13c10.91,1.39,15.72,11.92,16,12.54" fill="none" stroke="#000" stroke-linecap="round" stroke-miterlimit="10" stroke-width="3.92"/><path d="M443.16,1525.64a20,20,0,0,1,13.18-3.14c10.91,1.39,15.72,11.93,16,12.55" fill="none" stroke="#000" stroke-linecap="round" stroke-miterlimit="10" stroke-width="3.92"/><path d="M683.72,969.08A862.38,862.38,0,0,1,688,1134a859.66,859.66,0,0,1-16.17,116.4,1053.94,1053.94,0,0,1,.81,112.66c-1.77,38.08-5.47,73.23-10.15,105a89.42,89.42,0,0,0-21.6,1.44c-5.67,1.1-9.34,2.42-18.72,4.32-5.21,1.06-9.49,1.75-12.24,2.16a1238.63,1238.63,0,0,1-14-132c-1.72-33-2-64.28-1.34-93.62-4.94-34.83-9.08-71.63-12.07-110.25-4.79-61.78-6-119.69-4.83-173,11.36-34,44.88-51,70.82-42.65C666.54,930.24,679.92,947.92,683.72,969.08Z" fill="#0f0f0f"/><path d="M612.41,1099.16c1.22-.06,4.72,39,5.72,79.76.8,32.07,0,65.07-1.07,65.09-1.39,0-3.29-51.49-3.93-71.53C612.93,1166.17,610.82,1099.23,612.41,1099.16Z" opacity="0.4"/><path d="M617.42,1296c1.39,0,3.42,37.54,2.15,77.26-.89,27.51-3.36,56.37-4.56,56.33-1.77-.07-.63-62-.54-66.8C614.68,1351.68,615.73,1296,617.42,1296Z" opacity="0.4"/><path d="M753.1,1568.69a8,8,0,0,1,2.82,4.23,8.12,8.12,0,0,1-.47,5.41,71.84,71.84,0,0,1-12.71,8c-22.61,11.11-44.26,6.79-48.46,5.88-6.48-1.41-21.51-4.68-32.46-16-3.14-3.24-7.84-9.1-16.94-17.4-3.47-3.17-6.45-5.66-8.47-7.3L635,1558.1q-8.88-3.37-18.35-7.53-7.1-3.13-13.64-6.35l1.41-15.53a46.6,46.6,0,0,1,1.17-22.82c2.58-8.12,8.61-18.85,13.41-18.11,4,.61,3.62,8.53,9.18,10.82,4.56,1.88,10.2-1.22,14.35-4.23l9.64,16.15a113.64,113.64,0,0,1-5.88-11.57c-1-2.29-1.31-3.23-1.29-4.46.08-5.4,6.3-9.11,7.41-9.77,7.11-4.23,14.9-2.27,16.35-1.88,4.88,1.32,8.46,4.07,15.17,11.41,10,11,13,16.81,24.47,30.7,7.1,8.59,9.84,11,13.41,13.17,2.48,1.49,7.33,3.29,16.94,6.83,10.6,3.9,13.74,4.81,16.23,8.46.69,1,3.66,5.37,2.12,10.12A10.48,10.48,0,0,1,753.1,1568.69Z" fill="#0a0a0a"/><path d="M753.1,1568.69a68.64,68.64,0,0,1-17.18,9.17,67.44,67.44,0,0,1-26.82,4,66.65,66.65,0,0,1-30.81-10.12c-8.91-5.63-7.36-7.69-20.71-19-9-7.69-17.11-14.45-28.93-19.06a74.32,74.32,0,0,0-24.23-4.94L603,1544.22l32,13.88,1.41-6.76c2.69,2.29,6.79,5.89,11.59,10.52,10.46,10.1,11.68,13,17.27,17.57,9.82,8,20.15,10.61,26,12.08a79.23,79.23,0,0,0,31.84,1.09,67.61,67.61,0,0,0,21.8-7.21,65.39,65.39,0,0,0,10.51-7.06,8,8,0,0,0,.41-5.88A7.76,7.76,0,0,0,753.1,1568.69Z"/><path d="M751.37,1574.41c.11.26-15.71,10.94-37,11.61-4,.12-22.1.32-36.7-9.26a137.43,137.43,0,0,1-11.29-8.62c-6.1-5.13-8.4-7.89-12.24-11.45a105.57,105.57,0,0,0-23.52-16.16,128.28,128.28,0,0,0-24.15-9.88c18.78,2.57,30.27,9,36.38,13.18,5.68,3.91,11.45,8.94,11.45,8.94,8.23,7.17,10.17,10.6,16.94,16a73.17,73.17,0,0,0,14.11,8.94c16.85,8,33.43,5.74,40.47,4.71A86,86,0,0,0,751.37,1574.41Z" fill="#4d4d4d" opacity="0.47"/><path d="M738.75,1544.93a40.75,40.75,0,0,1-14.51,11,48.56,48.56,0,0,1-25.41,2.51c-18.68-3.08-36.85-21.62-46.66-47.91" fill="none" stroke="#000" stroke-miterlimit="10" stroke-width="1.96" stroke-dasharray="3.27"/><path d="M633.9,1535.83a22.33,22.33,0,0,0-1.57-10.66c-2.57-6.18-7.36-9.33-11.29-11.92a41.82,41.82,0,0,0-16-6.28" fill="none" stroke="#000" stroke-miterlimit="10" stroke-width="1.96" stroke-dasharray="3.27"/><path d="M714.2,1538.34c-1,.77,1.31,3.46.31,6-.31.79-1.62,3.23-9.09,3.92-12.3,1.14-21.38-4.3-21.8-3.45s6.84,7.15,17.25,9.41c9.27,2,16.14-.3,22.27-2.35,3.48-1.17,5.38-2.25,5.49-3.61.09-1.16-1.17-2-6.9-5.8C716.53,1538.92,714.91,1537.77,714.2,1538.34Z" fill="#4d4d4d" opacity="0.47"/><path d="M704.63,1517a20,20,0,0,0-13.17-3.14c-10.91,1.39-15.73,11.93-16,12.55" fill="none" stroke="#000" stroke-linecap="round" stroke-miterlimit="10" stroke-width="3.92"/><path d="M699.77,1509.17A20,20,0,0,0,686.6,1506c-10.91,1.39-15.73,11.93-16,12.55" fill="none" stroke="#000" stroke-linecap="round" stroke-miterlimit="10" stroke-width="3.92"/><path d="M693.81,1501a20,20,0,0,0-13.17-3.13c-10.91,1.39-15.73,11.92-16,12.54" fill="none" stroke="#000" stroke-linecap="round" stroke-miterlimit="10" stroke-width="3.92"/><path d="M710.12,1525.64A20,20,0,0,0,697,1522.5c-10.91,1.39-15.73,11.93-16,12.55" fill="none" stroke="#000" stroke-linecap="round" stroke-miterlimit="10" stroke-width="3.92"/><g opacity="0.54"><path d="M562.47,1064.85c-.27-.87,9.65-7,21.64-6.64a37.71,37.71,0,0,1,21.16,7.74,69.61,69.61,0,0,0-23.42-3.68C570.34,1062.48,562.7,1065.59,562.47,1064.85Z"/><path d="M586.1,976.25q-.15,83.05-.32,83.06s-.09-3.9-.13-11.7A14.81,14.81,0,0,1,571,1034.16q-.31-33.68-.64-67.35l15.82-.66Z"/></g><path id="belt_color" data-name="belt color" d="M526.63,972.47c21.69.94,43.4,1.24,65.09,2.25l5.73.25c15.59.64,28.37.34,40.88,0,17.09-.44,32.57-1,46.35-1.46a27.83,27.83,0,0,0-3.24-22.68,582.38,582.38,0,0,1-67.2,3.66c-18.1-.06-30.9-.93-46.89-1.89-22.56-1.35-54.78-3.05-95-4.41a19.74,19.74,0,0,0-3.6,21.6,233.78,233.78,0,0,1,31.35.84c.76.08,1.62.23,3.17.33C511.09,971.5,518.85,972.13,526.63,972.47Z"/><g id="effects"><path id="belt_effect" data-name="belt effect" d="M638.56,963.28c5.86-.2,11.71-.81,17.57-.88,6.13-.07,13.13,0,19.24,2.12q-.69-6.63-1.37-13.26a349.27,349.27,0,0,1-41.58,3.42c-9.3.2-17,0-22.86-.18-16-.45-27.89-1.43-32.58-1.8-14.66-1.17-37.68-2.76-76.73-5q-1,6.45-2,12.91c12.87,3.42,24.86,1.58,38-.4,10.19-1.53,20.47-2.06,29.12,4.79a43.54,43.54,0,0,0,6.41-2.68A37.49,37.49,0,0,1,582.92,959a73.92,73.92,0,0,1,31.37,2.21C622.39,961.85,630.4,963.56,638.56,963.28Z" fill="#989898" opacity="0.14"/><path d="M539.2,951.55c-1.57-3.24-5.37-3.95-8.26-2.83a6,6,0,0,0-1,2.69c-1.14,6.75-1.32,25.13,0,25.71,0,0,7.13,1.55,8.49.19,2-2,2.72-17.5,1.9-24.67A2.08,2.08,0,0,1,539.2,951.55Z" fill="#989898" opacity="0.2"/><path d="M638.59,978.84c1.3-3.56.1-22.66-.37-23.6s-9.18-1.61-10,.25-.51,21.44,1.18,24.77C629.75,980.92,637.86,980.84,638.59,978.84Z" fill="#989898" opacity="0.2"/></g><g id="clasp"><g clip-path="url(#clip-path)"><g id="clasp-2" data-name="clasp"><path id="color" d="M607.62,959.56s.44-3.37-1-5.6c-1.57-2.43-35.84-5-39-2.26-4.66,4.13-1.75,22.55-.92,24.1,1.37,2.57,27.1.77,32.08,0,4.79-.74,6.82-.5,8.23-2.6S607.64,960.21,607.62,959.56Zm-3.6,11.5c-1.12,1.52-2.32,1.28-6.35,1.7s-25.41,1-26.58-.83c-.71-1.14-2.81-14,.82-16.8,2.43-1.9,30.29-.21,31.7,1.58,1.3,1.64,1.17,4.62,1.17,4.62C604.82,961.8,605.13,969.54,604,971.06Z" fill="#8d9197"/><g id="effects-2" data-name="effects"><path d="M603.61,956.71c1.3,1.64,1.17,4.62,1.17,4.62,0,.41.27,6.3-.39,8.82,2.31-3.47,2.3-10.4,0-13.86-5.13-2.66-10.72-2-17.14-2.4-3.8-.25-8.77-.75-12.25.6C583.21,953.81,602.42,955.21,603.61,956.71Zm.7,17.94c-3.79,1.25-8.58.89-12.68,1-4.7.15-9.65.58-14.71.46-7.73-.18-10.41-2.43-10.44-9,0-4.74-1.12-10.85,1.32-15.56,0,0-.11.06-.14.09-4.66,4.13-1.75,22.55-.92,24.1,1.37,2.57,27.1.77,32.08,0,4.77-.74,6.8-.5,8.21-2.58A8.59,8.59,0,0,1,604.31,974.65Z" opacity="0.2"/><path d="M607.62,959.56s.44-3.37-1-5.6-26.17-4.25-35.84-3.1l-.39.34a3.48,3.48,0,0,0-1.14,1.83,50.66,50.66,0,0,0-.44,19.63,6.13,6.13,0,0,0,1.41,1.51,5.57,5.57,0,0,0,1.5.76c7.19.67,14.09.22,20.78-.14,5-.26,11.48.55,15-3.21C608.21,967.89,607.64,960.1,607.62,959.56Zm-2,10.57a3.92,3.92,0,0,1-2.36,1.63c-1,.73-2.41.66-5.64,1-4.18.43-25.41,1-26.58-.83-.58-.92-2.05-9.42-.67-14.23-1.38-6.82,9.94-5.46,14.78-5.08,3.59.28,7.54.19,11.11.67a2.22,2.22,0,0,1,.64,0c2.57.2,5.38.4,7.16,2.17s1.91,4.55,2.2,6.89S607.19,967.88,605.67,970.13Z" fill="#fff" opacity="0.3"/><path d="M607.14,966.74c.11-1.25.23-2.52.3-3.78.2-3.15.64-8.36-2.93-10-5.28-1.43-19.75-2.64-29.21-2.41a16.39,16.39,0,0,0-2,.28A5.9,5.9,0,0,0,569,954.6a50.7,50.7,0,0,0-.54,15.06,11.3,11.3,0,0,0,1.76,3.26,14.37,14.37,0,0,0,5,1.76c4.23.52,8.85,0,12.9-.32,2-.14,4.12-.48,6.15-.69-4,.13-8.25.33-12.57.25a34.1,34.1,0,0,1-8.29-.85,4.29,4.29,0,0,1-3.3-1.77c-1.37-2.14-1.15-5.42-1.05-7.83.1-2.16-.06-5.35,1-7.78h0c1.59-7.71,20.31-4.09,25.25-3.58,3.75.39,7.71.79,9.79,3.75a10.87,10.87,0,0,1,1.54,6.95,13.56,13.56,0,0,1,.11,2.63.53.53,0,0,1-.05.18,11.13,11.13,0,0,1-1.06,5.67,3.71,3.71,0,0,0,.54-.44,6.45,6.45,0,0,0,.8-1.44C607.08,968.51,607.07,967.55,607.14,966.74Z" fill="#fff" opacity="0.5"/><path d="M568,963.05a1.84,1.84,0,0,0-1.73.91,1.51,1.51,0,0,0,.34,1.78,4.22,4.22,0,0,0,2.64.82l6.58.51a5.89,5.89,0,0,0,1.11,0,2.26,2.26,0,0,0,2-2.53,1.69,1.69,0,0,0-1.23-1.33,2.72,2.72,0,0,0-.9,0c-3,.24-5.58-.4-8.78-.15" opacity="0.15"/></g><path id="color-2" data-name="color" d="M577.89,963.44a2.06,2.06,0,0,1,.53,1.27A1.43,1.43,0,0,1,578,966a2.31,2.31,0,0,1-1.63.32l-7.94-.36a2.86,2.86,0,0,1-1.86-.53,1.35,1.35,0,0,1,.24-2,4.63,4.63,0,0,1,2.32-.75,27,27,0,0,1,8.09.23" fill="#8d9197"/><g id="effects-3" data-name="effects"><path d="M570.63,964.62a27.76,27.76,0,0,0,3.76,0c.49,0,1.93-.16,2.25-.61s0-.87-.26-1.27a27.37,27.37,0,0,0-7.24-.11,4.63,4.63,0,0,0-2.32.75,1.62,1.62,0,0,0-.56,1C567.72,964.37,569.24,964.55,570.63,964.62Z" fill="#fff" opacity="0.3"/><path d="M576.61,963.14a1.9,1.9,0,0,0-.23-.39,27.37,27.37,0,0,0-7.24-.11,4.63,4.63,0,0,0-2.32.75,1.75,1.75,0,0,0-.33.39A30.39,30.39,0,0,1,576.61,963.14Z" fill="#fff" opacity="0.5"/><path d="M577,964.73c-1.32.82-3.09.74-4.69.65a57.26,57.26,0,0,1-5.94-.38,1.11,1.11,0,0,0,.26.39,2.86,2.86,0,0,0,1.86.53l7.94.36A2.31,2.31,0,0,0,578,966a1.43,1.43,0,0,0,.41-1.25,2.06,2.06,0,0,0-.53-1.27l-.5-.43A1.23,1.23,0,0,1,577,964.73Z" opacity="0.2"/></g></g></g></g><g id="belt_loops" data-name="belt loops"><path id="belt_loop_color" data-name="belt loop color" d="M538.4,948c-2.27-.66-8.11-4.37-9.24,2.38s-1.33,25.13,0,25.71c0,0,7.12,1.56,8.48.19C540.11,973.79,540.67,948.69,538.4,948Zm98.79,5.48c-.46-.93-9.2-1.63-10,.25s-.71,21.66,1,25c.33.66,8.48.59,9.23-1.43C638.69,973.76,637.66,954.46,637.19,953.51Z" fill="#141414"/><path id="belt_loops_effect" data-name="belt loops effect" d="M538.4,948c-2.25-.65-8-4.27-9.2,2.17a1.67,1.67,0,0,1,2.14.5c5,6.46,4.68,17.84,2.26,26.1,1.71.15,3.4.11,4-.49C540.11,973.79,540.67,948.69,538.4,948Zm98.79,5.48c-.46-.93-9.2-1.63-10,.25a11.26,11.26,0,0,0-.37,2.71,2.86,2.86,0,0,1,.81-.73,2,2,0,0,1,1.84-.18,1.28,1.28,0,0,1,1.37.31c2.56,3,3.07,8,2.64,13.59,0,3.15-.15,6.44-.19,9.54,1.94-.24,3.75-.75,4.09-1.65C638.69,973.76,637.66,954.46,637.19,953.51Z" opacity="0.1"/></g><path d="M516.45,621.65c27.18,1.25,32.77-.18,32.77-.18l76.93,2.7L579.8,694.81S541.69,648.64,516.45,621.65Z" fill="#534741"/><g opacity="0.5" style="mix-blend-mode:overlay"><path d="M549.22,621.47l11.23.39c6.29,8.37,14.13,14.6,30.93,14.18a32,32,0,0,0,24.83-12.21l9.94.34L579.8,694.81s-38.11-46.17-63.35-73.16C543.63,622.9,549.22,621.47,549.22,621.47Z" fill="#fff"/><g style="mix-blend-mode:multiply"><path d="M549.22,621.47l4.56.17c3.26,18.07,14.11,43,27.33,64.21,9.09-12.43,29.35-44.29,40.4-61.84l4.64.16L579.8,694.81s-38.11-46.17-63.35-73.16C543.63,622.9,549.22,621.47,549.22,621.47Z" fill="#fff"/></g></g><path d="M477.68,638.31l17.37-7.69,3.1-10c7,.47,13.06.82,18.3,1,25.24,27,63.35,73.16,63.35,73.16l46.35-70.64,49.15,16.15,26.42,19.34c-24,37.47-113.08,193.64-5.81,297.49l-33,24.17-73.16-44.86-72.14,43.48-51.53-42.1C538.71,858.59,491.27,682.77,477.68,638.31Z" fill="#534741"/><g opacity="0.6" style="mix-blend-mode:overlay"><path d="M604.52,675.42c-20.47,21.42-25.62,27.49-25.62,27.49l-21.55-25.67s0,170.34-82.4,249.65c59.65-83.45,15.72-246.06,2.73-288.58l17.37-7.69,3.1-10c7,.47,13.06.82,18.3,1,25.24,27,63.35,73.16,63.35,73.16l46.35-70.64,49.15,16.15,26.42,19.34c-17.71,27.67-54.25,168.69-37.64,257C616.27,841.67,596.09,747.28,604.52,675.42Z" fill="#fff"/></g><path d="M202.76,281.48c72.78-9.9,150-17.7,231.29-22.44a3028.78,3028.78,0,0,1,513.19,13.8c-20.22-52-63-140.55-144.38-200.57a318.27,318.27,0,0,0-56.28-33.46c-29.36-13.28-73.32-27.29-160.31-25.66-85.68,1.61-140,3.06-197,28.94C258.91,101.27,213.25,244.94,202.76,281.48Z" fill="#fff"/><path d="M825.47,243.09s.76-43.8-103-49-357-15.07-366.68,50.6c-6.09,41.58,55.85,85.7,151.36,95.72C604.48,350.65,817.25,330.81,825.47,243.09Z" fill="#0a2c55"/><path d="M825.35,236.38s.76-43.8-103-48.93S365.3,172.36,355.64,238c-6.09,41.59,55.86,85.7,151.37,95.72C604.36,344,817.12,324.09,825.35,236.38Z" fill="#164d7e"/><g opacity="0.5" style="mix-blend-mode:multiply"><path d="M355.64,238c9.66-65.67,262.92-55.72,366.69-50.58,5.13.25,10,.6,14.6,1-7.87,3-13.62,8.33-12.91,17.55,2.1,27,15,50.65-127.28,63.81-102.61,3.89-150.53-18.29-153.9-38.85s-55.33-9.71-68.6,16.11c-13,25.27,54.9,82.8,214.89,88.43-30.91,1.33-59.6.57-82.12-1.78C411.5,323.73,349.55,279.62,355.64,238Z" fill="#164d7e"/></g><path d="M736.36,49.75s-19,92.68-20,174.51c1,16.89-48.95,32.88-122.68,36.46s-139.21-14.08-141.34-31.05S421.56,53.54,421.56,53.54Z" fill="#0a2c55"/><path d="M671.12,79.56c-19.65,2.21-34.69-8.64-34.69-8.64l.42-20,99.51-1.19s-19,92.68-20,174.51c.5,8.31-11.35,16.39-32.27,22.89C686.69,117.21,690.47,77.37,671.12,79.56Z" fill="#0a2c55" opacity="0.5" style="mix-blend-mode:multiply"/><path d="M536.09,52.15,535.68,66s2.31,18.44-34,15.79-37.51,13.09-33,51.19c3,24.86,9.88,80.61,14.34,116.34-18.29-5.67-29.75-12.74-30.62-19.67-2.13-17-30.83-176.13-30.83-176.13Z" fill="#0a2c55" opacity="0.5" style="mix-blend-mode:multiply"/><path d="M501.64,81.81c36.35,2.65,34-15.79,34-15.79l.41-13.87,100.76-1.21-.42,20s15,10.85,34.69,8.64c19.35-2.19,15.57,37.65,13,167.59-21.63,6.74-52.95,11.76-90.41,13.57-43.6,2.14-84.3-3.17-110.72-11.38-4.46-35.73-11.38-91.48-14.34-116.34C464.13,94.9,465.28,79.15,501.64,81.81Z" fill="#0a2c55"/><g opacity="0.5" style="mix-blend-mode:screen"><path d="M586.29,80.79c14-1,14.77-17.5,12.15-33.47l7.49-.09c.56,17.71,4.26,33.51,15.71,33.47,26-.11,30.74,8.25,32.38,77,1,42.15,1.63,76,2,95.9-10.55,1.17-21.79,2.08-33.68,2.65a393.54,393.54,0,0,1-50.66-.77c-1.23-22.36-4.43-78.83-6.94-116.29C561.49,91.65,558.8,82.78,586.29,80.79Z" fill="#0a2c55"/></g><path d="M611.09,84.11s13.28-3.92,15,16.51,6.49,133.67,6.49,133.67l-12.29,1.54Z" fill="#0a2c55" style="mix-blend-mode:screen"/><path d="M421.74,51.29c.09,19.17,70.6,34.36,157.48,33.94S736.46,68.91,736.36,49.75,665.78,15.38,578.89,15.8,421.65,32.1,421.74,51.29Z" fill="#164d7e"/><path d="M451.62,51.13c.07,15.53,57.2,27.85,127.56,27.51S706.56,65.43,706.49,49.9,649.3,22.05,578.91,22.38,451.54,35.6,451.62,51.13Z" fill="#164d7e" opacity="0.5" style="mix-blend-mode:screen"/><path d="M588.74,227.94c82.77-2.47,116-21,128.66-32.14-.54,9.54-.88,19.06-1,28.46,1,16.89-48.95,32.88-122.68,36.46s-139.21-14.08-141.34-31.05c-.46-3.67-2.15-13.92-4.52-27.77C463.07,213,501.2,230.59,588.74,227.94Z" fill="#a81509"/><path d="M662.78,219.55c30.88-7,46.75-16.81,54.62-23.75-.54,9.54-.88,19.06-1,28.46.64,10.57-18.72,20.8-51.36,27.84Q663.76,235.84,662.78,219.55Z" fill="#a81509" style="mix-blend-mode:multiply"/><path d="M601.15,227.44c3.16-.17,6.25-.36,9.24-.56a249.4,249.4,0,0,0,1,32.7q-3.93.32-8,.59C602.82,249.25,602,238.34,601.15,227.44Z" fill="#a81509" style="mix-blend-mode:screen"/><path d="M547.35,227.62c10.6.54,22.18.74,34.85.48.55,11,1,22,1.4,33-12.41.29-24.45,0-35.93-.83C547.77,249.39,547.71,238.49,547.35,227.62Z" fill="#a81509" style="mix-blend-mode:screen"/><path d="M497.44,221.5a200.68,200.68,0,0,0,4,32.59c-28.78-6.13-47.9-15.36-49.05-24.42-.46-3.67-2.15-13.92-4.52-27.77C456.15,208,471.28,215.91,497.44,221.5Z" fill="#a81509" style="mix-blend-mode:multiply"/><path d="M679.35,79.42S585.74,97.14,482,79.75C565.71,100.33,629.72,100.35,679.35,79.42Z" fill="#0a2c55" style="mix-blend-mode:screen"/><path d="M779.9,293.71l-77.57-51.83-18.19,5.27,70.71,58.66S770.58,301.1,779.9,293.71Z" fill="#0a2c55" style="mix-blend-mode:screen"/><polygon points="672.99 251.24 736.26 312.74 725.12 316.16 665.05 252.1 672.99 251.24" fill="#0a2c55" style="mix-blend-mode:screen"/><path d="M816.16,236.49S790.64,308,650.64,322C586.25,326.69,799.24,339.89,816.16,236.49Z" fill="#0a2c55" style="mix-blend-mode:screen"/><path d="M496.74,619.35,490,624.52c-2.75.31-6.93.87-12,1.91-19.22,4-54.7,11.32-62.28,35.5-6.59,21,10.65,46.05,14.61,51.57,1.19,1.29,2.39,2.62,3.58,4a154.28,154.28,0,0,1,20.15,30.14,556.21,556.21,0,0,1,3.24,80c-.47,15-1.53,29.17-3,42.32l-28.75,47.74L464,994.49,489.56,943C534.59,857.39,505.17,667.4,496.74,619.35Z" fill="#0f3460"/><g opacity="0.5" style="mix-blend-mode:multiply"><path d="M479.34,875.14c-14.82-5.25-39.42,25.61-52.74,44.41l-1-1.89,28.75-47.74c1.37-13.29,2.4-27.42,3-42.32a655.32,655.32,0,0,0-1.92-80.1c6.57,53.08,15.15,110.68,22.07,110.19.77-.06,1.36-.89,2.15-2.31,24.93-44.76-23-210.35-23-210.35l19.79-18.36,13.6-2.15,6.71-5.17c8.43,48,37.85,238-7.18,323.68L464,994.49l-3.59-7.2C472.45,952.68,495.3,880.8,479.34,875.14Z" fill="#0f3460"/></g><path d="M473.49,830.09c.37,5.08,3.75,8.88,7.56,8.49s6.57-4.8,6.18-9.88-3.77-8.89-7.55-8.51S473.11,825,473.49,830.09Z" fill="#baac97" style="mix-blend-mode:multiply"/><path d="M475.18,828.64c.29,3.86,3,6.75,6.14,6.43s5.38-3.71,5.09-7.57-3-6.76-6.13-6.43S474.9,824.77,475.18,828.64Z" fill="#daa565"/><path d="M468.62,889.86c.38,5.09,3.77,8.87,7.56,8.48s6.57-4.8,6.19-9.89-3.76-8.87-7.56-8.48S468.25,884.77,468.62,889.86Z" fill="#baac97" style="mix-blend-mode:multiply"/><path d="M470.32,888.4c.29,3.86,3,6.75,6.14,6.43s5.37-3.7,5.09-7.56-3-6.75-6.15-6.45S470,884.55,470.32,888.4Z" fill="#daa565"/><path d="M456.3,938.64c.38,5.09,3.77,8.9,7.57,8.51s6.57-4.82,6.19-9.89-3.77-8.89-7.56-8.51S455.93,933.58,456.3,938.64Z" fill="#baac97" style="mix-blend-mode:multiply"/><path d="M458,937.19c.29,3.88,3,6.76,6.14,6.44s5.37-3.7,5.08-7.57-3-6.76-6.13-6.44S457.73,933.31,458,937.19Z" fill="#daa565"/><path d="M504.26,614.08c-2.19-3.42-4.41-7.21-6.58-11.38a153.72,153.72,0,0,1-10.08-24.37,110.28,110.28,0,0,1,22,12.19,124.71,124.71,0,0,1,27,26.46q7.05,113-.6,114.35Q528,732.75,504.26,614.08Z" fill="#534741"/><path d="M463.36,647.64c32.6-28.34,40.9-33.56,40.9-33.56s36.31,45.85,31.7,117.25c-6.32,60.35-17,125.92-30.41,167.69C504.9,798.31,485.1,732.67,463.36,647.64Z" fill="#164d7e"/><g opacity="0.4" style="mix-blend-mode:multiply"><path d="M520.88,778.18c10-80.27-10.19-133.91-23.37-159.1,5-3.89,6.75-5,6.75-5s36.31,45.85,31.7,117.25c-6.32,60.35-17,125.92-30.41,167.69-.65-100.71-20.45-166.35-42.19-251.38.44-.38.86-.73,1.29-1.12C497.3,704,517.33,809.28,520.88,778.18Z" fill="#164d7e"/></g><path d="M656.22,623.67l6.71,5.17c2.74.31,6.93.87,12,1.91,19.22,4,54.69,11.32,62.28,35.5,6.59,21-10.65,46-14.61,51.57q-1.8,1.93-3.58,4A153.83,153.83,0,0,0,698.84,752a556.21,556.21,0,0,0-3.24,80c.47,15,1.53,29.17,3,42.32L727.31,922,689,998.81,663.4,947.35C618.36,861.71,647.79,671.72,656.22,623.67Z" fill="#0f3460"/><g opacity="0.5" style="mix-blend-mode:multiply"><path d="M673.62,879.46c14.82-5.25,39.42,25.61,52.74,44.41l.95-1.89-28.75-47.74c-1.37-13.29-2.41-27.42-3-42.32a653.32,653.32,0,0,1,1.92-80.1C690.94,804.9,682.37,862.5,675.45,862c-.77-.06-1.37-.89-2.16-2.31-24.92-44.76,23-210.35,23-210.35L676.53,631l-13.6-2.15-6.71-5.17c-8.43,48.05-37.86,238,7.18,323.68L689,998.81l3.6-7.2C680.5,957,657.66,885.12,673.62,879.46Z" fill="#0f3460"/></g><path d="M679.47,834.41c-.38,5.08-3.75,8.88-7.56,8.49s-6.57-4.8-6.19-9.88,3.77-8.89,7.56-8.51S679.84,829.33,679.47,834.41Z" fill="#baac97" style="mix-blend-mode:multiply"/><path d="M677.77,833c-.28,3.86-3,6.75-6.13,6.43s-5.38-3.71-5.1-7.57,3-6.76,6.13-6.43S678.05,829.09,677.77,833Z" fill="#daa565"/><path d="M684.33,894.18c-.37,5.09-3.76,8.87-7.56,8.48s-6.56-4.8-6.18-9.89,3.76-8.87,7.55-8.48S684.71,889.09,684.33,894.18Z" fill="#baac97" style="mix-blend-mode:multiply"/><path d="M682.63,892.72c-.28,3.86-3,6.75-6.14,6.43s-5.37-3.7-5.08-7.56,3-6.75,6.15-6.45S682.92,888.87,682.63,892.72Z" fill="#daa565"/><path d="M696.65,943c-.38,5.09-3.76,8.9-7.56,8.51s-6.57-4.82-6.2-9.89,3.78-8.89,7.56-8.51S697,937.9,696.65,943Z" fill="#baac97" style="mix-blend-mode:multiply"/><path d="M695,941.51c-.28,3.88-3,6.76-6.13,6.44s-5.38-3.7-5.09-7.57,3-6.76,6.13-6.44S695.22,937.63,695,941.51Z" fill="#daa565"/><path d="M648.69,618.4c2.19-3.42,4.42-7.21,6.59-11.38a154.67,154.67,0,0,0,10.08-24.37,110,110,0,0,0-22,12.19,124.71,124.71,0,0,0-27,26.46q-7.06,113,.59,114.35Q624.94,737.08,648.69,618.4Z" fill="#534741"/><path d="M689.6,652C657,623.62,648.69,618.4,648.69,618.4S612.38,664.25,617,735.65c6.33,60.35,17,125.92,30.42,167.69C648.06,802.63,667.86,737,689.6,652Z" fill="#164d7e"/><g opacity="0.4" style="mix-blend-mode:multiply"><path d="M632.07,782.5c-10-80.27,10.2-133.91,23.38-159.1-5-3.89-6.76-5-6.76-5S612.38,664.25,617,735.65c6.33,60.35,17,125.92,30.42,167.69C648.06,802.63,667.86,737,689.6,652c-.44-.38-.86-.73-1.29-1.12C655.65,708.32,635.62,813.6,632.07,782.5Z" fill="#164d7e"/></g><path d="M735.87,976.82c-1.79-5.68-.61-9.33.07-10.91,3.56-8.25,16.61-13,31.86-9.38l2.31,12.25Z" fill="#e7f0f8"/><path d="M750,968.8c-1.66.5-5.18,1.58-10,2.7-3.43.79-6.29,1.32-8.19,1.64l-5.05-16.9c-4.93-19.92-8.2-36.25-10.25-47.3-3.29-17.77-3.49-23.9-5.16-33.88-1.14-6.81-2.28-11.76-3.33-16.29-3.67-15.82-6-20.49-12.09-43-1.93-7.17-2.89-10.76-3.24-13-1.41-8.88-.65-14.25-3.62-23.73-.68-2.15-1.25-3.59-1.54-4.34-3.74-9.79-7.57-32.2-4.2-60.85,2.23-19,6.71-33,10.44-44.64a291.31,291.31,0,0,1,10.44-27.72c17.11,1.71,26,9.08,29.58,12.63C746,666.17,747.44,683.73,749,699.87c.55,5.74.8,14.4,1.29,31.73.6,20.85.29,23.24.89,35,.5,9.9,1,14.51,3,35.1,1,10.3,2.41,25.66,4.09,44.77a264.4,264.4,0,0,1,4.88,29.76c1.34,12.68,1.13,19.6,2.15,37.52.71,12.34,1.57,22.34,2.17,28.76q2.26,10.05,4.52,20.1C761.61,965.4,754.7,967.4,750,968.8Z" fill="#0f3460"/><path d="M708.44,826.2a255.35,255.35,0,0,1,8.7,46.42c2.52,22.87,6.91,56.18,15.22,101.7a591.78,591.78,0,0,1-20.15-84.61q-2.57-15.9-4.16-30.94c-3-13.08-5.22-23.73-6.73-31.08-2-9.82-2.76-14-4.4-21-2.74-11.69-5.56-21-7.5-27A236.13,236.13,0,0,1,708.44,826.2Z" fill="#092642"/><path d="M413.62,974.66c1.78-5.68.6-9.33-.08-10.91-3.56-8.25-16.61-13-31.85-9.38q-1.17,6.12-2.32,12.25Z" fill="#e7f0f8"/><path d="M399.44,966.64c1.66.5,5.18,1.58,10,2.7,3.44.79,6.29,1.32,8.19,1.64l5.05-16.9c4.93-19.92,8.2-36.25,10.25-47.3,3.29-17.77,3.49-23.9,5.16-33.88,1.14-6.81,2.28-11.76,3.33-16.29,3.67-15.82,6-20.49,12.09-43.05,1.93-7.17,2.89-10.76,3.24-13,1.42-8.88.65-14.25,3.63-23.73.67-2.15,1.25-3.59,1.53-4.34,3.74-9.79,7.57-32.2,4.2-60.85-2.23-19-6.71-33-10.44-44.64a291.31,291.31,0,0,0-10.44-27.72c-17.11,1.71-26,9.08-29.58,12.63-12.21,12.06-13.61,29.62-15.17,45.76-.56,5.74-.81,14.4-1.3,31.73-.6,20.85-.29,23.24-.88,35-.5,9.9-1,14.51-3,35.1-1,10.3-2.41,25.66-4.1,44.77a264.4,264.4,0,0,0-4.88,29.76c-1.34,12.68-1.13,19.6-2.15,37.52-.7,12.34-1.56,22.34-2.17,28.76q-2.25,10-4.52,20.1C387.88,963.24,394.78,965.24,399.44,966.64Z" fill="#0f3460"/><path d="M441,824a256.24,256.24,0,0,0-8.7,46.42c-2.51,22.87-6.91,56.18-15.22,101.7a591.78,591.78,0,0,0,20.15-84.61q2.58-15.9,4.16-30.94c3-13.08,5.23-23.73,6.73-31.08,2-9.82,2.76-14,4.4-20.95,2.74-11.69,5.56-21,7.5-27.05A236.13,236.13,0,0,0,441,824Z" fill="#092642"/><path d="M512.22,618.63c3-3.56,29.1-3,40.08-.92,8.81,1.69,18,5.27,24.82,11.69,7.68-2.14,17.44-.93,22-.15,8.48-10.9,26.9-24.54,41.32-21a.58.58,0,0,1,.8-.22c.36.22.65.49,1,.73l.25.06a.65.65,0,0,1,.38.4c6.8,5.93,8.39,18.87,9.38,27.17a123.61,123.61,0,0,1,.59,18.14c-.16,4.32-.08,9.62-1.9,13.56a.92.92,0,0,1-.92.64c-3.71,11-35.63-5.72-46.9-11.52l-.31.41a79.42,79.42,0,0,1-24.33-1.84c-4,5.22-9.44,9.12-14.87,12.75a78.34,78.34,0,0,1-15.42,8c-5.67,2.15-11.64,1.61-17.38,3.34a1.27,1.27,0,0,1-1.52-.5,1.23,1.23,0,0,1-.94-.21c-6.82-4.67-7.43-18.76-9.34-26.26-2.4-9.32-13.07-23.65-7.35-33.35A8.27,8.27,0,0,1,512.22,618.63Z" fill="#baac97" style="mix-blend-mode:multiply"/><path d="M598,641.33a27.1,27.1,0,0,0,1.13,5.63,1.64,1.64,0,0,0,.59,2.55c5.83,2.56,43.36,22.75,47.32,11.63a.9.9,0,0,0,.89-.57c1.72-3.53,1.65-8.28,1.8-12.14a101.13,101.13,0,0,0-.52-16.23c-.91-7.42-2.38-19-8.82-24.3a.54.54,0,0,0-.35-.37l-.22-.07c-.31-.21-.6-.44-.93-.63a.61.61,0,0,0-.77.2c-13.68-3.15-31.21,9.16-39.2,19a1.06,1.06,0,0,0-.28.87C596.59,630.92,597.49,637.17,598,641.33Z" fill="#bb190b"/><path d="M523.14,647.25c1.8,6.68,2.32,19.3,8.78,23.46a1.15,1.15,0,0,0,.89.19,1.22,1.22,0,0,0,1.44.45c5.43-1.56,11.08-1.09,16.43-3a75.57,75.57,0,0,0,14.63-7.2c7-4.39,13.9-9.25,17.56-16.8,2.31.26,2.41-6,2.35-7.27-.14-2.9-1.42-6.48-4.06-8-6.49-7.68-16.75-11.67-26.41-13.39-11.65-2.08-25-3.35-36.66-1.23a1.45,1.45,0,0,0-.33,2.71C515.21,627,520.63,637.92,523.14,647.25Z" fill="#bb190b"/><path d="M598.65,626.86a1.06,1.06,0,0,1,.28-.87,56.59,56.59,0,0,1,7.88-7.81c-2.76,5.65-2.1,10,.46,16.27a2.06,2.06,0,0,0,2,1.43c3.56-.62,7.07-1.47,10.6-2.35-4.46,3.06-8,6.79-8.07,10.8-.12,6.22,24,4.34,26.94,3.43,8-2.47,10.18-11.36,9.76-20.74.27,1.85.5,3.6.69,5.18a101.13,101.13,0,0,1,.52,16.23c-.15,3.86-.08,8.61-1.8,12.14a.9.9,0,0,1-.89.57c-4,11.12-41.49-9.07-47.32-11.63a1.64,1.64,0,0,1-.59-2.55,27.1,27.1,0,0,1-1.13-5.63C597.49,637.17,596.59,630.92,598.65,626.86Z" fill="#64160b" opacity="0.5" style="mix-blend-mode:multiply"/><path d="M517.56,614.66a38.55,38.55,0,0,0,1.3,3.84c3,7.66,9.87,15,11.56,22.8,2.81,13,9.71,18,22.31,13,4.21-1.66,22.61-8.07,17.79-15.61-1.5-2.34-4.17-3.24-7.35-3.44,1-.28,2.12-.54,3.17-.87,3.15-.91,5.37-2,5.86-5.45.55-3.64-2.17-7.17-5.67-9.94a37,37,0,0,1,14.63,10c2.64,1.52,3.92,5.1,4.06,8,.06,1.23,0,7.53-2.35,7.27-3.66,7.55-10.61,12.41-17.56,16.8a75.57,75.57,0,0,1-14.63,7.2c-5.35,1.93-11,1.46-16.43,3a1.22,1.22,0,0,1-1.44-.45,1.15,1.15,0,0,1-.89-.19c-6.46-4.16-7-16.78-8.78-23.46-2.51-9.33-7.93-20.22-5.38-30.1A1.5,1.5,0,0,1,517.56,614.66Z" fill="#64160b" opacity="0.5" style="mix-blend-mode:multiply"/><path d="M601.41,626.33s-14.71-3.16-24.61.16c0,0-2.74,14.29,2.61,23.23a81.35,81.35,0,0,0,23,1.58S610.79,641.79,601.41,626.33Z" fill="#bb190b"/><path d="M579.41,649.72a81.35,81.35,0,0,0,23,1.58s8.38-9.51-1-25c0,0-14.71-3.16-24.61.16C576.8,626.49,574.06,640.78,579.41,649.72Zm-1.13-19.92c2.66-5.18,10.19-4.92,15-3.93a16.73,16.73,0,0,1,2,.54,1.59,1.59,0,0,1,1.07,0c5.62,1.9,9.1,7.2,4.81,12.5-4.08,5-10.29,5.69-16.07,3.57C579.55,640.48,575.26,635.72,578.28,629.8Z" fill="#64160b" opacity="0.3" style="mix-blend-mode:multiply"/><g opacity="0.54"><path d="M578.9,702.91c6.18,75.52,9,152.24,8.34,228-6.21-75.52-9-152.24-8.34-228Z"/></g></g></g></g></svg>