<svg xmlns="http://www.w3.org/2000/svg" viewBox="0 0 1080 1920"><g style="isolation:isolate"><g id="costumes"><g id="_25" data-name="25"><path d="M678.65,1006.76c.73,13.58,1.42,30.67,1.7,50.45.06,4.58.22,17.65,0,35.31-.4,32.79-.68,55.41-3.47,84-.85,8.67-1.39,12.35-2.73,23.56-1.77,14.74-2.91,22.08-3.53,30.94a337.18,337.18,0,0,0-.4,34.15c.14,5.22.36,9.57.9,18.54,2,32.84,2.82,35.41,3.24,47,.37,10.48-.47,22.83-2.16,47.52-1.06,15.47-.77,31-2.52,46.46-.59,5.22-.8,7.17-.17,10.39s1.66,4.77,1.1,7.22c-.59,2.6-2.09,2.37-3.47,5.55-1,2.24-1.06,4.33-1.22,8.52a56.23,56.23,0,0,0,.18,7.24,58.94,58.94,0,0,1-25.35,9.46,55.46,55.46,0,0,1-25.55-3,177.19,177.19,0,0,0-1.31-21.75c-.71-5.78-1.08-8.71-2.13-11.31-2.54-6.25-6.27-8.65-5.91-13.09a9.32,9.32,0,0,1,2.5-5.35c-.38-2.56-1-6.35-1.92-10.89-1.33-6.51-2.64-11.18-3.33-13.7-2.14-7.78-5-18-6.67-27.12a153.32,153.32,0,0,1-2.63-27.47c0-3.22.09-6.22.27-9a179.67,179.67,0,0,1,2.35-18.39c.86-5.87.83-9.22.9-22.24.16-28.1.44-31.46.36-38.16-.29-24.6-4.87-46.29-9.94-77.85-4.67-29-9.85-61.41-12.15-100.48-1.68-28.48-1.26-51.82-.67-66.79,2.65-4,19.08-27.93,47.31-30.32C656.1,973.37,676.87,1004,678.65,1006.76Z" fill="#1a1a1a"/><path d="M661.5,1291.36a38,38,0,0,1-9.7,14.77c-12.09,11.3-27.57,10.53-30.44,10.34a136.07,136.07,0,0,0,40.14-25.11Z" fill="#2e2d30"/><path d="M659.05,1284.53a32.13,32.13,0,0,1-17.44,7.5,30.32,30.32,0,0,1-19.05-4.4,82.8,82.8,0,0,0,22.94,0A83.83,83.83,0,0,0,659.05,1284.53Z" fill="#2e2d30"/><path d="M665,1444a61.35,61.35,0,0,1-17,9.49,60.42,60.42,0,0,1-17.1,3.58A29,29,0,0,0,665,1444Z" fill="#2e2d30"/><path d="M610.05,1426.85A101.45,101.45,0,0,0,620,1436a100.19,100.19,0,0,0,12.12,8.36,25.81,25.81,0,0,1-14.43-5.93A25,25,0,0,1,610.05,1426.85Z" fill="#2e2d30"/><path d="M472.92,1002.2c-.68,11.78-1.41,29.64-1.08,51.48.27,18.06.9,14.72,1.83,42.16.45,13.42,2.1,67.1,3.82,84,.88,8.67,1.44,12.35,2.83,23.55,2.11,17,3.46,25.52,3.65,30.93.37,10.42-.83,10.59-1.45,32.62-.21,7.46-.16,10.63-.24,17-.3,24.29-1.64,31.58-2.16,49.68-.46,15.92-.85,29.19,1.08,46.92,1.72,15.79,2.67,31.67,4.52,47.44.74,6.23.72,7.74.22,10.39-.61,3.28-1.64,4.78-1.07,7.23.6,2.6,2.1,2.36,3.49,5.53,1,2.24,1.08,4.33,1.26,8.51a59.51,59.51,0,0,1-.15,7.25,59,59,0,0,0,25.39,9.35,55.5,55.5,0,0,0,25.53-3.09,180.35,180.35,0,0,1,1.22-21.76c.69-5.78,1-8.72,2.09-11.31,2.52-6.27,6.23-8.68,5.85-13.12a9.24,9.24,0,0,0-2.52-5.34c.37-2.56,1-6.35,1.87-10.9,1.31-6.51,2.59-11.19,3.28-13.71,2.1-7.8,4.88-18.07,6.55-27.15a153.56,153.56,0,0,0,2.52-27.48c0-3.23-.12-6.22-.31-9a181.22,181.22,0,0,0-2.43-18.39c-.88-5.86-.86-9.21-1-22.23-.11-11.73-.57-10.76-.29-22.41.21-9,.91-15.87,1.33-19.91,6.35-60.79,8.06-73.73,8.06-73.73,7-52.74,10.56-79.11,11.73-100.52,1.56-28.49,1-51.83.39-66.8-2.11-3.28-17.56-26.42-47.44-30.12C497.07,975.07,474.68,1000.15,472.92,1002.2Z" fill="#1a1a1a"/><path d="M493.35,1294.59a38.09,38.09,0,0,0,9.76,14.73c12.14,11.25,27.62,10.41,30.49,10.21a136.18,136.18,0,0,1-40.25-24.94Z" fill="#2e2d30"/><path d="M495.77,1287.75a32.18,32.18,0,0,0,17.47,7.43,30.31,30.31,0,0,0,19-4.49,82.91,82.91,0,0,1-22.93.08A84.16,84.16,0,0,1,495.77,1287.75Z" fill="#2e2d30"/><path d="M490.52,1447.21a61.21,61.21,0,0,0,17,9.43,60.32,60.32,0,0,0,17.11,3.5,28.93,28.93,0,0,1-34.1-12.93Z" fill="#2e2d30"/><path d="M545.36,1429.86a100.53,100.53,0,0,1-9.87,9.16,102.66,102.66,0,0,1-12.09,8.42,25.81,25.81,0,0,0,14.41-6A24.85,24.85,0,0,0,545.36,1429.86Z" fill="#2e2d30"/><path d="M548.47,1039.43c-5.16-33.62,9.48-62.17,25.61-66.81,18.19-5.24,46.11,17.71,48.77,58.46-2.87,3.39-21.23,24.42-47.24,21.16C562.69,1050.62,553.3,1043.68,548.47,1039.43Z" fill="#1a1a1a"/><path d="M557,1043.75a44.11,44.11,0,0,0,22.13,7.15c12.65.39,22.68-5.37,28.44-9.56-2.75,3.78-12.12,15.7-25.75,16.09C568.79,1057.8,559.86,1047.35,557,1043.75Z" opacity="0.44"/><path d="M535.1,1487c-2-4.35-1.24-8.74,1.19-10.56,2-1.52,4.93-1,6.77.1,6.08,3.66,6.1,17.18,2.68,18.76C544.82,1495.72,542.19,1496,535.1,1487Z" fill="#72726e" stroke="#000" stroke-miterlimit="10" stroke-width="1.82"/><path d="M421.08,1545.59a30.43,30.43,0,0,0-2.32,13.18,31.37,31.37,0,0,0,2.9,11.71A101.42,101.42,0,0,0,453,1576.9a99.66,99.66,0,0,0,37-5.5c5.94-2.09,9.89-4.12,29.73-15.88,9.18-5.44,20.25-12.07,32.8-19.74a39,39,0,0,0-4.71-20.55,282.71,282.71,0,0,1-30,19.28c-13.67,7.59-26.12,14.38-43.7,18.18a94.51,94.51,0,0,1-24.34,2.19c-11.72-.51-11-2.78-20.35-3.8-1.34-.15-4.79-.47-7-3.15A7.85,7.85,0,0,1,421.08,1545.59Z" fill="#fff" stroke="#000" stroke-miterlimit="10" stroke-width="1.82"/><path d="M421.08,1545.59c.86,5,13.39,7,20.95,8.12a87.11,87.11,0,0,0,32-1c32.7-7.29,66.93-32.41,73.71-37.46a50.27,50.27,0,0,0-2.71-20.58c-.92-2.57-5.2-14.55-10.27-14.45-3.61.06-3.61,6.17-9.84,9.54-4.57,2.48-9.38,1.71-13.62,1-13.93-2.22-20.62-11.49-25.78-8.49-1.92,1.11-4.32,4.34-4.66,4.79a38.88,38.88,0,0,0-2.75,4.49,63.32,63.32,0,0,1-5.22,7.42c-5.09,6.67-10.36,14.22-12.42,17C443.69,1538.09,419.86,1538.58,421.08,1545.59Z" fill="#d1cfcd" stroke="#000" stroke-miterlimit="10" stroke-width="1.82"/><path d="M452.58,1525c-1,1.43-2.06,3.45-1.46,5.27.65,2,2.84,2.42,8.79,4.72,7.71,3,7.31,3.52,10.65,4.18a24,24,0,0,0,9.95.19c5.65-1.19,6.6-3.88,10.85-4.54,2.65-.4,6.56,0,11.86,3.76l25.44-14.94a28.12,28.12,0,0,1,.89-12.26c3.56-11.44,13.64-15.94,15.5-16.73a85.64,85.64,0,0,0-4.49-9.31c-1.22-2.18-2.31-3.91-4.23-4.49a4.54,4.54,0,0,0-2.59,0c-2.17.67-2.62,2.87-4.49,5.18a14.22,14.22,0,0,1-5,3.86c-4,2-8.19,1.5-12.36.82a47.67,47.67,0,0,1-17.3-6.52c-2.39-1.43-5.81-2.92-9-1.88-3.83,1.24-4.63,5.18-8.05,11.49-2,3.6-6.54,8.82-15.12,19.71C458.33,1518.6,454.82,1522.56,452.58,1525Z" fill="#72726e" stroke="#000" stroke-miterlimit="10" stroke-width="1.82"/><path d="M459.25,1512.18c-2.46-.77-4.52.78-4.66,2.33a3.65,3.65,0,0,0,2.56,3.31A119.07,119.07,0,0,1,474.7,1521a36.12,36.12,0,0,1,9.49,3.69,34.06,34.06,0,0,1,5.11,3.57c2.47,2.09,5.32,1.67,6.08.4s0-3.74-2.21-5.41a59.58,59.58,0,0,0-16.55-8.36A56.51,56.51,0,0,0,459.25,1512.18Z" fill="#fff"/><path d="M466.5,1504.28c-2.46-.77-4.51.78-4.65,2.33a3.65,3.65,0,0,0,2.56,3.31A119.33,119.33,0,0,1,482,1513.1a36,36,0,0,1,9.49,3.69,35.15,35.15,0,0,1,5.11,3.57c2.46,2.09,5.31,1.67,6.07.4s0-3.74-2.2-5.41a59.64,59.64,0,0,0-16.56-8.37A56.71,56.71,0,0,0,466.5,1504.28Z" fill="#fff"/><path d="M474.13,1493.57c-2.46-.77-4.52.78-4.65,2.34a3.63,3.63,0,0,0,2.55,3.3,119.26,119.26,0,0,1,17.56,3.18,36.75,36.75,0,0,1,9.49,3.69,35.15,35.15,0,0,1,5.11,3.57c2.46,2.09,5.31,1.67,6.07.41s0-3.74-2.2-5.41a59.51,59.51,0,0,0-16.56-8.37A56.51,56.51,0,0,0,474.13,1493.57Z" fill="#fff"/><path d="M452.76,1519.57c-2.45-.8-4.53.72-4.68,2.27a3.63,3.63,0,0,0,2.52,3.34,118.88,118.88,0,0,1,17.51,3.41,36.21,36.21,0,0,1,9.45,3.82,34.21,34.21,0,0,1,5.07,3.64c2.44,2.12,5.29,1.74,6.07.48s.08-3.73-2.14-5.43a59.42,59.42,0,0,0-16.46-8.59A56.73,56.73,0,0,0,452.76,1519.57Z" fill="#fff"/><path d="M619.52,1484.22c2-4.35,1.24-8.74-1.19-10.55-2-1.52-4.93-1-6.77.1-6.08,3.65-6.1,17.18-2.68,18.75C609.8,1492.94,612.43,1493.18,619.52,1484.22Z" fill="#72726e" stroke="#000" stroke-miterlimit="10" stroke-width="1.82"/><path d="M733.54,1542.81a30.46,30.46,0,0,1,2.32,13.18,31.29,31.29,0,0,1-2.9,11.72,101.75,101.75,0,0,1-31.29,6.41,99.45,99.45,0,0,1-37-5.5c-5.94-2.08-9.89-4.11-29.73-15.88-9.18-5.44-20.25-12.07-32.8-19.74a39.1,39.1,0,0,1,4.71-20.55,281.11,281.11,0,0,0,30,19.28c13.67,7.59,26.12,14.39,43.7,18.18a94.06,94.06,0,0,0,24.34,2.19c11.72-.51,11-2.78,20.35-3.8,1.34-.14,4.79-.47,7-3.15A7.74,7.74,0,0,0,733.54,1542.81Z" fill="#fff" stroke="#000" stroke-miterlimit="10" stroke-width="1.82"/><path d="M733.54,1542.81c-.86,5-13.39,7-20.95,8.12a86.65,86.65,0,0,1-32-1c-32.7-7.29-66.93-32.4-73.71-37.46a50.29,50.29,0,0,1,2.71-20.58c.92-2.57,5.2-14.55,10.27-14.45,3.61.07,3.61,6.17,9.84,9.55,4.57,2.47,9.38,1.7,13.62,1,13.93-2.23,20.62-11.5,25.78-8.5,1.92,1.12,4.32,4.34,4.66,4.79a37.65,37.65,0,0,1,2.75,4.5,63.22,63.22,0,0,0,5.22,7.41c5.09,6.67,10.36,14.22,12.42,17C710.93,1535.31,734.76,1535.8,733.54,1542.81Z" fill="#d1cfcd" stroke="#000" stroke-miterlimit="10" stroke-width="1.82"/><path d="M702,1522.23c1,1.42,2.06,3.44,1.46,5.26-.65,2-2.84,2.42-8.79,4.72-7.7,3-7.31,3.53-10.65,4.19a24.21,24.21,0,0,1-9.95.18c-5.65-1.18-6.6-3.87-10.85-4.53-2.65-.41-6.56,0-11.86,3.75L626,1520.86a28.12,28.12,0,0,0-.89-12.26c-3.56-11.44-13.64-15.94-15.5-16.73a85.64,85.64,0,0,1,4.49-9.31c1.22-2.18,2.32-3.9,4.23-4.48a4.36,4.36,0,0,1,2.59,0c2.17.67,2.62,2.86,4.49,5.18a14.29,14.29,0,0,0,5,3.85c4,2,8.19,1.5,12.36.82a47.8,47.8,0,0,0,17.3-6.51c2.39-1.44,5.81-2.93,9-1.89,3.83,1.24,4.63,5.18,8,11.49,2,3.6,6.54,8.82,15.13,19.72C696.29,1515.83,699.8,1519.78,702,1522.23Z" fill="#72726e" stroke="#000" stroke-miterlimit="10" stroke-width="1.82"/><path d="M695.37,1509.4c2.46-.77,4.52.78,4.66,2.34a3.65,3.65,0,0,1-2.56,3.31,118,118,0,0,0-17.55,3.17,36.48,36.48,0,0,0-9.49,3.69,34.06,34.06,0,0,0-5.11,3.57c-2.47,2.09-5.31,1.67-6.08.41s0-3.74,2.21-5.41a59.29,59.29,0,0,1,16.55-8.37A56.51,56.51,0,0,1,695.37,1509.4Z" fill="#fff"/><path d="M688.12,1501.5c2.46-.77,4.52.78,4.65,2.34a3.64,3.64,0,0,1-2.56,3.3,119.33,119.33,0,0,0-17.55,3.18,36.75,36.75,0,0,0-9.49,3.69,35.15,35.15,0,0,0-5.11,3.57c-2.46,2.09-5.31,1.67-6.07.41s0-3.74,2.2-5.42a59.8,59.8,0,0,1,16.56-8.36A56.51,56.51,0,0,1,688.12,1501.5Z" fill="#fff"/><path d="M680.49,1490.8c2.46-.78,4.52.77,4.65,2.33a3.65,3.65,0,0,1-2.55,3.31,119.52,119.52,0,0,0-17.56,3.17,36.75,36.75,0,0,0-9.49,3.69,36,36,0,0,0-5.11,3.57c-2.46,2.09-5.31,1.68-6.07.41s0-3.74,2.2-5.41a59.51,59.51,0,0,1,16.56-8.37A56.75,56.75,0,0,1,680.49,1490.8Z" fill="#fff"/><path d="M701.86,1516.79c2.45-.8,4.53.72,4.69,2.27a3.68,3.68,0,0,1-2.52,3.35,119.32,119.32,0,0,0-17.52,3.4,36.91,36.91,0,0,0-9.45,3.82,35.53,35.53,0,0,0-5.07,3.64c-2.44,2.12-5.29,1.74-6.07.49s-.08-3.74,2.14-5.44a59.42,59.42,0,0,1,16.46-8.59A56.73,56.73,0,0,1,701.86,1516.79Z" fill="#fff"/><path d="M549.44,1146.29l-.27,14.72a3.1,3.1,0,0,0,5.67-.28l.36-14Z" fill="#686767"/><path d="M552.68,1044.2,548.6,1146a3.89,3.89,0,0,0,7.77.51l3.75-101.79a3.74,3.74,0,1,0-7.44-.48Z"/><path d="M587.5,1121.25q.68,7.34,1.34,14.66a3.1,3.1,0,0,0,5.61-.89l-1.17-13.9Z" fill="#686767"/><path d="M579.59,1019.42q3.52,50.79,7,101.6a3.89,3.89,0,0,0,7.78-.35L587,1019.08a3.74,3.74,0,1,0-7.45.34Z"/><path d="M439.3,627.13c-16.12,8.09-20.46,15.67-21.18,21.36-.46,3.68.55,6.83-1.52,11.94-2.72,6.74-6.76,6.88-7.78,12.37-1,5.33,2.53,6.79,1.31,13-.81,4.2-2.51,4.1-3.28,8.5-1,5.5,1.57,6.43.68,11.32-1.07,5.87-5,6.54-4.59,10.84.39,3.69,3.45,4.48,3.45,8.33,0,2.53-1.31,3.54-2.69,6.36-2.71,5.5-.41,7.1-2.19,16-1.39,6.9-2.95,6.85-3.76,13.52-.43,3.6-.1,4.66-1.05,7.16-1.82,4.75-4.53,4.83-5.45,8.63-.95,4,1.77,4.87,1,9.42-.68,4.06-3,4-4,8.7-.91,4.09.74,4.63-.38,8.15-1.23,3.91-3.44,3.85-4.44,7.72-.83,3.24.57,3.8-.32,7-1.08,3.77-3.31,3.78-4.18,7-1,3.67,1.67,4.57,1.5,9.2s-2.67,4.62-4.11,10.86c-1.09,4.74.21,5.29-1.16,9.32-1.59,4.68-3.65,4.84-3.72,7.75-.11,4.52,4.82,5.69,4.6,9.59-.25,4.34-6.48,4.81-7.17,9.51s4.89,6.5,4,11.24c-.66,3.63-4.18,4-4.71,8.19-.36,2.82,1.15,3.09,1.14,6.54,0,4.51-2.6,5.74-2.61,9.49,0,4,3.37,4.12,3.49,7.61.17,4.88-5.84,6.39-5.58,11.52.14,2.79,2,3.25,1.64,6.08s-2.51,3.42-2.94,6.35,1.54,3.71,1.84,6.81c.55,5.62-5.36,9-4.35,10.85s7.78-.63,14.52-2.21c7.75-1.81,22.06-5.15,34.86-.53,10.06,3.63,13.64,10.17,18.13,8,3.49-1.65,5.14-7.42,4.39-11.81-1-5.74-5.53-6.16-6-11.09-.5-5.61,5.24-7,5.45-13.68.17-5.58-3.78-6.21-3.54-11.7.27-6.45,5.81-7.49,5.93-13.9.1-5.16-3.48-5.93-3.1-10.71.47-6,6.2-6.16,7.78-12.37,1.85-7.28-5.12-10.57-3-18.64,1.13-4.26,3.42-4.66,3.53-8.73.13-5-3.25-6.1-2.88-10.46.4-4.73,4.5-5,5.52-10.08,1.11-5.52-3.42-6.93-2.79-12.38.81-7,8.6-8,8.87-15,.15-3.89-2.21-4.49-1.53-8.48.74-4.37,3.78-5,4.28-9.41.39-3.47-1.35-4.14-1.09-7.5.35-4.57,3.72-5.23,5.73-9.59,3.74-8.08-4-14.3,0-21.38,2.15-3.79,4.47-2.18,6.77-6.17,3.52-6.08-1.64-10.21,1.17-19.89,1-3.54,2.3-5,2.58-9a22.88,22.88,0,0,0-1-8.45" fill="#534741"/><path d="M439.3,627.13c-8,4.39-17.1,9.79-20.18,18.93-1.2,3.67-.14,7.54-1,11.33a20,20,0,0,1-5.56,10.21,10.22,10.22,0,0,0-2.79,4.49c-1.27,3.83,1.43,7.15,1.52,10.95a13.78,13.78,0,0,1-1.17,6c-.9,1.79-1.84,3.06-2.14,5-1.08,3.86,1.44,7.38.8,11.25a13,13,0,0,1-2.19,5.83c-1.52,2.09-3.17,4-2,6.57.72,1.73,2.37,3,2.89,5.08a7.94,7.94,0,0,1-1.11,6.55c-1.4,2.27-2.59,4.64-2.62,7.3a47.74,47.74,0,0,1-.88,11.64c-.61,3.74-2.67,7.18-3.22,10.87-.59,2.88-.2,5.88-1.14,8.75a14.57,14.57,0,0,1-3.27,5.5c-1.26,1.34-2.06,2.24-2.32,4s.6,2.86,1.06,4.83a10.73,10.73,0,0,1-.73,6.83c-.92,1.93-2.16,2.91-2.76,4.75a9.24,9.24,0,0,0-.44,4.7,10.46,10.46,0,0,1-1,6.74c-.82,1.81-2.48,3-3.21,4.61a7.33,7.33,0,0,0-.57,2.11,8.24,8.24,0,0,0,.18,2.37,10.2,10.2,0,0,1-1.77,6.88c-1.2,1.72-2.31,2.19-2.71,4a3.11,3.11,0,0,0,0,1.74c1.25,2.74,2.19,6.39,1.19,9.53-.62,2.14-1.89,3.56-2.68,5.38a17.19,17.19,0,0,0-1.44,7.4,16.18,16.18,0,0,1-2.73,9.4c-.6.91-1.26,1.7-1.42,2.1a3.14,3.14,0,0,0,.54,3.09c2.28,2.66,5.13,5.59,3.4,9.66-1,2.4-3,3.54-4.72,4.9-1.12.93-1.89,1.63-1.94,3s.86,2.37,1.76,3.63c1.4,1.73,2.78,4.45,2.35,6.92a7.75,7.75,0,0,1-1.48,3.76c-1.55,2.07-3.52,3.1-3.26,5.62a3.28,3.28,0,0,0,.25.84,12,12,0,0,1,.23,8.65c-1.06,2.93-3.37,5.5-.55,8.06a7.66,7.66,0,0,1,2,3.51,8.69,8.69,0,0,1-2.08,7.37c-1.44,1.89-3.44,3.19-3.29,5.59a4,4,0,0,0,.64,1.74,7.64,7.64,0,0,1-.16,7.88c-1.13,1.81-1.8,2-1.83,3.72a4,4,0,0,0,.62,1.67,10.47,10.47,0,0,1,1.2,3.44c.7,3.46-1.28,7.4-3.2,9.73l-.81,1.1a5.13,5.13,0,0,0-.42.67,1,1,0,0,0,0-.57,1.51,1.51,0,0,0-.91-1.16,9,9,0,0,0,2.53-.26c14-3.47,28.84-7.8,43.33-3.81,5.79,1.43,11,4.89,15.76,8.14,1.16.7,2.15,1.34,3.26,1,2.29-1,3.39-4.83,3.38-7.43.23-4-2.18-5.69-4.44-8.62A9.48,9.48,0,0,1,426,941.9c1.43-2.21,3.42-4.22,3.77-6.65.51-2.54-.28-4.39-1.7-6.57a11.08,11.08,0,0,1-1.61-6.73c.77-9.33,10.26-9.15,3.61-19.82a9.82,9.82,0,0,1,1.73-10.2c1.52-1.71,3-2.75,4-4a8.34,8.34,0,0,0,.94-8.81c-2.35-4.85-4-9.84-1.4-15.18.77-1.73,2.11-3,2.5-4.67a7.36,7.36,0,0,0-.44-4.48c-.79-1.73-2.1-3.69-2.2-5.84a8.76,8.76,0,0,1,2.18-6.53c1.82-1.94,3.52-3.65,3.6-6.34.13-1.52-.48-2.83-1.42-4.59a10.52,10.52,0,0,1,1.2-12.31c2.92-3.3,7.29-5.88,6.28-10.71-.42-1.7-1.71-3.82-1.45-5.82,0-3.16,2.24-5.72,3.79-8.14,1.41-2.6.6-4.8-.18-7.54a8.63,8.63,0,0,1,1.28-6.27c1.67-2.33,4-4,4.9-6.71,2.69-6.41-3.47-13.1-.49-19.54a7.8,7.8,0,0,1,4.22-4.28,7.78,7.78,0,0,0,4.33-6.31c.32-3.69-1.17-7.55-.75-11.34.14-3.9,2.05-7.41,3.19-11a21.57,21.57,0,0,0-.43-11.24,21.7,21.7,0,0,1,.79,11.33c-.42,1.9-1.28,3.63-1.81,5.43a22.15,22.15,0,0,0-.52,11.14c.53,2.76,1.1,6-.18,8.72a8.31,8.31,0,0,1-4.05,4.4,7.24,7.24,0,0,0-4.13,6.26c-.25,3.75,1.74,7.24,2.18,11a13.3,13.3,0,0,1-3.8,11.18c-2,2-3.06,4.16-2.53,6.79.47,1.67,1.46,4,1.06,5.93-.14,4-4.25,6.38-4.25,10.29-.13,1.91,1.07,3.13,1.49,5.12,1.3,6.21-3.1,9.31-6.65,13.18a7.35,7.35,0,0,0-.68,8.95c1,1.73,2.06,4,1.88,6.2a10.46,10.46,0,0,1-2.35,6.23c-1.12,1.45-2.49,2.45-3,4.06-.87,2.54.65,4.52,1.78,6.85a10.34,10.34,0,0,1-.66,9.89c-3.64,5.07-2.26,9.17.33,14.4A12.4,12.4,0,0,1,439,890.45c-2.35,3-5.51,4.2-5.42,8,0,1.71.8,2.67,1.7,4.3a11.27,11.27,0,0,1,1.41,6.73,12.2,12.2,0,0,1-2.56,6.27c-2,2.52-3.92,5.33-3.07,8.61.43,1.66,1.6,2.93,2.41,4.71a12.22,12.22,0,0,1-.27,10.24c-1,2.34-3.71,4.8-4.06,6.83-.65,3.73,2.49,4.83,4.48,8.26a12.9,12.9,0,0,1,1.66,6.68c.2,5.77-3.79,14-10.73,12-3.11-1-5.42-3.16-8-4.67a34.26,34.26,0,0,0-9.72-4.39c-10.77-2.86-21.85-.81-32.64,1.87l-5.53,1.45c-3.24.76-9.24,2.76-10.41-2-.28-2.18,1.1-3.51,2.11-5,5.54-7.09-.66-7.28.59-13.7a8.12,8.12,0,0,1,.7-1.95c1-2,2-2.27,2.16-4.05a2.4,2.4,0,0,0-.44-1.45,8.82,8.82,0,0,1-1.2-3.62,9.41,9.41,0,0,1,2.53-7c1.39-1.61,2.59-2.81,2.87-3.83a2.44,2.44,0,0,0-.75-2.85,8.33,8.33,0,0,1-2.49-7.06c.26-3,2.45-5.11,2.53-8,.22-2-.81-3.14-1.1-5.11a9,9,0,0,1,2.4-7.17c.77-.85,1.4-1.43,1.77-1.94,1.28-1.75.39-3.39-.86-5-2.43-2.88-3.82-7-1.4-10.54,1.56-2.24,3.53-3.24,4.71-4.28,1-.85,1.48-1.44,1.22-2.55-.45-1.38-2-2.46-2.95-4a8.16,8.16,0,0,1-1.49-5.63c.06-1.7,1.65-3.77,2.37-4.74a11.5,11.5,0,0,0,2-6.8,21.78,21.78,0,0,1,1.89-9.29c.69-1.67,2-3.25,2.51-4.79a7.82,7.82,0,0,0-.1-4.34c-.73-1.75-1.82-4.53-1.1-6.67.25-2,2.3-4.17,3.41-5.48a6,6,0,0,0,1.07-4,11,11,0,0,1,2.79-9.51,7.83,7.83,0,0,0,2.14-4,6.2,6.2,0,0,0,0-2.22,13.24,13.24,0,0,1,2.28-9.52c1.17-1.58,1.81-2.43,2-4.27.45-2.83-1.87-5.46-1.1-8.46.33-3.27,3.23-5.31,4.84-7.72,2.06-3.08,1.43-7,2.19-10.47a25.32,25.32,0,0,1,1.78-5.77,35.81,35.81,0,0,0,2.49-10.63c.28-2.76-.22-6,.63-8.82.62-2.78,2.83-5.07,3.62-7.62a5.23,5.23,0,0,0-1.18-4.3,8.83,8.83,0,0,1-2.11-6.14c.12-2.24,1.75-4,2.89-5.59A10.86,10.86,0,0,0,406.4,705a12,12,0,0,0-.53-5.21,13.87,13.87,0,0,1,1.06-9.1c2-3.1,3.16-6.51,2.15-10.17-1.41-3.74-2-8.1.51-11.61,1.7-2.35,4.06-4.06,5.4-6.59a19.35,19.35,0,0,0,2-5.13c.88-3.68-.06-7.69,1.26-11.36,3.34-9.27,12.72-14.44,21-18.66Z"/><path d="M403.76,771.07c-1.45,1.28,8,16.34,22,27.93,6.12,5.07,14.25,10.41,15.18,9.36,1.36-1.53-13-16.21-14.78-18C425,789.15,405.58,769.46,403.76,771.07Z" fill="#fff" opacity="0.5" style="mix-blend-mode:overlay"/><path d="M713,628.61c16.09,8.16,20.39,15.76,21.09,21.44.45,3.68-.58,6.83,1.47,12,2.7,6.75,6.73,6.91,7.73,12.4s-2.55,6.78-1.36,13c.8,4.2,2.5,4.11,3.24,8.51.94,5.5-1.59,6.42-.72,11.32,1.05,5.87,5,6.55,4.55,10.86-.4,3.69-3.47,4.46-3.49,8.31,0,2.53,1.3,3.54,2.68,6.37,2.68,5.51.37,7.11,2.12,16,1.36,6.9,2.92,6.86,3.7,13.53.42,3.61.08,4.67,1,7.17,1.79,4.76,4.51,4.85,5.41,8.65.94,4-1.79,4.87-1,9.42.66,4.06,3,4,4,8.72.9,4.08-.75,4.62.35,8.15,1.22,3.9,3.43,3.86,4.41,7.74.82,3.23-.58,3.79.3,6.95,1.06,3.78,3.29,3.79,4.14,7,1,3.68-1.68,4.56-1.53,9.19s2.66,4.63,4.07,10.88c1.07,4.75-.23,5.29,1.12,9.32,1.57,4.69,3.64,4.86,3.69,7.77.09,4.52-4.84,5.67-4.63,9.57.23,4.34,6.45,4.83,7.13,9.54s-4.92,6.48-4.09,11.23c.64,3.62,4.16,4,4.68,8.2.34,2.82-1.17,3.09-1.16,6.54,0,4.5,2.57,5.74,2.56,9.5,0,4-3.38,4.1-3.52,7.6-.18,4.87,5.82,6.4,5.54,11.53-.16,2.8-2,3.25-1.66,6.08s2.49,3.43,2.91,6.36-1.56,3.7-1.87,6.8c-.58,5.62,5.32,9.07,4.3,10.87s-7.77-.66-14.51-2.26c-7.74-1.85-22-5.25-34.86-.68-10.06,3.59-13.67,10.12-18.15,8-3.49-1.66-5.11-7.44-4.35-11.82,1-5.74,5.55-6.15,6-11.07.53-5.61-5.21-7-5.38-13.7-.15-5.58,3.79-6.2,3.58-11.69-.25-6.45-5.79-7.51-5.88-13.92-.07-5.17,3.51-5.92,3.15-10.7-.45-6-6.18-6.19-7.73-12.4-1.82-7.29,5.16-10.55,3-18.63-1.11-4.26-3.4-4.67-3.49-8.74-.11-5,3.27-6.09,2.92-10.45-.38-4.74-4.48-5-5.48-10.1-1.09-5.52,3.45-6.92,2.84-12.37-.78-7-8.57-8-8.81-15-.13-3.89,2.22-4.48,1.56-8.47-.72-4.37-3.76-5-4.24-9.43-.38-3.47,1.36-4.14,1.12-7.5-.34-4.57-3.7-5.24-5.7-9.6-3.7-8.11,4-14.3,0-21.38-2.13-3.8-4.46-2.21-6.75-6.2-3.49-6.1,1.69-10.21-1.09-19.89-1-3.56-2.27-5-2.54-9a22.59,22.59,0,0,1,1.08-8.46" fill="#534741"/><path d="M713,628.61c8.29,4.23,17.66,9.47,21,18.75,1.31,3.67.35,7.67,1.22,11.36a19.16,19.16,0,0,0,2,5.14c1.33,2.53,3.68,4.25,5.36,6.6a10.64,10.64,0,0,1,1.77,5.85c.05,2-.79,4-1.3,5.77-1,3.67.11,7.08,2.12,10.18a13.94,13.94,0,0,1,1,9.11,11.75,11.75,0,0,0-.55,5.2,10.87,10.87,0,0,0,1.87,4.74c1.13,1.64,2.75,3.35,2.86,5.6a8.82,8.82,0,0,1-2.13,6.13,5.2,5.2,0,0,0-1.2,4.29c.35,1.63,1.71,3.1,2.44,4.73,2.07,3.51,1.54,8,1.75,11.74a35.45,35.45,0,0,0,2.45,10.63,25.87,25.87,0,0,1,1.75,5.78c.75,3.51.11,7.39,2.15,10.48,1.6,2.43,4.5,4.46,4.81,7.74.53,2-.55,4.57-1,6.26-.51,2.5.32,4.45,1.93,6.47a13.25,13.25,0,0,1,2.24,9.53,6.94,6.94,0,0,0,2.08,6.26,11.1,11.1,0,0,1,2.9,6.19,12.63,12.63,0,0,1-.15,3.33,6,6,0,0,0,1,3.95c1.09,1.32,3.15,3.46,3.39,5.5.7,2.12-.38,4.93-1.12,6.66a7.93,7.93,0,0,0-.13,4.34c.49,1.55,1.81,3.12,2.49,4.8a21.82,21.82,0,0,1,1.86,9.3c-.19,4,1.67,6.13,3.75,9.45a7.77,7.77,0,0,1-.91,7.73c-1.08,1.82-3.6,3.15-2.89,5.18,1.32,2.2,3.87,2.69,5.82,5.62a7.72,7.72,0,0,1,.34,7.83c-.88,1.82-2.31,3.1-3,4.67-.89,2.17.57,3.35,2.12,5a9,9,0,0,1,2.37,7.18,16.63,16.63,0,0,1-.93,3.05,7.44,7.44,0,0,0,.21,4.17c2.12,4.34,3.71,8.81-.42,12.92-2.27,2.46,0,4.18,2.09,6.69a9.36,9.36,0,0,1,2.5,7,8.87,8.87,0,0,1-1.21,3.62,2.35,2.35,0,0,0-.44,1.44c.12,1.77,1.13,2.08,2.14,4.06a7.76,7.76,0,0,1,.42,6.15c-.46,1.33-1.32,2.32-1.44,3.49-.31,2.29.73,3.91,2.25,6l.88,1.21a7.94,7.94,0,0,1,1,1.81,3.76,3.76,0,0,1,.21,2,3.43,3.43,0,0,1-1.32,2.17c-2.82,1.83-6.27.31-9.1-.24l-5.52-1.48c-14-3.62-29.69-6-42.38,2.36-2.54,1.5-4.86,3.65-8,4.63-8.34,2-12-9-10.31-15.44.42-3.07,3.59-6.16,5-7.9,1.86-2.86.6-4.94-1.53-7.74a14.22,14.22,0,0,1-2.75-6.08,11.66,11.66,0,0,1,.82-6.92c.82-1.78,2-3,2.43-4.7a7.85,7.85,0,0,0-.27-4.31A19.67,19.67,0,0,0,717,917.3a12.1,12.1,0,0,1-2.35-9.77c.42-2.86,2.9-4.79,3-7.53.11-3.85-3-5-5.39-8.07a12.41,12.41,0,0,1-1.32-12.8c2.62-5.22,4-9.33.38-14.39a10.39,10.39,0,0,1-.61-9.9c1.13-2.32,2.65-4.29,1.8-6.84-.5-1.62-1.86-2.61-3-4.07a10.56,10.56,0,0,1-2.33-6.24c-.17-2.17.89-4.47,1.9-6.19a7.35,7.35,0,0,0-.63-9c-1.67-2.08-4.42-4-5.75-6.71a9.8,9.8,0,0,1-.86-6.5c.43-2,1.63-3.21,1.52-5.12,0-3.9-4.09-6.34-4.21-10.31-.39-1.91.6-4.26,1.08-5.92.55-2.61-.52-4.79-2.5-6.8A13.27,13.27,0,0,1,694,770c.46-3.79,2.46-7.27,2.22-11a7.2,7.2,0,0,0-4.1-6.27,8.28,8.28,0,0,1-4-4.42c-1.27-2.73-.69-6-.14-8.72a22.26,22.26,0,0,0-.48-11.14c-.53-1.8-1.38-3.54-1.79-5.44a21.71,21.71,0,0,1,.84-11.33,21.58,21.58,0,0,0-.48,11.24c1.12,3.61,3,7.12,3.14,11,.41,3.78-1.1,7.64-.79,11.34a7.8,7.8,0,0,0,4.3,6.32,7.79,7.79,0,0,1,4.21,4.3c3,6.45-3.24,13.11-.57,19.53.87,2.72,3.21,4.4,4.88,6.74a8.67,8.67,0,0,1,1.25,6.27c-.2,1.1-.63,2-.81,2.81a7,7,0,0,0,.6,4.73c1.55,2.43,3.77,5,3.75,8.16.26,2-1,4.1-1.47,5.81-1,4.83,3.33,7.42,6.25,10.73A10.55,10.55,0,0,1,711.88,833c-.94,1.75-1.56,3.06-1.43,4.58.07,2.7,1.75,4.41,3.57,6.36a8.7,8.7,0,0,1,2.15,6.53c-.1,2.15-1.43,4.11-2.23,5.84a7.41,7.41,0,0,0-.45,4.47c.39,1.68,1.72,3,2.49,4.68a13.84,13.84,0,0,1,.76,9.7,57.4,57.4,0,0,1-2.23,5.48,8.32,8.32,0,0,0,.91,8.81c1,1.25,2.45,2.29,4,4a9.82,9.82,0,0,1,1.69,10.2c-6.69,10.62,2.81,10.53,3.53,19.84A11.12,11.12,0,0,1,723,930.2c-1.44,2.18-2.24,4-1.74,6.57s2.33,4.44,3.75,6.66a9.48,9.48,0,0,1-.1,10.59c-1.18,1.72-2.56,2.71-3.47,4.3a8.32,8.32,0,0,0-1,4.3c0,2.62,1.06,6.44,3.34,7.45,1.12.39,2.11-.3,3.27-1,4.76-3.24,10-6.67,15.79-8.08,14.51-3.93,29.37.46,43.32,4a10.24,10.24,0,0,0,2.53.27s-.09,0-.33.17a1.58,1.58,0,0,0-.59,1,1.09,1.09,0,0,0,0,.57,3.72,3.72,0,0,0-.41-.67l-.81-1.1c-1.91-2.36-3.87-6.27-3.16-9.75.15-1.91,1.63-3.69,1.85-5.1,0-1.72-.69-1.9-1.82-3.72a7.66,7.66,0,0,1-.13-7.89,3.93,3.93,0,0,0,.65-1.74c.16-2.39-1.85-3.72-3.27-5.6a8.66,8.66,0,0,1-2-7.37,7.84,7.84,0,0,1,2-3.51c2.83-2.53.51-5.14-.53-8.06a12.06,12.06,0,0,1,.27-8.65,3.28,3.28,0,0,0,.25-.84c.26-2.53-1.69-3.56-3.24-5.63a7.76,7.76,0,0,1-1.46-3.77c-.42-2.48,1-5.17,2.37-6.91.91-1.25,1.79-2.26,1.78-3.62s-.81-2-1.92-3c-1.69-1.38-3.68-2.52-4.7-4.92-1.73-4.12,1.14-7,3.43-9.65a3.15,3.15,0,0,0,.56-3.09c-.17-.41-.82-1.2-1.41-2.11a16.18,16.18,0,0,1-2.7-9.41,17.19,17.19,0,0,0-1.41-7.4c-.78-1.83-2-3.25-2.66-5.39-1-3.14,0-6.8,1.23-9.53a3.11,3.11,0,0,0,0-1.74c-.38-1.81-1.5-2.28-2.68-4a10.17,10.17,0,0,1-1.75-6.89,8.64,8.64,0,0,0,.19-2.36,6.73,6.73,0,0,0-1.85-4,11.39,11.39,0,0,1-3.08-7.86c.29-2.26.58-4.22-.23-6.33-.59-1.83-1.82-2.83-2.74-4.76a10.59,10.59,0,0,1-.9-3.34,10.05,10.05,0,0,1,.2-3.49c.47-2,1.38-3,1.08-4.83s-1-2.62-2.31-4a14.17,14.17,0,0,1-3.84-8.73,50.22,50.22,0,0,0-.51-5.54c-.53-3.69-2.58-7.14-3.18-10.89a41.16,41.16,0,0,1-.8-5.88c-.26-3.82.57-7.24-1.29-10.66-.84-1.83-2.19-3.31-2.6-5.49a7.82,7.82,0,0,1,.18-3.47c.53-2,2.19-3.37,2.91-5.07a5,5,0,0,0,.37-2.19c-.1-1.66-1.41-2.92-2.36-4.39a13.16,13.16,0,0,1-2.17-5.84,14.23,14.23,0,0,1,.73-6.06,11.72,11.72,0,0,0-.66-7.65,15,15,0,0,1-2.49-8.55c.11-3.79,2.82-7.13,1.56-10.94a10.26,10.26,0,0,0-2.77-4.5A20,20,0,0,1,734,659c-.82-3.79.26-7.65-.93-11.33-3.05-9.16-12.08-14.57-20.1-19Z"/><path d="M747.93,772.69c1.45,1.29-8.06,16.31-22.11,27.85-6.14,5-14.29,10.35-15.22,9.29-1.35-1.54,13.11-16.16,14.85-17.92C726.65,790.69,746.12,771.07,747.93,772.69Z" fill="#fff" opacity="0.5" style="mix-blend-mode:overlay"/><path d="M509.94,626.77c4.94,4.73,29,26.73,66.24,26.64,40.4-.09,65.45-26,69.6-30.48l49.44,382.32a285.75,285.75,0,0,1-244.08-8.64,1964,1964,0,0,1,33.12-257C492,700.24,500.66,662.62,509.94,626.77Z" fill="#fff"/><g opacity="0.6"><path d="M465.54,985.81a321.38,321.38,0,0,0,208.8,4.32,267.31,267.31,0,0,1-51.45,14.29c-52.73,9.22-108.31,2.92-157.35-18.61Z"/></g><path d="M494.36,606.92l42.84.36a20.84,20.84,0,0,1-6.12,8.64,23.83,23.83,0,0,1-9,4.32C513.78,622.12,502.84,617,494.36,606.92Z" fill="#534741" stroke="#000" stroke-miterlimit="10"/><path d="M656.36,599.72l-32,4a27.48,27.48,0,0,0,7.56,9.72c1.37,1.1,12.48,10.05,20.16,5C656.89,615.28,658.89,607.51,656.36,599.72Z" fill="#534741" stroke="#000" stroke-miterlimit="10"/><path d="M488.1,600.85c-5.09,1.58-7.41,7.48-16.32,8.64-4.77.62-7.56-.63-12,1.44s-4.14,4.34-8.16,7.2c-6.87,4.89-12.2,1.52-18.24,4.8-6.95,3.78-8.71,13.06-9.6,17.76-3.19,16.87,7,20.35,13.44,50.4,3.72,17.41,2.21,25.25,9.6,33.6,2.41,2.73,5.94,5.7,6.24,10.56.39,6.29-5.12,7.92-5.76,15.36-.61,7.18,4.25,8.66,2.88,15.36-1.11,5.43-4.58,5.85-4.8,11-.2,4.88,2.81,5.76,2.4,10.56-.42,5-3.81,5.22-4.32,10.08-.59,5.67,3.82,7.2,2.88,12.48-.75,4.22-3.76,4.26-4.32,8.64-.53,4.15,2.06,5,1.92,9.6-.16,5.19-3.42,5.64-3.36,10.08.08,5.48,5.08,6.53,4.8,11.52-.23,4.24-3.9,4.68-4.32,9.6-.33,4,2,4.6,1.92,8.64-.1,5.42-4.32,6.15-5.28,11.52-1.06,6,3.78,7.08,3.84,14.4.06,6.65-3.92,7.46-3.84,14.88.06,5.25,2.06,5.39,1.92,10.56-.18,6.67-3.52,7.3-3.36,13,.18,6.29,4.38,7.62,3.36,12.48-.95,4.54-4.94,5-4.8,8.64.15,3.9,4.81,4.7,5.28,9.12.32,3-1.67,3.72-2.88,7.68-1.62,5.32-.84,13.16,3.36,16.32,3.82,2.87,7.28-.53,13,2.88,3.41,2,2.86,3.68,6.24,5.28,4.25,2,6.08-.09,11,1.44,4.66,1.44,3.88,3.55,9.12,5.76,3.91,1.65,5,.77,12.48,2.4,4.48,1,4.25,1.34,8.64,2.4,7.72,1.87,8.4.77,18.24,2.4,7.17,1.19,9.28,2.19,13,1a11.54,11.54,0,0,0,6.24-4.32c2.11-3.2.32-5.07,1.44-12.48.8-5.23,1.94-5.92,1.44-9.12-.6-3.87-2.45-3.93-2.88-7.2-.64-4.84,3.22-6.24,3.84-12,.57-5.23-2.49-5.26-2.4-11,.12-7,4.68-8.34,3.84-14.88-.34-2.68-1.3-4-1-7.2.33-3,1.37-3.48,1.92-6.24,1-5-1.91-6.35-1.44-11,.52-5.14,4.18-5.11,4.8-10.08s-3.07-5.84-3.36-12c-.27-6,3.19-6.65,2.88-13.44-.18-4-1.43-4.48-1.44-9.12,0-2.65.4-3.77,1.44-9.12a108.43,108.43,0,0,0,1.92-11.52c.48-6-.86-7.67-1.44-13.92-.68-7.46.87-8.94,1.92-20.64.34-3.79.15-3.35.48-19.68.46-22.74.79-21.73.48-26.4-1-15.46-3.85-14.65-2.88-24,1-9.53,4.29-13.77,1.44-20.16-1.51-3.4-3.72-5.06-4.32-9.6-.5-3.77.72-5,1-9.12.35-5.92-1.85-8.52-3.36-14.4-2.07-8.09-.71-14.17-.48-17.76C543.88,650.34,506.4,595.17,488.1,600.85Z" fill="#534741"/><path d="M456.93,960.77c.64-2,1.16-4,1.63-6q.85-9.12,1.57-18.25a91.81,91.81,0,0,0-.65-18.11c-1-8.87-2.09-26.74-3.54-56,4.57,5,10,10.32,12,9.12,3.19-1.93-8-17.32-11.52-42.72-3.13-22.69.9-45.92,3.26-59.53.65-3.78,1.27-6.88,1.7-8.93-1.21-7.66-2.57-15.28-4.31-22.83Q455,736,453,734.34c0,.3.07.6.09.91.39,6.29-5.12,7.92-5.76,15.36-.61,7.18,4.25,8.66,2.88,15.36-1.11,5.43-4.58,5.85-4.8,11-.2,4.88,2.81,5.76,2.4,10.56-.42,5-3.81,5.22-4.32,10.08-.59,5.67,3.82,7.2,2.88,12.48-.75,4.22-3.76,4.26-4.32,8.64-.53,4.15,2.06,5,1.92,9.6-.16,5.19-3.42,5.64-3.36,10.08.08,5.48,5.08,6.53,4.8,11.52-.23,4.24-3.9,4.68-4.32,9.6-.33,4,2,4.6,1.92,8.64-.1,5.42-4.32,6.15-5.28,11.52-1.06,6,3.78,7.08,3.84,14.4.06,6.65-3.92,7.46-3.84,14.88.06,5.25,2.06,5.39,1.92,10.56-.18,6.67-3.52,7.3-3.36,13,.18,6.29,4.38,7.62,3.36,12.48-.95,4.54-4.94,5-4.8,8.64.15,3.9,4.81,4.7,5.28,9.12.32,3-1.67,3.72-2.88,7.68-1.62,5.32-.84,13.16,3.36,16.32,3.3,2.48,6.33.29,10.75,1.84a69.7,69.7,0,0,1,4.83-10.45l.48-4.53A23.7,23.7,0,0,1,456.93,960.77Z" fill="#fff" opacity="0.5" style="mix-blend-mode:overlay"/><path d="M492.9,614.77q-3.81,19.74-7.2,40.32-1.5,9.2-2.88,18.24a62,62,0,0,0,23,3.84,63.85,63.85,0,0,0,35.64-12.36Z" fill="#534741" stroke="#000" stroke-miterlimit="10" stroke-width="5" opacity="0.5"/><path d="M512.58,677.17a710.24,710.24,0,0,1,10.56,78.72c3.75,48.1,1.84,86.64.48,112.32-1.49,28.32-3,34.79-6.72,91.68-1.32,20.36-2.27,37.16-2.88,48.48" fill="#534741" stroke="#000" stroke-miterlimit="10" stroke-width="5" opacity="0.5"/><g opacity="0.5"><path d="M459.6,900.31a7.48,7.48,0,0,0-2.7,1.44c-3.59,3.13-2.55,9.13-2,17.1.43,5.91.4,10.12.36,16,0,7.92.28,15.85,0,23.76-.08,2.25-.21,5.28,1.62,8.1,2,3,5,4.09,7.56,5,12.72,4.77,7.93,4.53,18.9,8.1,12.36,4,18.6,6,21.6,3.24,1.41-1.28,1.72-3,2.16-8.28A168.63,168.63,0,0,0,508,955c-.15-10.3-.28-18.94,1.44-29.16,1.61-9.51,3.44-12.17,1.44-14.94-3.28-4.54-9.86.35-22.5-2.52S468.17,897.52,459.6,900.31Z" fill="none" stroke="#000" stroke-miterlimit="10"/><path d="M454.92,918.85A127.86,127.86,0,0,0,470,924.07a132.42,132.42,0,0,0,19.26,3.78,153.53,153.53,0,0,0,19.62,1.26" fill="none" stroke="#000" stroke-miterlimit="10"/><path d="M463.29,899.77c-.73,1.92-1.43,4-2.07,6.21a75.3,75.3,0,0,0-2.61,14.22" fill="none" stroke="#000" stroke-miterlimit="10"/><path d="M469.41,900.85A75.12,75.12,0,0,0,465,922.36" fill="none" stroke="#000" stroke-miterlimit="10"/><path d="M476.07,903.73a45.95,45.95,0,0,0-4.68,20.34" fill="none" stroke="#000" stroke-miterlimit="10"/><path d="M482.19,906.52c-.86,2.93-1.69,6.08-2.43,9.45s-1.35,6.79-1.8,9.9" fill="none" stroke="#000" stroke-miterlimit="10"/><path d="M487.23,908.05a55.12,55.12,0,0,0-2.79,18.9" fill="none" stroke="#000" stroke-miterlimit="10"/><path d="M491.28,908.86c-.09,2.88-.16,5.82-.18,8.82q0,5.31.09,10.35" fill="none" stroke="#000" stroke-miterlimit="10"/><path d="M496.68,909.31a83.3,83.3,0,0,1,.63,10.26,82,82,0,0,1-.45,8.82" fill="none" stroke="#000" stroke-miterlimit="10"/><path d="M503.7,909c.1,3.39.13,6.91.09,10.53,0,3.25-.13,6.4-.27,9.45" fill="none" stroke="#000" stroke-miterlimit="10"/></g><path d="M459,931.9a45.61,45.61,0,0,0,7.38,12.6c10.26,12.32,23.83,14.7,23.49,15.66s-17.06.51-25.74-11.34A28.56,28.56,0,0,1,459,931.9Z" fill="#fff" opacity="0.5" style="mix-blend-mode:overlay"/><path d="M527.91,730a8.23,8.23,0,0,0,1.94,6.57c.14.16,3.2,3.38,7.15,2.34,3.29-.87,5-4.11,5.22-6.71a8.15,8.15,0,0,0-1.12-4.86Z" opacity="0.51"/><path d="M537.27,736c-3.94,1.46-9.12-1.68-9.36-6a6.78,6.78,0,1,1,13.55-.41A6.77,6.77,0,0,1,537.27,736Z" fill="#61483c"/><path d="M533,730.89a1.22,1.22,0,0,1-1.17-1.26,1.23,1.23,0,0,1,1.31-1.13,1.21,1.21,0,0,1,1.08,1A1.26,1.26,0,0,1,533,730.89Z" fill="#382920"/><path d="M537.05,731a1.2,1.2,0,1,1,.13-2.39,1.19,1.19,0,0,1,1.08.95A1.25,1.25,0,0,1,537.05,731Z" fill="#382920"/><path d="M530,800.23a8.23,8.23,0,0,0,1.94,6.57c.14.16,3.2,3.39,7.15,2.34,3.29-.87,5-4.1,5.22-6.7a8.13,8.13,0,0,0-1.12-4.86Z" opacity="0.51"/><path d="M539.34,806.26c-3.94,1.46-9.12-1.67-9.36-6a6.78,6.78,0,1,1,13.55-.4A6.76,6.76,0,0,1,539.34,806.26Z" fill="#61483c"/><path d="M535,801.13a1.19,1.19,0,1,1,1.22-1.44A1.26,1.26,0,0,1,535,801.13Z" fill="#382920"/><path d="M539.12,801.22a1.19,1.19,0,1,1,.13-2.38,1.19,1.19,0,0,1,1.08.94A1.24,1.24,0,0,1,539.12,801.22Z" fill="#382920"/><path d="M527.42,863.32a8.21,8.21,0,0,0,1.93,6.57c.15.16,3.21,3.39,7.16,2.34,3.28-.87,5-4.1,5.22-6.7a8.19,8.19,0,0,0-1.13-4.86Z" opacity="0.51"/><path d="M536.78,869.35c-3.94,1.46-9.13-1.67-9.36-6a6.77,6.77,0,1,1,13.54-.4A6.76,6.76,0,0,1,536.78,869.35Z" fill="#61483c"/><path d="M532.46,864.22a1.19,1.19,0,1,1,.13-2.38,1.19,1.19,0,0,1,1.08.94A1.24,1.24,0,0,1,532.46,864.22Z" fill="#382920"/><path d="M536.55,864.31a1.19,1.19,0,1,1,1.22-1.44A1.26,1.26,0,0,1,536.55,864.31Z" fill="#382920"/><path d="M523.73,923.26a8.21,8.21,0,0,0,1.93,6.57c.15.16,3.21,3.39,7.16,2.34,3.28-.87,5-4.1,5.22-6.7a8.19,8.19,0,0,0-1.13-4.86Z" opacity="0.51"/><path d="M533.09,929.29c-3.94,1.46-9.13-1.67-9.36-6a6.77,6.77,0,1,1,13.54-.4A6.76,6.76,0,0,1,533.09,929.29Z" fill="#61483c"/><path d="M528.77,924.16a1.19,1.19,0,1,1,.13-2.38,1.19,1.19,0,0,1,1.08.94A1.24,1.24,0,0,1,528.77,924.16Z" fill="#382920"/><path d="M532.86,924.25a1.19,1.19,0,1,1,1.22-1.44A1.26,1.26,0,0,1,532.86,924.25Z" fill="#382920"/><path d="M519.77,985.63a8.21,8.21,0,0,0,1.93,6.57c.15.16,3.21,3.39,7.16,2.34,3.28-.87,5-4.1,5.22-6.7A8.19,8.19,0,0,0,533,983Z" opacity="0.51"/><path d="M529.13,991.66c-3.94,1.46-9.13-1.67-9.36-6a6.77,6.77,0,1,1,13.54-.4A6.76,6.76,0,0,1,529.13,991.66Z" fill="#61483c"/><path d="M524.81,986.53a1.19,1.19,0,1,1,.13-2.38,1.19,1.19,0,0,1,1.08.94A1.24,1.24,0,0,1,524.81,986.53Z" fill="#382920"/><path d="M528.9,986.62a1.19,1.19,0,1,1,1.22-1.44A1.26,1.26,0,0,1,528.9,986.62Z" fill="#382920"/><path d="M488.1,600.85c-5.09,1.58-7.41,7.48-16.32,8.64-4.77.62-7.56-.63-12,1.44s-4.14,4.34-8.16,7.2c-6.87,4.89-12.2,1.52-18.24,4.8-6.95,3.78-8.71,13.06-9.6,17.76-3.19,16.87,7,20.35,13.44,50.4,3.72,17.41,2.21,25.25,9.6,33.6,2.41,2.73,5.94,5.7,6.24,10.56.39,6.29-5.12,7.92-5.76,15.36-.61,7.18,4.25,8.66,2.88,15.36-1.11,5.43-4.58,5.85-4.8,11-.2,4.88,2.81,5.76,2.4,10.56-.42,5-3.81,5.22-4.32,10.08-.59,5.67,3.82,7.2,2.88,12.48-.75,4.22-3.76,4.26-4.32,8.64-.53,4.15,2.06,5,1.92,9.6-.16,5.19-3.42,5.64-3.36,10.08.08,5.48,5.08,6.53,4.8,11.52-.23,4.24-3.9,4.68-4.32,9.6-.33,4,2,4.6,1.92,8.64-.1,5.42-4.32,6.15-5.28,11.52-1.06,6,3.78,7.08,3.84,14.4.06,6.65-3.92,7.46-3.84,14.88.06,5.25,2.06,5.39,1.92,10.56-.18,6.67-3.52,7.3-3.36,13,.18,6.29,4.38,7.62,3.36,12.48-.95,4.54-4.94,5-4.8,8.64.15,3.9,4.81,4.7,5.28,9.12.32,3-1.67,3.72-2.88,7.68-1.62,5.32-.84,13.16,3.36,16.32,3.82,2.87,7.28-.53,13,2.88,3.41,2,2.86,3.68,6.24,5.28,4.25,2,6.08-.09,11,1.44,4.66,1.44,3.88,3.55,9.12,5.76,3.91,1.65,5,.77,12.48,2.4,4.48,1,4.25,1.34,8.64,2.4,7.72,1.87,8.4.77,18.24,2.4,7.17,1.19,9.28,2.19,13,1a11.54,11.54,0,0,0,6.24-4.32c2.11-3.2.32-5.07,1.44-12.48.8-5.23,1.94-5.92,1.44-9.12-.6-3.87-2.45-3.93-2.88-7.2-.64-4.84,3.22-6.24,3.84-12,.57-5.23-2.49-5.26-2.4-11,.12-7,4.68-8.34,3.84-14.88-.34-2.68-1.3-4-1-7.2.33-3,1.37-3.48,1.92-6.24,1-5-1.91-6.35-1.44-11,.52-5.14,4.18-5.11,4.8-10.08s-3.07-5.84-3.36-12c-.27-6,3.19-6.65,2.88-13.44-.18-4-1.43-4.48-1.44-9.12,0-2.65.4-3.77,1.44-9.12a108.43,108.43,0,0,0,1.92-11.52c.48-6-.86-7.67-1.44-13.92-.68-7.46.87-8.94,1.92-20.64.34-3.79.15-3.35.48-19.68.46-22.74.79-21.73.48-26.4-1-15.46-3.85-14.65-2.88-24,1-9.53,4.29-13.77,1.44-20.16-1.51-3.4-3.72-5.06-4.32-9.6-.5-3.77.72-5,1-9.12.35-5.92-1.85-8.52-3.36-14.4-2.07-8.09-.71-14.17-.48-17.76C543.88,650.34,506.4,595.17,488.1,600.85Z" fill="none" stroke="#000" stroke-miterlimit="10" stroke-width="2"/><path d="M665.32,601.57c5.1,1.58,7.42,7.48,16.32,8.64,4.78.62,7.57-.63,12,1.44s4.15,4.34,8.16,7.2c6.87,4.89,12.21,1.52,18.24,4.8,7,3.78,8.71,13.06,9.6,17.76,3.2,16.87-7,20.35-13.44,50.4-3.71,17.41-2.21,25.25-9.6,33.6-2.41,2.73-5.94,5.7-6.24,10.56-.38,6.29,5.13,7.92,5.76,15.36.62,7.18-4.25,8.66-2.88,15.36,1.11,5.43,4.58,5.85,4.8,11,.21,4.88-2.8,5.76-2.4,10.56.43,5,3.82,5.22,4.32,10.08.6,5.67-3.82,7.2-2.88,12.48.76,4.22,3.76,4.26,4.32,8.64.54,4.15-2.06,5-1.92,9.6.16,5.19,3.43,5.64,3.36,10.08-.08,5.48-5.07,6.53-4.8,11.52.24,4.24,3.91,4.68,4.32,9.6.34,4-2,4.6-1.92,8.64.1,5.42,4.33,6.15,5.28,11.52,1.07,6-3.77,7.08-3.84,14.4,0,6.65,3.93,7.46,3.84,14.88-.06,5.25-2.05,5.39-1.92,10.56.18,6.67,3.53,7.3,3.36,13-.18,6.29-4.37,7.62-3.36,12.48,1,4.54,4.94,5,4.8,8.64-.15,3.9-4.81,4.7-5.28,9.12-.31,3,1.68,3.72,2.88,7.68,1.63,5.32.84,13.16-3.36,16.32-3.82,2.87-7.27-.53-13,2.88-3.4,2-2.85,3.68-6.24,5.28-4.24,2-6.07-.09-11,1.44-4.65,1.44-3.87,3.55-9.12,5.76-3.9,1.65-5,.77-12.48,2.4-4.48,1-4.24,1.34-8.64,2.4-7.72,1.87-8.4.77-18.24,2.4-7.16,1.19-9.28,2.19-13,1a11.54,11.54,0,0,1-6.24-4.32c-2.1-3.2-.31-5.07-1.44-12.48-.79-5.23-1.93-5.92-1.44-9.12.61-3.87,2.45-3.93,2.88-7.2.64-4.84-3.22-6.24-3.84-12-.56-5.23,2.5-5.26,2.4-11-.11-7-4.67-8.34-3.84-14.88.35-2.68,1.31-4,1-7.2-.32-3-1.36-3.48-1.92-6.24-1-5,1.92-6.35,1.44-11-.52-5.14-4.17-5.11-4.8-10.08s3.08-5.84,3.36-12c.28-6-3.18-6.65-2.88-13.44.18-4,1.44-4.48,1.44-9.12,0-2.65-.4-3.77-1.44-9.12a111.16,111.16,0,0,1-1.92-11.52c-.48-6,.87-7.67,1.44-13.92.69-7.46-.86-8.94-1.92-20.64-.34-3.79-.15-3.35-.48-19.68-.45-22.74-.78-21.73-.48-26.4,1-15.46,3.85-14.65,2.88-24-1-9.53-4.28-13.77-1.44-20.16,1.52-3.4,3.72-5.06,4.32-9.6.5-3.77-.71-5-1-9.12-.35-5.92,1.86-8.52,3.36-14.4,2.08-8.09.72-14.17.48-17.76C609.54,651.06,647,595.89,665.32,601.57Z" fill="#534741"/><path d="M696.49,961.49c-.63-2-1.16-4-1.62-6q-.87-9.12-1.57-18.25a91.81,91.81,0,0,1,.65-18.11c.95-8.87,2.09-26.74,3.53-56-4.57,5-10,10.32-12,9.12-3.18-1.93,8-17.32,11.52-42.72,3.14-22.69-.89-45.92-3.25-59.53-.66-3.78-1.28-6.88-1.71-8.93,1.22-7.66,2.58-15.28,4.32-22.83,1.38-1.06,2.74-2.13,4.1-3.22,0,.3-.08.6-.1.91-.38,6.29,5.13,7.92,5.76,15.36.62,7.18-4.25,8.66-2.88,15.36,1.11,5.43,4.58,5.85,4.8,11,.21,4.88-2.8,5.76-2.4,10.56.43,5,3.82,5.22,4.32,10.08.6,5.67-3.82,7.2-2.88,12.48.76,4.22,3.76,4.26,4.32,8.64.54,4.15-2.06,5-1.92,9.6.16,5.19,3.43,5.64,3.36,10.08-.08,5.48-5.07,6.53-4.8,11.52.24,4.24,3.91,4.68,4.32,9.6.34,4-2,4.6-1.92,8.64.1,5.42,4.33,6.15,5.28,11.52,1.07,6-3.77,7.08-3.84,14.4,0,6.65,3.93,7.46,3.84,14.88-.06,5.25-2.05,5.39-1.92,10.56.18,6.67,3.53,7.3,3.36,13-.18,6.29-4.37,7.62-3.36,12.48,1,4.54,4.94,5,4.8,8.64-.15,3.9-4.81,4.7-5.28,9.12-.31,3,1.68,3.72,2.88,7.68,1.63,5.32.84,13.16-3.36,16.32-3.29,2.48-6.32.29-10.75,1.84a70.66,70.66,0,0,0-4.82-10.45c-.17-1.51-.32-3-.49-4.53A23.6,23.6,0,0,0,696.49,961.49Z" fill="#fff" opacity="0.5" style="mix-blend-mode:overlay"/><path d="M660.52,615.49q3.81,19.74,7.2,40.32,1.51,9.2,2.88,18.24a61.93,61.93,0,0,1-23,3.84,63.85,63.85,0,0,1-35.64-12.36Z" fill="#534741" stroke="#000" stroke-miterlimit="10" stroke-width="5" opacity="0.5"/><path d="M640.84,677.89a712.66,712.66,0,0,0-10.56,78.72c-3.74,48.1-1.83,86.64-.48,112.32,1.5,28.32,3,34.79,6.72,91.68,1.33,20.36,2.27,37.16,2.88,48.48" fill="#534741" stroke="#000" stroke-miterlimit="10" stroke-width="5" opacity="0.5"/><g opacity="0.5"><path d="M693.82,901a7.39,7.39,0,0,1,2.7,1.44c3.6,3.13,2.56,9.13,2,17.1-.42,5.91-.4,10.12-.36,16,.06,7.92-.28,15.85,0,23.76.08,2.25.22,5.28-1.62,8.1-1.94,3-5,4.09-7.56,5-12.71,4.77-7.93,4.53-18.9,8.1-12.35,4-18.59,6-21.6,3.24-1.41-1.28-1.72-3-2.16-8.28a173.07,173.07,0,0,1-.9-19.8c.16-10.3.29-18.94-1.44-29.16-1.6-9.51-3.44-12.17-1.44-14.94,3.29-4.54,9.86.35,22.5-2.52S685.25,898.24,693.82,901Z" fill="none" stroke="#000" stroke-miterlimit="10"/><path d="M698.5,919.57a127.22,127.22,0,0,1-15.12,5.22,132.16,132.16,0,0,1-19.26,3.78,153.27,153.27,0,0,1-19.62,1.26" fill="none" stroke="#000" stroke-miterlimit="10"/><path d="M690.13,900.49c.74,1.92,1.44,4,2.07,6.21a75.3,75.3,0,0,1,2.61,14.22" fill="none" stroke="#000" stroke-miterlimit="10"/><path d="M684,901.57a75.12,75.12,0,0,1,4.41,21.51" fill="none" stroke="#000" stroke-miterlimit="10"/><path d="M677.35,904.45A45.95,45.95,0,0,1,682,924.79" fill="none" stroke="#000" stroke-miterlimit="10"/><path d="M671.23,907.24c.87,2.93,1.69,6.08,2.43,9.45s1.35,6.79,1.8,9.9" fill="none" stroke="#000" stroke-miterlimit="10"/><path d="M666.19,908.77a55.12,55.12,0,0,1,2.79,18.9" fill="none" stroke="#000" stroke-miterlimit="10"/><path d="M662.14,909.58q.15,4.32.18,8.82,0,5.31-.09,10.35" fill="none" stroke="#000" stroke-miterlimit="10"/><path d="M656.74,910a85.13,85.13,0,0,0-.18,19.08" fill="none" stroke="#000" stroke-miterlimit="10"/><path d="M649.72,909.67c-.09,3.39-.13,6.91-.09,10.53q.06,4.88.27,9.45" fill="none" stroke="#000" stroke-miterlimit="10"/></g><path d="M694.45,932.62a45.11,45.11,0,0,1-7.38,12.6c-10.25,12.32-23.82,14.7-23.49,15.66s17.06.51,25.74-11.34A28.42,28.42,0,0,0,694.45,932.62Z" fill="#fff" opacity="0.5" style="mix-blend-mode:overlay"/><path d="M665.32,601.57c5.1,1.58,7.42,7.48,16.32,8.64,4.78.62,7.57-.63,12,1.44s4.15,4.34,8.16,7.2c6.87,4.89,12.21,1.52,18.24,4.8,7,3.78,8.71,13.06,9.6,17.76,3.2,16.87-7,20.35-13.44,50.4-3.71,17.41-2.21,25.25-9.6,33.6-2.41,2.73-5.94,5.7-6.24,10.56-.38,6.29,5.13,7.92,5.76,15.36.62,7.18-4.25,8.66-2.88,15.36,1.11,5.43,4.58,5.85,4.8,11,.21,4.88-2.8,5.76-2.4,10.56.43,5,3.82,5.22,4.32,10.08.6,5.67-3.82,7.2-2.88,12.48.76,4.22,3.76,4.26,4.32,8.64.54,4.15-2.06,5-1.92,9.6.16,5.19,3.43,5.64,3.36,10.08-.08,5.48-5.07,6.53-4.8,11.52.24,4.24,3.91,4.68,4.32,9.6.34,4-2,4.6-1.92,8.64.1,5.42,4.33,6.15,5.28,11.52,1.07,6-3.77,7.08-3.84,14.4,0,6.65,3.93,7.46,3.84,14.88-.06,5.25-2.05,5.39-1.92,10.56.18,6.67,3.53,7.3,3.36,13-.18,6.29-4.37,7.62-3.36,12.48,1,4.54,4.94,5,4.8,8.64-.15,3.9-4.81,4.7-5.28,9.12-.31,3,1.68,3.72,2.88,7.68,1.63,5.32.84,13.16-3.36,16.32-3.82,2.87-7.27-.53-13,2.88-3.4,2-2.85,3.68-6.24,5.28-4.24,2-6.07-.09-11,1.44-4.65,1.44-3.87,3.55-9.12,5.76-3.9,1.65-5,.77-12.48,2.4-4.48,1-4.24,1.34-8.64,2.4-7.72,1.87-8.4.77-18.24,2.4-7.16,1.19-9.28,2.19-13,1a11.54,11.54,0,0,1-6.24-4.32c-2.1-3.2-.31-5.07-1.44-12.48-.79-5.23-1.93-5.92-1.44-9.12.61-3.87,2.45-3.93,2.88-7.2.64-4.84-3.22-6.24-3.84-12-.56-5.23,2.5-5.26,2.4-11-.11-7-4.67-8.34-3.84-14.88.35-2.68,1.31-4,1-7.2-.32-3-1.36-3.48-1.92-6.24-1-5,1.92-6.35,1.44-11-.52-5.14-4.17-5.11-4.8-10.08s3.08-5.84,3.36-12c.28-6-3.18-6.65-2.88-13.44.18-4,1.44-4.48,1.44-9.12,0-2.65-.4-3.77-1.44-9.12a111.16,111.16,0,0,1-1.92-11.52c-.48-6,.87-7.67,1.44-13.92.69-7.46-.86-8.94-1.92-20.64-.34-3.79-.15-3.35-.48-19.68-.45-22.74-.78-21.73-.48-26.4,1-15.46,3.85-14.65,2.88-24-1-9.53-4.28-13.77-1.44-20.16,1.52-3.4,3.72-5.06,4.32-9.6.5-3.77-.71-5-1-9.12-.35-5.92,1.86-8.52,3.36-14.4,2.08-8.09.72-14.17.48-17.76C609.54,651.06,647,595.89,665.32,601.57Z" fill="none" stroke="#000" stroke-miterlimit="10" stroke-width="2"/><path d="M575.34,653.71a117.34,117.34,0,0,0-21.24-17.82c-16.39-10.73-21.82-8.35-31.5-17.82-10.23-10-9.07-17.49-20.16-23.4-3-1.6-10.44-5.56-17.46-2.7-10.08,4.11-11.11,18.95-11.16,19.8-.86,15.49,14.82,26.91,22.14,32.4,14.15,10.62,22.06,9.48,44.64,21.6a209.85,209.85,0,0,1,22.32,13.86" fill="#fff"/><path d="M575.34,653.71a115.69,115.69,0,0,0-31.87-23.25c-4.79-2.33-9.91-3.83-14.56-6.54A42.81,42.81,0,0,1,517.08,613c-3.23-4.18-5.31-9.21-8.92-13-6.77-6.43-19.41-12.07-27.08-4.21-3.54,3.65-5.21,8.83-6,13.8a23.11,23.11,0,0,0,2.73,14.75c3.77,6.91,9.7,12.25,15.9,17A79.92,79.92,0,0,0,506.82,650c9.48,4.58,19.77,7.77,29.1,12.8a199.77,199.77,0,0,1,27,16.83,214.73,214.73,0,0,0-27.44-16c-4.75-2.33-9.6-4.42-14.54-6.32-7.39-2.83-15.13-5.45-21.8-9.93-11.65-8.17-25.67-18.48-26.27-34,0-6.78,2-14,6.82-19,8.49-8.67,22.32-2.88,29.75,4.36,3.73,4,5.78,9,9,13.23a41.48,41.48,0,0,0,11.21,10.73c4.49,2.71,9.63,4.33,14.33,6.72a110.59,110.59,0,0,1,31.38,24.26Z"/><path d="M528.72,647.59c-3.58,2.46-10,1-12.78-3.24-2.39-3.66-1.13-7.9-.9-8.64,4.76-2.7,10.11-2.59,13.32.18.3.26,3.89,3.46,3.06,7.56A7,7,0,0,1,528.72,647.59Z" fill="#e9cfb5" stroke="#000" stroke-miterlimit="10"/><path d="M519.36,641.65c-1.36,24.86-3.53,43.46-5.22,51.12a45.07,45.07,0,0,1-3.78,10.8,48.07,48.07,0,0,1-5.58,8.28c-7.58,9.79-11.46,14.65-12.42,17.64-2.57,8-1.09,15.77-.54,18.54a41.17,41.17,0,0,0,3.42,10.08,4.16,4.16,0,0,0,4.68,1.8,4.24,4.24,0,0,0,2.34-5.58,67.67,67.67,0,0,1-1.8-8.64c-.89-6.34-1.39-9.9-.36-13.5,1.7-5.9,5.56-5.07,12.78-14.4a51.64,51.64,0,0,0,10.62-24.3c2-11.31,2.26-19.93,2.7-29,.27-5.53.75-13.76,1.62-23.94-.24-2.38-1.76-4.23-3.42-4.5C522.21,635.72,519.33,638,519.36,641.65Z" fill="#e9cfb5" stroke="#000" stroke-miterlimit="10" stroke-width="2"/><path d="M502.65,769.3a4.77,4.77,0,0,1-5.67-3.57,4.58,4.58,0,0,1,2-4.5c2.11-1.41,5.36-.89,6.63,1.23A4.87,4.87,0,0,1,502.65,769.3Z" fill="#e9cfb5" stroke="#000" stroke-miterlimit="10" stroke-width="2"/><path d="M501.66,768.73c-2.94.32-5.58,3.19-6.36,6-.72,2.63.55,3.84.12,6.6-.36,2.31-1.77,4.82-5.16,7.32a12,12,0,0,0,21-9C510.83,774.1,506.28,768.23,501.66,768.73Z" fill="#e9cfb5" stroke="#000" stroke-miterlimit="10" stroke-width="2"/><path d="M490.26,788.65a7,7,0,0,0,4.53.15c1.94-.67,2.43-2.06,4.86-4.14s3.41-1.86,5-3.24,3.25-4,3.42-9.36a12.7,12.7,0,0,1,3.24,10,12.51,12.51,0,0,1-4.95,8.28,12,12,0,0,1-16.05-1.68Z" fill="#e9cfb5" stroke="#000" stroke-miterlimit="10" stroke-width="2"/><path d="M578.08,654.43a118.07,118.07,0,0,1,21.24-17.82c16.4-10.73,21.83-8.35,31.5-17.82,10.24-10,9.07-17.49,20.16-23.4,3-1.6,10.44-5.56,17.46-2.7,10.09,4.11,11.12,18.95,11.16,19.8.87,15.49-14.81,26.91-22.14,32.4-14.15,10.62-22.06,9.48-44.64,21.6a209.85,209.85,0,0,0-22.32,13.86" fill="#fff"/><path d="M578.08,654.43a110.49,110.49,0,0,1,31.39-24.26c4.7-2.39,9.84-4,14.33-6.72A41.62,41.62,0,0,0,635,612.72c3.2-4.26,5.25-9.28,9-13.23,7.43-7.24,21.26-13,29.75-4.36,4.78,5,6.78,12.22,6.82,19-.61,15.53-14.63,25.84-26.27,34-6.67,4.48-14.41,7.1-21.81,9.93-4.93,1.9-9.79,4-14.53,6.32a214.17,214.17,0,0,0-27.45,16,199.88,199.88,0,0,1,27-16.83c9.32-5,19.62-8.22,29.09-12.8a79.58,79.58,0,0,0,13.14-8.63c6.2-4.79,12.13-10.13,15.9-17a23.24,23.24,0,0,0,2.73-14.75c-.82-5-2.48-10.15-6-13.8-7.68-7.86-20.31-2.22-27.08,4.21-3.61,3.79-5.7,8.82-8.92,13a43,43,0,0,1-11.83,10.93c-4.65,2.71-9.77,4.21-14.56,6.54a115.89,115.89,0,0,0-31.88,23.25Z"/><path d="M624.7,648.31c3.59,2.46,10,1,12.78-3.24,2.4-3.66,1.14-7.9.9-8.64-4.75-2.7-10.1-2.59-13.32.18-.3.26-3.89,3.46-3.06,7.56A7,7,0,0,0,624.7,648.31Z" fill="#e9cfb5" stroke="#000" stroke-miterlimit="10"/><path d="M634.06,642.37c1.37,24.86,3.54,43.46,5.22,51.12a46,46,0,0,0,3.78,10.8,48.64,48.64,0,0,0,5.58,8.28c7.58,9.79,11.46,14.65,12.42,17.64,2.57,8,1.1,15.77.54,18.54a41.17,41.17,0,0,1-3.42,10.08,4.15,4.15,0,0,1-4.68,1.8,4.26,4.26,0,0,1-2.34-5.58,66,66,0,0,0,1.8-8.64c.9-6.34,1.4-9.9.36-13.5-1.69-5.9-5.55-5.07-12.78-14.4a51.64,51.64,0,0,1-10.62-24.3c-2-11.31-2.26-19.93-2.7-29-.27-5.53-.74-13.76-1.62-23.94.25-2.38,1.76-4.23,3.42-4.5C631.21,636.44,634.1,638.75,634.06,642.37Z" fill="#e9cfb5" stroke="#000" stroke-miterlimit="10" stroke-width="2"/><path d="M650.77,770a4.77,4.77,0,0,0,5.67-3.57,4.56,4.56,0,0,0-2-4.5,4.55,4.55,0,1,0-3.69,8.07Z" fill="#e9cfb5" stroke="#000" stroke-miterlimit="10" stroke-width="2"/><path d="M651.76,769.45c2.94.32,5.59,3.19,6.36,6,.73,2.63-.55,3.84-.12,6.6.36,2.31,1.78,4.82,5.16,7.32a12,12,0,0,1-21-9C642.6,774.82,647.15,769,651.76,769.45Z" fill="#e9cfb5" stroke="#000" stroke-miterlimit="10" stroke-width="2"/><path d="M663.16,789.37a7,7,0,0,1-4.53.15c-1.93-.67-2.42-2.06-4.86-4.14s-3.4-1.86-4.95-3.24-3.25-4-3.42-9.36a12.77,12.77,0,0,0-3.24,10,12.51,12.51,0,0,0,5,8.28,12,12,0,0,0,16-1.68Z" fill="#e9cfb5" stroke="#000" stroke-miterlimit="10" stroke-width="2"/><path d="M419.84,644.24a18.18,18.18,0,0,1,7.26-8.16c2.36,10.54,4.43,19.06,5.82,24.66,6.41,25.82,10.63,38.79,15.9,63.72.89,4.21,1.57,7.63,2,9.72a67,67,0,0,1-14.94-14c-13.12-16.87-14.75-36.19-16-51.12A147.52,147.52,0,0,1,419.84,644.24Z" fill="#534741"/><path d="M726.47,640.22a9.79,9.79,0,0,1,4.95,3.82,9.3,9.3,0,0,1,1.13,2.57c-.28,2.37-.77,6.21-1.62,10.89A173.15,173.15,0,0,1,726.16,677c-7.62,25.81-2,38.9-13.64,52.88-.31.37-6.61,7.89-8.82,6.66s.45-9.39,1.44-12.42q3.38-16.94,7.74-34.92C717.1,671.94,721.68,655.61,726.47,640.22Z" fill="#534741"/></g></g></g></svg>