<svg xmlns="http://www.w3.org/2000/svg" viewBox="0 0 1080 1920"><g style="isolation:isolate"><g id="costumes"><g id="_26" data-name="26"><path d="M472.58,962.05a586.82,586.82,0,0,0-3.14,85.08c.06,1.69.15,3.47.31,7,1.39,29.42,3.33,69.38,8.63,116.93,1,9,2.55,22,4.76,37.81.12,3,.29,7.56.43,13.09.21,8.6.16,12,.43,18.42.14,3.28.39,7.94.86,13.58-7.18,40-7.13,71.55-5.66,93.36.91,13.49,2.32,22.89,6.57,65.93,2.11,21.31,3.71,38.86,4.75,50.65a63.11,63.11,0,0,0,45.24.14c4.76-29.61,8.34-53.93,10.88-71.92,1.27-9,3-22,6.48-48,2.63-19.69,2.78-21.1,3-23.46.79-9,.66-16.36-.16-52.2-.12-5.26-.23-9.68-.31-12.9a74.92,74.92,0,0,0,6.05-23.75,77.13,77.13,0,0,0-.86-19.88c.69-5.68,1.89-14.49,3.89-25.2,1.71-9.16,3.23-15.59,3.88-18.42,1.63-7.09,3.55-17.06,8-60.6,1.25-12.27,2.75-27.68,4.32-45.57-.09-1.24-.19-3.11-.24-5.39-.3-15.14,3.31-26,3.45-30.58a188.27,188.27,0,0,0-2.86-38.9c-12.13-1.4-24.83-3.34-38-5.93A502.28,502.28,0,0,1,472.58,962.05Z"/><path d="M469.25,1020.13a46.92,46.92,0,0,0,27.21-6.18c19.6-11.38,25.4-33.39,26.41-37.52l10.85,3.15c-1,5.39-5,23.9-20.52,37.81a54.9,54.9,0,0,1-44,13.65Z" fill="#333" opacity="0.51"/><path d="M491.89,1247.7c1.57,3.74,6,13.1,15.09,17.76,11.87,6.1,26.71,1.62,37.27-11.46a51.15,51.15,0,0,1-31.13,3.44A54.59,54.59,0,0,1,491.89,1247.7Z" fill="#333" opacity="0.51"/><path d="M478.21,1464.84c5.19-.93,13.59-2.39,24.06-4,15.68-2.44,19.57-2.72,23.11-6.88,4.1-4.82,3.73-10.22,5.19-29.22,1-12.66,2.2-28.66,4.71-41.82a104.56,104.56,0,0,1,3.51-13.78c4.4-13.08,8.05-22.4,8.76-24,3.94-9.14,6.56-31.54.75-89.74a45.29,45.29,0,0,0,9.07-17.69,49.75,49.75,0,0,0-.57-26.65l19.8-103.27c-1.15,13.88-2.61,26.32-4.11,37.08-1.11,8-1.77,12.77-3,19.64-2.62,14.38-4.75,21.11-7.08,36.08-.76,4.94-1.27,9-1.56,11.42a75.29,75.29,0,0,1,.43,24.24,72.81,72.81,0,0,1-5.62,19.39l.66,26.13a313.88,313.88,0,0,1-1.44,52.77c-1.37,12.08-3.13,21.73-6.37,38.38-5.25,27-7,31-9.2,45.26a302.7,302.7,0,0,0-3.53,45.93,108.9,108.9,0,0,1-57.55.77Z" fill="#333" opacity="0.51"/><path d="M475.6,1427.12l.12,37.44a110.43,110.43,0,0,0,71.16-2.52l2.64-38Z"/><path d="M475.6,1427.12,489,1444.25l49.34,21a119.58,119.58,0,0,1-62.59-.7Z" fill="#333"/><path d="M466.73,1505.09a55.17,55.17,0,0,1,19.17,2.33c2.27.71,3.49,1.26,18.22,7.66,6.49,2.82,9.75,4.23,10.06,4.33,6,1.86,15.31,1.66,29.53-8a49.41,49.41,0,0,1,5.66,11.65,50.16,50.16,0,0,1,1.88,7.66,13.45,13.45,0,0,1,1.89,9c-1.22,6.38-8.14,9.44-11.63,11-10.53,4.67-15.27.41-25.14,4.33-5.68,2.25-7.54,5-13.19,9.66a107.27,107.27,0,0,1-32.68,17c-22.56,7.09-52.88,4.68-57.85-8.41a12.28,12.28,0,0,1-.71-5.18c-1-1.8-2-3.6-3-5.39-1.15-2.37-4-9-1.57-15.32,1.33-3.53,4-6.34,12.25-10.66,11-5.78,17.27-6.53,23.25-9C449.59,1525,458.4,1519.07,466.73,1505.09Z" fill="#f1f1f3"/><path d="M466.73,1505.09a55.17,55.17,0,0,1,19.17,2.33c2.27.71,3.49,1.26,18.22,7.66,6.49,2.82,9.75,4.23,10.06,4.33,6,1.86,15.31,1.66,29.53-8a69,69,0,0,1,5.66,11.65,70.57,70.57,0,0,1,2.67,9,129.36,129.36,0,0,0-17.28,5.5,131,131,0,0,0-19.48,9.65c-6.59,4-8.73,6.08-13.67,9.49A110.28,110.28,0,0,1,474,1570.52a91.06,91.06,0,0,1-43.83,3,88.61,88.61,0,0,1-18.19-5.43c-1-1.8-2-3.6-3-5.39-1.15-2.37-4-9-1.57-15.32,1.33-3.53,4-6.34,12.25-10.66,11-5.78,17.27-6.53,23.25-9C449.59,1525,458.4,1519.07,466.73,1505.09Z" fill="#dededd"/><path d="M408.92,1562.7c-.09,1.16,13.33,3.26,22,4.33,15.27,1.87,22.9,2.8,31.58,1.24,11.7-2.09,20.17-7,28.75-12,10.28-6,12.56-9.13,20-14,8.07-5.25,20.67-11.47,39.35-14l-1.18-6a85.28,85.28,0,0,0-27.33,6.5c-4.33,1.84-6.36,3.15-19.56,10.74-14.81,8.51-22.22,12.77-23.8,13.48-12.92,5.82-23.93,6.87-38.41,8.24C421.57,1563.06,409,1561.58,408.92,1562.7Z" fill="#a2a2a2"/><g opacity="0.46"><path d="M413.47,1568.27c17.3,6.45,36.81,8.66,54.63,3.19,8.87-2.69,17-7.33,25.08-11.92a144.92,144.92,0,0,0,15.56-10.18,105.19,105.19,0,0,1,43.3-17.3c-15.15,3.53-29.72,9.6-42.26,18.73a131.25,131.25,0,0,1-15.62,10.46c-8.13,4.72-16.4,9.36-25.51,12-18.16,5.35-38.16,2.63-55.18-5Z"/></g><g opacity="0.46"><path d="M458.72,1515.58a72.85,72.85,0,0,1,33.17,6.24c3.47,1.53,6.79,3.32,10.17,4.81,13.67,6.52,29.39,4.3,43.38-.31-12,5.39-26,8.22-38.83,4.2-5.44-1.67-10.43-4.63-15.51-7a87.59,87.59,0,0,0-32.38-8Z"/></g><path d="M421.25,1553.54c-1.82.81-4.39.22-5.18-1.75s.65-4.48,2.59-5.24,4.35,0,5.07,2S423,1552.77,421.25,1553.54Z"/><path d="M440.57,1545.17c-1.82.81-4.39.22-5.18-1.74s.66-4.49,2.59-5.25,4.35,0,5.07,2S442.31,1544.4,440.57,1545.17Z"/><path d="M437.86,1555.29c-1.82.81-4.39.22-5.18-1.75s.66-4.49,2.59-5.24,4.35,0,5.07,2S439.6,1554.52,437.86,1555.29Z"/><path d="M454.83,1546.3c-1.82.81-4.39.22-5.18-1.75s.65-4.49,2.59-5.24,4.35,0,5.07,2S456.57,1545.52,454.83,1546.3Z"/><path d="M461.78,1534.06c-1.82.81-4.39.22-5.18-1.75s.66-4.48,2.59-5.24,4.35,0,5.07,2S463.52,1533.29,461.78,1534.06Z"/><path d="M461.31,1555.91c-1.82.81-4.39.22-5.18-1.75s.65-4.48,2.59-5.24,4.35,0,5.07,2S463.05,1555.14,461.31,1555.91Z"/><path d="M479.34,1537.18c-1.82.81-4.4.22-5.19-1.75s.66-4.48,2.6-5.24,4.35,0,5.06,2S481.08,1536.41,479.34,1537.18Z"/><path d="M484.05,1548.42c-1.82.81-4.39.22-5.18-1.75s.65-4.48,2.59-5.24,4.35,0,5.07,2S485.79,1547.65,484.05,1548.42Z"/><path d="M502.43,1537.43c-1.82.81-4.39.22-5.18-1.75s.66-4.48,2.59-5.24,4.35,0,5.07,2S504.17,1536.66,502.43,1537.43Z"/><path d="M538.6,1483.87c-2.07.17-2.07,7.21-4.24,15.23-5,18.63-16.77,24.09-13.9,32.71,1,2.9,3.46,5.81,6.36,6.25,3.78.56,7-3.27,8-4.5,2.59-3.09,2.73-5.51,4.95-13.73,3-10.92,3.7-10.34,4.24-15.24a31.14,31.14,0,0,0-1.41-14.48C541.93,1488.24,540.29,1483.72,538.6,1483.87Z" fill="#cacaca" stroke="#858590" stroke-miterlimit="10" stroke-width="1.35"/><path d="M682.73,959.87a585.66,585.66,0,0,1,3.15,85.08c-.06,1.69-.15,3.47-.32,7-1.38,29.42-3.32,69.37-8.63,116.93-1,9-2.54,22-4.75,37.81-.12,3-.29,7.56-.43,13.09-.22,8.6-.16,12-.43,18.42-.14,3.28-.39,7.94-.87,13.58,7.19,40,7.13,71.55,5.66,93.36-.91,13.49-2.31,22.88-6.57,65.93-2.1,21.31-3.7,38.86-4.74,50.64a63,63,0,0,1-45.24.15c-4.77-29.61-8.34-53.93-10.88-71.92-1.27-9-3-22-6.48-48-2.63-19.68-2.79-21.09-3-23.45-.79-9-.66-16.36.16-52.2.12-5.26.22-9.68.3-12.9a75.27,75.27,0,0,1-6-23.75,77,77,0,0,1,.87-19.88c-.69-5.68-1.89-14.49-3.89-25.2-1.71-9.16-3.24-15.59-3.89-18.43-1.62-7.08-3.55-17.05-8-60.59-1.25-12.27-2.75-27.68-4.32-45.57.08-1.24.19-3.11.23-5.39.3-15.14-3.31-26-3.45-30.58a189,189,0,0,1,2.86-38.9c12.14-1.4,24.84-3.34,38-5.93A503.11,503.11,0,0,0,682.73,959.87Z"/><path d="M686.24,1017.76a32,32,0,0,1-3.91.31,42.32,42.32,0,0,1-20.56-6.3c-18.08-10.93-24.77-31.88-26.41-37.52l-10.85,3.15a80.05,80.05,0,0,0,5.21,15.91,71.64,71.64,0,0,0,15.31,21.9c16,15,35.69,14.94,41.15,14.73Z" fill="#333" opacity="0.51"/><path d="M663.42,1245.52c-1.56,3.74-6,13.1-15.09,17.76-11.86,6.1-26.7,1.62-37.26-11.46a51.13,51.13,0,0,0,31.13,3.44A54.61,54.61,0,0,0,663.42,1245.52Z" fill="#333" opacity="0.51"/><path d="M677.1,1462.65c-5.19-.92-13.58-2.38-24.05-4-15.68-2.44-19.58-2.71-23.11-6.87-4.11-4.82-3.73-10.22-5.19-29.22-1-12.66-2.21-28.66-4.72-41.82a103,103,0,0,0-3.51-13.78c-4.39-13.08-8-22.4-8.75-24-3.94-9.14-6.56-31.54-.76-89.74a45.37,45.37,0,0,1-9.07-17.69,49.72,49.72,0,0,1,.58-26.65l-19.8-103.27c1.15,13.88,2.61,26.32,4.1,37.08,1.11,8,1.78,12.77,3,19.64,2.62,14.38,4.75,21.11,7.07,36.08.77,4.94,1.27,9,1.57,11.42a75.27,75.27,0,0,0-.43,24.24,72.6,72.6,0,0,0,5.61,19.39l-.66,26.13a313.74,313.74,0,0,0,1.45,52.77c1.37,12.08,3.13,21.72,6.36,38.38,5.26,27,7,31,9.2,45.26a301.15,301.15,0,0,1,3.54,45.93,108.69,108.69,0,0,0,57.54.76Z" fill="#333" opacity="0.51"/><path d="M679.2,1425.2l-2.1,37.45a124.45,124.45,0,0,1-74.94-4L600,1424.12Z"/><path d="M679.2,1425.2l-12.85,16.87-49.35,21a113.7,113.7,0,0,0,60.1-.42Z" fill="#333"/><path d="M680.07,1507.76a55.31,55.31,0,0,0-19.16,2.33c-2.27.71-3.49,1.26-18.23,7.66-6.49,2.82-9.74,4.24-10,4.33-6,1.87-15.32,1.66-29.53-8a49,49,0,0,0-5.66,11.65,51.5,51.5,0,0,0-1.89,7.66,13.51,13.51,0,0,0-1.88,9c1.22,6.38,8.13,9.44,11.62,11,10.54,4.67,15.27.42,25.14,4.33,5.68,2.25,7.55,5,13.2,9.66a107.29,107.29,0,0,0,32.67,17c22.57,7.09,52.88,4.68,57.86-8.41a12.24,12.24,0,0,0,.7-5.18l3-5.39c1.15-2.37,4-9,1.57-15.32-1.33-3.53-4-6.34-12.26-10.65-11-5.79-17.26-6.54-23.25-9C697.22,1527.64,688.41,1521.74,680.07,1507.76Z" fill="#f1f1f3"/><path d="M680.07,1507.76a55.31,55.31,0,0,0-19.16,2.33c-2.27.71-3.49,1.26-18.23,7.66-6.49,2.82-9.74,4.24-10,4.33-6,1.87-15.32,1.66-29.53-8a67.49,67.49,0,0,0-5.66,11.65,69.43,69.43,0,0,0-2.67,9,131.81,131.81,0,0,1,17.28,5.5,130.29,130.29,0,0,1,19.48,9.66c6.59,4,8.73,6.08,13.67,9.48a110.1,110.1,0,0,0,27.65,13.82,91.06,91.06,0,0,0,43.83,3,88.49,88.49,0,0,0,18.18-5.43l3-5.39c1.15-2.37,4-9,1.57-15.32-1.33-3.53-4-6.34-12.26-10.65-11-5.79-17.26-6.54-23.25-9C697.22,1527.64,688.41,1521.74,680.07,1507.76Z" fill="#dededd"/><path d="M737.89,1565.37c.09,1.16-13.33,3.27-22,4.33-15.26,1.87-22.89,2.8-31.57,1.25-11.71-2.1-20.17-7-28.75-12-10.28-6-12.56-9.13-20-14-8.08-5.25-20.68-11.47-39.36-14l1.18-6a85.05,85.05,0,0,1,27.34,6.49c4.32,1.84,6.36,3.15,19.56,10.74,14.81,8.51,22.21,12.77,23.8,13.48,12.92,5.82,23.92,6.87,38.41,8.24C725.23,1565.73,737.8,1564.25,737.89,1565.37Z" fill="#a2a2a2"/><g opacity="0.46"><path d="M733.33,1571c-17,7.64-37,10.36-55.18,5-9.1-2.68-17.37-7.32-25.51-12A130.33,130.33,0,0,1,637,1553.46c-12.55-9.13-27.12-15.2-42.26-18.73a105.24,105.24,0,0,1,43.3,17.3,179.72,179.72,0,0,0,23.7,14.72,91.82,91.82,0,0,0,16.94,7.39c17.82,5.46,37.32,3.25,54.62-3.19Z"/></g><g opacity="0.46"><path d="M688.09,1518.25a87.54,87.54,0,0,0-32.38,8c-5.08,2.35-10.07,5.3-15.51,7-12.85,4-26.88,1.19-38.83-4.2,14,4.61,29.71,6.83,43.37.31,3.39-1.49,6.71-3.28,10.18-4.81a72.83,72.83,0,0,1,33.17-6.24Z"/></g><path d="M725.55,1556.21c1.83.81,4.4.22,5.19-1.75s-.66-4.48-2.59-5.24-4.35,0-5.07,2S723.82,1555.44,725.55,1556.21Z"/><path d="M706.23,1547.85c1.82.81,4.4.21,5.19-1.75s-.66-4.49-2.6-5.25-4.35,0-5.06,2S704.49,1547.07,706.23,1547.85Z"/><path d="M708.94,1558c1.82.81,4.4.22,5.19-1.75s-.66-4.49-2.6-5.24-4.35,0-5.06,2S707.2,1557.19,708.94,1558Z"/><path d="M692,1549c1.83.81,4.4.22,5.19-1.75s-.66-4.49-2.59-5.24-4.35,0-5.07,2S690.24,1548.2,692,1549Z"/><path d="M685,1536.73c1.83.81,4.4.22,5.19-1.75s-.66-4.48-2.59-5.24-4.35,0-5.07,2S683.28,1536,685,1536.73Z"/><path d="M685.49,1558.58c1.83.81,4.4.22,5.19-1.74s-.66-4.49-2.59-5.25-4.35,0-5.07,2S683.76,1557.81,685.49,1558.58Z"/><path d="M667.47,1539.85c1.82.81,4.39.22,5.18-1.74s-.66-4.49-2.59-5.25-4.35,0-5.07,2S665.73,1539.08,667.47,1539.85Z"/><path d="M662.75,1551.09c1.83.81,4.4.22,5.19-1.75s-.66-4.48-2.59-5.24-4.35,0-5.07,2S661,1550.32,662.75,1551.09Z"/><path d="M644.37,1540.1c1.83.81,4.4.22,5.19-1.74s-.66-4.49-2.59-5.25-4.35,0-5.07,2S642.64,1539.33,644.37,1540.1Z"/><path d="M608.2,1486.54c2.08.17,2.08,7.21,4.24,15.23,5,18.63,16.77,24.09,13.91,32.71-1,2.9-3.46,5.82-6.37,6.25-3.77.56-7-3.27-8-4.5-2.59-3.09-2.73-5.51-5-13.73-2.95-10.92-3.7-10.34-4.24-15.24a31.24,31.24,0,0,1,1.42-14.48C604.87,1490.92,606.51,1486.4,608.2,1486.54Z" fill="#cacaca" stroke="#858590" stroke-miterlimit="10" stroke-width="1.35"/><path d="M541.74,995c-10.55,31.49-3.14,65.33,15.3,80.85,11.69,9.84,28.59,13,41.35,4.29,20.05-13.61,29.29-55.89,12.46-96.59Z"/><path d="M545.06,1064.4c8.14,4.75,19.84,9.86,34,10,21.94.24,36.84-11.6,37.38-10,.61,1.78-17,20.46-39.08,18.6C561.32,1081.66,550,1070.12,545.06,1064.4Z" fill="#333" opacity="0.51"/><path d="M577.43,1000.72l.28,74.06a8.23,8.23,0,0,0,9.92-2.87,13.28,13.28,0,0,0,2.26-7.15q-.18-10.47-.28-21.11-.21-22.35,0-44Z" fill="#333" opacity="0.51"/><path d="M534.32,611.6a129.28,129.28,0,0,1-12.24,6.12c-11.33,4.94-19.67,6.62-33.1,9.51-24.34,5.22-35.92,8.16-48.74,13.77-3.94,1.72-10.44,4.79-15.35,11.55-.77,1.07-4.27,6-6.05,15.52-2.1,11.21-.25,20.52,1.3,27.14A232.08,232.08,0,0,0,434,737c13.79,29.3,21.05,28.92,26.4,49.44,2.11,8.09,2.85,16.11,4.32,32.16,1.1,12,1.07,17.65,1.92,34.08.46,8.83,1.22,21.67,2.51,37.42h0q-.69,10.47-1.36,21-3.21,50.51-5.83,100.5a567,567,0,0,0,231.84-6.48c-6.56-66.35-11-114.84-11-117.66v-7.56h0c.05-2.2.15-3.91.27-7,.15-4,.38-19.16.38-20,.26-43.64,16.49-78.92,16.49-78.92,1.09-2.37.16-.17,19.68-37.92,5.36-10.35,8-15.53,8.16-15.84,10.1-24.72,10.3-61.58-8.69-74.43a60.32,60.32,0,0,0-5.47-2.85,123.23,123.23,0,0,0-13.7-5.75c-7.91-2.83-18.08-7.46-24.82-10.09-13.29-5.19-14.38-2.93-28.8-8.28a142.29,142.29,0,0,1-16.92-7.56,48.12,48.12,0,0,1-11.16,13.32c-17.86,14.68-45.54,14.69-65.19,3.7A59.14,59.14,0,0,1,534.32,611.6Z" fill="#534741"/><g opacity="0.4"><path d="M475.24,995.08c8.77,1.14,17.54,2.2,26.34,3s17.59,1.5,26.41,1.92c17.63.86,35.29,1,52.92.32,8.81-.3,17.62-.86,26.41-1.59S624.89,997,633.65,996s17.49-2.4,26.19-3.92,17.38-3.17,26-5c-8.54,2.28-17.18,4.23-25.84,6s-17.4,3.24-26.16,4.54a493.66,493.66,0,0,1-106,4q-13.25-.95-26.43-2.54C492.68,998,483.93,996.71,475.24,995.08Z"/></g><path d="M763.45,788.18l-71,36.32q-9.86-47.49-21.69-96.86-3.88-16.18-7.88-32c-1.25-21.46,6.11-41.56,18.82-51.06,16.41-12.27,39.39-5.08,52.35,18.79Q748.76,725.76,763.45,788.18Z" fill="#534741"/><path d="M763.45,788.18q-14.69-62.41-29.39-124.84c2.35,22.31,5.74,46.61,10.61,72.45,3.09,16.34,6.47,31.72,10,46.11L696,814.16l-10.56-24.44q3.51,17.38,7,34.78Z" fill="#fff" opacity="0.5" style="mix-blend-mode:overlay"/><path d="M388,789.33l68.62,36.14q9.6-47.4,21.12-96.69,3.79-16.15,7.67-32c1.24-21.43-5.85-41.47-18.13-50.93-15.86-12.22-38.1-5-50.66,18.82Z" fill="#534741"/><path d="M388,789.33,416.62,664.7C414.31,687,411,711.23,406.24,737c-3,16.32-6.3,31.67-9.73,46l56.69,32.12q5.13-12.21,10.25-24.41-3.4,17.36-6.83,34.72Z" fill="#fff" opacity="0.5" style="mix-blend-mode:overlay"/><path d="M518.48,619.16a74,74,0,0,0,32,28.8c25.14,11.55,48.33,4.47,54.36,2.52,24.77-8,37.66-26,41.4-31.68l-16.92-7.56c-2.51,3.33-16.29,20.93-40.68,23.76-32.27,3.75-53.12-21.82-54.36-23.4Z" fill="#fff" opacity="0.5" style="mix-blend-mode:overlay"/><g id="bb"><g id="g1691"><path id="path1656" d="M744.18,469.51v28.73c0,8.62.31,13.18-5.63,19-21.23,20.85-38.85,31-63.11,42.2-25.27,11.62-61.17,20.93-83.62,24.43l-3.81.6,1.6,5.69,3.8-.6c23.5-3.67,59.64-13,86.11-25.17,24.65-11.33,43.47-22.27,65.22-43.63,7.31-7.19,7.22-14,7.22-22.54V469.51Z" fill="#333"/><path id="path1658" d="M750.16,469.51v28.12c0,8.55.09,15.35-7.22,22.54-21.75,21.36-40.57,32.3-65.22,43.63-21.66,10-48.39,18-70.78,22.62a3.81,3.81,0,0,1-3.67-1.65,6.42,6.42,0,0,1-.84-2.78c-1.94.39-3.84.75-5.65,1.07v5.05c-1.78.31-3.51.6-5.16.86l-2.26.35.24.86,3.81-.6c23.5-3.67,59.64-13,86.11-25.17,24.65-11.33,43.47-22.26,65.22-43.63,7.31-7.19,7.22-14,7.22-22.54V469.51Z"/><path id="path1662" d="M604,589.53l-4.32.8L598.15,581l3.13-.25Z" fill="gray"/><path id="path1664" d="M561.67,597.94a24.14,24.14,0,0,0,9.83.93,56.33,56.33,0,0,0,9.65-2,179,179,0,0,0,18.62-6.19l-.84-5.07-.84-5.08A199.84,199.84,0,0,0,578,578a59.64,59.64,0,0,0-10-.13,22.23,22.23,0,0,0-9.22,2.69,11.47,11.47,0,0,0-4.19,4.17,8.13,8.13,0,0,0-1,5.16,9.39,9.39,0,0,0,2.65,4.82,14.2,14.2,0,0,0,5.43,3.27Z" fill="#4d4d4d"/><path id="path1666" d="M596.82,580.36a19.25,19.25,0,0,1-7.17,9.93,29.44,29.44,0,0,1-11.89,5.13,34.62,34.62,0,0,1-13.38,0A29.71,29.71,0,0,1,554,591.2a9.92,9.92,0,0,0,2.27,3.47,14.2,14.2,0,0,0,5.43,3.27,24.11,24.11,0,0,0,9.82.93,57.21,57.21,0,0,0,9.66-2,181.38,181.38,0,0,0,18.62-6.2l-.84-5.07-.84-5.08C597.67,580.49,597.24,580.43,596.82,580.36Z" fill="#333"/><path id="path1668" d="M573,577.69a43.88,43.88,0,0,0-5,.14,22.23,22.23,0,0,0-9.22,2.69,12.51,12.51,0,0,0-2.92,2.43,16.69,16.69,0,0,0,5,4.45,24.58,24.58,0,0,0,25-.65,14.56,14.56,0,0,0,5.77-7.23c-4.52-.67-9.08-1.2-13.66-1.56C576.34,577.83,574.67,577.72,573,577.69Z" fill="#666"/><path id="path1670" d="M579.51,580.57c0,.92-2.59,1.66-5.78,1.66s-5.78-.74-5.78-1.66,2.59-1.67,5.78-1.67,5.78.74,5.78,1.67Z" fill="gray"/><path id="path1672" d="M598.56,580.93l-.41,0,1.56,9.37,4.32-.8-.52-1.66a.92.92,0,0,1-.68.87c-1.87.72-2.48-.16-2.64-.6A25.75,25.75,0,0,1,598.56,580.93Z" fill="#666"/><path id="path1674" d="M601.28,580.72l-2.08.16a18.12,18.12,0,0,0,1.33,5.78,2.52,2.52,0,0,0,.4.71,1.21,1.21,0,0,0,.34.29,1.5,1.5,0,0,0,.46.17,1.6,1.6,0,0,0,.69,0,3,3,0,0,0,.61-.26c.11-.07.2-.16.3-.23Z" fill="#999"/><path id="path1676" d="M601.6,583.39c.33,1.35.41,2.47.19,2.5s-.67-1-1-2.39-.41-2.47-.19-2.5S601.27,582,601.6,583.39Z" fill="#ccc"/><path id="path1678" d="M615.59,581c-.14-.4,25-4.68,54.46-17.17,5.13-2.17,10.34-4.56,15.59-7.21a241.89,241.89,0,0,0,25.46-14.8c19.89-13.26,30.75-24.71,31.14-24.5.17.09-9.75,12-29.7,25.69A219.86,219.86,0,0,1,687,558.05c-5.3,2.67-10.57,5.08-15.77,7.24-30.26,12.59-55.53,15.87-55.59,15.68Z" fill="#565656"/></g><path id="path1585" d="M579.42,200.18c-28.76,0-57.24,8.68-82.14,24.07-44.75,27.65-77.16,77.3-86.45,132.42l-1.16,6.87,12.63,2.53,1.16-6.88c8.58-50.88,38.85-97.25,80.16-122.77,23-14.25,49.42-22.25,75.8-22.25s52.75,8,75.8,22.25c41.3,25.52,71.58,71.89,80.15,122.77l1.16,6.88,12.63-2.53L748,356.67c-9.29-55.12-41.7-104.77-86.45-132.42C636.65,208.86,608.17,200.18,579.42,200.18Z"/><path id="path1601" d="M579.42,200.18c-28.76,0-57.24,8.68-82.14,24.07-44.75,27.65-77.16,77.3-86.45,132.42l-.59,3.5,8.45,1.65,1.18-6.88c8.78-50.88,39.75-97.25,82-122.78,23.57-14.24,50.56-22.25,77.54-22.25s54,8,77.54,22.25c42.26,25.53,73.23,71.9,82,122.78l1.19,6.88,8.44-1.65-.59-3.5c-9.29-55.12-41.7-104.77-86.45-132.42C636.65,208.86,608.17,200.18,579.42,200.18Z" fill="#333"/><g id="g1555"><path id="path1456" d="M775.82,397.53a15.23,15.23,0,0,0-2.89.28v54.93a15.23,15.23,0,0,0,2.89.28,14.29,14.29,0,0,0,14.46-14.17V411.7A14.29,14.29,0,0,0,775.82,397.53Z" fill="#3095ae"/><path id="path1532" d="M775.82,397.53a15.23,15.23,0,0,0-2.89.28V421.7l.4,6.32a20.85,20.85,0,0,0,12.35-13,23.59,23.59,0,0,0,.34-13.4A14.61,14.61,0,0,0,775.82,397.53Z" fill="#329eba"/><path id="path1507" d="M789,405.84c.4,6.18.55,12.39.39,18.58a35.7,35.7,0,0,1-1,8.65,12.67,12.67,0,0,1-4.48,7,8.26,8.26,0,0,1-5.79,1.47l-5.2,6.34v4.82a15.23,15.23,0,0,0,2.89.28,14.29,14.29,0,0,0,14.46-14.17V411.7A14,14,0,0,0,789,405.84Z" fill="#257487"/><path id="path1454" d="M733.15,497.55V353c-11.17,6.41-21.78,15-18.87,34.82s1.87,54.67,0,74.91S722,491.14,733.15,497.55Z" fill="#0b2228"/><path id="path1450" d="M755.23,352.8A29.85,29.85,0,0,0,744,350.4a31.12,31.12,0,0,0-10.8,3.7V496.45a31.12,31.12,0,0,0,10.8,3.7,41.91,41.91,0,0,0,4.95-.49,40.63,40.63,0,0,0,6.33-1.91Z" fill="#502d16"/><path id="path1467" d="M741,350.11a40.4,40.4,0,0,0-7.84.77V499.67a40.4,40.4,0,0,0,7.84.77,39.52,39.52,0,0,0,18.49-4.71V354.82A39.52,39.52,0,0,0,741,350.11Zm23.26,7.61V492.83a37.92,37.92,0,0,0,15.91-30.78V388.49A37.92,37.92,0,0,0,764.25,357.72Z" fill="#2c89a0"/><path id="rect1439" d="M759.48,356.71V493.84a41.23,41.23,0,0,0,4.77-2.82V359.53a39.86,39.86,0,0,0-4.77-2.82Z" fill="#236c7e"/><path id="path1475" d="M714.72,457.22c-.15,1.88-.29,3.81-.44,5.51-1.87,20.24,7.7,28.41,18.87,34.82V471.16a47.24,47.24,0,0,1-16.72-11.94C715.84,458.57,715.27,457.9,714.72,457.22Z" fill="#040d0f"/><path id="path1483" d="M780.16,459.15a52.5,52.5,0,0,1-15.91,11.57v22.11a37.92,37.92,0,0,0,15.91-30.78Zm-47,11.28v29.24a40.4,40.4,0,0,0,7.84.77,39.52,39.52,0,0,0,18.49-4.71V472.65a46.91,46.91,0,0,1-6.22,1.69,31.66,31.66,0,0,1-9.1.63,19.84,19.84,0,0,1-8.71-2.78A16.7,16.7,0,0,1,733.15,470.43Z" fill="#257487"/><path id="path1499" d="M764.25,466.81l-.39.18a11,11,0,0,1-4.38.77v26.08a39.86,39.86,0,0,0,4.77-2.82Z" fill="#1a5260"/><path id="path1516" d="M741,350.11a40.4,40.4,0,0,0-7.84.77v33.75a47.5,47.5,0,0,1,26.33,1.68V354.82A39.52,39.52,0,0,0,741,350.11Zm23.26,7.61v30.55a53.74,53.74,0,0,1,15.91,11.52v-11.3A37.92,37.92,0,0,0,764.25,357.72Z" fill="#329eba"/><path id="path1524" d="M739.18,358.82v9a35.47,35.47,0,0,1,16.2,1.26,36.81,36.81,0,0,1,4.1,1.63v-5.6a38.81,38.81,0,0,0-4.3-2.54A36.41,36.41,0,0,0,739.18,358.82Zm25.07,10.08v4.49a39.23,39.23,0,0,1,9.83,9.17A42.29,42.29,0,0,0,764.25,368.9Z" fill="#71bfd2"/><path id="path1540" d="M784,401.65c.71.86.94,1.9.52,2.31s-1.34,0-2-.82-.94-1.9-.52-2.31S783.33,400.78,784,401.65Z" fill="#71bfd2"/></g><g id="g1583"><path id="path1557" d="M384.62,397.53a15.23,15.23,0,0,1,2.89.28v54.93a15.23,15.23,0,0,1-2.89.28,14.29,14.29,0,0,1-14.46-14.17V411.7A14.29,14.29,0,0,1,384.62,397.53Z" fill="#3095ae"/><path id="path1559" d="M384.62,397.53a15.23,15.23,0,0,1,2.89.28V421.7l-.4,6.32a20.85,20.85,0,0,1-12.35-13,23.59,23.59,0,0,1-.34-13.4A14.61,14.61,0,0,1,384.62,397.53Z" fill="#329eba"/><path id="path1561" d="M371.45,405.84c-.4,6.18-.55,12.39-.39,18.58a35.7,35.7,0,0,0,1,8.65,12.67,12.67,0,0,0,4.48,7,8.26,8.26,0,0,0,5.79,1.47l5.2,6.34v4.82a15.23,15.23,0,0,1-2.89.28,14.29,14.29,0,0,1-14.46-14.17V411.7A14,14,0,0,1,371.45,405.84Z" fill="#257487"/><path id="path1563" d="M427.29,497.55V353c11.17,6.41,21.78,15,18.87,34.82s-1.87,54.67,0,74.91S438.46,491.14,427.29,497.55Z" fill="#0b2228"/><path id="path1565" d="M405.21,352.8a29.85,29.85,0,0,1,11.28-2.4,31.12,31.12,0,0,1,10.8,3.7V496.45a31.12,31.12,0,0,1-10.8,3.7,41.91,41.91,0,0,1-4.95-.49,40.63,40.63,0,0,1-6.33-1.91Z" fill="#502d16"/><path id="path1567" d="M419.45,350.11a40.4,40.4,0,0,1,7.84.77V499.67a40.4,40.4,0,0,1-7.84.77A39.52,39.52,0,0,1,401,495.73V354.82A39.52,39.52,0,0,1,419.45,350.11Zm-23.26,7.61V492.83a37.92,37.92,0,0,1-15.91-30.78V388.49A37.92,37.92,0,0,1,396.19,357.72Z" fill="#2c89a0"/><path id="path1569" d="M401,356.71V493.84a41.23,41.23,0,0,1-4.77-2.82V359.53a39.86,39.86,0,0,1,4.77-2.82Z" fill="#236c7e"/><path id="path1571" d="M445.72,457.22c.15,1.88.29,3.81.44,5.51,1.87,20.24-7.7,28.41-18.87,34.82V471.16A47.24,47.24,0,0,0,444,459.22C444.6,458.57,445.17,457.9,445.72,457.22Z" fill="#040d0f"/><path id="path1573" d="M380.28,459.15a52.5,52.5,0,0,0,15.91,11.57v22.11a37.92,37.92,0,0,1-15.91-30.78Zm47,11.28v29.24a40.4,40.4,0,0,1-7.84.77A39.52,39.52,0,0,1,401,495.73V472.65a46.91,46.91,0,0,0,6.22,1.69,31.66,31.66,0,0,0,9.1.63,19.84,19.84,0,0,0,8.71-2.78A16.7,16.7,0,0,0,427.29,470.43Z" fill="#257487"/><path id="path1575" d="M396.19,466.81l.39.18a11,11,0,0,0,4.38.77v26.08a39.86,39.86,0,0,1-4.77-2.82Z" fill="#1a5260"/><path id="path1577" d="M419.45,350.11a40.4,40.4,0,0,1,7.84.77v33.75A47.5,47.5,0,0,0,401,386.31V354.82A39.52,39.52,0,0,1,419.45,350.11Zm-23.26,7.61v30.55a53.74,53.74,0,0,0-15.91,11.52v-11.3A37.92,37.92,0,0,1,396.19,357.72Z" fill="#329eba"/><path id="path1579" d="M421.26,358.82v9a35.47,35.47,0,0,0-16.2,1.26,36.06,36.06,0,0,0-4.1,1.63v-5.6a38.81,38.81,0,0,1,4.3-2.54A36.41,36.41,0,0,1,421.26,358.82ZM396.19,368.9v4.49a39.23,39.23,0,0,0-9.83,9.17A42.29,42.29,0,0,1,396.19,368.9Z" fill="#71bfd2"/><path id="ellipse1581" d="M376.4,401.65c-.71.86-.94,1.9-.52,2.31s1.34,0,2.05-.82.94-1.9.52-2.31S377.11,400.78,376.4,401.65Z" fill="#71bfd2"/></g><path id="path1607" d="M579.42,189.87A150.24,150.24,0,0,0,493,217.76c-6.42,4.43-8.33,13.69-4.27,20.68s12.57,9.08,19,4.65l.26-.19a122.34,122.34,0,0,1,143,0c6.31,4.62,14.86,2.8,19.1-4.06s2.58-16.19-3.73-20.81l-.38-.27A150.29,150.29,0,0,0,579.42,189.87Z" fill="#2c89a0"/><path id="path1613" d="M579.42,214.56a128,128,0,0,0-69,20.44,13.29,13.29,0,0,1-20.11-14.82,16,16,0,0,0,.72,21.19,12.9,12.9,0,0,0,16.93,1.53,122.34,122.34,0,0,1,143,0c6.32,4.6,14.87,2.75,19.09-4.13a16,16,0,0,0-1.38-18.56A13.3,13.3,0,0,1,648.44,235,128,128,0,0,0,579.42,214.56Z" fill="#236c7e"/><path id="path1618" d="M506.52,215.46c-.51-1.19,6.48-6.83,19.59-12.37a136.35,136.35,0,0,1,53.77-10.41H580A136.51,136.51,0,0,1,633.53,204c13,5.76,19.89,11.51,19.36,12.7-.65,1.44-8.58-1.82-21.56-5.52A191.92,191.92,0,0,0,580,203.4h-.15a191.88,191.88,0,0,0-51.59,6.92c-13.06,3.48-21.06,6.62-21.69,5.15Z" fill="#71bfd2"/></g></g></g></g></svg>