<svg xmlns="http://www.w3.org/2000/svg" viewBox="0 0 398.99 994.68"><g style="isolation:isolate"><g id="costumes"><g id="_3" data-name="3"><path d="M477.85,996.93a659.65,659.65,0,0,0-.34,199.07,82.34,82.34,0,0,1,5.06,26.41c.19,9.56-.59,16.81.54,32.12.31,4.24.69,7.69.95,9.9-.15,4.3-.46,10.79-1.21,18.64-1.67,17.47-3.56,21.4-5,33.7a186,186,0,0,0,.2,45.7c.53,4,2.75,19.35,1.21,28.54-1.07,6.33-2.5,12.57-2.5,12.57-1,4.21-1,3.6-1.12,4.71-.44,3.84,5.54,20.73,5.54,20.73.26.74.68,2,1.18,3.47-.28,3.45-.63,8.17-.95,13.8-.52,9.09-.39,10.62.24,12.11,1.8,4.3,6.38,5.1,16.51,7,20.43,3.81,27.22,5.46,35.79,1.86,5.36-2.25,6.71-4.4,6.91-6.11.42-3.73-4.59-5.92-4.09-10,.37-3,3.22-3,4.82-7.33,1.15-3.08-.71-5,.59-8.39a11.13,11.13,0,0,1,2.29-3.49c4.86-5.7,7.3-8.55,7.5-9,2.64-5.53-3.42-11.24-4.51-22.57-.6-6.32.72-10.42,2.5-17.71,1.62-6.64,7.37-30.17,8.07-55.77a246.85,246.85,0,0,0-1.12-28.59c-.9-10.88-2.19-20.11-3.36-27.18a69,69,0,0,0,2.77-7.3,78.44,78.44,0,0,0,3.45-25.36c-.09-14.21,2.74-28.3,3.7-42.48,2.44-36,6.12-38.65,13-100.15,1.69-15.19,2.54-24.69,3.67-37.44,2.36-26.35,3-39.5,3-45.36-.27-28.28-15-52.86-35.42-60.86C521.27,941.83,488.24,960.27,477.85,996.93Z" transform="translate(-373.92 -586.04)" fill="#47658a" stroke="#000" stroke-miterlimit="10" stroke-width="2.12"/><path d="M506,1113.93a359.21,359.21,0,0,1,6.06,47.86,362.59,362.59,0,0,1-.56,50.55,11.26,11.26,0,0,1-5.69,3.47,10.91,10.91,0,0,1-8.78-2,40.88,40.88,0,0,1-8.4-11C470.78,1168.67,504.28,1116.53,506,1113.93Z" transform="translate(-373.92 -586.04)" fill="#293d4f" stroke="#000" stroke-miterlimit="10" stroke-width="1.41"/><path d="M475.51,1127.16c-.26,15.93-1.15,33-2.95,50.95q-1.17,11.7-2.7,22.69a33.66,33.66,0,0,0,10.38,9.32,29,29,0,0,0,16.78,3.72,422.36,422.36,0,0,0,4.35-42.89,427.46,427.46,0,0,0-.06-43.52Z" transform="translate(-373.92 -586.04)" fill="#47658a" stroke="#000" stroke-miterlimit="10" stroke-width="1.41"/><path d="M475,1097.76a38.89,38.89,0,0,0,12.75,9.28,34.82,34.82,0,0,0,22.08,2,79.55,79.55,0,0,1-2.23,19.09,75.38,75.38,0,0,1-4.52,13.14l-34.32-8.21A62.48,62.48,0,0,0,474,1118,66,66,0,0,0,475,1097.76Z" transform="translate(-373.92 -586.04)" fill="#364e68" stroke="#000" stroke-miterlimit="10" stroke-width="1.41"/><path d="M482.57,1252.32a152.89,152.89,0,0,0,9.75,16.54,143.25,143.25,0,0,0,14.14,17.7c-4.12-3.07-8.44-6.57-12.86-10.55-2.72-2.45-5.26-4.9-7.65-7.3a6.87,6.87,0,0,0,.56-1.87,6.53,6.53,0,0,0,.05-1.36Z" transform="translate(-373.92 -586.04)" fill="#fff" opacity="0.5" style="mix-blend-mode:overlay"/><path d="M557.83,1257.71q-4.29,6.3-9.21,12.87-6,8-11.88,14.89a51.1,51.1,0,0,0,9.94-6.48,55.17,55.17,0,0,0,4.89-4.61,48.91,48.91,0,0,0,3.65-7.48A52.34,52.34,0,0,0,557.83,1257.71Z" transform="translate(-373.92 -586.04)" fill="#fff" opacity="0.5" style="mix-blend-mode:overlay"/><path d="M499.53,1266.93c.64-.64,5.71,9.75,16.24,12.76,8.91,2.54,16.09-1.8,16.35-.84s-8.35,8.13-17.35,5.85C504.08,1282,498.8,1267.65,499.53,1266.93Z" transform="translate(-373.92 -586.04)" fill="#fff" opacity="0.5" style="mix-blend-mode:overlay"/><path d="M484.41,1392.41c-1.29,1,1.94,13.67,10.69,20.4,10.79,8.28,25.44,4.1,25.56,2.25.1-1.56-10-.72-21.79-8.92C489.26,1399.44,485.5,1391.53,484.41,1392.41Z" transform="translate(-373.92 -586.04)" fill="#fff" opacity="0.5" style="mix-blend-mode:overlay"/><path d="M517.84,1406.73c-.09-1.21,5.5-.94,12.76-5.77,9.38-6.25,12.35-14.89,13.73-14s.35,12.32-6.47,18.29C529.92,1412.15,518,1408.47,517.84,1406.73Z" transform="translate(-373.92 -586.04)" fill="#fff" opacity="0.5" style="mix-blend-mode:overlay"/><path d="M476,1412.21a26,26,0,0,0,12.13,8.88l.39.15c2.37.89,12.19,4.45,20.29,5.07,1.85.15,4.66.22,7,2.42,1.57,1.45,1.74,2.72,3,3.08,2,.55,3.62-2,6.34-4,3.2-2.27,5.89-2.16,9.62-2.7a59.51,59.51,0,0,0,17.7-5.74,4.2,4.2,0,0,1,0,1.73,3.86,3.86,0,0,1-.48,1.24,31.66,31.66,0,0,1-4.16,5.64,57.61,57.61,0,0,0-5.74,6.64c-2.73.62-6.68,1.43-11.49,2a133.93,133.93,0,0,1-31.51-.06c-3.26-.32-7.37-.83-12.12-1.63a26.36,26.36,0,0,1-8.27-10.28A30.8,30.8,0,0,1,476,1412.21Z" transform="translate(-373.92 -586.04)" fill="#fff" opacity="0.5" style="mix-blend-mode:overlay"/><g opacity="0.4"><path d="M486.41,1435a226,226,0,0,0,56.22-.27,102.4,102.4,0,0,1-56.22.27Z" transform="translate(-373.92 -586.04)"/></g><path d="M412.35,1550.42c-.63,7.59,4.07,14,5.14,15.47,1.78,2.44,5.5,6.51,19.44,9.66,8.29,1.88,18.67,4.23,32.38,1.69,9.37-1.73,16.1-5,26.47-10,12.54-6,10.08-6.66,17.93-9.8,15.57-6.23,26-4.06,33.26-13.79a15.89,15.89,0,0,0,2.91-5.82c1.58-6.5-1.92-11.31-5-20a105,105,0,0,1-5.31-26.37,79.77,79.77,0,0,0-3.41-19.34c-1.65-5.12-2.84-6.73-4.11-6.88-2.81-.33-3.78,6.73-8.76,9.59-4.23,2.43-9,.43-11.75-.76-11.71-5-12.35-16.93-20.43-17.49-4.38-.31-8.8,2.88-10.78,6.7s-.81,6.87-1.37,11.75c-.77,6.72-4.19,11.28-10.55,18.73-9.82,11.48-14.73,17.22-21.44,23.18C423.86,1537.49,413.24,1539.69,412.35,1550.42Z" transform="translate(-373.92 -586.04)" fill="#fbfbfa"/><path d="M416.48,1554.2a27.86,27.86,0,0,0,11.79,8.55c6.17,2.16,13.82,1.75,30.51-8.15,22.92-13.6,22.08-20.89,38.91-27.31,10.58-4,19.42-7.42,27.65-3.18,2.27,1.17,5.74,3.56,10.6,3.27,4.7-.28,8.45-2.94,10.93-5.21.46,1.47.92,2.95,1.39,4.42-4,6-8.06,8.83-10.94,10.29-8.36,4.24-13.6.39-20.64,5.83-4.72,3.65-3.11,6-7.64,9.52-8,6.28-13.59-.46-22.83,4.84-6.69,3.85-5.21,8.22-13.21,12.42-2.13,1.11-8.15,4.16-15.1,2.37-4.09-1-4-2.62-8.27-4.27-8.31-3.18-12.5,1.23-19.26-.46C426.78,1566.24,421.72,1563.43,416.48,1554.2Z" transform="translate(-373.92 -586.04)" fill="#a6b9bf"/><path d="M500.09,1548.76q3.86-5.61,7.73-11.21c1.71-2.25,1.56-5.12.59-6.06s-3.49-.52-5,2.1l-6.46,9.54a4,4,0,0,0-.71,5.12A2.63,2.63,0,0,0,500.09,1548.76Z" transform="translate(-373.92 -586.04)" fill="#ec1c24"/><path d="M512.18,1544.7l7.72-11.22c1.72-2.25,1.57-5.11.6-6s-3.49-.53-5,2.1l-6.46,9.53a4,4,0,0,0-.72,5.13A2.64,2.64,0,0,0,512.18,1544.7Z" transform="translate(-373.92 -586.04)" fill="#ec1c24"/><path d="M443.55,1519.89a40.77,40.77,0,0,0,10.9,7.34c3.73,1.69,9,4.1,15.7,3a24.89,24.89,0,0,0,9-3.68c6.12-4,9-9.15,14.6-18.42,2.94-4.88,7.39-12.15,13.18-21.16a21.39,21.39,0,0,0,12.62-1.93,25.19,25.19,0,0,0,8-6.3,46.09,46.09,0,0,1,.85,21.39,40.81,40.81,0,0,1-9.23,19.06,20.34,20.34,0,0,0,7.93,2,21.65,21.65,0,0,0,13.69-4.4l5.59,5.43a82.93,82.93,0,0,1-5.53-19.82c-.43-3-.89-7.38-1.58-13.86-.65-6.25-.94-9.63-2.3-14.1-.27-.9-.74-4.56-3.07-7.56-.71-.9-1.18-1.49-1.89-1.57-2-.22-2.76,3.87-5.94,7a12.81,12.81,0,0,1-8.27,3.63c-4.12.22-7.18-1.92-9.79-3.75a38.44,38.44,0,0,1-7.84-7.82c-3.72-4.54-3.59-5.69-5.65-6.83a9.56,9.56,0,0,0-10.17,1.08c-3.92,2.91-4.94,7.86-5.27,9.5-.84,4.1.34,5.14-.3,9.05-.55,3.32-2.31,5.91-5.8,10.95a129.25,129.25,0,0,1-10,12.34c-1.56,1.77-3.25,3.71-5.54,6.14A188.4,188.4,0,0,1,443.55,1519.89Z" transform="translate(-373.92 -586.04)" fill="#c2cecc"/><path d="M453.18,1518.29c-.84-3.75,9-5.81,17.25-17.66,3.56-5.08,9.88-14.11,10.75-24.94a25.86,25.86,0,0,1,2.69-10.52c1-1.92,2.65-5,5.43-5.8,4.4-1.22,9.71,4,11.21,9.63.68,2.55.68,5.58-1.79,12.9-2.3,6.8-5.11,12.5-11.62,23.12-9.33,15.21-11.93,17.14-14.87,17.88-3.21.8-6.58.12-9.68-.51C457.76,1521.41,453.69,1520.59,453.18,1518.29Z" transform="translate(-373.92 -586.04)" fill="#95aab1"/><path d="M451.1,1516.07c-2.56-2.51-2.46-3.81-2.34-4.27.71-2.73,8.48-1.91,9.27-1.82,2.57.54,5.28,1.21,8.09,2a113.22,113.22,0,0,1,12.15,4.31c2,.77,3.22,2.46,3.1,3.75-.15,1.53-2.35,3.23-5.27,2.5a68.88,68.88,0,0,1-13.73-2.32A71.84,71.84,0,0,1,451.1,1516.07Z" transform="translate(-373.92 -586.04)" fill="#f1f7f8" stroke="#000" stroke-miterlimit="10" stroke-width="1.44"/><path d="M456.93,1508.55c-2.55-2.51-2.45-3.8-2.33-4.27.7-2.73,8.48-1.9,9.26-1.82,2.58.55,5.28,1.21,8.09,2a111.13,111.13,0,0,1,12.15,4.3c2,.77,3.23,2.46,3.1,3.75-.15,1.53-2.35,3.24-5.27,2.5a68.79,68.79,0,0,1-13.72-2.32A72,72,0,0,1,456.93,1508.55Z" transform="translate(-373.92 -586.04)" fill="#f1f7f8" stroke="#000" stroke-miterlimit="10" stroke-width="1.44"/><path d="M463.37,1500.43c-2.55-2.52-2.45-3.81-2.33-4.27.7-2.73,8.48-1.91,9.26-1.82q3.87.81,8.09,2a114.69,114.69,0,0,1,12.15,4.3c2,.78,3.23,2.47,3.1,3.75-.15,1.53-2.35,3.24-5.27,2.5a68,68,0,0,1-13.72-2.31A72.36,72.36,0,0,1,463.37,1500.43Z" transform="translate(-373.92 -586.04)" fill="#f1f7f8" stroke="#000" stroke-miterlimit="10" stroke-width="1.44"/><path d="M468.67,1491.63c-2.55-2.52-2.45-3.81-2.33-4.27.71-2.73,8.48-1.91,9.26-1.82,2.58.54,5.29,1.21,8.09,2a113.47,113.47,0,0,1,12.16,4.3c2,.78,3.22,2.47,3.1,3.75-.16,1.53-2.35,3.24-5.28,2.5a67.38,67.38,0,0,1-13.72-2.32A71.39,71.39,0,0,1,468.67,1491.63Z" transform="translate(-373.92 -586.04)" fill="#f1f7f8" stroke="#000" stroke-miterlimit="10" stroke-width="1.44"/><path d="M474.78,1483.15c-2.55-2.51-2.45-3.8-2.33-4.27.71-2.73,8.48-1.91,9.26-1.82,2.58.54,5.28,1.21,8.09,2a110.38,110.38,0,0,1,12.15,4.3c2,.77,3.23,2.46,3.1,3.75-.15,1.53-2.35,3.23-5.27,2.5a68.79,68.79,0,0,1-13.72-2.32A72.36,72.36,0,0,1,474.78,1483.15Z" transform="translate(-373.92 -586.04)" fill="#f1f7f8" stroke="#000" stroke-miterlimit="10" stroke-width="1.44"/><path d="M675.13,1000.31A656.83,656.83,0,0,1,682.85,1103a657.17,657.17,0,0,1-7.39,96,81.84,81.84,0,0,0-5.05,26.37c-.2,9.54.58,16.78-.55,32.07-.31,4.23-.68,7.67-1,9.88.15,4.3.46,10.77,1.21,18.61,1.67,17.44,3.56,21.36,5,33.64a186,186,0,0,1-.21,45.62c-.53,3.94-2.75,19.31-1.2,28.49,1.06,6.32,2.49,12.55,2.49,12.55,1,4.2,1,3.59,1.12,4.7.44,3.84-5.53,20.7-5.53,20.7-.27.74-.69,1.94-1.19,3.46.28,3.44.63,8.16.95,13.77.52,9.08.39,10.6-.23,12.09-1.81,4.3-6.39,5.09-16.52,7-20.43,3.81-27.22,5.45-35.79,1.86-5.36-2.25-6.71-4.4-6.91-6.11-.42-3.72,4.59-5.91,4.09-10-.37-3-3.22-3-4.82-7.32-1.14-3.07.72-5-.59-8.38a11.2,11.2,0,0,0-2.29-3.48c-4.86-5.69-7.3-8.54-7.5-9-2.64-5.52,3.42-11.21,4.51-22.53.6-6.31-.72-10.4-2.5-17.67-1.62-6.63-7.36-30.12-8.07-55.68a246,246,0,0,1,1.12-28.54c.9-10.86,2.19-20.07,3.37-27.13a67.47,67.47,0,0,1-2.78-7.29,78.16,78.16,0,0,1-3.45-25.31c.09-14.21-2.85-28.23-3.7-42.41-3-50.44-7.86-95.91-7.86-95.91-.79-10-2.27-25.35-5.18-44-4.35-27.93-7-31.63-6.56-42.74.72-20,11.46-51.4,35.43-60.75C631.71,945.3,664.73,963.71,675.13,1000.31Z" transform="translate(-373.92 -586.04)" fill="#47658a" stroke="#000" stroke-miterlimit="10" stroke-width="2.11"/><path d="M647,1117.1a360.66,360.66,0,0,0-5.5,98.25,11.4,11.4,0,0,0,5.69,3.46,11,11,0,0,0,8.78-2,41,41,0,0,0,8.4-11C682.19,1171.75,648.69,1119.69,647,1117.1Z" transform="translate(-373.92 -586.04)" fill="#293d4f" stroke="#000" stroke-miterlimit="10" stroke-width="1.41"/><path d="M677.46,1130.31c.26,15.9,1.15,32.91,2.95,50.86q1.17,11.68,2.7,22.65a33.58,33.58,0,0,1-10.37,9.3,29.17,29.17,0,0,1-16.79,3.72,420.6,420.6,0,0,1-4.28-86.26Z" transform="translate(-373.92 -586.04)" fill="#47658a" stroke="#000" stroke-miterlimit="10" stroke-width="1.41"/><path d="M678,1101a38.88,38.88,0,0,1-12.75,9.26,34.89,34.89,0,0,1-22.08,2,79.14,79.14,0,0,0,2.23,19,75,75,0,0,0,4.52,13.13l34.33-8.2a61.91,61.91,0,0,1-5.23-15.07A65.6,65.6,0,0,1,678,1101Z" transform="translate(-373.92 -586.04)" fill="#364e68" stroke="#000" stroke-miterlimit="10" stroke-width="1.41"/><path d="M670.4,1255.25a151.05,151.05,0,0,1-9.75,16.51,144.62,144.62,0,0,1-14.13,17.68c4.11-3.07,8.43-6.57,12.85-10.54,2.72-2.45,5.27-4.89,7.65-7.29a6.76,6.76,0,0,1-.56-1.87,7.17,7.17,0,0,1-.05-1.35Z" transform="translate(-373.92 -586.04)" fill="#fff" opacity="0.5" style="mix-blend-mode:overlay"/><path d="M595.14,1260.64q4.29,6.28,9.22,12.84,6,8,11.87,14.86a50.67,50.67,0,0,1-9.93-6.47,54,54,0,0,1-4.9-4.6,48.3,48.3,0,0,1-3.65-7.47A52.11,52.11,0,0,1,595.14,1260.64Z" transform="translate(-373.92 -586.04)" fill="#fff" opacity="0.5" style="mix-blend-mode:overlay"/><path d="M653.45,1269.84c-.65-.64-5.72,9.73-16.25,12.73-8.91,2.54-16.09-1.79-16.34-.84s8.34,8.12,17.34,5.85C648.89,1284.88,654.17,1270.56,653.45,1269.84Z" transform="translate(-373.92 -586.04)" fill="#fff" opacity="0.5" style="mix-blend-mode:overlay"/><path d="M668.57,1395.09c1.28,1-2,13.66-10.7,20.37-10.79,8.27-25.44,4.09-25.56,2.24-.09-1.54,10.05-.71,21.79-8.89C663.71,1402.12,667.47,1394.22,668.57,1395.09Z" transform="translate(-373.92 -586.04)" fill="#fff" opacity="0.5" style="mix-blend-mode:overlay"/><path d="M635.13,1409.39c.1-1.2-5.49-.93-12.75-5.76-9.39-6.23-12.36-14.86-13.74-14s-.34,12.3,6.47,18.26C623.05,1414.81,635,1411.13,635.13,1409.39Z" transform="translate(-373.92 -586.04)" fill="#fff" opacity="0.5" style="mix-blend-mode:overlay"/><path d="M677,1414.86a25.92,25.92,0,0,1-12.13,8.87l-.38.15c-2.38.88-12.2,4.44-20.3,5.06-1.85.15-4.66.21-7,2.41-1.57,1.46-1.73,2.73-3,3.08-2,.55-3.61-2-6.34-4-3.2-2.26-5.89-2.15-9.62-2.68a60.2,60.2,0,0,1-17.7-5.74,4.16,4.16,0,0,0,0,1.72,3.42,3.42,0,0,0,.49,1.24,31.38,31.38,0,0,0,4.15,5.64,58.79,58.79,0,0,1,5.75,6.62,116.17,116.17,0,0,0,11.48,2,134.38,134.38,0,0,0,31.51-.07c3.26-.32,7.37-.82,12.12-1.63a26.34,26.34,0,0,0,8.28-10.26A30.81,30.81,0,0,0,677,1414.86Z" transform="translate(-373.92 -586.04)" fill="#fff" opacity="0.5" style="mix-blend-mode:overlay"/><g opacity="0.4"><path d="M666.56,1437.57a102.59,102.59,0,0,1-56.22-.28,227,227,0,0,0,56.22.28Z" transform="translate(-373.92 -586.04)"/></g><path d="M740.62,1552.83c.63,7.58-4.06,14-5.13,15.45-1.79,2.43-5.51,6.49-19.45,9.64-8.29,1.88-18.67,4.23-32.38,1.69-9.37-1.73-16.1-5-26.47-9.95-12.54-6-10.08-6.65-17.93-9.78-15.57-6.22-26-4.05-33.26-13.76a15.89,15.89,0,0,1-2.91-5.82c-1.58-6.48,1.92-11.28,5-20a104.21,104.21,0,0,0,5.31-26.32,79.51,79.51,0,0,1,3.41-19.31c1.65-5.11,2.84-6.72,4.12-6.87,2.8-.32,3.78,6.72,8.75,9.57,4.23,2.43,9,.43,11.75-.75,11.71-5,12.35-16.9,20.43-17.47,4.38-.3,8.8,2.88,10.78,6.7s.81,6.86,1.37,11.72c.78,6.71,4.19,11.27,10.55,18.7,9.82,11.46,14.73,17.19,21.44,23.14C729.11,1539.93,739.74,1542.12,740.62,1552.83Z" transform="translate(-373.92 -586.04)" fill="#fbfbfa"/><path d="M736.49,1556.61a27.93,27.93,0,0,1-11.79,8.54c-6.17,2.15-13.82,1.74-30.51-8.15-22.92-13.57-22.08-20.84-38.91-27.26-10.57-4-19.42-7.41-27.65-3.17-2.27,1.17-5.74,3.56-10.6,3.26-4.7-.28-8.45-2.94-10.93-5.2-.46,1.47-.92,2.94-1.39,4.42,4,6,8.06,8.81,10.94,10.27,8.36,4.23,13.6.39,20.64,5.82,4.72,3.64,3.11,5.95,7.65,9.5,8,6.27,13.58-.46,22.82,4.84,6.69,3.83,5.22,8.2,13.21,12.39,2.13,1.11,8.15,4.15,15.1,2.37,4.09-1,4-2.62,8.27-4.26,8.31-3.18,12.51,1.22,19.26-.46C726.19,1568.62,731.25,1565.82,736.49,1556.61Z" transform="translate(-373.92 -586.04)" fill="#a6b9bf"/><path d="M652.88,1551.18q-3.86-5.61-7.72-11.2c-1.72-2.24-1.57-5.1-.6-6s3.49-.53,5,2.1l6.46,9.51a4,4,0,0,1,.72,5.12A2.64,2.64,0,0,1,652.88,1551.18Z" transform="translate(-373.92 -586.04)" fill="#ec1c24"/><path d="M640.79,1547.12l-7.72-11.19c-1.72-2.25-1.57-5.11-.6-6s3.5-.52,5,2.1l6.46,9.52a4,4,0,0,1,.72,5.11A2.64,2.64,0,0,1,640.79,1547.12Z" transform="translate(-373.92 -586.04)" fill="#ec1c24"/><path d="M709.42,1522.36a40.6,40.6,0,0,1-10.9,7.32c-3.73,1.69-9,4.09-15.69,3a24.56,24.56,0,0,1-9-3.68c-6.13-3.94-9-9.13-14.61-18.39-2.94-4.86-7.39-12.12-13.17-21.11a21.58,21.58,0,0,1-12.63-1.93,25,25,0,0,1-8-6.29,45.74,45.74,0,0,0-.86,21.35,40.7,40.7,0,0,0,9.24,19,20.57,20.57,0,0,1-7.94,2,21.73,21.73,0,0,1-13.69-4.4l-5.59,5.42a82.6,82.6,0,0,0,5.53-19.78c.43-3,.89-7.37,1.58-13.84.66-6.24.94-9.61,2.3-14.07.27-.9.74-4.56,3.07-7.55.71-.9,1.18-1.49,1.9-1.57,2-.22,2.76,3.86,5.93,7a12.8,12.8,0,0,0,8.27,3.62c4.12.22,7.18-1.91,9.79-3.74a38.62,38.62,0,0,0,7.84-7.8c3.72-4.54,3.59-5.68,5.66-6.82,3.17-1.76,7.22-1.11,10.16,1.07,3.93,2.91,4.94,7.85,5.27,9.49.84,4.09-.34,5.13.3,9,.55,3.32,2.31,5.9,5.8,10.93A131,131,0,0,0,690,1503c1.56,1.77,3.25,3.7,5.55,6.13A188.36,188.36,0,0,0,709.42,1522.36Z" transform="translate(-373.92 -586.04)" fill="#c2cecc"/><path d="M699.8,1520.76c.83-3.74-9-5.8-17.26-17.63-3.55-5.07-9.88-14.09-10.74-24.9a26,26,0,0,0-2.69-10.5c-1-1.91-2.66-5-5.44-5.79-4.4-1.21-9.71,4-11.21,9.61-.68,2.56-.68,5.58,1.79,12.88,2.3,6.8,5.11,12.49,11.62,23.08,9.33,15.18,11.93,17.11,14.87,17.85,3.21.8,6.58.12,9.68-.51C695.22,1523.88,699.28,1523.06,699.8,1520.76Z" transform="translate(-373.92 -586.04)" fill="#95aab1"/><path d="M701.88,1518.54c2.55-2.51,2.45-3.8,2.33-4.26-.71-2.73-8.48-1.9-9.26-1.81-2.58.54-5.29,1.2-8.09,2a113.51,113.51,0,0,0-12.16,4.29c-2,.77-3.22,2.46-3.1,3.74.16,1.53,2.35,3.24,5.28,2.5a68.79,68.79,0,0,0,13.72-2.32A71.39,71.39,0,0,0,701.88,1518.54Z" transform="translate(-373.92 -586.04)" fill="#f1f7f8" stroke="#000" stroke-miterlimit="10" stroke-width="1.43"/><path d="M696,1511c2.55-2.51,2.45-3.8,2.33-4.27-.7-2.72-8.48-1.9-9.26-1.81q-3.87.81-8.09,2a113.31,113.31,0,0,0-12.15,4.29c-2,.78-3.23,2.46-3.1,3.75.15,1.52,2.35,3.23,5.27,2.49a68.19,68.19,0,0,0,13.73-2.31A72.26,72.26,0,0,0,696,1511Z" transform="translate(-373.92 -586.04)" fill="#f1f7f8" stroke="#000" stroke-miterlimit="10" stroke-width="1.43"/><path d="M689.6,1502.93c2.55-2.51,2.45-3.8,2.33-4.27-.7-2.72-8.48-1.9-9.26-1.81q-3.87.81-8.09,2a113.31,113.31,0,0,0-12.15,4.29c-2,.78-3.23,2.46-3.1,3.75.15,1.53,2.35,3.23,5.27,2.49a68,68,0,0,0,13.72-2.31A71,71,0,0,0,689.6,1502.93Z" transform="translate(-373.92 -586.04)" fill="#f1f7f8" stroke="#000" stroke-miterlimit="10" stroke-width="1.43"/><path d="M684.3,1494.14c2.55-2.51,2.45-3.8,2.33-4.26-.71-2.73-8.48-1.9-9.26-1.81-2.58.54-5.28,1.2-8.09,2a110.43,110.43,0,0,0-12.15,4.29c-2,.77-3.23,2.46-3.1,3.74.15,1.53,2.35,3.24,5.27,2.5A68.79,68.79,0,0,0,673,1498.3,71.39,71.39,0,0,0,684.3,1494.14Z" transform="translate(-373.92 -586.04)" fill="#f1f7f8" stroke="#000" stroke-miterlimit="10" stroke-width="1.43"/><path d="M678.19,1485.68c2.55-2.51,2.45-3.8,2.33-4.26-.7-2.73-8.48-1.9-9.26-1.81-2.58.54-5.28,1.2-8.09,2a113.27,113.27,0,0,0-12.15,4.3c-2,.77-3.23,2.46-3.1,3.74.15,1.53,2.35,3.23,5.27,2.5a68.79,68.79,0,0,0,13.72-2.32A71,71,0,0,0,678.19,1485.68Z" transform="translate(-373.92 -586.04)" fill="#f1f7f8" stroke="#000" stroke-miterlimit="10" stroke-width="1.43"/><path d="M525.47,1002.85c-4.26,10.67-.34,25.86.61,29.56.14.55.35,1.34.64,2.32h0a100,100,0,0,0,13,23.08c7.25,8.92,25.67,15.68,41.42,11.71,28.14-7.09,43.36-47.3,31.35-68.21C596.1,972.84,532.56,985.09,525.47,1002.85Z" transform="translate(-373.92 -586.04)" fill="#47658a"/><path d="M546.62,1058.26a66.83,66.83,0,0,0,62.87,1.35c-2.54,2.68-13.68,13.79-30.76,13.81C560.5,1073.44,548.87,1060.81,546.62,1058.26Z" transform="translate(-373.92 -586.04)" fill="#040000"/><path d="M467.62,969Q466.3,981.93,465,994.8A168.12,168.12,0,0,0,499.71,1019c26.65,13.8,49.9,16.09,66,17.51a208.62,208.62,0,0,0,36.58,0l-7.48-26.57a181.73,181.73,0,0,1-65-8.15A201.51,201.51,0,0,1,467.62,969Z" transform="translate(-373.92 -586.04)" fill="#fff"/><path d="M465,975.48c1-9.09,2.14-21.72,3-36.83,1.61-28.64,3.43-63.77-2.16-108.41-2.34-18.74-5.3-42.38-14.4-71.8-9.19-29.71-13.8-44.56-17.08-51.35a109.08,109.08,0,0,1-11.24-35.61c-1-7.76-1.46-11.64-.24-15.36,4.92-15,28.21-19.52,58.13-24.94,33.39-6.06,50.31-9.38,60.3-1.64,8.24,6.39,27.57,27.83,32.91,29.59a37.64,37.64,0,0,0,9.48,1.81q5.73,179.29,11.47,358.61a178.13,178.13,0,0,1-83.79-15.09A199.4,199.4,0,0,1,465,975.48Z" transform="translate(-373.92 -586.04)" fill="#534741"/><path d="M587,660.94c1-2-1.54-6-5.57-12.18a76.79,76.79,0,0,0-14.79-16.6c-8.74-7.59-9.18-5.68-15-11.37-5.25-5.17-5-6.85-13.63-17.91-10.92-14-14.1-14.83-16-15-6.28-.53-11.35,5.2-12.46,6.54-3.95,4.73-2.33,7.23-6.9,16.2-4.26,8.34-7.18,9.12-7.9,15-.14,1.11-.78,7.13,2.16,11.37,2.73,3.93,6.62,3.54,14.46,4.73,7.54,1.14,14.84,3.92,22.28,5.73l18.12,4.43C575.1,658.11,585.21,664.37,587,660.94Z" transform="translate(-373.92 -586.04)" fill="#534741"/><path d="M587,660.94a173.47,173.47,0,0,0-16.29-7.05c-20-7.47-26.5-5.58-39.56-12.47-12.65-6.68-23.66-17.45-22.61-20.13.49-1.26,4-1.55,19,4.23-8.33-6-12.79-16.39-11.31-25.76A22.84,22.84,0,0,1,522,587.89c-5,.69-9.31,2.68-12.46,6.54-3.7,4.5-2.43,7.44-6.9,16.2-4.26,8.34-7.18,9.12-7.9,15-.14,1.11-.78,7.13,2.16,11.37,2.73,3.93,6.62,3.54,14.46,4.73,7.54,1.14,14.84,3.92,22.28,5.73,17.51,4.27,16.25,3.89,18.12,4.43,6,1.74,18.64,5.63,23.69,7.55,1.82.69,3.71,1.08,5.53,1.81.23.09,1.19.31,3.09.75a2.55,2.55,0,0,0,2.25-.15A2.4,2.4,0,0,0,587,660.94Z" transform="translate(-373.92 -586.04)" fill="#fff" opacity="0.5" style="mix-blend-mode:overlay"/><path d="M588.15,812.17a386.88,386.88,0,0,1-81.29-7.85A399.14,399.14,0,0,1,460.72,792c9,33.11,10.68,58.41,10.73,74.56,0,14.09-1.15,36.75-1.25,38.63-.59,11-1.26,20-2.49,36.23-1.08,14.18-2,25.92-2.75,34.11,14.88,11.95,38.33,27.66,69.49,36.83a182.22,182.22,0,0,0,60.68,7.24L592,936.24A325,325,0,0,0,524.14,931c-13.63.44-29,1.87-34.91-8.85-2.32-4.25-3-12.22-4.32-28.17a124.24,124.24,0,0,0-2-18.92c-.36-1.79-.7-3.25-.93-4.21l-7.47,16.59h0a291.22,291.22,0,0,0,17.87-47.2,305.46,305.46,0,0,0,7-30.48l10.81,1.3c4.94,4.45,12.32,10.88,21.61,18.12,8.33,6.49,19.65,14.76,20.28,13.68,1-1.68-25.13-23.49-22.94-28.17.64-1.37,3.24-.32,19.62,4.42C562.24,823,572.28,825.73,582,828c3.09.71,5.64,1.26,7.31,1.61Q588.72,820.88,588.15,812.17Z" transform="translate(-373.92 -586.04)" fill="#fff" opacity="0.5" style="mix-blend-mode:overlay"/><g opacity="0.4"><path d="M467,951a194,194,0,0,0,56.85,26.26,178.22,178.22,0,0,0,70.32,4.83l1,37.43a186.81,186.81,0,0,1-71.82-11.17A208.63,208.63,0,0,1,465,975.48Q466,963.26,467,951Z" transform="translate(-373.92 -586.04)" fill="none" stroke="#000" stroke-miterlimit="10" stroke-width="1.52"/><path d="M477.6,957.57q-1.41,12.67-2.83,25.35" transform="translate(-373.92 -586.04)" fill="none" stroke="#000" stroke-miterlimit="10" stroke-width="1.52"/><path d="M487.41,962.4l-3,27.17" transform="translate(-373.92 -586.04)" fill="none" stroke="#000" stroke-miterlimit="10" stroke-width="1.52"/><path d="M496.05,967l-4,27.57" transform="translate(-373.92 -586.04)" fill="none" stroke="#000" stroke-miterlimit="10" stroke-width="1.52"/><path d="M502.7,970.25q-1.9,13.88-3.82,27.77" transform="translate(-373.92 -586.04)" fill="none" stroke="#000" stroke-miterlimit="10" stroke-width="1.52"/><path d="M511.51,972.86q-2.58,14.7-5.15,29.38" transform="translate(-373.92 -586.04)" fill="none" stroke="#000" stroke-miterlimit="10" stroke-width="1.52"/><path d="M519.66,976.69q-1.75,14.17-3.49,28.37" transform="translate(-373.92 -586.04)" fill="none" stroke="#000" stroke-miterlimit="10" stroke-width="1.52"/><path d="M528.13,978.3,526,1008.89" transform="translate(-373.92 -586.04)" fill="none" stroke="#000" stroke-miterlimit="10" stroke-width="1.52"/><path d="M536.78,980.71l-1.5,31.4" transform="translate(-373.92 -586.04)" fill="none" stroke="#000" stroke-miterlimit="10" stroke-width="1.52"/><path d="M546.25,982.12q-.4,16.5-.83,33" transform="translate(-373.92 -586.04)" fill="none" stroke="#000" stroke-miterlimit="10" stroke-width="1.52"/><path d="M557.23,983.33q-.35,16.8-.67,33.6" transform="translate(-373.92 -586.04)" fill="none" stroke="#000" stroke-miterlimit="10" stroke-width="1.52"/><path d="M567.53,983.33q.09,17.8.17,35.62" transform="translate(-373.92 -586.04)" fill="none" stroke="#000" stroke-miterlimit="10" stroke-width="1.52"/><path d="M577.84,983.53l.5,35.62" transform="translate(-373.92 -586.04)" fill="none" stroke="#000" stroke-miterlimit="10" stroke-width="1.52"/><path d="M589.64,982.72l1.17,36.83" transform="translate(-373.92 -586.04)" fill="none" stroke="#000" stroke-miterlimit="10" stroke-width="1.52"/><path d="M468.29,932.61c33,19.31,70.31,31.65,108.59,34,5.46.4,10.94.55,16.42.59-5.48.3-11,.31-16.46.16-38.47-1.3-76.37-13.74-108.55-34.78Z" transform="translate(-373.92 -586.04)"/></g><path d="M474.69,852l-.5,36.22a362.15,362.15,0,0,0,18.7-49.51c3.07-10.33,5.52-20.21,7.48-29.48l-11.8-1.81q-3.46,10.89-6.9,21.94Q478.13,840.75,474.69,852Z" transform="translate(-373.92 -586.04)" fill="#fff" opacity="0.6" style="mix-blend-mode:overlay"/><path d="M553.37,633.37a208.38,208.38,0,0,0-2.49,46.08c.68,11.33,1.93,15.37,2.33,30.39.36,13.82-.24,27.17-.5,32.2-.22,4.26-.47,7.85-.67,10.46-.18,3,1.36,5.57,3.16,6,2.21.57,5-1.9,5.15-5.84a206.3,206.3,0,0,0,1.17-32.4c-.16-3.48-.66-9.7-1.66-22.13-1.26-15.6-1.58-18.33-1.83-21.94a181.72,181.72,0,0,1,2-40.85c0-2.33-1.44-4.22-3.16-4.43A3.55,3.55,0,0,0,553.37,633.37Z" transform="translate(-373.92 -586.04)" fill="#f2f3f8" stroke="#000" stroke-miterlimit="10" stroke-width="1.52"/><path d="M553.29,754.92q-.09,9.26-.17,18.51c0,2.39,1.59,4,2.83,3.82s2.59-2.22,2.08-4.62l.25-17.91Z" transform="translate(-373.92 -586.04)" fill="#f2f3f8" stroke="#000" stroke-miterlimit="10" stroke-width="1.52"/><path d="M552.46,744.65l8.39.2" transform="translate(-373.92 -586.04)" fill="none" stroke="#000" stroke-miterlimit="10" stroke-width="1.52"/><path d="M553.29,731.87l8.14.61" transform="translate(-373.92 -586.04)" fill="none" stroke="#000" stroke-miterlimit="10" stroke-width="1.52"/><path d="M553.37,720.2l7.9.71" transform="translate(-373.92 -586.04)" fill="none" stroke="#000" stroke-miterlimit="10" stroke-width="1.52"/><path d="M553.37,707.32h7.15" transform="translate(-373.92 -586.04)" fill="none" stroke="#000" stroke-miterlimit="10" stroke-width="1.52"/><path d="M552.21,692.53l6.81-.3" transform="translate(-373.92 -586.04)" fill="none" stroke="#000" stroke-miterlimit="10" stroke-width="1.52"/><path d="M551.13,677.74l6.81-.5" transform="translate(-373.92 -586.04)" fill="none" stroke="#000" stroke-miterlimit="10" stroke-width="1.52"/><path d="M550.71,663.25l6.74.2" transform="translate(-373.92 -586.04)" fill="none" stroke="#000" stroke-miterlimit="10" stroke-width="1.52"/><path d="M551.63,648.76l6.65.2" transform="translate(-373.92 -586.04)" fill="none" stroke="#000" stroke-miterlimit="10" stroke-width="1.52"/><path d="M499.85,639.6a10,10,0,0,1-3.32-3.06,15.69,15.69,0,0,0-4.5,3.67c-1.07,1.25-3.73,4.27-3.49,6.24.69,5.71,18.1,7.23,33.25,8.45,17.56,1.42,24.38,1.08,40.89,3.22,6.44.83,11.7,1.73,15.17,2.36-8.41-3.07-15.36-5.22-20.2-6.64-1.77-.52-.36-.09-17.33-4.68-6.43-1.74-12.91-3.2-19.29-5.2a50.58,50.58,0,0,0-5.64-1.51c-2.6-.53-5.5-.91-7.13-1.12-1.44-.18-2.16-.25-3.58-.49C501.12,640.26,500.22,639.8,499.85,639.6Z" transform="translate(-373.92 -586.04)" fill="#fff" opacity="0.81" style="mix-blend-mode:overlay"/><path d="M688,967.23q1.32,12.87,2.66,25.76A205.33,205.33,0,0,1,656,1017.14c-11,6.05-28.92,15.67-53.67,19.32a137.22,137.22,0,0,1-48.54-1.61q6.81-12.69,13.63-25.36a193.45,193.45,0,0,0,58.49-9.56A213.4,213.4,0,0,0,688,967.23Z" transform="translate(-373.92 -586.04)" fill="#fff"/><path d="M690.7,973.67c-.86-8.72-2-21.44-3-36.83-3.47-54.11-5.36-81.15,0-113.5a332,332,0,0,1,17.19-62.54c9.73-24.79,16.42-31.49,20.25-52.07,2.55-13.72,6.88-37.07-3.48-56.07-12.83-23.51-40.6-26.46-65.79-29.13-21.29-2.26-31.94-3.39-41.48,4.2-7.81,6.22-27.27,27.73-32.91,29.58a37.75,37.75,0,0,1-9.48,1.82q-5.73,179.29-11.47,358.61a178.13,178.13,0,0,0,83.79-15.09A199.4,199.4,0,0,0,690.7,973.67Z" transform="translate(-373.92 -586.04)" fill="#534741"/><path d="M575.3,659.13c-1-2,1.54-6,5.57-12.18a76.79,76.79,0,0,1,14.79-16.6c8.74-7.59,9.18-5.68,15-11.37,5.25-5.17,5-6.85,13.63-17.91,10.92-14,14.1-14.83,16-15,6.28-.52,11.35,5.2,12.46,6.54,4,4.74,2.33,7.24,6.9,16.2,4.26,8.35,7.17,9.13,7.9,15,.14,1.11.78,7.13-2.16,11.37-2.73,3.93-6.62,3.54-14.46,4.73-7.54,1.13-14.84,3.92-22.28,5.73-11.69,2.85-17.54,4.27-18.12,4.43C587.15,656.3,577,662.55,575.3,659.13Z" transform="translate(-373.92 -586.04)" fill="#534741"/><path d="M575.3,659.13a173.47,173.47,0,0,1,16.29-7c20-7.47,26.5-5.58,39.56-12.48,12.65-6.67,23.66-17.44,22.61-20.12-.49-1.26-4-1.55-19,4.23,8.33-6,12.79-16.39,11.3-25.76a22.81,22.81,0,0,0-5.81-11.88c5,.7,9.31,2.69,12.46,6.54,3.7,4.51,2.43,7.45,6.9,16.2,4.26,8.35,7.17,9.13,7.9,15,.14,1.11.78,7.13-2.16,11.37-2.73,3.93-6.62,3.54-14.46,4.73-7.54,1.13-14.84,3.92-22.28,5.73-17.51,4.27-16.25,3.89-18.12,4.43-6,1.74-18.64,5.62-23.69,7.55-1.82.69-3.71,1.08-5.53,1.81-.23.09-1.19.31-3.09.75A2.55,2.55,0,0,1,576,660,2.4,2.4,0,0,1,575.3,659.13Z" transform="translate(-373.92 -586.04)" fill="#fff" opacity="0.5" style="mix-blend-mode:overlay"/><path d="M567.12,811.77a432.82,432.82,0,0,0,81.68-9.26,442.25,442.25,0,0,0,46.14-12.38c-9,33.12-10.68,58.42-10.73,74.56,0,14.1,1.15,36.76,1.25,38.64.59,11,1.26,20,2.49,36.23,1.08,14.18,2,25.92,2.75,34.11-15.06,12-38.5,27.56-69.49,36.83a186.57,186.57,0,0,1-60.66,7.74q1.38-43,2.75-85.93a430.35,430.35,0,0,1,68.22-3.12c13.81.51,29.08,1.8,34.91-8.85,2.32-4.25,3-12.22,4.32-28.18a124.27,124.27,0,0,1,2-18.91c.36-1.79.7-3.25.93-4.21l7.47,16.58a290.72,290.72,0,0,1-17.87-47.19,305,305,0,0,1-7-30.49l-10.81,1.31c-4.94,4.45-12.32,10.88-21.61,18.11-8.33,6.5-19.64,14.77-20.28,13.69-1-1.68,25.13-23.49,22.94-28.18-.46-1-2-1-19.62,4.43-15,4.62-22.63,7.3-33.35,7.25a64.12,64.12,0,0,1-6.86-.41Z" transform="translate(-373.92 -586.04)" fill="#fff" opacity="0.5" style="mix-blend-mode:overlay"/><g opacity="0.4"><path d="M688.7,949.22a218.29,218.29,0,0,1-56.85,26.26,201.53,201.53,0,0,1-69.55,7.85l-.09,33.91a182.71,182.71,0,0,0,70.14-10.67,204.3,204.3,0,0,0,58.35-32.9Q689.7,961.45,688.7,949.22Z" transform="translate(-373.92 -586.04)" fill="none" stroke="#000" stroke-miterlimit="10" stroke-width="1.52"/><path d="M678.06,955.76q1.41,12.68,2.83,25.35" transform="translate(-373.92 -586.04)" fill="none" stroke="#000" stroke-miterlimit="10" stroke-width="1.52"/><path d="M668.25,960.59l3,27.16" transform="translate(-373.92 -586.04)" fill="none" stroke="#000" stroke-miterlimit="10" stroke-width="1.52"/><path d="M659.61,965.22l4,27.57" transform="translate(-373.92 -586.04)" fill="none" stroke="#000" stroke-miterlimit="10" stroke-width="1.52"/><path d="M653,968.44q1.92,13.88,3.82,27.77" transform="translate(-373.92 -586.04)" fill="none" stroke="#000" stroke-miterlimit="10" stroke-width="1.52"/><path d="M644.15,971.05q2.58,14.7,5.15,29.38" transform="translate(-373.92 -586.04)" fill="none" stroke="#000" stroke-miterlimit="10" stroke-width="1.52"/><path d="M636,974.88q1.75,14.18,3.5,28.37" transform="translate(-373.92 -586.04)" fill="none" stroke="#000" stroke-miterlimit="10" stroke-width="1.52"/><path d="M627.53,976.49l2.16,30.58" transform="translate(-373.92 -586.04)" fill="none" stroke="#000" stroke-miterlimit="10" stroke-width="1.52"/><path d="M618.88,978.9l1.5,31.39" transform="translate(-373.92 -586.04)" fill="none" stroke="#000" stroke-miterlimit="10" stroke-width="1.52"/><path d="M609.41,980.31q.4,16.5.83,33" transform="translate(-373.92 -586.04)" fill="none" stroke="#000" stroke-miterlimit="10" stroke-width="1.52"/><path d="M598.43,981.52q.35,16.8.67,33.6" transform="translate(-373.92 -586.04)" fill="none" stroke="#000" stroke-miterlimit="10" stroke-width="1.52"/><path d="M588.13,981.52q-.09,17.81-.17,35.62" transform="translate(-373.92 -586.04)" fill="none" stroke="#000" stroke-miterlimit="10" stroke-width="1.52"/><path d="M577.82,981.72l-.5,35.62" transform="translate(-373.92 -586.04)" fill="none" stroke="#000" stroke-miterlimit="10" stroke-width="1.52"/><path d="M564.85,1017.74" transform="translate(-373.92 -586.04)" fill="none" stroke="#000" stroke-miterlimit="10" stroke-width="1.52"/><path d="M566,980.91" transform="translate(-373.92 -586.04)" fill="none" stroke="#000" stroke-miterlimit="10" stroke-width="1.52"/><path d="M687.37,930.8c-32.17,21-70.08,33.48-108.55,34.78-5.49.15-11,.14-16.46-.16,5.48,0,11-.19,16.42-.59,38.29-2.38,75.55-14.72,108.59-34Z" transform="translate(-373.92 -586.04)"/></g><path d="M681,850.21l.5,36.22a362.15,362.15,0,0,1-18.7-49.51c-3.07-10.33-5.52-20.21-7.48-29.48l11.8-1.81q3.46,10.89,6.9,21.94Q677.53,838.94,681,850.21Z" transform="translate(-373.92 -586.04)" fill="#fff" opacity="0.6" style="mix-blend-mode:overlay"/><path d="M608.88,631.55a208.49,208.49,0,0,1,2.49,46.09C610.69,689,609.44,693,609,708c-.37,13.82.24,27.17.5,32.2.22,4.26.47,7.85.67,10.46.18,3-1.36,5.57-3.16,6-2.21.57-5-1.9-5.15-5.84a206.3,206.3,0,0,1-1.17-32.4c.16-3.48.66-9.7,1.66-22.13,1.26-15.6,1.58-18.33,1.83-21.94a181.72,181.72,0,0,0-2-40.85c0-2.34,1.44-4.22,3.16-4.43A3.55,3.55,0,0,1,608.88,631.55Z" transform="translate(-373.92 -586.04)" fill="#f2f3f8" stroke="#000" stroke-miterlimit="10" stroke-width="1.52"/><path d="M609,753.11q.09,9.25.17,18.51c0,2.39-1.59,4-2.83,3.82s-2.59-2.22-2.08-4.63L604,752.9Z" transform="translate(-373.92 -586.04)" fill="#f2f3f8" stroke="#000" stroke-miterlimit="10" stroke-width="1.52"/><path d="M609.79,742.84l-8.39.2" transform="translate(-373.92 -586.04)" fill="none" stroke="#000" stroke-miterlimit="10" stroke-width="1.52"/><path d="M609,730.06l-8.15.61" transform="translate(-373.92 -586.04)" fill="none" stroke="#000" stroke-miterlimit="10" stroke-width="1.52"/><path d="M608.88,718.39l-7.9.71" transform="translate(-373.92 -586.04)" fill="none" stroke="#000" stroke-miterlimit="10" stroke-width="1.52"/><path d="M608.88,705.51h-7.15" transform="translate(-373.92 -586.04)" fill="none" stroke="#000" stroke-miterlimit="10" stroke-width="1.52"/><path d="M610,690.72l-6.81-.3" transform="translate(-373.92 -586.04)" fill="none" stroke="#000" stroke-miterlimit="10" stroke-width="1.52"/><path d="M611.12,675.93l-6.81-.5" transform="translate(-373.92 -586.04)" fill="none" stroke="#000" stroke-miterlimit="10" stroke-width="1.52"/><path d="M611.54,661.44l-6.74.2" transform="translate(-373.92 -586.04)" fill="none" stroke="#000" stroke-miterlimit="10" stroke-width="1.52"/><path d="M610.62,647l-6.65.2" transform="translate(-373.92 -586.04)" fill="none" stroke="#000" stroke-miterlimit="10" stroke-width="1.52"/><path d="M662.4,637.79a10,10,0,0,0,3.32-3.06,15.69,15.69,0,0,1,4.5,3.67c1.07,1.24,3.73,4.27,3.49,6.24-.69,5.71-18.1,7.23-33.25,8.45-17.56,1.41-24.38,1.08-40.89,3.22-6.44.83-11.7,1.73-15.17,2.36,8.41-3.07,15.36-5.23,20.2-6.64,1.77-.52.36-.09,17.33-4.68,6.43-1.74,12.91-3.2,19.29-5.2a50.58,50.58,0,0,1,5.64-1.51c2.6-.54,5.5-.91,7.13-1.12,1.44-.18,2.16-.25,3.58-.49C661.13,638.44,662,638,662.4,637.79Z" transform="translate(-373.92 -586.04)" fill="#fff" opacity="0.81" style="mix-blend-mode:overlay"/><path d="M753.11,969a117.54,117.54,0,0,0-19.3,6.81L726,955.78c.76-.59,1.59-1.19,2.48-1.8,1.12-.76,2.2-1.42,3.23-2a394.77,394.77,0,0,1-28.26-96.66c-5.92-20.32-9.74-34.88-12.18-44.72-.61-2.45-1.57-6.57-3.27-12.09-3-9.8-6.24-17.27-10.26-28.12-10.12-27.33-16.79-44.84-18.53-67-1.55-19.67-3.24-41.14,9-55.28,11.94-13.83,33.54-16.39,47.13-6.28a24.77,24.77,0,0,1,2.93,2.62c8.72,8.61,14.24,20.7,18.1,46,.89,5.84,1.63,14.69,3.12,32.4,1.79,21.31,1.61,23.77,2.88,35.76,1.07,10.11,1.88,14.79,5,35.76,1.58,10.49,3.92,26.13,6.72,45.6a144.22,144.22,0,0,1,8,36.24c.79,9.32.29,14.74.36,30.6.06,14.31.54,26,.93,33.61l2.94-.34,6.66,25.61A118.46,118.46,0,0,0,753.11,969Z" transform="translate(-373.92 -586.04)" fill="#534741"/><path d="M759.72,942.19q2.91,11.38,5.81,22.78" transform="translate(-373.92 -586.04)" fill="none" stroke="#000" stroke-miterlimit="10" stroke-width="2.16" opacity="0.4"/><path d="M751.78,944.32q3,11,6.08,21.94" transform="translate(-373.92 -586.04)" fill="none" stroke="#000" stroke-miterlimit="10" stroke-width="2.16" opacity="0.4"/><path d="M744.55,946.07l6.54,21.81" transform="translate(-373.92 -586.04)" fill="none" stroke="#000" stroke-miterlimit="10" stroke-width="2.16" opacity="0.4"/><path d="M738.12,949.56q3.42,10.28,6.85,20.55" transform="translate(-373.92 -586.04)" fill="none" stroke="#000" stroke-miterlimit="10" stroke-width="2.16" opacity="0.4"/><path d="M732,952.78q3.27,9.44,6.56,18.88" transform="translate(-373.92 -586.04)" fill="none" stroke="#000" stroke-miterlimit="10" stroke-width="2.16" opacity="0.4"/><path d="M771.53,964.72c-3.89.39-8,1-12.28,1.84a122.82,122.82,0,0,0-24.9,7.87q-3.57-9.12-7.13-18.24a80.35,80.35,0,0,1,16.84-9.5,78.37,78.37,0,0,1,21.38-5.46Z" transform="translate(-373.92 -586.04)" fill="none" stroke="#352e2a" stroke-miterlimit="10" stroke-width="2.16"/><path d="M702,822c6.27,18,8.53,31.29,11.52,47,3.68,19.37,9.45,47.58,18.18,83a361.29,361.29,0,0,1-22.26-65.22c-2.61-11-4.56-21.52-6-31.44-3.78-13.22-6.68-24-8.64-31.44-2.62-10-3.61-14.14-5.68-21.2-3.46-11.82-6.87-21.21-9.2-27.28A242.24,242.24,0,0,1,702,822Z" transform="translate(-373.92 -586.04)" fill="#fff" opacity="0.5" style="mix-blend-mode:overlay"/><path d="M393.72,968.61A119.35,119.35,0,0,1,413,975.35q3.92-9.93,7.85-19.85c-.76-.58-1.59-1.18-2.48-1.78-1.12-.75-2.2-1.41-3.23-2a387.84,387.84,0,0,0,28.26-95.69c5.93-20.12,9.74-34.54,12.19-44.28.6-2.42,1.56-6.5,3.26-12,3-9.7,6.24-17.1,10.26-27.84,10.12-27.06,16.79-44.39,18.53-66.34,1.55-19.46,3.24-40.73-8.95-54.72-12-13.7-33.55-16.23-47.14-6.22a24.32,24.32,0,0,0-2.93,2.59c-8.72,8.53-14.24,20.5-18.1,45.54-.89,5.79-1.63,14.55-3.12,32.08-1.79,21.1-1.61,23.54-2.88,35.4-1.07,10-1.88,14.64-5,35.4-1.58,10.39-3.91,25.88-6.72,45.15a141.5,141.5,0,0,0-8,35.88c-.79,9.22-.29,14.59-.36,30.29-.06,14.17-.54,25.7-.93,33.28l-2.94-.35-6.66,25.36A119.14,119.14,0,0,1,393.72,968.61Z" transform="translate(-373.92 -586.04)" fill="#534741"/><path d="M387.11,942q-2.91,11.28-5.81,22.56" transform="translate(-373.92 -586.04)" fill="none" stroke="#000" stroke-miterlimit="10" stroke-width="2.15" opacity="0.4"/><path d="M395.05,944.16Q392,955,389,965.87" transform="translate(-373.92 -586.04)" fill="none" stroke="#000" stroke-miterlimit="10" stroke-width="2.15" opacity="0.4"/><path d="M402.28,945.89l-6.54,21.59" transform="translate(-373.92 -586.04)" fill="none" stroke="#000" stroke-miterlimit="10" stroke-width="2.15" opacity="0.4"/><path d="M408.71,949.34l-6.85,20.35" transform="translate(-373.92 -586.04)" fill="none" stroke="#000" stroke-miterlimit="10" stroke-width="2.15" opacity="0.4"/><path d="M414.89,952.53l-6.57,18.69" transform="translate(-373.92 -586.04)" fill="none" stroke="#000" stroke-miterlimit="10" stroke-width="2.15" opacity="0.4"/><path d="M375.3,964.35A124.29,124.29,0,0,1,412.49,974q3.56-9,7.13-18.06a80.52,80.52,0,0,0-16.85-9.41,79.09,79.09,0,0,0-21.38-5.4Z" transform="translate(-373.92 -586.04)" fill="none" stroke="#352e2a" stroke-miterlimit="10" stroke-width="2.15"/><path d="M444.87,823c-6.27,17.78-8.53,31-11.52,46.57-3.68,19.17-9.45,47.1-18.18,82.15a354.54,354.54,0,0,0,22.26-64.57c2.61-10.89,4.56-21.3,6-31.12,3.78-13.09,6.68-23.77,8.64-31.13,2.62-9.85,3.61-14,5.68-21,3.46-11.7,6.87-21,9.2-27A238.79,238.79,0,0,0,444.87,823Z" transform="translate(-373.92 -586.04)" fill="#fff" opacity="0.5" style="mix-blend-mode:overlay"/></g></g></g></svg>