<svg xmlns="http://www.w3.org/2000/svg" viewBox="0 0 375.45 974.58"><g style="isolation:isolate"><g id="costumes"><g id="_4" data-name="4"><path d="M473.58,962.05a586.82,586.82,0,0,0-3.14,85.08c.06,1.69.15,3.47.31,7,1.39,29.42,3.33,69.38,8.63,116.93,1,9,2.55,22,4.76,37.81.12,3,.29,7.56.43,13.09.21,8.6.16,12,.43,18.42.14,3.28.39,7.94.86,13.58-7.18,40-7.13,71.55-5.66,93.36.91,13.49,2.32,22.89,6.57,65.93,2.11,21.31,3.71,38.86,4.75,50.65a63.11,63.11,0,0,0,45.24.14c4.76-29.61,8.34-53.93,10.88-71.92,1.27-9,3-22,6.48-48,2.63-19.69,2.78-21.1,3-23.46.79-9,.66-16.36-.16-52.2-.12-5.26-.23-9.68-.31-12.9a74.92,74.92,0,0,0,6.05-23.75,77.13,77.13,0,0,0-.86-19.88c.69-5.68,1.89-14.49,3.89-25.2,1.71-9.16,3.23-15.59,3.88-18.42,1.63-7.09,3.55-17.06,8-60.6,1.25-12.27,2.75-27.68,4.32-45.57-.09-1.24-.19-3.11-.24-5.39-.3-15.14,3.31-26,3.45-30.58a188.27,188.27,0,0,0-2.86-38.9c-12.13-1.4-24.83-3.34-38-5.93A502.28,502.28,0,0,1,473.58,962.05Z" transform="translate(-388 -601.9)" fill="#72b3cd"/><path d="M470.25,1020.13a46.92,46.92,0,0,0,27.21-6.18c19.6-11.38,25.4-33.39,26.41-37.52l10.85,3.15c-1,5.39-5,23.9-20.52,37.81a54.9,54.9,0,0,1-44,13.65Z" transform="translate(-388 -601.9)" fill="#51889a" opacity="0.51"/><path d="M492.89,1247.7c1.57,3.74,6,13.1,15.09,17.76,11.87,6.1,26.71,1.62,37.27-11.46a51.15,51.15,0,0,1-31.13,3.44A54.59,54.59,0,0,1,492.89,1247.7Z" transform="translate(-388 -601.9)" fill="#51889a" opacity="0.51"/><path d="M479.21,1464.84c5.19-.93,13.59-2.39,24.06-4,15.68-2.44,19.57-2.72,23.11-6.88,4.1-4.82,3.73-10.22,5.19-29.22,1-12.66,2.2-28.66,4.71-41.82a104.56,104.56,0,0,1,3.51-13.78c4.4-13.08,8.05-22.4,8.76-24,3.94-9.14,6.56-31.54.75-89.74a45.29,45.29,0,0,0,9.07-17.69,49.75,49.75,0,0,0-.57-26.65l19.8-103.27c-1.15,13.88-2.61,26.32-4.11,37.08-1.11,8-1.77,12.77-3,19.64-2.62,14.38-4.75,21.11-7.08,36.08-.76,4.94-1.27,9-1.56,11.42a75.29,75.29,0,0,1,.43,24.24,72.81,72.81,0,0,1-5.62,19.39l.66,26.13a313.88,313.88,0,0,1-1.44,52.77c-1.37,12.08-3.13,21.73-6.37,38.38-5.25,27-7,31-9.2,45.26a302.7,302.7,0,0,0-3.53,45.93,108.9,108.9,0,0,1-57.55.77Z" transform="translate(-388 -601.9)" fill="#51889a" opacity="0.51"/><path d="M483.12,1428.59q.48,18,.95,35.9a101.26,101.26,0,0,0,55.24.77q1.66-20.25,3.31-40.49Z" transform="translate(-388 -601.9)" fill="#51889a" stroke="#375f68" stroke-miterlimit="10" stroke-width="1.88"/><path d="M483.83,1428.59l6.14,15.66,49.34,21a91.25,91.25,0,0,1-31.16,3.82,92.26,92.26,0,0,1-24.08-4.59Z" transform="translate(-388 -601.9)" fill="#3d6f7a"/><path d="M421,1551.31a84.37,84.37,0,0,0,28.3,11.48c6.2,1.26,22.25,4.32,40.44-2.18,7.33-2.62,9.25-4.74,21.73-12a372.71,372.71,0,0,1,36.89-18.86,185.45,185.45,0,0,0-2.78-35.28c-1-5.87-4.19-23-9.1-23.24-1.87-.08-2.52,2.38-5.81,3.83-4.21,1.86-8.81.31-12.13-1.37a13.75,13.75,0,0,0-1.26-7.93c-2.67-5.17-8.12-6.19-10.11-6.56-.68-.13-9.4-1.62-14.15,4.1-3.26,3.92-1,6.83-4.29,14.49-1.27,2.93-3.54,5.87-8.09,11.76-5.4,7-6.58,7.52-10.11,12.58-4,5.71-4,7.21-6.57,10.94-4,5.84-8.53,8.71-17.44,14.22-15.37,9.5-23.8,11-25.52,18.59A13.25,13.25,0,0,0,421,1551.31Z" transform="translate(-388 -601.9)" fill="#343a12"/><path d="M421,1551.31q-.25,7.38-.5,14.77a90.8,90.8,0,0,0,39.92,10.39c11.21.2,20.24-1.88,27.55-3.56a151.88,151.88,0,0,0,29.56-10.12c-1.86-3.92-.52-7.74,1.27-8.47,1.6-.66,4.38.84,5.81,4.1a45.25,45.25,0,0,0,27.54-11.49,19.18,19.18,0,0,0,.25-9,18.21,18.21,0,0,0-4-8.2c-19.59,9.07-28.49,14-32.6,16.4-4.73,2.79-8.78,5.2-8.78,5.2-9,5.36-9.78,5.86-11.27,6.66a57.05,57.05,0,0,1-18.61,5.92,71.32,71.32,0,0,1-27.8-1.1A88.19,88.19,0,0,1,421,1551.31Z" transform="translate(-388 -601.9)" fill="#000001"/><path d="M544.57,1489.24a38.24,38.24,0,0,0-9.1,10.94c-2.15,3.87-3.78,6.8-3.53,10.66.33,5.27,3.94,8.9,7.32,12.3a34.31,34.31,0,0,0,9.1,6.57,150.54,150.54,0,0,0-3.79-40.47Z" transform="translate(-388 -601.9)" fill="#1e1d21"/><path d="M447.76,1526.7a46.39,46.39,0,0,1,16.2,7A52.71,52.71,0,0,1,478.49,1549a64.55,64.55,0,0,1,6.57,13,77.23,77.23,0,0,1-33.73,1.37,93,93,0,0,1-18.7-6,99.76,99.76,0,0,1-11.63-6,12.88,12.88,0,0,1,.79-7.38c.69-1.53,1.77-3,5-5.44a51.42,51.42,0,0,1,9.29-5.43C439,1531.67,443,1529.6,447.76,1526.7Z" transform="translate(-388 -601.9)" fill="#1e1d24"/><path d="M455.62,1521.57a18.43,18.43,0,0,0,5.31,9.64c6.28,5.68,14.78,3.58,17.62,2.87s6.08-2,14-8.41a156.07,156.07,0,0,0,17.62-16.61,9.54,9.54,0,0,0,10.24-2.66,10.51,10.51,0,0,0,2.46-7.39c-.38-4.94-4.5-8-7.39-9-3.15-1.15-5.32-.13-7.58,0-4.16.23-10.12-2.51-18-15.69a37.08,37.08,0,0,1-2.85,6.26,39.42,39.42,0,0,1-6.06,7.79,106.88,106.88,0,0,0-11.75,15.18c-3.62,5.8-3.9,8.06-7.77,12.51A40.89,40.89,0,0,1,455.62,1521.57Z" transform="translate(-388 -601.9)" fill="#fbffff"/><path d="M457.61,1519.86a11.83,11.83,0,0,0,2.56,6.57,10.4,10.4,0,0,0,8.34,3.55c.84,0,3-.2,8.59-4,3.18-2.14,4.72-3.59,9.35-7.52,7.51-6.39,7.14-5.72,9.73-8.21,4.45-4.26,6.74-6.45,8.84-10.11,3.15-5.47,2.25-7.9,4.93-14.09a40.17,40.17,0,0,1,8.59-12.44c.05-1.14.16-6.88-3.79-11.07-4.24-4.51-10-3.84-12.38-3.56-1.74.21-8,.94-10.11,5.33-.32.68-.22.76-1.64,6.7-.54,2.28-1,4.23-1.14,4.65-1,3.92-3.36,7-7.7,12.31-8.89,10.85-9,10.16-11.12,13.67-1.69,2.83-3.39,5.64-5.06,8.48a36.6,36.6,0,0,1-3.82,5.67A28,28,0,0,1,457.61,1519.86Z" transform="translate(-388 -601.9)" fill="#d0f9ff"/><path d="M481.4,1525.2a3.32,3.32,0,0,1-.76,4.23,2.77,2.77,0,0,1-3.92-.54,34.88,34.88,0,0,0-9.73-7.25,32.8,32.8,0,0,0-8.46-2.87,3.77,3.77,0,0,1-.51-3c.57-1.48,2.68-2.37,4.8-1.37a34.34,34.34,0,0,1,6.95,2.33A37,37,0,0,1,481.4,1525.2Z" transform="translate(-388 -601.9)" fill="#cbc1be" stroke="#000" stroke-miterlimit="10" stroke-width="1.1"/><path d="M488.84,1518.31a3.34,3.34,0,0,1,.4,4.29,2.78,2.78,0,0,1-3.9.7,33.05,33.05,0,0,0-11.24-3.89,32,32,0,0,0-8.87-.11,3.56,3.56,0,0,1-1.29-2.72,3.6,3.6,0,0,1,4.23-2.81,34.12,34.12,0,0,1,7.27,0A35.06,35.06,0,0,1,488.84,1518.31Z" transform="translate(-388 -601.9)" fill="#cbc1be" stroke="#000" stroke-miterlimit="10" stroke-width="1.1"/><path d="M498,1512c1.36,1.14,1.22,3.08-.28,4.37a4.82,4.82,0,0,1-5.4.58,48.25,48.25,0,0,0-14.44-4.36,57.34,57.34,0,0,0-12-.42c-.16-.13-1.67-1.33-1.21-2.81s3.21-3.08,6.26-2.7a59.89,59.89,0,0,1,9.81.31A51.74,51.74,0,0,1,498,1512Z" transform="translate(-388 -601.9)" fill="#cbc1be" stroke="#000" stroke-miterlimit="10" stroke-width="1.1"/><path d="M494.59,1514.14a2.9,2.9,0,0,1-1.77,3.91,3.84,3.84,0,0,1-4.45-1.69,44.21,44.21,0,0,0-9.79-9.93,46.25,46.25,0,0,0-9.25-5.29c-.09-.19-.84-1.92,0-3.08s3.62-1.52,5.88.08a49.44,49.44,0,0,1,7.6,4.32A47.19,47.19,0,0,1,494.59,1514.14Z" transform="translate(-388 -601.9)" fill="#cbc1be" stroke="#000" stroke-miterlimit="10" stroke-width="1.1"/><path d="M502.83,1507.26c.85,1.41.15,3-1.57,3.48a4.85,4.85,0,0,1-4.92-1.43,49.49,49.49,0,0,0-11.38-8.66,59.35,59.35,0,0,0-10.4-4.56c-.1-.16-1.06-1.68-.21-2.73s3.75-1.39,6.32,0a61.73,61.73,0,0,1,8.53,3.72A52.9,52.9,0,0,1,502.83,1507.26Z" transform="translate(-388 -601.9)" fill="#cbc1be" stroke="#000" stroke-miterlimit="10" stroke-width="1.1"/><path d="M510.16,1500.28c.85,1.42.15,3-1.57,3.49a4.87,4.87,0,0,1-4.92-1.43c-4.18-5.23-9.53-7.32-11.38-8.66a24.39,24.39,0,0,0-11.43-4.37,3,3,0,0,1,0-3.76,3.25,3.25,0,0,1,3.54-.93,69.05,69.05,0,0,1,12.13,5.47A71.57,71.57,0,0,1,510.16,1500.28Z" transform="translate(-388 -601.9)" fill="#cbc1be" stroke="#000" stroke-miterlimit="10" stroke-width="1.1"/><path d="M490.43,1488.14a10.17,10.17,0,0,1-.76,5.75c-.36.76-.76,1.28-4.36,5.53-.56.68-1,1.24-1.39,1.64a1.83,1.83,0,0,0,.19,2.47,1.52,1.52,0,0,0,2.28-.42,18.34,18.34,0,0,0,3.41-3.41,16.51,16.51,0,0,0,2.08-3.42c1.62-3.83.35-8-.19-9.57Z" transform="translate(-388 -601.9)" fill="#cbc1be" stroke="#000" stroke-miterlimit="10" stroke-width="1.1"/><path d="M488.85,1487.89a9.12,9.12,0,0,0-4,3.91c-.38.75-.56,1.4-1.79,7-.19.89-.35,1.63-.47,2.17a1.57,1.57,0,0,1-2,1.21,1.75,1.75,0,0,1-1-2.26,20.84,20.84,0,0,1,.69-5,17.64,17.64,0,0,1,1.44-3.78c2-3.61,5.95-4.84,7.42-5.22C489.11,1486.6,489,1487.25,488.85,1487.89Z" transform="translate(-388 -601.9)" fill="#cbc1be" stroke="#000" stroke-miterlimit="10" stroke-width="1.1"/><path d="M492.44,1485.57a5.51,5.51,0,0,0-.57,1.7,9.57,9.57,0,0,1-.24,1.39,5.47,5.47,0,0,1,.47-2.46C492.21,1486,492.33,1485.76,492.44,1485.57Z" transform="translate(-388 -601.9)" fill="#cbc1be" stroke="#000" stroke-miterlimit="10" stroke-width="1.1"/><path d="M492.46,1485.55l.07-.12a3.8,3.8,0,0,1,.69-.79A5.56,5.56,0,0,0,492.46,1485.55Z" transform="translate(-388 -601.9)" fill="#cbc1be" stroke="#000" stroke-miterlimit="10" stroke-width="1.1"/><path d="M507.46,1491a7.18,7.18,0,0,1-6.54,5.22c-1.8,0-3.1-.85-5.31-2.35a22.87,22.87,0,0,1-4.55-4.11,3.84,3.84,0,0,0,.57-1.12,17.37,17.37,0,0,0,2.94,2.25c2.26,1.37,5.16,3.12,7.58,1.85,2.06-1.09,3.55-4.29,2.65-6.46-.78-1.91-3.11-2.35-4.74-2.67a11.29,11.29,0,0,0-6.63.82l-.13.12a3.32,3.32,0,0,0,.46-.63,4.46,4.46,0,0,0,.43-1,17.12,17.12,0,0,1,6.44-2.05,5.24,5.24,0,0,1,3,.31c1.6.8,2.26,2.52,2.84,4C507.28,1487.15,508,1488.94,507.46,1491Z" transform="translate(-388 -601.9)" fill="#cbc1be" stroke="#000" stroke-miterlimit="10" stroke-width="1.1"/><path d="M490.26,1484.92a4.9,4.9,0,0,1-.12.79,5,5,0,0,1-1.13,2.2,9,9,0,0,1,.66-1.21A5.31,5.31,0,0,0,490.26,1484.92Z" transform="translate(-388 -601.9)" fill="#cbc1be" stroke="#000" stroke-miterlimit="10" stroke-width="1.1"/><path d="M490.24,1482.83a3.14,3.14,0,0,0,0,.79c0-.06,0-.12,0-.16a12.72,12.72,0,0,0-4.54-5.3c-1.42-.91-3.45-2.21-5.2-1.32-2,1-2.78,4.49-1.88,6.77,1.07,2.67,4.33,3.39,6.87,3.94a15,15,0,0,0,3.58.36,4.46,4.46,0,0,0-.24,1.26,20.52,20.52,0,0,1-5.92-.1c-2.58-.41-4.1-.66-5.45-2a8.1,8.1,0,0,1-1.81-8.57c.85-1.94,2.46-2.81,4.24-3.77,1.32-.71,2.86-1.54,4.56-1a5.5,5.5,0,0,1,2.49,1.9,19.84,19.84,0,0,1,3.65,6.1A4.48,4.48,0,0,0,490.24,1482.83Z" transform="translate(-388 -601.9)" fill="#cbc1be" stroke="#000" stroke-miterlimit="10" stroke-width="1.1"/><path d="M490.25,1483.89a3.93,3.93,0,0,1,0,.94s0,.06,0,.09A5.78,5.78,0,0,0,490.25,1483.89Z" transform="translate(-388 -601.9)" fill="#cbc1be" stroke="#000" stroke-miterlimit="10" stroke-width="1.1"/><path d="M488.12,1489.78c-1.34-1.27,0-4.43.19-4.81s1.61-3.6,3.79-3.49c.89,0,2,.63,2.09,1.43s-1,1.21-1.9,3c-.94,1.93-.27,3.07-1.23,3.89A2.33,2.33,0,0,1,488.12,1489.78Z" transform="translate(-388 -601.9)" fill="#cbc1be" stroke="#000" stroke-miterlimit="10" stroke-width="1.1"/><path d="M490.3,1531.93l21.61-18.66a10.71,10.71,0,0,1,13.17,7.58c1.56,6.2-3.29,11.89-8.15,13.64s-10.4-.14-13.83-4.82Z" transform="translate(-388 -601.9)" fill="#eee05a"/><path d="M684.73,959.87a585.66,585.66,0,0,1,3.15,85.08c-.06,1.69-.15,3.47-.32,7-1.38,29.42-3.32,69.37-8.63,116.93-1,9-2.54,22-4.75,37.81-.12,3-.29,7.56-.43,13.09-.22,8.6-.16,12-.43,18.42-.14,3.28-.39,7.94-.87,13.58,7.19,40,7.13,71.55,5.66,93.36-.91,13.49-2.31,22.88-6.57,65.93-2.1,21.31-3.7,38.86-4.74,50.64a63,63,0,0,1-45.24.15c-4.77-29.61-8.34-53.93-10.88-71.92-1.27-9-3-22-6.48-48-2.63-19.68-2.79-21.09-3-23.45-.79-9-.66-16.36.16-52.2.12-5.26.22-9.68.3-12.9a75.27,75.27,0,0,1-6-23.75,77,77,0,0,1,.87-19.88c-.69-5.68-1.89-14.49-3.89-25.2-1.71-9.16-3.24-15.59-3.89-18.43-1.62-7.08-3.55-17.05-8-60.59-1.25-12.27-2.75-27.68-4.32-45.57.08-1.24.19-3.11.23-5.39.3-15.14-3.31-26-3.45-30.58a189,189,0,0,1,2.86-38.9c12.14-1.4,24.84-3.34,38-5.93A503.11,503.11,0,0,0,684.73,959.87Z" transform="translate(-388 -601.9)" fill="#72b3cd"/><path d="M688.24,1017.76a32,32,0,0,1-3.91.31,42.32,42.32,0,0,1-20.56-6.3c-18.08-10.93-24.77-31.88-26.41-37.52l-10.85,3.15a80.05,80.05,0,0,0,5.21,15.91,71.64,71.64,0,0,0,15.31,21.9c16,15,35.69,14.94,41.15,14.73Z" transform="translate(-388 -601.9)" fill="#51889a" opacity="0.51"/><path d="M665.42,1245.52c-1.56,3.74-6,13.1-15.09,17.76-11.86,6.1-26.7,1.62-37.26-11.46a51.13,51.13,0,0,0,31.13,3.44A54.61,54.61,0,0,0,665.42,1245.52Z" transform="translate(-388 -601.9)" fill="#51889a" opacity="0.51"/><path d="M679.1,1462.65c-5.19-.92-13.58-2.38-24.05-4-15.68-2.44-19.58-2.71-23.11-6.87-4.11-4.82-3.73-10.22-5.19-29.22-1-12.66-2.21-28.66-4.72-41.82a103,103,0,0,0-3.51-13.78c-4.39-13.08-8-22.4-8.75-24-3.94-9.14-6.56-31.54-.76-89.74a45.37,45.37,0,0,1-9.07-17.69,49.72,49.72,0,0,1,.58-26.65l-19.8-103.27c1.15,13.88,2.61,26.32,4.1,37.08,1.11,8,1.78,12.77,3,19.64,2.62,14.38,4.75,21.11,7.07,36.08.77,4.94,1.27,9,1.57,11.42a75.27,75.27,0,0,0-.43,24.24,72.6,72.6,0,0,0,5.61,19.39l-.66,26.13a313.74,313.74,0,0,0,1.45,52.77c1.37,12.08,3.13,21.72,6.36,38.38,5.26,27,7,31,9.2,45.26a301.15,301.15,0,0,1,3.54,45.93,108.69,108.69,0,0,0,57.54.76Z" transform="translate(-388 -601.9)" fill="#51889a" opacity="0.51"/><path d="M675.19,1426.41q-.47,18-.94,35.9a101.15,101.15,0,0,1-55.25.76l-3.3-40.48Z" transform="translate(-388 -601.9)" fill="#51889a" stroke="#375f68" stroke-miterlimit="10" stroke-width="1.88"/><path d="M674.48,1426.41l-6.13,15.66-49.35,21a90.86,90.86,0,0,0,31.17,3.82,92.36,92.36,0,0,0,24.08-4.58Q674.37,1444.36,674.48,1426.41Z" transform="translate(-388 -601.9)" fill="#3d6f7a"/><path d="M737.31,1549.13a84.21,84.21,0,0,1-28.3,11.48c-6.19,1.26-22.24,4.32-40.43-2.19-7.34-2.62-9.26-4.73-21.73-12a371.93,371.93,0,0,0-36.9-18.86,186.28,186.28,0,0,1,2.78-35.28c1-5.87,4.2-23,9.1-23.24,1.87-.08,2.53,2.38,5.81,3.83,4.22,1.86,8.82.31,12.13-1.37a13.77,13.77,0,0,1,1.27-7.93c2.67-5.18,8.11-6.19,10.1-6.56.69-.13,9.4-1.62,14.15,4.1,3.26,3.92,1,6.83,4.3,14.49,1.26,2.93,3.54,5.87,8.09,11.76,5.4,7,6.57,7.52,10.1,12.58,4,5.71,4,7.21,6.57,10.94,4,5.84,8.54,8.71,17.44,14.21,15.37,9.51,23.8,11,25.52,18.6A12.91,12.91,0,0,1,737.31,1549.13Z" transform="translate(-388 -601.9)" fill="#343a12"/><path d="M737.31,1549.13l.51,14.76c-17,8.68-31.4,10.24-39.93,10.39-11.2.21-20.23-1.87-27.54-3.55a152.25,152.25,0,0,1-29.57-10.12c1.86-3.92.53-7.75-1.26-8.47-1.6-.66-4.38.84-5.81,4.1a45.46,45.46,0,0,1-20.47-6.29,47.26,47.26,0,0,1-7.08-5.2,19.47,19.47,0,0,1-.25-9,18.42,18.42,0,0,1,4-8.2c19.59,9.07,28.5,14,32.6,16.4,4.73,2.79,8.78,5.2,8.78,5.2,9,5.36,9.79,5.86,11.28,6.66a57,57,0,0,0,18.6,5.92,71.32,71.32,0,0,0,27.8-1.1A88.23,88.23,0,0,0,737.31,1549.13Z" transform="translate(-388 -601.9)" fill="#000001"/><path d="M613.74,1487.06a38.16,38.16,0,0,1,9.1,10.93c2.16,3.88,3.78,6.81,3.54,10.67-.34,5.27-3.94,8.9-7.33,12.3a34.22,34.22,0,0,1-9.1,6.57,150.54,150.54,0,0,1,3.79-40.47Z" transform="translate(-388 -601.9)" fill="#1e1d21"/><path d="M710.56,1524.52a46.35,46.35,0,0,0-16.21,7,52.84,52.84,0,0,0-14.53,15.31,64.59,64.59,0,0,0-6.57,13,77.28,77.28,0,0,0,33.74,1.37,92.59,92.59,0,0,0,18.7-6,101.23,101.23,0,0,0,11.62-6,12.92,12.92,0,0,0-.79-7.39c-.68-1.52-1.77-3-5-5.43a50.16,50.16,0,0,0-9.29-5.43C719.36,1529.49,715.35,1527.42,710.56,1524.52Z" transform="translate(-388 -601.9)" fill="#1e1d24"/><path d="M702.69,1519.39a18.44,18.44,0,0,1-5.3,9.64c-6.29,5.68-14.78,3.58-17.63,2.87s-6.08-2-14-8.41a156.88,156.88,0,0,1-17.63-16.61,9.52,9.52,0,0,1-10.23-2.67,10.45,10.45,0,0,1-2.47-7.38c.39-4.94,4.51-8,7.39-9,3.16-1.15,5.33-.13,7.59,0,4.15.23,10.12-2.51,18-15.69a36.5,36.5,0,0,0,2.84,6.25,39.21,39.21,0,0,0,6.07,7.8,108.13,108.13,0,0,1,11.75,15.17c3.62,5.81,3.89,8.06,7.77,12.51A40.53,40.53,0,0,0,702.69,1519.39Z" transform="translate(-388 -601.9)" fill="#fbffff"/><path d="M700.7,1517.68a11.63,11.63,0,0,1-2.56,6.56,10.39,10.39,0,0,1-8.33,3.56c-.85,0-3-.2-8.6-4-3.17-2.13-4.72-3.58-9.35-7.52-7.5-6.38-7.13-5.72-9.72-8.2-4.46-4.26-6.74-6.46-8.85-10.12-3.14-5.47-2.24-7.89-4.93-14.08a39.71,39.71,0,0,0-8.59-12.44c0-1.14-.16-6.88,3.79-11.07,4.25-4.51,10-3.84,12.38-3.56,1.74.2,8,.94,10.11,5.33.33.68.22.76,1.64,6.7.55,2.28,1,4.23,1.14,4.65,1,3.92,3.36,7,7.71,12.31,8.89,10.85,9,10.16,11.12,13.67,1.68,2.82,3.38,5.64,5.05,8.47a36.92,36.92,0,0,0,3.82,5.68A29.57,29.57,0,0,0,700.7,1517.68Z" transform="translate(-388 -601.9)" fill="#d0f9ff"/><path d="M676.92,1523a3.33,3.33,0,0,0,.76,4.24,2.76,2.76,0,0,0,3.91-.54,35,35,0,0,1,9.73-7.25,32.73,32.73,0,0,1,8.47-2.87,3.75,3.75,0,0,0,.5-3c-.56-1.48-2.67-2.37-4.8-1.37a34.75,34.75,0,0,0-7,2.33A37.09,37.09,0,0,0,676.92,1523Z" transform="translate(-388 -601.9)" fill="#cbc1be" stroke="#000" stroke-miterlimit="10" stroke-width="1.1"/><path d="M669.48,1516.13a3.34,3.34,0,0,0-.41,4.29,2.78,2.78,0,0,0,3.9.7,33.24,33.24,0,0,1,11.25-3.9,32,32,0,0,1,8.87-.1,3.17,3.17,0,0,0-3-5.53,33.47,33.47,0,0,0-7.27.05A35,35,0,0,0,669.48,1516.13Z" transform="translate(-388 -601.9)" fill="#cbc1be" stroke="#000" stroke-miterlimit="10" stroke-width="1.1"/><path d="M660.31,1509.82c-1.36,1.14-1.23,3.08.28,4.37a4.84,4.84,0,0,0,5.4.58,48.25,48.25,0,0,1,14.44-4.36,57.24,57.24,0,0,1,12-.42c.17-.13,1.68-1.33,1.21-2.81s-3.2-3.08-6.25-2.7a60,60,0,0,0-9.82.31A51.67,51.67,0,0,0,660.31,1509.82Z" transform="translate(-388 -601.9)" fill="#cbc1be" stroke="#000" stroke-miterlimit="10" stroke-width="1.1"/><path d="M663.72,1512a2.9,2.9,0,0,0,1.78,3.91,3.83,3.83,0,0,0,4.44-1.69,44.3,44.3,0,0,1,9.8-9.93A46.86,46.86,0,0,1,689,1499c.08-.18.84-1.91,0-3.07s-3.61-1.52-5.87.08a48.17,48.17,0,0,0-7.6,4.32A46.92,46.92,0,0,0,663.72,1512Z" transform="translate(-388 -601.9)" fill="#cbc1be" stroke="#000" stroke-miterlimit="10" stroke-width="1.1"/><path d="M655.48,1505.07c-.84,1.42-.14,3,1.57,3.49a4.84,4.84,0,0,0,4.92-1.43,49.82,49.82,0,0,1,11.39-8.66,59.29,59.29,0,0,1,10.39-4.56c.11-.16,1.07-1.68.22-2.73s-3.75-1.39-6.32,0a61.29,61.29,0,0,0-8.54,3.72A53.14,53.14,0,0,0,655.48,1505.07Z" transform="translate(-388 -601.9)" fill="#cbc1be" stroke="#000" stroke-miterlimit="10" stroke-width="1.1"/><path d="M648.16,1498.1c-.85,1.42-.15,3,1.56,3.49a4.86,4.86,0,0,0,4.92-1.43c4.19-5.23,9.54-7.32,11.39-8.66a24.48,24.48,0,0,1,11.43-4.38,3,3,0,0,0,.66-1.67,3.13,3.13,0,0,0-.66-2.09,3.24,3.24,0,0,0-3.54-.92,68.79,68.79,0,0,0-12.14,5.47A71.36,71.36,0,0,0,648.16,1498.1Z" transform="translate(-388 -601.9)" fill="#cbc1be" stroke="#000" stroke-miterlimit="10" stroke-width="1.1"/><path d="M667.88,1486a10.22,10.22,0,0,0,.76,5.74c.37.77.76,1.29,4.36,5.54l1.39,1.64a1.81,1.81,0,0,1-.19,2.46,1.5,1.5,0,0,1-2.27-.41,18,18,0,0,1-3.41-3.41,17.18,17.18,0,0,1-2.09-3.42c-1.62-3.83-.35-8,.19-9.57Z" transform="translate(-388 -601.9)" fill="#cbc1be" stroke="#000" stroke-miterlimit="10" stroke-width="1.1"/><path d="M669.47,1485.71a9.12,9.12,0,0,1,4,3.91c.38.75.55,1.4,1.78,7,.2.89.36,1.63.47,2.17a1.57,1.57,0,0,0,2,1.21,1.75,1.75,0,0,0,1-2.26,20.87,20.87,0,0,0-.7-5,17.86,17.86,0,0,0-1.44-3.79c-2-3.6-6-4.83-7.42-5.21Z" transform="translate(-388 -601.9)" fill="#cbc1be" stroke="#000" stroke-miterlimit="10" stroke-width="1.1"/><path d="M665.87,1483.39a5.33,5.33,0,0,1,.58,1.7,9.83,9.83,0,0,0,.23,1.39,5.25,5.25,0,0,0-.47-2.47C666.1,1483.79,666,1483.58,665.87,1483.39Z" transform="translate(-388 -601.9)" fill="#cbc1be" stroke="#000" stroke-miterlimit="10" stroke-width="1.1"/><path d="M665.85,1483.36l-.07-.11a3.53,3.53,0,0,0-.69-.79A4.93,4.93,0,0,1,665.85,1483.36Z" transform="translate(-388 -601.9)" fill="#cbc1be" stroke="#000" stroke-miterlimit="10" stroke-width="1.1"/><path d="M650.86,1488.83a7.18,7.18,0,0,0,6.54,5.23c1.8,0,3.09-.85,5.3-2.36a22.59,22.59,0,0,0,4.55-4.1,4.4,4.4,0,0,1-.57-1.12,17.23,17.23,0,0,1-2.93,2.25c-2.26,1.37-5.17,3.12-7.58,1.85-2.07-1.09-3.55-4.29-2.66-6.46.79-1.91,3.12-2.36,4.74-2.67a11.29,11.29,0,0,1,6.63.82l.14.11a2.91,2.91,0,0,1-.47-.62,4.34,4.34,0,0,1-.42-1,17,17,0,0,0-6.45-2,5.11,5.11,0,0,0-3,.31c-1.6.8-2.27,2.52-2.84,4C651,1485,650.34,1486.76,650.86,1488.83Z" transform="translate(-388 -601.9)" fill="#cbc1be" stroke="#000" stroke-miterlimit="10" stroke-width="1.1"/><path d="M668.05,1482.74a6.34,6.34,0,0,0,.12.79,5.16,5.16,0,0,0,1.13,2.2,8,8,0,0,0-.66-1.21A5.64,5.64,0,0,1,668.05,1482.74Z" transform="translate(-388 -601.9)" fill="#cbc1be" stroke="#000" stroke-miterlimit="10" stroke-width="1.1"/><path d="M668.08,1480.65a3,3,0,0,1,0,.78l0-.16a12.75,12.75,0,0,1,4.55-5.29c1.41-.91,3.45-2.21,5.2-1.32,2,1,2.78,4.49,1.87,6.77-1.07,2.67-4.33,3.39-6.86,3.94a15.1,15.1,0,0,1-3.59.36,4.53,4.53,0,0,1,.25,1.26,20.89,20.89,0,0,0,5.92-.1c2.58-.41,4.1-.66,5.44-2a8.13,8.13,0,0,0,1.82-8.57c-.86-1.94-2.46-2.81-4.24-3.77-1.32-.71-2.87-1.55-4.57-1a5.55,5.55,0,0,0-2.48,1.9,20,20,0,0,0-3.66,6.1A4.28,4.28,0,0,1,668.08,1480.65Z" transform="translate(-388 -601.9)" fill="#cbc1be" stroke="#000" stroke-miterlimit="10" stroke-width="1.1"/><path d="M668.06,1481.71a3.51,3.51,0,0,0,0,.94.28.28,0,0,0,0,.09A6.91,6.91,0,0,1,668.06,1481.71Z" transform="translate(-388 -601.9)" fill="#cbc1be" stroke="#000" stroke-miterlimit="10" stroke-width="1.1"/><path d="M670.19,1487.6c1.35-1.27,0-4.43-.19-4.82s-1.61-3.59-3.79-3.48c-.88,0-2,.63-2.08,1.43s1,1.2,1.89,3c1,1.93.28,3.07,1.23,3.89A2.33,2.33,0,0,0,670.19,1487.6Z" transform="translate(-388 -601.9)" fill="#cbc1be" stroke="#000" stroke-miterlimit="10" stroke-width="1.1"/><path d="M668,1529.75l-21.6-18.66a10.72,10.72,0,0,0-13.18,7.58c-1.55,6.2,3.3,11.89,8.15,13.64s10.4-.14,13.84-4.82Z" transform="translate(-388 -601.9)" fill="#eee05a"/><path d="M541.74,995c-10.55,31.49-3.14,65.33,15.3,80.85,11.69,9.84,28.59,13,41.35,4.29,20.05-13.61,29.29-55.89,12.46-96.59Z" transform="translate(-388 -601.9)" fill="#72b3cd"/><path d="M545.06,1064.4c8.14,4.75,19.84,9.86,34,10,21.94.24,36.84-11.6,37.38-10,.61,1.78-17,20.46-39.08,18.6C561.32,1081.66,550,1070.12,545.06,1064.4Z" transform="translate(-388 -601.9)" fill="#51889a" opacity="0.51"/><path d="M577.43,1000.72l.28,74.06a8.23,8.23,0,0,0,9.92-2.87,13.28,13.28,0,0,0,2.26-7.15q-.18-10.47-.28-21.11-.21-22.35,0-44Z" transform="translate(-388 -601.9)" fill="#51889a" opacity="0.51"/><path d="M539.7,604.74a120.17,120.17,0,0,1-11.14,7.46c-8.54,5-18.54,9.52-39.58,15s-32.36,6.6-48.74,13.77c-3.94,1.72-10.44,4.79-15.35,11.55-.77,1.07-4.27,6-6.05,15.52-2.1,11.21-.25,20.52,1.3,27.14A232.08,232.08,0,0,0,434,737c13.79,29.3,21.05,28.92,26.4,49.44,2.11,8.09,2.85,16.11,4.32,32.16,1.1,12,1.07,17.65,1.92,34.08.46,8.83,1.22,21.67,2.51,37.42h0q-.69,10.47-1.36,21-3.21,50.51-5.83,100.5a567,567,0,0,0,231.84-6.48c-6.56-66.35-11-114.84-11-117.66v-7.56h0c.05-2.2.15-3.91.27-7,.15-4,.38-19.16.38-20,.26-43.64,16.49-78.92,16.49-78.92,1.09-2.37.16-.17,19.68-37.92,5.36-10.35,8-15.53,8.16-15.84,10.1-24.72,10.3-61.58-8.69-74.43a60.32,60.32,0,0,0-5.47-2.85,123.23,123.23,0,0,0-13.7-5.75c-6.65-2.38-17-6.47-24.82-10.09A178.19,178.19,0,0,1,644,608.84c-3.23-2.38-5.85-4.48-7.68-6a64.05,64.05,0,0,1-34.08,33.84l-14.12,2.58-5.9,15.35a30.53,30.53,0,0,0-6.5-13c-7-8-14.91-7.57-22.71-13.4C548.29,624.73,542.62,618.15,539.7,604.74Z" transform="translate(-388 -601.9)" fill="#534741"/><path d="M531.47,609.49c-1.3,1.63-2.48,4-2.91,9.31-.91,11.37,2.85,20.89,5.24,25.81a59.37,59.37,0,0,0,8.62,13,33.85,33.85,0,0,1,8.4-15.35c3.27-3.39,6.22-6.93,10.72-7.44,7.44-.84,13.14,6.92,14,6s-3-7.82-10-12.33c-3-1.94-4.81-2.31-6.52-3.67a10.89,10.89,0,0,1-1.64-1.68c-4.07-4.62-7.59-6.4-10.79-9.93a26.56,26.56,0,0,1-5.28-9h0C539.43,604.54,534.64,605.49,531.47,609.49Z" transform="translate(-388 -601.9)" fill="#534741"/><path d="M601,637.4a11.66,11.66,0,0,1,5.36,1.16c3.6,1.79,5,5.06,8.39,12.33,1.17,2.48,3.08,6.51,5.6,11.63A87,87,0,0,0,638,642.75c3.3-5.09,7.29-11.37,8.86-20.47,1-5.85,2-10.55-.47-14.42-3.56-5.57-12.81-7.31-23-4.9,1.39,1.5,3.5,4.27,3.42,7.74,0,1.91-.74,3.59-5.58,9.9-4,5.19-6,7.78-7.72,9.36A38.28,38.28,0,0,1,601,637.4Z" transform="translate(-388 -601.9)" fill="#534741"/><path d="M535.4,605.84a13.9,13.9,0,0,0-3.93,3.65c-3.47,4.87-4.87,19.62,2.33,35.12a52.75,52.75,0,0,0,8.62,13,33.85,33.85,0,0,1,8.4-15.35c3.27-3.39,6.22-6.93,10.72-7.44,7.44-.84,13.14,6.92,14,6s-3-7.82-10-12.33c-3.22-2.06-4.87-2.39-6.47-3.64a10.33,10.33,0,0,1-1.69-1.71c-3.48-3.91-6.8-6-9.23-8.25a27,27,0,0,1-6.84-10.68A12.25,12.25,0,0,0,535.4,605.84Z" transform="translate(-388 -601.9)" fill="#fff" opacity="0.6" style="mix-blend-mode:overlay"/><path d="M601,637.4a11.66,11.66,0,0,1,5.36,1.16c3.6,1.79,5,5.06,8.39,12.33,1.17,2.48,3.08,6.51,5.6,11.63A87,87,0,0,0,638,642.75c3.3-5.09,7.29-11.37,8.86-20.47,1-5.86,2-10.55-.47-14.42-3.52-5.46-12.52-7.21-22.45-4.9,1.28,1.65,3.61,5.17,2.88,9.12a10.24,10.24,0,0,1-2.34,4.56c-6.07,7.85-9.11,11.77-11,13.32A46,46,0,0,1,601,637.4Z" transform="translate(-388 -601.9)" fill="#fff" opacity="0.6" style="mix-blend-mode:overlay"/><path d="M588.12,639.26a193,193,0,0,0-7.92,21.4,195.62,195.62,0,0,0-8.4,51.86h25.88a148.28,148.28,0,0,1,15.24-65.74,36,36,0,0,0-2.12-3.8,18.45,18.45,0,0,0-2.08-2.87c-2.67-2.7-7-2.6-8.86-2.56s-1.91.35-6.92,1.09C590.92,638.94,589.24,639.14,588.12,639.26Z" transform="translate(-388 -601.9)" fill="#fff" opacity="0.5" style="mix-blend-mode:overlay"/><path d="M588.82,676.47a5.64,5.64,0,1,1,6.76-4.81A5.91,5.91,0,0,1,588.82,676.47Z" transform="translate(-388 -601.9)" fill="none" stroke="#000" stroke-miterlimit="10" stroke-width="1.94" opacity="0.4"/><path d="M584.78,690.35a6.57,6.57,0,0,0-.78,13.1c3.74.17,6.73-3.41,6.53-7A6.48,6.48,0,0,0,584.78,690.35Z" transform="translate(-388 -601.9)" fill="none" stroke="#000" stroke-miterlimit="10" stroke-width="1.94" opacity="0.4"/><path d="M547.4,646.08q5.16,8.79,10.26,18.45c5.8,11,10.84,21.74,15.23,31.94a182.81,182.81,0,0,1,4-23.88,180.84,180.84,0,0,1,5.29-18,26.19,26.19,0,0,0-2.8-7.6,25.85,25.85,0,0,0-4.66-6c-1.77-1.65-8-7.46-14.23-5.89a16.31,16.31,0,0,0-5.75,3.18,38.08,38.08,0,0,0-3.5,3.49C549.62,643.53,548.29,645,547.4,646.08Z" transform="translate(-388 -601.9)" fill="#fff" opacity="0.5" style="mix-blend-mode:overlay"/><path d="M569.7,655.42a6.36,6.36,0,0,1-9.21-2.67,6,6,0,0,1,2.1-6.63,5.86,5.86,0,1,1,7.11,9.3Z" transform="translate(-388 -601.9)" fill="none" stroke="#000" stroke-miterlimit="10" stroke-width="1.94" opacity="0.4"/><g opacity="0.4"><path d="M475.24,995.08c8.77,1.14,17.54,2.2,26.34,3s17.59,1.5,26.41,1.92c17.63.86,35.29,1,52.92.32,8.81-.3,17.62-.86,26.41-1.59S624.89,997,633.65,996s17.49-2.4,26.19-3.92,17.38-3.17,26-5c-8.54,2.28-17.18,4.23-25.84,6s-17.4,3.24-26.16,4.54a493.66,493.66,0,0,1-106,4q-13.25-.95-26.43-2.54C492.68,998,483.93,996.71,475.24,995.08Z" transform="translate(-388 -601.9)"/></g><path d="M763.45,788.18l-71,36.32q-9.86-47.49-21.69-96.86-3.88-16.18-7.88-32c-1.25-21.46,6.11-41.56,18.82-51.06,16.41-12.27,39.39-5.08,52.35,18.79Q748.76,725.76,763.45,788.18Z" transform="translate(-388 -601.9)" fill="#534741"/><path d="M763.45,788.18q-14.69-62.41-29.39-124.84c2.35,22.31,5.74,46.61,10.61,72.45,3.09,16.34,6.47,31.72,10,46.11L696,814.16l-10.56-24.44q3.51,17.38,7,34.78Z" transform="translate(-388 -601.9)" fill="#fff" opacity="0.5" style="mix-blend-mode:overlay"/><path d="M388,789.33l68.62,36.14q9.6-47.4,21.12-96.69,3.79-16.15,7.67-32c1.24-21.43-5.85-41.47-18.13-50.93-15.86-12.22-38.1-5-50.66,18.82Z" transform="translate(-388 -601.9)" fill="#534741"/><path d="M388,789.33,416.62,664.7C414.31,687,411,711.23,406.24,737c-3,16.32-6.3,31.67-9.73,46l56.69,32.12q5.13-12.21,10.25-24.41-3.4,17.36-6.83,34.72Z" transform="translate(-388 -601.9)" fill="#fff" opacity="0.5" style="mix-blend-mode:overlay"/></g></g></g></svg>