<svg id="costumes" xmlns="http://www.w3.org/2000/svg" viewBox="0 0 752.44 1577.21"><g id="_5" data-name="5"><path d="M704.77,1031.51c-5.17,61.76-13.63,107.07-20.6,137.52-3.48,15.23-10.47,43.72-11.53,82.69a369.51,369.51,0,0,0,2.47,54l-79.93,12.65q.32-35.37.62-70.76c-.91-4.49-1.7-9.43-2.24-14.77a153.43,153.43,0,0,1-.75-19.31q-5.58-28.68-10.17-59.41a1333.54,1333.54,0,0,1-13-133.92,143.93,143.93,0,0,1,135.09,11.31Z" transform="translate(-249.58 -1.23)" fill="#b20013"/><path d="M640.5,1347.06c-4.34,8.46-10.12,12.53-12.91,11.25-2.38-1.1-3.06-6.32-2.2-12.09a4.55,4.55,0,0,1-4.8,4.5,4.65,4.65,0,0,1-3.44-5.91c.86,4.16-2.09,7.9-5.49,8.16s-6.88-3-6.59-7.32a3.13,3.13,0,0,1-6-1.4c-2.65,2.48-6.51,2.32-8.52.14a6.2,6.2,0,0,1-.82-6.61,9.58,9.58,0,0,1-10.58-6.61,9.79,9.79,0,0,1,3.3-10.12,3,3,0,0,1-1.65-3,2.79,2.79,0,0,1,1-1.68,4.4,4.4,0,0,1-4.39-3.66,4.48,4.48,0,0,1,3.43-5.06,3.23,3.23,0,0,1,.14-3.66,3.1,3.1,0,0,1,4.26-.42c-2-3.42-1.25-7.6,1.23-9.7,3-2.57,8.41-1.83,11,2.39a8,8,0,0,1,4.26-7c3.45-1.59,8.18.15,10.3,4.5.18-.21,2.71-3,5.9-2.4s5.7,4.17,5.22,8.44a5.8,5.8,0,0,1,5.77-1.69,6,6,0,0,1,3.57,3.1,5.92,5.92,0,0,1,4.53-4.64c2.81-.49,5.83,1.57,6.59,4.92a6,6,0,0,1,3-6.47,5.75,5.75,0,0,1,6.87,1.13c-.64-4.05,1.65-7.77,4.81-8.72,3.77-1.15,8.5,1.76,9.2,6.75a3.06,3.06,0,0,1,3.84-2.53,3.1,3.1,0,0,1,1.51,3.79,4.35,4.35,0,0,1,5.09-1.26,4.55,4.55,0,0,1,2.47,5.2c4.51-2.83,9.71-1.18,11.26,2.11,1.07,2.27.42,5.35-1.51,7.73a5.76,5.76,0,0,1,5.9,4.22,5.93,5.93,0,0,1-3.84,7,6.57,6.57,0,0,1,3.84,7.74,6.29,6.29,0,0,1-5.63,4.36c1.13,3,0,5.85-1.92,6.61-1.68.67-3.48-.55-3.71-.71a5.87,5.87,0,0,1-1.65,6.89,5.78,5.78,0,0,1-5.35.57c1.89,3.45.3,7.58-2.61,8.71a5.87,5.87,0,0,1-7.14-3.23,2.36,2.36,0,1,1-4.67,0,3.74,3.74,0,0,1-3.85,2.67,3.83,3.83,0,0,1-3.29-4.08,8.17,8.17,0,0,1-9.07,4.93A8.35,8.35,0,0,1,640.5,1347.06Z" transform="translate(-249.58 -1.23)" fill="#fdfcff"/><path d="M677.22,1340.59q-3.81,39.57-8.9,80.65-2.75,22-5.76,43.56c.49.78,1.24,1.94,2.2,3.29a89.22,89.22,0,0,0,6.38,7.59c4,5,6.53,8.47,9,11.53,11.21,13.84,24.3,21.86,37,29.63,14.37,8.79,18.23,8.57,24.54,15.75,7.38,8.39,10.36,18.1,11.72,25.12a215.94,215.94,0,0,1-58.23,5.25c-14.67-.74-22.55-2.8-29.66-7.5-9-6-6.55-9.38-17.58-18-14.3-11.17-31.13-17.25-31.13-17.25-3.09-1.11-7-2.37-11-6-.95-.87-7-6.45-8.06-13.87-1.59-11.48,10.5-15.79,15.39-32.25.52-1.78,1.83-6.6.73-23.63a283.56,283.56,0,0,0-6.59-45,364.33,364.33,0,0,1-8.43-64.13c3.39-2.95,17.21-14.31,37.72-13.87C660.25,1322,674.76,1337.82,677.22,1340.59Z" transform="translate(-249.58 -1.23)" fill="#272526"/><path d="M753.39,1557.71q.36,5.82.73,11.63a268.87,268.87,0,0,1-44.68,6.75,128.92,128.92,0,0,1-39.92-4.13c-7.35-2-11.78-4.14-15.6-6.72-1-.69-3.89-2.69-12.6-11.52-4.26-4.32-7.69-8-10.07-10.63-1,2.1-1.93,4.21-2.89,6.31L595.91,1530q.55-17.25,1.1-34.5a59,59,0,0,0,13,17.25c14.41,13,26.08,9.54,41.2,23.63,7.93,7.38,5.32,8.89,12.36,14.62,11.86,9.65,25.51,10.48,41.75,11.25A174.14,174.14,0,0,0,753.39,1557.71Z" transform="translate(-249.58 -1.23)"/><path d="M737.28,1537.46c.33,1.8-9.62,6.47-19.23,7.88-27.49,4-52.7-18.48-52.55-18.75A50.45,50.45,0,0,0,684,1535.4c7.39,1.88,11.81,1.38,36.26,1.12C733.9,1536.38,737.09,1536.49,737.28,1537.46Z" transform="translate(-249.58 -1.23)" fill="#8e8a83"/><path d="M721,1519.74c-4.54-.26-12.48-.74-22.52-1.4-6-.4-22.74-1.63-35.44-8.44-1.23-.66-3.78-2.1-3.57-3.38.32-1.92,6.63-1.7,14-3.37a55.78,55.78,0,0,0,15.66-6.19c4.55,3.93,9.67,8,15.38,12.1S715.78,1516.7,721,1519.74Z" transform="translate(-249.58 -1.23)" fill="#151213"/><path d="M614.41,1453.23a52.66,52.66,0,0,0,37.08,21.23,32.39,32.39,0,0,1-19,4.5,31.61,31.61,0,0,1-12.36-3.65c-1.47,2.43-3.43,5.87-5.5,10.12-4.72,9.7-7,14.65-5.49,19.13,1,2.76,3.1,4.47,8.79,7.59,13.5,7.4,20.29,8.06,27.19,11.81,10.68,5.81,14.49,15.13,18.13,20.25,8.17,11.51,29.59,21.73,89,14.06-33.14,6.89-59.84,7.12-73.61,3.1-4.4-1.29-10.55-3.09-16.75-8.16-6.4-5.23-5.68-8.06-12.64-14.62s-14.25-9.94-19.5-12.38c-9.12-4.23-10.18-2.87-17-7-9-5.49-12-10.75-13.18-13.5a17.22,17.22,0,0,1-1.79-7c-.1-7,5-12.15,7.14-14.77C609.21,1478.78,613.82,1469.87,614.41,1453.23Z" transform="translate(-249.58 -1.23)" fill="#121011"/><path d="M677,1341.44a46.86,46.86,0,0,0-14.83,19.68c-2.7,7.05-1.22,8.88-4.12,16-5.5,13.57-13.57,13.8-14.28,22.5-.68,8.31,6.55,9.56,6.86,20.25.27,9.12-4.14,11.8-4.12,19.41,0,5.85,2.83,14.21,16,24.41Q669.79,1402.58,677,1341.44Z" transform="translate(-249.58 -1.23)" fill="#151313"/><path d="M610.56,1327.65a399.79,399.79,0,0,1,6.87,56c.37,8,.63,19.78,7.14,32.91A66.22,66.22,0,0,0,635.28,1432a26.41,26.41,0,0,1-14-2,25.81,25.81,0,0,1-4.39-2.53l-2.47,25.73a200.67,200.67,0,0,0-4.67-43.45c-1.87-8.36-3.81-14.28-6-27.28-1.87-10.86-2.8-20-3.3-25-.91-9.09-1.38-16.93-1.65-23.07Z" transform="translate(-249.58 -1.23)" fill="#151313"/><path d="M644.9,1375c-1,9.12-4,15-7.28,18.85-3.56,4.25-7.13,5.9-6.73,8.58.49,3.28,6.22,3.07,14,8.57,3.94,2.79,9.79,6.92,9.47,11.53-.24,3.49-4.74,6.36-13.73,12-4,2.48-7.44,4.36-9.89,5.62,5.62-4.5,10.22-8.5,13.73-11.67,2.86-2.57,4.17-3.86,4.12-5.62-.09-3.51-5.46-6.35-11.53-9.57-5.37-2.84-8.55-3.65-10.16-7.17a9.46,9.46,0,0,1-.83-4.64c.44-5,5.2-7.72,9.2-11.53A39.67,39.67,0,0,0,644.9,1375Z" transform="translate(-249.58 -1.23)" fill="#555352"/><path d="M448.9,1033.67c5.17,61.76,13.64,107.07,20.6,137.52,3.49,15.23,10.47,43.72,11.54,82.69a370.94,370.94,0,0,1-2.47,54l79.93,12.65-.63-70.76c.91-4.49,1.7-9.43,2.25-14.77a153.43,153.43,0,0,0,.75-19.31q5.58-28.68,10.17-59.41a1336.48,1336.48,0,0,0,13-133.92,144,144,0,0,0-135.1,11.31Z" transform="translate(-249.58 -1.23)" fill="#b20013"/><path d="M513.18,1349.22c4.34,8.46,10.11,12.53,12.91,11.25,2.38-1.1,3.06-6.32,2.19-12.09a4.56,4.56,0,0,0,4.81,4.5,4.64,4.64,0,0,0,3.43-5.91c-.85,4.16,2.1,7.9,5.5,8.16s6.88-3.05,6.59-7.32a3.13,3.13,0,0,0,6-1.4c2.64,2.48,6.51,2.32,8.52.14a6.22,6.22,0,0,0,.82-6.61,9.56,9.56,0,0,0,10.57-6.61,9.77,9.77,0,0,0-3.29-10.12,3,3,0,0,0,1.65-3,2.74,2.74,0,0,0-1-1.68,4.41,4.41,0,0,0,4.4-3.66,4.48,4.48,0,0,0-3.43-5.06,3.27,3.27,0,0,0-.14-3.66,3.1,3.1,0,0,0-4.26-.42c2-3.42,1.25-7.6-1.23-9.7-3-2.57-8.41-1.83-11,2.39a8,8,0,0,0-4.26-7c-3.45-1.59-8.19.15-10.3,4.5-.18-.21-2.71-3-5.9-2.4s-5.71,4.17-5.22,8.44a5.8,5.8,0,0,0-5.77-1.69,6,6,0,0,0-3.57,3.1,5.94,5.94,0,0,0-4.53-4.64c-2.81-.49-5.84,1.57-6.6,4.92a6,6,0,0,0-3-6.47,5.74,5.74,0,0,0-6.86,1.13c.64-4-1.66-7.77-4.81-8.72-3.78-1.15-8.5,1.76-9.2,6.75a3.06,3.06,0,0,0-3.85-2.53,3.13,3.13,0,0,0-1.51,3.79,4.34,4.34,0,0,0-5.08-1.26,4.55,4.55,0,0,0-2.47,5.2c-4.51-2.83-9.71-1.18-11.26,2.11-1.07,2.27-.42,5.35,1.51,7.73a5.78,5.78,0,0,0-5.91,4.22,5.94,5.94,0,0,0,3.85,7,6.57,6.57,0,0,0-3.85,7.74,6.31,6.31,0,0,0,5.63,4.36c-1.13,3,.05,5.85,1.93,6.61,1.68.67,3.47-.55,3.7-.71a5.89,5.89,0,0,0,1.65,6.89,5.8,5.8,0,0,0,5.36.57c-1.9,3.45-.3,7.58,2.61,8.71,2.46,1,5.7-.29,7.14-3.23a2.61,2.61,0,0,0,1.78,2.67,2.64,2.64,0,0,0,2.89-2.67,3.74,3.74,0,0,0,3.84,2.67,3.83,3.83,0,0,0,3.3-4.08,8.17,8.17,0,0,0,9.06,4.93A8.35,8.35,0,0,0,513.18,1349.22Z" transform="translate(-249.58 -1.23)" fill="#fdfcff"/><path d="M476.46,1342.75q3.81,39.57,8.9,80.65,2.75,22,5.76,43.56c-.49.78-1.24,1.94-2.21,3.29a89.76,89.76,0,0,1-6.37,7.59c-4,5-6.53,8.47-9,11.53-11.21,13.84-24.3,21.86-37,29.63-14.36,8.79-18.23,8.57-24.53,15.75-7.39,8.39-10.36,18.1-11.72,25.12a215.94,215.94,0,0,0,58.23,5.25c14.66-.74,22.55-2.8,29.66-7.5,9-6,6.54-9.38,17.58-18,14.29-11.17,31.13-17.25,31.13-17.25,3.09-1.11,7-2.37,11-6,1-.87,7-6.45,8-13.87,1.6-11.48-10.49-15.79-15.38-32.25-.53-1.78-1.83-6.6-.73-23.63a281.07,281.07,0,0,1,6.59-45,364.51,364.51,0,0,0,8.42-64.13c-3.39-3-17.21-14.31-37.72-13.87C493.43,1324.13,478.92,1340,476.46,1342.75Z" transform="translate(-249.58 -1.23)" fill="#272526"/><path d="M400.29,1559.87q-.37,5.82-.74,11.63a269.17,269.17,0,0,0,44.68,6.75,128.9,128.9,0,0,0,39.92-4.13c7.35-2,11.79-4.14,15.61-6.72,1-.69,3.89-2.69,12.6-11.52,4.26-4.32,7.69-8,10.07-10.63l2.89,6.31,32.44-19.44q-.54-17.25-1.1-34.5a58.64,58.64,0,0,1-13,17.25c-14.4,13-26.08,9.54-41.2,23.63-7.92,7.38-5.31,8.89-12.36,14.62-11.85,9.65-25.51,10.48-41.75,11.25A174.1,174.1,0,0,1,400.29,1559.87Z" transform="translate(-249.58 -1.23)"/><path d="M416.4,1539.62c-.33,1.8,9.62,6.47,19.23,7.88,27.49,4,52.7-18.48,52.55-18.75a50.45,50.45,0,0,1-18.49,8.81c-7.39,1.88-11.81,1.38-36.26,1.12C419.77,1538.54,416.58,1538.65,416.4,1539.62Z" transform="translate(-249.58 -1.23)" fill="#8e8a83"/><path d="M432.7,1521.9c4.53-.26,12.48-.74,22.52-1.4,5.94-.4,22.74-1.63,35.43-8.44,1.23-.66,3.78-2.1,3.57-3.38-.31-1.92-6.62-1.7-14-3.37a55.78,55.78,0,0,1-15.66-6.19c-4.56,3.93-9.68,8-15.38,12.1S437.9,1518.86,432.7,1521.9Z" transform="translate(-249.58 -1.23)" fill="#151213"/><path d="M539.27,1455.39a52.66,52.66,0,0,1-37.08,21.23,32.39,32.39,0,0,0,18.95,4.5,31.67,31.67,0,0,0,12.36-3.65c1.46,2.43,3.42,5.87,5.49,10.12,4.73,9.7,7.06,14.65,5.5,19.13-1,2.76-3.1,4.47-8.79,7.59-13.5,7.4-20.29,8.06-27.19,11.81-10.69,5.81-14.5,15.13-18.13,20.25-8.17,11.51-29.6,21.73-89,14.06,33.14,6.89,59.84,7.12,73.61,3.1,4.4-1.29,10.54-3.09,16.75-8.16,6.4-5.23,5.67-8.06,12.64-14.62s14.24-9.94,19.5-12.38c9.12-4.23,10.17-2.87,17-7,9.05-5.49,12-10.75,13.18-13.5a17.38,17.38,0,0,0,1.79-7c.1-7-5-12.15-7.14-14.77C544.47,1480.94,539.85,1472,539.27,1455.39Z" transform="translate(-249.58 -1.23)" fill="#121011"/><path d="M476.64,1343.6a46.87,46.87,0,0,1,14.84,19.68c2.7,7,1.22,8.88,4.12,16,5.49,13.57,13.57,13.8,14.28,22.5.68,8.31-6.55,9.56-6.87,20.25-.27,9.12,4.15,11.8,4.12,19.41,0,5.85-2.82,14.21-16,24.41Q483.88,1404.74,476.64,1343.6Z" transform="translate(-249.58 -1.23)" fill="#151313"/><path d="M543.11,1329.81a401,401,0,0,0-6.86,56c-.37,8-.63,19.78-7.14,32.91a65.9,65.9,0,0,1-10.72,15.47,25.41,25.41,0,0,0,18.41-4.5l2.47,25.73a200.67,200.67,0,0,1,4.67-43.45c1.87-8.36,3.81-14.28,6-27.28,1.87-10.86,2.8-20,3.3-25,.9-9.09,1.38-16.93,1.65-23.07Z" transform="translate(-249.58 -1.23)" fill="#151313"/><path d="M508.78,1377.2c1,9.12,4,15,7.28,18.85,3.56,4.25,7.13,5.9,6.73,8.58-.49,3.28-6.22,3.07-14,8.57-3.94,2.79-9.79,6.92-9.48,11.53.24,3.49,4.75,6.36,13.74,12,4,2.48,7.44,4.36,9.89,5.62-5.62-4.5-10.22-8.5-13.74-11.67-2.85-2.57-4.17-3.86-4.12-5.62.1-3.51,5.47-6.35,11.54-9.57,5.37-2.84,8.54-3.65,10.16-7.17a9.46,9.46,0,0,0,.83-4.64c-.44-5-5.2-7.72-9.21-11.53A39.8,39.8,0,0,1,508.78,1377.2Z" transform="translate(-249.58 -1.23)" fill="#555352"/><path d="M713.58,638.84c12.92,9.09,26.51,21.56,24.41,34.08-2,12.08-16,12.4-29.38,27-12.52,13.7-10.1,24.41-18.92,95.4-.38,3.07-1.65,13.2-3.18,26.88-.94,8.34-1.66,15.18-2.13,19.68a64.11,64.11,0,0,0,1.06,19.2,66.35,66.35,0,0,0,3.13,10.4c4.79,12.83,2.21,21.16,6.07,34.87,8.38,29.74,15.2,35.33,21.26,62.44,1.46,6.51.82,5.09,4.26,24.75,3.75,21.48,7.26,38.93,9.72,50.62-6.24,4.06-72.85,46.56-108.13,24.19-12.78-8.1-18.57-22.88-23.09-85.5-3.9-54.15-2.56-84.39-2.43-137.81.21-84.22,3.71-126.81,14-152.43,12.23-30.53,29.62-53,42.33-67.21Z" transform="translate(-249.58 -1.23)" fill="#b20013"/><path d="M710,1046.23a193,193,0,0,0-3.24-49.5c-3.09-15.69-6-20.39-17.41-55.5-12.06-37.28-14.29-49.16-14.83-55.49-.09-1.16-.12-2-.16-2.63-.27-5-1.12-25,5.22-53.71a255.1,255.1,0,0,1,10.08-34.08,195.08,195.08,0,0,0-5.31,49c.12,5.87.49,11.48,1.06,16.8.88,6.2,2.33,15.13,4.75,25.78a365.13,365.13,0,0,0,11.34,39c10.94,31.26,12.16,34.14,14.37,42.94,2.14,8.5,3.28,14.91,5.47,27.19,2.72,15.23,4.51,28,5.67,37.12Z" transform="translate(-249.58 -1.23)" fill="#80040a"/><path d="M724.24,1028.13a9.25,9.25,0,0,0-7.09,7.88,9.77,9.77,0,0,0-9.72.37,8.24,8.24,0,0,0-3.84,7.69c-.44-.2-7.08-3.12-13.17.37a12.51,12.51,0,0,0-5.67,7.13,6.73,6.73,0,0,0-5.67-.56,5.91,5.91,0,0,0-3.64,4.12,7.88,7.88,0,0,0-8.5-4.31,7.32,7.32,0,0,0-5.47,4.87,16.39,16.39,0,0,0-9.72-3.56,16.67,16.67,0,0,0-12.15,5.06,4.93,4.93,0,0,0-1.42-6.37,5.94,5.94,0,0,0-7.89,1.31,5.16,5.16,0,0,0-.81-5.81,6.2,6.2,0,0,0-6.28-1.69,5.7,5.7,0,0,0,4.25-5.06,5.82,5.82,0,0,0-5.06-5.63,8.41,8.41,0,0,0,6.48-7.68,8.29,8.29,0,0,0-5.67-7.88c.43-.12,3.65-1,4.86-3.93s0-6.23-3-8.25a10.73,10.73,0,0,0,7.29-9c.34-4.67-3-9.14-8.1-10.69,3.19,0,5.69-2.31,5.67-4.88a5.13,5.13,0,0,0-4.25-4.68c.44-.18,5-2.07,6.07-6.75a9.24,9.24,0,0,0-3.64-9.38,3.48,3.48,0,0,0,3-3.56,3.44,3.44,0,0,0-2.63-2.81,10.9,10.9,0,0,0,5.47-10.5c-.7-6.24-6.83-8.9-7.09-9,.44-.25,3.73-2.13,4.25-5.81a8.09,8.09,0,0,0-4.45-8.07c3.25-1.86,5.08-5.09,4.66-8.25a8.13,8.13,0,0,0-3-5.06,5.06,5.06,0,0,0,1.82-5.81,5.31,5.31,0,0,0-2.83-2.63c3.89-.73,6.6-3.9,6.48-7.31a7.42,7.42,0,0,0-5.47-6.56,9.6,9.6,0,0,0,2.63-6.38c0-5.06-4.44-8-4.86-8.25a4,4,0,0,0,2.23-3.75,4.11,4.11,0,0,0-3-3.56c4.92-1.33,7.47-5.82,6.28-9.37-.87-2.6-3.7-4.55-7.09-4.88a7.49,7.49,0,0,0,.61-6.75,8.18,8.18,0,0,0-4.25-4.12,8.06,8.06,0,0,0,2.43-5.25,8.45,8.45,0,0,0-4.66-7.5c4.53-.22,8.37-2.69,9.52-6,1.58-4.55-2-10.56-8.71-12a11.81,11.81,0,0,0,7.29-6,10.4,10.4,0,0,0-.2-9c.64-.24,4.33-1.68,5.47-5.06,1.28-3.81-1.16-8.62-6.28-10.88,3.24-.53,5.68-2.77,6.07-5.44a6.32,6.32,0,0,0-1.82-5.06,9.09,9.09,0,0,0,7.69-5.62c1.32-3.72-.57-8.06-4.65-10.13,2.61.06,4.7-1.71,4.86-3.75a4.17,4.17,0,0,0-2.64-3.93c6-1.26,9.65-6.14,8.91-10.5-.76-4.54-5.95-6.63-6.27-6.75a6.12,6.12,0,0,0,5.67-3.19c1.15-2.47-.07-5.67-3-7.13a5.15,5.15,0,0,0,4.66-3.18,4.74,4.74,0,0,0-.81-4.32c.3,0,5.61-.59,6.68-3.37.92-2.4-1.34-6.35-6.48-8.56a12.5,12.5,0,0,0,7.09-.25,11.49,11.49,0,0,0,6.37-5.35,19.22,19.22,0,0,0,10-8.61,16.51,16.51,0,0,0,.53-13.92c1-.64,7.43-4.76,8.49-12.48a16.78,16.78,0,0,0-3.18-12l.89-5.64A68.37,68.37,0,0,1,667.1,636c-1.42-.38-2.83-.83-4.25-1.21-.28-.08-1.25-.26-2.08-.42l-.95.21c-2.66.67-5.28,1.5-7.94,2.2a27.15,27.15,0,0,1-5.9.87A57.49,57.49,0,0,1,631.23,650c-2.28,1.4-4.64,2.64-6.91,4l-.45.3c-.46.41-.9.82-1.11,1-8,8.66-20.53,9.47-30.46,4.7a5.18,5.18,0,0,0-1.7,2A5.64,5.64,0,0,0,591,667c-.66.16-5.92,1.53-8.1,6.37a10.25,10.25,0,0,0-.4,7.13,12.21,12.21,0,0,0-4,6.18,11.31,11.31,0,0,0,0,5.82,15.75,15.75,0,0,0-5.47,5.25c-4.23,6.88-.68,14.41-.2,15.37a18.21,18.21,0,0,0-4.46,9.94,17.87,17.87,0,0,0,3,11.81,11.77,11.77,0,0,0-3.85,7.5C567,749,573,753,573.39,753.27c-.42.2-7,3.63-7.5,10.68A13,13,0,0,0,573,776.14a8.36,8.36,0,0,0-3.24,6.37,8.22,8.22,0,0,0,2.84,6,8,8,0,0,0-4.66,7.88,8.27,8.27,0,0,0,5.87,6.94c-5.3-.17-9.8,3.64-10.12,8.43-.34,4.94,3.86,9.31,9.31,9.57a8.93,8.93,0,0,0-2.63,7.68,9.45,9.45,0,0,0,4.86,6.38c-4.64.11-8.14,3.51-8.1,7.12,0,2.83,2.22,5.51,5.47,6.56a7.89,7.89,0,0,0-2.84,4.32c-.93,4.08,2.17,8.9,7.9,11.62a8.73,8.73,0,0,0-3.44,7.13,8.91,8.91,0,0,0,4.25,6.75c-.75.82-5.62,6.34-4.05,13.31a14.22,14.22,0,0,0,3.24,6.19,8.54,8.54,0,0,0-5.87,9,9,9,0,0,0,7.89,7.5c-3.56.77-5.94,3.79-5.67,6.93a6.87,6.87,0,0,0,5.47,5.82,12.81,12.81,0,0,0-2.83,6A13.4,13.4,0,0,0,579.46,944a10.56,10.56,0,0,0-6.68,11.25,11.08,11.08,0,0,0,9.11,8.81,9.41,9.41,0,0,0-7.09,7.5,8.88,8.88,0,0,0,4.26,8.81c-.44.19-5.14,2.27-6.08,7.13a9.59,9.59,0,0,0,4.46,9.75,12.94,12.94,0,0,0-2.84,10.31,13.29,13.29,0,0,0,4.66,7.69,10.06,10.06,0,0,0-6.68,8.24c-.39,4.33,2.57,8.54,7.29,10.13-3,1.59-4.54,4.61-3.85,7.31a6.84,6.84,0,0,0,3.64,4.13,9,9,0,0,0-4.45,5.06,8.54,8.54,0,0,0,3,9c-.3.18-3.13,2-3.24,5.06-.11,2.79,2,5.45,5.26,6.38a10.13,10.13,0,0,0-4.85,2.91,26.74,26.74,0,0,1,6.08,5.86c.55.73,1.09,1.46,1.64,2.18,3.73,1,7.48,1.85,11.27,2.6q4.5.9,9.06,1.57l.79.13c1.6.16,3.2.33,4.8.46a169.32,169.32,0,0,0,18.3.52c2.9-.08,5.8-.23,8.7-.47,1.25-.1,2.5-.23,3.75-.35l.75-.11a153.84,153.84,0,0,0,17.47-3.64q4.19-1.12,8.28-2.47,2.07-.69,4.11-1.41c.55-.2,1.18-.49,1.79-.7a172.76,172.76,0,0,0,15.77-7.54c6.15-3.35,11.81-7.22,17.64-11-5.32,3.46-.39.25.86-.7,1.61-1.23,3.21-2.48,4.78-3.75q4.51-3.66,8.81-7.54a18.07,18.07,0,0,1,2.67-13.89,23.39,23.39,0,0,1,4.65-5A8.16,8.16,0,0,0,724.24,1028.13Z" transform="translate(-249.58 -1.23)" fill="#80040a"/><path d="M637.88,685.27a12.84,12.84,0,0,0,9.42.56,11.56,11.56,0,0,0,6.38-5.34q1.19-5.47,2.39-10.93a12.15,12.15,0,0,0,12.21-4.8,9.68,9.68,0,0,0-.53-11.52,12.21,12.21,0,0,0,14.33-3.84A9.72,9.72,0,0,0,680,636c5.81.91,10.29-2.4,10.61-5.28s-3.55-7.36-9.73-7.44A11.24,11.24,0,0,0,676,616c-3.92-2.42-9.35-1.9-13.44,1.44.87-6.49-3.37-12.13-8.64-13-3.93-.62-8.13,1.48-10.56,5.28a11.71,11.71,0,0,0-22.08,6.72c-.16-.18-3.47-3.77-8.16-2.88a8.89,8.89,0,0,0-7,7.32,11.48,11.48,0,0,0-4.05,6,10.87,10.87,0,0,0,0,5.62c-5.52.68-9.76,4.28-10.53,8.63-.71,4.06,1.89,7.23,2.43,7.87-3.42-.57-6.61.94-7.69,3.38a5.62,5.62,0,0,0,.4,4.87c-.66.16-5.92,1.54-8.1,6.38a10.22,10.22,0,0,0-.4,7.12,12.25,12.25,0,0,0-4,6.19,11.38,11.38,0,0,0,0,5.81,15.84,15.84,0,0,0-5.47,5.25c-4.23,6.89-.68,14.41-.2,15.38a18.06,18.06,0,0,0-4.45,9.93,17.88,17.88,0,0,0,3,11.81,11.77,11.77,0,0,0-3.84,7.5c-.54,6.58,5.53,10.66,5.87,10.88-.42.21-7,3.63-7.49,10.69a13,13,0,0,0,7.08,12.18,8.44,8.44,0,0,0-3.24,6.38,8.25,8.25,0,0,0,2.84,6,8,8,0,0,0-4.66,7.87,8.25,8.25,0,0,0,5.87,6.94c-5.3-.16-9.8,3.64-10.12,8.44s3.86,9.31,9.31,9.56a8.94,8.94,0,0,0-2.63,7.69A9.39,9.39,0,0,0,571,825.7c-4.64.11-8.14,3.51-8.1,7.13,0,2.82,2.22,5.5,5.47,6.56a7.94,7.94,0,0,0-2.84,4.31c-.92,4.08,2.17,8.91,7.9,11.63a8.7,8.7,0,0,0-3.44,7.12,8.9,8.9,0,0,0,4.25,6.75c-.75.82-5.62,6.34-4.05,13.31a14.16,14.16,0,0,0,3.24,6.19,8.57,8.57,0,0,0-5.87,9,9,9,0,0,0,7.89,7.5c-3.56.77-5.94,3.79-5.66,6.94a6.84,6.84,0,0,0,5.46,5.81,12.9,12.9,0,0,0-2.83,6,13.42,13.42,0,0,0,2.83,10.31,10.57,10.57,0,0,0-6.68,11.25,11.1,11.1,0,0,0,9.11,8.81,9.41,9.41,0,0,0-7.08,7.5,8.89,8.89,0,0,0,4.25,8.82c-.44.18-5.14,2.27-6.08,7.12a9.59,9.59,0,0,0,4.46,9.75,13,13,0,0,0-2.84,10.31,13.25,13.25,0,0,0,4.66,7.69,10.09,10.09,0,0,0-6.68,8.25c-.39,4.33,2.58,8.53,7.29,10.12-3,1.6-4.54,4.62-3.85,7.32a6.87,6.87,0,0,0,3.64,4.12,9.05,9.05,0,0,0-4.45,5.06,8.54,8.54,0,0,0,3,9c-.29.18-3.13,2-3.24,5.07-.1,2.78,2,5.45,5.26,6.37-.47.12-4.59,1.24-6.07,4.88-1.38,3.39.13,7.56,3.85,9.93a7,7,0,0,0-3.85,4.5c-.59,2.8,1.1,5.84,4.25,7.31a12.75,12.75,0,0,0-.2,5.63c1,5.23,5.13,8.22,6.27,9a6.46,6.46,0,0,0,4.26,5.25,7.31,7.31,0,0,0,7.29-1.31,9.82,9.82,0,0,0,4.25,6,11.88,11.88,0,0,0,9.52,1.12c0,.32-.12,5.55,2.83,6.94s8.63-1,11.74-7.31a4.73,4.73,0,0,0,4.66.56,4.07,4.07,0,0,0,2.23-4.88c.38,5.36,5.33,8.49,8.91,7.69,2.7-.6,5-3.54,5.06-7.12a3.4,3.4,0,0,0,4.46,1.68,2.81,2.81,0,0,0,1.21-3.18,8.2,8.2,0,0,0,7.09,4.68c4,0,8-3.91,7.69-9,.84,2.92,3.91,4.13,5.67,3.38,1.48-.63,2.43-2.82,1.62-5.06a3.87,3.87,0,0,0,4.86,1.68,3.28,3.28,0,0,0,1.82-3.56,6.05,6.05,0,0,0,6.48,6.19,5.89,5.89,0,0,0,5.27-6.38,6.68,6.68,0,0,0,5.26,1.5,6,6,0,0,0,4.86-5.43,10.94,10.94,0,0,0,7.49,3.75,11.44,11.44,0,0,0,9.12-3.94,6.68,6.68,0,0,0,6.07,1.87,6.12,6.12,0,0,0,4.86-5.81,7.76,7.76,0,0,0,5.67-1.5,6.52,6.52,0,0,0,2.43-4.31,5.37,5.37,0,0,0,6.08.37,4.5,4.5,0,0,0,2-5.25,6.54,6.54,0,0,0,7.49-3.56,5.68,5.68,0,0,0-2.23-6.75,6,6,0,0,0,4.86-4.12,5.71,5.71,0,0,0-3.84-6.56,4.6,4.6,0,0,0,3.24-5.25,4.81,4.81,0,0,0-4.05-3.38c4.08-.22,6.77-3.71,6.07-6.75-.64-2.79-4.07-4.9-7.69-4.12a9.4,9.4,0,0,0-2.84-11.44,11.27,11.27,0,0,0-10.93-1.31c-.59-6.08-6.35-9.89-11.14-9a9.25,9.25,0,0,0-7.09,7.87,9.78,9.78,0,0,0-9.72.38,8.22,8.22,0,0,0-3.84,7.68c-.44-.2-7.08-3.12-13.16.38a12.45,12.45,0,0,0-5.67,7.12,6.75,6.75,0,0,0-5.67-.56,6,6,0,0,0-3.65,4.13,7.9,7.9,0,0,0-8.5-4.32,7.33,7.33,0,0,0-5.47,4.88,16.22,16.22,0,0,0-9.72-3.56,16.63,16.63,0,0,0-12.15,5.06,4.93,4.93,0,0,0-1.42-6.38,5.94,5.94,0,0,0-7.89,1.32,5.16,5.16,0,0,0-.81-5.82A6.21,6.21,0,0,0,619,1035a5.71,5.71,0,0,0,4.25-5.07,5.79,5.79,0,0,0-5.06-5.62,8.4,8.4,0,0,0,6.48-7.69,8.27,8.27,0,0,0-5.67-7.87c.43-.12,3.65-1.06,4.86-3.94s0-6.23-3-8.25a10.71,10.71,0,0,0,7.29-9c.34-4.67-3-9.14-8.1-10.69,3.19,0,5.69-2.31,5.67-4.87a5.14,5.14,0,0,0-4.25-4.69c.44-.17,5-2.07,6.07-6.75a9.2,9.2,0,0,0-3.64-9.37,3.51,3.51,0,0,0,3-3.57,3.45,3.45,0,0,0-2.64-2.81,10.89,10.89,0,0,0,5.47-10.5c-.7-6.23-6.83-8.89-7.09-9a8.46,8.46,0,0,0,4.26-5.81,8.09,8.09,0,0,0-4.46-8.06c3.26-1.86,5.09-5.09,4.66-8.25a8.19,8.19,0,0,0-3-5.07,5,5,0,0,0,1.82-5.81,5.24,5.24,0,0,0-2.83-2.62c3.89-.73,6.61-3.9,6.48-7.31a7.43,7.43,0,0,0-5.47-6.57,9.54,9.54,0,0,0,2.63-6.37c0-5.06-4.44-8-4.86-8.25a4,4,0,0,0,2.23-3.75,4.08,4.08,0,0,0-3-3.56c4.92-1.33,7.47-5.83,6.28-9.38-.87-2.6-3.7-4.55-7.09-4.87a7.51,7.51,0,0,0,.61-6.75,8.21,8.21,0,0,0-4.25-4.13,8,8,0,0,0,2.43-5.25,8.44,8.44,0,0,0-4.66-7.5c4.53-.22,8.37-2.68,9.52-6,1.58-4.55-2-10.56-8.71-12a11.81,11.81,0,0,0,7.29-6,10.33,10.33,0,0,0-.2-9c.65-.24,4.33-1.68,5.47-5.06,1.28-3.81-1.16-8.61-6.28-10.87,3.24-.54,5.68-2.78,6.07-5.44a6.3,6.3,0,0,0-1.82-5.06,9.13,9.13,0,0,0,7.7-5.63c1.31-3.71-.57-8-4.66-10.12,2.61.06,4.7-1.71,4.86-3.75a4.16,4.16,0,0,0-2.63-3.94c6-1.26,9.64-6.14,8.91-10.5-.77-4.54-6-6.62-6.28-6.75a6.09,6.09,0,0,0,5.67-3.19c1.15-2.47-.07-5.67-3-7.12a5.16,5.16,0,0,0,4.66-3.19A4.68,4.68,0,0,0,640,698c.3,0,5.61-.6,6.68-3.38S644.66,687.15,637.88,685.27Z" transform="translate(-249.58 -1.23)" fill="#fffdfd" stroke="#ac9b9b" stroke-miterlimit="10" stroke-width="2.44"/><path d="M793.9,930.65A254.86,254.86,0,0,1,786,900c-5.32-27.38-3-39.6-8.22-62.13A166.36,166.36,0,0,0,764,800.22c-3.07-23.24-6.15-42.49-8.53-56.5-.87-5.11-1.39-8-1.87-10.45-1-5.11-1.79-8.82-2-9.92-2.3-10.61-4-23.62-4.63-27.87-1.33-8.86-4.38-21.69-12-38.64-2.25-.86-24-8.84-41.44,2.9-14.56,9.81-19,28.66-20.24,33.82-.18.75-.31,1.37-.4,1.8,3.63,23.46,7.12,42.85,9.76,56.76,4,21,7.8,38.73,15.43,74.07,6.42,29.72,7.54,34,11.73,54.1q5.58,26.85,10.57,53Z" transform="translate(-249.58 -1.23)" fill="#b20013"/><path d="M770.79,967.89a6.74,6.74,0,0,0,7.17,4.75,6.54,6.54,0,0,0,4.94-4.35,6.45,6.45,0,0,0,4.67,2.05c3-.18,5.92-3.28,6.27-7.59,2.61,2,6,1.94,8.07.2,2.65-2.23,2.94-7.18-.27-10.31a5.32,5.32,0,0,0,3.25-5.39,5.23,5.23,0,0,0-3.12-4.18,5.92,5.92,0,0,0,3-7.08,5.72,5.72,0,0,0-6.77-3.83,7.25,7.25,0,0,0-1.48-8.76,6.8,6.8,0,0,0-7.73-.78,8.17,8.17,0,0,0-4.72-7.3c-3.54-1.46-8.07.29-10.07,4.38-1-5.67-6.43-8.79-10.59-7.42-3.29,1.09-5.69,4.93-5.28,9.24-.1-5.42-4.75-8.95-8.43-8.26-3.45.65-6.44,5.1-5.24,10a2.6,2.6,0,0,0-3.2-1.92,2.64,2.64,0,0,0-1.71,2.89c-.3-4.73-4.47-7.59-7.63-6.8-2.73.68-4.95,4.17-4.22,8.07a5.81,5.81,0,0,0-6.11-1.24,6.14,6.14,0,0,0-3.32,3.71,8,8,0,0,0-9.23,2.66,8.5,8.5,0,0,0-1,7c-.32.36-4.11,4.81-2.66,10.44a11.17,11.17,0,0,0,4.3,6.19c-2.83,5-2.59,9.54-.62,10.91.27.19,1.47,1,4,0a5,5,0,0,0,1.06,7.28,4.77,4.77,0,0,0,6.51-2,6.85,6.85,0,0,0,4.89,3,6.69,6.69,0,0,0,6.27-3.47,6.68,6.68,0,0,0,3.63,3.41c2.92,1,6.64-.78,8.6-4.51a5.3,5.3,0,0,0,4.4,4.12c2.62.22,5.36-2.23,5.43-5.68.63,3.17,3.49,5.12,6.07,4.62a5.37,5.37,0,0,0,4-4.5,3.89,3.89,0,0,0,2.2,4C767.92,972.05,770.39,970.61,770.79,967.89Z" transform="translate(-249.58 -1.23)" fill="#fffdfd" stroke="#ac9b9b" stroke-miterlimit="10" stroke-width="2.32"/><path d="M437,641c-11.69,9.09-24,21.56-22.08,34.08,1.83,12.08,14.5,12.4,26.57,27,11.32,13.7,9.13,24.41,17.11,95.4.34,3.07,1.49,13.2,2.88,26.88.85,8.34,1.5,15.18,1.92,19.68a70.79,70.79,0,0,1-1,19.2,72.45,72.45,0,0,1-2.82,10.4c-4.34,12.83-2,21.16-5.5,34.87-7.57,29.74-13.74,35.33-19.22,62.44-1.32,6.51-.75,5.09-3.85,24.75-3.39,21.48-6.57,38.93-8.79,50.62,5.64,4.06,65.88,46.56,97.78,24.19,11.56-8.1,16.79-22.88,20.88-85.5,3.53-54.15,2.31-84.39,2.19-137.81-.18-84.22-3.35-126.81-12.63-152.43a232.88,232.88,0,0,0-38.28-67.21Z" transform="translate(-249.58 -1.23)" fill="#b20013"/><path d="M440.21,1048.39a212.39,212.39,0,0,1,2.93-49.5c2.79-15.69,5.47-20.39,15.74-55.5,10.91-37.28,12.92-49.16,13.41-55.49.09-1.16.11-2,.14-2.63.25-5,1-25-4.71-53.71a276,276,0,0,0-9.12-34.08,214.84,214.84,0,0,1,4.8,49c-.1,5.87-.44,11.48-1,16.8-.79,6.2-2.1,15.13-4.29,25.78a394.69,394.69,0,0,1-10.25,39c-9.9,31.26-11,34.14-13,42.94-1.94,8.5-3,14.91-4.95,27.19-2.45,15.23-4.08,28-5.13,37.12Z" transform="translate(-249.58 -1.23)" fill="#80040a"/><path d="M428.72,1035.32a19.69,19.69,0,0,1,2.41,13.89q3.89,3.87,8,7.54,2.15,1.9,4.33,3.75c1.13,1,5.59,4.16.78.71,5.26,3.78,10.39,7.65,15.94,11a149.5,149.5,0,0,0,14.27,7.54c.55.21,1.12.5,1.62.7,1.23.48,2.47,1,3.71,1.41q3.7,1.35,7.49,2.47A128.18,128.18,0,0,0,503,1088l.68.11c1.13.12,2.26.25,3.39.35,2.62.24,5.24.39,7.87.47a138.36,138.36,0,0,0,16.54-.52c1.45-.13,2.9-.3,4.34-.46l.72-.13q4.13-.68,8.19-1.57c3.43-.75,6.83-1.63,10.2-2.6l1.47-2.18a25.56,25.56,0,0,1,5.51-5.86,9,9,0,0,0-4.39-2.91,6.64,6.64,0,0,0,4.76-6.38,6.78,6.78,0,0,0-2.93-5.06,9.07,9.07,0,0,0,2.75-9,8.71,8.71,0,0,0-4-5.06,6.64,6.64,0,0,0,3.3-4.13,6.9,6.9,0,0,0-3.48-7.31,10.09,10.09,0,0,0,6.59-10.13,9.91,9.91,0,0,0-6-8.24,13.54,13.54,0,0,0,4.21-7.69,13.88,13.88,0,0,0-2.57-10.31,10,10,0,0,0,4-9.75,10.24,10.24,0,0,0-5.49-7.13,9.22,9.22,0,0,0,3.84-8.81,9.06,9.06,0,0,0-6.41-7.5,10.56,10.56,0,0,0,8.24-8.81,10.75,10.75,0,0,0-6-11.25,14.42,14.42,0,0,0,2.57-10.32,13.52,13.52,0,0,0-2.57-6,6.55,6.55,0,0,0-.18-12.75,8.52,8.52,0,0,0,7.14-7.5,8.62,8.62,0,0,0-5.31-9,14.73,14.73,0,0,0,2.93-6.19c1.42-7-3-12.49-3.66-13.31a8.68,8.68,0,0,0,.73-13.88c5.18-2.71,8-7.54,7.14-11.62a8.08,8.08,0,0,0-2.56-4.32,7.25,7.25,0,0,0,4.94-6.56,7.38,7.38,0,0,0-7.32-7.12,9.27,9.27,0,0,0,4.39-6.38,9.41,9.41,0,0,0-2.38-7.68,9,9,0,0,0-.73-18,8.09,8.09,0,0,0,5.31-6.94,8.18,8.18,0,0,0-4.21-7.88,8.35,8.35,0,0,0-.37-12.37,13.3,13.3,0,0,0,6.41-12.19c-.45-7.05-6.4-10.48-6.77-10.68.31-.23,5.79-4.3,5.31-10.88a12.15,12.15,0,0,0-3.48-7.5,18.93,18.93,0,0,0-1.29-21.75c.44-1,3.65-8.49-.18-15.37a14.93,14.93,0,0,0-4.94-5.25,12.31,12.31,0,0,0-3.66-12,10.8,10.8,0,0,0-7.7-13.5,5.67,5.67,0,0,0-6.59-8.25,10.67,10.67,0,0,0,2.2-7.88c-.69-4.35-4.53-7.94-9.52-8.62a12,12,0,0,0,0-5.63,11.87,11.87,0,0,0-3.66-6,17.28,17.28,0,0,0,4.39-12,17,17,0,0,0-3.66-9.75l-55.67-2.25a5.58,5.58,0,0,0-7,1.88,5.89,5.89,0,0,0,.74,7.5Q471,631.76,473,645.32a18,18,0,0,0-2.88,12,18.4,18.4,0,0,0,7.68,12.48,18.05,18.05,0,0,0,.48,13.92,17.87,17.87,0,0,0,9.05,8.61,10.82,10.82,0,0,0,5.76,5.35,10.27,10.27,0,0,0,6.41.25c-4.65,2.21-6.69,6.16-5.86,8.56,1,2.78,5.78,3.35,6.05,3.37a5.07,5.07,0,0,0-.74,4.32,4.7,4.7,0,0,0,4.22,3.18,5.78,5.78,0,0,0-2.75,7.13,5.46,5.46,0,0,0,5.13,3.19c-.3.12-5,2.21-5.68,6.75-.67,4.36,2.63,9.24,8.06,10.5a4.17,4.17,0,0,0-2.38,3.93,4.22,4.22,0,0,0,4.39,3.75,8.77,8.77,0,0,0-4.21,10.13,8.36,8.36,0,0,0,7,5.62,6.68,6.68,0,0,0-1.65,5.06,6.59,6.59,0,0,0,5.49,5.44c-4.63,2.26-6.83,7.07-5.67,10.88,1,3.38,4.36,4.82,4.94,5.06a11.31,11.31,0,0,0-.18,9,10.87,10.87,0,0,0,6.59,6c-6.1,1.44-9.3,7.45-7.87,12,1,3.31,4.51,5.78,8.6,6a8.58,8.58,0,0,0-4.21,7.5,8.37,8.37,0,0,0,2.2,5.25,7.72,7.72,0,0,0-3.85,4.12,8.2,8.2,0,0,0,.55,6.75,7.39,7.39,0,0,0-6.41,4.88c-1.08,3.55,1.23,8,5.68,9.37a4,4,0,0,0-.73,7.31,10.63,10.63,0,0,0-4.4,8.25,10.15,10.15,0,0,0,2.38,6.38,7.17,7.17,0,0,0,.92,13.87,5,5,0,0,0-2.57,2.63,5.38,5.38,0,0,0,1.65,5.81,8.24,8.24,0,0,0-2.74,5.06,8.68,8.68,0,0,0,4.21,8.25,8.3,8.3,0,0,0-4,8.07,8.41,8.41,0,0,0,3.84,5.81c-.23.1-5.77,2.76-6.4,9a11.25,11.25,0,0,0,4.94,10.5,3.34,3.34,0,0,0-2.38,2.81,3.4,3.4,0,0,0,2.75,3.56,9.72,9.72,0,0,0-3.3,9.38,10,10,0,0,0,5.49,6.75,4.84,4.84,0,0,0,1.28,9.56,10.44,10.44,0,0,0-.73,19.69,7.27,7.27,0,0,0-2.74,8.25,7,7,0,0,0,4.39,3.93,8.27,8.27,0,0,0,.73,15.56,5.51,5.51,0,0,0-.73,10.69,5.26,5.26,0,0,0-5.68,1.69,5.58,5.58,0,0,0-.73,5.81,5,5,0,0,0-7.14-1.31,5.26,5.26,0,0,0-1.28,6.37c-.57-.66-4.59-5.23-11-5.06a14.07,14.07,0,0,0-8.79,3.56,6.89,6.89,0,0,0-4.94-4.87,7,7,0,0,0-7.69,4.31,5.86,5.86,0,0,0-3.3-4.12,5.62,5.62,0,0,0-5.13.56,12.4,12.4,0,0,0-5.12-7.13c-5.5-3.49-11.51-.57-11.91-.37a8.54,8.54,0,0,0-3.47-7.69,8.12,8.12,0,0,0-8.79-.37c-.55-4-3.22-7.23-6.41-7.88a6.69,6.69,0,0,0-2.85.07A22.92,22.92,0,0,1,428.72,1035.32Z" transform="translate(-249.58 -1.23)" fill="#80040a"/><path d="M511.53,680.71a10.62,10.62,0,0,1-8.52.56,10.89,10.89,0,0,1-5.77-5.34L495.08,665a10.42,10.42,0,0,1-10.56-16.32,10.36,10.36,0,0,1-11-17.28,9.53,9.53,0,0,1-6.54-17.25c0-.3.3-7.64,6.54-11.07A13,13,0,0,1,488.36,605a14.59,14.59,0,0,1,22.08.48,19.61,19.61,0,0,1,9.6-2.4c9.22.14,15,7,15.84,8.16,1.34.86,6.72,4.5,8,11.16a15.69,15.69,0,0,1,0,5.62c5,.68,8.83,4.28,9.52,8.63a10.64,10.64,0,0,1-2.2,7.87,5.68,5.68,0,0,1,6.59,8.25,11.36,11.36,0,0,1,7.33,6.38,11.19,11.19,0,0,1,.36,7.12,12.3,12.3,0,0,1,3.67,12,15,15,0,0,1,4.94,5.25c3.83,6.89.61,14.41.18,15.38a18.93,18.93,0,0,1,4,9.93,19.26,19.26,0,0,1-2.74,11.81,12.11,12.11,0,0,1,3.47,7.5c.49,6.58-5,10.66-5.31,10.88.38.21,6.33,3.63,6.78,10.69a13.27,13.27,0,0,1-6.41,12.18,8.36,8.36,0,0,1,.37,12.38,8.16,8.16,0,0,1,4.21,7.87,8.08,8.08,0,0,1-5.31,6.94,9,9,0,0,1,.73,18,9.42,9.42,0,0,1,2.38,7.69,9.24,9.24,0,0,1-4.39,6.37,7.38,7.38,0,0,1,7.32,7.13,7.29,7.29,0,0,1-4.94,6.56,8.07,8.07,0,0,1,2.56,4.31c.84,4.08-2,8.91-7.14,11.63a8.67,8.67,0,0,1-.73,13.87c.67.82,5.08,6.34,3.66,13.31a14.67,14.67,0,0,1-2.93,6.19,8.63,8.63,0,0,1,5.31,9,8.51,8.51,0,0,1-7.14,7.5,6.55,6.55,0,0,1,.18,12.75,13.41,13.41,0,0,1,2.56,6,14.35,14.35,0,0,1-2.56,10.31,10.75,10.75,0,0,1,6,11.25,10.55,10.55,0,0,1-8.24,8.81,9.08,9.08,0,0,1,6.41,7.5,9.24,9.24,0,0,1-3.84,8.82,10.22,10.22,0,0,1,5.49,7.12,10,10,0,0,1-4,9.75,13.9,13.9,0,0,1,2.57,10.31,13.43,13.43,0,0,1-4.22,7.69,10,10,0,0,1,6,8.25,10.07,10.07,0,0,1-6.6,10.12,6.89,6.89,0,0,1,3.48,7.32,6.61,6.61,0,0,1-3.29,4.12,8.75,8.75,0,0,1,4,5.06,9.07,9.07,0,0,1-2.75,9,6.78,6.78,0,0,1,2.93,5.07,6.64,6.64,0,0,1-4.76,6.37,8.51,8.51,0,0,1,5.49,4.88,8.73,8.73,0,0,1-3.48,9.93,6.83,6.83,0,0,1,3.48,4.5,7,7,0,0,1-3.84,7.31,14,14,0,0,1,.18,5.63,14.74,14.74,0,0,1-5.68,9,6.35,6.35,0,0,1-3.84,5.25,6.12,6.12,0,0,1-6.59-1.31,10,10,0,0,1-3.85,6,9.83,9.83,0,0,1-8.61,1.12c0,.32.11,5.55-2.56,6.94s-7.8-1-10.62-7.31a3.93,3.93,0,0,1-4.21.56,4.23,4.23,0,0,1-2-4.88c-.34,5.36-4.82,8.49-8.05,7.69-2.45-.6-4.5-3.54-4.58-7.12a2.68,2.68,0,1,1-5.13-1.5c-1.29,2.82-3.83,4.71-6.41,4.68-3.65,0-7.26-3.91-6.95-9-.76,2.92-3.54,4.13-5.13,3.38-1.34-.63-2.2-2.82-1.47-5.06a3.33,3.33,0,0,1-4.39,1.68,3.39,3.39,0,0,1-1.65-3.56c.18,3.68-2.86,6.48-5.86,6.19a5.75,5.75,0,0,1-4.76-6.38,5.69,5.69,0,0,1-4.76,1.5,5.84,5.84,0,0,1-4.4-5.43,9.67,9.67,0,0,1-6.77,3.75c-5,.35-8-3.64-8.24-3.94a5.68,5.68,0,0,1-5.49,1.87,6,6,0,0,1-4.4-5.81,6.51,6.51,0,0,1-5.13-1.5,6.79,6.79,0,0,1-2.19-4.31,4.49,4.49,0,0,1-5.5.37,4.72,4.72,0,0,1-1.83-5.25,5.77,5.77,0,0,1-6.77-3.56,6,6,0,0,1,2-6.75,5.59,5.59,0,0,1-4.39-4.12,5.82,5.82,0,0,1,3.48-6.56,4.65,4.65,0,0,1-2.93-5.25,4.47,4.47,0,0,1,3.66-3.38,5.88,5.88,0,0,1-5.5-6.75,5.73,5.73,0,0,1,7-4.12,10,10,0,0,1,2.57-11.44,9.38,9.38,0,0,1,9.88-1.31c.54-6.08,5.74-9.89,10.08-9,3.19.65,5.86,3.84,6.4,7.87a8.12,8.12,0,0,1,8.79.38,8.52,8.52,0,0,1,3.48,7.68c.4-.2,6.41-3.12,11.91.38a12.44,12.44,0,0,1,5.12,7.12,5.62,5.62,0,0,1,5.13-.56,5.87,5.87,0,0,1,3.3,4.13,7,7,0,0,1,7.69-4.32,6.9,6.9,0,0,1,4.94,4.88,14,14,0,0,1,8.79-3.56c6.4-.18,10.42,4.4,11,5.06a5.27,5.27,0,0,1,1.28-6.38,5,5,0,0,1,7.14,1.32,5.58,5.58,0,0,1,.73-5.82,5.27,5.27,0,0,1,5.68-1.68,5.51,5.51,0,0,1,.73-10.69,8.27,8.27,0,0,1-.73-15.56,7,7,0,0,1-4.4-3.94A7.3,7.3,0,0,1,527,992a10.56,10.56,0,0,1-6.59-9,10.68,10.68,0,0,1,7.32-10.69,4.84,4.84,0,0,1-1.28-9.56A9.89,9.89,0,0,1,521,956a9.71,9.71,0,0,1,3.29-9.37,3.42,3.42,0,0,1-2.74-3.57,3.32,3.32,0,0,1,2.38-2.81,11.27,11.27,0,0,1-4.95-10.5c.64-6.23,6.18-8.89,6.41-9a8,8,0,0,1,.19-13.87,8.71,8.71,0,0,1-4.22-8.25,8.35,8.35,0,0,1,2.75-5.07,5.37,5.37,0,0,1-1.65-5.81,4.92,4.92,0,0,1,2.57-2.62,7.18,7.18,0,0,1-.92-13.88,10.08,10.08,0,0,1-2.38-6.37,10.61,10.61,0,0,1,4.4-8.25,4,4,0,0,1-2-3.75,4,4,0,0,1,2.75-3.56c-4.45-1.33-6.76-5.83-5.68-9.38a7.36,7.36,0,0,1,6.41-4.87,8.22,8.22,0,0,1-.55-6.75,7.75,7.75,0,0,1,3.85-4.13,8.29,8.29,0,0,1-2.2-5.25,8.59,8.59,0,0,1,4.21-7.5c-4.09-.22-7.57-2.68-8.61-6-1.42-4.55,1.78-10.56,7.88-12a10.87,10.87,0,0,1-6.59-6,11.31,11.31,0,0,1,.18-9,8.63,8.63,0,0,1-5-5.06c-1.16-3.81,1.05-8.61,5.68-10.87a6.26,6.26,0,0,1-3.84-10.5,8.37,8.37,0,0,1-7-5.63,8.74,8.74,0,0,1,4.21-10.12,4,4,0,0,1-2-7.69c-5.43-1.26-8.73-6.14-8.06-10.5.69-4.54,5.38-6.62,5.67-6.75a5.42,5.42,0,0,1-5.12-3.19,5.77,5.77,0,0,1,2.74-7.12,4.71,4.71,0,0,1-4.21-3.19,5.08,5.08,0,0,1,.73-4.31c-.27,0-5.07-.6-6-3.38S505.4,682.59,511.53,680.71Z" transform="translate(-249.58 -1.23)" fill="#fffdfd" stroke="#ac9b9b" stroke-miterlimit="10" stroke-width="2.32"/><path d="M455.59,858.64c-2.78,2.82.43,8.26.73,19.5a64.54,64.54,0,0,1-3.3,21.94,382.42,382.42,0,0,0,43.13,10.4c27.48,5,48.44,5.65,67.56,6.19,22.52.64,41.75-.7,80.21-3.37,58.23-4,37.79-6.54,42.3-6.19,1.46.11,6.54.6,8.51-2.25,1.7-2.46.36-6.34-.27-8.16-2.16-6.23-5.56-5.94-6.32-9.84-1-5.36,5.05-7.51,6.32-16.88.34-2.54.91-6.74-1.38-9-2.74-2.69-8-1.05-12.91.29-8.48,2.31-17.45,2.62-25.81,5.34-10.21,3.32-24.94,3.8-54.39,4.78-12.8.42-32.07-.19-70.59-1.41-34.61-1.09-39.34-1.67-46.69-4.21C470.06,861.4,459.52,854.65,455.59,858.64Z" transform="translate(-249.58 -1.23)" fill="#393738"/><path d="M676.47,862a110,110,0,0,0-14.7,6c-15.74,7.06-19.15,3.81-30.35,10.12-3.62,2-15.71,8.85-14.69,14.62,1.13,6.45,18.07,8.56,27.33,9.71,11.33,1.41,15.63.13,29.38,1.69a161.54,161.54,0,0,1,17.58,3,5.85,5.85,0,0,0,3.71-2.25c2.28-3.28-.07-9.07-2.33-12.38-2.43-3.54-4.35-3.62-4.67-6s1.27-3,3.84-8.16c1.6-3.19,3-6,3.16-9.56.13-2.22.32-5.69-1.65-7.74C692.44,860.31,689.67,857.83,676.47,862Z" transform="translate(-249.58 -1.23)" fill="#1a191b"/><path d="M476.17,863.6A114.5,114.5,0,0,1,489.88,870c14.65,7.34,18.13,4.78,28.47,11.12,3.35,2,14.51,8.89,13.15,13.81-1.52,5.51-17.93,6-26.89,6.32-11,.35-15-1.08-28.34-.8-7.28.16-13.22.75-17.07,1.22a5.81,5.81,0,0,1-3.42-2.24c-2-3,.68-7.87,3.07-10.56,2.56-2.89,4.41-2.81,4.88-4.89s-1-2.72-3.15-7.37c-1.32-2.89-2.45-5.4-2.4-8.54,0-1.93.07-4.95,2.09-6.58C460.94,860.93,463.76,859,476.17,863.6Z" transform="translate(-249.58 -1.23)" fill="#1a191b"/><path d="M651.65,894.59a7.87,7.87,0,0,1-8.33-6.32c-.68-4.73,4.14-9.47,8.93-8.82a7.6,7.6,0,0,1-.6,15.14Z" transform="translate(-249.58 -1.23)" fill="#b98841"/><path d="M652.3,889.39a2.62,2.62,0,0,1-3.48-2,2.69,2.69,0,0,1,2.47-3,2.54,2.54,0,0,1,2.38,1.55A2.71,2.71,0,0,1,652.3,889.39Z" transform="translate(-249.58 -1.23)" fill="#fce39b"/><path d="M608.26,898a7.87,7.87,0,0,1-8.33-6.33c-.69-4.72,4.13-9.46,8.92-8.81a7.61,7.61,0,0,1-.59,15.14Z" transform="translate(-249.58 -1.23)" fill="#b98841"/><path d="M608.9,892.76a2.62,2.62,0,0,1-3.48-2,2.69,2.69,0,0,1,2.47-3,2.53,2.53,0,0,1,2.38,1.55A2.69,2.69,0,0,1,608.9,892.76Z" transform="translate(-249.58 -1.23)" fill="#fce39b"/><path d="M569.39,900.5c-3.55-.14-7.35-2.54-8.33-6.33-1.29-5,2.67-10.75,8.06-11.34,5-.55,10.1,3.48,10.16,8.72S574.14,900.69,569.39,900.5Z" transform="translate(-249.58 -1.23)" fill="#b98841"/><path d="M570,895.3a3.57,3.57,0,0,1-3.48-2c-1-2.21.73-5.43,3-5.58a3.89,3.89,0,0,1,3.76,4A3.78,3.78,0,0,1,570,895.3Z" transform="translate(-249.58 -1.23)" fill="#fce39b"/><path d="M512,895.72a7.89,7.89,0,0,1-8.34-6.33c-.68-4.72,4.14-9.46,8.93-8.81a7.61,7.61,0,0,1-.59,15.14Z" transform="translate(-249.58 -1.23)" fill="#b98841"/><path d="M512.63,890.52a2.63,2.63,0,0,1-3.48-2,2.69,2.69,0,0,1,2.47-3,2.53,2.53,0,0,1,2.38,1.55A2.72,2.72,0,0,1,512.63,890.52Z" transform="translate(-249.58 -1.23)" fill="#fce39b"/><path d="M480.67,890.66a7.89,7.89,0,0,1-8.33-6.33c-.68-4.73,4.14-9.46,8.93-8.81a7.6,7.6,0,0,1-.6,15.14Z" transform="translate(-249.58 -1.23)" fill="#b98841"/><path d="M481.31,885.45a2.63,2.63,0,0,1-3.48-2,2.69,2.69,0,0,1,2.48-3,2.54,2.54,0,0,1,2.38,1.54A2.7,2.7,0,0,1,481.31,885.45Z" transform="translate(-249.58 -1.23)" fill="#fce39b"/><path d="M596.58,860.14H552.27a9.45,9.45,0,0,0-9.34,9.56v47.81a9.45,9.45,0,0,0,9.34,9.57h44.31a9.45,9.45,0,0,0,9.34-9.57V869.7A9.45,9.45,0,0,0,596.58,860.14Zm1.1,48.28a8.24,8.24,0,0,1-8.15,8.34H560.24a8.24,8.24,0,0,1-8.15-8.34V876.55a8.25,8.25,0,0,1,8.15-8.35h29.29a8.25,8.25,0,0,1,8.15,8.35Z" transform="translate(-249.58 -1.23)" fill="#eab335"/><path d="M548.88,888l20.42-.46v8.15l-20,.09a4.44,4.44,0,0,1-3.39-5.06A4.07,4.07,0,0,1,548.88,888Z" transform="translate(-249.58 -1.23)" fill="#fce39b"/><path d="M399.61,318.85a22.56,22.56,0,0,0-5.07,1.73c-14.47,7.28-17.26,31.32-16.82,53.06l-42.45,16.08a172.84,172.84,0,0,0-40.33-23.15c-14.51-5.85-28.68-9.1-38.33-22.36a53.84,53.84,0,0,1-6.38-12.78c-1.32-4-4.65-78.56,38.42-164,22.16-44,47.47-87.3,98.92-123.49a274.58,274.58,0,0,1,56-30.32,2075.63,2075.63,0,0,1,267.72-12c54,1.07,105.24,4.21,153.48,8.76C1002,119.88,1031.09,271.94,975.29,344.21c-40.52,52.47-120,55.35-147.73,55.1-.14-2.78-1.32-19.78-15.93-31.75a44.64,44.64,0,0,0-30.47-9.76,118.11,118.11,0,0,0-8.64-37c-19.82-47.75-66.49-68.11-72.88-70.78C597.69,207.36,440.66,306.06,399.61,318.85Z" transform="translate(-249.58 -1.23)" fill="#fff"/><path d="M406.09,215.12c-2.35-10.76-6.15-35.56,5.4-61.58a90.61,90.61,0,0,1,12.84-20.75c8.26-19.43,26.6-55.09,64.19-84.4,47.76-37.25,98-42,129-44.47,18.23-1.47,114.92-9.25,190,54.15,11.41,9.64,29.3,24.94,43.24,51.2,29.13,54.88,17.16,112,12.16,131.45L848,249c-1.07-6.16-7.89-42-41.21-64.34-29.09-19.5-58.93-15.68-66.22-14.53-30,9.27-62.47,17.8-97.29,24.9A1024.26,1024.26,0,0,1,406.09,215.12Z" transform="translate(-249.58 -1.23)" fill="#b10115"/><path d="M473.32,61.53c-.42,9.23,2.93,13.38,4.39,14.87s3.42,2.73,23,4.5c10.58,1,14.2,1,18.58-.69,4.64-1.77,7-4.25,9.12-5.88,12.47-9.54,33.92-2.85,53,3.11,8.45,2.63,17.74,5.53,29.4,11.76,22.73,12.16,33.61,25.88,40.87,21.8,4.78-2.69,2-9.7,6.76-12.8,11.14-7.31,39.48,22.85,44.93,18,3.69-3.3-7.49-18.75-3.38-22.84s17.7,10.43,40.21,13.5c5.16.7,24.49,3.33,36.48-7.27C789.81,88,791.55,62.88,780.75,38a171.2,171.2,0,0,1,54.73,47.73,173,173,0,0,1,30.4,141.14l-20.27,5.53a108.81,108.81,0,0,0-32.09-42.54,98.75,98.75,0,0,0-34.8-18,93.93,93.93,0,0,0-52.36,1.38c-61.06-10.65-144.9-16.58-240.2,3.81a614.19,614.19,0,0,0-81.76,23.52,81.78,81.78,0,0,1,1-29.4,84.76,84.76,0,0,1,8.79-22.83c3.13-5.76,4.85-7.47,8.78-13.5a171,171,0,0,0,13.51-25.59C441.14,99.29,450.85,84.07,473.32,61.53Z" transform="translate(-249.58 -1.23)" fill="#820010" opacity="0.58"/><path d="M780.75,290.18c-1.45,4.53-4.23,3.33-6.93,9.34-3,6.67-.55,10.28-4.05,14.88a14.55,14.55,0,0,1-8.11,5c-8.56,2.24-15.49-3.71-16.39-4.49a21.25,21.25,0,0,1-6.75-13.84c-.19,2.27-.8,5-2.71,6.05-3,1.68-7.42-1.75-12.83-5.36-9.48-6.32-24-14.56-26-12.28-1.45,1.61,4,7.79,2.71,9.17-1.66,1.7-12.79-5.11-21.79-12.46-5.77-4.69-9.88-9-13.52-7.61-2.66,1-3.05,4.25-6.08,4.85-2.5.49-4.62-1.24-6.92-2.94-8-5.89-14.07-10.4-17.57-9-4.07,1.64-1.7,10.1-6.93,13-1.7.95-3.43.85-10.3-.69a143.66,143.66,0,0,1-15.54-4c-17.62-5.92-16.33-7.87-21.12-7.61-8.84.49-11.76,7.08-18.91,5-4.45-1.28-5-4.3-8.62-4.15-4.89.21-5.35,5.86-11.82,9-7.14,3.45-15.32.82-16.22.52-6.62-2.22-10.38-7.15-13.85-5.36a4.67,4.67,0,0,0-1.86,1.9c-4.94,8.13-19.22,19.95-22,22.14-9.3,7.43-22.31,12.94-25.17,9.69-1.31-1.5-.3-4.68.85-7.27Q442,318.12,438.86,314.92q-2.12-2.16,3.55-12.28c-3.17,4.19-21.72,28.25-42.74,26.29-3-.28-11.7-1.09-14.86-6.92-1.9-3.5-.72-6.81-.51-14.53a80.7,80.7,0,0,0-.33-9.83h0c-.06-.73-.14-1.42-.22-2.09-.19-1.66-.42-3.11-.63-4.33-.35-2.84-.85-7.17-1.35-12.45-1.67-17.31-1.43-24.18-.55-28.22a20,20,0,0,1,.88-2.92A33.41,33.41,0,0,1,390,235.7c-.8-.58-5.19-3.88-5.74-9.51a13.31,13.31,0,0,1,2.89-9.43c.23-.3.49-.59.76-.9a16,16,0,0,1,6.15-4.2c-4.94-8.3-4.74-12.28-3.38-14.36,2.94-4.47,12-1.19,18.58-8.13,1.44-1.51,1.19-1.87,3.55-4.49,4.15-4.63,6.43-5.2,9.46-8.13,5.94-5.75,3.46-9.66,8.1-13,5.27-3.75,8.95.89,15.21-2.08,8.18-3.89,5.87-13.73,14.35-18a17.23,17.23,0,0,1,15.21.35c6.59,3.54,5.92,9.92,10,10.72,7.1,1.41,11.35-17.84,23.14-19.54,9.74-1.41,18.56,10,18.92,9.51s-7.18-8.73-19.76-16.78c-4.85-3.09-8.55-4.94-10.75-6.29-1.61-1-2.41-1.74-2.26-2.53.25-1.28,3-2.14,6.74-2.48a51.29,51.29,0,0,1,23.47,3.73c.48.19,1,.4,1.4.59,6.36,2.78,10.24,5.79,10.45,5.43s-4.6-4.5-11.48-8.13c-1.22-.65-2.35-1.19-3.38-1.65-2.7-1.24-4.77-2-6.17-2.47l-.54-.22c-1.06-.43-1.6-.75-1.57-1.2s.66-1,1.74-1.53c3.82-1.86,13.33-3.41,22.25,0,8.74,3.31,9.14,8.41,15,8.64,9.14.37,11.41-11.78,22.13-13.14,6.39-.82,12.62,2.61,16.24,5.76a13.66,13.66,0,0,1,2.86,3.2,1.61,1.61,0,0,1,.32,1.24c-.44,1.18-4.87-1-10.81,1.21-5.45,2-9.16,6.53-8.61,7.44.83,1.38,10.49-7.18,22.3-5.19,7,1.18,12.62,5.68,12.16,7.44-.41,1.6-5.63.24-12.5,3.29a27.34,27.34,0,0,0-6.93,4.49c3.93,2.42,9.84,5.15,16.89,4.85,13.57-.59,18.54-11.9,28.72-10,8.59,1.57,8.08,10.16,17.23,12.28,11,2.52,15.54-8.88,26.52-7.1,11.28,1.84,10.16,14.48,23.48,18.68,11.51,3.64,18-4,28,2.08a23.17,23.17,0,0,1,9.46,10.2c2.94,6.7.81,12.25,4.39,14.71,2.2,1.49,3.94.07,8.28.17,9.2.19,16,6.91,17.56,8.47.59.58,1.21,1.25,1.83,2,4.17,4.82,8.77,12.49,6.28,17.39-1,1.91-2.75,2.91-4.43,3.74-2,1-3.86,1.83-4,3.7-.24,3,4.28,4.77,3.71,8.13-.33,2-2.09,2-2.7,3.81-.71,2.14,1,4.23,3.06,6.53,2.6,2.84,5.77,6,5.56,9.9-.14,2.45-1.51,3.38-2.9,5.17a12.09,12.09,0,0,0-2.17,4.17c-.58,1.89-1.1,4.82,1.18,14.18.42,1.73.84,3.28,1.26,4.68C779.74,283.24,782.21,285.61,780.75,290.18Z" transform="translate(-249.58 -1.23)" fill="#c5c3bd"/><path d="M780.75,268.08c-.91,2.86-2.36,3.43-4,5a13,13,0,0,0-2.95,4.35c-3,6.67-.55,10.28-4.05,14.88a14.55,14.55,0,0,1-8.11,5c-8.56,2.24-15.49-3.71-16.39-4.49A21.25,21.25,0,0,1,738.52,279c-.19,2.27-.8,5-2.71,6-3,1.68-7.42-1.75-12.83-5.36-9.48-6.32-24-14.56-26-12.28-1.45,1.61,4,7.79,2.71,9.17-1.66,1.7-12.79-5.11-21.79-12.46-5.77-4.69-9.88-9-13.52-7.61-2.66,1-3.05,4.25-6.08,4.85-2.5.49-4.62-1.24-6.92-2.94-8-5.89-14.07-10.4-17.57-9-4.07,1.64-1.7,10.1-6.93,13-1.7.95-3.43.85-10.3-.69a143.66,143.66,0,0,1-15.54-4c-17.62-5.92-16.33-7.87-21.12-7.61-8.84.49-11.76,7.08-18.91,5-4.45-1.28-5-4.3-8.62-4.15-4.89.21-5.35,5.86-11.82,9-7.14,3.45-15.32.82-16.22.52-6.62-2.22-10.38-7.15-13.85-5.36a4.67,4.67,0,0,0-1.86,1.9c-4.94,8.13-19.22,19.95-22,22.14-9.3,7.43-22.31,12.93-25.17,9.69-1.31-1.5-.3-4.68.85-7.27Q442,296,438.86,292.82q-2.12-2.16,3.55-12.28c-3.17,4.19-21.72,28.25-42.74,26.28-3-.27-11.7-1.08-14.86-6.91a8.07,8.07,0,0,1-.84-2.26h0a10.71,10.71,0,0,1-.22-2.09c-.06-2.45.43-5.5.55-10.17a81.59,81.59,0,0,0-1.18-16.26c-.35-2.84-.85-7.17-1.35-12.45q-.33-3.3-.55-6.12c-1.39-17.06-.45-21.49.88-25a32.08,32.08,0,0,1,5.09-8.77c.23-.3.49-.59.76-.9a16,16,0,0,1,6.15-4.2c-4.94-8.3-4.74-12.28-3.38-14.36,2.94-4.47,12-1.19,18.58-8.13,1.44-1.51,1.19-1.87,3.55-4.49,4.15-4.63,6.43-5.2,9.46-8.13,5.94-5.75,3.46-9.66,8.1-13,5.27-3.75,8.95.89,15.21-2.08,8.18-3.89,5.87-13.73,14.35-18a17.23,17.23,0,0,1,15.21.35c6.59,3.54,5.92,9.92,10,10.72,7.1,1.41,11.35-17.84,23.14-19.54,9.74-1.41,18.56,10,18.92,9.51s-7.18-8.73-19.76-16.78c-4.85-3.09-8.55-4.94-10.75-6.29a33.09,33.09,0,0,1,4.48-5,13.75,13.75,0,0,1,7.11-3.53,13.57,13.57,0,0,1,6.64.81l.54.22a31.44,31.44,0,0,1,9.18,6.23c1.52,1.4,2.45,2.4,2.56,2.25s-.32-.7-1.16-1.66a55.65,55.65,0,0,0-4.41-4.35c-1.79-1.63-4-3.48-6.54-5.42,3.82-1.86,13.33-3.41,22.25,0,8.74,3.31,9.14,8.41,15,8.64,9.14.37,11.41-11.78,22.13-13.14,6.39-.82,12.62,2.61,16.24,5.76-.46.36-.85.71-1.21,1a38.94,38.94,0,0,0,4.07,2.18,1.61,1.61,0,0,1,.32,1.24c-.44,1.18-4.87-1-10.81,1.21-5.45,2-9.16,6.53-8.61,7.44.83,1.38,10.49-7.18,22.3-5.19,7,1.18,12.62,5.68,12.16,7.44-.41,1.6-5.63.24-12.5,3.29a27.34,27.34,0,0,0-6.93,4.49c3.93,2.42,9.84,5.15,16.89,4.85,13.57-.59,18.54-11.9,28.72-10,8.59,1.57,8.08,10.16,17.23,12.28,11,2.52,15.54-8.88,26.52-7.1,11.28,1.84,10.16,14.48,23.48,18.68,11.51,3.64,18-4,28,2.08a23.17,23.17,0,0,1,9.46,10.2c2.94,6.7.81,12.25,4.39,14.71,2.2,1.49,3.94.07,8.28.17,9.2.19,16,6.91,17.56,8.47.59.58,1.21,1.25,1.83,2-1.18.68-2.07,1.45-2.16,2.73-.24,3,4.28,4.77,3.71,8.13-.33,2-2.09,2-2.7,3.81-.7,2.12,1,4.19,3,6.46,2.61,2.87,5.83,6,5.62,10s-3.41,3.95-5.07,9.34a10.73,10.73,0,0,0-.49,2.86c-.09,2.15.24,5.49,1.67,11.32.33,1.35.66,2.59,1,3.75C779.59,261,782.26,263.36,780.75,268.08Z" transform="translate(-249.58 -1.23)" fill="#fff"/><path d="M891.89,264.24a7.72,7.72,0,0,1-.45,7.61,7.45,7.45,0,0,1-8.56,2.77c1.09,9.27-5.06,17-12.16,17.75-5.18.54-10.57-2.69-13.51-8.07a8,8,0,0,1-15.77-1.61,11.56,11.56,0,0,1-16.89.92,12.23,12.23,0,0,1-.22-16.83c-6.35,1.26-12-2.9-12.84-8.08-.61-3.87,1.55-8.09,5.4-10.37a8.6,8.6,0,0,1-5.1-4.51,7.63,7.63,0,0,1-.75-3.57,8.39,8.39,0,0,1,8.56-7.84c-2.87-4-3.66-9.1-1.8-13.14,2.63-5.74,10.32-8.78,17.56-5.77a7.8,7.8,0,0,1,6.08-9.22,7.63,7.63,0,0,1,8.79,6.46c.75-5.61,6-9.06,10.58-7.84,3.92,1,6.78,5.4,6.08,10.14a17.11,17.11,0,0,1,18.47,1.85c5.93,4.83,8,13.44,5,21a14.75,14.75,0,0,1,8.58,2.66,13.9,13.9,0,0,1,5.83,8.87C906.1,255,900.46,263.14,891.89,264.24Z" transform="translate(-249.58 -1.23)" fill="#c5c3bd"/><path d="M889.19,243.94a7.77,7.77,0,0,1-.45,7.61,7.42,7.42,0,0,1-8.56,2.77c1.09,9.27-5.07,17-12.16,17.76-5.18.54-10.58-2.69-13.51-8.07a8,8,0,0,1-15.77-1.62,11.56,11.56,0,0,1-16.89.93,12.25,12.25,0,0,1-.23-16.84,11.22,11.22,0,0,1-9.83-2.66,7.63,7.63,0,0,1-.75-3.57,8.39,8.39,0,0,1,8.56-7.84c-2.87-4-3.66-9.1-1.8-13.14,2.63-5.74,10.32-8.78,17.56-5.77a7.8,7.8,0,0,1,6.08-9.22,7.63,7.63,0,0,1,8.79,6.46c.75-5.61,6-9.06,10.58-7.84,3.92,1,6.78,5.4,6.08,10.14a17.11,17.11,0,0,1,18.47,1.85c5.93,4.83,8,13.44,5,21a14.75,14.75,0,0,1,8.58,2.66A14.89,14.89,0,0,1,889.19,243.94Z" transform="translate(-249.58 -1.23)" fill="#fff"/><path d="M359.78,932.81a253.3,253.3,0,0,0,7.94-30.62c5.32-27.38,3-39.6,8.23-62.13a166.36,166.36,0,0,1,13.75-37.68c3.07-23.24,6.15-42.49,8.53-56.5.87-5.11,1.38-8,1.86-10.45,1-5.11,1.8-8.82,2-9.92,2.29-10.61,4-23.62,4.63-27.87,1.33-8.86,4.38-21.69,12-38.64,2.25-.86,24-8.84,41.44,2.9,14.56,9.81,19,28.66,20.24,33.82.18.75.31,1.37.4,1.8-3.63,23.46-7.12,42.85-9.76,56.76-4,21.05-7.81,38.73-15.44,74.07-6.41,29.72-7.53,34-11.72,54.1q-5.58,26.85-10.57,53Z" transform="translate(-249.58 -1.23)" fill="#b20013"/><path d="M382.89,970.05a6.74,6.74,0,0,1-7.17,4.75,6.54,6.54,0,0,1-4.94-4.35,6.46,6.46,0,0,1-4.68,2c-3-.18-5.91-3.28-6.26-7.59-2.62,2-6,1.94-8.07.2-2.65-2.23-2.94-7.18.26-10.31a5.32,5.32,0,0,1-3.24-5.39,5.23,5.23,0,0,1,3.12-4.18,5.9,5.9,0,0,1-3-7.08,5.71,5.71,0,0,1,6.76-3.83,7.27,7.27,0,0,1,1.49-8.76,6.8,6.8,0,0,1,7.73-.78,8.17,8.17,0,0,1,4.72-7.3c3.54-1.46,8.06.29,10.07,4.38,1-5.67,6.42-8.79,10.59-7.42,3.29,1.09,5.68,4.93,5.28,9.24.1-5.42,4.74-8.95,8.42-8.26,3.46.65,6.45,5.1,5.25,10a2.5,2.5,0,1,1,4.9,1c.3-4.73,4.48-7.59,7.63-6.8,2.73.68,5,4.17,4.23,8.07a5.8,5.8,0,0,1,6.1-1.24,6.11,6.11,0,0,1,3.32,3.71,8,8,0,0,1,9.24,2.66,8.54,8.54,0,0,1,1,7c.32.36,4.11,4.81,2.66,10.44a11.17,11.17,0,0,1-4.3,6.19c2.83,5,2.59,9.54.62,10.91-.27.19-1.48,1-4,0a5,5,0,0,1-1.05,7.28,4.77,4.77,0,0,1-6.51-2,6.88,6.88,0,0,1-4.9,3,6.69,6.69,0,0,1-6.26-3.47,6.68,6.68,0,0,1-3.63,3.41c-2.92,1-6.64-.78-8.6-4.51a5.33,5.33,0,0,1-4.4,4.12c-2.63.22-5.36-2.23-5.43-5.68-.63,3.17-3.49,5.12-6.07,4.62a5.39,5.39,0,0,1-4-4.5,3.88,3.88,0,0,1-2.19,4C385.76,974.21,383.29,972.77,382.89,970.05Z" transform="translate(-249.58 -1.23)" fill="#fffdfd" stroke="#ac9b9b" stroke-miterlimit="10" stroke-width="2.32"/></g></svg>