<svg xmlns="http://www.w3.org/2000/svg" viewBox="0 0 1080 1920"><g style="isolation:isolate"><g id="costumes"><g id="_6" data-name="6"><path d="M477.85,996.93a895.89,895.89,0,0,0-7.72,102.85c-.79,46.87,1.42,140,6.23,171.94,2,13,.76,24.54,1.51,45,1.6,44,2.52,68.79,4.73,99.91.93,13,2.43,32.06,4.8,55.2a146.75,146.75,0,0,0,49,2.4,187.19,187.19,0,0,1,.43-23.18c1.37-17,4.64-28.34,7.25-38.74a449.43,449.43,0,0,0,12-73.44c.44-6,1.39-21.09.89-40.65-.29-11.27-1-21.06-1.73-29,.28-1.27.69-3.19,1.14-5.53a222.38,222.38,0,0,0,3.45-25.36c1.1-13.53,4.05-26.27,7.29-47.59,4.37-28.71,2.32-27.29,9.36-95,.89-8.57,2.16-20.43,3.67-37.44,2.36-26.35,3-39.5,3-45.36-.27-28.28-15-52.86-35.42-60.86C521.27,941.83,488.24,960.27,477.85,996.93Z" fill="#534741"/><path d="M482.57,1252.32a152.89,152.89,0,0,0,9.75,16.54,143.25,143.25,0,0,0,14.14,17.7c-4.12-3.07-8.44-6.57-12.86-10.55-2.72-2.45-5.26-4.9-7.65-7.3a6.87,6.87,0,0,0,.56-1.87,6.53,6.53,0,0,0,.05-1.36Z" fill="#fff" opacity="0.5" style="mix-blend-mode:overlay"/><path d="M557.83,1257.71q-4.29,6.3-9.21,12.87-6,8-11.88,14.89a51.1,51.1,0,0,0,9.94-6.48,55.17,55.17,0,0,0,4.89-4.61,48.91,48.91,0,0,0,3.65-7.48A52.34,52.34,0,0,0,557.83,1257.71Z" fill="#fff" opacity="0.5" style="mix-blend-mode:overlay"/><path d="M499.53,1266.93c.64-.64,5.71,9.75,16.24,12.76,8.91,2.54,16.09-1.8,16.35-.84s-8.35,8.13-17.35,5.85C504.08,1282,498.8,1267.65,499.53,1266.93Z" fill="#fff" opacity="0.5" style="mix-blend-mode:overlay"/><path d="M674.58,1002.33a895.89,895.89,0,0,1,7.72,102.85c.79,46.87-1.42,140-6.23,171.94-2,13-.76,24.54-1.51,45.05-1.6,44-2.52,68.79-4.73,99.91-.93,13.05-2.43,32.06-4.8,55.2a146.75,146.75,0,0,1-49,2.4,187.19,187.19,0,0,0-.43-23.18c-1.37-17-4.64-28.34-7.25-38.74a449.43,449.43,0,0,1-12-73.44c-.44-6-1.39-21.09-.89-40.65.29-11.27,1-21.06,1.73-29-.28-1.27-.69-3.19-1.14-5.53a222.38,222.38,0,0,1-3.45-25.36c-1.1-13.53-4-26.27-7.29-47.59-4.37-28.71-2.32-27.29-9.36-95-.89-8.57-2.16-20.43-3.68-37.44-2.35-26.35-3-39.5-3-45.36.28-28.28,15-52.86,35.43-60.86C631.16,947.23,664.19,965.67,674.58,1002.33Z" fill="#534741"/><path d="M669.86,1257.72a152.89,152.89,0,0,1-9.75,16.54A143.25,143.25,0,0,1,646,1292c4.12-3.07,8.44-6.57,12.86-10.55,2.72-2.45,5.26-4.9,7.65-7.3a6.87,6.87,0,0,1-.56-1.87,7.41,7.41,0,0,1-.06-1.36Q667.87,1264.3,669.86,1257.72Z" fill="#fff" opacity="0.5" style="mix-blend-mode:overlay"/><path d="M594.6,1263.11q4.29,6.3,9.21,12.87c4,5.34,8,10.29,11.88,14.89a51.1,51.1,0,0,1-9.94-6.48,55.36,55.36,0,0,1-4.9-4.61,49.91,49.91,0,0,1-3.64-7.48A52.34,52.34,0,0,1,594.6,1263.11Z" fill="#fff" opacity="0.5" style="mix-blend-mode:overlay"/><path d="M652.9,1272.33c-.64-.64-5.72,9.75-16.24,12.76-8.91,2.54-16.09-1.8-16.35-.84s8.35,8.13,17.35,5.85C648.34,1287.4,653.63,1273.05,652.9,1272.33Z" fill="#fff" opacity="0.5" style="mix-blend-mode:overlay"/><path d="M525,617c1.89,2.2,22.95,25.87,56,22.56,31.42-3.14,47.31-28,49.08-30.84a93.93,93.93,0,0,1,12.25,34.61c4,28.56-7.67,51.21-22.15,81.54a283.23,283.23,0,0,1-36.24,57c-14.66-13-63-59.34-63.76-126.51A145,145,0,0,1,525,617Z" fill="#534741"/><path d="M521.52,611.45A65.18,65.18,0,0,0,581,639.56c32.92-3.1,49-30.63,50.4-33.12q4.13,6.19,8.24,12.39c-1.51,2.58-20.19,33.12-57.68,35.61s-59.91-25.18-61.78-27.55Q520.86,619.17,521.52,611.45Z" fill="#fff" opacity="0.5" style="mix-blend-mode:overlay"/><path d="M538,645.34c5.72,11.25,14.06,27.74,24.17,48,8.15,16.34,11.41,23,16.44,23.15,8,.22,12.63-16.31,25.17-41.94,7.92-16.2,29.65-57.8,35.9-55.71,6.53,2.19-3.69,52.12-17.78,94-13.7,40.67-22.59,67.07-36.58,67.79-20.08,1-42.32-51.31-47.32-94.3A178.93,178.93,0,0,1,538,645.34Z" fill="#fff" opacity="0.5" style="mix-blend-mode:overlay"/><path d="M530.36,615.56c-14.87,3.75-27.39,7-36.72,9.36-51,13.15-67.34,18-71.76,30.72-1.26,3.64-.62,8.08.72,16.8,5.88,38.33,8.82,57.49,9,58.39,13.08,56,27.16,112.07,30.94,151.76.8,8.4,1,14.79.67,67.2-.38,55.94-1.12,107.27-2,153.28A196.24,196.24,0,0,0,513,1127.23a185.83,185.83,0,0,0,60.52,7.55Q580.27,958.1,587,781.42q-13.25-44.67-29.59-92.12Q544.18,651.1,530.36,615.56Z" fill="#fff"/><path d="M530.51,615.92a28.17,28.17,0,0,0,2.16-1.95,26.18,26.18,0,0,0,3.27-4,10.43,10.43,0,0,0-4.68-2.52c-5.06-1.15-9.42,2.28-11,3.51-5.63,4.43-7.42,10.94-8.39,14.66-3,11.62-6.19,23.85-9.42,37.25l38.11,6-25.33,25.92a283,283,0,0,0,20.62,33.47,265,265,0,0,0,51.34,53.86c-10.2-26.48-16.83-47.89-21.07-62.92-3.73-13.2-6.91-26.08-13.94-45.37-2.58-7.09-4.22-11-9.84-25.92C537.27,634.46,533.2,623.35,530.51,615.92Z" fill="#e3e3f1"/><path d="M430,664.47a318.45,318.45,0,0,0,14.35,52c10.52,28.47,17.79,35.34,31.38,68.8,12.91,31.78,20.23,59.74,18.83,60.4-.86.41-5.83-9.24-12-21.14-4.32-8.41-5.74-11.71-6.57-11.41-2,.72,5.16,20.59,3.59,48-.56,9.63-1.64,10.48-3,22.48a243.43,243.43,0,0,0-.3,49.67c1.3,17.9-.37,50.39-14.05,114.43-1.13-47-.35-84,.6-109.4.67-17.93,1.42-30.12,0-49-2-26.34-6.79-46.77-13.15-73.83-7.36-31.3-10.62-37.38-14.65-62.08-2.17-13.31-3.35-24.53-4.78-38.26-1.48-14.17-1.9-21.21-1.8-29.19A189.78,189.78,0,0,1,430,664.47Z" fill="#e3e3f0"/><path d="M462.87,900A107.88,107.88,0,0,0,488,908.1a106.23,106.23,0,0,0,42.45-.67c.19,3,3.5,54.6-.6,71.48-.53,2.17-1.65,6.55-5.08,9.73-4.22,3.9-9.63,3.83-12.85,3.69-17.23-.78-45.49-7.24-49-8.06V900Z" fill="#c6c6d7"/><g opacity="0.43"><path d="M467.05,917.16a117.8,117.8,0,0,0,52.76,6.37c2.55-.23,5.08-.61,7.62-1-2.48.68-5,1.19-7.53,1.65a90.35,90.35,0,0,1-52.85-7Z"/></g><path d="M629.72,612.5c5,2.12,13.19,5.47,23.4,9.18,46.33,16.85,60.24,14.14,70.56,24.48,11.72,11.73,7.16,36.54-2.43,85.68-9.31,47.68-27,110.51-30.94,151.76-.8,8.4-1,14.79-.67,67.2.38,55.94,1.12,107.26,2,153.28a183.79,183.79,0,0,1-51.79,24.16,174.22,174.22,0,0,1-67.91,5.53L565.9,782.43a876.28,876.28,0,0,1,29.59-92.12C606.44,661.74,618.1,635.78,629.72,612.5Z" fill="#fff"/><path d="M629.9,611.06a7.36,7.36,0,0,1-4.14-4.68,12,12,0,0,1,3.55-1.19,13.77,13.77,0,0,1,5.27.29c3.71,1,7.34,5.63,8.46,11.88.28,4.66.71,9.5,1.32,14.52a245.46,245.46,0,0,0,6,32l-38.11,6,25.33,25.93A283.79,283.79,0,0,1,617,729.32a265,265,0,0,1-51.34,53.86c1.8-6.28,4.36-15.15,7.53-25.78,5.56-18.65,8.34-28,12.42-40.14,2.88-8.58,7.78-23.11,15.3-41.58,3.82-9.38,6.76-16,12.42-28.62C620.07,632,625.83,619.65,629.9,611.06Z" fill="#e3e3f1"/><path d="M722.89,665.48a318.45,318.45,0,0,1-14.35,52C698,746,690.75,752.82,677.16,786.28c-12.91,31.78-20.23,59.75-18.83,60.41.86.41,5.83-9.25,12-21.14,4.32-8.41,5.74-11.71,6.57-11.41,2,.71-5.16,20.59-3.59,48,.56,9.63,1.64,10.49,3,22.49a243.33,243.33,0,0,1,.3,49.66c-1.3,17.91.37,50.4,14.05,114.44,1.13-47,.35-84-.6-109.4-.67-17.94-1.42-30.12,0-49,2-26.33,6.79-46.76,13.15-73.82,7.36-31.3,10.62-37.39,14.65-62.09,2.17-13.3,3.35-24.53,4.78-38.25,1.48-14.17,1.9-21.21,1.8-29.2A189.76,189.76,0,0,0,722.89,665.48Z" fill="#e3e3f0"/><path d="M690,901.05a108.36,108.36,0,0,1-25.1,8.06,106,106,0,0,1-42.45-.68c-.19,3-3.5,54.61.6,71.48.53,2.18,1.65,6.56,5.08,9.73,4.22,3.91,9.63,3.84,12.85,3.7,17.23-.79,45.49-7.24,49-8.06V901.05Z" fill="#c6c6d7"/><g opacity="0.33"><path d="M685.83,918.17a90.26,90.26,0,0,1-52.85,7c-2.53-.46-5.05-1-7.53-1.64,2.54.38,5.07.76,7.62,1a118.08,118.08,0,0,0,52.76-6.37Z"/></g><g opacity="0.64"><path d="M592.44,830.41c1.12,6-4,12.37-9.12,11.75-4-.48-7.21-5.11-7.17-9.9,0-3.77,2.07-7.81,5.53-9.06C586.22,821.55,591.48,825.32,592.44,830.41Z" fill="#7e7d88"/><path d="M591.54,909.44c1.12,6-4,12.37-9.11,11.75-4-.49-7.22-5.11-7.18-9.9,0-3.77,2.07-7.81,5.53-9.06C585.32,900.58,590.59,904.35,591.54,909.44Z" fill="#7e7d88"/><path d="M591.09,989.48c1.12,6-4,12.36-9.11,11.74-4-.48-7.22-5.1-7.18-9.9,0-3.76,2.08-7.8,5.53-9.06C584.87,980.61,590.14,984.39,591.09,989.48Z" fill="#7e7d88"/><path d="M588.85,1068c1.12,6-4,12.37-9.11,11.75-4-.49-7.22-5.11-7.18-9.9,0-3.77,2.07-7.81,5.53-9.06C582.63,1059.14,587.9,1062.91,588.85,1068Z" fill="#7e7d88"/></g><path d="M514.07,614.7a5.07,5.07,0,0,0-5.18-2.59,5.23,5.23,0,0,0-3.7,6.36c.31,5.38.74,14.58.83,26.06.18,24.71-1.44,35-.83,56.27.2,6.75.69,17.32,2.19,30.44a21.09,21.09,0,0,0-15.18,24.21A20.82,20.82,0,0,0,514.06,772c12-1.05,20.16-13.27,18.46-24.41-1.27-8.34-7.95-15.38-16.94-17.72-1.09-7.63-2.21-17.51-2.77-29.09-.85-17.62.15-27.9.82-56.27C513.83,636.44,514,626.36,514.07,614.7Z" fill="#001a20"/><path d="M515.67,766.17c-8.43,2.12-17.28-4.17-18.91-12.62-1.76-9.16,5.37-18.75,14.51-19,8.21-.25,15.19,7.1,15.71,15.23C527.43,756.83,523,764.34,515.67,766.17Z" fill="#c0c3be"/><path d="M513.47,758.6c-4.61,1.34-9.87-2.38-10-7.12a7.92,7.92,0,0,1,7.68-7.8,7.6,7.6,0,0,1,2.33,14.92Z" fill="#faffff"/><path d="M629,741.25c-.86,1.26-2,3-3.42,5.16-3.43,5.36-6.13,10.14-8.35,14.31-7.87,14.86-7.74,18.52-7.55,20.25a13.9,13.9,0,0,0,2.65,7.3c4.75,6.14,13.76,5.35,14.83,5.24l.63-3.09a12.33,12.33,0,0,1-7.43-1.42,11.65,11.65,0,0,1-4.1-3.8,11.48,11.48,0,0,1-1.76-5.29c-.31-3.28.83-5.81,3.81-11.45,1.15-2.17,3.51-6.56,7.79-13.88,1.53-2.61,3.15-5.33,5.38-8.72,1.12-1.69,2.08-3.09,2.78-4.09Z" fill="#9a969a"/><path d="M625.32,790.37,625,793.7a8,8,0,0,0,4.46,2.44c3.11.49,6.85-1.08,7.09-3,.25-2.09-3.62-5-7.23-4.63A7.11,7.11,0,0,0,625.32,790.37Z" fill="#011726"/><path d="M672.88,741.31c.52,1.52,1.23,3.63,2,6.18,2,6.39,3.42,12,4.52,16.87,3.94,17.31,2.89,21.06,2.28,22.8a15.21,15.21,0,0,1-4.39,6.87c-6.13,5.16-14.67,2.1-15.68,1.72l.15-3.35a11.52,11.52,0,0,0,12.48-2.52,12.58,12.58,0,0,0,3-5c1.12-3.31.65-6.21-.84-12.77-.58-2.53-1.77-7.66-4.09-16.28-.83-3.08-1.72-6.29-3-10.35-.66-2-1.25-3.71-1.68-4.92Z" fill="#9a969a"/><path d="M664.2,793l-.56,3.51a7.64,7.64,0,0,1-4.93,1.41c-3.14-.27-6.37-2.82-6.12-4.86.28-2.22,4.74-4.22,8.16-3A7.06,7.06,0,0,1,664.2,793Z" fill="#011726"/><path d="M638.83,610.35a198.49,198.49,0,0,1,9.81,95.78,26.68,26.68,0,0,0-10.77,5.78,27.06,27.06,0,0,0-7.58,11.49,33.9,33.9,0,0,0-1.27,6.27,66.68,66.68,0,0,0-.65,11.5l6.52.55a51.14,51.14,0,0,1,1.1-11c.9-4.26,1.49-7,3.51-10,.94-1.38,4.36-6.38,10.81-7.55,4.8-.87,10.63.5,13.9,4.5,1.74,2.11,2.26,4.36,2.92,7.2a33.1,33.1,0,0,1,.53,10.21,47.62,47.62,0,0,1-.71,5.74l7.42.83a38,38,0,0,0,1.27-9.65A27.93,27.93,0,0,0,674.26,722a24.77,24.77,0,0,0-6.5-9.76,25.1,25.1,0,0,0-10.53-5.77,228.39,228.39,0,0,0-9.73-91.63c-.24-.56-3.26-7.19-6.2-7.35a2.43,2.43,0,0,0-1.74.46A2.9,2.9,0,0,0,638.83,610.35Z" fill="#031724"/><path d="M396.73,1560.91c19.64,8.24,35.17,10.38,44.21,11a71,71,0,0,0,17.9-.71c4.19-.75,10.88-2.37,22.7-8.4,11.07-5.66,11.31-7.36,23.87-14.77,10.65-6.28,19.4-10.32,31.73-16,8.05-3.72,15-6.66,20.1-8.79l1.26,15.7-27,14.14c-.73-1-6.72-8.93-9.5-7.66-1.19.55-1.51,2.67-2,5.89a30.49,30.49,0,0,0-.24,7.07c-13.11,7.57-24.35,13.6-33,18.1-7.64,4-12.39,6.28-19.16,7.93-7.42,1.81-14.32,2.11-23.4,1.49a195.83,195.83,0,0,1-48.22-9.85,10.75,10.75,0,0,1,.79-15.12Z" fill="#59433f" stroke="#000" stroke-miterlimit="10" stroke-width="1.31"/><path d="M396.88,1561.38a31,31,0,0,1,4.56-7.85c4.07-5.08,8.69-7.42,12.56-9.42,15.46-8,23.19-12,27.65-15.87,4.05-3.53,1.83-2.63,11.3-12.56,8.82-9.25,13.22-13.87,16.81-16.81,5.32-4.36,8.57-6.16,10.05-10.52a14.24,14.24,0,0,1,3-5.81,12.23,12.23,0,0,1,5-3.3c3.43-1.13,5.16.28,13.67,2.36,6.71,1.63,8.16,1.37,9.26,3,2.34,3.42-1,9.34-1.88,10.84a20.76,20.76,0,0,0,10.83,0c3.94-1.12,6.5-3.26,11.16-7.23a79.73,79.73,0,0,0,7.85-7.69,73.93,73.93,0,0,1,17.37,43.4,236.06,236.06,0,0,0-38.81,20.44c-15.88,10.39-20.12,15.9-34.4,22.38-5.74,2.61-18.22,8.14-34.39,9C424.64,1576.87,406,1567.14,396.88,1561.38Z" fill="#ece5dc" stroke="#000" stroke-miterlimit="10" stroke-width="1.31"/><path d="M437.56,1531.23c5.14,9.25,16,14.93,26.38,13.1,5.94-1.21,11.71-5.17,17.16-7.79,5.73-2.8,11.29-6,17.43-8,10.56-2.85,21.53,1.36,30.44,6.9-9.1-4.89-19.83-8.75-30.14-5.81-7.83,2.67-15.32,7.33-22.8,10.94-3.81,1.91-7.6,4.1-11.89,4.84-10.71,1.77-22-4.5-26.58-14.21Z"/><path d="M486.41,1534.68c-3.47-11-.15-24.42,9.07-31.69-7.74,8.55-10.62,20.35-9.07,31.69Z"/><path d="M477.81,1506.76c1.2.85,2.48-.37,8.83-2.94,3.76-1.52,10.34-3.94,15.91-5.77,3.1-1,4.48-1.4,6-2.83,2.28-2.14,4.32-6.11,2.95-9-.84-1.74-3-2.45-7.19-3.89a66.11,66.11,0,0,0-7.77-1.88c-7.22-1.52-7.94-1.46-8.72-1.26-4.08,1-6.31,4.87-6.95,6-1,1.72-1.36,3.17-2,6.71C477.2,1501.14,476.4,1505.77,477.81,1506.76Z" fill="none" stroke="#000" stroke-miterlimit="10" stroke-width="1.31"/><path d="M445.65,1539.87a398.83,398.83,0,0,1,32.16-33.11,400.44,400.44,0,0,1-32.16,33.11Z"/><path d="M442.71,1529a19,19,0,0,1,8.18.59,19.63,19.63,0,0,1,9.84,6.83,2.74,2.74,0,0,0,4.83-2.59,24.87,24.87,0,0,0-22.85-10.37,3.09,3.09,0,0,0-3.13,3.36A3,3,0,0,0,442.71,1529Z" fill="none" stroke="#000" stroke-miterlimit="10" stroke-width="1.31"/><path d="M448.48,1522.9a19.27,19.27,0,0,1,8.18.59,19.69,19.69,0,0,1,9.84,6.83,2.74,2.74,0,0,0,4.83-2.59,24.87,24.87,0,0,0-22.85-10.36,3.07,3.07,0,0,0-3.12,3.35A3,3,0,0,0,448.48,1522.9Z" fill="none" stroke="#000" stroke-miterlimit="10" stroke-width="1.31"/><path d="M454,1517.25a19,19,0,0,1,8.19.59,19.63,19.63,0,0,1,9.84,6.83,2.74,2.74,0,0,0,4.83-2.59A24.87,24.87,0,0,0,454,1511.71a3.09,3.09,0,0,0-3.12,3.36A3,3,0,0,0,454,1517.25Z" fill="none" stroke="#000" stroke-miterlimit="10" stroke-width="1.31"/><path d="M460.26,1511.24a19.27,19.27,0,0,1,8.18.59,19.63,19.63,0,0,1,9.84,6.83,2.74,2.74,0,0,0,4.83-2.59,24.84,24.84,0,0,0-22.85-10.37,3.08,3.08,0,0,0-3.12,3.36A3,3,0,0,0,460.26,1511.24Z" fill="none" stroke="#000" stroke-miterlimit="10" stroke-width="1.31"/><path d="M758.74,1562.35c-19.65,8.24-35.18,10.38-44.21,11a71.16,71.16,0,0,1-17.91-.71c-4.18-.75-10.88-2.37-22.69-8.4-11.08-5.66-11.32-7.36-23.88-14.77-10.64-6.28-19.39-10.32-31.72-16-8.05-3.72-15-6.66-20.11-8.79q-.63,7.85-1.25,15.7l27,14.14c.73-1,6.72-8.93,9.5-7.66,1.2.55,1.52,2.67,2,5.89a31,31,0,0,1,.23,7.07c13.12,7.57,24.35,13.6,33,18.1,7.64,4,12.39,6.28,19.17,7.93,7.42,1.81,14.31,2.11,23.4,1.49a195.92,195.92,0,0,0,48.22-9.85,10.77,10.77,0,0,0-.79-15.12Z" fill="#59433f" stroke="#000" stroke-miterlimit="10" stroke-width="1.31"/><path d="M758.58,1562.82A30.63,30.63,0,0,0,754,1555c-4.07-5.08-8.69-7.42-12.57-9.42-15.45-8-23.18-12-27.64-15.87-4.05-3.53-1.83-2.63-11.31-12.56-8.81-9.25-13.22-13.87-16.8-16.81-5.33-4.36-8.57-6.16-10.06-10.52a14.19,14.19,0,0,0-3-5.81,12.21,12.21,0,0,0-5-3.3c-3.43-1.13-5.16.28-13.66,2.36-6.71,1.63-8.17,1.37-9.27,3-2.34,3.42,1,9.34,1.89,10.84a20.81,20.81,0,0,1-10.84,0c-3.94-1.12-6.49-3.26-11.15-7.23a79.73,79.73,0,0,1-7.85-7.69,73.85,73.85,0,0,0-17.38,43.4,236.24,236.24,0,0,1,38.82,20.44c15.87,10.39,20.11,15.9,34.39,22.38,5.74,2.61,18.23,8.14,34.4,9C730.82,1578.31,749.45,1568.58,758.58,1562.82Z" fill="#ece5dc" stroke="#000" stroke-miterlimit="10" stroke-width="1.31"/><path d="M717.9,1532.67c-4.59,9.71-15.86,16-26.58,14.21-4.28-.74-8.07-2.93-11.89-4.84-7.47-3.62-15-8.27-22.8-10.94-10.3-2.94-21,.92-30.14,5.81,8.92-5.54,19.89-9.75,30.45-6.9,6.14,1.94,11.7,5.17,17.43,8,5.45,2.63,11.2,6.58,17.15,7.79,10.4,1.83,21.24-3.85,26.38-13.1Z"/><path d="M669.06,1536.12c1.55-11.34-1.34-23.14-9.07-31.69,9.21,7.27,12.53,20.67,9.07,31.69Z"/><path d="M677.66,1508.2c-1.2.85-2.48-.37-8.84-2.94-3.75-1.52-10.33-3.94-15.9-5.77-3.1-1-4.48-1.4-6-2.83-2.28-2.14-4.31-6.11-2.94-9,.84-1.74,2.95-2.45,7.18-3.89a66.68,66.68,0,0,1,7.78-1.88c7.21-1.52,7.94-1.46,8.71-1.26,4.09,1,6.32,4.87,7,6,1,1.72,1.37,3.17,2,6.71C678.27,1502.58,679.07,1507.21,677.66,1508.2Z" fill="none" stroke="#000" stroke-miterlimit="10" stroke-width="1.31"/><path d="M709.82,1541.31a397.24,397.24,0,0,1-32.16-33.11,398.83,398.83,0,0,1,32.16,33.11Z"/><path d="M712.76,1530.47a19,19,0,0,0-8.19.59,19.64,19.64,0,0,0-9.83,6.83,2.86,2.86,0,0,1-4,.88,2.83,2.83,0,0,1-.88-3.47,24.84,24.84,0,0,1,22.85-10.37,3.09,3.09,0,0,1,3.12,3.36A3,3,0,0,1,712.76,1530.47Z" fill="none" stroke="#000" stroke-miterlimit="10" stroke-width="1.31"/><path d="M707,1524.34a19.31,19.31,0,0,0-8.19.59,19.65,19.65,0,0,0-9.83,6.83,2.86,2.86,0,0,1-4,.89,2.83,2.83,0,0,1-.88-3.48A24.87,24.87,0,0,1,707,1518.81a3.08,3.08,0,0,1,3.12,3.35A3,3,0,0,1,707,1524.34Z" fill="none" stroke="#000" stroke-miterlimit="10" stroke-width="1.31"/><path d="M701.45,1518.69a19,19,0,0,0-8.18.59,19.63,19.63,0,0,0-9.84,6.83,2.74,2.74,0,0,1-4.83-2.59,24.84,24.84,0,0,1,22.85-10.37,3.09,3.09,0,0,1,3.12,3.36A3,3,0,0,1,701.45,1518.69Z" fill="none" stroke="#000" stroke-miterlimit="10" stroke-width="1.31"/><path d="M695.21,1512.68a19.31,19.31,0,0,0-8.19.59,19.64,19.64,0,0,0-9.83,6.83,2.87,2.87,0,0,1-4,.89,2.84,2.84,0,0,1-.88-3.48,24.84,24.84,0,0,1,22.85-10.37,3.09,3.09,0,0,1,3.12,3.36A3,3,0,0,1,695.21,1512.68Z" fill="none" stroke="#000" stroke-miterlimit="10" stroke-width="1.31"/><path d="M565.9,782.43c.92,17.27,2.22,44.51,3.07,78,1.52,59.64.4,91,.75,142.45.21,30.58,1,75.88,3.81,131.88" fill="#9593a1" opacity="0.64"/><path d="M406.56,974.12c2-5.61,1.09-9.35.52-11-3-8.49-15.47-13.93-30.48-11.15q-1.47,6.11-2.92,12.19Z" fill="#534741"/><path d="M393.21,965.3c1.59.59,5,1.86,9.59,3.25,3.3,1,6,1.66,7.87,2.09l5.82-16.72c5.87-19.77,9.93-36,12.52-47,5.95-25.32,4.46-27,11-50,5.63-20,9.26-34.27,11.59-43.94.58-2.4,1.49-6.45,3.1-11.88,2.86-9.63,5.94-17,9.76-27.62,9.63-26.85,16-44.05,17.64-65.83,1.47-19.33,3.08-40.43-8.53-54.31-11.36-13.6-31.91-16.11-44.84-6.17a24.36,24.36,0,0,0-2.79,2.57c-8.29,8.46-13.54,20.34-17.21,45.19-.85,5.74-1.56,14.44-3,31.83-1.7,20.94-1.54,23.36-2.74,35.14-1,9.93-1.79,14.53-4.8,35.13-1.5,10.31-3.72,25.68-6.39,44.8a276,276,0,0,0-6.35,29.66c-2,12.68-2.15,19.65-4.11,37.62-1.35,12.36-2.72,22.37-3.65,28.79q-2.74,10-5.48,20C382.14,961.25,388.75,963.64,393.21,965.3Z" fill="#fff"/><path d="M441.34,824.14a265.54,265.54,0,0,0-11,46.21c-3.68,22.86-9.75,56.12-20.28,101.45a612.56,612.56,0,0,0,24.16-84q3.35-15.85,5.71-30.89c3.6-13,6.35-23.58,8.22-30.89,2.49-9.77,3.43-13.89,5.4-20.83,3.29-11.6,6.54-20.84,8.75-26.8A241.81,241.81,0,0,0,441.34,824.14Z" fill="#e3e3f1"/><path d="M735.15,974.66c-1.79-5.68-.61-9.33.07-10.91,3.56-8.25,16.61-13,31.86-9.38l2.31,12.25Z" fill="#534741"/><path d="M749.32,966.64c-1.66.5-5.18,1.58-10,2.7-3.43.79-6.29,1.32-8.19,1.64q-2.52-8.44-5-16.9c-4.93-19.92-8.2-36.25-10.25-47.3-4.71-25.43-3.09-27-8.49-50.17-4.68-20.1-7.62-34.48-9.47-44.2-.46-2.41-1.18-6.48-2.53-11.95-2.41-9.7-5.16-17.15-8.49-27.93-8.4-27.15-14-44.55-14.47-66.24-.45-19.24-.94-40.25,11.71-53.38,12.39-12.85,33.6-14.22,46.31-3.66a24.52,24.52,0,0,1,2.71,2.7c8,8.85,12.77,20.92,15.18,45.76.55,5.74.8,14.4,1.29,31.73.6,20.85.29,23.24.89,35,.5,9.9,1,14.51,3,35.1,1,10.3,2.41,25.66,4.09,44.77a264.4,264.4,0,0,1,4.88,29.76c1.34,12.68,1.13,19.6,2.15,37.52.71,12.34,1.57,22.34,2.17,28.76q2.26,10,4.52,20.1C760.89,963.24,754,965.24,749.32,966.64Z" fill="#fff"/><path d="M707.72,824a255.35,255.35,0,0,1,8.7,46.42c2.52,22.87,6.91,56.18,15.22,101.7a591.78,591.78,0,0,1-20.15-84.61q-2.57-15.9-4.16-30.94c-3-13.08-5.22-23.73-6.73-31.08-2-9.82-2.76-14-4.4-20.95-2.74-11.69-5.56-21-7.5-27.05A236.13,236.13,0,0,1,707.72,824Z" fill="#e3e3f1"/></g></g></g></svg>