<svg id="costumes" xmlns="http://www.w3.org/2000/svg" viewBox="0 0 1080 1920"><g id="_7" data-name="7"><path d="M477.85,996.93a895.89,895.89,0,0,0-7.72,102.85c-.79,46.87,1.42,140,6.23,171.94,2,13,.76,24.54,1.51,45,1.6,44,2.52,68.79,4.73,99.91.93,13,2.43,32.06,4.8,55.2a146.75,146.75,0,0,0,49,2.4,187.19,187.19,0,0,1,.43-23.18c1.37-17,4.64-28.34,7.25-38.74a449.43,449.43,0,0,0,12-73.44c.44-6,1.39-21.09.89-40.65-.29-11.27-1-21.06-1.73-29,.28-1.27.69-3.19,1.14-5.53a222.38,222.38,0,0,0,3.45-25.36c1.1-13.53,4.05-26.27,7.29-47.59,4.37-28.71,2.32-27.29,9.36-95,.89-8.57,2.16-20.43,3.67-37.44,2.36-26.35,3-39.5,3-45.36-.27-28.28-15-52.86-35.42-60.86C521.27,941.83,488.24,960.27,477.85,996.93Z" fill="#131314"/><path d="M482.57,1252.32a152.89,152.89,0,0,0,9.75,16.54,143.25,143.25,0,0,0,14.14,17.7c-4.12-3.07-8.44-6.57-12.86-10.55-2.72-2.45-5.26-4.9-7.65-7.3a6.87,6.87,0,0,0,.56-1.87,6.53,6.53,0,0,0,.05-1.36Z" fill="#36363a"/><path d="M557.83,1257.71q-4.29,6.3-9.21,12.87-6,8-11.88,14.89a51.1,51.1,0,0,0,9.94-6.48,55.17,55.17,0,0,0,4.89-4.61,48.91,48.91,0,0,0,3.65-7.48A52.34,52.34,0,0,0,557.83,1257.71Z" fill="#36363a"/><path d="M499.53,1266.93c.64-.64,5.71,9.75,16.24,12.76,8.91,2.54,16.09-1.8,16.35-.84s-8.35,8.13-17.35,5.85C504.08,1282,498.8,1267.65,499.53,1266.93Z" fill="#36363a"/><path d="M674.58,1002.33a895.89,895.89,0,0,1,7.72,102.85c.79,46.87-1.42,140-6.23,171.94-2,13-.76,24.54-1.51,45.05-1.6,44-2.52,68.79-4.73,99.91-.93,13.05-2.43,32.06-4.8,55.2a146.75,146.75,0,0,1-49,2.4,187.19,187.19,0,0,0-.43-23.18c-1.37-17-4.64-28.34-7.25-38.74a449.43,449.43,0,0,1-12-73.44c-.44-6-1.39-21.09-.89-40.65.29-11.27,1-21.06,1.73-29-.28-1.27-.69-3.19-1.14-5.53a222.38,222.38,0,0,1-3.45-25.36c-1.1-13.53-4-26.27-7.29-47.59-4.37-28.71-2.32-27.29-9.36-95-.89-8.57-2.16-20.43-3.68-37.44-2.35-26.35-3-39.5-3-45.36.28-28.28,15-52.86,35.43-60.86C631.16,947.23,664.19,965.67,674.58,1002.33Z" fill="#131314"/><path d="M669.86,1257.72a152.89,152.89,0,0,1-9.75,16.54A143.25,143.25,0,0,1,646,1292c4.12-3.07,8.44-6.57,12.86-10.55,2.72-2.45,5.26-4.9,7.65-7.3a6.87,6.87,0,0,1-.56-1.87,7.41,7.41,0,0,1-.06-1.36Q667.87,1264.3,669.86,1257.72Z" fill="#36363a"/><path d="M594.6,1263.11q4.29,6.3,9.21,12.87c4,5.34,8,10.29,11.88,14.89a51.1,51.1,0,0,1-9.94-6.48,55.36,55.36,0,0,1-4.9-4.61,49.91,49.91,0,0,1-3.64-7.48A52.34,52.34,0,0,1,594.6,1263.11Z" fill="#36363a"/><path d="M652.9,1272.33c-.64-.64-5.72,9.75-16.24,12.76-8.91,2.54-16.09-1.8-16.35-.84s8.35,8.13,17.35,5.85C648.34,1287.4,653.63,1273.05,652.9,1272.33Z" fill="#36363a"/><path d="M438.16,193.77a62.2,62.2,0,0,1,2.62,20.46c-.84,19.4-10.8,28-7.12,37.53,3.3,8.56,15,11.24,23.61,13.26,25.1,5.91,49.36,16,74.93,19.33,16,2.08,54.5,6.44,131.52,15.16,21.94,2.49,54.74,6.32,61.44-7.2,1.85-3.72.68-6.67,1.88-15.54a81.8,81.8,0,0,1,10.86-30.7c3.1.9,17.46,4.74,30.73-3.41,9-5.55,12.78-13.71,15.36-19.33,2.32-5,11.14-24.27,1.87-41.69-6-11.29-16.78-16.51-19.48-17.82-5.83-2.82-7-1.75-15.74-4.92-4.6-1.68-15.87-5.78-23.6-12.89-8.75-8-8.17-15.55-13.87-28.43-1.51-3.44-11.2-25.36-28.85-36-23.05-13.92-56-6.39-73.43,3.41C606.2,87.63,596,94.19,579,102.42c-5.52,2.68-10.11,4.74-13.12,6.07a131,131,0,0,0-48-17.44c-18.1-2.74-42.09-6.37-64.07,8.34-16.65,11.14-33.14,33.48-30.72,59.88C424.74,176.43,433.68,188.5,438.16,193.77Z" fill="#e2e2e8"/><path d="M473.19,258.82c11.45,4,30.08,12.45,66.76,17.22,88.84,11.55,78.46,7.49,117.17,13.51,34.29,5.33,56.08,11.11,63.17.49,3.37-5.05,3.09-13.3,1.5-19-1.81-6.48-6.14-12.42-14.61-18.2-5.39-3.68-21.19-13.25-74.94-15.54-22.57-1-31.69.23-45-6.06-6.28-3-10.2-6.08-18.73-8.34-12.37-3.28-22-1.52-30.73-.38-15.31,2-38.42,5-54.7.38-10.62-3-24.91-11.17-38.59-34.87a29,29,0,0,0,8.61,9.85,29.36,29.36,0,0,0,18.36,5.31l-7.11-14C496.15,204,506.8,205.35,509,202.1c.92-1.37.25-3.45-.75-6.44a43.48,43.48,0,0,0-12.74-18.57c-6.08-5.37-12.43-16.77-12.74-43.59a126.06,126.06,0,0,0,22.49,35.63A124.25,124.25,0,0,0,539.7,196c-1.22-3.41-2.36-7.07-3.38-11a131.43,131.43,0,0,1-4.12-29.57c.61,7,3.58,31.81,22.11,43.59,7.15,4.55,14.55,5.84,20.23,6.82,21.7,3.78,27.85-5.07,42.34-.37,13.46,4.35,10.26,12.67,25.48,18.95,5.46,2.25,6.44,1.41,40.09,2.65,17,.62,20.94,1,27.35-1.14a49,49,0,0,0,21.36-14.78c-4.93,5.73-7.53,12.67-5.25,17.44,3.51,7.33,17.21,6.69,25.48,3.41a29.8,29.8,0,0,0,12.88-10.37c7.58-10.76,7.65-25.92,1.67-37.15-5.35-10.05-15-14.7-17.36-15.87-5.19-2.51-6.24-1.56-14-4.39-4.1-1.49-14.14-5.14-21-11.48-7.79-7.17-7.28-13.85-12.35-25.32-1.35-3.07-10-22.6-25.7-32.08-20.54-12.4-49.93-5.69-65.43,3-4.18,2.35-13.29,8.2-28.37,15.53-3.46,1.68-6.5,3.09-8.94,4.18,0,.54,0,1.07-.08,1.6.4.24.5.27.51.26s-7.06-4.74-14.93-11.32c-1.82-1.53-3.3-2.84-6.18-5.12-2.51-2-4.62-3.55-6-4.55a121.93,121.93,0,0,0-13.49-4.93,132.29,132.29,0,0,0-21.73-4.36c-15.32-1.6-35.93-3.75-55.46,8.34a68.38,68.38,0,0,0-22.67,23.69c-3.54,5.94-9.69,16.52-9.92,31.27a56.91,56.91,0,0,0,4.12,22.17c4.05,10,7.27,9.34,10.86,18.39,4.77,12,3.15,23.27,2.44,28.23a63.32,63.32,0,0,1-6.75,20.66A407.16,407.16,0,0,0,473.19,258.82Z" fill="#fff"/><path d="M464.39,189.22c18.37,25,34.7,31.61,46.36,33,7.56.88,10.86-.73,38.5,0,13.2.35,19.43.9,27,3.41,10.38,3.45,10.23,6.27,20.51,9.67a74.09,74.09,0,0,0,30.07,3.13c10.18-1.06,12.49-3.57,25.57-4.27,9.16-.49,13.33.46,14.9.85,6.71,1.7,8.61,4.14,15.17,6a40.93,40.93,0,0,0,15.74,1.14,46.51,46.51,0,0,1-15.36-3.22c-6.44-2.58-8.17-5.05-14.15-6.82-3.27-1-6.78-1.43-14.61-1-14.78.91-16.69,3.42-26.7,4.07a70.26,70.26,0,0,1-29.5-4.64c-9.6-3.7-9.3-6.14-18.46-9.57-8.33-3.12-15.19-3.58-28-3.88-26.37-.64-30.66.5-37.94-.1C501.21,216,484.2,210.32,464.39,189.22Z" fill="#8e969d"/><path d="M536,197.6c.78-1.16-17.12-10.21-34.14-32.26-14.07-18.23-18.57-33.73-19.67-33.26-1.25.54,2.4,21.43,16.72,39.51C514.25,190.92,535.23,198.82,536,197.6Z" fill="#8e969d"/><path d="M531.13,153.68c-1.23.37,0,12.93,5.33,25.3,7.44,17.14,20.47,28.35,21.64,27.44,1-.76-6.44-9.49-16.16-29.43C534.69,162.12,532.18,153.37,531.13,153.68Z" fill="#8e969d"/><path d="M712.94,231.29A39.39,39.39,0,0,0,725.31,223c6.91-6.86,10.39-15.62,9.55-16.2-.19-.13-.78,0-11.52,12.37C718.92,224.27,715.33,228.47,712.94,231.29Z" fill="#8e969d"/><path d="M527.84,616.28c-12.54,3.58-22.86,6.2-29.88,7.92-32,7.84-44.4,8.91-61.44,19.2-8.06,4.87-12.08,7.3-15.36,12-13.15,18.86-1.69,48.29,7.68,71.52,9.09,22.52,12.27,21.12,19.68,38.88,16.73,40.14,11.86,74.61,14.88,134.4.81,16.09,1,18.72,1,18.72.57,10.27.75,12.17.86,16.3.09,3.86,1.42,11.13-.66,21.46-5.9,29.47-6.51,60-10.09,89.87a370.55,370.55,0,0,0,0,85.14c16.26,14,48,37.35,92.79,45.29,79,14,139.09-30.31,153.36-41.47-2.2-38.3-3-68.51-3.22-89.39-.15-11.44-.16-21.38-1.08-35.64a489.91,489.91,0,0,0-8.4-64.35q-.4-10.11-1.32-21-.69-8-1.61-15.59a146.39,146.39,0,0,1-6-43.45c.16-9.56,1.26-16.89,2.88-27.72,2.06-13.75,4.17-27.87,8.64-42.12,8.69-27.74,17.36-27.5,29.88-60.48,7.75-20.43,9-32.65,9.36-36.36,1.11-12.46,2.56-28.7-7.2-43.56a51.32,51.32,0,0,0-19.68-17.28c-14.68-7.52-22.49-6.9-43.2-13.44A185.77,185.77,0,0,1,630.44,613c-2.18,3.34-16.45,24.48-43.62,28.3C564.56,644.46,542,634.79,527.84,616.28Z" fill="#fff" stroke="#000" stroke-miterlimit="10" stroke-width="0.72"/><path d="M527.48,617.36c0-1.49.13-3.51.34-5.89.41-4.6.65-6.88,1.47-7.64,1.67-1.57,4.56-.47,14,4.18,8.86,4.36,13.36,6.6,17.09,9.1,7.4,4.95,11.1,7.43,12.54,11.09.87,2.23.44,2.71,1.14,17.65.27,6,.37,6.55-.17,7.27-2.2,3-20.68-2.26-32.88-13.82A51.8,51.8,0,0,1,527.48,617.36Z" fill="#fff" stroke="#a6aab6" stroke-miterlimit="10" stroke-width="4.3"/><path d="M630.44,614.48c-.29-1.1-.68-2.72-1.08-4.68-.85-4.2-.67-4.84-1.27-5.43-1.54-1.52-5.5,0-14,4.19-8.86,4.36-13.36,6.59-17.09,9.09-7.4,5-11.1,7.43-12.54,11.1-.87,2.22-.44,2.7-1.14,17.64-.27,6-.37,6.56.17,7.28,2.17,2.92,20.83-2.29,32.88-13.82C620.1,636.28,627,628.46,630.44,614.48Z" fill="#fff" stroke="#a6aab6" stroke-miterlimit="10" stroke-width="4.3"/><path d="M417,675.08a257.13,257.13,0,0,0,22.14,64.76c12.3,24.38,24.46,38,43.63,76,5.31,10.56,9.38,19.46,12,25.47l-27-25.1c10.85,20.45,11.81,37.24,11.72,45.11-.1,8.77-.21,18.08-3.91,29.11-2.32,6.94-5,11.36-5.21,19.28s2.22,13.5,3.26,16.74c2.7,8.4,2.65,22.17-11,45.23a123.71,123.71,0,0,0,2.64-15.12,104.54,104.54,0,0,0,.72-17.16c-.19-4.06-.59-7.17-.84-14.88-.07-2.11,0-1.78-.12-4.8-.18-6.4-.38-9.54-.6-14.88s-.22-7.18-.36-11.4c-.36-11-1-17.9-1.32-23.76-.46-7.44-.85-18.32-.36-32.4A195.92,195.92,0,0,0,459.8,806,203.2,203.2,0,0,0,450,769.16c-11.74-32-22-36.75-28.8-61.92A120.87,120.87,0,0,1,417,675.08Z" fill="#e0e1e6"/><path d="M686.24,1009C676.59,999,674.3,990.46,674,984.56c-.39-7.71,2.72-9,2.52-19.8-.16-8.82-2.29-11-2.88-22.32a125.18,125.18,0,0,1,.36-14.76c1.11-17.08,2.77-20.57,3.5-31,1.06-15.2-2.26-14.45-2-34.2.28-18.53,2.52-28.06,0-29.1-3.62-1.5-11.73,16.55-13.35,15.64s4.22-20.06,14.65-44c9.71-22.32,16.18-32.22,28-55.3,5.86-11.46,14.2-28.41,23.44-49.85-.23,2.13-.53,4.74-.9,7.74,0,0-.65,5.17-1.38,10.09-2.3,15.54-23.21,50.19-23.21,50.19-9.94,16.47-13.22,30.36-18.72,53.64-4.32,18.28-8.42,47.12-2.52,84.6.72,5.58,1.25,11.73,1.44,18.36a184.85,184.85,0,0,1-.72,22.32q1,10.44,1.8,21.24Q685.64,989.11,686.24,1009Z" fill="#e0e1e6"/><path d="M464.84,907.4a313.29,313.29,0,0,0,60.91,16.91c4.19.58,9.78,1.45,13.88,2a309.73,309.73,0,0,0,35,2c37.5.16,74.8-7.16,110.4-18.73a288.27,288.27,0,0,1-60.91,18.5,271.63,271.63,0,0,1-63.71,4.1,243.52,243.52,0,0,1-95.53-24.77Z" fill="#a6aab6"/><path d="M592.28,653c-13.21,2.66-24.44,4.83-33.12,6.48-13.54,2.58-19.56,3.63-26.64,4.68-8.2,1.22-15,2-19.8,2.52-.89,34.16-1.12,62.64-1.13,84.09,0,16.63-.06,29.16.84,54.2.8,22.42,1.2,33.64,2.6,44.38a132.31,132.31,0,0,1,1.63,17.1c.17,10.08-2.22,25.23-2.93,30.93a100.23,100.23,0,0,0,.32,26.56" fill="none" stroke="#a6aab6" stroke-miterlimit="10" stroke-width="4.3"/><path d="M525.77,925.4c-.08-4.78-.06-12.29.66-21.47,1.21-15.51,3.21-20.44,3.58-32,.3-9.62-.89-12.54-2.61-28-1.3-11.74-1.74-21.41-2.6-40.75-1.32-29.38-.8-52.71-.65-61.12.28-17,1-37.13,2.61-59.87a186.17,186.17,0,0,0,28.44-2.88c14.75-2.65,32-5.76,48.24-16.2,20.51-13.17,30.93-32.55,36-45" fill="none" stroke="#c72f2e" stroke-miterlimit="10" stroke-width="4.3"/><path d="M453.17,1119.32c57.86,38.69,123.13,46.24,189,25a267.21,267.21,0,0,0,59.78-27.9c-44.44,32.75-102.62,49.71-157.68,42a192.79,192.79,0,0,1-91.07-39.1Z" fill="#a6aab6"/><path d="M468.15,1000l-2.28,80.41a121.23,121.23,0,0,0,18.23,16c5.59,4,9.09,6.47,14.33,8.36,2,.74,8.06,2.73,25.39,1.46a189.23,189.23,0,0,0,23.77-3.28q2.45-42.93,4.88-85.86a105.1,105.1,0,0,1-56.65-2.91A108.64,108.64,0,0,1,468.15,1000Z" fill="none" stroke="#a6aab6" stroke-miterlimit="10" stroke-width="4.3"/><path d="M471.73,1024c5.54,3.84,14,9.49,24.74,16,3,1.82,4.5,2.73,5.54,3.28,6.19,3.28,19,6.17,44.6-8-8,1.44-15,2.49-20.84,3.28-8.54,1.14-12.68,1.45-17.9.36a42.94,42.94,0,0,1-10.1-3.64C491.9,1032.54,483.3,1028.69,471.73,1024Z" fill="#e0e1e6"/><path d="M488.17,947.5a170,170,0,0,0,70.81,24,165.53,165.53,0,0,0,75.7-10.1,299.86,299.86,0,0,1-93.28-.27A303.39,303.39,0,0,1,488.17,947.5Z" fill="#e0e1e6"/><path d="M548.57,865.36a160.69,160.69,0,0,0,58.28,4.73c4.39-.45,21-2.16,21.16-5.45.17-4.85-35.64-10.75-76.84-28.75-4.31-1.88-12.12-5.4-11.72-7.64.52-2.92,14.65-1.5,29.63-1.45a255.87,255.87,0,0,0,51.12-5.1c-28.94.63-49.3-.15-63.17-1.09-7-.47-22-1.63-23.77,4-.71,2.29,1,4.89,1.63,5.83,11.08,16.73,79.2,30,79.12,32.74C614,864.37,601.13,865.48,548.57,865.36Z" fill="#e0e1e6"/><path d="M549.38,715.65c-6.08,2.6-13.56-1.92-14.65-9.1-.92-6,2.94-12.35,8.63-13.64,5.25-1.19,10.92,2.15,12.53,8.18C557.55,707.28,554.22,713.58,549.38,715.65Z"/><path d="M553.21,707c1.32-2.32.31-6.2-1.47-8.64-2.17-3-6.22-4.85-8.3-3.37a2.45,2.45,0,0,0-1.14,2.09c.17,1.08,1.68,1,3.66,2.46.94.69,3.18,2.34,3.42,4.73.12,1.19-.31,2,.24,3.09.09.18.58,1.15,1.39,1.27C552.15,708.81,553.11,707.17,553.21,707Z" fill="#fff"/><path d="M613.85,714.92c-6.08,2.6-13.56-1.92-14.66-9.1-.91-6,2.95-12.35,8.63-13.64,5.25-1.19,10.92,2.15,12.54,8.19S618.69,712.85,613.85,714.92Z"/><path d="M617.67,706.28c1.33-2.32.31-6.2-1.46-8.64-2.17-3-6.22-4.85-8.31-3.37a2.5,2.5,0,0,0-1.14,2.09c.18,1.08,1.69,1,3.67,2.46.93.69,3.17,2.34,3.42,4.73.12,1.19-.31,2,.24,3.09.09.18.57,1.16,1.38,1.28C616.61,708.08,617.58,706.44,617.67,706.28Z" fill="#fff"/><path d="M613.85,802.6c-6.08,2.6-13.56-1.91-14.66-9.09-.91-6,2.95-12.36,8.63-13.65,5.25-1.19,10.92,2.15,12.54,8.19S618.69,800.54,613.85,802.6Z"/><path d="M617.67,794c1.33-2.32.31-6.2-1.46-8.64-2.17-3-6.22-4.85-8.31-3.36a2.49,2.49,0,0,0-1.14,2.09c.18,1.08,1.69,1,3.67,2.45.93.69,3.17,2.34,3.42,4.73.12,1.19-.31,2,.24,3.1.09.17.57,1.15,1.38,1.27C616.61,795.77,617.58,794.13,617.67,794Z" fill="#fff"/><path d="M547.91,803.24c-6.08,2.6-13.56-1.92-14.65-9.1-.92-6,3-12.35,8.63-13.64,5.25-1.19,10.92,2.15,12.54,8.19S552.75,801.17,547.91,803.24Z"/><path d="M551.74,794.6c1.33-2.32.31-6.2-1.46-8.64-2.17-3-6.22-4.85-8.31-3.37a2.5,2.5,0,0,0-1.14,2.09c.18,1.08,1.69,1,3.67,2.46.93.69,3.17,2.34,3.41,4.73.13,1.19-.3,2,.25,3.09.09.18.57,1.16,1.38,1.28C550.68,796.4,551.65,794.76,551.74,794.6Z" fill="#fff"/><path d="M547.26,884.74c-6.08,2.6-13.56-1.92-14.65-9.1-.92-6,2.95-12.35,8.63-13.64,5.25-1.19,10.92,2.15,12.54,8.18C555.43,876.37,552.1,882.67,547.26,884.74Z"/><path d="M551.09,876.1c1.33-2.32.31-6.2-1.47-8.64-2.17-3-6.21-4.85-8.3-3.37a2.48,2.48,0,0,0-1.14,2.09c.18,1.08,1.69,1,3.66,2.46.94.69,3.18,2.34,3.42,4.73.13,1.19-.31,2,.25,3.09.09.18.57,1.15,1.38,1.27C550,877.9,551,876.26,551.09,876.1Z" fill="#fff"/><path d="M614.33,886.19c-6.08,2.6-13.56-1.91-14.65-9.09-.92-6.05,3-12.36,8.63-13.65,5.25-1.19,10.92,2.15,12.54,8.19S619.17,884.13,614.33,886.19Z"/><path d="M618.16,877.55c1.33-2.32.31-6.2-1.46-8.64-2.17-3-6.22-4.85-8.31-3.36a2.49,2.49,0,0,0-1.14,2.09c.18,1.08,1.69,1,3.67,2.45.93.69,3.17,2.34,3.41,4.73.13,1.19-.3,2,.25,3.1.09.17.57,1.15,1.38,1.27C617.1,879.36,618.07,877.72,618.16,877.55Z" fill="#fff"/><path d="M392,1545.54a21,21,0,0,0-2.24,11.87c1.29,10.19,10.85,16,15.71,18.92,11.5,7,23,7.08,31.76,7.06,13.62,0,23.9-3.31,32.4-6.1,14.88-4.88,14-7.34,30.15-13.15,10.68-3.84,13-3.45,34.32-10.26,15.34-4.9,21.4-7.41,23.1-12.83.92-3-.18-6.55-2.57-13.8-3.23-9.8-6-10.35-7.19-18-.46-3-.44-5.39-2-8.88s-4.5-7.24-5.85-6.75c-1.09.41,0,3.18-1,6.42s-3.34,5.47-12.83,10.91c-7.85,4.49-11.77,6.74-16.68,8.66a93.36,93.36,0,0,1-18.6,5.13C476.79,1527.05,441.6,1534.63,392,1545.54Z" fill="#313034"/><path d="M391.32,1544.25c-.65,7.06,10.95,13.26,13.15,14.44,12.46,6.66,25.8,3.8,38.17,1,6.75-1.55,13.15-4.15,25.66-9.3,34.85-14.33,39.6-19.63,41.7-25.34a23.14,23.14,0,0,0,.33-14.76c-2.34-6.94-7.84-10.59-13.16-14.11s-11.32-7.5-18-6.42c-6.18,1-9.84,5.87-12.83,9.31-6.47,7.42-15.75,12.86-34.32,23.73C407,1537.42,392.05,1536.41,391.32,1544.25Z" fill="#181719"/><path d="M400.3,1565.43c18.08,8.26,32.69,8.38,40.74,7.69,9.47-.8,16.67-3.29,26.62-6.73,20.07-6.94,18.72-10.47,36.57-16a247.53,247.53,0,0,0,26.94-9.3,36.74,36.74,0,0,0,13.16-8.66,32,32,0,0,0,7.27-12.63,21.17,21.17,0,0,1,3.95,5.57c.67,1.38,3.37,7,1.93,12.19-1.14,4.09-4.89,7.79-21.49,13.79-11.53,4.16-17.39,5.15-25,7.38-16,4.67-16.43,8-33.68,14.75-18,7-30,11.74-44.27,9.63C426.77,1582.14,413.93,1579,400.3,1565.43Z" fill="#fff"/><path d="M442.64,1511.86a87.81,87.81,0,0,1,15.08,6.41,84.43,84.43,0,0,1,25.66,21.17c1.87,2.36,3.28,4.41,4.17,5.78,6.08,4.38,14,4.22,18.93,0,5.34-4.54,4.87-11.72,4.81-12.51a185.38,185.38,0,0,0-49.08-36.57,20.34,20.34,0,0,0-19.57,15.72Z" fill="#242327" stroke="#151416" stroke-miterlimit="10" stroke-width="3.34"/><path d="M494.57,1528.82c.11-.15-6.61-6.58-18.41-14.68-11.22-7.71-17.94-10.68-18.16-10.34s2.83,1.55,3.61,4.57c.58,2.27-.59,3.45,0,4.81,1.12,2.56,6.91,2,10.1,2.17C484.93,1515.86,494.42,1529,494.57,1528.82Z" fill="#242327" stroke="#000" stroke-miterlimit="10" stroke-width="2"/><path d="M760.47,1547a21,21,0,0,1,2.24,11.87c-1.29,10.19-10.85,16-15.72,18.92-11.49,7-23,7.08-31.75,7.06-13.62,0-23.9-3.31-32.4-6.1-14.88-4.88-14-7.34-30.15-13.15-10.68-3.84-13-3.45-34.32-10.26-15.34-4.9-21.4-7.41-23.1-12.83-.92-3,.18-6.55,2.57-13.8,3.23-9.8,6-10.35,7.19-18,.46-3,.44-5.39,2-8.88s4.5-7.24,5.84-6.75c1.1.41.05,3.18,1,6.42s3.34,5.47,12.83,10.91c7.85,4.49,11.77,6.74,16.68,8.66a93.36,93.36,0,0,0,18.6,5.13C675.64,1528.49,710.83,1536.07,760.47,1547Z" fill="#313034"/><path d="M761.11,1545.69c.65,7.06-11,13.26-13.15,14.44-12.46,6.66-25.81,3.8-38.17,1-6.75-1.55-13.15-4.15-25.67-9.3-34.84-14.33-39.59-19.63-41.7-25.34a23.25,23.25,0,0,1-.32-14.76c2.34-6.94,7.84-10.59,13.16-14.11s11.32-7.5,18-6.42c6.18,1,9.84,5.87,12.83,9.31,6.47,7.42,15.75,12.86,34.32,23.73C745.4,1538.86,760.38,1537.85,761.11,1545.69Z" fill="#181719"/><path d="M752.13,1566.87c-18.08,8.26-32.69,8.38-40.74,7.69-9.47-.8-16.67-3.29-26.62-6.73-20.07-6.94-18.72-10.47-36.57-16a248.25,248.25,0,0,1-27-9.3,36.79,36.79,0,0,1-13.15-8.66,32,32,0,0,1-7.27-12.63,21.17,21.17,0,0,0-4,5.57c-.67,1.38-3.37,7-1.93,12.19,1.14,4.09,4.89,7.79,21.49,13.79,11.53,4.16,17.39,5.15,25,7.38,16,4.67,16.43,8,33.68,14.75,18,7,30,11.74,44.27,9.63C725.65,1583.58,738.5,1580.46,752.13,1566.87Z" fill="#fff"/><path d="M709.79,1513.3a87.81,87.81,0,0,0-15.08,6.41,84.43,84.43,0,0,0-25.66,21.17c-1.87,2.36-3.28,4.41-4.17,5.78-6.08,4.38-14,4.22-18.93,0-5.34-4.54-4.87-11.72-4.81-12.51a185.38,185.38,0,0,1,49.08-36.57,20.34,20.34,0,0,1,19.57,15.72Z" fill="#242327" stroke="#151416" stroke-miterlimit="10" stroke-width="3.34"/><path d="M657.86,1530.26c-.12-.15,6.61-6.58,18.41-14.68,11.22-7.71,17.94-10.68,18.16-10.34s-2.83,1.55-3.61,4.57c-.58,2.27.59,3.45,0,4.81-1.12,2.56-6.92,2-10.1,2.17C667.5,1517.3,658,1530.45,657.86,1530.26Z" fill="#242327" stroke="#000" stroke-miterlimit="10" stroke-width="2"/><path d="M750.68,967.4c-1.42.38-5.38,1.4-10.92,3-3.4,1-6.19,1.83-8,2.4-2.58-7.84-4.44-14.32-5.65-18.72-5-18.26-7.63-33.18-10.25-47.3-4.71-25.43-3.09-27-8.49-50.17-4.68-20.1-7.62-34.48-9.47-44.2-.46-2.41-1.18-6.48-2.53-11.95-2.41-9.7-5.16-17.15-8.49-27.93-8.4-27.15-14-44.55-14.47-66.24-.45-19.24-.94-40.25,11.71-53.38,12.39-12.85,33.6-14.22,46.31-3.66a24.52,24.52,0,0,1,2.71,2.7c8,8.85,12.77,20.92,15.18,45.76.55,5.74.8,14.4,1.29,31.73.6,20.85.29,23.24.89,35,.5,9.9,1,14.51,3,35.1,1,10.3,2.41,25.66,4.09,44.77a264.4,264.4,0,0,1,4.88,29.76c1.34,12.68,1.13,19.6,2.15,37.52.71,12.34,1.57,22.34,2.17,28.76q2.26,10,4.52,20.1A181.6,181.6,0,0,1,750.68,967.4Z" fill="#fff"/><path d="M707.72,824a255.35,255.35,0,0,1,8.7,46.42c2.52,22.87,6.91,56.18,15.22,101.7a591.78,591.78,0,0,1-20.15-84.61q-2.57-15.9-4.16-30.94c-3-13.08-5.22-23.73-6.73-31.08-2-9.82-2.76-14-4.4-20.95-2.74-11.69-5.56-21-7.5-27.05A236.13,236.13,0,0,1,707.72,824Z" fill="#e3e3f1"/><path d="M729.2,964.64l40.32-11.4" fill="none" stroke="#a6aab6" stroke-miterlimit="10" stroke-width="4.3"/><path d="M727.16,957.56,768,945.92" fill="none" stroke="#c72f2e" stroke-miterlimit="10" stroke-width="4.3"/><path d="M392.4,968.49c1.4.42,5.33,1.56,10.82,3.32,3.37,1.08,6.13,2,8,2.64,2.8-7.76,4.86-14.18,6.2-18.54C423,937.8,426,923,429,908.93,434.51,883.66,433,882,439,859c5.28-20,8.64-34.24,10.79-43.9.53-2.4,1.37-6.44,2.88-11.87,2.7-9.62,5.67-17,9.32-27.66,9.21-26.89,15.29-44.11,16.44-65.78,1-19.21,2.14-40.2-10.11-53.71-12-13.21-33.16-15.21-46.18-5a23.53,23.53,0,0,0-2.79,2.62c-8.3,8.6-13.39,20.52-16.54,45.28-.72,5.72-1.23,14.37-2.24,31.67-1.22,20.83-1,23.23-1.92,35-.8,9.88-1.47,14.46-4,35-1.28,10.27-3.17,25.58-5.43,44.63a266.87,266.87,0,0,0-5.77,29.6c-1.71,12.63-1.71,19.55-3.26,37.44-1.08,12.31-2.23,22.28-3,28.68q-2.55,10-5.12,19.95A182.51,182.51,0,0,0,392.4,968.49Z" fill="#fff"/><path d="M439.61,826.47a255.73,255.73,0,0,0-10.08,46.15c-3.19,22.77-8.58,55.94-18.25,101.2a592.24,592.24,0,0,0,22.67-84Q437,874,439,859c3.37-13,5.93-23.57,7.66-30.86,2.31-9.76,3.17-13.88,5-20.81,3.08-11.6,6.18-20.85,8.3-26.82A236.63,236.63,0,0,0,439.61,826.47Z" fill="#e3e3f1"/><path d="M414,966.37l-40-12.6" fill="none" stroke="#a6aab6" stroke-miterlimit="10" stroke-width="4.3"/><path d="M416.2,959.35,375.76,946.5" fill="none" stroke="#c72f2e" stroke-miterlimit="10" stroke-width="4.3"/></g></svg>