<svg id="costumes" xmlns="http://www.w3.org/2000/svg" viewBox="0 0 1080 1920"><g id="_8" data-name="8"><path d="M467.36,985.64c.81,48.36,1.92,87.61,2.77,114.14,2.05,64.68-6.08,90.1,6.23,171.94,2,13,.76,24.54,1.51,45,1.6,44,2.52,68.79,4.73,99.91.93,13,2.43,32.06,4.8,55.2a146.75,146.75,0,0,0,49,2.4,187.19,187.19,0,0,1,.43-23.18c1.37-17,4.64-28.34,7.25-38.74a449.43,449.43,0,0,0,12-73.44c.44-6,1.39-21.09.89-40.65-.29-11.27-1-21.06-1.73-29,.28-1.27.69-3.19,1.14-5.53a222.38,222.38,0,0,0,3.45-25.36c1.1-13.53,4.05-26.27,7.29-47.59,4.37-28.71,2.32-27.29,9.36-95,.89-8.57,2.16-20.43,3.67-37.44,2.36-26.35,3-39.5,3-45.36-.19-19.83-11.69-50.89-35.42-60.86C523.53,942,489.14,954.81,467.36,985.64Z" fill="#83afea"/><path d="M482.57,1252.32a152.89,152.89,0,0,0,9.75,16.54,143.25,143.25,0,0,0,14.14,17.7c-4.12-3.07-8.44-6.57-12.86-10.55-2.72-2.45-5.26-4.9-7.65-7.3a6.87,6.87,0,0,0,.56-1.87,6.53,6.53,0,0,0,.05-1.36Z" fill="#5585bb"/><path d="M557.83,1257.71q-4.29,6.3-9.21,12.87-6,8-11.88,14.89a51.1,51.1,0,0,0,9.94-6.48,55.17,55.17,0,0,0,4.89-4.61,48.91,48.91,0,0,0,3.65-7.48A52.34,52.34,0,0,0,557.83,1257.71Z" fill="#5585bb"/><path d="M499.53,1266.93c.64-.64,5.71,9.75,16.24,12.76,8.91,2.54,16.09-1.8,16.35-.84s-8.35,8.13-17.35,5.85C504.08,1282,498.8,1267.65,499.53,1266.93Z" fill="#5585bb"/><path d="M690.92,984.56c1.88,49,.5,88.63-1.08,115.56-3.74,63.78-11,97-13.77,177-.38,10.67-.61,20.36-1.51,45.05-1.6,44-2.52,68.79-4.73,99.91-.93,13.05-2.43,32.06-4.8,55.2a146.75,146.75,0,0,1-49,2.4,187.19,187.19,0,0,0-.43-23.18c-1.37-17-4.64-28.34-7.25-38.74a449.43,449.43,0,0,1-12-73.44c-.44-6-1.39-21.09-.89-40.65.29-11.27,1-21.06,1.73-29-.28-1.27-.69-3.19-1.14-5.53a222.38,222.38,0,0,1-3.45-25.36c-1.1-13.53-4-26.27-7.29-47.59-4.37-28.71-2.32-27.29-9.36-95-.89-8.57-2.16-20.43-3.68-37.44-2.35-26.35-3-39.5-3-45.36.2-20.22,12.25-49.58,35.43-60.86C629.93,945.29,666.06,955.57,690.92,984.56Z" fill="#83afea"/><path d="M669.86,1257.72a152.89,152.89,0,0,1-9.75,16.54A143.25,143.25,0,0,1,646,1292c4.12-3.07,8.44-6.57,12.86-10.55,2.72-2.45,5.26-4.9,7.65-7.3a6.87,6.87,0,0,1-.56-1.87,7.41,7.41,0,0,1-.06-1.36Q667.87,1264.3,669.86,1257.72Z" fill="#5585bb"/><path d="M594.6,1263.11q4.29,6.3,9.21,12.87c4,5.34,8,10.29,11.88,14.89a51.1,51.1,0,0,1-9.94-6.48,55.36,55.36,0,0,1-4.9-4.61,49.91,49.91,0,0,1-3.64-7.48A52.34,52.34,0,0,1,594.6,1263.11Z" fill="#5585bb"/><path d="M652.9,1272.33c-.64-.64-5.72,9.75-16.24,12.76-8.91,2.54-16.09-1.8-16.35-.84s8.35,8.13,17.35,5.85C648.34,1287.4,653.63,1273.05,652.9,1272.33Z" fill="#5585bb"/><path d="M535.76,612c-28.95,8.77-51,15.36-65.32,19.32-2,.54-9.54,3.26-24.68,8.72-7.81,2.81-11.83,4.32-14.76,7.56-.76.84-3.84,4.45-8.62,9-.31.29-.54.5-.55.52-14.07,14.48,3.49,53.85,19,99,7.15,20.83,23.3,67.91,28.87,106.25,4.14,28.54,5.23,71.6-12.91,128,13.66,10.72,58.11,42.76,122.29,41.86,66.24-.94,110.83-36.36,123.81-47.5a324.11,324.11,0,0,1-7.59-35.42c-2.09-13.28-8.23-57.88,3-123.16,6.29-36.44,17.31-81.26,22.79-103,8.78-34.89,15.6-57.73,3.3-71.52-6.72-7.54-18.22-11.31-40.52-18.63-10.6-3.49-15.76-4.26-27.88-8.73A239.05,239.05,0,0,1,628.43,612l-53.17,75.66Q555.52,649.83,535.76,612Z" fill="#9ac2ff"/><g opacity="0.49"><path d="M535.76,612a813.28,813.28,0,0,1,39.5,75.66A814.43,814.43,0,0,1,535.76,612Z"/></g><g opacity="0.49"><path d="M628.43,612a648.33,648.33,0,0,1-69.88,96.33c2.9-4,5.91-8,8.85-12,20.5-27,41.43-56.51,61-84.35Z"/></g><g opacity="0.49"><path d="M511.28,620.24c4.94,9.06,9.76,18.19,14.64,27.29s9.53,18.31,14.3,27.46c2.37,4.58,4.8,9.13,7.3,13.61s5.21,8.86,8,13.2q8.34,13,17.83,25.19l-1.59-.13c8-7.47,15.63-15.23,22.91-23.36q5.46-6.09,10.66-12.42t10.12-12.86q9.87-13.07,18.55-27c5.85-9.23,11.21-18.76,16.26-28.47-4.6,9.93-9.78,19.59-15.33,29s-11.67,18.56-18.11,27.43-13.4,17.38-20.66,25.6-14.92,16.1-22.93,23.6l-.86.81-.72-.94q-9.46-12.31-17.78-25.45c-2.76-4.37-5.45-8.8-8-13.34s-4.82-9.16-7.13-13.78L525,648C520.43,638.74,515.8,629.52,511.28,620.24Z"/></g><path d="M425.62,712.53A794.3,794.3,0,0,1,467.15,793c21.06,47.21,34.21,89,33.08,89.44s-21.17-50.26-24.31-49c-1.85.74,10.67,24.66,10.47,58.68-.14,24.56-6.87,44.54-11.11,57.15a228.74,228.74,0,0,1-18.51,41.06h0c1.22-3.69,2.73-8.49,4.3-14.16,1.11-4,4.16-15.26,6.67-29.58a323.29,323.29,0,0,0,4.72-46.15c.51-22-2.63-43.51-12.66-81.84A1004.42,1004.42,0,0,0,425.62,712.53Z" fill="#83afea"/><path d="M702.44,985.4c-19.83-17.4-26.65-34.64-29.36-44.26-6.33-22.47-2.19-46.07,2-70.83,1.87-10.95,4.56-22,4.06-22.19-1-.26-10.88,40-12.16,39.72-.94-.25,2-23,9.12-46.16a231.39,231.39,0,0,1,32.07-65.47,583.69,583.69,0,0,0-11.82,64c-3.13,24.63-6.1,49-4,80.5a330.87,330.87,0,0,0,10.55,64c-2.07,1.83-4.29,3.7-6.67,5.58-4,3.15-7.56,5.73-7.59,5.69S691.09,994,702.44,985.4Z" fill="#83afea"/><path d="M511.71,836.85c-.67,1.22,9.24,9.88,21.52,16.1,8.2,4.16,11,4,22.79,8.32,16.65,6.15,17,8.75,28.61,12.88,19.5,7,38,6.57,38.23,5.1.12-.75-10.55-3.82-31.9-9.93-27.13-7.76-27.65-7.52-32.92-9.93-9.81-4.49-12.3-7.3-29.37-15.56C519.63,839.46,512.24,835.88,511.71,836.85Z" fill="#83afea"/><path d="M540.32,865.3c-.62.88,8.1,10.47,20,18,16.69,10.53,33.8,13.28,34.18,12.08.32-1-10.72-4.34-29.87-15.3C549,871.1,540.89,864.49,540.32,865.3Z" fill="#83afea"/><path d="M470.52,871a149.19,149.19,0,0,0,69.55,12.88q-4.74,43.15-9.47,86.32c-.94,8.59-8.65,14.45-16.63,12.66a156.17,156.17,0,0,1-38.05-13.83c-4.19-2.18-8.13-4.46-11.81-6.8A247.62,247.62,0,0,0,470.52,871Z" fill="#83afea"/><g opacity="0.49"><path d="M471.87,884.62a275,275,0,0,0,66.51,14,135.16,135.16,0,0,1-66.51-14Z"/></g><path d="M692,876.39a123.87,123.87,0,0,1-32.4,11.8,121.13,121.13,0,0,1-36.13,2.15q4.23,31.29,7.43,64.76,1.07,11.17,1.94,22.15c.63,7.73,7.57,13,14.7,11.29,9.72-2.39,20-5.37,30.62-9.12,7.75-2.72,15.07-5.61,22-8.58A312.76,312.76,0,0,1,692,876.39Z" fill="#83afea"/><g opacity="0.49"><path d="M624.8,905A216.46,216.46,0,0,0,691,888.91,120.08,120.08,0,0,1,624.8,905Z"/></g><path d="M496,995.17a157.79,157.79,0,0,0,168.63.53A201.11,201.11,0,0,1,496,995.17Z" fill="#83afea" opacity="0.49"/><path d="M533.82,612.86a4.64,4.64,0,0,0-4.79-2.44c-2.27.5-3.91,3.24-3.21,6.16.41,5.18,1,14,1.39,25.12.78,23.82-.44,33.77.64,54.25.35,6.51,1.07,16.69,2.76,29.33-9.69,2.94-15.44,13.35-13.25,23.48,2.14,9.91,11.24,16.68,20.35,15.74,10.93-1.13,18-13,16.23-23.7a21.61,21.61,0,0,0-15.89-16.94c-1.18-7.34-2.45-16.86-3.25-28-1.21-17-.56-26.89-.64-54.25C534.14,633.83,534.05,624.1,533.82,612.86Z" fill="#154166"/><path d="M539,758.88c-7.63,2.12-15.86-3.87-17.55-12-1.84-8.81,4.43-18.12,12.75-18.48,7.48-.32,14,6.7,14.71,14.54C549.53,749.77,545.63,757.05,539,758.88Z" fill="#9f949d"/><path d="M536.84,751.6c-4.17,1.33-9.06-2.2-9.31-6.77a7.07,7.07,0,0,1,14-2.08A7.47,7.47,0,0,1,536.84,751.6Z" fill="#e5e6e5"/><path d="M627.73,608.84a198.42,198.42,0,0,1,5.09,39.69,203.26,203.26,0,0,1-5.6,53,24.34,24.34,0,0,0-10.35,4.68,26.62,26.62,0,0,0-8,10.42,33.55,33.55,0,0,0-1.78,5.92,68.35,68.35,0,0,0-1.72,11l5.87,1.05a52.65,52.65,0,0,1,2.08-10.49c1.24-4,2-6.61,4.17-9.28,1-1.25,4.59-5.78,10.56-6.38,4.44-.45,9.6,1.33,12.19,5.43,1.36,2.16,1.62,4.36,1.94,7.14a33.62,33.62,0,0,1-.53,9.84,52.86,52.86,0,0,1-1.2,5.46l6.66,1.39a39.54,39.54,0,0,0,2.1-9.16,28.22,28.22,0,0,0-.27-9.77,23.73,23.73,0,0,0-4.94-9.88,22.09,22.09,0,0,0-9-6.38,232.79,232.79,0,0,0,4.33-40.18,230.45,230.45,0,0,0-4.15-48.53c-.17-.55-2.26-7.16-4.91-7.55a2.12,2.12,0,0,0-1.63.3A2.93,2.93,0,0,0,627.73,608.84Z" fill="#0f3f60"/><path d="M605.92,733.66c-.91,1.14-2.16,2.74-3.62,4.68-3.64,4.86-6.57,9.24-9,13.07-8.61,13.62-8.85,17.14-8.85,18.82a13.71,13.71,0,0,0,1.69,7.21c3.71,6.28,12,6.24,13,6.22l.88-2.91a10.65,10.65,0,0,1-6.61-2,10.81,10.81,0,0,1-3.35-4,11.56,11.56,0,0,1-1.08-5.22c0-3.18,1.33-5.52,4.59-10.68,1.26-2,3.84-6,8.44-12.69,1.65-2.39,3.38-4.87,5.74-7.94,1.18-1.54,2.2-2.8,2.94-3.71Z" fill="#1e5c9c"/><path d="M597.75,780.5l-.59,3.17a7.09,7.09,0,0,0,3.81,2.71c2.78.72,6.33-.49,6.73-2.31.44-2-2.79-5.05-6.11-5A6.4,6.4,0,0,0,597.75,780.5Z"/><path d="M645.77,737.24c.33,1.5.76,3.59,1.24,6.1,1.18,6.29,1.92,11.79,2.45,16.55,1.87,16.92.55,20.43-.18,22.05a15,15,0,0,1-4.66,6.25c-6.08,4.46-13.53.83-14.41.39l.47-3.2a10,10,0,0,0,6.83,1,10.88,10.88,0,0,0,4.75-2.39,12.65,12.65,0,0,0,3.24-4.57c1.34-3.09,1.2-5.91.49-12.33-.27-2.47-.85-7.49-2.11-15.94-.45-3-.94-6.18-1.74-10.18-.4-2-.77-3.66-1-4.86Z" fill="#1e5c9c"/><path d="M632.81,786.11l-.85,3.32a6.83,6.83,0,0,1-4.62,1c-2.83-.51-5.51-3.22-5.08-5.15.47-2.11,4.71-3.67,7.7-2.21A6.51,6.51,0,0,1,632.81,786.11Z"/><path d="M467.73,1505.09a55.17,55.17,0,0,1,19.17,2.33c2.27.71,3.49,1.26,18.22,7.66,6.49,2.82,9.75,4.23,10.06,4.33,6,1.86,15.31,1.66,29.53-8a49.41,49.41,0,0,1,5.66,11.65,50.16,50.16,0,0,1,1.88,7.66,13.45,13.45,0,0,1,1.89,9c-1.22,6.38-8.14,9.44-11.63,11-10.53,4.67-15.27.41-25.14,4.33-5.68,2.25-7.54,5-13.19,9.66a107.27,107.27,0,0,1-32.68,17c-22.56,7.09-52.88,4.68-57.85-8.41a12.28,12.28,0,0,1-.71-5.18c-1-1.8-2-3.6-3-5.39-1.15-2.37-4-9-1.57-15.32,1.33-3.53,4-6.34,12.25-10.66,11-5.78,17.27-6.53,23.25-9C450.59,1525,459.4,1519.07,467.73,1505.09Z" fill="#f1f1f3"/><path d="M467.73,1505.09a55.17,55.17,0,0,1,19.17,2.33c2.27.71,3.49,1.26,18.22,7.66,6.49,2.82,9.75,4.23,10.06,4.33,6,1.86,15.31,1.66,29.53-8a69,69,0,0,1,5.66,11.65,70.57,70.57,0,0,1,2.67,9,129.36,129.36,0,0,0-17.28,5.5,131,131,0,0,0-19.48,9.65c-6.59,4-8.73,6.08-13.67,9.49A110.28,110.28,0,0,1,475,1570.52a91.06,91.06,0,0,1-43.83,3,88.61,88.61,0,0,1-18.19-5.43c-1-1.8-2-3.6-3-5.39-1.15-2.37-4-9-1.57-15.32,1.33-3.53,4-6.34,12.25-10.66,11-5.78,17.27-6.53,23.25-9C450.59,1525,459.4,1519.07,467.73,1505.09Z" fill="#dededd"/><path d="M409.92,1562.7c-.09,1.16,13.33,3.26,22,4.33,15.27,1.87,22.9,2.8,31.58,1.24,11.7-2.09,20.17-7,28.75-12,10.28-6,12.56-9.13,20-14,8.07-5.25,20.67-11.47,39.35-14l-1.18-6a85.28,85.28,0,0,0-27.33,6.5c-4.33,1.84-6.36,3.15-19.56,10.74-14.81,8.51-22.22,12.77-23.8,13.48-12.92,5.82-23.93,6.87-38.41,8.24C422.57,1563.06,410,1561.58,409.92,1562.7Z" fill="#a2a2a2"/><g opacity="0.46"><path d="M414.47,1568.27c17.3,6.45,36.81,8.66,54.63,3.19,8.87-2.69,17-7.33,25.08-11.92a144.92,144.92,0,0,0,15.56-10.18,105.19,105.19,0,0,1,43.3-17.3c-15.15,3.53-29.72,9.6-42.26,18.73a131.25,131.25,0,0,1-15.62,10.46c-8.13,4.72-16.4,9.36-25.51,12-18.16,5.35-38.16,2.63-55.18-5Z"/></g><g opacity="0.46"><path d="M459.72,1515.58a72.85,72.85,0,0,1,33.17,6.24c3.47,1.53,6.79,3.32,10.17,4.81,13.67,6.52,29.39,4.3,43.38-.31-12,5.39-26,8.22-38.83,4.2-5.44-1.67-10.43-4.63-15.51-7a87.59,87.59,0,0,0-32.38-8Z"/></g><path d="M422.25,1553.54c-1.82.81-4.39.22-5.18-1.75s.65-4.48,2.59-5.24,4.35,0,5.07,2S424,1552.77,422.25,1553.54Z"/><path d="M441.57,1545.17c-1.82.81-4.39.22-5.18-1.74s.66-4.49,2.59-5.25,4.35,0,5.07,2S443.31,1544.4,441.57,1545.17Z"/><path d="M438.86,1555.29c-1.82.81-4.39.22-5.18-1.75s.66-4.49,2.59-5.24,4.35,0,5.07,2S440.6,1554.52,438.86,1555.29Z"/><path d="M455.83,1546.3c-1.82.81-4.39.22-5.18-1.75s.65-4.49,2.59-5.24,4.35,0,5.07,2S457.57,1545.52,455.83,1546.3Z"/><path d="M462.78,1534.06c-1.82.81-4.39.22-5.18-1.75s.66-4.48,2.59-5.24,4.35,0,5.07,2S464.52,1533.29,462.78,1534.06Z"/><path d="M462.31,1555.91c-1.82.81-4.39.22-5.18-1.75s.65-4.48,2.59-5.24,4.35,0,5.07,2S464.05,1555.14,462.31,1555.91Z"/><path d="M480.34,1537.18c-1.82.81-4.4.22-5.19-1.75s.66-4.48,2.6-5.24,4.35,0,5.06,2S482.08,1536.41,480.34,1537.18Z"/><path d="M485.05,1548.42c-1.82.81-4.39.22-5.18-1.75s.65-4.48,2.59-5.24,4.35,0,5.07,2S486.79,1547.65,485.05,1548.42Z"/><path d="M503.43,1537.43c-1.82.81-4.39.22-5.18-1.75s.66-4.48,2.59-5.24,4.35,0,5.07,2S505.17,1536.66,503.43,1537.43Z"/><path d="M539.6,1483.87c-2.07.17-2.07,7.21-4.24,15.23-5,18.63-16.77,24.09-13.9,32.71,1,2.9,3.46,5.81,6.36,6.25,3.78.56,7-3.27,8-4.5,2.59-3.09,2.73-5.51,4.95-13.73,3-10.92,3.7-10.34,4.24-15.24a31.14,31.14,0,0,0-1.41-14.48C542.93,1488.24,541.29,1483.72,539.6,1483.87Z" fill="#cacaca" stroke="#858590" stroke-miterlimit="10" stroke-width="1.35"/><path d="M682.07,1507.76a55.31,55.31,0,0,0-19.16,2.33c-2.27.71-3.49,1.26-18.23,7.66-6.49,2.82-9.74,4.24-10,4.33-6,1.87-15.32,1.66-29.53-8a49,49,0,0,0-5.66,11.65,51.5,51.5,0,0,0-1.89,7.66,13.51,13.51,0,0,0-1.88,9c1.22,6.38,8.13,9.44,11.62,11,10.54,4.67,15.27.42,25.14,4.33,5.68,2.25,7.55,5,13.2,9.66a107.29,107.29,0,0,0,32.67,17c22.57,7.09,52.88,4.68,57.86-8.41a12.24,12.24,0,0,0,.7-5.18l3-5.39c1.15-2.37,4-9,1.57-15.32-1.33-3.53-4-6.34-12.26-10.65-11-5.79-17.26-6.54-23.25-9C699.22,1527.64,690.41,1521.74,682.07,1507.76Z" fill="#f1f1f3"/><path d="M682.07,1507.76a55.31,55.31,0,0,0-19.16,2.33c-2.27.71-3.49,1.26-18.23,7.66-6.49,2.82-9.74,4.24-10,4.33-6,1.87-15.32,1.66-29.53-8a67.49,67.49,0,0,0-5.66,11.65,69.43,69.43,0,0,0-2.67,9,131.81,131.81,0,0,1,17.28,5.5,130.29,130.29,0,0,1,19.48,9.66c6.59,4,8.73,6.08,13.67,9.48a110.1,110.1,0,0,0,27.65,13.82,91.06,91.06,0,0,0,43.83,3,88.49,88.49,0,0,0,18.18-5.43l3-5.39c1.15-2.37,4-9,1.57-15.32-1.33-3.53-4-6.34-12.26-10.65-11-5.79-17.26-6.54-23.25-9C699.22,1527.64,690.41,1521.74,682.07,1507.76Z" fill="#dededd"/><path d="M739.89,1565.37c.09,1.16-13.33,3.27-22,4.33-15.26,1.87-22.89,2.8-31.57,1.25-11.71-2.1-20.17-7-28.75-12-10.28-6-12.56-9.13-20-14-8.08-5.25-20.68-11.47-39.36-14l1.18-6a85.05,85.05,0,0,1,27.34,6.49c4.32,1.84,6.36,3.15,19.56,10.74,14.81,8.51,22.21,12.77,23.8,13.48,12.92,5.82,23.92,6.87,38.41,8.24C727.23,1565.73,739.8,1564.25,739.89,1565.37Z" fill="#a2a2a2"/><g opacity="0.46"><path d="M735.33,1571c-17,7.64-37,10.36-55.18,5-9.1-2.68-17.37-7.32-25.51-12A130.33,130.33,0,0,1,639,1553.46c-12.55-9.13-27.12-15.2-42.26-18.73a105.24,105.24,0,0,1,43.3,17.3,179.72,179.72,0,0,0,23.7,14.72,91.82,91.82,0,0,0,16.94,7.39c17.82,5.46,37.32,3.25,54.62-3.19Z"/></g><g opacity="0.46"><path d="M690.09,1518.25a87.54,87.54,0,0,0-32.38,8c-5.08,2.35-10.07,5.3-15.51,7-12.85,4-26.88,1.19-38.83-4.2,14,4.61,29.71,6.83,43.37.31,3.39-1.49,6.71-3.28,10.18-4.81a72.83,72.83,0,0,1,33.17-6.24Z"/></g><path d="M727.55,1556.21c1.83.81,4.4.22,5.19-1.75s-.66-4.48-2.59-5.24-4.35,0-5.07,2S725.82,1555.44,727.55,1556.21Z"/><path d="M708.23,1547.85c1.82.81,4.4.21,5.19-1.75s-.66-4.49-2.6-5.25-4.35,0-5.06,2S706.49,1547.07,708.23,1547.85Z"/><path d="M710.94,1558c1.82.81,4.4.22,5.19-1.75s-.66-4.49-2.6-5.24-4.35,0-5.06,2S709.2,1557.19,710.94,1558Z"/><path d="M694,1549c1.83.81,4.4.22,5.19-1.75s-.66-4.49-2.59-5.24-4.35,0-5.07,2S692.24,1548.2,694,1549Z"/><path d="M687,1536.73c1.83.81,4.4.22,5.19-1.75s-.66-4.48-2.59-5.24-4.35,0-5.07,2S685.28,1536,687,1536.73Z"/><path d="M687.49,1558.58c1.83.81,4.4.22,5.19-1.74s-.66-4.49-2.59-5.25-4.35,0-5.07,2S685.76,1557.81,687.49,1558.58Z"/><path d="M669.47,1539.85c1.82.81,4.39.22,5.18-1.74s-.66-4.49-2.59-5.25-4.35,0-5.07,2S667.73,1539.08,669.47,1539.85Z"/><path d="M664.75,1551.09c1.83.81,4.4.22,5.19-1.75s-.66-4.48-2.59-5.24-4.35,0-5.07,2S663,1550.32,664.75,1551.09Z"/><path d="M646.37,1540.1c1.83.81,4.4.22,5.19-1.74s-.66-4.49-2.59-5.25-4.35,0-5.07,2S644.64,1539.33,646.37,1540.1Z"/><path d="M610.2,1486.54c2.08.17,2.08,7.21,4.24,15.23,5,18.63,16.77,24.09,13.91,32.71-1,2.9-3.46,5.82-6.37,6.25-3.77.56-7-3.27-8-4.5-2.59-3.09-2.73-5.51-5-13.73-2.95-10.92-3.7-10.34-4.24-15.24a31.24,31.24,0,0,1,1.42-14.48C606.87,1490.92,608.51,1486.4,610.2,1486.54Z" fill="#cacaca" stroke="#858590" stroke-miterlimit="10" stroke-width="1.35"/><path d="M763.45,788.18l-71,36.32q-9.86-47.49-21.69-96.86-3.88-16.18-7.88-32c-1.25-21.46,6.11-41.56,18.82-51.06,16.41-12.27,39.39-5.08,52.35,18.79Q748.76,725.76,763.45,788.18Z" fill="#9ac2ff"/><path d="M763.45,788.18q-14.69-62.41-29.39-124.84c2.35,22.31,5.74,46.61,10.61,72.45,3.09,16.34,6.47,31.72,10,46.11L696,814.16l-10.56-24.44q3.51,17.38,7,34.78Z" fill="#83afea"/><path d="M388,789.33l68.62,36.14q9.6-47.4,21.12-96.69,3.79-16.15,7.67-32c1.24-21.43-5.85-41.47-18.13-50.93-15.86-12.22-38.1-5-50.66,18.82Z" fill="#9ac2ff"/><path d="M388,789.33,416.62,664.7C414.31,687,411,711.23,406.24,737c-3,16.32-6.3,31.67-9.73,46l56.69,32.12q5.13-12.21,10.25-24.41-3.4,17.36-6.83,34.72Z" fill="#83afea"/></g></svg>