<svg xmlns="http://www.w3.org/2000/svg" viewBox="0 0 1080 1920"><g style="isolation:isolate"><g id="costumes"><g id="_9" data-name="9"><path d="M674.58,1002.33a895.89,895.89,0,0,1,7.72,102.85c.79,46.87-1.42,140-6.23,171.94-2,13-.76,24.54-1.51,45.05-1.6,44-2.52,68.79-4.73,99.91-.93,13.05-2.43,32.06-4.8,55.2a146.75,146.75,0,0,1-49,2.4,187.19,187.19,0,0,0-.43-23.18c-1.37-17-4.64-28.34-7.25-38.74a449.43,449.43,0,0,1-12-73.44c-.44-6-1.39-21.09-.89-40.65.29-11.27,1-21.06,1.73-29-.28-1.27-.69-3.19-1.14-5.53a222.38,222.38,0,0,1-3.45-25.36c-1.1-13.53-4-26.27-7.29-47.59-4.37-28.71-2.32-27.29-9.36-95-.89-8.57-2.16-20.43-3.68-37.44-2.35-26.35-3-39.5-3-45.36.28-28.28,15-52.86,35.43-60.86C631.16,947.23,664.19,965.67,674.58,1002.33Z" fill="#1a1a1a"/><path d="M477.62,998.24a900.54,900.54,0,0,0-7.72,102.84c-.78,46.87,1.43,140,6.24,172,1.95,13,.76,24.54,1.5,45,1.6,44,2.53,68.79,4.74,99.91.92,13,2.42,32.06,4.8,55.2a146.75,146.75,0,0,0,49,2.4,185.22,185.22,0,0,1,.43-23.18c1.37-17,4.64-28.35,7.25-38.74a449.64,449.64,0,0,0,12-73.44c.43-6,1.39-21.1.88-40.66-.28-11.26-1-21-1.72-28.94.28-1.28.69-3.2,1.14-5.53a222.68,222.68,0,0,0,3.45-25.36c1.1-13.54,4-26.28,7.29-47.59,4.36-28.72,2.31-27.3,9.36-95,.89-8.58,2.15-20.43,3.67-37.45,2.35-26.34,3-39.49,3-45.36-.27-28.28-15-52.86-35.43-60.85C521,943.13,488,961.58,477.62,998.24Z" fill="#1a1a1a"/><path d="M487.88,629.6c4.38-1.06,11-2.67,19.08-4.68,12.06-3,15.42-3.92,19.44-6.48a35.78,35.78,0,0,0,11.16-11.52,72.43,72.43,0,0,0,88.92-2.52,28.19,28.19,0,0,0,16.2,16.92A329.59,329.59,0,0,1,662,729.3c.4,55.45-13.52,82.29-19.95,140.22-3.48,31.34-5.08,78.37,7,138.05l-120.8-.54Q508.07,818.32,487.88,629.6Z" fill="#efe7da"/><g opacity="0.38"><path d="M531.11,629.54c13.08,15.45,32.32,25,52.55,23.79a84.32,84.32,0,0,0,53.69-24.2,66.25,66.25,0,0,1-23.17,20.59c-29.65,16-65.62,10-83.07-20.18Z"/></g><g opacity="0.38"><path d="M522.58,980.86q58.68-4.18,117.57-3.77-58.68,4.2-117.57,3.77Z"/></g><path d="M433.37,1133.22A260.45,260.45,0,0,0,550.93,1151c2.17-69.07,4.06-125.34,5.39-164.48,1.95-57,3-85.11,2.16-127.27-.77-39.21-1.62-76.23-8.09-124A839.72,839.72,0,0,0,527.2,622.52l8.92-13.26a38.63,38.63,0,0,0-8.78-.22c-3,.28-7.67.66-12,3.37a21.66,21.66,0,0,0-6.07,5.8c-7.29,9.71-33.47,12.38-48.75,16.55-12.59,3.44-36,9.82-41.28,25-7.38,21,20.67,56.93,23.29,73.9A109.18,109.18,0,0,1,443.62,752c-.16,5-1.25,3.62,3.23,60.86,5.23,66.91,6.19,62.11,7,81.43,1.7,40.1-2.58,57-10.79,133.74C440.4,1053.09,436.8,1089.16,433.37,1133.22Z" fill="#534741"/><path d="M527.12,621.14a76.87,76.87,0,0,0,9.18-13.32,32,32,0,0,0-16.92,3c-3.58,1.8-3.75,2.86-10.38,8.09-11.36,9-14.31,8.53-17.39,13.76-2.17,3.67-1.59,5.38-3.37,14.29a136.6,136.6,0,0,1-5.39,19.41L503.07,680q28.32-26.81,28.45-26.7t-48.67,47.06c5.82,10.21,13.82,24.75,22.65,42.6,7.77,15.73,13.1,27.79,19.36,42.11,9,20.63,20.82,47.88,34.7,80.71.22-25.59-.79-47.43-2-64.35-3.05-43.29-4.74-67.23-12.94-97.79-3.33-12.4-8.78-29.81-13.66-57.17C529.07,635.75,527.85,626.93,527.12,621.14Z" fill="none" stroke="#000" stroke-miterlimit="10" stroke-width="2.25"/><path d="M453.68,1141c1.29-12.49,3.14-30.76,5.21-52.85,5.72-60.92,8.59-91.38,9.17-112,1.85-65.21,2.77-97.82,1.8-104.62-.32-2.2-2.18-14.84.72-15.82,1-.34,2.79.66,12.22,14,8.42,11.93,10.77,16,11.15,15.81.72-.39-5.65-17.32-19-34.51a162.94,162.94,0,0,0-10.8-12.24c-8.46-9.4-17.64-25.89-19.44-56.88.37,6,.93,14.64,1.68,25,1,14.12,1.56,21.43,2.4,30.24,2.34,24.53,6.18,51.25,5.74,69,0,1.54-.1,3.15-.1,3.15-1.49,39.77-7.07,37.12-10.79,86.29-2.87,38-.34,50.24-4.31,98.87-1.46,17.87-3.13,32.49-4.32,42.06Z" fill="#fff" opacity="0.5" style="mix-blend-mode:overlay"/><path d="M546.79,944.83c-.92,1.33-18.35-6.42-32.71-21.21a93.77,93.77,0,0,1-18.34-27.32c5.39,5.6,13.63,14,24.09,23.73C538.37,937.34,547.51,943.81,546.79,944.83Z" fill="#fff" opacity="0.5" style="mix-blend-mode:overlay"/><path d="M474.89,709.71l8-9.39c13.54,25.2,24,46.71,31.54,62.82,7.05,15.08,13.15,29.2,25.35,57.44,12.93,29.91,16.91,39.95,16.72,40-.47.2-21.72-58.64-64.67-125.75C485,724.25,479.05,715.61,474.89,709.71Z" fill="#fff" opacity="0.5" style="mix-blend-mode:overlay"/><path d="M500.18,889.8c-6.57,2.66-15.69-1.93-16.63-9.44-.83-6.59,4.86-13.53,12.13-13.3,6.73.21,11.71,6.46,11.42,12.67A11.62,11.62,0,0,1,500.18,889.8Z"/><path d="M497.18,888.3c-6.57,2.66-15.68-1.92-16.63-9.44-.83-6.59,4.87-13.53,12.14-13.3,6.73.21,11.71,6.47,11.41,12.67A11.59,11.59,0,0,1,497.18,888.3Z" fill="#cfab73"/><path d="M491.25,885.06c-1.94.41-4.18-2.18-5.12-4.31a8.39,8.39,0,0,1,.18-7.1c.68-1.21,2.38-3.35,4-3a2.1,2.1,0,0,1,1.62,1.71c0,1.26-2,1.44-2.7,3.24-.52,1.44.21,3,.63,3.86,1.2,2.52,3.15,3.13,2.88,4.32A2,2,0,0,1,491.25,885.06Z" fill="#f0e7d9"/><path d="M498.74,938.33c-6.57,2.66-15.68-1.92-16.63-9.43-.83-6.59,4.86-13.53,12.13-13.31,6.73.21,11.72,6.47,11.42,12.68A11.59,11.59,0,0,1,498.74,938.33Z"/><path d="M495.74,936.84c-6.57,2.66-15.68-1.93-16.62-9.44-.83-6.59,4.86-13.53,12.13-13.3,6.73.21,11.71,6.46,11.41,12.67A11.59,11.59,0,0,1,495.74,936.84Z" fill="#cfab73"/><path d="M489.81,933.6c-1.94.41-4.18-2.19-5.12-4.31a8.4,8.4,0,0,1,.18-7.1c.68-1.22,2.38-3.35,4-3a2.09,2.09,0,0,1,1.62,1.71c0,1.25-2,1.44-2.7,3.23-.52,1.44.21,3,.63,3.87,1.2,2.51,3.15,3.12,2.88,4.31A2,2,0,0,1,489.81,933.6Z" fill="#f0e7d9"/><path d="M497.66,985.07c-6.57,2.66-15.68-1.92-16.63-9.44-.83-6.59,4.87-13.53,12.14-13.3,6.73.21,11.71,6.47,11.41,12.67A11.59,11.59,0,0,1,497.66,985.07Z"/><path d="M494.66,983.57c-6.57,2.66-15.68-1.92-16.62-9.43-.83-6.59,4.86-13.53,12.13-13.31,6.73.21,11.71,6.47,11.42,12.68A11.59,11.59,0,0,1,494.66,983.57Z" fill="#cfab73"/><path d="M488.73,980.34c-1.94.41-4.18-2.19-5.12-4.32-.14-.32-1.65-3.87.18-7.1.68-1.21,2.39-3.34,4-3a2.07,2.07,0,0,1,1.62,1.7c0,1.26-2,1.44-2.69,3.24-.53,1.44.2,3,.62,3.87,1.2,2.51,3.15,3.12,2.88,4.31A2,2,0,0,1,488.73,980.34Z" fill="#f0e7d9"/><path d="M496.22,1033.25c-6.57,2.66-15.68-1.93-16.63-9.44-.82-6.59,4.87-13.53,12.14-13.3,6.73.21,11.71,6.46,11.41,12.67A11.59,11.59,0,0,1,496.22,1033.25Z"/><path d="M493.23,1031.75c-6.57,2.66-15.69-1.93-16.63-9.44-.83-6.59,4.86-13.53,12.13-13.3,6.73.21,11.71,6.46,11.42,12.67A11.62,11.62,0,0,1,493.23,1031.75Z" fill="#cfab73"/><path d="M487.29,1028.51c-1.94.41-4.18-2.18-5.12-4.31-.14-.32-1.65-3.87.18-7.1.69-1.21,2.39-3.35,4-3a2.07,2.07,0,0,1,1.61,1.71c0,1.26-2,1.44-2.69,3.24-.53,1.44.2,3,.63,3.86,1.19,2.52,3.14,3.12,2.87,4.31A2,2,0,0,1,487.29,1028.51Z" fill="#f0e7d9"/><path d="M728.17,1129.81a260.66,260.66,0,0,1-117.56,17.79c-2.17-69.07-4.06-125.33-5.39-164.48-2-57-3-85.1-2.16-127.27,0,0-.16-67.51,8.09-124A318.65,318.65,0,0,1,617.48,698c4.67-18.76,8.19-25,11.88-41a206.77,206.77,0,0,0,5-37.85l-8.22-13.63a52.18,52.18,0,0,1,8.08.15s7.87.78,12,3.37c2.91,1.82,2.57,2.66,6.07,5.79,7.17,6.43,12.44,5.65,16.18,11.46a16.06,16.06,0,0,1,2.07,4.91c2.67.83,7,2.15,12.48,3.6,9.84,2.63,13.8,3.18,20.88,5.52s10.58,3.49,12.72,5c13.81,10,8.57,44.38,2.41,84.88a98.85,98.85,0,0,0-1.09,18.41c.16,5,1.25,3.62-3.23,60.87-5.23,66.91-6.19,62.11-7,81.43-1.7,40.09,2.58,57,10.79,133.74C721.14,1049.67,724.73,1085.74,728.17,1129.81Z" fill="#534741"/><path d="M633,618.3c-1.09-1.76-2.19-3.63-3.27-5.62-1.36-2.49-2.55-4.9-3.6-7.2,4.27-.48,10.81-.66,16,1.9.87.42,1.83,1,1.83,1,1.92,1.24,3.14,2.83,8.55,7.11,11.36,9,14.31,8.52,17.39,13.75,2.17,3.67,1.59,5.38,3.37,14.29a136.8,136.8,0,0,0,5.39,19.42l-20.22,13.61Q630.15,649.73,630,649.85t48.67,47c-5.82,10.21-13.82,24.75-22.65,42.6-7.77,15.74-13.11,27.8-19.36,42.11-9,20.63-20.82,47.89-34.7,80.71-.22-25.58.79-47.43,2-64.35,3.33-47.29,5-70.94,12.94-97.79,3.7-12.49,9.89-30.14,13.66-57.16C632,632.6,632.67,624,633,618.3Z" fill="none" stroke="#000" stroke-miterlimit="10" stroke-width="2.25"/><path d="M707.86,1137.54c-1.29-12.5-3.14-30.76-5.21-52.85-5.73-60.92-8.59-91.38-9.17-112-1.85-65.22-2.77-97.82-1.8-104.62.32-2.21,2.18-14.84-.72-15.82-1-.34-2.79.65-12.22,14-7.86,11.15-10.7,16.05-11.15,15.82-.87-.45,7.87-20.09,21.17-46.94,11.19-22.59,21-40.88,27.72-53.28-.69,10.27-1.85,26.24-3.6,46.08-1.19,13.51-1.79,20.27-2.16,23.76-2.11,19.81-4.14,31.72-3.68,51,0,1.32.07,2.27.1,3.15,1.49,39.76,7.07,37.12,10.79,86.28,2.87,38,.34,50.24,4.31,98.87,1.46,17.88,3.13,32.5,4.32,42.06Z" fill="#fff" opacity="0.5" style="mix-blend-mode:overlay"/><path d="M614.74,941.42c.93,1.33,18.36-6.43,32.72-21.21a93.92,93.92,0,0,0,18.34-27.33c-5.39,5.6-13.63,14-24.09,23.73C623.17,933.92,614,940.39,614.74,941.42Z" fill="#fff" opacity="0.5" style="mix-blend-mode:overlay"/><path d="M686.65,706.29l-8-9.39c-13.54,25.2-24,46.71-31.54,62.83-7,15.08-13.15,29.2-25.35,57.43-12.93,29.91-16.91,40-16.72,40,.47.21,21.72-58.63,64.67-125.74C676.55,720.83,682.49,712.2,686.65,706.29Z" fill="#fff" opacity="0.5" style="mix-blend-mode:overlay"/><path d="M661.36,886.38C667.93,889,677,884.46,678,877c.83-6.59-4.86-13.53-12.13-13.31-6.73.21-11.72,6.47-11.42,12.68A11.59,11.59,0,0,0,661.36,886.38Z"/><path d="M664.36,884.88c6.57,2.66,15.68-1.92,16.63-9.43.83-6.59-4.87-13.53-12.14-13.3-6.73.21-11.71,6.46-11.41,12.67A11.58,11.58,0,0,0,664.36,884.88Z" fill="#cfab73"/><path d="M670.29,881.65c1.94.41,4.18-2.19,5.12-4.32a8.39,8.39,0,0,0-.18-7.1c-.68-1.21-2.38-3.34-4-3a2.09,2.09,0,0,0-1.62,1.71c0,1.25,2,1.43,2.7,3.23.52,1.44-.21,3-.63,3.87-1.2,2.51-3.15,3.12-2.88,4.31A2,2,0,0,0,670.29,881.65Z" fill="#f0e7d9"/><path d="M662.8,934.92c6.57,2.66,15.68-1.93,16.63-9.44.83-6.59-4.87-13.53-12.14-13.3-6.73.21-11.71,6.46-11.41,12.67A11.6,11.6,0,0,0,662.8,934.92Z"/><path d="M665.8,933.42c6.57,2.66,15.68-1.92,16.62-9.44.83-6.59-4.86-13.53-12.13-13.3-6.73.21-11.71,6.47-11.41,12.67A11.57,11.57,0,0,0,665.8,933.42Z" fill="#cfab73"/><path d="M671.73,930.18c1.94.41,4.18-2.18,5.12-4.31.14-.32,1.65-3.87-.18-7.1-.68-1.21-2.39-3.35-4-3a2.1,2.1,0,0,0-1.62,1.71c0,1.26,2,1.44,2.7,3.24.52,1.44-.21,3-.63,3.86-1.2,2.52-3.15,3.13-2.88,4.32A2,2,0,0,0,671.73,930.18Z" fill="#f0e7d9"/><path d="M663.88,981.66c6.57,2.66,15.68-1.93,16.63-9.44.83-6.59-4.87-13.53-12.14-13.3-6.73.21-11.71,6.46-11.41,12.67A11.6,11.6,0,0,0,663.88,981.66Z"/><path d="M666.87,980.16c6.58,2.66,15.69-1.93,16.63-9.44.83-6.59-4.86-13.53-12.13-13.3-6.73.21-11.71,6.46-11.42,12.67A11.62,11.62,0,0,0,666.87,980.16Z" fill="#cfab73"/><path d="M672.81,976.92c1.94.41,4.18-2.18,5.12-4.31.14-.33,1.65-3.87-.18-7.1-.69-1.22-2.39-3.35-4-3a2.07,2.07,0,0,0-1.62,1.71c0,1.26,2,1.44,2.69,3.23.53,1.45-.2,3-.62,3.87-1.2,2.52-3.15,3.12-2.88,4.31A2,2,0,0,0,672.81,976.92Z" fill="#f0e7d9"/><path d="M665.32,1029.83c6.57,2.66,15.68-1.92,16.62-9.44.83-6.59-4.86-13.53-12.13-13.3-6.73.21-11.71,6.47-11.41,12.67A11.57,11.57,0,0,0,665.32,1029.83Z"/><path d="M668.31,1028.33c6.57,2.66,15.69-1.92,16.63-9.43.83-6.59-4.86-13.53-12.13-13.31-6.73.21-11.71,6.47-11.42,12.68A11.59,11.59,0,0,0,668.31,1028.33Z" fill="#cfab73"/><path d="M674.25,1025.1c1.93.41,4.18-2.19,5.12-4.32.14-.32,1.65-3.87-.18-7.1-.69-1.21-2.39-3.34-4.05-3a2.07,2.07,0,0,0-1.61,1.7c0,1.26,2,1.44,2.69,3.24.53,1.44-.2,3-.63,3.87-1.2,2.51-3.14,3.12-2.87,4.31A2,2,0,0,0,674.25,1025.1Z" fill="#f0e7d9"/><path d="M406.66,1556.2a18.34,18.34,0,0,0-.46,4.1,18.84,18.84,0,0,0,1.6,7.52A71.86,71.86,0,0,0,432.42,1579a75.29,75.29,0,0,0,24.16,1.6c8.33-.57,22-1.51,34.88-9.57,3.64-2.28,5.87-4.28,14.59-9.81,5-3.17,9.22-5.65,12.08-7.29.23,2,.45,4.1.68,6.15a119.29,119.29,0,0,0,29.41-11.39q-1.34-7.68-2.66-15.35a298.69,298.69,0,0,0-55.24,10.56c-20.56,6-35.76,13-59.95,13.68A137.48,137.48,0,0,1,406.66,1556.2Z" fill="#191919"/><path d="M406.05,1556.12a76.31,76.31,0,0,0,30.09,11.55,80.44,80.44,0,0,0,38.3-4c13.63-4.86,15.69-9.75,30.09-17.32a127,127,0,0,1,41-13.07,41.45,41.45,0,0,0-9.12-42.25c-3.17,8-6.57,10.18-9.12,10.64-4.85.87-8.22-4.14-16.11-4.26a20.37,20.37,0,0,0-7.9,1.52c.05-.93.29-6.82-3.95-10.64-4.56-4.1-12.47-4.15-18.54.61-4.45,4.28-10.4,10.06-17.32,17-13.93,14-15.11,16-20.67,19.45a148.24,148.24,0,0,1-21.89,10.95c-5.81,2.26-10.31,3.51-13.06,7.9C405.34,1548.3,405.54,1553,406.05,1556.12Z" fill="#2f2b2b"/><path d="M522.76,1538.19a60.36,60.36,0,0,0-5.65-10.88c-1.13-1.5-2.19-3.53-4.18-3.9-1.94-.2-3.9.74-5.65,1.54-7.47,3.51-13.29,9.55-20.5,13.52a27.05,27.05,0,0,1-5.72,2.62,10.88,10.88,0,0,1-6.42-.43c-5.51-2.12-12-8.44-9.46-14.83,1.87-3.83,4.65-6.81,7.19-10.14,1.11-1.36,2.34-2.8,3.53-4.1,3.8-3.83,11.55-10.86,16.32-15.34-4.4,4.49-11.8,11.9-15.48,15.59-.46.51-1.29,1.49-1.74,2-3,4-6.53,8-8.79,12.39-2.16,5.69,3.94,11.37,8.85,13.21,3.93,1.62,7.7,0,11.13-2,7.21-3.92,13.13-10,20.73-13.25,1.93-.82,3.93-1.75,6.12-1.47s3.37,2.63,4.51,4.31a56.08,56.08,0,0,1,5.21,11.16Z"/><path d="M444.5,1525a17,17,0,0,0,13.22-1.33c4.21-2.14,6.14-6.51,9.17-10,6.22-6.89,12.7-13.55,20.16-19.09-4.91,4.51-10.07,9.83-14.56,14.81a90.68,90.68,0,0,0-8.85,10.58,16.27,16.27,0,0,1-19.14,5Z"/><path d="M419.27,1537.13a36.73,36.73,0,0,0,13,7.28c14.74,5,29.83,4,43.06-4.54l.25-.16a6.78,6.78,0,0,0,5.61.26,33.71,33.71,0,0,1,10.53,14.78,36.11,36.11,0,0,0-10.89-13.94l.43.07a7.72,7.72,0,0,1-5.86-.08l.5,0a46.05,46.05,0,0,1-36.59,6.56c-7.37-1.75-14.77-4.64-20.08-10.19Z"/><path d="M470.66,1527.59a30.13,30.13,0,0,0-15.87-6.64,1.38,1.38,0,0,1-1.17-1.53,1.4,1.4,0,0,1,1.82-1,28.56,28.56,0,0,1,10,2.66,28.85,28.85,0,0,1,7,4.71,1.25,1.25,0,0,1-1.73,1.79Z" fill="#2f2b2b" stroke="#101113" stroke-miterlimit="10" stroke-width="1.9"/><path d="M476.05,1521.28a30,30,0,0,0-15.87-6.64,1.39,1.39,0,0,1-1.17-1.52,1.4,1.4,0,0,1,1.83-1,28.36,28.36,0,0,1,16.94,7.37,1.3,1.3,0,0,1,.08,1.52A1.33,1.33,0,0,1,476.05,1521.28Z" fill="#2f2b2b" stroke="#101113" stroke-miterlimit="10" stroke-width="1.9"/><path d="M482.81,1514.52a29.63,29.63,0,0,0-6.17-3.91,30.17,30.17,0,0,0-9.7-2.73,1.32,1.32,0,1,1,.66-2.52,28.46,28.46,0,0,1,9.95,2.66,28.17,28.17,0,0,1,7,4.72,1.28,1.28,0,0,1,.08,1.51A1.32,1.32,0,0,1,482.81,1514.52Z" fill="#2f2b2b" stroke="#101113" stroke-miterlimit="10" stroke-width="1.9"/><path d="M489.88,1507.83A29.93,29.93,0,0,0,474,1501.2a1.32,1.32,0,1,1,.66-2.52,28.51,28.51,0,0,1,9.95,2.66,28.18,28.18,0,0,1,7,4.71,1.3,1.3,0,0,1,.08,1.52A1.33,1.33,0,0,1,489.88,1507.83Z" fill="#2f2b2b" stroke="#101113" stroke-miterlimit="10" stroke-width="1.9"/><path d="M426,1537.28c-.08,3.47,10.22,6.23,11.62,6.61,13.86,3.71,27-.66,26.9-1.6-.06-.5-4,0-15.05-1.14-9.12-1-11.88-1.88-13.9-4.1-1.37-1.5-1.9-3-3.65-3.42C429.46,1533.09,426.08,1535.31,426,1537.28Z" fill="#717070"/><path d="M745.49,1555.72a18.34,18.34,0,0,1,.46,4.1,18.84,18.84,0,0,1-1.6,7.52,71.77,71.77,0,0,1-24.62,11.17,75.28,75.28,0,0,1-24.16,1.6c-8.33-.57-22-1.51-34.88-9.57-3.63-2.28-5.86-4.28-14.58-9.81-5-3.17-9.23-5.65-12.09-7.29q-.33,3.07-.68,6.15a119.29,119.29,0,0,1-29.41-11.39q1.34-7.68,2.66-15.35a298.69,298.69,0,0,1,55.24,10.56c20.56,6,35.76,13,60,13.68A137.35,137.35,0,0,0,745.49,1555.72Z" fill="#191919"/><path d="M746.1,1555.64A76.31,76.31,0,0,1,716,1567.19a80.44,80.44,0,0,1-38.3-4c-13.63-4.86-15.68-9.75-30.09-17.32a126.93,126.93,0,0,0-41-13.07,41.45,41.45,0,0,1,9.12-42.25c3.17,8,6.57,10.18,9.12,10.64,4.85.87,8.22-4.14,16.11-4.26a20.33,20.33,0,0,1,7.9,1.52c-.05-.93-.29-6.82,3.95-10.64,4.56-4.1,12.47-4.15,18.54.61,4.45,4.28,10.4,10.06,17.33,17,13.92,14,15.1,16,20.66,19.45a148.24,148.24,0,0,0,21.89,11c5.81,2.26,10.31,3.51,13.07,7.9C746.81,1547.82,746.61,1552.49,746.1,1555.64Z" fill="#2f2b2b"/><path d="M629.39,1537.71c1.28-3.62,5.72-14.86,9.72-15.47,2.19-.28,4.19.65,6.12,1.47,7.61,3.3,13.52,9.33,20.73,13.25,3.44,2,7.2,3.65,11.13,2,4.91-1.84,11-7.52,8.85-13.21-2.26-4.42-5.75-8.43-8.79-12.39-.46-.54-1.27-1.52-1.74-2-3.66-3.67-11.1-11.12-15.48-15.59,4.79,4.51,12.5,11.49,16.32,15.34,1.19,1.3,2.42,2.74,3.53,4.1,2.55,3.33,5.32,6.31,7.19,10.14,2.51,6.4-4,12.71-9.46,14.83-4.28,1.76-8.44,0-12.13-2.19-7.22-4-13-10-20.5-13.52-1.76-.8-3.72-1.74-5.66-1.54-2,.37-3,2.4-4.18,3.9a60.36,60.36,0,0,0-5.65,10.88Z"/><path d="M707.65,1524.49a16.25,16.25,0,0,1-19.13-5,91.76,91.76,0,0,0-8.86-10.58c-4.49-5-9.64-10.29-14.56-14.81,7.46,5.54,13.95,12.2,20.17,19.09,3,3.46,5,7.83,9.17,10a17,17,0,0,0,13.21,1.33Z"/><path d="M732.88,1536.65c-5.31,5.55-12.71,8.44-20.08,10.19a46.05,46.05,0,0,1-36.59-6.56l.5,0a7.7,7.7,0,0,1-5.85.08l.42-.07a36.11,36.11,0,0,0-10.89,13.94,33.79,33.79,0,0,1,10.53-14.78,6.81,6.81,0,0,0,5.62-.26l.25.16c13.26,8.51,28.28,9.55,43.05,4.54a36.64,36.64,0,0,0,13-7.28Z"/><path d="M681.49,1527.11a30.12,30.12,0,0,1,15.88-6.64,1.32,1.32,0,1,0-.66-2.52,28.36,28.36,0,0,0-16.94,7.37,1.3,1.3,0,0,0-.08,1.52A1.31,1.31,0,0,0,681.49,1527.11Z" fill="#2f2b2b" stroke="#101113" stroke-miterlimit="10" stroke-width="1.9"/><path d="M676.1,1520.8a30.61,30.61,0,0,1,6.17-3.91,30.23,30.23,0,0,1,9.7-2.73,1.31,1.31,0,1,0-.65-2.51,28.56,28.56,0,0,0-10,2.66,28.18,28.18,0,0,0-7,4.71,1.3,1.3,0,0,0-.07,1.52A1.31,1.31,0,0,0,676.1,1520.8Z" fill="#2f2b2b" stroke="#101113" stroke-miterlimit="10" stroke-width="1.9"/><path d="M669.34,1514a29.63,29.63,0,0,1,6.17-3.91,30.17,30.17,0,0,1,9.7-2.73,1.39,1.39,0,0,0,1.17-1.53,1.41,1.41,0,0,0-1.83-1,28.46,28.46,0,0,0-9.95,2.66,28.17,28.17,0,0,0-7,4.72,1.28,1.28,0,0,0-.08,1.51A1.33,1.33,0,0,0,669.34,1514Z" fill="#2f2b2b" stroke="#101113" stroke-miterlimit="10" stroke-width="1.9"/><path d="M662.27,1507.35a30.61,30.61,0,0,1,6.17-3.91,30.17,30.17,0,0,1,9.7-2.72,1.32,1.32,0,1,0-.65-2.52,28.36,28.36,0,0,0-17,7.37,1.3,1.3,0,0,0-.07,1.52A1.31,1.31,0,0,0,662.27,1507.35Z" fill="#2f2b2b" stroke="#101113" stroke-miterlimit="10" stroke-width="1.9"/><path d="M726.12,1536.8c.07,3.47-10.23,6.23-11.63,6.61-13.86,3.71-27-.66-26.9-1.6.06-.5,4,0,15-1.14,9.13-1,11.88-1.88,13.9-4.1,1.37-1.5,1.9-3,3.65-3.42C722.7,1532.61,726.08,1534.83,726.12,1536.8Z" fill="#717070"/><path d="M735.15,974.66c-1.79-5.68-.61-9.33.07-10.91,3.56-8.25,16.61-13,31.86-9.38l2.31,12.25Z" fill="#efe7da"/><path d="M749.32,966.64c-1.66.5-5.18,1.58-10,2.7-3.43.79-6.29,1.32-8.19,1.64q-2.52-8.44-5-16.9c-4.93-19.92-8.2-36.25-10.25-47.3-4.71-25.43-3.09-27-8.49-50.17-4.68-20.1-7.62-34.48-9.47-44.2-.46-2.41-1.18-6.48-2.53-11.95-2.41-9.7-5.16-17.15-8.49-27.93-8.4-27.15-14-44.55-14.47-66.24-.45-19.24-.94-40.25,11.71-53.38,12.39-12.85,33.6-14.22,46.31-3.66a24.52,24.52,0,0,1,2.71,2.7c8,8.85,12.77,20.92,15.18,45.76.55,5.74.8,14.4,1.29,31.73.6,20.85.29,23.24.89,35,.5,9.9,1,14.51,3,35.1,1,10.3,2.41,25.66,4.09,44.77a264.4,264.4,0,0,1,4.88,29.76c1.34,12.68,1.13,19.6,2.15,37.52.71,12.34,1.57,22.34,2.17,28.76q2.26,10,4.52,20.1C760.89,963.24,754,965.24,749.32,966.64Z" fill="#534741"/><path d="M707.72,824a255.35,255.35,0,0,1,8.7,46.42c2.52,22.87,6.91,56.18,15.22,101.7a591.78,591.78,0,0,1-20.15-84.61q-2.57-15.9-4.16-30.94c-3-13.08-5.22-23.73-6.73-31.08-2-9.82-2.76-14-4.4-20.95-2.74-11.69-5.56-21-7.5-27.05A236.13,236.13,0,0,1,707.72,824Z" fill="#fff" opacity="0.5" style="mix-blend-mode:overlay"/><path d="M412.15,977.86c1.78-5.68.61-9.33-.07-10.91-3.57-8.25-16.62-13-31.86-9.38q-1.16,6.13-2.32,12.25Z" fill="#efe7da"/><path d="M398,969.84c1.66.5,5.17,1.59,10,2.7,3.44.79,6.29,1.32,8.19,1.64q2.54-8.45,5.05-16.9c4.94-19.92,8.2-36.25,10.25-47.3,4.71-25.43,3.1-27,8.5-50.17,4.68-20.1,7.61-34.48,9.47-44.2.46-2.41,1.17-6.48,2.53-12,2.4-9.7,5.15-17.15,8.49-27.93,8.4-27.15,14-44.55,14.47-66.24.45-19.24.94-40.25-11.72-53.38-12.39-12.85-33.59-14.22-46.3-3.66a23.72,23.72,0,0,0-2.72,2.7c-8,8.85-12.77,20.92-15.17,45.76-.55,5.74-.8,14.4-1.3,31.73-.59,20.85-.29,23.24-.88,35-.5,9.9-1,14.51-3,35.1-1,10.3-2.41,25.66-4.1,44.77a266.27,266.27,0,0,0-4.87,29.76c-1.34,12.68-1.13,19.6-2.16,37.52-.7,12.34-1.56,22.34-2.16,28.76q-2.26,10.05-4.52,20.1C386.41,966.44,393.32,968.44,398,969.84Z" fill="#534741"/><path d="M439.57,827.24a257.05,257.05,0,0,0-8.7,46.43c-2.51,22.86-6.91,56.17-15.22,101.69a591.41,591.41,0,0,0,20.16-84.61q2.56-15.9,4.16-30.94c3-13.08,5.22-23.73,6.73-31.08,2-9.82,2.76-14,4.39-21,2.74-11.69,5.56-21,7.51-27A236,236,0,0,0,439.57,827.24Z" fill="#fff" opacity="0.5" style="mix-blend-mode:overlay"/></g></g></g></svg>