<svg xmlns="http://www.w3.org/2000/svg" xmlns:xlink="http://www.w3.org/1999/xlink" viewBox="0 0 1080 1920"><defs><clipPath id="clip-path"><path id="nose" d="M607.3,475.75a10.17,10.17,0,0,0-3.42-7,11.84,11.84,0,0,0-8-3.12c-.29-1.43-.66-2.91-1-2.89-.73,0,.37,6.47-2.09,11.21-3,5.86-12.26,10.56-20.16,7.68-8.72-3.17-13.75-14.79-8.84-25.21l-3.87,9.06a10.76,10.76,0,0,0-8.43.81,10.6,10.6,0,0,0-4.35,5.14,11,11,0,0,0-.87,5.06,10.7,10.7,0,0,0,2,5.42,7,7,0,0,0,3.32,1.07,31.1,31.1,0,0,0,3.82-.76c1-.24,1.93-.41,2.55-.51l.84-.13c2.62-.37,14.39,5.7,22.37,4,2.34-.5,3.73-1.54,7.94-2.11a32.33,32.33,0,0,1,4.67-.3,8.69,8.69,0,0,0,9.58.6C607.41,481.3,607.32,476.34,607.3,475.75Z" fill="#d39983"/></clipPath></defs><g style="isolation:isolate"><g id="nose-2" data-name="nose"><g id="nose1"><g id="nose-3" data-name="nose"><path d="M554,486.35c3,.95,6.81-.18,9.32,1.75,6.37,4.89,7.77,9.44,20.46,7.88,3.79-.46,9-6.6,11.46-8.16,2.89-1.86,7.76-1.5,10.19-4.08a8,8,0,0,0,1.2-1.69,6.75,6.75,0,0,0-.38-1.34c-1.45,1.35-3.71,1.28-5.62.77s-3.76-1.39-5.73-1.36c-2.63,0-4.94,1.64-7.37,2.64a20,20,0,0,1-10.29,1.13,34,34,0,0,1-10-3.14c-3.16-1.49-6.54-3.35-9.93-2.54-1.86.45-3.42,1.64-5.06,2.61-.75.44-2.35.5-4,1.1l0,0A10.49,10.49,0,0,0,554,486.35Z" fill="#d39983" opacity="0.2"/><g opacity="0.29" style="mix-blend-mode:multiply"><path id="nose-4" data-name="nose" d="M607.3,475.75a10.17,10.17,0,0,0-3.42-7,11.84,11.84,0,0,0-8-3.12c-.29-1.43-.66-2.91-1-2.89-.73,0,.37,6.47-2.09,11.21-3,5.86-12.26,10.56-20.16,7.68-8.72-3.17-13.75-14.79-8.84-25.21l-3.87,9.06a10.76,10.76,0,0,0-8.43.81,10.6,10.6,0,0,0-4.35,5.14,11,11,0,0,0-.87,5.06,10.7,10.7,0,0,0,2,5.42,7,7,0,0,0,3.32,1.07,31.1,31.1,0,0,0,3.82-.76c1-.24,1.93-.41,2.55-.51l.84-.13c2.62-.37,14.39,5.7,22.37,4,2.34-.5,3.73-1.54,7.94-2.11a32.33,32.33,0,0,1,4.67-.3,8.69,8.69,0,0,0,9.58.6C607.41,481.3,607.32,476.34,607.3,475.75Z" fill="#d39983"/><g clip-path="url(#clip-path)"><path id="nose-5" data-name="nose" d="M607.15,474.71a10.15,10.15,0,0,0-2.82-5.8,11.43,11.43,0,0,0-8.47-3.27c-.24-.65-.6-1.65-1-2.89-8-24.28-1.34-39.13-9.15-44.91-3.35-2.48-8.47-3-11.53-1.16-4.52,2.74-5.11,11-6.1,24.89a69,69,0,0,1-1.64,10.4,29.57,29.57,0,0,1-2,6.2,24.62,24.62,0,0,1-4.62,6.65,11.54,11.54,0,0,0-7.19.82,11.42,11.42,0,0,0-6.37,10.86,10.92,10.92,0,0,0,2,5.42,7,7,0,0,0,3.32,1.07c2.55-.29,5.23-1.26,7.21-1.4,6.31-.44,13.22,4.26,19.57,5.17,5.52.8,11.06-.19,15.41-3.61a8.71,8.71,0,0,0,9.58.6C607.81,481.05,607.22,475.3,607.15,474.71Z" fill="#d39983"/><g id="effects"><path d="M595.65,476.9c-4-1.36-7.23,7.3-14.48,8.66-5,.95-9.68-2-11.23-3a19.57,19.57,0,0,1-5.79-5.78c-2.31-1.88-4-2.06-5-1.9-2.42.35-3,2.58-6.21,3.2a5.14,5.14,0,0,1-3.86-.43c-2-1.3-2.06-4.11-2.06-4.45a9.4,9.4,0,0,0,.52,6.93,7.53,7.53,0,0,0,.9,1.29,3.51,3.51,0,0,0,3.2,1.61c2.55-.29,5.23-1.26,7.21-1.4,6.31-.44,13.22,4.26,19.57,5.17,5.52.8,11.06-.19,15.41-3.61a9.14,9.14,0,0,0,9.47-.76,9.51,9.51,0,0,0,3.64-7.41c-.17.52-1.19,3.44-3.64,4.1a6.82,6.82,0,0,1-3.83-.46A26.54,26.54,0,0,1,595.65,476.9Z" fill="#d39983" opacity="0.15"/><path d="M599.22,482.63c-1.22-.28-3.94-1.77-5.1-1.34-.6.22-4,1.86-8.58,3.36s-9.25,1.34-15-1c-3-1.23-6.24-3.36-9.51-3.83-1.73-.26-4,.91-5.62,1.69a10.6,10.6,0,0,1-6.42.81c3.86,2.55,9.44-.73,12.63-.2,3.65.62,7,2.58,10.48,3.79,4.43,1.55,11.28,2.16,15.78.47a16.38,16.38,0,0,0,2.07-.73,26.57,26.57,0,0,1,3.84-1.76c1.36-.31,3,.59,4.34.65,1.57.08,6.73.94,7.94-3.76C603.36,483.75,600.74,483,599.22,482.63Z" fill="#d39983"/></g></g></g></g><path d="M550.27,467.25a11.26,11.26,0,0,0-3.16,4.19,9.69,9.69,0,0,0-.75,6c0,.11,0,.21.07.27a8.24,8.24,0,0,0,3.94,5.21c2.8,1.46,4.62-1.17,9.45-1.35a6.27,6.27,0,0,1,1.07,0c2.68.24,4.67.82,8.62,2.42s3.34,1.46,4.26,1.75a23.93,23.93,0,0,0,7,1.22c6.06,0,6.87-3.72,12.26-3.53,3.51.12,3.93,1.71,6.88,1.17a9.14,9.14,0,0,0,6.74-5.27,9.34,9.34,0,0,0-.3-7.44,10.21,10.21,0,0,0-4-4.49c3,3.49,4.11,7.79,2.65,11.13a6.9,6.9,0,0,1-3.28,3.57c-2.52,1.15-4.44-.36-7.61-.83-6.26-.93-7.41,3.69-14.4,3.61-1.77,0-4.8-1-10.91-2.91-6.93-2.14-7.39-2.34-8.71-2.22-4.18.39-5.6,3-8.44,2.06s-3.89-3.91-4.07-4.37C546.35,474.18,547.43,470.21,550.27,467.25Z" fill="#231f20"/><g opacity="0.2"><path d="M595.28,464c.1.56,1.79,10.53-5.38,16.79a17.15,17.15,0,0,1-10.66,4.07,19.26,19.26,0,0,0,11.65-6.45A19.58,19.58,0,0,0,595.28,464Z" fill="#603b19" opacity="0.6"/><path d="M562.44,462.78a15.94,15.94,0,0,0-.42,9.53c1.89,6.63,8.55,11.57,16.86,12.52a20.41,20.41,0,0,1-16.44-22.05Z" fill="#603b19" opacity="0.6"/></g><path d="M564.65,470.89c.3,2.6.53,4.63,2,6.43,1.79,2.2,4.72,3.21,5.14,2.69s-2.2-2.35-4.37-6.61c-2.07-4.08-2.21-7.47-2.64-7.41S564.4,468.72,564.65,470.89Z" fill="#fff" opacity="0.59"/></g></g></g></svg>