<svg xmlns="http://www.w3.org/2000/svg" xmlns:xlink="http://www.w3.org/1999/xlink" viewBox="0 0 1080 1920"><defs><clipPath id="clip-path"><path id="nose" d="M612.46,472.29a12.08,12.08,0,0,0-4.05-8.27,14,14,0,0,0-9.5-3.69c-.33-1.69-.77-3.44-1.19-3.42-.87,0,.44,7.65-2.47,13.26-3.6,6.94-14.51,12.5-23.86,9.09-10.32-3.75-16.27-17.5-10.46-29.83l-4.58,10.73a12.71,12.71,0,0,0-10,.95,12.53,12.53,0,0,0-5.14,6.08,13.17,13.17,0,0,0-1,6,12.58,12.58,0,0,0,2.4,6.41,8.34,8.34,0,0,0,3.93,1.27A37.85,37.85,0,0,0,551,480c1.22-.3,2.29-.49,3-.61l1-.16c3.11-.44,17,6.75,26.48,4.7,2.76-.6,4.41-1.82,9.39-2.5a38.26,38.26,0,0,1,5.52-.35,10.29,10.29,0,0,0,11.34.71C612.58,478.85,612.48,473,612.46,472.29Z" fill="#d39983"/></clipPath></defs><g style="isolation:isolate"><g id="nose-2" data-name="nose"><g id="nose2"><g id="nose-3" data-name="nose"><path d="M549.39,484.83c3.56,1.13,8.05-.21,11,2.08,7.54,5.79,9.2,11.17,24.22,9.33,4.47-.55,10.68-7.82,13.55-9.66,3.42-2.21,9.19-1.78,12.06-4.83a9.57,9.57,0,0,0,1.42-2,7.91,7.91,0,0,0-.45-1.58c-1.71,1.59-4.39,1.51-6.64.9s-4.46-1.64-6.79-1.61c-3.11.05-5.84,2-8.72,3.13a23.82,23.82,0,0,1-12.18,1.34,40.08,40.08,0,0,1-11.77-3.72c-3.74-1.76-7.74-4-11.76-3-2.19.52-4,1.94-6,3.08-.88.52-2.77.59-4.76,1.3l0,0A12.32,12.32,0,0,0,549.39,484.83Z" fill="#d39983" opacity="0.2"/><g opacity="0.29" style="mix-blend-mode:multiply"><path id="nose-4" data-name="nose" d="M612.46,472.29a12.08,12.08,0,0,0-4.05-8.27,14,14,0,0,0-9.5-3.69c-.33-1.69-.77-3.44-1.19-3.42-.87,0,.44,7.65-2.47,13.26-3.6,6.94-14.51,12.5-23.86,9.09-10.32-3.75-16.27-17.5-10.46-29.83l-4.58,10.73a12.71,12.71,0,0,0-10,.95,12.53,12.53,0,0,0-5.14,6.08,13.17,13.17,0,0,0-1,6,12.58,12.58,0,0,0,2.4,6.41,8.34,8.34,0,0,0,3.93,1.27A37.85,37.85,0,0,0,551,480c1.22-.3,2.29-.49,3-.61l1-.16c3.11-.44,17,6.75,26.48,4.7,2.76-.6,4.41-1.82,9.39-2.5a38.26,38.26,0,0,1,5.52-.35,10.29,10.29,0,0,0,11.34.71C612.58,478.85,612.48,473,612.46,472.29Z" fill="#d39983"/><g clip-path="url(#clip-path)"><path id="nose-5" data-name="nose" d="M612.28,471.06a12,12,0,0,0-3.34-6.86,13.57,13.57,0,0,0-10-3.87c-.28-.76-.71-2-1.19-3.42-9.47-28.74-1.59-46.3-10.82-53.15-4-2.93-10-3.56-13.65-1.36-5.35,3.24-6,13-7.22,29.44a82.66,82.66,0,0,1-1.94,12.31,34.31,34.31,0,0,1-2.38,7.33,29.14,29.14,0,0,1-5.46,7.88,13.24,13.24,0,0,0-16,13.82,12.77,12.77,0,0,0,2.4,6.41,8.34,8.34,0,0,0,3.93,1.27c3-.34,6.18-1.49,8.53-1.66,7.47-.51,15.64,5.05,23.16,6.13,6.53.94,13.08-.23,18.23-4.28a10.33,10.33,0,0,0,11.34.71C613.05,478.56,612.36,471.76,612.28,471.06Z" fill="#d39983"/><g id="effects"><path d="M598.67,473.65c-4.69-1.6-8.56,8.64-17.13,10.25-5.95,1.12-11.46-2.41-13.3-3.6a23.28,23.28,0,0,1-6.85-6.83c-2.73-2.23-4.71-2.45-6-2.26-2.86.42-3.57,3.06-7.34,3.79a6.1,6.1,0,0,1-4.57-.5c-2.4-1.54-2.44-4.87-2.43-5.27a11.05,11.05,0,0,0,.61,8.2,9,9,0,0,0,1.06,1.53,4.18,4.18,0,0,0,1.67,1.48,4.12,4.12,0,0,0,2.12.42c3-.34,6.18-1.49,8.53-1.66,7.47-.51,15.64,5.05,23.16,6.13,6.53.94,13.08-.23,18.23-4.28a10.85,10.85,0,0,0,11.22-.9,11.27,11.27,0,0,0,4.3-8.76c-.21.61-1.41,4.06-4.3,4.85-1.46.39-2.83,0-4.54-.55C600.54,474.9,599.74,474,598.67,473.65Z" fill="#d39983" opacity="0.15"/><path d="M602.89,480.44c-1.44-.34-4.66-2.1-6-1.59-.71.26-4.78,2.2-10.16,4-5.54,1.66-10.94,1.59-17.81-1.21-3.57-1.46-7.38-4-11.25-4.54-2-.3-4.71,1.08-6.64,2a12.69,12.69,0,0,1-7.61.95c4.57,3,11.18-.87,14.94-.23,4.33.73,8.3,3,12.42,4.48,5.24,1.84,13.34,2.55,18.67.56a22.74,22.74,0,0,0,2.44-.86c1.47-.62,3-1.73,4.54-2.09s3.49.69,5.15.77c1.85.09,8,1.11,9.39-4.45C607.79,481.76,604.69,480.86,602.89,480.44Z" fill="#d39983"/></g></g></g></g><path d="M545,462.23a13.41,13.41,0,0,0-3.74,5,11.51,11.51,0,0,0-.89,7.1c0,.14.06.25.08.32a9.7,9.7,0,0,0,4.66,6.16c3.32,1.73,5.47-1.38,11.19-1.59a8.69,8.69,0,0,1,1.26,0c3.17.29,5.53,1,10.2,2.86s4,1.73,5,2.08a28.42,28.42,0,0,0,8.33,1.44c7.16,0,8.13-4.4,14.51-4.18,4.15.14,4.64,2,8.13,1.39a10.84,10.84,0,0,0,8-6.24,11.06,11.06,0,0,0-.35-8.8,12.09,12.09,0,0,0-4.77-5.31c3.55,4.13,4.86,9.22,3.13,13.17a8.2,8.2,0,0,1-3.87,4.22c-3,1.36-5.26-.42-9-1-7.41-1.1-8.77,4.37-17,4.27-2.1,0-5.69-1.21-12.91-3.44-8.21-2.54-8.75-2.77-10.3-2.63-5,.46-6.63,3.52-10,2.43s-4.6-4.62-4.81-5.16C540.32,470.43,541.6,465.74,545,462.23Z" fill="#231f20"/><g opacity="0.2"><path d="M598.23,458.4c.12.67,2.11,12.46-6.37,19.87a20.35,20.35,0,0,1-12.61,4.82A22.92,22.92,0,0,0,593,475.45,23.21,23.21,0,0,0,598.23,458.4Z" fill="#603b19" opacity="0.6"/><path d="M559.37,456.94a19,19,0,0,0-.5,11.28c2.24,7.84,10.12,13.7,20,14.82a24.14,24.14,0,0,1-19.45-26.1Z" fill="#603b19" opacity="0.6"/></g><path d="M562,466.54c.36,3.08.63,5.48,2.37,7.61,2.11,2.6,5.59,3.8,6.08,3.18s-2.6-2.78-5.16-7.82c-2.45-4.83-2.62-8.83-3.13-8.76S561.69,464,562,466.54Z" fill="#fff" opacity="0.59"/></g></g></g></svg>