<svg xmlns="http://www.w3.org/2000/svg" xmlns:xlink="http://www.w3.org/1999/xlink" viewBox="0 0 1080 1920"><defs><clipPath id="clip-path"><path id="nose" d="M617.42,472a13.81,13.81,0,0,0-4.63-9.47,16.08,16.08,0,0,0-10.89-4.24c-.39-1.94-.89-3.95-1.37-3.93-1,.06.5,8.78-2.84,15.22-4.12,8-16.63,14.32-27.35,10.42-11.83-4.3-18.66-20.07-12-34.21l-5.25,12.3a13.68,13.68,0,0,0-17.34,8.07,15,15,0,0,0-1.18,6.86,14.42,14.42,0,0,0,2.76,7.36,9.61,9.61,0,0,0,4.5,1.45,41.27,41.27,0,0,0,5.18-1c1.39-.33,2.62-.55,3.46-.69,0,0,.57-.1,1.14-.18,3.56-.51,19.53,7.73,30.36,5.39,3.17-.69,5.06-2.1,10.77-2.87a43.73,43.73,0,0,1,6.34-.4,11.78,11.78,0,0,0,13,.81C617.57,479.54,617.45,472.82,617.42,472Z" fill="#d39983"/></clipPath></defs><g style="isolation:isolate"><g id="nose-2" data-name="nose"><g id="nose3"><g id="nose-3" data-name="nose"><path d="M545.1,486.4c4.09,1.29,9.24-.24,12.65,2.37,8.64,6.64,10.54,12.82,27.76,10.7,5.13-.63,12.25-9,15.54-11.07,3.93-2.53,10.54-2,13.84-5.54a10.69,10.69,0,0,0,1.62-2.29,8.38,8.38,0,0,0-.52-1.82c-2,1.83-5,1.73-7.61,1s-5.11-1.88-7.78-1.84c-3.57,0-6.7,2.22-10,3.58a27.33,27.33,0,0,1-14,1.54,46.3,46.3,0,0,1-13.5-4.27c-4.28-2-8.87-4.54-13.48-3.44-2.51.6-4.64,2.22-6.86,3.53-1,.6-3.18.68-5.46,1.5,0,0,0,0,0,0A14.16,14.16,0,0,0,545.1,486.4Z" fill="#d39983" opacity="0.2"/><g opacity="0.29" style="mix-blend-mode:multiply"><path id="nose-4" data-name="nose" d="M617.42,472a13.81,13.81,0,0,0-4.63-9.47,16.08,16.08,0,0,0-10.89-4.24c-.39-1.94-.89-3.95-1.37-3.93-1,.06.5,8.78-2.84,15.22-4.12,8-16.63,14.32-27.35,10.42-11.83-4.3-18.66-20.07-12-34.21l-5.25,12.3a13.68,13.68,0,0,0-17.34,8.07,15,15,0,0,0-1.18,6.86,14.42,14.42,0,0,0,2.76,7.36,9.61,9.61,0,0,0,4.5,1.45,41.27,41.27,0,0,0,5.18-1c1.39-.33,2.62-.55,3.46-.69,0,0,.57-.1,1.14-.18,3.56-.51,19.53,7.73,30.36,5.39,3.17-.69,5.06-2.1,10.77-2.87a43.73,43.73,0,0,1,6.34-.4,11.78,11.78,0,0,0,13,.81C617.57,479.54,617.45,472.82,617.42,472Z" fill="#d39983"/><g clip-path="url(#clip-path)"><path id="nose-5" data-name="nose" d="M617.22,470.6a13.66,13.66,0,0,0-3.83-7.86,15.5,15.5,0,0,0-11.49-4.44c-.33-.88-.82-2.24-1.37-3.93-10.86-32.94-1.82-53.09-12.41-60.94-4.55-3.36-11.5-4.08-15.65-1.56-6.13,3.71-6.93,14.91-8.28,33.76A95.24,95.24,0,0,1,562,439.75a40.07,40.07,0,0,1-2.73,8.41,33.8,33.8,0,0,1-6.27,9,15.65,15.65,0,0,0-9.76,1.11A15.48,15.48,0,0,0,534.57,473a14.76,14.76,0,0,0,2.76,7.36,9.61,9.61,0,0,0,4.5,1.45c3.45-.39,7.09-1.71,9.78-1.9,8.57-.59,17.94,5.78,26.56,7,7.48,1.08,15-.26,20.91-4.9a11.8,11.8,0,0,0,13,.81C618.11,479.21,617.32,471.4,617.22,470.6Z" fill="#d39983"/><g id="effects"><path d="M601.62,473.58c-5.38-1.84-9.82,9.9-19.65,11.75-6.82,1.29-13.14-2.77-15.25-4.13a26.85,26.85,0,0,1-7.85-7.84c-3.13-2.56-5.4-2.8-6.86-2.58-3.28.48-4.09,3.5-8.42,4.35a7,7,0,0,1-5.23-.59c-2.76-1.76-2.8-5.58-2.8-6-.45,1.59-1.35,5.64.71,9.41a11.22,11.22,0,0,0,1.21,1.75,4.8,4.8,0,0,0,1.92,1.7,4.72,4.72,0,0,0,2.43.48c3.45-.39,7.09-1.71,9.78-1.9,8.57-.59,17.94,5.78,26.56,7,7.48,1.08,15-.26,20.91-4.9a12.42,12.42,0,0,0,12.85-1,12.91,12.91,0,0,0,4.94-10c-.24.7-1.62,4.66-4.94,5.56-1.67.45-3.24,0-5.2-.63C603.76,475,602.84,474,601.62,473.58Z" fill="#d39983" opacity="0.15"/><path d="M606.46,481.35c-1.65-.38-5.34-2.4-6.92-1.81-.81.3-5.48,2.52-11.65,4.55-6.35,1.9-12.54,1.82-20.42-1.39-4.09-1.67-8.47-4.56-12.9-5.21-2.34-.34-5.4,1.24-7.62,2.31a14.52,14.52,0,0,1-8.72,1.09c5.24,3.46,12.81-1,17.14-.26,5,.83,9.51,3.48,14.23,5.14,6,2.1,15.29,2.92,21.41.63a23.27,23.27,0,0,0,2.8-1c1.69-.71,3.42-2,5.21-2.38s4,.79,5.9.88c2.13.1,9.12,1.27,10.77-5.1C612.07,482.87,608.52,481.84,606.46,481.35Z" fill="#d39983"/></g></g></g></g><path d="M540,460.48a15.33,15.33,0,0,0-4.29,5.69,13.22,13.22,0,0,0-1,8.14c0,.15.07.28.09.37a11.14,11.14,0,0,0,5.35,7.06c3.8,2,6.27-1.59,12.82-1.83a9.78,9.78,0,0,1,1.45,0c3.64.33,6.34,1.12,11.7,3.28s4.54,2,5.79,2.38a32.91,32.91,0,0,0,9.55,1.66c8.22-.05,9.32-5.06,16.64-4.8,4.76.17,5.32,2.32,9.33,1.59a12.43,12.43,0,0,0,9.15-7.15,12.71,12.71,0,0,0-.41-10.09,13.89,13.89,0,0,0-5.47-6.1c4.07,4.74,5.58,10.58,3.59,15.11a9.42,9.42,0,0,1-4.44,4.85c-3.43,1.55-6-.5-10.33-1.13-8.5-1.26-10,5-19.54,4.89-2.4,0-6.52-1.38-14.8-3.94-9.41-2.92-10-3.18-11.82-3-5.67.53-7.6,4-11.46,2.79s-5.28-5.3-5.52-5.92C534.71,469.89,536.18,464.51,540,460.48Z" fill="#231f20"/><g opacity="0.2"><path d="M601.11,456.09c.14.76,2.43,14.28-7.3,22.78a23.26,23.26,0,0,1-14.46,5.52,26.16,26.16,0,0,0,15.81-8.75A26.54,26.54,0,0,0,601.11,456.09Z" fill="#603b19" opacity="0.6"/><path d="M556.55,454.41a21.71,21.71,0,0,0-.57,12.93c2.56,9,11.61,15.71,22.88,17a27.68,27.68,0,0,1-22.31-29.93Z" fill="#603b19" opacity="0.6"/></g><path d="M559.55,465.42c.4,3.53.72,6.28,2.71,8.73,2.43,3,6.41,4.36,7,3.64s-3-3.19-5.93-9c-2.81-5.53-3-10.12-3.58-10S559.21,462.48,559.55,465.42Z" fill="#fff" opacity="0.59"/></g></g></g></svg>