<svg xmlns="http://www.w3.org/2000/svg" xmlns:xlink="http://www.w3.org/1999/xlink" viewBox="0 0 1080 1920"><defs><clipPath id="clip-path"><path id="nose" d="M625.88,470.12a16.19,16.19,0,0,0-5.44-11.1,18.82,18.82,0,0,0-12.75-5c-.45-2.28-1.05-4.63-1.61-4.6-1.16.06.59,10.28-3.32,17.82-4.83,9.31-19.47,16.77-32,12.2-13.86-5-21.85-23.51-14.05-40.07l-6.14,14.41a17.08,17.08,0,0,0-13.41,1.28,16.85,16.85,0,0,0-6.91,8.17,17.59,17.59,0,0,0-1.38,8,16.85,16.85,0,0,0,3.23,8.62,11.35,11.35,0,0,0,5.27,1.7,51.53,51.53,0,0,0,6.06-1.2c1.64-.4,3.08-.66,4.06-.82l1.33-.21c4.18-.59,22.88,9.06,35.57,6.31,3.71-.8,5.92-2.45,12.61-3.36a51.77,51.77,0,0,1,7.42-.46,13.85,13.85,0,0,0,15.23.95C626,478.94,625.91,471.06,625.88,470.12Z" fill="#d39983"/></clipPath></defs><g style="isolation:isolate"><g id="nose-2" data-name="nose"><g id="nose4"><g id="nose-3" data-name="nose"><path d="M541.17,487c4.78,1.52,10.81-.28,14.81,2.79,10.12,7.78,12.35,15,32.52,12.53,6-.74,14.35-10.49,18.2-13,4.6-3,12.34-2.4,16.2-6.49a12.29,12.29,0,0,0,1.91-2.69,10.94,10.94,0,0,0-.61-2.12c-2.29,2.14-5.89,2-8.92,1.21s-6-2.2-9.12-2.15c-4.18.05-7.84,2.61-11.71,4.2a32,32,0,0,1-16.36,1.8,54.57,54.57,0,0,1-15.81-5c-5-2.37-10.39-5.33-15.79-4-2.94.7-5.43,2.6-8,4.14-1.18.69-3.72.79-6.39,1.75,0,0,0,0,0,0A16.56,16.56,0,0,0,541.17,487Z" fill="#d39983" opacity="0.2"/><g opacity="0.29" style="mix-blend-mode:multiply"><path id="nose-4" data-name="nose" d="M625.88,470.12a16.19,16.19,0,0,0-5.44-11.1,18.82,18.82,0,0,0-12.75-5c-.45-2.28-1.05-4.63-1.61-4.6-1.16.06.59,10.28-3.32,17.82-4.83,9.31-19.47,16.77-32,12.2-13.86-5-21.85-23.51-14.05-40.07l-6.14,14.41a17.08,17.08,0,0,0-13.41,1.28,16.85,16.85,0,0,0-6.91,8.17,17.59,17.59,0,0,0-1.38,8,16.85,16.85,0,0,0,3.23,8.62,11.35,11.35,0,0,0,5.27,1.7,51.53,51.53,0,0,0,6.06-1.2c1.64-.4,3.08-.66,4.06-.82l1.33-.21c4.18-.59,22.88,9.06,35.57,6.31,3.71-.8,5.92-2.45,12.61-3.36a51.77,51.77,0,0,1,7.42-.46,13.85,13.85,0,0,0,15.23.95C626,478.94,625.91,471.06,625.88,470.12Z" fill="#d39983"/><g clip-path="url(#clip-path)"><path id="nose-5" data-name="nose" d="M625.64,468.47a16.14,16.14,0,0,0-4.49-9.22,18.17,18.17,0,0,0-13.46-5.19c-.38-1-1-2.63-1.61-4.6-12.71-38.59-2.13-62.19-14.53-71.38-5.32-3.95-13.47-4.79-18.33-1.84-7.18,4.36-8.12,17.47-9.7,39.55a111.35,111.35,0,0,1-2.6,16.54,47.37,47.37,0,0,1-3.19,9.85,39.31,39.31,0,0,1-7.35,10.57A18.31,18.31,0,0,0,539,454.06a18.12,18.12,0,0,0-10.12,17.25,17.19,17.19,0,0,0,3.23,8.62,11.35,11.35,0,0,0,5.27,1.7c4-.46,8.31-2,11.45-2.23,10-.69,21,6.78,31.12,8.23,8.76,1.26,17.57-.31,24.48-5.74a13.87,13.87,0,0,0,15.23.95C626.68,478.54,625.75,469.4,625.64,468.47Z" fill="#d39983"/><g id="effects"><path d="M607.36,472c-6.3-2.16-11.5,11.59-23,13.76-8,1.51-15.39-3.23-17.86-4.83a31.4,31.4,0,0,1-9.2-9.18c-3.66-3-6.32-3.28-8-3-3.84.56-4.79,4.1-9.87,5.09-1.3.26-3.88.76-6.13-.68C530,471,530,466.54,530,466c-.52,1.86-1.58,6.61.83,11a11.94,11.94,0,0,0,1.42,2.05,5.54,5.54,0,0,0,2.25,2,5.65,5.65,0,0,0,2.84.56c4-.46,8.31-2,11.45-2.23,10-.69,21,6.78,31.12,8.23,8.76,1.26,17.57-.31,24.48-5.74a14.56,14.56,0,0,0,15.06-1.22c5.71-4.22,5.79-11.05,5.78-11.77-.27.83-1.89,5.47-5.78,6.52-2,.53-3.8,0-6.09-.74C609.87,473.62,608.8,472.44,607.36,472Z" fill="#d39983" opacity="0.15"/><path d="M613,481.06c-1.93-.45-6.26-2.81-8.1-2.13-1,.35-6.43,2.95-13.65,5.33-7.44,2.23-14.69,2.14-23.92-1.63-4.79-1.95-9.91-5.34-15.1-6.09-2.75-.4-6.33,1.45-8.93,2.7a17,17,0,0,1-10.21,1.27c6.13,4.06,15-1.16,20.07-.31,5.8,1,11.14,4.09,16.66,6,7,2.46,17.92,3.42,25.08.74a26.57,26.57,0,0,0,3.28-1.16c2-.83,4-2.31,6.11-2.79s4.68.93,6.9,1c2.5.12,10.69,1.49,12.62-6C619.61,482.84,615.45,481.62,613,481.06Z" fill="#d39983"/></g></g></g></g><path d="M535.23,456.61a18.07,18.07,0,0,0-5,6.66,15.46,15.46,0,0,0-1.19,9.54c0,.18.08.33.11.43a13.06,13.06,0,0,0,6.26,8.27c4.45,2.33,7.34-1.86,15-2.14a11.7,11.7,0,0,1,1.69,0c4.26.39,7.43,1.31,13.71,3.85s5.32,2.32,6.77,2.78A38.43,38.43,0,0,0,583.77,488c9.63-.05,10.92-5.92,19.49-5.62,5.58.2,6.24,2.72,10.93,1.87a14.59,14.59,0,0,0,10.72-8.38,14.84,14.84,0,0,0-.48-11.82,16.26,16.26,0,0,0-6.41-7.14c4.77,5.55,6.54,12.39,4.21,17.7a11,11,0,0,1-5.2,5.67c-4,1.82-7.07-.57-12.1-1.32-10-1.48-11.78,5.87-22.89,5.73-2.81,0-7.64-1.62-17.34-4.62-11-3.41-11.75-3.72-13.84-3.53-6.64.61-8.9,4.72-13.42,3.27-4.36-1.41-6.19-6.21-6.46-6.94C529,467.63,530.72,461.32,535.23,456.61Z" fill="#231f20"/><g opacity="0.2"><path d="M606.76,451.47c.17.89,2.85,16.72-8.54,26.68a27.35,27.35,0,0,1-16.94,6.47,30.7,30.7,0,0,0,18.52-10.25A31.07,31.07,0,0,0,606.76,451.47Z" fill="#603b19" opacity="0.6"/><path d="M554.57,449.5a25.39,25.39,0,0,0-.66,15.15c3,10.53,13.59,18.4,26.79,19.9a32.44,32.44,0,0,1-26.13-35.05Z" fill="#603b19" opacity="0.6"/></g><path d="M558.08,462.39c.48,4.14.85,7.37,3.18,10.23,2.84,3.49,7.51,5.1,8.17,4.27s-3.5-3.74-6.93-10.51c-3.29-6.48-3.52-11.86-4.21-11.76S557.69,459,558.08,462.39Z" fill="#fff" opacity="0.59"/></g></g></g></svg>