<svg id="hair" xmlns="http://www.w3.org/2000/svg" viewBox="0 0 1080 1920"><g id="_1" data-name="1"><path d="M438.76,398.42a49.24,49.24,0,0,1,3.89-24.09,47.5,47.5,0,0,1,8-12.43l-6.46-1.59a37.13,37.13,0,0,0,7-9.78c5.54-11.34,2-19.33,4.65-32.52a57.86,57.86,0,0,1,10.33-23c2.77-3.72,12.89-16.87,31.26-20.62a50.69,50.69,0,0,1,31.52,4l-3.1-6.48c3.92,1,9.53,2.47,16.15,4.76,8.48,2.94,14.43,5.71,14.86,4.89.28-.54-2.06-2.39-6.07-5.55-2.46-1.93-4.57-3.45-6.08-4.49a192.55,192.55,0,0,1,21.45,7.66q5.58,2.39,10.59,4.9c5.13-2.53,10.82-5.06,17-7.41,4.68-1.76,9.18-3.24,13.44-4.49q-2.67,2.24-5.43,4.49l-2.45,2a107.44,107.44,0,0,0,30.1-7.94,31.87,31.87,0,0,1-3.49,4,30.57,30.57,0,0,1-3,2.51,50.94,50.94,0,0,1,43.14,0c12.4,5.92,18.82,15.43,22.22,20.63,8.78,13.38,10.67,27.31,12.27,39.13a131.1,131.1,0,0,1,1.17,14.28l7.36,10.31L704,359.12c1.57,2.87,3.09,6,4.52,9.26a117.57,117.57,0,0,1,9.15,35.77c.35-27.67.66-45.36.93-51.24,0-1.17.25-5.21.06-10.68-.07-2-.19-4.05-.38-6.31a136.68,136.68,0,0,0-2.78-17.65,143,143,0,0,0-12.14-34.9,132.18,132.18,0,0,0-28.42-37.29c-26.62-24.13-56.43-29.62-73.38-32.52-12.95-2.22-39.58-6.46-71.82,3.44-13.21,4.05-39.07,12.34-60.46,36.49-25.61,28.92-29.36,63.15-32,87.52A213,213,0,0,0,438.76,398.42Z" fill="#42210b"/><path d="M436.92,397.43l5.6,26.61c-1.06-20.64-1.73-38-2.18-51.24a280.08,280.08,0,0,1,0-28.55,184.1,184.1,0,0,1,4.26-32,139.37,139.37,0,0,1,5.82-19.64,129.15,129.15,0,0,1,13.33-25.89,121.07,121.07,0,0,1,26.82-28.1,123.77,123.77,0,0,1,24.85-14.48c23-10.07,43.12-10.55,56-10.73a164.39,164.39,0,0,1,50.38,7,146.72,146.72,0,0,1,39.46,18.89,127.93,127.93,0,0,1,24.42,22.1,130.77,130.77,0,0,1,15.52,23.73,135.6,135.6,0,0,1,10.6,27.63c.92,3.53,1.6,7,1.85,8.2a190,190,0,0,1,2.86,19c1.2,13.16-.67,16.35-.36,34.83.09,5.6.34,10.17.54,13.14l1.08,22.68c.5-6,1.15-14.17,1.89-23.85.71-9.34.9-12.28,1-13.77.73-11.72,1.09-17.58,1-24.66a142.85,142.85,0,0,0-2.07-24.3,138.91,138.91,0,0,0-6.84-24.75,167.35,167.35,0,0,0-8.41-19c-.86-1.66-2.32-4.48-4.27-7.73a122.83,122.83,0,0,0-15.27-20.37,129,129,0,0,0-25.43-20.84,141,141,0,0,0-33.79-15.18,157.09,157.09,0,0,0-30.43-5.8,170.52,170.52,0,0,0-31.65-.92,159.65,159.65,0,0,0-42.71,8.73A124.45,124.45,0,0,0,490.69,233a121.25,121.25,0,0,0-22.91,20.34,126.88,126.88,0,0,0-16.92,24.9,156,156,0,0,0-13.68,35.92,165.7,165.7,0,0,0-4.24,26.13,176.05,176.05,0,0,0,0,27.35A215.9,215.9,0,0,0,436.92,397.43Z"/></g></svg>