<svg xmlns="http://www.w3.org/2000/svg" viewBox="0 0 1080 1920"><g style="isolation:isolate"><g id="hair"><g id="_10" data-name="10"><path d="M440.78,406.1a71.69,71.69,0,0,0,8.55-24.58c1.88-12.58-1.23-16.15,1.16-29.09,2.05-11.11,4.81-11.29,8.12-24.75,3-12.3,1.84-16.66,3.49-27.11,1.4-8.91,4.71-21.34,13.34-35.83a52.55,52.55,0,0,0,10.44-2.38,53.44,53.44,0,0,0,15.28-8.11,104.64,104.64,0,0,0,12.77,3.16c10.93,2,15.3,1,25.53,2.18,11.9,1.4,10.15,3.27,22.62,5,6.61.89,15.73,2,27.08,0a73.78,73.78,0,0,0,17.6-5.54,26.85,26.85,0,0,0,7.74,1.78c9.82.74,17.25-4.31,19.92-6.33a44.5,44.5,0,0,1,17.21.39c5.89,1.35,9.21,3.48,15.28,3.37a27.2,27.2,0,0,0,10.44-2.38,20.5,20.5,0,0,0,6,12.87,18.36,18.36,0,0,0,6,3.76A134.64,134.64,0,0,1,701,333.23a149.18,149.18,0,0,1,17,54,292.74,292.74,0,0,0,9.47-104.71,14,14,0,0,0,3.48-1.78c13.94-9.81,5.08-42.7,4.45-44.93C732,223.68,727.3,219,725.12,217a29.82,29.82,0,0,0-9.86-5.74,36.83,36.83,0,0,0-5.8-16.82c-2.65-4-6.1-9.25-12-10.49-6.52-1.38-13.79,2.6-18.76,9.5-1.35-6.13-5.88-22.92-21.09-36A60.5,60.5,0,0,0,630.74,144c-19.75-4-35.43,4-40.23,6.73a39,39,0,0,0-46.61,0,42.54,42.54,0,0,0-25.52-3.56c-5.51,1-17.44,3.2-22.44,13.46-2.95,6.06-2.17,12.21-1.55,15.24a89.75,89.75,0,0,1-42.74,4.75,35.5,35.5,0,0,0,10.06,13.07c-4.39.79-20.71,4.29-32.11,19.2-4.32,5.65-6.29,11.81-10.25,24.15-1.06,3.32-2.27,7.61-.58,12.07a13.67,13.67,0,0,0,2.9,4.55,61.37,61.37,0,0,0-8.7,39.2,59.43,59.43,0,0,0,10.25,26.52,100.75,100.75,0,0,1,2.9-18.21,99.64,99.64,0,0,1,5.42-15.64c-.26,20,.34,42,2.32,65.52C435.52,370.74,437.93,389.14,440.78,406.1Z" fill="#42210b"/><path d="M460,262.51a35.42,35.42,0,0,1,12.33,1.79l-5.62,10.37A28.34,28.34,0,0,0,439,270.11,37.4,37.4,0,0,1,460,262.51Zm-44.76,32.72a140.25,140.25,0,0,1,17-37.48c5.7-8.74,10.15-13.16,15.5-13.19,3.69,0,6.71,2.06,8.62,3.77a17.16,17.16,0,0,0-8.52-6.84c-7.95-2.71-15.24,2.45-17.25,3.87-7.93,5.6-10.31,14.38-12.79,23.5A79.34,79.34,0,0,0,415.28,295.23Zm16-50.37a50.52,50.52,0,0,1,2.2-11.3c2-6.41,5.27-16.64,12.11-17.95,5.48-1.05,11,4.06,13.56,7.44,2.22,3,3.54,7.73,6.17,17.25,1.6,5.77,2.36,9.48,5.43,10.91,1.38.64,3.82,1.1,5-.14,1-1,.79-2.67.71-3.43-.34-3.16-2.59-4.89-2.2-5.36s2.3,1.14,5.68,2.32c2.5.86,4.41,1.53,5.69.72,2.08-1.31,1.46-5.85,1.1-8.52-.39-2.87-1.33-7-5.17-14.42a99.81,99.81,0,0,0-6.27-10.44c10.06,4.64,13.91,10.11,15.57,14.28,1.12,2.83,2.43,8.08,5.3,14.67a23.34,23.34,0,0,0,4.91,7.08,8,8,0,0,0,2.77,2.05c1.33.47,2.82.39,3.95,1.36.05,0,.14.12.19.09.28-.18-2.53-4.17-3.62-8.53a18.86,18.86,0,0,1-.26-7.6,24.57,24.57,0,0,0,6.2,6.81,24,24,0,0,0,9.69,4.3,32.24,32.24,0,0,1-7-9.92,32.81,32.81,0,0,1-2.91-11.77A45.44,45.44,0,0,0,524,240.7a38,38,0,0,0,19.32,7.43,35.58,35.58,0,0,0,13.17-1.49c-.79-1-1.62-2.1-2.52-3.17-1.76-2.12-3.52-4-5.23-5.75a28.06,28.06,0,0,1,9.79,2.88,28.94,28.94,0,0,1,11.24,10.31,28.45,28.45,0,0,1,2.32,4.56,13.55,13.55,0,0,0,6.11-7.44,14,14,0,0,0-.49-9.91,37.71,37.71,0,0,1,7.17,4.76,39.38,39.38,0,0,1,5.33,5.45,35.48,35.48,0,0,0-2.62-12.69,34.86,34.86,0,0,0-8.33-12.2,54.72,54.72,0,0,1,19.28,12.2A55.91,55.91,0,0,1,608.66,249a82,82,0,0,0-13-48.68,58.88,58.88,0,0,1,24.41,25.08,57.83,57.83,0,0,1,5.52,18.05,39,39,0,0,0,14.15-10.81A40.39,40.39,0,0,0,647.7,217a53.77,53.77,0,0,1,2.81,23.3,41.84,41.84,0,0,0,3.68-41.45c3.21,3.62,13,15.59,13.37,33.22A50.29,50.29,0,0,1,663.88,252a16.72,16.72,0,0,0,11.92-2.88c6.27-4.48,7-11.71,7.05-12.73a18.54,18.54,0,0,1,7.39-7.3,17.94,17.94,0,0,1,8.42-2.08,90.69,90.69,0,0,0-10.07,19.24c-3,7.89-3.08,11.6-2.62,14.57a22.17,22.17,0,0,0,4,9.52,34.42,34.42,0,0,1,7.17-15.76c2.5-3,6-7.29,12.06-8.55a17.94,17.94,0,0,1,9.74.81,16.68,16.68,0,0,0-9.78,4.86,16.39,16.39,0,0,0-3.2,4.86,12.15,12.15,0,0,1,6.39-2.18,11.93,11.93,0,0,1,5.24,1,29,29,0,0,0-13.47,8.93,28.67,28.67,0,0,0-4.46,7.33,47,47,0,0,1,23.06-1.88,45.69,45.69,0,0,1,11.82,3.77,46.1,46.1,0,0,0,1.84-17.85c-.51-5.16-1.85-9.24-4.45-17.16-1.57-4.74-3.06-8.64-4.17-11.4a77.48,77.48,0,0,1-23.35,8.13,21.67,21.67,0,0,0,7.27-6.25A23.18,23.18,0,0,0,716,215.11l-1.65-1.78a43.37,43.37,0,0,0-4.46-12.1c-3.1-5.63-6.51-11.82-12.69-13-7.1-1.34-13.22,4.8-14.24,5.85a13.79,13.79,0,0,1,9,1.49,6.1,6.1,0,0,1,2.71,2.28c2.18,4-3.27,10.86-5.52,13.68a39,39,0,0,1-8.62,7.94,126.52,126.52,0,0,0-4-21c-2.2-7.9-4.47-16.06-10.07-24.69-2.28-3.51-8.68-13.15-20.06-19.63-19.4-11.06-39.9-5.31-44.85-3.77A94.83,94.83,0,0,1,619.32,171a96.38,96.38,0,0,1,10.85,23.7A207.48,207.48,0,0,0,609.53,170c-7.3-7.49-11.47-11.7-17.83-15.37-5.41-3.13-16.55-8.28-33.71-7.24a51.84,51.84,0,0,1,10.85,9.81,53.32,53.32,0,0,1,5.62,8.23,116.93,116.93,0,0,0-15-7.14,109.56,109.56,0,0,0-21.7-6c-11.21-1.85-17.3-2.85-24.51-.3a34,34,0,0,0-15.41,11.6,56.16,56.16,0,0,1,30-4.66,58.9,58.9,0,0,1,14.82,4.16c2.05.85,9.72,4.1,20.25,12.7A124.27,124.27,0,0,1,586,200.64a63.06,63.06,0,0,0-17.83-12.3,61.91,61.91,0,0,0-9.3-3.37,46,46,0,0,1,7.85,11.1,47.29,47.29,0,0,1,3.68,10,145.39,145.39,0,0,0-26.26-21.92,143.45,143.45,0,0,0-21.7-11.6l-13.66,6.94A81.22,81.22,0,0,0,514,194a79.15,79.15,0,0,0,6.59,11.4c-6.23-5.79-12.55-12-18.89-18.74q-3.43-3.63-6.69-7.23a62,62,0,0,0-24.8,5.05,125.92,125.92,0,0,1,19.57,29.06L478,203.38a32.12,32.12,0,0,0-5.77-4.13c-2.24-1.26-6.38-3.6-11.14-3.67-1.17,0-5,.06-11.92,4.56-8.14,5.32-12.77,11.73-17.24,18.05-5.33,7.52-7.94,11.41-9.5,17.65a40.3,40.3,0,0,0,.49,20.62Q427.12,250.66,431.29,244.86Z" fill="#fff" opacity="0.5" style="mix-blend-mode:overlay"/><path d="M509.54,165.53a7.73,7.73,0,0,1,6.3,0l-10.66,6.75A8,8,0,0,1,509.54,165.53Zm-6.16,39.6c-.79.54,2.62,8.65,9,16.33s13.34,12.08,14,11.37c.47-.5-2.42-3.14-3.23-8.33-.31-2-.68-4.35.52-5.42,2.22-2,8.5,1.85,11.11,3.44,7.51,4.58,10.58,9.33,12.27,8.39s-1.24-5.46,1.1-8.86c.65-1,2.21-2.54,15.56-3.83,2.81-.27,5.14-.43,6.72-.53l-9-8.59a5,5,0,0,1,.13,4c-1.21,2.23-4.93,2.09-13.83,2.05-12.33-.06-11.07.18-12.4,0-10.19-1.39-15.85-6.15-18-3.84-1.48,1.59.32,4.75-.77,5.43C514.13,218.21,504.48,204.37,503.38,205.13ZM570.87,208c-.23.38,2.25,1.7,4.46,4.83,1.73,2.46,2.32,4.63,3,4.49s.09-2.62,1.49-4c1.09-1.05,2.9-.9,4.71-.53,6.94,1.4,10.88,5.29,11.43,4.69s-3.7-6.4-9.49-11.7c-3.16-2.89-7.25-6.11-7.88-5.49-.79.78,4.14,7.26,3.49,7.81-.42.34-2.64-2.11-3.36-1.59s.69,2.49,0,3.3C577.46,211.27,571.24,207.36,570.87,208Zm19.28-18.54c-.67,1.51,9.55,5.49,20.15,15.67,10.92,10.47,15.43,21,16.77,20.23,1-.55-.64-6.69-3.4-11.7-2.18-4-4.85-6.84-4.45-7.24.54-.56,5.74,4.7,7.07,3.67,1.11-.87-1.38-5.36-.48-5.95,1.08-.72,5.5,5.3,6.29,4.76s-1.74-5.4-4.07-9.23c-.18-.31-4.42-7.25-5.42-6.74s2.27,5.89.68,7.44c-2,1.93-8.95-4.6-22-8.93C600.6,191.18,590.8,188,590.15,189.43Zm48.64,12.89c1.53-.86,4,.84,5,1.59,4.23,3,5.23,6.53,6.2,6.24s.94-4.55.19-8.42c-1.51-7.83-5.73-13.76-6.3-13.49-.23.11.24,1.24,1.07,5.95.73,4.1.69,5,.19,5.35-.84.57-2.65-.82-3.39-1.38-2.86-2.19-3.33-4.62-4.26-4.47-1.18.2-1.41,4.27-1.45,5.16-.19,3.36.48,6.54,1.06,6.54S637.43,203.09,638.79,202.32Z" fill="#fff" opacity="0.6" style="mix-blend-mode:overlay"/><path d="M735.19,236.33c-3.4-12.17-8.1-16.91-10.27-18.84a29.58,29.58,0,0,0-9.88-5.75,36.79,36.79,0,0,0-5.82-16.86c-2.64-4-6.11-9.26-12-10.51-6.53-1.37-13.81,2.6-18.8,9.52-1.34-6.15-5.88-23-21.12-36.09a60.52,60.52,0,0,0-26.93-13.49c-19.8-4-35.49,4.05-40.3,6.75a39,39,0,0,0-46.7,0,42.57,42.57,0,0,0-25.58-3.57c-5.51,1-17.47,3.2-22.48,13.48-3,6.07-2.17,12.23-1.55,15.27A90,90,0,0,1,450.93,181a35.94,35.94,0,0,0,5.23,8.33,35,35,0,0,0,4.84,4.76c-4.4.79-20.74,4.3-32.16,19.24-4.33,5.66-6.31,11.83-10.27,24.19-1.07,3.33-2.28,7.63-.58,12.1a13.62,13.62,0,0,0,2.9,4.56c-2.78,4.53-11.19,19.47-8.72,39.27A59.67,59.67,0,0,0,422.44,320a101.9,101.9,0,0,1,2.91-18.24,99.66,99.66,0,0,1,5.43-15.67c-.26,20.07.34,42.07,2.32,65.64,1.66,19.75,4.08,38.18,6.93,55.17a71.57,71.57,0,0,0,8.57-24.63c1.89-12.6-1.22-16.18,1.17-29.15,2.05-11.13,4.81-11.31,8.13-24.79,3-12.33,1.85-16.69,3.49-27.17,1.4-8.92,4.73-21.38,13.37-35.89a53.15,53.15,0,0,0,25.77-10.51A104.8,104.8,0,0,0,513.32,258c10.95,2,15.34,1,25.58,2.18,11.93,1.4,10.17,3.27,22.67,5,6.62.89,15.76,2.05,27.13,0a73.43,73.43,0,0,0,17.63-5.55,27,27,0,0,0,7.75,1.78c9.84.74,17.29-4.32,20-6.35a44.87,44.87,0,0,1,17.25.4c5.9,1.35,9.22,3.48,15.3,3.37a27.14,27.14,0,0,0,10.47-2.38,20.43,20.43,0,0,0,6,12.89,18.37,18.37,0,0,0,6,3.77A134.84,134.84,0,0,1,700.7,333.9a148.9,148.9,0,0,1,17,54.15,293.64,293.64,0,0,0,9.5-104.91,14.48,14.48,0,0,0,3.48-1.79C744.7,271.52,735.81,238.57,735.19,236.33Zm-2.71,38.87a17,17,0,0,1-5.43,5c-.52-2.05-1-4.1-1.55-6.15-.68,14.46-1.41,26.13-1.94,33.92-.9,13.35-1.51,20.08-2.52,35.3-.74,11.3-1.24,20.46-1.55,26.17a79,79,0,0,0-13.37-34.7,124.52,124.52,0,0,0-11.43-61.28c-.26-1.09-2.59-11.61,4.46-20a21.94,21.94,0,0,1,14.14-7.54c-1.4-.08-11.39-.44-18.4,7.54a23.56,23.56,0,0,0-5.62,13.48,16.86,16.86,0,0,1-5.43-6.34,17.28,17.28,0,0,1-1.74-7.14,44.93,44.93,0,0,0,2.71-10.12,46.93,46.93,0,0,0-3.1-24.19c1.26,4.32,3.37,14-.78,23.8-1.26,3-3.57,8.45-8.72,10.51-3.38,1.35-6.26.56-10.27-.2a115.46,115.46,0,0,0-21.12-2,31.94,31.94,0,0,0,9.89-12.89A58.62,58.62,0,0,1,639.08,248a55.24,55.24,0,0,1-19.38,7.74,51.11,51.11,0,0,1-10.27.79,38.38,38.38,0,0,0,0-33.91,46.86,46.86,0,0,1-.38,21.42,46.15,46.15,0,0,1-4.85,11.7,83.31,83.31,0,0,1-33.13,5.75c-13.71-.53-20.61-4.49-39.92-7.14a191.92,191.92,0,0,0-26.35-1.79,110.49,110.49,0,0,1-16.47-30.54A73.3,73.3,0,0,0,493,242.28a71.09,71.09,0,0,0,4.84,10.12c-3.08,1-8,2.67-14.14,5s-8.08,3.2-10.47,2.58c-5.55-1.42-8.18-9.55-9.3-14.28-.3.72-2.74,6.86.58,12.5a12.87,12.87,0,0,0,5.43,5,146.32,146.32,0,0,0-10.66,30.54c-2.45,10.86-1.57,12.93-4.46,26.17-3.86,17.73-5.92,16.11-8.13,29.75-1,6.09-.71,7.2-3.3,29.75-.48,4.21-.89,7.67-1.16,9.92q-2.79-27.36-4.85-56.33-2.26-32.46-3.29-63.06a140.72,140.72,0,0,0-7.17,16.26,143.82,143.82,0,0,0-6.2,22.21,92.78,92.78,0,0,1-1.36-28.95c1.05-9.33,2.16-19.23,9.31-28.36a39.5,39.5,0,0,1,10.46-9.32,16.87,16.87,0,0,0-11.24,3,17.14,17.14,0,0,0-5,5.75A64.79,64.79,0,0,1,430,224.83c2.47-4.69,7.15-13.36,16.86-19.83,4.57-3.05,9.88-6.59,17.25-6.15,8.56.51,14.3,6.06,16.08,7.93a24.9,24.9,0,0,0-8.14-9.12c-2.47-1.6-4.58-2.24-7.56-4.76a27.38,27.38,0,0,1-4.84-5.35,56.48,56.48,0,0,0,13.17-1.19c6.3-1.35,8.79-3.06,14.54-4a40,40,0,0,1,12.4,0,40.5,40.5,0,0,1,9.69-9.12c3.05-2.05,6.4-4.28,10.65-4.76,5.67-.64,9.48,2.2,15.7,5.55A114.72,114.72,0,0,0,557.5,183a197.33,197.33,0,0,0-16.66-11.51c-12.13-7.49-18.41-9.53-24.22-10.31-4.34-.58-9.36-1.19-12,1.79-2.06,2.31-1.42,5.36-4.45,9.91a21.28,21.28,0,0,1-3.69,4.17c-.36-3-.68-9.23,2.91-14.68,4.37-6.62,12-8.16,17-9.12,23-4.31,51.43,9.95,58.91,13.88A60,60,0,0,0,561.18,157a58.74,58.74,0,0,0-13.37-5,48.32,48.32,0,0,1,23.06-2.38c11.23,1.65,19.3,7.15,27.71,12.89a109.69,109.69,0,0,1,13.76,11.1,51.56,51.56,0,0,0-8.53-11.89,50.18,50.18,0,0,0-8.52-7.14,57.17,57.17,0,0,1,62.39,12.29c8.53,8.45,12.49,17.78,16.47,27.17a122.22,122.22,0,0,1,5.43,15.67l.39-10.91a17.57,17.57,0,0,1,11.43-6.74,14.1,14.1,0,0,1,8.14,1.19c1.42.7,4.17,2.41,8.91,12.29,3.45,7.22,5.19,10.83,5,13.89-.43,8.88-9.3,14.65-11.24,15.86a22.14,22.14,0,0,0,12.21-7.73,21.88,21.88,0,0,0,3.68-7.14,79.87,79.87,0,0,1,13.56,22.8,51.78,51.78,0,0,1,3.88,19.24C735.54,270.1,733.65,273.52,732.48,275.2Z"/></g></g></g></svg>