<svg xmlns="http://www.w3.org/2000/svg" viewBox="0 0 1080 1920"><g style="isolation:isolate"><g id="hair"><g id="_11" data-name="11"><path d="M444.08,421a336.77,336.77,0,0,1,.39-48.3c1.84-23.21,3.36-40.46,12.37-60.17,6.07-13.27,15.12-33.07,33.59-39.07,5.62-1.82,14-.89,30.62,1.06,30,3.52,30.61,6.31,47,7.13a160.92,160.92,0,0,0,48-4.16c7.52-1.87,18.39-5.22,34-5.74,10.93-.36,15.1.95,17.6,2,10.87,4.47,16.53,14.28,20.5,21.18,2.55,4.42,5.42,10.44,8.51,22,4.48,16.69,5,28.29,6,37.21,1.36,11.86,4.8,28.85,14.31,49.49a652.73,652.73,0,0,0,7.54-85.12c.34-14.61.17-28.62-.38-42a11,11,0,0,0,5.8-9.7,11.5,11.5,0,0,0-5-9.1,17.82,17.82,0,0,0,3.29-11.29,12.9,12.9,0,0,0-1.74-5.93,12.62,12.62,0,0,0-7-5.35,15.69,15.69,0,0,0-2.7-15.24,15.32,15.32,0,0,0-11.8-5.15,17.57,17.57,0,0,0-3.87-11.28c-5.77-6.93-14.79-5.83-15.47-5.74a12.55,12.55,0,0,0-5.8-12.27c-5.16-3.05-10.51-.64-11-.4a18.45,18.45,0,0,0-9.67-11.28,17.78,17.78,0,0,0-15.08.4c-.12-.48-2-7.32-8.51-9.5a13,13,0,0,0-10.06,1,14.59,14.59,0,0,0-9.67-11.08c-6-1.85-12.89.93-16.44,6.93-2.66-6.1-6.37-9.92-8.9-9.31-1.59.39-3,2.6-4.64,5.15a29.34,29.34,0,0,0-1.93,3.56,8.84,8.84,0,0,0-16.83.4c-.35-.78-3.37-7.17-9.86-8.51s-13.69,2.88-16.63,10.49a13.43,13.43,0,0,0-14.31-5.94A13.71,13.71,0,0,0,516,168.41a6.48,6.48,0,0,0-7.35-3.37,6.61,6.61,0,0,0-4.65,5.54,11.83,11.83,0,0,0-8.12-1.78c-5.72,1.06-10.47,7.39-10.83,15.64a6.21,6.21,0,0,0-4.64.4,6.71,6.71,0,0,0-3.29,4.55c-1.34-1.52-5.2-5.48-9.86-5.15-6.55.46-13.28,9.26-12.77,21.77a13.66,13.66,0,0,0-16,3.77c-4.29,5.44-2.3,12.31-2.13,12.86a16.66,16.66,0,0,0-8.51,11.68A16.86,16.86,0,0,0,431.9,248c-5.59,2.06-8.72,7.58-7.74,12.47,1,5.14,6.13,7.34,6.57,7.52a356.59,356.59,0,0,0-1,58.39c1.27,18.88,2.8,17.87,3.87,38,.79,14.91.5,25.95,4.83,41.17A115.52,115.52,0,0,0,444.08,421Z" fill="#42210b"/><path d="M724.06,261.85a7.3,7.3,0,0,0-4.44-1.59,21.63,21.63,0,0,0,4.3-11.5c.16-2.78.42-7.22-2.58-9.92a8.44,8.44,0,0,0-5.17-2,14.82,14.82,0,0,0-2.2-14.54,14,14,0,0,0-13.3-5.16,46,46,0,0,0-7,.53,47.35,47.35,0,0,0-11.25,3.17,23.57,23.57,0,0,0-8.26-7.4c-3.88-2-7-2.1-7-2.91,0-1,4.93-2.38,9.56-1.19a15.11,15.11,0,0,1,7.36,4.63,15.41,15.41,0,0,1,16.92-4.37A16.67,16.67,0,0,0,681.68,202a10.61,10.61,0,0,0-4-12.7,9.92,9.92,0,0,0-11,.67,18.48,18.48,0,0,0-7.75-12.57,17.27,17.27,0,0,0-12.27-2.51l1.68,13.75a24.86,24.86,0,0,1,7.37,6.08,24,24,0,0,1,2.83,4.37A34.29,34.29,0,0,0,645,196a33.57,33.57,0,0,0-7.1.66,28.71,28.71,0,0,0-7.75-9.12,27.86,27.86,0,0,0-11.89-5.29,21.51,21.51,0,0,1,12.14-1.85A21.77,21.77,0,0,1,642,186c.75-7.28-1.31-13.84-5.71-16.67a11.53,11.53,0,0,0-5.29-1.72,11.26,11.26,0,0,0-8,3.31c-.13-5.77-3.43-10.79-8.14-12.56-6.1-2.29-13.77,1.15-16.67,8.46a38.55,38.55,0,0,0-2.58-4.63c-2.07-3.16-3.17-4.83-4.53-5-2.29-.33-5.19,3.55-7.23,9.25a8.91,8.91,0,0,0-17.44-.4c-.21-.76-1.63-5.57-6.2-7.66s-10.11-.67-13.83,3.57a15.28,15.28,0,0,1,7.89,8.19,14.23,14.23,0,0,1,10.34,3,15.18,15.18,0,0,1,5.29,11,10.24,10.24,0,0,1,6.07.34,10.75,10.75,0,0,1,5.56,5,11.28,11.28,0,0,1,8.14-2.12c4.74.77,8.69,5.05,9.68,10.71a13.16,13.16,0,0,0-18.21.4,15.14,15.14,0,0,0-6.07-5.69,15.35,15.35,0,0,0-11.59-.68c.47-.26,4.16-2.38,4.48-6.46.35-4.59-3.93-7.3-4.52-7.66-3.62-2.22-8.63-1.64-12.66,1.45a24.32,24.32,0,0,0-5.81-7.27,24,24,0,0,0-6.59-4c-.33-.87-2.37-6.08-7-7.4-5.41-1.55-12.67,2.73-15.26,11.16a6.18,6.18,0,0,0-7.61-4,6.37,6.37,0,0,0-4.18,7c-.53-.41-5.21-3.83-10.16-2.14-5.14,1.76-8.6,8.35-7,15.47a9.82,9.82,0,0,0-5.17-.13c-6.19,1.57-8.17,9-8.26,9.38a19.71,19.71,0,0,0-8.14,7.94A20.51,20.51,0,0,0,463.36,218a25.17,25.17,0,0,0-12.14-.66A25.52,25.52,0,0,0,439,223.51a24,24,0,0,0-8.79,12,24.63,24.63,0,0,0-.13,14.54,12.89,12.89,0,0,0,4.27,9.39,11.92,11.92,0,0,0,12.14,1.85,11.64,11.64,0,0,0,3.11,17.19,12.28,12.28,0,0,1,3.74-7.27,11.58,11.58,0,0,1,5.29-2.78,26,26,0,0,1-6.45-15.6,10.49,10.49,0,0,0,9.82,7.4,10.33,10.33,0,0,0,8.91-5.55,11.3,11.3,0,0,0,8.26,3.57c6.11-.16,9.28-5.66,9.43-5.95a14.66,14.66,0,0,0,4.13,2.78,14.44,14.44,0,0,0,4.79,1.19,36.21,36.21,0,0,1-2.59-24.86c.12,1.19.93,8.44,7.11,13a16.86,16.86,0,0,0,9.3,3.17,13.23,13.23,0,0,0,5.81,9c5.69,3.5,11.63.6,12,.4a24.84,24.84,0,0,0,9.68,3.83,24.55,24.55,0,0,0,11.25-.79,15.9,15.9,0,0,1-5.43-4.89,16.26,16.26,0,0,1-2.71-7,19.43,19.43,0,0,0,12.53,3.57c9.78-.76,14.95-9.14,15.5-10a14,14,0,0,0,9.95,2.38c6.79-1.05,10-7,10.33-7.67-.16.6-2.45,8.49-10,10.84a14.54,14.54,0,0,1-10.07-.66,16.77,16.77,0,0,1-3.1,10.05,15.67,15.67,0,0,1-4.92,4.36A17.51,17.51,0,0,0,583.63,256c-.5,5,2.82,8.85,6.2,9,2.3.1,4.61-1.52,5.95-4a27.06,27.06,0,0,0,17.17-.39,13.2,13.2,0,0,1-3.74-6.22,13.65,13.65,0,0,1,.9-9.25,14.8,14.8,0,0,0,28.55.92,13.56,13.56,0,0,0,12.53,6.75A13.88,13.88,0,0,0,661,247a17.88,17.88,0,0,0,10.33,6.48c8.3,1.66,14.48-3.68,15.24-4.36a21.65,21.65,0,0,1-4.9,12.29,15.47,15.47,0,0,0,12.53.27c-2.88,5.7-2.7,8-1.81,9,1,1.13,2.67.1,4.65,1.45,2.26,1.54,1.35,3.69,3.62,5.95,2.79,2.78,6.91,2.27,7.11,2.25a8.75,8.75,0,0,0,4.38-2,13.69,13.69,0,0,1,.79,5.69,13.46,13.46,0,0,1-2,5.95,19.35,19.35,0,0,0,6.33-5.69,20,20,0,0,0,3.49-8.59,8.33,8.33,0,0,0,5.69-6.21A8,8,0,0,0,724.06,261.85ZM480,215.08a15.48,15.48,0,0,0-6.58,6.94c-.89-5.19,2-10.17,6.49-11.7a9.91,9.91,0,0,1,10.85,3.47A15.17,15.17,0,0,0,480,215.08Z" fill="#fff" opacity="0.5" style="mix-blend-mode:overlay"/><path d="M504.57,200.9c3.94-2.08,8.22-.5,9.21-.1a11.23,11.23,0,0,1,7.85-10.31,10.88,10.88,0,0,1,12.11,4.26,12.49,12.49,0,0,1,8.43-1.09c6.16,1.45,8.65,7.31,8.91,7.93a14.71,14.71,0,0,0-12.21-2.28c-6.91,1.93-9.44,8.36-9.69,9a9.59,9.59,0,0,1-.29-5.16,9.37,9.37,0,0,1,3.1-5.06,12.52,12.52,0,0,0-11,.7,13,13,0,0,0-5.91,8.82c-.51-.38-4.24-3.07-8.52-1.78s-7.36,6-7,11.5C497.33,210.35,499.8,203.42,504.57,200.9Zm53.29,15.67a39.38,39.38,0,0,1,12.4,1.58,40.43,40.43,0,0,1,14,7.34A16.33,16.33,0,0,0,573,213C564.7,210.55,558.27,216.19,557.86,216.57Zm39.43-29a26.57,26.57,0,0,1,13.62,2,27.31,27.31,0,0,1,11.48,9.57,15.28,15.28,0,0,0-2.72-8.08,14,14,0,0,0-2.71-2.87,16.89,16.89,0,0,1,12.6,3.27,17.42,17.42,0,0,1,6.1,9.62A30.42,30.42,0,0,1,661,203.28a20.61,20.61,0,0,0-11.24-9.52,19.7,19.7,0,0,0-11.62-.2,21.11,21.11,0,0,0-10.08-10,20.67,20.67,0,0,0-16.37-.1,14.48,14.48,0,0,0-8.62.29A14.89,14.89,0,0,0,597.29,187.56Zm23.29,48.37a10.76,10.76,0,0,1,2.45-9.25,9.7,9.7,0,0,1,9.82-2.64c1.23-5.21,5.35-9,10.08-9.39,5.28-.47,8.86,3.47,9.3,4a11.58,11.58,0,0,1,9-1.85,11.74,11.74,0,0,1,7.23,5.29c.24-5-2.89-9.15-6.84-9.91-4.25-.82-7.52,2.65-7.75,2.91a12.3,12.3,0,0,0-14.34-6.88,12.64,12.64,0,0,0-9.05,12.69,9.19,9.19,0,0,0-10.07,1.32C617.08,225.39,616.79,231.62,620.58,235.93Z" fill="#fff" opacity="0.6" style="mix-blend-mode:overlay"/><path d="M729.73,267.33a11.51,11.51,0,0,0-5-9.12,17.79,17.79,0,0,0,3.29-11.3,12.94,12.94,0,0,0-1.74-5.95,12.67,12.67,0,0,0-7-5.36,15.72,15.72,0,0,0-2.71-15.27,15.31,15.31,0,0,0-11.82-5.15,17.59,17.59,0,0,0-3.88-11.31c-5.78-7-14.81-5.85-15.5-5.75a12.56,12.56,0,0,0-5.81-12.29c-5.17-3.06-10.52-.64-11-.4a18.46,18.46,0,0,0-9.69-11.3,17.87,17.87,0,0,0-15.11.39c-.12-.47-2-7.34-8.53-9.52a13,13,0,0,0-10.07,1,14.57,14.57,0,0,0-9.69-11.1c-6-1.86-12.92.94-16.47,6.94-2.67-6.11-6.38-9.93-8.91-9.32-1.6.38-3,2.6-4.65,5.16a26.43,26.43,0,0,0-1.94,3.57,8.85,8.85,0,0,0-16.86.39c-.36-.78-3.38-7.18-9.88-8.53S543,156,540,163.61a13.45,13.45,0,0,0-14.34-5.94,13.75,13.75,0,0,0-10.27,11.1,6.47,6.47,0,0,0-7.36-3.37,6.61,6.61,0,0,0-4.65,5.55,11.9,11.9,0,0,0-8.14-1.78c-5.73,1.06-10.48,7.4-10.85,15.66a6.24,6.24,0,0,0-4.65.4,6.67,6.67,0,0,0-3.29,4.56c-1.35-1.52-5.21-5.48-9.89-5.15-6.56.46-13.29,9.27-12.78,21.81a13.69,13.69,0,0,0-16.09,3.77c-4.3,5.45-2.3,12.33-2.13,12.89a16.61,16.61,0,0,0-8.52,11.7,17,17,0,0,0,4.06,13.68c-5.59,2.08-8.73,7.6-7.75,12.5,1,5.14,6.15,7.35,6.59,7.53A358.27,358.27,0,0,0,429,327c1.27,18.92,2.81,17.9,3.88,38.08.8,14.94.5,26,4.84,41.25a114.71,114.71,0,0,0,5.62,15.46,339.51,339.51,0,0,1,.39-48.39c1.85-23.24,3.37-40.53,12.4-60.28,6.07-13.3,15.15-33.13,33.65-39.15,5.63-1.82,14.06-.88,30.68,1.07,30,3.52,30.66,6.32,47.09,7.14A160.94,160.94,0,0,0,615.6,278c7.54-1.87,18.42-5.22,34.11-5.75,10.95-.36,15.12.95,17.63,2,10.89,4.47,16.56,14.31,20.54,21.22,2.55,4.43,5.43,10.45,8.53,22,4.49,16.72,5,28.34,6,37.28,1.37,11.88,4.81,28.9,14.34,49.58a654.81,654.81,0,0,0,7.56-85.27c.33-14.65.16-28.68-.39-42.05A10.92,10.92,0,0,0,729.73,267.33Zm-9.94,5.89c-.4,14.55-.83,26.69-1.16,35.56-1.26,33-2.23,45.33-2.72,51-.87,10.35-1.81,18.82-2.45,24.32a365,365,0,0,0-7.62-53.41c-3.71-16.8-6.84-25.2-10.85-32.92-5.37-10.31-11.79-22.28-24.68-27.76-6.55-2.8-11.94-2.69-22.35-2.38-17.41.52-22.57,4.17-40.3,7a189.35,189.35,0,0,1-42.76,1.72,301.58,301.58,0,0,1-34.36-4.49c-21-3.65-27.83-6.47-39.14-3.44a48.23,48.23,0,0,0-18.73,9.91c-9,7.74-12.47,16.69-17.7,30.68-1.38,3.67-5.55,15.17-9.3,34.9a317.3,317.3,0,0,0-5,40.72c-2.25-15-4.08-31.27-5.17-48.65a570.86,570.86,0,0,1,0-71.13,7.82,7.82,0,0,1-6.07-9.26,7.6,7.6,0,0,1,8.14-5.68c-5-3.68-7.07-10.06-5.17-15.34,2.13-5.89,8.17-7.63,8.79-7.8-1.93-4.39-1.44-9.37,1.29-12.56,3.72-4.35,11.27-4.94,16.66-.26-.61-2.35-2.61-11.05,2.07-18,1.2-1.79,3.34-4.95,7-5.29a8.61,8.61,0,0,1,6.08,2.11,24.13,24.13,0,0,0-.52,16.27,45.26,45.26,0,0,1,2.45-12.3c1.71-4.8,3-5.71,3.75-6.08,3.51-1.75,8,1.56,8.53,2-.41-3.56-.47-9.32,2.58-14.54,1.53-2.62,2.73-3.22,3.36-3.44,2.87-1,6.76,1,9.95,5.16-1.39-4.06,1.1-8,4-8.46,2.64-.46,5.92,1.87,6.46,5.68.62-6.3,4.92-11.34,10.33-12.43,5.88-1.19,10.41,2.79,11,3.31a17,17,0,0,0-7.1,7.93,16.47,16.47,0,0,0-1.29,5.69,19.16,19.16,0,0,1,5.55-7.94,18.35,18.35,0,0,1,5.43-3.17,17.48,17.48,0,0,1,7.1,5.55,17.86,17.86,0,0,1,3.1,6.61,12.87,12.87,0,0,1,8.66-4.89c5.1-.42,10.18,2.78,12.66,8.07-.08-.91-.62-6.12-4.91-9.39a13.09,13.09,0,0,0-15-.13,17.13,17.13,0,0,0-7.36-7.54c.72-1.57,3.17-6.39,8.4-8.33a9.1,9.1,0,0,1,6.07-.53c3.44,1.13,5.91,5,6.33,9.92,1.53-5.44,6.59-8.67,11.24-7.8a10,10,0,0,1,7.49,7.53c.47-6.22,5.23-9.76,8.27-9.12,2.8.6,5.53,5.06,4.52,10.45a33.33,33.33,0,0,1,5.42-5.56c3.51-2.83,7.55-6.08,11.37-5.28,4.22.88,7.59,6.59,8.14,13.88,3.72-3.73,8.74-5.34,12.92-3.84,4.89,1.76,6.76,7.1,7.75,9.92a22,22,0,0,1,1.16,8.86,20.78,20.78,0,0,0,1.81-6.75,21.1,21.1,0,0,0-.13-4.89,15.9,15.9,0,0,1,13.18,2.38,16.36,16.36,0,0,1,6.2,15.21,16.21,16.21,0,0,1,10.46-4.23,7,7,0,0,1,4.39,1c2.55,1.92,3.17,6.47,1.55,11.51,1-.24,9.08-2,15.38,3.57a17.21,17.21,0,0,1,5.16,8.59,9.88,9.88,0,0,0-5.94.66,10.3,10.3,0,0,0-4.52,4c2.38-.75,9.56-2.67,16.79.92,2.23,1.12,6.29,3.13,7.88,7.54,1.79,4.95-.17,11.12-4.91,15.73a14.76,14.76,0,0,0,4.78-2,15.52,15.52,0,0,0,4.4-4.23,17.74,17.74,0,0,1-1,22.08,6.75,6.75,0,0,1,2.33,13.22Z"/></g></g></g></svg>