<svg xmlns="http://www.w3.org/2000/svg" viewBox="0 0 1080 1920"><g style="isolation:isolate"><g id="hair"><g id="_12" data-name="12"><path d="M444.58,413.87a403.8,403.8,0,0,1-20.85-38.47c-6.88-14.55-10.36-22-12.45-32.53a94.4,94.4,0,0,1,.53-38.6,82.83,82.83,0,0,1-8.75-34.11,87.35,87.35,0,0,1,10.34-42.84c6.94-13,15.43-20.83,23.12-27.95a143.64,143.64,0,0,1,25.11-18.59,74.7,74.7,0,0,1,18-21.42c15.82-12.75,32.44-14.84,64.92-18.5,16.35-1.85,35.56-3.9,60.95-1.33,28.36,2.88,42.28,9.28,50.61,14.28,12.63,7.58,17.86,15.2,20.4,19.83a47.12,47.12,0,0,1,5,14.28c4.14-.73,24.32-3.86,41.07,8.73,3.19,2.39,12,9,15.9,21.15a39.34,39.34,0,0,1,1.86,12.69C746.24,241,761.33,271.43,749,298a50.46,50.46,0,0,1-3.84,6.8,225.67,225.67,0,0,1-31.8,113.7c.24-14.27,0-29.47-.8-45.48-.77-15-2-29.18-3.57-42.54-2.24,0-4.56,0-7-.07-3.84-.13-7.47-.41-10.87-.79A45.31,45.31,0,0,1,678.46,338a44.5,44.5,0,0,1-6.27,2.18,81.09,81.09,0,0,0,5.87-18.44,78.19,78.19,0,0,0-.2-30.84,72.78,72.78,0,0,0-3.38-11.11A121.47,121.47,0,0,1,661.07,302a130.2,130.2,0,0,1-27,26c-8.92,6.45-21.27,15.38-39.85,19.54a92,92,0,0,1-24.75,2.08A75.53,75.53,0,0,0,608.7,307a308.12,308.12,0,0,1-27,19.24,226.37,226.37,0,0,1-46.11,21.81c-5.82,1.93-14,4.3-23.55,2a35.61,35.61,0,0,1-8.65-3.37,62.42,62.42,0,0,1-54.45-10q-1.65,10.66-2.78,22.21A401.54,401.54,0,0,0,444.58,413.87Z" fill="#42210b"/><path d="M744.24,242.66a43.78,43.78,0,0,0-9.74-15.87c-.13-4.13-1.06-15.26-9.34-24.59-10.26-11.54-27.63-15.63-44.32-10.51a71.48,71.48,0,0,0-19.28-29.75c-2.71-2.46-12.89-11.26-38.15-17.65-36.47-9.21-67.55-4.08-84.07-1.19A249.05,249.05,0,0,0,496,154.8a153.39,153.39,0,0,1,59.42,9.52,186.53,186.53,0,0,0-47.1,3c-11.12,2.14-25.31,4.87-41.73,13.48-9,4.71-29.57,15.83-44.92,39.86a110.3,110.3,0,0,0-16.39,46.11,79,79,0,0,1,40.24-32.62A115.4,115.4,0,0,0,426,264.27a125.12,125.12,0,0,0-7.35,22.51,133.33,133.33,0,0,0-3.18,36.3,256.28,256.28,0,0,1,21.76-39.17c7.57-11.2,15.55-23,28.42-34.61,9.09-8.19,25.85-21,52-29.35-14.3,6.63-42.19,22.05-63.1,53.45a147.52,147.52,0,0,0-19.08,41.45,163.38,163.38,0,0,0,51.48-36.1,90.16,90.16,0,0,1-40.74,43.63c14.3,6.82,25.48,5.44,30,4.56,9.75-1.89,16.46-6.85,27-14.67a146.07,146.07,0,0,0,18.68-16.46,111.23,111.23,0,0,1-42.34,42.24,90.77,90.77,0,0,0,32.4-5.36c8.72-3.16,14.29-6.8,25.44-14.08a230.08,230.08,0,0,0,37-28.95A219.34,219.34,0,0,0,597,263.88a145.85,145.85,0,0,1-32,46.21,144.13,144.13,0,0,1-25.43,19.63,94.25,94.25,0,0,0,31-5c8.54-2.91,14.52-6.37,25.35-12.72A311.77,311.77,0,0,0,622,295a76.41,76.41,0,0,1-14.27,33,128.1,128.1,0,0,0,65.38-68.61,60.22,60.22,0,0,1-34.78,19.23,68.34,68.34,0,0,0,27.63-25.38,66.65,66.65,0,0,0,8.34-21.82c13,8.65,17.39,18.05,19.09,23,4.41,13,.63,25.94-6.17,49.18-2.25,7.67-4.48,13.91-6.09,18.2q-3.33,7.75-6.63,15.52a64.31,64.31,0,0,0,19.68-12.7C714.67,305.09,715.1,278,715,271.41a61.32,61.32,0,0,1-.4,33.72,57.9,57.9,0,0,1-6.17,13.48,55.36,55.36,0,0,0,22.27-60.28,143.81,143.81,0,0,1,6,14.47,140.51,140.51,0,0,1,5,18.05,132.89,132.89,0,0,0,3.78-21C746.5,258.93,747.23,251.4,744.24,242.66ZM629,211.13c-23.4-.12-41.42,9.5-60,19.43a221.31,221.31,0,0,0-25.44,15.87,136.92,136.92,0,0,1,45.71-34.71c14-6.48,28.43-13.18,45.91-9.12,12.66,2.94,21.4,10.26,26,14.87A89.14,89.14,0,0,0,629,211.13Zm74.72-1.19a52.58,52.58,0,0,0-22.25,1.38,47.51,47.51,0,0,1,21.06,5.16c11.71,6.07,18.93,16.44,17.89,17.65s-10.23-8.76-26.23-12.49a57,57,0,0,0-23.26-.4,117.74,117.74,0,0,0-23-24.39c-24.64-19.54-51-24.22-64.19-25.59a101.46,101.46,0,0,1,55.84,6A100.37,100.37,0,0,1,675.88,203a48,48,0,0,1,8.34-1.19c22.48-1.16,39.72,14.25,46.11,20.63A53.1,53.1,0,0,0,703.69,209.94Z" fill="#fff" opacity="0.5" style="mix-blend-mode:overlay"/><path d="M505.62,182.63A128.86,128.86,0,0,1,565,174.44,223.06,223.06,0,0,0,460.3,212.78,128.66,128.66,0,0,1,505.62,182.63Zm43.45,13.89c2,2.17-1.39,6.5.4,9.78,1.43,2.63,6.16,4.56,19.74,2.51a119.09,119.09,0,0,0-47,42.44,181.12,181.12,0,0,1,67-48c-4.54,0-10.65-.09-17.89-.27-12.78-.3-15.74-.63-16.69-2.51-2.19-4.3,7.85-13.33,9.67-14.94a51.18,51.18,0,0,0-29,13.36C540.82,196.36,547,194.23,549.07,196.52ZM598,225.21c-.32-.55-9.12,3.92-19.74,10-3.27,1.89-14.64,8.47-14.17,9.39.37.74,8.2-2.41,21.46-5,4.49-.89,7.41-1.28,8.61.26,2,2.6-1.2,10.26-1.72,11.5-.76,1.82-1.29,2.57-.93,3,1.09,1.42,8.38-2.13,13-5.15a48.51,48.51,0,0,0,14.44-14.94,107.12,107.12,0,0,1-11.66,8.72c-3.09,2-6.07,3.71-8.88,5.16,1.87-5.08,2.8-10,.53-12.16-3.25-3.14-11.29.94-12.06-.66C585.86,233.36,598.36,225.87,598,225.21Zm20.54,33c5.2-4.41,7.47-8.55,9.14-7.93,2.19.8.07,8.46,2.52,9.52,2.81,1.2,7.9-7.85,11.66-6.48,1.22.44,1.77,1.8,2.65,4,2.07,5.11.67,8.57,1.86,9.13,2.12,1,8.77-9.07,9.67-10.45a113.83,113.83,0,0,0,8.87-16.26c-4.29,3.89-7.63,7.18-9.93,9.52-3.26,3.31-5.24,5.52-7.16,5-2.34-.6-2-4.56-4.5-5.29-3-.86-6.17,4.07-7.95,3.05-1.18-.68-.1-3-1.46-5s-4.19-2.44-6.36-2.51a19,19,0,0,0,.93-4.76,19.68,19.68,0,0,0-1.72-9.26,152.16,152.16,0,0,1-17.23,33.59A42,42,0,0,0,618.5,258.26Zm-104.4,59.1a52.21,52.21,0,0,0,48.49-35,165.87,165.87,0,0,1-48.49,35Zm188.6-49.52c.44-6.24-1.07-11.74.4-12.29,1.77-.66,5.25,6.87,7.55,6.15s1.28-8.2,2.39-8.33c.78-.1,1.67,3.58,3,7.34,2.67,7.67,7,15.47,8.34,15.07.49-.15.64-1.43,0-7.54-1.12-10.74-3.07-21.1-3.57-21s1.39,11.64.2,11.9c-.58.12-1.44-2.47-4-8.33-2.31-5.34-5.54-12.79-6.56-12.49-.58.17.1,2.69-.2,7.53-.24,4.07-.45,7.49-1.78,8.13-1.64.79-5.73-2.23-15.9-16.85a77.18,77.18,0,0,1,5,46.2A34.07,34.07,0,0,0,702.7,267.84Z" fill="#fff" opacity="0.6" style="mix-blend-mode:overlay"/><path d="M740.4,230.49a39.34,39.34,0,0,0-1.86-12.69c-3.9-12.14-12.71-18.76-15.9-21.15-16.76-12.58-36.93-9.45-41.07-8.73a47.12,47.12,0,0,0-5-14.28c-2.55-4.63-7.77-12.25-20.4-19.83-8.34-5-22.26-11.4-50.61-14.28-25.39-2.58-44.6-.51-60.95,1.33-32.48,3.65-49.1,5.76-64.92,18.5a74.89,74.89,0,0,0-18,21.42,143.64,143.64,0,0,0-25.11,18.59c-7.7,7.12-16.18,15-23.12,27.95a87.35,87.35,0,0,0-10.34,42.84,82.67,82.67,0,0,0,8.75,34.11,94.4,94.4,0,0,0-.53,38.6c2.09,10.49,5.57,18,12.45,32.53a408.42,408.42,0,0,0,20.85,38.47,401.54,401.54,0,0,1,1.55-55q1.13-11.53,2.78-22.21a62.42,62.42,0,0,0,54.45,10,35.61,35.61,0,0,0,8.65,3.37c9.54,2.31,17.73-.06,23.55-2a226.37,226.37,0,0,0,46.11-21.81,308.12,308.12,0,0,0,27-19.24,75.53,75.53,0,0,1-39.26,42.54,92,92,0,0,0,24.75-2.08c18.58-4.17,30.94-13.09,39.85-19.54a130.49,130.49,0,0,0,27-26,121.47,121.47,0,0,0,13.41-22.22,72.42,72.42,0,0,1,3.38,11.11,78.39,78.39,0,0,1,.2,30.84,81.09,81.09,0,0,1-5.87,18.44,44.63,44.63,0,0,0,19-10.51c3.41.39,7,.66,10.87.79,2.41.08,4.72.1,7,.07,1.55,13.35,2.8,27.55,3.57,42.54.83,16,1,31.21.8,45.48a225.67,225.67,0,0,0,31.8-113.7A50.46,50.46,0,0,0,749,298C761.33,271.44,746.24,241,740.4,230.49Zm7.81,55.4a45.68,45.68,0,0,1-3.37,9.12,53.68,53.68,0,0,0-12.92-30.54,174.26,174.26,0,0,1,6.36,30.15,146.88,146.88,0,0,1,.79,32.52c-1.37,15.08-4.87,26.17-7.75,35.1A198.35,198.35,0,0,1,719,392a212.4,212.4,0,0,0-2.78-41.25,210,210,0,0,0-4.57-20.82A23.6,23.6,0,0,0,726.88,316a30.15,30.15,0,0,1-29.94,10.7,53.58,53.58,0,0,0,15.37-33.84,67.54,67.54,0,0,1-35.38,41.51,71.28,71.28,0,0,0,.27-56.58,46.62,46.62,0,0,0,2-11.51,46,46,0,0,0-.66-10.18,92.39,92.39,0,0,1-10.33,28.69,102.39,102.39,0,0,1-10.87,15.34,129.78,129.78,0,0,1-75.25,45.35A76.31,76.31,0,0,0,603.13,324a75.38,75.38,0,0,0,8.22-17.19l14.84-14.67c-18.22,12.37-34.19,22.52-47,30.4a277.08,277.08,0,0,1-34,17.06c-7.5,3.15-15.36,6.07-25.57,5.82a51.83,51.83,0,0,1-13.78-2.25,67.12,67.12,0,0,1-63.07-17.32,37.58,37.58,0,0,0,20.74-17.32A40,40,0,0,1,433,321.79a60.84,60.84,0,0,0,7.55,9.52c1.36,1.4,2.71,2.64,4,3.76-1.46,9.24-2.76,19-3.82,29.16-1,9.66-1.71,19-2.19,27.86a165.91,165.91,0,0,1-12.22-23.8c-3.27-7.86-7.52-18.1-9.34-31.33-1.66-12.08-.5-20.89,1.49-35.1a268,268,0,0,1,10.27-44.79,67.86,67.86,0,0,0-16.56,38.6A79,79,0,0,1,408.76,260a82.83,82.83,0,0,1,7-23.14c12.38-26.75,34.71-41.17,47-48.92a156.59,156.59,0,0,1,44.52-19A65.32,65.32,0,0,0,470,177.41a131.29,131.29,0,0,1,48.7-27.17c11.64-3.48,21.08-4.16,39.94-5.55,22.49-1.65,44.16-3.06,70,3.77,10.77,2.85,18.78,5,27.43,11.7,14.21,10.92,19.82,25.91,22.06,33.71a50.15,50.15,0,0,1,28.22,1.59,50.83,50.83,0,0,1,26.63,22.81,54.46,54.46,0,0,0-23.25-15.08,53.61,53.61,0,0,0-16.9-2.58,82.46,82.46,0,0,1,33.59,21.22,86.24,86.24,0,0,1,16.1,24.79C746.19,255.31,752.34,269.56,748.21,285.89Z" fill="#000001"/></g></g></g></svg>