<svg xmlns="http://www.w3.org/2000/svg" viewBox="0 0 1080 1920"><g style="isolation:isolate"><g id="hair"><g id="_13" data-name="13"><path d="M440.86,420.07c-12.1-10.6-15.82-20.21-17-27.08-1.51-9,1.33-14.14-.81-24.06-2.18-10.14-7.88-17.56-12.3-22.21A27.06,27.06,0,0,1,396,344.47a37.88,37.88,0,0,0,6.49-6.08c1.87-2.21,3.86-4.57,4.73-7.27,1.65-5.07-1.39-9-4.19-16.13-1.89-4.83-.41-2.84-4.32-19.17-3.78-15.79-5.11-17.48-5.41-24.33-.19-4.4.41-8.45,1.62-16.39,2.23-14.61,3.35-21.91,6.09-29.35,5.06-13.76,13.09-22.58,17.57-27.5,19.78-21.73,45.36-29.33,56.78-32a73.82,73.82,0,0,1,27.58-27A77.4,77.4,0,0,1,534.35,130a80.14,80.14,0,0,1,40,7.4c19.62-1.84,56.27-2.47,94.91,14.81,28.31,12.66,45.34,29.43,48.94,33,6.26,6.3,15.89,16.17,23.79,32a110.92,110.92,0,0,1,11.63,45.48,108.18,108.18,0,0,1-2.17,25.38,36.09,36.09,0,0,1-3,29.35A38.41,38.41,0,0,1,737.4,354a80.84,80.84,0,0,1-3.78,11.64c-1.59,3.89-2.6,5.51-3.52,7.67-3.29,7.77-1.94,14.48-1.89,18.5.08,6.44-3.07,15.76-17.84,28,.68-4,5.59-33.21,3.51-52.88a51.87,51.87,0,0,0-4.06-16.13,50.05,50.05,0,0,0-8.38-13,56.11,56.11,0,0,1-10-3.86,56.87,56.87,0,0,1-8.21-5.06,28.94,28.94,0,0,0,0,7.53,28,28,0,0,0,1,4.66,130.48,130.48,0,0,1-39.35-39.56,77.32,77.32,0,0,0,12.58,31.53q-6.95-4.49-14.3-10-4.14-3.13-7.91-6.25c.51,4.63,1.14,9.43,1.93,14.38.5,3.15,1.05,6.23,1.62,9.22a137.89,137.89,0,0,1-10.44-10.51c-4.8-5.39-9-10.2-12.78-17.35a64.87,64.87,0,0,1-5-12.6,59.52,59.52,0,0,1-5.17,29.45A235.63,235.63,0,0,0,603,304.55a190.46,190.46,0,0,0-6.19-28.36,177.46,177.46,0,0,0-8.21-21.82q-7.65-2.07-15.51-4.36-9.74-2.85-19-5.82a13.61,13.61,0,0,0,1.76,4.1,13.83,13.83,0,0,0,1.62,2.05,98.06,98.06,0,0,1-13.65-2.65,96.62,96.62,0,0,1-14.33-5.09,15,15,0,0,0,.4,4,15.16,15.16,0,0,0,1.22,3.3c-2.79-.11-5.73-.32-8.79-.66a122.07,122.07,0,0,1-20.55-4.1,4.79,4.79,0,0,0,.82,3,4.91,4.91,0,0,0,2.63,1.91,39.06,39.06,0,0,1-13.25-.79c-3.45-.83-5.66-1.92-8.58-1.12-3.53,1-5.48,3.94-6.29,5.09-2.71,3.86-8.21,9.47-20.62,16.72.07,2.84.19,7.08.48,12.23,1,17.38,2.31,19.58,1.86,27.5-.38,6.57-.89,15.35-6.59,24a40.76,40.76,0,0,1-17,14.28,209.51,209.51,0,0,0,1.93,32c1,7.3,2.58,15.5,3.34,28.26C440.75,413.21,440.84,417.3,440.86,420.07Z" fill="#42210b"/><path d="M740.92,277.57c-5.28-10.76-9.73-21.21-13.52-31.2a60.16,60.16,0,0,0,23.52,28A137.14,137.14,0,0,0,730.38,208c-5.19-8.31-17.31-27.28-40.56-41.78-20.31-12.66-39.33-15.76-77.34-21.95-17.4-2.83-31.94-4.25-41.9-5-3.78-1.82-32.71-15.18-62.73-1.06a70,70,0,0,0-32.18,31.47,156.52,156.52,0,0,0-39.77,18.05c-10.69,6.83-17.07,11-22.42,19.23-2.39,3.69-2.32,4.73-10.28,29.88-4.67,14.8-5.69,17.63-6.21,23.54-.63,7.2-1.27,15.9,4.15,23.76a27.68,27.68,0,0,0,9.64,8.5,57.77,57.77,0,0,1-3-27.77,58.88,58.88,0,0,1,14.59-30.94,63.31,63.31,0,0,0-10,52.62,81.91,81.91,0,0,1,2.43,25.12c-.89,14.81-5.67,24.7-3.24,25.92,2.2,1.1,8.49-5.77,12.44-11.9,7.81-12.15,9-25.38,8.38-35.17,1.12,6.42,2.07,13.4,2.71,20.89a241.35,241.35,0,0,1,.81,24.59,48.87,48.87,0,0,0,8.38-8.2c9.26-11.58,10.64-24.46,11.35-32,1-10.27-1-9.6-1.08-27.77-.07-14.77,0-22.27,3.65-27.5,5-7,15.84-13.62,26.77-10.44,9.81,2.85,14,11.93,14.74,13.49A114.52,114.52,0,0,1,525,246.24a37.09,37.09,0,0,1-7.71-20.13c-.27-4.32-.81-13,5.27-20.53a26.87,26.87,0,0,1,13.59-8.72c8.37,2.15,21.57,6.88,32.52,18.19,3,3.07,7.3,8.2,16.48,27.62a406.13,406.13,0,0,1,16.34,39.9A80.82,80.82,0,0,0,596,246.64a84.19,84.19,0,0,0-20-29.35,97.78,97.78,0,0,0-35.15-22.22,30.07,30.07,0,0,1,12.72-.79c8.55,1.38,14.48,6.47,19.73,11.9,20,20.66,30,45.84,32.44,52.36,3.9,10.26,4,13,8.39,22.47a147.25,147.25,0,0,0,16.22,26.71,55.66,55.66,0,0,1-4.32-9.79,54.87,54.87,0,0,1-2.71-14.54l12.17,18c-2.36-8.47-4.57-17.56-6.49-27.23a366.55,366.55,0,0,1-5.68-39.93,163.13,163.13,0,0,0,22.44,47.86,165.36,165.36,0,0,0,24.34,28,70.5,70.5,0,0,1-16.49-36,74.7,74.7,0,0,0,13.79,26.17,78.24,78.24,0,0,0,33,23.54,73.47,73.47,0,0,1-8.92-45.75q4.3,8.43,9.19,17.19,6.2,11.1,12.44,21.15a275.35,275.35,0,0,0-6.49-92c2.23,5.85,5.64,15,9.46,26.44,5.94,17.75,7,23.43,11.09,32.52A118.41,118.41,0,0,0,746.32,313a22.53,22.53,0,0,0,3.52-9.26,23.22,23.22,0,0,0-3.24-15.07Q743.72,283.29,740.92,277.57ZM464.05,210.28c-28.69-2.88-47.82,16.59-50,18.9,2.41-3.43,17.26-23.83,43.27-26.17a56.29,56.29,0,0,1,25.41,3.7,27.81,27.81,0,0,0-3.92-7.93,29.07,29.07,0,0,0-11.09-9.26c3.1.52,17,3.19,26.64,15.87a40.4,40.4,0,0,1,8.11,24.46C499.28,226.35,486,212.48,464.05,210.28Zm45.69-40.46a150.38,150.38,0,0,1-4.87,17.45,129.26,129.26,0,0,1-7.56,17.19c-1.71-4.43-5.89-17.15-.69-31.2,6.32-17,22-24,28.26-26.84A63.66,63.66,0,0,1,558,141.53C522.18,150.76,512,161.44,509.74,169.82ZM531,182.25a58.5,58.5,0,0,1,24.74-24.86c26.39-13.6,53.35-.95,56.37.53a102.34,102.34,0,0,0-47.18,4.5A100.06,100.06,0,0,0,531,182.25Zm90.44,13.35a63.27,63.27,0,0,0-24.61-16.39,64.37,64.37,0,0,0-36.9-1.59c1.72-1.32,22.78-16.84,48.26-8.72A51.76,51.76,0,0,1,643.58,212a63.53,63.53,0,0,0-13-18q3.21,12,6.19,24.79A75,75,0,0,0,621.41,195.6Zm16.5,28c-.36-1.61-.74-3.22-1.11-4.81A95.76,95.76,0,0,1,644.12,254Q641.41,239.3,637.91,223.63Zm41-34.37a86,86,0,0,0-29.07-17.85,48.24,48.24,0,0,1,29.07,10.31,46.55,46.55,0,0,1,16.76,29.48A83.8,83.8,0,0,0,678.87,189.26Z" fill="#fff" opacity="0.5" style="mix-blend-mode:overlay"/><path d="M417.13,248.36a43.71,43.71,0,0,1,14.06-21c6.27-5.05,12.29-6.89,20-9.25.69-.21,9.25-2.8,9.87-1.46s-8.43,6.17-7.7,7.81,10.84-1.91,11.76,0c.68,1.4-4.42,4.16-9.6,11.1a46.36,46.36,0,0,0-3.92,6.21,17.39,17.39,0,0,1,.27-5.68,17.63,17.63,0,0,1,2.57-6.08,28.33,28.33,0,0,1-9.06,4.63c-1.57.46-6,1.77-6.9.39-.67-1.05,1-3.22,2.44-5,3.34-4.27,6.63-6.12,6.49-6.35s-9.77,3.31-18.8,11.24A62.28,62.28,0,0,0,417.13,248.36Zm29.07,37.81A159.49,159.49,0,0,1,445,303c-.67,5.35-1.56,10.3-2.57,14.81a28.62,28.62,0,0,0,7-17.19A28,28,0,0,0,446.2,286.17ZM496.42,167.9a68.39,68.39,0,0,1,14.81-19.23c-2.2.81-13.75,5.33-19.06,17.65a31.58,31.58,0,0,0-1.83,18.84A67.28,67.28,0,0,1,496.42,167.9Zm77.87,29.16a65.1,65.1,0,0,1,17.85,17.25c4.94,7.17,7.55,14.37,10.44,13.88,2.27-.38,3.38-5.27,3.76-6.94,1.33-5.89-.6-9.64.6-10.21,1.46-.7,5.43,4.2,9.13,8.82,5.34,6.67,6.38,9.21,7.4,8.93,2-.55,2.39-11.26-2.23-20.63-5.53-11.2-16.21-16.31-16.53-16s6.78,5.36,12,15.47c1.66,3.23,3.46,7.63,2.53,8.23-.76.49-2.92-1.84-8.92-6.65-7-5.6-8.1-5.67-8.62-5.35-1,.63-.16,3,.41,11.1.3,4.36.14,4.91-.21,5.06-1.58.71-5.4-7.4-12.77-14.08A46.19,46.19,0,0,0,574.29,197.06Zm67.84-4.46a52,52,0,0,1,9.53,20.12c1.84,8.31,1.1,15.42,2.84,15.67,1.56.23,4.17-5.25,5.37-9.72,1.32-4.91.82-8.12,2.23-8.52,1.59-.46,2.84,3.44,7.71,5.25,1.29.48,3.61,1.35,5.27.3s2.28-4,1.32-7.24a14.44,14.44,0,0,0,6.69,4.66c1.63.53,4,1.32,5,.4,1.75-1.75-2.58-8.89-5.78-13.19-8.28-11.12-19.17-16.86-26.87-20.82-5.18-2.67-9.39-4.33-9.53-4.07-.23.42,10.84,5,21.7,14.78,8.26,7.42,13.43,15.14,12.67,15.86s-8.48-5.9-9.53-4.86c-.6.6,1.7,3.05,2.23,7.74.18,1.57.38,3.37-.4,3.76-1.57.8-6.82-4.1-9.43-6.54-.94-.87-1.57-1.51-2.34-1.39-1.72.27-2.65,4.11-3.44,7.44-.75,3.1-.72,4.42-1.12,4.46-1,.1-1.08-8.4-5.88-15.86A28.46,28.46,0,0,0,642.13,192.6Zm15.78,66.07A89.43,89.43,0,0,0,668.59,292c8.77,15.62,20.89,25.74,21.5,25.25s-9.4-10.63-19.07-27.9A158,158,0,0,1,657.91,258.67ZM697,271.62a38.59,38.59,0,0,0,2.71,18.12c3.36,8,9.16,13.72,9.73,13.35s-3.58-6-7.57-15.86A99.53,99.53,0,0,1,697,271.62Z" fill="#fff" opacity="0.6" style="mix-blend-mode:overlay"/><path d="M530.42,200.23a34.48,34.48,0,0,0-9,8.07A22,22,0,0,1,530.42,200.23Zm19.84-53.46c-2.58.69-4.87,1.38-6.86,2Zm201.2,141.38a36.09,36.09,0,0,1-3,29.35A38.47,38.47,0,0,1,737.4,354a82.13,82.13,0,0,1-3.78,11.64c-1.59,3.89-2.61,5.52-3.52,7.67-3.29,7.77-1.93,14.48-1.89,18.5.08,6.44-3.07,15.76-17.84,28,.68-4,5.59-33.21,3.51-52.88a52.31,52.31,0,0,0-4-16.13,50.14,50.14,0,0,0-8.38-13,55.06,55.06,0,0,1-18.26-8.92,28.51,28.51,0,0,0,0,7.53,29.1,29.1,0,0,0,1,4.66,130.48,130.48,0,0,1-39.35-39.56,77.32,77.32,0,0,0,12.58,31.53c-4.62-3-9.41-6.32-14.3-10q-4.14-3.15-7.91-6.25c.51,4.63,1.14,9.42,1.92,14.38.51,3.15,1.06,6.22,1.63,9.22a134.27,134.27,0,0,1-10.44-10.51c-4.81-5.39-9-10.2-12.78-17.35a63.84,63.84,0,0,1-5-12.6,60.11,60.11,0,0,1-1,16.66,58.88,58.88,0,0,1-4.16,12.79A235.9,235.9,0,0,0,603,304.55a188.91,188.91,0,0,0-6.19-28.36,175.84,175.84,0,0,0-8.21-21.82Q581,252.3,573.08,250q-9.74-2.85-19-5.82a13.87,13.87,0,0,0,1.76,4.1,14.52,14.52,0,0,0,1.62,2.05,98.46,98.46,0,0,1-13.66-2.65,94.63,94.63,0,0,1-14.32-5.09,15,15,0,0,0,.4,4,15.36,15.36,0,0,0,1.22,3.3c-2.79-.11-5.73-.32-8.79-.66a123.08,123.08,0,0,1-20.55-4.1,4.76,4.76,0,0,0,.81,3,5,5,0,0,0,2.64,1.91,38.82,38.82,0,0,1-13.25-.79c-3.46-.84-5.67-1.92-8.59-1.12-3.51,1-5.48,3.94-6.28,5.09-2.72,3.86-8.21,9.47-20.62,16.72.07,2.84.2,7.09.47,12.23,1,17.38,2.33,19.58,1.87,27.5-.39,6.57-.89,15.35-6.6,24a40.69,40.69,0,0,1-17,14.28,209.45,209.45,0,0,0,1.93,32c1,7.31,2.58,15.52,3.34,28.27.29,4.94.39,9,.41,11.8-12.1-10.6-15.82-20.21-17-27.08-1.51-9,1.32-14.14-.81-24.06-2.18-10.13-7.89-17.56-12.3-22.21A27.11,27.11,0,0,1,396,344.47a37.51,37.51,0,0,0,6.49-6.08c1.88-2.21,3.86-4.57,4.74-7.27,1.64-5.07-1.4-9-4.19-16.13-1.9-4.84-.42-2.83-4.33-19.17-3.77-15.79-5.12-17.47-5.41-24.33-.19-4.39.41-8.46,1.62-16.39,2.24-14.6,3.35-21.9,6.09-29.35,5.06-13.75,13.09-22.58,17.57-27.5,19.79-21.73,45.36-29.33,56.78-32a73.74,73.74,0,0,1,27.58-27A77.34,77.34,0,0,1,534.35,130a80.11,80.11,0,0,1,40,7.4c19.62-1.84,56.28-2.48,94.91,14.81,28.31,12.67,45.35,29.44,48.93,33,6.28,6.3,15.9,16.16,23.8,32a110.92,110.92,0,0,1,11.63,45.48A108.18,108.18,0,0,1,751.46,288.15Zm-317,113.77a209,209,0,0,1-3.64-28.86,206,206,0,0,1,0-23.6,42.58,42.58,0,0,1-6.3,0,43.44,43.44,0,0,1-5.16-.69,91.89,91.89,0,0,0,4.46,11.2c2.09,4.42,3.11,5.65,3.95,8.53,1.6,5.45.36,9.15.11,13.09C427.57,386.29,428.52,393.1,434.47,401.92ZM743.08,238.84c-4.89-16.35-12.75-26.29-26-43-10.42-13.16-18.57-23.24-33.13-30.81-5-2.61-9.71-4.16-19.06-7.27a294.71,294.71,0,0,0-40.16-10.18c-21.88-4-35-6.42-52.72-4.76a131.08,131.08,0,0,0-21.57,3.86l19.68-5.84a103.47,103.47,0,0,0-29.47-4.37c-4.53,0-16.94,0-27.71,3.84-25.69,9.21-35.75,38.22-37.73,44.29q.83-6.48,1.63-13c-15.19,4.72-33.42,13-49.62,27.77-7.07,6.43-14.46,13.31-19.33,24.72-.87,2-2.57,10.78-5.95,28.16-3.09,15.94-3.73,20-2.57,26.05,1.09,5.59,2.3,5.58,4.6,15.33,2.12,9,1.39,10.38,3.51,17.59,2.55,8.64,4.4,9.43,4.6,14,.18,4-1,9.68-6.89,16.66a26.52,26.52,0,0,0,7.84,1.06,26,26,0,0,0,10.13-2.25,6.51,6.51,0,0,1,.28,3.44,6.61,6.61,0,0,1-.68,1.85,35.75,35.75,0,0,0,14.33-5.29c9.27-6,12.79-14.74,14.2-18.38,2.91-7.52,2.53-15.7,1.62-31.73-.59-10.44-1.27-11.83-1.62-22.61-.53-16.28.82-20.41,2-23.13s5-11.21,14.46-14.94c2.12-.84,11.3-4.09,19.73.79a20.4,20.4,0,0,1,7.18,7.14,22.38,22.38,0,0,0-14.61-6.21c-9.62-.27-15.69,6.13-16.76,7.27-5.29,5.58-6.07,12.33-6.62,17a37.36,37.36,0,0,0,0,8.73,55.8,55.8,0,0,0,14.46-12.16c3.24-3.9,4.55-6.66,8.38-7.94s8.64-.45,11.77.14a38.9,38.9,0,0,1,5.54,1.45c-1.29-2.1-1.13-3.15-.82-3.7,1.37-2.37,8.62-.86,16.91.92,4.92,1.06,8.86,2.17,11.35,2.91-1.05-1.91-2.71-5.41-1.35-7,1-1.13,3.27-1.1,11.36,1.33,3.87,1.15,9.18,2.89,15.41,5.42-2.74-2.33-5.67-5.16-5-6.35,1-1.76,9.44.89,14.2,2.38,9.77,3.06,13.71,5.84,22.31,6.74a47.93,47.93,0,0,0,4.86.27c-6.81-11.43-13.12-21.31-18.51-29.48s-9-13.31-15.82-17.06c-3.36-1.86-10.38-5.74-18.53-3.44a18.22,18.22,0,0,0-2.83,1.06,22.42,22.42,0,0,1,12.44-3.44c6.73.27,11.43,3.87,16.22,7.54,3.14,2.4,6.84,5.83,19.6,25.38,5.6,8.59,8.39,12.87,10.54,17.06,1.84,3.58,5.59,11.32,9.47,24.85a221.22,221.22,0,0,1,7.84,45,52.81,52.81,0,0,0,1.89-11.77,51.2,51.2,0,0,0-.54-10.05c4.56,6.76,8,12.31,10.27,16.13s3.75,6.47,6.36,10.18A102.26,102.26,0,0,0,633,331.65a60.37,60.37,0,0,1,.68-19.44c2.7,2,5.51,4.11,8.38,6.48s5.54,4.73,8,7a49.58,49.58,0,0,1-7.71-19s-.23-1.45-1.48-14c0,0,2,2.28,5,5.69s6.87,8,10.68,12.68c8.31,10.25,10.73,14.32,17.71,19.44a59.5,59.5,0,0,0,5.68,3.7c.26-2.86.54-5.73.81-8.59a103.92,103.92,0,0,0,13.79,7.53,105.76,105.76,0,0,0,11.76,4.5q-2.16-6.21-4.33-12.43a124,124,0,0,0,7.85,11c2.26,2.82,4.08,4.85,3.51,5.69s-3.93-.13-6.35-1.06a39.5,39.5,0,0,1,10,16.79c.5,1.78.29,1.58,1.09,22.87a99.94,99.94,0,0,1-.28,14.94c-.35,3.42-.83,6.23-1.22,8.2a47.29,47.29,0,0,0,6.09-16.92c1.18-8-.76-10.31,1.89-16.26,1.52-3.42,3.58-5.83,4.46-11,.51-3,.05-3.53.55-5.68,1.21-5.32,5.15-6.71,8.38-10.71,4.88-6.07.92-9.22,5.81-27,1.34-4.88,2-6.12,2.44-9.79.64-6.19-.7-9.13-1-15.07-.3-6.85,1.13-11.26,1.88-15.07C750,261.9,745.39,246.56,743.08,238.84ZM521.37,208.3a34.48,34.48,0,0,1,9-8.07A22,22,0,0,0,521.37,208.3Zm22-59.5,6.86-2C547.68,147.46,545.39,148.15,543.4,148.8Z"/></g></g></g></svg>