<svg xmlns="http://www.w3.org/2000/svg" viewBox="0 0 1080 1920"><g style="isolation:isolate"><g id="hair"><g id="_14" data-name="14"><path d="M605.74,261.32c-1.31,1.34-3.78.31-6.52-.84a22.77,22.77,0,0,1-6.43-4.12,29.48,29.48,0,0,1-5.71-7,9.14,9.14,0,0,1-5-.95,12.11,12.11,0,0,1-5.43-6.45,7.17,7.17,0,0,1-4.53-.84,9.48,9.48,0,0,1-4-4.86,9.56,9.56,0,0,1-5.61-1.38,11.52,11.52,0,0,1-3.71-3.7,12.91,12.91,0,0,1-4.62-.52,14.16,14.16,0,0,1-4.62-2.43,9.4,9.4,0,0,1-4.35.84,9.25,9.25,0,0,1-3.11-.72l-4.3-5.22a10.87,10.87,0,0,1-5.37-.72,8.52,8.52,0,0,1-5.63-7.2,14.09,14.09,0,0,1,7.91-8c6.37-2.38,11.8,1.33,12.31,1.69a8.61,8.61,0,0,1,4.35-3.17,7.68,7.68,0,0,1,6.34,1.06l-.09-.26a10.49,10.49,0,0,1,1.3,1.24c2.08,2.33,1.73,4,3,4.57s2-.72,4.55-.65a7.6,7.6,0,0,1,3.19.8,18.11,18.11,0,0,0,1.95,1.27,10.34,10.34,0,0,1,1.2,2,11.7,11.7,0,0,1,.91,3,8.25,8.25,0,0,1,6.34.42c4.37,2.21,5.42,7.57,5.52,8.13a9.5,9.5,0,0,1,6.71,1.8c4.49,3.33,4.86,9.48,4.89,10.14a18.08,18.08,0,0,1,5.43,5.39,22.94,22.94,0,0,1,3.35,9.62C606.53,257.6,606.92,260.12,605.74,261.32Zm-55.51-.08c1.44,1.07,3.86.27,6.52-.84a22.86,22.86,0,0,0,6.43-4.12,29.54,29.54,0,0,0,5.71-7,9,9,0,0,0,5-1,12.16,12.16,0,0,0,5.44-6.44,7.89,7.89,0,0,1-8.39-2.91c-2.13-2.95-2-7.33-.12-9,2.64-2.37,9.45,0,17,6.2a9.53,9.53,0,0,0,5.61-1.37,11.57,11.57,0,0,0,3.72-3.7,12.77,12.77,0,0,0,4.62-.53,14.1,14.1,0,0,0,4.61-2.43,15.78,15.78,0,0,0,9.69.21l-.2.23a14.51,14.51,0,0,1,4-.59H620a11,11,0,0,1,4.32.7,13.56,13.56,0,0,1,2-.48c1.33-.21,1.85-.1,2.24-.2,1.82-.46,3.3-6.16,1.85-11.17a14.87,14.87,0,0,0-9.23-9.72c-6.1-2.2-11.28,1-12.32,1.69a8.57,8.57,0,0,0-4.35-3.17,7.7,7.7,0,0,0-6.34,1.05s0-.14.09-.26a11.32,11.32,0,0,0-1.3,1.24c-2.07,2.34-1.72,4-3,4.57s-2-.71-4.56-.65a7.86,7.86,0,0,0-3.18.8,19.38,19.38,0,0,1-2,1.28,10.75,10.75,0,0,0-1.2,2,11.82,11.82,0,0,0-.91,3l-3.31,1.74q1.29,1.48,2.58,3,2.21,2.59,4.34,5.16a9.52,9.52,0,0,1,5.63,1.56,10.09,10.09,0,0,1,4.1,5.88,15.2,15.2,0,0,1-7.39,1.92c-7.11-.09-11.32-5.8-16.88-4a8.39,8.39,0,0,0-2.46,1.33l-8.14-2.86-1.92,6.73a21.93,21.93,0,0,0-5.44,5.39C549.17,250.44,547.45,259.18,550.23,261.24Zm180.11,80.65c1.78-4.42-.57-8.71-.9-9.3a9.44,9.44,0,0,0-4.35-4l-.9-3.6c4.57-3.79,6-10.16,4-14.36A8.84,8.84,0,0,0,722,306a13.68,13.68,0,0,0-1.27-6.13,11.18,11.18,0,0,0-6-5.71,10,10,0,0,0,6.52-6.76,11.49,11.49,0,0,0-3.81-12,8.32,8.32,0,0,0-7.06-1.27A16.3,16.3,0,0,0,707.7,272a14.69,14.69,0,0,0-3.8-1.69c4.87-4.41,6.38-11.46,4.17-16.27a10.7,10.7,0,0,0-7.43-5.71,9.87,9.87,0,0,0-7.43,1.9l-1.81-3a16.19,16.19,0,0,0,2-11.41c-1.58-7-7.86-9.22-9.23-9.72-6.1-2.19-11.28,1-12.32,1.69a8.62,8.62,0,0,0-4.35-3.17,7.73,7.73,0,0,0-6.34,1.06c.21-.58,2.69-8-.9-13.73-4.08-6.48-12.25-4.73-13.59-4.44a16.57,16.57,0,0,0-8.33,4.86A11.29,11.29,0,0,0,636,211.3a10.6,10.6,0,0,0-4.51-.4c-.62.08-5.08.77-7.28,4.74a9.09,9.09,0,0,0-1.11,3.63c-5.86.1-10.75,2.76-12.37,6.93a9.2,9.2,0,0,0-.55,4.23,11,11,0,0,0-5,1.1,11.67,11.67,0,0,0-2.25,1.43c-3.36,2.77-4,7.82-4.1,8.8a17.93,17.93,0,0,1,4.93,6.36c1.17,2.56,3.24,8.76.64,10.95-2.17,1.84-6.49-.12-8.53-1.44a12.77,12.77,0,0,1-5.1-7.11q-1.21,6-2.42,11.92a20.67,20.67,0,0,0-6,9c-2,5.91-1.79,13.91.73,15.11.88.42,2.07-.39,4.43-2a34.9,34.9,0,0,0,9.24-8.77,40.49,40.49,0,0,0,4.44-7.82,20.08,20.08,0,0,0,3.71-2.85,23.66,23.66,0,0,0,5.16-7.61,31.06,31.06,0,0,0,7-5.91,35.88,35.88,0,0,0,4.71-6.87,11.72,11.72,0,0,0,6.52-3.59,14.61,14.61,0,0,0,3-5,5.38,5.38,0,0,0,5.34.32,6.71,6.71,0,0,0,2.9-3.59,23.31,23.31,0,0,0,8.33-1,10.73,10.73,0,0,0-1.81,2.75,11.7,11.7,0,0,0-.91,3,8.3,8.3,0,0,0-6.34.42c-4.37,2.21-5.42,7.58-5.52,8.14a9.39,9.39,0,0,0-6.7,1.79c-4.5,3.33-4.86,9.49-4.89,10.15a17.92,17.92,0,0,0-5.44,5.38,23.13,23.13,0,0,0-3.35,9.62c-.52,3.35-.91,5.87.27,7.08s3.78.3,6.52-.85a22.63,22.63,0,0,0,6.43-4.12,29.48,29.48,0,0,0,5.71-7,9,9,0,0,0,5-.95,12.06,12.06,0,0,0,5.43-6.45,7.16,7.16,0,0,0,4.53-.84,9.48,9.48,0,0,0,4-4.86,9.48,9.48,0,0,0,5.61-1.38,11.56,11.56,0,0,0,3.72-3.69,13.16,13.16,0,0,0,4.61-.53,14.16,14.16,0,0,0,4.62-2.43,16.28,16.28,0,0,0,4.35.84,15.91,15.91,0,0,0,5.34-.63,21.65,21.65,0,0,0-2.17,2.75,23.85,23.85,0,0,0-2.17,4,10.82,10.82,0,0,0-8.33.32c-5.08,2.38-6.81,7.9-7.07,8.77a16.27,16.27,0,0,0-9.87,4.86c-3.54,3.65-6.8,10.29-5.07,13.1,2,3.26,10.06.25,13.67-1.59a28,28,0,0,0,7.25-5.38,14.47,14.47,0,0,0,9.33.21,16.88,16.88,0,0,0,8.33-6.24,20.77,20.77,0,0,0,10.5-1.16,15.89,15.89,0,0,0,2.63,1.59,14.46,14.46,0,0,0,5.52,1.37,9.55,9.55,0,0,0-2.89,1.8,11.24,11.24,0,0,0-2.09,2.53,8.4,8.4,0,0,0-6.43-1.79c-1.36.27-2.5,1-7.51,6.55-5.36,6-5.45,6.72-5.35,7.29.67,3.6,10.13,4,11.78,4.12a31.08,31.08,0,0,0,7.79-.64,8.7,8.7,0,0,0,5.25,3,8.07,8.07,0,0,0,5.79-1.48,7.51,7.51,0,0,0,1,1.37,6.35,6.35,0,0,0,3.35,1.91,4.73,4.73,0,0,0-1.81,1.26,6.08,6.08,0,0,0-1.36,2.86,7.63,7.63,0,0,0-2.72-1.69c-2.9-1-5.51.3-8.15,1.69-3.67,1.93-5.55,2.92-5.79,4.75-.44,3.31,4.69,7.31,9.14,8.56a13.4,13.4,0,0,0,5.62.32,8.88,8.88,0,0,0,3.08,3.27,7.15,7.15,0,0,0,3.71,1.06,17.38,17.38,0,0,0,1.18,5,14.39,14.39,0,0,0-6.88,1.48c-2.08,1-4.33,2.13-4.71,4.23-.61,3.35,4,6.88,5.25,7.82a16,16,0,0,0,6.52,3,8.6,8.6,0,0,0,.18,3,7.52,7.52,0,0,0,1.81,3.38,10.11,10.11,0,0,0-8-.84c-1.3.45-4.54,1.55-5.25,4.65-.79,3.44,2.16,6.58,2.54,7a8.73,8.73,0,0,0,8.15,2.33,13.53,13.53,0,0,0,.72,3.38,12,12,0,0,0,2.36,4,7.23,7.23,0,0,0-1.81-.42c-4.13-.42-8.87,2.79-8.79,5.54.07,2.38,3.76,4.49,5.53,5.24,2.31,1,4.13.81,4.7,2.32.42,1.1-.26,1.93.19,3.38a4.57,4.57,0,0,0,2.17,2.54c-3.86-.46-7.48.47-8.51,3-1.56,3.75,3,10.58,8,11.63.37.07,4.36.85,6.15-1.91,1.23-1.87.82-4.45.55-6.12a13.6,13.6,0,0,0-2.18-5.5A11.2,11.2,0,0,0,728,373.16a9.15,9.15,0,0,0-4.17-5.49c4.11-2.52,6.25-7.29,5.44-11.2a10.09,10.09,0,0,0-4-5.92,8.18,8.18,0,0,0-2.89-1.27l3.44-2.74A8.47,8.47,0,0,0,730.34,341.89Zm-302.51,5.66,3.45,2.75a8,8,0,0,0-2.9,1.26,10.09,10.09,0,0,0-4,5.92c-.81,3.91,1.33,8.69,5.44,11.2a9.15,9.15,0,0,0-4.17,5.49,11.2,11.2,0,0,0,4.17,11.41,13.67,13.67,0,0,0-2.18,5.5c-.27,1.67-.68,4.25.55,6.13,1.79,2.75,5.78,2,6.15,1.9,5-1.05,9.53-7.88,8-11.62-1-2.48-4.65-3.42-8.51-3A4.57,4.57,0,0,0,436,382c.45-1.45-.23-2.28.19-3.38.57-1.51,2.4-1.35,4.71-2.32,1.76-.75,5.45-2.86,5.52-5.24.08-2.75-4.66-5.95-8.79-5.54a7.23,7.23,0,0,0-1.81.42,12,12,0,0,0,2.36-4,13.53,13.53,0,0,0,.72-3.38,8.73,8.73,0,0,0,8.15-2.33c.38-.39,3.33-3.53,2.54-7-.71-3.1-3.94-4.2-5.25-4.65a10.15,10.15,0,0,0-8,.85,7.59,7.59,0,0,0,1.81-3.38,8.66,8.66,0,0,0,.18-3,16,16,0,0,0,6.52-3c1.24-.94,5.86-4.46,5.25-7.82-.38-2.1-2.63-3.2-4.71-4.23a14.48,14.48,0,0,0-6.88-1.47,18.32,18.32,0,0,0,.82-2.65,17.9,17.9,0,0,0,.36-2.32,7.15,7.15,0,0,0,3.71-1.06,8.81,8.81,0,0,0,3.08-3.27,13.23,13.23,0,0,0,5.62-.32c4.45-1.25,9.59-5.25,9.14-8.56-.24-1.83-2.12-2.82-5.79-4.75-2.64-1.39-5.25-2.71-8.15-1.69a7.63,7.63,0,0,0-2.72,1.69,6,6,0,0,0-1.36-2.85,4.67,4.67,0,0,0-1.81-1.27,6.39,6.39,0,0,0,3.35-1.9,7.42,7.42,0,0,0,1-1.38,8.07,8.07,0,0,0,5.79,1.48,8.77,8.77,0,0,0,5.26-3,30.48,30.48,0,0,0,7.78.64c1.65-.08,11.11-.52,11.78-4.12.1-.57,0-1.33-5.35-7.29-5-5.59-6.15-6.28-7.51-6.55a8.4,8.4,0,0,0-6.43,1.79,11.24,11.24,0,0,0-2.09-2.53,9.55,9.55,0,0,0-2.89-1.8,14.23,14.23,0,0,0,5.52-1.37,15.89,15.89,0,0,0,2.63-1.59,20.77,20.77,0,0,0,10.5,1.16,16.88,16.88,0,0,0,8.33,6.24,14.47,14.47,0,0,0,9.33-.21,28,28,0,0,0,7.25,5.39c3.61,1.84,11.67,4.84,13.67,1.58,1.73-2.81-1.53-9.45-5.07-13.1a16.27,16.27,0,0,0-9.87-4.86c-.26-.87-2-6.39-7.06-8.77a10.84,10.84,0,0,0-8.34-.32,23.85,23.85,0,0,0-2.17-4,21.65,21.65,0,0,0-2.17-2.75A15.65,15.65,0,0,0,480,249a16.28,16.28,0,0,0,4.35-.84,14.16,14.16,0,0,0,4.62,2.43,12.93,12.93,0,0,0,4.61.53,11.57,11.57,0,0,0,3.72,3.7,9.53,9.53,0,0,0,5.61,1.37,9.44,9.44,0,0,0,4,4.86,7.09,7.09,0,0,0,4.53.84,12.06,12.06,0,0,0,5.43,6.45,9,9,0,0,0,5,.95,29.48,29.48,0,0,0,5.71,7,22.63,22.63,0,0,0,6.43,4.12c2.74,1.15,5.21,2.18,6.52.85s.79-3.73.27-7.08a23,23,0,0,0-3.35-9.61,17.86,17.86,0,0,0-5.44-5.39c0-.66-.39-6.82-4.89-10.15a9.39,9.39,0,0,0-6.7-1.79c-.1-.56-1.15-5.93-5.52-8.14a8.3,8.3,0,0,0-6.34-.42,11.82,11.82,0,0,0-.91-3,10.46,10.46,0,0,0-1.81-2.74,23.54,23.54,0,0,0,8.33,1,6.71,6.71,0,0,0,2.9,3.59,5.35,5.35,0,0,0,5.34-.32,14.61,14.61,0,0,0,3,5,11.66,11.66,0,0,0,6.52,3.59,35.57,35.57,0,0,0,4.71,6.87,30.8,30.8,0,0,0,7,5.91,23.66,23.66,0,0,0,5.16,7.61,20.08,20.08,0,0,0,3.71,2.85,41,41,0,0,0,4.44,7.82,34.9,34.9,0,0,0,9.24,8.77c2.36,1.62,3.56,2.43,4.44,2,2.51-1.2,2.71-9.2.72-15.11a20.67,20.67,0,0,0-6-9c.12-.75,1.19-8-3.17-13.1a11.32,11.32,0,0,0-6.07-3.7c0-.78-.07-8.39-5.34-12.68a11.16,11.16,0,0,0-7.24-2.53,9.2,9.2,0,0,0-.55-4.23c-1.62-4.17-6.51-6.83-12.37-6.93a9.25,9.25,0,0,0-1.1-3.63,10.12,10.12,0,0,0-7.29-4.74,10.55,10.55,0,0,0-4.5.4,11.17,11.17,0,0,0-2.36,1.06,16.57,16.57,0,0,0-8.33-4.86c-1.34-.29-9.51-2-13.59,4.44-3.59,5.7-1.11,13.15-.9,13.73a7.7,7.7,0,0,0-6.34-1.05,8.56,8.56,0,0,0-4.35,3.16c-1-.68-6.22-3.88-12.32-1.69-1.37.5-7.65,2.76-9.23,9.72a16.24,16.24,0,0,0,2,11.42l-1.81,2.95a9.87,9.87,0,0,0-7.43-1.9,10.7,10.7,0,0,0-7.43,5.71c-2.2,4.81-.7,11.86,4.17,16.27A15,15,0,0,0,446,273a16.3,16.3,0,0,0-2.72,2.11,8.32,8.32,0,0,0-7.06,1.27,11.49,11.49,0,0,0-3.81,12,10.1,10.1,0,0,0,6.52,6.77,11.1,11.1,0,0,0-6,5.7,13.68,13.68,0,0,0-1.27,6.13,8.84,8.84,0,0,0-6.16,4.65c-2,4.2-.59,10.57,4,14.37l-.9,3.59a9.44,9.44,0,0,0-4.35,4c-.33.59-2.68,4.88-.9,9.3A8.47,8.47,0,0,0,427.83,347.55Z" fill="#42210b"/><path d="M498.39,229.78a8.15,8.15,0,0,1,6.23,1.69A10.09,10.09,0,0,1,498.39,229.78Zm30.52,30.5c.05-.25,1-4.91-1.91-8.35a6.85,6.85,0,0,0-7.6-2.22,11.72,11.72,0,0,0-2.72-5.28c-3.89-4.12-9.33-2.48-9.78-2.32a10.45,10.45,0,0,0-2.45-5.18c-2.62-2.83-6.87-3.32-10.77-1.27.05-3.27-1.09-4.75-1.45-5.17-2.33-2.69-7.68-2.29-12.41,2.32-.41-.63-2.74-4.12-6.61-4.44-5.5-.44-8.64,5.94-8.88,6.45-.1.21-.19.41-.27.62h0a16.67,16.67,0,0,0,.83,6,13.56,13.56,0,0,0,4.7.21,14.58,14.58,0,0,0,6.8-2.85,14,14,0,0,0,4.8,2.74,13.51,13.51,0,0,0,10.05-.84,13.44,13.44,0,0,0,4.89,5.39,10.7,10.7,0,0,0,7.88,1.26,15.69,15.69,0,0,0,4.44,5.81,12.43,12.43,0,0,0,6.88,2.75,11.89,11.89,0,0,0,3.62,4.33,9.68,9.68,0,0,0,6.61,1.8,18,18,0,0,0,2.72,6c3,4.26,8.39,7.24,10.66,5.91a22.34,22.34,0,0,0-2.34-6.71A15.69,15.69,0,0,0,528.91,260.28Zm40.91-32.12a3.57,3.57,0,0,1,.84-.24,5.66,5.66,0,0,1,2.16-3.22,6.43,6.43,0,0,1,1.08-2.83,9.24,9.24,0,0,0-1.76.36,10.46,10.46,0,0,0-2.45-5.17c-2.62-2.83-6.87-3.33-10.77-1.27.05-3.28-1.09-4.76-1.45-5.18-2.33-2.69-7.68-2.29-12.41,2.33-.41-.64-2.74-4.12-6.61-4.44-5.5-.45-8.63,5.94-8.88,6.44-.1.21-.19.41-.27.63h0a16.79,16.79,0,0,0,.83,6,13.36,13.36,0,0,0,4.71.21,14.54,14.54,0,0,0,6.79-2.85,14,14,0,0,0,4.8,2.75,13.49,13.49,0,0,0,10.05-.85,13.39,13.39,0,0,0,4.89,5.39,10.77,10.77,0,0,0,7.88,1.27C569.42,227.69,569.62,227.92,569.82,228.16Zm-7,36.66a13.67,13.67,0,0,0-.18-9.95c-4.16,4.39-8,6.45-9.94,5.25-1-.62-1.21-1.95-1.41-3.24-.8-5.09,1.51-9.49,2.87-11.64,0-.31.14-6.25-4.57-9.37a10.15,10.15,0,0,0-7.51-1.37c.29-4.21-1.53-8.21-4.62-10.14-4.23-2.66-8.44,0-8.7.21,0-3.83-2-7.27-4.89-8.77-3.23-1.66-7.09-.63-9.51,2.54-.36-.86-2.32-5.25-6.7-6.77a9.43,9.43,0,0,0-11.14,3.81,11.19,11.19,0,0,0-.92,1.79,10.27,10.27,0,0,0,.93,4.71c2.43,5,9.79,7,16.31,2.11a14.33,14.33,0,0,0,5.34,5,11.82,11.82,0,0,0,5.79,1.37,13.35,13.35,0,0,0,5.35,6.55,10.15,10.15,0,0,0,6.43,1.38,13.49,13.49,0,0,0,3.53,9,9.49,9.49,0,0,0,6.7,2.85,28.82,28.82,0,0,0,4.8,8.66,24.17,24.17,0,0,0,4.44,4.23,22.8,22.8,0,0,0,5.25,10.46c1,1,5.55,6,8.31,4.27a3.07,3.07,0,0,0,1-1.1,15.49,15.49,0,0,0-1.39-6.4A11.14,11.14,0,0,0,562.87,264.82Zm6.31-29.74a4.29,4.29,0,0,0-1.66-.28,4.55,4.55,0,0,1-1.64-.12c-1.68-.44-2-1.57-2.7-1.44-1.23.23-2,3.95-1.36,7.06v0a15.64,15.64,0,0,0-7.7,7,22.45,22.45,0,0,0-2.34,6.7c2.27,1.34,7.62-1.65,10.66-5.91a18,18,0,0,0,2.72-6,9.66,9.66,0,0,0,4.11-.49,6.23,6.23,0,0,0,2.5-1.3,4.39,4.39,0,0,0,.66-.92C572.36,239,571.65,236,569.18,235.08ZM435.68,369.67a7.24,7.24,0,0,0-2.65,2.81,4.24,4.24,0,0,0-4.37,1.58,3.86,3.86,0,0,0,1.51,2.6c1.65,1,4.63-.17,5.92-3.66a14.88,14.88,0,0,0,5-3.38l.33-.34A6.48,6.48,0,0,0,435.68,369.67Zm-1.45,19.72a3.29,3.29,0,0,0-.84,1.69,2.87,2.87,0,0,0-3.52-.48,3.14,3.14,0,0,0,1,1.28,2.75,2.75,0,0,0,3.87-1,3.73,3.73,0,0,0,.38-2.07A2.58,2.58,0,0,0,434.23,389.39Zm4.71-41.14c-2.93,1.18-4.38,4.1-4.83,5.07a5.66,5.66,0,0,0-6.45,2.56,4.44,4.44,0,0,0,1.18,2.75c1.74,1.72,4.47.55,5.8-.42,2.61-1.92,3-5.43,3-5.92a26.27,26.27,0,0,0,4.95-2.25c.86-.51,1.78-1.05,2.59-1.6A8.16,8.16,0,0,0,438.94,348.25Zm-2.77-20.7a9.4,9.4,0,0,0-2.54,3.66,7,7,0,0,0-6.94,3.2,5.61,5.61,0,0,0,1.79,3.94c1.83,1.52,4.33.93,5.91-.43a5.59,5.59,0,0,0,1.18-1.42.16.16,0,0,0,.05-.08,7.59,7.59,0,0,0,.95-4.7,12.8,12.8,0,0,0,7.49-3,19.65,19.65,0,0,0,2.05-1.94C444.27,325.22,439.38,324.8,436.17,327.55ZM459.71,277a6.7,6.7,0,0,0-3.8,1.8,7.65,7.65,0,0,0-4.71-3.28c-4.1-.74-6.9,3.06-7.06,3.28a6.56,6.56,0,0,0-7.52,1.06,8.34,8.34,0,0,0-1.54,2,.15.15,0,0,1,0,.06c.51,3.77,4,6.58,7.24,5.92,2.72-.55,4.12-3.34,4.35-3.81a9.11,9.11,0,0,0,6,1.8,9.28,9.28,0,0,0,5.16-2.11,30.6,30.6,0,0,0,8.24.1,35.43,35.43,0,0,0,4.3-.7c-1.14-1-2.77-2.16-4.76-3.58C462.33,277.17,461,276.86,459.71,277ZM499,267.25a14.34,14.34,0,0,0-7.34-2.53,12.11,12.11,0,0,0-4.07-5.81,9.79,9.79,0,0,0-9.69-.85c-1.45-3.65-4.43-6.13-7.79-6.44-4.53-.44-7.46,3.26-7.79,3.69-2.11-2.93-5.08-4.35-7.7-3.59s-3.81,3.19-4.53,4.54a12.55,12.55,0,0,0-.64,1.41,18.38,18.38,0,0,0,.2,4.15,13.69,13.69,0,0,0,6.43,1.05,14.19,14.19,0,0,0,6.16-2,15.05,15.05,0,0,0,4.89,2.53,14,14,0,0,0,8.51-.21,12.1,12.1,0,0,0,5.44,4.86,10.41,10.41,0,0,0,9-.63,24.27,24.27,0,0,0,5.35,4.12c2.82,1.58,7.22,3.21,9.66,2.89A19.76,19.76,0,0,0,499,267.25ZM446.76,301a6.83,6.83,0,0,0-1.66,1.45,7.08,7.08,0,0,0-6.85-1.14,8.75,8.75,0,0,0-5,7.19,7.45,7.45,0,0,0-5.69,3.93c.12,2.77,1.32,5.62,3.62,6.37s4.56-.73,5.87-2.87h0a4,4,0,0,0,.33-.61,7.71,7.71,0,0,0,.32-.73,8.09,8.09,0,0,0,.27-4,8.06,8.06,0,0,0,6.7-2.22,9.89,9.89,0,0,0,2.35-3.8,7.6,7.6,0,0,0,5.44.42,9.53,9.53,0,0,0,3.87-2.45C454.74,300.3,450,299,446.76,301Zm268.9,8.55a8.09,8.09,0,0,0,.27,4c.1.24.2.49.32.73a4,4,0,0,0,.33.61h0c1.31,2.13,3.68,3.6,5.88,2.87s3.49-3.6,3.61-6.37a7.45,7.45,0,0,0-5.69-3.93,8.73,8.73,0,0,0-5-7.19,7.05,7.05,0,0,0-6.85,1.14,7.08,7.08,0,0,0-1.66-1.46c-3.23-2-8-.65-9.59,1.52a9.59,9.59,0,0,0,3.87,2.45,7.6,7.6,0,0,0,5.44-.42,9.89,9.89,0,0,0,2.35,3.8A8.06,8.06,0,0,0,715.66,309.51Zm1.42,21.2a7.59,7.59,0,0,0,.95,4.7.22.22,0,0,0,.05.08,5.59,5.59,0,0,0,1.18,1.42c1.58,1.36,4.08,1.95,5.91.42A5.57,5.57,0,0,0,727,333.4a7,7,0,0,0-6.94-3.2,9.5,9.5,0,0,0-2.54-3.67c-3.21-2.74-8.1-2.32-9.94-.71a18.51,18.51,0,0,0,2.06,1.94A12.75,12.75,0,0,0,717.08,330.71Zm3.18,59.36a3.29,3.29,0,0,0-.84-1.69,2.58,2.58,0,0,0-.91-.57,3.74,3.74,0,0,0,.38,2.07,2.75,2.75,0,0,0,3.87,1,3.14,3.14,0,0,0,1-1.28A2.87,2.87,0,0,0,720.26,390.07Zm-.72-37.76c-.45-1-1.9-3.89-4.83-5.07a8.16,8.16,0,0,0-6.26.19c.81.55,1.73,1.09,2.59,1.6a26,26,0,0,0,5,2.25c0,.49.4,4,3,5.92,1.33,1,4.06,2.13,5.8.42a4.44,4.44,0,0,0,1.18-2.75A5.65,5.65,0,0,0,719.54,352.31ZM599.26,243.88a17.18,17.18,0,0,0-2.89-2.33,15.78,15.78,0,0,0-2.22-1.14c.05-.25,1-4.91-1.9-8.35a7,7,0,0,0-5.86-2.58,15.23,15.23,0,0,0-7.5-8,13.74,13.74,0,0,0-6.1-1.2l-3.16,7a8.58,8.58,0,0,0,1.87,4.08c3.06,3.56,8,2.83,8.45,2.76.29.81.58,1.62.88,2.43a11.72,11.72,0,0,0,3.36,3.85,9.62,9.62,0,0,0,6.62,1.79,32.44,32.44,0,0,0,2.71,6,33,33,0,0,0,9.82,10.55,2.28,2.28,0,0,0,.61-.65,2.81,2.81,0,0,0,.4-1.4,17.42,17.42,0,0,0-.37-5A18.07,18.07,0,0,0,599.26,243.88ZM720.62,371.47a7.32,7.32,0,0,0-2.65-2.82,6.51,6.51,0,0,0-5.69-.38l.33.34a14.9,14.9,0,0,0,5,3.38c1.28,3.49,4.26,4.71,5.91,3.66a3.86,3.86,0,0,0,1.51-2.6A4.23,4.23,0,0,0,720.62,371.47Zm-63.54-157.1a9.42,9.42,0,0,0-11.14-3.81c-4.38,1.52-6.34,5.91-6.7,6.76-2.42-3.17-6.28-4.19-9.51-2.53a8.37,8.37,0,0,0-3.1,2.85,16.74,16.74,0,0,0,0-2.15h0c-.08-.21-.17-.41-.27-.62-.24-.51-3.38-6.89-8.88-6.45-3.87.32-6.2,3.81-6.61,4.44-4.73-4.61-10.08-5-12.41-2.32-.36.42-1.49,1.9-1.44,5.17-3.91-2-8.16-1.56-10.78,1.27a10.49,10.49,0,0,0-2.45,5.18c-.09,0-.39-.12-.83-.22a6.55,6.55,0,0,1,1.1,3.54,5.71,5.71,0,0,1,2.07,3c.23-.42.41-.8.55-1.1a10.77,10.77,0,0,0,7.88-1.27,13.31,13.31,0,0,0,4.89-5.39,13.51,13.51,0,0,0,10,.84,14,14,0,0,0,4.8-2.74,14.58,14.58,0,0,0,6.8,2.85,13.46,13.46,0,0,0,3.9-.06,11.19,11.19,0,0,0-.2,1.94c-.26-.18-4.47-2.87-8.7-.21-3.09,1.93-4.91,5.92-4.62,10.14a9.21,9.21,0,0,0-7.51,1.37,12.63,12.63,0,0,0-4.75,9c.27.27.53.56.79.87a19.69,19.69,0,0,1,1.8,2.63c.77,1.38,2.2,5.87,2.89,12.14a13.77,13.77,0,0,1-4.92-.45,15.51,15.51,0,0,1-8.62-6.66c-.14.37-.33.89-.52,1.53a21.5,21.5,0,0,0-.71,3,18.34,18.34,0,0,0,.81,6.9,11.14,11.14,0,0,0-5.61,5.39,15.49,15.49,0,0,0-1.39,6.4,3.16,3.16,0,0,0,1,1.1c2.76,1.69,7.36-3.25,8.31-4.27A22.8,22.8,0,0,0,598.38,262a11.17,11.17,0,0,0,5.75-2.9c4-3.81,3.56-9.25,3.49-10a9.49,9.49,0,0,0,6.7-2.85,13.49,13.49,0,0,0,3.53-9,10.21,10.21,0,0,0,6.43-1.38,13.35,13.35,0,0,0,5.35-6.55,11.93,11.93,0,0,0,5.79-1.37,14.46,14.46,0,0,0,5.35-5c6.51,4.89,13.87,2.84,16.3-2.11a10.27,10.27,0,0,0,.93-4.71A11.19,11.19,0,0,0,657.08,214.37ZM649,230.46a10.07,10.07,0,0,0,6.23-1.69A8.15,8.15,0,0,0,649,230.46Zm8.49,14.6a13.37,13.37,0,0,0,4.89-5.38,13.51,13.51,0,0,0,10.05.84,13.85,13.85,0,0,0,4.8-2.75,14.58,14.58,0,0,0,6.8,2.86,13.89,13.89,0,0,0,4.71-.21,17,17,0,0,0,.82-6h0c-.08-.21-.17-.41-.27-.62-.24-.51-3.38-6.89-8.88-6.45-3.87.32-6.2,3.8-6.61,4.44-4.73-4.61-10.08-5-12.41-2.33-.36.43-1.49,1.91-1.44,5.18-3.91-2.05-8.16-1.56-10.78,1.27a10.45,10.45,0,0,0-2.45,5.18c-.45-.16-5.89-1.8-9.78,2.32a11.67,11.67,0,0,0-2.72,5.28,6.85,6.85,0,0,0-7.6,2.22c-2.9,3.44-1.95,8.1-1.9,8.35a15.65,15.65,0,0,0-7.7,7,22.65,22.65,0,0,0-2.34,6.7c2.27,1.34,7.62-1.64,10.66-5.9a18,18,0,0,0,2.72-6,9.68,9.68,0,0,0,6.61-1.8,11.89,11.89,0,0,0,3.62-4.33,12.4,12.4,0,0,0,6.88-2.75,15.69,15.69,0,0,0,4.44-5.81A10.67,10.67,0,0,0,657.52,245.06ZM707,283c.23.47,1.63,3.26,4.35,3.81,3.23.65,6.73-2.15,7.24-5.92a.15.15,0,0,1,0-.06,8.76,8.76,0,0,0-1.54-2,6.58,6.58,0,0,0-7.52-1.05c-.16-.23-3-4-7.06-3.28a7.65,7.65,0,0,0-4.71,3.28,6.64,6.64,0,0,0-3.8-1.8c-1.26-.12-2.62.2-5.89,2.54-2,1.42-3.62,2.58-4.76,3.58a37.5,37.5,0,0,0,4.3.7,31,31,0,0,0,8.24-.1,9.32,9.32,0,0,0,5.16,2.11A9.11,9.11,0,0,0,707,283Zm-15.58-23.13a14.19,14.19,0,0,0,6.16,2,13.69,13.69,0,0,0,6.43-1.05,18.38,18.38,0,0,0,.2-4.15,12.55,12.55,0,0,0-.64-1.41c-.72-1.35-2-3.81-4.53-4.54s-5.59.66-7.7,3.59c-.33-.43-3.26-4.13-7.79-3.7-3.36.32-6.34,2.8-7.79,6.45a9.81,9.81,0,0,0-9.69.84,12.18,12.18,0,0,0-4.07,5.82,14.34,14.34,0,0,0-7.34,2.53,19.82,19.82,0,0,0-6.14,7.17c2.44.33,6.84-1.3,9.66-2.88a24.27,24.27,0,0,0,5.35-4.12,10.41,10.41,0,0,0,9,.63,12.16,12.16,0,0,0,5.44-4.86,14,14,0,0,0,8.51.21A15.05,15.05,0,0,0,691.39,259.86Z" fill="#fff" opacity="0.5" style="mix-blend-mode:overlay"/><path d="M562.11,254.45c-3.32,3.58-8,5.7-9.71,3.94-.81-.83-.91-2.5-.6-4.39a22.43,22.43,0,0,1,2.32-6.7l.36-.62h0a16.27,16.27,0,0,0-.33-3.3c-.28.37-.56.76-.84,1.18a23.09,23.09,0,0,0-3.35,9.61c-.52,3.36-.91,5.87.27,7.08s3.78.3,6.52-.84a22.74,22.74,0,0,0,6.15-3.87A11.79,11.79,0,0,0,562.11,254.45Zm43.91-.2a23.12,23.12,0,0,0-3.36-9.62,18.71,18.71,0,0,0-2.87-3.42,17.54,17.54,0,0,0-1.37-1.14,20.74,20.74,0,0,0-.57,2.53,16.17,16.17,0,0,1,1.41,1.28,15.65,15.65,0,0,1,2.58,3.5,22.28,22.28,0,0,1,2.34,6.7c.3,1.89.2,3.56-.62,4.39-2,2-7.81-1.07-11-5.6a5.13,5.13,0,0,1-.34-.52,11.18,11.18,0,0,0-1.14,2.3c.64.68,1.24,1.25,1.76,1.71a22.9,22.9,0,0,0,6.42,4.12c1.9.79,3.67,1.53,5,1.46h0a27,27,0,0,0,2.28-3.45A38.46,38.46,0,0,0,606,254.25ZM592.34,229.1a9.5,9.5,0,0,0-6.71-1.8,13.71,13.71,0,0,0-2.25-5.28,10.74,10.74,0,0,0-5.52.09,8.76,8.76,0,0,1,4.06,2.45,11.67,11.67,0,0,1,2.72,5.28,6.86,6.86,0,0,1,7.61,2.22l0,.05a10.75,10.75,0,0,0,2.27-.75A10.31,10.31,0,0,0,592.34,229.1ZM572.69,238a15.8,15.8,0,0,1-4.45-5.82,10.76,10.76,0,0,1-4.67,0,8.74,8.74,0,0,0-1.37,2.51l.34.22a9.57,9.57,0,0,0,5.61,1.38,9.48,9.48,0,0,0,4,4.86,7.12,7.12,0,0,0,3.44.91,12,12,0,0,0,.83-1.42,10.35,10.35,0,0,0,1.37-.18A12.67,12.67,0,0,1,572.69,238Zm-42.11-17.7a9.35,9.35,0,0,0-1.12-3.63c-.11-.2-.22-.38-.34-.56a14.38,14.38,0,0,0-.84,5.14v0a11,11,0,0,1,.54,3.32c.25-.18,4.46-2.87,8.69-.21a6.34,6.34,0,0,1,.89.65,13.56,13.56,0,0,0,2.06-1.29A15.19,15.19,0,0,0,530.58,220.28Zm24.86,21.58a14.65,14.65,0,0,0-4.71-7.89,11.17,11.17,0,0,0-7.25-2.53,10,10,0,0,0-.05-2.35,15.55,15.55,0,0,1-2.25-.3,12.34,12.34,0,0,1,.94,5.71,9.25,9.25,0,0,1,7.53,1.37,12.15,12.15,0,0,1,4.5,7.5,16.27,16.27,0,0,1,.33,3.3c.13-.21.26-.41.4-.6a3,3,0,0,1,.32-.47q.36-.51.75-1A20.1,20.1,0,0,0,555.44,241.86Zm0,0a14.65,14.65,0,0,0-4.71-7.89,11.17,11.17,0,0,0-7.25-2.53,10,10,0,0,0-.05-2.35,15.55,15.55,0,0,1-2.25-.3,12.34,12.34,0,0,1,.94,5.71,9.25,9.25,0,0,1,7.53,1.37,12.15,12.15,0,0,1,4.5,7.5,16.27,16.27,0,0,1,.33,3.3c.13-.21.26-.41.4-.6a3,3,0,0,1,.32-.47q.36-.51.75-1A20.1,20.1,0,0,0,555.44,241.86Zm0,0a14.65,14.65,0,0,0-4.71-7.89,11.17,11.17,0,0,0-7.25-2.53,10,10,0,0,0-.05-2.35,15.55,15.55,0,0,1-2.25-.3,12.34,12.34,0,0,1,.94,5.71,9.25,9.25,0,0,1,7.53,1.37,12.15,12.15,0,0,1,4.5,7.5,16.27,16.27,0,0,1,.33,3.3c.13-.21.26-.41.4-.6a3,3,0,0,1,.32-.47q.36-.51.75-1A20.1,20.1,0,0,0,555.44,241.86Zm0,0a14.65,14.65,0,0,0-4.71-7.89,11.17,11.17,0,0,0-7.25-2.53,10,10,0,0,0-.05-2.35,15.55,15.55,0,0,1-2.25-.3,12.34,12.34,0,0,1,.94,5.71,9.25,9.25,0,0,1,7.53,1.37,12.15,12.15,0,0,1,4.5,7.5,16.27,16.27,0,0,1,.33,3.3c.13-.21.26-.41.4-.6a3,3,0,0,1,.32-.47q.36-.51.75-1A20.1,20.1,0,0,0,555.44,241.86Zm0,0a14.65,14.65,0,0,0-4.71-7.89,11.17,11.17,0,0,0-7.25-2.53,10,10,0,0,0-.05-2.35,15.55,15.55,0,0,1-2.25-.3,12.34,12.34,0,0,1,.94,5.71,9.25,9.25,0,0,1,7.53,1.37,12.15,12.15,0,0,1,4.5,7.5,16.27,16.27,0,0,1,.33,3.3c.13-.21.26-.41.4-.6a3,3,0,0,1,.32-.47q.36-.51.75-1A20.1,20.1,0,0,0,555.44,241.86Zm0,0a14.65,14.65,0,0,0-4.71-7.89,11.17,11.17,0,0,0-7.25-2.53,10,10,0,0,0-.05-2.35,15.55,15.55,0,0,1-2.25-.3,12.34,12.34,0,0,1,.94,5.71,9.25,9.25,0,0,1,7.53,1.37,12.15,12.15,0,0,1,4.5,7.5,16.27,16.27,0,0,1,.33,3.3c.13-.21.26-.41.4-.6a3,3,0,0,1,.32-.47q.36-.51.75-1A20.1,20.1,0,0,0,555.44,241.86Zm0,0a14.65,14.65,0,0,0-4.71-7.89,11.17,11.17,0,0,0-7.25-2.53,10,10,0,0,0-.05-2.35,15.55,15.55,0,0,1-2.25-.3,12.34,12.34,0,0,1,.94,5.71,9.25,9.25,0,0,1,7.53,1.37,12.15,12.15,0,0,1,4.5,7.5,16.27,16.27,0,0,1,.33,3.3c.13-.21.26-.41.4-.6a3,3,0,0,1,.32-.47q.36-.51.75-1A20.1,20.1,0,0,0,555.44,241.86Zm0,0a14.65,14.65,0,0,0-4.71-7.89,11.17,11.17,0,0,0-7.25-2.53,10,10,0,0,0-.05-2.35,15.55,15.55,0,0,1-2.25-.3,12.34,12.34,0,0,1,.94,5.71,9.25,9.25,0,0,1,7.53,1.37,12.15,12.15,0,0,1,4.5,7.5,16.27,16.27,0,0,1,.33,3.3c.13-.21.26-.41.4-.6a3,3,0,0,1,.32-.47q.36-.51.75-1A20.1,20.1,0,0,0,555.44,241.86Zm0,0a14.65,14.65,0,0,0-4.71-7.89,11.17,11.17,0,0,0-7.25-2.53,10,10,0,0,0-.05-2.35,15.55,15.55,0,0,1-2.25-.3,12.34,12.34,0,0,1,.94,5.71,9.25,9.25,0,0,1,7.53,1.37,12.15,12.15,0,0,1,4.5,7.5,16.27,16.27,0,0,1,.33,3.3c.13-.21.26-.41.4-.6a3,3,0,0,1,.32-.47q.36-.51.75-1A20.1,20.1,0,0,0,555.44,241.86Zm0,0a14.65,14.65,0,0,0-4.71-7.89,11.17,11.17,0,0,0-7.25-2.53,10,10,0,0,0-.05-2.35,15.55,15.55,0,0,1-2.25-.3,12.34,12.34,0,0,1,.94,5.71,9.25,9.25,0,0,1,7.53,1.37,12.15,12.15,0,0,1,4.5,7.5,16.27,16.27,0,0,1,.33,3.3c.13-.21.26-.41.4-.6a3,3,0,0,1,.32-.47q.36-.51.75-1A20.1,20.1,0,0,0,555.44,241.86Zm0,0a14.65,14.65,0,0,0-4.71-7.89,11.17,11.17,0,0,0-7.25-2.53,10,10,0,0,0-.05-2.35,15.55,15.55,0,0,1-2.25-.3,12.34,12.34,0,0,1,.94,5.71,9.25,9.25,0,0,1,7.53,1.37,12.15,12.15,0,0,1,4.5,7.5,16.27,16.27,0,0,1,.33,3.3c.13-.21.26-.41.4-.6a3,3,0,0,1,.32-.47q.36-.51.75-1A20.1,20.1,0,0,0,555.44,241.86Zm0,0a14.65,14.65,0,0,0-4.71-7.89,11.17,11.17,0,0,0-7.25-2.53,10,10,0,0,0-.05-2.35,15.55,15.55,0,0,1-2.25-.3,12.34,12.34,0,0,1,.94,5.71,9.25,9.25,0,0,1,7.53,1.37,12.15,12.15,0,0,1,4.5,7.5,16.27,16.27,0,0,1,.33,3.3c.13-.21.26-.41.4-.6a3,3,0,0,1,.32-.47q.36-.51.75-1A20.1,20.1,0,0,0,555.44,241.86Zm0,0a14.65,14.65,0,0,0-4.71-7.89,11.17,11.17,0,0,0-7.25-2.53,10,10,0,0,0-.05-2.35,15.55,15.55,0,0,1-2.25-.3,12.34,12.34,0,0,1,.94,5.71,9.25,9.25,0,0,1,7.53,1.37,12.15,12.15,0,0,1,4.5,7.5,16.27,16.27,0,0,1,.33,3.3c.13-.21.26-.41.4-.6a3,3,0,0,1,.32-.47q.36-.51.75-1A20.1,20.1,0,0,0,555.44,241.86Zm15.85,30.57a20.67,20.67,0,0,0-6-9,19.66,19.66,0,0,0-.66-8.58,13.37,13.37,0,0,0-1-2.35,2.11,2.11,0,0,1-.18.27,18,18,0,0,1-1.34,1.66c-3.32,3.58-8,5.7-9.71,3.94-.81-.83-.91-2.5-.6-4.39a22.43,22.43,0,0,1,2.32-6.7l.36-.62h0c.13-.21.26-.41.4-.6a3.55,3.55,0,0,1,.32-.47q.36-.51.75-1a20.1,20.1,0,0,0-.51-2.78,14.65,14.65,0,0,0-4.71-7.89,11.17,11.17,0,0,0-7.25-2.53,10,10,0,0,0-.05-2.35,8.5,8.5,0,0,0-.48-1.88,9,9,0,0,0-2.49-3.49,15.19,15.19,0,0,0-9.88-3.44,9.35,9.35,0,0,0-1.12-3.63c-.11-.2-.22-.38-.34-.56a8.56,8.56,0,0,0-2.25-2.31,10.85,10.85,0,0,0-4.69-1.87,10.55,10.55,0,0,0-4.5.4,10.93,10.93,0,0,0-2.36,1.06,16.57,16.57,0,0,0-8.33-4.86c-1.34-.29-9.51-2-13.58,4.44-3.6,5.7-1.12,13.15-.91,13.73a7.7,7.7,0,0,0-6.34-1.05,8.56,8.56,0,0,0-4.35,3.16c-1.05-.68-6.21-3.88-12.31-1.69-1.38.5-7.65,2.76-9.24,9.72a16.24,16.24,0,0,0,2,11.42c-.61,1-1.21,2-1.81,2.95a9.84,9.84,0,0,0-7.42-1.9,10.67,10.67,0,0,0-7.44,5.71c-2.21,4.81-.7,11.86,4.17,16.27A15,15,0,0,0,446,273a16.73,16.73,0,0,0-2.72,2.11,8.31,8.31,0,0,0-7.06,1.27,11.51,11.51,0,0,0-3.81,12,10.11,10.11,0,0,0,6.53,6.77,11.08,11.08,0,0,0-6,5.7,14,14,0,0,0-1.27,6.13,8.82,8.82,0,0,0-6.16,4.65c-2,4.2-.59,10.57,4,14.37-.3,1.19-.61,2.39-.91,3.59a9.44,9.44,0,0,0-4.35,4c-.33.59-2.68,4.88-.91,9.3a8.49,8.49,0,0,0,4.54,4.65l3.44,2.75a8.08,8.08,0,0,0-2.91,1.26,10.06,10.06,0,0,0-4,5.92c-.81,3.91,1.32,8.69,5.43,11.2a9.23,9.23,0,0,0-4.17,5.49,11.2,11.2,0,0,0,4.17,11.41,13.67,13.67,0,0,0-2.18,5.5c-.26,1.67-.68,4.25.55,6.13,1.8,2.75,5.78,2,6.15,1.9,5-1.05,9.53-7.88,8-11.62-1-2.48-4.66-3.42-8.52-3A4.62,4.62,0,0,0,436,382c.44-1.45-.24-2.28.18-3.38.57-1.51,2.39-1.35,4.7-2.32,1.77-.75,5.45-2.86,5.53-5.24.08-2.75-4.66-5.95-8.78-5.54a7.1,7.1,0,0,0-1.82.42,12,12,0,0,0,2.35-4,13.7,13.7,0,0,0,.74-3.38,8.73,8.73,0,0,0,8.15-2.33c.37-.39,3.32-3.53,2.53-7-.72-3.1-3.94-4.2-5.25-4.65a10.15,10.15,0,0,0-8,.85,7.6,7.6,0,0,0,1.8-3.38,8,8,0,0,0,.19-3,16,16,0,0,0,6.52-3c1.24-.94,5.86-4.46,5.25-7.82-.38-2.1-2.62-3.2-4.71-4.23a14.46,14.46,0,0,0-6.87-1.47,18,18,0,0,0,1.17-5,7.15,7.15,0,0,0,3.71-1.06,8.81,8.81,0,0,0,3.08-3.27,13.23,13.23,0,0,0,5.62-.32c4.44-1.25,9.58-5.25,9.14-8.56-.24-1.83-2.12-2.82-5.79-4.75-2.64-1.39-5.25-2.71-8.15-1.69a7.63,7.63,0,0,0-2.72,1.69,5.91,5.91,0,0,0-1.36-2.85,4.67,4.67,0,0,0-1.81-1.27,6.39,6.39,0,0,0,3.35-1.9,7.91,7.91,0,0,0,1-1.38,8.07,8.07,0,0,0,5.79,1.48,8.81,8.81,0,0,0,5.26-3,30.48,30.48,0,0,0,7.78.64c1.65-.08,11.11-.52,11.78-4.12.1-.57,0-1.33-5.35-7.29-5-5.59-6.15-6.28-7.51-6.55a8.4,8.4,0,0,0-6.43,1.79,11,11,0,0,0-2.09-2.53,9.55,9.55,0,0,0-2.89-1.8,14.27,14.27,0,0,0,5.52-1.37,16.32,16.32,0,0,0,2.63-1.59,20.77,20.77,0,0,0,10.5,1.16,16.88,16.88,0,0,0,8.33,6.24,14.47,14.47,0,0,0,9.33-.21,28.1,28.1,0,0,0,7.24,5.39c3.62,1.84,11.67,4.84,13.68,1.58,1.73-2.81-1.53-9.45-5.07-13.1a16.27,16.27,0,0,0-9.87-4.86c-.26-.87-2-6.39-7.06-8.77a10.81,10.81,0,0,0-8.33-.32,24.72,24.72,0,0,0-2.18-4,22.58,22.58,0,0,0-2.17-2.75A15.69,15.69,0,0,0,480,249a16.28,16.28,0,0,0,4.35-.84,14.1,14.1,0,0,0,4.61,2.43,13,13,0,0,0,4.62.53,11.57,11.57,0,0,0,3.72,3.7,9.53,9.53,0,0,0,5.61,1.37,9.44,9.44,0,0,0,4,4.86,7.08,7.08,0,0,0,4.52.84,12.19,12.19,0,0,0,5.44,6.45,9,9,0,0,0,5,.95,29.24,29.24,0,0,0,5.71,7,22.77,22.77,0,0,0,6.43,4.12c2.74,1.15,5.21,2.18,6.51.85s.8-3.73.28-7.08a22.94,22.94,0,0,0-3.36-9.61,17.74,17.74,0,0,0-5.43-5.39c0-.66-.39-6.82-4.88-10.15a9.43,9.43,0,0,0-6.71-1.79c-.1-.56-1.15-5.93-5.53-8.14a8.28,8.28,0,0,0-6.33-.42,11.82,11.82,0,0,0-.91-3,10.72,10.72,0,0,0-1.81-2.74,23.54,23.54,0,0,0,8.33,1,6.71,6.71,0,0,0,2.9,3.59,5.38,5.38,0,0,0,5.35-.32,14.45,14.45,0,0,0,3,5,11.64,11.64,0,0,0,6.51,3.59,35.57,35.57,0,0,0,4.71,6.87,30.8,30.8,0,0,0,7,5.91,23.66,23.66,0,0,0,5.16,7.61,20.08,20.08,0,0,0,3.71,2.85,41.58,41.58,0,0,0,4.44,7.82,34.9,34.9,0,0,0,9.24,8.77c2.36,1.62,3.56,2.43,4.44,2C573.08,286.34,573.28,278.34,571.29,272.43Zm-137,117a2.38,2.38,0,0,1,.9-.57c1.3-.47,2.93.09,3.2,1s-.81,2.15-1.45,2.68a3.74,3.74,0,0,1-2.78.84,3.66,3.66,0,0,1-.36,2.26,2.73,2.73,0,0,1-3.86,1,4,4,0,0,1-.61-5.49,2.44,2.44,0,0,1,.59-.48,2.87,2.87,0,0,1,3.52.48A3.16,3.16,0,0,1,434.24,389.39Zm7.13-20.11a1.76,1.76,0,0,1,1.07,1.09c.32,1.14-1.13,2.63-2.41,3.94a14.84,14.84,0,0,1-4.95,3.39c-1.29,3.48-4.26,4.7-5.91,3.66s-2.15-4.08-1.1-6.34a5.73,5.73,0,0,1,.59-1,4.22,4.22,0,0,1,4.36-1.58,7.35,7.35,0,0,1,2.66-2.81A6.48,6.48,0,0,1,441.37,369.28Zm-2.42-21a8.14,8.14,0,0,1,6.25.19h0c.9.45,1.5,1,1.58,1.64.19,1.48-2.72,3.2-5.19,4.65a25.53,25.53,0,0,1-5,2.26c0,.49-.4,4-3,5.91-1.33,1-4.05,2.14-5.79.43s-1.45-5.2-.25-7.33l.07-.12a5.66,5.66,0,0,1,6.45-2.56A9.83,9.83,0,0,1,439,348.25Zm7.16-21.42a2,2,0,0,1,.68,1c.57,2-3,5-3.74,5.63a12.78,12.78,0,0,1-7.43,3h-.05v.08a7.19,7.19,0,0,1-2.18,6.12c-1.58,1.36-4.09,1.95-5.92.42-2.05-1.7-2.12-5.09-1.45-7.18a7.65,7.65,0,0,1,.66-1.45,7,7,0,0,1,6.95-3.2,9.4,9.4,0,0,1,2.54-3.66C439.38,324.8,444.27,325.22,446.11,326.83Zm-1-24.42a6.83,6.83,0,0,1,1.66-1.45c3.24-2,8-.66,9.59,1.51a2.56,2.56,0,0,1,.55,1.23c.34,2.21-2.65,5-5.43,5.92a7.62,7.62,0,0,1-5.43-.42,10,10,0,0,1-2.36,3.8,8.1,8.1,0,0,1-6.28,2.27l-.42,0c0,.19.07.4.09.66h0a7.81,7.81,0,0,1-.36,3.34c-1,2.82-3.88,5.1-6.52,4.23-3-1-4.1-5.49-3.44-8.77a8.41,8.41,0,0,1,.83-2.3,7.47,7.47,0,0,1,5.69-3.93,8.75,8.75,0,0,1,5-7.19A7.08,7.08,0,0,1,445.1,302.41Zm10.81-23.64a6.7,6.7,0,0,1,3.8-1.8c1.26-.11,2.62.2,5.89,2.54,2,1.42,3.63,2.58,4.76,3.58s1.92,2,1.76,2.86c-.33,1.72-3.91,2.15-7.07,2.54a30.45,30.45,0,0,1-8.23-.11,9.27,9.27,0,0,1-5.16,2.12,9.14,9.14,0,0,1-6-1.8c-.24.47-1.63,3.25-4.35,3.8-3.23.66-6.73-2.14-7.25-5.91a7.58,7.58,0,0,1,1-4.76,8.07,8.07,0,0,1,1.54-2,6.55,6.55,0,0,1,7.51-1.06c.17-.22,3-4,7.07-3.28A7.68,7.68,0,0,1,455.91,278.77Zm22-20.71c.55-.26,5.32-2.36,9.68.85a12.08,12.08,0,0,1,4.08,5.81,14.31,14.31,0,0,1,7.34,2.53,19.64,19.64,0,0,1,6.13,7.18c.76,1.59,1,3,.57,3.81-1.22,2.18-7.54.06-11.23-2a23.87,23.87,0,0,1-5.34-4.12,10.42,10.42,0,0,1-9.06.64,12.12,12.12,0,0,1-5.43-4.86,14.16,14.16,0,0,1-8.51.21,15,15,0,0,1-4.9-2.54,14,14,0,0,1-6.15,2,13.74,13.74,0,0,1-6.43-1.06,17.16,17.16,0,0,1,.8-8.84,12.55,12.55,0,0,1,.64-1.41c.72-1.35,2-3.81,4.53-4.54s5.59.66,7.7,3.59c.33-.43,3.26-4.13,7.78-3.69C473.49,251.93,476.47,254.41,477.92,258.06Zm29-15.95c.45-.16,5.89-1.8,9.78,2.32a11.72,11.72,0,0,1,2.72,5.28,6.85,6.85,0,0,1,7.6,2.22c2.9,3.44,2,8.1,1.9,8.35a15.61,15.61,0,0,1,7.7,7,22.34,22.34,0,0,1,2.34,6.71c.3,1.89.19,3.55-.62,4.39-2,2-7.81-1.07-11.05-5.6a17.94,17.94,0,0,1-2.71-6,9.63,9.63,0,0,1-6.62-1.79,11.85,11.85,0,0,1-3.61-4.33,12.61,12.61,0,0,1-6.89-2.75A15.92,15.92,0,0,1,503,252a10.75,10.75,0,0,1-7.87-1.27,13.36,13.36,0,0,1-4.9-5.39,13.49,13.49,0,0,1-10.05.85,14,14,0,0,1-4.8-2.75,14.54,14.54,0,0,1-6.79,2.85,13.36,13.36,0,0,1-4.71-.21,15.92,15.92,0,0,1,.18-10.67h0c.08-.21.17-.41.27-.62.24-.51,3.38-6.89,8.88-6.45,3.87.32,6.2,3.81,6.61,4.44,4.73-4.61,10.08-5,12.41-2.32.36.42,1.5,1.9,1.44,5.17,3.91-2,8.16-1.56,10.78,1.27A10.45,10.45,0,0,1,506.9,242.11Zm60.93,40.3c-2.77,1.69-7.37-3.25-8.31-4.27a22.94,22.94,0,0,1-5.26-10.46,25.56,25.56,0,0,1-4.44-4.23,28.65,28.65,0,0,1-4.79-8.66,9.48,9.48,0,0,1-6.71-2.86,13.45,13.45,0,0,1-3.52-9,10.21,10.21,0,0,1-6.44-1.37A13.25,13.25,0,0,1,523,235a12,12,0,0,1-5.8-1.38,14.71,14.71,0,0,1-5.35-5,13.17,13.17,0,0,1-7.25,2.78,10.07,10.07,0,0,1-6.23-1.69h0a8.3,8.3,0,0,1-2.8-3.2,11.76,11.76,0,0,1,.07-9.41,11.19,11.19,0,0,1,.92-1.79,9.43,9.43,0,0,1,11.14-3.81c4.38,1.52,6.34,5.91,6.7,6.77,2.42-3.17,6.29-4.2,9.51-2.54a7.23,7.23,0,0,1,1.59,1.09,9.6,9.6,0,0,1,2.77,4.34v0a11,11,0,0,1,.54,3.32c.25-.18,4.46-2.87,8.69-.21a6.34,6.34,0,0,1,.89.65,9.94,9.94,0,0,1,2.78,3.78,12.34,12.34,0,0,1,.94,5.71,9.25,9.25,0,0,1,7.53,1.37,12.15,12.15,0,0,1,4.5,7.5c-.28.37-.56.76-.84,1.18a23.09,23.09,0,0,0-3.35,9.61c-.52,3.36-.91,5.87.27,7.08s3.78.3,6.52-.84a22.74,22.74,0,0,0,6.15-3.87,16.14,16.14,0,0,1,0,8.29,11.19,11.19,0,0,1,5.62,5.39,15.8,15.8,0,0,1,1.38,6.4C569.88,279.25,569.2,281.57,567.83,282.41Zm-12.39-40.55a14.65,14.65,0,0,0-4.71-7.89,11.17,11.17,0,0,0-7.25-2.53,10,10,0,0,0-.05-2.35,15.55,15.55,0,0,1-2.25-.3,12.34,12.34,0,0,1,.94,5.71,9.25,9.25,0,0,1,7.53,1.37,12.15,12.15,0,0,1,4.5,7.5,16.27,16.27,0,0,1,.33,3.3c.13-.21.26-.41.4-.6a3,3,0,0,1,.32-.47q.36-.51.75-1A20.1,20.1,0,0,0,555.44,241.86Zm0,0a14.65,14.65,0,0,0-4.71-7.89,11.17,11.17,0,0,0-7.25-2.53,10,10,0,0,0-.05-2.35,15.55,15.55,0,0,1-2.25-.3,12.34,12.34,0,0,1,.94,5.71,9.25,9.25,0,0,1,7.53,1.37,12.15,12.15,0,0,1,4.5,7.5,16.27,16.27,0,0,1,.33,3.3c.13-.21.26-.41.4-.6a3,3,0,0,1,.32-.47q.36-.51.75-1A20.1,20.1,0,0,0,555.44,241.86Zm0,0a14.65,14.65,0,0,0-4.71-7.89,11.17,11.17,0,0,0-7.25-2.53,10,10,0,0,0-.05-2.35,15.55,15.55,0,0,1-2.25-.3,12.34,12.34,0,0,1,.94,5.71,9.25,9.25,0,0,1,7.53,1.37,12.15,12.15,0,0,1,4.5,7.5,16.27,16.27,0,0,1,.33,3.3c.13-.21.26-.41.4-.6a3,3,0,0,1,.32-.47q.36-.51.75-1A20.1,20.1,0,0,0,555.44,241.86Zm0,0a14.65,14.65,0,0,0-4.71-7.89,11.17,11.17,0,0,0-7.25-2.53,10,10,0,0,0-.05-2.35,15.55,15.55,0,0,1-2.25-.3,12.34,12.34,0,0,1,.94,5.71,9.25,9.25,0,0,1,7.53,1.37,12.15,12.15,0,0,1,4.5,7.5,16.27,16.27,0,0,1,.33,3.3c.13-.21.26-.41.4-.6a3,3,0,0,1,.32-.47q.36-.51.75-1A20.1,20.1,0,0,0,555.44,241.86Zm0,0a14.65,14.65,0,0,0-4.71-7.89,11.17,11.17,0,0,0-7.25-2.53,10,10,0,0,0-.05-2.35,15.55,15.55,0,0,1-2.25-.3,12.34,12.34,0,0,1,.94,5.71,9.25,9.25,0,0,1,7.53,1.37,12.15,12.15,0,0,1,4.5,7.5,16.27,16.27,0,0,1,.33,3.3c.13-.21.26-.41.4-.6a3,3,0,0,1,.32-.47q.36-.51.75-1A20.1,20.1,0,0,0,555.44,241.86Zm0,0a14.65,14.65,0,0,0-4.71-7.89,11.17,11.17,0,0,0-7.25-2.53,10,10,0,0,0-.05-2.35,15.55,15.55,0,0,1-2.25-.3,12.34,12.34,0,0,1,.94,5.71,9.25,9.25,0,0,1,7.53,1.37,12.15,12.15,0,0,1,4.5,7.5,16.27,16.27,0,0,1,.33,3.3c.13-.21.26-.41.4-.6a3,3,0,0,1,.32-.47q.36-.51.75-1A20.1,20.1,0,0,0,555.44,241.86Zm0,0a14.65,14.65,0,0,0-4.71-7.89,11.17,11.17,0,0,0-7.25-2.53,10,10,0,0,0-.05-2.35,15.55,15.55,0,0,1-2.25-.3,12.34,12.34,0,0,1,.94,5.71,9.25,9.25,0,0,1,7.53,1.37,12.15,12.15,0,0,1,4.5,7.5,16.27,16.27,0,0,1,.33,3.3c.13-.21.26-.41.4-.6a3,3,0,0,1,.32-.47q.36-.51.75-1A20.1,20.1,0,0,0,555.44,241.86Zm0,0a14.65,14.65,0,0,0-4.71-7.89,11.17,11.17,0,0,0-7.25-2.53,10,10,0,0,0-.05-2.35,15.55,15.55,0,0,1-2.25-.3,12.34,12.34,0,0,1,.94,5.71,9.25,9.25,0,0,1,7.53,1.37,12.15,12.15,0,0,1,4.5,7.5,16.27,16.27,0,0,1,.33,3.3c.13-.21.26-.41.4-.6a3,3,0,0,1,.32-.47q.36-.51.75-1A20.1,20.1,0,0,0,555.44,241.86Zm0,0a14.65,14.65,0,0,0-4.71-7.89,11.17,11.17,0,0,0-7.25-2.53,10,10,0,0,0-.05-2.35,15.55,15.55,0,0,1-2.25-.3,12.34,12.34,0,0,1,.94,5.71,9.25,9.25,0,0,1,7.53,1.37,12.15,12.15,0,0,1,4.5,7.5,16.27,16.27,0,0,1,.33,3.3c.13-.21.26-.41.4-.6a3,3,0,0,1,.32-.47q.36-.51.75-1A20.1,20.1,0,0,0,555.44,241.86Zm0,0a14.65,14.65,0,0,0-4.71-7.89,11.17,11.17,0,0,0-7.25-2.53,10,10,0,0,0-.05-2.35,15.55,15.55,0,0,1-2.25-.3,12.34,12.34,0,0,1,.94,5.71,9.25,9.25,0,0,1,7.53,1.37,12.15,12.15,0,0,1,4.5,7.5,16.27,16.27,0,0,1,.33,3.3c.13-.21.26-.41.4-.6a3,3,0,0,1,.32-.47q.36-.51.75-1A20.1,20.1,0,0,0,555.44,241.86Zm0,0a14.65,14.65,0,0,0-4.71-7.89,11.17,11.17,0,0,0-7.25-2.53,10,10,0,0,0-.05-2.35,15.55,15.55,0,0,1-2.25-.3,12.34,12.34,0,0,1,.94,5.71,9.25,9.25,0,0,1,7.53,1.37,12.15,12.15,0,0,1,4.5,7.5,16.27,16.27,0,0,1,.33,3.3c.13-.21.26-.41.4-.6a3,3,0,0,1,.32-.47q.36-.51.75-1A20.1,20.1,0,0,0,555.44,241.86Zm0,0a14.65,14.65,0,0,0-4.71-7.89,11.17,11.17,0,0,0-7.25-2.53,10,10,0,0,0-.05-2.35,15.55,15.55,0,0,1-2.25-.3,12.34,12.34,0,0,1,.94,5.71,9.25,9.25,0,0,1,7.53,1.37,12.15,12.15,0,0,1,4.5,7.5,16.27,16.27,0,0,1,.33,3.3c.13-.21.26-.41.4-.6a3.55,3.55,0,0,1,.32-.47q.36-.51.75-1A20.1,20.1,0,0,0,555.44,241.86Zm59.91-18.34a13.9,13.9,0,0,1-4.65,2.7,8.71,8.71,0,0,0-.57,2.75,10.48,10.48,0,0,0,0,1.46,11.17,11.17,0,0,0-7.25,2.53,14.42,14.42,0,0,0-4.5,7.11,17.54,17.54,0,0,1,1.37,1.14,11.71,11.71,0,0,1,4.21-6.35,9.25,9.25,0,0,1,7.53-1.37A12.43,12.43,0,0,1,612,229a10.26,10.26,0,0,1,3.59-5.32Zm0,0a13.9,13.9,0,0,1-4.65,2.7,8.71,8.71,0,0,0-.57,2.75,10.48,10.48,0,0,0,0,1.46,11.17,11.17,0,0,0-7.25,2.53,14.42,14.42,0,0,0-4.5,7.11,17.54,17.54,0,0,1,1.37,1.14,11.71,11.71,0,0,1,4.21-6.35,9.25,9.25,0,0,1,7.53-1.37A12.43,12.43,0,0,1,612,229a10.26,10.26,0,0,1,3.59-5.32Zm0,0a13.9,13.9,0,0,1-4.65,2.7,8.71,8.71,0,0,0-.57,2.75,10.48,10.48,0,0,0,0,1.46,11.17,11.17,0,0,0-7.25,2.53,14.42,14.42,0,0,0-4.5,7.11,17.54,17.54,0,0,1,1.37,1.14,11.71,11.71,0,0,1,4.21-6.35,9.25,9.25,0,0,1,7.53-1.37A12.43,12.43,0,0,1,612,229a10.26,10.26,0,0,1,3.59-5.32Zm0,0a13.9,13.9,0,0,1-4.65,2.7,8.71,8.71,0,0,0-.57,2.75,10.48,10.48,0,0,0,0,1.46,11.17,11.17,0,0,0-7.25,2.53,14.42,14.42,0,0,0-4.5,7.11,17.54,17.54,0,0,1,1.37,1.14,11.71,11.71,0,0,1,4.21-6.35,9.25,9.25,0,0,1,7.53-1.37A12.43,12.43,0,0,1,612,229a10.26,10.26,0,0,1,3.59-5.32Zm0,0a13.9,13.9,0,0,1-4.65,2.7,8.71,8.71,0,0,0-.57,2.75,10.48,10.48,0,0,0,0,1.46,11.17,11.17,0,0,0-7.25,2.53,14.42,14.42,0,0,0-4.5,7.11,17.54,17.54,0,0,1,1.37,1.14,11.71,11.71,0,0,1,4.21-6.35,9.25,9.25,0,0,1,7.53-1.37A12.43,12.43,0,0,1,612,229a10.26,10.26,0,0,1,3.59-5.32Zm0,0a13.9,13.9,0,0,1-4.65,2.7,8.71,8.71,0,0,0-.57,2.75,10.48,10.48,0,0,0,0,1.46,11.17,11.17,0,0,0-7.25,2.53,14.42,14.42,0,0,0-4.5,7.11,17.54,17.54,0,0,1,1.37,1.14,11.71,11.71,0,0,1,4.21-6.35,9.25,9.25,0,0,1,7.53-1.37A12.43,12.43,0,0,1,612,229a10.26,10.26,0,0,1,3.59-5.32Zm115,118.37c1.78-4.42-.58-8.71-.91-9.3a9.44,9.44,0,0,0-4.35-4l-.91-3.6c4.58-3.79,6-10.16,4-14.36A8.82,8.82,0,0,0,722,306a14,14,0,0,0-1.27-6.13,11.16,11.16,0,0,0-6-5.71,10,10,0,0,0,6.53-6.76,11.53,11.53,0,0,0-3.8-12,8.34,8.34,0,0,0-7.07-1.27A16.73,16.73,0,0,0,707.7,272a14.69,14.69,0,0,0-3.8-1.69c4.87-4.41,6.38-11.46,4.17-16.27a10.67,10.67,0,0,0-7.44-5.71,9.84,9.84,0,0,0-7.42,1.9l-1.81-3a16.19,16.19,0,0,0,2-11.41c-1.58-7-7.86-9.22-9.23-9.72-6.11-2.19-11.27,1-12.32,1.69a8.62,8.62,0,0,0-4.35-3.17,7.74,7.74,0,0,0-6.34,1.06c.21-.58,2.69-8-.91-13.73-4.07-6.48-12.24-4.73-13.58-4.44a16.57,16.57,0,0,0-8.33,4.86A10.93,10.93,0,0,0,636,211.3a10.55,10.55,0,0,0-4.5-.4A10.73,10.73,0,0,0,628,212a9.46,9.46,0,0,0-2.26,1.61c.39.63.62,1.09.68,1.21s.19.41.27.62h0a13.11,13.11,0,0,1,.49,1.41,7.87,7.87,0,0,1,2.52-2.08h0l.05,0c3.22-1.66,7.09-.64,9.51,2.53.36-.85,2.32-5.24,6.7-6.76a9.42,9.42,0,0,1,11.14,3.81,12.12,12.12,0,0,1,.93,1.79,11.8,11.8,0,0,1,.06,9.41,8.3,8.3,0,0,1-2.8,3.2h0a10.07,10.07,0,0,1-6.23,1.69,13.25,13.25,0,0,1-7.25-2.78,14.71,14.71,0,0,1-5.35,5,12,12,0,0,1-5.8,1.38,13.25,13.25,0,0,1-5.34,6.55,10.21,10.21,0,0,1-6.44,1.37,13.46,13.46,0,0,1-3.52,9,9.45,9.45,0,0,1-6.71,2.85,29,29,0,0,1-2.11,4.72,38.46,38.46,0,0,0-.49-4.24,23.12,23.12,0,0,0-3.36-9.62,18.71,18.71,0,0,0-2.87-3.42,11.71,11.71,0,0,1,4.21-6.35,9.25,9.25,0,0,1,7.53-1.37A12.43,12.43,0,0,1,612,229a10.26,10.26,0,0,1,3.59-5.32l-.25-.19a13.9,13.9,0,0,1-4.65,2.7l-.15.05a13.59,13.59,0,0,1-10.06-.84,13.32,13.32,0,0,1-4.88,5.38,10.58,10.58,0,0,1-1.05.55,10.75,10.75,0,0,1-2.27.75,8.48,8.48,0,0,1,1.43,2.53,10.29,10.29,0,0,0,1.88-1.55,11.44,11.44,0,0,0,1.54-2,12.73,12.73,0,0,0,4.62-.53,14.23,14.23,0,0,0,4.63-2.43,15.56,15.56,0,0,0,3.74.8,10.48,10.48,0,0,0,0,1.46,11.17,11.17,0,0,0-7.25,2.53,14.42,14.42,0,0,0-4.5,7.11,20.74,20.74,0,0,0-.57,2.53,16.17,16.17,0,0,1,1.41,1.28,15.65,15.65,0,0,1,2.58,3.5,22.28,22.28,0,0,1,2.34,6.7c.3,1.89.2,3.56-.62,4.39-2,2-7.81-1.07-11-5.6a5.13,5.13,0,0,1-.34-.52,15.14,15.14,0,0,1-1.25-2.27,12.93,12.93,0,0,0-1.51,2.7,19.23,19.23,0,0,0-1.07,9.66,20.67,20.67,0,0,0-6,9c-2,5.91-1.79,13.91.72,15.11.88.42,2.08-.39,4.44-2a34.9,34.9,0,0,0,9.24-8.77,41.58,41.58,0,0,0,4.44-7.82,20.08,20.08,0,0,0,3.71-2.85,23.66,23.66,0,0,0,5.16-7.61,31.06,31.06,0,0,0,7-5.91,35.88,35.88,0,0,0,4.71-6.87,11.68,11.68,0,0,0,6.51-3.59,14.45,14.45,0,0,0,3-5,5.4,5.4,0,0,0,5.35.32,6.71,6.71,0,0,0,2.9-3.59,23.31,23.31,0,0,0,8.33-1,11,11,0,0,0-1.81,2.75,11.62,11.62,0,0,0-.9,3,8.3,8.3,0,0,0-6.34.42c-4.38,2.21-5.43,7.58-5.53,8.14a9.43,9.43,0,0,0-6.71,1.79c-4.49,3.33-4.85,9.49-4.88,10.15a17.8,17.8,0,0,0-5.43,5.38,23,23,0,0,0-3.36,9.62c-.52,3.35-.91,5.87.28,7.08s3.77.3,6.51-.85a22.77,22.77,0,0,0,6.43-4.12,29.24,29.24,0,0,0,5.71-7,9,9,0,0,0,5-.95,12.19,12.19,0,0,0,5.44-6.45,7.14,7.14,0,0,0,4.52-.84,9.48,9.48,0,0,0,4-4.86,9.48,9.48,0,0,0,5.61-1.38,11.56,11.56,0,0,0,3.72-3.69,13.23,13.23,0,0,0,4.62-.53,14.1,14.1,0,0,0,4.61-2.43,16.28,16.28,0,0,0,4.35.84,15.94,15.94,0,0,0,5.34-.63,22.58,22.58,0,0,0-2.17,2.75,24.72,24.72,0,0,0-2.18,4,10.79,10.79,0,0,0-8.32.32c-5.08,2.38-6.81,7.9-7.06,8.77a16.26,16.26,0,0,0-9.88,4.86c-3.54,3.65-6.8,10.29-5.07,13.1,2,3.26,10.06.25,13.68-1.59a28.1,28.1,0,0,0,7.24-5.38,14.47,14.47,0,0,0,9.33.21,16.88,16.88,0,0,0,8.33-6.24,20.77,20.77,0,0,0,10.5-1.16,16.32,16.32,0,0,0,2.63,1.59,14.46,14.46,0,0,0,5.52,1.37,9.55,9.55,0,0,0-2.89,1.8,11,11,0,0,0-2.09,2.53,8.4,8.4,0,0,0-6.43-1.79c-1.36.27-2.5,1-7.51,6.55-5.36,6-5.45,6.72-5.35,7.29.67,3.6,10.14,4,11.78,4.12a30.9,30.9,0,0,0,7.78-.64,8.81,8.81,0,0,0,5.26,3,8.07,8.07,0,0,0,5.79-1.48,7.51,7.51,0,0,0,1,1.37,6.35,6.35,0,0,0,3.35,1.91,4.73,4.73,0,0,0-1.81,1.26,5.84,5.84,0,0,0-1.35,2.86,7.78,7.78,0,0,0-2.73-1.69c-2.9-1-5.51.3-8.15,1.69-3.67,1.93-5.55,2.92-5.79,4.75-.44,3.31,4.7,7.31,9.14,8.56a13.4,13.4,0,0,0,5.62.32,8.88,8.88,0,0,0,3.08,3.27,7.15,7.15,0,0,0,3.71,1.06,19.81,19.81,0,0,0,.36,2.32,17.77,17.77,0,0,0,.82,2.64,14.39,14.39,0,0,0-6.88,1.48c-2.09,1-4.33,2.13-4.71,4.23-.61,3.35,4,6.88,5.25,7.82a16,16,0,0,0,6.52,3,8,8,0,0,0,.19,3,7.54,7.54,0,0,0,1.8,3.38,10.11,10.11,0,0,0-8-.84c-1.31.45-4.53,1.55-5.25,4.65-.79,3.44,2.16,6.58,2.53,7a8.73,8.73,0,0,0,8.15,2.33,13.7,13.7,0,0,0,.74,3.38,12,12,0,0,0,2.35,4,7.1,7.1,0,0,0-1.82-.42c-4.12-.42-8.86,2.79-8.77,5.54.07,2.38,3.75,4.49,5.52,5.24,2.31,1,4.13.81,4.71,2.32.41,1.1-.27,1.93.17,3.38a4.62,4.62,0,0,0,2.18,2.54c-3.86-.46-7.48.47-8.52,3-1.55,3.75,3,10.58,8,11.63.37.07,4.35.85,6.15-1.91,1.23-1.87.81-4.45.55-6.12a13.6,13.6,0,0,0-2.18-5.5A11.2,11.2,0,0,0,728,373.16a9.23,9.23,0,0,0-4.17-5.49c4.11-2.52,6.24-7.29,5.44-11.2a10.12,10.12,0,0,0-4-5.92,8.32,8.32,0,0,0-2.91-1.27l3.44-2.74A8.49,8.49,0,0,0,730.35,341.89ZM603.83,262.44a24.74,24.74,0,0,1-4.44,4.22,22.85,22.85,0,0,1-5.26,10.46c-.94,1-5.54,6-8.31,4.28-1.37-.84-2.05-3.16-2-5.8a15.8,15.8,0,0,1,1.38-6.4,11.19,11.19,0,0,1,5.62-5.39,15.87,15.87,0,0,1,.25-9.16c.64.68,1.24,1.25,1.76,1.71a22.9,22.9,0,0,0,6.42,4.12c1.9.79,3.67,1.53,5,1.46C604.1,262.11,604,262.27,603.83,262.44Zm74.44-20a14.21,14.21,0,0,1-4.8,2.75,13.49,13.49,0,0,1-10.05-.85,13.36,13.36,0,0,1-4.9,5.39,10.75,10.75,0,0,1-7.87,1.27,15.92,15.92,0,0,1-4.44,5.81,12.61,12.61,0,0,1-6.89,2.75,11.85,11.85,0,0,1-3.61,4.33,9.63,9.63,0,0,1-6.62,1.79,17.94,17.94,0,0,1-2.71,6c-3.24,4.53-9.08,7.61-11,5.6-.81-.84-.92-2.51-.62-4.4a22.37,22.37,0,0,1,2.34-6.7,15.61,15.61,0,0,1,7.7-7c0-.25-1-4.91,1.9-8.35a6.85,6.85,0,0,1,7.6-2.22,11.67,11.67,0,0,1,2.72-5.28c3.89-4.12,9.33-2.48,9.78-2.32a10.45,10.45,0,0,1,2.45-5.18c2.62-2.83,6.87-3.32,10.78-1.27-.05-3.27,1.08-4.75,1.44-5.18,2.33-2.68,7.68-2.28,12.41,2.33.41-.64,2.74-4.12,6.61-4.44,5.5-.44,8.64,5.94,8.88,6.45.1.21.19.41.27.62h0a15.92,15.92,0,0,1,.18,10.67,13.36,13.36,0,0,1-4.71.21A14.54,14.54,0,0,1,678.27,242.47Zm20.28,24.09a14,14,0,0,1-6.15-2,15,15,0,0,1-4.9,2.54,14.16,14.16,0,0,1-8.51-.21,12.12,12.12,0,0,1-5.43,4.86,10.46,10.46,0,0,1-9.06-.64,23.87,23.87,0,0,1-5.34,4.12c-3.69,2.07-10,4.19-11.23,2-.45-.82-.19-2.22.57-3.82a19.69,19.69,0,0,1,6.13-7.17,14.31,14.31,0,0,1,7.34-2.53,12.14,12.14,0,0,1,4.08-5.82c4.36-3.2,9.13-1.1,9.68-.84,1.45-3.65,4.43-6.13,7.8-6.45,4.52-.43,7.45,3.27,7.78,3.7,2.11-2.93,5.08-4.35,7.7-3.59s3.81,3.19,4.53,4.54a12.55,12.55,0,0,1,.64,1.41,17.16,17.16,0,0,1,.8,8.84A13.74,13.74,0,0,1,698.55,266.56ZM708,287.69a9.11,9.11,0,0,1-6,1.8,9.35,9.35,0,0,1-5.17-2.12,30.86,30.86,0,0,1-8.23.11c-3.16-.39-6.73-.82-7.07-2.54-.16-.83.48-1.75,1.76-2.86s2.77-2.16,4.76-3.58c3.27-2.34,4.63-2.66,5.89-2.54a6.64,6.64,0,0,1,3.8,1.8,7.68,7.68,0,0,1,4.71-3.28c4.1-.74,6.9,3,7.07,3.28a6.56,6.56,0,0,1,7.51,1.05,8.46,8.46,0,0,1,1.54,2,7.51,7.51,0,0,1,1,4.76c-.52,3.76-4,6.57-7.25,5.91C709.6,290.94,708.21,288.16,708,287.69Zm2,24.3a10,10,0,0,1-2.36-3.8,7.68,7.68,0,0,1-5.43.42c-2.78-.88-5.77-3.71-5.43-5.92a2.56,2.56,0,0,1,.55-1.23c1.61-2.17,6.35-3.49,9.59-1.52a7.08,7.08,0,0,1,1.66,1.46,7.05,7.05,0,0,1,6.85-1.14,8.73,8.73,0,0,1,5,7.19,7.45,7.45,0,0,1,5.69,3.93,8.77,8.77,0,0,1,.84,2.3c.65,3.28-.47,7.78-3.45,8.77-2.64.87-5.52-1.41-6.52-4.23a7.82,7.82,0,0,1-.36-3.34h0c0-.26.06-.47.09-.66l-.42.05A8.1,8.1,0,0,1,710,312Zm14.4,78.08a4,4,0,0,1-.61,5.49,2.73,2.73,0,0,1-3.86-1,3.62,3.62,0,0,1-.36-2.25,3.79,3.79,0,0,1-2.78-.84c-.63-.53-1.72-1.78-1.45-2.68s1.9-1.46,3.2-1a2.38,2.38,0,0,1,.9.57,3.16,3.16,0,0,1,.85,1.69,2.87,2.87,0,0,1,3.52-.48A2.22,2.22,0,0,1,724.37,390.07Zm.62-17a5.73,5.73,0,0,1,.59,1c1,2.26.46,5.36-1.1,6.34s-4.62-.18-5.91-3.67a14.63,14.63,0,0,1-5-3.38c-1.28-1.31-2.73-2.8-2.41-3.94a1.76,1.76,0,0,1,1.07-1.09,6.51,6.51,0,0,1,5.69.38,7.36,7.36,0,0,1,2.66,2.82A4.22,4.22,0,0,1,725,373.05Zm1-18.18.07.12c1.2,2.13,1.47,5.64-.25,7.33s-4.46.55-5.79-.43c-2.62-1.91-3-5.42-3-5.91a25.53,25.53,0,0,1-5-2.26c-2.47-1.45-5.38-3.17-5.19-4.65.08-.61.68-1.19,1.58-1.64h0a8.14,8.14,0,0,1,6.25-.19,9.83,9.83,0,0,1,4.84,5.07A5.65,5.65,0,0,1,726,354.87Zm-5.73-13.26a7.19,7.19,0,0,1-2.18-6.12s0-.06,0-.08H718a12.78,12.78,0,0,1-7.43-3c-.73-.61-4.31-3.59-3.74-5.63a2,2,0,0,1,.68-1c1.84-1.61,6.73-2,10,.71A9.57,9.57,0,0,1,720,330.2a7,7,0,0,1,7,3.2,7.07,7.07,0,0,1,.66,1.45c.67,2.09.6,5.48-1.45,7.18C724.35,343.56,721.84,343,720.26,341.61ZM615.35,223.52a13.9,13.9,0,0,1-4.65,2.7,8.71,8.71,0,0,0-.57,2.75,10.48,10.48,0,0,0,0,1.46,11.17,11.17,0,0,0-7.25,2.53,14.42,14.42,0,0,0-4.5,7.11,17.54,17.54,0,0,1,1.37,1.14,11.71,11.71,0,0,1,4.21-6.35,9.25,9.25,0,0,1,7.53-1.37A12.43,12.43,0,0,1,612,229a10.26,10.26,0,0,1,3.59-5.32Zm0,0a13.9,13.9,0,0,1-4.65,2.7,8.71,8.71,0,0,0-.57,2.75,10.48,10.48,0,0,0,0,1.46,11.17,11.17,0,0,0-7.25,2.53,14.42,14.42,0,0,0-4.5,7.11,17.54,17.54,0,0,1,1.37,1.14,11.71,11.71,0,0,1,4.21-6.35,9.25,9.25,0,0,1,7.53-1.37A12.43,12.43,0,0,1,612,229a10.26,10.26,0,0,1,3.59-5.32Zm0,0a13.9,13.9,0,0,1-4.65,2.7,8.71,8.71,0,0,0-.57,2.75,10.48,10.48,0,0,0,0,1.46,11.17,11.17,0,0,0-7.25,2.53,14.42,14.42,0,0,0-4.5,7.11,17.54,17.54,0,0,1,1.37,1.14,11.71,11.71,0,0,1,4.21-6.35,9.25,9.25,0,0,1,7.53-1.37A12.43,12.43,0,0,1,612,229a10.26,10.26,0,0,1,3.59-5.32Zm0,0a13.9,13.9,0,0,1-4.65,2.7,8.71,8.71,0,0,0-.57,2.75,10.48,10.48,0,0,0,0,1.46,11.17,11.17,0,0,0-7.25,2.53,14.42,14.42,0,0,0-4.5,7.11,17.54,17.54,0,0,1,1.37,1.14,11.71,11.71,0,0,1,4.21-6.35,9.25,9.25,0,0,1,7.53-1.37A12.43,12.43,0,0,1,612,229a10.26,10.26,0,0,1,3.59-5.32Zm0,0a13.9,13.9,0,0,1-4.65,2.7,8.71,8.71,0,0,0-.57,2.75,10.48,10.48,0,0,0,0,1.46,11.17,11.17,0,0,0-7.25,2.53,14.42,14.42,0,0,0-4.5,7.11,17.54,17.54,0,0,1,1.37,1.14,11.71,11.71,0,0,1,4.21-6.35,9.25,9.25,0,0,1,7.53-1.37A12.43,12.43,0,0,1,612,229a10.26,10.26,0,0,1,3.59-5.32Zm0,0a13.9,13.9,0,0,1-4.65,2.7,8.71,8.71,0,0,0-.57,2.75,10.48,10.48,0,0,0,0,1.46,11.17,11.17,0,0,0-7.25,2.53,14.42,14.42,0,0,0-4.5,7.11,17.54,17.54,0,0,1,1.37,1.14,11.71,11.71,0,0,1,4.21-6.35,9.25,9.25,0,0,1,7.53-1.37A12.43,12.43,0,0,1,612,229a10.26,10.26,0,0,1,3.59-5.32ZM562.2,234.69a10.32,10.32,0,0,1-1.88-1.58,16.35,16.35,0,0,0-1.58,6,18.16,18.16,0,0,0-3.3,2.7,20.1,20.1,0,0,1,.51,2.78,15.7,15.7,0,0,1,5.87-4.32A11.62,11.62,0,0,1,562.2,234.69Zm48.35-8.42a13.59,13.59,0,0,1-10.06-.84,13.32,13.32,0,0,1-4.88,5.38,10.58,10.58,0,0,1-1.05.55,10.75,10.75,0,0,1-2.27.75,8.48,8.48,0,0,1,1.43,2.53,10.29,10.29,0,0,0,1.88-1.55,11.44,11.44,0,0,0,1.54-2,12.73,12.73,0,0,0,4.62-.53,14.23,14.23,0,0,0,4.63-2.43,15.56,15.56,0,0,0,3.74.8,8.71,8.71,0,0,1,.57-2.75Zm-48.35,8.42a10.32,10.32,0,0,1-1.88-1.58,16.35,16.35,0,0,0-1.58,6,18.16,18.16,0,0,0-3.3,2.7,20.1,20.1,0,0,1,.51,2.78,15.7,15.7,0,0,1,5.87-4.32A11.62,11.62,0,0,1,562.2,234.69Zm48.35-8.42a13.59,13.59,0,0,1-10.06-.84,13.32,13.32,0,0,1-4.88,5.38,10.58,10.58,0,0,1-1.05.55,10.75,10.75,0,0,1-2.27.75,8.48,8.48,0,0,1,1.43,2.53,10.29,10.29,0,0,0,1.88-1.55,11.44,11.44,0,0,0,1.54-2,12.73,12.73,0,0,0,4.62-.53,14.23,14.23,0,0,0,4.63-2.43,15.56,15.56,0,0,0,3.74.8,8.71,8.71,0,0,1,.57-2.75Zm-48.35,8.42a10.32,10.32,0,0,1-1.88-1.58,16.35,16.35,0,0,0-1.58,6,18.16,18.16,0,0,0-3.3,2.7,20.1,20.1,0,0,1,.51,2.78,15.7,15.7,0,0,1,5.87-4.32A11.62,11.62,0,0,1,562.2,234.69Zm48.35-8.42a13.59,13.59,0,0,1-10.06-.84,13.32,13.32,0,0,1-4.88,5.38,10.58,10.58,0,0,1-1.05.55,10.75,10.75,0,0,1-2.27.75,8.48,8.48,0,0,1,1.43,2.53,10.29,10.29,0,0,0,1.88-1.55,11.44,11.44,0,0,0,1.54-2,12.73,12.73,0,0,0,4.62-.53,14.23,14.23,0,0,0,4.63-2.43,15.56,15.56,0,0,0,3.74.8,8.71,8.71,0,0,1,.57-2.75Zm-48.35,8.42a10.32,10.32,0,0,1-1.88-1.58,16.35,16.35,0,0,0-1.58,6,18.16,18.16,0,0,0-3.3,2.7,20.1,20.1,0,0,1,.51,2.78,15.7,15.7,0,0,1,5.87-4.32A11.62,11.62,0,0,1,562.2,234.69Zm48.35-8.42a13.59,13.59,0,0,1-10.06-.84,13.32,13.32,0,0,1-4.88,5.38,10.58,10.58,0,0,1-1.05.55,10.75,10.75,0,0,1-2.27.75,8.48,8.48,0,0,1,1.43,2.53,10.29,10.29,0,0,0,1.88-1.55,11.44,11.44,0,0,0,1.54-2,12.73,12.73,0,0,0,4.62-.53,14.23,14.23,0,0,0,4.63-2.43,15.56,15.56,0,0,0,3.74.8,8.71,8.71,0,0,1,.57-2.75Zm-48.35,8.42a10.32,10.32,0,0,1-1.88-1.58,16.35,16.35,0,0,0-1.58,6,18.16,18.16,0,0,0-3.3,2.7,20.1,20.1,0,0,1,.51,2.78,15.7,15.7,0,0,1,5.87-4.32A11.62,11.62,0,0,1,562.2,234.69Zm48.35-8.42a13.59,13.59,0,0,1-10.06-.84,13.32,13.32,0,0,1-4.88,5.38,10.58,10.58,0,0,1-1.05.55,10.75,10.75,0,0,1-2.27.75,8.48,8.48,0,0,1,1.43,2.53,10.29,10.29,0,0,0,1.88-1.55,11.44,11.44,0,0,0,1.54-2,12.73,12.73,0,0,0,4.62-.53,14.23,14.23,0,0,0,4.63-2.43,15.56,15.56,0,0,0,3.74.8,8.71,8.71,0,0,1,.57-2.75Zm-48.35,8.42a10.32,10.32,0,0,1-1.88-1.58,16.35,16.35,0,0,0-1.58,6,18.16,18.16,0,0,0-3.3,2.7,20.1,20.1,0,0,1,.51,2.78,15.7,15.7,0,0,1,5.87-4.32A11.62,11.62,0,0,1,562.2,234.69Zm48.35-8.42a13.59,13.59,0,0,1-10.06-.84,13.32,13.32,0,0,1-4.88,5.38,10.58,10.58,0,0,1-1.05.55,10.75,10.75,0,0,1-2.27.75,8.48,8.48,0,0,1,1.43,2.53,10.29,10.29,0,0,0,1.88-1.55,11.44,11.44,0,0,0,1.54-2,12.73,12.73,0,0,0,4.62-.53,14.23,14.23,0,0,0,4.63-2.43,15.56,15.56,0,0,0,3.74.8,8.71,8.71,0,0,1,.57-2.75Zm-48.35,8.42a10.32,10.32,0,0,1-1.88-1.58,16.35,16.35,0,0,0-1.58,6,18.16,18.16,0,0,0-3.3,2.7,20.1,20.1,0,0,1,.51,2.78,15.7,15.7,0,0,1,5.87-4.32A11.62,11.62,0,0,1,562.2,234.69Zm48.35-8.42a13.59,13.59,0,0,1-10.06-.84,13.32,13.32,0,0,1-4.88,5.38,10.58,10.58,0,0,1-1.05.55,10.75,10.75,0,0,1-2.27.75,8.48,8.48,0,0,1,1.43,2.53,10.29,10.29,0,0,0,1.88-1.55,11.44,11.44,0,0,0,1.54-2,12.73,12.73,0,0,0,4.62-.53,14.23,14.23,0,0,0,4.63-2.43,15.56,15.56,0,0,0,3.74.8,8.71,8.71,0,0,1,.57-2.75Zm-48.35,8.42a10.32,10.32,0,0,1-1.88-1.58,16.35,16.35,0,0,0-1.58,6,18.16,18.16,0,0,0-3.3,2.7,20.1,20.1,0,0,1,.51,2.78,15.7,15.7,0,0,1,5.87-4.32A11.62,11.62,0,0,1,562.2,234.69Zm0,0a10.32,10.32,0,0,1-1.88-1.58,16.35,16.35,0,0,0-1.58,6,18.16,18.16,0,0,0-3.3,2.7,20.1,20.1,0,0,1,.51,2.78,15.7,15.7,0,0,1,5.87-4.32A11.62,11.62,0,0,1,562.2,234.69ZM628,212a15,15,0,0,0-6.74-4.89c-6.1-2.2-11.28,1-12.32,1.69a8.57,8.57,0,0,0-4.35-3.17,7.65,7.65,0,0,0-6.33,1.05s0-.14.08-.26a10.55,10.55,0,0,0-1.3,1.24c-2.08,2.34-1.72,4-3,4.57s-2-.71-4.56-.65a7.86,7.86,0,0,0-3.18.8,19.38,19.38,0,0,1-2,1.28,10.23,10.23,0,0,0-1.2,2,11.82,11.82,0,0,0-.91,3,8.29,8.29,0,0,0-4.42-.25h0a8.23,8.23,0,0,0-1.9.68,9.07,9.07,0,0,0-3.41,3,10.93,10.93,0,0,1,5.39,0h0a8.76,8.76,0,0,1,4.06,2.45,11.67,11.67,0,0,1,2.72,5.28,6.86,6.86,0,0,1,7.61,2.22l0,.05a8.48,8.48,0,0,1,1.43,2.53,10.29,10.29,0,0,0,1.88-1.55,11.44,11.44,0,0,0,1.54-2,12.73,12.73,0,0,0,4.62-.53,14.23,14.23,0,0,0,4.63-2.43,15.56,15.56,0,0,0,3.74.8,5.82,5.82,0,0,0,.6.05c.44,0,.87,0,1.28,0a10.26,10.26,0,0,1,3.59-5.32l-.25-.19a13.9,13.9,0,0,1-4.65,2.7l-.15.05a13.59,13.59,0,0,1-10.06-.84,13.32,13.32,0,0,1-4.88,5.38,10.58,10.58,0,0,1-1.05.55,10.31,10.31,0,0,0-2.22-2.26,9.5,9.5,0,0,0-6.71-1.8,13.71,13.71,0,0,0-2.25-5.28l.46.13a10.37,10.37,0,0,1,2.44-5.18c2.63-2.83,6.87-3.32,10.78-1.27,0-3.27,1.08-4.75,1.44-5.17,2.33-2.69,7.68-2.29,12.41,2.32.41-.63,2.74-4.12,6.61-4.44,4.18-.33,7,3.27,8.2,5.24.39.63.62,1.09.68,1.21s.19.41.27.62h0a13.11,13.11,0,0,1,.49,1.41,7.87,7.87,0,0,1,2.52-2.08h0A14,14,0,0,0,628,212ZM562.2,234.69a10.32,10.32,0,0,1-1.88-1.58,16.35,16.35,0,0,0-1.58,6,18.16,18.16,0,0,0-3.3,2.7,20.1,20.1,0,0,1,.51,2.78,15.7,15.7,0,0,1,5.87-4.32A11.62,11.62,0,0,1,562.2,234.69Zm0,0a10.32,10.32,0,0,1-1.88-1.58,16.35,16.35,0,0,0-1.58,6,18.16,18.16,0,0,0-3.3,2.7,20.1,20.1,0,0,1,.51,2.78,15.7,15.7,0,0,1,5.87-4.32A11.62,11.62,0,0,1,562.2,234.69Zm17.37,6a12.25,12.25,0,0,1-1.78-.26h0a12.67,12.67,0,0,1-5.09-2.48,15.8,15.8,0,0,1-4.45-5.82,10.67,10.67,0,0,1-6.93-.75,11.36,11.36,0,0,0-1,1.7,16.35,16.35,0,0,0-1.58,6,18.16,18.16,0,0,0-3.3,2.7,18.4,18.4,0,0,0-1.29,1.51c-.28.37-.56.76-.84,1.18a23.09,23.09,0,0,0-3.35,9.61c-.52,3.36-.91,5.87.27,7.08s3.78.3,6.52-.84a22.74,22.74,0,0,0,6.15-3.87l.28-.25c.44-.39.94-.86,1.47-1.41a30,30,0,0,0,4.24-5.57,9,9,0,0,0,5-1,10.85,10.85,0,0,0,4.09-3.81,12.24,12.24,0,0,0,1.34-2.63,7.86,7.86,0,0,0,1,.07A13.35,13.35,0,0,1,579.57,240.72ZM572.78,245a9.66,9.66,0,0,1-6.61,1.8,17.48,17.48,0,0,1-2.54,5.75,2.11,2.11,0,0,1-.18.27,18,18,0,0,1-1.34,1.66c-3.32,3.58-8,5.7-9.71,3.94-.81-.83-.91-2.5-.6-4.39a22.43,22.43,0,0,1,2.32-6.7l.36-.62h0c.13-.21.26-.41.4-.6a3.55,3.55,0,0,1,.32-.47q.36-.51.75-1a15.7,15.7,0,0,1,5.87-4.32,11.62,11.62,0,0,1,.38-5.63l.34.22a9.57,9.57,0,0,0,5.61,1.38,9.48,9.48,0,0,0,4,4.86,7.12,7.12,0,0,0,3.44.91A11.3,11.3,0,0,1,572.78,245ZM562.2,234.69a10.32,10.32,0,0,1-1.88-1.58,16.35,16.35,0,0,0-1.58,6,18.16,18.16,0,0,0-3.3,2.7,20.1,20.1,0,0,1,.51,2.78,15.7,15.7,0,0,1,5.87-4.32A11.62,11.62,0,0,1,562.2,234.69Zm0,0a10.32,10.32,0,0,1-1.88-1.58,16.35,16.35,0,0,0-1.58,6,18.16,18.16,0,0,0-3.3,2.7,20.1,20.1,0,0,1,.51,2.78,15.7,15.7,0,0,1,5.87-4.32A11.62,11.62,0,0,1,562.2,234.69Zm0,0a10.32,10.32,0,0,1-1.88-1.58,16.35,16.35,0,0,0-1.58,6,18.16,18.16,0,0,0-3.3,2.7,20.1,20.1,0,0,1,.51,2.78,15.7,15.7,0,0,1,5.87-4.32A11.62,11.62,0,0,1,562.2,234.69ZM629.45,215a10.07,10.07,0,0,0-4.62,8.59,8.67,8.67,0,0,0-2.85-1.17,9,9,0,0,0-5.84,1c-4.22,2.37-4.6,7.64-4.62,8-.22-4.72,2.12-8.87,5.71-10.35a8.91,8.91,0,0,1,6.33,0,9.57,9.57,0,0,1,1.15-5,9.32,9.32,0,0,1,3.07-3.33ZM562.2,234.69a10.32,10.32,0,0,1-1.88-1.58,16.35,16.35,0,0,0-1.58,6,18.16,18.16,0,0,0-3.3,2.7,20.1,20.1,0,0,1,.51,2.78,15.7,15.7,0,0,1,5.87-4.32A11.62,11.62,0,0,1,562.2,234.69Zm48.35-8.42a13.59,13.59,0,0,1-10.06-.84,13.32,13.32,0,0,1-4.88,5.38,10.58,10.58,0,0,1-1.05.55,10.75,10.75,0,0,1-2.27.75,8.48,8.48,0,0,1,1.43,2.53,10.29,10.29,0,0,0,1.88-1.55,11.44,11.44,0,0,0,1.54-2,12.73,12.73,0,0,0,4.62-.53,14.23,14.23,0,0,0,4.63-2.43,15.56,15.56,0,0,0,3.74.8,8.71,8.71,0,0,1,.57-2.75Zm-48.35,8.42a10.32,10.32,0,0,1-1.88-1.58,16.35,16.35,0,0,0-1.58,6,18.16,18.16,0,0,0-3.3,2.7,20.1,20.1,0,0,1,.51,2.78,15.7,15.7,0,0,1,5.87-4.32A11.62,11.62,0,0,1,562.2,234.69Zm48.35-8.42a13.59,13.59,0,0,1-10.06-.84,13.32,13.32,0,0,1-4.88,5.38,10.58,10.58,0,0,1-1.05.55,10.75,10.75,0,0,1-2.27.75,8.48,8.48,0,0,1,1.43,2.53,10.29,10.29,0,0,0,1.88-1.55,11.44,11.44,0,0,0,1.54-2,12.73,12.73,0,0,0,4.62-.53,14.23,14.23,0,0,0,4.63-2.43,15.56,15.56,0,0,0,3.74.8,8.71,8.71,0,0,1,.57-2.75Zm-48.35,8.42a10.32,10.32,0,0,1-1.88-1.58,16.35,16.35,0,0,0-1.58,6,18.16,18.16,0,0,0-3.3,2.7,20.1,20.1,0,0,1,.51,2.78,15.7,15.7,0,0,1,5.87-4.32A11.62,11.62,0,0,1,562.2,234.69Zm48.35-8.42a13.59,13.59,0,0,1-10.06-.84,13.32,13.32,0,0,1-4.88,5.38,10.58,10.58,0,0,1-1.05.55,10.75,10.75,0,0,1-2.27.75,8.48,8.48,0,0,1,1.43,2.53,10.29,10.29,0,0,0,1.88-1.55,11.44,11.44,0,0,0,1.54-2,12.73,12.73,0,0,0,4.62-.53,14.23,14.23,0,0,0,4.63-2.43,15.56,15.56,0,0,0,3.74.8,8.71,8.71,0,0,1,.57-2.75Zm-48.35,8.42a10.32,10.32,0,0,1-1.88-1.58,16.35,16.35,0,0,0-1.58,6,18.16,18.16,0,0,0-3.3,2.7,20.1,20.1,0,0,1,.51,2.78,15.7,15.7,0,0,1,5.87-4.32A11.62,11.62,0,0,1,562.2,234.69Zm48.35-8.42a13.59,13.59,0,0,1-10.06-.84,13.32,13.32,0,0,1-4.88,5.38,10.58,10.58,0,0,1-1.05.55,10.75,10.75,0,0,1-2.27.75,8.48,8.48,0,0,1,1.43,2.53,10.29,10.29,0,0,0,1.88-1.55,11.44,11.44,0,0,0,1.54-2,12.73,12.73,0,0,0,4.62-.53,14.23,14.23,0,0,0,4.63-2.43,15.56,15.56,0,0,0,3.74.8,8.71,8.71,0,0,1,.57-2.75Zm-48.35,8.42a10.32,10.32,0,0,1-1.88-1.58,16.35,16.35,0,0,0-1.58,6,18.16,18.16,0,0,0-3.3,2.7,20.1,20.1,0,0,1,.51,2.78,15.7,15.7,0,0,1,5.87-4.32A11.62,11.62,0,0,1,562.2,234.69Zm48.35-8.42a13.59,13.59,0,0,1-10.06-.84,13.32,13.32,0,0,1-4.88,5.38,10.58,10.58,0,0,1-1.05.55,10.75,10.75,0,0,1-2.27.75,8.48,8.48,0,0,1,1.43,2.53,10.29,10.29,0,0,0,1.88-1.55,11.44,11.44,0,0,0,1.54-2,12.73,12.73,0,0,0,4.62-.53,14.23,14.23,0,0,0,4.63-2.43,15.56,15.56,0,0,0,3.74.8,8.71,8.71,0,0,1,.57-2.75Zm-48.35,8.42a10.32,10.32,0,0,1-1.88-1.58,16.35,16.35,0,0,0-1.58,6,18.16,18.16,0,0,0-3.3,2.7,20.1,20.1,0,0,1,.51,2.78,15.7,15.7,0,0,1,5.87-4.32A11.62,11.62,0,0,1,562.2,234.69Zm48.35-8.42a13.59,13.59,0,0,1-10.06-.84,13.32,13.32,0,0,1-4.88,5.38,10.58,10.58,0,0,1-1.05.55,10.75,10.75,0,0,1-2.27.75,8.48,8.48,0,0,1,1.43,2.53,10.29,10.29,0,0,0,1.88-1.55,11.44,11.44,0,0,0,1.54-2,12.73,12.73,0,0,0,4.62-.53,14.23,14.23,0,0,0,4.63-2.43,15.56,15.56,0,0,0,3.74.8,8.71,8.71,0,0,1,.57-2.75Zm-48.35,8.42a10.32,10.32,0,0,1-1.88-1.58,16.35,16.35,0,0,0-1.58,6,18.16,18.16,0,0,0-3.3,2.7,20.1,20.1,0,0,1,.51,2.78,15.7,15.7,0,0,1,5.87-4.32A11.62,11.62,0,0,1,562.2,234.69Zm-1.83-3.79a13.5,13.5,0,0,1-4.9-5.39,13.48,13.48,0,0,1-10,.84,14.17,14.17,0,0,1-4.81-2.74.91.91,0,0,1-.16.11A13.56,13.56,0,0,1,538.4,225a9.94,9.94,0,0,1,2.78,3.78,16.07,16.07,0,0,0,4.06.31,16.12,16.12,0,0,0,4.35-.84,14.16,14.16,0,0,0,4.62,2.43,12.88,12.88,0,0,0,4.61.52,11.47,11.47,0,0,0,1.5,1.9,11.36,11.36,0,0,1,1-1.7C561,231.26,560.68,231.09,560.37,230.9Zm36.85,8.34a16.14,16.14,0,0,0-1.62-6.15,10.29,10.29,0,0,1-1.88,1.55,11.51,11.51,0,0,1,.42,5.77,15.59,15.59,0,0,1,3.71,2.19,20.74,20.74,0,0,1,.57-2.53C598,239.74,597.58,239.46,597.22,239.24Zm-36.85-8.34a13.5,13.5,0,0,1-4.9-5.39,13.48,13.48,0,0,1-10,.84,14.17,14.17,0,0,1-4.81-2.74.91.91,0,0,1-.16.11A13.56,13.56,0,0,1,538.4,225a9.94,9.94,0,0,1,2.78,3.78,16.07,16.07,0,0,0,4.06.31,16.12,16.12,0,0,0,4.35-.84,14.16,14.16,0,0,0,4.62,2.43,12.88,12.88,0,0,0,4.61.52,11.47,11.47,0,0,0,1.5,1.9,11.36,11.36,0,0,1,1-1.7C561,231.26,560.68,231.09,560.37,230.9Zm36.85,8.34a16.14,16.14,0,0,0-1.62-6.15,10.29,10.29,0,0,1-1.88,1.55,11.51,11.51,0,0,1,.42,5.77,15.59,15.59,0,0,1,3.71,2.19,20.74,20.74,0,0,1,.57-2.53C598,239.74,597.58,239.46,597.22,239.24Zm-36.85-8.34a13.5,13.5,0,0,1-4.9-5.39,13.48,13.48,0,0,1-10,.84,14.17,14.17,0,0,1-4.81-2.74.91.91,0,0,1-.16.11A13.56,13.56,0,0,1,538.4,225a9.94,9.94,0,0,1,2.78,3.78,16.07,16.07,0,0,0,4.06.31,16.12,16.12,0,0,0,4.35-.84,14.16,14.16,0,0,0,4.62,2.43,12.88,12.88,0,0,0,4.61.52,11.47,11.47,0,0,0,1.5,1.9,11.36,11.36,0,0,1,1-1.7C561,231.26,560.68,231.09,560.37,230.9Zm36.85,8.34a16.14,16.14,0,0,0-1.62-6.15,10.29,10.29,0,0,1-1.88,1.55,11.51,11.51,0,0,1,.42,5.77,15.59,15.59,0,0,1,3.71,2.19,20.74,20.74,0,0,1,.57-2.53C598,239.74,597.58,239.46,597.22,239.24Zm-36.85-8.34a13.5,13.5,0,0,1-4.9-5.39,13.48,13.48,0,0,1-10,.84,14.17,14.17,0,0,1-4.81-2.74.91.91,0,0,1-.16.11A13.56,13.56,0,0,1,538.4,225a9.94,9.94,0,0,1,2.78,3.78,16.07,16.07,0,0,0,4.06.31,16.12,16.12,0,0,0,4.35-.84,14.16,14.16,0,0,0,4.62,2.43,12.88,12.88,0,0,0,4.61.52,11.47,11.47,0,0,0,1.5,1.9,11.36,11.36,0,0,1,1-1.7C561,231.26,560.68,231.09,560.37,230.9Zm36.85,8.34a16.14,16.14,0,0,0-1.62-6.15,10.29,10.29,0,0,1-1.88,1.55,11.51,11.51,0,0,1,.42,5.77,15.59,15.59,0,0,1,3.71,2.19,20.74,20.74,0,0,1,.57-2.53C598,239.74,597.58,239.46,597.22,239.24Zm-36.85-8.34a13.5,13.5,0,0,1-4.9-5.39,13.48,13.48,0,0,1-10,.84,14.17,14.17,0,0,1-4.81-2.74.91.91,0,0,1-.16.11A13.56,13.56,0,0,1,538.4,225a9.94,9.94,0,0,1,2.78,3.78,16.07,16.07,0,0,0,4.06.31,16.12,16.12,0,0,0,4.35-.84,14.16,14.16,0,0,0,4.62,2.43,12.88,12.88,0,0,0,4.61.52,11.47,11.47,0,0,0,1.5,1.9,11.36,11.36,0,0,1,1-1.7C561,231.26,560.68,231.09,560.37,230.9Zm36.85,8.34a16.14,16.14,0,0,0-1.62-6.15,10.29,10.29,0,0,1-1.88,1.55,11.51,11.51,0,0,1,.42,5.77,15.59,15.59,0,0,1,3.71,2.19,20.74,20.74,0,0,1,.57-2.53C598,239.74,597.58,239.46,597.22,239.24Zm-36.85-8.34a13.5,13.5,0,0,1-4.9-5.39,13.48,13.48,0,0,1-10,.84,14.17,14.17,0,0,1-4.81-2.74.91.91,0,0,1-.16.11A13.56,13.56,0,0,1,538.4,225a9.94,9.94,0,0,1,2.78,3.78,16.07,16.07,0,0,0,4.06.31,16.12,16.12,0,0,0,4.35-.84,14.16,14.16,0,0,0,4.62,2.43,12.88,12.88,0,0,0,4.61.52,11.47,11.47,0,0,0,1.5,1.9,11.36,11.36,0,0,1,1-1.7C561,231.26,560.68,231.09,560.37,230.9Zm36.85,8.34a16.14,16.14,0,0,0-1.62-6.15,10.29,10.29,0,0,1-1.88,1.55,11.51,11.51,0,0,1,.42,5.77,15.59,15.59,0,0,1,3.71,2.19,20.74,20.74,0,0,1,.57-2.53C598,239.74,597.58,239.46,597.22,239.24Zm-36.85-8.34a13.5,13.5,0,0,1-4.9-5.39,13.48,13.48,0,0,1-10,.84,14.17,14.17,0,0,1-4.81-2.74.91.91,0,0,1-.16.11A13.56,13.56,0,0,1,538.4,225a9.94,9.94,0,0,1,2.78,3.78,16.07,16.07,0,0,0,4.06.31,16.12,16.12,0,0,0,4.35-.84,14.16,14.16,0,0,0,4.62,2.43,12.88,12.88,0,0,0,4.61.52,11.47,11.47,0,0,0,1.5,1.9,11.36,11.36,0,0,1,1-1.7C561,231.26,560.68,231.09,560.37,230.9Zm36.85,8.34a16.14,16.14,0,0,0-1.62-6.15,10.29,10.29,0,0,1-1.88,1.55,11.51,11.51,0,0,1,.42,5.77,15.59,15.59,0,0,1,3.71,2.19,20.74,20.74,0,0,1,.57-2.53C598,239.74,597.58,239.46,597.22,239.24Zm-36.85-8.34a13.5,13.5,0,0,1-4.9-5.39,13.48,13.48,0,0,1-10,.84,14.17,14.17,0,0,1-4.81-2.74.91.91,0,0,1-.16.11A13.56,13.56,0,0,1,538.4,225a9.94,9.94,0,0,1,2.78,3.78,16.07,16.07,0,0,0,4.06.31,16.12,16.12,0,0,0,4.35-.84,14.16,14.16,0,0,0,4.62,2.43,12.88,12.88,0,0,0,4.61.52,11.47,11.47,0,0,0,1.5,1.9,11.36,11.36,0,0,1,1-1.7C561,231.26,560.68,231.09,560.37,230.9Zm36.85,8.34a16.14,16.14,0,0,0-1.62-6.15,10.29,10.29,0,0,1-1.88,1.55,11.51,11.51,0,0,1,.42,5.77,15.59,15.59,0,0,1,3.71,2.19,20.74,20.74,0,0,1,.57-2.53C598,239.74,597.58,239.46,597.22,239.24Zm-36.85-8.34a13.5,13.5,0,0,1-4.9-5.39,13.48,13.48,0,0,1-10,.84,14.17,14.17,0,0,1-4.81-2.74.91.91,0,0,1-.16.11A13.56,13.56,0,0,1,538.4,225a9.94,9.94,0,0,1,2.78,3.78,16.07,16.07,0,0,0,4.06.31,16.12,16.12,0,0,0,4.35-.84,14.16,14.16,0,0,0,4.62,2.43,12.88,12.88,0,0,0,4.61.52,11.47,11.47,0,0,0,1.5,1.9,11.36,11.36,0,0,1,1-1.7C561,231.26,560.68,231.09,560.37,230.9Zm36.85,8.34a16.14,16.14,0,0,0-1.62-6.15,10.29,10.29,0,0,1-1.88,1.55,11.51,11.51,0,0,1,.42,5.77,15.59,15.59,0,0,1,3.71,2.19,20.74,20.74,0,0,1,.57-2.53C598,239.74,597.58,239.46,597.22,239.24Zm-35.91-7.83c-.31-.15-.63-.32-.94-.51a13.5,13.5,0,0,1-4.9-5.39,13.48,13.48,0,0,1-10,.84,14.17,14.17,0,0,1-4.81-2.74.91.91,0,0,1-.16.11A13.56,13.56,0,0,1,538.4,225a9.94,9.94,0,0,1,2.78,3.78,16.07,16.07,0,0,0,4.06.31,16.12,16.12,0,0,0,4.35-.84,14.16,14.16,0,0,0,4.62,2.43,12.88,12.88,0,0,0,4.61.52,11.47,11.47,0,0,0,1.5,1.9,10.32,10.32,0,0,0,1.88,1.58,8.74,8.74,0,0,1,1.37-2.51A10.8,10.8,0,0,1,561.31,231.41Zm35.91,7.83a16.14,16.14,0,0,0-1.62-6.15,10.29,10.29,0,0,1-1.88,1.55,11.51,11.51,0,0,1,.42,5.77,15.59,15.59,0,0,1,3.71,2.19,20.74,20.74,0,0,1,.57-2.53C598,239.74,597.58,239.46,597.22,239.24Zm-35.91-7.83c-.31-.15-.63-.32-.94-.51a13.5,13.5,0,0,1-4.9-5.39,13.48,13.48,0,0,1-10,.84,14.17,14.17,0,0,1-4.81-2.74.91.91,0,0,1-.16.11A13.56,13.56,0,0,1,538.4,225a9.94,9.94,0,0,1,2.78,3.78,16.07,16.07,0,0,0,4.06.31,16.12,16.12,0,0,0,4.35-.84,14.16,14.16,0,0,0,4.62,2.43,12.88,12.88,0,0,0,4.61.52,11.47,11.47,0,0,0,1.5,1.9,10.32,10.32,0,0,0,1.88,1.58,8.74,8.74,0,0,1,1.37-2.51A10.8,10.8,0,0,1,561.31,231.41Zm35.91,7.83a16.14,16.14,0,0,0-1.62-6.15,10.29,10.29,0,0,1-1.88,1.55,11.51,11.51,0,0,1,.42,5.77,15.59,15.59,0,0,1,3.71,2.19,20.74,20.74,0,0,1,.57-2.53C598,239.74,597.58,239.46,597.22,239.24Zm-36.85-8.34a13.5,13.5,0,0,1-4.9-5.39,13.48,13.48,0,0,1-10,.84,14.17,14.17,0,0,1-4.81-2.74.91.91,0,0,1-.16.11A13.56,13.56,0,0,1,538.4,225a9.94,9.94,0,0,1,2.78,3.78,16.07,16.07,0,0,0,4.06.31,16.12,16.12,0,0,0,4.35-.84,14.16,14.16,0,0,0,4.62,2.43,12.88,12.88,0,0,0,4.61.52,11.47,11.47,0,0,0,1.5,1.9,10.32,10.32,0,0,0,1.88,1.58,8.74,8.74,0,0,1,1.37-2.51,10.8,10.8,0,0,1-2.26-.77C561,231.26,560.68,231.09,560.37,230.9ZM606,254.25a23.12,23.12,0,0,0-3.36-9.62,18.71,18.71,0,0,0-2.87-3.42,17.54,17.54,0,0,0-1.37-1.14c-.44-.33-.84-.61-1.2-.83a16.14,16.14,0,0,0-1.62-6.15,11.5,11.5,0,0,0-1-1.73,10.31,10.31,0,0,0-2.22-2.26,9.5,9.5,0,0,0-6.71-1.8,13.71,13.71,0,0,0-2.25-5.28,9.24,9.24,0,0,0-3.27-2.85,7.82,7.82,0,0,0-2.33-.76h0a8.5,8.5,0,0,0-4,.34,11.7,11.7,0,0,0-.91-3,10.86,10.86,0,0,0-1.2-2,18.11,18.11,0,0,1-1.95-1.27,7.64,7.64,0,0,0-3.19-.8c-2.51-.07-3.31,1.23-4.55.65s-.94-2.24-3-4.57a10.49,10.49,0,0,0-1.3-1.24c0,.12.08.21.09.26a7.69,7.69,0,0,0-6.34-1.06,8.61,8.61,0,0,0-4.35,3.17c-1-.68-6.22-3.89-12.31-1.69a15.06,15.06,0,0,0-7.87,6.55,14.69,14.69,0,0,0-1.36,3.11,9.6,9.6,0,0,1,2.77,4.34v0a11,11,0,0,1,.54,3.32c.25-.18,4.46-2.87,8.69-.21a6.34,6.34,0,0,1,.89.65,9.94,9.94,0,0,1,2.78,3.78,16.07,16.07,0,0,0,4.06.31,16.12,16.12,0,0,0,4.35-.84,14.16,14.16,0,0,0,4.62,2.43,12.88,12.88,0,0,0,4.61.52,11.47,11.47,0,0,0,1.5,1.9,10.32,10.32,0,0,0,1.88,1.58l.34.22a9.57,9.57,0,0,0,5.61,1.38,9.48,9.48,0,0,0,4,4.86,7.12,7.12,0,0,0,3.44.91,6,6,0,0,0,1.08-.07,13.68,13.68,0,0,0,1.3,2.55,10.64,10.64,0,0,0,4.15,3.9,9.09,9.09,0,0,0,5,.95,32.55,32.55,0,0,0,2.33,3.39c.56.7,1.11,1.32,1.62,1.87s1.24,1.25,1.76,1.71a22.9,22.9,0,0,0,6.42,4.12c1.9.79,3.67,1.53,5,1.46h0a2.13,2.13,0,0,0,1.51-.62,3.77,3.77,0,0,0,.77-2.83A38.46,38.46,0,0,0,606,254.25Zm-2.46,4.22c-2,2-7.81-1.07-11-5.6a5.13,5.13,0,0,1-.34-.52,15.14,15.14,0,0,1-1.25-2.27,18.43,18.43,0,0,1-1.12-3.23,9.61,9.61,0,0,1-6.61-1.8,11.38,11.38,0,0,1-2.9-3.07,13.35,13.35,0,0,1-.72-1.26,12.25,12.25,0,0,1-1.78-.26h0a12.67,12.67,0,0,1-5.09-2.48,15.8,15.8,0,0,1-4.45-5.82,10.67,10.67,0,0,1-6.93-.75c-.31-.15-.63-.32-.94-.51a13.5,13.5,0,0,1-4.9-5.39,13.48,13.48,0,0,1-10,.84,14.17,14.17,0,0,1-4.81-2.74.91.91,0,0,1-.16.11,15.19,15.19,0,0,0-9.88-3.44,9.35,9.35,0,0,0-1.12-3.63c-.11-.2-.22-.38-.34-.56a5.27,5.27,0,0,1,.19-.51h0a4.91,4.91,0,0,1,.26-.63c.24-.5,3.39-6.89,8.88-6.44,3.87.32,6.2,3.8,6.61,4.44,4.73-4.62,10.08-5,12.4-2.33.37.42,1.51,1.9,1.46,5.18,3.9-2.06,8.15-1.56,10.78,1.27a10.43,10.43,0,0,1,2.44,5.17l.31-.09a10.93,10.93,0,0,1,5.39,0h0a8.76,8.76,0,0,1,4.06,2.45,11.67,11.67,0,0,1,2.72,5.28,6.86,6.86,0,0,1,7.61,2.22l0,.05a8.48,8.48,0,0,1,1.43,2.53,11.51,11.51,0,0,1,.42,5.77,15.59,15.59,0,0,1,3.71,2.19,16.17,16.17,0,0,1,1.41,1.28,15.65,15.65,0,0,1,2.58,3.5,22.28,22.28,0,0,1,2.34,6.7C604.48,256,604.38,257.64,603.56,258.47Zm-42.25-27.06c-.31-.15-.63-.32-.94-.51a13.5,13.5,0,0,1-4.9-5.39,13.48,13.48,0,0,1-10,.84,14.17,14.17,0,0,1-4.81-2.74.91.91,0,0,1-.16.11A13.56,13.56,0,0,1,538.4,225a9.94,9.94,0,0,1,2.78,3.78,16.07,16.07,0,0,0,4.06.31,16.12,16.12,0,0,0,4.35-.84,14.16,14.16,0,0,0,4.62,2.43,12.88,12.88,0,0,0,4.61.52,11.47,11.47,0,0,0,1.5,1.9,10.32,10.32,0,0,0,1.88,1.58,8.74,8.74,0,0,1,1.37-2.51A10.8,10.8,0,0,1,561.31,231.41Zm35.91,7.83a16.14,16.14,0,0,0-1.62-6.15,10.29,10.29,0,0,1-1.88,1.55,11.51,11.51,0,0,1,.42,5.77,15.59,15.59,0,0,1,3.71,2.19,20.74,20.74,0,0,1,.57-2.53C598,239.74,597.58,239.46,597.22,239.24Zm-35.91-7.83c-.31-.15-.63-.32-.94-.51a13.5,13.5,0,0,1-4.9-5.39,13.48,13.48,0,0,1-10,.84,14.17,14.17,0,0,1-4.81-2.74.91.91,0,0,1-.16.11A13.56,13.56,0,0,1,538.4,225a9.94,9.94,0,0,1,2.78,3.78,16.07,16.07,0,0,0,4.06.31,16.12,16.12,0,0,0,4.35-.84,14.16,14.16,0,0,0,4.62,2.43,12.88,12.88,0,0,0,4.61.52,11.47,11.47,0,0,0,1.5,1.9,10.32,10.32,0,0,0,1.88,1.58,8.74,8.74,0,0,1,1.37-2.51A10.8,10.8,0,0,1,561.31,231.41Zm35.91,7.83a16.14,16.14,0,0,0-1.62-6.15,10.29,10.29,0,0,1-1.88,1.55,11.51,11.51,0,0,1,.42,5.77,15.59,15.59,0,0,1,3.71,2.19,20.74,20.74,0,0,1,.57-2.53C598,239.74,597.58,239.46,597.22,239.24Zm-36.85-8.34a13.5,13.5,0,0,1-4.9-5.39,13.48,13.48,0,0,1-10,.84,14.17,14.17,0,0,1-4.81-2.74.91.91,0,0,1-.16.11A13.56,13.56,0,0,1,538.4,225a9.94,9.94,0,0,1,2.78,3.78,16.07,16.07,0,0,0,4.06.31,16.12,16.12,0,0,0,4.35-.84,14.16,14.16,0,0,0,4.62,2.43,12.88,12.88,0,0,0,4.61.52,11.47,11.47,0,0,0,1.5,1.9,11.36,11.36,0,0,1,1-1.7C561,231.26,560.68,231.09,560.37,230.9Zm36.85,8.34a16.14,16.14,0,0,0-1.62-6.15,10.29,10.29,0,0,1-1.88,1.55,11.51,11.51,0,0,1,.42,5.77,15.59,15.59,0,0,1,3.71,2.19,20.74,20.74,0,0,1,.57-2.53C598,239.74,597.58,239.46,597.22,239.24Zm-36.85-8.34a13.5,13.5,0,0,1-4.9-5.39,13.48,13.48,0,0,1-10,.84,14.17,14.17,0,0,1-4.81-2.74.91.91,0,0,1-.16.11A13.56,13.56,0,0,1,538.4,225a9.94,9.94,0,0,1,2.78,3.78,16.07,16.07,0,0,0,4.06.31,16.12,16.12,0,0,0,4.35-.84,14.16,14.16,0,0,0,4.62,2.43,12.88,12.88,0,0,0,4.61.52,11.47,11.47,0,0,0,1.5,1.9,11.36,11.36,0,0,1,1-1.7C561,231.26,560.68,231.09,560.37,230.9Zm36.85,8.34a16.14,16.14,0,0,0-1.62-6.15,10.29,10.29,0,0,1-1.88,1.55,11.51,11.51,0,0,1,.42,5.77,15.59,15.59,0,0,1,3.71,2.19,20.74,20.74,0,0,1,.57-2.53C598,239.74,597.58,239.46,597.22,239.24Zm-36.85-8.34a13.5,13.5,0,0,1-4.9-5.39,13.48,13.48,0,0,1-10,.84,14.17,14.17,0,0,1-4.81-2.74.91.91,0,0,1-.16.11A13.56,13.56,0,0,1,538.4,225a9.94,9.94,0,0,1,2.78,3.78,16.07,16.07,0,0,0,4.06.31,16.12,16.12,0,0,0,4.35-.84,14.16,14.16,0,0,0,4.62,2.43,12.88,12.88,0,0,0,4.61.52,11.47,11.47,0,0,0,1.5,1.9,11.36,11.36,0,0,1,1-1.7C561,231.26,560.68,231.09,560.37,230.9Zm36.85,8.34a16.14,16.14,0,0,0-1.62-6.15,10.29,10.29,0,0,1-1.88,1.55,11.51,11.51,0,0,1,.42,5.77,15.59,15.59,0,0,1,3.71,2.19,20.74,20.74,0,0,1,.57-2.53C598,239.74,597.58,239.46,597.22,239.24Zm-36.85-8.34a13.5,13.5,0,0,1-4.9-5.39,13.48,13.48,0,0,1-10,.84,14.17,14.17,0,0,1-4.81-2.74.91.91,0,0,1-.16.11A13.56,13.56,0,0,1,538.4,225a9.94,9.94,0,0,1,2.78,3.78,16.07,16.07,0,0,0,4.06.31,16.12,16.12,0,0,0,4.35-.84,14.16,14.16,0,0,0,4.62,2.43,12.88,12.88,0,0,0,4.61.52,11.47,11.47,0,0,0,1.5,1.9,11.36,11.36,0,0,1,1-1.7C561,231.26,560.68,231.09,560.37,230.9Zm36.85,8.34a16.14,16.14,0,0,0-1.62-6.15,10.29,10.29,0,0,1-1.88,1.55,11.51,11.51,0,0,1,.42,5.77,15.59,15.59,0,0,1,3.71,2.19,20.74,20.74,0,0,1,.57-2.53C598,239.74,597.58,239.46,597.22,239.24Zm-36.85-8.34a13.5,13.5,0,0,1-4.9-5.39,13.48,13.48,0,0,1-10,.84,14.17,14.17,0,0,1-4.81-2.74.91.91,0,0,1-.16.11A13.56,13.56,0,0,1,538.4,225a9.94,9.94,0,0,1,2.78,3.78,16.07,16.07,0,0,0,4.06.31,16.12,16.12,0,0,0,4.35-.84,14.16,14.16,0,0,0,4.62,2.43,12.88,12.88,0,0,0,4.61.52,11.47,11.47,0,0,0,1.5,1.9,11.36,11.36,0,0,1,1-1.7C561,231.26,560.68,231.09,560.37,230.9Zm36.85,8.34a16.14,16.14,0,0,0-1.62-6.15,10.29,10.29,0,0,1-1.88,1.55,11.51,11.51,0,0,1,.42,5.77,15.59,15.59,0,0,1,3.71,2.19,20.74,20.74,0,0,1,.57-2.53C598,239.74,597.58,239.46,597.22,239.24Zm-36.85-8.34a13.5,13.5,0,0,1-4.9-5.39,13.48,13.48,0,0,1-10,.84,14.17,14.17,0,0,1-4.81-2.74.91.91,0,0,1-.16.11A13.56,13.56,0,0,1,538.4,225a9.94,9.94,0,0,1,2.78,3.78,16.07,16.07,0,0,0,4.06.31,16.12,16.12,0,0,0,4.35-.84,14.16,14.16,0,0,0,4.62,2.43,12.88,12.88,0,0,0,4.61.52,11.47,11.47,0,0,0,1.5,1.9,11.36,11.36,0,0,1,1-1.7C561,231.26,560.68,231.09,560.37,230.9Zm36.85,8.34a16.14,16.14,0,0,0-1.62-6.15,10.29,10.29,0,0,1-1.88,1.55,11.51,11.51,0,0,1,.42,5.77,15.59,15.59,0,0,1,3.71,2.19,20.74,20.74,0,0,1,.57-2.53C598,239.74,597.58,239.46,597.22,239.24Zm-36.85-8.34a13.5,13.5,0,0,1-4.9-5.39,13.48,13.48,0,0,1-10,.84,14.17,14.17,0,0,1-4.81-2.74.91.91,0,0,1-.16.11A13.56,13.56,0,0,1,538.4,225a9.94,9.94,0,0,1,2.78,3.78,16.07,16.07,0,0,0,4.06.31,16.12,16.12,0,0,0,4.35-.84,14.16,14.16,0,0,0,4.62,2.43,12.88,12.88,0,0,0,4.61.52,11.47,11.47,0,0,0,1.5,1.9,11.36,11.36,0,0,1,1-1.7C561,231.26,560.68,231.09,560.37,230.9Zm36.85,8.34a16.14,16.14,0,0,0-1.62-6.15,10.29,10.29,0,0,1-1.88,1.55,11.51,11.51,0,0,1,.42,5.77,15.59,15.59,0,0,1,3.71,2.19,20.74,20.74,0,0,1,.57-2.53C598,239.74,597.58,239.46,597.22,239.24Zm-36.85-8.34a13.5,13.5,0,0,1-4.9-5.39,13.48,13.48,0,0,1-10,.84,14.17,14.17,0,0,1-4.81-2.74.91.91,0,0,1-.16.11A13.56,13.56,0,0,1,538.4,225a9.94,9.94,0,0,1,2.78,3.78,16.07,16.07,0,0,0,4.06.31,16.12,16.12,0,0,0,4.35-.84,14.16,14.16,0,0,0,4.62,2.43,12.88,12.88,0,0,0,4.61.52,11.47,11.47,0,0,0,1.5,1.9,11.36,11.36,0,0,1,1-1.7C561,231.26,560.68,231.09,560.37,230.9Zm36.85,8.34a16.14,16.14,0,0,0-1.62-6.15,10.29,10.29,0,0,1-1.88,1.55,11.51,11.51,0,0,1,.42,5.77,15.59,15.59,0,0,1,3.71,2.19,20.74,20.74,0,0,1,.57-2.53C598,239.74,597.58,239.46,597.22,239.24Zm-36.85-8.34a13.5,13.5,0,0,1-4.9-5.39,13.48,13.48,0,0,1-10,.84,14.17,14.17,0,0,1-4.81-2.74.91.91,0,0,1-.16.11A13.56,13.56,0,0,1,538.4,225a9.94,9.94,0,0,1,2.78,3.78,16.07,16.07,0,0,0,4.06.31,16.12,16.12,0,0,0,4.35-.84,14.16,14.16,0,0,0,4.62,2.43,12.88,12.88,0,0,0,4.61.52,11.47,11.47,0,0,0,1.5,1.9,11.36,11.36,0,0,1,1-1.7C561,231.26,560.68,231.09,560.37,230.9Zm36.85,8.34a16.14,16.14,0,0,0-1.62-6.15,10.29,10.29,0,0,1-1.88,1.55,11.51,11.51,0,0,1,.42,5.77,15.59,15.59,0,0,1,3.71,2.19,20.74,20.74,0,0,1,.57-2.53C598,239.74,597.58,239.46,597.22,239.24Zm-36.85-8.34a13.5,13.5,0,0,1-4.9-5.39,13.48,13.48,0,0,1-10,.84,14.17,14.17,0,0,1-4.81-2.74.91.91,0,0,1-.16.11A13.56,13.56,0,0,1,538.4,225a9.94,9.94,0,0,1,2.78,3.78,16.07,16.07,0,0,0,4.06.31,16.12,16.12,0,0,0,4.35-.84,14.16,14.16,0,0,0,4.62,2.43,12.88,12.88,0,0,0,4.61.52,11.47,11.47,0,0,0,1.5,1.9,11.36,11.36,0,0,1,1-1.7C561,231.26,560.68,231.09,560.37,230.9Z" fill="#020000"/></g></g></g></svg>