<svg xmlns="http://www.w3.org/2000/svg" viewBox="0 0 1080 1920"><g style="isolation:isolate"><g id="hair"><g id="_15" data-name="15"><path d="M422.55,385.68a170.49,170.49,0,0,1-14.43-51.06,173.54,173.54,0,0,1,1.64-52.24,26.15,26.15,0,0,1-3.27-13.28c0-1.69.29-10.84,7.35-17.12a19.77,19.77,0,0,1,15.79-4.72,19.56,19.56,0,0,0-10.37,1.32,20.3,20.3,0,0,0-5.42,3.4c-.51-1.89-3.6-14.1,3.27-26a30,30,0,0,1,18.51-14.17c-.23-1.64-1.82-14.34,6.8-24.5A26.74,26.74,0,0,1,462,177.9a31.37,31.37,0,0,0-3.06,5.16,32.44,32.44,0,0,0-2.79,9.82,32.51,32.51,0,0,1,2.79-9.82A36.49,36.49,0,0,1,462,177.9a41.76,41.76,0,0,1,18.45-14,48.09,48.09,0,0,1,26.13-2.88l1,1.14h0a132.91,132.91,0,0,0-9.48,19.73,101.48,101.48,0,0,0-6.84,26.32c-.37,3.25-.5,6-.55,7.88A101.47,101.47,0,0,0,498,264.38c-12.42,2.75-26.07,8.49-33.49,21.25-3.81,6.57-4.56,12.56-6.53,45.75-2,33.71-2.09,41.88-8.17,48.1C442.76,386.67,431.9,387,422.55,385.68Zm86.84-131.93c-7.15-10.09-4.21-23-3.67-25.23-.36,1.2-4.08,14.29,3.67,25.23a24.77,24.77,0,0,0,15.93,10c7.9,1.39,16.13-1.45,16.15-3.32,0-.74-1.28-1.07-4.42-2.89a53.53,53.53,0,0,1-7.24-5c2.07,1.49,5.06,3.6,8.75,6,6.35,4.18,12,7.49,13.85,8.45,10.68,5.68,23.93,2.41,30.76.89,16-3.57,37.24-6.64,67-9.45,22-49.77,31-91.15,18.58-100.94-4.66-3.68-14.61-3.3-34.51-2.88-8.16.18-15.26.37-24.3,2.66a87.34,87.34,0,0,0-27.76,12.62,89,89,0,0,1,27.76-12.62,86,86,0,0,1,24.3-2.66,64.58,64.58,0,0,0-61.05-10.4,76.75,76.75,0,0,0-22.66,12.4,99.64,99.64,0,0,0-17.76,17,98.73,98.73,0,0,1,17.76-17,93.17,93.17,0,0,1,22.66-12.4c-9.36-1.8-32.57-4.8-53.9,8.63a65.73,65.73,0,0,0-11.61,9.33,137.53,137.53,0,0,0-9.54,19.72,110.33,110.33,0,0,0-4.36,13.34,105.08,105.08,0,0,0-2.79,16h0c0,.1-2.28,20.76,2.11,38.16.43,1.71.73,2.2,3,9.9,1.1,3.78,1.26,4.44,1.9,5,3.25,3.05,12.27-1.7,17.42-4.8A23.27,23.27,0,0,1,509.39,253.75ZM481,269.8c-5.52,3.38-13.19,9.18-18,18.82s-4.78,18.69-4.61,35.94c.3,29.71.45,44.57.41,45.18-1.05,15.18-5,30.29-12.8,60.51-2.57,9.94-4.88,18.16-6.53,23.91a227.6,227.6,0,0,0-10.82,42.94c-3.11,20.71-1.51,29.89,2.09,37.26a38.84,38.84,0,0,0,6.08,9,38.84,38.84,0,0,1-6.08-9c-3.6-7.37-5.2-16.55-2.09-37.26a227.6,227.6,0,0,1,10.82-42.94,91,91,0,0,0,9,34.09c8.43,16.94,16.12,17.57,18.38,30.1,2.59,14.38-4.25,31.69-8.17,41.62-2.35,5.95-6.34,14.58-3.27,22.8,1,2.62,2,3.34,3.88,6.42h0c5.6,8.59,4.29,24.21,4.29,24.21-1.88,22.45-4.73,23.91-2.86,32.9.94,4.5,2.43,10.71,7.76,15.28,8.06,6.9,18.52,4.22,20.22,3.76-1.91,1.82-10.2,9.32-21.24,8a26.23,26.23,0,0,1-12-5.09c-10.18-7.06-13.89-17.87-14.49-19.71-5.54-16.88,2.29-31.71,3.47-33.86-1.17,2.11-9,16.86-3.47,33.86a39.1,39.1,0,0,0,14.49,19.71,110.57,110.57,0,0,1,3,14.94c1.31,10.26,2,16-.51,21.69-.94,2.09-4,8-12.9,11.7a57.84,57.84,0,0,0-1.79-23,50.35,50.35,0,0,0-7-15.12s12.64,14.44,10.6,31.28a31.86,31.86,0,0,1-8.17,17.38c-12.29,13-31,7.54-32.16,7.19.5-.24,11.56-5.77,12.66-17.48.92-9.81-5.79-16.88-8.16-19.37a28.2,28.2,0,0,0-8.85-6.28c-4.2-5.19-9.06-13-10.25-23-.76-6.48.67-8.74,1.64-21.92.78-10.59,1.27-17.34.25-24.39a57.9,57.9,0,0,0-14.54-30.24,57.9,57.9,0,0,1,14.54,30.24c1,7.05.53,13.8-.25,24.39-1,13.18-2.4,15.44-1.64,21.92,1.19,10.09,6.05,17.86,10.25,23a22.06,22.06,0,0,1-14.29.3C377.39,688,373.3,677.74,372.6,676s-2.53-6.85-.82-22.58a159.81,159.81,0,0,1,5.68-28.11,30.77,30.77,0,0,0-7.42,4.3,29.31,29.31,0,0,0-3,2.67c-4.64,4.88-5.76,11.39-6,13A27.34,27.34,0,0,0,363.39,661a26.68,26.68,0,0,1-9-10.09,30.41,30.41,0,0,1-.88-24.05c2.29-5.7,5.53-7.92,5.89-13.68a56.49,56.49,0,0,0-.28-8.54,16.74,16.74,0,0,0-.69-4.35c-1.59-4.76-5.48-6.86-7.75-14.53-5.14-17.41,6.18-36,8.71-40.15,7.52-12.32,11.82-9.82,23.14-25.38a96,96,0,0,0,19.6-61.68,98.19,98.19,0,0,1-4.9,33.94,93.06,93.06,0,0,1-14.7,27.74,65.84,65.84,0,0,0-1.9-15.64c-3.42-13.83-8.84-15.78-12-28a57.79,57.79,0,0,1,0-27.15c1.94-8.47,4.7-11.52,9.26-21,1.78-3.7,9.89-20.93,12-36,2.85-20.61-7.53-23.09-8.16-46-.84-30.27,16.46-52.83,20-57.26,4.09-5.12,14.16-17.39,31.85-24.06a67.26,67.26,0,0,1,38.93-2.5m59.2-8.69a117.4,117.4,0,0,0,10.75,7.18,105.63,105.63,0,0,0,17.79,8.59c14.14,4.64,29.17-1,36.75-4.5.88-11.73,4.61-19.58,7.4-24.13,12.32-20.06,38.84-28.76,67.24-22.73-28.4-6-54.92,2.67-67.24,22.73-2.79,4.55-6.52,12.4-7.4,24.13a222.27,222.27,0,0,1,28.36-5.54,219.71,219.71,0,0,1,27.77-1.77,72.51,72.51,0,0,1,42.74-.29c30.92,9.48,45.35,37.1,48.19,42.79-2.84-5.69-17.27-33.31-48.19-42.79a72.51,72.51,0,0,0-42.74.29c28.87,7.26,39,22.91,42.47,29.52,5,9.61,5.33,23.75,5.72,51.65.45,32.84-1.69,38.64-.28,56.37a192.38,192.38,0,0,0,13.34,56.08c5.26,19.33,8.77,36,11.16,49.29,2,10.74,3.42,20.65-.27,31.88a47.38,47.38,0,0,1-7.08,13.58,47.38,47.38,0,0,0,7.08-13.58c3.69-11.23,2.22-21.14.27-31.88-2.39-13.25-5.9-30-11.16-49.29,3.56,27.45-.83,46.2-5.71,58.44-3.55,8.88-9.51,19.74-13.89,38.67-2.75,11.87-3.17,19.55-1.09,27.45a44.13,44.13,0,0,0,10.58,18.85l10.66-7.34a30.7,30.7,0,0,0-16.61,16.52c-4.76,11.54-1.05,22.33,0,25.39,2,5.81,3.56,5.62,7.93,13.73,4.85,9,10.1,18.24,8.41,28.18-1.53,8.94-8.62,18.66-18.64,20.85a21.92,21.92,0,0,1-12-.9,22.76,22.76,0,0,0,8.82,10.74c8.63,5.32,18.15,2,22.32.59a18.15,18.15,0,0,0,6.68-3.77,17.05,17.05,0,0,0,4.39-6.3,22.85,22.85,0,0,1-3.87,5.4,20.42,20.42,0,0,1-7.2,4.67c-.37,1.72-3.29,16.67,7.08,29.22s25.53,12.1,27.21,12c-1.37-1.33-9.12-9.1-9-21.24A29.1,29.1,0,0,1,746.09,706c5.77-5.48,11.45-13,12.67-22.55,1.82-14.38-7.33-26.58-7.35-26.56s8.85,12,7.35,26.56c-1,9.69-6.25,17.41-11.5,23,4.07-1.32,21.21-7.41,28.26-24.36a38.8,38.8,0,0,0,2.81-11.7,87.72,87.72,0,0,1-6.68-20.7,85.21,85.21,0,0,1-.64-29.14,72.12,72.12,0,0,0,.81,28.42c2.34,10.34,4.3,20.27,12.67,24.48,6.76,3.41,16.11,2.33,22.51-2.88a21.69,21.69,0,0,0,6.15-8.28c-3,1.31-10.1,3.9-16.53.72-7.79-3.85-9.23-13.53-10.9-24.84-1.45-9.78.6-13.53,1.76-15.12a36.09,36.09,0,0,0,2.58-3.38c2.42-3.86,2.25-6.34,3.36-9.66,2.61-7.85,8.31-8.37,8.37-14a10.75,10.75,0,0,0-2-5.87c-5.06-8.41-11.47-24.88-11.26-38,.13-8,2.67-14.49,5.63-22.08,3.81-9.77,6.07-10.57,7.61-18.41a57.76,57.76,0,0,0,.06-20.53s-.27-1.42-.61-2.78c-3.52-14.34-17.38-28.12-17.38-28.12-19.42-14-27.1-28-30.48-38.4-3.56-10.91-7-32.15-7-32.16,5.87,28.65,7,32.16,7,32.16,3.36,10.11,10.83,23.67,29.31,37.2,3.18-4.93,14.88-24.19,11.26-47.52-.72-4.58-2.11-13.55-8-22.68-3.79-5.91-5.54-5.78-12.43-15.6-6.17-8.8-8.44-14.15-9.61-17.28a65.34,65.34,0,0,1-3-11c-3.77-20.6,4-33.13,1.23-51.3a81.66,81.66,0,0,0-3.16-13c-1-2.95-2.14-5.4-4.32-10.19-2.42-5.33-4.29-9-5.07-10.72-3.67-8.18-6-14.49-8.27-20-10-24.74-19.16-47.19-37.29-63a115.74,115.74,0,0,0-24.64-15.93,74.25,74.25,0,0,0-13.87-5.06c-5.08-1.26-11.14-2.13-27.5-1.3-14.46.74-21.68,1.1-28.12,2.74a88.64,88.64,0,0,0-27.76,12.62" fill="#42210b"/><path d="M669.51,263.67a64.33,64.33,0,0,1,13.76,8.68A54.55,54.55,0,0,0,669.51,263.67Zm27,25.65c3,6.89,4,16.09,4.44,30.41C701.66,314.32,702.56,302,696.51,289.32ZM796.62,663.08c-7.8-3.85-9.22-13.53-10.9-24.84-1.45-9.78.6-13.53,1.76-15.12a39.66,39.66,0,0,0,2.59-3.38c2.41-3.86,2.24-6.34,3.35-9.66,2.62-7.85,8.3-8.37,8.37-14a10.75,10.75,0,0,0-2-5.87c-5.06-8.41-11.46-24.88-11.26-38,.13-8,2.67-14.49,5.63-22.08,3.81-9.77,6.07-10.57,7.61-18.41a57.76,57.76,0,0,0,.06-20.53s-.27-1.42-.61-2.78c-3.51-14.34-17.38-28.12-17.38-28.12l-1.15-.85q-1.89-1.4-3.64-2.8l-.08-.08c-13.52-10.88-20.37-21.53-24-30.29,3.55,8.38,10,18.46,22.45,28.75A106.71,106.71,0,0,1,762.5,435.8a109.85,109.85,0,0,1-14.77-41.52c1.24,5.05,6.71,24.89,25.32,36.12a51.25,51.25,0,0,0,19.32,6.82,62.44,62.44,0,0,0,1.56-25.66c-.72-4.58-2.12-13.55-8-22.68-3.8-5.91-5.54-5.78-12.43-15.6-6.17-8.8-8.45-14.15-9.61-17.28a66.37,66.37,0,0,1-3-11c-3.77-20.6,4-33.13,1.23-51.3a81.66,81.66,0,0,0-3.16-13c-1-2.95-2.14-5.4-4.31-10.19-2.43-5.33-4.3-9-5.08-10.72-3.68-8.18-6-14.49-8.27-20-10-24.74-19.16-47.19-37.3-63a115.54,115.54,0,0,0-24.63-15.93,74.05,74.05,0,0,0-13.83-5.05h0a46.78,46.78,0,0,0-7.16-1.24l-.2,0a139.38,139.38,0,0,0-20.1,0H638c-4.68.24-8.59.44-12,.66h0a149.86,149.86,0,0,0-45,16.51l-49.35,82.18.11.08c1,.77,2.23,1.65,3.6,2.59,1.75,1.21,3.77,2.54,6,3.92l1,.59.06,0a104.79,104.79,0,0,0,17.73,8.55h0a38.14,38.14,0,0,0,14.56,1.64A55.62,55.62,0,0,0,587.08,269a73.87,73.87,0,0,0,9.9-3.8h0c.94-5.59,5.23-27.42,22.73-39.5,10.45-7.22,21.76-8.31,29.38-9.05a73.94,73.94,0,0,1,17,.25,3.59,3.59,0,0,1-.14.43c-.16.52-.32,1.05-.5,1.57-11.1.85-37.37,2.36-48.2,13.91-1.43,1.52-6.79,7.24-7.55,15.71-.25,2.72-.46,5.08.82,6.64,3.43,4.21,13.67-2.26,27.15-6.2a103.8,103.8,0,0,1,18.2-4c7.22-.76,15-.3,22.43,3.13,13.84,6.42,20.16,20.39,21.85,24.13,10,22.05,2.26,43.66.79,47.56a0,0,0,0,0,0,0c.17,5.59.27,12,.37,19.27.46,32.84-1.69,38.64-.27,56.37a192,192,0,0,0,13.33,56.08c2.38,10.16,5.48,23.55,10.19,44.08,2.53,11,4,17.75,2.79,26.88a54.52,54.52,0,0,1-8.87,23.37c1-1.68,4.72-8.11,3.1-14.49-.2-.81-1.38-5.14-3.67-5.46-1.63-.23-3.55,1.63-10.34,15.94-5.25,11-7.9,16.7-9.53,23.17-2.44,9.67-2.1,15.75-2.82,15.75a44.52,44.52,0,0,0,9,14.17,29.87,29.87,0,0,0-5.95,9.18c-4.77,11.54-1.05,22.33,0,25.39,2,5.81,3.56,5.62,7.93,13.73,4.85,9,10.1,18.24,8.41,28.18-1.53,8.94-8.62,18.66-18.64,20.85a21.92,21.92,0,0,1-12-.9,22.82,22.82,0,0,0,8.82,10.74c8.62,5.32,18.15,2,22.32.59a21.1,21.1,0,0,0,5.39-3.29,22.16,22.16,0,0,0,5.92-7.92,57,57,0,0,0,16.26,52,32.24,32.24,0,0,0,6.72.44c-1.37-1.33-9.12-9.1-9-21.24A29.1,29.1,0,0,1,746.09,706c5.77-5.48,11.45-13,12.67-22.55-.9,8.64-5.16,15.71-9.8,21.12a78.78,78.78,0,0,0,15.12-16.85,57.06,57.06,0,0,0,5.57-10.17,55.61,55.61,0,0,0,4.11-18.11l.66,1.08a88.24,88.24,0,0,1-4.09-20.88,75,75,0,0,0,1.49,9.36,102.63,102.63,0,0,0,3.52,13.13h0a26.37,26.37,0,0,0,2.6,5.3l0,0a16.36,16.36,0,0,0,6.53,6c6.76,3.41,16.11,2.33,22.51-2.88a21.69,21.69,0,0,0,6.15-8.28C810.19,663.67,803.05,666.26,796.62,663.08ZM571.82,270h0a29.61,29.61,0,0,1-12.73-12.83c-5.07-10-4.37-22.64,1.63-33-.54,1.8-4.58,16.12,3.67,29.66A32.24,32.24,0,0,0,582.69,268,90.87,90.87,0,0,1,571.82,270Zm20.33-61.75c-15.43,24.22-14.09,49.46-13.47,56.67-1.2-4.54-8.08-32.7,7.55-59.32,20.16-34.31,58.61-33.5,60.43-33.43A80.37,80.37,0,0,0,592.15,208.22Zm150,375.55c-9.2,6.88-15.71,3.9-19.3,9.85-2.46,4.07-1.51,9-.2,15.71,2.85,14.78,10.14,22.91,9.59,23.36-.83.68-20.17-15.81-16.84-30.88,2-9,11.6-15.73,12.87-16.61,6.2-4.27,12.36-5.18,15.2-11.73a12.45,12.45,0,0,0,1.23-5.53c-.19-7-6.91-9.32-9.09-15.05-1.44-3.8-1.31-10.15,6.34-21.25a22.27,22.27,0,0,0-2.36,12.28c.23,1.9.77,4,4.19,10.52,6,11.33,8,11.92,8.06,15.49C751.87,576.47,745,581.58,742.12,583.77Zm4.26-193.7c4.85,23.56,6.45,29.94,6.86,31.42C750,411.32,746.84,392.86,746.38,390.07Zm-32,61.43c2,15.7,1.47,28.54-.29,38.95C716,481.64,717.38,468.63,714.38,451.5Zm-17.49,89c1.35-4,3.3-9.34,6.22-17.52A154.41,154.41,0,0,0,696.89,540.46Zm-3.09,12.7c-1.83,9.38-1.91,16.06-.1,22.9.1.38.2.77.33,1.14A85.82,85.82,0,0,1,693.8,553.16ZM481,269.79a43.23,43.23,0,0,0-9.62,7.24l-.32.31a36.73,36.73,0,0,0-6.57,8.29,27.16,27.16,0,0,0-1.46,2.84s0,0,0,0l.41-.78c.19-.35.37-.69.57-1s.4-.7.6-1a45.33,45.33,0,0,1,9.53-10.94l0,0a56.14,56.14,0,0,1,6.86-4.9ZM468.42,661.58c-5.33-4.57-6.82-10.78-7.75-15.28-1.88-9,1-10.45,2.85-32.9,0,0,.14-1.59.14-4,0-5.21-.62-14.33-4.43-20.18-1.89-3.08-2.89-3.8-3.88-6.42-3.07-8.22.92-16.85,3.27-22.8a158,158,0,0,0,6.48-19h0c-2.08-10.88-6.14-16.85-9.64-20.32-2.39-2.37-5-4-9.19-8.52a79.44,79.44,0,0,1-7.76-9.69c-1.88,1.12-3.89,2.42-6,3.93s-3.8,2.91-5.43,4.32a221.5,221.5,0,0,1,3.71-26,216.28,216.28,0,0,1,8.61-30.57c1.66-5.75,4-14,6.53-23.91,7.84-30.22,11.76-45.33,12.8-60.51,0-.61-.11-15.46-.41-45.15v0c-.17-15.95-.25-24.84,3.59-33.76-6.08,13.45-5.39,27.84-4.55,34.73a220.3,220.3,0,0,1-2.34-24.33c-.33-8.35-.49-12.63.51-17.71a51.57,51.57,0,0,1,10.12-22.11,67,67,0,0,0-32.11,3.73A70.34,70.34,0,0,0,409,281a89.7,89.7,0,0,0-7.31,8.2c-3.55,4.43-20.85,27-20,57.26.63,22.95,11,25.43,8.17,46-2.08,15.08-10.2,32.31-12,36-4.56,9.44-7.32,12.49-9.26,21a57.65,57.65,0,0,0,0,27.15c3.13,12.26,8.55,14.21,12,28a65.43,65.43,0,0,1,1.91,15.64c-11.32,15.56-15.62,13.06-23.14,25.38-2.53,4.16-13.85,22.74-8.7,40.15,2.26,7.67,6.15,9.77,7.74,14.53a16.74,16.74,0,0,1,.69,4.35,55,55,0,0,1,.28,8.54c-.36,5.76-3.6,8-5.89,13.68a30.41,30.41,0,0,0,.88,24.05,26.68,26.68,0,0,0,9,10.09A27.17,27.17,0,0,1,361,645.2c.26-1.57,1.37-8.08,6-13a29.31,29.31,0,0,1,3-2.67,30.77,30.77,0,0,1,7.42-4.3,158.89,158.89,0,0,0-5.68,28.11c-1.72,15.73.13,20.86.81,22.58s4.8,12.08,15.12,15.5c.19.07.39.13.58.18a34.64,34.64,0,0,1-4.06-9.55c-2.13-8.33-.62-15.28.34-19.48a48.67,48.67,0,0,1,9-18.91c-.05.8-.12,1.63-.18,2.49,0,.16,0,.31,0,.47a.76.76,0,0,0,0,.15c-.12,1.15-.25,2.45-.39,3.87-.82,7.82-1.28,9.19-1.38,12.26,0,.15,0,.3,0,.45v.05q0,.59,0,1.2a31.66,31.66,0,0,0,.21,3.47,40.46,40.46,0,0,0,1.78,8c.07.22.15.44.23.65s.09.29.14.43a41.46,41.46,0,0,0,8.09,14,28.1,28.1,0,0,1,8.86,6.28c2.37,2.49,9.08,9.56,8.16,19.37-1.1,11.71-12.16,17.24-12.66,17.48a38.89,38.89,0,0,0,18.7.5,52,52,0,0,0,10.58-14.14,53.66,53.66,0,0,0,3.67-9.12c3.5-12.13.68-23.79-1.11-29.49,1.15,1.27,11.44,13.09,8.38,28.32-2.19,10.88-9.93,17.36-12,19a35.3,35.3,0,0,1-9.38,5.38,26.85,26.85,0,0,0,13.35-7.66A30.81,30.81,0,0,0,445,716.52c8.83-3.71,11.88-9.59,12.81-11.67,2.56-5.72,1.83-11.43.51-21.69-.11-.81-.21-1.61-.33-2.38-2.16-.93-14.7-6.58-19.16-20.53a33.25,33.25,0,0,1-.86-16.61A51.51,51.51,0,0,0,446.88,660a38.36,38.36,0,0,1-3.89-6.4,40.64,40.64,0,0,0,4.47,7.09,50.2,50.2,0,0,0,7.89,7.52,26.23,26.23,0,0,0,12,5.09c11,1.35,19.32-6.15,21.24-8C486.94,665.8,476.48,668.48,468.42,661.58ZM399.21,351.22c.44-5.62,1.49-17.41,7.84-29.43A58,58,0,0,1,413.5,312a56.8,56.8,0,0,1,21.85-16.38,72.22,72.22,0,0,0-27,40.93h0a88,88,0,0,0-2.21,15.07c-.83,11.61.93,17.6,3.68,37.85.89,6.59,2.13,16.5,3.26,28.78A240.37,240.37,0,0,1,404.27,389C400.35,372.31,398.26,363.36,399.21,351.22Zm47,246.3c-1.67.85-5.53-13.13-19.74-25.49-8.58-7.45-12.38-6.9-17.16-13.06-7-9-7.4-21.27-6.53-30.54,2.29,14.61,7.6,22.85,12.86,27.78,7.5,7,13,5.55,20.32,13.28C446.22,580.35,447.93,596.64,446.21,597.52ZM460,505.1c3.63,5.86,5.55,9,6.75,13.25C465.68,512.16,463.24,508.89,460,505.1Zm-11.63-16.85a85.09,85.09,0,0,1-6.89-19.64,72.37,72.37,0,0,0,8.27,22.28Q449.1,489.65,448.41,488.25Zm-7.26-21.34c0,.21.08.42.13.64s.15.68.24,1C441.39,468,441.27,467.46,441.15,466.91Zm-1.44-9.48c.19,2.07.5,4.4,1,6.94C440.25,461.92,439.94,459.59,439.71,457.43ZM632,153c.48.43.85.79,1.11,1.06-1.18.17-2.41.36-3.67.58,1.72,0,3.33,0,4.82,0C633.54,154.14,632.79,153.58,632,153Zm36.76,4.55a10.47,10.47,0,0,0-3.14-1.65h0a29,29,0,0,0-7.16-1.24l-.2,0c-4.94-.34-11.48-.23-20.1,0H638l-3.81.08c-2,0-4,.09-6,.17h0c-.71.13-1.44.26-2.17.41h0a149.86,149.86,0,0,0-45,16.51q-2.16,1.2-4.12,2.39c1.53-4.89,5.2-14,13.68-20.36,10.38-7.82,25.26-9.14,35.64-4.41a65.44,65.44,0,0,0-23.09-8,67,67,0,0,0-30,2.88c-6-1.46-30.12-6.56-53.91,8.63a68.93,68.93,0,0,0-11.61,9.33l5,5.36a146.93,146.93,0,0,0-16.88,58A148.52,148.52,0,0,0,498,264.38c7.82,3.09,15.93-3.53,17.34-4.74a25,25,0,0,0,10,4.15c7.84,1.38,16-1.41,16.14-3.28a.06.06,0,0,0,0,0l1,.63.06,0c4.65,2.93,8.46,5.14,9.87,5.89a26.67,26.67,0,0,0,7.86,2.66h0a41.41,41.41,0,0,0,11.52.27,29.61,29.61,0,0,1-12.73-12.83c-5.07-10-4.37-22.64,1.63-33-.54,1.8-4.58,16.12,3.67,29.66A32.24,32.24,0,0,0,582.69,268h0l.47-.1c4.21-.94,8.79-1.84,13.81-2.72,14-2.45,31.27-4.66,53.16-6.73q.14-.29.24-.57c-1.52,0-3.06.06-4.64.11l-2.35.09q-5.16.24-10.58.73c-1.65.15-3.32.32-5,.53-.81.08-1.62.18-2.44.29l-2.5.34-.34.05-2.12.31-1.47.23-2.34.38-2.32.4q-2.78.5-5.59,1.08c-4,.83-7.92,1.76-11.68,2.75.94-5.59,5.23-27.42,22.73-39.5,10.45-7.22,21.76-8.31,29.38-9.05a73.94,73.94,0,0,1,17,.25C675.59,186.88,677.42,164.41,668.71,157.53Zm-160.47,61.1c-2.47,6.65-4.13,13.3-3.51,20.94.6,7.3,3,11.45,3.58,12.5a23.58,23.58,0,0,0,7.07,7.51,34.32,34.32,0,0,1-16.23-15.72c-7.34-15-1.71-32.53,5.72-42.72a41.49,41.49,0,0,1,22.76-15.5A113.8,113.8,0,0,0,508.24,218.63Zm35.26-56.25c-1.16,1-2.25,2.08-3.29,3.09C541.25,164.45,542.34,163.41,543.5,162.38Zm-13.69,90.19c.56.41,1.2.86,1.9,1.35l.11.08c1,.77,2.23,1.65,3.6,2.59A52.41,52.41,0,0,1,529.81,252.57Zm62.34-44.35c-15.43,24.22-14.09,49.46-13.47,56.67-1.2-4.54-8.08-32.7,7.55-59.32,20.16-34.31,58.61-33.5,60.43-33.43A80.37,80.37,0,0,0,592.15,208.22Zm25.11,24.58c-1.43,1.52-6.79,7.24-7.55,15.71-.25,2.72-.46,5.08.82,6.64,3.43,4.21,13.67-2.26,27.15-6.2a103.8,103.8,0,0,1,18.2-4c3.72-9.12,6.93-17.85,9.58-26.05C654.36,219.74,628.09,221.25,617.26,232.8ZM494.9,160.53l11.7.54A49.2,49.2,0,0,0,494.9,160.53Zm-59.54,47.22a34.74,34.74,0,0,0,.21,3.8h0C435.51,210.28,435.43,209,435.36,207.75Zm33.34,36.41A88.35,88.35,0,0,1,484.08,248a85.24,85.24,0,0,1-7.35-41.47,83.64,83.64,0,0,1,18.06-46A46.1,46.1,0,0,0,480.47,164c-8.72,3.64-15.2,9.47-18.45,14a26.75,26.75,0,0,0-19.6,9.44c-6,7.09-7.05,15.43-7.06,20.37a32.75,32.75,0,0,1,17.68,5.9c9.28,6.61,13.76,17.43,12.79,18.3s-5.82-7.19-16.33-13a48.21,48.21,0,0,0-18.09-5.65A30.17,30.17,0,0,0,417.11,226c-6.87,11.87-3.78,24.08-3.27,26-7.06,6.28-7.3,15.43-7.35,17.12A25.82,25.82,0,0,0,409,281c.26.56.52,1,.72,1.41a174,174,0,0,0-2.71,39.41A58,58,0,0,1,413.5,312a56.8,56.8,0,0,1,21.85-16.38,72.22,72.22,0,0,0-27,40.93h0a170.66,170.66,0,0,0,14.19,49.08c9.35,1.36,20.22,1,27.22-6.2,6.08-6.22,6.17-14.39,8.17-48.1,0-.6.07-1.18.1-1.76h0c.1-1.75.2-3.42.3-5v0c1.42-22.88,2.28-30.49,4.61-35.94l-.37.75c-.12.24-.22.48-.34.73s-.22.47-.31.7c-6.08,13.45-5.39,27.84-4.55,34.73a220.3,220.3,0,0,1-2.34-24.33c-.33-8.35-.49-12.63.51-17.71a51.57,51.57,0,0,1,10.12-22.11h0c.66-.83,1.37-1.65,2.12-2.46a44.4,44.4,0,0,1,8.07-6.87,61.51,61.51,0,0,0-17.12-6.56c-9.38-2-16.32-1.13-16.32-1.41S454.32,241.91,468.7,244.16Zm-8.32-63.75c.32-.54.63-1,.95-1.51C461,179.43,460.67,179.94,460.38,180.41ZM481,269.79a43.23,43.23,0,0,0-9.62,7.24c.89-.81,1.81-1.59,2.75-2.31l0,0c7.08-5.46,15.71-8.53,23.82-10.32A46.31,46.31,0,0,0,481,269.79ZM457.45,326c.19,1.19.38,2.41.6,3.65v0C458,329.29,457.71,328,457.45,326Zm13.6-48.62a44.94,44.94,0,0,0-6.46,8.32c-.2.34-.41.69-.6,1s-.39.68-.57,1-.26.49-.4.74a27.16,27.16,0,0,1,1.46-2.84A36.73,36.73,0,0,1,471.05,277.34Zm23.77-116.81h0Zm12.83,1.68c-.82.82-1.61,1.65-2.37,2.5l1.32-3.64C507,161.45,507.31,161.83,507.65,162.21Zm-72,49.63a26.11,26.11,0,0,0-3.12,1l3.08-1.28C435.59,211.67,435.6,211.77,435.61,211.84Zm196.28-58.9c-1.58-1.11-3.45-2.34-5.6-3.56A22.71,22.71,0,0,1,631.89,152.94Zm-19.18,3.71a85.38,85.38,0,0,1,16.65-2l-1.12.2h0A88.58,88.58,0,0,0,612.71,156.65ZM449.82,491c3.73,6.26,4.92,5.58,10.22,14.15A76.4,76.4,0,0,1,449.82,491ZM465.1,541c1.91-7.41,3-15.4,1.69-22.65C467.73,521.72,469.3,529.71,465.1,541ZM393.61,643.64c-.07.82-.15,1.84-.25,3,0-.16,0-.31,0-.47.06-.86.13-1.69.18-2.49Zm-2,19.8a38.73,38.73,0,0,0,2.19,13.28c-.08-.21-.16-.43-.23-.65a40.46,40.46,0,0,1-1.78-8,31.66,31.66,0,0,1-.21-3.47Q391.54,664,391.57,663.44Zm55.89-2.74c.37.48.76,1,1.17,1.43-.56-.62-1.12-1.29-1.67-2C447.12,660.32,447.29,660.51,447.46,660.7ZM458,680.78h0c0-.22-.06-.44-.1-.66C457.92,680.34,458,680.56,458,680.78ZM587.08,269l-12.23,2.34a28.85,28.85,0,0,1-3-1.37,90.87,90.87,0,0,0,10.87-2h0A26.87,26.87,0,0,0,587.08,269Zm79.85-6.49a66.54,66.54,0,0,0-16.54-4.61l2.74,0A88.72,88.72,0,0,1,666.93,262.51Zm-41.57-2.86c.82-.11,1.63-.21,2.44-.29l-3.13.39c-1.45.19-2.88.39-4.27.6C622,260.1,623.68,259.87,625.36,259.65Zm2.44-.29c1.69-.21,3.36-.38,5-.53C631.16,259,629.48,259.16,627.8,259.36Zm42.75-41.25c0,.35-1.93.54-5.09.78.18-.52.34-1,.5-1.57a3.59,3.59,0,0,0,.14-.43C668.89,217.28,670.55,217.78,670.55,218.11ZM695.6,287.4c.3.57.58,1.15.84,1.76a51.59,51.59,0,0,0-12.54-16.28A49,49,0,0,1,695.6,287.4ZM701,319.76v0A.06.06,0,0,1,701,319.76Zm91.57,117.48A68.15,68.15,0,0,1,788.06,450a66.53,66.53,0,0,1-5.37,9.47l-.26.37c-1.07-1-2.2-2-3.38-3.17l-.08-.08L777.43,455q2.45,2,5.24,4.07a77.35,77.35,0,0,0,9.7-21.86Zm-98.47,140c.35,1.21.75,2.36,1.18,3.46C694.9,580.74,694.45,579.47,694.05,577.28Zm-.24-24.19a60,60,0,0,1,3.07-12.59q-1.08,3.79-2.1,8.11C694.42,550.17,694.1,551.66,693.81,553.09ZM714,490.69a94.92,94.92,0,0,1-5.37,19.25c-1.5,3.75-3.42,7.87-5.49,12.79l.05-.14C709.84,504.08,713.16,494.74,714,490.69ZM748,705.44c.35-.27.68-.55,1-.83-.21.26-.43.51-.65.75Zm30-37.93,0,0c-.45-1.07-1-2.18-1.54-3.32-.35-.69-.7-1.35-1.06-2h0Z" fill="#fff" opacity="0.5" style="mix-blend-mode:overlay"/><path d="M518.14,236.71a61.49,61.49,0,0,1,8.27-34.46A53.92,53.92,0,0,1,551.59,180a49.63,49.63,0,0,0-9.26,9A48.73,48.73,0,0,0,539,193.8a97,97,0,0,1,11.69-8.23,95.24,95.24,0,0,1,24.9-10.48,62.69,62.69,0,0,0-27.9,23.76,70.39,70.39,0,0,0-10.75,31.44,105.2,105.2,0,0,1-1.23-19.63c.11-3.2.35-6.21.68-9a55.9,55.9,0,0,0-10.89,13.57A60.37,60.37,0,0,0,518.14,236.71Zm-96.54,88A66.3,66.3,0,0,1,432.83,310c.32,1.62.79,3.94,1.43,6.71,1.34,5.86,3.33,14.61,4.35,14.46.84-.12-.1-6.1,1.36-14.16a51.16,51.16,0,0,1,4.43-13.43,25.62,25.62,0,0,0-4.63,7,27.66,27.66,0,0,0-2.11,7.23,62.62,62.62,0,0,1-.88-6.57c-.45-5.37,0-8-1.09-8.56-.81-.4-2.08.51-4.84,3.47-3.87,4.17-5.88,6.33-8.16,10.33a60.5,60.5,0,0,0-7,21.92A69.65,69.65,0,0,1,421.6,324.66ZM396,423.24c4.07-6.14,4.3-14.15,5.65-14,.83.08,1.23,3.21,1.49,5.31.94,7.42-.38,12.12.28,12.33s3.38-4.67,4.22-10.7a30.28,30.28,0,0,0-1.09-12.84,19.32,19.32,0,0,1-.82,12.76,21.73,21.73,0,0,0-.95-8.85c-1.17-3.53-3.93-8.63-5.85-8.19-2.16.49-1.11,7.45-3.34,14.9-1.77,5.94-5.71,12.49-14,18.6C386.46,431.32,392.31,428.83,396,423.24ZM733.17,643.05c5.34,6.1,11.37,15,13.61,26.86s-.39,20.49.51,20.66c1.22.23,9.5-15.22,3.57-30.4A30.35,30.35,0,0,0,733.17,643.05Zm28.24-160a54.82,54.82,0,0,1,8,15.38,58.16,58.16,0,0,1,2.76,22.36,47.84,47.84,0,0,0,5.41-21,101.55,101.55,0,0,1,3.06,22.36c.29,11.51-1.52,18.51-1.12,18.59.68.14,8.51-19.1,5.21-41.73a90.14,90.14,0,0,0-18.48-41.72,73.37,73.37,0,0,1,7,19A75,75,0,0,1,775,491.9a24.7,24.7,0,0,0-5.51-5.31A22.49,22.49,0,0,0,761.41,483.05ZM641.7,196.79c21.46.87,34.7,9,41.1,13.87,8,6,14,13.45,19.93,20.79,12.17,15,17.22,26,18.19,25.4s-1.5-16.81-12.39-27.45c-3.93-3.84-9.32-7.33-12.8-15.49-.93-2.19-2.63-6.2-1.22-8,2.18-2.74,10.68,1.3,18,5.46a92.6,92.6,0,0,0-24-23.47,84.81,84.81,0,0,0-32.67-13.13,130.57,130.57,0,0,1,14.57,9,135.7,135.7,0,0,1,16.06,13.43Q674.75,191.4,674,192.8t7.48,8.41A38.49,38.49,0,0,0,659.12,193,37.18,37.18,0,0,0,641.7,196.79Z" fill="#fff" opacity="0.6" style="mix-blend-mode:overlay"/><path d="M800.34,663.45c-3.14-1.36-4.71-4.22-6.87-8.21-1.65-3-6.59-12.13-5.34-24.11.25-2.45,1.18-11.43,6.87-18.93,2.41-3.19,5.22-5.5,6.56-10.55a21.47,21.47,0,0,0,.46-8.2c-.82-6-3.82-8.81-6.57-13.57-4.12-7.13-5-14-5.64-18.75-1.19-9,.47-15.91,2.59-24.45,4.07-16.41,7.77-16.06,9.31-27.3a59.17,59.17,0,0,0-3.2-27.63,59.88,59.88,0,0,0-13.59-22.1c4.21-7.33,13.29-25.54,10.23-47.56a62.65,62.65,0,0,0-6.26-20.77c-6.82-13.18-14.13-14.37-21.52-29.3a55.45,55.45,0,0,1-5.8-17.25c-1.86-12.49,2.38-16.63,3.36-31,1-15.35-2.66-27.52-4.58-33.83-2.71-8.9-4.66-10.8-12.67-27.63-9.46-19.87-8.32-20.53-14.35-32.65C727,206.91,720,192.8,706.62,179.15c-6.45-6.6-17.84-18-36.17-24.28a79.83,79.83,0,0,0-37.86-3.35A64.75,64.75,0,0,0,607.41,140a62.27,62.27,0,0,0-32.51,1.84,70.19,70.19,0,0,0-34.34.17,74.61,74.61,0,0,0-30.84,16.58,44.08,44.08,0,0,0-27.16.5A48.21,48.21,0,0,0,461,174.46a36.12,36.12,0,0,0-18.77,12.4,42.75,42.75,0,0,0-9,24.11,34.44,34.44,0,0,0-17.4,14.74c-7,11.76-5.32,23.89-4.88,26.62a29,29,0,0,0-5.49,10.38,32.09,32.09,0,0,0,.61,19.26,124,124,0,0,0-22.75,41.37c-2,6.26-4.23,13.68-4.12,23.61,0,3.12.31,6.25,3.36,22.1,4.27,22.19,4.63,20.64,4.73,24.28.32,12.19-3.88,21.81-8.55,32.49-6.41,14.67-9.71,14.65-11.75,24.78a60.15,60.15,0,0,0,.61,24.79c1.38,6.05,3.44,10.77,7.48,20.09,4.34,10,7,14.08,6.26,20.6a23.85,23.85,0,0,1-3.36,9.38c-4.63,8.29-10.26,9.71-16,14.9-10.64,9.58-13.17,24.2-13.73,27.47-.85,5-3.25,18.78,3.36,30.14,3.37,5.8,7.49,8.23,7.32,13.73-.12,4.27-2.71,5.64-5.65,11.55-.33.69-5.3,10.93-4.27,19.76,1.55,13.39,16.52,20.69,18.47,21.61a22.6,22.6,0,0,1-4.88-21.94,20.59,20.59,0,0,1,12.82-13.06A89.64,89.64,0,0,0,371,649.88c-1,10.08-2.1,20.92,3.51,31.15,1.46,2.66,5,8.89,12.21,12.22a23.12,23.12,0,0,0,13.89,1.68,24.43,24.43,0,0,1,7.79,4.85c1.95,1.82,9.6,8.91,8.54,19.26a20.66,20.66,0,0,1-12.35,16.68,29.91,29.91,0,0,0,23.95,1.74c13-4.77,18.2-17.09,19-19.09a28.53,28.53,0,0,0,12.13-12.56c7-14.26-.29-29.18-.92-30.39a31.22,31.22,0,0,0,14.2,1,23.77,23.77,0,0,0,5.49-1.5,25.46,25.46,0,0,0,10.76-8.8c-5.43,0-17.26-.89-23.12-9.79-3.51-5.32-3.29-12.74-2.75-27.38.72-19,3.56-23.36.92-34.16-2.2-9-4.63-7.85-5.72-15.33-1.15-7.85,1.19-11.49,6.64-32.15,4.15-15.75,4.24-19.14,4.12-21.85-.42-8.44-3.27-14.56-6.41-21.1-7.23-15.06-13.53-17.25-18.55-31.15a65.66,65.66,0,0,1-3.2-12.81c1.42-5.6,3.51-13.84,5.95-23.86,7.55-31,11.32-46.54,12.36-55.52,2-17.06,1.72-34.44,1.38-57-.23-15.19-.77-19.94,1.6-26.87,5.95-17.42,22.63-26.35,34.34-30.9A14,14,0,0,0,507.28,268a14.68,14.68,0,0,0,7.56-4.77,18.21,18.21,0,0,0,12.36,3.51A18.39,18.39,0,0,0,537.73,262a87,87,0,0,0,29.08,9.8c23.14,3.33,32-5.63,58.84-7.79,19.19-1.55,44.08-3.56,58.84,12.81,9.27,10.29,10.7,23.57,13,45.47,3.24,30.13-2.91,33.5-1.37,61.54,2,36.1,12.58,37.23,13.5,74.85.36,14.31.75,30.31-4.58,49.86-2.23,8.22-5.21,16.07-11.33,38.06-3.94,14.19-5.62,21.41-3.78,30.14a42.17,42.17,0,0,0,11.11,20.35c-7.52,16-7.07,27-5.15,34.28,2.93,11.06,9.35,13.22,12,26.25.92,4.54,4,19.64-4.35,28s-21.72,3.77-22.78,3.39c.89,2,8.21,17.77,21.67,19.18a19.18,19.18,0,0,0,7.33-.67c-.05,3,0,16.38,9.31,27,8.82,10,22.56,13.67,35.56,9.54a20.26,20.26,0,0,1-13.28-16.91c-1.23-10.36,5.65-17.32,6.26-17.92a38.65,38.65,0,0,0,19.54-10.88c9.71-9.95,11.72-22.21,12.21-26,8.16,6.18,18.53,6.91,26.56,1.84,8.66-5.48,10.91-15.4,11.29-17.25C816.81,657.42,808,666.74,800.34,663.45ZM458.52,288.84c-5.09,10.63-3.85,19.14-3.9,43.2,0,0-.06,32.5-2.74,59a246.8,246.8,0,0,1-15.34,63.55,112.48,112.48,0,0,0-7.33,22.61c-6.55,31,1.34,57.49,6.18,70.33a115.16,115.16,0,0,1-5.26-29.39A116.58,116.58,0,0,1,437,473c3.35,6.14,8.63,15.56,15.57,26.88,9.5,15.47,11.48,17.15,12.37,22.86.75,4.78-.13,7-9.39,37.42-3.65,12-5.43,18.13-3.44,24.37s5.25,6.14,7.79,13.31c.85,2.4,2.19,7.19.23,23.61-1.9,15.9-3.77,16.55-3.44,22.11.41,6.71,3.79,16.39,18.55,27.63-1.88.19-17.77,1.51-28.85-11.81a39.06,39.06,0,0,1-8.67-23.76A52.66,52.66,0,0,0,442,658.84a48.07,48.07,0,0,0,10.53,15.07A35.1,35.1,0,0,1,456.45,693a34.07,34.07,0,0,1-9.38,20.85,55.3,55.3,0,0,0-3.67-23.36,50.55,50.55,0,0,0-7.55-13.06,74.78,74.78,0,0,1,5.72,20.85c1.1,8.82,2.18,17.59-1.83,24.86-7.59,13.75-27.94,12.16-29.08,12.06A23.2,23.2,0,0,0,421,721.39c2.94-11.8-5.12-21.63-5.73-22.36-5.69-6.75-10.49-4.45-15.56-11.3-.83-1.12-3.91-5.52-5-17.08-1.38-14.08,1.6-23.85,2.52-29.64,1.69-10.68-.61-26.77-19-50a68,68,0,0,1,12.37,24.11c4,14.49,2.43,27.56,1.83,32.16-1.63,12.46-4.82,15.5-3.89,24.36a39.07,39.07,0,0,0,8.47,19.84c-3.41-.25-10.84-1.35-16.49-7.53s-6.43-14.31-7.09-23.36a94.63,94.63,0,0,1,4.8-36.93,25.32,25.32,0,0,0-14.88,12.56,30.14,30.14,0,0,0-2.06,21.61c-1.18-.84-8.83-6.4-9.39-15.33-.3-4.9,1.61-9.6,2.29-11.3a39.13,39.13,0,0,1,3.44-6.28,38.39,38.39,0,0,0,5-19.09c-.27-8.46-5.13-9.69-7.79-18.34-4-13,2-26.23,4.35-31.4,6.12-13.5,12.17-12.39,25-29.89,4.68-6.4,11-15,14.88-26.88,2.39-7.24,6.27-22.91,1.37-45a93,93,0,0,1-1.6,23.87,89.12,89.12,0,0,1-12.82,31.39,116.16,116.16,0,0,0-3.44-12.05c-3.7-10.71-6.74-14.27-8.7-20.35-3-9.27-1.28-17.61.46-26.12,4.14-20.24,12.16-20.18,16.94-38.94,3.68-14.43,2.22-27.41,1.15-36.92-1.93-17.14-5.38-17.18-6-29.39-1-21.92,9.26-39.13,13.05-45.47,11.16-18.65,25.58-27.26,28.39-28.88a70.62,70.62,0,0,1,44.87-8.8A58.09,58.09,0,0,0,437,261.46a61.85,61.85,0,0,0-26.33,15.82,30.42,30.42,0,0,1,3.9-18.33A25.8,25.8,0,0,1,431,246.89a16.67,16.67,0,0,0-14.65-.75,41.38,41.38,0,0,1,4.12-14.82A38.09,38.09,0,0,1,440.66,213a38.68,38.68,0,0,1,3.66-17.58,34.35,34.35,0,0,1,12.13-14.07c-.1,1.63-.17,3.31-.22,5q-.18,5.78,0,11.06c1.19-3.76,7.47-22.26,25.18-30.9a41.93,41.93,0,0,1,22.44-4c-.09,1.35-.18,2.72-.27,4.08-1,1.06-2.1,2.2-3.17,3.46-12.05,14.16-15.22,30.15-16.48,36.92a94.54,94.54,0,0,0,.69,36.93,100.55,100.55,0,0,0,5.72,18.83C480.48,266.25,465.88,273.46,458.52,288.84ZM784.31,671.9c-1.3-.77-5.94-3.79-10.3-18.34a103.45,103.45,0,0,1-4.12-34.66,73.68,73.68,0,0,0-.92,27.88,71.27,71.27,0,0,0,7.79,22.86A45.15,45.15,0,0,1,769.89,689a39.38,39.38,0,0,1-19.46,15.58,31,31,0,0,0,8.47-24.12,29.53,29.53,0,0,0-11.22-20.34c8,13.87,7.78,22.49,6,27.88-3.3,9.77-12.59,10.95-15.8,23.61a35.14,35.14,0,0,0,0,16.08,34.75,34.75,0,0,0,8,15.57c-.8,0-17.75.39-26.33-14.57-5.69-9.89-4.12-20.25-3.66-22.86a29,29,0,0,0,4.35-3.77,31.75,31.75,0,0,0,6.63-10.8c-9.28,11.14-21.72,15.6-31.13,11.31a20.85,20.85,0,0,1-8.7-7.79c11,2.4,16.91-1.58,18.77-3,10.48-8.13,11.18-28.19,6.64-41.45-4.07-11.86-10.91-14.15-12.36-27.13a45,45,0,0,1,1.6-16.83A43.55,43.55,0,0,1,715.51,585q-5.55,4.37-11.1,8.76a28.37,28.37,0,0,1-8.24-12.06c-2.74-8-1.07-15.32,1.37-24.36,5.14-19,9.18-28.54,12.13-38.18a153.7,153.7,0,0,0,6.41-37.43,89.81,89.81,0,0,1,8.25,28.64,92.32,92.32,0,0,1-3,35.92,87.65,87.65,0,0,0,7.1-29.39c.46-7.59,0-16.43-6.64-41.7-6.51-24.88-8.4-25.33-12.59-42.45A278,278,0,0,1,701.66,383c-1.21-21.28,1.36-23.48.69-53.5-.5-21.73-.83-32.78-5-41.95C689.37,270.31,674,262,664.8,258.19a69.3,69.3,0,0,1,23.12.25c29.18,5.32,46.86,28.28,52.65,36.57-5.24-7.94-26.88-38.56-62.49-42.34a70.61,70.61,0,0,0-26.33,2.26c-2.33,0-4.69-.06-7.1,0a175.08,175.08,0,0,0-46.25,7.28,61.65,61.65,0,0,1,7.33-16.58c17.17-26.85,49.85-28.24,55.64-28.38-3.72-.75-28.66-5.39-49.23,13.31-13.13,11.95-17.55,27.1-19,33.16A153.82,153.82,0,0,1,571.39,266c-12.9.41-17.62-1.12-20.38-2.26-3.47-1.44-4.09-2.37-8.47-4.52a62,62,0,0,0-17.17-5.53L536.59,261c-.74.18-14.35,3.37-24-7.54-8.33-9.36-7-21.57-6.87-23.11a29.49,29.49,0,0,0-1.37,20.35,26.22,26.22,0,0,0,7.32,11.55l-14.42-.75a66.91,66.91,0,0,1-8.7-20.1c-5.09-20.3.65-37.66,3.89-47.47a103.92,103.92,0,0,1,10.91-23.08,103.06,103.06,0,0,1,30.76-19.12A96.57,96.57,0,0,1,568,144.91,81.51,81.51,0,0,0,551,155.21a89.18,89.18,0,0,0-19.46,21.35c5.76-6.49,26.15-27.82,57.7-30.15a79.22,79.22,0,0,1,36.17,6,77,77,0,0,0-25.64,7,81.69,81.69,0,0,0-19.69,13.06c7.34-3.76,63-31.18,105.77-3,19.34,12.74,32.51,33.41,32.51,33.41,10,15.65,7.51,20.28,23.81,51.24,5.72,10.85,9.25,16.42,12.83,27.38,2.4,7.39,5.73,17.59,6,30.9.32,19-6,24.18-2.75,39.69,1.49,7,4,11.75,6.87,17.08,10.23,19.13,18.91,18.39,24,32.65,4.15,11.53,2.25,22.53,1.37,27.63a60.87,60.87,0,0,1-10.76,25.63,104,104,0,0,1-23.81-34.67,113.5,113.5,0,0,1-8.7-49c-4.51,27.13.14,44.24,5.5,55,4.75,9.57,13.39,20.81,21.52,31.4C784.41,471.13,788.81,475,792.55,485a61.12,61.12,0,0,1,3.9,27.88c-1.63,15.28-8.31,16.06-11.22,33.16-1,5.58-2.93,17.13,1.14,29.64s10.18,13.71,10.08,22.1c-.12,10-8.88,11.05-12.6,24.12-4.27,15,2.83,29.34,4.58,32.65a43.75,43.75,0,0,0,15.34,16.58C801.7,672.19,792.32,676.67,784.31,671.9Z"/></g></g></g></svg>