<svg xmlns="http://www.w3.org/2000/svg" viewBox="0 0 1080 1920"><g style="isolation:isolate"><g id="hair"><g id="_17" data-name="17"><path d="M442,428.84a76.67,76.67,0,0,0-15.37-26.7c-4.13-4.6-7.53-8.3-13.18-9.92-6.4-1.83-9,.93-15.76-.53-8.81-1.9-14.28-8.71-15.89-10.71-8.66-10.77-7.39-23.47-7.1-25.91.49,1.47,4.32,12.26,15.37,16.26a24.56,24.56,0,0,0,15.89.13,16.21,16.21,0,0,1-6.59-11.24,16.45,16.45,0,0,1,4.13-12.56A42.69,42.69,0,0,1,392,325.85c-1.56-8.41,0-15.07,1.29-20.49,3-12.28,8.84-20.52,14.85-29a134.3,134.3,0,0,1,14.6-17.19,37.56,37.56,0,0,1-5.55-14.8c-2.33-16,6.75-28.22,8.78-30.81a57.35,57.35,0,0,0-1.94,17.19,56.75,56.75,0,0,0,1.68,11.63,58.48,58.48,0,0,1,10.72-23.66c9.2-12,20.78-16.86,27.52-19.7a79.29,79.29,0,0,1,18.6-5.29,23.44,23.44,0,0,1-8.78-8.2,24.11,24.11,0,0,1-3.49-15.33,23.8,23.8,0,0,1,4.78-11.77c.34,2.08,2,11,9.56,15.6,1.48.9,5.17,2.84,12.53,2.51,11.29-.5,19.48-5.79,24-8.46a137.32,137.32,0,0,1,36.55-13.62c29.45-6.43,54.05,6.25,57,7.8a82.68,82.68,0,0,1,23.64,19c10.71-5.77,23.42-5.18,32.81,1.59,10.86,7.82,12.44,20.41,12.66,22.47a44.25,44.25,0,0,1,15.76.53c3.26.72,5.18,1.14,7.37,2.38,2.71,1.55,4.82,3.8,12.4,21a151.63,151.63,0,0,1,6.2,15.61c1.23,3.81,2.1,7.15,2.71,9.78a23.55,23.55,0,0,1,11,11.5,23.86,23.86,0,0,1,1.81,12,19.13,19.13,0,0,0,10.08-3.3,19.87,19.87,0,0,0,6.59-7.67c2.43,10.93-.84,21.33-8,26.05a18.18,18.18,0,0,1-10.6,2.77,44.15,44.15,0,0,1,7.24,52.23,8.52,8.52,0,0,1,4.52,3.43,9.12,9.12,0,0,1,1.16,6.88,20.4,20.4,0,0,0,4.13-7.8,21.18,21.18,0,0,0-.12-11.51c2,1.29,9.63,6.49,11.38,15.83,2.12,11.36-6.07,20.28-9.7,24.23-9,9.86-20.57,12-24.94,12.56-3.39,5-6.81,10.25-10.2,15.87-5.23,8.65-9.76,17-13.69,25a155.39,155.39,0,0,0-2.72-40.59,153.8,153.8,0,0,0-10.33-32.39,106.66,106.66,0,0,0-4.91-43.9c-3.32-9.85-6.71-19.51-16.15-26.84a41.48,41.48,0,0,0-20.28-8.19,38.34,38.34,0,0,1-39.14,4.36c-6.18,4.86-16.69,11.52-30.36,12.3-8.09.46-14.4-1.33-27-4.9-16.2-4.58-20.63-8.34-33.45-10.18a83.58,83.58,0,0,0-18.87-.53,78.89,78.89,0,0,0-9.55,50.11,64.62,64.62,0,0,1-7.24-46,47.34,47.34,0,0,0-21.18,14.55c-7.7,9.38-9.72,19.59-10.6,24.32a129.08,129.08,0,0,0-1.81,26.45,37.84,37.84,0,0,1-.51,9.38A38.68,38.68,0,0,1,450,373.18c-4.14,7.51-5.08,15.23-7,30.67A156.23,156.23,0,0,0,442,428.84Z" fill="#42210b"/><path d="M437.34,249a21.59,21.59,0,0,0,12.46,4,23.09,23.09,0,0,1-8.28,0c-3.4-.62-7.47-1.35-9.6-4.86a10.34,10.34,0,0,1-1.06-7.14A21.09,21.09,0,0,0,437.34,249Zm13,37.19a24.48,24.48,0,0,1-14.47-11.51,83.93,83.93,0,0,0-16,21,85.71,85.71,0,0,0-9.43,29.36c-.7-2.64-6.2-25,7.62-41.78a40.36,40.36,0,0,1,16.28-11.77l-1.34-3.3a51.6,51.6,0,0,1-6.93-4.93c-7.7,9.2-13.67,17.42-18,23.8-9,13.13-10.91,18.24-11.72,23.7a41.62,41.62,0,0,0,1.16,17.05,42.77,42.77,0,0,0,12.25,20,19,19,0,0,0-2,3.32,29.19,29.19,0,0,0,8.29-6.25,31.15,31.15,0,0,0,7.84-17.26c.78,3.81,3.48,19.09-5.52,32.92a37.94,37.94,0,0,1-4.39,5.56l1.58-1a19.59,19.59,0,0,1-6.49,7.14c-6.67,4.31-13.86,2.7-16.18,2.18a25.14,25.14,0,0,1-12.11-6.75,28.09,28.09,0,0,0,6,12.4,29.94,29.94,0,0,0,2.56,2.7,47.6,47.6,0,0,0,22.7-.75c26.28-7.55,35.36-35.93,36.17-38.61a55.62,55.62,0,0,1-6.85-23.93A56.62,56.62,0,0,1,450.3,286.19Zm178.05-1a24.14,24.14,0,0,0,8-.2A60.3,60.3,0,0,1,628.35,285.23Zm92.19,107.06a16.83,16.83,0,0,1-2.22-.52h-.06a45.73,45.73,0,0,1-6.73-1.14c.07.75.13,1.54.19,2.36.51,6.51,1,14.29,1.46,23.1,1.93-3.85,4.17-7.94,6.78-12.19s5.41-8.36,8-11.9A18.34,18.34,0,0,1,720.54,392.29Zm16.08-54.54a53.86,53.86,0,0,1-6.59,11.1,52.48,52.48,0,0,1-7.94,8.33,35.5,35.5,0,0,0,7.55-.39,36.53,36.53,0,0,0,12.11-4.22c1.27-3.07,3.12-7.51,4.66-12.54s2.33-7.58,2.52-10.71c.5-8.24-2.87-14.59-6.5-21.42a77.31,77.31,0,0,0-5.35-8.65,83.83,83.83,0,0,0-35.33-11.48c13.38-3.7,25.85-2.24,32.5,4.41A17.8,17.8,0,0,0,746,290.35c8.53-4.69,9.45-14.38,9.5-15.07a21,21,0,0,1-12.89,6.44A20.35,20.35,0,0,1,732,279.84l.76-.28a89,89,0,0,1-10.25-2.7c-12-3.93-14.25-7.45-21.89-8.52-14.55-2-25.84,8-26.17,7.33s13-13.86,28.49-11.89c3.73.47,5.33,1.54,22.86,9.91l10,4.76,1.1-.4a16.84,16.84,0,0,0-1.83-11.6,16.32,16.32,0,0,0-8.24-7c-.21-.57-.4-1.14-.6-1.69a36.77,36.77,0,0,0-18.1-4.85,37.22,37.22,0,0,0-20.93,6.54c6.4-10.26,17.47-15,26.73-12.23,7.31,2.23,11.15,8.48,12.3,10.54-1.82-5.13-3.42-9.44-4.64-12.69-4.7-12.51-7-17.5-10-22.6-3.11-5.3-4.73-8-7.56-9.82-6.7-4.34-14.88-2.3-18.12-1.29q-2.26,9.72-2.8,9.62t.09-5.26a33.47,33.47,0,0,0-6.68-21.32c-1.79-2.31-7.09-9-16.67-11a27.52,27.52,0,0,0-16.74,1.82,33.24,33.24,0,0,1,17.19,14c5.72,9.76,4.2,19.66,3.14,26.61-2.9,18.9-14.51,31.3-20,36.39a57.26,57.26,0,0,0,9.59-19.63c3.94-14.75.78-27-.77-32.73a68.68,68.68,0,0,0-7.47-17.46l2.23,5.07a80.15,80.15,0,0,0-18.21-20A81.48,81.48,0,0,0,598,162.73a93.74,93.74,0,0,0-38.46-1.88,98.67,98.67,0,0,0-22.87,6.64c-12.38,5.39-14.55,9.58-26,12.79-6.41,1.81-13.09,3.6-20.83,1.09-8.28-2.67-13.21-8.79-15.31-11.79a17.29,17.29,0,0,0,.39,9.81c1.58,4.44,4.74,6.81,8,9.22a39.1,39.1,0,0,0,3.55,2.3h0a87.08,87.08,0,0,0,16.78-.51,88.91,88.91,0,0,0,31.78-10.51,60.21,60.21,0,0,1-16.66,10.71,59.17,59.17,0,0,1-20.29,4.66l1,.2c-9.25,2.14-29.43,7.35-46.6,16.75-4.55,2.49-11.22,6.55-14.92,14.28a24.53,24.53,0,0,0-1.81,4.73c3.35,3.8,10.93,10.67,22,10.54a28.37,28.37,0,0,0,17.83-6.94l-10.27-2.58a34.84,34.84,0,0,0,15.76-2,34,34,0,0,0,6.71-3.4,32.06,32.06,0,0,1-28.68-3.77c14.63,2.27,23.27-.91,28.49-4.36,4.89-3.23,8.67-7.94,17.05-10.91a38.66,38.66,0,0,1,12-2.18l13-6.55c-18,14-30.87,24.45-39.92,31.93-6.18,5.12-15.11,12.6-28.29,14.88-10.15,1.75-15.28-.89-16.86-1.79a22.34,22.34,0,0,1-9.19-10.84,16.23,16.23,0,0,0,.09,5.09,17.78,17.78,0,0,0,5.71,10.12,18.55,18.55,0,0,0,10.69,4l.26-.07-.14.08c.4,0,.62.07.62.12s-.52.22-1.39.29l.77-.41h-.12c-.73.2-1.43.36-2.11.48.55,0,1,0,1.45-.06-2.69,1.33-10.68,4.46-18.94.11-9-4.74-10.69-14.33-10.85-15.37a32.2,32.2,0,0,0,4.16,17.65,31.79,31.79,0,0,0,7.66,8.72c8.17,6.48,17.21,7.2,22.28,7.54,13.23.88,24.15-3.78,30.76-7.54a69,69,0,0,0,8.67-7.5c2.53-2.61,5.45-6.12,10.86-8.86a31.49,31.49,0,0,1,10.23-3.11,66,66,0,0,1,11.34-6.94,69.23,69.23,0,0,1,35.65-6.34c-8.76.23-26.07,2-42.25,13.62a75.46,75.46,0,0,0-14.08,13.22,76.77,76.77,0,0,0-12,20.34c-.6,2.11-1.15,4.41-1.6,6.89-2.5,13.72-.71,25.78,0,25.78s-.82-9.44,2.81-20.42c4.73-14.32,15.26-22.74,19.76-26.28C532.85,251,551.26,250.92,558,251c8.4.09,15.49.16,22.28,5.16,10.3,7.59,12.08,20.75,12.43,25.58a45.34,45.34,0,0,0,11.73-29.12c.41-20.35-13.56-32.94-15.5-34.64a47.64,47.64,0,0,1,20.15,20.89,47.1,47.1,0,0,1,4.39,15.6c-.18-5.46-.34-10.92-.52-16.39a89.39,89.39,0,0,1,3.88,17.19,90.84,90.84,0,0,1-.27,24.28,79.89,79.89,0,0,0,7-24.55c3.58-30.69-12-54.33-17.3-61.61A69.24,69.24,0,0,1,633.34,259a38.23,38.23,0,0,0,5.94-8.46,39.07,39.07,0,0,0,3.88-11.64,46.46,46.46,0,0,1-.26,16.93,46,46,0,0,1-8.27,18.51,39.8,39.8,0,0,0,14.47-6.61A41.19,41.19,0,0,0,660.48,255a30.55,30.55,0,0,1-4.4,11.9c-1.94,3-4,4.82-3.36,6.08.72,1.51,4.66,1.27,7.26.56a57.25,57.25,0,0,0,12.31-13.21c1.08-1.63,2-3.26,2.9-4.87,0,0,0,0,0,0a60.5,60.5,0,0,0,6.87-26.92c0,.31,0,.63.07,1s0,.54.05.82a72.66,72.66,0,0,1-4.67,30.53A70.61,70.61,0,0,1,667,279.16a54.45,54.45,0,0,1,22.53,19.32c5.93,9.18,7.46,18.19,9.49,30.15.69,4,1.16,7.82,1.47,11.39a24.27,24.27,0,0,0,14.61,7.05C728,348.34,736,338.52,736.62,337.75Zm23.45,6.54a21.6,21.6,0,0,1-4.46,14.88,19.6,19.6,0,0,1-6.74,5.35h0A23.64,23.64,0,0,1,736,373.25c-10.26,2.66-18.24-2.94-19.37-3.77a25.6,25.6,0,0,0,9.68,9.32c10,5.3,23.39,2.82,34.3-6a21.77,21.77,0,0,0,4.07-8.66C766.85,354.3,761.36,346.11,760.07,344.29ZM438.8,271.21a49.63,49.63,0,0,0,21,4.17c16.32-.66,27.48-10.74,30.8-14-1.1.75-2.56,1.68-4.31,2.67A54.1,54.1,0,0,1,474.06,271a44.35,44.35,0,0,1-42.63-6.48c.5,1.24,1,2.47,1.51,3.71A49.19,49.19,0,0,0,438.8,271.21Zm54.06,3.37a23.66,23.66,0,0,0-2.42,5,50.06,50.06,0,0,0-21,10.71,53.45,53.45,0,0,0-14.24,20.13c-3.45,8.55-3.91,16.87-4.84,33.52-.52,9.4-.09,11.4-1.36,17.05-2.05,9.18-5.15,12.62-7.94,20.13a63.93,63.93,0,0,0-3.59,26.48,38.11,38.11,0,0,0-10.27-12.5,31.09,31.09,0,0,0-11.53-6.15c-8.14-2.15-10.37,1.43-17.63-.89a23.49,23.49,0,0,1-8.78-5.23c-1.37-.28-2.59-.58-3.65-.88a27.44,27.44,0,0,0,12.66,8.33,27.14,27.14,0,0,0,17.18-.53,54.79,54.79,0,0,1,7.23,4.62,59.17,59.17,0,0,1,17.18,21,103.07,103.07,0,0,1,4.66-36.23c3.56-11.17,6.05-12.07,8.39-22.08,4.3-18.38-2.66-21.51,2.2-37.94,3.5-11.89,9.94-19.72,13.95-24.59a27.74,27.74,0,0,1,7.23-6.62,27.31,27.31,0,0,1,16.41-3.57c.53-1.7,1.21-3.67,2.08-5.83a74.77,74.77,0,0,1,3.44-9.67A23,23,0,0,0,492.86,274.58ZM409,369.18a17.77,17.77,0,0,1-3.1-8.33,18.06,18.06,0,0,1,1.79-9.71,29.1,29.1,0,0,1-3.15,1.38,28.59,28.59,0,0,0,2.81,19.14,39.85,39.85,0,0,0,6.54-5.54Zm25-140.31a28.36,28.36,0,0,0,1.47,4.42,15.8,15.8,0,0,1,.41-2.07A27,27,0,0,1,434,228.87Zm52.59-38h0l1.68,4.05a60.46,60.46,0,0,0,9.93.3A39.51,39.51,0,0,1,486.54,190.91Zm130,88.62c-.49-.44-.92-.87-1.31-1.28a53.59,53.59,0,0,1-26.16,13.59c-11,2.07-20-.15-26.64-1.79-12.06-3-14.74-6.5-27.43-10.21A99.71,99.71,0,0,0,512.24,276a67,67,0,0,1,31.19-19.14c9.29-2.49,23.81-6.39,35.85,2.29,10.44,7.51,12.87,20.05,13.47,23.89,0-.31,0-.75-.07-1.29-.57-4.45-2.7-16.43-12.3-24.09-13.21-10.56-30.93-5.21-40.31-2.38-17.87,5.39-29.08,17.23-34.35,23.8a73,73,0,0,1,13.69.26c11.66,1.32,18.09,4.9,28.16,8.46,8.59,3,20.08,7.1,31.78,7.14,7.31,0,19.84-1.5,35.14-11.9a59.78,59.78,0,0,0,13.84,2.22,21,21,0,0,1-4.67-1.23A22.81,22.81,0,0,1,616.54,279.53Zm59.24-19.82a57.46,57.46,0,0,0,6.42-29.44c0-.28,0-.55-.05-.82s0-.66-.07-1a81.33,81.33,0,0,1-6.87,26.92s0,0,0,0c-3.24,7.17-7.36,15.94-15.21,18.08a55.8,55.8,0,0,1-8.13,5.33c-4,2.14-9.43,5.06-15.47,6.17a60.05,60.05,0,0,0,21.51-6.24l9.12.38c-1.89-.91-3.71-1.67-5.37-2.3A55.27,55.27,0,0,0,675.78,259.71Zm-33.81-74c.31-.15.7-.35,1.18-.56a35.22,35.22,0,0,0-4.29-1.33,71.33,71.33,0,0,1,6,8.49Q643.42,189,642,185.74Zm93.84,92.71-3.08,1.11c3.18.64,5.94,1,8.16,1.27Zm.08,15.64a17.57,17.57,0,0,0-1.64-1.91,17.83,17.83,0,0,1-3.92-1.14,80.78,80.78,0,0,1,6.75,8.21q.87.51,1.68,1A18,18,0,0,0,735.89,294.09Zm-35,64.78A141.53,141.53,0,0,0,700.5,340a25.54,25.54,0,0,1-3.79-4.65,77.17,77.17,0,0,1,1.55,23.8A57.08,57.08,0,0,1,705,372.45a57.88,57.88,0,0,1,3.29,17.26c.79.26,1.86.59,3.2.91-.89-10.81-1.63-15.24-3.78-20.35A46,46,0,0,0,700.87,358.87Zm44.57-6.45c1.94.33,2.77,4.21,2.9,4.86a12.47,12.47,0,0,1-1.06,7.94c.44-.17,1-.4,1.58-.7h0a20.63,20.63,0,0,0,1.7-2.58c.1-.35,1.23-4.61-1.54-7.93a8.23,8.23,0,0,0-5-2.78c-.67.43-1.41.88-2.24,1.34-1.06,2.57-1.71,4.17-1.45,4.32C740.79,357.16,743.09,352,745.44,352.42Zm10,25.88A41.16,41.16,0,0,1,739,387.43a54.62,54.62,0,0,1-26.06,1.68,18.93,18.93,0,0,0,5.37,2.65h.06a46.47,46.47,0,0,0,18.89-2.06,48,48,0,0,0,23.18-16.6A46.36,46.36,0,0,1,755.42,378.3Z" fill="#fff" opacity="0.5" style="mix-blend-mode:overlay"/><path d="M526.29,219.65c-.34-1.07-2.53-1.53-6.59-1.39a87.08,87.08,0,0,1,46.6-2.38,89.55,89.55,0,0,0-19.38,1.19c-1.65.29-14,2.44-13.95,4.66,0,1.08,3,1.86,5.81,2.38a112.35,112.35,0,0,1-15.4,4.56,113.54,113.54,0,0,1-12,2Q527.15,222.43,526.29,219.65Zm21.28-16.36A51.82,51.82,0,0,1,566,200.91c22.63,1.25,37.24,17.43,41,21.81a39.84,39.84,0,0,0-6.84-13.61,39.07,39.07,0,0,0-16.41-12.3,26.16,26.16,0,0,1,10.46,3.83,25.59,25.59,0,0,1,3.88,3.05,56.72,56.72,0,0,0-15.63-11.64c-6-3-15.46-7.75-26.48-5a30.49,30.49,0,0,0-12.41,6.48A28.12,28.12,0,0,1,569,194.7a33.54,33.54,0,0,0-11.36,2.38A34.28,34.28,0,0,0,547.57,203.29Zm50.9-27.63a94.28,94.28,0,0,1,19.76,15.86A95.9,95.9,0,0,1,634,213.73a34.83,34.83,0,0,0-3.36-10.31,34.23,34.23,0,0,0-3.36-5.29,72.24,72.24,0,0,1,9.3,8.86,73.47,73.47,0,0,1,9.18,13.09,68.13,68.13,0,0,0-7.88-20.63,66.61,66.61,0,0,0-19.51-21,39.65,39.65,0,0,1,9.43,15.6,66.52,66.52,0,0,0-8.91-8.06A65.54,65.54,0,0,0,598.47,175.66Zm62.13,19A46.39,46.39,0,0,1,662,237.93a32.9,32.9,0,0,0,10.85-20.63,25,25,0,0,1-1.68,15.87A35,35,0,0,0,674,202.63a32.59,32.59,0,0,1-.39,7.27,31.4,31.4,0,0,1-.78,3.44,22.81,22.81,0,0,0-3.48-10.71A22.08,22.08,0,0,0,660.6,194.7Zm35.53,21.55q-1.82,7.51-3.62,15.07t-3.62,15.2c5.16-5.55,6.58-6.57,6.85-6.34s-.85,1.84-1.81,5a25.88,25.88,0,0,0-.9,4.1,66.67,66.67,0,0,1,16.79-18.51c-5.28,1.76-8,4.27-9.56,6.35-.57.77-1.73,2.5-1.94,2.38s2-4.47,1.42-4.9-3.32,3.75-4.65,3.18c-1.16-.5-.5-4.32.13-10.18C695.75,222.72,696,218.75,696.13,216.25Zm19,95.45c.51-1,7.93,2.53,8.91.93s-6-7.24-5.3-8.27c.46-.67,4.24.72,16.47,7.81a111.1,111.1,0,0,0-9.75-8.2c-6.36-4.77-15.77-10.78-16.92-9.39-1.33,1.61,9.43,11.82,7.81,13.88-1.46,1.86-11.4-5-12.4-3.57-.78,1.12,4.28,6.78,10.47,10.91,5.49,3.68,11.07,5.59,11.36,5C726.23,320,714.45,313,715.12,311.7Z" fill="#fff" opacity="0.6" style="mix-blend-mode:overlay"/><path d="M767.44,355.16c-1.74-9.34-9.37-14.55-11.37-15.83a21.19,21.19,0,0,1,.12,11.51,20.4,20.4,0,0,1-4.13,7.8,9.13,9.13,0,0,0-1.16-6.88,8.52,8.52,0,0,0-4.52-3.43,44.15,44.15,0,0,0-7.24-52.23,18.17,18.17,0,0,0,10.6-2.77c7.18-4.72,10.45-15.12,8-26.05a19.8,19.8,0,0,1-6.59,7.67,19.06,19.06,0,0,1-10.08,3.3,23.87,23.87,0,0,0-1.81-12,23.5,23.5,0,0,0-11-11.5c-.61-2.62-1.48-6-2.71-9.78a151.63,151.63,0,0,0-6.2-15.61c-7.58-17.22-9.69-19.46-12.4-21-2.19-1.24-4.1-1.66-7.37-2.38a44.25,44.25,0,0,0-15.76-.53c-.22-2.06-1.8-14.65-12.66-22.47-9.39-6.78-22.11-7.36-32.81-1.59a82.68,82.68,0,0,0-23.64-19c-2.91-1.55-27.51-14.23-57-7.8a137.32,137.32,0,0,0-36.55,13.62c-4.55,2.68-12.75,8-24,8.46-7.36.33-11.05-1.61-12.53-2.51-7.52-4.57-9.22-13.52-9.56-15.6a23.8,23.8,0,0,0-4.78,11.77,24,24,0,0,0,3.49,15.33,23.44,23.44,0,0,0,8.78,8.2,79.29,79.29,0,0,0-18.6,5.29c-6.74,2.84-18.32,7.72-27.52,19.7a58.62,58.62,0,0,0-10.72,23.66,58.16,58.16,0,0,1-1.68-11.63A57.31,57.31,0,0,1,426,213.6c-2,2.59-11.11,14.79-8.78,30.81a37.72,37.72,0,0,0,5.55,14.8,134.43,134.43,0,0,0-14.6,17.19c-6,8.44-11.88,16.68-14.85,29-1.32,5.43-2.85,12.08-1.29,20.49a42.69,42.69,0,0,0,11.49,21.81,16.45,16.45,0,0,0-4.13,12.56A16.2,16.2,0,0,0,406,371.46a24.63,24.63,0,0,1-15.89-.13c-11.05-4-14.88-14.79-15.37-16.26-.29,2.44-1.55,15.15,7.1,25.91,1.6,2,7.08,8.8,15.89,10.71,6.77,1.47,9.35-1.3,15.76.53,5.64,1.62,9,5.32,13.18,9.92A76.67,76.67,0,0,1,442,428.84a156.18,156.18,0,0,1,1-25c1.9-15.44,2.84-23.16,7-30.67a38.92,38.92,0,0,0,4.78-12.43,37.85,37.85,0,0,0,.51-9.38,129.08,129.08,0,0,1,1.81-26.45c.89-4.73,2.91-14.94,10.6-24.32a47.2,47.2,0,0,1,21.18-14.55,64.62,64.62,0,0,0,7.24,46A78.89,78.89,0,0,1,505.71,282a83.58,83.58,0,0,1,18.87.53c12.82,1.84,17.25,5.6,33.45,10.18,12.61,3.57,18.91,5.36,27,4.9,13.67-.78,24.18-7.44,30.36-12.3a38.61,38.61,0,0,0,19.38,3.31,39,39,0,0,0,19.76-7.67,41.58,41.58,0,0,1,20.28,8.19c9.44,7.33,12.83,17,16.15,26.84a106.66,106.66,0,0,1,4.91,43.9,154.8,154.8,0,0,1,13,73c3.93-8,8.47-16.34,13.69-25,3.39-5.62,6.81-10.91,10.2-15.87,4.37-.57,15.88-2.69,24.94-12.56C761.37,375.44,769.57,366.52,767.44,355.16Zm-2.72,9c-1.5,6.9-6,11.09-9.3,14.18A41.22,41.22,0,0,1,739,387.43a54.62,54.62,0,0,1-26.06,1.68A18.28,18.28,0,0,0,728,392c-2.63,3.55-5.35,7.5-8,11.9s-4.86,8.35-6.78,12.19c-.42-8.81-.94-16.59-1.46-23.1-1-12.56-1.67-17.24-4-22.71a46,46,0,0,0-6.88-11.4A140.23,140.23,0,0,0,699,328.63c-2-12-3.56-21-9.49-30.15-8-12.32-19.69-18.52-27.9-21.62a55.15,55.15,0,0,0,14.14-17.15,57.49,57.49,0,0,0,6.3-31.23,59.84,59.84,0,0,1-9.79,31.83,57.86,57.86,0,0,1-20.44,18.54c-6.66,3.58-17.43,9.36-28.19,5.15a23.63,23.63,0,0,1-8.43-5.75,53.63,53.63,0,0,1-26.16,13.59c-11,2.07-20-.15-26.65-1.79-12-3-14.72-6.5-27.41-10.21A99.94,99.94,0,0,0,512.24,276a67,67,0,0,1,31.2-19.14c9.27-2.49,23.8-6.39,35.84,2.29,10.43,7.51,12.87,20.05,13.47,23.89-.13-3.09-1-18.43-12.5-26.87-6.79-5-13.89-5.07-22.28-5.16-6.71-.06-25.12,0-42.24,13.49-4.51,3.55-15,12-19.77,26.28-3.63,11-2.18,20.42-2.81,20.42s-2.5-12.06,0-25.78a75.35,75.35,0,0,1,5-16.56,22.83,22.83,0,0,0-5.33,5.75,23.43,23.43,0,0,0-2.42,5,50,50,0,0,0-21,10.71,53.52,53.52,0,0,0-14.25,20.13c-3.45,8.55-3.92,16.87-4.84,33.52-.52,9.41-.09,11.4-1.36,17.05-2.05,9.19-5.15,12.62-7.94,20.13a63.77,63.77,0,0,0-3.59,26.48,38.24,38.24,0,0,0-10.27-12.5,31.09,31.09,0,0,0-11.53-6.15c-8.13-2.16-10.37,1.43-17.63-.89a24.87,24.87,0,0,1-11.33-7.93,28.14,28.14,0,0,1-6-12.4,25.14,25.14,0,0,0,12.11,6.75c2.32.51,9.5,2.13,16.18-2.18a19.59,19.59,0,0,0,6.49-7.14L409,369.18a17.88,17.88,0,0,1-3.1-8.33,18.81,18.81,0,0,1,3.82-13,42.77,42.77,0,0,1-12.25-20,42,42,0,0,1-1.16-17.05c.8-5.46,2.76-10.57,11.72-23.7,4.35-6.38,10.32-14.6,18-23.8a51.66,51.66,0,0,0,12.79,7.93,49.79,49.79,0,0,0,21,4.17c16.33-.66,27.49-10.73,30.81-14-5.29,3.58-18.35,11.32-35.07,10.21-5.06-.34-14.11-1.06-22.28-7.54a30.74,30.74,0,0,1-11.82-26.37c.17,1,1.88,10.63,10.85,15.37,8.24,4.35,16.23,1.22,18.93-.1h0c.88-.08,1.39-.21,1.4-.3s-.22-.09-.61-.12a.79.79,0,0,0,.13-.08l-.25.07a18.65,18.65,0,0,1-10.7-4,17.82,17.82,0,0,1-5.71-10.12,19.13,19.13,0,0,1,2.13-11.9c3.7-7.73,10.37-11.79,14.92-14.28,17.18-9.41,37.34-14.61,46.6-16.75A39,39,0,0,1,483,188.61c-3.3-2.41-6.45-4.78-8-9.22a17.29,17.29,0,0,1-.39-9.81c2.1,3,7,9.12,15.31,11.79,7.74,2.51,14.42.72,20.83-1.09,11.42-3.21,13.58-7.4,26-12.79a98.85,98.85,0,0,1,22.87-6.64A93.74,93.74,0,0,1,598,162.73a81.41,81.41,0,0,1,30.91,14.68,80.35,80.35,0,0,1,18.21,20L642,185.74a27.66,27.66,0,0,1,17.92-2.38c9.57,2,14.88,8.69,16.67,11a33.49,33.49,0,0,1,6.68,21.32c-.33,3.46-.37,5.22-.1,5.26s1.31-3.14,2.81-9.62c3.24-1,11.41-3,18.12,1.29,2.83,1.84,4.45,4.52,7.56,9.82,3,5.1,5.27,10.09,10,22.6,1.34,3.6,3.16,8.5,5.23,14.38a16.18,16.18,0,0,1,8.23,7,16.87,16.87,0,0,1,1.84,11.6L732,279.84a20.22,20.22,0,0,0,10.66,1.88,21,21,0,0,0,12.89-6.44c-.06.68-1,10.38-9.5,15.07a18.5,18.5,0,0,1-15.69.69,78,78,0,0,1,12.11,16.86c3.61,6.82,7,13.18,6.49,21.42-.2,3.13-1,5.66-2.52,10.71-2.84,9.24-6.7,16.53-6.1,16.86s2.78-4.86,5.13-4.47c1.94.32,2.77,4.2,2.91,4.86a12.59,12.59,0,0,1-1.07,7.94,20,20,0,0,0,8.33-6.05,21.61,21.61,0,0,0,4.46-14.88C761.36,346.11,766.84,354.3,764.72,364.12ZM437.35,249a21.52,21.52,0,0,0,12.45,4,22.92,22.92,0,0,1-8.29,0c-3.39-.62-7.46-1.35-9.59-4.86a10.47,10.47,0,0,1-1.07-7.14A21.18,21.18,0,0,0,437.35,249ZM452,252.55c-.15.09-.42.23-.79.42h0c-.41,0-.89.05-1.44.05a20.53,20.53,0,0,0,2.12-.48Z"/></g></g></g></svg>