<svg xmlns="http://www.w3.org/2000/svg" viewBox="0 0 1080 1920"><g style="isolation:isolate"><g id="hair"><g id="_18" data-name="18"><path d="M443.7,411.43a70.46,70.46,0,0,1-4.06-6.57,77.93,77.93,0,0,1-8.92-32.5c-1-12.84-4.91-26.41-12.79-53.55C413.63,304,405.36,283,387.7,259.12a24.8,24.8,0,0,1,14.92-1.79,31.56,31.56,0,0,0-6.2-15.07,30.44,30.44,0,0,0-10.66-8.73c7.33-3.58,12.39-3.42,15.7-2.57,2.75.7,6.54,2.46,10.85,1a11.55,11.55,0,0,0,3.29-1.79c-1.09-1.5-2.6-3.66-4.26-6.34-2.55-4.11-3.82-6.17-4.46-8.53-.52-1.94-1.17-5.92,1-11.5,1.62,2,6.57,7.65,14.73,9.12a22.53,22.53,0,0,0,7.94,0,35.13,35.13,0,0,0-6.39-18,33.66,33.66,0,0,0-9.88-9.12c.72-.78,5.95-6.3,13.95-5.75a17.49,17.49,0,0,1,11,5.16A10.52,10.52,0,0,1,454,187.33a16.74,16.74,0,0,0,.58-13.29,16,16,0,0,0-8.72-8.73c.95-.69,8.12-5.78,16.66-3.17a18.58,18.58,0,0,1,8.92,6.15,4.51,4.51,0,0,0,3.68-.6c2-1.64.58-5.11,1-10.9.41-6.13,2.27-6.7,1.94-10.32-.26-2.76-1.76-6.77-7.95-11.3a26.18,26.18,0,0,1,24,5.55,18.08,18.08,0,0,1,13.56,6.35c1-.25,9.57-2.58,12.79-10.91a18,18,0,0,0,.78-9.92,25.06,25.06,0,0,1,14.53,24.4l1.94,1.78a27.41,27.41,0,0,1,12.4-11.9,22.56,22.56,0,0,1,1-9.91,26.27,26.27,0,0,1,2.52-5.16,59.82,59.82,0,0,1,7.17-9.52,72.43,72.43,0,0,0,8.52-12.29c6.38,7.85,7.17,13.37,6.59,17-.35,2.22-1.28,4.27-.58,7.34.82,3.59,3,4.58,4.65,8.13a18.52,18.52,0,0,1,1.55,9.92,6.73,6.73,0,0,0,3.88-2.78c1.13-1.92.34-3.47.77-6,.5-2.88,2.24-4.66,5-7.54a29.33,29.33,0,0,1,8.72-6.14,26.3,26.3,0,0,0,9.3,25,17.64,17.64,0,0,0,7.56-7.13c1.8-3.36,1-5,3.29-7.74,1.15-1.38,3.22-2.51,7.36-4.76,4.66-2.53,5.48-2.48,6-2.38,2.88.57,4.41,4.29,5.43,6.74a21.14,21.14,0,0,1,1.55,7.54,103.35,103.35,0,0,0,8.52-6.54c4.62-3.95,5.64-5.52,8.14-6.95,2.8-1.59,7.39-3,14.92-1.19-.93,4.44-1.71,8.2-2.52,11.9-.46,2.1-1,4.45,0,6.94.59,1.51,1.25,1.88,1.94,3.18.86,1.64,1.51,4.26.39,8.53a111.73,111.73,0,0,1,29.26.79c-4.77,5.81-5.23,9.12-4.65,11.1A10.85,10.85,0,0,1,697,174a9.28,9.28,0,0,1-.78,2.38c4.11-1.68,6.9-1.41,8.72-.79a11,11,0,0,0,3.3.79c3.63.29,6.3-1.8,7.75-2.58,2.65-1.43,7.37-1.81,16.47,3.37a37.9,37.9,0,0,0-9.3,10.51,39.22,39.22,0,0,0-5.43,18.05A28.52,28.52,0,0,0,728,204.18a29.06,29.06,0,0,0,9.3-5.35,35,35,0,0,1-2.52,16.06,33.37,33.37,0,0,1-4.07,7.14,7.77,7.77,0,0,0,5.23,2.78c1.87,0,2.76-.95,4.65-1.79,3.91-1.73,7.75-1,11.44-.19a26.76,26.76,0,0,1,8.91,3.57c-6.61,2.95-9.38,6.61-10.66,9.51-1.37,3.11-1.07,5.45-2.9,10.91a49.71,49.71,0,0,1-3.68,8.33,35.9,35.9,0,0,0,4.84-.59c4.19-.82,5.84-1.95,8.14-2.38s5.62-.28,10.27,2.57a154.15,154.15,0,0,0-17.25,27.77c-4.91,10.18-7.93,20.61-13.76,41.05-7,24.47-10.46,36.71-11.43,45.22-1.12,9.94-1.26,19.47-6.2,32.52a90.54,90.54,0,0,1-7.36,15.07c.08-15.42,0-28.66,0-39.86a46.16,46.16,0,0,0-3.1-18.44,42,42,0,0,0-5.8-10,133.71,133.71,0,0,0-.21-23.9,96,96,0,0,0-3.68-20.43c-2.61-8.39-7.22-23.22-19.38-30.54-4.86-2.93-9.59-3.85-23.25-4.17a367,367,0,0,0-45,1.79c-21,1.91-36.91,1.47-54.26,1-18.6-.52-37.39,1.7-55.81-1a28.69,28.69,0,0,0-12.59.59c-10.62,3-16.72,12.11-19.57,16.46-9.51,14.53-9.86,30.9-9.88,34.11-.07,9.63,2.12,14.9-1.17,23.6-2,5.4-3.66,5.46-6.59,11.51-2.27,4.7-3.68,9.61-5.23,26C444.74,390.51,444,400.12,443.7,411.43Z" fill="#42210b"/><path d="M756.64,252.18c-2.3.43-3.95,1.56-8.14,2.38a35.83,35.83,0,0,1-4.85.59,48.8,48.8,0,0,0,3.69-8.33c1.83-5.46,1.53-7.8,2.9-10.91,1.28-2.9,4-6.56,10.66-9.51a26.76,26.76,0,0,0-8.91-3.57c-3.69-.76-7.53-1.54-11.43.19-1.9.84-2.79,1.83-4.65,1.79a7.77,7.77,0,0,1-5.24-2.78,33.37,33.37,0,0,0,4.07-7.14,35,35,0,0,0,2.52-16.06,28.94,28.94,0,0,1-9.3,5.35,28.52,28.52,0,0,1-10.27,1.59,39.22,39.22,0,0,1,5.43-18.05,37.74,37.74,0,0,1,9.3-10.51c-9.1-5.18-13.83-4.8-16.47-3.37-1.45.78-4.13,2.87-7.75,2.58a11.06,11.06,0,0,1-3.3-.79c-1.82-.62-4.61-.89-8.72.79A8.9,8.9,0,0,0,697,174a10.7,10.7,0,0,0-.59-5.36c-.57-2-.11-5.29,4.66-11.1a111.8,111.8,0,0,0-29.27-.79c1.13-4.27.48-6.89-.38-8.53-.69-1.3-1.35-1.67-1.94-3.18-1-2.49-.45-4.84,0-6.94.81-3.7,1.59-7.46,2.52-11.9-7.54-1.77-12.12-.4-14.92,1.19-2.5,1.43-3.52,3-8.14,6.95a103.35,103.35,0,0,1-8.52,6.54,20.92,20.92,0,0,0-1.55-7.54c-1-2.45-2.55-6.17-5.43-6.74-.53-.1-1.35-.15-6,2.38-4.14,2.25-6.21,3.38-7.36,4.76-2.24,2.7-1.49,4.38-3.3,7.74a17.54,17.54,0,0,1-7.55,7.13,26.3,26.3,0,0,1-9.3-25,29.68,29.68,0,0,0-8.73,6.14c-2.79,2.88-4.53,4.66-5,7.54-.43,2.48.36,4-.77,6a6.73,6.73,0,0,1-3.88,2.78,18.62,18.62,0,0,0-1.55-9.92c-1.7-3.55-3.83-4.54-4.65-8.13-.71-3.07.23-5.12.58-7.34.59-3.68-.21-9.2-6.59-17-.58,1-1.17,2-1.73,3,1.13,0,2,5.3,2.89,10.31,1.49,8.62.59,10.63,2.72,14.68,2,3.83,3.48,3.29,4.65,6.74,1.7,5-.74,8.3,1.36,10.31,1.66,1.61,5,1.25,7,0s2.26-3,3.87-5.94a27.63,27.63,0,0,1,6.21-7.54A29.25,29.25,0,0,0,601,143.7,29,29,0,0,0,612.28,152a11.39,11.39,0,0,0,6.78-3.57c2.72-3.23,1.66-6.6,4.07-10.51,1.13-1.83,3.26-4.19,7.68-5.89a121.7,121.7,0,0,1-1.74,15.34c-1.09,6.1-1.67,9.21-3.36,12.1-2.27,3.89-4,4.05-5.74,8.33a16.12,16.12,0,0,0-1.36,9,14.83,14.83,0,0,0,2.13,5.55c-7.26-2.41-10.49-1.39-12.08.14-2.26,2.18-.91,5.13-3.68,8.13-2.34,2.51-4.53,1.77-8.52,4.1a20.2,20.2,0,0,0-6.65,6.41c.6-3.62-.1-5.89-1-7.34s-1.49-1.45-3.29-3.57c-2-2.41-1.92-3.18-3.87-6-3.19-4.49-4.59-3.94-5-6.15-.66-3.18,2.17-4.73,1.36-8.13-.39-1.63-1.33-2.43-2.71-4-.28-.31-5-5.52-6.59-9.52-3-7.36,3-13.86-.59-17.45-1.36-1.4-2.48-.64-3.86-2.19-2.28-2.52-1.25-6.7-.2-12.09,1.9-9.68,2.3-15,2.8-17.14a67,67,0,0,1-6.09,8.21,59.82,59.82,0,0,0-7.17,9.52,26.27,26.27,0,0,0-2.52,5.16,22.41,22.41,0,0,0-1,9.91,27.27,27.27,0,0,0-12.4,11.9l-1.94-1.78a25.8,25.8,0,0,0-2.32-12.3,25.51,25.51,0,0,0-12.21-12.1,17.86,17.86,0,0,1-.78,9.92c-3.21,8.33-11.8,10.66-12.79,10.91a18.09,18.09,0,0,0-4.45-3.77,18.39,18.39,0,0,0-9.11-2.58,26.17,26.17,0,0,0-24-5.55c6.18,4.53,7.68,8.54,7.94,11.3.33,3.62-1.53,4.19-1.95,10.32-.38,5.79,1,9.26-1,10.9a4.53,4.53,0,0,1-3.69.6,18.48,18.48,0,0,0-8.91-6.15c-8.54-2.61-15.71,2.48-16.66,3.17a16,16,0,0,1,8.72,8.73,16.69,16.69,0,0,1-.58,13.29,10.52,10.52,0,0,0-14.73-2.18,17.55,17.55,0,0,0-11-5.16c-8-.55-13.23,5-13.95,5.75a33.52,33.52,0,0,1,9.87,9.12,35.07,35.07,0,0,1,6.4,18,22.53,22.53,0,0,1-7.94,0,25,25,0,0,1-14.72-9.12c-2.15,5.58-1.5,9.56-1,11.5.64,2.36,1.91,4.42,4.46,8.53,1.66,2.68,3.17,4.84,4.26,6.34a11.41,11.41,0,0,1-3.29,1.79c-4.31,1.47-8.11-.29-10.85-1-3.31-.85-8.38-1-15.7,2.57a30.44,30.44,0,0,1,10.66,8.73,31.56,31.56,0,0,1,6.2,15.07,24.8,24.8,0,0,0-14.92,1.79C405.35,283,413.63,304,417.93,318.81c7.88,27.14,11.82,40.71,12.79,53.55a77.77,77.77,0,0,0,8.92,32.5,73,73,0,0,0,4.05,6.57c.34-11.31,1.05-20.92,1.75-28.36,1.55-16.37,3-21.28,5.23-26,2.93-6,4.55-6.11,6.6-11.51,3.28-8.7,1.09-14,1.16-23.6,0-3.21.37-19.58,9.88-34.11,2.85-4.35,8.95-13.41,19.57-16.46a28.69,28.69,0,0,1,12.59-.59c18.42,2.69,37.21.47,55.81,1,17.35.48,33.23.92,54.26-1a366.84,366.84,0,0,1,45-1.79c13.66.32,18.39,1.24,23.25,4.17,12.16,7.32,16.77,22.15,19.38,30.54a96,96,0,0,1,3.68,20.43,134.67,134.67,0,0,1,.21,23.9,42,42,0,0,1,5.8,10,46.12,46.12,0,0,1,3.09,18.44c0,11.2.09,24.44,0,39.86a89.66,89.66,0,0,0,7.37-15.07c4.93-13.05,5.07-22.58,6.21-32.52.95-8.51,4.44-20.75,11.43-45.22,5.82-20.44,8.84-30.87,13.75-41.05a154.72,154.72,0,0,1,17.25-27.77C762.26,251.9,758.89,251.75,756.64,252.18Zm-35.46-17.65a28.66,28.66,0,0,0,7-9.52l9.11,3a12.58,12.58,0,0,1-3.1,6.35c-3.26,3.43-7.57,3.35-8.14,6.15-.3,1.51.88,2,.59,4-.34,2.26-2,2.93-2.92,4.76-.74,1.5-1.07,4,1,8.33A21.69,21.69,0,0,1,733,246c1-.67,7.24-4.8,10.08-2.38,2,1.74,1.93,6.53-.78,11.3a52.54,52.54,0,0,0-10.85,6.15c-4,2.94-5.21,4.73-8.53,6.55a24.51,24.51,0,0,1-12,2.83,39.07,39.07,0,0,1,1.31-6.6c1.53-5.19,3.16-6.58,2.52-9.13-.78-3.13-3.92-3.57-3.68-5.75s3.48-2.44,4.45-5.35a6.81,6.81,0,0,0-.57-5A27.77,27.77,0,0,0,721.18,234.53Zm-16.47-54.74a23.61,23.61,0,0,1-2.91,10.11c-2.68,4.74-5.71,5.8-7.75,10.32a18.45,18.45,0,0,0-1.36,9.52c2.39-8.45,5.86-11.51,8.73-12.7s5.38-.45,9.87-2.18a23.38,23.38,0,0,0,7.75-5c-.74.93-4.76,6.1-3.67,12.9a15.41,15.41,0,0,0,2.71,6.54,28.24,28.24,0,0,0-11.24,2.78c-4.81,2.33-7.83,5.54-12.2,10.31-7.66,8.33-5.74,9-8.93,10.71-7.3,3.91-13.08-2-22.08,2.58-1.57.8-3.73,2.18-4.65,1.38-1.33-1.13.93-5.87,1.16-6.34a14.71,14.71,0,0,1,5.43-6.55c4.46-2.72,6.95,0,9.88-2,4.64-3.12-.14-10.95,4.65-20.62,2-4.15,3.38-3.63,9.1-11.9a108.09,108.09,0,0,0,6-9.72Zm-64.79-27.57a18.32,18.32,0,0,0,0-7.93c4.78-.08,11.1.56,13.7,4.76,2.24,3.62,1.09,8.92,1.81,9s.55-4.77,3.87-8.2c2.24-2.31,6.13-4.07,8.52-2.64a4.9,4.9,0,0,1,1.81,2.38,13.69,13.69,0,0,1,.78,8.73,55.7,55.7,0,0,0,13.69,1.05c6.52-.31,10.62-1.67,11.88.27,1.17,1.79-.9,5.11-2.32,7.4s-5.61,9-13.94,11.9c-6.54,2.24-10.42.37-12.41,3.44-1.7,2.62.56,4.83-1,8.46-1.53,3.46-4.84,4.28-9.56,6.88A52.93,52.93,0,0,0,644.57,207a40.18,40.18,0,0,0,5.95-20.36c.07-5.58.16-12.39-4.14-18-3.64-4.75-8.59-6.19-8.52-10.31C637.89,156.24,639.15,155.63,639.92,152.22ZM590.83,214c1.17-2.6,2.59-2.31,3.75-4.76,1.26-2.68,0-4,1.42-5.56s3.07-.38,4.78-2,.68-3.58,2.71-5.82a6.06,6.06,0,0,1,3.37-2c2.72-.42,4.18,2,5.55,1.19,1.17-.65.35-2.52,1.94-4.89.25-.38,1.66-2.48,3-2.25s2.14,3.31,3,7,.52,4.43,1.42,5.55c1.73,2.14,4.21,1.25,6.07,2.65s3,4.62,1.17,13.08a10.31,10.31,0,0,0-2.2-5.15c-2.65-3.12-5.82-2.3-7.1-5-.92-1.95.42-3-.65-6.74-.39-1.34-.9-3.12-1.94-3.3-1.27-.23-3,2-3.62,4.09s.09,3.09-.64,3.71c-1.21,1-3.32-1.57-6.34-.93a7.9,7.9,0,0,0-4.38,3.31c-1.18,1.76-.76,2.71-2,3.57-1.46,1.06-3,.2-3.87,1.32-.46.56-.34,1.09-.39,2.64-.08,3.07-.15,5.23-1.29,6.08a3.22,3.22,0,0,1-4-.66C589.24,217.52,590.48,214.75,590.83,214Zm-59.45-65.22a8,8,0,0,0,7.85,6.35,7.76,7.76,0,0,0,5.33-2.3,17.41,17.41,0,0,0-1.26,7.95c.43,5.18,3.18,8.73,5.42,11.6,4.3,5.52,7.11,5.62,9.4,8.83,2.53,3.54,3.85,10-1.46,23.1-.82-9.61-3.95-13.66-6.78-15.57-3.93-2.65-7.72-1.42-10.84-5.15-2.22-2.63-1-4.06-3.3-9.42-2.65-6.24-5.31-6.73-6.69-10.91C528.11,160.37,527.78,155.79,531.38,148.75Zm-5.72,68.85c1.85-2.5,3.33-4.51,3.68-7.4.54-4.31-1.82-7.29-.84-8,.73-.52,2.77.52,3.81,2.18,1.8,2.86-.44,5.85,1.17,7.47,1.43,1.44,3.7-.44,5.75,1.26.91.75.64,1.28,2.19,4.16s2.3,3.25,2.07,3.84c-.7,1.8-7.78-1.41-11.56,1.65-2.24,1.81-2.56,5.22-2.52,7.54-.34-.39-2-2.19-3.94-1.92-2.21.31-3.3,3.05-3.87,4.49-2,4.9-.45,9.19-.78,9.26-.53.11-6.11-10.86-1.87-17.59C520.58,222,522.3,222.17,525.66,217.6Zm-71.24-51.23a7.64,7.64,0,0,1,3.62-1.72c4.5-.72,6.55,3.81,12.91,5,1.36.25,6.16,1.17,8.27-1.33s-.24-6.7,1.68-8.06,5.76,1.24,7.1,2.11c3.67,2.37,5,5,5.82,4.63,1.18-.59-2.14-6.22.26-10.05,1.55-2.45,4.07-2,5.3-4.36s.08-5.44-1.17-7.8A11.47,11.47,0,0,0,502,148c3.86,2,6.27.2,8,1.72,2.9,2.54.42,11.26-2.2,16.66s-4.79,6.3-4.78,9.78c0,3.81,2.58,5.17,5.3,9.79,3.5,5.93,1.83,8.08,4.78,20,2.77,11.17,6.08,16.71,5,17.32-.5.29-1.78-.66-9.95-10.84-10.56-13.15-10.8-14.51-14.47-16.79-5.57-3.46-7.71-2-12.79-6.35-3.25-2.79-3.86-4.66-7.87-7.4-3.71-2.53-5.44-2.46-8.53-4.23S457.72,172.76,454.42,166.37ZM744.05,286.88c-1.89,4.13-3.36,7.92-8.44,23.8S728,334.46,726.7,340c-2.45,10.44-2.17,12.76-4.75,25.39-2.36,11.54-4.87,20.74-6.58,26.57a94,94,0,0,1-2-11.4c-.93-8.81.29-9.09-.67-14.08-1.64-8.51-5.54-9.38-7.85-19.24A64.44,64.44,0,0,1,703.74,337c-.87-12.45.49-15.4-.19-22.31-.86-8.63-4-14.7-7.57-21.42-4.13-7.9-7.82-15-15.59-20.33s-15.46-6.2-23.16-7c-8.44-.92-12.51.06-28.67,1.69,0,0-13.41,1.34-30.14,2.38a353.7,353.7,0,0,1-37.49.79c-18.37-.71-33.13-3.07-47.57-2.78-2.93.06-3.84.19-13.46.5-8.52.27-9.66.23-11.83.79-5.84,1.51-9.56,4.89-13.46,8.43a54.67,54.67,0,0,0-12.69,17.06,60,60,0,0,0-5.24,22c-.28,4.31-.18,9.21-1,19.33a36.79,36.79,0,0,1-1.26,7.94c-1.57,5.54-4,8.55-5.62,11.3-1.44,2.44-2.22,4.62-4.55,22.41-.81,6.24-1.72,13.64-2.62,22-2.15-6.71-5.38-17.45-8.52-30.93-4.91-21.05-4-24.88-8.43-40.46-3.9-13.75-7.12-25.11-14.92-38.37-8.11-13.78-18.63-25.33-15.89-28.66,1.33-1.62,5.89-1.4,6.1-1.39,3.57.2,4.59,1.95,6.4,1.19,2.14-.9,1.49-3.69,4.36-6a8,8,0,0,1,4.07-1.68c5-.42,9.18,5.63,9.68,5.15.34-.31-1.93-2.25-2.7-5.65-.82-3.58.95-4.72-.1-7.44s-3.09-2.23-4.55-5.25c-.33-.66-.73-1.69-.78-7.24-.06-6.08.41-6,.09-8-.89-5.75-5.22-8.81-4.75-9.32s5.43,6.22,14.35,9.32c4.29,1.49,7.36,1.35,8.71,4,1.21,2.32-.56,3.63.2,7.54.45,2.29,2,4.5,5,8.92,2.91,4.22,3.57,4.46,3.87,6.15.57,3.08-1.29,3.88-1.93,8.13-.91,6.06,2.23,8.65.39,11.31-1.68,2.39-5.62,2.24-7.37,2.18-.93,0-4.09-.25-10.47-4.17-7.1-4.37-8.47-7.36-11.62-6.74-2,.4-5.34,2.38-6,2.78-.9.54-1.63,1-2.13,1.39a53.06,53.06,0,0,1,11.82,12.29c7.15,10.51,7.55,11.3,7.55,11.3,1.35,2.64,2,4.46,3.88,5.16,2.76,1,4.23-1.84,8.53-2,4.59-.16,5.5,3,9.69,2.58,3.43-.38,7-3,7.17-5.56.09-1.75-1.49-2.25-4.26-6.94-1.63-2.73-2.43-4.12-2.13-5.35.73-3.13,6.33-3.65,6.19-5.36-.09-1.16-2.68-1-3.87-3.17a4.77,4.77,0,0,1,.38-5.16,4.26,4.26,0,0,1,4.85-1.19c1.73.85,1.58,3,2.91,3.18,1,.16,1.29-1.11,3.29-2.18,2.43-1.31,4-.5,4.84-1.79s-.24-2.22.39-3c1.21-1.45,5.27,2,10.66,1.38,2.47-.28,5.45-1.45,5.62-3,.14-1.26-1.79-1.59-3.1-3.77-2.16-3.58.71-6.55-1-9.12-2.16-3.32-8.19-.22-11.05-3.77-2.07-2.58.45-5-1.55-8.53-2.42-4.24-7.14-2.39-10.27-6.94-2.25-3.28-1-5.94-3.39-7.53-1.85-1.22-3.79-.46-6.88-.1a30.22,30.22,0,0,1-12.4-1.29,24.16,24.16,0,0,0,.59-10.22,23.17,23.17,0,0,0-1.46-5.15A83.24,83.24,0,0,1,449.13,210,86.3,86.3,0,0,1,461,219.45a42.8,42.8,0,0,1-10.37-17.55,43.47,43.47,0,0,1-1.75-15l7.75,2.48a38.44,38.44,0,0,0,7.56,21.71,35.34,35.34,0,0,0,9.21,8.43,20.6,20.6,0,0,0,.19,12.1c.52,1.5,1.35,3.82,3,4.17s2.62-1.85,4.65-1.79c2.34.07,5.05,3.11,5.13,6.05.11,3.51-3.58,4.51-3.47,8.53a7.52,7.52,0,0,0,1.73,4.46c2.74,3.48,7.91,4,8.44,3s-3.11-2.6-2.72-4.56c.43-2.13,5.43-3.91,9.79-2.87,4.91,1.17,7.25,5.52,9.39,4.46,1.4-.69,1.07-2.86,2.42-3.17s2.35,2.17,5.14,2.47a3.42,3.42,0,0,0,2.81-.69c1-1,.1-2.39.88-3.27,1-1.17,4.26-.74,6.39,1,2.66,2.16,2.23,5.25,4,5.55,1.56.28,3.3-2,4.07-3,1.71-2.22,1.33-3.37,2.52-4,2-1,5.63.85,6.49,3.37.51,1.52-.13,2.83.39,3.08.78.38,2-2.8,4.75-3.28a4.14,4.14,0,0,1,3.78,1.19c.93,1.18.42,2.65,1.06,2.88s1.57-1,2.51-2.18c2.11-2.69,1.85-3.43,3-4.27,2-1.42,3.82,0,4.85-1.19,1.26-1.5-1.3-4-.39-6.74.78-2.32,3.17-2,7.55-4.76,3.83-2.45,6.35-5.52,8.82-8.53,3-3.71,3.9-5.76,4.36-5.55.75.35-2.21,5.53-4.65,15.47-.63,2.59-1.27,5.63-3.59,6.74-1.62.78-3.26.22-3.87,1.29-.71,1.24,1.15,2.53.68,4.37-.6,2.33-4.12,2.38-4.26,4.26a2.44,2.44,0,0,0,1.84,2.38c1.83.24,2.4-3.62,5.32-4.26a5,5,0,0,1,5,2.08c.78,1.29.24,2.48,1,2.87.92.5,1.9-1.3,4.16-1.58,2.09-.26,2.89,1.06,3.88.49,1.57-.89-.1-4.31,1.56-6.24s3.9.08,7.65-1c5.39-1.55,5.33-6.89,10.17-7.73,3.42-.59,5.07,1.78,7.27.4s1.12-4.51,3.39-5.95c2.52-1.6,5.18,1.42,8.62-.3,1.87-.94,1.4-2,3.4-3,3-1.5,4.87.51,7.55-.79,3-1.43,3.3-5.16,4-5s1.23,5.49-1.55,8.33c-1.81,1.85-3.38,1.06-6.4,3.27-2.69,2-4.17,4.64-3.87,5s1.85-1.56,5-2.28c1.34-.31,3.15-.73,4.55.2,1.72,1.15,1.27,3.31,2.71,3.77.9.29,1.86-.31,3.29-1.19,2-1.24,2.08-2.06,3.11-2.18,1.53-.18,3.44,1.42,4,3.27.67,2.35-1.15,4.29-.38,5,.54.47,2,0,2.61-.9s0-1.76.59-2.47,2.23-.79,3.29-.2c1.24.68,1,1.74,2,2.28,1.32.69,3.55-.06,4.65-1.49,1.46-1.88.16-3.92,1.46-5,1.14-.92,3.56-.44,4.65.9.78,1,.31,1.69,1,5.45.48,2.81.91,3.32,1.35,3.57,1.09.6,2.27-.4,3,.3s0,1.47.49,2.38c.8,1.44,3.66,1.43,5.43,1a7.6,7.6,0,0,0,4.26-2.88c1.52-2.14.71-3.52,1.74-6,1.64-4,6-6.14,6.59-5.55s-3.88,4.49-2.9,8.83c.7,3.13,3.69,3.72,3.58,6.34-.1,2.39-2.61,2.33-3.39,5.36-.7,2.67,1.1,3.35,1.35,8.92.09,1.9-.08,2.55.49,3.37,1.29,1.88,3.69.74,5.42,2.48s.16,4.2,2,6.25,4.64.52,6.19,2.48c1.79,2.26-1,5.51.87,8.43,1.12,1.69,3.47,2.76,4.75,2.08,1.93-1,.21-5.43,2.52-7,1-.69,2.34-.52,5-.2,3.14.38,3.42,1.08,4.46.69,2.51-.95,1.57-5.42,4.16-6.74,2-1,3.19,1.2,5.91.69,3.2-.58,3.95-4,7.65-7.93a25.28,25.28,0,0,1,8.14-5.65A130.77,130.77,0,0,0,744.05,286.88Z" fill="#fff" opacity="0.5" style="mix-blend-mode:overlay"/><path d="M465.72,178.26c6.18,3.12,11-.08,14.5,4,1.91,2.22,1.59,4.45,4.66,7.14a17.51,17.51,0,0,0,4.65,2.68c2.5,1.21,8.05,3.88,10.85,7.33,4.44,5.48,3.31,14.57,1.74,15s-2.23-8.74-10.17-14.48c-4.53-3.28-7-2.22-11.14-6.35-3.78-3.75-2.95-5.79-6.4-8.33-4.48-3.29-7.48-1-11.72-3.66-6.47-4.09-7.45-14.44-6.49-14.88S458.56,174.63,465.72,178.26ZM525.34,132c-.55.05,2.8,10.7-.39,24.19-1.49,6.32-3.5,9.38-1.81,13.35,1.91,4.5,6,4.26,8.4,9.39,2.12,4.6-.19,7,1,11.11,3,10.17,21.82,12.75,22.08,12,.21-.57-11.36-2.23-15.24-11.11-2-4.59.2-6.2-2.18-12-2.47-6-5.77-6.5-7.77-12.21-1.26-3.63-.78-5.86-.71-10.83C528.94,142.75,525.89,131.94,525.34,132Zm31.13,24.46c1.1-1.88.08-3.48,1.68-6,1.09-1.69,1.89-1.45,3.23-3.18,2.29-3,2.42-6.82,1.94-7s-1,3.12-4,4.8c-2,1.14-2.85.23-4.26,1.28-2.39,1.78-.8,5-3.1,8.46-2.15,3.22-5.61,3.43-5.42,4.1C546.79,159.94,554.3,160.17,556.47,156.46Zm7.5,6.08a10.45,10.45,0,0,0,1.93,6.21c2.4,3.13,6.09,3.25,6.2,5.16.1,1.64-2.59,1.87-3.35,4.49s.78,5.92,3,7.54c1.87,1.39,3.09.67,4.26,2.11,1.35,1.67.15,3.16,1.16,5.56a8.15,8.15,0,0,0,7.11,4.62c2.55.06,5.41-1.27,5.4-2.46,0-1.55-4.89-1.25-6.44-4.54-1.17-2.5.91-4.21-.25-6.35-1.77-3.25-8-1.94-8.53-4.1-.39-1.58,2.93-2.45,3.1-5.15.18-2.89-3.33-6.09-6.46-7.28-1.52-.57-2.16-.38-3.49-1.19A9.22,9.22,0,0,1,564,162.54Zm66.78-4.1c-1-.19-1.4,3.48-5.29,8.33-1.39,1.72-1.94,2-2.07,3-.41,3.15,4.14,5,3.62,7.53-.42,2-3.43,1.71-4.14,4-.81,2.61,2.77,4.36,2.2,7.54-.42,2.33-2.53,2.32-3.36,5.15-.88,3,.54,6.25,1.16,6.22s.08-2.14,1.42-4.37c2-3.25,5.25-2.65,6-4.89.82-2.65-3.42-4.68-2.72-7.8.59-2.61,3.86-2.54,4.27-5,.45-2.73-3.32-4-3.1-7.27.13-2.14,1.77-2.29,2.71-5.29C632.42,162.32,631.71,158.62,630.75,158.44ZM695,238.89c3.76-1.36,6.12-.6,8.33-3,1.72-1.84,1.15-3.23,2.91-4.56,2.41-1.83,4.65-.07,7.36-1.19,4.85-2,5.78-11,5-11.3s-2.73,7.69-7.56,8.33c-3.11.41-4.7-2.59-7-1.59-2.74,1.21-1.94,6.2-5,7.34-1.15.42-1.47-.19-3.49.2a11.07,11.07,0,0,0-4.65,2.18c-4.31,3.25-6.26,9.82-5.23,10.51S688.72,241.17,695,238.89Z" fill="#fff" opacity="0.6" style="mix-blend-mode:overlay"/><path d="M756.64,252.18c-2.3.43-4,1.56-8.14,2.38a34.27,34.27,0,0,1-4.85.59,48.8,48.8,0,0,0,3.69-8.33c1.83-5.46,1.53-7.8,2.9-10.91,1.28-2.9,4.06-6.55,10.66-9.51a27.2,27.2,0,0,0-8.91-3.57c-3.69-.75-7.53-1.54-11.43.19-1.9.84-2.79,1.82-4.65,1.79a7.77,7.77,0,0,1-5.24-2.78,33.62,33.62,0,0,0,4.07-7.14,35,35,0,0,0,2.52-16.06,29.06,29.06,0,0,1-9.3,5.35,28.52,28.52,0,0,1-10.27,1.59,39.07,39.07,0,0,1,5.43-18.05,38,38,0,0,1,9.3-10.51c-9.1-5.18-13.83-4.8-16.47-3.37-1.45.78-4.13,2.88-7.75,2.58a11,11,0,0,1-3.3-.79c-1.83-.62-4.61-.89-8.72.79A8.9,8.9,0,0,0,697,174a10.66,10.66,0,0,0-.59-5.36c-.57-2-.11-5.29,4.66-11.1a111.8,111.8,0,0,0-29.27-.79c1.13-4.27.48-6.89-.38-8.53-.69-1.3-1.35-1.68-1.94-3.18-1-2.5-.45-4.84,0-6.94.81-3.7,1.6-7.46,2.52-11.9-7.54-1.77-12.12-.4-14.92,1.19-2.5,1.43-3.52,3-8.14,6.95a103.35,103.35,0,0,1-8.52,6.54,20.92,20.92,0,0,0-1.55-7.54c-1-2.44-2.55-6.17-5.43-6.74-.53-.11-1.35-.15-6,2.38-4.14,2.25-6.21,3.37-7.36,4.76-2.24,2.7-1.49,4.37-3.3,7.74a17.54,17.54,0,0,1-7.55,7.13,26.3,26.3,0,0,1-9.3-25,29.82,29.82,0,0,0-8.73,6.14c-2.79,2.88-4.53,4.66-5,7.54-.43,2.48.35,4-.77,6a6.76,6.76,0,0,1-3.88,2.78,18.52,18.52,0,0,0-1.55-9.92c-1.7-3.55-3.83-4.54-4.65-8.13-.7-3.07.22-5.11.58-7.34.58-3.68-.2-9.2-6.59-17a72.43,72.43,0,0,1-8.52,12.29,59.82,59.82,0,0,0-7.17,9.52,26.55,26.55,0,0,0-2.52,5.16,22.56,22.56,0,0,0-1,9.91,27.63,27.63,0,0,0-8.34,6.15,28.15,28.15,0,0,0-4.06,5.75l-1.94-1.78a25.78,25.78,0,0,0-2.32-12.3,25.51,25.51,0,0,0-12.21-12.1,18,18,0,0,1-.78,9.92c-3.22,8.33-11.8,10.65-12.79,10.91a18.09,18.09,0,0,0-4.45-3.77,18.39,18.39,0,0,0-9.11-2.58,26.66,26.66,0,0,0-9.69-5.35,26.36,26.36,0,0,0-14.33-.2c6.18,4.53,7.68,8.54,7.94,11.3.33,3.63-1.53,4.19-1.95,10.32-.38,5.79,1,9.26-1,10.9a4.49,4.49,0,0,1-3.69.6,18.55,18.55,0,0,0-8.91-6.15c-8.55-2.61-15.71,2.48-16.66,3.17a16.06,16.06,0,0,1,8.72,8.73,16.74,16.74,0,0,1-.58,13.29,10.52,10.52,0,0,0-14.73-2.18,17.52,17.52,0,0,0-11-5.16c-8-.55-13.23,5-13.95,5.75a33.5,33.5,0,0,1,9.87,9.12,35.07,35.07,0,0,1,6.4,18,22.77,22.77,0,0,1-7.94,0c-8.15-1.48-13.11-7.11-14.72-9.12-2.15,5.57-1.51,9.56-1,11.5.63,2.36,1.9,4.42,4.46,8.53,1.66,2.69,3.18,4.84,4.26,6.34a11.41,11.41,0,0,1-3.29,1.79c-4.31,1.46-8.11-.29-10.85-1-3.31-.85-8.38-1-15.7,2.57a30.44,30.44,0,0,1,10.66,8.73,31.49,31.49,0,0,1,6.2,15.07,24.13,24.13,0,0,0-6.2-.39,24.94,24.94,0,0,0-8.72,2.18C405.35,283,413.63,304,417.93,318.81c7.87,27.14,11.83,40.71,12.79,53.55a77.77,77.77,0,0,0,8.92,32.5,75.42,75.42,0,0,0,4.05,6.57c.35-11.31,1.05-20.92,1.75-28.36,1.56-16.37,3-21.28,5.23-26,2.93-6,4.55-6.11,6.6-11.51,3.28-8.7,1.09-14,1.16-23.6,0-3.21.37-19.59,9.88-34.11,2.85-4.36,9-13.41,19.57-16.46a28.69,28.69,0,0,1,12.59-.59c18.42,2.69,37.21.47,55.81,1,17.35.48,33.23.93,54.26-1a369.09,369.09,0,0,1,45-1.79c13.66.32,18.4,1.24,23.25,4.17,12.15,7.31,16.77,22.15,19.38,30.54a95.45,95.45,0,0,1,3.68,20.43,133.56,133.56,0,0,1,.2,23.9,42.15,42.15,0,0,1,5.81,10,46.12,46.12,0,0,1,3.09,18.44c0,11.21.09,24.45,0,39.86a89.66,89.66,0,0,0,7.37-15.07c4.94-13,5.07-22.59,6.21-32.52,1-8.51,4.45-20.75,11.43-45.22,5.82-20.44,8.83-30.86,13.75-41.05a154.72,154.72,0,0,1,17.25-27.77C762.26,251.9,758.89,251.75,756.64,252.18ZM590,153.68a32.15,32.15,0,0,1,0-5.4,31.7,31.7,0,0,1,1.23-5.76c.66-2.28,1.61-5.36,3-9a21.88,21.88,0,0,0,3.52,12.24,21,21,0,0,0,10,8.1c.54,2.11.84,4.72-.52,6.3-1.88,2.16-5.31.54-7.74,2.52-1.38,1.12-2.57,3.51-1.94,9-6.2-1.63-8.15-4-8.79-5.94C587.7,162.62,590.21,160.79,590,153.68ZM741.92,285.1c-2.54,5.45-7.47,16.68-14.74,45.41-3.2,12.68-7,29.33-10.46,49.18a56,56,0,0,0-5-23.4,53.25,53.25,0,0,0-5.82-9.71c.11-4.95.14-12-.23-20.46-.53-12-.79-18-2.09-23-4.08-15.49-13.64-25.06-18-29.35-3.9-3.8-7.68-7.41-13.77-9.32-3.72-1.17-6.72-1.2-14.33-1-11.17.3-16.74.45-20.16.79-14.58,1.47-32.61,1.92-51.15,2.38-6.15.16-25.8-.23-65.11-1-11.11-.22-22.17,1.68-33.28,1.92a21.41,21.41,0,0,0-6.15,1c-4.68,1.48-9.25,4.82-14.44,12.59a67.45,67.45,0,0,0-11.82,30.94c-1.47,12.94,1.9,16.26-1.35,28.16-1.74,6.35-3.53,8.45-6.2,14.67-3.21,7.47-6.72,18.64-7.37,34.12-1.09-6.7-2.75-15.93-5.23-26.78-3.05-13.42-7.27-31.59-15.88-53.34a301.47,301.47,0,0,0-23.84-47.4c3.09,1.89,5.55,3.48,7.17,4.56,3.4,2.24,5,3.39,6.2,2.77,1.6-.79,1-3.69,2.33-4.16s2.57,2,5.42,4c3.73,2.52,9.08,3.31,10.27,1.58,1-1.42-.73-4.7-2.52-6.54-1.33-1.38-1.83-1.05-3.67-2.58-3.07-2.53-2.95-4.47-5-5.75-1.22-.74-3.25-1.3-6.78-.2a37.56,37.56,0,0,0-3.1-9.32,36.2,36.2,0,0,0-5.43-8.13c3.43-1,5.61-.46,7,.2s1.85,1.46,3.1,1.78c2.28.59,4.67-1,6.4-2.58q4.83,4.83,10.07,9.72c2.07,1.93,4.11,3.8,6.16,5.63a3.58,3.58,0,0,0,5.27-1.07,3.64,3.64,0,0,0-1.16-4.16,27.05,27.05,0,0,1-7.36-6.55c-4.11-5.34-2.82-8-7.17-12.89-2.72-3-4.43-3.34-6.4-6.74a19.31,19.31,0,0,1-2.33-6.94,19.94,19.94,0,0,0,26.55.2,63.32,63.32,0,0,1-3.1-7.74c-1.86-5.73-1.7-8-3.29-11.3a20.4,20.4,0,0,0-7.75-8.33,20.61,20.61,0,0,1,8.14,2,21.1,21.1,0,0,1,4.07,2.58c3.66-2.53,6.13-2.54,7.36-2.38.63.09,1.75.34,2.91.6a22.91,22.91,0,0,1,3.87,1c2.07,1.21,1.12,3.67,3.1,7.53.43.84,2.77,5.42,5.62,5.16a3.62,3.62,0,0,0,3.1-3c.17-2.09-2.69-2.74-4.26-5.56-1.91-3.42,0-6.7.39-11.3.32-3.43-.08-8.5-3.69-15.07,5.89-.9,8.85.44,10.47,2s1.79,3.27,3.68,4c2.59.95,4.33-1.5,7.36-1.19,1.55.15,3.76,1.08,6.2,4.76a3.28,3.28,0,0,0,4.46.19,3.34,3.34,0,0,0,.77-3.57l-7.75-6.34c.77-3.7,1.25-6.83,1.56-9.12.61-4.65.91-7,.57-9.92a25,25,0,0,0-2.32-7.93c3.35-.91,6.6.07,8.14,2.38a6.19,6.19,0,0,1,1,3.57c1.27-.26,6.6-1.17,10.47,2.18a10,10,0,0,1,1.75,2,12.82,12.82,0,0,0-.59,11.9,3.63,3.63,0,0,0,5.62-2.58,7.93,7.93,0,0,1,.2-3.57,8.29,8.29,0,0,1,2.52-3.77c4.25-3.89,7.6-5.1,10.07-7.53,1.63-1.61,3.55-4.4,4.27-9.52a19.74,19.74,0,0,1,3.49,8.13c.7,4.21-.58,5.77.77,8.53,1.62,3.31,4.45,3,6.59,6.34a12.22,12.22,0,0,1,1.55,7.74c.37.56,1.55,2.18,2.71,2,1.61-.26,2.13-3.79,2.33-5.15a17,17,0,0,0-.59-7.34,68.54,68.54,0,0,1,6.59-6.75c4.87-4.31,7.17-5.07,7.76-7.93.61-3.11-1.61-4.66-.39-7.53.83-2,2-1.58,3.68-4,1.86-2.64,1.08-4.06,2.71-7.73,1.12-2.53,3.46-6.33,4.84-6s1.66,5.32,1.36,8.52c-.44,4.59-1.89,5.43-1.16,7.74.87,2.75,3.11,2.08,5.62,5.95a12,12,0,0,1,2.13,7.73,10,10,0,0,1-1,3.37c6.47.93,8.7,3.09,9.5,5,2.12,5-4.54,10.85-1.94,14.87.9,1.4,3.12,2.2,7.55,3.77,3.84,1.37,5.79,1.47,6,2.58.31,1.5-3,2.24-4.84,5.55-2.31,4.21-.78,10,.39,10.12s.88-4.82,4.83-8.73,8.29-2.83,9.31-5.75c1.25-3.56-4.36-7.15-3.1-9.72,1.48-3,9.93.64,13-3.37,2-2.69-.88-5.46,1.36-9.32,2.14-3.68,5.88-3,7.56-6.94,1-2.29-.11-3,.77-5.75,1.41-4.47,5.82-8,7.56-7.14,1.51.75-.34,4.24,1.74,9.52,1.26,3.17,2.38,3,3.11,5.75,1.08,4.1-1.24,5.34-.59,9.12.71,4.1,3.79,4.64,6.78,9.92a24.3,24.3,0,0,1,2.91,8.72,3.16,3.16,0,0,0,3.87,1.79,3.33,3.33,0,0,0,2-4.17,22.38,22.38,0,0,0-3.69-10.31c-3-4.25-6.33-5.43-6.2-8.53.09-2.1,1.68-2.65,2.71-6.34a16.4,16.4,0,0,0,.58-5.16,34.17,34.17,0,0,1,10.08-9.72,33.52,33.52,0,0,1,10.85-4.36c-3.25,6.77-2.93,10.81-1.94,13.29a29.57,29.57,0,0,1,1.94,5.35,23.92,23.92,0,0,1,.59,6.15,14.12,14.12,0,0,0-6.79,4.36,14.49,14.49,0,0,0-3.1,6.15,3.15,3.15,0,0,0,1.75,4,3.09,3.09,0,0,0,3.68-2.78,18.5,18.5,0,0,1,4.84-3.77c3.63-1.94,6.84-2,11.05-2.18,3.35-.13,8.42-.36,15.11-.79-3.2,3.74-3.77,6.7-3.68,8.72.12,2.74,1.39,3.1,1.16,5.76-.3,3.53-2.71,4.76-2.32,8.13.1.89.24,2.19,1.16,2.77,1.24.8,2.86-.4,7.94-2.77,4.78-2.23,5.87-2.36,7-2.18,2.31.37,2.31,1.77,4.26,1.78,2.45,0,3.3-2.19,6.78-3a9.9,9.9,0,0,1,3.11-.2,37.19,37.19,0,0,0-6.4,19.83q-3.39.31-7,.79c-1.38.19-2.73.39-4.06.6a3.41,3.41,0,0,0,.38,6.74l8.53-.2a14.39,14.39,0,0,0,6.2,4c7.32,2.25,13.64-2.8,14.34-3.37a44.57,44.57,0,0,1-9.11,19.23,43.14,43.14,0,0,1-12.4,10.32,12.45,12.45,0,0,0,9.3,1.19c6.73-1.94,8.64-9.22,8.72-9.52,4.53,2.74,7.54,2.74,9.49,2.18,1.53-.44,3.29-1.49,6.39-1.79a17.94,17.94,0,0,1,3.31,0,72.06,72.06,0,0,0-4.08,10.32A75,75,0,0,0,739.78,253a8,8,0,0,0-5.82,0c-3,1.38-2.75,4.33-5.62,7.14-3.56,3.5-6.47,1.33-11.62,4.56s-7.8,8.78-7,9.72,5-3.89,12.79-4.56c3.68-.32,4.51.62,6.6-.4,4.52-2.21,3.56-8.05,7-9.12,3.8-1.2,7.13,5.41,11,4,2.45-.9,2.68-4,6-4.95a6.86,6.86,0,0,1,3.49,0A180.08,180.08,0,0,0,741.92,285.1Z" fill="#020000"/></g></g></g></svg>