<svg xmlns="http://www.w3.org/2000/svg" viewBox="0 0 1080 1920"><g style="isolation:isolate"><g id="hair"><g id="_19" data-name="19"><path d="M440.35,422.56a412.82,412.82,0,0,1-14.73-63.86c-.65-4.45-2.74-19.36-3.87-39.06-.57-9.93-.75-18.49-.78-25.19-3.85-2.73-14.35-11-17.63-25.39-1.08-4.74-3-13.27,1.55-21.22,7.15-12.41,23.75-12.12,24.61-12.09-.5-.69-7-10-3.1-20.83a21.85,21.85,0,0,1,19-14.28c.23-1.22,4.1-20.16,21.7-27.16,14.28-5.68,26.9.74,28.87,1.78,2.14-6.24,8-20.46,22.29-29.55,4.89-3.12,12.3-7.84,22.28-6.74,9.79,1.08,16.28,7.12,18.6,9.52,1.65-1.29,10.58-8,22.48-6a28.42,28.42,0,0,1,14.53,7.34,54.5,54.5,0,0,1,25.77-6.55c7.11,0,14.28.06,20.35,5.36,7.59,6.62,8.08,16.8,8.14,19.23,22.17-5.29,42.46,1.23,50.38,15.27,1.69,3,4.15,8.72,3.68,17.45,20.39-.51,35.26,11,36.62,23.21.85,7.65-3.73,14.25-6.39,17.45a28.14,28.14,0,0,1,.58,54.34,412.32,412.32,0,0,1-22.87,129.7c-1.84-9.16-4-18.69-6.59-28.56q-2.5-9.64-5.23-18.64a177.65,177.65,0,0,0,.2-37.68c-1.8-17.52-3.23-29.94-12.21-41.45-2.64-3.39-9.1-11.67-20-14.87-10.2-3-18,.29-31.58,4.16-2.07.59-24.51,6.93-43.41,8.93-9.74,1-32.46,3.43-57.16-4.17a166.27,166.27,0,0,0-34.3-7.14c-8-.78-11.34-.47-14.53.4-12.88,3.51-19.93,15.19-23.45,21-8.56,14.2-9.67,28.23-10.46,39.86-1.12,16.5,1.81,19.3,1,32.33C454,389.77,451.14,404.67,440.35,422.56Z" fill="#42210b"/><path d="M744.76,252.6c-3-7.42-18.31-10.48-37.59-5.15a43,43,0,0,0-8.39-17.32c-6-7.32-14.94-13-17.57-11-.43.34-.56.78-2.07,9.92-.42,2.56-.59,3.54-1.16,3.7-1.44.4-2.7-4.92-6.73-8.86C665,217.74,656,219,656,217.44c0-1.07,4.39-2.73,8.79-1.86,6,1.2,7.52,6.2,11.37,5.56,3-.5,2.81-3.57,6.46-5.16,5.5-2.4,11.26,2.24,11.88,1.19s-6.21-8.07-15.76-12.43c-3-1.37-11.39-5.09-18.34-3-3.58,1.06-5.37,1.59-7,3.31-.87.92-1.73,2.24-3.49,2.77-.45.14-2.1.65-3-.13-1.46-1.3-.27-5.91,2.07-9.12,2.94-4,6.31-4,6.33-5.55,0-2.8-10.49-6.74-21.44-5.95-10.61.75-20.24,5.83-19.89,8.86.19,1.78,3.72,1.74,5.16,5.15,1.21,2.86.38,6.79-1.17,7.27-1.89.6-3.62-4.43-8.78-8.86-.31-.27-7.18-6-14-6.34-13.38-.58-22.72,20.43-26,18.51-1.67-1-.76-7.51,1.8-12.3,2.71-5,5.93-5.72,6.21-9.38a9.58,9.58,0,0,0-5.3-8.73c-6.36-2.84-13.54,5.39-16.67,2.78-2.45-2.06,1.5-7.54-1-12.43-2.73-5.28-10.93-5.89-15.24-6.22-1.33-.1-25.05-1.6-31.13,11.24-4.72,10,3.73,23.06.77,24.59-1.81.94-4.32-4.27-11.24-6.47-4.14-1.33-10.95-1.93-14.85,1.58-4.83,4.34-5.08,14.86,1.29,24.46-9.52,5-13.25,10.41-14.86,14.54-.79,2-1.82,5.73-4.39,6.35-1.86.45-4.16-.8-5.42-2.38s-.78-2.88-1.82-4.36c-1.84-2.64-6.7-3.16-10.07-1.85-4.25,1.65-7.1,6.61-6.84,12.29a19.83,19.83,0,0,0-9.69-5.55c-4.72-1.07-12.2-.8-16.21,4-5.19,6.24-1.46,16.25.64,21.88s5.57,14.95,13.76,17.65c8.72,2.89,20.13-2.57,27.12-13.88a17.19,17.19,0,0,1-4.26-5.42,17.56,17.56,0,0,1-1.81-8,44.71,44.71,0,0,0,17.44,13c5.49,2.22,11.38,4.6,17.57,2.51,4.42-1.49,5.23-4,9.69-4.49s7.05,1.56,11.5,3.17a36.57,36.57,0,0,0,18.21,1.45,11.16,11.16,0,0,1-5.17-6.34c-.55-1.88-1-5.43.26-6.09,1.61-.82,4.24,3.78,10.47,8.47,3.46,2.6,7.81,5.88,12.4,6.21,9.45.68,16.95-11.35,18.08-13.22a14.56,14.56,0,0,1,.39,6.21,14.22,14.22,0,0,1-2.59,6.22,47.83,47.83,0,0,0,21.58-4.9c11.28-5.67,17.71-15,18.85-14,.91.79-2.44,7.16-5.81,11.9s-5.06,5.56-4.64,6.74c1,2.81,13.15,3.14,23.89-1.72,9.17-4.15,14.88-11,17.7-9,1.6,1.13.25,3.65,2.33,5.69,3.25,3.19,10.24.61,11.88,0,2.37-.88,4.63-1.72,6.07-4,2.13-3.32.72-7,1.82-7.4,1.26-.48,3.15,4.42,6.71,8.33,5.56,6.1,13.16,7.57,22.61,9.38a74.84,74.84,0,0,0,15.37,1.33,9.69,9.69,0,0,1-4.26-5.69,10.12,10.12,0,0,1,1.41-8.06c.49,2.31,2.42,10.12,9.43,15.07,9.69,6.82,21.06,2.54,24.29,1.32s11.63-4.38,15.5-13.35C744,262.75,746.57,257,744.76,252.6ZM620.55,228.31c-10.44,3.16-13.33,14.63-13.46,15.17a31.87,31.87,0,0,0-5.14-11,31.16,31.16,0,0,0-12.11-9.91,14.46,14.46,0,0,1,10.08.1,14.8,14.8,0,0,1,6.88,5.65,16.67,16.67,0,0,1,15.79-6.74c7.26,1.13,11,7,11.53,7.93A19.21,19.21,0,0,0,620.55,228.31ZM429.82,221.8a19.31,19.31,0,0,1,6.72-12.3,45.18,45.18,0,0,0,3.36,3.18,34.38,34.38,0,0,0,4.13,3.17c4.51,2.73,8.71,1.5,8.91,2.51.26,1.27-6.57,2.24-11.36,7-3.71,3.68-5.13,8.57-5.69,12.69C435.22,237.43,428.72,231.15,429.82,221.8Zm18.47,5.55c-.66-1.2,5.3-5.78,10.86-10,5.08-3.9,6.09-4.34,7.36-4.49,6.32-.78,12.77,6.14,11.88,8.33-.74,1.83-6.07-1.07-10.46,2.25-4,3-3.89,8.6-5.94,8.59-1.54,0-1.56-3.15-4.27-4.76C453.84,224.92,448.9,228.43,448.29,227.35Zm16.54-17.71c-3.6-.18-6-6.18-6.85-8.2-.34-.84-3-7.61,0-14.15,3.86-8.49,14.21-10.1,19-10.84a36.53,36.53,0,0,1,22.74,4.23c.86,2.37,1.6,5.51.13,7.4-2.78,3.57-9.85-1.83-17.18.67C471.74,192.45,471.05,210,464.83,209.64Zm74.28-66.77c10.11.89,16.82,7.56,19,9.91a58.87,58.87,0,0,0-26-1.32c-14.44,2.65-22.48,10.23-23.12,9.26C508.12,159.37,521.11,141.28,539.11,142.87Zm43.66,1.72a24.08,24.08,0,0,1,12.92,7.67l-11,12.69c-7,3.43-14.8,2.4-19.51-2.38a16.61,16.61,0,0,1-4.39-11.11C561.76,150.54,570.81,142.1,582.77,144.59Zm42.11,3.57c2.43,1.24,11.45,6.19,12.28,13.88,0,.32-.24,3.12-.78,8.72-.5,5.2-.72,6.9-2.07,8.07s-2.69.48-5.68,1.06c-6.54,1.26-7.81,6.46-11.5,5.81-3.37-.59-3.77-5.21-6.71-5.15-2.66,0-3,3.81-6.21,4.36s-4.44-3-8.39-2.64c-2.41.19-2.45,1.54-5.56,2.24-.62.15-6.26,1.36-8.39-1.58-1.59-2.18-.61-5.76.64-7.93,2.72-4.7,7.17-3.5,10.34-7.67s.85-8,2.45-11.77C597.07,151.39,603.55,147.28,624.88,148.16Zm27.39,33.18c.91-4.49,17.6-7.77,29.84-.79,8.4,4.79,14.93,14.54,12.79,18-2.69,4.32-18.8-1.77-25.45-4.76C664.88,191.71,651.4,185.64,652.27,181.34Zm76.86,29.22c8.13,7.65,8.27,18.21,8.27,20.1-1.09.77-11.49,7.92-21.7,3.57-5.88-2.51-8.91-7.63-10.73-10.71a34.55,34.55,0,0,1-4.65-17.59C710.4,201.73,721.66,203.53,729.13,210.56Z" fill="#fff" opacity="0.5" style="mix-blend-mode:overlay"/><path d="M470.51,227.35a24.14,24.14,0,0,1,8.34-7.07c-.42-.62-4.47-6.93-1.88-14a15.4,15.4,0,0,1,14.73-9.85,13.79,13.79,0,0,0-.13,26.64,37.47,37.47,0,0,0-14.66,5.29,38.42,38.42,0,0,0-11.05,10.45A25,25,0,0,1,470.51,227.35Zm63,4.63c.21.12,3.16-8.6,11.94-15a20,20,0,0,1,8.4-4.13c8.27-1.55,15.08,4.08,16.67,5.46.67-2.12,4.45-13.2,15.59-18.35a27.69,27.69,0,0,1,13.86-2.38c-.95-.78-7.25-5.81-15.41-4.16-7.46,1.51-13.43,8-14.92,16.36-3.74-1.73-11.52-4.61-19.28-1.69C536.94,213.12,533.15,231.81,533.46,232Zm41.17-51.17a14.58,14.58,0,0,0-16-2.48,13,13,0,0,0,0-7.53c-1.72-5.25-6.82-7.53-9.5-8.73-14.07-6.29-36.55,8.72-38.17,9.82A67.78,67.78,0,0,1,536.07,168c6.93.27,12,.55,15,4.46,4.51,5.83.93,15.05.48,16.17.66-.64,6.89-6.48,15.6-4.86A18.43,18.43,0,0,1,579,191.92C579,190.92,579.06,185.06,574.63,180.81Zm23.84-7.73c.57-1.19,5.15-10.34,15.5-12.59a22.28,22.28,0,0,1,15.5,2.47,16.64,16.64,0,0,0-19.18-7.53A17.21,17.21,0,0,0,598.47,173.08Zm14.24,62.57c.9-.72,7.52-5.82,16-3.77a18.78,18.78,0,0,1,10.08,6.54A25.31,25.31,0,0,1,651.17,225a24.41,24.41,0,0,1,18.6-.8c-1.27-.87-10.85-7.24-21.89-3.47A24.22,24.22,0,0,0,636.64,229c-.58-.38-8-5.17-15.89-1.58A16.66,16.66,0,0,0,612.71,235.65ZM677.85,223c0,.21,9.95-1.89,15.76,4,6,6.12,3.59,16.88,4.65,16.93s5-10.39.51-16.66C693.19,219.4,677.86,222.72,677.85,223Z" fill="#fff" opacity="0.6" style="mix-blend-mode:overlay"/><path d="M440.84,247.77c-.45-.37-.88-.74-1.3-1.14A16.12,16.12,0,0,1,440.84,247.77Zm315,21.1a28.09,28.09,0,0,1-20.54,26.77,412.32,412.32,0,0,1-22.87,129.7c-1.84-9.16-4-18.7-6.59-28.56q-2.5-9.64-5.23-18.64a177.64,177.64,0,0,0,.2-37.68c-1.8-17.52-3.23-29.94-12.21-41.45-2.65-3.39-9.1-11.67-20-14.87-10.2-3-18,.29-31.58,4.16-2.07.58-24.52,6.93-43.41,8.93-9.74,1-32.47,3.42-57.16-4.17a166.1,166.1,0,0,0-34.3-7.14c-8-.78-11.34-.47-14.53.4-12.89,3.5-19.93,15.18-23.45,21-8.57,14.2-9.67,28.24-10.46,39.86-1.12,16.49,1.81,19.29,1,32.33-.66,10.23-3.55,25.14-14.34,43a413.08,413.08,0,0,1-14.73-63.86c-.64-4.45-2.74-19.35-3.87-39.06-.57-9.93-.75-18.48-.78-25.19-3.84-2.72-14.35-11-17.63-25.39-1.08-4.74-3-13.27,1.55-21.22,7.15-12.41,23.75-12.13,24.61-12.09-.5-.69-7-10-3.1-20.83a21.84,21.84,0,0,1,19-14.28c.22-1.22,4.1-20.16,21.7-27.16,14.27-5.69,26.9.73,28.87,1.78,2.14-6.25,8-20.46,22.29-29.55,4.89-3.12,12.3-7.84,22.28-6.74,9.79,1.08,16.28,7.12,18.6,9.52,1.65-1.29,10.58-8,22.48-6a28.42,28.42,0,0,1,14.53,7.34,54.5,54.5,0,0,1,25.77-6.55c7.11,0,14.28.07,20.35,5.36,7.6,6.62,8.08,16.8,8.14,19.23,22.17-5.29,42.46,1.23,50.38,15.27,1.69,3,4.15,8.72,3.68,17.45,20.39-.5,35.26,11,36.62,23.21.85,7.66-3.72,14.25-6.39,17.45A28.1,28.1,0,0,1,755.81,268.87Zm-8.14-5.76a21.48,21.48,0,0,0-7-10.7c-12.63-11.34-31.43-5.63-33.52-5a31.59,31.59,0,0,1,12.6-6.75,30.88,30.88,0,0,1,9.49-1c1-1.22,5.35-6.83,4.46-14.28-.92-7.61-6.71-12-9.11-13.88a28.07,28.07,0,0,0-7-3.77c-13.14-4.49-28.14,7.28-29.45,8.33a49.18,49.18,0,0,1,10.27-12.49c0-3-.26-14.16-8.33-22.81-9.12-9.77-24.46-12.41-38.37-6.34a23,23,0,0,1-3.48,4.56,22.68,22.68,0,0,1-7.37,5c.94-1.39,5.37-8.33,3.49-16.86-2.1-9.48-10.41-13.67-12.79-14.87-10.67-5.39-21.64-1.4-27.13.59a48.61,48.61,0,0,0-21.31,15.67,17.2,17.2,0,0,1,2.32-9.32,16.58,16.58,0,0,1,6-5.95,23.12,23.12,0,0,0-9.49-4.56c-12.08-2.59-21.76,6.12-23.06,7.33-2-1.9-11-10.2-23.64-9.32-8,.56-13.57,4.53-16.67,6.75a42,42,0,0,0-14.92,20.22,44.34,44.34,0,0,0-1.94,21,14.22,14.22,0,0,1-4.84-6.15,14.48,14.48,0,0,1-1-7.14,30.92,30.92,0,0,0-18-3c-13.79,2-20.93,12.94-21.9,14.48-7.21,11.49-4.55,23.36-4.06,25.39a17.18,17.18,0,0,1-6.79-10.71c-1.3.6-10.31,5-13,15.27a24.42,24.42,0,0,0,7.33,23.77c-2.56-2-8.2-5.62-15.08-4.34-9.92,1.84-13.81,12.2-14.34,13.69-3.93,11.06,2,25.69,15.31,35.69.18,9,.74,22.3,2.52,38.48,1.3,11.77,2.82,20.91,5.81,38.67,1.8,10.67,4.37,25.38,7.75,43a160.19,160.19,0,0,0,7.95-35.69c1.91-18.33-1-21.08,1.35-38.28,1.92-13.83,4.46-30.49,17.25-43.83a45.48,45.48,0,0,1,14.53-10.71c16.3-7.28,28.49.73,56.78,6,12,2.22,31.12,5.75,54.64,3.18,13.15-1.45,29.7-5,44.18-8.14,17.63-3.8,27.93-6.68,38.56-1.19,6.62,3.43,10.48,8.63,14,13.29,4.17,5.61,9.24,14.37,12.79,31.53a158.36,158.36,0,0,1,1.36,54.74q4,13.1,7.94,26.18A442.13,442.13,0,0,0,729.45,295C743.14,286.54,750.28,273.61,747.67,263.11ZM439.54,246.63c.42.4.85.77,1.3,1.14A16.12,16.12,0,0,0,439.54,246.63Z" fill="#010000"/></g></g></g></svg>