<svg xmlns="http://www.w3.org/2000/svg" viewBox="0 0 1080 1920"><g style="isolation:isolate"><g id="hair"><g id="_2" data-name="2"><path d="M439.37,402q1.5,11.57,3,23.14c2.35-20.56,5.08-33.77,7.24-42.23a224.79,224.79,0,0,0,4.57-25.36c.57-5.74.37-7,1.3-18.32.82-9.81,1.24-14.79,2.14-18.64a59,59,0,0,1,8.13-19.43c2.75-4.15,12.37-17.4,29.17-21.72,7.05-1.81,12.61-1.31,23.73-.3,4,.36,6.28.76,24.23,4.27C565.08,287.7,566,288,569.25,288c4.33.1,5.68-.28,27-4.07,11.41-2,20.12-3.53,29.55-5,20.85-3.15,24.17-2.71,26.45-2.28,12.6,2.41,20.93,10.16,24.32,13.39C688,300.93,691.72,313.77,694,322c1.62,5.79,2.42,15.67,4,35.2,1.41,17.83,1.4,21.76,1.89,26.17,0,0,.19,1.59.43,3.28.84,5.73,4.6,21,10.35,41.19,1.41-8.5,3.24-20.9,4.67-35.94,2.75-28.89,4.23-44.45,2.13-61.5-1.12-9.09-8-56.88-46.9-88.32-15.13-12.23-29.32-17.29-40.33-21.12-15.73-5.46-71.66-24.89-125,6.24C469,248.4,453.53,281.71,448,294,426.17,342.77,435.81,388,439.37,402Z" fill="#42210b"/><path d="M438.76,398.42a49.24,49.24,0,0,1,3.89-24.09,47.5,47.5,0,0,1,8-12.43l-6.46-1.59a37.13,37.13,0,0,0,7-9.78c5.54-11.34,2-19.33,4.65-32.52a57.86,57.86,0,0,1,10.33-23c2.77-3.72,12.89-16.87,31.26-20.62a50.69,50.69,0,0,1,31.52,4q-1.55-3.24-3.1-6.48c3.92,1,9.53,2.47,16.15,4.76,8.48,2.94,14.43,5.71,14.86,4.89.28-.54-2.06-2.39-6.07-5.55-2.46-1.93-4.57-3.45-6.08-4.49a192.55,192.55,0,0,1,21.45,7.66q5.58,2.39,10.59,4.9c5.13-2.53,10.82-5.06,17-7.41,4.68-1.76,9.18-3.24,13.44-4.49q-2.67,2.24-5.43,4.49l-2.45,2a107.44,107.44,0,0,0,30.1-7.94,31.87,31.87,0,0,1-3.49,4,30.57,30.57,0,0,1-3,2.51,50.94,50.94,0,0,1,43.14,0c12.4,5.92,18.82,15.43,22.22,20.63,8.78,13.38,10.67,27.31,12.27,39.13a131.1,131.1,0,0,1,1.17,14.28l7.36,10.31L704,359.12a60.35,60.35,0,0,1,4.52,9.26c6.17,15.94,3.49,29.21,4.47,29.3,1.31.12,4.73-23.36,5.61-44.77a130.26,130.26,0,0,0-.32-17,136.68,136.68,0,0,0-2.78-17.65,143,143,0,0,0-12.14-34.9,132.18,132.18,0,0,0-28.42-37.29c-26.62-24.13-56.43-29.62-73.38-32.52-12.95-2.22-39.58-6.46-71.82,3.44-13.21,4.05-39.07,12.34-60.46,36.49-25.61,28.92-29.36,63.15-32,87.52A213,213,0,0,0,438.76,398.42Z" fill="#fff" opacity="0.5" style="mix-blend-mode:overlay"/><path d="M432.92,367.66a176.05,176.05,0,0,1,0-27.35,165.7,165.7,0,0,1,4.24-26.13,156,156,0,0,1,13.68-35.92,126.88,126.88,0,0,1,16.92-24.9A121.25,121.25,0,0,1,490.69,233a124.45,124.45,0,0,1,30.14-14.82,159.65,159.65,0,0,1,42.71-8.73,170.52,170.52,0,0,1,31.65.92,157.09,157.09,0,0,1,30.43,5.8,141,141,0,0,1,33.79,15.18,129,129,0,0,1,25.43,20.84,122.83,122.83,0,0,1,15.27,20.37,130.06,130.06,0,0,1,11.55,25.2,155.62,155.62,0,0,1,7.19,29.33,173,173,0,0,1,1.68,23.39,244.31,244.31,0,0,1-1,25.26,304.18,304.18,0,0,1-8.66,49.48q.84-11.7,1.66-23.4c1.39-10.58,2.22-19.85,2.75-27.43.95-13.74,1.57-22.77.67-35a141.22,141.22,0,0,0-4.13-26.64,135.6,135.6,0,0,0-10.6-27.63,130.77,130.77,0,0,0-15.52-23.73,127.93,127.93,0,0,0-24.42-22.1,146.72,146.72,0,0,0-39.46-18.89,164.39,164.39,0,0,0-50.38-7c-12.9.18-33,.66-56,10.73a123.77,123.77,0,0,0-24.85,14.48,121.07,121.07,0,0,0-26.82,28.1,129.15,129.15,0,0,0-13.33,25.89,139.37,139.37,0,0,0-5.82,19.64,184.1,184.1,0,0,0-4.26,32,277.64,277.64,0,0,0,0,28.55c.54,15.4,1.2,32.94,2.05,52.3q-2.73-13.85-5.47-27.67A215.9,215.9,0,0,1,432.92,367.66Zm9.47,57.44a217.59,217.59,0,0,0,10.85-42.31c5.56-36.62-1.4-52.42,10.86-75.63,2.86-5.43,10.85-20.07,26.09-25.25,8.95-3,16.08-1.35,29.84,1.06,0,0,19.8,3.46,49,6.74,47.53,5.35,59.65-21.33,87.33-9.52,24,10.27,34.06,38.62,35.13,41.78,5.47,16.17,0,20.34,6.2,58.7a289.24,289.24,0,0,0,7.21,32.73c2,7.15,4,13.11,5.56,17.5l.72-11.63a186.66,186.66,0,0,1-6.77-24.19,211.29,211.29,0,0,1-3.49-24.59c-2.32-23.86-.16-26.58-2.84-40.45-1.54-8-3.15-16.3-8.4-25.78-2.4-4.35-12.11-21.9-30.87-28.17-6.84-2.28-12.84-2.38-27.39-.66-40.11,4.75-40.08,10.89-59.29,10.84-20.53,0-23.31-7.08-56.84-9.38-5-.35-12.95-3.09-22.61-.53-11.93,3.17-19.36,11.4-22.47,14.94-10.1,11.48-12.84,24.26-14.47,32.39-3.27,16.23.79,18.95-2.33,40.85-1.2,8.45-2,9.64-4.91,23.93C445.34,404,443.48,416.75,442.39,425.1Z"/></g></g></g></svg>