<svg xmlns="http://www.w3.org/2000/svg" viewBox="0 0 1080 1920"><g style="isolation:isolate"><g id="hair"><g id="_20" data-name="20"><path d="M459.92,320.43c-2.57-.53-5.19,2.4-6.33,4.49-.63,1.16-1.14,2.68-1.16,7.67,0,5.3.54,6.85.51,9.39,0,5.4-2.67,8.39-4.77,12.69-1.25,2.53-2,4.91-3.62,22.61-2,22.1-1.61,27.23-3.1,27.5-2.88.51-8.41-17.79-10.85-27.1-.85-3.25-3.41-13.33-7.11-40.59-1.13-8.3-1.94-15.11-2.45-19.57a18.46,18.46,0,0,1-11.63,4.89c-9.5.32-15.24-7.46-15.76-8.2.68-.12,5.86-1.18,7.62-5.55a8.13,8.13,0,0,0,.52-4c-.56-4.91-5.2-7.21-9-11a35.75,35.75,0,0,1-8.27-14.54c-2.13-7.53-1.32-17.8,4-25.25,4.47-6.26,8.91-6,19.25-17.32a19.11,19.11,0,0,0,4.52-6.88c2.09-6-.4-10.29-1.16-16-1.21-9.11,2.4-19,7.88-25.12,8.59-9.56,21.45-9.47,24.29-9.38a16.32,16.32,0,0,1-4.78-7.41,17.21,17.21,0,0,1,1-12.29,28,28,0,0,0,5.68,6.87c1.57,1.37,6.35,5.55,12.53,6.08,5.52.48,9.65-2.16,15.38-5.95,10.73-7.09,10.3-11.39,18.21-15.33,5.58-2.78,10.38-2.93,18.34-3.18,7.68-.23,16.08-.49,25.19,3.57,5.37,2.4,7.72,4.83,11.89,4.1s6.1-3.79,9.56-7.27a58.19,58.19,0,0,1,18.47-11.9c10.89-4.08,23.56-1.91,32,2.51a102.92,102.92,0,0,1,15.74,9.82c2.34,1.9,4.25,3.7,7.64,4.86s6.56,1,11.63.4c10.42-1.3,12.13-2.4,16-2.65,9.7-.63,17.51,5,20.8,7.41,7.38,5.34,16.72,16.13,19.25,26.44a9.6,9.6,0,0,0,2.84,5.42c3.35,2.83,7,.43,12.27,1.59,8.2,1.79,12.66,10.55,13.44,12.16a25.52,25.52,0,0,1,1.94,15.86c2.57,1.65,15.24,10.07,17.95,24.73a41.45,41.45,0,0,1-.51,16.66c-1.22,4.44-2.4,5.09-3.75,10.57-1.16,4.75-2.3,9.4-.65,14.68a17,17,0,0,0,5.82,8.72c7,5.2,15.84,1.79,16.66,1.46-.23,1.53-2.35,14.21-14.08,20.89a28.27,28.27,0,0,1-22.48,2.11c-.63,9.5-1.39,20-2.32,31.47-1.64,20.11-2.61,28.38-5.69,38.74a123.31,123.31,0,0,1-5.16,14.15,114.27,114.27,0,0,1-8.4-25.39c-3-15-.82-20.17-6.07-30.67-2.76-5.52-4.51-6.36-9.17-15.6-2.15-4.26-4.91-8.2-6.85-12.56-1.12-2.53-2.25-5.42-5.17-7.14a10.11,10.11,0,0,0-5.16-1.33,27.84,27.84,0,0,1-7.63,13.23,26.52,26.52,0,0,1-10.59,6.21A29.7,29.7,0,0,0,657.44,313a27.08,27.08,0,0,0-3.88-9.51c-7.59-11.32-22.75-11.63-24.67-11.64-1.63,3.71-8.55,18.27-25.32,26.05a50.28,50.28,0,0,1-33.2,3c-7.37,4.27-9.34,11.56-7.23,14.67,1.7,2.51,6.62,3.14,11.62,1.32-1.86,2.74-6.74,9-14.85,10.85-11.48,2.57-21.14-5.65-25.07-9a42.26,42.26,0,0,1-9.17-11.11,34.37,34.37,0,0,1-38.11,7.67,45.41,45.41,0,0,1-12,9.52A44.65,44.65,0,0,1,458,350.18a33.14,33.14,0,0,0,5.82-11.77c.74-2.85,1.78-7,.38-11.77C463.62,324.71,462.51,321,459.92,320.43Z" fill="#42210b"/><path d="M733.55,235.45c-5.66-10.09-15.47-13.51-18.31-14.38l9.11.5a21.45,21.45,0,0,0,.49-12.2c-.27-1-2.37-8.6-9.11-12.29-5.2-2.85-7.57-.32-13.38-2.29-4.89-1.65-6.08-4.43-14.52-14.08-7.71-8.8-12.1-13.81-18.12-17.94a51.34,51.34,0,0,0-17.64-7.64c-4.19,1.78-10.56,3.67-17.63,2.18-5.84-1.23-7.8-3.84-14.63-7.34-10.13-5.18-19.2-6.27-24.7-6.94-10.09-1.22-17.81-2.15-26.27,1.65-11.13,5-16.67,15.06-18.88,19.87a62.36,62.36,0,0,0-27.42-12.49c-7.61-1.37-17.23-3.1-26.74,1.58-8.58,4.23-8,9.23-19.37,15.57-5,2.8-10.64,5.95-18,5.46-9.65-.65-16.19-7.11-18.41-9.52a31.28,31.28,0,0,0,6,14.18,28.94,28.94,0,0,0,4.07,4.26,27.67,27.67,0,0,0-18.5,1.19c-2.29,1-13.08,5.83-14.15,16.06-.87,8.3,5.29,14.37,6.39,15.47,7.35,7.26,17.07,6.23,18.51,6.05a19.19,19.19,0,0,1-10.17,1,17.72,17.72,0,0,1-4.17-1.29,60,60,0,0,0,21.22,7.74l-.87.12a64.42,64.42,0,0,0-12.77,3.15h0a61.33,61.33,0,0,0-11.33,5.44A53.77,53.77,0,0,0,411,249.73c-3.84,4.62-6.57,7.91-7.36,13-1.31,8.55,3.55,18.09,10,20.42a6.23,6.23,0,0,0,4.46.3c3.41-1.31,2.72-5.86,5.91-10.81,4.44-6.89,12.44-8.4,13.18-8.52a19.52,19.52,0,0,1,10.74,1.29c-1,.94-9.23,9-7.84,20.42.13,1,1.74,12.82,10.66,16.26a14.46,14.46,0,0,0,9.69.3c4.63-1.65,5-5,7.85-5.15,3.55-.15,5.09,5.19,11.43,13.18,5.49,6.93,9.08,11.44,14.33,12,7.71.82,13.91-7.4,14.44-8.13,3.68-5,2.86-8.6,4.75-17,1-4.3,4.12-18.18,13.47-27.56,3-3,9.18-8.09,20.06-10.41a18.69,18.69,0,0,0-8.63,13,21.88,21.88,0,0,1,10.36-5.46,21.55,21.55,0,0,1,11.73.8,38.82,38.82,0,0,0-18,12.39c-3.25,4.07-8.82,11-7.07,19.24a15.75,15.75,0,0,0,5.23,8.82c1.18.95,4.21,3.06,20.83,2.09,7.59-.45,11.47-.7,15.41-2.09a35.82,35.82,0,0,0,6.06-2.79h0c.9-.51,1.74-1,2.52-1.58h0A37.33,37.33,0,0,0,590,299.9,29.62,29.62,0,0,1,570.79,301a29,29,0,0,1-10-5.25,40.79,40.79,0,0,0,17.83,1.78c17.79-2.25,27.93-16,30-18.84,6.5-8.81,8.39-17.66,9.4-22.7a65.37,65.37,0,0,0,.87-20.13,87,87,0,0,1,9.78,26.77,85.77,85.77,0,0,1,1.49,16.16,40.34,40.34,0,0,1,12.37,4.76,40.37,40.37,0,0,1,20.08,36.2,46.23,46.23,0,0,0,1.63-29,43.14,43.14,0,0,0-6.3-13.09,17.45,17.45,0,0,1,9.87,6.94A18.15,18.15,0,0,1,671,295.54a12.3,12.3,0,0,0,2.23-7.64,11.9,11.9,0,0,0-1.26-4.66,67.5,67.5,0,0,0,13.95,8.93c5.75,2.74,9.16,4.3,12.2,2.77,4.49-2.23,4.91-9.47,4.95-10.31.34-7.61-4.8-13.59-10.08-19.73a66.54,66.54,0,0,0-8.82-8.53,46.22,46.22,0,0,1,18,7.93,47.34,47.34,0,0,1,11.53,12.1,28.88,28.88,0,0,0-1.16-15.17,28,28,0,0,0-6.31-10,35.24,35.24,0,0,1,14,12.79c4.87,8.11,4.2,15.35,6.78,15.66,3.11.38,7.3-9.79,8.91-18.34C737.15,254.62,739,245.06,733.55,235.45ZM585.61,154a28.39,28.39,0,0,1,10.85,3.77,16.9,16.9,0,0,0-3.29-4.76,17.14,17.14,0,0,0-9.11-4.76c11.82-2.65,23.14,3.17,26.94,12.69,3.94,9.87-1.91,19.45-2.52,20.43A51,51,0,0,0,592,166.14a50,50,0,0,0-27.31-6.55C567.07,157.91,575.08,152.7,585.61,154ZM457.53,255.38a82.6,82.6,0,0,0,26.74-15.47,45.18,45.18,0,0,1-10.66-1.58,45.83,45.83,0,0,1-14.53-7c16.65-1,24.25-6.5,28.09-11.5,2.77-3.59,3.6-6.93,7.95-12.1a47.51,47.51,0,0,1,15.31-11.89,76.76,76.76,0,0,0-34.65-8.53A39.39,39.39,0,0,0,493,183.59c8.32-4,8.65-8.1,15.7-10.51,7.79-2.68,18.68-1.55,25,5.55a20.76,20.76,0,0,1,4.65,9.52,40.82,40.82,0,0,1,13.57,2.38,41.5,41.5,0,0,1,10.46,5.55c-24.64-5-36.18,2-41.08,6.15-3,2.58-5.9,7.07-11.62,16.07-13,20.42-13.14,25.78-19.57,31.13C484.63,254,475.15,258.08,457.53,255.38Zm83.52-11.9a35.7,35.7,0,0,1-7.76,11.11,15.53,15.53,0,0,0,1.83-3h0c2-4.32,1.47-8.44-.28-9.73s-5.38-.56-8.66,2.35a33.39,33.39,0,0,0,5.36-9.09,34.1,34.1,0,0,0,2.33-13.88c.46,7.55,2.48,12.8,4.45,12.89s4.17-4.55,5.43-10.91A37.27,37.27,0,0,1,541.05,243.48Zm60.38-.59c-4.51,7.11-9.2,11.68-9.62,11.37s1.6-2.55,1.62-6.22a10.87,10.87,0,0,0-.46-3.17,13.77,13.77,0,0,1-10.65,5.68,7.78,7.78,0,0,0,2.52-4.23,7.54,7.54,0,0,0,0-3.1,16.91,16.91,0,0,1-3,2.91,16.55,16.55,0,0,1-5.94,2.84,8,8,0,0,0,2.27-3.9,8.08,8.08,0,0,0,.19-1.52,29.52,29.52,0,0,1-9.76,5.62,29,29,0,0,1-10.2,1.52,53,53,0,0,0,15-9.79,54.59,54.59,0,0,0,12-16.32q-.33,2.65-.84,5.55c-.33,1.87-.71,3.66-1.1,5.35a10.73,10.73,0,0,0,3.49-3.57c1.59-2.71,1.42-5.35,1.68-5.35s.58,3.38-.19,7.14a23.74,23.74,0,0,1-.78,2.84,7.9,7.9,0,0,0,4.78-2.84c1.11-1.53,1.26-3.22,1.49-3.18s.28,2-.52,4c-.69,1.66-1.58,2.28-1.43,2.51.37.53,5.22-1.72,9.5-5.09a38.24,38.24,0,0,0,9.23-10.64A75.22,75.22,0,0,1,601.43,242.89ZM576.12,206.2a45,45,0,0,0-18.41,22.21c-.19-.79-4.5-20.06,7.17-30.34,6.52-5.76,14.71-5.75,20-5.75,14.28,0,24.66,7.32,28.86,10.7C611.12,202.07,593.35,195.86,576.12,206.2Zm81.57,17.25c-1.86-5.58-1.85-10-5.62-14.48-5.5-6.51-14.64-7.77-21.89-7.73a56.2,56.2,0,0,1,10.43-1.7c7.8-.53,18.29-1.25,23.09,4.67,2.92,3.61.6,5.8,4.85,14.68a33.67,33.67,0,0,0,5,8.13c4.92,5.7,10.26,7.37,9.89,8.33-.31.77-4,.42-7.37-1-4.77-2-7.1-5.45-8.14-4.76-.12.08-.71.55,0,3.17,1.75,6.43,7.67,12.4,11.63,15.87C665.66,239.85,660.1,230.63,657.69,223.45Zm27.42-19a75.47,75.47,0,0,0-18.31-10.9c-5.08-2-13.69-4.44-25.77-3.08.56-1.16,6.6-13.27,20-15.37a26.31,26.31,0,0,1,23.35,8.43c5.77,6.57,3.57,11.84,9.4,20.59a39,39,0,0,0,15.11,13,30.5,30.5,0,0,1-8.81-1.89C693.32,212.68,690.18,208.68,685.11,204.41ZM526.18,244.25a29.84,29.84,0,0,1-2.19,2.4A16,16,0,0,1,526.18,244.25Zm-93.52-9.63c5.17-2.83,10.86-6,17.7-4.36s11,7.16,12.34,9.19a35,35,0,0,0-8-3.37A34.62,34.62,0,0,0,444,234.82a30.89,30.89,0,0,1,8.46,3.24,31.54,31.54,0,0,1,7.17,5.55A71.38,71.38,0,0,0,419,246.52,43.39,43.39,0,0,1,432.66,234.62Zm4.82-35.26a18.39,18.39,0,0,1,6.2,2,20.13,20.13,0,0,0-2.14-3,19.34,19.34,0,0,0-6.1-4.66,23.12,23.12,0,0,1,13.95,6.75,24.18,24.18,0,0,1,6.69,14.37,14.43,14.43,0,0,0-2.62-5.35,14,14,0,0,0-4.55-3.77,22.24,22.24,0,0,1,2.23,4.46,22.65,22.65,0,0,1,1.35,7.94,30.33,30.33,0,0,0-9.69-12.3,29.37,29.37,0,0,0-13.75-5.55A18.27,18.27,0,0,1,437.48,199.36Zm32.35,10.7a26.73,26.73,0,0,1,7.85-11.1c11-9,25.25-4.65,26.74-4.17a25.86,25.86,0,0,0-9.69,4.76,26.39,26.39,0,0,0-7.07,8.63,10.75,10.75,0,0,1,.2-5.65,10.46,10.46,0,0,1,2.22-3.87,46.24,46.24,0,0,0-9.3,3.57A47,47,0,0,0,469.83,210.06Zm11.28,86.83A59.87,59.87,0,0,1,489,270.72a58.41,58.41,0,0,1,23.51-22.48,23.88,23.88,0,0,0-7.11,10.31,23,23,0,0,0-1.16,5.42,16.29,16.29,0,0,1,5.3-4.23,15.69,15.69,0,0,1,5.68-1.58,16.66,16.66,0,0,0-2.71,2.77,18.06,18.06,0,0,0-2.46,4.23,68.53,68.53,0,0,1,25.09-13.54A29.61,29.61,0,0,0,521,266.22a42.91,42.91,0,0,1,9.69-8.86,42,42,0,0,1,14.47-6.08,61.49,61.49,0,0,0-20.67,17.06,63.16,63.16,0,0,0-10.72,21,27.46,27.46,0,0,1-1.81-6.22,28.08,28.08,0,0,1-.39-4.89,45.26,45.26,0,0,0-1.94,7.14,44.09,44.09,0,0,0-.64,10.05,21.59,21.59,0,0,1-5.3-15.47,33.51,33.51,0,0,0-8.27,17.32,32.74,32.74,0,0,0,0,9.26,71.63,71.63,0,0,1-3-17.19,73.08,73.08,0,0,1,.13-8.86,48.56,48.56,0,0,0-11.49,16.39Zm33.07-71.79c-.09-2.91-.13-14.85,8-21.68,4.39-3.69,9.56-4.52,16-5.55a59.08,59.08,0,0,1,16.8-.27,88.66,88.66,0,0,0-13.18,7.14,89.58,89.58,0,0,0-16,13.49,15.32,15.32,0,0,1,2.84-7.93,14.67,14.67,0,0,1,7.24-5.29,26.53,26.53,0,0,0-14,6.87A27.51,27.51,0,0,0,514.18,225.1Zm27.12-52.62a23.76,23.76,0,0,1,7.24,1.06,21.41,21.41,0,0,0-13.7-8.72,27.54,27.54,0,0,1,20.93,3.43,28.69,28.69,0,0,1,11.89,16.13,20.93,20.93,0,0,0-4.65-5.81,20.54,20.54,0,0,0-10.34-4.76l5.17,11.1a33.11,33.11,0,0,0-3.59-3.27,37.8,37.8,0,0,0-4.16-2.81C547,177.06,541,175,533,174.07A23.8,23.8,0,0,1,541.3,172.48Zm29.46,50a23.4,23.4,0,0,1,7.16-11.11,22.76,22.76,0,0,1,7.82-4.23,29.07,29.07,0,0,1,18.09.27,28.53,28.53,0,0,0-8.53,3.7,29.4,29.4,0,0,0-8.52,8.46,10.63,10.63,0,0,1,1.29-6.35,10.12,10.12,0,0,1,2.84-3.17,45.9,45.9,0,0,0-20.15,12.43Zm-17,57.91a78.7,78.7,0,0,0,22-19.57,15.61,15.61,0,0,1-1.55,6.08,14.64,14.64,0,0,1-2.59,3.7,26.31,26.31,0,0,0,10.47-8,27.06,27.06,0,0,0,3.23-5.24,16.15,16.15,0,0,1-.26,6.88,15.79,15.79,0,0,1-3.36,6.34,16.16,16.16,0,0,0,9.82-8.72,21.07,21.07,0,0,1,.77,5.82,20.38,20.38,0,0,1-.52,4.49,24.45,24.45,0,0,0,4.91-4.49,25.27,25.27,0,0,0,4.65-8.47,21.89,21.89,0,0,1-.51,8.73,21.23,21.23,0,0,1-2.07,5,20.88,20.88,0,0,0,8-7.13,21.34,21.34,0,0,0,3.1-7.67,31.34,31.34,0,0,1-21.19,29.08l4.91-7.93c-2.69.93-5.62,1.83-8.78,2.64-3,.78-5.85,1.38-8.53,1.86a22.51,22.51,0,0,0,6.72-5.29,23.35,23.35,0,0,0,3.88-6.35,72.35,72.35,0,0,1-11.37,7.41,70.59,70.59,0,0,1-10.6,4.49c1.36-1.66,2.75-3.51,4.14-5.55,1-1.55,2-3,2.84-4.5a93.88,93.88,0,0,1-9.82,4C559.05,279,556.28,279.75,553.71,280.37Zm2.58,17.71a66.85,66.85,0,0,0,13.18,4.24,67.54,67.54,0,0,0,18.08,1.32A28.47,28.47,0,0,1,567.4,305,27.73,27.73,0,0,1,556.29,298.08Zm66.4-134.85c4.14,10.87-1.07,20.61-1.81,22a37.83,37.83,0,0,0-2.84-20.1,37.09,37.09,0,0,0-17.31-18A25.55,25.55,0,0,1,622.69,163.23Zm23.77,48.39c8.78,7.79,8.57,18.7,8.52,20.09a21.86,21.86,0,0,0-1.29-5,22.61,22.61,0,0,0-7.49-9.78,25.36,25.36,0,0,1,2.06,5.81,25.73,25.73,0,0,1,0,11.11,40.12,40.12,0,0,0-7.75-16.66,39.12,39.12,0,0,0-14.46-11.37A25.18,25.18,0,0,1,646.46,211.62Zm77,21.15c9.66,5.61,11.84,15.67,12.14,17.19a23.87,23.87,0,0,0-4.13-5.82,23.36,23.36,0,0,0-7.75-5.29,28.63,28.63,0,0,1,4.13,5,30.19,30.19,0,0,1,4.65,14,41,41,0,0,0-13.43-18.77,39.33,39.33,0,0,0-17.57-7.67C702.73,230.92,713.06,226.75,723.45,232.77ZM670.23,255A39.7,39.7,0,0,1,689.6,265.3a41.21,41.21,0,0,1,11.11,19,33.27,33.27,0,0,0-5.94-7.13,32.21,32.21,0,0,0-8.53-5.56A43.81,43.81,0,0,1,695,287a50.52,50.52,0,0,0-14.21-12.69,49.13,49.13,0,0,0-14.73-5.82,25.79,25.79,0,0,1,10.85-.27,25.37,25.37,0,0,1,5.17,1.59q-2.67-3.63-5.68-7.4C674.34,259.78,672.26,257.31,670.23,255Z" fill="#fff" opacity="0.5" style="mix-blend-mode:overlay"/><path d="M467.09,255.78c-.19-.65,10.46-1.6,20-10.18,6.86-6.15,10.41-13.75,13.63-20.63,4.91-10.5,3.75-12.82,7.24-18.05,3.36-5,10-11.23,24.67-14.34a29.39,29.39,0,0,0-10.46-8.33,29,29,0,0,0-17.9-2.11c.43-.29,10.78-7,21.06-1.66A21.09,21.09,0,0,1,535,191.92a30.54,30.54,0,0,1,5,.13,30.91,30.91,0,0,1,6.4,1.39c-4-.3-14.22-.47-23.45,6.28a38.71,38.71,0,0,0-10.92,13c-3.7,6.72-2.72,9-5.61,15.74a50.16,50.16,0,0,1-16.28,20C479.26,256,467.29,256.46,467.09,255.78Zm75.22-13.09c3.68-8.18,2-16.42.87-20.33a43.61,43.61,0,0,1-2.81,17.45c-3.53,9-9.3,14.13-8.82,14.58S538.84,250.39,542.31,242.69ZM559.65,226c1.84-5.23,5.8-13.45,14-18.24,5.24-3,10.3-3.6,17.74-4.4a85.75,85.75,0,0,1,18.82,0c-5.46-1.72-21.89-6.25-36-.2-6.16,2.64-9,6-9.69,6.94C559.71,216.21,559.56,223.32,559.65,226ZM573,159.88a62.34,62.34,0,0,1,19.56,8.44A63.8,63.8,0,0,1,607.9,182.4a33.79,33.79,0,0,0-11.24-16.06A33.05,33.05,0,0,0,573,159.88Zm36.8,62.84a85.15,85.15,0,0,1-11,21.36A83,83,0,0,1,587,257.36a35.52,35.52,0,0,0,19-16.66A35.89,35.89,0,0,0,609.83,222.72Zm20.93-20.09c-.13.73,11.5,0,19.38,8.53,5.55,6,4.11,11.11,8.91,19.43,2.71,4.69,7.79,11.07,18.14,16.47C672,243.32,665,237,661.57,227.22c-2.7-7.76-1.05-11.67-4.65-16.66C649.39,200.12,630.92,201.71,630.76,202.63Zm20-17.26a22.61,22.61,0,0,0-10.85,8.33c5.51-.48,17-1.06,28.29,2a39.6,39.6,0,0,1,11.38,4.63c3.46,2.15,4.56,3.66,8.41,6.59a68.12,68.12,0,0,0,11.79,7.22c-4.92-4-8.73-7.39-11.24-9.72-5.61-5.2-7-7-10.85-9.32a37.94,37.94,0,0,0-11.82-4.36A50,50,0,0,0,648,190a26.27,26.27,0,0,1,20-3.48A22.64,22.64,0,0,0,650.72,185.37ZM763.88,297.16c-.22,1.53-2.35,14.21-14.08,20.89a28.27,28.27,0,0,1-22.48,2.11c-.63,9.5-1.39,20-2.32,31.47-1.64,20.11-2.61,28.38-5.69,38.74a126,126,0,0,1-5.16,14.15,113.94,113.94,0,0,1-8.4-25.39c-3-15-.82-20.17-6.07-30.67-2.76-5.51-4.5-6.36-9.17-15.6-2.16-4.27-4.91-8.2-6.85-12.56-1.12-2.53-2.25-5.42-5.17-7.14a10,10,0,0,0-5.16-1.33,27.92,27.92,0,0,1-7.63,13.23,26.7,26.7,0,0,1-10.59,6.21A29.7,29.7,0,0,0,657.44,313a26.81,26.81,0,0,0-3.88-9.51c-7.59-11.32-22.75-11.63-24.67-11.64-1.64,3.7-8.55,18.27-25.32,26.05a50.21,50.21,0,0,1-33.2,3c-7.36,4.26-9.34,11.57-7.23,14.67,1.7,2.51,6.63,3.14,11.62,1.32-1.86,2.74-6.74,9-14.85,10.85-11.48,2.57-21.14-5.66-25.07-9a42.22,42.22,0,0,1-9.17-11.11,34.37,34.37,0,0,1-38.11,7.67A44.84,44.84,0,0,1,458,350.18a33,33,0,0,0,5.82-11.77c.74-2.85,1.78-7,.38-11.77-.57-1.93-1.67-5.68-4.26-6.21s-5.19,2.4-6.33,4.49c-.62,1.16-1.14,2.68-1.16,7.67,0,5.3.54,6.84.51,9.39,0,5.4-2.66,8.39-4.78,12.69-1.23,2.52-2,4.92-3.61,22.61-2,22.1-1.61,27.24-3.1,27.5-2.88.52-8.41-17.79-10.85-27.1-.85-3.24-3.41-13.34-7.11-40.59-1.13-8.3-1.94-15.12-2.45-19.57a18.46,18.46,0,0,1-11.63,4.89c-9.49.32-15.24-7.47-15.76-8.2.68-.12,5.86-1.17,7.62-5.55a8.13,8.13,0,0,0,.52-4c-.56-4.91-5.2-7.21-9-11a35.84,35.84,0,0,1-8.27-14.54c-2.12-7.53-1.31-17.81,4-25.25,4.47-6.26,8.91-6,19.25-17.32a19.11,19.11,0,0,0,4.52-6.88c2.09-6-.41-10.29-1.16-16-1.21-9.11,2.4-19,7.88-25.12,8.59-9.56,21.45-9.47,24.29-9.38a16.24,16.24,0,0,1-4.78-7.41,17.27,17.27,0,0,1,1-12.29,28.22,28.22,0,0,0,5.68,6.87c1.56,1.37,6.36,5.54,12.53,6.08,5.53.49,9.65-2.16,15.38-5.95,10.73-7.09,10.3-11.39,18.21-15.33,5.58-2.78,10.38-2.93,18.34-3.18,7.68-.24,16.08-.49,25.19,3.57,5.37,2.4,7.71,4.83,11.89,4.1s6.09-3.79,9.56-7.27a58.38,58.38,0,0,1,18.47-11.9c10.9-4.07,23.57-1.9,32,2.51a102.92,102.92,0,0,1,15.74,9.82c2.34,1.91,4.25,3.7,7.64,4.86s6.56,1,11.63.4c10.43-1.3,12.13-2.39,16-2.65,9.7-.63,17.51,5,20.8,7.41,7.39,5.34,16.72,16.14,19.25,26.44a9.57,9.57,0,0,0,2.84,5.42c3.35,2.83,7,.44,12.27,1.59,8.21,1.79,12.66,10.55,13.44,12.16a25.52,25.52,0,0,1,1.94,15.86c2.57,1.65,15.24,10.06,17.95,24.73a41.45,41.45,0,0,1-.51,16.66c-1.22,4.44-2.4,5.09-3.75,10.57-1.16,4.75-2.3,9.39-.65,14.68a17,17,0,0,0,5.82,8.72C754.19,300.89,763.06,297.49,763.88,297.16Zm-4.78,4.36c-1.57.87-6.19,3.16-11.37,1.72-7.76-2.16-10.54-11-11.24-13.22-2.17-6.91-.69-13.11,1.3-21.55,2.37-10,4.8-12.1,4.26-18.51a28,28,0,0,0-4.65-12.69c-7.3-11.93-19.51-16.4-24.29-17.85l11.11.4a23.45,23.45,0,0,0-1-7.81c-.53-1.69-3.12-10.07-9.69-12.56-4.92-1.86-7.61,1.27-12.4-1.18a14,14,0,0,1-5.43-5.56c-9.6-15.48-10.6-21.22-15.5-26.31-6.6-6.86-15.73-7.79-24.8-8.72a59,59,0,0,0-25.84,3.17,52.81,52.81,0,0,0-26.61-18.51,49.44,49.44,0,0,0-26.87-.4c-16.07,4.6-24.67,16.54-27.12,20.23-6.16-3.58-21.65-11.42-40.7-8.86-8.48,1.15-18.46,2.49-24.93,10.18-2.79,3.32-3.53,6.16-7.88,9.39a23.59,23.59,0,0,1-30-.93,53.87,53.87,0,0,0,5.56,7.94,52.74,52.74,0,0,0,6.84,6.74c-1.87-.56-21.67-6.22-32.16,4.76-5.84,6.1-7.13,15.59-7.75,20.23-1.46,10.71,1.81,13.19-.91,20.89-1.84,5.23-5,8.64-11.37,15.47-7.75,8.34-9.52,7.55-12.14,12.42-3.24,6-4.36,14.34-1.55,21.16.73,1.78,3.11,4.67,7.88,10.44,7.27,8.81,9.52,10.56,9.43,13.75,0,1.83-.9,5.37-7.36,9.52a16.88,16.88,0,0,0,12-.53c8.5-3.81,10-13.5,10.08-14.14,2.27,12,5.32,29.17,8.27,50.1,2.32,16.49,4.57,35.14,6.2,35,1.79-.11-1.47-22.9,5.79-36.06,1.18-2.13,4-6.56,4.15-12.73.06-3.19-.66-4.6-.26-7.27.75-4.89,4.42-8.36,7.5-10.57-1.64-.65-15.12-6.24-19.51-21.29a33.87,33.87,0,0,1,8-32.52,31.64,31.64,0,0,0-6.2,18.44A30,30,0,0,0,442.61,300c6,9.17,13.59,8.32,21.7,19.83a21.73,21.73,0,0,1,3.49,6.94c1.85,6.68-.27,12.75-1.55,15.67a58.78,58.78,0,0,0,20.54-13.29,27.46,27.46,0,0,0,17.63,3.18c11.26-1.84,17.3-10.28,18.41-11.9-1-3.32-4.48-15.8,1.55-28.76,6.19-13.31,19.94-21.92,35.46-22.41A36.73,36.73,0,0,0,541.63,276c-.82.59-16.66,12.52-15.5,32.52.22,3.91,1.55,15.86,11.62,24.79a34.31,34.31,0,0,0,25,8.33c-1.19-.94-5.41-4.47-6-10.12-.75-7,4.29-14.38,12.6-17.25,3.16.8,26.74,6.42,43-8.33,8.51-7.71,11.36-17.65,13.18-24a71.38,71.38,0,0,0,0-38.27,77.52,77.52,0,0,1,3.68,42,48.17,48.17,0,0,1,13,2.78c5.34,1.94,11.68,4.24,16.09,10.11,6.33,8.44,4.77,19,4.26,21.82,1.15-1.53,9.33-12.87,5.81-27A30.83,30.83,0,0,0,658.86,278a21.7,21.7,0,0,1,12.79,9.91A22.92,22.92,0,0,1,673.39,306,21.22,21.22,0,0,1,684,310.22c3.18,2.51,4.17,4.94,10,15,4.44,7.66,4,6.52,5.52,9.32l.52,1a15.59,15.59,0,0,0,10.24.7,14.7,14.7,0,0,0,5-2.54,16.52,16.52,0,0,1-9-7.4c-4.07-7.56.22-16,1.29-18.12,2.93-5.76,6.35-6.88,10.08-11,4.09-4.48,8.35-12.29,8.39-26.84,1.84,17.36-2.11,25.59-6.33,29.88-2.42,2.47-6.52,5.24-9.17,11.37-1.15,2.68-3.1,7.18-1.29,11.5s6.93,7.1,12.79,7.27q.51-9.78,1-19.56a23.44,23.44,0,0,0,14.73,5.29C746.47,315.93,754.68,310.28,759.1,301.52Zm-60.62,33.29,2,6.05a17.46,17.46,0,0,0,2,.06c-.75-1.74-1.6-3.55-2.57-5.43C699.31,335.23,698.81,335,698.48,334.81Zm20.74.1c-1.36-.45-2.7-.86-4-1.26A16.22,16.22,0,0,1,707.4,340a15.35,15.35,0,0,1-4.86,1,112.39,112.39,0,0,1,5,14.51,187.63,187.63,0,0,1,6.3,38.87q1.9-16.2,4.17-32.82,1.77-13.05,3.68-25.78Z" fill="#010000"/></g></g></g></svg>