<svg xmlns="http://www.w3.org/2000/svg" viewBox="0 0 1080 1920"><g style="isolation:isolate"><g id="hair"><g id="_21" data-name="21"><path d="M440.63,399.69a182.28,182.28,0,0,1-15.83-101.8,11,11,0,0,1-4.84-5.36,11.57,11.57,0,0,1,.19-8.92,4.49,4.49,0,0,1-4.65-1.79,4.82,4.82,0,0,1,1-6.15c-4.8-1.09-8.55-4.47-9.49-8.72a12.52,12.52,0,0,1,1.55-8.53,13.59,13.59,0,0,1,4.45-4.76,13.63,13.63,0,0,1-1.16-8.13,13.49,13.49,0,0,1,4.07-7.54c-4.6-3.87-6.83-9.64-5.62-14.87a13.45,13.45,0,0,1,5.23-7.73,12.63,12.63,0,0,1,10.08-1.59c-3.86-5.34-4.3-12.29-1.16-17.45.33-.55,4.21-6.67,11.43-6.74a14.12,14.12,0,0,1,10.66,5.15c-1.52-3.83-.69-8,1.93-10.31,3.55-3.1,8.49-1.12,9.31-.79,5.32,2.13,6.81,7.86,7,8.52a12.08,12.08,0,0,1,3.1-4,11.75,11.75,0,0,1,2.91-1.79,14.75,14.75,0,0,1-3.3-9.12,12.63,12.63,0,0,1,2.72-8.33c3.32-3.9,8.34-3.95,9.88-4,8.82-.08,14.44,7.93,15.11,8.93a20.87,20.87,0,0,1,6.79-4,20.55,20.55,0,0,1,9.49-1,21.45,21.45,0,0,1-2.52-7.54c-.38-2.87-.81-6,1-7.33,2.18-1.63,6,.69,6.2.79a29.51,29.51,0,0,1,6.2-11.9c2.38-2.73,4.92-5.65,8.91-5.95.45,0,4.34-.26,7,2.38,2,2,1.1,3.45,3.1,6.94s3.56,3.38,5.81,6.55a19.39,19.39,0,0,1,3.3,8.52,8.74,8.74,0,0,0,2.9-3c1-1.72.8-2.84,1.75-4.17a6.43,6.43,0,0,1,4.07-2.38,9.09,9.09,0,0,0-.78-5.35,8.41,8.41,0,0,0-1.74-2.38,29.68,29.68,0,0,1,14.14-1.59c3.49.48,7.79,1.07,11.34,4.63a16.13,16.13,0,0,1,4.17,7.67,12.77,12.77,0,0,0,3.68-1.39c5.11-2.89,5.15-7.67,8.08-8.13,2.78-.44,6.28,3.3,7.73,6.47,1.29,2.82,1.06,5.41,3.56,7.84.65.63,1.44,1.38,2.24,1.19,1.68-.39,1-4.36,3.38-6.18,1.57-1.21,2.88-.24,5.62-.59,4.75-.62,5.19-4.12,10.24-6.35.94-.41,6.67-2.93,12.24-.2a13.94,13.94,0,0,1,6.78,8.13,13.7,13.7,0,0,1-.19,7.94c5.12-2.57,10.37-3,12.4-.8,2.46,2.75,1,10.52-6.2,17.06,2.49-.52,6.11-.81,9.11,1.19,2.61,1.74,2.93,4,5,4.36,2.61.42,3.66-2.85,7.76-5.16,5.93-3.34,12.57-1.48,14.14-1,2.68.85,7.15,2.26,9.11,6.75,2.17,5-.38,10-.78,10.7a11.3,11.3,0,0,0,5.23-.79c2.74-1.14,3.17-2.69,5-3.37,3.25-1.18,8.12,1.26,10.08,4.76,2.54,4.55.69,11.77-5.43,15.86a6.3,6.3,0,0,0,2.91,2.58c2.48,1,4.19-.59,6.78-.2,2,.31,2.64,1.54,6,4.76,6.45,6.18,8.15,5.44,9.3,8.53a12.21,12.21,0,0,1-1,9.72c-2.38,4.25-6.36,4.58-6.39,7.34,0,2.14,2.37,2.29,3.68,5.55,1.44,3.59.35,8-1.75,10.91a12.07,12.07,0,0,1-4.84,4,11.46,11.46,0,0,1,2.13,11.51,11.66,11.66,0,0,1-8.14,6.94c-.54,22-.2,39.32.2,51,.93,27.59-4.82,47.57-5.62,52.15-1,5.58-1.92,10.2-2.61,13.44-.5-3.34-1.22-8.05-2.16-13.68-2.44-14.64-3.35-17.71-4.15-20a58.35,58.35,0,0,0-8.14-15.27c1.27-10.8,1.63-28.87-7-47.59-4.08-8.87-7.83-17-16.47-23-9.21-6.36-16.64-5.15-41.86-11.1-7.75-1.83-14-3.59-18-4.76a13.25,13.25,0,0,1-17.24,0,16.74,16.74,0,0,1-7.56,4c-6.45,1.36-11.21-2.3-16.54-4.52s-13.25-1.61-29.19-.43c-8.57.63-4.11.86-29.06,4.36-13.39,1.87-18.88,2.4-23.06,6.94-1.47,1.59-2.94,3.85-6.2,5.35-4.47,2.06-6.4,0-10.27,2s-3.59,5-7.75,7.53a14.86,14.86,0,0,1-7.95,2c-9.19,11.66-11.38,21.36-11.62,28.16-.35,9.57,3,16.67-.2,28.95-1.34,5.11-2.86,7.45-4.65,11.5C443.19,369.71,439.74,381.86,440.63,399.69Z" fill="#42210b"/><path d="M736.58,228.48a8.73,8.73,0,0,0-7.23-4.76c-5.58-.13-7.75,6.71-12.54,5.95-2.85-.46-3-3-5.68-3-3.73,0-4.59,5-8.65,5.29-3.09.23-3.81-2.56-7.24-2.11-1.81.23-2.24,1.1-5.55,2.64a32.86,32.86,0,0,1-5.43,2,14.69,14.69,0,0,0,1.82-7.13c-.07-3.44-1.46-4.78-.66-6.09,1.61-2.59,8,1.22,11.25-1.72,3.05-2.75,0-8.43,2.7-11,1.57-1.46,5-1.83,12.69,1.9a13.72,13.72,0,0,0,6.44-5.86c.88-1.66,2.39-4.47,1.16-7.14a6.18,6.18,0,0,0-5.55-3.44c-2.87.07-3.69,2.56-7.11,4.1a13.36,13.36,0,0,1-8.65.53,18.81,18.81,0,0,0,.9-8.07c-.25-2.21-.56-5.05-2.46-7.14-4.46-4.9-14-1.51-14.86-1.19a20.74,20.74,0,0,0-8.91,6.61,70.71,70.71,0,0,0-18.6-8.86c1.61-1.66,5-5.66,5-11.1,0-1.59,0-3.79-1.29-4.76-2.23-1.61-7.17,1-10.21,4.1-3.52,3.63-2.57,6.07-5.55,7.93-3.25,2-5.77,0-10.18,1-2.76.61-6.48,2.44-10.31,8-.44-5,.81-8,2-9.81,2.19-3.22,4.4-2.76,8.33-6.83,3.16-3.29,2.8-4.72,5.75-8a25.89,25.89,0,0,1,9-6.35,11.73,11.73,0,0,0-5.68-4.89c-5.31-2-12.2.78-16.7,7.14a11,11,0,0,0-8,2,11.23,11.23,0,0,0-3.75,5,25.53,25.53,0,0,1-8.38-7.35c-3-4.21-3.51-7.82-5.32-7.86-2.38-.05-2.7,6.2-7.48,8.73a10.59,10.59,0,0,1-7.23.66A18.57,18.57,0,0,0,577.17,147c-7.85-5.25-16.61-1.5-17.31-1.19a23.19,23.19,0,0,1,7.24,12.3,23.46,23.46,0,0,1-1.56,14.67,18.4,18.4,0,0,0-6.84-7.14,17.76,17.76,0,0,0-10.08-2.37c.34-2.16.42-5-1.16-7.28-2.48-3.54-6.63-2.13-9.68-5.55-3.57-4-.76-9-3.36-10.58-3.39-2.09-12.91,3.31-15,11.24-1.09,4.13.2,7.58,2.71,14a82,82,0,0,0,10.08,18.37A36.07,36.07,0,0,0,518,173.21c-4-1.57-9-3.52-14.6-1.59a17.21,17.21,0,0,0-7.75,5.69A27.58,27.58,0,0,0,482,169.88c-2.24-.44-9.92-2-11.89,1.61-1.29,2.34.47,5.7,1.16,6.88,8.21.47,11.61,3.13,13.17,5.55,2.8,4.33.72,9.38,4.27,12,2.67,2,5.11.08,7.75,2.38,2.9,2.53,3.28,7.78,1.93,8.59-1.16.71-2.7-2.47-7-4.09-4.81-1.83-7.58.41-13,0-2.91-.23-7.08-1.24-12-5-3.17-4.1-5.81-7.5-8-10.44a5.69,5.69,0,0,0-3.11-2.38,4.84,4.84,0,0,0-5,1.85,5.26,5.26,0,0,0-.64,3,22.48,22.48,0,0,0,1,7.14c-2.17-.58-5.35-1.52-9.16-2.91s-4.59-1.92-6.08-2c-5.17-.2-11.29,5.16-11.49,9.65-.24,5.43,8.11,12.08,21.57,13.62a62.44,62.44,0,0,0,6.59,7.4c4.25,4.06,6.68,5.19,8.78,8.73a18.73,18.73,0,0,1,2.46,7.8c-3-7.12-6.75-10-9.56-11.24-5.71-2.6-9.19.46-15-2.65-5.31-2.85-4.51-6.57-9.55-8.72-4.17-1.78-11.45-2.13-14.6,2.77-2.75,4.26-1.35,10.88,2,13.26,3.09,2.2,5.9-.59,11.58,1.68,3.44,1.38,3.64,2.9,6.85,4.24,3.84,1.59,7.92,1.22,11.63.13-4.22,4.57-7.36,5.24-9.44,5-3.67-.39-4.66-3.65-9.68-4.63-1.57-.3-5.53-1.07-8,1.46-2.18,2.22-2.65,6.41-.77,8.86s5.58,2.23,7.23,2.11c2.69-.18,2.86-1.1,5.94-1.58,1.86-.3,5.66-.9,8.53,1.32,2.17,1.67,3.36,4.59,2.72,5.29-.82.87-3.83-2.58-8.4-2.25-2.39.17-3.49,1.25-5.43,2.11-2.67,1.21-7,2-13.82-.26a7.87,7.87,0,0,0-4.14,12.56c2.54.84,6,1.48,8.92-.13s2.94-4.13,5.43-4.89c3.82-1.17,5.77,4.19,10.72,4.23,6,0,9-7.73,12.79-6.35,2.11.78,1.51,3.42,4.52,5a8.58,8.58,0,0,0,7.36.14c2.82-1.31,2.66-3.38,5.17-4,2.17-.51,3.09.87,5.42.53a7.93,7.93,0,0,0,4.91-3.31c-.2.1-3.68,1.67-6.72-.39a7.37,7.37,0,0,1-2.58-8.33,10.81,10.81,0,0,0,5.69,2.77c4.05.55,6-2,8.39-.79,2.54,1.3,1.37,4.79,4.26,7.14s7.53,1.29,7.89,1.19c6-1.64,6.07-8.12,10.59-8.73,3.83-.51,5.28,3.94,10.84,5.43,4.78,1.27,9.35-.49,12.41-2.12.73.64,6,5.08,12.66,3.57,1.11-.25,7.22-1.64,8.78-7a10.51,10.51,0,0,0-1-7.67,7.44,7.44,0,0,1-6.2,5.16,7.33,7.33,0,0,1-7.1-3.57,11.85,11.85,0,0,1-5.95,5.95c-5.5,2.21-12-1.16-15-6.08a15,15,0,0,1-1.42-11.11c2.7,9,10,13.35,14.85,11.77,4-1.28,5.62-6.24,5.94-7.27a7.23,7.23,0,0,0,6.6,3.57,7.61,7.61,0,0,0,5.8-3.7A17.34,17.34,0,0,0,568,241.17a11,11,0,0,1-2.06,6.48,10.53,10.53,0,0,1-5.43,3.83,22,22,0,0,0,11.1,3.69,22.48,22.48,0,0,0,14.6-4.72,11.52,11.52,0,0,1-4.74,7.39,18.39,18.39,0,0,0,12.75-2.92,16.84,16.84,0,0,0,4.13-4.1,13.3,13.3,0,0,0,15.12,1.32c4,4.67,9.7,6.33,13.95,4.36a10.14,10.14,0,0,0,4.65-4.76c2.22,3.08,5.93,4.2,8.79,2.91a7.43,7.43,0,0,0,3.75-4.76,11.23,11.23,0,0,0,6.19,1.19c5.73-.57,8.79-5.56,9.18-6.21a11.73,11.73,0,0,1-3.88,11.5,11.26,11.26,0,0,1-8.91,2.12,5.65,5.65,0,0,1-5.42,5.68,11.07,11.07,0,0,0,6.19,1.06,10.87,10.87,0,0,0,3.75-1.19,10.88,10.88,0,0,0,6.84,3,11.34,11.34,0,0,0,8.92-4.1,17.17,17.17,0,0,0,8.27,5.95,16.73,16.73,0,0,0,10.07.13,9.65,9.65,0,0,1-4.38-3.57,10,10,0,0,1-1.69-4.89A20.56,20.56,0,0,0,689.3,265c8.76,1.44,15.38-3.61,16.67-4.63a20.28,20.28,0,0,1-2.59,4.36,19.55,19.55,0,0,1-3.1,3.17c9.69.82,16.77-3.67,17.57-8.72.61-3.84-2.26-9-5.56-9.52s-4.85,3.52-8.26,3.3-5.77-4.19-7.5-8.06c3.38,1.83,7,3.27,8.53,1.85.85-.81.37-1.92,1.16-2.91,1.71-2.12,6.32.05,11.24.66,5.29.66,13.81-.12,17.7-5.42C737.07,236.46,738.4,232.07,736.58,228.48Zm-139-43.1c-2.68,2.92-2,6.08-4.9,7.72-2.11,1.2-3.62.15-4.85,1.6s-.14,2.66-1,5.4-2.1,2.64-3.64,5.63c-2,3.82-1.52,7.14-1.94,7.14s-.83-3.64-.51-7.4a29.47,29.47,0,0,1,.78-4.76,8.93,8.93,0,0,1-1.16-9.78,8.83,8.83,0,0,1,6.32-4.37c.16-.58,1.5-5.23,6-7.12a10.49,10.49,0,0,1,11.53,2.65A11.19,11.19,0,0,0,597.59,185.38Z" fill="#fff" opacity="0.5" style="mix-blend-mode:overlay"/><path d="M481.87,227.29c4.63.57,8.37-6.86,11.92-5.46,2.08.83,1.56,3.7,4.36,6.35a11.91,11.91,0,0,0,8,2.87c-5.83,4.36-8.86,4.53-10.56,3.57-3.13-1.76-2.8-8-4.75-8.13-1.37-.09-1.62,3-4.26,4.27-2.8,1.35-6.4-.21-8.33-1.69-3.28-2.51-4.75-7.08-4-11.8C476.91,224.81,479.62,227,481.87,227.29Zm27.42-43c-.26.65,8.66,2.45,10.4,8.79,1.33,4.84-2.4,9.17-.84,10.51,1.93,1.66,8-4.64,10.91-2.64,1.79,1.23.37,4.31,2.07,7.13,2,3.37,7,4,11.3,4-2.37-.55-5.77-1.76-7.42-4.76-2.19-4,.32-8.08-1.81-9.85-2.67-2.22-8.51,2.66-10.66.46-1.27-1.29.39-3.4-.39-6.21C521.13,185.51,509.59,183.58,509.29,184.32Zm91.44,25.88c.63-.39-3.37-5.2-2.46-11.7.56-4,3-8.24,5.07-8.15s3.12,4.46,4,4.21c1.07-.3-1-6.7.29-13.48,1.68-8.91,8.13-13.18,7.36-14-.92-1-11.06,4.21-11.92,11.7-.36,3.2,1,6.18-.59,7.55-1.39,1.16-3.07-.42-5.11.45-3.26,1.38-4.29,7.69-3.55,12.32C594.9,206,600.07,210.61,600.73,210.2Zm34.9,8.86c4-3.68,10.94,1.76,15-2,3.71-3.4.9-10.55,4.56-12.39,1.85-.93,3,.67,5.62.29,6.67-.94,10.86-12.94,9.69-13.78-.9-.64-3.66,6-10.37,7.34-5.18,1-8.85-1.94-10.85.2-1.28,1.37-.06,2.88-1,6.64-.19.78-1.58,6.27-5.33,8.23-4.48,2.35-8.56-2.32-11.24-.4-4.24,3.06,1.09,18.24,2.13,18.05C634.66,231.11,631.69,222.65,635.63,219.06ZM685,241.47c3.55-.91,3.61-3.22,6.49-3.77,4.39-.85,6.5,4.07,10.17,3.07,3.42-.93,3-5.59,6.4-6.44,3.66-.94,5.92,4.11,9.69,3.17,3-.76,2.81-4.38,6.2-5.55,4.21-1.46,8.38,2.82,8.91,2.08s-4.5-7.91-8.91-7c-3.21.63-3.45,4.9-6.69,5.35-3.43.48-4.77-4.1-8.14-3.86-4.5.32-5.4,8.73-9.78,9-3.61.23-5.29-5.34-8.72-4.66-2.27.45-2.12,3-5.52,5.15-3.74,2.37-7.44,1.52-7.46,2.19S681.32,242.41,685,241.47Z" fill="#fff" opacity="0.6" style="mix-blend-mode:overlay"/><path d="M740.07,228.87c-1.15-3.09-2.84-2.34-9.3-8.53-3.37-3.22-4-4.45-6-4.76-2.59-.39-4.3,1.19-6.78.2a6.36,6.36,0,0,1-2.91-2.58c6.12-4.08,8-11.31,5.43-15.86-2-3.5-6.83-5.94-10.08-4.76-1.87.68-2.3,2.24-5,3.37a11.44,11.44,0,0,1-5.23.79c.39-.73,2.94-5.74.78-10.7-2-4.49-6.43-5.9-9.11-6.75-1.57-.49-8.21-2.36-14.14,1-4.1,2.32-5.15,5.58-7.76,5.16-2.1-.33-2.42-2.62-5-4.36-3-2-6.62-1.71-9.11-1.19,7.21-6.54,8.66-14.31,6.2-17.06-2-2.26-7.28-1.77-12.4.8a13.54,13.54,0,0,0,.19-7.94,14,14,0,0,0-6.78-8.13c-5.57-2.73-11.3-.21-12.24.2-5,2.23-5.49,5.73-10.24,6.35-2.74.35-4-.62-5.62.59-2.35,1.82-1.7,5.8-3.38,6.18-.79.19-1.59-.56-2.24-1.19-2.49-2.43-2.27-5-3.56-7.83-1.45-3.17-5-6.92-7.73-6.48-2.93.45-3,5.23-8.08,8.13a13.19,13.19,0,0,1-3.68,1.39,16.24,16.24,0,0,0-4.17-7.68c-3.55-3.55-7.85-4.14-11.34-4.62a29.68,29.68,0,0,0-14.14,1.59,8.61,8.61,0,0,1,1.74,2.38,9.09,9.09,0,0,1,.78,5.35A6.43,6.43,0,0,0,555,154.3c-.95,1.33-.76,2.45-1.75,4.17a8.74,8.74,0,0,1-2.9,3,19.34,19.34,0,0,0-3.3-8.52c-2.25-3.18-3.86-3.15-5.81-6.55s-1.11-4.94-3.1-6.94c-2.64-2.64-6.53-2.41-7-2.38-4,.3-6.53,3.22-8.91,5.95a29.71,29.71,0,0,0-6.2,11.9c-.16-.1-4-2.42-6.2-.79-1.78,1.32-1.36,4.46-1,7.33a21.25,21.25,0,0,0,2.52,7.54,20.63,20.63,0,0,0-16.28,5c-.67-1-6.29-9-15.11-8.93-1.54,0-6.56.07-9.88,4a12.63,12.63,0,0,0-2.72,8.33,14.75,14.75,0,0,0,3.3,9.12,11.75,11.75,0,0,0-2.91,1.79,12.33,12.33,0,0,0-3.1,4c-.16-.66-1.65-6.39-7-8.52-.82-.33-5.76-2.32-9.31.79-2.62,2.3-3.45,6.48-1.93,10.31a14.12,14.12,0,0,0-10.66-5.15c-7.22.06-11.1,6.19-11.43,6.74-3.15,5.15-2.7,12.12,1.16,17.45a12.63,12.63,0,0,0-10.08,1.59,13.49,13.49,0,0,0-5.23,7.73c-1.21,5.23,1,11,5.62,14.87a13.39,13.39,0,0,0-4.07,7.54,13.63,13.63,0,0,0,1.16,8.13,13.59,13.59,0,0,0-4.45,4.76A12.54,12.54,0,0,0,407,267c.93,4.25,4.69,7.63,9.49,8.72a4.82,4.82,0,0,0-1,6.15,4.46,4.46,0,0,0,4.65,1.79,11.57,11.57,0,0,0-.19,8.92,11,11,0,0,0,4.84,5.36,182.28,182.28,0,0,0,15.83,101.8c-.89-17.84,2.56-30,6.07-37.95,1.79-4.05,3.31-6.4,4.65-11.5,3.23-12.28-.15-19.38.2-28.95.24-6.8,2.43-16.5,11.62-28.16a14.86,14.86,0,0,0,7.95-2c4.16-2.51,3.83-5.49,7.75-7.53s5.8.06,10.27-2c3.26-1.49,4.73-3.76,6.2-5.35,4.18-4.55,9.66-5.07,23.06-6.94,25-3.49,20.49-3.73,29.06-4.36,15.94-1.18,23.91-1.77,29.19.43s10.08,5.88,16.54,4.52a16.64,16.64,0,0,0,7.56-4,13.68,13.68,0,0,0,9.3,3.17A13.46,13.46,0,0,0,618,266c4,1.17,10.27,2.93,18,4.76,25.23,5.95,32.64,4.75,41.86,11.1,8.64,6,12.39,14.14,16.47,23,8.6,18.73,8.25,36.8,7,47.59a62.37,62.37,0,0,1,8.14,15.27c2.1,5.74,2.81,10.93,4.15,21.07,1.49,11.24,2.61,19.94,3.24,24.84a212.68,212.68,0,0,0,5-23.4c2.87-18.28,2.41-30.95,2.11-54.43-.15-11.37-.3-28.88-.2-51a11.63,11.63,0,0,0,8.14-6.94,11.45,11.45,0,0,0-2.13-11.51,12,12,0,0,0,4.84-4c2.09-2.93,3.19-7.32,1.75-10.91-1.31-3.26-3.71-3.4-3.68-5.55,0-2.76,4-3.09,6.39-7.34A12.2,12.2,0,0,0,740.07,228.87Zm-11,14.81c-.52,2.56,1,2.82,1.68,8.86.41,3.81.7,6.55-.91,7.93-2.24,1.93-6.61-.15-7.1-.4a13.88,13.88,0,0,1,3.62,16.13,13.25,13.25,0,0,1-14.6,7.67,17.63,17.63,0,0,0,5.17,2.25,17.07,17.07,0,0,0,4.13.53q-.51,19.77-1.29,39.93-1.17,30.26-2.84,59.62a46.54,46.54,0,0,1-4.14-14.28c-.58-4.92,0-7.66-1.55-11.76a22.15,22.15,0,0,0-6.33-9c1.4-6.88,4.24-25.49-4.78-45.62-2.52-5.63-9.41-20.49-24.8-29.61-7.21-4.28-15.49-6-32-9.39-11.12-2.29-20.43-3.61-26.91-4.4a13.37,13.37,0,0,1-7.32,3,13.75,13.75,0,0,1-9.82-3.31c-2.14,1.7-5.44,3.73-9.43,3.57-3.1-.12-4.66-1.47-8.78-2.77-3.54-1.12-6.13-1.28-11-1.59-21.69-1.39-44.7,2.78-44.7,2.78-7.33,1.32-5,1.34-17.83,4-6.15,1.27-8,1.52-10.72,3-5.48,3-5.57,5.92-10.33,7.54-5.29,1.79-7-1.17-10.59,1.06-4,2.46-3.37,7.07-7.76,9-2.08.91-3.27.33-5,.55-7.48.95-14,15.4-15.42,28.53-.81,7.53.41,11.22-.47,25.86A49.12,49.12,0,0,1,445.8,353a56,56,0,0,1-4.27,11c-1.94,4.27-4,10.84-4,20.63-1.41-4.95-3.1-11.46-4.65-19.17a272.58,272.58,0,0,1-4.26-31.34,294.3,294.3,0,0,1-.65-36.75l4.52-1.19c-1.43-.17-6.5-.92-9-5-.29-.46-2.17-3.58-1-5.28.72-1.11,2.13-.77,4.39-1.72a11.62,11.62,0,0,0,4.26-3.18,12.54,12.54,0,0,1-6.72.8c-1.58-.27-3.61-.61-4.39-2.12-.88-1.73.13-4.53,2.58-6.74a9.19,9.19,0,0,1-11-6.35,9.31,9.31,0,0,1,3.88-9.65,16.51,16.51,0,0,0,4.91,1.85,16.69,16.69,0,0,0,8.52-.53,16.28,16.28,0,0,1-9.94-3.43c-1.57-1.26-4.17-3.33-4.52-6.62-.39-3.55,2-7.28,5.81-9.51-1.25-1.4-5.39-6.41-4.78-13,.16-1.66.43-4.63,2.58-6.35,4.16-3.34,11.46,1,12.15,1.46a17.85,17.85,0,0,1,7.1,8.86,18.86,18.86,0,0,1,13.44-.53c8.21,2.86,11.21,10.53,11.62,11.63-.13-.9-1.66-10.79-10.33-15.07a18.24,18.24,0,0,0-12-1.32A35.16,35.16,0,0,1,430.42,213c-2.18-4.19-4.47-8.58-2.71-12.56s6.73-5.23,8.14-5.56c7.48-1.74,13.68,3.24,14.73,4.1-2-4.88-1.25-9.33,1-10.71,1.84-1.11,4.38,0,4.78.14,2.86,1.21,4,3.83,5.55,6.34a38.14,38.14,0,0,0,8,9.26q-1.54-5.24-3.1-10.45a51.08,51.08,0,0,0,17-2.11,23,23,0,0,1-9.43-8.73c-1.57-2.69-3.66-6.26-2.19-9.39,1.37-2.92,5.26-4.29,8.27-3.83,3.93.6,6.75,4.45,9.3,7.93a42.88,42.88,0,0,0,3.87,4.89,36.64,36.64,0,0,0,3.23,3A27.82,27.82,0,0,1,516.72,183a12.57,12.57,0,0,0-5.17-4.62c-5.21-2.46-10.22-.11-11,.26a10.74,10.74,0,0,1,3.62-4.63c4.64-3.29,10.18-1.14,10.72-.92-1.8-11.36-1.36-14.16-.52-14.41s1.89,1.83,4.39,5a58,58,0,0,0,8.14,8.46,32.86,32.86,0,0,1-5.17-10.31c-.9-3.12-1.49-5.13-.9-7.67.72-3.09,2.73-4.92,6.46-8.33,2.87-2.63,4.32-3.94,5.55-3.57,2.29.69,1,5.39,4.4,9.79,2.71,3.5,4.72,2.06,7.1,5.29.79,1.05.91,1.67,2.84,13.88.61,3.82.84,5.29,1.81,7.27s1.89,2.82,2.59,4.89a13.18,13.18,0,0,1,.51,6,15.46,15.46,0,0,0,.91-9.25c-.69-2.9-2.06-4-2.59-7a14.19,14.19,0,0,1,1-7.93c3.33-.94,4.88-2.48,5.68-3.71,1.55-2.38,1.38-5.23,3.88-7a5.86,5.86,0,0,1,1.55-.8,10.73,10.73,0,0,1,2.45,3.57,11.08,11.08,0,0,1,.78,5.42c1.42-5.3.63-7.87-.39-9.25a39.49,39.49,0,0,1-3.49-4.76c-.4-.66-.71-1.22-.9-1.59a34.34,34.34,0,0,1,12.14,1.46c4,1.25,7.18,2.23,8.34,5,1,2.28-.34,3.62.83,7.44a18.08,18.08,0,0,0,2.33,4.62,32.77,32.77,0,0,0,5.16,6.35q-1-3.3-2.19-6.74c-.68-2-1.37-3.94-2.07-5.82a11,11,0,0,0,5.3-.53c4.79-1.81,5.74-6.5,8-6.19,2,.27,1.75,3.9,5.65,8.57,2,2.41,3.84,4.61,6.07,4.49,3.91-.19,5.63-7.34,8.91-6.87,1.35.2,1.4,1.45,2.85,1.59,2.08.18,3.12-2.35,6.45-5.29,2.29-2,4.76-4.2,7.88-4.22,4.07,0,6.86,3.67,7,3.82,3.56,4.86,1.1,11.85-1.16,15.34-.8,1.23-2.6,4-5.82,5-2.79.88-4.33-.32-6.46,0-2.57.39-5.79,3-8.78,12.36,4.51-7.38,7.86-8.83,10.16-8.63,2.54.21,3.56,2.42,6.38,2.22,2.58-.17,4.37-2.22,7-5.29,4.24-5,4.38-7.86,8-9.65.44-.22,3.49-1.72,4.78-.53,1.57,1.45-.08,6.34-2.19,9.65-4.3,6.76-11.73,9-11.5,9.52s6.23-3.57,13.3-2.38c4.64.79,10.48,4,11.11,8.07.15,1-.06,1.63.39,2,1.41,1.08,5.16-3.61,12.27-7,3.78-1.8,6.55-3.12,9.82-2.24s7,4,7.36,8.33a9.18,9.18,0,0,1-1.55,5.68,9.69,9.69,0,0,0-3.87,3.84c-1,1.79-.68,2.82-1.68,3.83-1.69,1.72-4.18.52-6.07,1.19-2.17.76-4.23,4.2-4.39,15.2.6-6.82,2.61-9.17,4.39-10,2.83-1.39,5.21,1,7.75-.67,3.31-2.12,1.24-7.38,4.39-9.38s7.18,1.76,10-.66c1.4-1.23.84-2.6,2.32-3.57,2.08-1.37,6-.49,7.49,1.85,2,3.12-.62,8.16-3.35,10.57-1.89,1.67-2.6,1-4.65,2.78-3.56,3-2.45,5.86-5.17,7.93-3.32,2.53-6.65-.38-9.95,1.85-1.55,1.06-3.27,3.38-3.49,9.13.6-1.91,1.77-4.62,4.27-6,3.41-1.83,6.49.43,10.07-1.32,1.47-.72,3.46-2.32,4.92-6.41a.89.89,0,0,1,.25-.73c.78-.62,2.62,1.76,5.55,2.9,3.47,1.35,4.72-.46,7.63,1.06,1.65.87,1.18,1.42,3.87,3.84,3.06,2.74,4.19,2.48,6.46,4.89,1.86,2,2.92,3.08,3,4.63C736.6,237.8,730.12,238.62,729.09,243.68Z" fill="#000100"/></g></g></g></svg>