<svg xmlns="http://www.w3.org/2000/svg" viewBox="0 0 1080 1920"><g style="isolation:isolate"><g id="hair"><g id="_22" data-name="22"><path d="M440.8,414.5a91.27,91.27,0,0,1-37.59,34.37,78.53,78.53,0,0,0,2.84-38.74,51.95,51.95,0,0,1-30.87,2A82.33,82.33,0,0,0,389.71,393a83.8,83.8,0,0,0,9.11-26.18c-1.47-.74-2.95-1.53-4.46-2.38a116.75,116.75,0,0,1-13.56-8.93l13.95-6.94a188.69,188.69,0,0,1,6.2-92.81,152.32,152.32,0,0,1,11.82-36.09c4.88-10.3,14.53-30.11,35.46-47a123.29,123.29,0,0,1,28.29-16.86,129.7,129.7,0,0,1,54.26-10.51,31.22,31.22,0,0,1,3.48-7.74c1.64-2.59,7.68-11.32,25.39-16.06,6.35-1.7,18.41-4,45.73.79,18.64,3.28,36.07,6.35,57,17.26,14.36,7.5,23.52,15.13,37,26.37,18.93,15.79,28.4,23.68,37,37.35,13.32,21.16,19,46.7,19.24,48,2.4,11.2,5.31,18.35,11.11,32.65a32.42,32.42,0,0,0,7.37,11.37,30.58,30.58,0,0,0,9.3,6.22,13.44,13.44,0,0,1-13.57-3.18A93.35,93.35,0,0,1,776,318a104.12,104.12,0,0,1,.39,34.91,109.77,109.77,0,0,1-6.72,24.46,27.91,27.91,0,0,1,7,8.85c2.92,5.89,4.41,14.28,1.94,15.74-2.22,1.3-5-4.53-13.44-8.07-7.56-3.16-10.87-.81-20.28-3.17a49.19,49.19,0,0,1-15.5-7q2.82,4.35,5.68,8.73l5.56,8.46a26.08,26.08,0,0,1-13.44-.4c-13.51-4.24-19.11-19.57-22.34-28.42a74.38,74.38,0,0,1-4-32.53,87.06,87.06,0,0,1-30.23-4.89,88.92,88.92,0,0,1-30.74-18.51,85.06,85.06,0,0,0,10.07,19.7,83.08,83.08,0,0,0,14,15.6,42.72,42.72,0,0,1-12.79.4,43.35,43.35,0,0,1-18-6.48,80.2,80.2,0,0,1-45-7.05c.55,1.33,1.12,2.66,1.72,4,2.18,4.92,4.48,9.5,6.84,13.75a47.52,47.52,0,0,1-10.46-5.69,48.82,48.82,0,0,1-11.63-11.89,57.45,57.45,0,0,1-24.41-9.79,59.29,59.29,0,0,1-17.83-20q-.64,8-1.16,16.26-1,15.76-1.42,30.81a169.32,169.32,0,0,1-8.27-21.42c-1.6-5.16-8.8-29.27-7.49-62.54a205.87,205.87,0,0,1,5-37.81,223.58,223.58,0,0,0-10.46,23c-5.75,14.83-7,22.77-10.85,34.11a167.72,167.72,0,0,1-18.09,37.16q-13.37,16-26.74,32a75.51,75.51,0,0,1,.78,11.11C453.64,392.78,444.45,408.45,440.8,414.5Zm3.72-15.66c-.31,1.2-1.35,5.15-2.46,8.28-2.4,6.8-9.56,22.33-33.59,37.26a59.1,59.1,0,0,0-1.05-40.5,32.4,32.4,0,0,1-12.49,5.94,31.94,31.94,0,0,1-12.49.36l22.84-40.63a66.79,66.79,0,0,1-10.34,28.68,63.77,63.77,0,0,1-9.81,11.64,30.45,30.45,0,0,0,7-1.19,32.43,32.43,0,0,0,14.34-9A39.65,39.65,0,0,1,411.09,384a48,48,0,0,0-.39,15.2,52.66,52.66,0,0,0,2.72,10.58c1.86,5.76,2.76,14.73-1.81,28.56a54.25,54.25,0,0,0,17.18-12.43c10.79-11.76,13.69-25.84,16.92-41.52a162.6,162.6,0,0,0,3-21.68A130.29,130.29,0,0,1,444.52,398.84Z" fill="#42210b"/><path d="M749.16,357.78c-8.6-7.5-17.88-22.18-19.38-53.94a108.47,108.47,0,0,0,11.36,29.08A106.06,106.06,0,0,0,752,348.52q-4.75-23-9.57-46-3.66-17.52-7.37-35.06c7.39,13.49,13.35,24.93,17.71,33.48,9.83,19.28,12.25,25.3,14.21,31.73A123.37,123.37,0,0,1,772.15,362c6.91-16,6.58-27.64,5.1-35.26-1.92-9.78-5.93-13.82-11.3-31.11-2.75-8.89-2.59-10.68-5.43-22.21-4.66-18.91-9.87-39.44-22.22-60.82A129.5,129.5,0,0,0,724.87,193c-8-9.52-14.73-14.65-27.9-24.85-35.23-27.3-33.24-26.49-36.69-28.3-12.87-6.71-24-8.88-46.24-13.22a181.37,181.37,0,0,0-43.15-3.7c-19.14.77-25.6,4.32-29.71,8.73-5.24,5.6-6.75,12.66-7.24,17.18a118.7,118.7,0,0,0-50.38,6.88,121,121,0,0,0-46,30.41c-22.5,23.75-29.62,50.33-32,62.14,6.62-8.19,13.84-16.6,21.7-25.12q7-7.63,13.95-14.55a223.51,223.51,0,0,0-20.41,46.54,226.16,226.16,0,0,0-9.3,48.13,208.2,208.2,0,0,1,42.88-56.59,361.17,361.17,0,0,0-13.43,35.17c-3.27,10.13-5.89,19.78-8,28.82a76.94,76.94,0,0,0,11.37-9.25c4.87-4.82,7.1-8.31,7.75-7.94,1.21.71-4.27,14.32-9,22.54-5.41,9.35-19.32,28.06-55.82,39.07a53.82,53.82,0,0,0,35.65-1.85C442.43,345.12,450.4,328,452,324.2A102.33,102.33,0,0,1,440.12,351a80.37,80.37,0,0,0,23-18.57c15-17.52,18.46-36.92,19.47-45.34q-2.12,18.84-4.23,37.68a162.51,162.51,0,0,0,17.06-33.32c6-16.21,6.22-25.05,13.17-41.25a142.24,142.24,0,0,1,14.47-25.92,427,427,0,0,0-4.91,47.34c-1.26,26.74.68,39.58,1.3,43.36,3,18.58,9,33.94,10.57,33.59s-1.74-13.62-.76-35.17a186.65,186.65,0,0,1,1.81-18.78c1,5.29,4.39,18.61,16,29.09a48.63,48.63,0,0,0,14.47,9,108.54,108.54,0,0,1-13.18-33.05c-2.65-12.26-2.44-21.85-2.06-38.08a341,341,0,0,1,2.84-37A166.62,166.62,0,0,0,558.48,298a162.94,162.94,0,0,0,30.75,51.56,333.89,333.89,0,0,1-13.69-34.64c-2.76-8.28-5-16.25-7-23.83a73.91,73.91,0,0,0,21.17,32.56,69.16,69.16,0,0,0,19.37,11.9,127.13,127.13,0,0,1-6.46-19.84c-1.06-4.5-1.8-8.76-2.32-12.69a106.14,106.14,0,0,0,22,29.09,72.92,72.92,0,0,0,14.33,10.68,63.26,63.26,0,0,0,23.13,7.3,105.71,105.71,0,0,1-20.93-27.76c-5.63-10.87-8.48-22.65-14-45.75s-5.44-28.29-10.34-41a147.92,147.92,0,0,0-13.17-26.17,131.18,131.18,0,0,1,23.78,33.31c6.9,14,6.34,19.46,18.34,47.34a138,138,0,0,0,15.5,27c4.78,6.48,8.63,10.43,13.78,13.57,5.39,3.29,10.13,4.42,14.64,5.47a77.68,77.68,0,0,0,27.39,1.26,75.09,75.09,0,0,1-15-13.16,76.66,76.66,0,0,1-12.13-19A124.3,124.3,0,0,0,700.32,311c3.63,1.42,7.09,2.58,10.33,3.54A202.87,202.87,0,0,1,689,288.23c-14.21-20.5-19.29-36-25.15-47.92-7.86-16-22.85-37.5-54.42-58.11,16.29,8.36,41.81,23.8,63.54,48.92,16.84,19.46,23.44,35.54,25.07,39.66a126.46,126.46,0,0,1,6.72,23.54,194.47,194.47,0,0,0,1.54-20.1c.1-3.47.09-6.82,0-10.05,6.84,23.86,11.55,42.89,14.47,55.27,7.31,30.9,9.29,45,21.19,53.94,1.9,1.43,3,2,19.63,13.22,6.6,4.47,12,8.16,15.51,10.58a71.69,71.69,0,0,0-7.49-17.45C762.24,367.54,753.46,361.53,749.16,357.78ZM564.69,159.63a48.94,48.94,0,0,0-12.79,20.22,68,68,0,0,0-58.81-3.66c3.39-2.08,8.17-4.94,14.05-8.14,16.39-8.93,20.29-9.16,22.28-9.12,3,.06,10.28.92,18.61,9.72a28.68,28.68,0,0,1,3.29-11.9c8.9-16.55,35.29-22.88,66-17a149.57,149.57,0,0,0-31.87,8.43C571.18,153.75,566.14,158.27,564.69,159.63ZM662,186.1c-19.29-10.66-32.44-17.93-50.19-19.63A85.66,85.66,0,0,0,574,171.62a39.32,39.32,0,0,1,13.75-12.29c25.16-13.12,65.7,4.9,101.54,44A275.71,275.71,0,0,0,662,186.1Z" fill="#fff" opacity="0.5" style="mix-blend-mode:overlay"/><path d="M451.39,182.07a45.72,45.72,0,0,1,16.41-10c10.44-3.77,18.85-3,18.86-2.91s-8.57-.67-15.24,4.76a20.28,20.28,0,0,0-5,6.22,48.33,48.33,0,0,1,15.37-4.76A51.12,51.12,0,0,0,463,184.45c-6.38,5-10.06,10.38-10.85,9.78s1.71-6,5.3-10.31a30.46,30.46,0,0,1,7.88-6.74A40,40,0,0,0,456.3,181c-6.41,3.72-10.18,8.35-10.46,8.07S447.94,185.42,451.39,182.07Zm26.74,41a79.2,79.2,0,0,1,15-14.41,52.58,52.58,0,0,0-5.3,9,53.9,53.9,0,0,0-4.65,17.19,68.35,68.35,0,0,1,9.3-12.69A66.87,66.87,0,0,1,511.33,208a45.06,45.06,0,0,0-9.68,13.22,46.24,46.24,0,0,0-4.53,19.7,88.65,88.65,0,0,1,7.5-17.18,87.57,87.57,0,0,1,20.54-24.33,65.7,65.7,0,0,0-20,8.2,66.56,66.56,0,0,0-13.56,11.1,44.42,44.42,0,0,1,17.31-23.4,62.3,62.3,0,0,0-25.32,16.92,64.11,64.11,0,0,0-13.05,22.35A80.05,80.05,0,0,1,478.13,223.05Zm83.58-21.94a70.35,70.35,0,0,0-.38,26.84,69.58,69.58,0,0,0,10.33,25.91,42.25,42.25,0,0,1-.64-22.21,26.82,26.82,0,0,0,3.22,8.46,26.46,26.46,0,0,0,7.24,7.93A76.4,76.4,0,0,1,575,231a77.23,77.23,0,0,1-2.2-21.29,27.81,27.81,0,0,0-3.23,10.05,28.18,28.18,0,0,0,.13,7.54,60.76,60.76,0,0,1-5.55-12.83A61.58,61.58,0,0,1,561.71,201.11Zm51.16-8.2a146.81,146.81,0,0,1,30.74,33.19,149.61,149.61,0,0,1,18.22,37.41,97.26,97.26,0,0,0-16-41A94.45,94.45,0,0,0,612.87,192.91Zm59.94-14.15a50.28,50.28,0,0,1,20,11,52.16,52.16,0,0,1,14.6,22.47,39,39,0,0,0-4.78-19,36.67,36.67,0,0,0-5.68-7.66,21.19,21.19,0,0,1,7.88,6.08,21.7,21.7,0,0,1,3.87,7.4,30.49,30.49,0,0,0-9.17-18.38,28.93,28.93,0,0,0-16-7.53,37.57,37.57,0,0,1,7,4.76,38.63,38.63,0,0,1,3.74,3.7,31.95,31.95,0,0,0-21.44-2.78Zm70.14,77c2.2,3.83,5.34,9.38,9,16.13,10.28,18.74,14.13,27.15,14.91,26.82s-.88-6.84-10.78-34.75Z" fill="#fff" opacity="0.6" style="mix-blend-mode:overlay"/><path d="M769.69,377.35a109.22,109.22,0,0,0,6.72-24.46A103.85,103.85,0,0,0,776,318a93.94,93.94,0,0,0-6.2-19.7,13.44,13.44,0,0,0,13.57,3.18,30.7,30.7,0,0,1-9.3-6.22,32.33,32.33,0,0,1-7.37-11.37c-5.8-14.3-8.71-21.45-11.11-32.65-.28-1.3-5.92-26.83-19.24-48-8.62-13.67-18.08-21.57-37-37.35-13.49-11.23-22.64-18.87-37-26.37-20.9-10.91-38.33-14-57-17.26-27.32-4.8-39.38-2.49-45.73-.79-17.71,4.74-23.75,13.46-25.39,16.06a31.39,31.39,0,0,0-3.48,7.74,129.7,129.7,0,0,0-54.26,10.51,123.42,123.42,0,0,0-28.29,16.86c-20.94,16.9-30.58,36.7-35.46,47A152.77,152.77,0,0,0,401,255.71a188.69,188.69,0,0,0-6.2,92.81l-13.95,6.94a115.47,115.47,0,0,0,13.56,8.93c1.51.85,3,1.64,4.46,2.38A83.8,83.8,0,0,1,389.71,393a82.33,82.33,0,0,1-14.53,19.17,51.95,51.95,0,0,0,30.87-2,79.22,79.22,0,0,1,1,19.17,78.17,78.17,0,0,1-3.88,19.57A91.27,91.27,0,0,0,440.8,414.5c3.65-6.05,12.83-21.72,12.92-43.1a75.51,75.51,0,0,0-.78-11.11q13.38-16,26.74-32a167.72,167.72,0,0,0,18.09-37.16c3.84-11.34,5.09-19.28,10.85-34.11a223.58,223.58,0,0,1,10.46-23,206,206,0,0,0-5,37.81c-1.31,33.26,5.9,57.38,7.49,62.54a168.71,168.71,0,0,0,8.27,21.42q.45-15,1.42-30.81.51-8.25,1.16-16.26a59.09,59.09,0,0,0,17.83,20,57.5,57.5,0,0,0,24.41,9.79,48.63,48.63,0,0,0,11.63,11.89,47.5,47.5,0,0,0,10.46,5.69c-2.36-4.25-4.66-8.84-6.84-13.75-.6-1.34-1.18-2.69-1.72-4a80.2,80.2,0,0,0,45,7.05,43.26,43.26,0,0,0,18,6.48,42.08,42.08,0,0,0,12.79-.4,83.86,83.86,0,0,1-24-35.3,89,89,0,0,0,30.74,18.51,87.24,87.24,0,0,0,30.23,4.89,74.24,74.24,0,0,0,4,32.53c3.24,8.86,8.83,24.18,22.34,28.42a26,26,0,0,0,13.44.4l-5.56-8.46q-2.85-4.38-5.68-8.73a49,49,0,0,0,15.5,7c9.41,2.36,12.72,0,20.28,3.17,8.46,3.54,11.22,9.37,13.44,8.07,2.47-1.46,1-9.85-1.94-15.74A27.79,27.79,0,0,0,769.69,377.35Zm-324,7c-3.23,15.68-6.12,29.76-16.92,41.52a54.25,54.25,0,0,1-17.18,12.43c4.57-13.83,3.67-22.8,1.81-28.56a51.79,51.79,0,0,1-2.72-10.58,48,48,0,0,1,.39-15.2,39.46,39.46,0,0,0-3.75,9.91,40.1,40.1,0,0,0-.9,5.82,32.34,32.34,0,0,1-14.34,9,30.36,30.36,0,0,1-7,1.19,63.61,63.61,0,0,0,9.81-11.63,66.87,66.87,0,0,0,10.34-28.69A55,55,0,0,0,411,370.6q1.26.16,2.46.27c-.91.69-2.17,1.67-3.62,2.91-3.65,3.08-5.47,4.62-5.3,5.28.51,1.88,11.26,1.66,20.93-1.45,5.4-1.74,14.21-5.57,23.25-14.94A164.29,164.29,0,0,1,445.71,384.35Zm310.52,2.75c-7.62-1.11-11.66.61-18.12-2.68a19.64,19.64,0,0,1-11.24-21.12A29.64,29.64,0,0,0,724,379.66a30,30,0,0,0,9.79,18.74,40.59,40.59,0,0,1-13.85-9.32c-7.67-7.91-10-17-12.12-25.09a84.78,84.78,0,0,1-2.61-24.09,49.06,49.06,0,0,0,5.23-1.09,45.15,45.15,0,0,0,8.72-3.38,59.08,59.08,0,0,1-11.14-7,61.29,61.29,0,0,1-15.31-18.24,40,40,0,0,0,25.68,3.67,132.28,132.28,0,0,1-24.81-26.58c-5.12-7.28-7.27-11.92-12.4-20.62a323.34,323.34,0,0,0-24.61-35.9A140.56,140.56,0,0,1,665.45,244c8.4,14.23,10.55,23.61,14.85,33,3.8,8.28,10.69,19.59,24.16,31.2a38.89,38.89,0,0,1-14.73-5,39.58,39.58,0,0,1-8.27-6.47,57.39,57.39,0,0,0,7.76,19.43,56.36,56.36,0,0,0,20.15,19,79.94,79.94,0,0,1-59.81-18c-16.8-14-23.52-31.6-26.1-39.93a105.35,105.35,0,0,0,13.31,46.94,100.63,100.63,0,0,0,17.7,22.87A55.22,55.22,0,0,1,632,340.59a75.66,75.66,0,0,1-19.9.27,76.5,76.5,0,0,1-27.25-8.73q-2.85-6.5-5.56-13.35a383.36,383.36,0,0,1-18.08-59.9,269.53,269.53,0,0,0,22.86,83.69,123.09,123.09,0,0,1-16-25.38c-3.87-8.22-7.41-18.1-11.62-41.38a499.56,499.56,0,0,1-6.85-55.93,231.23,231.23,0,0,0,.39,46.74c1.18,10.64,2.58,22.6,7.75,37.48A142.67,142.67,0,0,0,572,333.65a52.7,52.7,0,0,1-20.05-9.72,55.14,55.14,0,0,1-15.31-19.14,65.25,65.25,0,0,1-6.68-33.62c-.78,9.3-1.42,19-1.85,29-.59,13.86-.75,27.14-.58,39.77a203.75,203.75,0,0,1-7.26-47.4c-.39-11.85.38-21.28,1.45-34.41,1-11.93,1.72-20.72,4.26-32.13a173.14,173.14,0,0,1,8-25.88,45.81,45.81,0,0,0-7.08,8.73A47.11,47.11,0,0,0,521,222.59a173.41,173.41,0,0,0-15,29.25c-5.24,13.24-6.09,20.32-11.62,35.9a258.32,258.32,0,0,1-11.92,28.16c.44-3.73.76-7.81.87-12.2a128.7,128.7,0,0,0-.68-16.65,95.75,95.75,0,0,1-10.17,41.25,93.13,93.13,0,0,1-23.15,29.25,91.08,91.08,0,0,1-30.91,17.05,101.56,101.56,0,0,0,14.73-14.28,102.91,102.91,0,0,0,11.52-16.85,161,161,0,0,1-24.31,22.8A54.27,54.27,0,0,1,389.71,356a172.65,172.65,0,0,0,15.85-7.62c8.33-4.53,17.48-9.51,25.42-17.07,5.16-4.9,14-14.89,19.67-32.23a78.33,78.33,0,0,1-8.91,14.78,77,77,0,0,1-15.21,15c.75-1.31,1.82-3.21,3-5.55a125.53,125.53,0,0,0,8.14-20.73c5-16.16,5.35-18.55,8-26.87.69-2.12,4.19-12.86,8.53-22.8a175.81,175.81,0,0,1,23-38.18,103.52,103.52,0,0,0-23.06,27.17c-6.11,10.5-9.34,20.5-13.08,32-1.41,4.36-.45,1.8-6.39,22.31-3.62,12.47-6.14,20.91-11.63,30.64-3,5.28-5.15,8-7.56,10.21a35.72,35.72,0,0,1-15.31,8.33,154.12,154.12,0,0,1-2.51-22.91,163.63,163.63,0,0,1,3-36.58c1.79-9.9,3.16-17.46,6.78-26.58,2.29-5.76,7.21-16.51,22.38-33.91,20.23-23.19,37.87-34.34,37.21-35.3s-16.74,8-32.46,22.51a158.4,158.4,0,0,0-23.83,27.86,107.16,107.16,0,0,1,7.94-22.51,110.12,110.12,0,0,1,22.77-31A136.42,136.42,0,0,1,481.36,160a100.27,100.27,0,0,1,24.13-7.83,94.09,94.09,0,0,1,29.06-.69c2.57-6.69,7.73-16.86,18-22.91,10-5.86,21.21-4.64,43.7-2.18,12.39,1.35,24.12,2.7,39.24,7.83,16.33,5.54,27.61,12.44,35.56,17.35,14.1,8.74,23.56,17,32.16,24.6,13.5,11.91,20.25,17.86,25.58,26.07,3.65,5.62,1.41,3.66,16.28,38A219.26,219.26,0,0,1,754,263.05c2.19,6.9,2.55,9.4,4.94,18.05,4.53,16.42,5.93,17.11,8.72,27.56,2.3,8.62,5.55,21.18,4.94,36.89a100.52,100.52,0,0,1-5,27.66,63.63,63.63,0,0,1-6-7.42c-6.39-9.28-8.84-18.18-11.94-32.93-3.81-18.16-3.26-19.75-6.59-35.4-2.93-13.8-4.39-20.69-7.27-28.16A106.94,106.94,0,0,0,715.05,236a123.33,123.33,0,0,1,19.47,40c2.71,9.89,4.72,22.59,6.21,31.93,2,12.66,2.36,18.21,4.84,27.76a140.49,140.49,0,0,0,8.14,23c-3.68-4.32-7.46-9.05-11.24-14.18q-4.14-5.62-7.65-11c4,17,11,25.88,16.95,30.94,3.75,3.17,7.5,5.18,12.21,10.51a55.5,55.5,0,0,1,11,19.83A44.4,44.4,0,0,0,756.23,387.1Z"/></g></g></g></svg>