<svg xmlns="http://www.w3.org/2000/svg" viewBox="0 0 449.13 303.83"><g style="isolation:isolate"><g id="hair"><g id="_23" data-name="23"><path d="M457.18,340.25c1.93,3.69,11.23,22.3,4.65,45a59.63,59.63,0,0,1-23,32c.77-3.72,1.48-7.69,2.07-11.9s1-7.95,1.29-11.63c-3.23,4.67-12.57,16.8-29.19,21.95-28.53,8.83-52.3-11-54.26-12.7,3.44.23,17.5.77,28.68-9.52A36.66,36.66,0,0,0,396,381.5c-1.47-.35-17.22-4.46-23.51-20.62-5.81-14.91,1.14-28,2.06-29.62a49.22,49.22,0,0,0-8,15.87,50,50,0,0,0-1.29,22.21c-3.31-5.38-9.88-17.86-8.27-33.58,1.55-15.08,9.87-25.81,15.72-33.35a88.21,88.21,0,0,1,11.41-12.13c-2.76-4.29-6.92-12.19-6.72-22.21.11-5.24,1.44-12.25,11.11-26.71a167.59,167.59,0,0,1,29.2-33.05c-1.5-.56-11-4.26-14.73-14.55a24.7,24.7,0,0,1-.77-13.75c4.3,3.53,13.46,10,26.09,10.85,7.52.52,15.52-1,27.9-7.41,21.09-10.94,24.18-20.21,41.86-33.32,10.26-7.6,31-23,57.35-22.74,19.4.2,34.45,8.83,42.63,14.55a85.13,85.13,0,0,1,45.73-3.18c10.21,2.19,25.84,5.54,36.95,19.84,8.2,10.55,10.07,22.11,10.59,28,3.73-1.44,11.14-3.63,19.12-1.05,7.47,2.41,11.81,7.83,18.09,15.86,8.52,10.92,6.74,13,13.69,21.68,9.52,11.94,13.76,9.23,21.44,20.1,3.11,4.39,10.61,15,8.53,28a31.06,31.06,0,0,1-6.2,14,152.13,152.13,0,0,1,2.58,31.21c-.26,12.09-1.91,18.48,1.81,27,1.3,3,5.89,13.45,14.73,14.28,7.06.65,14.63-5.07,18.34-14.28,4.48,11.22,2.67,23.57-4.65,31.46-6.48,7-15,8-17.57,8.2A32.31,32.31,0,0,1,790,405.83c-.52,16-13.33,24.65-14.47,25.39,4.19-6.49,4.84-14.5,1.55-20.89a19.53,19.53,0,0,0-10.08-9,84.81,84.81,0,0,1-26.61-2.91,85.74,85.74,0,0,1-27.13-13q1.26,6.57,2.59,13.22,1.4,7.06,2.84,14a59.92,59.92,0,0,1-23-25.65c-10.43-22.45-3.07-43.73-1.55-47.86-8.09,9-20,12.46-30,8.72-8.94-3.35-13.11-11.23-14.21-13.48,3.25.22,14.94.64,24.55-7.67,8.72-7.55,10.42-17.69,11.63-24.86.93-5.6,4.47-26.71-8.27-41.51-12.05-14-31.31-13.84-41.6-13.75-23.75.19-30.87,10.88-53.48,11.9-17,.76-31.07-4.51-39.79-8.73-3.28,27.83-12.19,47.48-18.6,59-5.54,9.94-10.22,18.11-19.63,24.59C486.19,346.12,464.33,342,457.18,340.25Z" transform="translate(-356.68 -127.39)" fill="#42210b"/><path d="M678.91,206.85a31.64,31.64,0,0,1,2.11-3.37A37.86,37.86,0,0,1,678.91,206.85ZM453.08,344.5a44.35,44.35,0,0,1-27.42-7.15,46.12,46.12,0,0,1-17.74-23.16c-6.67,14.42-7.55,25.9-7.06,33.86.78,12.8,5.28,19,2.13,30.55a38.57,38.57,0,0,1-12.21,19,37.42,37.42,0,0,1-23.44,8.53,65.07,65.07,0,0,0,15.77,4.68h0c10.53,1.25,20.84-1.09,29-7.13a39.58,39.58,0,0,0,13.95-20.5c5.79-21.14-9.17-38.48-10.34-39.79,4.51,3.28,15.07,12,18.6,26.7a42.43,42.43,0,0,1,1.17,10.18,31,31,0,0,0,5.29-10,31.56,31.56,0,0,0,1.17-13.22,56.3,56.3,0,0,1,6.87,42.28,73.16,73.16,0,0,0,4.27-54.83ZM463.47,282c3.77-7.14,6.57-15.25,9.72-24.55A119.1,119.1,0,0,0,477,244.16c-3.77,12.57-7.42,22.67-10.27,30C465.57,277.15,464.55,279.67,463.47,282Zm222.45-96.51v0a39.48,39.48,0,0,1-6,15.35A38.43,38.43,0,0,1,668.52,212a29.5,29.5,0,0,0-1.81-28.56,47.89,47.89,0,0,1-2.84,23.27,46.51,46.51,0,0,1-9.57,15.07,42,42,0,0,0-.77-16.13,42.59,42.59,0,0,0-13.69-21.94,62.42,62.42,0,0,1,4.65,26.17,61.62,61.62,0,0,1-3.1,16.93c0-4-.47-16.68-9.56-25.65-7.83-7.72-17.58-8.28-28.16-8.73-9.4-.39-34.29-1.44-52.2,15.6-8.5,8.1-12.12,18.71-19.37,39.93-9.81,28.72-6.58,35.86-16.53,51a79,79,0,0,1-26.35,24.6c-7,4.25-21.1,12.81-35.29,11.84h0a47,47,0,0,1-12.76-6.29,28.68,28.68,0,0,0,30.74-14.54,56.24,56.24,0,0,1-47-1.33A62.25,62.25,0,0,0,448.36,304a52.12,52.12,0,0,0,7.53-6.06c9.28-9,13.11-19.42,19.12-36.23,5.8-16.26,6.45-23.75,8.78-31.2C494,198,535.39,169.34,577.57,170c23.83.35,42.38,10,53.22,17.18-7.89-6-35.53-25.31-71.56-20.89a99.13,99.13,0,0,0-37,13c-7.12,4.19-29.15,17.54-40.3,43.63-4.11,9.6-3,12.24-5,21.31a248.79,248.79,0,0,1-15.94,24.7c-8,10.94-12.1,16.62-19.12,21.68a63.85,63.85,0,0,1-28.16,11.37,73.6,73.6,0,0,0,8.78,1.59,76.13,76.13,0,0,0,9.82.53,26.68,26.68,0,0,1-13.7,5.29A26.27,26.27,0,0,1,406,307.2a45.12,45.12,0,0,0,1.78,6.64,75,75,0,0,0-13.14,30.65A75.83,75.83,0,0,0,395.82,377a35.66,35.66,0,0,1-13.56-12.69c-11.66-19.16.72-42.3,1.35-43.43a26.59,26.59,0,0,0-11.19,5c-12.51,9.67-11.42,27.43-11.29,29.29a43.92,43.92,0,0,1-.19-23c2-7.36,5.6-12.31,8.92-16.86,5.78-8,8.3-8.17,17.05-17.85,6-6.62,10.59-11.72,14.33-19.23a61.05,61.05,0,0,0,6.2-24,67.48,67.48,0,0,1-7.74,17.85A66.3,66.3,0,0,1,387.1,287a50.14,50.14,0,0,1-1.75-21.61c1.81-12.44,8.11-20.59,16.48-31.14A149.23,149.23,0,0,1,424,211.68a58.74,58.74,0,0,0,10.45-2.84,64.57,64.57,0,0,0,18.34-10.58A62.62,62.62,0,0,1,419.12,204h0a24.8,24.8,0,0,1-7.4-5.1,26.86,26.86,0,0,1-6.79-11.7c6.51,3.65,18,8.8,32.36,8.13,13.85-.65,23.57-6.41,34.89-13.29a113.41,113.41,0,0,0,11.2-7.67s0,0,.05,0c5-2.73,10.41-5.78,16.07-9.15,19.89-11.89,26.65-18,39.33-20.83,9-2,22.48-2.8,40.67,4.26a79.62,79.62,0,0,1-8.11,2.49,81,81,0,0,1-19.57,2.38,193.27,193.27,0,0,0,52.9-5.76c8.54-2.18,9.61-3.13,15.69-4,5-.68,33.18-4.55,52.31,14.08,3.84,3.74,11.57,11.26,13,23.6A37.9,37.9,0,0,1,685.92,185.53ZM487,182.39a127.13,127.13,0,0,0-35,38.48,122.8,122.8,0,0,0-5.69,11A48.63,48.63,0,0,0,427.86,243a49.88,49.88,0,0,0-10.47,14.54,56.62,56.62,0,0,1,15.76-14.28,55.07,55.07,0,0,1,21.31-7.53,101.42,101.42,0,0,1,10.59-26.84A99.64,99.64,0,0,1,487,182.39ZM609.09,191c-6-2.93-26.71-12.21-47.67-3.57s-30.32,30.14-29.7,30.67,10.92-19.17,31.77-27.5C579.46,184.21,596,186.76,609.09,191ZM694,274.4c-1.23-15.79-10.56-29.31-24-34.63-14.06-5.57-26.83.15-29.46,1.39a52.52,52.52,0,0,1,33.53,8.53A54.22,54.22,0,0,1,694,274.4ZM785.68,367a33.16,33.16,0,0,0,4.94-2.79c-.53.08-1.07.12-1.64.15-11.1.52-20.54-8.2-24.61-16.27-4-7.8-1.44-12.14-1.36-28,0-7.54.15-27.49-7.17-45.41-3-7.23-8.75-18.16-20.93-29.16a47.1,47.1,0,0,1,18.42,11.71,48.66,48.66,0,0,1,11.43,19.23c1.13-13.82-1.94-22.88-4.65-28.36-8-16.16-18.8-13.06-31.2-32.52-6.15-9.65-8-17.44-16.86-21.62a23.53,23.53,0,0,0-24.15,2.46,27.07,27.07,0,0,1-1.56,3.43,32.93,32.93,0,0,1,13.7-.53,34.09,34.09,0,0,1,17.3,8.72c-2.68-1.19-13.74-5.71-25.57-.79a30.57,30.57,0,0,0-10.33,7.14,31.24,31.24,0,0,1,20.66,4.49,32.57,32.57,0,0,1,13.43,17.46c-2.14-2.46-16.12-17.89-36.67-16.66a41.61,41.61,0,0,0-18.61,5.81c5.83.14,17.7,1.37,27.13,10,12.46,11.5,16.52,32.2,9.9,52.9a48.32,48.32,0,0,1-6.74,28.48c-11,18-29.63,21.2-32.36,21.62a34.86,34.86,0,0,0,19.38,2.38c10.75-1.89,17.33-8.73,22.28-13.89,10.94-11.37,15.24-24.47,17-32.32a.66.66,0,0,1,0,.14,94.33,94.33,0,0,0,1.24-20.3c1.66,4.69,8.49,25.67-1.68,47.46A58.53,58.53,0,0,1,701,342h0a65.68,65.68,0,0,0-1.38,31,72.7,72.7,0,0,0,7.16,19.44,56.16,56.16,0,0,1-2.38-11.5,56.85,56.85,0,0,1,1.8-20.76,42.05,42.05,0,0,0,7.5,11,41.42,41.42,0,0,0,9.43,7.41,41.53,41.53,0,0,1,1-50.11,66.06,66.06,0,0,0,.42,25.13,61.9,61.9,0,0,1-.74-6.76,64.64,64.64,0,0,0,9.69,23c3.43,5.07,12.84,18.95,28.68,23.6,6.24,1.83,10.94,1.48,15.5,5.95,4,3.95,5.45,9.2,6,13.09A45,45,0,0,0,777,384.19v0q-8.25-7.94-16.48-15.89A35,35,0,0,0,785.68,367ZM419.12,204c2,1.13,3.78,2.53,3.69,4-.11,2.09-3.79,3.12-3.61,3.7.13.4,2,.41,4.79-.06,2.11-1.74,4.34-3.48,6.71-5.22A28.15,28.15,0,0,1,419.12,204Zm146-72.53c-19.74-2.82-35.32,4.26-44.38,8.53-8.75,4.13-16.73,10.41-32.35,22.81-11.45,9.08-20.67,17-27.13,22.8,6.13-2.91,13.6-6.63,22.06-11.24,0,0,0,0,.05,0,14.13-11,17.79-19.57,36.8-29.78,9-4.83,18.06-9.58,30.81-10.31,17.37-1,31,6.09,37.78,10.31a80,80,0,0,1-9.32,4.06l1.77.7,15.11-4.76A69.09,69.09,0,0,0,565.17,131.49ZM714.89,303.9a93.72,93.72,0,0,1-16.28,32.65V344c.74-.56,1.56-1.2,2.42-1.93h0c.64-2.33,1.35-4.49,2.1-6.46a74,74,0,0,0,8.91-16.66,74.88,74.88,0,0,0,4.83-24C716.39,297.76,715.74,300.78,714.89,303.9Zm16.92,68.35a62.27,62.27,0,0,1-7.17-18.48,60.9,60.9,0,0,0,9.89,24.63,59.16,59.16,0,0,0,17.24,16.46,46.89,46.89,0,0,1-41.85-24,54.32,54.32,0,0,0-1.17,15.07c.45,6.88,2.07,11,1.5,11.23-.39.15-1.77-1.63-3.44-4.68a56.75,56.75,0,0,0,6,12.95l-2-26.44a65.7,65.7,0,0,0,52.2,19.7A62.1,62.1,0,0,1,731.81,372.25Zm70-20.36a36.37,36.37,0,0,1-11.2,12.28,22.31,22.31,0,0,0,8.23-2.83c-1.2,2.45-6,11.48-16.28,15.07a26.18,26.18,0,0,1-10.46,1.39,45.39,45.39,0,0,1,4.85,6.37v0l1.47,1.41c-.47-1.28-1-2.55-1.42-3.83a24.45,24.45,0,0,0,12.14-3.57C801.86,370.31,801.85,353.11,801.83,351.89Zm-122.92-145a37.86,37.86,0,0,0,2.11-3.37A31.64,31.64,0,0,0,678.91,206.85Zm9-10.43a26,26,0,0,0,1-3.45,29.33,29.33,0,0,0-2.59-19,43.43,43.43,0,0,1-.42,11.6v0a37.55,37.55,0,0,1-4.9,17.92A31.65,31.65,0,0,1,687.9,196.42Zm-280,117.77c.23-.48.45-1,.69-1.44-.26.34-.53.7-.81,1.09A3.59,3.59,0,0,1,407.92,314.19Zm289.36-25.75a47.43,47.43,0,0,0-1.12-7.61,52.37,52.37,0,0,0-2.17-6.42h0c.32-1.54,3.9-20.46-8.87-33.63C674,229.29,655.24,227.14,640,236.4l-6.33,6c-14.2,3.34-32.54,7.11-52.71,9.78-7.42,1-16.59,2-27.13-1.85a48.37,48.37,0,0,1-14.46-8.46c-3.25,10.68-8.2,25.71-15.24,43.36-12.92,32.37-18.63,37.75-22,40.46-12.38,10.06-31.15,15-48.05,9.78l-.15-.05h0a28.79,28.79,0,0,1-9.66-2.33,29.55,29.55,0,0,1-7.49-4.75,48.24,48.24,0,0,0,10.59-1.06,49.68,49.68,0,0,0,19.12-8.73,42.23,42.23,0,0,1-41.59-5.29c6.13-.51,15.45-2.41,23.47-9.27,5.46-4.66,8.69-10.21,11.66-15.32,1.33-2.28,2.41-4.4,3.45-6.65a55.84,55.84,0,0,1-12.75,16.44c-5,4.36-14.4,11-29.71,13.75a39.15,39.15,0,0,0,36.33,10,48.58,48.58,0,0,1-24.8,3.28,38.52,38.52,0,0,0,9.79,10,37.4,37.4,0,0,0,9.29,4.76c.47,1.2,1,2.6,1.46,4.18,1.21-.08,2.16-.19,2.81-.28-.34-1.59-.7-3.17-1-4.76,2.93,0,7.14-.09,12.15-.53,15-1.3,26.17-2.26,35.9-9.25,6.39-4.58,9.52-9.85,15-19,3.8-6.39,6.51-12.51,11.11-25.91,3.31-9.65,7.44-22.56,11.56-38.21a75.86,75.86,0,0,0,29,8.06c8.05.52,13.19-.54,43.67-6.61,17.23-3.43,26-5.13,31.78-4.49,4.92.54,18.53,2.23,30.22,12.69C693,272.06,692.66,296,692.54,299.8A70.73,70.73,0,0,0,697.28,288.44ZM448.8,399.35c-.3.59-.58,1.15-.86,1.66a38.76,38.76,0,0,0-2.52-19.44,62.57,62.57,0,0,1-27.51,25,59.89,59.89,0,0,1-34.76,4.29h0a51.8,51.8,0,0,1-17.65-5.54c2.69,1.51,31,16.88,57.35,2.38a54.66,54.66,0,0,0,20.29-20,51,51,0,0,1,1.81,6.48,49.59,49.59,0,0,1,.77,14.8A58,58,0,0,0,448.8,399.35Z" transform="translate(-356.68 -127.39)" fill="#fff" opacity="0.5" style="mix-blend-mode:overlay"/><path d="M386.9,399.32c-.3-1,8-2.6,14.92-9.22a36,36,0,0,0,9.5-16.56,49.51,49.51,0,0,1-1.26,22.21,19.91,19.91,0,0,0,5.81-11.3,24.08,24.08,0,0,1-3.19,11.9,23.31,23.31,0,0,1-8.34,8.42,49.1,49.1,0,0,0,2.62-8.92,49.81,49.81,0,0,0,.87-7.83,25.22,25.22,0,0,1-9.4,8.82C393.1,399.65,387.16,400.13,386.9,399.32Zm68.7-90.73a49.14,49.14,0,0,0,17.19-18.79,57.52,57.52,0,0,1-9,26.57A27.6,27.6,0,0,0,475,309a28.84,28.84,0,0,0,6.93-13.49,31.67,31.67,0,0,1-4,6.79,31,31,0,0,1-6.49,6.3,34.09,34.09,0,0,0,4.11-9.47,36.47,36.47,0,0,0-1.4-22A94.63,94.63,0,0,1,462.62,297a93.27,93.27,0,0,1-14.82,15.47A45.76,45.76,0,0,0,455.6,308.59Zm-29-45.81a47.38,47.38,0,0,1,12.79-10.51,55.46,55.46,0,0,0-.68,7.93c-.1,6.82,1,14.35,2.23,14.38s.65-7.64,5.23-15.67a31.81,31.81,0,0,1,8.72-9.72,18.37,18.37,0,0,0-8.82,5.46,18.15,18.15,0,0,0-3.29,5.35,56,56,0,0,1,.38-6.54,55.36,55.36,0,0,1,1.55-7.94,36.22,36.22,0,0,0-16.18,9.92A37.82,37.82,0,0,0,419,275.07,48.55,48.55,0,0,1,426.63,262.78ZM523,201.4a78.81,78.81,0,0,1,16.56-10.71,40.85,40.85,0,0,0-7,26.39,53.08,53.08,0,0,1,17-22.73,52.26,52.26,0,0,1,35.57-10.28,82.76,82.76,0,0,0-40.58.87,40.37,40.37,0,0,1,5.14-3.77,39,39,0,0,1,10.66-4.56c-3.72-.12-22.23-.31-36.72,14.18a50.63,50.63,0,0,0-13.18,23.8A79.94,79.94,0,0,1,523,201.4Zm118.88-27.73c.74.37,17,8.77,18.08,25.91a30.61,30.61,0,0,1-5.33,18.78c1.21-1,9.78-8,9.46-18.65-.24-8.29-5.77-13.89-9.43-17.58A37.59,37.59,0,0,0,641.91,173.67Zm35.07,54a76.73,76.73,0,0,1,21.12,38.87c6.55,32.31-10.75,57.28-13.76,61.47,17.84-16.65,25.65-41.1,20-63.46S681.38,230.46,677,227.68Zm45.34,32.92a53.89,53.89,0,0,1,11.43,21,55.44,55.44,0,0,1-.58,31.33,55.53,55.53,0,0,0,7.75-30.74,27.64,27.64,0,0,1,4.46,7.94A28.74,28.74,0,0,1,746.54,305a46.47,46.47,0,0,0-.19-26.38A44.08,44.08,0,0,0,740,266a27.25,27.25,0,0,1,1.75,7.74,29,29,0,0,1,0,4,29,29,0,0,0-6.59-9.91A28.07,28.07,0,0,0,722.32,260.6Z" transform="translate(-356.68 -127.39)" fill="#fff" opacity="0.6" style="mix-blend-mode:overlay"/><path d="M678.92,206.85a27.15,27.15,0,0,1,2.15-3.45A40.42,40.42,0,0,1,678.92,206.85Zm119.81,168c-6.48,7-15,8-17.57,8.2A32.41,32.41,0,0,1,790,405.83c-.52,16-13.33,24.65-14.47,25.39,4.2-6.48,4.84-14.5,1.55-20.89a19.57,19.57,0,0,0-10.08-9,84.49,84.49,0,0,1-26.61-2.91,85.74,85.74,0,0,1-27.13-13q1.26,6.58,2.59,13.22,1.4,7.06,2.84,14a59.86,59.86,0,0,1-23-25.65c-10.43-22.45-3.06-43.73-1.55-47.86-8.09,9-20,12.46-30,8.72-8.94-3.35-13.11-11.22-14.21-13.48,3.26.23,14.94.65,24.55-7.67,8.73-7.55,10.42-17.7,11.63-24.86.93-5.6,4.47-26.7-8.27-41.51-12.05-14-31.31-13.84-41.6-13.75-23.75.2-30.87,10.88-53.48,11.9-17,.76-31.07-4.51-39.79-8.73-3.28,27.83-12.19,47.48-18.6,59-5.54,9.94-10.21,18.11-19.63,24.59-18.53,12.74-40.38,8.57-47.54,6.87,1.94,3.7,11.23,22.3,4.65,45a59.67,59.67,0,0,1-23,32c.77-3.72,1.48-7.7,2.07-11.9s1-7.95,1.29-11.63c-3.24,4.67-12.57,16.8-29.19,21.94-28.53,8.84-52.3-11-54.26-12.69,3.45.23,17.5.77,28.68-9.52A36.66,36.66,0,0,0,396,381.5c-1.47-.35-17.22-4.46-23.51-20.62-5.81-14.91,1.15-28,2.06-29.62a49.22,49.22,0,0,0-8,15.87,49.84,49.84,0,0,0-1.29,22.21c-3.31-5.39-9.88-17.86-8.27-33.58,1.55-15.08,9.88-25.82,15.72-33.35a87.61,87.61,0,0,1,11.41-12.13c-2.76-4.29-6.92-12.19-6.72-22.21.11-5.25,1.44-12.25,11.11-26.71a167.87,167.87,0,0,1,29.2-33.05c-1.5-.55-11-4.27-14.73-14.55a24.7,24.7,0,0,1-.77-13.75c4.29,3.53,13.46,10,26.09,10.85,7.53.51,15.52-1,27.9-7.41,21.09-10.94,24.18-20.22,41.86-33.32,10.27-7.6,31-23,57.35-22.74,19.39.2,34.45,8.83,42.63,14.55a85,85,0,0,1,45.73-3.18c10.21,2.19,25.84,5.53,36.95,19.84,8.2,10.55,10.08,22.11,10.59,28,3.73-1.44,11.13-3.63,19.12-1.05,7.47,2.41,11.81,7.83,18.09,15.86,8.52,10.92,6.73,13,13.69,21.68,9.52,11.94,13.76,9.23,21.44,20.1,3.1,4.39,10.61,15,8.53,28a31.17,31.17,0,0,1-6.2,14,152.84,152.84,0,0,1,2.58,31.21c-.27,12.09-1.9,18.48,1.81,27,1.3,3,5.89,13.45,14.73,14.28,7.06.66,14.63-5.07,18.34-14.28C807.86,354.64,806.05,367,798.73,374.89Zm.13-13.55a22.16,22.16,0,0,1-9.88,3c-11.09.53-20.53-8.2-24.61-16.27-4-7.8-1.44-12.14-1.36-28,0-7.53.14-27.49-7.17-45.41-3-7.23-8.75-18.16-20.93-29.16a46.94,46.94,0,0,1,18.41,11.71,48.46,48.46,0,0,1,11.44,19.23c1.13-13.81-1.94-22.88-4.65-28.36-8-16.16-18.8-13.06-31.2-32.52-6.15-9.65-8-17.44-16.86-21.62a24,24,0,0,0-13.56-2c-8.83,1.32-14.54,7.41-17.42,11.42a36.75,36.75,0,0,0,4.63-21.93c-1.42-12.34-9.14-19.87-13-23.6-19.12-18.63-47.36-14.77-52.31-14.08-6.07.84-7.15,1.78-15.7,4A193.23,193.23,0,0,1,552,153.51a80.66,80.66,0,0,0,36.84-8.93c-6.76-4.22-20.41-11.3-37.78-10.31-12.75.73-21.83,5.49-30.81,10.31-23.22,12.48-23.55,22.58-48.06,37.48-11.31,6.89-21,12.64-34.88,13.29-14.33.67-25.84-4.47-32.36-8.13a26,26,0,0,0,25.78,19.24,151,151,0,0,0-28.88,27.76c-8.36,10.54-14.66,18.71-16.47,31.14A50.14,50.14,0,0,0,387.1,287a65.81,65.81,0,0,0,12.59-14.87,67.09,67.09,0,0,0,7.75-17.85,61.05,61.05,0,0,1-6.2,24c-3.74,7.51-8.35,12.61-14.34,19.23-8.74,9.68-11.26,9.89-17,17.85-3.3,4.55-6.9,9.5-8.91,16.86a43.8,43.8,0,0,0,.19,23c-.14-1.86-1.22-19.62,11.28-29.28a26.63,26.63,0,0,1,11.2-5c-.64,1.13-13,24.27-1.36,43.43A35.75,35.75,0,0,0,395.82,377a75.94,75.94,0,0,1-1.17-32.52,75,75,0,0,1,14-31.74c-7.3,15.1-8.26,27.09-7.75,35.3.78,12.81,5.27,19,2.13,30.55a38.5,38.5,0,0,1-12.21,19,37.36,37.36,0,0,1-23.45,8.53c3.86,1.73,26.36,11.38,50.58.4a62.51,62.51,0,0,0,27.51-25A38.76,38.76,0,0,1,447.94,401a73.09,73.09,0,0,0,3.68-60.69,37.78,37.78,0,0,1-9.3-4.76,38.31,38.31,0,0,1-9.78-10,48.69,48.69,0,0,0,12.49,0,49.22,49.22,0,0,0,12.31-3.28,39.15,39.15,0,0,1-36.33-10c15.31-2.73,24.72-9.39,29.71-13.75,11.95-10.47,16.6-23.68,22.48-41,7.26-21.4,3.16-21.5,8.78-34.64,11.16-26.09,33.18-39.44,40.3-43.63a99.18,99.18,0,0,1,37-13c36-4.43,63.66,14.92,71.57,20.89-10.86-7.2-29.39-16.83-53.23-17.18-42.18-.63-83.6,28-93.78,60.55-2.34,7.45-3,14.94-8.79,31.2-6,16.81-9.83,27.19-19.11,36.23-4.44,4.32-14.08,12.17-31,15.33a56.26,56.26,0,0,0,47,1.33,28.66,28.66,0,0,1-30.74,14.54,47,47,0,0,0,12.92,6.34c16.9,5.26,35.67.28,48.05-9.78,3.35-2.71,9.05-8.1,22-40.46,7-17.66,12-32.68,15.25-43.36a48.37,48.37,0,0,0,14.46,8.46c10.54,3.87,19.7,2.83,27.13,1.85,20.18-2.66,38.51-6.44,52.71-9.78l6.33-6c15.26-9.26,34-7.12,45.15,4.37,12.77,13.16,9.19,32.08,8.87,33.63a51.79,51.79,0,0,1,2.17,6.43c.72,3.07,4.35,19.74-5.62,36.09-11,18-29.63,21.2-32.36,21.62a35,35,0,0,0,19.38,2.38c10.75-1.89,17.33-8.73,22.28-13.89,10.94-11.38,15.24-24.47,17-32.32a74.83,74.83,0,0,1-4.84,24.19,73.79,73.79,0,0,1-8.91,16.66c-3.45,9.22-6.56,22.6-3.49,37.48,2.71,13.19,9.63,24.5,10.6,24.12.56-.22-1-4.35-1.49-11.23a54,54,0,0,1,1.16-15.07,46.89,46.89,0,0,0,41.85,24,58.9,58.9,0,0,1-17.24-16.46,61.75,61.75,0,0,1-10.66-31.54,64.9,64.9,0,0,0,9.69,23c3.43,5.07,12.84,18.95,28.68,23.6,6.24,1.83,10.94,1.49,15.5,5.95,4,3.94,5.45,9.2,6,13.09a45.17,45.17,0,0,0-11.63-34.71,26.2,26.2,0,0,0,10.46-1.39C792.87,372.82,797.65,363.8,798.86,361.34ZM678.92,206.85a40.42,40.42,0,0,0,2.15-3.45A27.15,27.15,0,0,0,678.92,206.85ZM670,239.77c-14.06-5.57-26.84.15-29.45,1.39a52.44,52.44,0,0,1,33.52,8.53A54.32,54.32,0,0,1,694,274.38C692.75,258.59,683.43,245.1,670,239.77Zm-125.17,6.14c.83-5.12,3.56-17.75,13.95-28.35C572,204.08,592.15,199.47,609,205.07c4.08,1.36,20.47,6.82,25.58,22.41a32.37,32.37,0,0,1,.78,16.46c1.58-3.31,6.25-14.1,2.13-25-5.15-13.62-20.34-17.53-29.26-19.83-4.56-1.18-23.51-6.06-41.66,4.76-13.83,8.24-20.2,21.44-23.06,27.37a71.66,71.66,0,0,0-4.13,10.64c.95.74,1.94,1.49,3,2.24C543.16,244.75,544,245.34,544.83,245.91Z" transform="translate(-356.68 -127.39)" fill="#000100"/></g></g></g></svg>