<svg xmlns="http://www.w3.org/2000/svg" viewBox="0 0 1080 1920"><g style="isolation:isolate"><g id="hair"><g id="_24" data-name="24"><path d="M336.68,477.2c13.92,4.78,27.15,2.53,33.09-5.75.86-1.19,4.82-6.71,3.73-12.75-.91-5-4.5-5.88-8.16-13.75-2.28-4.92-3.8-8.18-2.79-11.26,2.4-7.35,16.51-5.26,17.94-11,.95-3.84-4.92-6.63-10.49-14.5-9.1-12.87-9.28-27.84-9.32-31.26-.18-15.36,6.34-26.85,9.56-32.51,7.73-13.61,14-14.44,20-29.5a55,55,0,0,0,4.19-17.76c.43-8.06-1.37-11.59-2.56-19.5-.77-5.06-2.92-19.31,1.86-33,4.33-12.41,12.76-19.8,18.41-24.76,9.15-8,11.79-6.33,22.84-15.5a95.73,95.73,0,0,0,17.71-18.76c9.24-13.07,7-17.66,16.54-30.75,4.2-5.8,8.54-11.78,16.08-16.51,12-7.52,24.51-7.06,32.86-6.75,15.08.56,17.38,5,31,3.5,8.13-.87,8.35-2.56,17.94-3.75,5-.62,15.74-2,27.26,1,15.18,3.89,25.69,13.68,31.46,20.26a25.68,25.68,0,0,1,12.7-10.38,21.21,21.21,0,0,1,11.65-1c4.49.94,6.77,3.1,16.78,11.5,4,3.39,7.68,6.41,10.84,9,11.66-2.32,18.59,1.59,21.08,3.26,6.86,4.57,9.7,11.85,14.1,23.13,4.57,11.7,3.25,13.89,7.34,23.13,2.55,5.74,4.69,8.57,14.22,21.38,13.57,18.24,20.38,27.42,21.78,30.25,6.44,13.06,7.85,25,8.86,33.51a127.35,127.35,0,0,1-1.05,36.89c8.18,6.94,21,20,27.73,39.75,2.33,6.87,4.7,14.08,3.5,23.14-.93,7-3,7.93-8.16,23.13C784,429,782.3,434,781.75,440.82a66.21,66.21,0,0,0,1.52,19.26c2.48,11.06,5.62,12.25,11.18,29.25,2.7,8.23,3.34,12.17,2.8,16.63a32.2,32.2,0,0,1-4.86,13.15c-4,6.3-6.89,6.3-10.64,12.11a34,34,0,0,0-4.77,13c-2.49,13.89,5.7,18,6.17,32,.4,11.61-4.58,26.86-14.21,36-5.64,5.35-12,7.81-13.75,15.5-.86,3.81.35,4.8.47,10.75.06,3.19.3,15-6.3,24.26-5.91,8.34-14.65,10.92-18.4,11.75a16.46,16.46,0,0,0,5,7.25,14.85,14.85,0,0,0,9.86,3.42c-2,1.59-14.65,11.25-29.13,6.84a28.93,28.93,0,0,1-10.48-5.92,39,39,0,0,1-8.31-10,41.81,41.81,0,0,1-5.13-14.51,39.93,39.93,0,0,1-12.27,5.67c-3.64,1-7.82,2.09-13.05,1a24.81,24.81,0,0,1-12.43-7c2.14-.16,15-1.35,22.84-12.84a33.25,33.25,0,0,0,5.43-17.5c.24-7.66-2.28-10.52-6.06-22.67-2.31-7.46-5.22-16.81-5.74-28.18-.39-8.4-.83-17.76,4.35-26.67a39.77,39.77,0,0,1,13.67-13.5c8.58-5.16,15.28-4.59,16.31-9,.69-3-2.14-4-3.11-11-.37-2.67-.89-6.42.78-10,1.85-4,4.5-3.65,5.59-6.5,1.63-4.28-3.24-7.92-7.15-16.67a49.87,49.87,0,0,1-4-24.68,47.31,47.31,0,0,1,4.19-14.83,46.8,46.8,0,0,1,3.26-5.67,73.72,73.72,0,0,0,8.39-21.84c3.58-16.38-2.24-33.21-4-38a42,42,0,0,1-12.58-9.83,40.73,40.73,0,0,1-8.7-15.17c-2-6.61-.6-8.6-3.11-12.51-2.38-3.7-4.92-3.89-10.72-7.5-4.89-3.05-11.07-6.89-14.6-13-3.68-6.37-3.27-13.13-2.8-21.17.36-6,1.69-11.82,4.35-23.51,2.22-9.72,3.42-13.39,1.56-17.67-2.06-4.73-6.42-6.87-8.39-7.84-9.06-4.44-15,.4-25.17-1.16-4.53-.7-11-2.84-18.33-9.67a224.8,224.8,0,0,1-84.35,7.17,32.31,32.31,0,0,0-6.53,10c-4.38,10.68.21,16.42-2.79,25.67-4.1,12.63-18,18.33-20.82,19.51-8.82,3.62-11.11.5-22.06,4.66-7.32,2.79-14.41,5.48-17.24,12-2.45,5.63.33,9.36,4,26.34,3.21,14.65,4.81,22,3.27,29.17-1.11,5.15-4.51,14.22-17.4,23.17a56.74,56.74,0,0,0-.62,23.84c2,10,5.48,11.92,7.61,23.17.84,4.48,2.34,12.81.15,22.51a47.73,47.73,0,0,1-14.29,24.34,32.09,32.09,0,0,1,5.28,29.84,65.6,65.6,0,0,1,28.43,27.67c4.17,7.86,8.17,15.38,7.46,25.17-.74,10.29-6.1,15.22-3.88,25.51a25.78,25.78,0,0,0,5,11.17c3,3.68,4.62,3.19,6.83,6.5,2.73,4.09,3.91,10.34,2,15.34-2,5.23-5.68,4.77-6.37,8.67-.85,4.86,4.65,7.25,9,16.17,1.68,3.42,5.4,11,3.58,17.84-2.93,11-18.59,14-19.73,14.17-.06.61-.57,7.93,5,12.83a13.69,13.69,0,0,0,12.58,2.84,28.06,28.06,0,0,1-5,4.5c-10,7.08-23.87,6.47-33.87.5-2.46-1.47-8.73-5.22-11.49-12.67a17.07,17.07,0,0,1-1.24-9.5c.74-3.84,2.71-5,2.17-6.51-.95-2.69-7.64-1.24-17.09-2-8.7-.69-14.88-1.18-19.57-5.66-4.91-4.7-5.83-11.53-6.68-17.84a53,53,0,0,1,1.86-22.34c-2.27,1.19-14.47,7.85-17.71,21.84-1.95,8.45.18,16.06,1.24,19.84a47.32,47.32,0,0,0,7.15,14.83c-5-1.3-21.83-6.33-30.14-22.34-2-3.79-5.63-10.85-3.72-18.5,1.55-6.26,6.23-10.52,10.25-14.17,7.27-6.62,11-6.13,12.89-11,2.46-6.44-1.62-13.75-1.86-14.17-3.22-5.6-7.07-5-16.62-14.17-3.13-3-4.4-4.69-5.13-7-1.49-4.7.07-9.24,1.09-12.17a27.94,27.94,0,0,1,6-10,39.93,39.93,0,0,1-15.06-13,32.19,32.19,0,0,1-6.06-13.67c-.29-1.79-1.19-8.51,4.35-21.34a86,86,0,0,1,18-26.5,51.41,51.41,0,0,1-17.4-5.67A54.66,54.66,0,0,1,336.68,477.2Z" fill="#42210b"/><path d="M456.43,384.59a16.59,16.59,0,0,0,3.17-5.16l.12-.3A51.38,51.38,0,0,1,456.43,384.59ZM467.8,614.74c.3-.82,5,.15,9.62,2.16,1.22.53,2.36,1,3.42,1.54l-.15-.33c-3.27-6.8-5.43-11.37-6.19-16.63a.53.53,0,0,1,0-.12c-.33-1-.63-2.05-.93-3.13a73.91,73.91,0,0,1-2.33-13.83,18.92,18.92,0,0,0-6.06,9.5c-2.31,8.61,2.32,15.73,3,16.67a19.71,19.71,0,0,1-5.59-5.84,21.17,21.17,0,0,1-2.64-6.33,25.17,25.17,0,0,1-2.17,10,23.59,23.59,0,0,1-4,6.17,22.9,22.9,0,0,0-5.29-11.17c-2.65-2.95-8.36-7.53-11.64-5.5-2.38,1.46-2.54,5.78-2.65,8.5-.22,5.86,1.78,10.35,1.4,10.5s-3.2-9-5.75-8.83c-1,.08-1.81,1.46-2.46,3.42.55,2.93.9,7.23-1.11,11.08l0,0c1.2,11.34,9.56,19.07,12,21.31.31.29,4.35,4,5.27,3.17s-1.83-4.44-3.11-11c-.88-4.55-.82-9-.15-9.17.5-.11,1.1,2.15,3.57,7,1.23,2.41,2.47,4.81,2.8,4.67s-.25-2.56-2.95-12.51c-2.2-8.1-2.72-9.79-2.33-10,1.16-.62,8.83,13.07,9.64,14.5,4.94,8.87,7.22,14.43,8.54,14s0-5.53,2.17-14c.14-.53,1.79-6.81,3.26-6.66,1,.1,1.43,3.4,2.18,3.33s.37-3.19,1.55-3.83c2.23-1.21,7.66,7.45,8.85,6.66.75-.48-.16-4.6-2.48-8.16C471.76,617,467.49,615.53,467.8,614.74ZM461,657.08a39.24,39.24,0,0,1-3.88-6.5,34.09,34.09,0,0,1-.47,16.34,21.57,21.57,0,0,0-2.65-7c-2.06-3.45-5-6.1-5.59-5.66s2.73,5.55,1.87,6.33c-.29.27-1.11.09-6.84-4.33-4-3.11-5.4-4.41-5.9-4-1,.83,3.58,7.37,2.33,8.67s-7.95-2.16-12-8.51c-4.39-6.94-3.65-14.53-4.51-14.5s-2.15,6-1.08,12.84c1.92,12.34,10.46,18.52,9.16,20.17-1.14,1.45-9.05-1.81-13.67-8.67a25.14,25.14,0,0,1-4-13.5,33,33,0,0,0-.32,13.33c.57,3,1.45,5.25,1.25,5.34-.35.14-2.95-5.57-5-11.51A45.13,45.13,0,0,1,407,645.15c-1.57,5.6-2.35,12.81.87,19.1,4.88,9.55,16.74,12.63,22.06,14,7.44,1.93,13.56,1.52,17.18,2.35a28.8,28.8,0,0,0-4.6-5.51c-4.92-5.12-7.8-5.65-9.47-9.84a13.37,13.37,0,0,1-.93-4.84c3.85,6.18,7.89,8.88,11,10.17,4.82,2,8.39,1.07,12.42,4.84a14.22,14.22,0,0,1,4.2,6.5c.93,3.26-.08,4.77.77,7.34.62,1.85,2.22,4.31,6.84,6.33-.8-2.24-1.42-5.18-.31-7.84,1.51-3.62,5-3.79,6.68-7.5,1.52-3.37.37-7.11,0-8.33C471.78,665.68,466.7,664.9,461,657.08Zm136.7-488.95a44.6,44.6,0,0,1,10.42,6.5,24.3,24.3,0,0,0-3.27-7.67,22.62,22.62,0,0,0-7.76-7.33,26.89,26.89,0,0,1,10.25,3,27.7,27.7,0,0,1,5.9,4.17,43.13,43.13,0,0,0-5.44-14.17,40.68,40.68,0,0,0-16.37-15.07c-9.7-2.85-18.5-2.84-25.1-2.77-14.79.15-13.93,3.43-30.15,4.33-22.68,1.26-26.68-5-39.14-.66-9.78,3.43-16,10.35-22.58,18.7h0a80.87,80.87,0,0,1-3.62,14.34c-3.84,10.85-9.08,18.22-8.39,18.75s4.73-6.33,12.23-12.25a49.14,49.14,0,0,1,15.61-8.25,36,36,0,0,0-12.82,9.5c-4.34,5.11-5.63,9.63-7.45,13.63-6,13.06-17.47,19.89-23.76,23.63a62.59,62.59,0,0,1-28.69,8.62c-11.39,10.22-18.65,17.46-21.5,28.68-2.19,8.62.62,10.2,1.38,28.27a20.41,20.41,0,0,1,3.75,4.9c2.91,5.31,2.81,10.68,2.64,15.76-.36,11.1-3.65,16.9-2.33,17.67s6.68-4.64,9.47-11.84c3.22-8.28,2-15.9,2.49-15.92s1.44,6,1.56,13.92c.13,10.13-1.25,16.3.23,16.84.26.09.93.13,3.49-3.42,5-6.93,6.83-13.19,7.39-13,.25.08.1,1.51-.94,7.5-1.14,6.59-1.65,8.78-1.32,8.92s1.11-1.08,3.81-7.34a21.58,21.58,0,0,0,1.62,10.76c2.7,5.94,6.8,6.37,7.77,10.91.38,1.77.2,3.77-5.43,13.84-3.33,6-9,15.43-9.64,15-.4-.24,1.45-3.55,3.19-10.25,1.3-5,2-9.68,1.47-9.83s-.88,2.13-2.95,5c-1.62,2.26-3.9,4.55-4.42,4.17s1.31-3.32,2.56-8.42a38,38,0,0,0,1-6.59,87.95,87.95,0,0,1-28.43,30.51,23.91,23.91,0,0,0,8.39-11.59A25.6,25.6,0,0,0,404,348.92a21.61,21.61,0,0,1-6.3,9.09,19.51,19.51,0,0,1-13.74,4.42,37.62,37.62,0,0,0,6.29-11.59,39.9,39.9,0,0,0,1.4-5.58,32,32,0,0,0-14,13.17c-4.14,7.69-3.86,15.66-4.82,15.58s-1.55-7.64-1-15.25c.14-2,.35-3.88.6-5.63a58.93,58.93,0,0,0-5.26,26.72c.32,6.79.78,16.41,6.83,24.67,4.88,6.66,10.76,8.85,10.88,15,.06,3.25-1.49,7.32-4.35,9.34-4,2.83-8.43.12-11.19,3.33a8.28,8.28,0,0,0-1.55,5.34c0,4.46,2.74,6.93,5.6,10.05a15.64,15.64,0,0,1,1.71-7.72c2.65-4.95,6.92-5.18,10.09-10,1.59-2.42,3.18-6.42,2.64-13.17,1.58,2.82,3.07,6.69,2.33,10.84-.59,3.3-2.15,4.11-2.79,7.66a18.06,18.06,0,0,0,2,11.34c3.47,5.86,8.53,4.43,12,9.5,1.58,2.34,3,6.32,1.78,13.42a22.35,22.35,0,0,0,2.57-8.25c.52-5.28-1.17-8.68-2.1-13a37.17,37.17,0,0,1,.7-17.51A30.59,30.59,0,0,0,405,442c1,3.78,2,4.38,3.5,8.75,2.83,8.15,2,13.6,3.26,13.75s3-4.33,3.5-8.75c.73-6.2-1.31-10.63-.47-11,.66-.3,2.6,2.1,3.73,5,1.69,4.33.19,6.3,1.63,12.5.41,1.73.5,1.46,1.63,5.25,1.25,4.14,2.07,7.54,2.57,9.75a28.61,28.61,0,0,0,3.26-10,29.09,29.09,0,0,0,0-7.5,24.06,24.06,0,0,1,4,11c1,10.95-6.14,18.85-7,19.76-4,4.28-6.27,3.38-11.18,8.25a35.87,35.87,0,0,0-7.46,11,39.27,39.27,0,0,1,.38-11.67,38.55,38.55,0,0,1,4.2-11.67,58.67,58.67,0,0,0-20.35,17,61.37,61.37,0,0,0-6.84,11.5,21.06,21.06,0,0,1-1.4-12.17,20,20,0,0,1,6.06-11l-8.76,1.77h0a95,95,0,0,0-21.36,28.06c-4.1,8.25-7,14.26-5.9,21.67,2.09,14.16,17,21.28,19.26,22.34,2.15-4.57,4.42-11.39,2.79-18.67-1.18-5.33-3.63-7.2-4.35-12-.61-4.18.09-10.53,6.84-19.33a27.24,27.24,0,0,0-2.8,14c.81,9.34,6.66,11.39,7.46,20.34.68,7.54-2.77,14-5.6,19.34-5.28,9.95-10.42,11.61-9.93,17.33.39,4.61,4.12,8.32,6.83,11,3.4,3.37,4.79,3.06,8.7,6.66,2.74,2.53,5.95,5.5,7.46,9.67,2.53,7.05-.34,16.09-5,21.68-6.09,7.35-12.33,5.23-15.84,12.33-2.87,5.8-1.19,12.2-.62,14.34,3.2,12.16,14.71,16.78,16.15,17.34-1-2.69-5.54-15.5,0-29.34,1-2.46,5.58-14,15.54-18,3.44-1.4,4.61-.74,10.26-3s10.46-4.2,12.43-8.67.12-9.45-.94-12.33c-1.81-4.9-4.28-7.57-8.08-11.19h0c-4.34-2.09-6.58-1.56-11.79-4.31a36.8,36.8,0,0,1-8.08-5.83,42.4,42.4,0,0,0,5.6,11.33,39.93,39.93,0,0,0,7,7.67,34.26,34.26,0,0,1-15.54-4.17c-3.66-2-7.18-3.93-9.48-8.16-2.6-4.81-2.14-9.87-1.55-16.51a59.73,59.73,0,0,1,2.34-12c-.79,3.54-1.43,9.33,1.24,14.67,1.11,2.23,3.25,5.27,4.35,4.83s.37-4.15.46-10.67a90.92,90.92,0,0,1,.93-11c.61-3.92,2.64-10.89,10.79-19-1.33,11.35,1.29,16.72,3.82,19.53,4,4.48,9,3.65,17.09,8.84a44.44,44.44,0,0,1,10.56,9.5,57.88,57.88,0,0,0-5.74-13,55.36,55.36,0,0,0-12.59-14.51,131.84,131.84,0,0,1,15.22,7.84c6.08,3.65,10.45,6.92,10.88,6.33s-2.59-3.34-6.68-8.33a125.88,125.88,0,0,1-8.08-11c8.52,8.32,15.3,14.25,20.19,18.34,3.64,3,7.86,6.41,10.26,12.67a27.33,27.33,0,0,1,1.71,10.17,42,42,0,0,0,3.25-14,42.93,42.93,0,0,0-3.72-20,46.77,46.77,0,0,1,7.46,11.17,49.09,49.09,0,0,1,3.73,11.17,55.38,55.38,0,0,0-1.4-17.17A53.69,53.69,0,0,0,458,545.55a47.94,47.94,0,0,1,11.49,11.67,55.83,55.83,0,0,1,4.93,8.24,67.53,67.53,0,0,0-6.45-15,56,56,0,0,0-27.37-23.88,27.83,27.83,0,0,0,2-15.25,26.92,26.92,0,0,0-10.14-17c10.74-16.19,13.31-31.47,12.05-36.3a51.7,51.7,0,0,0-5-11.66h0c-4.12-6.68-7.81-8.29-11.5-14.83a35.86,35.86,0,0,1-3.13-7.43,56,56,0,0,0-3.75,9.2c-.2.66-.38,1.29-.53,1.89-.26.91-.46,1.75-.63,2.51-.1-1.05-.18-2.24-.19-3.53a23.27,23.27,0,0,1-4.66-11.65,24.73,24.73,0,0,1,3.57-15c5.27-9.1,11.23-7.26,20.82-17.34,4.32-4.54,8.75-9.19,10.1-16.33s-1.82-9.26-4-23.84a82.54,82.54,0,0,1-1.08-20.84c.63-7.34,1.44-16.59,7.29-23.67,4.87-5.89,9.22-5.43,17.25-10,6-3.4,14.07-9.63,21.75-22a27.71,27.71,0,0,1-1.25,9.33,26.45,26.45,0,0,1-5.75,10c10.27-3,15.89-8.08,19-11.67,2.14-2.52,5.13-8.21,11-19.51,5.61-10.75,5.49-10.95,6.8-13.15l.13-.22.14-.24.18-.3.18-.3c1.29-2.22,2.84-4.61,4.69-7.42,6.24-9.55,13.54-20.72,26.18-26.91a37.19,37.19,0,0,1,6.6-5.14,53.57,53.57,0,0,1,48-2.16A22.1,22.1,0,0,0,598.6,199a20.4,20.4,0,0,0-12-1.83,20.67,20.67,0,0,1,8.23-4,20,20,0,0,1,9,0,37.8,37.8,0,0,0-14.91-15,34.33,34.33,0,0,0-22.53-3.5,31.25,31.25,0,0,1,31.07,1.67,32.44,32.44,0,0,0-10.57-8A31,31,0,0,0,568,166C573.32,164.61,585.06,162.53,597.66,168.13ZM440.37,259.9a30.43,30.43,0,0,1-13,5.5c3.51-2.51,7-5.1,10.6-7.75q6.31-4.69,12.35-9.38A33.56,33.56,0,0,1,440.37,259.9ZM478,234.15c-4.89,5-9.54,4.69-12.82,10.62-2.65,4.81-.89,7.37-3.15,12.51-1.62,3.7-5.06,8.11-12.92,11.5a71.68,71.68,0,0,0,6.17-13.5c3.34-9.94,2.37-14.26,6.4-18.51,3.68-3.85,6.62-2.52,12.13-6,6.08-3.84,9.47-9.87,11.41-14.5C484.17,226,480.84,231.21,478,234.15ZM792.17,499.54c-1-9.57-5.22-12.39-9.32-22.67A73.74,73.74,0,0,1,778,454.7c-.62-6.76-1.32-14.49.26-22.74a51.88,51.88,0,0,0-5.39,15.57,54.1,54.1,0,0,0,4.5,30.84,50.28,50.28,0,0,0,10.88,15A34.49,34.49,0,0,1,773.37,487a37,37,0,0,1-8.24-8.5,38,38,0,0,0,3.42,9.33,36.24,36.24,0,0,0,6.68,9,22,22,0,0,1-18-1.5,23.68,23.68,0,0,1-9.17-10,30.35,30.35,0,0,0,1.09,8.51,29,29,0,0,0,4.51,9.33,26.59,26.59,0,0,1-10.87-8.67,28.35,28.35,0,0,1-4-7.83,49.13,49.13,0,0,0,5.29,21.5,45.12,45.12,0,0,0,8.08,11.17A73.61,73.61,0,0,1,733,508.05a39.15,39.15,0,0,1-5,24.58c-.56,1-1.06,1.72-1.42,2.25,1.79-10.22,0-16.49-2-20.33-.37-.71-.32-.53-8.22-11.67l-1.45-2c-.71,2.47-2.31,2.73-5.24,8.7a29.88,29.88,0,0,0-2.95,7.66c-1.27,7,3.27,13.59,5.43,16.34a40.87,40.87,0,0,0-23,11.67c-9.55,9.64-11.77,21.19-12.42,24.84-1.67,9.35-.35,17.79,1.64,25.38v0c2.5,4.27,5.28,7.18,8.15,11.28a69.14,69.14,0,0,1,10,22.26,41.1,41.1,0,0,1-1-11.34c-.19-1.8-.4-3.73-.62-5.76-2-18.16-2.41-21.77-1.25-26.67,1.06-4.45,3.86-11.76,12.58-19.17a60.33,60.33,0,0,0-1.08,6c-.25,1.84-.39,3.57-.47,5.17,1.33-2,2.87-4.14,4.66-6.34a79.4,79.4,0,0,1,5.75-6.33,100.11,100.11,0,0,0-3,15.34,103,103,0,0,0-.61,11.67,100.16,100.16,0,0,1,11.33-13.84c5.42-5.52,9.68-9.76,12.9-8.5,3.83,1.49,3.16,9.53,5.29,9.67s5-8.11,5.27-16a36.9,36.9,0,0,0-1.39-11.17,26,26,0,0,1,3.26,5.84,26.27,26.27,0,0,1,1.24,4,59.45,59.45,0,0,0,1.24-19,58.59,58.59,0,0,1,7,20.34c1,6.62.56,12.27,1.86,12.5s3.59-5.67,4.66-9.83c1.48-5.74,2.83-16-2.18-30.68,1.68,2,14.25,17.5,11,39.51-3.43,23.48-21.84,34.11-23.78,35.18,2.2-4.71,4.09-8.5,5.45-11.17,1.07-2.13,2.57-5,2.16-5.33s-3.95,4.46-5,3.83c-.82-.51,1-3.95,1.24-9.34.22-4.14-.49-8.75-1.4-8.83-1.29-.12-1.23,8.95-5.9,16.84-4,6.82-10.22,10.39-14.76,12.33a44.28,44.28,0,0,0,2.95-7.67c.22-.77,1.72-6.12.94-6.5-.62-.29-1.94,2.76-5.29,6.67-3,3.48-6.6,6.51-7.14,6s1.63-3,3.72-8.33c1-2.59,2.57-7.21,2-7.51-.81-.43-6,8.44-9.8,16a142.84,142.84,0,0,0-8.28,20.68,57.18,57.18,0,0,0,4.41-4.18,63.2,63.2,0,0,0,10.56-15.33c-1.54,11.45-5.53,18.17-9.09,22.25-5.82,6.68-10.68,6.56-14.68,13.84-4.61,8.38-3.07,17.49-2.64,19.67a29.4,29.4,0,0,0,6.47,13.42,35.26,35.26,0,0,1,.83-19.17,32.77,32.77,0,0,1,11-15.51A37,37,0,0,0,715,659.75a71.75,71.75,0,0,0,9.47-14.67,75.36,75.36,0,0,0,6.37-19.67,39.07,39.07,0,0,1,3,14.33c.07,5.89-1.28,8.45-.16,12.17.85,2.79,3.17,6.45,10,9.56A26.88,26.88,0,0,0,749.91,649c2.41-10.45-2.39-15.6,1.24-24.09a37.23,37.23,0,0,1,4-6.92,32.43,32.43,0,0,1,5.12-5.34c5.46-4.65,10.81-12.65,13.83-19.58,1.75-4,4.5-10.34,4.2-18.51-.27-7-2.5-7.6-4.43-18.17-1.45-7.95-2.41-13.15-.62-19.25,1.9-6.51,6.13-11.37,8.93-14.59,4.32-5,6.2-5.22,8.16-9.17C793,508.05,792.49,502.59,792.17,499.54Zm-87,113.36a66.15,66.15,0,0,1-.78-24.5,69.41,69.41,0,0,0-8.85,29.26c.66,6,1.16,10.58,1.39,12.75a38.53,38.53,0,0,0,2.78,7.2c.48-.71.94-1.36,1.41-2,3-3.82,5.72-5.51,9.12-8.41A63.91,63.91,0,0,1,705.17,612.9Zm-23.85,35.93a33.12,33.12,0,0,1-17.25,12.84l.41.24c5.6-2,15-6.66,19-16.69A34,34,0,0,1,681.32,648.83ZM782.06,364.68a115.15,115.15,0,0,0-22.52-28.84c7-33.95.56-54.26-4.81-65.18-4.18-8.47-12.82-21.66-20.2-31.68-10.77-14.63-14.71-16.92-19-27.51-3.1-7.74-3.07-11.68-8.54-24.67-3.09-7.34-6.35-13.79-12.74-17a18.84,18.84,0,0,0-6.37-1.84c-14.27-1.86-29.58-3.45-34.95-4l15.54-2.16c-1.09-.85-2.8-2.22-4.82-4-.93-.82-1.75-1.57-2.49-2.27a31.16,31.16,0,0,0-12,7.11,34.47,34.47,0,0,0-8.85,14,33.74,33.74,0,0,1,9.56-4,32.89,32.89,0,0,1,14.44-.25,30,30,0,0,0-18.87,9,32.06,32.06,0,0,0-6.76,10.76,21.26,21.26,0,0,1,6.29-5.25,20.12,20.12,0,0,1,5.36-2,59.77,59.77,0,0,0-11.42,11.51,63.45,63.45,0,0,0-6.76,11.25A61.24,61.24,0,0,1,666.8,205a42.35,42.35,0,0,0-29.21,11.34c1.59-.58,14-4.88,24.55,3a24.29,24.29,0,0,1,9.16,13.34c2.4,9.17-1.35,17.1-3.57,20.76a85.28,85.28,0,0,1-.16,9.87c-.42,7.38-1.6,6.39-4.78,23.38q-.51,2.73-.91,5.08c-.71,10.2-.08,12.56.41,14.09,3.53,10.88,13.36,18.63,20.2,24,4.56,3.59,6.15,4.05,9.17,7.5,6.08,7,5.14,11.37,9.46,17.5s6.86,4,20.82,13.17c9.39,6.2,15.08,10.06,18.33,17.51a31.35,31.35,0,0,1,2.34,14.67,23.21,23.21,0,0,0-5.9-8.51,21.1,21.1,0,0,0-12.59-5.33,153.85,153.85,0,0,1,11.65,17.17c3.72,6.37,4.06,8,4.19,9.17.94,8.41-6.23,16-12.89,23-4.68,4.94-8,7.13-13.36,14.17-3.64,4.74-4.62,7-5,9.34-1.06,7.33,4.4,13.57,6.06,15.34A32.19,32.19,0,0,1,726.61,448a39.3,39.3,0,0,0-3.42,7.84A41.52,41.52,0,0,0,721.32,467a104.74,104.74,0,0,1,8.08-12.67,100.28,100.28,0,0,1,15.85-16.84,47.78,47.78,0,0,0-11.5,21.17,49.26,49.26,0,0,0-1.24,16.17,52.92,52.92,0,0,0,19.11-27.17c1.09-3.63,4.87-16.74.15-31.51a47.1,47.1,0,0,0-4-9.17,40.29,40.29,0,0,1,10.72,18.84,42.12,42.12,0,0,1,.78,16.5,27.05,27.05,0,0,0,3.58-8,28.24,28.24,0,0,0,.3-12.84,33.69,33.69,0,0,1,3.42,14.34,43.81,43.81,0,0,0,7-16.34A47.11,47.11,0,0,0,770,390.68a31.17,31.17,0,0,1,7.92,9.67,33.11,33.11,0,0,1,2.8,7.34,43.3,43.3,0,0,0,0-11.5,42.4,42.4,0,0,0-4.82-14.68A22.61,22.61,0,0,1,786,392.68a24.4,24.4,0,0,1,1.7,11.84c.58-2.69,1.11-5.52,1.56-8.5.5-3.31.88-6.51,1.13-9.56C789.57,381.8,787.52,374.58,782.06,364.68Zm-25.59-50.39a22.36,22.36,0,0,0-2.57-12.5,20.17,20.17,0,0,0-7.22-7.63,30.15,30.15,0,0,0,.59,6.5,29.8,29.8,0,0,0,2.44,7.25,7.33,7.33,0,0,1-4.31-1.62,8.22,8.22,0,0,1-2.1-2.63,34.1,34.1,0,0,0,1.4,6.75c1.71,5.38,4,7.72,3.5,8.26-.8.87-8.05-4-13.75-11.51a50.08,50.08,0,0,1-7.1-13,25.52,25.52,0,0,0,2.09,11.38c2.07,4.58,5.15,7.28,4.66,7.88s-4.18-1.94-6.06-3.38a38.41,38.41,0,0,1-5.47-5.13,51.58,51.58,0,0,0,4.07,11.26c5,10,11.15,13.81,10.61,14.62-1,1.43-21.78-7-26.91-23.25a111.92,111.92,0,0,1-3.15-13.63c-.75-4.4-1.08-7.82-2.45-13.25-.72-2.88-1.46-5.2-2-6.75a61.69,61.69,0,0,1-6.39,37,16.48,16.48,0,0,0,.57-7.87c-.2-1.12-.44-2.45-.93-2.5-1-.12-2.61,5.16-3,8.62-.33,2.71-.66,10.09,6.53,19.63a35.15,35.15,0,0,1-11.42-13c-3.27-6.53-3.76-12.89-4.54-12.75-.61.1-.9,4,.23,7.5a14.17,14.17,0,0,0,1.66,3.49,23.75,23.75,0,0,1-4.69-10c-.65-3.41-.24-6.65.58-13.13.8-6.22,1.49-8,.82-8.38-1.39-.83-6.95,4.88-10,12.26-3.55,8.51-2.47,16-2.79,16s-2.76-10.28,1.4-20.51c.78-1.92.55-.78,7.92-13.25,3.43-5.8,5-8.66,5.94-12.88a31,31,0,0,0,.59-9,101.3,101.3,0,0,1,3.38,10.75A99.26,99.26,0,0,1,691,279.66a44.49,44.49,0,0,0,3-6.75,49.67,49.67,0,0,0,2.34-22.26c7.92,7,10.46,13.42,11.29,18,.64,3.49.69,8.22,2.69,16,.72,2.85,1.46,5.14,2,6.63a147.33,147.33,0,0,0,2.57-14.51A151.55,151.55,0,0,0,716,261.15a61.26,61.26,0,0,0,9.09,19.13A57.23,57.23,0,0,0,736.32,292a30.08,30.08,0,0,1-3.62-6.63,31.13,31.13,0,0,1-2-8.13,23.78,23.78,0,0,0,5.25,8.88,21.47,21.47,0,0,0,5.35,4.12,49.21,49.21,0,0,0-2.91-17.75,34.26,34.26,0,0,1,16.32,17.25A38,38,0,0,1,756.47,314.29ZM540.81,152.13a52.23,52.23,0,0,1,7.3-6.17c8.87-5.72,19.81-4.08,27.11-1.92a34.74,34.74,0,0,0-11.89-.25c-2.85.44-8.27,1.65-16.77,7.25-11.73,7.72-17.81,16.21-18.18,15.84S533.14,159.35,540.81,152.13Z" fill="#fff" opacity="0.5" style="mix-blend-mode:overlay"/><path d="M380.33,653.91c3-14.78,8.61-20.95,13.21-23.84,5.71-3.58,11.49-3.14,16.46-9a24.1,24.1,0,0,0,5.13-12.5c.5,4.25.45,9.94-2.64,14.5-3.9,5.77-9.87,5.59-16.31,9.34C391.09,635.36,384.94,641.21,380.33,653.91Zm54.22-32.5a33.87,33.87,0,0,1,4.35,4,36.31,36.31,0,0,1,4.35,5.83,25.51,25.51,0,0,0-1.48-11.79,23.7,23.7,0,0,0-7.64-10.36,42.66,42.66,0,0,1,3.53,7.81,43.83,43.83,0,0,1,1.55,6,13.13,13.13,0,0,0-3.26-3,12.61,12.61,0,0,0-6.22-2,37.64,37.64,0,0,1,5.53,12.26,43.22,43.22,0,0,1,.84,4.42S435.85,632,434.55,621.41Zm19.73-1.67c1-.51,3.63,2.61,6.37,7.33A33,33,0,0,0,456,618.4a30.73,30.73,0,0,0-8.7-7.83,76.33,76.33,0,0,1,4,7.83,77.14,77.14,0,0,1,3.88,11C453.75,624.3,453.27,620.24,454.28,619.74Zm-35.58-76a71.53,71.53,0,0,1-6.52-29.51c-1.32,6.64-2.74,19,3,31,5.46,11.33,15.25,17.87,15.84,17.25S424.18,555.3,418.7,543.72Zm4.2-9a34.77,34.77,0,0,0,8.39,18.5,30.64,30.64,0,0,0,15.14,9.25A59.41,59.41,0,0,1,438,542a61.12,61.12,0,0,1-.69-20.25,42.81,42.81,0,0,0-.94,29.25,80.9,80.9,0,0,1-8.15-8.75A83.1,83.1,0,0,1,422.9,534.72Zm-61.52,4.75a107.85,107.85,0,0,1-1.63-10.75,14.05,14.05,0,0,0,3.49,5.75,12.55,12.55,0,0,0,5.83,3.25,31.72,31.72,0,0,1-5.83-9A33.92,33.92,0,0,1,360.68,513c-.78,1.53-9.05,18.28-1.63,30.51a19.75,19.75,0,0,0,4.66,5.25C362.87,545.93,362.07,542.84,361.38,539.47ZM410,432.57a92,92,0,0,1-3.15-16.76,93.81,93.81,0,0,1,.58-22.38,57.07,57.07,0,0,0-6.29,11.76A58.22,58.22,0,0,0,398,416.44a35.67,35.67,0,0,0-4.77-11.63,33.19,33.19,0,0,0-12-11.25,57.71,57.71,0,0,1,12.58,23.13,59.71,59.71,0,0,1,2.1,16.88,59.35,59.35,0,0,0,4.08-8.88,60.48,60.48,0,0,0,3.37-15.5,32.11,32.11,0,0,0,1.75,14.88A29.84,29.84,0,0,0,410,432.57Zm-34.26-31.38a20,20,0,0,0,11.89,13.5A34.61,34.61,0,0,1,380,402.44a37,37,0,0,1-1.86-17A21.4,21.4,0,0,0,375.71,401.19Zm63.73-88.27a68.49,68.49,0,0,1,11.65-16,64,64,0,0,1,18.18-13,43.15,43.15,0,0,0-27.73,6.75,45.08,45.08,0,0,0-11.65,11.25,72.14,72.14,0,0,1,10-5.75,69.2,69.2,0,0,1,7.46-3,22.52,22.52,0,0,0-5.83,7.75A24.63,24.63,0,0,0,439.44,312.92Zm-20-77.44a29.41,29.41,0,0,0-13.2,12.67A32.67,32.67,0,0,0,402.55,266a20.22,20.22,0,0,1,4.35-9.5,18.15,18.15,0,0,1,7.45-5.34,42.11,42.11,0,0,0-5.9,17.5A56.13,56.13,0,0,1,417.31,251a51.92,51.92,0,0,1,8.23-8.66A22.55,22.55,0,0,0,415,245.48a23.92,23.92,0,0,0-6.06,5.17,42.29,42.29,0,0,1,4.66-8.5A41.15,41.15,0,0,1,419.48,235.48Zm79.85-7.33a67.1,67.1,0,0,1,12.82-23.51,43.94,43.94,0,0,0-.24,27.51c.18-4.52,1.27-18.09,11-29.76,15.41-18.59,38.69-15.56,40.77-15.25a55.26,55.26,0,0,0-14.44-1.51,57.83,57.83,0,0,0-27.73,8.26l5.12-9.51a54.53,54.53,0,0,0-26.79,26.26c-9.47,19.7-4.59,38.41-3.5,42.26A70.45,70.45,0,0,1,499.33,228.15ZM524.15,152c-3.83-1.07-7,0-7.11-.5s2.13-1.56,4.84-2.37a29.58,29.58,0,0,1,13.74-.69c-.68-.69-8.79-8.55-19.28-5.88a20.92,20.92,0,0,0-11.65,8.38,16.28,16.28,0,0,1,7.57-3.88,15.6,15.6,0,0,1,7.46.32,34.84,34.84,0,0,0-9.5,3.62,37.07,37.07,0,0,0-9.2,7.32,66.72,66.72,0,0,1,27.73-4A14.11,14.11,0,0,0,524.15,152Zm147.93,44a20.05,20.05,0,0,0-10.41-3.25,43.54,43.54,0,0,1,17.24-1.5A24.72,24.72,0,0,0,662,188.14c-10,1.85-15.42,9.43-16.54,11.08a87.41,87.41,0,0,1,33.16,3.42A21.68,21.68,0,0,0,672.08,196Zm34.41,8a69.31,69.31,0,0,0,7,33.26,63.61,63.61,0,0,0,18.64,22.63A175.61,175.61,0,0,1,714.64,228,179.54,179.54,0,0,1,706.49,204Zm32,156.54a34.59,34.59,0,0,0-9.21-8.25A29.26,29.26,0,0,1,743,356.43a31.76,31.76,0,0,1,10.48,10.25,51.24,51.24,0,0,0-4.31-17.76,51.4,51.4,0,0,1,10.49,7.51,56,56,0,0,1,13.28,19q-1.64-4.81-3.26-9.63c1.24,2.22,2.86,5.31,4.54,9.13,2.54,5.77,3.18,8.57,3.38,8.5.49-.15-.52-17.29-10.37-31.51a51.05,51.05,0,0,0-15.26-14.37,59.75,59.75,0,0,1,10,12.12,63.59,63.59,0,0,1,6.41,13.63,44.27,44.27,0,0,0-11.42-14.38,40.43,40.43,0,0,0-22.72-9,28.21,28.21,0,0,1,7.8,6.75,30.56,30.56,0,0,1,5,9.13,29.53,29.53,0,0,0-31.92-6.88,68.17,68.17,0,0,1,15.73,8.88,72,72,0,0,1,13.4,13.25A37.25,37.25,0,0,0,738.53,360.55Zm-1.63,37.89a20.87,20.87,0,0,1,4.66,12.87c-.07,4.91-2.15,8.4-5.61,14a66.62,66.62,0,0,1-10.59,13.12c13.17-4,21.1-15.52,19.93-25.89C744.42,404.89,738.81,400,736.9,398.44ZM724.2,547.72a15.11,15.11,0,0,0,5.82-8.5A78,78,0,0,1,717.21,565a37.05,37.05,0,0,0,13.28-9.76,41.28,41.28,0,0,0,9.09-18.75,17.13,17.13,0,0,1-2.1,5.75,15.9,15.9,0,0,1-6.76,6.25,41.24,41.24,0,0,0,4.2-10.75,42.55,42.55,0,0,0,.93-13.75c-2.21,4.11-4.76,8.48-7.69,13-3.07,4.72-6.13,9-9.09,12.75A12.49,12.49,0,0,0,724.2,547.72Zm32.08-25.59a44.5,44.5,0,0,1,6.37-15.75A24.44,24.44,0,0,0,753,520.8a26.38,26.38,0,0,0,3.34,19.5A46.3,46.3,0,0,1,756.28,522.13Zm17.2-8.29a19.89,19.89,0,0,0,4.08-7.13,60,60,0,0,1-2,12.75,58.6,58.6,0,0,1-5,12.63,34.17,34.17,0,0,0,10.48-23,34.76,34.76,0,0,0-8-23.88,34.07,34.07,0,0,1,1.39,20.5,31.72,31.72,0,0,1-6,12.13A18.43,18.43,0,0,0,773.48,513.84Z" fill="#fff" opacity="0.6" style="mix-blend-mode:overlay"/><path d="M399.44,542.89a66.94,66.94,0,0,0-5.2,9A38.74,38.74,0,0,1,399.44,542.89ZM797.25,506a32.57,32.57,0,0,1-4.85,13.16c-4,6.29-6.9,6.29-10.65,12.1a34,34,0,0,0-4.77,13c-2.49,13.89,5.69,17.95,6.17,32,.39,11.61-4.58,26.85-14.21,36-5.63,5.35-12,7.82-13.75,15.5-.87,3.82.35,4.81.47,10.75.06,3.18.29,15-6.3,24.26-5.91,8.35-14.65,10.92-18.4,11.75a16.46,16.46,0,0,0,5,7.25,14.93,14.93,0,0,0,9.86,3.42c-2,1.58-14.64,11.25-29.13,6.84a28.85,28.85,0,0,1-10.48-5.92,39,39,0,0,1-8.31-10,41.81,41.81,0,0,1-5.13-14.51,40.16,40.16,0,0,1-12.27,5.67c-3.64,1-7.82,2.08-13.05,1a24.81,24.81,0,0,1-12.43-7c2.14-.17,15-1.35,22.84-12.84a33.14,33.14,0,0,0,5.43-17.5c.24-7.66-2.28-10.52-6.06-22.67-2.31-7.46-5.21-16.81-5.74-28.18-.39-8.4-.83-17.75,4.35-26.67a39.87,39.87,0,0,1,13.67-13.5c8.58-5.16,15.27-4.59,16.31-9,.68-3-2.14-4-3.11-11-.36-2.67-.89-6.42.78-10,1.85-4,4.5-3.65,5.59-6.5,1.63-4.28-3.24-7.92-7.15-16.67a49.87,49.87,0,0,1-4-24.68,44.7,44.7,0,0,1,7.45-20.5,73.55,73.55,0,0,0,8.39-21.84c3.57-16.38-2.24-33.2-4-38a41.79,41.79,0,0,1-12.58-9.83,40.73,40.73,0,0,1-8.7-15.17c-2-6.62-.6-8.6-3.11-12.51-2.38-3.71-4.92-3.89-10.72-7.5-4.89-3-11.07-6.89-14.6-13-3.68-6.38-3.27-13.13-2.8-21.17.35-6,1.69-11.81,4.35-23.51,2.22-9.72,3.42-13.39,1.56-17.67-2.06-4.74-6.41-6.86-8.39-7.84-9.06-4.44-15,.39-25.17-1.16-4.53-.7-11-2.85-18.33-9.67a227.92,227.92,0,0,1-28.12,6,225.4,225.4,0,0,1-56.23,1.17,32.18,32.18,0,0,0-6.53,10c-4.37,10.68.21,16.42-2.79,25.67-4.09,12.63-18,18.33-20.82,19.51-8.82,3.62-11.11.51-22.06,4.66-7.33,2.78-14.41,5.48-17.24,12-2.45,5.62.33,9.36,4,26.34,3.2,14.65,4.81,22,3.27,29.17-1.1,5.15-4.51,14.21-17.4,23.17a56.57,56.57,0,0,0-.62,23.84c2,10,5.49,11.92,7.61,23.17.84,4.48,2.34,12.81.15,22.51a47.8,47.8,0,0,1-14.29,24.34A32.83,32.83,0,0,1,447,512.55a32.19,32.19,0,0,1-1.56,11.5,65.55,65.55,0,0,1,28.43,27.67c4.17,7.87,8.17,15.38,7.46,25.17-.74,10.29-6.1,15.22-3.88,25.51a25.86,25.86,0,0,0,5,11.17c3,3.68,4.62,3.18,6.83,6.5,2.73,4.09,3.91,10.34,2,15.34-2,5.24-5.68,4.78-6.37,8.67-.85,4.86,4.65,7.25,9,16.17,1.69,3.42,5.4,11,3.58,17.84-2.93,11-18.59,14-19.73,14.17-.06.61-.57,7.93,5,12.83a13.68,13.68,0,0,0,12.58,2.84,28.06,28.06,0,0,1-5,4.5c-10.05,7.08-23.86,6.47-33.87.5-2.46-1.48-8.73-5.21-11.49-12.67a17.18,17.18,0,0,1-1.24-9.5c.75-3.84,2.71-5,2.17-6.51-.94-2.69-7.64-1.25-17.09-2-8.7-.69-14.89-1.18-19.57-5.66-4.91-4.7-5.83-11.54-6.68-17.84a53.19,53.19,0,0,1,1.86-22.34c-2.26,1.18-14.47,7.85-17.71,21.84-1.95,8.46.18,16.06,1.24,19.84a47.22,47.22,0,0,0,7.15,14.83c-5.06-1.3-21.83-6.33-30.14-22.34-2-3.79-5.63-10.85-3.72-18.5,1.55-6.25,6.23-10.52,10.25-14.17,7.27-6.61,11-6.13,12.89-11,2.46-6.44-1.62-13.76-1.86-14.17-3.23-5.6-7.07-5-16.62-14.17-3.12-3-4.39-4.7-5.13-7-1.49-4.7.08-9.24,1.09-12.17a28.08,28.08,0,0,1,6-10,40,40,0,0,1-15.06-13,32.31,32.31,0,0,1-6.06-13.67c-.29-1.79-1.19-8.5,4.35-21.34a86.13,86.13,0,0,1,18-26.5,51.34,51.34,0,0,1-17.4-5.67,54.32,54.32,0,0,1-15.07-12c13.92,4.78,27.15,2.53,33.09-5.75.85-1.19,4.81-6.71,3.73-12.75-.91-5-4.49-5.88-8.16-13.75-2.28-4.92-3.8-8.19-2.79-11.26,2.4-7.34,16.51-5.26,17.94-11,1-3.85-4.92-6.63-10.49-14.5-9.1-12.87-9.28-27.84-9.32-31.26-.18-15.36,6.34-26.85,9.56-32.51,7.72-13.61,14-14.45,20-29.5a55.28,55.28,0,0,0,4.19-17.76c.43-8.06-1.36-11.58-2.56-19.5-.77-5.06-2.93-19.31,1.86-33,4.34-12.41,12.77-19.8,18.41-24.76,9.15-8,11.79-6.33,22.84-15.5a96,96,0,0,0,17.71-18.76c9.24-13.07,7-17.67,16.54-30.75,4.21-5.8,8.54-11.78,16.08-16.51,12-7.53,24.51-7.05,32.86-6.75,15.08.56,17.38,5,31,3.5,8.14-.87,8.36-2.55,17.94-3.75,5-.62,15.74-2,27.26,1,15.18,3.89,25.69,13.67,31.46,20.26a25.68,25.68,0,0,1,12.7-10.38,21.23,21.23,0,0,1,11.65-1c4.48.94,6.77,3.1,16.78,11.5,4,3.39,7.68,6.41,10.84,9,11.66-2.32,18.59,1.59,21.08,3.25,6.85,4.58,9.7,11.87,14.1,23.14,4.57,11.69,3.25,13.89,7.34,23.13,2.55,5.75,4.69,8.57,14.22,21.38,13.56,18.24,20.39,27.42,21.78,30.25,6.44,13.06,7.85,25,8.86,33.51a127.35,127.35,0,0,1-1.05,36.89c8.18,6.94,21,20,27.73,39.75,2.33,6.87,4.7,14.08,3.5,23.14-.92,7-3,7.93-8.16,23.13C784,429,782.3,434,781.75,440.82a66.22,66.22,0,0,0,1.52,19.26c2.48,11.07,5.62,12.25,11.18,29.25C797.15,497.57,797.79,501.5,797.25,506Zm-5.09-6.42c-1-9.57-5.2-12.39-9.32-22.67A74.3,74.3,0,0,1,778,454.7c-.82-9-1.79-19.67,2.64-31,2.79-7.15,5.8-9.61,8.23-19.17a54.62,54.62,0,0,0,1.86-12.5c0-2.75-.09-11.7-8.7-27.34a114.91,114.91,0,0,0-22.52-28.84c7-34,.57-54.27-4.82-65.18-4.16-8.47-12.81-21.65-20.19-31.68-10.77-14.63-14.71-16.92-18.95-27.51-3.11-7.73-3.09-11.68-8.55-24.67-3.09-7.35-6.34-13.79-12.74-17a19.14,19.14,0,0,0-6.37-1.84c-14.28-1.86-29.58-3.46-34.95-4l15.53-2.16c-1.08-.85-2.79-2.23-4.81-4-6.72-5.93-7.94-8.48-12-10.5a16.08,16.08,0,0,0-9.32-1.83c-8.82,1.29-13.22,11.86-13.67,13-.83,4.36-1.61,8.87-2.33,13.5q-1.75,11.26-2.8,21.68a42.29,42.29,0,0,0-6.37-15.84,38.49,38.49,0,0,0-13.36-12.34,24.37,24.37,0,0,1,12.43,5.5,25.83,25.83,0,0,1,5.28,6.17c.22-1.8.43-3.64.62-5.5.44-4.3.74-8.49.93-12.5a66.75,66.75,0,0,0-19.26-16.34c-14.51-8.07-28.25-8.1-37.59-8-14.79.15-13.92,3.43-30.14,4.33-22.7,1.27-26.7-5-39.15-.66-11,3.87-17.53,12.19-25.17,22-14.83,19-10.75,27.2-24.23,41.68-9.23,9.9-11.28,6.22-26.72,20C407.56,234,399.14,241.52,396,253.82c-2.43,9.58,1.31,10.47,1.56,35,.14,14.54.22,21.81-2.49,29.34-4.47,12.44-10.07,11.44-18.33,26.34-3.74,6.75-10.41,19.11-9.63,35.34.32,6.79.79,16.4,6.83,24.67,4.88,6.65,10.76,8.85,10.88,15,.06,3.25-1.49,7.31-4.35,9.34-4,2.83-8.43.11-11.19,3.33a8.17,8.17,0,0,0-1.55,5.34c0,7.15,7.09,9.18,10.25,17a22.71,22.71,0,0,1-.62,17.67c-4.18,8.3-15.43,12.44-27.65,9.67,2,1.67,10.45,8.23,21.75,6.67,2.95-.4,11.12-1.53,15.84-8.67,4.83-7.29,4.3-18.18-1.24-27.34,8.17,7,11.2,18.21,7.77,27.34-3.59,9.55-12.7,12.6-14,13a94.81,94.81,0,0,0-22.06,28.68c-4.11,8.25-7,14.27-5.91,21.67,2.1,14.16,17,21.28,19.27,22.34,2.15-4.57,4.42-11.38,2.79-18.67-1.19-5.34-3.63-7.2-4.35-12-.62-4.18.08-10.53,6.84-19.33a27.24,27.24,0,0,0-2.8,14c.82,9.34,6.66,11.39,7.46,20.34.67,7.54-2.77,14-5.59,19.34-5.3,10-10.44,11.61-9.95,17.33.39,4.62,4.13,8.31,6.84,11,3.4,3.37,4.8,3.07,8.7,6.66,2.73,2.53,5.95,5.51,7.46,9.67,2.53,7.05-.34,16.09-5,21.68-6.1,7.36-12.33,5.23-15.85,12.33-2.86,5.79-1.18,12.2-.62,14.34,3.2,12.15,14.7,16.78,16.15,17.34-1-2.7-5.54-15.51,0-29.34,1-2.46,5.58-14,15.54-18,3.43-1.4,4.61-.73,10.25-3s10.48-4.19,12.43-8.67.13-9.44-.93-12.33c-2.95-8-7.68-10.08-17.09-20-7.17-7.57-10.76-11.36-12.12-15.67-1-3.25-2.17-10,2.88-20.67a22.7,22.7,0,0,0-1.63,11.67c.38,2.74,1.54,6.75,13.36,19.67,13.2,14.45,18.64,16.95,20.81,26,.61,2.52,2,8.3-.62,13.33-1.53,2.92-4.32,5.06-9.94,9.34-2.31,1.75-4.26,3.11-5.59,4-1.12,2.1-8.72,16.77-2.8,28.34,4.88,9.56,16.75,12.63,22.06,14,10.93,2.84,19,.63,20.51,4.67,1.28,3.4-3.84,6.54-3.11,12.34.62,4.89,4.93,8,7.77,10,10.46,7.47,22.87,6.53,28.58,5.67a17.82,17.82,0,0,1-11.11-11.42c-1.56-5.07-1.32-12.12,2.22-15.76,1.8-1.84,3.72-2.07,5-4.8a9.86,9.86,0,0,0,.68-6.2c-.83-3.43-3.55-5-5.95-7-2.59-2.21-5.87-5.93-8.5-12.5a65,65,0,0,0,9.32,8.5c4.46,3.32,7.51,4.64,9.2,8.63a13.05,13.05,0,0,1,.94,6.5c-.77,6-5.8,9.07-6.53,9.5,1.59.19,7.66.76,11.3-3.38,4.34-4.93,2.9-13.9.12-19.25-3.51-6.75-8.87-7.16-9.79-13.5a18,18,0,0,1,1.05-8.13c1.72-5.25,4.13-5.64,4.95-9,.9-3.68-1.38-5.64-5.88-15-3.63-7.54-5.89-12.35-6.41-18.38-.48-5.59.85-8.73,1.63-13,3.12-17.06-6.1-33.08-7.92-36.26a56,56,0,0,0-27.38-23.88,27.83,27.83,0,0,0,2-15.25,26.92,26.92,0,0,0-10.14-17c3.48-2.08,13.13-8.51,17.25-21.13,3.22-9.9,1.5-18.85.7-22.75-2.17-10.56-6.21-12.57-8.74-22.63a52.94,52.94,0,0,1-.47-22.63,51.63,51.63,0,0,0-12.7,12.88A55.83,55.83,0,0,0,420,437.7a42.69,42.69,0,0,1,3-21c3.22-7.45,8-11.88,14-17.25,12.51-11.33,19-11.1,22.6-20,1.85-4.6,1.75-8.67,1.63-13.38-.3-12-4.76-14.9-6.64-26.75-1.19-7.48-2.69-17,2.21-24.13,5.92-8.6,18.8-10.33,23-10.88,4.86-.65,6.64,0,11.3-1.5a34.94,34.94,0,0,0,13.4-8.25,39,39,0,0,0,9.2-14.13c3.09-8.49.83-12,2.68-20.88,1.5-7.2,4.44-11.69,9.55-19.51,6.83-10.43,14.91-22.81,29.83-28.5,7.23-2.77,13.26-2.89,17.94-3,7.62-.17,17.65-.41,27.15,6.25a38.08,38.08,0,0,1,11.89,13.88,54.47,54.47,0,0,0-17.36-11.76,51.87,51.87,0,0,0-28.67-3.25A32,32,0,0,1,581.12,221a36.54,36.54,0,0,1,11,18.63,45.84,45.84,0,0,0-7.34-10.25,44.82,44.82,0,0,0-24-13,28.17,28.17,0,0,0-12.46,4.88,30.51,30.51,0,0,0-9.09,10.13,36.36,36.36,0,0,1,24.58.12,38.53,38.53,0,0,1,16.55,12.13,58.2,58.2,0,0,0-26-9.63c-5.93-.61-12.48-1.19-18.52,3.13a21.87,21.87,0,0,0-6.41,7.37c37.4,2,53.18,1,59.54-.75,4-1.11,8.15-1.5,12-3,4.52-1.8,8.37-4.19,11.8-2.33a9,9,0,0,1,1.95,1.62,22.31,22.31,0,0,0,10.6,5.13,24.55,24.55,0,0,1,7.86-9.18,22.39,22.39,0,0,1,12.76-4.07,39.16,39.16,0,0,0-6.76,3.43,42.49,42.49,0,0,0-7.34,5.94,34.62,34.62,0,0,1,10.61-1.68,35.47,35.47,0,0,1,16.14,3.88A68.89,68.89,0,0,0,642.11,242c-4.92.18-8.33.89-11.52,3.07a16,16,0,0,0-2.17,1.73,21,21,0,0,0,6.53,2.33c4.57.79,6.65-.53,14-.67,3.66-.07,5.53-.08,7.77.67a17.86,17.86,0,0,1,7.77,5.5c-.21-1.83-2.06-15.78-14-23.67-14.09-9.34-29-1.45-29.82-1,1.27-1.07,12.61-10.38,26.25-6.17,9.79,3,14.77,11.16,16.16,13.5,5.46,9.23,4.92,18.84,4.5,26-.42,7.38-1.6,6.39-4.77,23.38-2.92,15.54-2.84,21.27-1.75,26.76.93,4.72,1.76,8.91,5,12.62,4.49,5.13,8.46,3.42,15.73,9.26a31.75,31.75,0,0,1,8.85,10.5c3.7,7.22,1.63,10.75,4.78,17.13,2.52,5.11,6.23,7.65,11.3,11.12a60.88,60.88,0,0,0,26.57,10A27.64,27.64,0,0,1,722,385.43a27.13,27.13,0,0,1-6.4-1.37,90.92,90.92,0,0,1,2.91,18.5,77.57,77.57,0,0,1-1.4,21.63c-4.22,18.35-14.3,18.87-16,33.68-1.32,11.79,3.82,22.72,4,23.17,4.53,9.36,11.36,13.77,9.78,19.67-.69,2.6-2.29,2.76-5.28,8.84a30.48,30.48,0,0,0-2.95,7.66c-1.27,7,3.26,13.59,5.44,16.34a40.81,40.81,0,0,0-23,11.67c-9.56,9.64-11.78,21.19-12.43,24.84-2.32,13,1.14,24.26,4.12,33.92,3.46,11.27,5.79,12,6.44,19.84.29,3.53,1.05,14.71-6,25a33.16,33.16,0,0,1-17.24,12.84,21.53,21.53,0,0,0,10.64,3.08c10.59.12,17.4-8.21,18.49-9.59,1.54-9.78,5-15.79,7.92-19.5,4.19-5.32,7.78-6.52,13.51-12.59a62.53,62.53,0,0,0,10.57-15.33c-1.53,11.46-5.53,18.17-9.09,22.25-5.83,6.68-10.68,6.56-14.68,13.84-4.61,8.39-3.07,17.49-2.64,19.67a30.56,30.56,0,0,0,12.35,18.84c10.64,7.73,22.14,5.35,24.39,4.83a27.85,27.85,0,0,1-9.25-10,29.39,29.39,0,0,1-3.57-12.25c-.61-12.35,8-20.94,9.4-22.26a60.31,60.31,0,0,0-2.72,9.84,61.43,61.43,0,0,0-.85,15.83,22.5,22.5,0,0,0,13.9-5.75A26.33,26.33,0,0,0,749.91,649c2.42-10.45-2.38-15.61,1.24-24.09a37.86,37.86,0,0,1,4-6.92,31.91,31.91,0,0,1,5.13-5.34c5.45-4.65,10.81-12.65,13.82-19.58,1.75-4,4.51-10.34,4.2-18.51-.26-7-2.5-7.6-4.43-18.17-1.45-7.95-2.41-13.14-.62-19.25,1.9-6.51,6.12-11.37,8.93-14.59,4.31-5,6.21-5.22,8.16-9.17C793,508.06,792.49,502.59,792.16,499.54ZM394.24,551.89a66.94,66.94,0,0,1,5.2-9A38.74,38.74,0,0,0,394.24,551.89Z" fill="#010000"/></g></g></g></svg>