<svg xmlns="http://www.w3.org/2000/svg" viewBox="0 0 1080 1920"><g style="isolation:isolate"><g id="hair"><g id="_25" data-name="25"><path d="M443.52,410.77a35.92,35.92,0,0,1-16.61-26.68,16.35,16.35,0,0,1-11.59-4.16,16.91,16.91,0,0,1-5.31-12.2,14.18,14.18,0,0,1-8.55-2.38c-1.35-1-3.24-2.76-7-12.89-3.15-8.53-2.74-9.79-5-13.09s-3.55-3.25-8.64-7.83c-6.12-5.5-10.1-9.08-12.19-14.68-2.63-7-.92-13.63-.19-16.46a32.51,32.51,0,0,1,9.63-15.86,16.2,16.2,0,0,1-7.47-7.54c-3.22-6.87-.13-13.41.29-14.28a24.09,24.09,0,0,0,11,7.44,23.77,23.77,0,0,0,11.79.69,54,54,0,0,1-2.85-24.59c.53-4.46,1.61-12.67,7.07-20.62,3.79-5.51,6.89-6.84,16.51-14.68,4.35-3.54,10.3-8.63,17.1-15.27a57.76,57.76,0,0,0-30,13.39c1-5.26,3.93-15.58,12.68-23.21,2.47-2.15,5.74-4.93,10.81-5.85,7.85-1.41,14.2,2.7,16,4-.15-3-.11-10.51,4.92-17.05,2.83-3.7,6-5.46,9.63-7.44a38.77,38.77,0,0,1,21-5.36,36.37,36.37,0,0,1,12,2.68,27.29,27.29,0,0,1-5.89-14,27.88,27.88,0,0,1,4.81-18.74,38.3,38.3,0,0,0,6.88,15.67c2.2,2.92,4.47,6,8.45,7.73,3.14,1.4,7.85,2.24,17.79-1.09s13.81-7,21.32-11.21a89.28,89.28,0,0,1,34.1-10.9c7.24-.69,17.83-1.56,29.67,3.67a51.64,51.64,0,0,1,17.59,12.89,55.27,55.27,0,0,1,26.43,3.07c6,2.27,11.92,4.54,16.71,10.31,2.91,3.52,3.3,5.81,7.57,9.82a44.71,44.71,0,0,0,9.72,6.84c5.25,2.72,6.76,2.17,9.53,4.36a17.57,17.57,0,0,1,5.8,9.92A26.25,26.25,0,0,0,702,167.63c-2.84-14-16.88-19.25-17.69-19.54,3.85-.11,25.47-.47,36.17,13a20.91,20.91,0,0,1,4.71,10c1.52,9.86-5.42,17.67-6.78,19.14a45.7,45.7,0,0,1,25.26,6.15,42.74,42.74,0,0,1,11.49,9.91c5.12,6.44,6.87,12.71,8.55,18.74a75.15,75.15,0,0,1,2.72,18.58c6.58,9.12,7.41,16.55,7.34,20.75-.09,4.66-1.37,8.8-3.93,17.06-3.4,10.93-5,12.09-4.85,16,.21,4.29,2.55,10.48,13.1,17.71l-2.75,4a11.2,11.2,0,0,1,4.32,7.67c.36,4.61-2.62,9.2-7.47,11.24a31.37,31.37,0,0,1-8.9,17.05c-9.74,9.43-22.2,8.63-24.24,8.46L734.28,369a47.63,47.63,0,0,1-.92,10.85,51.11,51.11,0,0,1-8.91,19.7,62.25,62.25,0,0,1-11.92,12.82,233,233,0,0,0,2.36-30.41c.05-3.81,0-7.52-.13-11.1a14.32,14.32,0,0,1-6.94-6.35,12.91,12.91,0,0,1-1.58-6.09c0-4.15,2.15-5.56,3.28-10.17a21,21,0,0,0,.26-8.33,24.06,24.06,0,0,1-12.84-31.6c1.68-3.84,3.49-4.64,3.28-7.27-.37-4.64-6.27-6.21-10.62-10.58-3.42-3.44-6.9-9.62-6.68-21.68a28.57,28.57,0,0,1-19.52-11.9,25.25,25.25,0,0,0,16.77,19.57,26.11,26.11,0,0,1-18.6,1.32c-11.35-3.59-15.68-13.9-16.25-15.34a39.63,39.63,0,0,0-24.89-8.72,38.89,38.89,0,0,0-20.31,6.08A29.86,29.86,0,0,1,605.75,278c-.51,14.16-11.44,22.27-12.84,23.27a37,37,0,0,0,.92-20.62,36,36,0,0,0-5.9-12.56A36.08,36.08,0,0,1,589,290.29a34.21,34.21,0,0,1-8.65,14.94c-8.68,8.55-19.43,9.27-23.05,9.52A40.72,40.72,0,0,1,534,309.06a33.19,33.19,0,0,0,13.89-14.14A33.8,33.8,0,0,0,550.72,273c-1.7,3.1-9.16,15.89-25.15,21.28a45,45,0,0,1-27.91.14,17.52,17.52,0,0,1-8,10.84,17.22,17.22,0,0,1-13.36,1.58,27.15,27.15,0,0,1-7.47,17.85,26.42,26.42,0,0,1-16.25,7.8,17.37,17.37,0,0,0-4.06,4.37c-1.54,2.38-2.09,4.59-3.14,11.9s-1,8.51-1.71,12.16a67.91,67.91,0,0,1-2.62,9.52Z" fill="#42210b"/><path d="M596.58,261.2c-.21-.81-.47-1.87-.71-3.11-2.39-4.16-3.94-5.41-4.66-9a18.46,18.46,0,0,1-.27-2c-3.17,4.83-4.86,9.77-3.79,14.48,1.1,4.94,4.56,6.6,7.6,12.42.24.48.49,1,.72,1.49a6.45,6.45,0,0,0,1.83.23,7,7,0,0,0,4.64-2C600.84,269.47,598.2,267.67,596.58,261.2Zm0,0c-.21-.81-.47-1.87-.71-3.11-2.39-4.16-3.94-5.41-4.66-9a18.46,18.46,0,0,1-.27-2c-3.17,4.83-4.86,9.77-3.79,14.48,1.1,4.94,4.56,6.6,7.6,12.42.24.48.49,1,.72,1.49a6.45,6.45,0,0,0,1.83.23,7,7,0,0,0,4.64-2C600.84,269.47,598.2,267.67,596.58,261.2Zm100-67.26c.06,1.05.11,2.21.12,3.49A27.14,27.14,0,0,0,696.58,193.94Zm-100,67.26c-.21-.81-.47-1.87-.71-3.11-2.39-4.16-3.94-5.41-4.66-9a18.46,18.46,0,0,1-.27-2c-3.17,4.83-4.86,9.77-3.79,14.48,1.1,4.94,4.56,6.6,7.6,12.42.24.48.49,1,.72,1.49a6.45,6.45,0,0,0,1.83.23,7,7,0,0,0,4.64-2C600.84,269.47,598.2,267.67,596.58,261.2ZM774.5,315.41C765.92,310.33,763,305,763,305c-2-3.55-2-7.28-1.61-11a11.69,11.69,0,0,0-2.84,5.68,12.19,12.19,0,0,0,2.36,9.51c-2.73-1.95-6-5-6.68-9.25-.55-3.16.63-4.88,2.62-11.63A74.47,74.47,0,0,0,760,273.63a37.2,37.2,0,0,0-2.23-15.34,35.12,35.12,0,0,1,8.91,19.45,22.59,22.59,0,0,0,2.1-6.09c1.82-9.15-1.23-17-3.67-23.27-3.29-8.46-7.76-13.9-11.53-18.51a88.73,88.73,0,0,0-14.94-14.41,38.33,38.33,0,0,1,13.23,6.87,39.06,39.06,0,0,1,7.09,7.41,36.87,36.87,0,0,0-8.66-21.69c-6.17-7.11-13.45-9.59-17.68-11a47.5,47.5,0,0,0-27.26-.4,31.37,31.37,0,0,0,10.35-9.91c1.55-2.38,5.1-7.87,4.72-13.75-.54-8.3-8.83-16.08-20.44-19.17,1,.82,9.71,8.59,8.78,20.62a24.75,24.75,0,0,1-7.33,15.47,38,38,0,0,1-1,8.06,37.24,37.24,0,0,1-4.54,10.81,70.75,70.75,0,0,1,35.13,6.12,116,116,0,0,0-17.1,2.18c-8.36,1.71-10.4,3.11-11.59,5-2.37,3.65-1,8.42-.39,10.31a43.24,43.24,0,0,0-4.92-9.52,42.19,42.19,0,0,0-8.26-8.92,13.91,13.91,0,0,1,1.19,7.53,13.72,13.72,0,0,1-2.37,6.15c0-1.6-.45-10.59-7.66-16.86-6.67-5.8-16.54-7-25.16-3a29.5,29.5,0,0,1,12.19-9.52,28.86,28.86,0,0,1,11.59-2.18,31,31,0,0,0-12-15.27,30.43,30.43,0,0,0-16.7-5,26.22,26.22,0,0,1,21,2,26.51,26.51,0,0,1,12,15.67,23,23,0,0,0,1.77-12.1,21.24,21.24,0,0,0-1-4.28l-2.09-1.2c-6.22-3.57-7.86-3.23-11.53-6.35-3.92-3.34-3.65-5.09-8.12-9.78a48.69,48.69,0,0,0-9.57-7.67c-7.83-4.64-16.18-5.3-22-5a27.74,27.74,0,0,0,21,11.9c-5.11.51-12.45.39-19.52-3.44-5.91-3.2-7-6.5-13.88-12.56-2.95-2.58-11.43-10-22.14-13.22C584,126.3,573.89,129,566.58,131c-10.47,2.81-11.65,5.57-34.85,16.27-15.3,7-19.24,7.9-23.72,7.13-10.34-1.76-16.94-11-19.91-16,.07.49.14,1,.24,1.53a37.84,37.84,0,0,0,39,21.67,26.25,26.25,0,0,1-15.92,5.36,23.6,23.6,0,0,1-8.9-1.94,45.94,45.94,0,0,0,4.1,3.15A68,68,0,0,0,492.81,162c-6.68-2.09-15.41-4.83-25.8-2.24-3.72.92-10.68,2.65-16.25,9.12a28.91,28.91,0,0,0-6.68,18.51,28.11,28.11,0,0,0-17.83-2.25c-12.06,2.59-18.05,12.75-19.79,16.25,3.31-4,9.64-10.14,18.62-11.89a24.46,24.46,0,0,1,11.13.14,24.16,24.16,0,0,1,10,5.28,42.77,42.77,0,0,1-10.62,15.87c-5.42,5-10.43,6.74-15.33,9.12a80.64,80.64,0,0,0-21,14.93h0a46.7,46.7,0,0,0-3.55,8.46,49.9,49.9,0,0,0-.78,25.78,27.21,27.21,0,0,0,7.73-7.8A28.49,28.49,0,0,0,407,244c.72,2.13,3.5,11-.92,20.23-1,2.16-3.7,7.49-9.7,10.45a18.51,18.51,0,0,1-4.76,1.59,17.9,17.9,0,0,0,2.87.92,18.52,18.52,0,0,0,8.58-.1A34.89,34.89,0,0,0,410,264.64a30.89,30.89,0,0,1-3.22,11.14,24,24,0,0,1-6.06,7.68c-.31.52-.62,1.05-.94,1.61-2.57,4.64-8.16,14.72-4.45,25.38.51,1.46,4,10.89,13.16,13.82a19.05,19.05,0,0,0,9.05.53c-.34.17-6.71,3.67-7,10.51,0,.37-.16,5.63,3.48,8.79,5.6,4.86,16.49,1.57,22.6-4.1a22.4,22.4,0,0,0,5.91-9.35c-5.31-2.07-8.06-4.9-9.58-7.44-3-5-1.89-10-5.63-12.69-2.89-2.06-6.89-1.45-10-.53-.05-.85-.27-7.17,3.93-10.18,4.57-3.28,11.29-.4,12.84.26,4.05,1.74,4.57,3.71,7.07,3.84s5.71-1.47,10-8.73a11.89,11.89,0,0,1-4.58,11.5,11.73,11.73,0,0,1-9.18,1.72c.42.84,3.89,7.6,10.75,8.6,8,1.15,13.6-6.56,14.41-7.67,7.12-9.8,2.74-23.69,1.7-27-2.48-7.88-5.3-8.4-8.06-17.95-1.59-5.53-2.95-10.27-2-15.87,1.53-8.63,8.35-17.6,17.69-20.32,12.34-3.6,27.48,4.18,33.21,19.43-4.21-4.46-12.66-12-24.77-13.88-4.07-.65-8.93-1.34-13.75,1.39-7.62,4.31-8.75,13.58-8.85,14.47a20.77,20.77,0,0,0,3.15,13.09c-1-6.73,1.11-10.85,2-12.37,4.89-8.13,17.6-11.57,30.8-6.86-1-.17-10.52-1.61-16.5,4.95a15.91,15.91,0,0,0-3.54,6.55c10,1.55,13.23,4.84,14.34,7.53,1.28,3.12-.27,5.43,1.58,10.12.72,1.84,2.42,6.17,6.28,7.34,4.41,1.32,10.87-1.7,11.79-7.14a9.62,9.62,0,0,0-4.12-9.13,8.87,8.87,0,0,0,7.07-4.16,8.63,8.63,0,0,0-.58-9.32,23.66,23.66,0,0,0,12.77,6.54c6.22.91,11.43-1.24,16.11-3.17a47.33,47.33,0,0,0,6.75-3.45,29,29,0,0,1-.72-6.53,30.23,30.23,0,0,1,6.38-18.22,18.13,18.13,0,0,0-1.27,2.22c-4.31,8.82-1.16,18.3.65,23.8,3.58,10.76,7.63,11.59,10,20,2.4,8.63.61,16.8-1.44,22.61a58.18,58.18,0,0,0-5.48-25.05c-.1-.21-.18-.4-.28-.6.08.27.17.6.27,1a37.08,37.08,0,0,1-1.19,22.82A36.52,36.52,0,0,1,540,308.4a39.26,39.26,0,0,0,21.16-6.21c6.9-4.53,10.36-10.17,14.35-16.66a84.36,84.36,0,0,0,8.4-18.37c-.7-2.82-1.35-4.78-.93-7.81.78-5.63,4.61-9.83,8-12.61a18.3,18.3,0,0,1,5.21-14.16c.61-.61,7.7-7.31,15.72-4.36,5.24,1.92,7.53,6.75,8,7.93-4.29-3.58-10-4.32-14.28-1.93a12.37,12.37,0,0,0-5.51,7.13c2.12-2,5.68-4.5,10-3.55a11.15,11.15,0,0,1,7.54,6.66,13.41,13.41,0,0,1,1.76,2.86,17.91,17.91,0,0,1,2.1-1.16l-.53.1c2.34-1.23,6.87-3.13,11.92-2,6.2,1.41,9.9,6.66,13.5,11.77,5.34,7.58,4.38,10.4,8.38,14.14,2.78,2.6,7.73,5.44,17.17,5.29a41.11,41.11,0,0,1-10.09-13.35c-3.82-8.24-2.44-13-7.47-21.42-2.12-3.55-4.19-7-8.26-9.12-8.05-4.22-17.26.24-19.13,1.19.85-1,6.31-7.25,14.29-6.88,5.52.26,9.22,3.54,11.79,5.82a31,31,0,0,1,9.26,15.82A31.38,31.38,0,0,0,676,252a20.14,20.14,0,0,0,9.57-1.06c6.9-2.77,9.84-9.33,10.61-11.24a22.15,22.15,0,0,1,.79,8.86,22.41,22.41,0,0,1-3.14,9.12,23.3,23.3,0,0,0,11.13-4.89,23.6,23.6,0,0,0,6.64-8.65c-1.73,4.94-3,9.27-3.89,12.75-.7,2.71-1.2,4.9-1.53,6.69.83-.29,1.48-.55,1.93-.74-.58.56-1.28,1.2-2.13,1.88-.71,4.32-.37,5.92,0,7.11,2.19,6.54,8.73,9.52,10.48,10.31,10,4.54,19.85-.23,21.49-1.06a27.05,27.05,0,0,1-8.78,13c-9.59,7.6-21.34,5.4-25.31,4.35.88,3.15-.68,5.15-2.2,8.71a27.89,27.89,0,0,0,1.83,8.49c1.08,2.77,4.54,11.66,13.75,14.68,11,3.6,20.5-4.37,21.1-4.9,1.21,5.29,4,6.83,4.59,7.14,4.77,2.44,13.23-1.11,18.59-10.47-7.16-2.06-10.09-9-10.34-9.62,5.09,4.35,9.24,5.25,12.06,5.29C767.94,317.71,774.43,315.43,774.5,315.41Zm-290-113.17c-1.23.29-13,2.88-18.87-4.37-.43-.53-4.53-5.75-2.56-12.09a13.41,13.41,0,0,1,7.28-7.94c-.49.95-2.61,5.31-.79,9.52,2.17,5,8.32,6,10.22,6.35,13.1,2.15,24.4-14,25.16-15.07C504.71,179.55,499.72,198.65,484.5,202.24ZM590.62,142a31.25,31.25,0,0,1,26.13,17.45,41.07,41.07,0,0,0-51.09-6.55C566.8,151.54,576,141.2,590.62,142ZM603,173.08c-5.12,2-8,5.08-12.77,9.72-8.69,8.39-14.81,14.31-20.25,18-4.11,2.83-19.65,13.51-34.39,7.73s-18.6-23.74-19.06-26q-3.15-3.87-6.29-7.73c17.75,9.11,26.41,7.86,31,4.76,1-.68.73-.7,8.14-8.06,10-9.94,11.77-11.13,13.28-12,3-1.7,8.07-3.69,15.72-3.37a43.78,43.78,0,0,0-14.73,6.54c-9.69,6.72-10.92,13.67-18.17,18.56-4.61,3.11-12.44,5.92-26.25,3.06.34,1.64,2.77,12.42,13.17,18.24,10.18,5.71,20.29,2.34,22.8,1.39,9-3.41,13.74-10.82,16.69-15.47,4.75-7.46,3.56-10.28,9-18.24,3.53-5.13,6.71-9.75,11.59-11.51,8.12-2.91,19,2.81,27.72,13.09A30.3,30.3,0,0,0,603,173.08Zm-7.13,85c-2.39-4.16-3.94-5.41-4.66-9a18.46,18.46,0,0,1-.27-2c-3.17,4.83-4.86,9.77-3.79,14.48,1.1,4.94,4.56,6.6,7.6,12.42.24.48.49,1,.72,1.49a6.45,6.45,0,0,0,1.83.23,7,7,0,0,0,4.64-2c-1.1-4.16-3.74-6-5.36-12.43C596.37,260.39,596.11,259.33,595.87,258.09Zm.71,3.11c-.21-.81-.47-1.87-.71-3.11-2.39-4.16-3.94-5.41-4.66-9a18.46,18.46,0,0,1-.27-2c-3.17,4.83-4.86,9.77-3.79,14.48,1.1,4.94,4.56,6.6,7.6,12.42.24.48.49,1,.72,1.49a6.45,6.45,0,0,0,1.83.23,7,7,0,0,0,4.64-2C600.84,269.47,598.2,267.67,596.58,261.2Zm0,0c-.21-.81-.47-1.87-.71-3.11-2.39-4.16-3.94-5.41-4.66-9a18.46,18.46,0,0,1-.27-2c-3.17,4.83-4.86,9.77-3.79,14.48,1.1,4.94,4.56,6.6,7.6,12.42.24.48.49,1,.72,1.49a6.45,6.45,0,0,0,1.83.23,7,7,0,0,0,4.64-2C600.84,269.47,598.2,267.67,596.58,261.2Zm0,0c-.21-.81-.47-1.87-.71-3.11-2.39-4.16-3.94-5.41-4.66-9a18.46,18.46,0,0,1-.27-2c-3.17,4.83-4.86,9.77-3.79,14.48,1.1,4.94,4.56,6.6,7.6,12.42.24.48.49,1,.72,1.49a6.45,6.45,0,0,0,1.83.23,7,7,0,0,0,4.64-2C600.84,269.47,598.2,267.67,596.58,261.2ZM428.79,380.47a13.43,13.43,0,0,1-10.53-.28c-5-2.49-7.9-8.44-7.07-14.81-2.13.18-6.8.2-10.35-2.9-2.66-2.33-3.49-5.36-4.72-9.79-1.48-5.39-.75-6.86-1.83-10.44-.9-3-2.93-7.05-8.13-11.24a25.92,25.92,0,0,1-14.53-30.54,32.17,32.17,0,0,1,9.3-16.4,22.43,22.43,0,0,1-5.11-5.68,23.5,23.5,0,0,1-3.54-10.84,26.46,26.46,0,0,0,14.73,6,19.06,19.06,0,0,0,4.6,2.72c-8.13,1.5-15.37-2.69-16.18-3.18.12.63,2.09,9.56,9.16,11.77,4.53,1.41,8.59-.72,11.27-2.12a25.57,25.57,0,0,0,7.21-5.65,19.6,19.6,0,0,0,3.72-1.32,41.91,41.91,0,0,0-6.06,7.68,21,21,0,0,1-3.69,2.47,24.08,24.08,0,0,1-15.33,2.24,31.86,31.86,0,0,0-6.16,20.76c.19,2.47.76,9.83,6.23,15.87a23.36,23.36,0,0,0,5.5,4.42A31,31,0,0,0,405,333.39a25,25,0,0,1-6.93,1.52,25.61,25.61,0,0,1-5.91-.26,19.84,19.84,0,0,1,3.81,6.47c1.19,3.39.63,4.86,1.7,9.52.84,3.65,1.4,6.14,3.14,8.4.9,1.15,3.64,4.24,9.9,5.15a15.7,15.7,0,0,1,6.22-12.49,29.94,29.94,0,0,0-3.14,15c.16,2.63.39,5.58,2.45,8.51a13.19,13.19,0,0,0,6.58,4.86A12.8,12.8,0,0,0,428.79,380.47Zm124.3-100.89c.19-1.59.38-3.43.5-5.49A40,40,0,0,1,551.83,288C552.37,285.33,552.72,282.6,553.09,279.58Zm.67-10.64c0,.13,0,.25,0,.38,0,1.7-.07,3.29-.16,4.77a41.6,41.6,0,0,0-.9-6.67,72.2,72.2,0,0,1-18,18.24c-4.53,3.18-9.13,6.4-15.85,7.93-11.21,2.55-20.83-1.32-25.16-3.43A13.16,13.16,0,0,1,488,302.58a12.91,12.91,0,0,1-13.37.53,30.78,30.78,0,0,1-.78,7.67,29.8,29.8,0,0,1-4.07,9.65c-6,8.75-18.91,9.46-20.44,9.52-6.44,8.09-7.91,14.53-8,19,0,2.85.42,7.33-.78,13.88a54.5,54.5,0,0,1-1.69,6.7q.64,16.56,1.3,33.1a28.24,28.24,0,0,1-11.36-22.2c.46-.08.83-.17,1.12-.24a25.71,25.71,0,0,0,3,11.8,25.09,25.09,0,0,0,5,6.44c-.47-4.51-.82-9.29-1-14.31-.11-3.23-.15-6.37-.13-9.39l-5.38,4.5a79,79,0,0,0,3.8-7.8,72.11,72.11,0,0,0,3.68-10.58c2.08-8.22.5-10.11,2.09-16.39a34.41,34.41,0,0,1,6.15-12.43,34.74,34.74,0,0,1-4.56-1.42c.18-.52.32-1,.44-1.43a31.73,31.73,0,0,1-10.15-12.36c-1.69-3.79-1.94-6.66-4.46-8.19-3.14-1.92-7.59-.39-11,1.32,7.73-4.09,11.37-3.63,13.23-2.25,2.08,1.54,1.47,3.86,3.54,8.07.52,1.05,3.7,7.53,10,10,7.16,2.89,14.52-1,18.21-2.91,2.79-1.46,5.87-3.08,8.25-6.61,4.47-6.62,2.68-14.37,2.23-16.13a12.07,12.07,0,0,0,12.84,1.33,12.29,12.29,0,0,0,6.68-10.45,23,23,0,0,1-5.76-12.16c1.79,3,6.29,9.66,14.54,12.82,11.85,4.55,22.93-1.32,28.43-4.23,13.85-7.33,20.09-19.72,22.27-24.72a31.85,31.85,0,0,1-6.09-12.64c.4-.25.77-.48,1.11-.71a38.52,38.52,0,0,1,5.11,9.12,37.25,37.25,0,0,1,1.77,5.75C553.74,265.92,553.77,267.47,553.76,268.94ZM587,280.5c-1.33,7.74-2.53,14.8-8,21.42a32.82,32.82,0,0,1-42.58,6.88A40.48,40.48,0,0,0,551.82,288a35.64,35.64,0,0,1-3.26,9.43,37.39,37.39,0,0,1-8.58,11c1.8.89,13,6.21,25.42,1.06,12.07-5,16.32-16.32,17.29-18.91a42,42,0,0,0,2.1-18.77,34.77,34.77,0,0,0-.9-4.62c.58-1.78,1.13-3.66,1.62-5.63.85,1.09,1.64,2.17,2.36,3.23h0A68.58,68.58,0,0,1,587,280.5Zm.85-15.73a37.15,37.15,0,0,1,5.5,9.65c-.58-1.27-1.13-2.34-1.57-3.17-.2-.37-.54-1-1-1.85s-1.09-1.88-1.83-3C588.59,265.83,588.24,265.3,587.87,264.77ZM602,273.62a74.38,74.38,0,0,0-4.45-12.48A58.54,58.54,0,0,1,602,273.62Zm0,0,0,.13a.56.56,0,0,0,0-.12Zm1.31,10.06c-1,5.78-5.42,9.61-8.12,11.5a37.16,37.16,0,0,0-1.77-20.76,6.72,6.72,0,0,0,2.1,1,33.22,33.22,0,0,1,2.68,14.91c2.31-3.48,4.87-8.65,4.19-14.54a13.76,13.76,0,0,0-.36-2C603.17,278.37,603.76,280.76,603.26,283.68Zm-12.34-36.94.42-.35-.4.6A2.11,2.11,0,0,1,590.92,246.74Zm30.56-.58a12.91,12.91,0,0,1,7.59-1.22c4.39.72,7.21,3.84,10.31,7.49a19,19,0,0,0-6.51-4.85A19.7,19.7,0,0,0,621.48,246.16Zm23.84,15.31a234.91,234.91,0,0,0-24.89-7.8c-4.93-1.25-8.82-2.06-13.23-.53a19.5,19.5,0,0,0-9.7,8c-.58-1.18-1.12-2.18-1.63-3.05-.73-4-1.11-9.68,2.15-14.34a17.7,17.7,0,0,1,2.09-2.4,14.08,14.08,0,0,1,12.06-1,13.27,13.27,0,0,1,5.45,4.15,12.71,12.71,0,0,1,.71,1.93,11,11,0,0,0-10.48-5.15c-4.83.67-7.31,4.87-7.86,5.82a13.41,13.41,0,0,0-1.58,8.85,21.26,21.26,0,0,1,6.42-4.89c7.65-3.72,15.58-1.48,22.67.53a61.88,61.88,0,0,1,15.59,6.88,21.26,21.26,0,0,0-3-5.17A39.21,39.21,0,0,1,645.32,261.47ZM665,265.7a27.27,27.27,0,0,1-3.14-11.64C663.28,260.39,664,263.56,665,265.7Zm0,0a27.39,27.39,0,0,0,9.23,10C668.48,272.1,666.08,268.16,665,265.7Zm36.82,36.65a9.68,9.68,0,0,1-.15,2.16C701.66,303.75,701.71,303,701.79,302.35Zm-12.58-31.5a19.29,19.29,0,0,0,.39,8.07c.61,2.24,1.65,4.37,4.46,8.06,6.22,8.19,8.52,7.42,9.69,11,0,.13.08.26.11.38-.66-.17-1.1-.32-1.28-.38a27.71,27.71,0,0,0-.79,4.37c-.19-4.16-2.53-7.3-3.8-9-3.24-4.32-6-4.61-8.51-7.27s-4.71-7.72-2.89-18.25a54.16,54.16,0,0,1-24.76-13.75c-.77-3.33-1.33-6.09-1.7-7.93.65.46,1.38.93,2.18,1.41.19.71.33,1.35.43,1.9a38.22,38.22,0,0,0,19.13,14.41,37.83,37.83,0,0,0,24.28-.32c-.08.4-.14.78-.2,1.14a27.93,27.93,0,0,1-16.74,6.18Zm23.58-30.14a25.11,25.11,0,0,1-1.22,3.38C712,243,712.36,241.86,712.79,240.71Zm50.32,51.69a23.06,23.06,0,0,0,.77,10.85A21.06,21.06,0,0,1,763.11,292.4Zm3.79-10.31a25.73,25.73,0,0,0-3.79,10.31,11.38,11.38,0,0,0-1.75,1.6c.15-1.34.36-2.67.57-4,1-6.51,3-9,4.71-12.28A35.07,35.07,0,0,1,766.9,282.09Zm.84,27.81a21.88,21.88,0,0,0,7.11,5.28A20.91,20.91,0,0,1,767.74,309.9Zm5.15,8.5,2.79-2.86A16.11,16.11,0,0,1,772.89,318.4Zm-3.76,19.22a26.1,26.1,0,0,1-8.39,16.79c-8.79,7.84-19.63,6.2-21.09,5.95a17.56,17.56,0,0,1-7.86,7.8c-.47.22-.93.4-1.38.56a28.19,28.19,0,0,1,.86,10.55C729.86,391.73,720.18,399,718,400.55a54.6,54.6,0,0,0,1.83-17.45,53.75,53.75,0,0,0-2.63-13.75c-1.33-.26-5-1.18-6.93-4.36-1.62-2.64-1.29-5.51-.92-8.73.46-4,1.5-4.88,2.09-8.59a25.85,25.85,0,0,0-.25-9.26c-1.91-.63-9.9-3.54-13-11.23-2.31-5.77-.86-11.73-.53-13.09,1.2-4.93,3.33-6.52,3.92-9.58,0,.8,0,1.65,0,2.54a27.41,27.41,0,0,0-2.1,7.83c-.45,3.74-1.34,11,3,16.39,4,5,10.25,5.67,12.7,6,11,1.26,19.29-5.89,21.1-7.53a23.62,23.62,0,0,1-10.09,9.12A23.23,23.23,0,0,1,715,340.93a21.9,21.9,0,0,1-.39,6.61c-.76,3.44-1.8,4-2.5,6.87-.1.49-1.8,7.92,2,11.11,2,1.72,4.77,1.44,7.2,1.19a22.8,22.8,0,0,0,12.84-6.09,29.12,29.12,0,0,1-4.85-3.43,30,30,0,0,1-6-7.27c1.86,1.68,9.51,8.22,20.57,7.8A24.88,24.88,0,0,0,759.43,352,25.43,25.43,0,0,0,768,335.5c5-1.66,8.1-5.78,7.86-9.78a8.68,8.68,0,0,0-2.48-5.29,15.58,15.58,0,0,1-10.62,1.85c-.41-.08-.8-.18-1.18-.29a16.2,16.2,0,0,0,11.36-3.59c.59.38,4.58,3.05,5,7.72C778.36,331,774.8,336,769.13,337.62Zm-349.29-59.5a32.13,32.13,0,0,0,6.68-8.19c5.79-10.17,4.24-20.61,3.54-24.2,4.73,8.16,4.88,17.74.26,24.59A20.71,20.71,0,0,1,419.84,278.12Zm17-84.21a42.66,42.66,0,0,1-4.59,8.59c-3.37,4.88-6.27,6.84-13.76,13C404.45,227,402,230.41,400.58,232.64c-.23.37-.71,1.14-1.3,2.24h0c-1.6,1.54-3.22,3.21-4.86,5,4.67-12.07,10.87-18.73,15.85-22.61,4.12-3.21,7.94-4.94,13.63-10.18a68.85,68.85,0,0,0,10.87-12.83,46.65,46.65,0,0,0-12.18,1.19,47.34,47.34,0,0,0-18.34,8.86c.43-.63,1.17-1.67,2.21-2.92-.27.52-.43.89-.51,1.07a36.69,36.69,0,0,1,15.59-8.2A36.29,36.29,0,0,1,436.87,193.91ZM502.51,165a30.07,30.07,0,0,1-14.67-14.32,30.67,30.67,0,0,1-2.37-18.84,40.33,40.33,0,0,0,2.87,8.08A41.33,41.33,0,0,0,492,151.47,42.64,42.64,0,0,0,502.51,165Zm194.06,28.84a17.36,17.36,0,0,0-3.82-9.84c-2.23-2.59-6-5-9.18-6.86a23.42,23.42,0,0,0-2-4.25c2.83.46,8,1.79,11.4,6.15C695.93,182.76,696.18,186.91,696.57,193.83Zm.13,4a69.76,69.76,0,0,1-.89,11c-.56.91-1.12,1.72-1.62,2.42A52.56,52.56,0,0,0,696.7,197.82Z" fill="#fff" opacity="0.5" style="mix-blend-mode:overlay"/><path d="M399.2,304.07a15,15,0,0,0,6.19,8.83c-.18-.36-3.92-8,0-14.28,3.68-5.89,12.54-8.2,20.25-4.07-6.47-1.3-12.52.56-15.53,4.86a11.29,11.29,0,0,0-2,5.65c-.35,5.52,3.53,11.08,9.73,14.38-1.08.31-8.85,2.41-15.43-2.48a15.61,15.61,0,0,1-5.6-7.63c-2.86-9,4.42-16.93,4.72-17.26A15.33,15.33,0,0,0,399.2,304.07Zm56.22-59.81a49.38,49.38,0,0,1,2.41-7.39,32.63,32.63,0,0,0-7.33,3.84,33.14,33.14,0,0,0-9.18,9.78,47.47,47.47,0,0,1,13-27c-.15-.13-12,8.29-16.78,22.61-4.12,12.27-1.36,23.69.53,29.48a81,81,0,0,1,14.8-32.26c0,1.36,0,2.82.14,4.37a51.1,51.1,0,0,0,1,7.11A50.29,50.29,0,0,1,455.42,244.26Zm-3.94-64a26,26,0,0,1,34.78-16.46c-7.86-6.46-18.63-7-26.13-1.73C451.37,168.22,451.46,179.31,451.48,180.22Zm61.9,55.33c.78.27,2.35-11.16,10.62-15.27,6-3,13.13-.89,18.27,1.39-5-6.87-13.59-9.32-20.24-6.35C511.56,220,512.51,235.25,513.38,235.55Zm49.92,10.91a38.83,38.83,0,0,1,3.93-10.31A45.38,45.38,0,0,0,570,252.41a28.59,28.59,0,0,1,19.66-28.76A20.2,20.2,0,0,0,574.7,227a34.59,34.59,0,0,1,21.82-12.1,33.42,33.42,0,0,0-12.58,0c-2.39.46-14,2.71-20.64,13.09-8.76,13.7-1.17,29.56-.78,30.34A38.51,38.51,0,0,1,563.3,246.46ZM542.08,189c16.55-2.25,23.47-8.25,26.72-13.35s2.65-9,7.34-13.09c6.89-6,16.71-4.87,20.07-4.49a34.89,34.89,0,0,1,17.6,7.35c-.7-.88-12.68-15.43-27.58-12.77-9.26,1.65-15.59,9.22-17.16,11.1-5.29,6.33-4.51,10.12-9.31,15.6S548.49,187.61,542.08,189Zm-1.84-35.56a61.36,61.36,0,0,1,62.37-6.88c-1.84-1.83-13.14-12.75-30.4-11.89C552.11,135.67,541.32,151.78,540.24,153.45Zm107.18,27c-6.81-.42-13.75,4.63-17.1,12.69,3.67-3.22,9.64-7.4,16.8-7,8.4.42,13.9,6.84,14.54,6.05S656.55,181,647.42,180.42Zm-22.31,44.23c.59-.69,9.61-10.8,21.22-8.63,6.24,1.17,10.36,5.34,11.89,6.94a26.36,26.36,0,0,1,6.69,12.69A24.13,24.13,0,0,0,661,217.8a34.49,34.49,0,0,1,9,5.85A35.33,35.33,0,0,1,679.55,238a22,22,0,0,0-4.72-17.15c-6.83-8-16.8-7.33-17.78-7.24a21,21,0,0,0-14.45-4C634.76,210.62,628,216.46,625.11,224.65Zm103.54,22.14a38.21,38.21,0,0,1,14.67,14c7.64,12.88,4.9,26.05,4.19,29.08,6.08-9.15,6.6-20.81,1.31-29.88C742.33,248.86,730.21,247,728.65,246.79Z" fill="#fff" opacity="0.6" style="mix-blend-mode:overlay"/><path d="M510,170.24c-.91-.51-2.05-1.2-3.34-2.07C507.88,168.89,509,169.59,510,170.24Zm41.36,55.15a33.47,33.47,0,0,1,5.9-6.11A23.37,23.37,0,0,0,551.34,225.39ZM772.14,338a31.33,31.33,0,0,1-8.9,17.05c-9.74,9.43-22.2,8.63-24.24,8.46L734.28,369a47,47,0,0,1-.92,10.85,51.18,51.18,0,0,1-8.91,19.7,62,62,0,0,1-11.92,12.82,233.28,233.28,0,0,0,2.36-30.41q.06-5.71-.13-11.1a14.42,14.42,0,0,1-6.94-6.35,12.9,12.9,0,0,1-1.58-6.08c0-4.17,2.15-5.57,3.28-10.18a20.82,20.82,0,0,0,.26-8.33,24.06,24.06,0,0,1-12.84-31.6c1.68-3.83,3.48-4.64,3.28-7.27-.38-4.64-6.27-6.22-10.62-10.58-3.42-3.44-6.9-9.62-6.68-21.68a28.57,28.57,0,0,1-19.52-11.9,25.25,25.25,0,0,0,16.77,19.57,26.12,26.12,0,0,1-18.6,1.32c-11.36-3.59-15.67-13.91-16.25-15.34a39.48,39.48,0,0,0-24.89-8.72,38.89,38.89,0,0,0-20.31,6.08A29.83,29.83,0,0,1,605.75,278c-.51,14.16-11.44,22.27-12.84,23.27a36.91,36.91,0,0,0,.92-20.62,36.15,36.15,0,0,0-5.9-12.56A36.07,36.07,0,0,1,589,290.29a34.14,34.14,0,0,1-8.65,14.94c-8.68,8.55-19.43,9.28-23.05,9.52A40.72,40.72,0,0,1,534,309.06a33.26,33.26,0,0,0,13.89-14.14A33.8,33.8,0,0,0,550.72,273c-1.7,3.11-9.16,15.89-25.15,21.28a45,45,0,0,1-27.91.14,17.57,17.57,0,0,1-8,10.84,17.22,17.22,0,0,1-13.36,1.58,27.21,27.21,0,0,1-7.47,17.85,26.42,26.42,0,0,1-16.25,7.8,17.19,17.19,0,0,0-4.06,4.37c-1.54,2.38-2.1,4.58-3.14,11.9s-1,8.51-1.71,12.16a66.55,66.55,0,0,1-2.62,9.52l2.46,40.36a35.92,35.92,0,0,1-16.61-26.68,16.35,16.35,0,0,1-11.59-4.16,16.91,16.91,0,0,1-5.31-12.2,14,14,0,0,1-8.55-2.38c-1.35-1-3.24-2.75-7-12.89-3.15-8.53-2.74-9.79-5-13.09s-3.56-3.26-8.64-7.83c-6.12-5.5-10.09-9.08-12.19-14.68-2.63-7-.93-13.63-.19-16.46a32.51,32.51,0,0,1,9.63-15.86,16.2,16.2,0,0,1-7.47-7.54c-3.22-6.86-.13-13.42.29-14.28a24.09,24.09,0,0,0,11,7.44,23.77,23.77,0,0,0,11.79.69,54,54,0,0,1-2.85-24.59c.53-4.46,1.6-12.67,7.07-20.62,3.78-5.5,6.89-6.85,16.51-14.68,4.35-3.54,10.3-8.63,17.1-15.27a57.76,57.76,0,0,0-30,13.39c1-5.26,3.93-15.58,12.68-23.21,2.46-2.16,5.74-4.93,10.81-5.85,7.85-1.42,14.2,2.7,16,4-.15-3-.12-10.51,4.92-17.06,2.83-3.69,6-5.45,9.63-7.43a38.77,38.77,0,0,1,21-5.36,36.62,36.62,0,0,1,12,2.68,27.2,27.2,0,0,1-5.89-14,27.83,27.83,0,0,1,4.81-18.74,38.27,38.27,0,0,0,6.88,15.67c2.19,2.93,4.48,6,8.45,7.73,3.14,1.4,7.85,2.25,17.79-1.09s13.81-7,21.32-11.21a89.4,89.4,0,0,1,34.1-10.9c7.24-.69,17.84-1.56,29.67,3.67a51.77,51.77,0,0,1,17.59,12.89,55.4,55.4,0,0,1,26.43,3.07c6,2.27,11.93,4.54,16.71,10.31,2.91,3.52,3.3,5.81,7.57,9.82a45.09,45.09,0,0,0,9.72,6.84c5.25,2.72,6.76,2.17,9.53,4.36a17.6,17.6,0,0,1,5.8,9.92A26.25,26.25,0,0,0,702,167.63c-2.84-14-16.89-19.25-17.69-19.54,3.86-.12,25.48-.47,36.17,13a20.91,20.91,0,0,1,4.71,10c1.52,9.86-5.42,17.67-6.78,19.14a45.77,45.77,0,0,1,25.26,6.15,42.93,42.93,0,0,1,11.49,9.91c5.12,6.45,6.87,12.72,8.55,18.74a75.07,75.07,0,0,1,2.72,18.58c6.58,9.12,7.41,16.55,7.34,20.75-.09,4.67-1.37,8.8-3.93,17.06-3.4,10.93-5,12.09-4.85,16,.21,4.29,2.55,10.48,13.1,17.71l-2.75,4a11.3,11.3,0,0,1,4.32,7.67C780,331.38,777,336,772.14,338Zm3.67-12.3a8.62,8.62,0,0,0-2.49-5.29,15.5,15.5,0,0,1-10.61,1.85c-8-1.58-11.28-9.27-11.53-9.91,5.09,4.35,9.24,5.25,12.06,5.29,4.7,0,11.19-2.23,11.26-2.25C765.92,310.33,763,305,763,305c-2.66-4.84-1.83-10-1-14.94,1.55-9.7,5.21-10.4,6.81-18.37,1.82-9.15-1.24-17-3.67-23.27-3.29-8.46-7.75-13.91-11.53-18.51a88.33,88.33,0,0,0-14.94-14.41,38.28,38.28,0,0,1,20.31,14.28,36.75,36.75,0,0,0-8.65-21.69c-6.16-7.1-13.46-9.59-17.68-11a47.38,47.38,0,0,0-27.25-.4,31.67,31.67,0,0,0,10.35-9.91c1.54-2.38,5.09-7.87,4.71-13.75-.54-8.3-8.83-16.08-20.44-19.17,1,.82,9.72,8.59,8.78,20.62a24.72,24.72,0,0,1-7.33,15.47,37.38,37.38,0,0,1-1,8.06,37.85,37.85,0,0,1-6.16,13.23c1.7-5.39,5.37-19.33-1.44-27.24-2.74-3.17-7.74-6-11.27-8.06-6.22-3.57-7.86-3.22-11.53-6.35-3.92-3.34-3.65-5.09-8.12-9.78a49.08,49.08,0,0,0-9.57-7.67c-7.82-4.64-16.18-5.3-22-5a27.79,27.79,0,0,0,21,11.9c-5.11.51-12.46.39-19.53-3.44-5.91-3.2-7-6.5-13.88-12.56-2.95-2.58-11.42-10-22.15-13.22C584,126.3,573.89,129,566.58,131c-10.47,2.8-11.64,5.57-34.85,16.27-15.3,7-19.24,7.9-23.72,7.13-10.34-1.76-16.93-11-19.91-16A42.35,42.35,0,0,0,492,151.47a43.39,43.39,0,0,0,14.61,16.7A67.37,67.37,0,0,0,492.81,162c-6.68-2.09-15.41-4.83-25.81-2.24-3.71.92-10.67,2.65-16.24,9.12a28.91,28.91,0,0,0-6.68,18.51,28.14,28.14,0,0,0-17.82-2.25c-13.86,3-19.7,15.9-20.31,17.32a36.23,36.23,0,0,1,30.92-8.59,43.18,43.18,0,0,1-4.59,8.59c-3.37,4.88-6.27,6.84-13.75,13C404.45,227,402,230.41,400.58,232.64a46,46,0,0,0-4.85,10.71,49.92,49.92,0,0,0-.79,25.78,26.71,26.71,0,0,0,7.73-7.8A28.37,28.37,0,0,0,407,244c.72,2.13,3.5,11-.92,20.23-1,2.16-3.69,7.49-9.69,10.45-9.86,4.86-20-1-21-1.59.13.63,2.1,9.56,9.17,11.77,4.52,1.41,8.59-.72,11.27-2.12,9.35-4.88,13-14.49,14.15-18.11-.06.95-1.21,15.06-13,21.29a24.07,24.07,0,0,1-15.33,2.24,31.91,31.91,0,0,0-6.16,20.76c.19,2.47.76,9.83,6.23,15.87a23.29,23.29,0,0,0,5.5,4.42A31,31,0,0,0,405,333.39a25.19,25.19,0,0,1-7,1.52,24.89,24.89,0,0,1-5.89-.26,20.32,20.32,0,0,1,3.8,6.47c1.19,3.4.63,4.86,1.7,9.52.83,3.65,1.4,6.14,3.14,8.4.9,1.16,3.64,4.24,9.9,5.15a15.7,15.7,0,0,1,6.22-12.49,30,30,0,0,0-3.14,15c.16,2.63.39,5.58,2.45,8.51a13.18,13.18,0,0,0,6.59,4.85,12.75,12.75,0,0,0,7.11.16,25.88,25.88,0,0,0,3,11.8,24.91,24.91,0,0,0,5,6.44c-.47-4.51-.81-9.29-1-14.31-.12-3.23-.15-6.37-.13-9.39l-5.37,4.5c1.11-2,2.45-4.65,3.8-7.8a75.36,75.36,0,0,0,3.67-10.58c2.08-8.22.5-10.11,2.09-16.39a34.3,34.3,0,0,1,6.16-12.43c-8.41-2-12.24-5.68-14.15-8.86-3-5-1.89-10-5.63-12.69-2.9-2.06-6.89-1.45-10-.53,7.74-4.09,11.36-3.63,13.23-2.25,2.09,1.54,1.46,3.86,3.54,8.07.51,1.05,3.71,7.53,10,10,7.16,2.89,14.52-1,18.21-2.91,2.79-1.46,5.87-3.08,8.25-6.61,4.47-6.62,2.68-14.36,2.23-16.13a12.07,12.07,0,0,0,12.84,1.33,12.31,12.31,0,0,0,6.68-10.45,23.54,23.54,0,0,1-3.41-4.89,23.17,23.17,0,0,1-2.35-7.27c1.79,3,6.3,9.66,14.54,12.82,11.86,4.55,22.93-1.32,28.43-4.23,13.85-7.34,20.09-19.72,22.27-24.72A31,31,0,0,1,545,243.62a30.25,30.25,0,0,1,6.37-18.2,19.42,19.42,0,0,0-1.26,2.2c-4.31,8.83-1.17,18.3.65,23.8,3.57,10.76,7.63,11.59,10,20,2.4,8.63.61,16.8-1.44,22.61a58.62,58.62,0,0,0-.92-10.71,58,58,0,0,0-4.84-14.94,37.3,37.3,0,0,1-.92,23.8A36.52,36.52,0,0,1,540,308.4c1.8.89,13,6.22,25.42,1.06,12.07-5,16.32-16.32,17.29-18.91a42,42,0,0,0,2.1-18.77c-.75-5.85-2.45-8-1.84-12.43.82-5.87,4.94-10.19,8.39-13-3.43,5-5.3,10.17-4.19,15.08s4.56,6.6,7.6,12.42a32.45,32.45,0,0,1,3.4,16.4c2.31-3.48,4.87-8.65,4.2-14.54s-3.9-7.09-5.77-14.55c-.85-3.39-2.84-11.34,1.44-17.45.45-.64,5.36-7.44,12.06-5.95,3.87.86,7,4.21,8.25,8.59a11.05,11.05,0,0,0-10.48-5.15c-4.84.67-7.31,4.87-7.86,5.82a13.32,13.32,0,0,0-1.57,8.85,21.2,21.2,0,0,1,6.41-4.89c7.65-3.72,15.59-1.47,22.67.53a61.72,61.72,0,0,1,15.59,6.88,20.33,20.33,0,0,0-10.22-10.85A19.69,19.69,0,0,0,621,246.26c2.35-1.23,6.87-3.13,11.92-2,6.19,1.41,9.89,6.66,13.5,11.77,5.35,7.59,4.38,10.4,8.38,14.14,2.78,2.59,7.73,5.44,17.17,5.29a41,41,0,0,1-10.09-13.35c-3.82-8.23-2.44-13-7.47-21.42-2.12-3.55-4.18-7-8.25-9.12-8.05-4.21-17.28.24-19.13,1.19.85-1,6.3-7.25,14.28-6.88,5.52.25,9.22,3.54,11.79,5.82a31.7,31.7,0,0,1,9.69,17.72,37.31,37.31,0,0,0,45.34,13.35,28.8,28.8,0,0,1-10.75,6.61,27.72,27.72,0,0,1-8.12,1.45,19.47,19.47,0,0,0,.39,8.07c.61,2.25,1.65,4.37,4.46,8.06,6.22,8.19,8.51,7.42,9.69,11,1.72,5.16-3,7.16-4.19,16.92-.46,3.73-1.33,11,3,16.39,4,5,10.26,5.67,12.71,6,11,1.26,19.3-5.89,21.1-7.53a23.61,23.61,0,0,1-10.09,9.12A23.11,23.11,0,0,1,715,340.93a21.59,21.59,0,0,1-.39,6.61c-.76,3.44-1.8,4-2.49,6.87-.23.95-1.53,6.88,2,11.11a10.7,10.7,0,0,0,5.72,3.44q-.81,15.36-1.64,30.72A48.34,48.34,0,0,0,725.8,388a50,50,0,0,0,4.61-19.32q1.86-4.05,3.74-8.1a29,29,0,0,1-4.85-3.43,29.77,29.77,0,0,1-6-7.27c1.85,1.68,9.5,8.23,20.56,7.8a24.92,24.92,0,0,0,15.6-5.69A25.47,25.47,0,0,0,768,335.5C772.93,333.84,776.05,329.72,775.81,325.72ZM510,170.24c-1-.65-2.1-1.35-3.34-2.07C507.93,169,509.07,169.73,510,170.24Zm41.36,55.15a33.47,33.47,0,0,1,5.9-6.11A23.37,23.37,0,0,0,551.34,225.39Z" fill="#000001"/></g></g></g></svg>