<svg xmlns="http://www.w3.org/2000/svg" viewBox="0 0 1080 1920"><g style="isolation:isolate"><g id="hair"><g id="_26" data-name="26"><path d="M447,343.42c-.92,4.14-2.22,10.61-3.23,18.64-.75,6-1.12,11.16-1.93,30.34-.25,5.75-.55,13.31-.88,22.21A127.69,127.69,0,0,1,419,379.31a129.49,129.49,0,0,1-9.3-38.08A56,56,0,0,1,395,281.67a53.08,53.08,0,0,1,4.14-8.86,119.69,119.69,0,0,1,1.93-16.26,116.84,116.84,0,0,1,10.6-31.33c3.48-6.73,12.89-24.41,32.81-37.68a90.17,90.17,0,0,1,17.57-9.12,48.87,48.87,0,0,1,17.44-16A47.17,47.17,0,0,1,497.35,157a80.83,80.83,0,0,1,31.91-19.7c14.41-4.65,26-3.61,41.08-2.25a142.47,142.47,0,0,1,83.32,34.24,47.24,47.24,0,0,0-14.08-20,45.55,45.55,0,0,0-19.25-9.39c1.46-.23,31.69-4.7,47.67,12.83,3.94,4.31,9.53,10.45,10.34,19.3.63,7-2.07,11.55.38,13.75,3.09,2.76,8.56-3.43,17.57-2.91,10.27.59,17.49,9.43,20.15,12.69a40.75,40.75,0,0,1,8.79,21.82c3.47,2.21,15.47,10.47,19.5,26.18a42.84,42.84,0,0,1,.91,16.39,62.64,62.64,0,0,1,10.46,26.44c.84,5.77,2.95,21.91-6.46,37.15A47.69,47.69,0,0,1,738,336.41a193.22,193.22,0,0,1-27.26,77.21,251.23,251.23,0,0,0-5-55.26c-1.57-7.68-3.42-14.87-5.42-21.56a29.34,29.34,0,0,0-6.72.53c-.77.16-1.51.34-2.2.53a18.08,18.08,0,0,1-9,2.51,17.54,17.54,0,0,1-5.3-.79c-.25-2.78-.47-5.65-.64-8.59s-.31-6-.39-8.86a105.07,105.07,0,0,1-3.75,13c-1.32,3.66-1.82,4.42-2.32,5-2.6,3.1-6.63,3.61-14.86,4-4.88.21-10.85.35-17.69.26-.18-1.89-.35-3.79-.52-5.68a27.36,27.36,0,0,1-6.59,4.62,26.85,26.85,0,0,1-5.81,2.12q-.88-12.19-1.81-24.46-1.14-15-2.33-29.88c-1.61,4.39-3.52,9.05-5.81,13.88-1.27,2.69-2.57,5.25-3.87,7.67a128.41,128.41,0,0,0-3,23.73c-.11,3.06-.1,6,0,8.79L558,343.48c-6.21,4.07-10.7,4.41-14,3.5-3.69-1-4.46-3.32-8.39-4.42-5.34-1.5-9.36,1.21-13.89,2.57-5,1.52-12.51,1.95-23.25-2.9a61.18,61.18,0,0,1-14.47-22.88,62.35,62.35,0,0,1-3.49-23.8,100.73,100.73,0,0,0-2.71,37.29,96.45,96.45,0,0,0,1.94,11q-10.49-.31-21.32-.39Q452.67,343.38,447,343.42Z" fill="#42210b"/><path d="M751,291a61.11,61.11,0,0,0-10.65-30.34c2-9.85.19-16.54-1.26-20.13s-3.51-6.74-15.41-18.45c-3.11-3.06-6-5.81-8.54-8.21l0,0a50.74,50.74,0,0,0-29.95-4.53,63.64,63.64,0,0,1,15.49,8.46,67.37,67.37,0,0,1,21.19,27A87.33,87.33,0,0,0,692.42,221a83.85,83.85,0,0,0-18.86-6.61,51.24,51.24,0,0,1,3.87,7.14,54.55,54.55,0,0,1,4.65,21.15c-1-4.29-3.92-14.89-13.44-23a38.55,38.55,0,0,0-11.1-6.62,65.31,65.31,0,0,0-12.66-18c-18.69-18.65-43.11-19.35-50.12-19.3,4-1,43-9.66,63.81,14a44.83,44.83,0,0,1,8,13.22,39.82,39.82,0,0,1,43.73,6l9.55,3.65A36.26,36.26,0,0,0,712,197.55c-2.69-3.06-8.43-9.57-17.73-10.51-11.34-1.14-19.4,6.86-20.63,8.13a37.63,37.63,0,0,0,1.44-17.25,38.81,38.81,0,0,0-5.81-15.07c-8.66-13.15-23.24-16.23-26.65-16.86,9,5,14.66,13.36,14.25,21.82a19.13,19.13,0,0,1-2.62,8.62,171.09,171.09,0,0,0-29.54-19.73,132.8,132.8,0,0,0-60.17-16.76c-15.22-.65-25-1.06-36.72,3.38l0,0a73.56,73.56,0,0,0-15.56,13.06,80.92,80.92,0,0,0-9.1,12.5,40.48,40.48,0,0,1,32.94-4.57c-4.39.37-20.32,2.26-32.84,15.77a51.37,51.37,0,0,0-11.92,22,50.28,50.28,0,0,1-1.85-19.43,47.86,47.86,0,0,1,.83-5.28c-.91,1.67-1.65,3.21-2.28,4.58a28,28,0,0,1,.48-11,27.49,27.49,0,0,1,3-7.34,42.32,42.32,0,0,0-13.08,5.85,43.54,43.54,0,0,0-12.69,13.19c-.53.26-1.06.52-1.58.79a26.14,26.14,0,0,0-.36,6.74c.72,9.28,6.34,14.88,5.33,15.72s-7.39-3.59-10.57-10.66a23.74,23.74,0,0,1-1.94-7.63,110.49,110.49,0,0,0-17.91,13.48,113.59,113.59,0,0,0-24.9,33.64,51,51,0,0,0-1.07,9.69,52.77,52.77,0,0,0,.77,9.72A56.2,56.2,0,0,1,424,243.66a55,55,0,0,1,18-9.12,62.65,62.65,0,0,0-24.61,26.57c-2.61,5.44-8.32,17.32-5.62,32.53a48.25,48.25,0,0,0,10.07,21.8,79,79,0,0,1,1.88-22.79C430,265.51,449,250.09,449.3,250.34s-10.8,13.51-19,35a67.87,67.87,0,0,0-4.78,20.23,64.16,64.16,0,0,0,1.55,18.91,68.63,68.63,0,0,1,2.85-11.77c.24-.74.5-1.45.76-2.15a161.11,161.11,0,0,1,12.62-34.3c-2.91,6.34-9.94,24.69-2.09,43.13a45.69,45.69,0,0,0,9.3,13.88,97.89,97.89,0,0,1,3.69-27.37,95.56,95.56,0,0,1,4.07-11.5c-5.31,13.21-2.86,26.19,4.65,31.53,1.48,1.06,5,3.11,10.89,2.78A156.9,156.9,0,0,1,475,307.3v0c.37-3,.83-6.06,1.42-9.21a157.07,157.07,0,0,1,11.1-35.7,92.48,92.48,0,0,0-4.26,22.21,84.07,84.07,0,0,0,1,22,46.82,46.82,0,0,0,11,16.83,37.8,37.8,0,0,0,17.25,10.11,36.49,36.49,0,0,0,21.32-1.19,35.32,35.32,0,0,1,2.9-22,23,23,0,0,0,4.65,14.47,22.21,22.21,0,0,0,15.31,8.33A149.76,149.76,0,0,1,555.35,318a147.13,147.13,0,0,1,1.75-28.76c.06,8.62,1,21.2,5.43,31.93a10.14,10.14,0,0,0,4.07,5.36c6.36,3.67,16.25-3.49,19.37-5.75a41.94,41.94,0,0,0,12.19-14.05q-1.3,2.53-2.63,5.07,1.94-3.42,3.49-6.71s0,0,0,0a110,110,0,0,0,8-23.14,57.73,57.73,0,0,1-.39,8.06c-1.19,9.89-4.74,17-7.62,22.61a92,92,0,0,1-10.24,15.78l-.28.35c.19-.14.39-.27.57-.41a70.6,70.6,0,0,0,19.08-20.41,78.14,78.14,0,0,0,8.24-19,102.66,102.66,0,0,0,4.55-26.48c.2,3.13.34,6.37.39,9.72.09,5,0,9.76-.19,14.28.78,2.46,1.79,6,2.72,10.21a130.7,130.7,0,0,1,2.61,22,225.1,225.1,0,0,1,.09,23.1,21.07,21.07,0,0,0,10-11.11,21.37,21.37,0,0,0,1.16-10.55c.45,2.28.85,4.71,1.16,7.28a106.48,106.48,0,0,1,.78,13.78,83.45,83.45,0,0,0,10.17-.79,84.84,84.84,0,0,0,17.73-4.46,111.65,111.65,0,0,0,3.29-13.39,117.29,117.29,0,0,0-2.62-51.86,150.83,150.83,0,0,1,12,65.84,41.54,41.54,0,0,0,8.14-.1,42.74,42.74,0,0,0,10.94-2.67,35.62,35.62,0,0,0,7.37-13.39A37.2,37.2,0,0,0,706,297.8a39.45,39.45,0,0,1,5.43,10.41,40.37,40.37,0,0,1,2.13,15.08,85.31,85.31,0,0,0,2.33-23.5,87.57,87.57,0,0,0-3.2-19.94,89.05,89.05,0,0,0-18.12-33.51A57.66,57.66,0,0,1,705,256.06c10.07,12,12.65,25,14.05,32.49,1.34,7.18,3,16.72.2,28.62a60,60,0,0,1-9.75,21.22,70.12,70.12,0,0,0,.32-7.07A67.53,67.53,0,0,0,709,321.2a49.16,49.16,0,0,1-2.78,8.6,46.91,46.91,0,0,1-3,5.88,179.57,179.57,0,0,1,11,61.08,186.21,186.21,0,0,0,8-18.44,196.93,196.93,0,0,0,8.14-29c4.71-24.8,1.88-48.3,0-59.89a110.27,110.27,0,0,1,7.94,43.24C741.34,328.68,752.5,313,751,291ZM617.23,203.8c-21,6.38-36.69,26.78-41.34,52.36,1.59-28.29,14.16-51.68,33.57-59.29a40.64,40.64,0,0,1,17.59-2.59,119.28,119.28,0,0,0-48-4.49c-37.13,4.19-61.72,25-70.79,33.58,2.49-4.11,25.27-40.14,67.43-43.1,25.37-1.79,44.36,9.35,51.41,14a27.7,27.7,0,0,1,11.63,3.17,28.25,28.25,0,0,1,8,6.35A52.85,52.85,0,0,0,617.23,203.8Z" fill="#fff" opacity="0.5" style="mix-blend-mode:overlay"/><path d="M440.51,275.19A67.38,67.38,0,0,1,455,242a64.75,64.75,0,0,1,29.46-20.36,47.53,47.53,0,0,0-19.12,16.66,39,39,0,0,0-3.1,12.82c-.25,3.63,0,7.92.9,8.07s1.37-4.77,5.3-9.13c3.1-3.44,7.83-5.87,9.3-4.62,1,.84-.1,2.86-.91,8.33-.76,5.22-.81,10.47-.25,10.57.77.14,1.18-9.89,7-18.77a36.29,36.29,0,0,1,13.18-11.9c-5.77,5-12.92,12.9-15.25,24.06-1.92,9.21.16,17.15-1.93,17.72s-6.49-5.73-7.37-12.56c-.72-5.62,1.22-10.14.13-10.58-.89-.37-2.9,2.45-4,4.36-3,5.31-2.27,9.24-3.62,9.52-1.7.36-5.29-5.39-6.2-11.9-.73-5.27.6-8.86-.39-9.25-1.23-.49-4.32,4.71-6.33,8.2C448.81,258.38,444.82,265.75,440.51,275.19Zm73.38-5.35c1.56-7.69,4.58-14.31,5.42-14.08s-1.46,6.66-.19,15.47c1.22,8.39,5.31,16.43,7.75,16.06,3.37-.51,1.64-16.76,8.92-19.63a6,6,0,0,1,3.1-.4c5.55.83,7.53,9.94,9.3,9.52,1.32-.31.36-5.48,1.74-10.91,1.5-5.89,5.27-10.16,8.72-13.09-3.41,1.29-7.3,3.5-9.49,7.54-1.79,3.3-1.91,6.81-3.3,6.94s-1.88-4-5.23-5.75c-3.07-1.57-6.65,0-7.17.2-6.57,2.83-7.28,12-8.72,11.7-1.67-.29-2.93-12.83,1.55-25.78A55.1,55.1,0,0,1,537,229.38c-2.79,1.39-19.25,9.91-25,29.75a49.76,49.76,0,0,0,1.55,31.53A58.9,58.9,0,0,1,513.89,269.84Zm55.8-18c5.06-25.06,16.78-40.19,15.7-40.85s-14,12.87-19.38,33.12c-6.26,23.54.6,45.11,1.75,45C568.73,289,565.3,273.56,569.69,251.79Zm94.76,15.47c-1.42-5.81-3.61-9.42-2.33-10.51,2.7-2.3,15.88,10.67,17.83,8.73.39-.4.09-1.16-1-4.56-2.09-6.73-3.12-10.1-2.52-10.52.23-.16,1.15-.39,8.53,7.54,6.89,7.41,9.66,11.46,10.66,10.91s-.18-4.09-1.17-7.54c-1.93-6.74-4-9.94-3.48-10.31.73-.53,6.15,5.13,11.23,12.69,6.88,10.24,8.87,17.62,9.3,17.45.63-.24-1.13-16-12.4-27.56-6.85-7-15.5-10.71-16.08-9.92-.29.4,1.57,1.9,3.88,6,1.37,2.41,3.05,6,2.51,6.35s-2.09-2-5-4.56c-4.61-4.11-10.68-7.54-11.82-6.35-.6.63.63,2,1.55,6.54.61,3,1.08,5.28.19,6-1.28,1-4.53-2.05-9.11-5.15-5.36-3.64-14.61-8.78-16.08-7.14s7.36,8.64,11.82,22,1.63,24.55,2.33,24.59S667.62,280.21,664.45,267.26Z" fill="#fff" opacity="0.6" style="mix-blend-mode:overlay"/><path d="M637.13,317.24a20.19,20.19,0,0,1,.58,2.81C637.53,319.08,637.33,318.15,637.13,317.24Zm112.51,6.34A47.86,47.86,0,0,1,738,336.41a193.22,193.22,0,0,1-27.26,77.21,251.89,251.89,0,0,0-5-55.26c-1.57-7.68-3.42-14.88-5.42-21.56a29.38,29.38,0,0,0-6.72.53c-.78.16-1.51.33-2.2.53a18.15,18.15,0,0,1-9,2.51,17.28,17.28,0,0,1-5.3-.79c-.24-2.79-.47-5.65-.64-8.59s-.31-6-.39-8.86a105.57,105.57,0,0,1-3.75,13c-1.32,3.66-1.83,4.42-2.32,5-2.61,3.11-6.63,3.6-14.86,4-4.88.21-10.85.35-17.69.26-.18-1.89-.35-3.79-.52-5.68a27.85,27.85,0,0,1-6.59,4.62,26.85,26.85,0,0,1-5.81,2.12q-.88-12.19-1.81-24.46-1.12-15-2.33-29.88c-1.61,4.4-3.53,9-5.81,13.88-1.27,2.69-2.57,5.25-3.87,7.67a128.53,128.53,0,0,0-3,23.73c-.11,3.05-.1,6,0,8.79L558,343.48c-6.21,4.07-10.71,4.41-14,3.5-3.69-1-4.46-3.32-8.39-4.42-5.34-1.49-9.36,1.21-13.89,2.57-5,1.52-12.51,1.95-23.25-2.9a61.06,61.06,0,0,1-14.47-22.88,62.12,62.12,0,0,1-3.49-23.8,100.48,100.48,0,0,0-2.71,37.29,96.45,96.45,0,0,0,1.94,11q-10.49-.31-21.32-.39c-3.86,0-7.7,0-11.5,0-.92,4.14-2.21,10.62-3.23,18.64-.76,6-1.13,11.16-1.93,30.34-.25,5.75-.55,13.31-.88,22.21A127.69,127.69,0,0,1,419,379.31a129.42,129.42,0,0,1-9.3-38.08A56,56,0,0,1,395,281.67a53.47,53.47,0,0,1,4.14-8.86,119.52,119.52,0,0,1,1.93-16.26,116.32,116.32,0,0,1,10.6-31.33c3.49-6.73,12.89-24.41,32.81-37.68a90.74,90.74,0,0,1,17.57-9.12,48.78,48.78,0,0,1,17.44-16A47.12,47.12,0,0,1,497.35,157a80.91,80.91,0,0,1,31.91-19.7c14.41-4.65,26-3.61,41.08-2.25a142.47,142.47,0,0,1,83.32,34.24,47.29,47.29,0,0,0-14.08-20,45.42,45.42,0,0,0-19.25-9.39c1.46-.23,31.68-4.7,47.67,12.83,3.94,4.31,9.54,10.45,10.34,19.3.63,7-2.07,11.56.38,13.75,3.09,2.76,8.55-3.43,17.57-2.91,10.27.6,17.48,9.43,20.15,12.69a40.75,40.75,0,0,1,8.79,21.82c3.47,2.21,15.47,10.46,19.5,26.18a42.64,42.64,0,0,1,.91,16.39,62.64,62.64,0,0,1,10.46,26.44C756.94,292.21,759.05,308.33,749.64,323.58ZM751,291a61.4,61.4,0,0,0-10.66-30.34c2-9.85.18-16.54-1.26-20.13s-3.51-6.73-15.4-18.45c-5.7-5.6-10.6-10.14-14.15-13.38l10.37,4A36.31,36.31,0,0,0,712,197.55c-2.69-3.06-8.42-9.57-17.73-10.51-11.35-1.14-19.4,6.87-20.64,8.13a37.56,37.56,0,0,0,1.46-17.25,39,39,0,0,0-5.82-15.07c-8.65-13.15-23.24-16.23-26.64-16.86,9,5,14.65,13.36,14.24,21.82a19.13,19.13,0,0,1-2.61,8.62,171.5,171.5,0,0,0-29.55-19.73,132.8,132.8,0,0,0-60.17-16.76c-15.54-.66-25.44-1.09-37.49,3.67-16.54,6.52-26.16,18.42-29.46,22.61A77.09,77.09,0,0,0,488,182a27.67,27.67,0,0,1,.49-11,27.19,27.19,0,0,1,3-7.34,42.32,42.32,0,0,0-13.08,5.85,43.54,43.54,0,0,0-12.69,13.19,111,111,0,0,0-27,18.44,113.06,113.06,0,0,0-29.07,43.43,109.18,109.18,0,0,0-5.42,21.22l5.23-4.46A78.43,78.43,0,0,0,398,292.05c-.95,6.71-2.15,15,1,25a47.68,47.68,0,0,0,15.21,22.31,146.1,146.1,0,0,0,5.91,26.77,143.23,143.23,0,0,0,16,33.72,261.41,261.41,0,0,1,3.39-33.42c1.39-8.3,3.09-16,4.94-23a15.21,15.21,0,0,1-8-5.56c-2-2.86-2.47-6.18-3.25-12.67-.43-3.5-.57-6.43-.62-8.45q-1.42,5.34-2.81,10.81-1.49,5.86-2.88,11.63a82.31,82.31,0,0,1-3.1-46.53C430,265.51,449,250.08,449.3,250.34s-10.81,13.51-19,35a67.73,67.73,0,0,0-4.78,20.23,64.16,64.16,0,0,0,1.55,18.91,71.68,71.68,0,0,1,2.84-11.77,69,69,0,0,1,5.43-12.16c0,5.14.15,11.94.39,20.09.14,4.69.26,7.86,2.19,11.37a19.13,19.13,0,0,0,7.41,7.28,18.75,18.75,0,0,0,10.42,2.24,27.59,27.59,0,0,1-3.1-9.12,29,29,0,0,1,2.84-17.19,39.55,39.55,0,0,0-1,10.32c.15,4.63.39,12.09,4.78,14.54,1.16.65,2.49.69,5.16.79a38.54,38.54,0,0,0,9.95-.92,157.64,157.64,0,0,1,13.18-77.61,91.81,91.81,0,0,0-4.27,22.21c-.47,7.09-1.16,19.48,4.27,33.71a70,70,0,0,0,11.75,20,76.55,76.55,0,0,0,38.76,1.59,18.28,18.28,0,0,0,9.43,3.43,18.49,18.49,0,0,0,12.14-3.7,74.24,74.24,0,0,0,43.4,2.25l1.42-21.68a59,59,0,0,1-11.23,10.18,57.86,57.86,0,0,1-19.64,8.72,106.84,106.84,0,0,0,19.12-22.47A109.35,109.35,0,0,0,607,281.94a56.22,56.22,0,0,1-.39,8.06c-1.19,9.88-4.74,17-7.62,22.61a92.16,92.16,0,0,1-10.53,16.13,71,71,0,0,0,19.67-20.82,78.44,78.44,0,0,0,8.23-19A103.19,103.19,0,0,0,621,262.4q.28,4.69.38,9.72.13,7.5-.19,14.28c.78,2.46,1.79,6,2.71,10.21a129.88,129.88,0,0,1,2.62,22,227.61,227.61,0,0,1,.1,23.1,21.11,21.11,0,0,0,10-11.11,21.34,21.34,0,0,0,1.16-10.57q.67,3.43,1.16,7.3a106.38,106.38,0,0,1,.78,13.78,83.15,83.15,0,0,0,10.17-.79,86.1,86.1,0,0,0,17.73-4.46,111.65,111.65,0,0,0,3.29-13.39,117.46,117.46,0,0,0-2.61-51.86,151,151,0,0,1,12,65.84,42.33,42.33,0,0,0,8.14-.1,42.93,42.93,0,0,0,11-2.67,35.69,35.69,0,0,0,7.36-13.39A37.2,37.2,0,0,0,706,297.8a39.75,39.75,0,0,1,5.43,10.41,40.6,40.6,0,0,1,2.13,15.08,85.37,85.37,0,0,0,2.32-23.5,86.24,86.24,0,0,0-3.19-19.94,89.05,89.05,0,0,0-18.12-33.51A57.33,57.33,0,0,1,705,256.06c10.08,12,12.65,25,14.05,32.49,1.34,7.18,3,16.72.2,28.62a59.63,59.63,0,0,1-9.76,21.22,64.56,64.56,0,0,0,.33-7.07A68.75,68.75,0,0,0,709,321.2a47.77,47.77,0,0,1-2.78,8.6,49,49,0,0,1-3,5.88A178.08,178.08,0,0,1,711,363.45a180.07,180.07,0,0,1,3.3,33.31,187.81,187.81,0,0,0,7.94-18.44,198.28,198.28,0,0,0,8.14-29c4.7-24.8,1.88-48.31,0-59.89a110.27,110.27,0,0,1,7.94,43.24C741.34,328.67,752.5,313,751,291ZM637.13,317.24c.2.91.4,1.84.58,2.81A20.19,20.19,0,0,0,637.13,317.24Z"/></g></g></g></svg>