<svg xmlns="http://www.w3.org/2000/svg" viewBox="0 0 1080 1920"><g style="isolation:isolate"><g id="hair"><g id="_27" data-name="27"><path d="M676.47,198.6c-3.77-8.29-11.71-22.66-27.13-33.91-14.17-10.35-27.69-13-42.62-15.87a171.22,171.22,0,0,0-55.23-1.19c-15.74,2.16-37.06,5.08-59.87,19.64A127.59,127.59,0,0,0,454.41,204a106.44,106.44,0,0,0-29.26,29c-12.41,18.38-15.71,35.84-18.41,50.17a178.81,178.81,0,0,0,1.36,70q1.74-7.33,3.49-14.68c-.34,10.95,1.86,19.7,5.42,26.78,2.52,5,3.49,4.74,6.79,11.1,5.23,10.11,4.85,14.76,9.3,25.19a91.57,91.57,0,0,0,8.33,15.27A96.69,96.69,0,0,1,450.15,382c3.34-7.19,8.53-18.06,20-27.76a69.47,69.47,0,0,1,30.42-14.88,131.84,131.84,0,0,0,83.32-12.49,135.85,135.85,0,0,0,45.54-38.08,141.46,141.46,0,0,1-11.63,21.82,139.34,139.34,0,0,1-23.83,27.76,98.07,98.07,0,0,0,37.59-14.08,99.94,99.94,0,0,0,23.06-20.23,42.63,42.63,0,0,0,15.69-10.31,43.45,43.45,0,0,0,8.14-11.9c-.58,12.66,2.1,21.58,4.65,27.37.67,1.52,1.57,3.37,12.6,21,8.57,13.73,8.27,13,8.91,14.28,4.92,9.82,4.9,17.39,6.2,35.3.6,8.36,1.61,20.5,3.29,35.5a190.47,190.47,0,0,1,14.15-30.14c5-8.64,7.7-11.62,10.66-18.25a72.13,72.13,0,0,0,5.81-32.52,82,82,0,0,0,6.39,5.75,79.43,79.43,0,0,0,9.11,6.34,126.62,126.62,0,0,1-4.07-15.27c-2.05-10.23-2.2-17.57-2.52-25.78-.84-21.48-1.26-32.22-2.9-39.46a83.23,83.23,0,0,0-14.34-30.74c-1.88-4.3-12.57-27.76-37.21-35.1A53,53,0,0,0,676.47,198.6Z" fill="#42210b"/><path d="M665.88,230.79c-.73.58,14.54,12.6,14.21,30.41-.27,15-11.44,28-13.44,30.28a57.43,57.43,0,0,1-9,8.46L665,287.12a119.27,119.27,0,0,1-16.15,18.64,122.18,122.18,0,0,1-25.32,18.11,138.39,138.39,0,0,1-21.45,9.65,166.28,166.28,0,0,0,23-25.25,47.56,47.56,0,0,0,7.75-15.07,44.11,44.11,0,0,0,1.68-10.05,91.27,91.27,0,0,0,9-18.51c1.07-3,1.91-5.88,2.59-8.59A181.37,181.37,0,0,1,629.19,282c-7.57,9.67-18,23-35.65,34.24-24.71,15.76-48.86,18.09-60.07,19a142.24,142.24,0,0,1-22.48.13,157.17,157.17,0,0,0,38.24-20.89,160.11,160.11,0,0,0,32.94-32.92c-17.33,17.56-33.36,27.82-44.95,34-4.85,2.58-17,8.37-41.34,20-16.66,7.95-20.79,9.81-27,14.81a83.22,83.22,0,0,0-23.51,30A79.81,79.81,0,0,0,439,403.2a213.52,213.52,0,0,1-4.91-35.7c-.39-7.5-.91-17.41.52-28.69C436,328.49,439.65,311,452,291a159.31,159.31,0,0,0-25.06,78.8,94.47,94.47,0,0,1-9.43-23.8,97.32,97.32,0,0,1-.39-44.16l-7.23,16.53a122.18,122.18,0,0,1,1.29-35.17,132.32,132.32,0,0,1,10.2-31.2,141.37,141.37,0,0,1,27-39,101.39,101.39,0,0,0-7.23,36A144.29,144.29,0,0,1,449,224.45a124.26,124.26,0,0,1,14.21-25.78c13.43-18.23,29.95-27,38.23-31.34,19.34-10,35.77-12,52.32-14,14.78-1.79,35.71-4.11,61.23,2.51,12.53,3.25,24.8,6.58,36.95,17.19a75.86,75.86,0,0,1,20.67,30.14,51.13,51.13,0,0,1,29.84,3,52.43,52.43,0,0,1,18.47,13.62c2.15,2.48,3.63,4.66,11.76,20.62,6.51,12.8,9.77,19.2,10.59,21.55,4.18,12.07,4.74,22.7,5.17,30.81.51,9.79-.38,11.83.38,22.21a155,155,0,0,0,2.85,20.36L745.07,326c-.45-4.68-1.15-9.78-2.2-15.21-.87-4.51-1.89-8.7-3-12.56a194.85,194.85,0,0,1,.9,32.92c-.62,10.94-.93,16.41-3.1,23.67-2.06,6.9-6.22,14.78-14.46,30.27-2.5,4.69-4.58,8.5-6,11A151.87,151.87,0,0,0,714.06,365c-2.54-12.1-4.38-20.89-10.59-30.41-5.41-8.3-7.49-7-12-15.21-4.73-8.61-6.29-17.06-7.88-25.64a140.41,140.41,0,0,1-2.07-16.66,36.72,36.72,0,0,0,2.58-14.81C683.35,242.94,666.64,230.19,665.88,230.79Z" fill="#42210b"/><path d="M602.07,333.52l1.36-.48c1.31-1.44,2.74-3.05,4.26-4.81C605.55,330.32,603.62,332.11,602.07,333.52ZM748.81,315c-.76-10.38.13-12.42-.39-22.21-.42-8.11-1-18.74-5.17-30.81-.73-2.13-3.48-7.59-8.84-18.12v0l-1.74-3.41c-3.61-7.09-5.91-11.47-7.53-14.34a33.32,33.32,0,0,0-4.22-6.28,52.43,52.43,0,0,0-18.47-13.62,51.16,51.16,0,0,0-29.85-3A75.6,75.6,0,0,0,651.93,173c-12.15-10.61-24.42-13.94-36.95-17.19-25.53-6.62-46.45-4.3-61.23-2.51-16.55,2-33,4-52.32,14-8.28,4.3-24.8,13.11-38.23,31.34A123.78,123.78,0,0,0,449,224.45a143.39,143.39,0,0,0-7.88,24.46,101.13,101.13,0,0,1,7.24-36,141,141,0,0,0-27,39,132.32,132.32,0,0,0-10.2,31.2,122.18,122.18,0,0,0-1.29,35.17l1.29-2.95h0c1.59-14.51,7.15-24.68,12.27-34.06a124.14,124.14,0,0,1,19.12-26.18,123.86,123.86,0,0,0-9.17,70.07A119,119,0,0,1,448,285.93a117,117,0,0,1,40.18-40.46,120.38,120.38,0,0,0-37.33,77.21,106.06,106.06,0,0,1,9.82-16.26A104.18,104.18,0,0,1,472.5,292.8,108.61,108.61,0,0,0,450.92,351q10.49-14.82,22.1-30.14,14.06-18.49,27.9-35.17a85.55,85.55,0,0,1-8.53,25,83.07,83.07,0,0,1-9.3,14,122.43,122.43,0,0,0,23.64-1.05,124.4,124.4,0,0,0,34-10A173.81,173.81,0,0,0,557.3,303,195.24,195.24,0,0,0,578,285.72h0q2.1-2,4.22-4.15-2.07,2.79-4.61,5.9a66.16,66.16,0,0,1-13.73,27.68,61.21,61.21,0,0,1-7.63,7.54,121.81,121.81,0,0,0,45.16-11.93c13-9.91,21.45-20.65,27.83-28.79a180,180,0,0,0,16.13-24.45,0,0,0,0,1,0,0c.49-1.28,1-2.59,1.43-4a99.33,99.33,0,0,0,4.52-19.7,87.91,87.91,0,0,1-3.09,43.24,86.28,86.28,0,0,1-22.36,35.17,49.34,49.34,0,0,0,32.82-18.12c8.58-11,9.81-22.83,10.33-28.56a61.28,61.28,0,0,0-.65-16,46.52,46.52,0,0,1,2.2,23.93c-1.43,7.78-4.74,13.6-8.83,19.32l0,0-4.07,7.09a57.43,57.43,0,0,0,9-8.46c2-2.32,13.16-15.31,13.44-30.28.33-17.81-14.94-29.83-14.21-30.41s17.47,12.15,18.21,31.47a36.72,36.72,0,0,1-2.58,14.81c.13,2.1.35,4.73.72,7.78h0a74.89,74.89,0,0,0,13.62,30.35,71.91,71.91,0,0,0,12.41,12.69c.24-5.13.39-10.49.38-16.06,0-7.75-.3-15.1-.77-22a86.3,86.3,0,0,1,11.23,47.39A72.89,72.89,0,0,0,735,308.47a74.14,74.14,0,0,0,1.94-31.73,183.1,183.1,0,0,1,5.1,30s0,0,0,0a0,0,0,0,1,0,0c.29,1.28.57,2.61.83,4,1.06,5.43,1.75,10.53,2.2,15.21l6.59,9.38A156.77,156.77,0,0,1,748.81,315ZM501.57,272.7a182.54,182.54,0,0,0-26.36,35.44,82.14,82.14,0,0,1,16.15-35,80.6,80.6,0,0,1,43.14-27.63A179.27,179.27,0,0,0,501.57,272.7ZM620,217.7a80,80,0,0,0-32,13.75c3.25-4.75,13.63-18.56,31-21.68,17.54-3.15,33.71,6.16,33.33,7.93C652,219.3,638.36,214.44,620,217.7ZM692.5,225a61.66,61.66,0,0,0-27.66-4.37,95.5,95.5,0,0,0-18.21-23.8c-26.19-24.78-58.81-26.5-69.75-26.57a131.86,131.86,0,0,1,47.28,3c11.34,2.87,21.36,5.54,30.74,14.41a55.58,55.58,0,0,1,14.47,23.54,28.32,28.32,0,0,1,14.08-5.69c11.63-1.23,20,5.54,21.7,7a27.75,27.75,0,0,0-24.93,1.19,38.64,38.64,0,0,1,15.89,4.76c11.83,6.61,16.66,17.61,18.09,21.28A62.85,62.85,0,0,0,692.5,225Zm-82,80.91S604,311.73,597.8,316.2c-15.71,11.33-39.44,17.38-40.81,17.72a145.37,145.37,0,0,1-54.78,2.77A76.76,76.76,0,0,0,477,347.4a80.56,80.56,0,0,0-21.44,21,86.28,86.28,0,0,0-14.87,40.19,75.87,75.87,0,0,1-11.61-30.94,101.14,101.14,0,0,1-11.89-22.74c-3-8.24-8-22.05-6.07-39.57h0q3-6.78,5.94-13.57a97.32,97.32,0,0,0,.39,44.16,94.85,94.85,0,0,0,9.43,23.8A159,159,0,0,1,452,291c-12.31,20-16,37.54-17.31,47.86-1.43,11.28-.91,21.19-.52,28.69A213.52,213.52,0,0,0,439,403.2a79.81,79.81,0,0,1,6.33-22.88,83.1,83.1,0,0,1,23.51-30c6.21-5,10.33-6.86,27-14.81,24.32-11.59,36.48-17.38,41.34-20,1.12-.6,2.28-1.23,3.48-1.9,3.66-1.67,6.94-3.36,9.82-5L557.3,303,578,285.71h0q-.16.84-.39,1.74a160.37,160.37,0,0,1-28.33,27A157.35,157.35,0,0,1,511,335.37a142.24,142.24,0,0,0,22.48-.13c11.21-.95,35.37-3.28,60.07-19,2.78-1.77,5.38-3.6,7.82-5.45C604.74,309.13,607.76,307.48,610.46,305.89Zm1-.88c3.15-2.91,5.66-5.45,7.28-7.14C616.52,300.19,614.1,302.59,611.43,305Zm8.47-8.41c-.38.42-.78.84-1.19,1.27Zm12.3-15.29A140.07,140.07,0,0,1,623.1,293c2.6-3,4.79-5.81,6.61-8.28C630.49,283.67,631.33,282.53,632.2,281.31Zm-24.51,46.92a197.71,197.71,0,0,0,15.56-20.49c4-6.19,7.53-12.45,8.66-20.89a44,44,0,0,0,.36-5.63,105.19,105.19,0,0,0,13.05-23.71,0,0,0,0,1,0,0c.28-.49.53-1,.78-1.43a89.44,89.44,0,0,1-2.58,8.59,91.27,91.27,0,0,1-9,18.51,44.11,44.11,0,0,1-1.68,10.05,47.36,47.36,0,0,1-7.75,15.07A156.94,156.94,0,0,1,607.69,328.23ZM665,287.12l-3.27,5.7,0,0c-1.37,1.91-2.83,3.81-4.33,5.77a100.73,100.73,0,0,1-17.3,17.58,110.66,110.66,0,0,1-39.54,20c.88-.93,1.85-2,2.92-3.13a138.61,138.61,0,0,0,20.07-9.17,121.91,121.91,0,0,0,25.33-18.11A119.29,119.29,0,0,0,665,287.12Zm63.82-60c13.91,23.59,16.47,29,16,29.35-.64.43-6.75-9.81-18.34-20.89a121.84,121.84,0,0,0-17.31-13.75ZM742.55,328.3c-.6,15.83-.94,24.71-5.81,35.5-4.15,9.17-8.77,13.53-14.35,26.77A123,123,0,0,0,716,410.36a179.27,179.27,0,0,0-5.41-49.93c-2-7.71-3.65-14.23-7.75-22.41-6.18-12.38-11.16-15.13-15.69-25.19-2.66-5.92-5.44-15-4.9-28,.31,2.66.74,5.65,1.34,8.87,1.6,8.58,3.16,17,7.89,25.64,4.52,8.25,6.6,6.91,12,15.21,6.21,9.52,8,18.31,10.59,30.41a151.87,151.87,0,0,1,3.23,31.07c1.36-2.48,3.45-6.29,5.94-11,8.25-15.49,12.41-23.37,14.47-30.27,2.17-7.26,2.48-12.73,3.1-23.67a194.85,194.85,0,0,0-.9-32.92q1.14,4,2.13,8.55s0,0,0,0a0,0,0,0,1,0,0A173.57,173.57,0,0,1,742.55,328.3Z" fill="#fff" opacity="0.5" style="mix-blend-mode:overlay"/><path d="M507.76,186.5c27.31-14.44,53.13-8.13,59.17-6.48a104.32,104.32,0,0,0-62.14,15.34,107.15,107.15,0,0,0-37.72,40.72C468.77,230.61,478.17,202.16,507.76,186.5Zm51.42,5.82a138.57,138.57,0,0,1,43.4-.27,82,82,0,0,0-45.08-5.28,83,83,0,0,0-42.11,20.62A139.33,139.33,0,0,1,559.18,192.32Zm1.68,11.9c8-2.68,15.89-2.37,16-1.59.1.57-4,.83-8.65,4-5.16,3.47-8.76,8.93-7.88,10.05s5.54-2.85,13.95-5.29A47.83,47.83,0,0,1,589,209.51a47.51,47.51,0,0,0-15.89,8.72,49.51,49.51,0,0,0-14.47,20.5,108.73,108.73,0,0,1,21.83-19.57,106.75,106.75,0,0,1,21.83-11.37,21,21,0,0,0-7.36-3.31c-7.62-1.72-14,1.65-14.6.4-.23-.5.5-1.69,4.78-4.76a30.11,30.11,0,0,0-20.8-1.85c-12.1,3.4-17.63,13.38-18.6,15.2A40.86,40.86,0,0,1,560.86,204.22Zm55.25,51.2a38.42,38.42,0,0,0,11.34-14q-5.55,3.42-11.14,6.94-6,3.76-11.92,7.53,3-5.24,5.91-10.61,3.93-7.14,7.65-14.18a34.54,34.54,0,0,0-15.3,15,35.19,35.19,0,0,0-3.88,16.56A37.18,37.18,0,0,0,616.11,255.42Zm17.73-19.34q-4.3,7.28-8.62,14.58l-8.53,14.47a25.38,25.38,0,0,0,14.83-12.39A26.11,26.11,0,0,0,633.84,236.08Zm78.29,33.19a35.37,35.37,0,0,0-4.27-11.11c2.22,1.36,4.51,2.85,6.85,4.5,3.41,2.39,6.51,4.79,9.3,7.14a62.23,62.23,0,0,0-.64-7.41,59.42,59.42,0,0,0-1.56-7.27,32,32,0,0,1,6.08,5.29,33.56,33.56,0,0,1,7.23,13.48,25.39,25.39,0,0,0-3.75-15.73,24.86,24.86,0,0,0-16.27-10.84,27.1,27.1,0,0,1,3,6.08,27.47,27.47,0,0,1,1.42,7.54,96.76,96.76,0,0,0-7.62-6.88A94.7,94.7,0,0,0,696.62,244a111,111,0,0,1,14.73,42.31A36.12,36.12,0,0,0,712.13,269.27Z" fill="#fff" opacity="0.6" style="mix-blend-mode:overlay"/><path d="M760.18,346.54a124.25,124.25,0,0,1-4.07-15.27c-2.05-10.23-2.19-17.57-2.52-25.78-.84-21.48-1.26-32.21-2.9-39.46a83.49,83.49,0,0,0-14.34-30.74c-1.88-4.3-12.57-27.76-37.21-35.1a53,53,0,0,0-22.67-1.59,85.72,85.72,0,0,0-27.13-33.91c-14.17-10.35-27.69-13-42.62-15.87a171.24,171.24,0,0,0-55.23-1.19c-15.74,2.16-37.06,5.08-59.87,19.64A127.59,127.59,0,0,0,454.41,204a106.57,106.57,0,0,0-29.26,29c-12.41,18.38-15.7,35.84-18.41,50.17A176.64,176.64,0,0,0,405,334.25a179.74,179.74,0,0,0,3.1,18.84q1.74-7.33,3.49-14.68c-.35,10.94,1.86,19.7,5.42,26.78,2.51,5,3.49,4.74,6.79,11.1,5.23,10.12,4.85,14.75,9.3,25.19a91.22,91.22,0,0,0,8.33,15.27A96.69,96.69,0,0,1,450.15,382c3.34-7.19,8.54-18.07,20-27.76a69.47,69.47,0,0,1,30.42-14.88,131.84,131.84,0,0,0,83.32-12.49,135.94,135.94,0,0,0,45.54-38.08,141,141,0,0,1-11.63,21.82,139.34,139.34,0,0,1-23.83,27.76,98.07,98.07,0,0,0,37.59-14.08,99.92,99.92,0,0,0,23.06-20.23,42.5,42.5,0,0,0,15.69-10.31,43.6,43.6,0,0,0,8.14-11.9c-.57,12.66,2.1,21.58,4.65,27.37.67,1.52,1.57,3.37,12.6,21,8.56,13.73,8.27,13,8.91,14.28,4.92,9.83,4.91,17.4,6.2,35.3.6,8.35,1.6,20.51,3.29,35.5a190.93,190.93,0,0,1,14.15-30.14c5-8.64,7.7-11.62,10.66-18.25a72.11,72.11,0,0,0,5.81-32.52,79,79,0,0,0,15.5,12.09Zm-17.31-35.76c-.87-4.51-1.89-8.7-3-12.56a197,197,0,0,1,.9,32.92c-.62,10.94-.93,16.41-3.1,23.67-2.05,6.89-6.22,14.78-14.46,30.27-2.5,4.69-4.58,8.51-6,11A152,152,0,0,0,714.06,365c-2.54-12.1-4.38-20.89-10.59-30.41-5.41-8.3-7.49-7-12-15.21-4.73-8.61-6.29-17.06-7.88-25.64a140.41,140.41,0,0,1-2.07-16.66,36.72,36.72,0,0,0,2.58-14.81c-.75-19.31-17.45-32.07-18.21-31.47s14.53,12.6,14.21,30.41c-.27,15-11.44,28-13.44,30.28a57.43,57.43,0,0,1-9,8.46L665,287.12a120.28,120.28,0,0,1-16.15,18.64,121.79,121.79,0,0,1-25.32,18.11,139.24,139.24,0,0,1-21.45,9.65,165.76,165.76,0,0,0,23-25.25,47.56,47.56,0,0,0,7.75-15.07,44.19,44.19,0,0,0,1.68-10.05,91.79,91.79,0,0,0,9-18.51c1.07-3,1.91-5.88,2.59-8.59A179.64,179.64,0,0,1,629.19,282c-7.58,9.67-18,23-35.65,34.24-24.71,15.76-48.85,18.09-60.07,19a143.47,143.47,0,0,1-22.48.13,157.35,157.35,0,0,0,38.24-20.89,160.11,160.11,0,0,0,32.94-32.92c-17.33,17.56-33.36,27.82-44.95,34-4.86,2.58-17,8.37-41.34,20-16.67,7.95-20.79,9.81-27,14.81a83.1,83.1,0,0,0-23.51,30A79.89,79.89,0,0,0,439,403.2a213.52,213.52,0,0,1-4.91-35.7c-.39-7.5-.91-17.41.52-28.69C436,328.5,439.65,311,452,291a159.31,159.31,0,0,0-25.06,78.8,94.47,94.47,0,0,1-9.43-23.8,97.46,97.46,0,0,1-.39-44.16l-7.23,16.53a122.18,122.18,0,0,1,1.29-35.17,132.47,132.47,0,0,1,10.2-31.2,141.29,141.29,0,0,1,27-39,102,102,0,0,0-5.55,19.18,99.79,99.79,0,0,0-1.68,16.79A144.29,144.29,0,0,1,449,224.45a124,124,0,0,1,14.21-25.78c13.43-18.23,30-27,38.23-31.34,19.34-10,35.78-12,52.32-14,14.78-1.79,35.71-4.11,61.23,2.51,12.52,3.25,24.81,6.58,36.95,17.19a75.86,75.86,0,0,1,20.67,30.14,51.13,51.13,0,0,1,29.84,3,52.34,52.34,0,0,1,18.47,13.62c2.15,2.48,3.63,4.66,11.76,20.62,6.52,12.81,9.77,19.2,10.59,21.55,4.18,12.08,4.74,22.7,5.17,30.81.51,9.79-.38,11.83.38,22.21a156.77,156.77,0,0,0,2.85,20.36L745.07,326C744.62,321.3,743.93,316.21,742.87,310.78Z" fill="#030100"/></g></g></g></svg>