<svg xmlns="http://www.w3.org/2000/svg" viewBox="0 0 1080 1920"><g style="isolation:isolate"><g id="hair"><g id="_28" data-name="28"><path d="M444.29,432.61a116.62,116.62,0,0,1-18.8-41.45,115.18,115.18,0,0,1-2.9-22.21c-1-1.06-7.46-7.81-6.59-17.45a20.89,20.89,0,0,1,3.49-9.72,28.72,28.72,0,0,1-11.24-19.24c-1.72-14.72,9.28-24.31,10.07-25a145.48,145.48,0,0,0-4.26-15.08c-2.42-7.09-3.48-8.47-3.49-11.9,0-6.22,3.52-10.86,7.75-16.46A61.88,61.88,0,0,1,431.89,241c.16-5.69,1.38-17.06,9.3-26.58,6.1-7.33,13.84-10.75,20.93-13.88A79.17,79.17,0,0,1,477,195.69a100.56,100.56,0,0,1,12.66-14.28c6.33-5.9,9.49-8.85,14.73-10.84,6.9-2.64,13.69-2.28,21.7-1.85,6.44.34,6.67,1.05,10.59.79,7.92-.52,12.21-3.75,17.57-6.08,14.6-6.36,29.51-2.77,33.33-1.85,8.24,2,13.94,5.53,22.48,10.84a128.67,128.67,0,0,1,17.05,12.69,79.45,79.45,0,0,1,29.19-4.5c8.28.31,14.49.55,20.16,4.76,10.72,8,10.64,23.63,10.59,26.45,3.27-1.6,10-4.25,17.83-2.38a17.18,17.18,0,0,1,3.51,1.14c10.92,5.08,13.17,23.24,14,30.32,1.15,9.2-.41,9.34,1.3,15.34,2,6.88,5,10,6.71,18.24a47.11,47.11,0,0,1,1,9.26c7.24,7.13,9.25,16.79,5.63,23.14a14.7,14.7,0,0,1-7.7,6.21,106.29,106.29,0,0,1,5.68,28.29,104.35,104.35,0,0,1-1.55,25.92c-1.75,9.17-2.71,7.17-8.52,26.7-3.37,11.32-4.37,16.43-8.27,25.12a113.92,113.92,0,0,1-6.2,11.9,365.15,365.15,0,0,0-3.1-46.8c-1.08-8.25-2.4-16.1-3.88-23.53a42,42,0,0,1-7-12.7c-4.51-13.27-1-25.09.52-29.35a80.14,80.14,0,0,1-8.79-14.54c-3.78-8.06-3.75-11.5-6.46-15.6-2.9-4.41-8.94-9.57-23-11.37a53.78,53.78,0,0,1-42.63,4c-15.39,11.38-28.83,12.39-34.36,12.42-2,0-19.34.11-30.23-6.61A33.72,33.72,0,0,0,540,282.15a32,32,0,0,0-8-.53,38.8,38.8,0,0,0,7.24,23,37.4,37.4,0,0,0,23,14.54c-2.4.87-19.76,6.78-35.39-3.43-2.46-1.61-13.11-8.56-16-22.22a34.52,34.52,0,0,1,.51-16.13,48.4,48.4,0,0,0-27.9,5.56,50,50,0,0,0-20.15,20.36A61.46,61.46,0,0,0,457.6,321c-2.18,13.9,2,20-1.1,35.38-.7,3.5-.63,1.75-3.81,13-2.83,10-5.66,20-7.24,29.09A127.93,127.93,0,0,0,444.29,432.61Z" fill="#42210b"/><path d="M510.93,235.48a2.43,2.43,0,0,1,.32-.24c0,.37,0,.72-.05,1Zm219.62,54.08c-5.35-5.68-11.21-3-16.67-7.94-2-1.85-4.5-5.21-5.42-11.76a19.81,19.81,0,0,0,8,9.91,18.77,18.77,0,0,0,10.34,2.78A27.21,27.21,0,0,0,726,265.9a33.85,33.85,0,0,0-37.71-2.12,37.17,37.17,0,0,1,19.9-8.73,35.9,35.9,0,0,1,11.5.63,104.3,104.3,0,0,0-1.18-16.5c-1.89-12.62-3-20.19-8.64-24.19-8.22-5.84-20.6-.22-22.74.79-.32-4.18-1.67-14.21-9.3-22.34a35.21,35.21,0,0,0-6.41-5.24c-14.59-9-35.17-1.47-38.55-.18a2.92,2.92,0,0,1,.29.23h0c4.75.07,14.38,1.14,20.34,8.56,3.66,4.57,4.33,9.52,5.24,17.06,1.8,15-.77,29.38-2.52,29.35-1.37,0-.42-8.75-3.12-20.18A130.4,130.4,0,0,0,632,194.89c-19.07-19.2-38.08-26.09-42.57-27.63-10.33-3.54-16.2-3.58-17.83-3.57-14.56.13-25.42,7.66-30.41,11.7a52,52,0,0,0-28.1-.39,42.22,42.22,0,0,0-17.25,8.52c-7.26,6.2-5.86,9.87-12.59,14.88-6,4.45-8.05,2.29-19.38,7.33-7.11,3.18-12.81,5.72-17.44,11.31a29.92,29.92,0,0,0-4.73,8.09c.27-.25.55-.5.85-.75,5.8-4.76,12.94-3.91,14.74-3.64q-5.41,5.43-11,11.5c-1.48,1.63-2.94,3.26-4.36,4.87l5.46-1.43a102,102,0,0,1-10.47,11.5c-8.17,7.71-12.31,9-16.08,15.67a24.58,24.58,0,0,0,1.75,28.36l5.81-3.77a82.26,82.26,0,0,0-8.14,16.46c-2.76,7.62-4.71,13-3.87,19.64,1.06,8.42,6.07,14.52,9.64,17.94a26,26,0,0,0,9-2.34,24.92,24.92,0,0,0,12-11.37,25.56,25.56,0,0,0,2.22-15.46l-.42.12c-5.83,1.58-12.22,1.91-12.4,1.06s6.44-1.56,14.24-6a160.58,160.58,0,0,0,8.76-15.68c4.22-8.67,4.87-12,7.62-16.79,3.32-5.76,9.52-13.28,22.22-19.56a40.18,40.18,0,0,0-17.05,4.36c-3.8,2-5.43,3.63-10.21,6.74A100.08,100.08,0,0,1,446,275a195.26,195.26,0,0,0,22.35-16.52c4.89-4.21,7.46-6.86,12.14-8.73,8.05-3.21,16.14-1.62,21.58.13a22.89,22.89,0,0,1,8.89-14.41,26.42,26.42,0,0,0-11.48-13.75,25.09,25.09,0,0,0-15.12-3,21.09,21.09,0,0,1,14.73-2.11,20.76,20.76,0,0,1,9.31,5,34.42,34.42,0,0,1,12.13-17.85c11.78-8.83,25-6.16,27.14-5.68-2.63.27-20.54,2.41-30.49,18.24a39.79,39.79,0,0,0-5.9,18.93,23,23,0,0,1,3.9-2.34c8.3-8.31,19.32-7.6,21-7.47-1.84.23-15.07,2.07-21.18,13.09-1.13,2-4.06,7.34-2.84,14a18.94,18.94,0,0,0,3.61,8.06l6.73-11.37a73,73,0,0,0-7,36.89c.56,6.59,1.18,13.16,5.55,19.43,9.12,13.1,26.5,13.47,29.46,13.49A48.74,48.74,0,0,1,535.36,306a49.43,49.43,0,0,1-6.72-12q.14,4.89.26,9.78c-1.09-3.44-3.77-13.45.65-23.93,3-7.18,7.86-11,13-15.07,6.63-5.21,18-14.19,31.65-11.5a26.31,26.31,0,0,1,3.66,1l.06,0c14.42,3.84,19.41,22.38,19.8,23.92a40.8,40.8,0,0,0,5-27.37c-3.33-18.65-19-27.16-20.93-28.16a34.21,34.21,0,0,1,16.48,5.75,35.59,35.59,0,0,1,12.79,15.87q-1.35-6.65-2.72-13.29A68,68,0,0,1,618.3,272a58.45,58.45,0,0,0,4.45-17.05,70.37,70.37,0,0,0-4.45-29.35c-7.17-18.61-27.52-36.39-55.23-45.81a83.22,83.22,0,0,1,30.42,8.92c7,3.64,26,13.8,36,36.49a73.82,73.82,0,0,1,6.21,31.14,23.9,23.9,0,0,0,6.39-7.14,24.65,24.65,0,0,0,3.29-12.3,35.23,35.23,0,0,1-1.54,21.42,33.3,33.3,0,0,1-7.76,11.3,31.21,31.21,0,0,0,9.89-2.18,34,34,0,0,0,15.88-13.68,25.72,25.72,0,0,1-5.81,16.46,21.92,21.92,0,0,0,9-2.11h0a44.64,44.64,0,0,0,3.75-3.63c13.68-14.88,14.43-33.51,14.47-38.74A68,68,0,0,1,682,242.56,111.92,111.92,0,0,0,685.72,223a68.41,68.41,0,0,1-1.16,25,67.12,67.12,0,0,1-6,16.06c6,2,9,5.08,10.47,7.14s2.53,4.53,4.46,19c1.35,10.22,1.1,10.85,1.94,13.88a38.76,38.76,0,0,0,9.46,16.27,48.39,48.39,0,0,0,4.49,3.69L704.48,323a53.22,53.22,0,0,0,.43,17.24c.9,4.76,2.77,13.9,10.08,22a38.13,38.13,0,0,0,8.33,6.94c-1-2.67-2.18-5.45-3.49-8.33-1.89-4.14-3.87-7.9-5.81-11.3a31.19,31.19,0,0,0,8.33,8.72,30.14,30.14,0,0,0,5.71,3.15,130.78,130.78,0,0,0,1.72-21.2,133.26,133.26,0,0,0-.9-15.45h0a60.56,60.56,0,0,1-12.15-12.5A62.38,62.38,0,0,1,708,295.18a27.67,27.67,0,0,0,11.43,7.53,26.9,26.9,0,0,0,5.36,1.21c-.23-.83-.47-1.65-.71-2.46.72.86,1.42,1.73,2.13,2.59l1.41,1.71c.21.24.4.48.6.72.78-.35,5.07-2.4,6.06-6.74C735.45,294.75,731.41,290.47,730.55,289.56ZM510.93,235.48l.27.8c0-.32,0-.67.05-1A2.43,2.43,0,0,0,510.93,235.48Zm.66,22.74a22.66,22.66,0,0,1-1.93-11.63,25.22,25.22,0,0,1,5.46-13.66c-.15.14-.29.29-.43.44-1.37,1.45-8.27,8.73-7.11,19.17a23.09,23.09,0,0,0,5.95,12.82q-.76,2.58-1.55,5.16c-13.8-1.51-22.29,2-27,4.89-5.33,3.21-9.84,8-18.87,17.72-6.83,7.31-7.44,8.89-11.63,11.9a43.61,43.61,0,0,1-3.84,2.45c-.65,1-1.27,2-1.84,2.83a20.11,20.11,0,0,1,.42,2,39.32,39.32,0,0,0,5.52-2,121.62,121.62,0,0,0-2.32,45.09A144.24,144.24,0,0,0,445.19,376a146,146,0,0,0-4.91,36.23,104.93,104.93,0,0,1-13-47.07,12.9,12.9,0,0,1,.2-22.41c-.43-.37-.91-.8-1.41-1.29a27.05,27.05,0,0,1-3.44,0c-4.81,8.79-4.31,13.82-3,16.79,1.75,3.89,5.62,5.71,6.46,11.24.37,2.45-.12,3.95-.39,5.94-.7,5.06.52,9.26,4,18.25,3.93,10.15,7.91,19.12,11.37,26.44a86.85,86.85,0,0,1,2.71-29.88c1.81-6.47,4.14-11.56,8-25.65,2.46-8.9,2.8-11.49,3-13.35.92-9.81-1.48-14-1.8-22.08-.23-5.45.48-13.28,4.9-23a115.09,115.09,0,0,1,13-15.87c6.82-6.92,11.64-11.82,19.38-14.94a41.63,41.63,0,0,1,23-2.11c.82-3.05,1.63-6.09,2.45-9.13A21.67,21.67,0,0,1,511.59,258.22Zm-.66-22.74.27.8c0-.32,0-.67.05-1A2.43,2.43,0,0,0,510.93,235.48Zm107.88,39.27a74.15,74.15,0,0,1-26,11.9c-8.21,1.94-16.2,3.83-25.31.92-5.5-1.75-7.1-3.86-15.12-6.74a75.38,75.38,0,0,0-16-3.83,68.38,68.38,0,0,1,10.46-10.32c6.15-4.87,11.36-9,19.11-9.91a27.41,27.41,0,0,1,17.84,4c9.24,5.89,11.76,15.48,12.27,17.59a28.26,28.26,0,0,0-6.85-16.66A26.36,26.36,0,0,0,578,254.2l-.06,0c-8.6-2.26-16.39,1.83-23.74,5.7a62.29,62.29,0,0,0-20.55,17.55,81.23,81.23,0,0,1,11.92,3.17c7.76,2.7,11.12,5.17,15.89,7.14,9.3,3.83,17.8,3.19,23.26,2.78,16.66-1.26,28.64-9.64,33.91-13.89a11.25,11.25,0,0,0,15.2,4.58,20.5,20.5,0,0,1-7.74-1.57A22.35,22.35,0,0,1,618.81,274.75Zm111.43,51c-.68-6-1.53-12.69-2.61-20-.08-.55-.17-1.1-.24-1.66-.36,0-.76,0-1.17-.05s-.92-.07-1.42-.13a136.78,136.78,0,0,1,4.08,20.81h0C729.35,325.1,729.81,325.44,730.24,325.75Zm-2.18,35.64c-.66,4.22-1.45,8-2.16,11.33A192,192,0,0,1,714,409.87q-.91-10.87-1.94-21.95-1.33-14.25-2.84-28.16A46,46,0,0,1,701,341a46.53,46.53,0,0,1,.26-18.78l3.25.74c.11-.91.26-1.77.4-2.58a44.32,44.32,0,0,1-8.82-11.25c-5.07-9.29-3.75-15.12-8.14-22.07-3-4.71-9-10.6-22.61-13.75a58,58,0,0,0,9.05-11.24A60,60,0,0,0,682,242.62a60.52,60.52,0,0,1-6.91,15.87c-1.83,2.79-4.61,6.93-9.88,9.52l-.14.06h0a54.67,54.67,0,0,1-17.94,10.37c-3.7,1.27-8.27,2.82-13.24,2.76a39.28,39.28,0,0,0,7.59,0,42.15,42.15,0,0,0,19.09-6.94,33.63,33.63,0,0,1,13.85,4c2.15,1.17,10.61,6.08,14.82,15.87,2.26,5.24,1.18,7,4,13.28a43.06,43.06,0,0,0,6.88,10.81,44.84,44.84,0,0,0-2.72,16.26,45.63,45.63,0,0,0,7.56,24c1.62,7.68,3.06,15.91,4.23,24.65a343.44,343.44,0,0,1,2.94,36.63c2.9-7,7.11-17.35,12.21-30.14,4.58-11.51,7-17.73,7.94-26.78A28.46,28.46,0,0,1,728.06,361.39Zm4.17-14.25c-.41-5.73-1-12.87-2-21.32q1,18.49,2,37A80.29,80.29,0,0,0,732.23,347.14ZM646.71,202a51.49,51.49,0,0,0-13.49-13.78h0c-1,0-1.82,0-2.29,0A60.49,60.49,0,0,1,653.16,223q1.11,2,2.21,4.11A53.56,53.56,0,0,0,646.71,202Zm79.45,60.56a21.37,21.37,0,0,0-3.36-6.09c-.88-.28-1.92-.56-3.09-.82,0,.42,0,.83,0,1.22a23.82,23.82,0,0,1,5.43,7c.33.66.63,1.33.89,2,.45.34.84.65,1.17.92A20.6,20.6,0,0,0,726.16,262.59ZM439.05,237.86a39.12,39.12,0,0,1,2.64-12.72,16.45,16.45,0,0,0-2.89,3.6l-.84,13c1.29-1.52,2.62-3,4-4.59Z" fill="#fff" opacity="0.5" style="mix-blend-mode:overlay"/><path d="M539.82,238.66a46.14,46.14,0,0,1,15.56-13.49,46.44,46.44,0,0,0-4.58.79,45.76,45.76,0,0,0-9.11,3.11,31.28,31.28,0,0,1,14.53-11.44c10.2-3.7,20.1-.52,20.09.33,0,.69-6.36-.12-11,4.37a13.71,13.71,0,0,0-2.85,4,41.23,41.23,0,0,1,10.73,1.52,41.88,41.88,0,0,1,15.05,7.87,49.9,49.9,0,0,0-25.52-1.78c-16.73,3.27-26.61,14.32-29.58,17.91A47.09,47.09,0,0,1,539.82,238.66Zm62.47-27.41c-3-3.74-16.82-19.64-35.54-18.47-9.13.57-16.39,5-16.27,5.42s4.66-1.34,11.23-1.19a37.81,37.81,0,0,1,9,1.32,28.13,28.13,0,0,0-7.75,3.44c-2.71,1.73-5.87,3.75-5.56,5,.59,2.39,12.5-2,24.8,1.06,17.61,4.33,26.47,21.41,28.29,20C611.79,226.82,608.13,218.44,602.29,211.25Zm-5.18-29.71A115.27,115.27,0,0,1,631,218.16a35,35,0,0,0-8.78-17.45,86,86,0,0,1,10.72,11,88.65,88.65,0,0,1,7.5,10.71,50.27,50.27,0,0,0-11.63-27.5,47.39,47.39,0,0,0-16.28-12.16,24.35,24.35,0,0,1,11.89,15.47,54.58,54.58,0,0,0-12-10.18A53.46,53.46,0,0,0,597.11,181.54Zm98.76,38.74a124.52,124.52,0,0,1-1.42,13.42,126.35,126.35,0,0,1-3.68,16,20.11,20.11,0,0,0,7-7.41,30.75,30.75,0,0,1-.84,4.17,29.19,29.19,0,0,1-1.88,4.89,57.52,57.52,0,0,0,6.91-6.81,58.33,58.33,0,0,0,6.85-9.92q-2.28,2.06-4.59,4.17L700.84,242a11.37,11.37,0,0,0,.32-4.16,11.52,11.52,0,0,0-.45-2.19,10.82,10.82,0,0,1-2.26,3.77,10.13,10.13,0,0,1-2.07,1.72,32.09,32.09,0,0,0-.51-20.82ZM464.18,248.17a39.21,39.21,0,0,1,11.63-10.7,38.52,38.52,0,0,1,20.54-5.42,43.95,43.95,0,0,0-18-1.33,18.85,18.85,0,0,1,2.58-2.77,18.48,18.48,0,0,1,6.14-3.57,21.2,21.2,0,0,0-14.08,3.5,21.79,21.79,0,0,0-7.75,9.59,17.22,17.22,0,0,1,5.81-4.9,16.61,16.61,0,0,1,2.84-1.12,22.53,22.53,0,0,0-6.72,7.27A23,23,0,0,0,464.18,248.17Z" fill="#fff" opacity="0.6" style="mix-blend-mode:overlay"/><path d="M731.46,283.74a47.89,47.89,0,0,0-1-9.26c-1.75-8.19-4.75-11.35-6.71-18.24-1.72-6-.15-6.15-1.3-15.34-.88-7.08-3.13-25.24-14-30.32a17.44,17.44,0,0,0-3.52-1.14c-7.82-1.87-14.57.78-17.83,2.38.05-2.82.13-18.47-10.59-26.45-5.68-4.22-11.88-4.45-20.16-4.76a79.48,79.48,0,0,0-29.19,4.5A127.8,127.8,0,0,0,610,172.42c-8.54-5.31-14.24-8.86-22.48-10.84-3.81-.92-18.73-4.51-33.33,1.85-5.36,2.33-9.64,5.56-17.57,6.08-3.93.25-4.15-.45-10.59-.79-8-.43-14.8-.79-21.7,1.85-5.23,2-8.4,4.94-14.73,10.84A100,100,0,0,0,477,195.69a79.91,79.91,0,0,0-14.85,4.89c-7.09,3.13-14.83,6.55-20.93,13.88-7.92,9.52-9.14,20.89-9.3,26.58a61.65,61.65,0,0,0-13.57,13.08c-4.24,5.6-7.76,10.24-7.75,16.46,0,3.43,1.07,4.81,3.49,11.9a143,143,0,0,1,4.26,15.08c-.79.67-11.78,10.26-10.07,25a28.72,28.72,0,0,0,11.24,19.24A20.94,20.94,0,0,0,416,351.5c-.87,9.64,5.54,16.39,6.59,17.45a115.18,115.18,0,0,0,2.9,22.21,116.54,116.54,0,0,0,18.8,41.45,128,128,0,0,1,1.16-34.11c1.57-9.08,4.41-19.08,7.24-29.09,3.18-11.26,3.11-9.52,3.81-13,3.08-15.38-1.08-21.47,1.1-35.37a61.15,61.15,0,0,1,5.68-17.71A50,50,0,0,1,483.43,283a48.4,48.4,0,0,1,27.9-5.56,34.52,34.52,0,0,0-.51,16.13c2.91,13.65,13.55,20.61,16,22.22,15.63,10.21,33,4.29,35.39,3.43a37.4,37.4,0,0,1-23-14.54,38.72,38.72,0,0,1-7.24-23,32,32,0,0,1,8,.53,33.72,33.72,0,0,1,11.63,4.76c10.89,6.72,28.22,6.62,30.23,6.61,5.53,0,19-1,34.36-12.42a53.78,53.78,0,0,0,42.63-4c14.06,1.81,20.09,7,23,11.37,2.7,4.11,2.68,7.54,6.46,15.6a80.14,80.14,0,0,0,8.79,14.54c-1.5,4.26-5,16.08-.52,29.35a41.75,41.75,0,0,0,7,12.7c1.48,7.42,2.79,15.28,3.88,23.53a365,365,0,0,1,3.1,46.8,112.89,112.89,0,0,0,6.2-11.9c3.91-8.69,4.9-13.8,8.27-25.12,5.81-19.53,6.77-17.54,8.52-26.7a104.35,104.35,0,0,0,1.55-25.92,106.61,106.61,0,0,0-5.68-28.29,14.78,14.78,0,0,0,7.7-6.21C740.71,300.53,738.7,290.87,731.46,283.74Zm2.84,16c-1,4.34-5.3,6.39-6.07,6.74l-4.14-5a135.7,135.7,0,0,1,5.69,38.73c0,13.85-2.16,24.34-3.88,32.53A192.44,192.44,0,0,1,714,409.87q-.91-10.87-1.94-21.95-1.33-14.26-2.84-28.16A46,46,0,0,1,701,341a46.54,46.54,0,0,1,.26-18.78l8.14,1.85a45.75,45.75,0,0,1-13.31-14.94c-5.07-9.28-3.74-15.12-8.14-22.07-3-4.71-9-10.6-22.6-13.75a58.64,58.64,0,0,0,9-11.24c8.87-14.4,9.25-29.2,8.91-36.36,0,5.22-.78,23.86-14.47,38.74a54,54,0,0,1-21.7,14c-5.58,1.91-13.13,4.47-21.05,1.19a22.51,22.51,0,0,1-7.24-4.89,74,74,0,0,1-26,11.9c-8.22,1.94-16.2,3.82-25.32.92-5.5-1.75-7.09-3.86-15.12-6.74a75.44,75.44,0,0,0-16-3.83,68.53,68.53,0,0,1,10.47-10.32c6.16-4.87,11.36-9,19.12-9.91a27.36,27.36,0,0,1,17.82,4c9.25,5.89,11.77,15.48,12.28,17.59a28.26,28.26,0,0,0-6.85-16.66,26.87,26.87,0,0,0-15-8.46c-13.6-2.7-25,6.29-31.64,11.5-5.18,4.08-10,7.89-13.05,15.07-4.42,10.48-1.73,20.49-.65,23.93q-.12-4.89-.26-9.78a49.61,49.61,0,0,0,6.72,12A48.74,48.74,0,0,0,550.48,319c-3,0-20.35-.39-29.46-13.49-4.37-6.28-5-12.83-5.55-19.43a73,73,0,0,1,7-36.89l-6.71,11.37a18.75,18.75,0,0,1-3.62-8.06c-1.22-6.69,1.71-12,2.84-14,6.1-11,19.35-12.85,21.19-13.09-1.69-.14-13.09-.88-21.45,7.94-1.38,1.45-8.28,8.73-7.1,19.17a23,23,0,0,0,5.94,12.82L512,270.52c-13.8-1.51-22.28,2.05-27,4.89-5.32,3.22-9.83,8-18.86,17.72-6.82,7.31-7.44,8.89-11.63,11.9-9.33,6.68-18.3,7.44-18.08,8.46.18.86,6.58.52,12.4-1.06a39.94,39.94,0,0,0,5.94-2.12,121.62,121.62,0,0,0-2.32,45.09A143.81,143.81,0,0,0,445.19,376a146,146,0,0,0-4.91,36.23,104.93,104.93,0,0,1-13-47.07,12.9,12.9,0,0,1,.19-22.41c-3.49-3-9.84-9.62-11-19.23-.84-6.64,1.12-12,3.87-19.64a82.8,82.8,0,0,1,8.14-16.46l-5.81,3.77a24.58,24.58,0,0,1-1.75-28.36c3.77-6.67,7.9-8,16.09-15.67a102.15,102.15,0,0,0,10.46-11.5l-8.33,2.18c.55-11.68,5.24-18.25,7.36-20.82,4.63-5.59,10.34-8.13,17.44-11.31,11.33-5,13.4-2.88,19.38-7.33,6.73-5,5.34-8.67,12.59-14.88A42,42,0,0,1,513.08,175a51.92,51.92,0,0,1,28.09.39c5-4,15.87-11.57,30.43-11.7,1.63,0,7.49,0,17.82,3.57,4.49,1.54,23.5,8.43,42.57,27.63a131,131,0,0,1,23.38,32.26A53.68,53.68,0,0,0,646.71,202a51.44,51.44,0,0,0-13.82-14c3.37-1.29,24-8.86,38.55.17a36,36,0,0,1,6.41,5.25c7.63,8.13,9,18.16,9.3,22.34,2.14-1,14.52-6.63,22.73-.79,5.62,4,6.76,11.57,8.66,24.19a105.8,105.8,0,0,1,1.16,17.72,23.82,23.82,0,0,1,5.43,7c4.13,8.12,2.31,16.22,1.68,18.64a18.86,18.86,0,0,1-10.34-2.78,19.75,19.75,0,0,1-8-9.91c.92,6.55,3.38,9.91,5.43,11.76,5.45,4.95,11.31,2.26,16.66,7.94C731.41,290.47,735.45,294.76,734.3,299.74Z" fill="#030100"/></g></g></g></svg>