<svg xmlns="http://www.w3.org/2000/svg" viewBox="0 0 1080 1920"><g style="isolation:isolate"><g id="hair"><g id="_29" data-name="29"><path d="M445.19,438.2c-2.57.38-9.39-27-12.66-53.06a336.23,336.23,0,0,1-2.33-46.81A406.11,406.11,0,0,1,438,265.15a48.56,48.56,0,0,1,1.73-28,46.6,46.6,0,0,1,10.08-15.86,17.1,17.1,0,0,0-3.49-6.35,16.6,16.6,0,0,0-5.68-4.23,29.74,29.74,0,0,1,25.7,3.7,14.65,14.65,0,0,0-16.71-12.33,32.63,32.63,0,0,1,15.55-7.1c5.43-.84,9.73,0,16.54,1.45a94.79,94.79,0,0,1,14.85,4.36c.56-5.26-1.46-10.18-5.29-12.56-2.25-1.39-7-3.1-10.34-.26-3.13,2.69-2.56,7.39-2.5,7.79L470,194.7c-.51-2.87-1.9-12.76,4-21.1,6-8.52,15.85-10,22.21-11a45.59,45.59,0,0,1,20.53,1.68A31.18,31.18,0,0,1,529,157.47c5.83-1.64,10.69-1.05,16-.4A63.51,63.51,0,0,1,557.7,160a21.81,21.81,0,0,0-6.84-9,20.9,20.9,0,0,0-8.27-3.83,97.15,97.15,0,0,1,42.76,5,95.11,95.11,0,0,1,17.21,8.2L597.1,150.2A65.93,65.93,0,0,1,613,160.51a71.23,71.23,0,0,1,15,18.77,84.65,84.65,0,0,1,6.2,13.22,33.7,33.7,0,0,0-3.42-19.3,32.55,32.55,0,0,0-12.34-13.09,63.3,63.3,0,0,1,43.27,21.55,50.6,50.6,0,0,1,20.8,12.3,53,53,0,0,1,14.34,25.78q2.73-3.39,5.48-7c1.26-1.65,2.49-3.28,3.69-4.91,1.91,15.58,3.55,28.63,4.78,38.34,2.66,20.94,3.42,26.35,4,30.41,3.15,21.74,4,23,5.42,33.85,2.35,18.42,2,32.17,1.55,49.18-.48,18.67-.81,31.51-4.39,48.65a199,199,0,0,1-8.4,29.09l-.9-59.89a46.42,46.42,0,0,1-6.72-12.83c-2.94-8.8-1.79-14.57-2.06-22.87-.06-1.61-.75-18.09-8.14-32.92a65.79,65.79,0,0,0-20.54-23.8c-2.88,1.1-18.08,6.83-25.58,6.61-1.27,0-4.72-.14-5.68-2.11-.56-1.15.16-2-.26-2.65-1.25-1.88-9.7,2.22-18,5.29-6.25,2.33-19.31,7.19-21.83,3.57-1.36-2,1-5.43,0-6.08-1.25-.79-4.48,4.5-11.5,8.59a22.77,22.77,0,0,1-8,3.31c-5.36.92-9.66-.94-16.14-3.84a74.56,74.56,0,0,1-13.44-7.8c1.47,1.44,2.94,3.24,2.46,4.37-.84,1.93-6.94.91-14.47-.4a149.39,149.39,0,0,1-19.38-4.76c-3-.92-5.4-1.77-7.1-2.38a41.31,41.31,0,0,1-12.79,2.91,41.76,41.76,0,0,1-18.35-3c-14,12.3-19.52,24.39-21.91,31.5a131.07,131.07,0,0,0-4.44,19.4c-1.8,11.5-1,15.68-3.1,24.33a69.91,69.91,0,0,1-7.49,18.51C447.54,427.7,446.74,438,445.19,438.2Z" fill="#42210b"/><path d="M449.8,366.49a96.83,96.83,0,0,0,2.92-14.28,57.63,57.63,0,0,1-1.37,8.71Q450.67,363.86,449.8,366.49Zm10-51.38a84.61,84.61,0,0,0-5.24,20.28A103.59,103.59,0,0,1,459.78,315.11Zm-5.51-36.87a37.1,37.1,0,0,1-9-11.18q-1,5.58-2,12a27,27,0,0,0,4.09,4,25.27,25.27,0,0,0,26.1,3.49A37.17,37.17,0,0,1,454.27,278.24Zm9,29.38a74.51,74.51,0,0,1,17.32-21A71,71,0,0,0,463.27,307.62ZM501,219.34c-2.53-2.79-4.81-5-6.46-6.48a44.12,44.12,0,0,1,7.76,11.64,44.69,44.69,0,0,1,2.84,8.33,91.65,91.65,0,0,0-34.49-31.57c-3.27-.31-6.3-.42-9.05-.43a29.52,29.52,0,0,1,8.14,10.71,29.83,29.83,0,0,1,2.58,11.11,35.38,35.38,0,0,0-19.89-9,12.86,12.86,0,0,1,3,4.49,13.12,13.12,0,0,1,.91,5.16,37.19,37.19,0,0,0-11.76,19A37.87,37.87,0,0,0,443.8,257a90.56,90.56,0,0,0,14,13.57c6.8,5.28,11.47,8.9,18.51,10.1,9.84,1.67,18-2.44,21.68-4.6l-26.23-23.4a248.56,248.56,0,0,0,34.37,18.51c7,3.07,13.67,5.64,20,7.8a100,100,0,0,0-6.46-29.22A98.94,98.94,0,0,0,501,219.34Zm120.24-41.91a68.1,68.1,0,0,0-11.73-11.9q.07,4,.13,8.07a99.48,99.48,0,0,0-20.27-12.83A98.38,98.38,0,0,0,570.2,154a87.86,87.86,0,0,1,21.31,29.4c14.68,33.08,3.81,64.41,1.2,71.37a134.52,134.52,0,0,0-11.62-61.88,129,129,0,0,0-11.7-20.51,48.94,48.94,0,0,0-39-8.27,68.53,68.53,0,0,1,5,6.3,72.24,72.24,0,0,1,10.47,22.48,77.7,77.7,0,0,0-9.69-12,76.45,76.45,0,0,0-12-9.91l0,0a48.45,48.45,0,0,0-11.39-3.34,45.34,45.34,0,0,0-18.05.58c-4.73,1.18-10.3,2.57-14.35,7.67a19.31,19.31,0,0,0-3.09,5.71,21.78,21.78,0,0,1,3.83-1,17.43,17.43,0,0,1,5.47-3.48c7.17-2.84,13.91.33,17.44,2,17.23,8.08,21.58,31.3,22.22,34.9a49.27,49.27,0,0,0-7.11-7.38c-1.11-.92-2.19-1.74-3.25-2.47a99.24,99.24,0,0,0,10.49,37.09,93.26,93.26,0,0,0,19.24,25.78A85.91,85.91,0,0,0,568.3,282a184.82,184.82,0,0,0-3.75-18.51c-1.54-6-3.27-11.46-5-16.39a57.29,57.29,0,0,1,17.05,31.6,28,28,0,0,0,8.78-5.69,28.83,28.83,0,0,0,7-10.58c-.43,3-1,6.15-1.81,9.52-.64,2.69-1.34,5.2-2.07,7.54a79.38,79.38,0,0,0,21.18-21.15c10.69-15.78,12.76-31.22,14-41A112.19,112.19,0,0,0,621.23,177.43Zm56.27,113.3c-1.1-1.05-2.17-2-3.19-2.82Q675.84,289.17,677.5,290.73Zm1.23,1.2c.5.5,1,1,1.44,1.48C679.69,292.9,679.21,292.41,678.73,291.93Zm1.44,1.48.3.31Zm1.13,1.2c-.28-.31-.56-.59-.83-.89l1.37,1.5Zm-3.8-3.88c.4.38.82.79,1.23,1.2l-.12-.12Q678.06,291.26,677.5,290.73ZM693.84,315c.2.52.4,1.06.6,1.61C694.25,316,694.06,315.51,693.84,315Zm4.47,17.32a79.47,79.47,0,0,0-3.87-15.71,76.48,76.48,0,0,1,3.31,12.51c.17.95.63,7.11,1.55,19.43.3,4.09.53,7.15.85,9.72-.43-4.23,0-7.78-.94-18C698.91,337,698.73,335,698.31,332.28Zm3.87,34.62a40.68,40.68,0,0,0,5.89,10.57,40.22,40.22,0,0,1-7.52-16.53A32.18,32.18,0,0,0,702.18,366.9Zm5.39-95.09a38.38,38.38,0,0,1-11,10.86,37.72,37.72,0,0,1-16,5.82c-1.77-1.9-3.54-3.79-5.3-5.69a59.2,59.2,0,0,0,8.39-10.18,63,63,0,0,0,9.58-26.05,98.35,98.35,0,0,1-16.68,16.14c-11.77,8.92-25.55,15-27.26,12.69-.72-1,1.28-2.74,2.2-7.67a24.45,24.45,0,0,0-.09-9.12,90.39,90.39,0,0,1-24.85,22.48c-7.82,4.75-17.27,8.78-18.34,7.14-1.5-2.32,15.39-13.27,24.29-33.32a31.72,31.72,0,0,0,3.1-16.26,29.63,29.63,0,0,0-4-12.17c.43-2.13.83-4.33,1.17-6.61a137.24,137.24,0,0,0,1.5-19.7A26.42,26.42,0,0,0,636.4,197a44.56,44.56,0,0,1,11.08,12.39,45.91,45.91,0,0,1,6.21,17.85A66.5,66.5,0,0,0,653.3,202a67.74,67.74,0,0,0-14.39-29.17,66.54,66.54,0,0,1,14.51,10,65.36,65.36,0,0,1,5.56,5.69,44.65,44.65,0,0,1,23.64,14.28c12.9,15.08,10.89,33.55,10.52,36.57a20.52,20.52,0,0,0,5.88-4,21,21,0,0,0,4.43-6.33c.23,5,.63,11.65,1.36,19.63a58.39,58.39,0,0,1-15.73,25.84,16.93,16.93,0,0,0,7-.67c5.34-1.71,8.64-5.9,10.7-7.7C707,268.22,707.31,270.09,707.57,271.81Zm-35.15-67.94c-1.69-7.88-9.3-10.58-9.68-10.71a58.65,58.65,0,0,1,4.06,8.93,59.37,59.37,0,0,1,3.1,13.49A15.33,15.33,0,0,0,672.42,203.87Zm35.65,173.6q.38,25.32.76,50.63a.06.06,0,0,1,0,0Q708.45,402.77,708.07,377.47ZM445.71,264.56A37.44,37.44,0,0,1,443.8,257c-1-1.18-2-2.41-3-3.72a41.49,41.49,0,0,0,4.43,13.79C445.41,266.21,445.56,265.38,445.71,264.56ZM441.9,417c-4.52-20.84-4.46-36.49-4.2-63.6.12-12,.34-29,2.68-51.52.86-8.25,1.87-15.89,2.92-22.85a26.64,26.64,0,0,1-3.15-4.82,591.38,591.38,0,0,0-6.33,61.35c-.83,19.23.05,30.58.39,34.37.56,6.47.84,6.29,1.55,14.41,1.61,18.37.47,22.18,2.24,32.41,1.71,9.9,5.43,21.72,7.19,21.45q3.27-.48-1.55-57.82,1.33,26.76,2.68,53.54C445.12,430,443.45,424.19,441.9,417Zm7.67-49.76c0-.05,0-.1.05-.16a72,72,0,0,1-6,13.3A67,67,0,0,0,449.57,367.24Zm3.15-15c1.27-8.62,1.17-11.69,1.79-16.63-.31,2-.52,3.51-.65,4.49C453.16,345.31,453,348.78,452.72,352.21Zm8.13-39.68q-.42.93-.75,1.77C460.34,313.71,460.6,313.12,460.85,312.53Zm1-2.1c-.36.73-.69,1.43-1,2.1C461.16,311.83,461.49,311.13,461.83,310.43Zm39-101.4c4.14-10.23,1-21.27-6.46-26.18a18.23,18.23,0,0,0-13.34-2.33,22.21,22.21,0,0,0-4.21,5.45,13.65,13.65,0,0,1,9.27-3c7.18.51,10.72,7,11,7.51,3.58,6.8.14,13.52-.13,14a72,72,0,0,0-10.33-3.84,73.68,73.68,0,0,0-23-2.78c2.13.91,4.47,2,7,3.34A99.17,99.17,0,0,1,500.86,209Zm125.19-24.46a70.29,70.29,0,0,1,7.1,16.92c.28-.31.67-.75,1.11-1.32,0-1.61,0-3.19-.07-4.72q-2.1-4.23-4.53-8.63c-3.48-6.27-7-12-10.59-17.19.72,2.31,1.46,4.92,2.16,7.8A68.22,68.22,0,0,1,626.05,184.57Zm11-12.64,1.88.92c-2.72-3.17-4.81-4.8-5.16-4.58-.72.47,6.68,9.35,4.3,19.47a19.2,19.2,0,0,1-3.86,7.71c.65.44,1.39,1,2.21,1.59a25.88,25.88,0,0,0,3.46-10.88A26.39,26.39,0,0,0,637,171.93ZM643.74,287c-.81-1.47,1.54-3.51.9-4.63-.33-.6-2.15-2.07-18.34,4.23-1.51.58-18.88,7.36-24.15,5.42a1.77,1.77,0,0,1-1.17-.93c-.66-1.56,2.25-3.79,4.78-7.14a28.72,28.72,0,0,0,4-7.4c-6,4.91-11.19,9-15.25,12-11.91,9-14.85,10.42-18.47,10.31-2.66-.07-6.28-2-13.44-5.95a117.78,117.78,0,0,1-13.43-8.06,86.48,86.48,0,0,1-18.09-17.72q5.92,9,12,18.12c1.33,2,2.67,4,4,5.95A73.43,73.43,0,0,1,527.48,289a76.62,76.62,0,0,1-32.64-17.86q7.21,6.69,14.43,13.36c-5.06.75-10.49,1.35-16.28,1.72-4.33.28-8.47.4-12.4.4A59.43,59.43,0,0,0,512,285.05c12.44,6,21.87,7.55,27.91,7.93,1.4.09,9.9.58,10.33-1.32.12-.52-.42-1-1.68-2.51a52.66,52.66,0,0,1-3.61-4.89,102.68,102.68,0,0,0,20.27,12.29c6.18,2.82,9.62,3.6,13.31,3.18s6.11-1.78,10.34-4.1a66.73,66.73,0,0,0,12-8.46c-.1.19-2.27,4.42-.51,6.48.67.79,1.75,1,3.61,1.05a26,26,0,0,0,9.82-1.85c3.43-1.34,6.91-2.58,10.33-4,6-2.43,16.13-6.48,17.31-4.5.57.95-1.29,2.61-.51,4s3,1.12,4.13,1.06A79.23,79.23,0,0,0,657.69,288c2.92-.72,7.3-1.77,12.92-2.91-8.52.71-15,1.69-19.51,2.51C649.08,287.93,644.7,288.76,643.74,287Zm39.4,9.71a68.81,68.81,0,0,1,10.57,17.85,63.51,63.51,0,0,0-3.85-8.19A66.56,66.56,0,0,0,683.14,296.75Zm32.16,24.53c-1.5-16.12-2.9-19-4.78-40.06-.47-5.25-.92-11.11-1.93-21.16-.8-7.89-1.55-14.39-2.07-18.77a62.48,62.48,0,0,1-1.71,7.35c.32,3.56.71,7.38,1.19,11.42.26,2.22.51,4.22.75,6.05.77-.67,1.37-1,1.84-.76s.88,1.21.39,4.23c-.37.64-.83,1.39-1.41,2.23,1.38,8.95,2.57,13.7,4,25,2.43,19.41,2.57,34.38,2.71,50.11.18,19.66-.71,34.54-1,39.53-1,16-2.69,30-4.4,41.6q.06,4.65.14,9.3c1.71-9.09,3.63-20.84,5.16-34.64a432.68,432.68,0,0,0,2.71-44.55C716.93,339,715.58,324.28,715.3,321.28ZM530.39,164.12c-1.34-1.53-2.68-2.91-3.95-4.14a11.78,11.78,0,0,1-6.58,5.16,11.15,11.15,0,0,1-6.08,0,77.17,77.17,0,0,1,10.33,5.8l0,0c1.16.49,2.18,1,3.06,1.45l-4.38-6.08A51.54,51.54,0,0,1,530.39,164.12ZM563.51,158c-1.31-2.18-2.66-4.16-4-5.95a102,102,0,0,1,10.68,2c-1.93-1.75-3.72-3.22-5.28-4.44l-11.55-.63a30.6,30.6,0,0,1,5.69,7.93,31.17,31.17,0,0,1,1.86,4.67,128.3,128.3,0,0,1,8.47,10.85c.4.28.76.55,1.1.81A73.76,73.76,0,0,0,563.51,158Z" fill="#fff" opacity="0.5" style="mix-blend-mode:overlay"/><path d="M474.09,266.25a48.56,48.56,0,0,1-17.24-9.92A50,50,0,0,1,444,238.08a56.49,56.49,0,0,0,9.88,7.84c1.81,1.13,7.79,4.86,8.92,3.57.84-1-1.2-4.46-2.43-6.55a28.93,28.93,0,0,0-2-3,16.44,16.44,0,0,1,6.85,1.61,17.2,17.2,0,0,1,3.07,1.93,37.28,37.28,0,0,0-5.59-8.67,36.09,36.09,0,0,0-7.17-6.34A93.12,93.12,0,0,1,477,240.36a94.38,94.38,0,0,1,14.92,13.79,73.54,73.54,0,0,0-16-6.21c-4.53-1.16-6.75-1.23-7.6-.07-1,1.37.24,4,1.32,6.22a26.06,26.06,0,0,0,5.88,7.89,86,86,0,0,1-8.71-4.64c-1.15-.69-2.25-1.4-3.31-2.1a26.87,26.87,0,0,0,10.56,11Zm12.57-35.34c-.67.58,6,9.83,10.78,15.93,4.36,5.6,11.57,14.32,12.53,13.62.36-.26-.36-1.69-3.29-9.52-1.88-5-2.12-5.86-1.88-6,.7-.45,4.3,5.25,11.31,12.69,3.19,3.39,7.81,7.89,8.18,7.55s-6.12-7.31-14.77-19.78c-5-7.19-8.27-12.77-9.32-12.26-1.4.68,2.72,11.2,1.18,11.93-.9.42-2.8-2.89-7.94-8.2C492.75,236.15,487.21,230.43,486.66,230.91ZM528.9,207a37.2,37.2,0,0,1,4.84,26.18,107.52,107.52,0,0,1,7.49-11.11c4.61-6,5.7-6.08,6.16-6.06,5.57.22,9.09,21.64,10.12,21.4.52-.12,0-5.7.65-14.41.15-2.26.31-3.68,1.09-4,1.56-.57,4.74,3.56,6.27,7.41a18.69,18.69,0,0,1,1.29,5.88c3.31-4.14,5.49-7.17,7-9.52a3.07,3.07,0,0,1,1.75-1.52c.58-.13,2.32-.22,6.78,6,3.35,4.64,4.06,7,4.58,6.87,1.08-.3.37-10.91-3.68-21.15a57.82,57.82,0,0,0-12.59-19.24c.17,1.85,1.44,16.49-2.72,17.79-.73.23-2.85.42-7.1-5.16.09.65.64,5.16-1.49,6.61s-7.22-.37-11.11-6.08c-.2,3.65-1.73,6.85-4.28,7.92s-5.28-.43-8.38-2.17A23.84,23.84,0,0,1,528.9,207Zm57.48-35.23a108.1,108.1,0,0,1,12.79,59.49,115.59,115.59,0,0,0,5-19.63c.42-2.53.73-5,1-7.34a26.71,26.71,0,0,1,4.84,7.54,27,27,0,0,1,2.13,9.71,49,49,0,0,0,4.27-19.83,36.71,36.71,0,0,1,3.87,8.33,37.21,37.21,0,0,1,1.75,12.5,57.83,57.83,0,0,0-.59-30.35,55.45,55.45,0,0,0-7.55-15.66A130.18,130.18,0,0,1,615.25,193c0,1.69,0,3.34,0,4.95a22.89,22.89,0,0,0-6.52-9.65,16.5,16.5,0,0,1,.06,4.83,16.9,16.9,0,0,1-2.84,7.34A89.53,89.53,0,0,0,598.14,186,88.64,88.64,0,0,0,586.38,171.75Zm66.27,79.13a31.27,31.27,0,0,0-2.52-23.8,51.69,51.69,0,0,1-1.55,22.8,51,51,0,0,1-9.88,18.25A30.3,30.3,0,0,0,652.65,250.88Zm13.18-45.62a73.42,73.42,0,0,1-7.75,43,79.08,79.08,0,0,0,9.3-12.5,77.62,77.62,0,0,0,4.26-8.13,40.72,40.72,0,0,1-.39,7.34,41.21,41.21,0,0,1-1.74,7.34,22.52,22.52,0,0,0,5.23-5.75c1.92-3.06,2.48-5.66,2.91-5.56s0,4.85-.58,8.13a73.38,73.38,0,0,1-1.94,8.33,36.92,36.92,0,0,0,8.14-15.66,38.41,38.41,0,0,0-2.52-24.59,22.24,22.24,0,0,1-1,13.68,20.3,20.3,0,0,1-3.49,5.55,48.09,48.09,0,0,0-1.16-9.32,50.38,50.38,0,0,0-1.74-5.95,24.35,24.35,0,0,1-1.17,6.94,23.88,23.88,0,0,1-2.71,5.75,40.17,40.17,0,0,0-3.68-18.64Z" fill="#fff" opacity="0.6" style="mix-blend-mode:overlay"/><path d="M448.67,369.78c.33-.89.65-1.81,1-2.76C449.35,367.92,449,368.84,448.67,369.78Zm5.56-32.24a139,139,0,0,1,3.82-17.44,119,119,0,0,0-4,18.77C454.09,338.44,454.16,338,454.23,337.54ZM460,314.46c2.94-7.22,8.7-17.44,20.54-27.82C468.29,297.15,462.7,307.81,460,314.46ZM643.74,287c-.81-1.47,1.55-3.51.9-4.63-.34-.6-2.15-2.06-18.34,4.23-1.5.58-18.87,7.36-24.16,5.42a1.74,1.74,0,0,1-1.16-.93c-.66-1.56,2.25-3.79,4.78-7.14a28.57,28.57,0,0,0,4-7.4c-6,4.91-11.18,9-15.24,12-11.91,9-14.84,10.41-18.47,10.31-2.66-.07-6.29-2-13.44-5.95a116.9,116.9,0,0,1-13.43-8.06,86.5,86.5,0,0,1-18.09-17.72q5.92,9,12,18.12c1.33,2,2.67,4,4,5.95A73.06,73.06,0,0,1,527.48,289a76.73,76.73,0,0,1-32.64-17.86l14.42,13.36c-5.05.75-10.48,1.36-16.28,1.72-4.32.28-8.47.4-12.4.4a41.17,41.17,0,0,0,31.14.13c1.7.61,4.14,1.46,7.1,2.38a147.76,147.76,0,0,0,19.38,4.76c7.53,1.31,13.64,2.33,14.47.4.48-1.14-1-2.92-2.46-4.37a74.56,74.56,0,0,0,13.44,7.8c6.48,2.9,10.78,4.76,16.14,3.84a22.66,22.66,0,0,0,8-3.31c7-4.1,10.24-9.37,11.5-8.59,1,.65-1.36,4.12,0,6.08,2.52,3.63,15.58-1.24,21.83-3.57,8.26-3.07,16.71-7.17,18-5.29.42.64-.3,1.5.26,2.65.95,2,4.41,2.08,5.68,2.11,7.5.22,22.7-5.51,25.58-6.61-8.52.71-15,1.7-19.51,2.51C649.08,287.93,644.7,288.77,643.74,287Zm33.76,3.7a67.52,67.52,0,0,0-6.89-5.69A73.8,73.8,0,0,1,677.5,290.74Zm13.65,18.11a79.42,79.42,0,0,1,6.54,19.9,73.6,73.6,0,0,0-7.08-21C690.79,308.16,691,308.51,691.15,308.85Zm10.2,55.79c.26.77.53,1.52.82,2.25-1.9-5.09-2.17-9-2.87-18.31C699.24,353.73,699.27,358.43,701.35,364.64Zm20.41-5c-.48,18.67-.82,31.51-4.39,48.65a200.67,200.67,0,0,1-8.4,29.09c0-3.08-.09-6.17-.14-9.25,1.72-11.65,3.37-25.68,4.41-41.65.32-5,1.2-19.87,1-39.53-.14-15.72-.28-30.7-2.71-50.11-1.93-15.37-3.43-18.62-5.56-36.76-1.54-13.08-2.21-23.88-2.55-31.05a21.2,21.2,0,0,1-4.42,6.33,20.4,20.4,0,0,1-5.89,4c.38-3,2.38-21.48-10.52-36.56A44.62,44.62,0,0,0,659,188.54a65.13,65.13,0,0,0-5.55-5.69A66.88,66.88,0,0,0,637,171.93a26.06,26.06,0,0,1-3.88,29.56A69.73,69.73,0,0,0,626,184.57a68.88,68.88,0,0,0-16.53-19l.12,8.07a100,100,0,0,0-20.28-12.83,98.59,98.59,0,0,0-29.84-8.72,71.43,71.43,0,0,1,4,5.95,74,74,0,0,1,7,15.2,49.18,49.18,0,0,0-47.66-6.87l4.39,6.08a48.82,48.82,0,0,0-14.49-4.81,45.08,45.08,0,0,0-18.07.58c-4.72,1.18-10.29,2.58-14.33,7.67a18.92,18.92,0,0,0-3.1,5.71c1.1-.42,9.76-3.59,17.18,1.29s10.59,16,6.46,26.18a99.93,99.93,0,0,0-15.64-5.29,98.86,98.86,0,0,0-23.64-2.91,29.52,29.52,0,0,1,8.14,10.71,30,30,0,0,1,2.59,11.11,35.73,35.73,0,0,0-8.14-5.55,35.19,35.19,0,0,0-11.76-3.44,12.86,12.86,0,0,1,3,4.49,13.12,13.12,0,0,1,.91,5.16,37.26,37.26,0,0,0-11.76,19,38.14,38.14,0,0,0,1.16,22.21c-1.86,10.27-3.82,22.86-5.32,37.32a515.19,515.19,0,0,0-2.67,51.53c-.26,27.1-.33,42.76,4.18,63.59,1.57,7.19,3.23,13,4.43,16.92q-1.33-26.78-2.68-53.54c3.9,47.32,3.1,57.6,1.56,57.83-2.58.37-9.4-27-12.67-53.07a336.23,336.23,0,0,1-2.33-46.81A406.19,406.19,0,0,1,438,265.15a48.74,48.74,0,0,1,1.73-28,46.6,46.6,0,0,1,10.08-15.86,17,17,0,0,0-3.49-6.35,16.7,16.7,0,0,0-5.68-4.23,29.74,29.74,0,0,1,25.7,3.7,14.65,14.65,0,0,0-16.7-12.33,32.57,32.57,0,0,1,15.54-7.1,26.3,26.3,0,0,1,4.78-.32c-.51-2.87-1.9-12.76,4-21.1,6-8.52,15.85-10,22.21-11a45.57,45.57,0,0,1,20.53,1.68A31.18,31.18,0,0,1,529,157.47c5.83-1.64,10.69-1.05,16-.4A63.51,63.51,0,0,1,557.7,160a21.81,21.81,0,0,0-6.84-9,20.81,20.81,0,0,0-8.27-3.83,97.16,97.16,0,0,1,42.76,5,95.44,95.44,0,0,1,17.21,8.2L597.1,150.2A65.43,65.43,0,0,1,613,160.51a71.39,71.39,0,0,1,15,18.77,84.23,84.23,0,0,1,6.2,13.22,33.6,33.6,0,0,0-3.42-19.3,32.62,32.62,0,0,0-12.34-13.09,63.3,63.3,0,0,1,43.27,21.55,50.77,50.77,0,0,1,20.8,12.3,52.91,52.91,0,0,1,14.34,25.78c1.82-2.27,3.65-4.59,5.48-7,1.26-1.65,2.49-3.28,3.69-4.91,1.91,15.58,3.56,28.64,4.78,38.34,2.66,20.94,3.42,26.35,4,30.41,3.15,21.75,4,23,5.42,33.85C722.56,328.86,722.2,342.61,721.76,359.62ZM478.46,195.8c1,.2,2.12.43,3.29.67a94.79,94.79,0,0,1,14.85,4.36c.56-5.26-1.46-10.18-5.29-12.56-2.24-1.4-7-3.1-10.34-.26C477.84,190.7,478.41,195.4,478.46,195.8Zm-24.6,144.27c0-.11,0-.23.05-.35-1.28,9.19-.88,13.45-2.39,20.48C453.13,352.89,452.66,349.09,453.86,340.07Zm4.61-21.29c.21-.65.43-1.29.66-1.93q-.24.66-.45,1.29C458.6,318.35,458.54,318.56,458.47,318.78ZM689.2,305.27a62.91,62.91,0,0,0-9.16-12A68.73,68.73,0,0,1,689.2,305.27Zm8.49,23.48a1.91,1.91,0,0,0,.06.33c.17,1,.63,7.12,1.55,19.43,0-2.12.07-4.33,0-6.74A89.78,89.78,0,0,0,697.69,328.75Zm4.48,38.15a41,41,0,0,0,5.9,10.57A46.73,46.73,0,0,1,702.17,366.9Z" fill="#000100"/></g></g></g></svg>