<svg xmlns="http://www.w3.org/2000/svg" viewBox="0 0 1080 1920"><g style="isolation:isolate"><g id="hair"><g id="_3" data-name="3"><path d="M438.76,398.42c.58,0,.6-15.49.53-28.85a75.17,75.17,0,0,1,13.44-23,72,72,0,0,1,9.56-9.25,456.63,456.63,0,0,1,11.88-48.66c.85-2.78,1.64-8,5.69-10.57,4.79-3.05,10.61-.44,21.7,2.91,5.9,1.78,14.22,4.05,24.54,6.08,6.21.38,57.93,3.44,87.11,1.41,8.52-.59,12.78-.89,18.82-2.21,12.63-2.74,17.12-6.39,29.57-7.71,7.36-.78,11.71-1.18,16.16,1.37,4.71,2.7,7.51,7.55,10.59,17.85a145.4,145.4,0,0,1,5.94,38.73c7.27,4.73,15.58,11.93,20.41,22.75,7.43,16.6,3.22,34,3.22,34s.21-30.42.66-40.35c.06-1.24.25-5.25.06-10.68-.07-2-.19-4.05-.38-6.31a136.68,136.68,0,0,0-2.78-17.65,143,143,0,0,0-12.14-34.9,132.18,132.18,0,0,0-28.42-37.29c-26.62-24.13-56.43-29.62-73.38-32.52-12.95-2.22-39.58-6.46-71.82,3.44-13.21,4.05-39.07,12.34-60.46,36.49-25.61,28.92-29.36,63.15-32,87.52C433.9,371.35,438,398.44,438.76,398.42Z" fill="#42210b"/><path d="M452.08,304a17.65,17.65,0,0,1,1.29-8.2,17.28,17.28,0,0,1,4-5.81,63.52,63.52,0,0,1-2.07,6.74A62.66,62.66,0,0,1,452.08,304Zm10.38-13.23a63.52,63.52,0,0,0,2.07-6.74,17.24,17.24,0,0,0-4,5.82,17.62,17.62,0,0,0-1.29,8.2A62.86,62.86,0,0,0,462.46,290.76Zm7.24-9.52a61.08,61.08,0,0,0,2.06-6.74,17.1,17.1,0,0,0-4,5.82,17.62,17.62,0,0,0-1.29,8.2A62.86,62.86,0,0,0,469.7,281.24Zm-1.89-7a60.74,60.74,0,0,0,2.07-6.75,17.21,17.21,0,0,0-4,5.82,17.63,17.63,0,0,0-1.29,8.2A61.79,61.79,0,0,0,467.81,274.24Zm14.51-16.55a63.11,63.11,0,0,0,3.12-6.31,17,17,0,0,0-4.89,5.07,17.61,17.61,0,0,0-2.59,7.87A62.06,62.06,0,0,0,482.32,257.69Zm10.2-4.9a60.92,60.92,0,0,0,3.12-6.3,17,17,0,0,0-4.88,5.06,17.68,17.68,0,0,0-2.59,7.87A60.12,60.12,0,0,0,492.52,252.79Zm-10.2,12.94a63.11,63.11,0,0,0,3.12-6.31,17.27,17.27,0,0,0-4.89,5.07,17.61,17.61,0,0,0-2.59,7.87A61.06,61.06,0,0,0,482.32,265.73Zm-4.27,2.14a60.92,60.92,0,0,0,3.12-6.3,17,17,0,0,0-4.88,5.06,17.68,17.68,0,0,0-2.59,7.87A60.12,60.12,0,0,0,478.05,267.87ZM488.79,266a63,63,0,0,0,3.12-6.3,16.9,16.9,0,0,0-4.89,5.07,17.62,17.62,0,0,0-2.59,7.86A60.1,60.1,0,0,0,488.79,266Zm8.73-14.76a63.11,63.11,0,0,0,3.12-6.31,17.15,17.15,0,0,0-4.89,5.07,17.61,17.61,0,0,0-2.59,7.87A61.06,61.06,0,0,0,497.52,251.22Zm3.73-12.17a61,61,0,0,0,3.12-6.31,17,17,0,0,0-4.88,5.07,17.61,17.61,0,0,0-2.59,7.87A63.66,63.66,0,0,0,501.25,239.05Zm0,15.22a60.92,60.92,0,0,0,3.12-6.3,17,17,0,0,0-4.88,5.06,17.65,17.65,0,0,0-2.59,7.87A61.59,61.59,0,0,0,501.25,254.27Zm4.26-11.63a63.32,63.32,0,0,0,3.13-6.31,17,17,0,0,0-4.89,5.07,17.61,17.61,0,0,0-2.59,7.87A62.08,62.08,0,0,0,505.51,242.64Zm-9.25,25.23a63,63,0,0,0,3.12-6.3,17,17,0,0,0-4.88,5.06,17.42,17.42,0,0,0-2.59,7.87A61.59,61.59,0,0,0,496.26,267.87Zm5-.66a61,61,0,0,0,3.12-6.31,17,17,0,0,0-4.88,5.07,17.61,17.61,0,0,0-2.59,7.87A63.66,63.66,0,0,0,501.25,267.21Zm4.26-11.64a63.23,63.23,0,0,0,3.13-6.3,16.84,16.84,0,0,0-4.89,5.06,17.65,17.65,0,0,0-2.59,7.87A60.12,60.12,0,0,0,505.51,255.57Zm3.14,6.93a55.64,55.64,0,0,0,1.81-5.5,14.35,14.35,0,0,0-3.16,4.65,16.46,16.46,0,0,0-1.33,6.74A56.78,56.78,0,0,0,508.65,262.5Zm-1,9.92c.76-2,1.35-3.82,1.82-5.5a14.23,14.23,0,0,0-3.17,4.65,16.81,16.81,0,0,0-1.33,6.74A55.66,55.66,0,0,0,507.66,272.42Zm-4.56-.26a55.86,55.86,0,0,0,1.82-5.5,14.46,14.46,0,0,0-3.17,4.65,16.85,16.85,0,0,0-1.33,6.75A53.93,53.93,0,0,0,503.1,272.16Zm10.5-5a56.88,56.88,0,0,0,1.82-5.51,14.46,14.46,0,0,0-3.17,4.65,16.85,16.85,0,0,0-1.33,6.75A54.59,54.59,0,0,0,513.6,267.18Zm1-10.87c.76-2,1.35-3.82,1.82-5.51a14.46,14.46,0,0,0-3.17,4.65,16.88,16.88,0,0,0-1.33,6.75A55.66,55.66,0,0,0,514.62,256.31Zm0-7.24c.76-2,1.35-3.81,1.82-5.5a14.34,14.34,0,0,0-3.17,4.65,16.82,16.82,0,0,0-1.33,6.75A55.89,55.89,0,0,0,514.62,249.07Zm5.94,1.54a56,56,0,0,0,1.82-5.51,14.26,14.26,0,0,0-3.16,4.66,16.69,16.69,0,0,0-1.34,6.74A53.71,53.71,0,0,0,520.56,250.61Zm0-9.52a56.75,56.75,0,0,0,1.82-5.5,14.19,14.19,0,0,0-3.16,4.65,16.69,16.69,0,0,0-1.34,6.74A53.71,53.71,0,0,0,520.56,241.09Zm6.83-5.5c.75-2,1.35-3.82,1.81-5.51a14.42,14.42,0,0,0-3.16,4.66,16.46,16.46,0,0,0-1.33,6.74A57.76,57.76,0,0,0,527.39,235.59ZM525.17,230a55.08,55.08,0,0,0,3.45-4.61,14.34,14.34,0,0,0-4.46,3.36,16.61,16.61,0,0,0-3.38,6A53.11,53.11,0,0,0,525.17,230Zm-13.85,12.38a41.69,41.69,0,0,0,2.87-4.79,13.86,13.86,0,0,0-4.67,3.76,10.75,10.75,0,0,0-2.29,6A43.23,43.23,0,0,0,511.32,242.42Zm5.94-9.78a39.77,39.77,0,0,0,2.87-4.79,13.73,13.73,0,0,0-4.67,3.76,10.78,10.78,0,0,0-2.29,6A42.24,42.24,0,0,0,517.26,232.64Zm-4.14-1.85A41.29,41.29,0,0,0,516,226a13.64,13.64,0,0,0-4.67,3.76,10.7,10.7,0,0,0-2.29,6A42.22,42.22,0,0,0,513.12,230.79Zm15.18,15.39a62.37,62.37,0,0,0,2.14-6.72,17.29,17.29,0,0,0-4.07,5.77,17.61,17.61,0,0,0-1.38,8.18A63.88,63.88,0,0,0,528.3,246.18Zm-1.73,13.62a62.57,62.57,0,0,0,2.15-6.72,17.14,17.14,0,0,0-4.08,5.77,17.61,17.61,0,0,0-1.38,8.18A63.88,63.88,0,0,0,526.57,259.8Zm6.43-16a61.67,61.67,0,0,0,2.14-6.72,17.29,17.29,0,0,0-4.07,5.77,17.81,17.81,0,0,0-1.39,8.18A61.36,61.36,0,0,0,533,243.84Zm1.88-12.61a64.69,64.69,0,0,0,2.14-6.72,17.29,17.29,0,0,0-4.07,5.77,17.66,17.66,0,0,0-1.39,8.18A61.36,61.36,0,0,0,534.88,231.23Zm2.27,15a64.57,64.57,0,0,0,2.14-6.71,17.18,17.18,0,0,0-4.07,5.77,17.65,17.65,0,0,0-1.39,8.18A61.55,61.55,0,0,0,537.15,246.27Zm2.47-12.16a61.87,61.87,0,0,0,2.15-6.72,17.29,17.29,0,0,0-4.07,5.77,17.68,17.68,0,0,0-1.39,8.18A61.41,61.41,0,0,0,539.62,234.11Zm-5.38,26.39a63.09,63.09,0,0,0,2.14-6.72,17.18,17.18,0,0,0-4.07,5.77,17.61,17.61,0,0,0-1.38,8.18A63.88,63.88,0,0,0,534.24,260.5Zm4.83-1.44a61.87,61.87,0,0,0,2.15-6.72,17.15,17.15,0,0,0-4.07,5.77,17.53,17.53,0,0,0-1.39,8.18A61.41,61.41,0,0,0,539.07,259.06Zm2.48-12.17a62.45,62.45,0,0,0,2.15-6.71,17,17,0,0,0-4.07,5.76,17.57,17.57,0,0,0-1.39,8.19A61.6,61.6,0,0,0,541.55,246.89Zm4.13,6.36a57.77,57.77,0,0,0,1-5.72,14.59,14.59,0,0,0-2.44,5.09,16.71,16.71,0,0,0-.31,6.88A54.87,54.87,0,0,0,545.68,253.25Zm.5,10c.46-2.06.77-4,1-5.72a14.5,14.5,0,0,0-2.44,5.09,16.84,16.84,0,0,0-.31,6.87A54.66,54.66,0,0,0,546.18,263.21Zm-4.54.46a57.94,57.94,0,0,0,1-5.73,14.59,14.59,0,0,0-2.44,5.09,16.89,16.89,0,0,0-.31,6.88A54.66,54.66,0,0,0,541.64,263.67Zm9.64-6.57c.45-2.06.76-4,1-5.73a14.43,14.43,0,0,0-2.43,5.09,16.71,16.71,0,0,0-.31,6.88A59.1,59.1,0,0,0,551.28,257.1Zm-.62-10.9c.46-2.06.77-4,1-5.72a14.5,14.5,0,0,0-2.44,5.09,16.84,16.84,0,0,0-.31,6.87A54.66,54.66,0,0,0,550.66,246.2Zm-1.08-7.15c.46-2.06.77-4,1-5.72a14.41,14.41,0,0,0-2.44,5.09,16.84,16.84,0,0,0-.31,6.87A54.66,54.66,0,0,0,549.58,239.05Zm6.11.59c.45-2.06.76-4,1-5.72a14.34,14.34,0,0,0-2.43,5.09,16.66,16.66,0,0,0-.31,6.87A59.1,59.1,0,0,0,555.69,239.64Zm-1.42-9.41c.46-2.06.76-4,1-5.72a14.52,14.52,0,0,0-2.43,5.09,16.66,16.66,0,0,0-.31,6.87A58.42,58.42,0,0,0,554.27,230.23Zm5.92-6.5a55.23,55.23,0,0,0,1-5.72,14.7,14.7,0,0,0-2.43,5.09,16.66,16.66,0,0,0-.31,6.87A59.1,59.1,0,0,0,560.19,223.73Zm-3-5.13c1.08-1.8,2-3.52,2.72-5.1a14.22,14.22,0,0,0-3.91,4,16.77,16.77,0,0,0-2.45,6.41A56.49,56.49,0,0,0,557.18,218.6ZM545.33,233a39.73,39.73,0,0,0,2.12-5.18,13.87,13.87,0,0,0-4.05,4.44,10.83,10.83,0,0,0-1.37,6.32A44.24,44.24,0,0,0,545.33,233Zm4.41-10.59a42.06,42.06,0,0,0,2.13-5.19,13.94,13.94,0,0,0-4.06,4.45,10.76,10.76,0,0,0-1.36,6.31A43.61,43.61,0,0,0,549.74,222.4Zm-4.36-1.19a41.34,41.34,0,0,0,2.13-5.18,13.77,13.77,0,0,0-4.06,4.44,10.9,10.9,0,0,0-1.37,6.32A42,42,0,0,0,545.38,221.21Zm13.38,31.63a61.87,61.87,0,0,0-.13-7.06,17.45,17.45,0,0,0-.68,15A64.29,64.29,0,0,0,558.76,252.84Zm2.73,13.45a61.77,61.77,0,0,0-.13-7.06,17.52,17.52,0,0,0-.68,15A62.05,62.05,0,0,0,561.49,266.29Zm1-17.23a62,62,0,0,0-.13-7.07,17.79,17.79,0,0,0-2,6.82,17.62,17.62,0,0,0,1.32,8.19A62.25,62.25,0,0,0,562.45,249.06Zm-2.27-12.55a64.42,64.42,0,0,0-.12-7.06,17.49,17.49,0,0,0-.69,15A62.41,62.41,0,0,0,560.18,236.51Zm7,13.46a62,62,0,0,0-.13-7.07,17.45,17.45,0,0,0-2,6.82,17.78,17.78,0,0,0,1.31,8.19A64,64,0,0,0,567.15,250Zm-1.56-12.33a61.87,61.87,0,0,0-.13-7.06,17.54,17.54,0,0,0-.68,15A62.41,62.41,0,0,0,565.59,237.64ZM569,264.38a62,62,0,0,0-.13-7.07,17.45,17.45,0,0,0-.68,15A66.1,66.1,0,0,0,569,264.38Zm4.1-3a62.15,62.15,0,0,0-.12-7.07,17.45,17.45,0,0,0-2,6.82,17.64,17.64,0,0,0,1.31,8.19A62.25,62.25,0,0,0,573.06,261.4Zm-1.55-12.33a61.87,61.87,0,0,0-.13-7.06,17.44,17.44,0,0,0-.68,15A62.41,62.41,0,0,0,571.51,249.07Zm5.94,4.63c-.23-2.1-.56-4-.92-5.74a14.82,14.82,0,0,0-.67,5.63,16.83,16.83,0,0,0,1.91,6.6A54.84,54.84,0,0,0,577.45,253.7Zm3.66,9.23a56.62,56.62,0,0,0-.91-5.73,14.76,14.76,0,0,0-.67,5.62,16.71,16.71,0,0,0,1.91,6.6A55.12,55.12,0,0,0,581.11,262.93Zm-4.14,2c-.23-2.1-.55-4-.91-5.74a14.61,14.61,0,0,0-.67,5.63,16.44,16.44,0,0,0,1.91,6.6A57.36,57.36,0,0,0,577,264.89Zm7-9.44a56.17,56.17,0,0,0-.91-5.73,14.73,14.73,0,0,0-.67,5.62,16.77,16.77,0,0,0,1.91,6.6A55.12,55.12,0,0,0,584,255.45Zm-4.07-10.09a56.17,56.17,0,0,0-.91-5.73,14.76,14.76,0,0,0-.67,5.62,16.77,16.77,0,0,0,1.91,6.6A55.12,55.12,0,0,0,579.89,245.36ZM576.58,239a56.85,56.85,0,0,0-.91-5.74,14.82,14.82,0,0,0-.67,5.63,16.77,16.77,0,0,0,1.91,6.6A55,55,0,0,0,576.58,239Zm6-1.49a56.7,56.7,0,0,0-.92-5.74,15,15,0,0,0-.67,5.63,16.77,16.77,0,0,0,1.91,6.6A54.84,54.84,0,0,0,582.54,237.48Zm-4.36-8.41a56.85,56.85,0,0,0-.91-5.74,14.82,14.82,0,0,0-.67,5.63,16.83,16.83,0,0,0,1.91,6.6A57.14,57.14,0,0,0,578.18,229.07Zm3.51-8.13a56.85,56.85,0,0,0-.91-5.74,14.82,14.82,0,0,0-.67,5.63,16.83,16.83,0,0,0,1.91,6.6A57.14,57.14,0,0,0,581.69,220.94Zm-4.49-3.84a58.05,58.05,0,0,0,.94-5.73,14.56,14.56,0,0,0-2.4,5.1,16.7,16.7,0,0,0-.27,6.88A55.92,55.92,0,0,0,577.2,217.1Zm-6.58,17.57a41,41,0,0,0,.35-5.6,14.06,14.06,0,0,0-2.41,5.55,10.93,10.93,0,0,0,.73,6.43A44.34,44.34,0,0,0,570.62,234.67Zm.77-11.49a41,41,0,0,0,.35-5.61,14.33,14.33,0,0,0-2.41,5.56,10.84,10.84,0,0,0,.74,6.43A43.08,43.08,0,0,0,571.39,223.18Zm-4.5.35a39.65,39.65,0,0,0,.35-5.61,14.06,14.06,0,0,0-2.4,5.56,10.74,10.74,0,0,0,.73,6.42A42.66,42.66,0,0,0,566.89,223.53Zm-22.17,57.74a63.63,63.63,0,0,0,.8-7,17.21,17.21,0,0,0-2.88,6.48,17.75,17.75,0,0,0,.23,8.29A62.65,62.65,0,0,0,544.72,281.27ZM550,268.79a17.92,17.92,0,0,0,.61,4.85,62,62,0,0,0,1.81-7.61C551.67,267,550.86,267.91,550,268.79Zm2.36,11.61a63.63,63.63,0,0,0,.8-7,17.21,17.21,0,0,0-2.88,6.48,17.81,17.81,0,0,0,.23,8.3A63.27,63.27,0,0,0,552.37,280.4Zm4.46-2.39a63.63,63.63,0,0,0,.8-7,17.22,17.22,0,0,0-2.87,6.48,17.71,17.71,0,0,0,.22,8.3A63.27,63.27,0,0,0,556.83,278Zm-2.24-11.56a17.76,17.76,0,0,0,.47,6.9c.57-1.89,1.12-4,1.58-6.38C556,266.82,555.27,266.64,554.59,266.45Zm6.54,1.17a14.71,14.71,0,0,0-.5,3,16.65,16.65,0,0,0,1,6.8,55.66,55.66,0,0,0,.53-6.47c0-1.15,0-2.25,0-3.29Zm3.47,13c0-2.11,0-4.06-.15-5.81a14.86,14.86,0,0,0-1.4,5.49,16.68,16.68,0,0,0,1,6.8A58.31,58.31,0,0,0,564.6,280.64ZM560.24,282c0-2.11,0-4.06-.15-5.81a14.63,14.63,0,0,0-1.41,5.49,16.86,16.86,0,0,0,1,6.8A55.84,55.84,0,0,0,560.24,282Zm8.17-8.39c.05-2.11,0-4.06-.15-5.81a14.63,14.63,0,0,0-1.41,5.48,16.88,16.88,0,0,0,1,6.81A56,56,0,0,0,568.41,273.62Zm-53.64,1.92a65.92,65.92,0,0,0,2.64-6.54,17,17,0,0,0-4.49,5.44,17.57,17.57,0,0,0-2,8.05A61.42,61.42,0,0,0,514.77,275.54ZM523.18,265a17.48,17.48,0,0,0-.7,4.83,63.29,63.29,0,0,0,3.76-6.81A36.32,36.32,0,0,1,523.18,265Zm-.82,11.83A62.14,62.14,0,0,0,525,270.3a17,17,0,0,0-4.49,5.43,17.53,17.53,0,0,0-2,8A63.07,63.07,0,0,0,522.36,276.83Zm4.93-1.06a61.28,61.28,0,0,0,2.64-6.53,17,17,0,0,0-4.49,5.43,17.71,17.71,0,0,0-2,8.05A61.42,61.42,0,0,0,527.29,275.77Zm.92-11.76a17.71,17.71,0,0,0-1.39,6.78,61.71,61.71,0,0,0,3.22-5.7Q529.11,264.58,528.21,264Zm6,2.95a14.9,14.9,0,0,0-1.29,2.79,16.72,16.72,0,0,0-.82,6.83,56.18,56.18,0,0,0,2.23-6.09c.33-1.09.61-2.15.85-3.17C534.83,267.21,534.51,267.09,534.19,267Zm-.11,13.5c.6-2,1.06-3.91,1.39-5.63a14.56,14.56,0,0,0-2.8,4.89,16.54,16.54,0,0,0-.82,6.83A56.18,56.18,0,0,0,534.08,280.46Zm-4.57.11c.61-2,1.06-3.92,1.4-5.64a14.48,14.48,0,0,0-2.81,4.89,16.67,16.67,0,0,0-.81,6.83A56.86,56.86,0,0,0,529.51,280.57Zm10.09-5.81c.61-2,1.06-3.91,1.4-5.63a14.37,14.37,0,0,0-2.81,4.89,16.67,16.67,0,0,0-.81,6.83A56.29,56.29,0,0,0,539.6,274.76Zm168.55,30.42a17.59,17.59,0,0,0-1.29-8.19,17.24,17.24,0,0,0-4-5.82,63.52,63.52,0,0,0,2.07,6.74A62.66,62.66,0,0,0,708.15,305.18ZM701,299.23a17.62,17.62,0,0,0-1.29-8.2,17.24,17.24,0,0,0-4-5.82,64.36,64.36,0,0,0,2.07,6.75A63.43,63.43,0,0,0,701,299.23Zm-7.24-9.52a17.63,17.63,0,0,0-1.29-8.2,17.21,17.21,0,0,0-4-5.82,61.87,61.87,0,0,0,2.06,6.75A63.43,63.43,0,0,0,693.76,289.71Zm1.89-7a17.69,17.69,0,0,0-1.3-8.2,17.14,17.14,0,0,0-4-5.81,61.27,61.27,0,0,0,2.07,6.74A59.44,59.44,0,0,0,695.65,282.7Zm-13.38-17.19a17.61,17.61,0,0,0-2.59-7.87,17,17,0,0,0-4.89-5.07,63.11,63.11,0,0,0,3.12,6.31A62.06,62.06,0,0,0,682.27,265.51Zm-10.21-4.9a17.62,17.62,0,0,0-2.59-7.86,16.89,16.89,0,0,0-4.88-5.07,59.94,59.94,0,0,0,3.12,6.3A61.59,61.59,0,0,0,672.06,260.61Zm10.21,12.94a17.61,17.61,0,0,0-2.59-7.87,17.15,17.15,0,0,0-4.89-5.07,63.11,63.11,0,0,0,3.12,6.31A61.06,61.06,0,0,0,682.27,273.55Zm4.26,2.14a17.68,17.68,0,0,0-2.59-7.87,17,17,0,0,0-4.88-5.06,60.92,60.92,0,0,0,3.12,6.3A60.12,60.12,0,0,0,686.53,275.69Zm-10.73-1.88a17.61,17.61,0,0,0-2.59-7.87,17,17,0,0,0-4.89-5.07,63.11,63.11,0,0,0,3.12,6.31A62.06,62.06,0,0,0,675.8,273.81ZM667.07,259a17.61,17.61,0,0,0-2.59-7.87,17,17,0,0,0-4.88-5.06,61.93,61.93,0,0,0,3.12,6.3A61.09,61.09,0,0,0,667.07,259Zm-3.74-12.17a17.61,17.61,0,0,0-2.59-7.87,17.14,17.14,0,0,0-4.88-5.07,61,61,0,0,0,3.12,6.31A63.66,63.66,0,0,0,663.33,246.87Zm0,15.22a17.68,17.68,0,0,0-2.59-7.87,17,17,0,0,0-4.88-5.06,60.92,60.92,0,0,0,3.12,6.3A61.59,61.59,0,0,0,663.33,262.09Zm-4.26-11.63a17.61,17.61,0,0,0-2.59-7.87,17.14,17.14,0,0,0-4.88-5.07,61.66,61.66,0,0,0,7.47,12.94Zm9.25,25.23a17.42,17.42,0,0,0-2.59-7.87,17,17,0,0,0-4.88-5.06,63,63,0,0,0,3.12,6.3A61.59,61.59,0,0,0,668.32,275.69Zm-5-.66a17.61,17.61,0,0,0-2.59-7.87,17.14,17.14,0,0,0-4.88-5.07A61,61,0,0,0,659,268.4,63.66,63.66,0,0,0,663.33,275Zm-4.26-11.64a17.68,17.68,0,0,0-2.59-7.87,17,17,0,0,0-4.88-5.06,60.92,60.92,0,0,0,3.12,6.3A60.12,60.12,0,0,0,659.07,263.39Zm-4.8,6.2a16.73,16.73,0,0,0-1.34-6.75,14.35,14.35,0,0,0-3.16-4.65,55.86,55.86,0,0,0,1.82,5.5A53.93,53.93,0,0,0,654.27,269.59Zm1,9.91a16.81,16.81,0,0,0-1.33-6.74,14.34,14.34,0,0,0-3.17-4.65c.47,1.69,1.06,3.54,1.82,5.5A55.66,55.66,0,0,0,655.25,279.5Zm4.56-.25a16.85,16.85,0,0,0-1.33-6.75,14.46,14.46,0,0,0-3.17-4.65c.47,1.69,1.06,3.54,1.82,5.51A56.6,56.6,0,0,0,659.81,279.25Zm-10.5-5a16.88,16.88,0,0,0-1.33-6.75,14.46,14.46,0,0,0-3.17-4.65c.47,1.69,1.06,3.54,1.82,5.51A56.6,56.6,0,0,0,649.31,274.26Zm-1-10.87a16.81,16.81,0,0,0-1.33-6.74,14.23,14.23,0,0,0-3.17-4.65c.47,1.68,1.06,3.54,1.82,5.5A55.66,55.66,0,0,0,648.29,263.39Zm0-7.23a16.85,16.85,0,0,0-1.33-6.75,14.46,14.46,0,0,0-3.17-4.65c.47,1.69,1.06,3.54,1.82,5.5A55.89,55.89,0,0,0,648.29,256.16Zm-5.94,1.53A16.81,16.81,0,0,0,641,251a14.34,14.34,0,0,0-3.17-4.65,56.75,56.75,0,0,0,1.82,5.5A53.71,53.71,0,0,0,642.35,257.69Zm0-9.52a16.81,16.81,0,0,0-1.33-6.74,14.34,14.34,0,0,0-3.17-4.65,55.86,55.86,0,0,0,1.82,5.5A52.86,52.86,0,0,0,642.35,248.17Zm-6.82-5.5a16.69,16.69,0,0,0-1.34-6.74,14.35,14.35,0,0,0-3.16-4.65,56.75,56.75,0,0,0,1.82,5.5A53.71,53.71,0,0,0,635.53,242.67Zm3.92-6.74a16.45,16.45,0,0,0-3.38-6,14.34,14.34,0,0,0-4.46-3.36,56,56,0,0,0,7.84,9.31ZM653,248.61a10.75,10.75,0,0,0-2.29-6,13.89,13.89,0,0,0-4.67-3.76,39.68,39.68,0,0,0,2.88,4.79A43.21,43.21,0,0,0,653,248.61Zm-5.94-9.78a10.8,10.8,0,0,0-2.29-6A13.73,13.73,0,0,0,640.1,229a39,39,0,0,0,2.87,4.79A43.23,43.23,0,0,0,647.06,238.83Zm4.13-1.85a10.7,10.7,0,0,0-2.29-6,13.55,13.55,0,0,0-4.67-3.76,41.29,41.29,0,0,0,2.88,4.79A43.21,43.21,0,0,0,651.19,237ZM635.25,254.6a17.66,17.66,0,0,0-1.39-8.18,17.29,17.29,0,0,0-4.07-5.77,61.46,61.46,0,0,0,5.46,13.95ZM637,268.22a17.62,17.62,0,0,0-1.38-8.18,17.14,17.14,0,0,0-4.08-5.77,64.14,64.14,0,0,0,2.15,6.72A63.08,63.08,0,0,0,637,268.22Zm-6.42-16a17.68,17.68,0,0,0-1.39-8.18,17.29,17.29,0,0,0-4.07-5.77,61.67,61.67,0,0,0,2.14,6.72A60.61,60.61,0,0,0,630.55,252.26Zm-1.88-12.61a17.66,17.66,0,0,0-1.39-8.18,17.29,17.29,0,0,0-4.07-5.77,63.94,63.94,0,0,0,2.14,6.72A63,63,0,0,0,628.67,239.65Zm-2.27,15a17.65,17.65,0,0,0-1.39-8.18,17.29,17.29,0,0,0-4.07-5.77,62.73,62.73,0,0,0,5.46,13.95Zm-2.48-12.17a17.55,17.55,0,0,0-1.39-8.18,17.15,17.15,0,0,0-4.07-5.77,61.87,61.87,0,0,0,2.15,6.72A60.67,60.67,0,0,0,623.92,242.53Zm5.39,26.39a17.8,17.8,0,0,0-1.39-8.18,17.29,17.29,0,0,0-4.07-5.77,61.46,61.46,0,0,0,5.46,14Zm-4.84-1.44a17.53,17.53,0,0,0-1.39-8.18,17.15,17.15,0,0,0-4.07-5.77,62.73,62.73,0,0,0,5.46,14ZM622,255.32a17.61,17.61,0,0,0-1.38-8.18,17,17,0,0,0-4.08-5.77,62.45,62.45,0,0,0,2.15,6.71A63.28,63.28,0,0,0,622,255.32Zm-5.67,5.37a16.71,16.71,0,0,0-.31-6.88,14.79,14.79,0,0,0-2.43-5.09,56.6,56.6,0,0,0,2.74,12Zm-.5,9.95a16.84,16.84,0,0,0-.31-6.87,14.5,14.5,0,0,0-2.44-5.09c.21,1.74.52,3.66,1,5.72A54.66,54.66,0,0,0,615.82,270.64Zm4.54.46a16.84,16.84,0,0,0-.31-6.87,14.41,14.41,0,0,0-2.44-5.09c.21,1.74.52,3.66,1,5.72A54.66,54.66,0,0,0,620.36,271.1Zm-9.63-6.57a16.84,16.84,0,0,0-.31-6.87,14.41,14.41,0,0,0-2.44-5.09c.21,1.74.52,3.66,1,5.72A56.67,56.67,0,0,0,610.73,264.53Zm.61-10.9a16.84,16.84,0,0,0-.31-6.87,14.5,14.5,0,0,0-2.44-5.09c.21,1.74.52,3.66,1,5.72A54.66,54.66,0,0,0,611.34,253.63Zm1.08-7.15a16.84,16.84,0,0,0-.31-6.87,14.5,14.5,0,0,0-2.44-5.09c.21,1.74.52,3.66,1,5.72A54.66,54.66,0,0,0,612.42,246.48Zm-6.1.59a16.84,16.84,0,0,0-.31-6.87,14.5,14.5,0,0,0-2.44-5.09c.21,1.74.52,3.66,1,5.72A56.67,56.67,0,0,0,606.32,247.07Zm1.41-9.4a16.71,16.71,0,0,0-.31-6.88A14.43,14.43,0,0,0,605,225.7c.21,1.74.52,3.67,1,5.72A59.32,59.32,0,0,0,607.73,237.67Zm-5.92-6.51a16.66,16.66,0,0,0-.31-6.87,14.52,14.52,0,0,0-2.43-5.09,55.23,55.23,0,0,0,1,5.72A58.42,58.42,0,0,0,601.81,231.16Zm4.88-6a16.68,16.68,0,0,0-2.45-6.4,14,14,0,0,0-3.91-4,56.85,56.85,0,0,0,2.73,5.1A54.7,54.7,0,0,0,606.69,225.11Zm11.51,14.65a10.79,10.79,0,0,0-1.37-6.31,13.82,13.82,0,0,0-4.05-4.45,38.52,38.52,0,0,0,2.13,5.18A43.08,43.08,0,0,0,618.2,239.76Zm-4.42-10.6a10.76,10.76,0,0,0-1.36-6.31,14,14,0,0,0-4.06-4.45,42.06,42.06,0,0,0,2.13,5.19A43.61,43.61,0,0,0,613.78,229.16Zm4.37-1.18a10.91,10.91,0,0,0-1.37-6.32,13.87,13.87,0,0,0-4-4.44,39.73,39.73,0,0,0,2.12,5.18A44.24,44.24,0,0,0,618.15,228Zm-15.86,34a17.78,17.78,0,0,0,1.31-8.19,17.45,17.45,0,0,0-2-6.82,62,62,0,0,0-.13,7.07A64,64,0,0,0,602.29,262Zm-2.74,13.45a17.54,17.54,0,0,0-.68-15,62.78,62.78,0,0,0,.68,15Zm-1-17.23a17.69,17.69,0,0,0,1.32-8.2,17.5,17.5,0,0,0-2-6.81,62.78,62.78,0,0,0,.68,15Zm2.27-12.55a17.54,17.54,0,0,0-.68-15,62.73,62.73,0,0,0,.68,15Zm-7,13.45a17.78,17.78,0,0,0,1.31-8.19,17.45,17.45,0,0,0-2-6.82,62,62,0,0,0-.13,7.07A64,64,0,0,0,593.9,259.1Zm1.55-12.32a17.54,17.54,0,0,0-.68-15,62.73,62.73,0,0,0,.68,15Zm-3.36,26.73a17.78,17.78,0,0,0,1.31-8.19,17.45,17.45,0,0,0-2-6.82,62,62,0,0,0-.13,7.07A64,64,0,0,0,592.09,273.51Zm-4.11-3a17.49,17.49,0,0,0-.69-15,64.55,64.55,0,0,0-.12,7.07A62.25,62.25,0,0,0,588,270.53Zm1.55-12.32a17.45,17.45,0,0,0-.68-15,61.87,61.87,0,0,0-.13,7.06A64.29,64.29,0,0,0,589.53,258.21Zm-4.77-33.67a16.7,16.7,0,0,0-.27-6.88,14.56,14.56,0,0,0-2.4-5.1c.2,1.74.5,3.67.94,5.73A55.92,55.92,0,0,0,584.76,224.54Zm6.18,17.7a10.91,10.91,0,0,0,.73-6.42,14.05,14.05,0,0,0-2.41-5.56,41.2,41.2,0,0,0,.35,5.61A43.91,43.91,0,0,0,590.94,242.24Zm-.78-11.49a10.84,10.84,0,0,0,.74-6.43,14.33,14.33,0,0,0-2.41-5.56,41,41,0,0,0,.35,5.61A44.4,44.4,0,0,0,590.16,230.75Zm4.5.34a10.81,10.81,0,0,0,.74-6.42,14.2,14.2,0,0,0-2.41-5.56,41.2,41.2,0,0,0,.35,5.61A42.66,42.66,0,0,0,594.66,231.09Zm22.7,59.14a17.67,17.67,0,0,0,.23-8.3,17.21,17.21,0,0,0-2.88-6.48,62.42,62.42,0,0,0,2.65,14.78Zm-9.56-23a64.18,64.18,0,0,0,1.81,7.6,17.92,17.92,0,0,0,.61-4.85C609.37,269.1,608.56,268.18,607.8,267.23Zm1.91,22.13a17.67,17.67,0,0,0,.23-8.3,17.21,17.21,0,0,0-2.88-6.48,62.42,62.42,0,0,0,2.65,14.78ZM605.25,287a17.81,17.81,0,0,0,.23-8.3,17.21,17.21,0,0,0-2.88-6.48A62.42,62.42,0,0,0,605.25,287Zm-1.66-18.81a63.19,63.19,0,0,0,1.59,6.38,18,18,0,0,0,.46-6.9C605,267.83,604.28,268,603.59,268.16Zm-5.52.73c0,1-.05,2.14,0,3.29a56,56,0,0,0,.53,6.48,16.88,16.88,0,0,0,1-6.81,15.37,15.37,0,0,0-.51-3Zm-1.91,19.42a16.9,16.9,0,0,0,1-6.8,14.66,14.66,0,0,0-1.4-5.48c-.13,1.74-.2,3.69-.15,5.8A55.66,55.66,0,0,0,596.16,288.31Zm4.36,1.37a16.68,16.68,0,0,0,1-6.8,14.63,14.63,0,0,0-1.41-5.48c-.13,1.75-.2,3.69-.15,5.8A55.66,55.66,0,0,0,600.52,289.68Zm-8.17-8.39a16.68,16.68,0,0,0,1-6.8A14.63,14.63,0,0,0,592,269c-.13,1.75-.2,3.7-.15,5.81A56,56,0,0,0,592.35,281.29Zm-3.93,1.06a16.68,16.68,0,0,0,1-6.8,14.63,14.63,0,0,0-1.41-5.49c-.13,1.75-.2,3.7-.15,5.81A56,56,0,0,0,588.42,282.35ZM579,283.92a16.71,16.71,0,0,0,1-6.81,14.86,14.86,0,0,0-1.4-5.48,56.27,56.27,0,0,0-.16,5.81A58.35,58.35,0,0,0,579,283.92Zm-6.14,1.73a16.68,16.68,0,0,0,1-6.8,14.86,14.86,0,0,0-1.4-5.49c-.13,1.75-.2,3.7-.15,5.81A56.19,56.19,0,0,0,572.85,285.65ZM584,288.31a16.9,16.9,0,0,0,1-6.8,14.47,14.47,0,0,0-1.4-5.48c-.13,1.74-.2,3.69-.15,5.8A55.66,55.66,0,0,0,584,288.31Zm1.6-11.85a16.72,16.72,0,0,0,1-6.8,14.47,14.47,0,0,0-1.4-5.48c-.13,1.75-.2,3.7-.15,5.81A55.66,55.66,0,0,0,585.64,276.46ZM606.21,269a16.62,16.62,0,0,0,1-6.8,14.86,14.86,0,0,0-1.4-5.48c-.13,1.75-.2,3.7-.15,5.81A55.81,55.81,0,0,0,606.21,269Zm-21.29-19.88a26.29,26.29,0,0,0,1.38-6.69,18.16,18.16,0,0,0-.31-5.15c-.27,1.71-.52,3.6-.71,5.64C585.06,245.24,585,247.32,584.92,249.12Zm0-12.45a26.39,26.39,0,0,0,1.38-6.7,18,18,0,0,0-.31-5.14c-.27,1.7-.52,3.6-.71,5.63C585.06,232.79,585,234.86,584.92,236.67Zm64.38,47a17.57,17.57,0,0,0-2-8.05,17,17,0,0,0-4.49-5.43,66.8,66.8,0,0,0,2.64,6.53A61.42,61.42,0,0,0,649.3,283.68ZM634,264.21a63.29,63.29,0,0,0,3.76,6.81,17.48,17.48,0,0,0-.7-4.83A36.32,36.32,0,0,1,634,264.21ZM641.71,285a17.71,17.71,0,0,0-2-8.05,17.1,17.1,0,0,0-4.49-5.43A62.17,62.17,0,0,0,641.71,285Zm-4.93-1.06a17.57,17.57,0,0,0-2-8.05,17.1,17.1,0,0,0-4.49-5.43,64.85,64.85,0,0,0,2.64,6.53A61.42,61.42,0,0,0,636.78,283.91Zm-6.59-17.63a61.71,61.71,0,0,0,3.22,5.7A17.71,17.71,0,0,0,632,265.2Q631.12,265.77,630.19,266.28Zm-5.12,2.23c.24,1,.52,2.08.85,3.18a56.75,56.75,0,0,0,2.23,6.08,16.72,16.72,0,0,0-.82-6.83,14.29,14.29,0,0,0-1.29-2.79C625.72,268.28,625.4,268.4,625.07,268.51Zm3.31,19.23a16.54,16.54,0,0,0-.82-6.83,14.56,14.56,0,0,0-2.8-4.89c.34,1.72.79,3.61,1.4,5.63A54.24,54.24,0,0,0,628.38,287.74Zm4.57.1a16.91,16.91,0,0,0-.82-6.83,14.48,14.48,0,0,0-2.81-4.89c.34,1.72.79,3.62,1.4,5.64A54.67,54.67,0,0,0,633,287.84Zm-10.1-5.8a16.67,16.67,0,0,0-.81-6.83,14.37,14.37,0,0,0-2.81-4.89c.34,1.72.79,3.62,1.4,5.63A56.29,56.29,0,0,0,622.85,282Z" fill="#fff" opacity="0.5" style="mix-blend-mode:overlay"/><path d="M432.92,367.66a176.05,176.05,0,0,1,0-27.35,165.7,165.7,0,0,1,4.24-26.13,156,156,0,0,1,13.68-35.92,126.88,126.88,0,0,1,16.92-24.9A121.25,121.25,0,0,1,490.69,233a124.45,124.45,0,0,1,30.14-14.82,159.65,159.65,0,0,1,42.71-8.73,170.52,170.52,0,0,1,31.65.92,157.09,157.09,0,0,1,30.43,5.8,141,141,0,0,1,33.79,15.18,129,129,0,0,1,25.43,20.84,122.83,122.83,0,0,1,15.27,20.37c1.9,3.17,3.4,6.06,4.27,7.73a178.65,178.65,0,0,1,8.14,17.91,126.33,126.33,0,0,1,7.56,26.46c1.1,6.81,1.22,12.1,1.44,22.68.11,5.21.18,14.65-.54,26.64-.54,9-1.57,20-3.56,32.61l-.94-17.31c.07-3.82.16-9.49.18-16.38.05-15.82-.33-11.15-.67-33.53a84.18,84.18,0,0,0-1.67-17.77,80.52,80.52,0,0,0-2.46-8.87c-3.9-11.92-6.15-19-10.6-27.63a130.77,130.77,0,0,0-15.52-23.73,127.93,127.93,0,0,0-24.42-22.1,146.72,146.72,0,0,0-39.46-18.89,164.39,164.39,0,0,0-50.38-7c-12.9.18-33,.66-56,10.73a123.77,123.77,0,0,0-24.85,14.48,121.07,121.07,0,0,0-26.82,28.1,129.15,129.15,0,0,0-13.33,25.89,139.37,139.37,0,0,0-5.82,19.64,184.1,184.1,0,0,0-4.26,32c-.22,3.71-.26,6.56,0,28.55.11,10.07.21,18.45.29,24.37l.69,16.07q-2.2-7.9-4.4-15.81A235.84,235.84,0,0,1,432.92,367.66Zm35.83-56c7-26,11.21-29.12,14.21-30.15s4.49,0,13.69,2.38c7.84,2.05,15.88,3.2,23.77,5,15.11,3.49,37.11,4.78,53,4.49,23.9-.43,56.73-1,87.07-10,3.7-1.1,9.51-3,15-.27,8.77,4.32,11.71,17.85,16,38.87,1.12,5.43,1.85,10,2.33,13.22A138,138,0,0,0,689.9,304c-3.34-13.76-5.82-24-13.43-28.29-7.14-4-13.54.12-28.61,4.32-18.11,5.05-37.33,5.45-75.77,6.25a234.11,234.11,0,0,1-25.58-.52A195.83,195.83,0,0,1,515.25,281c-21.71-5.24-27.62-11-34.69-7.05-1.33.75-4.62,2.93-9.75,19.74-6.58,21.6-8.13,40.89-7.49,41C463.73,334.73,464.65,326.93,468.75,311.66Z"/></g></g></g></svg>