<svg xmlns="http://www.w3.org/2000/svg" viewBox="0 0 1080 1920"><g style="isolation:isolate"><g id="hair"><g id="_30" data-name="30"><path d="M455.27,412.71c-3.51-6.76-7.5-16.94-7-29.15.54-12.6,5.28-13.48,7.75-30.94s-1.47-21.61,3.69-32.52c2-4.3,4.53-7.65,7-15.07a69.8,69.8,0,0,0,3.1-14.48,20.66,20.66,0,0,0,9.7-2.14,21.47,21.47,0,0,0,8.9-8.37A34.66,34.66,0,0,0,507,275.67a56.17,56.17,0,0,0,26.74-3,73.23,73.23,0,0,1,21.12,25.58c4.49,9.2,3.27,11.92,7.94,20.63a67.35,67.35,0,0,0,26.94,26.77c7.15,3.85,17.85,9.62,31.39,7.14a40.72,40.72,0,0,0,18.6-8.92c-5,.27-15.41.05-25-6.75-7-5-10.46-11.25-13.56-16.85a70.54,70.54,0,0,1-7.75-22.22c11.81,20.93,26.24,29.31,32.94,32.53,12.35,5.93,26.71,7.88,30,8.33,11.63,1.58,16,.31,25,2.58a62.5,62.5,0,0,1,25,13.09q3,33.5,6,67a79.69,79.69,0,0,1,2.19-12.42c1.5-5.79,3-11.71,7.29-17.82A40.27,40.27,0,0,1,732.55,381q2.63-16.07,5.24-32.13a21.84,21.84,0,0,1,4.65,6.95c1.93,4.68,1.48,8.51,1.74,8.52.64,0,5.31-23.48,3.1-49.18-1.24-14.48-5.45-38.79-21.51-66.63A59.34,59.34,0,0,1,739.53,260a60.38,60.38,0,0,1,8.91,13.29,132.32,132.32,0,0,0-26-47,135.15,135.15,0,0,0-26.16-23,137.49,137.49,0,0,0-39.53-18.44,25.09,25.09,0,0,0,10.85-7.94,26.93,26.93,0,0,0,5.43-18,78.71,78.71,0,0,1-22.29,8.92c-11.59,2.64-22.16,1.86-42.82.2-7.56-.61-13.74-1.3-17.83-1.79a27.51,27.51,0,0,0,6.59-10.51A28,28,0,0,0,598,142.6c-10.15,11.78-20,17-27.22,19.64-15.23,5.51-21.75.4-43.6,6.54-8.75,2.46-17.74,5.09-26.74,12.69a59.31,59.31,0,0,0-15.89,21.62,27.43,27.43,0,0,0-10.85,6.35,28.65,28.65,0,0,0-7.95,13.88,18.47,18.47,0,0,0-8.33,1c-8.48,3.13-14.22,12.8-15.31,24.59a67.46,67.46,0,0,0-14.72,27.37,68.52,68.52,0,0,0-.58,32.92,66,66,0,0,0-2.52,32.33A64.41,64.41,0,0,0,431.05,361a49,49,0,0,0,4.84,32.92A46.64,46.64,0,0,0,455.27,412.71Z" fill="#42210b"/><path d="M447.85,302.25c2.6,7.2,3.3,10.26,1.93,13.35-1.7,3.84-6.53,7.58-11.78,6.35a9.43,9.43,0,0,1-3.18-1.39A75,75,0,0,1,439.41,262c-2.28,8.14-1.7,14.18-.48,18.48C440.42,285.75,442.94,288.72,447.85,302.25Zm5,48.52c-.58,2-1.19,4.28-1.86,7.66A66.6,66.6,0,0,0,452.84,350.77Zm17.87-75.1a35,35,0,0,1-10.46-12.29A38.12,38.12,0,0,1,456.37,248a52.22,52.22,0,0,1,2.05-19,25,25,0,0,0-7.22,6c-1.64,2-5.77,7.63-6.2,25.78a125.72,125.72,0,0,0,1.4,21.87,68.38,68.38,0,0,0,3.51,8.34c1.68,3.35,6,12,9,11.24,2.2-.53,3.92-6.07,2.58-10.31-1.26-4-4.57-4.79-6.55-10.1a18.33,18.33,0,0,1-1.08-5,13.23,13.23,0,0,0,8,2.52A13.42,13.42,0,0,0,470.71,275.67Zm65.75-81.17a22.93,22.93,0,0,0-10.59,3.83,23.91,23.91,0,0,0-7.63,8.46,45,45,0,0,1,12.53-17.58c3.91-3.28,7.34-4.93,12-7.14a83.59,83.59,0,0,1,8.88-3.57,16.69,16.69,0,0,1,1.84-2c3.16-2.91,6.39-3.66,11.82-5.16,8.33-2.29,12.5-3.44,14.34-4.36,3.56-1.78,8.19-5.3,12.21-13.09A85.85,85.85,0,0,1,562.43,168c-9.4,2.37-14,1.65-30.23,5.35-10.65,2.43-16,3.64-20.54,6.35-8.6,5.1-14,12.38-20.16,20.82-1.38,1.88-2.63,3.68-3.74,5.37-2.08,3.15-3.73,5.93-5,8.12.12-3.5-.45-4.37-1-4.56a1,1,0,0,0-.56,0c-2.28.65-6.55,8.37-8.94,12.7-1.77,3.19-3.12,5.64-4.18,7.78-.67,7-.07,16.05,5.54,23,1.83,2.28,6.52,8.12,14.21,9.13a18.4,18.4,0,0,0,7.23-.53,25.49,25.49,0,0,1-5.43-8.86,25.86,25.86,0,0,1-1.28-11.9,52.6,52.6,0,0,0,20.28,16.92,50.43,50.43,0,0,0,16.4,4.5A54.48,54.48,0,0,1,517.34,243a48.66,48.66,0,0,1,.65-23.54C522.24,205,532.74,197,536.46,194.5ZM590.24,170l-2.43-.63c-.52.35-1.1.74-1.77,1.13C587.4,170.31,588.8,170.15,590.24,170Zm-28.3,71.36a30,30,0,0,0-14.18-2.54A43.92,43.92,0,0,1,561.94,241.37Zm102.73,96.21a117.12,117.12,0,0,0,18.16,2h-.06C674.93,338.34,669.27,337.85,664.67,337.58Zm11.3-52q9.16,6.44,18.61,13.68c2.81,2.17,5.57,4.34,8.25,6.51v0a217.34,217.34,0,0,0-11.15-21.54,239,239,0,0,0-22.1-31.38l0,0c-6.92-7-16.74-16.66-32.45-23.79-23.81-10.79-45.93-8.79-56.44-7.08a105.46,105.46,0,0,1,46.48-6.15,103.18,103.18,0,0,1,23.06,5,102.48,102.48,0,0,1,22,.8,90.94,90.94,0,0,1,25.83,4.36,92.5,92.5,0,0,1,31.78,17.85,149.29,149.29,0,0,0-36.23-35.9,146.59,146.59,0,0,0-22-12.58c-19-2.08-35.73-3.49-49.8-4.47C596,189,584.59,189,571,193.17A96.6,96.6,0,0,0,544,206.39a78.47,78.47,0,0,1,41.66-6.21,68.16,68.16,0,0,0-35.13,11.64c-7.17,5-15,10.38-17.77,20.82-3.56,13.69,4.44,25.44,5.24,26.57,4.68,6.65,7.45,4.84,14.33,12.1,6.39,6.72,9.36,14.07,15.32,28.76,4,9.91,5,14.64,10.26,20.23A37.13,37.13,0,0,0,588.39,328a44.31,44.31,0,0,1-12.2-20.62,105.73,105.73,0,0,0,11.62,14.27,104,104,0,0,0,10.08,9.13A41.72,41.72,0,0,1,587.62,312a28.57,28.57,0,0,0,4.65,6.74,28.15,28.15,0,0,0,3.72,3.36c-5.9-9.79-8.71-21.22-12.25-35.69-4.29-17.47-2.81-20.34-6.78-27-7.55-12.59-22.12-17.7-34-20l-.3,0-1-.18c.44-.06,1.41-.19,2.78-.28,21.34-5.19,31.75-1.27,37.33,3.85,6.9,6.35,5.11,13.34,15.7,28.56a92.84,92.84,0,0,0,19.57,20.63,87.65,87.65,0,0,0,36.62,16.26,84.77,84.77,0,0,1-20.92-24.39,86,86,0,0,1-7.57-17.65,132.78,132.78,0,0,0,27.71,25.18c9,6,13.66,7.56,22.29,13.49a124.22,124.22,0,0,1,27.71,26.37,73.31,73.31,0,0,0-11.24-28.75A71.11,71.11,0,0,0,676,285.59Zm65.89,29.55c-.33-2.45-.74-5.26-1.27-8.37a130,130,0,0,0-13.65-31.1c-4.55-7.46-13-21-29.27-32.92a102.48,102.48,0,0,0-40.1-17.65A87.61,87.61,0,0,1,683,249.3a90,90,0,0,1,14.12,32.78c2.13,3.33,3.75,6.11,4.87,8.13q5.53,5.28,11.24,11.25c5.93,6.22,11.3,12.32,16.16,18.21v0a100.06,100.06,0,0,0-11.89-24.93,82,82,0,0,1,13.46,15.76c1.29,2,2.56,4.14,3.79,6.45a82.57,82.57,0,0,1,9.1,30.15A227.47,227.47,0,0,0,741.86,315.14ZM442.09,277.66a49,49,0,0,0,6,14.08c-.71-3.15-1.27-6.18-1.7-9.07a83.88,83.88,0,0,1-4.37-28,57.28,57.28,0,0,0-2.62,7.3c.61-1.18,1.2-2.23,1.71-3.13A49.49,49.49,0,0,0,442.09,277.66Zm5.42,125.14a38.47,38.47,0,0,1-11.23-21.72,37.71,37.71,0,0,1,1.26-16.46,60.53,60.53,0,0,1-9.21-29.25,59.81,59.81,0,0,1,2-18.25l4.94,4.86c-.17-.45-.32-.93-.49-1.42a11.53,11.53,0,0,1-4.8-10.77c-.65,3.07-1.46,7.43-2.08,12.69-.95,8.28-1.68,14.42-.57,21.61a51.3,51.3,0,0,0,7.17,19.24,37.51,37.51,0,0,0-1.36,16.46c1,7.14,3.94,12,6.21,15.87a54.77,54.77,0,0,0,10,12.42c-.46-2.87-1-7-1.34-12-.24-3.95-.78-15.33,2-32.33.32-2,.63-3.77.94-5.3-1.16,3.72-2.35,6.35-3.47,10.65C445.57,376.59,444.23,387.7,447.51,402.8Zm13.58-156.87a55.37,55.37,0,0,0,4.83,17.45c-3.84-12.91-1.79-22.43-.57-26.58a39.37,39.37,0,0,1,2.79-6.89,50.61,50.61,0,0,1,2.18-10.69l-5.81,7.14-4.78-1.19c-.44,1.17-.89,2.48-1.31,3.9a28.52,28.52,0,0,1,3.83-1.78A55.37,55.37,0,0,0,461.09,245.93Zm62.77,25.58c-13.4,2.56-24.58-5.38-27.9-7.93a19.2,19.2,0,0,0,4.07,6.54,18.16,18.16,0,0,0,3.69,3,30.85,30.85,0,0,1-8.34,2.57A31.7,31.7,0,0,1,479.46,274c1.16.49,4.41,2,4.49,4.23.08,2.49-4,4.28-6.4,5.35-3.39,1.5-9.39,3.35-18,2.18a22.41,22.41,0,0,0,2.9,2.38,22.74,22.74,0,0,0,2.72,1.59,51.84,51.84,0,0,1-1.93,10.51c-1.66,5.64-3.35,7.74-5.05,12.49-.81,2.28-1.31,4.29-2.7,15.67-1.9,15.47-1.51,16.2-2.52,21.81l-.09.48a63.81,63.81,0,0,0,3.18-15c1-9.25.38-13.19,3.1-20.43,1.87-4.94,3.68-7.14,6.21-13.88a86.33,86.33,0,0,0,3.88-13.69,14.16,14.16,0,0,0,11.35-2.07,14.5,14.5,0,0,0,5.5-8c8.27,2.7,15.51,1.94,18-2a6.37,6.37,0,0,0,1-3,27,27,0,0,0,27.34-3.61c-.52,0-1,0-1.37,0A28.88,28.88,0,0,1,523.86,271.51ZM540.25,240c-1,.26-1.88.52-2.63.77C538.51,240.5,539.39,240.24,540.25,240Zm37.67-65.86a34.64,34.64,0,0,0,8.12-3.63c-5.65.77-10.79,1.89-16.38,3.1a159.25,159.25,0,0,0-18,4.89,18.77,18.77,0,0,0-2.23,3.57,37.79,37.79,0,0,1,12.4-5.55C568.13,175,571.54,176.05,577.92,174.14ZM590,294.61a71,71,0,0,0,2.16,11.47C591.22,301.76,590.09,295.29,590,294.61Zm7,24a67.71,67.71,0,0,1-4.81-12.54c.19.89.36,1.68.52,2.32A38.31,38.31,0,0,0,596.94,318.62Zm0,.05c.93,1.86,2,3.91,3.22,6,.57.29,1.1.54,1.57.74A53.15,53.15,0,0,1,597,318.67Zm3.22,6a28.69,28.69,0,0,1-4.2-2.64,53.94,53.94,0,0,0,4.8,6.75c4,4.79,11.54,12.11,25,17.26-25.15,2.91-38.61-6.7-42.63-9.92-13-10.43-20.21-28.66-21.32-31.53-3.51-9.14-4.43-16.45-11.23-25-6.42-8.06-12.19-9.81-15.32-10.31a19.78,19.78,0,0,0-2.88-.24,26.35,26.35,0,0,1,7.34,3.41,29.49,29.49,0,0,1,9.11,10.12c5.87,9.91,9.82,18.58,12.41,24,5.14,10.76,7.72,16.14,11.81,21.62,3,4.06,9.18,12.3,18.41,17.25,17.58,9.44,37.2,2,42,0A42.74,42.74,0,0,1,610.87,337,41.85,41.85,0,0,1,600.19,324.71ZM650.78,172a110.21,110.21,0,0,0,16.86-5.15,51.86,51.86,0,0,1-14.92,14.67,166.26,166.26,0,0,0-26.55-1.19c-5.82.21-11.26.72-16.28,1.39a146.54,146.54,0,0,1,61.75,13.6l7.18.81-24.29-11.63a29.1,29.1,0,0,0,7.75-5.95,30,30,0,0,0,6.84-12.43c-18,5.91-32.34,6.44-42.11,5.82-11.5-.73-17.52-3.12-32.16-2.25-1.6.09-3.13.22-4.61.37a145.66,145.66,0,0,0,18.11,3.33C616.94,174.37,632.16,176.07,650.78,172Zm-106.31,67c-.6.14-1.2.29-1.82.46-.78.2-1.58.41-2.4.64.82-.21,1.73-.41,2.7-.59a37,37,0,0,1,4.79-.58C546.49,238.8,545.39,238.84,544.47,238.9ZM602.54,304a97.37,97.37,0,0,1-13.38-19.43c.18-2.24,1.26-21.2-13.56-34.9A40.08,40.08,0,0,0,562,241.39c10.08,4.61,14.68,13.94,19.24,23.18a97.42,97.42,0,0,1,7.94,25.19c.11.61.37,2.32.81,4.85a127.21,127.21,0,0,0,28.45,26.48c10.78,7.28,19.42,13.56,32.36,15.47,4.4.65,8.38.69,13.89,1A116,116,0,0,1,645,332C635.82,328.5,618.08,321.59,602.54,304ZM737.4,345.68a98.13,98.13,0,0,0-6.49-35.17.06.06,0,0,1,0,0,97.73,97.73,0,0,0-32.84-42.73c4.68,6.06,9.47,12.83,14.2,20.33a264.44,264.44,0,0,1,17.07,31.57v0a99.25,99.25,0,0,1,3.61,15.5,101.24,101.24,0,0,1-2.14,40.26,35.39,35.39,0,0,0-8.33,7.53,37.48,37.48,0,0,0-7.35,15.67q-.28-14.47-.59-28.95c1,3.36,2.43,7.27,3.67,7.14,2.57-.27,3.64-17.59,2.52-31.14-1.94-23.71-11-41-17.62-53.35l-1.17-2.12q-2-2-4.07-3.83c-.21-1.27-.47-2.71-.8-4.3a188,188,0,0,0-26.91-33,185.16,185.16,0,0,0-19.06-16.2,246.91,246.91,0,0,1,18.45,19.9l0,0a146,146,0,0,1,33.25,52.92v0a137.9,137.9,0,0,1,7.24,19.67,151.74,151.74,0,0,1,5.24,31.34,101.9,101.9,0,0,0-33.91-37.68,97.06,97.06,0,0,0-28.49-12.7,111.07,111.07,0,0,1,21.71,13.29,113.22,113.22,0,0,1,19.57,19.63,113.32,113.32,0,0,1-11.36.23c6.89,1.07,12,2.17,17.36,5.72a36.33,36.33,0,0,1,11.63,12.89c0,6.44,0,15.35,0,26,0,13.49.14,22.44,1.56,22.61s1.75-7.7,7.55-16.85c4-6.39,6.67-7.07,10.07-11.51C737.74,369.62,737.59,359,737.4,345.68Zm2.71-53.94a210.75,210.75,0,0,0-18.41-48.59,103.22,103.22,0,0,0-29.06-16.46,101.22,101.22,0,0,0-20.41-5.15c-1.49,0-2.9,0-4.2,0a106.57,106.57,0,0,1,31.2,9.33,108.67,108.67,0,0,1,20.93,13.08,229.32,229.32,0,0,1,20.43,62.83,142.92,142.92,0,0,1,5.53,34.35A212.46,212.46,0,0,0,740.11,291.74ZM481.17,207.06a70.45,70.45,0,0,0,.52,7.14c.49,3.94,1.67,10.63,2.58,10.57s.58-5.51,1.81-12.16a57,57,0,0,1,6.2-17.19,23,23,0,0,0-6.59,9.39,21.39,21.39,0,0,0-.9,3.17Z" fill="#fff" opacity="0.5" style="mix-blend-mode:overlay"/><path d="M492.18,214.3a36.74,36.74,0,0,0-.68,7.83A21,21,0,0,1,496,213.5a20.37,20.37,0,0,1,7.27-5.35,27.8,27.8,0,0,0-3.88,9.42,28.5,28.5,0,0,0-.58,6.24,13.5,13.5,0,0,1,3.1-4.56,13,13,0,0,1,5.72-3.17,28.08,28.08,0,0,0-7,10.11,28.57,28.57,0,0,0-2,11.9,29,29,0,0,1-2.81-15.17A32.14,32.14,0,0,0,493,246.35a32.95,32.95,0,0,1,3.51-43.46A36.31,36.31,0,0,0,492.18,214.3Zm58.49,41.54c.18,11.78,3.67,18.38,6.92,22.25s6.3,5.28,10,10.67a39.62,39.62,0,0,1,5.82,13.36c.65-6.54-.39-10.36-1.56-12.7-.34-.68-1.58-3-3.48-6.87-.61-1.22-1.1-2.23-1.42-2.91a21.82,21.82,0,0,1,5,3.44,23.42,23.42,0,0,1,6.46,10.18,44.18,44.18,0,0,0-3.87-18.91,43.22,43.22,0,0,0-7.75-11.63,27.87,27.87,0,0,1,3.87,14,27.62,27.62,0,0,1-5.29-4.89,28.1,28.1,0,0,1-4.27-7,39.52,39.52,0,0,0,1.17,7.54c.27,1.08.58,2.09.9,3a43.2,43.2,0,0,1-6.85-7.8A44.35,44.35,0,0,1,550.67,255.84Zm51.54-2.64a42.26,42.26,0,0,0,2.72,15.47c.61,1.6,1.66,3.77,3.74,8.06s3.84,7.81,5,10.18a78.69,78.69,0,0,0-.9-7.93c-.41-2.43-.9-4.69-1.43-6.74a19,19,0,0,1,4.91,7.4,18.55,18.55,0,0,1,.91,3.57,33.93,33.93,0,0,0-2.33-12c-1.13-2.84-2.79-5.72-4.26-11-.44-1.55-.73-2.84-.91-3.71a26.54,26.54,0,0,0-.38,8.07,26.11,26.11,0,0,0,.77,4.1,48.43,48.43,0,0,1-3.87-5.95A49,49,0,0,1,602.21,253.2ZM625,242.75a163.26,163.26,0,0,1,31.26,35.57,61.67,61.67,0,0,0-2.71-22.08A51,51,0,0,1,663.57,266a52.41,52.41,0,0,1,7.5,13.22A45.64,45.64,0,0,0,661,256.64a43.31,43.31,0,0,0-13.82-10.84,54.15,54.15,0,0,1,4.13,15.86c.15,1.42.23,2.79.26,4.1A41.68,41.68,0,0,0,641,251.35,40.5,40.5,0,0,0,625,242.75Z" fill="#fff" opacity="0.6" style="mix-blend-mode:overlay"/><path d="M725.77,248.51A59.34,59.34,0,0,1,739.53,260a60.27,60.27,0,0,1,8.91,13.29,132.41,132.41,0,0,0-26-47,135.51,135.51,0,0,0-26.16-23,137.76,137.76,0,0,0-39.53-18.44,25.14,25.14,0,0,0,10.85-7.94,26.93,26.93,0,0,0,5.43-18,78.52,78.52,0,0,1-22.29,8.92c-11.59,2.64-22.16,1.86-42.82.2-7.56-.61-13.75-1.3-17.83-1.79a27.31,27.31,0,0,0,6.59-10.51A28,28,0,0,0,598,142.6c-10.15,11.78-20,17-27.22,19.64-15.22,5.51-21.75.41-43.6,6.54-8.74,2.46-17.73,5.09-26.74,12.69a59.23,59.23,0,0,0-15.89,21.62,27.43,27.43,0,0,0-10.85,6.35,28.7,28.7,0,0,0-7.95,13.88,18.63,18.63,0,0,0-8.33,1c-8.48,3.13-14.22,12.8-15.31,24.59a67.46,67.46,0,0,0-14.72,27.37,68.51,68.51,0,0,0-.58,32.92,65.84,65.84,0,0,0-2.52,32.33A64.41,64.41,0,0,0,431.05,361a49,49,0,0,0,4.84,32.92,46.64,46.64,0,0,0,19.38,18.84c-3.51-6.76-7.49-16.93-7-29.15.54-12.59,5.28-13.49,7.76-30.94s-1.48-21.6,3.68-32.52c2-4.3,4.53-7.65,7-15.07a69.67,69.67,0,0,0,3.1-14.48,20.79,20.79,0,0,0,9.7-2.14,21.53,21.53,0,0,0,8.9-8.37A34.66,34.66,0,0,0,507,275.67a55.56,55.56,0,0,0,13,.2,56.32,56.32,0,0,0,13.76-3.17,73.14,73.14,0,0,1,21.12,25.58c4.49,9.2,3.27,11.92,7.94,20.63a67.41,67.41,0,0,0,26.94,26.77c7.16,3.86,17.84,9.62,31.39,7.14a40.72,40.72,0,0,0,18.6-8.92c-5,.27-15.42.05-25-6.75-7-4.95-10.46-11.25-13.56-16.85a70.54,70.54,0,0,1-7.75-22.22c11.81,20.93,26.23,29.31,32.94,32.53,12.35,5.93,26.71,7.88,30,8.33,11.63,1.57,16,.31,25,2.58a62.7,62.7,0,0,1,25,13.09q3,33.5,6,67a78.33,78.33,0,0,1,2.19-12.4c1.49-5.8,3-11.73,7.3-17.83A40.2,40.2,0,0,1,732.55,381q2.63-16.07,5.24-32.13a21.68,21.68,0,0,1,4.65,6.95c1.93,4.68,1.48,8.51,1.74,8.52.64,0,5.31-23.48,3.1-49.18C746,300.66,741.82,276.35,725.77,248.51Zm8.92,68.41a81,81,0,0,0-17.25-22.21,100.62,100.62,0,0,1,13.37,80.72,35.39,35.39,0,0,0-8.33,7.53,37.18,37.18,0,0,0-7.34,15.67q-.32-14.47-.61-28.95c1,3.36,2.44,7.27,3.69,7.14,2.56-.27,3.62-17.6,2.51-31.14-1.94-23.71-11-41-17.63-53.35a181.7,181.7,0,0,0-32.94-43.23,184.1,184.1,0,0,0-19.06-16.2,243.18,243.18,0,0,1,40.57,51.3C704.53,306,709,321.71,710.08,325.45a152.41,152.41,0,0,1,5.23,31.34,102,102,0,0,0-33.91-37.68,97.14,97.14,0,0,0-28.48-12.7,112.23,112.23,0,0,1,41.27,32.92A115.81,115.81,0,0,1,645,332c-9.16-3.5-26.89-10.41-42.43-28a96.82,96.82,0,0,1-13.37-19.43c.16-2.24,1.25-21.2-13.57-34.9-14.19-13.13-31.55-10.87-33.91-10.52,12.11,2.19,27.46,7.2,35.27,20.23,4,6.64,2.49,9.5,6.78,27,4.39,17.92,7.65,31.19,17,42.44,4,4.8,11.53,12.11,25,17.26-25.15,2.91-38.62-6.7-42.63-9.92-13-10.43-20.21-28.66-21.32-31.53-3.51-9.15-4.43-16.45-11.24-25-6.42-8.06-12.18-9.8-15.3-10.31a18.46,18.46,0,0,0-4.27-.2,29,29,0,0,1-7.17,2.38c-13.41,2.56-24.58-5.38-27.9-7.93a19.3,19.3,0,0,0,4.07,6.54,18.06,18.06,0,0,0,3.68,3,30.77,30.77,0,0,1-8.33,2.57,31.6,31.6,0,0,1-16-1.69c1,.43,4.53,2,4.61,4.27.08,2.5-4,4.29-6.4,5.36a32.71,32.71,0,0,1-18,2.18,23.43,23.43,0,0,0,2.91,2.38,22.68,22.68,0,0,0,2.71,1.59,51.88,51.88,0,0,1-1.94,10.51c-1.65,5.64-3.33,7.74-5,12.49-.82,2.28-1.33,4.29-2.72,15.67-1.89,15.48-1.5,16.2-2.52,21.81-1.71,9.42-3.66,12-5.42,18.84-1.95,7.52-3.3,18.62,0,33.72a37.51,37.51,0,0,1-10-38.18,60.59,60.59,0,0,1-9.2-29.25,59.22,59.22,0,0,1,2-18.25l4.94,4.86a75.14,75.14,0,0,1,5.81-63.16,49.49,49.49,0,0,0,1,18.84,48.69,48.69,0,0,0,6,14.08A127.08,127.08,0,0,1,445,260.8c.44-18.14,4.55-23.79,6.2-25.78a26.31,26.31,0,0,1,11.05-7.73,55.37,55.37,0,0,0,3.68,36.09c-3.85-12.91-1.79-22.43-.58-26.58,1.27-4.35,3.17-7.78,7-14.67,2.61-4.72,7.43-13.44,9.5-12.69.51.18,1.09,1.07,1,4.56a134.46,134.46,0,0,1,8.71-13.49c6.21-8.44,11.57-15.72,20.16-20.82,4.56-2.71,9.88-3.92,20.54-6.35,16.24-3.7,20.83-3,30.22-5.35a85.69,85.69,0,0,0,29.46-14.08c-4,7.79-8.66,11.31-12.21,13.09-1.84.92-6,2.07-14.34,4.36-5.42,1.5-8.65,2.25-11.82,5.16a18.25,18.25,0,0,0-4.07,5.55,37.67,37.67,0,0,1,12.4-5.55c6.29-1.5,9.7-.48,16.09-2.38a35.76,35.76,0,0,0,9.88-4.76,148,148,0,0,0,20.54,4c8.59,1,23.81,2.74,42.43-1.39a110.21,110.21,0,0,0,16.86-5.15,52.34,52.34,0,0,1-7.17,8.53,50.67,50.67,0,0,1-7.75,6.14,166.13,166.13,0,0,0-26.54-1.19c-5.83.21-11.28.72-16.28,1.39a146.75,146.75,0,0,1,83.71,26.18,149.29,149.29,0,0,1,36.23,35.9,92.5,92.5,0,0,0-31.78-17.85,91.12,91.12,0,0,0-30-4.37,106.57,106.57,0,0,1,31.2,9.33,107.94,107.94,0,0,1,20.92,13.08,228.68,228.68,0,0,1,21.71,71.2,229.11,229.11,0,0,1,1.93,31.93A83,83,0,0,0,734.69,316.92Z"/></g></g></g></svg>