<svg xmlns="http://www.w3.org/2000/svg" viewBox="0 0 1080 1920"><g style="isolation:isolate"><g id="hair"><g id="_31" data-name="31"><path d="M456.17,144.4c2.06,2.63,5.16,5.78,8.41,5.34,3.8-.51,4.5-5.49,8.31-6,4.5-.55,6,6.09,11,6.07,4.28,0,5.06-4.87,12.73-7.3,2.43-.78,4.16-1.32,6.36-.93,6.42,1.14,7.55,8.57,11.7,8.33,3.09-.18,3.45-4.35,9.34-6.48,2-.73,3.27-1.18,4.72-.72,3.54,1.13,5.44,6.81,6.87,11.11.84,2.5.78,3.06,1.54,3.6,2.2,1.56,5.34-1.19,12.22-2.88,4.49-1.11,7-1.72,9.64-.72,4.3,1.59,7.13,6.52,7.8,10.69.52,3.2-.51,4.22-.1,11.52.15,2.76.41,4.46,1.74,5.55a4.45,4.45,0,0,0,5.08.41c1.61-1.13,1.6-3.39,1.59-4.32,0-2.35-1.08-3-1.59-5a11,11,0,0,1,3.24-10.08c2.53-2.29,4.37-1.13,6.26-3.4,2.14-2.56.28-4.66,2-7.81,2.07-3.93,5.86-2.34,11.18-7,3.74-3.26,2.94-5,6.67-7.2a14,14,0,0,1,8.21-2.26c3.3.25,4.18,1.8,6.26,1.23,2.71-.74,2.57-3.73,4.93-5.86,4.68-4.22,16.13-2.29,22.27,4.32a18.53,18.53,0,0,1,4.2,7.61,37,37,0,0,1-7.59-2c-2.6-1-4-1.85-5.85-1.33a6.3,6.3,0,0,0-3.39,2.88c-2.58,4.1.24,7.31-1.74,9.77-2.3,2.85-7-.3-10.47,2.87-2.68,2.49-1,5.6-3.79,7.31-2.55,1.57-5.25-.25-7.5,1.95-.22.21-1.38,1.36-1.13,2.47s1.73,1.08,2.37,2.47a3.8,3.8,0,0,1-.31,3.29c-.89,1.51-2.27,1.26-3.18,2.57-.48.68-.89,1.88-.31,4.11,2.05.1,5.06.19,8.72.1,6.32-.14,7.21-.63,7.8-1.23,1.93-1.95.09-4.42,1.74-10.08.78-2.67,1.33-4.54,3.08-5.76,2.67-1.85,7.69-1.89,10.68.31.77.57,1.47,1.34,2.46,1.24,1.3-.14,2-1.67,2.77-2.88.33-.55,3.44-5.59,7.08-6.38s8.13,2.9,9.44,4c2.11,1.79,2.51,3,4,3.09,1.9.15,2.91-1.63,6-4.22s5.45-4.64,8.41-5c4.38-.59,8.32,2.54,10.06,3.91,4.24,3.36,3.71,5.74,6.77,6.68s4.08-1.16,9.44-.92a13.3,13.3,0,0,1,6.67,1.54c3.3,2,3.07,4.5,6.16,7a13.36,13.36,0,0,0,7.49,2.78,11.33,11.33,0,0,1-7.18,6.37c-3,.78-6.76.28-9.14-1.85-1.43-1.28-1.77-2.65-3-2.67s-1.69,1.42-3.8,3.08A9.11,9.11,0,0,1,697,180c-3.37.34-6.56-3.19-8.52-5.35-2.56-2.83-2.9-4.46-4.41-4.52-2.21-.11-4,3.22-4.41,4a11.26,11.26,0,0,0-1.24,6.37,18.59,18.59,0,0,1,12.63,1.65,18.89,18.89,0,0,1,9,11.1c5.94-.11,8.91,2.16,9.95,3.09a21.44,21.44,0,0,1,4.21,5.45c1.23,2.38,1.29,3.81,2.56,4.32s2.09-.4,4.83-1.44,5-1.92,7.18-1.44a8.06,8.06,0,0,1,5.85,6.17c.41,2.73-1.45,4.08-.51,7.09.2.65.72,2.32,2,2.68s2.14-.58,5-3c3.26-2.71,4.9-4.08,5.33-4.21,3.38-1.06,7.2,1.06,9.34,2.26,1.89,1.05,1.91,1.46,3.29,2.06a12.1,12.1,0,0,0,8.51,0,17.52,17.52,0,0,1-6.26,6.78c-3.69,2.23-5.9,1.42-10.57,4.22a65,65,0,0,0-5.44,4.22c-3,2.43-5.43,4.47-7.08,5.86a23.83,23.83,0,0,1,.41,4.32,24.67,24.67,0,0,1-.3,4,17.39,17.39,0,0,1,10.26-.31,18.35,18.35,0,0,1,5.54-10c1.54-1.4,4.84-4.41,9.65-4.32,6.91.13,10.72,6.55,11,7a14.65,14.65,0,0,1,1.64,9.56,14.57,14.57,0,0,0-6.36-2.37c-1.78-.2-3.78-.42-4.83.72s-.35,2.61,0,6.38c.38,4.07.57,6.11-.2,8.12a11.51,11.51,0,0,1-7.08,6.38c-3.32,1-5.9,0-6.57,1.34-.47.93.3,2.37,1.13,3.18,1.82,1.81,4.76,1.43,7,1.24,2-.18,10.45-.91,14.88.61,2.83,1,6.43,3.7,9.23,11.73a71.14,71.14,0,0,0-7.18.41c-4,.44-4.75.88-5.24,1.34-1.79,1.68-.67,3.86-2.15,6.58a9.34,9.34,0,0,1-5.23,4.11c.53,1,4,8.19.71,15.63a17,17,0,0,1-5.85,7,19.31,19.31,0,0,1-7.08,13.06c2.52.32,5.92,1.2,8.21,3.91,1.66,2,1.31,3.17,3.08,5.55,2.85,3.82,5.53,3.07,7.8,5.86,2.69,3.31,3,9.38.1,14a13.11,13.11,0,0,1-13.23,5.86,11.83,11.83,0,0,0,.61-5.66c-.16-1.14-.5-3.54-1.74-3.9s-2,1.41-4.21,2.88a13.21,13.21,0,0,1-9,1.74,12.81,12.81,0,0,1-7.39-4.42,15.55,15.55,0,0,1-4.93,4.63,15.38,15.38,0,0,1-5.33,2c-.68,6.12-1.38,11.32-1.95,15.33-2.07,14.39-3.4,19-6.16,23.54a35.38,35.38,0,0,1-5.13,6.59c1.53-9.67-.36-15.68-2.46-19.44-1.51-2.7-3.17-4.29-5.65-9.36a37.41,37.41,0,0,1-3.69-10.69,30,30,0,0,1,0-9.05,11,11,0,0,1-6-2.26c-.53-.42-2.5-2.09-4-7.3-1.4-4.84-1.35-9.08-1.23-15.12.1-4.84.41-5.25,0-7.4-.75-4-2.61-6.75-4.31-9.26-2.27-3.36-4.22-6.23-8-7.92a14.8,14.8,0,0,0-5.34-1.23,36.15,36.15,0,0,1-.41,7.61c-.51,3.12-.78,4.79-2,6.58-.76,1.07-1.18,1.21-1.23,1.85-.19,2.37,5.4,2.74,6.56,6.07,1.34,3.79-4.57,7.1-3.07,11.62a9.44,9.44,0,0,0,3.18,4c2.4,1.93,4.07,1.6,4.92,2.88s.82,3.52-2.87,8.94a8.35,8.35,0,0,0-3.18-3.9c-.56-.36-1.89-1.09-5.24-1.24-3.77-.16-4.52.67-7.59.72-2.54.05-6.27.12-8.62-2.36a8.82,8.82,0,0,1-1.54-8.85c1.31-3.28,4.36-3.76,4.31-6.37a5,5,0,0,0-2.15-3.7c-1.41-1-2.55-.59-5.34-1.55a16.74,16.74,0,0,1-2.77-1.23,9,9,0,0,0,.92,4.94c1.3,2.4,3,2.3,4,4.31,1.45,2.78.19,6.59-1.44,8.85a11.48,11.48,0,0,1-6.06,4,17.49,17.49,0,0,1-11.28-.21,24.3,24.3,0,0,0,4-5.14c1.28-2.21,2.29-3.94,1.64-5.14s-2.28-.67-5.85-1.75c-2.3-.69-4.66-1.4-6-3.29-1.79-2.42-1.19-5.68-.83-7.09a16,16,0,0,1-9.23-6.89,6.24,6.24,0,0,0-3,3.9c-.44,2.81,2.44,3.79,3.08,7.3.88,4.79-3.21,9.81-4.51,11.42-2,2.48-3.06,2.6-3.19,4-.29,3.29,5.24,4.13,6.67,8.84,1.17,3.82-.88,8.45-3.48,11-3.24,3.18-6.25,2.05-8.93,5-2.4,2.68-2.59,6.46-2.36,9.26-4-2.17-8.1-5.22-8-8.74.13-4.68,7.64-7.37,6.78-10.29-.65-2.18-5-1.12-9.45-5a11.58,11.58,0,0,1-3.9-6c-1.1-4.78,2-8.83,2.57-9.56a10.57,10.57,0,0,1-5.44-4.42,12.54,12.54,0,0,1-1.13-8.74c.31-1.26.72-1.91.41-2.88-.49-1.59-2.24-2.13-4.31-3.19a27.08,27.08,0,0,1-6-4.22,35.43,35.43,0,0,0-6.26,5.35c-2.24,2.42-3.37,3.63-3.54,5-.54,4.34,6.13,5.87,6.72,11.45.42,4-2.75,5.11-2,8.95s4.27,3.72,5.54,7.51c1.84,5.47-3.33,12-5.74,15a32.76,32.76,0,0,1-5.95,5.76c.54-.52,3.79-3.71,3.28-7.92a9.47,9.47,0,0,0-3.08-5.55c-4.06-4.06-8-2.51-9.34-5.45-.25-.58-.1-3.37.21-8.95a3.6,3.6,0,0,0-.52-2.67c-1-1.2-3-.81-5.23-.72-.25,0-6.23.21-9.24-1.44-1.5-.83-3.93-3-4.51-10.18a8.83,8.83,0,0,1-5.44-3.29c-.38-.54-.93-1.46-2-7.3-.74-4.2-.63-4.72-1.23-5.76-.79-1.38-2.47-3.07-6.47-4a11.13,11.13,0,0,1-2,7.2c-2.39,3.15-5.95,3.32-6.05,5.24s3.4,2.13,5,5.55a8.73,8.73,0,0,1-.93,8.85c-1.93,2.26-4.47,1.66-5,3.39-.71,2.21,3.16,4.05,3.18,6.58,0,2.08-2.58,5-14.06,8.54.56-3.27-.33-5-.93-5.76-.31-.42-.82-1-4.31-2.78-4.2-2.18-4.83-2.1-5.23-3-1-2.32,2.57-4.56,1.64-7.2-.77-2.18-3.57-1.57-4.92-4s-.11-6.28,1.54-8.54c2.67-3.65,6.17-3.16,6.56-5.45.34-2-2.17-3.21-5.64-7.71a39.6,39.6,0,0,1-4.11-6.58c-6.68,1.53-8.76,3.95-9.44,5.86-.85,2.43.54,4.09-.1,9.46-.3,2.52-.48,4-1.33,5.66-2.74,5.24-8.85,5.08-9,7.71-.22,3.12,8.31,4.77,8.21,8.54-.07,2.28-3.25,2.71-3.9,6.06-.51,2.59,1,4.06,1.54,6.38.57,2.66-.15,6.79-6.37,13.06a10,10,0,0,0-3.18-6.89,9.7,9.7,0,0,0-5.13-2.37c-.08,7.18-2,11.85-3.8,14.81s-3.11,3.7-4.51,7.1-1.52,6.14-1.75,11.62a99.5,99.5,0,0,0,.21,11.62,59.58,59.58,0,0,1-8.42-13.89,65.86,65.86,0,0,1-4.72-18.51,85.71,85.71,0,0,1-.72-13.88,26.82,26.82,0,0,1-8.41-3.6,26.1,26.1,0,0,1-4.82-4,24.68,24.68,0,0,1-11,0c-3.52-.82-4.76-2-6.88-1.75-2.44.27-5.83,2.34-9.34,11.21-1.57-1.81-5.23-6.58-5.13-13.06.08-4.91,2.28-8.29,5.64-13.47,3.61-5.54,6.64-7.37,7.6-7.92a18.32,18.32,0,0,1,5.64-2.05,22.17,22.17,0,0,1-2.05-13.37c-.82-.34-4.9-2.13-6.16-6.27-1.41-4.68,1.84-8.79,3.18-10.49a16.73,16.73,0,0,1,8.32-5.55,56.59,56.59,0,0,0-1.44-7.31c-.26-1-.53-1.88-.82-2.77a11.65,11.65,0,0,1-6.16.1c-2.27-.62-3.56-1.83-4.51-1.23s-.64,2-.72,3.9a24.62,24.62,0,0,1-2.16,7.92c-2.53,5.8-15.22,6.22-17.34,6.28a14.46,14.46,0,0,0,4-7.1c.84-4-.88-5.76-1.23-12.55-.24-4.62-.36-6.93,1-9.35a13.93,13.93,0,0,1,9.54-6.28c3.31-.54,5,.52,6-.72,1.46-1.75-1.19-4.6.13-8.22a8.12,8.12,0,0,1,3.69-4.11c4.62-2.33,8.15,2.74,13.24,1,3.82-1.28,3.53-4.71,8.11-6.89a14.72,14.72,0,0,1,8.93-.92,13.33,13.33,0,0,1-2.67-8,9.22,9.22,0,0,1-6.36,3.29,9.59,9.59,0,0,1-5.55-1.75c-1.2-.87-1.46-1.55-2.46-1.75-1.61-.31-2.84,1.08-4.1,1.85-3.59,2.21-9.69.84-13.34-2.26s-4.38-7.72-4.62-9.46a17.37,17.37,0,0,1,.51-7.1c.45.64,3.21,4.37,7.59,4.53,3.78.14,6.58-2.46,7.6-3.39,3.28-3,3-5.73,4.92-6.07,3.07-.54,5.75,5.9,7.91,5.14,1.13-.4.68-2.27,2.46-5.86,1-2,2-4.1,3.8-4.73,2.37-.85,5.65,1.11,8.31,4.42a18,18,0,0,1,3.59-4.73c1.78-1.67,4-3.75,7.08-4,1.76-.15,2.93.37,3.39-.31.65-1-1-3.13-1.23-3.39a10.29,10.29,0,0,0-4.42-3.09c-6.12-2.46-9.19-3.69-10.46-4.83s-3.06-3.56-3.49-8.23a22.26,22.26,0,0,0,9.95-2.88c3.54-2.06,4.11-3.84,7-4.21,3.12-.41,7.36,1.06,8.72,3.91.63,1.3.51,2.61,1.34,2.88,1,.32,2.38-1.28,2.87-1.86,1.94-2.28,1.66-3.81,2.77-5.65a9.68,9.68,0,0,1,8.52-4.22c2.6.17,6.08,1.67,7.69,4.32.43.7.73,1.49,1.54,1.75,1.42.46,3.12-1.07,4.11-2,2.2-2,1.86-2.88,3.39-4,2.39-1.78,5.52-1.27,6.36-1.14a10.8,10.8,0,0,1,6.36,3.71c1.73,2.09,1.4,3.44,2.67,3.9,1.47.54,3-.85,6.46-3.39,1.68-1.24,4.15-3,7.29-5-3.91-1.39-5.68-3.33-6.57-4.93-1.06-1.92-1-3.71-3-6.07-1.13-1.38-1.92-2.35-3.08-2.47-2.49-.26-3.22,3.71-7.39,6.07-.24.13-4.73,2.59-9.13,1.13-4-1.33-3.54-4.44-7.39-6.07-4.65-2-7.09,1.83-12,.1a11.32,11.32,0,0,1-5.64-17Z" fill="#42210b"/><path d="M437.51,400.62c.11.26.24.51.36.75h0c0,.29,0,.58,0,.88C437.74,401.71,437.62,401.16,437.51,400.62Zm7.37-78.18a16.89,16.89,0,0,0-.31,4.69,14.36,14.36,0,0,0,.48,3A17.86,17.86,0,0,0,444.88,322.44Zm24.25,5.84a15,15,0,0,0,0-3.73A14.21,14.21,0,0,0,469.13,328.28Zm135.26-43.5a33.05,33.05,0,0,0-4.75-8.64C604,280.08,604.75,282.87,604.39,284.78Zm34.14,61.56a7.81,7.81,0,0,0-.22-1.56A2.56,2.56,0,0,1,638.53,346.34ZM777.37,282c-.27.63-4-1.52-7.8.2a8.72,8.72,0,0,0-3.69,3.29c-2,3.4-.17,6.24-1.75,7.41-1,.71-2.33.13-7.79-2.06l-.63-.25c-8.26-5.54-12.24-11.41-14.36-16.1-3.67-8.15-2.94-15.52-8.62-18.37-5.14-2.58-8.86,1.89-14.78-1.24-5.46-2.89-5.36-8.31-10-8.91-3.64-.47-5.27,2.7-9.16,1.78-2.94-.69-3.75-2.9-5.75-4.25-2.84-1.91-8.34-2.24-20,4.66a13.56,13.56,0,0,1,6.28-1.23,13.2,13.2,0,0,1,7.81,3c2.82,2.42,1.86,4,4,5.34,3.8,2.48,7.8-2,12.31.14,3.67,1.74,2.57,5.44,6.15,7,4,1.76,6.75-2.39,11.78-1.09,4.67,1.21,7.17,6.05,7.79,7.26,3.21,6.22-.48,9.21,2.05,14.4a13.57,13.57,0,0,0,6,5.82c-.45.27-.71.55-.71.8,0,1.26,6.8.63,15.18,5.14,3.79,2,8.58,4.69,10.06,9.87a11.26,11.26,0,0,1-1.43,9.56c-.49.66-1.85,2.48-3.49,2.37-1.23-.09-1.68-1.2-2.77-2.36a12.11,12.11,0,0,0-2.88-6.25,12.68,12.68,0,0,0-7.8-4c-5.85-.73-7.64,3.22-15.59,3.56-2.53.11-4.69.2-7-1-6-3-6.58-11.37-7.12-11.24-.75.18-1.34,17,6.71,20.84C726,318.82,730.87,313,742,314a31.69,31.69,0,0,1,10.18,2.72,7.84,7.84,0,0,1,1.65,4.89c-.16,3.65-3.5,6.37-4.52,7.19-2.33,1.91-4.41,2.33-4.82,4.32a3.17,3.17,0,0,0,.31,2.26c1.51,2.39,6-.17,9.45,2.27,2.06,1.48,1,2.88,3.48,5.65,2.84,3.2,5.39,2.68,7.08,4.84,1.35,1.73,2,5.05-.92,12a6.23,6.23,0,0,0-3.59-5.76,6.44,6.44,0,0,0-6,.85,10.47,10.47,0,0,1-5.35-2.05c-2.51-2.05-1.87-4.12-4.11-6.58a11,11,0,0,0-6.29-3.22,10.12,10.12,0,0,0-.14-1,16.9,16.9,0,0,0-4.62-9.15A16,16,0,0,0,723.59,329a22.8,22.8,0,0,1,9.86,12.24,24.74,24.74,0,0,1,1.16,5.22,41,41,0,0,1-3.11,6.05c-2,3.3-3,3.83-3.84,4-2.49.47-5.36-2.16-6.56-4.8-.27-.59-.67-1.65-.68-7.54,0-5.73.35-6.25-.28-7-2.12-2.5-7.4,2-13.82.13-4.78-1.38-9.34-6-9.44-10.55-.11-5,5.3-6,5.61-11,.38-6-6.82-13.25-14.36-14.67-7.72-1.46-11.75,4-16.56.82a11.59,11.59,0,0,1-4.79-9.6c.09-1.49.51-1.58.55-3A11.2,11.2,0,0,0,662,280.1c-4.39-2.63-7.1.63-13.82-1.78-2.11-.76-4.8-1.73-6.57-4.25-2.76-4-.32-7.61-1.94-11.71-1.11-2.83-4.24-6.11-13.11-8a20,20,0,0,1,4.66,10.29c.53,4.61-1.17,6.49.4,9.46,1.66,3.12,5.43,4.58,9.17,6,3.57,1.39,4.64,1,6.78,2.64h0a8.52,8.52,0,0,1,2,4.27c.7,4.64-3.11,8.86-.92,11.73.72.94,1.76,1.3,3.19,1.8,3.19,1.1,4.84,0,7.59.56a11.15,11.15,0,0,1,5.95,3.6c4.86,5.26,3,13.38,2.88,13.78-1.36,5.5-4.72,6.33-4.11,9.56.82,4.28,7,4.56,7.49,8.64.36,3.13-3.11,4.39-3.18,8-.06,3.28,2.72,6,5.23,7.92l-2,.08a42.22,42.22,0,0,1-6.74-5.56c-2.93-3-3.44-4.44-3.55-5.63-.28-2.69,1.49-3.68.95-6-.59-2.57-3.38-4.23-5.47-4.8a8.73,8.73,0,0,0-5.83.53l-.16-.08c-3.66-1.93-4.14-1.62-5.23-2.78a6,6,0,0,1-1.57-3.16h0a19.66,19.66,0,0,0,4.58-12.87c-1.45,1.14-3.25,2.26-4.38,1.65-1.75-1,.1-5-1.5-9.19-2.22-5.77-9.65-8.43-10.4-7.54-.56.65,2.65,3,4,7.95a17,17,0,0,1,.41,6.22c-3.87-2-7.95-2.6-8.24-2.07-.47.87,9.66,4.22,12.72,13.16.92,2.69,2.4,7,1.14,11.52a7.62,7.62,0,0,0-.62,3.19c.39,3.89,5,5,5.23,7.4.14,1.24-.83,3-5,5.34a6.64,6.64,0,0,0,1-2.51,8.19,8.19,0,0,0-2.26-6.79c-2.44-2.48-4.71-1.19-7-3.55s-1-5.15-3-7.3c-1-1.11-2.89-2.07-6.74-1.76H624c-.61-.07-1.2-.11-1.7-.19-1.91-.31-4.43-1.44-7.18-5a18.87,18.87,0,0,0,7.29-9.22c.63-1.81,2.75-7.82-.11-11.42-3.56-4.47-11.94-1.55-13.55-5.45-.43-1.05.18-1.27.41-5.65a35,35,0,0,0-.1-6.48c-.89-4.86-6.92-7.89-10.26-9.26.29.25.57.49.83.74,3.31,5.32,3.21,8.45,2.36,10.37-1.43,3.21-5.19,3.59-6.58,7.61a9.81,9.81,0,0,0,0,5.76c2.23,6.66,11.56,4.88,15,11.72,1.72,3.41,1.9,8.84-.4,12.44-1.39,2.17-3,2.7-3.19,4.63-.21,3.08,3.86,3.71,4.52,7.1.79,4.08-4.65,5.72-6.16,13.16a11.68,11.68,0,0,0,0,6.48c1.58,4.52,6,5.2,6,8.33,0,2-1.84,3.56-3.69,5.14-.22.19-.44.36-.64.51a5.27,5.27,0,0,0,.26-1.95c-.14-2.43-2-4.2-3.76-5.9-3.7-3.55-5.94-2.89-7.8-5.89a10.88,10.88,0,0,1-1.36-6.17c0-3.65,1.53-6.07,2.47-8.1l0-.06a12.16,12.16,0,0,0,1.28-3.55.43.43,0,0,0,0,0,31,31,0,0,0,.78-10.87c-1.38,8.08-7.55,12.24-11.55,11.18-2.07-.56-3.72-2.55-4.73-5.06h0c-.25-2.5.15-2.7-.44-4-1.86-4-6.27-3-8.47-7a8.2,8.2,0,0,1-.91-4.64h0a27.85,27.85,0,0,1,13.79-.29,12.29,12.29,0,0,0-5-8.64,11.57,11.57,0,0,0-6.46-2,20.49,20.49,0,0,1-9.34-8.54A20.84,20.84,0,0,1,563.61,283,13.82,13.82,0,0,0,558,292c-.58,4.34,1.49,7.79,2.56,9.56,2.39,4,4.51,4.21,7.49,8.33a22.76,22.76,0,0,1,1.47,2.26h0a10.51,10.51,0,0,1,.28,1.54c.46,4.61-2.39,8.14-3.28,9.25-3.6,4.46-7.2,3.8-8.22,7.2s1.52,7,2.16,7.92c2.31,3.39,4.38,2.91,5.13,5.24,1.2,3.72-3.71,6.1-2.87,10.39.65,3.37,4,3.57,5.44,7.2,1,2.6.47,5.51-.74,8.3.78-3.23.25-4.9-.57-5.84-1.25-1.45-3-.93-5.4-3.08a9.5,9.5,0,0,1-3.15-5.35c-.58-4,2.8-5.72,1.85-8.7-.8-2.51-4-3.64-4.93-4-4.25-1.51-7.09.72-9.3-1.17a5.49,5.49,0,0,1-1.57-3.83c-.53-6.22,7.12-9.48,6.23-13.72-.28-1.29-1.23-2.1-5.34-4.45-6.5-3.71-10.94-5.6-13.67-7h0a9.25,9.25,0,0,1,.16-5.85c1.66-4.11,5.92-3.09,9.95-8.64,1.09-1.49,3.62-5,2.77-8.53-.49-2-1.69-2.44-6-6.89-3.76-3.94-5.65-5.94-5.73-7.71-.22-4,4.55-7.47,7.59-8.95,5.1-2.5,9.73-1.44,9.75-1.85s-6.85-3.24-13,.1c-.5.27-6.42,3.59-7,10,0,.11,0,.21,0,.32a16.24,16.24,0,0,1-15.89,6.87,20.72,20.72,0,0,1,4.23,5.54c.85,3.44,1.1,7.41-.64,11-2.29,4.72-6,4.61-7.18,9.15a13.66,13.66,0,0,0,0,3.93v0c0,.4.07.82.1,1.29h0a0,0,0,0,0,0,0,.36.36,0,0,0,0,.1c.15,1.61.35,3.59.61,6,.4,3.87.57,4.66,0,5.86-1.57,3.26-5.47,2.92-6.27,5.86-.56,2.08.85,4.31,1.24,4.93,1.18,1.89,2.26,1.82,3.39,3.81.46.84,1.54,2.76.92,4.32-1,2.45-5.16,1.35-6.37,3.6-1.38,2.57,3.1,5.73,2.29,9.4-.39,1.76-2.07,3.87-7.42,5.61a7.14,7.14,0,0,0-.72-4.73,4.72,4.72,0,0,0-.35-.52,16.74,16.74,0,0,0-.06-2.53,17.48,17.48,0,0,0-3-7.68c-2.9-4.56-5.16-4.64-5.28-7s1.94-2.92,5.27-7.91c2.61-3.9,3.9-5.86,3.71-8-.38-4-5.26-4.11-10-10.15a21.84,21.84,0,0,1-4.47-9.1A17.47,17.47,0,0,0,484,299h0a15.92,15.92,0,0,1,4.26-8.49c3.26-3.35,5.92-3,9.65-5.55,2.54-1.73,5.62-4.85,7.8-10.9a15.27,15.27,0,0,1-3.69,2.47c-6,2.82-9.75-.4-15.19,1.44-4.48,1.51-8.84,6-8.83,10.28,0,4.64,5.31,7.21,4.11,9.87-.77,1.7-3,.86-6,3.29-2.62,2.16-1.79,3.6-4.31,6.17-3.11,3.19-5.34,2-8.41,5a13.28,13.28,0,0,0-3.62,7.27c-.72,5.89,4.11,7.66,3.42,12.2a5.68,5.68,0,0,1-1.5,3.07h0a5,5,0,0,0-2.17,1.75h0c-2.46,1.64-5.37,3.09-6.25,6.75-1,4.18,1.2,9.05,3.29,11.79s4.22,3.37,5.41,6.38a11.58,11.58,0,0,1,.13,7.33,13.76,13.76,0,0,0,2.45-4.81c-.15,1.84-1.24,4.51-4,8.45a14.24,14.24,0,0,0-3.42-7.68c-3.81-4.12-9.09-3.92-9.58-6.86-.36-2.13,2.31-2.92,2.33-6.31a9.39,9.39,0,0,0-2.06-5.34c-2.5-3.66-5.44-4.14-5.33-6,.06-1.2,1.26-1.24,2.46-3a6.24,6.24,0,0,0,1-2.51s0,0,0,0a8.47,8.47,0,0,0,.15-1.28,37.35,37.35,0,0,0-.22-5.1,40.23,40.23,0,0,0-1-6.31,11.24,11.24,0,0,1,.48-1.65c1.73-4.67,5-4.91,5.2-7.81.24-3.05-3.28-3.64-5.34-8.23-1.77-4-2-10,.83-13.85,3.45-4.67,9.57-3.52,10.67-7.54.61-2.25-1.21-2.95-1-6.3a11.74,11.74,0,0,1,5.2-8.64c4.29-2.73,7.58-.08,11.08-3.29,1.47-1.35,1.42-2.31,3.29-3.7a11.88,11.88,0,0,1,6.16-2.2c-2-.74-4.72-1.37-7-.13-1.34.73-1.58,1.62-2.6,2.74-3,3.32-6.52,1.71-12.18,4.11-2.13.91-7.14,3-8.2,7.13-.94,3.62,2,5.86.54,8.36-1.28,2.27-4.06,1.13-7.52,3.16-4.56,2.67-7.29,9.08-6.84,14.39.47,5.52,4.18,7.76,2.73,10.56s-6.16,1.95-7.11,4.8c-.57,1.74,1,2.54,1.78,6.44.44,2.21,1.19,6-.55,7.68-2,2-5.17-.84-11.35.55-2,.44-5.45,1.23-6.43,3.7-.86,2.15,1,3.47.27,6.58a9,9,0,0,1-3.15,4.67,9.72,9.72,0,0,1-6.84,2.33c-3.84-.43-4.58-3.64-9.17-5.08a11.94,11.94,0,0,0-3.27-.56,27.39,27.39,0,0,1,8.37-4.68,27.85,27.85,0,0,1,7-1.44,13.87,13.87,0,0,1-7.17-7.71,9.85,9.85,0,0,1-.11-7.3c2-4.49,7.47-5.36,8.72-5.56a14.45,14.45,0,0,1,9.29,1.83c.52.31.83.54.88.54a15.43,15.43,0,0,0-2.91-2.77,8.25,8.25,0,0,1,1.26-5.46c2.16-3.1,6.86-4.32,11.49-2.67-1.76-1.09-4.72-2.91-8.41-5.14-8.8-5.32-10.13-5.95-11.29-8-2.45-4.37-1.75-10.87,1.44-14.81,2.5-3.11,5.43-3.26,10.42-5.09h0c1.12-.15,1.78-.2,1.78-.36s-.11-.13-.29-.21l1.21-.51a47.84,47.84,0,0,0,13.75-9.26,203.88,203.88,0,0,1-24,1.65c-4.61,0-8.12-.12-11.5,2.26-4.5,3.18-3.43,7.14-7.79,9.67-5,2.89-9.51-.51-12.31,2.67-1.42,1.6-1,3.27-1.44,7.4a48.49,48.49,0,0,1-2.15,10.18,23.44,23.44,0,0,1-2.37,1.24c-.41-2.14-.94-5.22-1.34-8.95-.95-9.07.07-11,.72-11.93,1.3-1.85,3.09-2.62,6.37-4,5.8-2.47,7.69-1.16,9.44-3.08,3.19-3.5-1.45-9.64,1.54-12.34,2.47-2.23,8.45-.59,10.57,0,2.89.8,3.07,1.48,4.42,1.23,3.08-.57,3.24-4.42,7.89-7.4,1.53-1,2.83-1.82,4.42-1.54,3,.51,4.95,4.66,5.33,7.81a10.4,10.4,0,0,1,0,2.57A23.13,23.13,0,0,1,436.46,247c9.11-6.46,19.51-3.27,20.73-2.88-.35-.24-.9-.61-1.63-1a17.65,17.65,0,0,1,12.61-15.74c8.49-2.29,15.25,3.43,15.8,3.91a12.52,12.52,0,0,1,3.7-4.52,13.27,13.27,0,0,1,9.86-2.27c-1-1.35-5.81-7.88-14.58-9.25a20,20,0,0,0-12.52,1.85c-3.93,2.16-3.41,4-6.77,5.35-5.15,2-7.44-1.89-13.55,0-1.13.35-6.23,1.92-7.59,5.76a16.27,16.27,0,0,1-1.44,4.11c-.58,1-1.51,2.55-3.08,3.08-1.85.63-2.93-.75-5.95-1.64-4.06-1.2-4.58.57-8.82-.41-4.51-1-5.21-3.34-7.8-2.68-2,.51-2.47,2.1-5.14,2.47-1.42.2-1.8-.18-3.28-.2-3.33-.05-5,1.83-7,2.46s-5,.31-9.83-3.69a11.34,11.34,0,0,1-.33-2.17,10.44,10.44,0,0,0,7,.72c5-1.46,6-7.11,9.75-7.09,2.88,0,3.56,3.41,7,3.29a6.39,6.39,0,0,0,4.94-2.68c1.11-1.76.41-3.34,2.05-5.86.61-.95.93-1.43,1.43-1.54,2.41-.53,4.43,7.12,7.29,7,2.47-.11,2.15-5.87,7.38-9.66a13.27,13.27,0,0,1,6.68-2.57c4.41-.35,5.88,2.13,8.21,1.13,2.8-1.2,1.83-5.25,4.82-9.67a17.51,17.51,0,0,1,8.52-6.27,18,18,0,0,1,10.15-.68,29,29,0,0,1,13.34,6.92c.28.24.56.49.83.75,0-.1-.16-.26-.28-.46,4.54,2.37,5.07,2.56,6.13,2.72,6.41,1,8.76-2.82,12.52-.82,4,2.13,2.87,7.22,6.37,8.43s5.43-3.22,10.87-4.11c8.47-1.39,15.43,7.3,16.42,6.17.72-.82-2.42-6.06-7.8-8.85-3.44-1.78-4.17-.68-8.41-2.26-7.36-2.73-7.93-7.06-13.55-7.61-3.63-.35-3.56,1.43-7.19,1-6.07-.67-7.07-5.77-12.51-6.17-3.8-.27-3.94,2.17-8.62,2.47-5.76.36-7.35-3.21-12.73-3.5a16.37,16.37,0,0,0-10.63,3.72h0a10.41,10.41,0,0,0-5,4.29c-.74,1.35-1,2.82-2.57,3.81-2.27,1.42-6,1-8.2-.93s-1.29-3.56-3.19-4.83c-2.67-1.79-5.52.88-9-.31-1.61-.54-3.71-2-5.44-6.37a12.93,12.93,0,0,0,7.08-.83c3-1.31,4-3.32,7.08-3.6a7.82,7.82,0,0,1,3.9.62c1.92.88,2.06,2,3.8,3a7.86,7.86,0,0,0,5.23.72c3.34-.81,5.27-4.23,6.36-6.17,1.4-2.46,1.07-3.19,2.06-3.7,1.79-.92,3.6,1.07,9.33,3,2.7.9,4,1.35,5.14,1.24,4.49-.47,5.16-5.33,9.13-5.56,2.78-.15,5.44,2,6.57,3,2.07,1.71,2.22,2.9,4.11,3.6a7.53,7.53,0,0,0,5.33-.31c2.27-.94,3.09-2.49,4.72-4.32.63-.7,4.21-4.65,8.62-6.17,5.73-2,11.34.65,13,1.44a21,21,0,0,1,3.77,2.28h0c4.32,4.59,2.6,7.47,6.19,10,4.44,3,8.2-.56,13.13,2.46s5.44,9.32,6.37,9,1.63-7.32-2.26-11.51c-3.68-4-8.2-1.91-10.88-6-2.1-3.19-.37-6.08-3.07-8.43-1.73-1.5-2.62-.5-5.34-2.26-3.2-2.09-3.18-4.27-5.55-4.73-1.71-.34-2.06.74-4.72.82s-3.5-1-5.53-1.23c-4.72-.57-9.74,4-9.25,5.34a7.52,7.52,0,0,1-3.28-2.26c-.81-1-1.13-2.16-1.75-4.42-1.49-5.58-1.49-5.74-1.84-6.17a7.25,7.25,0,0,0-7.59-2c-2.21.8-2,2.34-5.75,5.35-2.16,1.76-3.24,2.63-4.72,2.68-3.42.09-6.26-3.85-6.67-4.43-1.22-1.69-.86-2.11-1.75-2.77-2.05-1.55-4.37.42-9.33.51-2.22,0-5.9.11-8.31-2.26a8.71,8.71,0,0,1-2.26-6.07,10.35,10.35,0,0,0,7.18,2.37c.41,0,4.53-.48,6.88-3.5.72-.93,1.1-1.88,2.26-2.26a4.17,4.17,0,0,1,3.17.51c1.7,1,1.5,2.17,3,3.6a8.22,8.22,0,0,0,5.24,2.06,9.4,9.4,0,0,0,6.05-2c1.83-1.33,1.43-2,3.07-3.29a9.94,9.94,0,0,1,8.18-1.86c.88.23,1,.43,5.58,3.72,4.11,2.94,4.86,3.37,6,3.7s3.77,1,5.86-.31c1.15-.74,1-1.42,3.08-3.5,1.42-1.46,2.14-2.19,3-2.36,2.29-.47,5.12,2.07,6.36,4.73s.13,3.39,1.13,5.65a9.6,9.6,0,0,0,8,5.45c3.87.05,4.58-3.3,10.78-4.83,2.19-.54,3.89-1,5.85-.31,3.95,1.32,6.19,6.11,6.67,9.77.34,2.52-.42,2.55-.52,9-.05,3.75.18,5.08,1,6.27a7.61,7.61,0,0,0,5.13,2.78c-1.34,5.21-.42,8.19.72,10s2,1.82,7.18,5.56c4.09,2.94,6.15,4.45,7,6.06a10.83,10.83,0,0,1,.83,6.68,20.91,20.91,0,0,0-29.06,3.3,20.09,20.09,0,0,1,14.78,2.88,19.79,19.79,0,0,1,7.59,9.87,9.47,9.47,0,0,1,4.93,2.88c2.8,3.18,2.33,7.34,1.92,9.25,1.15-3.83,3.82-6.55,6.91-7a7,7,0,0,1,3.89.62,15.35,15.35,0,0,1,4.31-11.73c5.71-5.59,13.49-3.81,14-3.7a13.64,13.64,0,0,1,3.9-4.93,14.18,14.18,0,0,1,9.44-2.88,8.88,8.88,0,0,0-6.36-5.14,8.42,8.42,0,0,0-8,3.08A7.72,7.72,0,0,0,600.76,215a16.07,16.07,0,0,1-7-4.32c-1.33-1.42-4.11-4.39-3.69-7.81.33-2.76,2.41-3.11,2.25-5.14-.26-3.4-6.36-5.84-8.2-6.58-3.51-1.41-5.58-1.29-7-3.29a6.46,6.46,0,0,1-1-4,5.8,5.8,0,0,0,2.65-3.69c.27-1.61-.61-2.3-1.55-6.17-.61-2.57-.91-3.88-.4-5.14.26-.65.76-1.42,3.7-3.29,4.56-2.91,5.25-2.24,6.15-3.6,1.9-2.83-.49-6.59,1.44-7.92.92-.63,1.72.05,3-.82s.93-2,1.95-3c1.76-1.74,4.05.16,6.27-1.34s.9-4,3.28-5.55c1.54-1,2.68-.38,4.72-1.85,1.33-1,1.15-1.46,2-2.06,2.67-1.79,5.74,1.6,9.54.93s4-4.57,7.59-6.48c2.44-1.28,6.75-1.82,14.78,2.67-4.13-.9-7.91-.9-9.95,1.24-2.86,3,.16,7.7-2.87,11s-7.19.4-10.88,4c-2.66,2.59-1.33,4.87-4.11,7-3.31,2.54-6.69.4-8.38,2.69s1.34,5.17-.54,8.52c-1.35,2.4-3.78,2.5-4,4.63-.17,1.57,1.13,1.82,1.33,3.7.29,2.72-2.29,3.62-3.19,7.3-.73,3.06.2,6,.72,6.07s.45-2.36,2.16-5.55c.8-1.5,2.12-4,4.54-4.76,1.18-.37,1.89-.12,3.77.13,3.25.42,8.11,1.06,11.75-1.08a8.77,8.77,0,0,0,3.39-3.4c2.05-3.85-.58-7,1.48-10.43a7.74,7.74,0,0,1,4.06-3.14c4.61-1.33,7.56,3.71,11.18,2.26,1.54-.61,2.57-2.19,4.63-5.34,1.33-2,1.78-3.34,3.38-4.12a5.56,5.56,0,0,1,3.75-.31c1.75.53,2.49,1.87,3.54,3.09,1.85,2.14,5.38,4.7,8.36,4.58,3.45-.15,3.59-3.77,9.4-6.43,2.19-1,4.39-2,7-1.49s3,1.93,8.42,6.12c3,2.3,4.51,3.45,5.74,3.65,4.28.67,5.82-3.51,9.7-2.73,2.74.56,5.31,3.33,7,5.19a10.33,10.33,0,0,0,3.65,2.88,8.87,8.87,0,0,0,3.13.72c-1.29,1.71-3.25,3.72-5.69,3.76-3.92.06-5.71-5-9.19-4.48-2.52.38-2.57,3.19-6,4.07a8.75,8.75,0,0,1-5.65-.67c-3.18-1.62-2.66-4.17-6.51-7.1-1.44-1.09-3.06-2.33-5-2-2.54.42-3.93,3.16-4.16,3.65-.82,1.72-.35,2.52-.76,4.57-.11.51-1.19,5.63-4.26,6.84-1.84.73-4.85-.65-10.89-3.39-2.46-1.13-3.3-1.63-4.71-1.54-2.81.17-5,2.52-6.36,4.52-3.22,2.43-3,3.86-4.93,4.7-2.87,1.24-4.59-1.37-8.34-1.1-5.38.38-9.58,6.27-8.94,7.26s4.87-3.37,11.39-2.74c5.19.51,7.4,3.7,10.67,2.33,2.48-1,2-3.18,4.52-4.25,3.32-1.4,5.57,1.7,10.13,1.65a13.1,13.1,0,0,0,7.66-2.92h0l.28-.09a12.25,12.25,0,0,0,5.14-3.29c.8,0,10.91-.38,15.19,6.58.55.9,2.9,4.73,1.33,8.44-1.93,4.54-8.06,4.9-8.83,4.93s-5.72.25-7.49-2.88a5.5,5.5,0,0,1-.51-3.6,7.19,7.19,0,0,1,3.9-4.93,7.86,7.86,0,0,0-5.34,3.19c-2.18,3.42-.31,8.25,2.36,10.59,3.82,3.34,10.25,2.46,14-.11,3.39-2.35,3.18-5.21,6.87-6.68.51-.2,4.24-1.63,7.28.1,3.35,1.91,2.44,5.72,6.78,8.85a8.67,8.67,0,0,0,3.59,1.74c5,1,8.18-4.13,11.18-2.77,1.79.81,2.32,3.36,2.67,5,.86,4.09-1.17,5.65,0,8.33a7.34,7.34,0,0,0,5.54,3.9c4.24.62,7.95-3,8.63-3.7,2-2,2.42-3.66,4.1-3.8,1.19-.11,1.21.72,3.69,1.54,2.22.73,3.16.38,5.13,1.34a10,10,0,0,1,2,1.23,29.87,29.87,0,0,1-4.51,2.26c-4.2,1.68-5.23,1-7.69,2.47-2.14,1.27-1.72,2-5.55,5.45-2.49,2.25-3.73,3.37-5,3.6-4.17.73-8.23-4-8.72-4.53-2.14-2.52-1.62-3.73-3.49-4.83s-3.24-.47-5.91-.75c-.36,0-.75-.09-1.17-.17a15.79,15.79,0,0,1-4-1.34c-.59-.28-1.08-.57-1.51-.82l.49.82c-2.41.13-6.4,1-13.35,2.6-3.32.76-4,.95-4.92.55-4-1.66-2.14-8.76-6.43-12.06-3.57-2.75-9.12-1.13-11.08-.55-7.89,2.3-8.37,8.16-15.06,9.46-6.5,1.27-11.44-3.22-12-2.19-.71,1.2,5.25,8.78,12.86,9.18s10.08-6.86,17-5.89c4.48.63,4.34,3.83,12.59,8.77,4.14,2.48,8.7,5.21,14.09,5.35,8.23.22,14.6-5.67,17.39-8.7.91,1.29.81,2.84,1.94,4.59,1,1.59,3.12,3.4,7.8,4.21a18.34,18.34,0,0,1,.31,9.77c-.76,2.91-2.15,4.78-1.34,5.66s3.51.15,5.23-1,1.35-1.79,2.78-2.68c1.85-1.14,4.74-1.5,6.25-.2,1.18,1,.85,2.37,1.86,2.67s2.3-.77,3-1.75c.88-1.27.65-2.34.92-3.9.32-1.86,1.14-3.09,2.78-5.56,2.56-3.85,3.84-5.77,5.95-6.27,3.74-.88,7.93,2.72,9.75,6a11.72,11.72,0,0,1,.92,2.16,21.84,21.84,0,0,0-5.13-.3c-1.94.11-2.9.16-3.69.72-2,1.36-1.93,4.62-1.85,7.71.13,5.46,1.61,6.3.72,8.53-1.32,3.3-5.74,4.51-7.7,5-5.88,1.61-9.54-.58-10.67,1.24s1.68,5.56,3,7a15.35,15.35,0,0,0,8,4.52c5.29,1.2,6.6-1.16,11.9-.51C773,276.73,777.7,281.23,777.37,282Zm-203.86-36.3A18.06,18.06,0,0,0,564,229.23c-7.4-3.83-14.69-.62-15.59-.2-.6-.4-6.84-4.43-14.17-1.65-7.62,2.89-9.51,10.51-9.64,11.11a21.46,21.46,0,0,0-12.11,5.14c-8.33,7.36-7.13,18.63-7,19.74.22-1.15,1.94-9.19,9.64-13.36a19.33,19.33,0,0,1,12.93-1.86,10.43,10.43,0,0,1,17.66-9.46A17.28,17.28,0,0,1,556,234.37C563,234,569.87,238.48,573.51,245.69Zm96.62,11.51a24.1,24.1,0,0,0-8.41-14,24.5,24.5,0,0,0-18.27-4.94A25.65,25.65,0,0,0,627,233.76c-12,1-18.47,10.47-19.3,11.72,5.87-6,14.25-8.4,21.76-6.17a21.7,21.7,0,0,1,12.32,10.08,13.94,13.94,0,0,1,20.32,16c.92-.13,8.93-1.11,15,4.94a18.12,18.12,0,0,1,5.13,12.95c.42-1.28,3-9.85-2-17.89A21,21,0,0,0,670.13,257.2Zm-14.66,84.53a8.72,8.72,0,0,1-.76,1.22c.09-.15.16-.29.23-.4C655.12,342.25,655.3,342,655.47,341.73Zm-165-18.38a50.57,50.57,0,0,1-3.94-5.27A35,35,0,0,1,490.52,323.35Zm-5.06,16.9a3.47,3.47,0,0,1-.54-.89C485.09,339.64,485.26,339.94,485.46,340.25Zm-51.77,26.57a15.37,15.37,0,0,1,3-4.21c-2.55.08-9.8,0-15.28-5.15a11.61,11.61,0,0,1-3.9-6c-1-4.52,1.52-9.65,6.36-13.37A12.59,12.59,0,0,0,413,352.73a37.23,37.23,0,0,0-11-1.54c-3.09,0-5.23.09-7.59,1.23a14.18,14.18,0,0,0-6.67,7.61,15,15,0,0,1-.93-8c.73-4.26,3.22-6.91,5.44-9.25a24.71,24.71,0,0,1,2.41-2.21,14.05,14.05,0,0,0-2.75.15c-.57.31-7.48,4.21-8.21,12.2a15.77,15.77,0,0,0,3.69,11.38c5.49-9.6,9.36-11.35,11.9-11.1s4.1,2.73,8.08,3.15a12.79,12.79,0,0,0,7.53-1.78,26.37,26.37,0,0,0,15.46,11.11,71.33,71.33,0,0,0,7.17,35c-1.53-6.93-2.91-13.55-4.33-20.43C432.35,376.21,431.45,371.54,433.69,366.82Zm11.22-44.49c-.14-.58-.3-1.17-.47-1.78.17.66.32,1.29.44,1.89A.61.61,0,0,1,444.91,322.33ZM451,364.28a11.25,11.25,0,0,1-4.79-6.44c-.84-3.76,1.54-5.32.68-8.77-1.22-4.95-7.14-6-6.7-8.78.38-2.38,4.72-2,5.8-5.25,0,0,0,0,0,0a3.07,3.07,0,0,0,.15-1.28c-.06-1-.65-2-1.1-3.6a10,10,0,0,1-1.44,3.43c-1.94,2.9-4.5,3.29-5.06,6.31-.65,3.49,2,7.06,2.74,7.95,1.93,2.41,3.1,2,3.83,3.84,1.15,2.86-1.38,4.83-.68,7.95.31,1.43,1.37,3.35,4.79,5.21A33.11,33.11,0,0,1,447,377.17c-2.14,5.44-4.67,7.28-6.85,12.75a33.65,33.65,0,0,0-2.32,11.45h0c.28.55.55,1.07.82,1.57.16-9.06,2.77-14.64,5.2-18.1,2.57-3.67,5.69-6,7.05-11.17A19.64,19.64,0,0,0,451,364.28Zm18.13-36a7,7,0,0,1-1.44,3.37c-1.78,2.28-4.07,2.59-5.94,3.48h0a12.13,12.13,0,0,1-2.17,1.75h0a5.66,5.66,0,0,0-.5.92,8.4,8.4,0,0,0,.68,7.41c1.77,2.7,4.41,2.39,4.8,4.52.29,1.62-.91,3.55-2.2,5.62-.9,1.47-1.37,1.79-1.36,2.61,0,1.78,2.22,2.46,3.15,4a3.81,3.81,0,0,1,.47,2.34c.79-2.91,0-4,.17-7.55.35-5.78,2.83-7.44,1.55-9.41-1.39-2.13-4.76-1-6.16-3.49a4.55,4.55,0,0,1-.21-3.75c1.47-3.68,7.37-2.14,9.54-5.66C470.68,332.53,469.54,331.14,469.13,328.28Zm17.45-10.2a38.26,38.26,0,0,1-4-8.54,17.6,17.6,0,0,0,1.57-5.31c0-.15,0-.31.05-.46A14.15,14.15,0,0,1,484,299h0a9.52,9.52,0,0,0-.18-.95,16.25,16.25,0,0,1-1.92,6.86,19.34,19.34,0,0,1-4,4.8c-4.46,4.23-5.78,3.62-7.53,5.75-2.33,2.84-1.69,6-1.34,9.07.13-1.21.84-7.29,5.65-10.57a11.85,11.85,0,0,1,5.2-1.94A33.91,33.91,0,0,1,486.58,318.08Zm-.45,15.22c2.39-3.62,5.87-2.93,6.57-5.25.43-1.42-.56-2.71-2.16-4.67a5.21,5.21,0,0,1,.69,3.34c-.73,4.4-7.7,5.08-7.67,9a7.52,7.52,0,0,0,1.36,3.58,2.52,2.52,0,0,1-.12-.29C484,336.58,485.74,333.89,486.13,333.3Zm2.26,17.48c-.52-2.1,3.23-3.5,2.77-6s-4-2.44-5.69-4.55l.69,1.12c1.32,2.1,1.82,2.21,2,3.33.59,2.83-2.11,4.19-1.5,6.27.58,1.91,3.18,1.72,6,4a13.05,13.05,0,0,1,4.09,6,15.69,15.69,0,0,0,1.16-4.87C495.29,352.62,489,353.42,488.39,350.78Zm77.79,20.77c-1.73-4.76-4.15-7-6.06-8.23-3.19-2-5.74-1.45-6.77-3.59-1.11-2.34,1.33-4.17.31-8a6.79,6.79,0,0,0-2.47-4c-2.6-1.73-4.84.73-9.13-.2-.37-.08-5.55-1.29-7.08-5.55a8.59,8.59,0,0,1,.51-6.38c1.49-2.87,3.54-2.41,5.44-5.24,1.49-2.21,2.53-5.88,1.13-8.44-1.52-2.78-4.52-1.64-7.49-4.52a11.8,11.8,0,0,1-3-5.35h0c-2.23-1.15-3.34-2-3.51-3.31s2-3.47,6.43-7.75c6-5.79,9.49-8.21,8.9-10.83-.11-.47-.3-.74-1.64-2.19-3.5-3.79-5.66-5.74-6.57-6.72-1.66-1.8-3.32-5-3.08-11.11a17.46,17.46,0,0,1-2,3.89,13.16,13.16,0,0,0,3.09,8.83c3.28,3.84,6.93,3.26,7.7,6.07.68,2.48-1.58,5.15-3.49,7.4-4.32,5.08-7.33,4.27-9.24,8-1.83,3.6-1,8.14.61,11,2.14,3.81,6.42,6.08,6.78,6.28,2.26,1.17,3.7,1.25,4.21,2.57.65,1.68-.87,3.73-2.36,5.75a23.2,23.2,0,0,1-5.44,5.25,10.19,10.19,0,0,1-4.92-3.81c-2.56-3.94-.25-7.74-2.06-11.31-1.08-2.14-3.78-4.48-10.88-5.34-.78-1.94-1.49-4.68-.4-7.2s3.17-2.53,5.33-5.66a14,14,0,0,0,2.26-9.25,13.25,13.25,0,0,0-3-6.69c0,.16.09.33.13.5a18.72,18.72,0,0,1,1.52,4c.6,2.45,1.35,5.43-.07,8.16s-3.42,2.28-6.36,5.9c-1.32,1.61-2.85,3.49-2.92,6.05v0a6,6,0,0,0,.1,1.29h0a0,0,0,0,0,0,0,.36.36,0,0,0,0,.1,10.09,10.09,0,0,0,3.34,5.36c1.32-.25,4.83-.73,7.25,1.37.5.42,1.32,1.28,2.4,4.66,1.88,5.89.86,7.95,2.46,10.28,1,1.41,2.93,3,7.39,3.5a9.93,9.93,0,0,0,.34,7.81,9.08,9.08,0,0,0,5.07,4.6c2.78.85,3.79-.79,7.93-.35,2.22.24,4.43.47,5.54,2,2.05,2.81-2.15,6.61-.41,10.22,1.37,2.83,4.74,2,8.76,5.41a17,17,0,0,1,4.92,7.2,29.15,29.15,0,0,0,1.73-4.86C567,370,566.62,370.77,566.18,371.55Zm9.43-62.62a9.76,9.76,0,0,0-3.28,2.57,14.4,14.4,0,0,0-7.8-6.27,13,13,0,0,1,5,6.88h0a26.42,26.42,0,0,1,2.33,5.45l.78-.22h0a11.83,11.83,0,0,1,.91-3.68,10.7,10.7,0,0,1,6.93-5.66A9.69,9.69,0,0,0,575.61,308.93Zm25.56,63.65c-1.55,1.24-3.37,3.6-4,8.53a13.44,13.44,0,0,1-.2-6.06c.94-4.62,3.94-5.71,3.59-8.74s-4-5.4-5.45-6.28c-3.32-2-5-1.25-6.67-3.39a8.2,8.2,0,0,1-1.33-5.76,8.44,8.44,0,0,1,1.54-3.8,11.69,11.69,0,0,0,6.05-3.19,11.15,11.15,0,0,0,1.9-2.51l0-.06a23.48,23.48,0,0,0,1.28-3.55.43.43,0,0,0,0,0,10.33,10.33,0,0,0,.17-1.23c-1,3.95-3.82,6.92-7.18,7.5a7,7,0,0,1-5.24-1c-1.85-1.4-2.26-3.66-3-7.91-.15-.84-.23-1.52-.28-2.08h0a14.16,14.16,0,0,1-.75-2.47,37.29,37.29,0,0,0,0,5.34c.26,3.48.4,5.33,1.64,7a8.82,8.82,0,0,0,6,3.08,10.86,10.86,0,0,0-3.84,5.42c-.35,1.17-1,3.43-.07,5.48.82,1.71,2.11,1.87,6.91,4.6,5.28,3,6.2,4.19,6.23,5.34,0,.57-.19.91-1,2.2-3.54,5.91-3.78,6.4-3.89,7-.3,1.45.08,3.73,3.48,7.13a10.87,10.87,0,0,1,.55-2.74,11.17,11.17,0,0,1,4.1-5.35c.47-.27,4-2.45,5-5.59C604.49,371.15,603,371.11,601.17,372.58Zm13.44-64.89a11.54,11.54,0,0,0-4.3-4.52c-2.84-1.59-4.7-.71-8.27-2.57-1.66-.86-3.75-2-3.85-3.5-.15-2.35,4.47-3.05,6.17-6.17.7-1.29,1-3.2,0-6.15-.73,4.05-6.38,4.9-7,9.75a9,9,0,0,0,2,6.27c3.14,4.14,7.11,2,11,5.76,4.24,4.14,4,11.13,3.89,12.55a19.78,19.78,0,0,1-.81,4.83c.39-.21,1-.56,1.74-1.06l-.52-.69C615,321.33,618.28,314,614.61,307.69Zm23.7,37.07a9.12,9.12,0,0,0-.4-1.18,7.48,7.48,0,0,0-2.57-3.29c-2.85-2-5.54-.47-6.46-2-1-1.66,1.93-4.13.61-7.1a4.57,4.57,0,0,0-.92-1.34,7,7,0,0,0-4.49-1.86H624a28.85,28.85,0,0,0-3.65.58,9.92,9.92,0,0,1,5.19,4.68c1.34,3-.06,5.18,1.64,6.94,1.19,1.23,2.25.54,6.25,1.9C636.11,343.05,637.7,343.6,638.31,344.76Zm-1.53,7.77a11.53,11.53,0,0,0,1.75-6.15c-.46,3.32-5.43,7.86-5.7,8.1,4.13-.08,7.54-2,9.2-4.53A51.78,51.78,0,0,1,636.78,352.53ZM643.24,318c-1.11-3-3.71-5.15-6.43-6.57-.07.63-.16,1.21-.27,1.73a21.31,21.31,0,0,1,5.75,7.82,20.78,20.78,0,0,1,1.36,4.8c.16-.17.32-.35.49-.56h0C643.74,323,644.2,320.57,643.24,318ZM656,335.35c1.23,2.28.31,4.83-.48,6.35,1.72-2.46,3.3-2.76,3.25-4.29-.06-2.15-3.25-3.87-7.64-6.19a9.89,9.89,0,0,0-1.7,1A6.88,6.88,0,0,1,656,335.35Zm15.77,17.36c-2.06.08-4.63.08-7.56-.08-6.5-.37-9.79-.59-10.88-2.67s.52-5.44,1.36-6.93c-1.46,1.92-2.69,1.68-3.34,3.29-.88,2.19.34,5.2,2.19,6.86s3.75,1.73,8.34,1.78c3.49,0,7.94,0,13.14-.27C673.82,354,672.73,353.37,671.74,352.71Zm21.68-2.86c-.94-4.35-.09-5.75-.3-13-.15-5.18-.22-7.78-1-10.59a28.17,28.17,0,0,0-8.31-13,29.77,29.77,0,0,0-11.9-6.58c-1.23-2.76-3.4-6.39-7.29-8.13-5.57-2.48-11.19.5-12.83-2.05-1.26-2,1.93-4,1.34-8.64-.68-5.31-5.65-8.31-5.86-8.43a12.25,12.25,0,0,0-6.15-1.65,21.13,21.13,0,0,1,6.47,4.87h0c1,.75,4.17,3.14,4.16,6.26s-3.46,5-2.61,7.27a3.43,3.43,0,0,0,1.66,1.64c3.42,2.14,5.94-.42,9.71.83s6.35,5.69,7.21,7.23c1,1.82,1,2.53,2.09,3.6,2.29,2.24,5.31,2,7.39,2.33,6.36,1.14,10.06,9.55,11.36,12.48,2.11,4.79,2.49,11.46,3.28,24.81.21,3.6.35,7.21,3,9.6,2.47,2.21,5.91,2.31,8,2.15a11.38,11.38,0,0,1-5.11-2.15C694.88,356.54,694.12,353.05,693.42,349.85Zm61,5.38c-.2.13-.33.24-.39.28-1.39,1.09-1.09,1.81-2.27,2.88-2.76,2.51-8.63,2.35-11.08-.52-.46-.54-.85-1.24-1.33-3.8-1-5.31-.32-7.52-.68-10.69a18.71,18.71,0,0,0-2.74-.35c-.4,1.22-.83,2.36-1.27,3.41a14.76,14.76,0,0,1-1.88,9.28,13.52,13.52,0,0,1-6.26,5.55c-4.62,1.87-9,.05-9.44,1.34-.36,1,2.32,1.78,3.59,4.83.84,2,.54,4.08-.1,8.12s-1.13,3.95-1.54,7.1c-.55,4.21.21,5.24-.2,8.33a18.93,18.93,0,0,1-3.8,8.84,24.15,24.15,0,0,0-2.36-13c-2.34-4.54-5-5.67-7.09-9.87-1.4-2.86-2.7-7.54-1.12-14.91,2.64-.24,3.28-.46,3.28-.62s-2.2,0-4.84-.52a25.71,25.71,0,0,0,0,11.7c1.45,5.82,4.25,7.5,6.85,12.75,5.29,10.74,1.71,20.17,3.69,20.57s6.82-10.1,8.75-21.12a67.76,67.76,0,0,0,.55-19.47,14.55,14.55,0,0,0,4.11-1.92,14.76,14.76,0,0,0,4.11-4.25c1.72-1.42,3.46-2.83,5.19-4.25.41.89,2.82,5.93,7.39,6.72,2,.35,4.63-.86,9.85-3.29,2.81-1.31,3.49-1.86,3.42-2.33S755.75,355.44,754.37,355.23Zm-.29-41.05a6.5,6.5,0,0,0-1.34-1.14c-2.92-1.89-6.76-1.28-6.87-.72s3,.68,5.54,3.39a10.32,10.32,0,0,1,.81,1c.73.33,1.4.66,2,1A15.09,15.09,0,0,0,754.08,314.18Zm1.63-23.6c-4.43-1.78-6.68-2.68-7.38-2.84-4.59-1.05-9.32,0-11.08,1.06,3.49,1.88,7.82,3,11.9,4.05a52.35,52.35,0,0,0,13.27,1.65A63,63,0,0,1,755.71,290.58Zm-36.79-67.24a12.71,12.71,0,0,0-5.21-1.51,8.65,8.65,0,0,0-1,0,9.85,9.85,0,0,0,4.54,4.11c2.47,1,3.91.18,5.65,1.55a3.93,3.93,0,0,1,.83.86l.67-.76A22.16,22.16,0,0,0,718.92,223.34Zm-43.8-41.27c-.49-1.11-5.54,2.49-11.49.41-4.18-1.47-5.51-4.59-8.89-4.11-1.59.22-2.79,1.13-4.51,2.43,3.68-1.28,6.24-1,8-.21,3.07,1.3,3.13,3.56,6.57,4.94a11.69,11.69,0,0,0,7.59.2h0C674.3,184.24,675.38,182.64,675.12,182.07ZM574.8,193c-1.4-2.8-.58-6.09.41-8.54a10.94,10.94,0,0,0,.94-.63,5.6,5.6,0,0,0-2.64,1.56c-2.18,2.38-1.68,6.67,0,9.25,2.23,3.43,5.67,2.5,9,5-.68-.54-1.4-1.13-2.22-1.77C576.81,195.16,575.67,194.78,574.8,193Zm11.44,48.6a7.53,7.53,0,0,0-.26,1C586,242.53,586.11,242.19,586.24,241.64Zm-.57-25.57c.18,0,.77-.72,1.34-1.94-.17-.15-.47-.41-.91-.74C585.85,215,585.47,216,585.67,216.07Zm2.05-10.69c-.69-1.75-2.14-3.18-4.75-5.32,2.28,2,4.41,5.88,4,14.07C588,212,589,208.53,587.72,205.38Zm-65.57-35.27a18.38,18.38,0,0,0-11.5,1.33c.41,1.07,4.07-.81,9.86.41a21.93,21.93,0,0,1,11,6.09h0a21.09,21.09,0,0,1,3.93,3.88C535.13,181,531.39,172.13,522.15,170.11ZM473.2,192.42a25.74,25.74,0,0,0-13.4,1.66h0c-1.71,1.35-2.67,2.65-2.48,3.06.47,1.06,8.59-4.37,17.74-1.5.42.13,3,1.48,8.12,4.17l5.22,2.75.55.29C487.56,200.76,482.47,193.78,473.2,192.42Zm-55.83,47.51c-4.19-.36-5.62-5.84-9.54-5.66-2.36.11-2.39,2.11-6,3.19-.88.27-5.28,1.6-8.72-1a8.41,8.41,0,0,1-2.95-4.72c-.46-.37-.95-.79-1.45-1.24.05.33,1.24,6.12,6.76,8.22a11,11,0,0,0,11.5-2.46,9.28,9.28,0,0,0,15.7,1.51C420.44,239.69,418.66,240,417.37,239.93Zm25.66.31a22.09,22.09,0,0,0-12.21,4.83,6.41,6.41,0,0,1-4.92-1.23,6.67,6.67,0,0,1-1.55-7.72,20.58,20.58,0,0,1-1.64,1.62c1.66,8.93,4.18,11.37,6.26,11.85,3.61.85,6.22-4.12,13.13-6.37a23.92,23.92,0,0,1,13.44-.11A22.14,22.14,0,0,0,443,240.24Zm-34.17,34.24a19.84,19.84,0,0,0-6.05,6.27,13.74,13.74,0,0,1-6.37.1c-3.67-.85-5-2.91-7-2.26s-2.92,3.58-3.38,5.14c-.94,3.17,0,4.47-.63,6.69-.4,1.54-1.53,3.47-4.6,5.34-.33,1-.7,2.09-1.13,3.19a16,16,0,0,0,7.39-5.14,9.76,9.76,0,0,0,2.25-4.32c.65-3.42-1.42-5.2-.41-6.58.82-1.13,2.51-.36,7.59-.41s6.41-.88,7.6.21.71,2.89,1,7.4a44.79,44.79,0,0,0,1,7c-6.34,2.13-10.34,7.39-10.05,12.55a11.25,11.25,0,0,0,3.28,7,23.94,23.94,0,0,1,19.24-3.19,13.85,13.85,0,0,0-6.73-3c-2.16-.2-5.1.35-8.82,3.39-3.27-1.6-5.34-4.68-5.13-7.71.34-4.92,6.52-6.93,7.39-7.2a11.82,11.82,0,0,1,4.83-.41,66.1,66.1,0,0,1-3.09-8.53c-.55-1.95-1-3.81-1.33-5.56a24.44,24.44,0,0,1,8.82-9.25,23.54,23.54,0,0,1,9-2.93h0c.47-.17,1-.36,1.48-.57C423.48,271,415.64,270,408.86,274.48Z" fill="#fff" opacity="0.5" style="mix-blend-mode:overlay"/><path d="M471.66,237.12a13.4,13.4,0,0,1,13.41-.76c.11-.85,1-6.64,5.54-9.12,7.62-4.13,17.54,5.31,17,6.52-.35.85-5.83-2.54-11.5-.35-4.58,1.78-7.07,6.37-8.41,9.74a16.1,16.1,0,0,0-10.4-1.85c-7.57,1.29-11.13,7.82-11.56,8.64A13.47,13.47,0,0,1,471.66,237.12Zm.69,42.43a26.75,26.75,0,0,1,29-8.91,15.86,15.86,0,0,0-29,8.91ZM497,314.93a10.66,10.66,0,0,1-4.37-9.88c.68-5.87,6-8.35,6.22-8.46-9,.57-14.06,7.22-13.2,11.54C486.32,311.6,491.05,314.69,497,314.93Zm14.51-37.85c1.1,0-.66-13.22,6.84-18.37,4.53-3.11,10.75-2.08,15.6-.55a8.66,8.66,0,0,1,5.2-9.32,8.47,8.47,0,0,1,8.48,1.64,13.5,13.5,0,0,1,10.4-1.64,13.73,13.73,0,0,1,8.76,7.68c1-5.82-2-11.32-6.84-13.17-5.57-2.13-10.68,1.71-10.95,1.92a10.55,10.55,0,0,0-12.59-1.92c-4.7,2.76-4.92,8.46-4.92,8.78-6-2.88-12.86-2.68-17.52.82C504.27,260.23,510.25,277,511.48,277.08Zm60.2-21.39c-.19,1.05,12.14,1.28,15.33,8.51,1.94,4.39-.22,9.73-2.74,14,3,2.79,3.58,5,3.56,6.58,0,2.5-1.65,3.5-3.28,7.68-1.3,3.31-2,5.09-1.65,6.85,1.09,5.61,11.41,4.71,16.15,11.52,1.6,2.29,3.22,6.4,1.64,14,2.47-4.37,4.39-9.63,2.46-14-3.17-7.19-14.89-7.61-15-12.61-.08-2.73,3.38-3,4.93-8.5.47-1.66,1.45-5.13,0-8.5-1-2.34-2.44-2.92-2.46-4.94s1.35-2.82,2.19-4.66c1.75-3.87-.47-8.81-1.92-11C585.49,252.68,571.88,254.62,571.68,255.69Zm19.16,4.94c.1.34,5.89-2.74,12.59-.55,1.59.52,6.09,2,8.21,6,2.79,5.33-1.27,10,2.19,14.26a10.49,10.49,0,0,0,4.38,3c3.06,1.08,4.81-.09,6.56.55,2,.71,3.91,3.68,4.11,13.16,3.79-7.53,3.32-11.21,1.91-13.16-2.64-3.68-8.65-1.3-11.76-5.49-2.45-3.28.28-6.05-1.92-12.06-.35-1-2.27-6.22-6.84-8.78C602.07,253,590.7,260.15,590.84,260.63Zm.27-11.79c.42-.07-1.1-5.35,1.1-6.86,1.85-1.27,5.43.77,7.93,2.47,0-.48-.07-8.63,6.85-13.16,6.44-4.23,13.32-1.63,14-1.37a8.49,8.49,0,0,1,3.56-5.49,8.63,8.63,0,0,1,9.58.55c-.6-4.89-4.79-8.29-9-7.95a8.61,8.61,0,0,0-7.39,6.58,12.8,12.8,0,0,0-18.88,12.89c-3.28-1.72-6.76-2.19-8.69-.64C586.14,239,590.54,248.93,591.11,248.84Z" fill="#fff" opacity="0.6" style="mix-blend-mode:overlay"/><path d="M769.06,293.3c1.48-2.72.36-4.91,2.15-6.58.49-.46,1.21-.9,5.24-1.34a68.12,68.12,0,0,1,7.18-.41c-2.8-8-6.41-10.75-9.23-11.73-4.43-1.52-12.88-.78-14.88-.61-2.22.19-5.16.57-7-1.24-.83-.82-1.6-2.25-1.13-3.18.67-1.36,3.25-.3,6.57-1.34a11.49,11.49,0,0,0,7.08-6.38c.77-2,.58-4,.2-8.12-.35-3.77-1-5.28,0-6.38s3-.92,4.83-.72a14.57,14.57,0,0,1,6.36,2.37,14.72,14.72,0,0,0-1.64-9.56c-.25-.45-4.07-6.87-11-7-4.82-.09-8.11,2.92-9.65,4.32a18.35,18.35,0,0,0-5.54,10,17.7,17.7,0,0,0-5.13-.62,17,17,0,0,0-5.13.93,24.67,24.67,0,0,0,.3-4,23.83,23.83,0,0,0-.41-4.32c1.66-1.4,4.09-3.43,7.08-5.86s4.51-3.65,5.44-4.22c4.67-2.8,6.88-2,10.57-4.22a17.45,17.45,0,0,0,6.26-6.78,12.1,12.1,0,0,1-8.51,0c-1.38-.6-1.41-1-3.29-2.06-2.14-1.2-6-3.33-9.34-2.26-.43.13-2.07,1.49-5.33,4.21-2.89,2.4-3.94,3.31-5,3s-1.75-2-2-2.68c-.94-3,.92-4.36.51-7.09a8,8,0,0,0-5.85-6.17c-2.15-.48-4.33.35-7.18,1.44s-3.64,1.9-4.83,1.44-1.33-1.94-2.56-4.32a21.44,21.44,0,0,0-4.21-5.45c-1-.93-4-3.2-9.95-3.09a18.88,18.88,0,0,0-9-11.1,18.66,18.66,0,0,0-12.63-1.65,11.24,11.24,0,0,1,1.24-6.37c.42-.78,2.21-4.12,4.41-4,1.52.06,1.86,1.7,4.41,4.52,2,2.16,5.14,5.69,8.52,5.35a9.15,9.15,0,0,0,4.41-2.27c2.11-1.66,2.57-3.1,3.8-3.08s1.55,1.39,3,2.67c2.38,2.13,6.15,2.63,9.14,1.85a11.42,11.42,0,0,0,7.18-6.37A13.36,13.36,0,0,1,717,170c-3.09-2.5-2.86-5-6.16-7a13.3,13.3,0,0,0-6.67-1.54c-5.36-.23-6.45,1.84-9.44.92s-2.53-3.32-6.77-6.68c-1.73-1.37-5.68-4.5-10.06-3.91-3,.4-5.31,2.4-8.41,5s-4.06,4.36-6,4.22c-1.49-.12-1.89-1.31-4-3.09-1.31-1.11-5.68-4.82-9.44-4s-6.75,5.84-7.08,6.38c-.75,1.21-1.47,2.74-2.77,2.88-1,.1-1.69-.67-2.46-1.24-3-2.2-8-2.17-10.68-.31-1.75,1.23-2.3,3.1-3.08,5.76-1.65,5.67.19,8.14-1.74,10.08-.59.59-1.48,1.08-7.8,1.23-3.66.08-6.67,0-8.72-.1-.58-2.23-.17-3.43.31-4.11.91-1.32,2.29-1.07,3.18-2.57a3.77,3.77,0,0,0,.31-3.29c-.63-1.39-2.1-1.34-2.37-2.47s.92-2.25,1.13-2.47c2.25-2.21,4.95-.39,7.5-1.95,2.75-1.71,1.11-4.81,3.79-7.31,3.42-3.17,8.17,0,10.47-2.87,2-2.46-.83-5.67,1.74-9.77a6.22,6.22,0,0,1,3.39-2.88c1.83-.52,3.25.36,5.85,1.33a37,37,0,0,0,7.59,2,18.59,18.59,0,0,0-4.2-7.61c-6.14-6.61-17.59-8.54-22.27-4.32-2.36,2.12-2.23,5.12-4.93,5.86-2.08.57-3-1-6.26-1.23a14,14,0,0,0-8.21,2.26c-3.74,2.23-2.93,3.94-6.67,7.2-5.32,4.65-9.11,3.06-11.18,7-1.67,3.14.19,5.24-2,7.81-1.9,2.27-3.73,1.11-6.26,3.4a11,11,0,0,0-3.24,10.08c.51,2,1.58,2.68,1.59,5,0,.93,0,3.19-1.59,4.32a4.41,4.41,0,0,1-5.08-.41c-1.33-1.09-1.58-2.8-1.74-5.55-.41-7.3.62-8.32.1-11.52-.67-4.17-3.5-9.1-7.8-10.69-2.69-1-5.15-.39-9.64.72-6.88,1.69-10,4.43-12.22,2.88-.76-.54-.7-1.1-1.54-3.6-1.43-4.3-3.34-10-6.87-11.11-1.45-.47-2.7,0-4.72.72-5.89,2.14-6.25,6.3-9.34,6.48-4.15.24-5.28-7.19-11.7-8.33-2.2-.39-3.93.15-6.36.93-7.66,2.43-8.45,7.27-12.73,7.3-5,0-6.48-6.63-11-6.07-3.81.47-4.5,5.45-8.31,6-3.25.44-6.35-2.71-8.41-5.34a11.53,11.53,0,0,0-1.85,7.4,11.76,11.76,0,0,0,7.49,9.56c4.93,1.73,7.35-2.06,12-.1,3.85,1.62,3.37,4.74,7.39,6.07,4.4,1.46,8.89-1,9.13-1.13,4.17-2.36,4.9-6.33,7.39-6.07,1.16.13,1.95,1.09,3.08,2.47,1.92,2.36,1.91,4.15,3,6.07.89,1.6,2.66,3.54,6.57,4.93-3.14,2-5.61,3.81-7.29,5-3.43,2.54-5,3.93-6.46,3.39-1.28-.46-.94-1.81-2.67-3.9a10.76,10.76,0,0,0-6.36-3.71c-.85-.13-4-.64-6.36,1.14-1.53,1.13-1.19,2-3.39,4-1,.88-2.69,2.41-4.11,2-.81-.26-1.11-1.05-1.54-1.75-1.61-2.65-5.09-4.15-7.69-4.32a9.69,9.69,0,0,0-8.52,4.22c-1.12,1.84-.82,3.37-2.77,5.65-.49.59-1.85,2.19-2.87,1.85-.84-.26-.71-1.57-1.34-2.87-1.35-2.85-5.6-4.31-8.72-3.91-2.87.38-3.43,2.16-7,4.21a22,22,0,0,1-9.95,2.88c.43,4.68,2.08,7,3.49,8.23s4.34,2.37,10.46,4.83a10.34,10.34,0,0,1,4.42,3.09c.2.26,1.88,2.42,1.23,3.39-.46.68-1.62.16-3.39.31-3.09.26-5.3,2.34-7.08,4a18.44,18.44,0,0,0-3.59,4.73c-2.67-3.31-5.94-5.27-8.31-4.42-1.76.63-2.81,2.72-3.8,4.73-1.78,3.59-1.34,5.46-2.46,5.86-2.16.75-4.84-5.68-7.91-5.14-1.93.34-1.64,3-4.92,6.07-1,.93-3.82,3.53-7.6,3.39-4.37-.16-7.13-3.89-7.59-4.53a17.55,17.55,0,0,0-.51,7.1c.24,1.74.86,6.27,4.62,9.46s9.74,4.48,13.34,2.26c1.26-.77,2.48-2.17,4.1-1.85,1,.2,1.25.88,2.46,1.75a9.57,9.57,0,0,0,5.55,1.75,9.22,9.22,0,0,0,6.36-3.29,13.33,13.33,0,0,0,2.67,8,14.72,14.72,0,0,0-8.93.92c-4.57,2.19-4.29,5.61-8.11,6.89-5.08,1.72-8.62-3.36-13.24-1a8.12,8.12,0,0,0-3.69,4.11c-1.32,3.62,1.33,6.48-.13,8.21-1,1.25-2.72.19-6,.73a14,14,0,0,0-9.54,6.28c-1.38,2.42-1.27,4.74-1,9.35.35,6.78,2.06,8.55,1.23,12.55a14.46,14.46,0,0,1-4,7.1c2.12-.05,14.81-.47,17.34-6.28a24.62,24.62,0,0,0,2.16-7.92c.08-1.86-.15-3.37.72-3.9s2.23.6,4.51,1.23a11.65,11.65,0,0,0,6.16-.1c.28.89.56,1.82.82,2.77a55.26,55.26,0,0,1,1.44,7.31,16.77,16.77,0,0,0-8.32,5.55c-1.34,1.7-4.59,5.81-3.18,10.49,1.26,4.15,5.34,5.93,6.16,6.27a22.17,22.17,0,0,0,2.05,13.37,18.23,18.23,0,0,0-5.64,2.05c-1,.54-4,2.38-7.6,7.92-3.36,5.18-5.56,8.56-5.64,13.47-.1,6.48,3.56,11.25,5.13,13.06,3.51-8.86,6.9-10.94,9.34-11.21,2.12-.22,3.36.93,6.88,1.75a25,25,0,0,0,11,0,26.1,26.1,0,0,0,4.82,4,26.82,26.82,0,0,0,8.41,3.6,85.61,85.61,0,0,0,.72,13.88,65.94,65.94,0,0,0,4.72,18.51,59.58,59.58,0,0,0,8.42,13.89,97.32,97.32,0,0,1-.21-11.62c.23-5.48.37-8.28,1.75-11.62s2.72-4.13,4.51-7.1,3.72-7.63,3.8-14.81a9.7,9.7,0,0,1,5.13,2.37,10,10,0,0,1,3.18,6.89c6.22-6.27,6.94-10.41,6.37-13.06-.51-2.32-2.06-3.79-1.54-6.38.66-3.34,3.83-3.78,3.9-6.06.1-3.76-8.43-5.42-8.21-8.54.18-2.63,6.29-2.48,9-7.71.85-1.64,1-3.13,1.33-5.66.64-5.37-.75-7,.1-9.46.68-1.92,2.76-4.33,9.44-5.86a39.2,39.2,0,0,0,4.11,6.58c3.47,4.5,6,5.73,5.64,7.71-.38,2.29-3.9,1.81-6.56,5.45-1.66,2.26-2.93,6-1.54,8.54s4.15,1.83,4.92,4c.94,2.64-2.68,4.88-1.64,7.2.4.88,1,.8,5.23,3,3.49,1.81,4,2.35,4.31,2.78.6.8,1.49,2.49.93,5.76,11.48-3.56,14.07-6.46,14.06-8.54,0-2.52-3.89-4.36-3.18-6.58.55-1.74,3.09-1.13,5-3.39a8.7,8.7,0,0,0,.93-8.85c-1.63-3.41-5.13-3.64-5-5.55s3.66-2.09,6.05-5.24a11.13,11.13,0,0,0,2-7.2c4,.95,5.67,2.64,6.47,4,.6,1,.5,1.56,1.23,5.76,1,5.83,1.56,6.76,2,7.3a8.9,8.9,0,0,0,5.44,3.29c.58,7.13,3,9.34,4.51,10.18,3,1.65,9,1.45,9.24,1.44,2.25-.09,4.22-.48,5.23.72a3.6,3.6,0,0,1,.52,2.67c-.31,5.58-.46,8.38-.21,8.95,1.3,2.93,5.28,1.39,9.34,5.45a9.51,9.51,0,0,1,3.08,5.55c.51,4.2-2.74,7.4-3.28,7.92a31.8,31.8,0,0,0,5.95-5.76c2.41-3,7.58-9.54,5.74-15-1.26-3.8-4.73-3.61-5.54-7.51s2.37-5,2-8.95c-.59-5.58-7.26-7.11-6.71-11.45.17-1.37,1.28-2.58,3.53-5a35.87,35.87,0,0,1,6.26-5.35,27.08,27.08,0,0,0,6,4.22c2.07,1.06,3.82,1.61,4.31,3.19.31,1-.1,1.62-.41,2.88a12.53,12.53,0,0,0,1.13,8.74,10.61,10.61,0,0,0,5.44,4.42c-.58.73-3.67,4.77-2.57,9.56a11.58,11.58,0,0,0,3.9,6c4.44,3.9,8.8,2.84,9.45,5,.86,2.92-6.65,5.61-6.78,10.29-.09,3.52,4,6.57,8,8.74-.23-2.8,0-6.58,2.36-9.26,2.68-3,5.69-1.86,8.93-5,2.61-2.54,4.65-7.18,3.48-11-1.43-4.71-7-5.55-6.67-8.84.13-1.41,1.17-1.53,3.19-4,1.3-1.6,5.39-6.63,4.51-11.42-.64-3.52-3.52-4.5-3.08-7.3a6.24,6.24,0,0,1,3-3.9,16,16,0,0,0,9.23,6.89c-.36,1.41-1,4.67.83,7.09,1.39,1.89,3.75,2.59,6,3.29,3.57,1.07,5.2.55,5.85,1.75s-.35,2.94-1.64,5.14a24.24,24.24,0,0,1-4,5.14,17.48,17.48,0,0,0,11.28.21,11.48,11.48,0,0,0,6.06-4c1.63-2.26,2.88-6.07,1.44-8.85-1-2-2.71-1.92-4-4.31a9,9,0,0,1-.92-4.94,16.74,16.74,0,0,0,2.77,1.23c2.79,1,3.93.55,5.34,1.55a5,5,0,0,1,2.15,3.7c0,2.61-3,3.09-4.31,6.37a8.8,8.8,0,0,0,1.54,8.85c2.35,2.48,6.08,2.41,8.62,2.36,3.07-.06,3.82-.88,7.59-.72,3.35.15,4.68.88,5.24,1.24a8.35,8.35,0,0,1,3.18,3.9c3.69-5.41,3.65-7.79,2.87-8.94s-2.52-.95-4.92-2.88a9.44,9.44,0,0,1-3.18-4c-1.5-4.53,4.41-7.83,3.07-11.62-1.17-3.33-6.75-3.7-6.56-6.07,0-.64.48-.79,1.23-1.85,1.28-1.79,1.54-3.46,2-6.58a35.49,35.49,0,0,0,.41-7.61,14.84,14.84,0,0,1,5.34,1.23c3.77,1.68,5.72,4.56,8,7.92,1.7,2.51,3.56,5.25,4.31,9.26.41,2.16.09,2.55,0,7.4-.11,6-.17,10.28,1.23,15.12,1.51,5.21,3.48,6.87,4,7.3a11,11,0,0,0,6,2.26,30.28,30.28,0,0,0,0,9.05,37,37,0,0,0,3.69,10.69c2.48,5.06,4.14,6.66,5.65,9.36,2.11,3.76,4,9.77,2.46,19.44a36.61,36.61,0,0,0,5.13-6.59c2.76-4.57,4.09-9.15,6.16-23.54.58-4,1.26-9.21,1.95-15.33a15.24,15.24,0,0,0,5.33-2,15.55,15.55,0,0,0,4.93-4.63,12.85,12.85,0,0,0,7.39,4.42,13.16,13.16,0,0,0,9-1.74c2.23-1.48,3.06-3.21,4.21-2.88s1.58,2.76,1.74,3.9a12,12,0,0,1-.61,5.66,13.11,13.11,0,0,0,13.23-5.86c2.91-4.61,2.59-10.67-.1-14-2.27-2.78-5-2-7.8-5.86-1.78-2.37-1.41-3.6-3.08-5.55-2.29-2.71-5.69-3.59-8.21-3.91A19.31,19.31,0,0,0,758.69,320a17.12,17.12,0,0,0,5.85-7c3.33-7.44-.18-14.58-.71-15.63A9.3,9.3,0,0,0,769.06,293.3Zm-3.18-7.82c-2,3.39-.17,6.24-1.75,7.41-1,.71-2.33.13-7.8-2.06-4.84-1.94-7.27-2.91-8-3.09-5.79-1.32-11.79.67-11.8,1.85s6.81.64,15.19,5.15c3.78,2,8.57,4.68,10,9.87a11.3,11.3,0,0,1-1.43,9.56c-.49.65-1.85,2.48-3.49,2.37s-1.9-2.06-4.11-3.5c-2.92-1.9-6.76-1.28-6.87-.72s3,.69,5.54,3.39a8.55,8.55,0,0,1,2.46,5.86c-.16,3.66-3.5,6.38-4.51,7.2-2.34,1.91-4.42,2.33-4.83,4.32a3.23,3.23,0,0,0,.31,2.26c1.52,2.39,6-.17,9.44,2.27,2.07,1.47,1,2.88,3.49,5.65,2.84,3.2,5.39,2.68,7.08,4.84,1.36,1.73,2,5.05-.92,12a6.22,6.22,0,0,0-3.59-5.76c-3.13-1.34-6.06.89-6.37,1.13-1.38,1.08-1.08,1.8-2.25,2.88-2.76,2.51-8.65,2.35-11.09-.52-.46-.54-.85-1.24-1.33-3.8-1.11-5.87-.16-7.95-.82-11.72a16.87,16.87,0,0,0-4.62-9.16A16.05,16.05,0,0,0,723.6,329a22.84,22.84,0,0,1,9.85,12.24c.71,2.2,2.79,8.7-.72,14.49a13.42,13.42,0,0,1-6.26,5.56c-4.62,1.87-9,.05-9.44,1.33-.36,1,2.31,1.79,3.59,4.84.85,2,.54,4.08-.1,8.12s-1.13,3.94-1.54,7.1c-.55,4.21.21,5.24-.21,8.33a18.79,18.79,0,0,1-3.79,8.84,24.24,24.24,0,0,0-2.36-13c-2.34-4.54-5-5.66-7.08-9.87-1.41-2.87-2.71-7.54-1.13-14.91,2.64-.24,3.28-.46,3.28-.62,0-.49-5.94.51-10-2.67-2.85-2.26-3.62-5.75-4.31-8.95-.95-4.35-.11-5.74-.31-13-.15-5.19-.22-7.77-1-10.59a28,28,0,0,0-8.31-13,29.71,29.71,0,0,0-11.9-6.58c-1.22-2.76-3.4-6.39-7.29-8.13-5.58-2.48-11.2.49-12.83-2.05-1.26-2,1.93-4,1.34-8.64-.69-5.31-5.65-8.32-5.85-8.43a12.2,12.2,0,0,0-6.16-1.65c6.39,3.38,8.14,6.69,8.52,9.15.69,4.64-3.12,8.86-.93,11.73.72.94,1.76,1.3,3.2,1.8,3.18,1.1,4.83,0,7.58.56a11.15,11.15,0,0,1,5.95,3.6c4.86,5.26,3,13.38,2.87,13.78-1.35,5.51-4.72,6.33-4.1,9.56.82,4.28,7,4.56,7.49,8.64.35,3.13-3.11,4.39-3.18,8-.06,3.28,2.71,6,5.23,7.92a85.29,85.29,0,0,1-9.54,0c-6.51-.37-9.78-.59-10.88-2.67-1.29-2.45,1-6.29,1.64-7.41,1.93-3.27,3.85-3.46,3.8-5.14-.06-2.18-3.33-3.91-7.8-6.27-3.66-1.93-4.14-1.62-5.23-2.78-2.8-3-1-6.48-2.46-10.38-2.7-7.27-14.19-9.54-14.68-8.64s9.66,4.23,12.73,13.16c.92,2.69,2.39,7,1.12,11.52a7.61,7.61,0,0,0-.61,3.19c.39,3.89,5,5,5.23,7.4.18,1.66-1.59,4.17-10.26,7.92.3-.46,2.94-4.72,1.13-8.95a7.48,7.48,0,0,0-2.57-3.29c-2.85-2-5.54-.47-6.46-2-1-1.66,1.93-4.14.61-7.1a4.72,4.72,0,0,0-.92-1.34c-1.84-1.93-4.52-1.77-6.26-2-2-.33-4.75-1.58-7.7-5.66.4-.85,3.68-8.22,0-14.5a11.51,11.51,0,0,0-4.31-4.52c-2.84-1.59-4.68-.71-8.25-2.57-1.67-.86-3.75-1.94-3.86-3.5-.14-2.35,4.47-3.05,6.16-6.17,1.23-2.27,1.24-6.45-4.72-14.81,3.33,5.33,3.22,8.47,2.36,10.39-1.42,3.21-5.19,3.59-6.57,7.61a10,10,0,0,0,0,5.76c2.23,6.66,11.55,4.89,15,11.72,1.71,3.41,1.9,8.83-.41,12.44-1.4,2.17-3,2.7-3.19,4.63-.21,3.09,3.87,3.7,4.52,7.1.79,4.09-4.65,5.72-6.16,13.16a11.59,11.59,0,0,0,0,6.48c1.58,4.52,6,5.21,6,8.33,0,2-1.84,3.56-3.69,5.14-2.68,2.28-4.28,2.1-6.26,3.7-1.55,1.24-3.37,3.6-4,8.53a13.42,13.42,0,0,1-.21-6.06c.95-4.62,3.95-5.7,3.59-8.74s-4-5.41-5.43-6.28c-3.32-2-5-1.25-6.67-3.39a8.17,8.17,0,0,1-1.34-5.76,8.44,8.44,0,0,1,1.54-3.8,11.79,11.79,0,0,0,6.06-3.19,11.94,11.94,0,0,0,3.38-7.4c-1,3.95-3.82,6.92-7.18,7.5a7,7,0,0,1-5.24-1c-1.85-1.39-2.26-3.66-3-7.91-.75-4.55,0-4.51-.72-6.07-1.86-4-6.27-3-8.47-7-2-3.71-.15-8,0-8.33a10.74,10.74,0,0,1,6.93-5.66,9.64,9.64,0,0,0-4.82.93,9.5,9.5,0,0,0-3.29,2.57,15,15,0,0,0-4.92-4.94,14.19,14.19,0,0,0-2.88-1.34c.85.61,4.75,3.54,5.24,8.44.45,4.61-2.39,8.14-3.29,9.25-3.59,4.46-7.19,3.81-8.21,7.2s1.51,7,2.16,7.92c2.31,3.39,4.38,2.91,5.13,5.24,1.2,3.73-3.71,6.1-2.87,10.39.66,3.37,4,3.56,5.44,7.2,1.32,3.36,0,7.22-2,10.69-1.73-4.76-4.14-7-6.06-8.23-3.19-2-5.75-1.45-6.77-3.59-1.12-2.34,1.33-4.18.31-8a6.79,6.79,0,0,0-2.47-4c-2.61-1.73-4.83.74-9.13-.2-.38-.08-5.55-1.29-7.08-5.55a8.55,8.55,0,0,1,.51-6.38c1.48-2.87,3.54-2.41,5.44-5.24,1.48-2.21,2.52-5.89,1.13-8.44-1.52-2.77-4.52-1.64-7.49-4.52-2.73-2.64-4.33-7.6-2.87-11.21,1.66-4.11,5.91-3.1,9.95-8.64,1.08-1.49,3.61-5,2.77-8.53-.49-2.05-1.69-2.45-5.95-6.89-3.78-3.93-5.66-5.94-5.75-7.71-.2-4,4.56-7.47,7.6-8.95,5.1-2.49,9.72-1.44,9.74-1.85s-6.85-3.24-13,.1c-.5.28-6.42,3.59-7,10a13.14,13.14,0,0,0,3.08,9.15c3.27,3.84,6.93,3.25,7.7,6.06.68,2.5-1.59,5.16-3.49,7.41-4.31,5.08-7.33,4.27-9.24,8-1.83,3.6-1,8.15.62,11a18,18,0,0,0,6.77,6.27c2.27,1.18,3.71,1.25,4.21,2.58.65,1.69-.87,3.73-2.36,5.75a23,23,0,0,1-5.44,5.25,10.28,10.28,0,0,1-4.93-3.81c-2.54-3.94-.25-7.73-2.05-11.31-1.08-2.13-3.77-4.48-10.88-5.34-.77-1.95-1.49-4.69-.41-7.2s3.17-2.53,5.34-5.66a14,14,0,0,0,2.26-9.25,13.43,13.43,0,0,0-3-6.69c1,3.56,1.32,7.74-.51,11.52-2.29,4.72-6,4.6-7.18,9.15-.35,1.26,0,4.65.71,11.42.4,3.87.57,4.66,0,5.86-1.56,3.25-5.47,2.92-6.26,5.86-.56,2.08.85,4.31,1.24,4.93,1.18,1.89,2.26,1.82,3.38,3.81.47.83,1.55,2.76.93,4.32-1,2.45-5.16,1.35-6.37,3.6-1.38,2.57,3.1,5.73,2.28,9.4-.38,1.76-2.06,3.86-7.41,5.61a7.15,7.15,0,0,0-.72-4.73c-2.45-4.1-9.28-3.11-9.95-5.86-.51-2.1,3.24-3.5,2.77-6-.51-2.68-5.25-2.42-6.36-5.75-.84-2.48.94-5.17,1.33-5.76,2.4-3.62,5.86-2.94,6.57-5.25s-2.61-4.45-6.12-10a37.37,37.37,0,0,1-4-8.54,17.22,17.22,0,0,0,1.57-5.31,17.62,17.62,0,0,0-.27-6.17,16.25,16.25,0,0,1-1.92,6.86,19.28,19.28,0,0,1-4,4.8c-4.46,4.22-5.79,3.63-7.53,5.75-4.17,5.09,1.21,11.13-2.74,16.18-2.82,3.64-7,2.26-8.62,6.17a8.34,8.34,0,0,0,.69,7.41c1.76,2.7,4.4,2.4,4.79,4.52.29,1.61-.92,3.55-2.19,5.62-.92,1.46-1.37,1.78-1.37,2.61,0,1.78,2.22,2.47,3.15,4s.79,4.68-3.56,10.83a14.22,14.22,0,0,0-3.42-7.67c-3.81-4.13-9.08-3.92-9.58-6.86-.37-2.14,2.31-2.92,2.33-6.31a9.36,9.36,0,0,0-2.06-5.34c-2.49-3.66-5.44-4.14-5.33-6,.07-1.21,1.26-1.24,2.46-3,1.48-2.2,1.31-4.65,1-8.91a41,41,0,0,0-1.51-8.09c1.88,7,.65,10.83-.82,13-1.94,2.89-4.5,3.29-5.06,6.31-.65,3.5,2,7.06,2.74,7.95,1.93,2.4,3.1,2,3.83,3.84,1.15,2.87-1.38,4.83-.69,7.95.32,1.43,1.37,3.35,4.79,5.21A32.56,32.56,0,0,1,447,377.17c-2.13,5.44-4.65,7.28-6.84,12.75a33.7,33.7,0,0,0-2.33,12.34c-1.66-7.53-3.14-14.64-4.68-22.07-.82-4-1.72-8.65.51-13.37a15.44,15.44,0,0,1,3-4.22c-2.56.1-9.81,0-15.29-5.14a11.61,11.61,0,0,1-3.9-6c-1-4.51,1.51-9.66,6.36-13.37A12.59,12.59,0,0,0,413,352.73a37.23,37.23,0,0,0-11-1.54c-3.09,0-5.23.09-7.59,1.23a14.29,14.29,0,0,0-6.67,7.61,15,15,0,0,1-.93-8c.72-4.26,3.23-6.91,5.44-9.25A27.46,27.46,0,0,1,410,334.43a13.89,13.89,0,0,1-7.19-7.71,9.87,9.87,0,0,1-.1-7.3c2-4.48,7.47-5.36,8.72-5.56a14.49,14.49,0,0,1,9.3,1.83c.51.31.82.54.86.54,0-.19-4.52-5.27-9.64-5.76-2.17-.21-5.11.35-8.83,3.39-3.27-1.61-5.35-4.68-5.13-7.71.34-4.92,6.52-6.94,7.39-7.2a11.61,11.61,0,0,1,4.82-.41,66.16,66.16,0,0,1-3.08-8.53c-.56-1.95-1-3.81-1.33-5.56a24.52,24.52,0,0,1,8.82-9.25c5.61-3.27,10.82-2.84,10.78-3.29-.06-.6-8.94-2.4-16.52,2.57a20.12,20.12,0,0,0-6.06,6.27,13.56,13.56,0,0,1-6.36.1c-3.67-.85-5-2.91-7-2.26s-2.93,3.58-3.39,5.14c-.93,3.17,0,4.47-.61,6.69-.5,1.89-2.08,4.36-7,6.58-.42-2.15-1-5.21-1.33-8.95-.95-9.07.05-11,.72-11.93,1.28-1.85,3.09-2.61,6.36-4,5.8-2.46,7.69-1.16,9.44-3.08,3.18-3.51-1.45-9.63,1.54-12.34,2.47-2.23,8.45-.58,10.57,0,2.89.8,3.08,1.48,4.41,1.23,3.08-.57,3.25-4.42,7.9-7.4,1.53-1,2.83-1.82,4.42-1.54,3,.51,4.94,4.66,5.33,7.81a10.4,10.4,0,0,1,0,2.57A23.07,23.07,0,0,1,436.46,247c9.1-6.46,19.51-3.28,20.73-2.88a22.32,22.32,0,0,0-14.16-3.9,22.09,22.09,0,0,0-12.21,4.83,6.41,6.41,0,0,1-4.93-1.24,6.68,6.68,0,0,1-1.54-7.71c-3.06,3.38-5.4,3.94-7,3.81-4.19-.37-5.62-5.84-9.54-5.66-2.36.12-2.38,2.12-5.95,3.19-.89.26-5.29,1.6-8.72-1a9.29,9.29,0,0,1-3.29-6.89,10.45,10.45,0,0,0,7,.72c5-1.46,6-7.12,9.75-7.09,2.87,0,3.56,3.41,7,3.29a6.34,6.34,0,0,0,4.92-2.68c1.12-1.76.41-3.33,2.06-5.86.61-1,.93-1.43,1.43-1.54,2.41-.53,4.44,7.12,7.29,7,2.46-.11,2.15-5.87,7.39-9.66a13.26,13.26,0,0,1,6.67-2.58c4.41-.34,5.87,2.14,8.21,1.14,2.79-1.2,1.83-5.25,4.82-9.67a17.51,17.51,0,0,1,8.52-6.27c7.36-2.87,16.91,0,24.32,7-.71-1.18-5.85-9.42-16-10.9-6.36-.93-15.6.66-18.47,6-.73,1.35-1,2.83-2.57,3.81-2.28,1.42-6,1-8.21-.93s-1.28-3.55-3.18-4.83c-2.67-1.79-5.52.88-9-.31-1.61-.55-3.72-2-5.44-6.37a12.92,12.92,0,0,0,7.08-.83c3-1.31,4-3.32,7.08-3.6a7.82,7.82,0,0,1,3.9.62c1.92.88,2.07,2,3.8,3a8,8,0,0,0,5.23.72c3.35-.81,5.27-4.22,6.37-6.17,1.39-2.46,1.06-3.18,2.05-3.7,1.79-.92,3.6,1.06,9.34,3,2.69.91,4,1.35,5.13,1.24,4.49-.47,5.16-5.34,9.13-5.56,2.77-.16,5.43,2,6.57,3,2.08,1.71,2.22,2.9,4.11,3.6a7.53,7.53,0,0,0,5.33-.31c2.26-.94,3.09-2.48,4.72-4.32.63-.7,4.21-4.65,8.62-6.17,5.74-2,11.35.65,13,1.44a21.21,21.21,0,0,1,7.69,6.17c-.35-.88-4.1-9.7-13.34-11.72a18.48,18.48,0,0,0-11.49,1.33,7.49,7.49,0,0,1-3.29-2.26c-.81-1-1.14-2.16-1.74-4.42-1.51-5.58-1.49-5.74-1.85-6.17a7.25,7.25,0,0,0-7.59-2c-2.2.8-2,2.35-5.75,5.35-2.17,1.76-3.24,2.63-4.72,2.68-3.41.1-6.26-3.86-6.67-4.43-1.22-1.69-.87-2.11-1.74-2.77-2.06-1.56-4.38.42-9.34.51-2.23.05-5.91.12-8.32-2.26a8.74,8.74,0,0,1-2.25-6.07,10.35,10.35,0,0,0,7.18,2.37c.41,0,4.53-.48,6.88-3.5.71-.92,1.11-1.88,2.25-2.26a4.18,4.18,0,0,1,3.19.51c1.68,1,1.49,2.17,3,3.6a8.29,8.29,0,0,0,5.23,2.06,9.41,9.41,0,0,0,6.06-2c1.82-1.33,1.44-2,3.08-3.29a9.91,9.91,0,0,1,8.17-1.86c.88.23,1,.42,5.58,3.71,4.12,2.95,4.86,3.39,6,3.71s3.78,1,5.85-.31c1.16-.73,1.05-1.42,3.08-3.5,1.43-1.46,2.15-2.19,3-2.36,2.29-.47,5.12,2.08,6.36,4.73s.13,3.39,1.13,5.65a9.57,9.57,0,0,0,8,5.45c3.87.05,4.58-3.3,10.78-4.83,2.19-.54,3.9-1,5.85-.31,4,1.33,6.19,6.11,6.67,9.77.33,2.53-.42,2.55-.51,9-.06,3.75.18,5.08,1,6.27a7.63,7.63,0,0,0,5.13,2.78c-1.33,5.21-.42,8.19.72,10s2,1.82,7.19,5.56c4.08,2.94,6.14,4.45,7,6.06,2.27,4.41,0,9.26.41,9.36s4-5.72,2.06-10.69c-.9-2.29-3.1-4-7.49-7.51-3.43-2.71-4.58-3.09-5.44-4.83-1.41-2.8-.59-6.09.41-8.54,2.69-1.64,3.41-3.21,3.59-4.32.27-1.61-.61-2.29-1.54-6.17-.62-2.57-.91-3.88-.41-5.14.26-.65.76-1.42,3.69-3.29,4.58-2.91,5.25-2.24,6.16-3.6,1.89-2.83-.49-6.59,1.44-7.92.92-.62,1.73.05,3-.82s.93-2,1.95-3c1.75-1.74,4.05.16,6.26-1.34s.9-4,3.29-5.55c1.55-1,2.68-.38,4.72-1.85,1.32-1,1.15-1.45,2-2.06,2.67-1.78,5.75,1.59,9.54.93s4-4.57,7.6-6.48c2.44-1.28,6.75-1.83,14.78,2.67-4.14-.9-7.93-.9-10,1.24-2.86,3,.15,7.7-2.87,11s-7.19.4-10.88,4c-2.66,2.59-1.33,4.88-4.11,7-3.31,2.54-6.69.4-8.38,2.69s1.34,5.17-.54,8.52c-1.35,2.4-3.79,2.5-4,4.63-.16,1.57,1.14,1.83,1.34,3.7.28,2.72-2.29,3.62-3.18,7.3-.74,3.06.19,6,.72,6.07s.44-2.36,2.15-5.56c.8-1.48,2.12-4,4.55-4.75,1.17-.38,1.88-.12,3.76.13,3.24.42,8.11,1.06,11.76-1.09a8.66,8.66,0,0,0,3.37-3.38c2.06-3.86-.58-7,1.5-10.44a7.6,7.6,0,0,1,4.05-3.13c4.6-1.34,7.56,3.7,11.18,2.25,1.54-.61,2.57-2.18,4.63-5.35,1.33-2,1.78-3.34,3.39-4.11a5.47,5.47,0,0,1,3.74-.3c1.74.53,2.48,1.86,3.54,3.08,1.85,2.14,5.37,4.7,8.36,4.58,3.44-.15,3.59-3.78,9.39-6.44,2.2-1,4.4-2,7-1.48s3,1.93,8.42,6.12c3,2.3,4.51,3.45,5.76,3.65,4.27.67,5.81-3.51,9.69-2.72,2.75.55,5.3,3.32,7,5.18a10.3,10.3,0,0,0,3.64,2.88,8.61,8.61,0,0,0,3.13.72c-1.28,1.71-3.25,3.72-5.69,3.75-3.91.07-5.72-5-9.18-4.47-2.53.38-2.58,3.19-6,4.07a8.7,8.7,0,0,1-5.65-.67c-3.18-1.61-2.66-4.16-6.51-7.1-1.43-1.1-3.06-2.33-5-2-2.54.41-3.92,3.16-4.15,3.65-.82,1.72-.35,2.51-.76,4.57-.1.51-1.2,5.63-4.27,6.84-1.83.73-4.84-.65-10.87-3.39-2.48-1.13-3.31-1.64-4.72-1.55-2.81.18-5,2.53-6.37,4.53,3.7-1.28,6.24-1,8-.21,3.07,1.29,3.13,3.56,6.57,4.94a11.87,11.87,0,0,0,7.9.1,12.34,12.34,0,0,0,5.13-3.29c.81,0,10.91-.38,15.19,6.58.54.89,2.9,4.73,1.33,8.44-1.93,4.54-8.06,4.9-8.82,4.93s-5.73.25-7.5-2.88a5.49,5.49,0,0,1-.51-3.6,7.21,7.21,0,0,1,3.9-4.93,7.88,7.88,0,0,0-5.34,3.18c-2.17,3.43-.3,8.25,2.36,10.6,3.82,3.33,10.26,2.46,14-.11,3.4-2.35,3.18-5.21,6.88-6.68.5-.21,4.24-1.63,7.28.1,3.36,1.91,2.44,5.73,6.78,8.85a8.67,8.67,0,0,0,3.59,1.74c5.05,1,8.18-4.13,11.18-2.77,1.78.81,2.32,3.36,2.67,5,.86,4.09-1.17,5.65,0,8.33a7.34,7.34,0,0,0,5.54,3.9c4.24.62,7.95-3,8.62-3.7,2-2,2.43-3.66,4.11-3.8,1.18-.11,1.21.73,3.69,1.54,2.21.73,3.16.38,5.13,1.34a10,10,0,0,1,2,1.23,31.39,31.39,0,0,1-4.51,2.26c-4.2,1.68-5.22,1-7.7,2.47-2.14,1.27-1.71,2-5.54,5.45-2.49,2.25-3.73,3.37-5,3.6-4.17.73-8.24-3.95-8.72-4.53-2.15-2.52-1.61-3.73-3.49-4.83-2.06-1.21-3.62-.27-7.08-.92a16.36,16.36,0,0,1-5.54-2.16,10.34,10.34,0,0,0,5,4.93c2.46,1,3.9.19,5.64,1.54s1.38,3.31,2.77,5.45c1,1.59,3.11,3.41,7.8,4.22a18.24,18.24,0,0,1,.31,9.77c-.77,2.91-2.15,4.78-1.34,5.66s3.5.16,5.24-1c1.56-1.08,1.34-1.8,2.77-2.68,1.85-1.14,4.73-1.49,6.26-.2,1.17,1,.84,2.36,1.85,2.67s2.3-.76,3-1.75c.88-1.28.66-2.34.92-3.9.32-1.87,1.14-3.1,2.78-5.56,2.55-3.85,3.84-5.78,5.95-6.27,3.74-.88,7.93,2.72,9.75,6a11.06,11.06,0,0,1,.92,2.16,21.84,21.84,0,0,0-5.13-.3c-1.94.11-2.9.17-3.7.72-2,1.35-1.92,4.61-1.84,7.71.13,5.46,1.61,6.3.72,8.53-1.32,3.29-5.74,4.5-7.7,5-5.88,1.61-9.54-.58-10.67,1.24s1.68,5.56,3,7a15.46,15.46,0,0,0,8,4.52c5.29,1.2,6.6-1.16,11.9-.51,6.6.81,11.31,5.31,11,6.07s-4-1.52-7.8.2A8.79,8.79,0,0,0,765.88,285.48Z"/></g></g></g></svg>