<svg xmlns="http://www.w3.org/2000/svg" viewBox="0 0 1080 1920"><g style="isolation:isolate"><g id="hair"><g id="_32" data-name="32"><path d="M443.87,413.28a101.36,101.36,0,0,1,1.9-41.78c3.13-11.86,6.83-16.67,10.29-28.82a115.15,115.15,0,0,0,3.52-43.37,62,62,0,0,1,8.67-18,63.21,63.21,0,0,1,14.9-15.07,56.61,56.61,0,0,0,48-.53,95.21,95.21,0,0,0,81,6.61,23.81,23.81,0,0,0,11.38,3.7A25,25,0,0,0,640.8,270a18.84,18.84,0,0,0,9.76,4.76c10.87,1.64,18.6-7.75,19-8.2,4.73,2.25,10.46,5.94,14.36,12.16,3.07,4.93,3,8.26,6,14.81a59,59,0,0,0,10.84,16.13,111.68,111.68,0,0,0,1.63,39.67c2,8.87,4.06,12.83,6.5,21.68a145.78,145.78,0,0,1,4.87,44.69,108.75,108.75,0,0,0,28.72-80.12c2.08-1.22,9-5.59,10.29-13.23.57-3.34-.14-6.06-1.08-9.51a45.23,45.23,0,0,0-7.86-15.61c3.06-1,9.15-3.59,11.65-9.25,2.41-5.46.2-10.91-3.79-20.36a101.24,101.24,0,0,0-11.92-20.89,114.06,114.06,0,0,0-19.24-20.1,23.9,23.9,0,0,1,13.82,0c10.47,3.28,14.38,12.94,14.9,14.28a30.89,30.89,0,0,0-13.27-28.82c-14.51-10-30.67-3.24-31.43-2.91a34.21,34.21,0,0,0-3.52-20.36c-1.09-2-5-8.59-21.13-17.19-17.68-9.4-23.56-7.12-34.94-14.54-5.38-3.5-12.89-9.76-19.51-21.42a44.92,44.92,0,0,0,6.5,27.5c-27.76-13-45.37-13.33-56.6-10.78A165.65,165.65,0,0,1,551.68,156c-16.33,1.36-21.89-.57-23.84-1.32-3.43-1.33-11-5-17.33-15.07a20.41,20.41,0,0,0,.81,16.39,20.84,20.84,0,0,0,10.57,9.52,19.81,19.81,0,0,1-21.4-5.82,18.79,18.79,0,0,1,.81-24.32c-1,.34-22.55,8.16-25.74,27.5A31.6,31.6,0,0,0,478,180.58a25.75,25.75,0,0,1-9.48-10c-5.06-9.81-1.49-19.43-.81-21.16-4.52,9-8.58,16.32-11.65,21.68-6.83,11.94-10.25,17.91-15.34,24-6.51,7.83-7.71,6.86-15.54,16.17s-11.88,14.26-12.46,21.42c-.61,7.55,3,13.78,5.42,17.18-1.06.48-16.24,7.71-18.42,24.07-1.73,13,6,22.24,7.31,23.79-.62,1-6.59,10.85-1.9,21.42A23.31,23.31,0,0,0,416,330.25c-1,11.27,1.41,18.91,3.79,23.8,3.19,6.55,6.73,9,8.67,16.65,1.72,6.8.27,10.2.54,15.6C429.29,392.75,432.07,402,443.87,413.28Z" fill="#42210b"/><path d="M480,185h0a21.39,21.39,0,0,1-12.16-7.3,20.45,20.45,0,0,1-4.48-13c-5.64,15.51-13.09,25.42-18.83,31.6-2.72,2.93-7,7.13-12,13.08-.73,3.76-1.38,7.18-1.95,10.19-2.5,13.25-2.78,15.19-2,17.55.62,1.93,3.09,7.81,15.62,11.54a30.13,30.13,0,0,0-20.35,1.75l.19.21a61.73,61.73,0,0,0-13.44,15.22c-3.4,5.49-5.84,9.54-5.55,15.07a19.85,19.85,0,0,0,4.15,10.81,39.5,39.5,0,0,1,7.09-10.08c7.09-7.29,15.87-10.51,16.26-9.92s-6.88,4.19-14.13,12.5a60.52,60.52,0,0,0-9.44,14.67c-.1-.35-.2-.71-.28-1.06a21.91,21.91,0,0,0-1.21,13.23,22.82,22.82,0,0,0,8.8,13.22,24.78,24.78,0,0,1,1.08-6.88A26,26,0,0,1,423.56,307a115.06,115.06,0,0,0-2,17.85c-.35,9.79-.56,15.7,1.9,22.74a27.88,27.88,0,0,0,2,4.49,62,62,0,0,0,9.53-7.73A61.15,61.15,0,0,0,445.45,331q-1.63,1.94-3.2,3.58a90.4,90.4,0,0,0,7.54-13.74,45.3,45.3,0,0,0,1.19-5.1,46.64,46.64,0,0,0-.2-16.86,32.76,32.76,0,0,0-12.6.6A32.2,32.2,0,0,0,426,305.46a127.62,127.62,0,0,1,24.18-24.4,55.08,55.08,0,0,1-15.65,2.78,31.33,31.33,0,0,0,11.59-9.91,30.53,30.53,0,0,0,5.48-17.85,57.67,57.67,0,0,0-17.27,6.54,56.61,56.61,0,0,0-14.62,12.1A59.3,59.3,0,0,1,440,256.47a60.25,60.25,0,0,1,18.08-6.34c-.15-.84-.3-1.7-.43-2.58a29.19,29.19,0,0,1-1.22-22.37,115.44,115.44,0,0,1,5.52-30c.36,3.54,1.77,12.27,8.93,19.24a29.43,29.43,0,0,0,6.5,4.76A26.63,26.63,0,0,1,480,185Zm270,98.06c2.66-9.81-8.18-17.09-18.69-36.89a56.78,56.78,0,0,0-13.81-17.32l-6.23,4.76a19.36,19.36,0,0,1,5.68-8.86,19.05,19.05,0,0,1,11.79-4.89c9.8-.29,15.71,8.13,16.12,8.73-1.52-3.47-5.79-11.84-15.31-16.66a23.75,23.75,0,0,0-11.1-3c-9.06,0-15.67,6.26-18.85,10a38.92,38.92,0,0,1-3.77,8c-6.85,11-18.31,16-18.69,15.47s6.2-3.91,13.4-12.69c6.5-7.93,9.19-14.81,9.75-14.55a31.72,31.72,0,0,0,1.22-5.88c.32-2.83,1-10.27-3-17.58-2.53-4.59-6.38-7.29-14.08-12.69a90.93,90.93,0,0,0-16.94-9.65c-8.93-3.87-11.37-3.17-18.55-6.22a61.05,61.05,0,0,1-18.69-12.56,43.5,43.5,0,0,0,7.59,13.09,44.82,44.82,0,0,0,14.35,11.24c-2.72-.94-7.23-2.55-12.73-4.76-17.36-7-20.86-10.39-31.42-12.68-6.66-1.44-11.82-1.51-18.83-1.6-6.08-.08-8.21.31-25.05,1.72-14,1.17-19.09,1.45-26,1.06-9.14-.53-13.61-1.8-17.61-4.37a26.43,26.43,0,0,1-8.26-8.59,22.48,22.48,0,0,0,5.14,11.77,20.46,20.46,0,0,0,1.71,1.76l0,0c.09.08.18.15.27.24s.45.4.68.6l.07.05.09.07a22.64,22.64,0,0,0,4,2.55.53.53,0,0,0,.17.08l.64.29c7.31,3.08,12.13-.4,24.09-.84a65.64,65.64,0,0,1,18.49,2,60.88,60.88,0,0,1,15,6.14,145,145,0,0,0-47.4-4.9h.6c-4.26,2-13.88,5.85-25.05,3.44-4-.87-10.59-2.29-14.09-7.67-2.17-3.35-2.54-7.28-2.84-10.44a34.54,34.54,0,0,1,.41-9.39,33.6,33.6,0,0,0-7.91,7.55c-3.9,16.9-2.23,29.4-.63,36.48,1.3,5.72,2.88,9.28,6.1,11.7,4.87,3.65,11.5,3.15,20.51,1.19A152.14,152.14,0,0,0,552,183.49c-4,3-25.73,19.43-45.91,20-4.53.14-12,.36-18.08-4.56a20.42,20.42,0,0,1-5.9-7.93,26.92,26.92,0,0,0-2.84,19.24c3.53,14.38,18.38,19.34,19.3,19.63a35.39,35.39,0,0,1-24.17-6.15,33.4,33.4,0,0,1-12.2-16.66c-.68,2.94-2.79,13.53,3.25,24,5.85,10.12,15.59,13.67,20.52,15.47,17,6.2,32.66.53,37.39-1.39-2.17,1.32-19.94,11.75-40.23,4.36a45.43,45.43,0,0,1-23.67-20.23,36.64,36.64,0,0,0,8.7,20.83A33.18,33.18,0,0,0,473.4,255a50.84,50.84,0,0,0,8.66,2.12c5.82,1,20.07,2.7,39.42-5.16,8.39-3.41,16.5-9,32.71-20.23s20.08-15.26,29.46-17.05c3.64-.7,14.08-2.55,25.19,2.77a35.2,35.2,0,0,1,5.81,3.49h0c.5.25,1,.51,1.48.8a24,24,0,0,1,8.94,9.65c-.56-.49-1.11-1-1.65-1.39a40.56,40.56,0,0,1,4.49,8.47,23.17,23.17,0,0,0-2-14.48,23.89,23.89,0,0,0-10.57-10.51,27.31,27.31,0,0,1,20.72,21.61,26.69,26.69,0,0,1-10.56,25.79c-.45,1.23-.76,2.76,0,3.76,2,2.68,10.24-.11,14-1.78a33.46,33.46,0,0,0,7.33-4.48,54.83,54.83,0,0,0,5.06-10.2c7.47-20.42-5-39.91-7.17-43.23,2.26,2.92,16.23,21.45,10.42,43.5a43.59,43.59,0,0,1-3.88,9.73c1.64,4.07,11.1,5.27,18.3,2.69,1.3-.76,2.77-1.57,4.39-2.37,2.78-2.19,4-4.8,8.62-6.94,8.08-3.76,16.64-1.47,19.91-.6,15.47,4.13,22.41,17.87,23.57,20.23-1.42-2.35-6.44-10-16.26-12.89a27.31,27.31,0,0,0-10-1,49.78,49.78,0,0,1,6.51,9.52c4.36,8.31,4,13.51,6.29,19,2.12,5.09,6.9,11.46,18.69,16.86a30,30,0,0,1-11.78,1,29.58,29.58,0,0,1-9.14-2.58c.76,4.3,1.46,8,2,10.91,1.89,9.64,2.56,11.65,3.8,13.65l.12.19c.15.24.31.48.48.73a67.63,67.63,0,0,0,4.73,5.86c1.29,1.43,2.44,2.58,3.26,3.37a17.69,17.69,0,0,1-4.67-.4c-3.41-.76-4.51-2.1-5.5-1.58-1.57.83-1.41,5.72.83,9.52,2.43,4.14,6.3,5.22,9.13,6.94,3.56,2.15,7.33,6.4,9.42,15.4a148.44,148.44,0,0,0,3.59-20.49,236.38,236.38,0,0,0,1.89-26.05q1.08,5.3,2.17,10.58a16.07,16.07,0,0,0,5.82-7.93c1.44-4.71-.13-8.8-1.89-13.23-1.87-4.66-3.69-6.7-9.75-15.6-2.73-4-4.88-7.28-6.24-9.38l11.11,9.91C747.23,289.67,749.24,285.71,750,283.05Zm-137.88-100A81.37,81.37,0,0,0,581,179.53c3.82-1.33,19.19-6.19,36.17.79a49.46,49.46,0,0,1,21.54,17.25A80,80,0,0,0,612.09,183.1Zm52.82,68c6.1-7.88,11.75-18.28,11.38-30.34-.57-18.92-15.61-31.8-14.63-32.53s19.89,11.78,20.52,31.14C682.76,237.45,667.08,249.5,664.91,251.12ZM480,185a65.71,65.71,0,0,1-1.2-13.19c.07-5,.12-9.39,2.24-14.48a29,29,0,0,1,5.24-8.24,24.33,24.33,0,0,0-3.55,6.79c-1.39,4.21-1.28,9-1.08,18.51.1,4.54.34,8.31.54,11A19.71,19.71,0,0,1,480,185ZM735.2,372.49A162.22,162.22,0,0,1,728.5,388a165.93,165.93,0,0,1-11.17,19.23,89,89,0,0,0-2.44-22.41c-1.55-6.44-2.67-7.89-5.08-15.66a140.58,140.58,0,0,1-6.09-29.55,115.53,115.53,0,0,1,.81-26.58,201.71,201.71,0,0,1-13.21-25c-2.21-5.07-4.14-10.07-8.94-15.47A44.26,44.26,0,0,0,671,263.41c-.84,1-6.94,7.92-16.66,7.74a21.09,21.09,0,0,1-11.78-4,24,24,0,0,1-16.66,5.75,23.27,23.27,0,0,1-11.59-4,72,72,0,0,1-24.17,6.14c-9,.66-15.67-.58-27-2.77a231.1,231.1,0,0,1-29.46-7.74,104.84,104.84,0,0,1-49.78-1.19A48.13,48.13,0,0,0,465,281.06c-4.17,7.09-5.24,13.59-6.7,22.41-2.33,14.17.31,14.57-2,27-.44,2.33-.67,3.08-7.72,26-3,9.87-4.55,14.81-4.67,15.27-2.09,8.2-3.64,20.31-.66,36.62A49.59,49.59,0,0,1,431.07,384a47.15,47.15,0,0,1-.41-13.68,41.51,41.51,0,0,1-5.89-9.72,40,40,0,0,1-2.23-6.74c.87-.51,1.83-1.1,2.86-1.79,2.13,3.79,4.2,5,6.15,11.5a66.4,66.4,0,0,1,2.3,16.4c.2,6.73-.59,10.58,1.89,15.34a19,19,0,0,0,4.61,5.68,105,105,0,0,1,.54-23.67,117.54,117.54,0,0,1,5.29-21.94c4.24-12.39,7.52-15.39,9.2-25.26a56.63,56.63,0,0,0,.55-14.67,85.74,85.74,0,0,1-4.88,8.2,83.2,83.2,0,0,1-5.6,7.39,48,48,0,0,0,4.34-10.16,90.52,90.52,0,0,0,3.56-9.53c3.16-10.24,2.52-14.86,5.28-22.34,2.51-6.77,7.85-16,20.73-25.26-1.64-.32-15-3.16-21.54-15.86-.06-.11-.1-.22-.16-.33a115.15,115.15,0,0,1-1.2-11.5c-.19-3.75-.18-7.38,0-10.87a31.71,31.71,0,0,1,3.14-6.92,47.72,47.72,0,0,0-.17,11h0c-.35,2.53-1.39,12.38,5.18,19.84A20.72,20.72,0,0,0,473.4,255a50.2,50.2,0,0,0,13.27,6.68,59.68,59.68,0,0,0,26.95,3c13.25-1.52,22.48-7.07,29.26-11.24,11.85-7.29,11.16-10.53,27.35-21.68,12.23-8.41,18-10.27,21.14-11.11,5.39-1.44,14.71-3.92,23.28.25h0a38.78,38.78,0,0,1,8.77,9.06,32.06,32.06,0,0,0-16.92-7.33c-12.29-1.26-22.29,5.82-29.39,10.84-6.78,4.8-5.41,5.69-16.38,14.14-7.1,5.47-13.49,9.58-16.12,11.24s-5,3.07-6.78,4.1a129.81,129.81,0,0,0,31.29,9c12.59,1.94,22.88,3.52,34.68-.66A51,51,0,0,0,625,256.74a45.33,45.33,0,0,1-3.66,7.4,44.6,44.6,0,0,1-3.25,4.63,19.73,19.73,0,0,0,10.7,2.64c8.24-.52,14.25-7,18.1-13.07a37.26,37.26,0,0,0,5.47-5.44c-.8,1.33-1.77,3.42-1,5.24a47.56,47.56,0,0,1-5.47,8c1.87,1.58,4.83,3.55,8.4,3.44,4-.11,6.4-2.73,11.24-6.08,1.13-.78,2.51-1.69,4.13-2.65h0a14.73,14.73,0,0,0,4.35-2.36c1.42-.71,2.95-1.43,4.62-2.12L672,262.42c9.56,5.34,14.4,11.34,17.06,15.87,3.06,5.19,2.36,7,6.5,15.33,2.33,4.71,4,7.14,11,17.46,2.18,3.24,5.52,8.22,9.76,14.57l.12.19c.15.24.31.48.48.73.78,1.14,1.56,2.32,2.37,3.54a57.93,57.93,0,0,1-9.49-6.34,57.23,57.23,0,0,1-4.46-4.1,99.15,99.15,0,0,0,2.57,32.13c1.8,7.13,3.59,10.56,6,19.43a149.64,149.64,0,0,1,4.61,26.84,98.88,98.88,0,0,0,14.89-29.75q.41-1.33.75-2.64A56.37,56.37,0,0,1,735.2,372.49ZM410.83,293.76a21.87,21.87,0,0,0-2.18,4.09c-.29-1-.57-2.06-.84-3.1.37-.92.81-1.93,1.34-3A21.81,21.81,0,0,0,410.83,293.76Zm12.73-72.59c-3.12,4.54-5.74,8.89-5.7,14.68.05,6.84,3.78,12,5.94,14.58A30,30,0,0,0,419,253.2l1.53-3.57a38.39,38.39,0,0,1-2.44-4.76,30,30,0,0,1-2.54-9c-.36-4.68,1.47-8.29,3.35-11.9a47.83,47.83,0,0,1,13.92-16.06c-.1.51-.2,1-.29,1.51A144.38,144.38,0,0,0,423.56,221.17Zm96.69-61,.18.16a4.19,4.19,0,0,1-.34-.28c-.23-.2-.46-.39-.68-.6l-.27-.24c.35.29.68.59,1,.89Zm14.93,5.31q-4.26.28-8,.74l-6.74-5.89a18.57,18.57,0,0,0,3.78,2.39.53.53,0,0,0,.17.08A27,27,0,0,0,535.18,165.5Zm164.39,53.41a29.6,29.6,0,0,0-2,2.66,33.33,33.33,0,0,0,2.7-6.42C700.52,215.26,700.28,216.75,699.57,218.91Z" fill="#fff" opacity="0.5" style="mix-blend-mode:overlay"/><path d="M532,220.58c.61-.36.49-.33,5.49-3.77,5.82-4,10.35-7.06,10.77-7.34,3.44-2.29,12-5.45,36.57-5.15A109.3,109.3,0,0,0,548.5,217c1.35,0,2.78,0,4.27,0,2,.06,3.92.2,5.68.39a63.84,63.84,0,0,1-22.75,8.14c-13.42,2-24-.94-24-1.39S522.67,226.15,532,220.58Zm15-18.84c.42,1.21,11.55-3.74,27.63-3.77,12.19,0,21.61,2.78,21.94,1.59.37-1.35-11.58-4.92-11.17-6.55.33-1.34,8.83-.69,16,.6,12.08,2.15,19.54,5.9,19.7,5.55s-10.17-7-24.78-10.31c-13.1-3-24.74-2.31-24.79-1.79,0,.32,4.16.52,4.27,1.59.14,1.37-6.6,2.49-15.44,5.95C554.31,197,546.73,200.73,547.08,201.74Zm75.17-22.41c-.33.86,9.42,3.38,20.52,10.91,14.18,9.6,21.7,21.36,22.14,21S651.52,194.07,652.72,193c.7-.61,6.44,4,11.18,9.32,5.92,6.69,8.09,12.11,8.53,11.9.62-.28-1.85-11.59-10.16-21.62-10-12.06-23.57-16.38-23.77-16.06s4.22,2.58,9.35,7.93c.85.9,4.85,5.07,4.26,5.76s-5.11-3-12-6.15C631.35,180,622.55,178.52,622.25,179.33Z" fill="#fff" opacity="0.6" style="mix-blend-mode:overlay"/><path d="M755.39,287.94c2.4-5.47.2-10.91-3.79-20.36a101.24,101.24,0,0,0-11.92-20.89,113.69,113.69,0,0,0-19.24-20.1,23.81,23.81,0,0,1,13.82,0c10.47,3.28,14.38,12.94,14.9,14.28a30.89,30.89,0,0,0-13.27-28.82c-14.51-10-30.67-3.24-31.43-2.91.54-4.65.71-12.57-3.52-20.36-1.09-2-5-8.59-21.13-17.19-17.67-9.41-23.55-7.13-34.94-14.54-5.38-3.5-12.89-9.76-19.51-21.42a44.92,44.92,0,0,0,6.5,27.5c-27.76-13-45.37-13.33-56.6-10.77A170,170,0,0,1,551.68,156c-16.33,1.37-21.89-.57-23.84-1.32-3.43-1.33-11-5-17.33-15.07a20.41,20.41,0,0,0,.81,16.39,20.89,20.89,0,0,0,10.57,9.52,19.81,19.81,0,0,1-21.4-5.82,18.79,18.79,0,0,1,.81-24.32c-1,.34-22.54,8.16-25.74,27.5A31.6,31.6,0,0,0,478,180.58a25.68,25.68,0,0,1-9.48-10c-5.06-9.81-1.49-19.43-.81-21.16-4.52,9-8.58,16.32-11.65,21.68-6.83,11.95-10.25,17.92-15.34,24-6.51,7.84-7.71,6.86-15.54,16.17s-11.89,14.25-12.46,21.42c-.61,7.55,3,13.78,5.42,17.18-1.07.49-16.25,7.71-18.42,24.07-1.73,13,6,22.24,7.31,23.79-.62,1-6.58,10.84-1.9,21.42A23.31,23.31,0,0,0,416,330.25c-1,11.27,1.41,18.9,3.79,23.8,3.18,6.54,6.73,9,8.67,16.65,1.73,6.8.27,10.2.54,15.6.33,6.45,3.09,15.75,14.9,27a101.53,101.53,0,0,1,1.9-41.78c3.13-11.86,6.84-16.67,10.29-28.82a115.38,115.38,0,0,0,3.52-43.37,61.72,61.72,0,0,1,8.67-18,63.78,63.78,0,0,1,14.9-15.07,56.61,56.61,0,0,0,48-.53,95.21,95.21,0,0,0,81,6.61,24,24,0,0,0,11.38,3.7A25,25,0,0,0,640.8,270a18.8,18.8,0,0,0,9.76,4.76c10.88,1.64,18.61-7.76,19-8.2,4.73,2.25,10.46,5.94,14.36,12.16,3.08,4.93,3,8.27,6,14.81a58.66,58.66,0,0,0,10.84,16.13,111.44,111.44,0,0,0,1.63,39.67c2,8.86,4.06,12.82,6.5,21.68a146.14,146.14,0,0,1,4.87,44.69A110.52,110.52,0,0,0,733.18,386a109.41,109.41,0,0,0,9.21-50.5c2.07-1.22,9-5.59,10.29-13.23.58-3.34-.14-6.07-1.08-9.51a45.5,45.5,0,0,0-7.86-15.61C746.8,296.17,752.89,293.6,755.39,287.94ZM750,283.05c-.72,2.66-2.74,6.62-9.21,10.44l-11.11-9.91c1.36,2.1,3.52,5.38,6.24,9.38,6.06,8.89,7.88,10.93,9.75,15.6,1.76,4.42,3.33,8.52,1.89,13.23a16,16,0,0,1-5.82,7.93q-1.08-5.3-2.17-10.58a234.08,234.08,0,0,1-1.89,26.05c-1.09,8.45-2,15.21-4.34,23.13a98.71,98.71,0,0,1-14.9,29.75,149.44,149.44,0,0,0-4.6-26.84c-2.37-8.87-4.16-12.3-6-19.43a99.07,99.07,0,0,1-2.58-32.13,59.52,59.52,0,0,0,4.47,4.1,57.93,57.93,0,0,0,9.49,6.34c-5.66-8.49-10.06-15.07-12.74-19-6.94-10.32-8.64-12.75-11-17.46-4.14-8.36-3.45-10.14-6.5-15.33-2.66-4.53-7.5-10.52-17.06-15.87l6.63-6.08a71.7,71.7,0,0,0-13.14,7.14c-4.84,3.35-7.25,6-11.24,6.08-3.57.1-6.53-1.86-8.39-3.44a45.74,45.74,0,0,0,9.34-17.71c5.8-22.06-8.15-40.58-10.43-43.5,2.19,3.32,14.65,22.81,7.18,43.23-.85,2.32-8.46,22.35-23.16,23.27a19.58,19.58,0,0,1-10.7-2.64,45.7,45.7,0,0,0,3.25-4.63,44.94,44.94,0,0,0,3.66-7.4,51.2,51.2,0,0,1-21.13,14.54c-11.8,4.18-22.08,2.6-34.68.66a129.64,129.64,0,0,1-31.28-9c1.77-1,4.08-2.41,6.77-4.1s9-5.77,16.12-11.24c11-8.45,9.6-9.34,16.39-14.14,7.08-5,17.08-12.1,29.39-10.84,3.2.33,10.62,1.64,18.55,8.72a24,24,0,0,0-8.94-9.65c-9-5.28-19.07-2.58-24.78-1.06-3.14.84-8.91,2.69-21.13,11.11-16.2,11.15-15.51,14.39-27.36,21.68-6.78,4.18-16,9.72-29.26,11.24a59.53,59.53,0,0,1-26.95-3c-4.86-1.79-12.43-4.57-18.56-11.5-10.79-12.22-9-28.19-8.53-31.87-.47.73-9.32,14.87-1.76,29.62,6.51,12.69,19.89,15.55,21.54,15.86C466.48,273,461.13,282.23,458.63,289c-2.76,7.48-2.12,12.11-5.28,22.34a89.71,89.71,0,0,1-11.11,23.27,84,84,0,0,0,13.68-19.17,56.11,56.11,0,0,1-.54,14.67c-1.68,9.87-5,12.86-9.21,25.26a117.07,117.07,0,0,0-5.28,21.94,105,105,0,0,0-.54,23.67,19,19,0,0,1-4.61-5.68c-2.48-4.76-1.69-8.61-1.89-15.34a66,66,0,0,0-2.31-16.4c-2.53-8.55-5.3-7.93-8.12-16-2.46-7-2.25-13-1.9-22.74a116.27,116.27,0,0,1,2-17.85,26,26,0,0,0-6.23,10.44,25.22,25.22,0,0,0-1.08,6.88,22.05,22.05,0,0,1-5.42-30.54c-1.84-2-5.49-6.54-5.82-12.83-.28-5.53,2.15-9.58,5.55-15.07A62.05,62.05,0,0,1,424,250.63c-2.12-2.44-6.07-7.74-6.12-14.78,0-5.79,2.58-10.14,5.69-14.68,8.65-12.61,16.74-20.27,21-24.85,5.73-6.18,13.17-16.09,18.82-31.6a20.48,20.48,0,0,0,4.47,13,21.83,21.83,0,0,0,14.36,7.66c-.2-2.65-.44-6.43-.54-11-.2-9.53-.31-14.3,1.08-18.51,1-3.11,3.68-8.91,11.51-14.41a34.65,34.65,0,0,0-.4,9.39c.29,3.16.66,7.09,2.84,10.44,3.5,5.39,10.06,6.8,14.09,7.67,11.17,2.41,20.79-1.4,25.06-3.44-1.57,0-11.63-.16-18.42-8.06a22.24,22.24,0,0,1-5.15-11.77,26.54,26.54,0,0,0,8.26,8.59c4,2.57,8.48,3.84,17.61,4.37,6.92.39,12,.11,26-1.06,16.84-1.41,19-1.8,25.06-1.72,7,.09,12.17.17,18.83,1.6,10.56,2.29,14.06,5.7,31.42,12.68,5.5,2.2,10,3.81,12.73,4.76a44.8,44.8,0,0,1-14.36-11.24,43.43,43.43,0,0,1-7.58-13.09,61.36,61.36,0,0,0,18.69,12.56c7.18,3.05,9.62,2.35,18.56,6.22A90.42,90.42,0,0,1,684.42,179c7.71,5.4,11.55,8.1,14.08,12.69,4,7.32,3.3,14.75,3,17.58a33.22,33.22,0,0,1-3.93,12.3c1-1.46,8.72-12.68,20.86-12.69a23.76,23.76,0,0,1,11.11,3c9.53,4.82,13.79,13.2,15.3,16.66-.4-.6-6.32-9-16.11-8.73a19.05,19.05,0,0,0-11.79,4.89,19.63,19.63,0,0,0-5.69,8.86l6.23-4.76a56.58,56.58,0,0,1,13.82,17.32C741.79,266,752.63,273.23,750,283.05Z"/></g></g></g></svg>