<svg xmlns="http://www.w3.org/2000/svg" viewBox="0 0 1080 1920"><g style="isolation:isolate"><g id="hair"><g id="_33" data-name="33"><path d="M716.42,416.84a427.59,427.59,0,0,0,11.37-122.75,49.41,49.41,0,0,0,13-26.57c3.35-23-11.43-39.62-13.4-41.76.3-5.49.33-18.58-6.7-30.37a38.08,38.08,0,0,0-8.12-9.91c-4.87-4.18-7.6-4.2-12.59-7.18-9.9-5.92-7.61-10.93-16.64-16.87s-18.39-5.76-21.73-5.69a41.39,41.39,0,0,0-15.43,3.37c-5.63-6.8-17.36-18.91-35.93-25.31-7.83-2.69-22.18-7.64-39.19-2.32a57.29,57.29,0,0,0-24.5,15.68c-10.82-8.29-19.32-8.26-23-7.87-7.3.75-13.32,4.73-24.91,12.37-8.76,5.78-8.74,7-12.18,8.15-6.15,2.16-16.15,1.9-32.49-10.68a59.13,59.13,0,0,0,4.88,18.28,57,57,0,0,0,6.49,11A39.43,39.43,0,0,0,444,190.47a41.12,41.12,0,0,0-7.58,12.65,48.13,48.13,0,0,0-3.25,20.25,29.7,29.7,0,0,0-8.66,8.44c-8.7,13-4.31,29.44-2.71,35.43a59.19,59.19,0,0,0,8.66,18.56,347.17,347.17,0,0,0,11.37,124.58A173.93,173.93,0,0,1,447,359.14q1.24-4.84,2.69-9.37a160.13,160.13,0,0,1,3.61-34.09c2.11-9.75,3.71-17.12,8.51-25.7,3.09-5.54,10-18,22.94-23.71,6.87-3.07,12.92-3.15,38.85,1,29.71,4.71,27.78,5.77,39.79,7,1.74.18,29,2.81,55.22-2.25,23.91-4.61,27.34-5.63,27.34-5.63a62.08,62.08,0,0,1,11.91-2.53,54.19,54.19,0,0,1,15.13.42c11.86,2.54,19.07,17.41,23.37,26.55,10.37,22.07,12.46,44.42,12,61.48a42.29,42.29,0,0,1,7.79,14.37c2.09,6.8,1.73,12,1.28,22.32C717.09,395.28,716.71,404.8,716.42,416.84Z" fill="#42210b"/><path d="M456.55,233.21c8.73-.19,14.63,5.7,19.35,10.41,5.56,5.54,11.24,14.17,9.34,16.59-.84,1.07-2.94.63-3.92.42-4.59-1-6.46-5-10.16-9a38.48,38.48,0,0,0-29.91-11.39C443.26,238.25,448.77,233.38,456.55,233.21Zm3-18.21c.19,1.8,6.05.9,16.65,4.64,9.8,3.47,14.81,7.78,16.24,9.07a41.38,41.38,0,0,1,6.3,7.17c-1.95-5.46-6.13-14.46-14.82-20.88-5.88-4.33-10.12-4.76-11.37-4.85C466,209.7,459.39,213.07,459.59,215ZM440.1,214c3.44-2.83,13.66-10.49,27.21-9.49,10.19.74,17.09,6,23.95,11.39,14.28,11.19,22.51,25.33,27.21,36.27a53.09,53.09,0,0,0-4.06-27.42,67.09,67.09,0,0,1,7.51,12,68.2,68.2,0,0,1,4.67,12.65,69.18,69.18,0,0,0-3.86-25.73,67.28,67.28,0,0,0-7.1-14.34,68,68,0,0,1,11.77,14.76,69.71,69.71,0,0,1,6.7,15.19,90.29,90.29,0,0,1-3.45-35,88.66,88.66,0,0,1,4.26-19.62,85.43,85.43,0,0,0,9.34,35,82,82,0,0,0,18.07,23.41,66.67,66.67,0,0,1-2.23-17.71,65.68,65.68,0,0,1,.81-9.7,34.78,34.78,0,0,0,6.3,16c2.43,3.31,4.85,6.61,7.91,6.54,4.23-.08,6.77-6.48,11.78-16.24,2.93-5.72,7.39-13.91,13.6-23.62a46.4,46.4,0,0,0-1.22,34,30.76,30.76,0,0,1,2.64-12,29.29,29.29,0,0,1,3.86-6.33,91.18,91.18,0,0,0-.41,23.83c1.1,9.38,2.6,8.89,4.36,19,0,.22.25,1.44.52,1.44.79,0,0-11.24,2.84-21.94a52.53,52.53,0,0,1,7.71-16.45,17.46,17.46,0,0,0-.2,10.55c.95,2.85,2.08,3.17,2.84,5.48,2.33,7-4.75,13.66-3.24,15.19s11-2.72,13.4-10.34c1.11-3.61-.13-5.6,1.42-9.49a16.6,16.6,0,0,1,6.9-7.8,44.32,44.32,0,0,1-2.44,14.13,43.24,43.24,0,0,0,9.95-10.12,44.94,44.94,0,0,0,6.7-14.56,33,33,0,0,1,6.7,14.35,33.43,33.43,0,0,1-.41,14.76,97.36,97.36,0,0,0,8.53-8.44,99.9,99.9,0,0,0,8.93-11.6A41.71,41.71,0,0,1,672,240.1a39.3,39.3,0,0,1-8.33,8c15.55-2.83,22.2-8.72,25.38-13.71a119.8,119.8,0,0,1,9.54-14.13c3.48-4.36,5.25-5.87,7.11-7a20.62,20.62,0,0,1,13.6-2.32,92.6,92.6,0,0,1-12.79,30.79,89.09,89.09,0,0,1-23.55,24.46,46.85,46.85,0,0,0,31.47-7.38,48.67,48.67,0,0,0,16.24-18.56l-7.71-10.54a61.5,61.5,0,0,0-6.09-27.84c-2.77-5.64-6.28-12.79-13.2-16.67-10.27-5.75-24.67-2.41-37,7.18a31.92,31.92,0,0,1,5.68-12.24,30.42,30.42,0,0,1,13.2-9.91,36.5,36.5,0,0,0-37.36-9.49c-17.91,5.07-26.51,21.29-28.22,24.68a18.84,18.84,0,0,1,.41-9.07,18.16,18.16,0,0,1,2.43-5.07,27.69,27.69,0,0,0-9.94,8.23,28.4,28.4,0,0,0-4.06,7.59c0-1.78.41-13.51,9.94-21.93a28.47,28.47,0,0,1,23.35-6.54,88.87,88.87,0,0,0-25.17-16.45c-5.42-2.33-14.73-6.34-26.19-6.54-21-.36-36.58,12.35-42.23,17.51a63.42,63.42,0,0,0-26.4-2.11c-5.77.78-14.88,2-23.95,8-3.73,2.47-5.39,4.37-9.55,5.49-6.41,1.71-12.24-.22-16-1.48a41,41,0,0,1-12.19-6.54c.21,3.88,1.25,14.35,8.33,18.77,4.19,2.62,9.08,2,18.68.63,13.81-2,15.22-5.08,21.52-3.58a22.62,22.62,0,0,1,17.05,24,71,71,0,0,0-21.52-11.81c-6-2-18.76-6.15-34.11-2.32-5.48,1.37-24.47,6.12-29.3,21.28A25.09,25.09,0,0,0,440.1,214Z" fill="#fff" opacity="0.5" style="mix-blend-mode:overlay"/><path d="M483.35,198.55a36.54,36.54,0,0,1,7.3-.84,34,34,0,0,0-16.95-3.48,35.83,35.83,0,0,1,25.28.31c11.45,4.59,17.56,14.09,17.26,14.45s-3.86-3.81-10.56-6.64a35.45,35.45,0,0,0-12.39-2.74,25.74,25.74,0,0,1,3.35,3.79,29,29,0,0,1,5.18,13.4,31.55,31.55,0,0,0-12.69-12.45A29.63,29.63,0,0,0,476,201,36.67,36.67,0,0,1,483.35,198.55Zm46.39-24.25a20,20,0,0,0-5.48-7.07,25.11,25.11,0,0,1,6.9.42,24.75,24.75,0,0,1,5.48,1.8,16.7,16.7,0,0,0-1.73-3.38,16.31,16.31,0,0,0-4.06-4.22c2.82.49,5.8,1.11,8.94,1.9s6.24,1.71,9,2.64A47.69,47.69,0,0,0,530,157.85a46.64,46.64,0,0,0-18.17-.21,17,17,0,0,1,11.57,2.53,16.55,16.55,0,0,1,4.27,4.11,56.05,56.05,0,0,0-16.85-.74,31.3,31.3,0,0,1,12.28,7.38,33,33,0,0,1,8.42,13.82A20.73,20.73,0,0,0,529.74,174.3ZM556,187.37c2.78-6.84,3.84-7.68,4.74-7.73,2.22-.14,3,4.56,5.41,4.64,3.44.11,6-9.17,7.58-8.72,1.31.36-.06,6.46,2.17,7.6s5.63-3.31,7-2.25c.84.62.29,2.67,0,4.07-1.43,7.15.62,14.77,1.76,14.91,1.56.18,1.87-13.55,9.21-27.56a63.75,63.75,0,0,1,13.67-17.58,32,32,0,0,0-16,8c-4.57,4.37-7.51,10.1-9.07,9.42s.65-6.63-1.76-8.3c-2-1.4-6.09,1-8.12,2.67-4.13,3.31-5.22,7.56-6.5,7.17-.48-.14-.55-.81-1.62-4.92-1-3.87-1.18-4.12-1.43-4.23-1.79-.78-7,5.45-9.54,12.25-1.17,3.14-3.06,9.92-.81,19.54C553.51,194.06,554.57,191,556,187.37Zm88.62-10.12c-4.8,3.38-15.07,11.1-19.8,19.4-1.24,2.19-3.92,6.91-2.23,9.39a3.13,3.13,0,0,0,1.32,1.06c5.36,2.36,16.84-12.25,18.38-11,1,.83-3.86,7.23-1.53,10.65a3.52,3.52,0,0,0,1.83,1.37c3.53.93,7.09-6.16,13.4-12.55a50.64,50.64,0,0,1,12-9,26.45,26.45,0,0,0-13.1,5.16c-3.94,3-6.6,7.06-7.61,6.44-.81-.51.53-3.33.1-8.65-.18-2.26-.27-3.38-.91-3.8-2.87-1.85-12.19,10-13.3,9.07-.7-.59,2.37-5.85,4.87-9.49A65.34,65.34,0,0,1,644.65,177.25Zm48.93,19.83a41.53,41.53,0,0,0-20.81,10.12c-6.53,6-9.64,13.05-9.34,13.29s4.94-7,8.12-5.91c1.24.43,1,1.7,2.23,2.32,3.81,1.95,11.82-7.59,13.4-6.22.55.47-.06,1.93.71,2.42s2-.66,2.34-.42c.61.42-1.12,4.84-7.82,17.4a155.1,155.1,0,0,0,11-15.18c1.37-2.17,5.55-8.92,4.46-9.92s-5.34,3.36-6.55,2.26c-.95-.86,1.05-4.05.26-4.68-1-.81-4.66,4.2-11.37,6.43a21.56,21.56,0,0,1-3.55.85,39.47,39.47,0,0,1,6.29-6.54A38.27,38.27,0,0,1,693.58,197.08Z" fill="#fff" opacity="0.6" style="mix-blend-mode:overlay"/><path d="M447,359.14c.42-1.64.84-3.24,1.3-4.77C447.79,355.94,447.37,357.52,447,359.14ZM461.76,290c3-5.35,9.57-17.14,21.68-23.12-.64.31-1.28.64-1.93,1C472.72,272.75,466.36,280.76,461.76,290Zm182.38-25.84c-2.92.65-14.56,1.24-37.84,2.38-24.14,1.2-36.21,1.8-46.62,1-32.54-2.48-45.47-11.74-69.43-3.39-1.32.46-2.78,1-4.34,1.63,6.44-2.55,13.24-2.39,37.64,1.48,29.7,4.71,27.79,5.77,39.79,7,1.74.19,29,2.81,55.22-2.25,23.91-4.61,27.34-5.63,27.34-5.63a62.27,62.27,0,0,1,11.91-2.53,54.26,54.26,0,0,1,15.12.41,30.84,30.84,0,0,0-4.83-1.81C659.11,259.91,652.2,262.35,644.14,264.14Zm52.17,26.7a65.61,65.61,0,0,0-4.37-8.67C693.66,285.24,695.1,288.27,696.31,290.84Zm12,61.47A42.37,42.37,0,0,1,716,366.49a36.77,36.77,0,0,0-7.72-14.18Zm19.08-126.55c.3-5.5.33-18.58-6.7-30.37a38.24,38.24,0,0,0-8.12-9.91c-4.87-4.18-7.6-4.2-12.59-7.18-9.9-5.91-7.61-10.93-16.64-16.87s-18.39-5.76-21.73-5.69a41.19,41.19,0,0,0-15.43,3.37c-5.64-6.79-17.37-18.91-35.93-25.31-7.83-2.69-22.18-7.64-39.19-2.32a57.29,57.29,0,0,0-24.5,15.68c-10.82-8.28-19.33-8.26-23-7.87-7.3.76-13.33,4.73-24.91,12.37-8.76,5.78-8.74,7-12.18,8.15-6.15,2.16-16.15,1.9-32.49-10.68a58.92,58.92,0,0,0,4.88,18.28,57,57,0,0,0,6.49,11A39.43,39.43,0,0,0,444,190.47a41.33,41.33,0,0,0-7.58,12.65,48.31,48.31,0,0,0-3.25,20.25,29.7,29.7,0,0,0-8.66,8.44c-8.7,13-4.31,29.44-2.71,35.43a59.19,59.19,0,0,0,8.66,18.56,347.17,347.17,0,0,0,11.37,124.58c-.18-4-.24-8.17-.14-12.49-.76-8.68-1.59-19.12-2.36-31,0,0-.56-8.78-1-17.57-1.78-34.58-1.64-86.42-1.62-92.38l-4.47,14.77a33.74,33.74,0,0,1-4.06-19.83c1.59-14.28,12.13-22,13.81-23.2-.35-2.32-2.53-18.69,8.93-32.48,11.63-14,27.84-14,30.05-13.92a19,19,0,0,1-10.56-7.17,19.93,19.93,0,0,1-3.65-9.7,27.61,27.61,0,0,0,17.05,4.64c7.1-.55,12.21-4,15-5.91,4-2.68,4.05-3.83,7.71-6.75,3.1-2.47,11-8.77,20.71-8.43,10.12.36,17,7.78,19.08,10.12,2.74-3,20.8-21.85,49.14-20.67,26.22,1.1,42.15,18.61,45.07,21.94l-13.4,13.92c1.88-1.7,18.28-16,37.76-11.39,2.62.62,11.83,2.8,19.09,10.54,4.26,4.56,4.09,7,8.93,11.81,7.27,7.21,11.32,5.28,16.24,10.13,8,8,1,17,7.72,34.59,4.83,12.77,10.43,13,13.39,24,3.08,11.41.08,22.28-2.84,29.53l-3.65-15.61q-1.12,24.07-2.44,48.51-1.65,30.48-3.61,60.4c.1,3.37-.09,7.16-.31,12.15-.29,6.28-.66,15.8-1,27.84a427.59,427.59,0,0,0,11.37-122.75,49.41,49.41,0,0,0,13-26.57C744.13,244.51,729.36,227.9,727.38,225.76Zm-285,179.69a155.9,155.9,0,0,1,2-34.16c.51-3,1.1-5.94,1.74-8.72a170.65,170.65,0,0,0-4.46,35.32C441.88,400.58,442.12,403.11,442.33,405.45Zm7.33-56.39a187.31,187.31,0,0,1,3.62-33.5.65.65,0,0,0,0,.13A159.43,159.43,0,0,0,449.66,349.06Zm12-59c-4.23,7.57-5.95,14.22-7.76,22.41A102.59,102.59,0,0,1,461.71,290.06Zm22.57-23.6.78-.35-.36.16A3.89,3.89,0,0,0,484.28,266.46ZM673,264.27a41.3,41.3,0,0,1,10.58,7.47,47.28,47.28,0,0,1,8.38,10.36C687.54,274.25,681.43,266.1,673,264.27Zm25.6,32.35c7.2,20.08,9.38,40.12,9.75,55.69.46-17-1.6-39.26-11.89-61.24C697.15,292.84,697.85,294.69,698.55,296.62Zm17.56,70.16a41.63,41.63,0,0,1,1.53,10.83c0-.25,0-.5,0-.76A35.44,35.44,0,0,0,716.11,366.78Z"/></g></g></g></svg>