<svg xmlns="http://www.w3.org/2000/svg" viewBox="0 0 1080 1920"><g style="isolation:isolate"><g id="hair"><g id="_34" data-name="34"><path d="M451.24,363.72a78.37,78.37,0,0,0-6.9,15.33,79.2,79.2,0,0,0-3.5,31.31A312.45,312.45,0,0,1,437.53,282a47,47,0,0,0-7.66,21.73c-1.68-2.67-10.23-16.87-6-35.21a47.41,47.41,0,0,1,19.22-27.93c-.41-2.4-2.78-17.58,7.79-30.79a39.55,39.55,0,0,1,24.16-14,22.36,22.36,0,0,1,7.53-8.53,21.91,21.91,0,0,1,6.24-2.85,44.7,44.7,0,0,1,11.94-10.87c5.9-3.63,11.94-5.37,28.06-7,14.62-1.46,26.9-1.75,38.7-1.81,11.32-.06,20.71.1,27.27.26a82.35,82.35,0,0,1,29.35-1.55c19.75,2.54,33.08,11.71,41,17.33A113.65,113.65,0,0,1,701.55,224a56.28,56.28,0,0,0-.78-13.19,57.07,57.07,0,0,0-6.23-17.59,78.4,78.4,0,0,1,19,30.52c2.46,7.5,5,15.57,1.86,24.7a30.54,30.54,0,0,1-8.09,12.29,41.5,41.5,0,0,1,12.37,12.38c6.46,10.22,6.26,20.7,6.15,28.64-.54,39.53.6,46.09.33,54.77,0,.24-.25,5.55-.93,11.31-1.79,15.16-6.3,30.7-8.29,37.18a238.33,238.33,0,0,0-4.88-25.5c-1.58-6.38-3.34-12.33-5.17-17.85a162.36,162.36,0,0,0-6-38.14c-4.6-16.29-8.29-28.65-19.72-35.64a34.48,34.48,0,0,0-14.93-4.75,73.09,73.09,0,0,1-37.64,6.94,72.14,72.14,0,0,1-26.68-7.74,125.22,125.22,0,0,1-94.38-1.58,81.86,81.86,0,0,1-34.6,7.65,132,132,0,0,0-21.69,75.31Z" fill="#42210b"/><path d="M451.94,246.1c6.44.85,10.69,3.91,15.29,7.29a66.74,66.74,0,0,1,18,20.16,53.94,53.94,0,0,1-30.5-2.4,18.71,18.71,0,0,0,4.14,5,19,19,0,0,0,9,4.19,37.39,37.39,0,0,1-17-1.48c-5-1.66-12.63-4.2-16.1-11.64-3.81-8.16,0-16.53.78-18.11A28.29,28.29,0,0,1,451.94,246.1Zm36-5.28a34.59,34.59,0,0,0-15.33-7.76,41.23,41.23,0,0,0-23.24,1.17,24,24,0,0,1,11.29-7.63c6.49-1.95,11.95-.26,18.32,1.81s15.67,5.08,23.76,14.1A46.58,46.58,0,0,1,514,267a36.23,36.23,0,0,0-4.74-21.06,20.11,20.11,0,0,1,12.46,11.55,27,27,0,0,0-.63-7.48,27.67,27.67,0,0,0-1.76-5.25,30.08,30.08,0,0,1,7.92,3.49,31,31,0,0,1,10.57,11.2,48.6,48.6,0,0,0-3.64-22.67A44.81,44.81,0,0,1,547,245.22a47,47,0,0,1,13.63,26.39,140.05,140.05,0,0,0-4-34.05c-3.53-14.21-7.44-20-9.58-22.86a48.88,48.88,0,0,0-12.08-11.26,70.93,70.93,0,0,1,40.91,45,59.82,59.82,0,0,0-17.14-36.87A89,89,0,0,1,593.86,250a39.51,39.51,0,0,0-2.67-19.82,25.09,25.09,0,0,1,11.44,20.51,35.73,35.73,0,0,0,1.58-8.79,36.35,36.35,0,0,0-.78-9.57,33.84,33.84,0,0,1,8,14.49,48.34,48.34,0,0,0-3-19.55c-5-13.36-14.85-20.6-21.07-25.07-12.51-9-24.39-11.43-41-14.87-14-2.9-21.21-2.46-24.16-2.2A68.1,68.1,0,0,0,499.86,191a34.67,34.67,0,0,1,23.9,7.5,155.65,155.65,0,0,0-28.7-2.33c-12.33.16-18.65.31-26,3.88A41.73,41.73,0,0,0,451.29,217a41.25,41.25,0,0,0-5.06,22,42.51,42.51,0,0,1,22.47-2.84c16.45,2.47,25.74,14.11,27.79,16.81A33.45,33.45,0,0,0,487.92,240.82Zm118.83-29.74a82.37,82.37,0,0,1,14.41,20.82,83.2,83.2,0,0,1,8.26,35.74,48.71,48.71,0,0,0-22.67-56.56ZM493.24,180.81a57.84,57.84,0,0,1,23.9,1c1.74.46,3.38,1,4.93,1.56a121.63,121.63,0,0,1,48.83,2.06c9.11,2.3,31.85,8.33,52.21,28.46a106.93,106.93,0,0,1,23.47,35c1.16-2.24,4.84-10,2.32-19.2a24.88,24.88,0,0,0-4.46-8.8,26.46,26.46,0,0,1,16.87,17.39,26.53,26.53,0,0,0,.4-13.34c-.91-3.75-2.47-6.22-6.39-12.05-3.38-5-7-10.31-10.85-15.79,6.64,3.32,20.41,11.44,29.55,27.69a65.84,65.84,0,0,1,7,18.62,34.2,34.2,0,0,0,8.83-17.33c1.88-10.7-2.27-19.11-4.41-23.28-5.11-10-12.34-14.83-26.5-24.32-11.08-7.43-17.53-11.76-27.79-14a60.23,60.23,0,0,0-23.63-.26A50.47,50.47,0,0,1,635.32,178a198.55,198.55,0,0,0-32.73-9.05,212.49,212.49,0,0,0-34.54-3.36c-20.6-.71-33.11-1.14-48.57,3.36A102.06,102.06,0,0,0,493.24,180.81Z" fill="#fff" opacity="0.5" style="mix-blend-mode:overlay"/><path d="M465,255.38a51.08,51.08,0,0,1,14.13,11.83,52.22,52.22,0,0,1-27.08-17A51.22,51.22,0,0,1,465,255.38Zm18.51-36.8a102.3,102.3,0,0,1,48,30.52,42.37,42.37,0,0,0-16.23-20.69,22.12,22.12,0,0,1,9,2.71,21.83,21.83,0,0,1,6,4.92,21.12,21.12,0,0,0-3-7.24,21.62,21.62,0,0,0-3.68-4.28,59.84,59.84,0,0,1,13.32,7.8,59,59,0,0,1,10.11,10,65.84,65.84,0,0,0-17.67-22.57,66.73,66.73,0,0,0-30.52-14,25.55,25.55,0,0,1,11.42,7.37,39.94,39.94,0,0,0-15.45-.51,17.17,17.17,0,0,1,11.34,7.18,59.17,59.17,0,0,0-22.64-1.23Zm83.38-19.76a71.5,71.5,0,0,1,33.89,27.55c-.46-2.35-3.26-15.22-15.48-22.7A33.86,33.86,0,0,0,566.88,198.82Zm29-10.9a83.54,83.54,0,0,1,41.57,37.41c-.54-3.37-3.33-18.41-17.16-28.74A44.69,44.69,0,0,0,595.84,187.92Zm56.26,3.14a61.55,61.55,0,0,1,30.1,36,61.46,61.46,0,0,0-6.62-21.83,47,47,0,0,1,6.23,7.28,45.86,45.86,0,0,1,3.7,6.4,53.74,53.74,0,0,0-21.62-27.74l5.06,6.69a64.69,64.69,0,0,0-10.71-4.95A63.77,63.77,0,0,0,652.1,191.06Z" fill="#fff" opacity="0.6" style="mix-blend-mode:overlay"/><path d="M486.36,261.78c-1.3-2.27-9.7-16.45-25.85-18.89a32.84,32.84,0,0,0-14.15,1,28.78,28.78,0,0,1,17.27-2.46C479.65,244.38,486,260.8,486.36,261.78Zm49.38-58c-.6.68,15.11,10.33,23.86,28.89,7.26,15.38,7,31.17,5.2,43.33,2.41-7.93,7.29-28-2.51-47C553.37,211.68,536.36,203.1,535.74,203.79Zm23,7.8a83.08,83.08,0,0,1,24,30.34,82.09,82.09,0,0,1,7.32,28.6,58.65,58.65,0,0,0-4.4-30.3A59.94,59.94,0,0,0,558.7,211.59Zm10.71-21A78.14,78.14,0,0,1,583.53,197c6.88,4,18.45,10.72,25.31,23.92,7.94,15.28,5.09,30.6,3.82,36a48.89,48.89,0,0,0,2.92-24.45C615,228.37,613.4,218,605.24,209a45,45,0,0,0-10.51-8.3A76.65,76.65,0,0,0,569.41,190.57Zm84.74,14.94a66.1,66.1,0,0,1,16.77,61.79,51.37,51.37,0,0,0,3.1-31.91A51.93,51.93,0,0,0,654.15,205.51ZM467.94,296.65c-.68,1.22-1.32,2.41-1.92,3.56C466.66,299,467.3,297.79,467.94,296.65Zm198.29-13.51a36,36,0,0,1,9.83,2.24A31.87,31.87,0,0,0,666.23,283.14Zm-18-1.19c-11.42,2.74-17.83,2.8-22.41,2.47a62.41,62.41,0,0,1-19.31-4.56c6.75-6.21,7.75-7.85,7.47-8.23-.57-.74-6.17,3.42-14.14,6.84S585.12,283,579,283.93c-3.63.56-15,2.15-31.76.4A164.16,164.16,0,0,1,498,271l6.3,6.81a87.76,87.76,0,0,1-9.16,3.37,93.26,93.26,0,0,1-44,2.18l21.74,5a81.86,81.86,0,0,0,34.61-7.65,125.22,125.22,0,0,0,94.38,1.58,72.14,72.14,0,0,0,26.68,7.74,73.17,73.17,0,0,0,37.64-6.94q9.35-7.65,18.71-15.28A154.75,154.75,0,0,1,648.21,282Zm52.67,41.59c.49,1.72,1,3.56,1.46,5.54-4.12-20.38-8.12-27.44-11.91-32.31C695.19,303.69,697.84,312.75,700.88,323.54Zm6,38.13a.56.56,0,0,0,0,.12c0-.36,0-.73-.09-1.08C706.82,361,706.84,361.35,706.85,361.67Zm18.95-59.92c.11-7.94.29-18.41-6.17-28.63a41.31,41.31,0,0,0-12.36-12.37,30.6,30.6,0,0,0,8.08-12.31c3.12-9.12.61-17.19-1.84-24.69a78.31,78.31,0,0,0-19-30.53,57,57,0,0,1,6.24,17.6,56.3,56.3,0,0,1,.78,13.19,113.74,113.74,0,0,0-36.36-43.21c-8-5.6-21.29-14.78-41.05-17.33A82.74,82.74,0,0,0,594.8,165c-6.56-.16-16-.32-27.27-.26-11.81.06-24.08.36-38.71,1.81-16.12,1.61-22.16,3.35-28,7a45.16,45.16,0,0,0-12,10.87,22.08,22.08,0,0,0-6.23,2.84,22.44,22.44,0,0,0-7.53,8.54,39.48,39.48,0,0,0-24.16,14c-10.57,13.21-8.2,28.39-7.79,30.78A47.41,47.41,0,0,0,423.9,268.5c-4.26,18.34,4.29,32.54,6,35.22A46.86,46.86,0,0,1,437.54,282,324.3,324.3,0,0,0,441.8,416.6a110.91,110.91,0,0,1,1.1-33.27,252.74,252.74,0,0,1-3.07-27.81c-1-17.74.39-27.65,1.06-58.7.18-8.29.24-15,.26-19a25.06,25.06,0,0,0-12.74,16.92,41.35,41.35,0,0,1-3.12-19.4C427,255.5,443,244.17,445.6,242.38a55.77,55.77,0,0,1,8-24.39c3.08-5,7.22-11.71,15.63-15.47a30,30,0,0,1,11.94-2.58,82,82,0,0,1,14.44-14.87,63.81,63.81,0,0,1,16.73-10.22c6.18-2.42,10.52-2.64,26.38-3.07,19.42-.53,29.14-.79,37.33-.69,14.58.17,21.87.26,28,1.09a122.46,122.46,0,0,1,34.65,10.11,14.19,14.19,0,0,0-1.89-8.53,14.41,14.41,0,0,0-5.72-5.38,176.58,176.58,0,0,1,22.14,12.72c8.82,6,17.85,12.26,27.48,22.91a143.13,143.13,0,0,1,16.23,22.14c1.76,2.94,3.14,5.48,4.12,7.34A31.82,31.82,0,0,0,704.59,221a31.45,31.45,0,0,0-.47-8.07,53.08,53.08,0,0,1,7.31,22.34c.4,4.78.79,9.9-1.73,15.74a27.36,27.36,0,0,1-8.89,11,44.51,44.51,0,0,1,15.33,16.79,49.06,49.06,0,0,1,4.64,16c1,6.54.58,10,.27,22.8-.25,10.85-.06,12.86-.2,18.64-.49,20-4,44.24-6,56.35h0c.82,4.3,1.48,8.43,2,12.38,2-6.49,6.49-22,8.29-37.18.68-5.75.92-11.07.93-11.31C726.39,347.85,725.24,341.29,725.8,301.75ZM451.37,354.63c.06-1.15.14-2.34.23-3.55C451.5,352.29,451.43,353.47,451.37,354.63Zm5.93-33.26-.57,1.85C456.92,322.59,457.11,322,457.3,321.37Zm-1,3.46c.16-.54.32-1.08.47-1.61C456.57,323.76,456.42,324.3,456.26,324.83Zm1.35-4.48c-.11.34-.2.68-.31,1,.15-.48.3-1,.46-1.42C457.7,320.08,457.66,320.22,457.61,320.35Zm-1.35,4.48c-.26.94-.53,1.89-.78,2.87C455.72,326.76,456,325.79,456.26,324.83ZM677.9,286.18l-.5-.24Zm3.26,1.71a31,31,0,0,0-3.26-1.71,35.88,35.88,0,0,1,12.52,10.57A30.42,30.42,0,0,0,681.16,287.89Zm21.25,41.5a265.86,265.86,0,0,1,4.39,31.32,162.9,162.9,0,0,0-4.43-31.55C702.38,329.23,702.4,329.31,702.41,329.39Zm9.81,51c-.2-.83-.41-1.69-.63-2.54.15.56.29,1.13.43,1.71C712.09,379.79,712.16,380.08,712.22,380.35Z"/></g></g></g></svg>