<svg xmlns="http://www.w3.org/2000/svg" viewBox="0 0 1080 1920"><g style="isolation:isolate"><g id="hair"><g id="_35" data-name="35"><path d="M453.71,584.08c17.45-32.33,24-60.39,26.74-77.74,3.95-24.83,3.25-47.14,2.91-56.72-.43-11.77-1.42-21.68-2.33-29q5.63,13.69,11.24,27.37c-.79-11-1.53-26.27-1.36-44.42s.31-32,3.1-50.37a227.12,227.12,0,0,1,12.79-50.18,213.24,213.24,0,0,1,21.38-41.31,113.29,113.29,0,0,1,34.36-.27c11.58,1.73,14.5,4.12,29.71,6.08,9.62,1.25,17.67,2.22,27.91.53a73.24,73.24,0,0,0,22-7.4c5.24-.81,24.31-3.07,41.59,9.25,13.54,9.66,18.6,23,21.71,31.21a87.71,87.71,0,0,1,3.87,46.8c1.2,3.61,2.33,7.4,3.36,11.37a179.57,179.57,0,0,1,5.68,46.27,246.52,246.52,0,0,0,8-29.88,213.23,213.23,0,0,0,4.91-46.54c-.11-11.11-.46-30.81-8.33-54.54-3.79-11.4-8.74-25.83-21.17-40.36a97.91,97.91,0,0,0-18-16.42,40.06,40.06,0,0,0-1.29-20.09c-1.8-5.25-6.18-14.09-23.25-24.6-17.27-10.62-34.53-14.95-49.09-17.18-16.31-2.5-45.88-6.7-82.16,4.49a170.48,170.48,0,0,0-64.59,36.76c-21.58,20-31.93,40.34-40.3,56.85A245.35,245.35,0,0,0,398.23,335c-2.26,18.62-5.32,43.92,1.55,67.69a198.86,198.86,0,0,1,5.68,23.54,189.89,189.89,0,0,1,2.84,31.46q3.49-10.71,7-21.41c1.83,8.48,4.8,21.57,9,37.54,4.55,17.14,6.54,22.46,8.53,32.26a179.15,179.15,0,0,1,3.1,46,48.92,48.92,0,0,0,10.59-13,49.84,49.84,0,0,0,4.65-11.37q.44,19.8,1.55,40.45Q453.17,576.22,453.71,584.08Z" fill="#42210b"/><path d="M661,206.22a69.83,69.83,0,0,0-11.11-15.34c-23.82-24.8-59.42-23.52-59.17-25.65.13-1,8.55-1.6,20.66-.23a157.91,157.91,0,0,0-25.56-3.73c-17-.68-50.77-1.56-86.55,18.77-33.23,18.88-49.74,45.55-61,63.73-18.17,29.37-25,56.49-28.16,69.41-1.89,7.72-3.22,14.91-4.15,21.07,0,0,0,0,0,0s0,0,0,0a289,289,0,0,0,1.58,35.59c.74,7,1.71,13.72,2.84,20.09,1-7.45,2.18-15.12,3.62-23a486.88,486.88,0,0,1,13.17-54.47A680.86,680.86,0,0,0,418.64,404a279.91,279.91,0,0,0,.63,30.05,0,0,0,0,0,0,0c1.63,8.05,4.33,17.23,9.24,33.87,2.15,7.29,3.54,11.75,4.56,15q.1-8.47.28-17.06.52-24.51,1.56-48.19A236.16,236.16,0,0,0,449.06,495c-.12-4.16-.13-8.53,0-13.09.21-7.37.78-14.27,1.55-20.62a279,279,0,0,0,4.65,32.52c1.15,5.62,2,8.69,3.1,14.88a227.44,227.44,0,0,1,3.29,27,223.84,223.84,0,0,0,6.6-106q4.81,13,9.63,26c-.14-4.51-.33-9.35-.6-14.66-.07-1.43-.14-2.88-.22-4.37,0,0,0-.08,0-.12a202,202,0,0,1-10.88-64,204.87,204.87,0,0,1,24.29-97.31,222.53,222.53,0,0,0-12.73,118.43s0,0,0,0q4.68,15.61,9.36,31.22c.06-10.83.42-26.35,1.81-45,2.06-27.7,3.38-45.42,9.3-67.69,5.78-21.73,11.82-43.49,30-63.46,15.85-17.43,30.92-22.52,34.11-23.53,6.68-2.14,17.39-5.57,29.48-2.63,9.65-1.63,21-1.75,32.52,3.68a51.41,51.41,0,0,1,14.21,10.05,27.12,27.12,0,0,0-.52-13.48,26.81,26.81,0,0,0-9.3-13.49A23.17,23.17,0,0,1,641.34,216a22.4,22.4,0,0,1,3.62,5,48.46,48.46,0,0,0-10.85-18.24,47,47,0,0,0-19.89-12.43c16.56,4.46,33,12.37,39,27.24,4.93,12.12,1.62,25.53,2.68,25.71h0a.15.15,0,0,0,.09,0c1.11-.5,4.44-11.62,1.87-23.58a43.73,43.73,0,0,0-11.62-21.15A25.4,25.4,0,0,1,661,206.22Zm-112.13-3.31c-36.66,7.92-57.51,38.39-58.13,37.68s20.76-39.28,62.39-44.42c26.62-3.29,47,8.85,53.48,13.09C591.09,203.08,570.78,198.18,548.85,202.91Zm161,114.81a79.59,79.59,0,0,0-2.7-11.37c-2.58-8.15-8.41-26.57-25.6-37.8.71.44,1.42.91,2.12,1.39C704.33,284.16,708.43,308.23,709.89,317.72Zm-67.78-57a83.09,83.09,0,0,1-33.32,5.55c-8.24-.38-8.39-1.71-26.09-4.23a331.25,331.25,0,0,0-34.36-3.17c-9-.33-16.48-.21-22,0,8.49-9.48,25.45-25.5,51.16-32.79a131.63,131.63,0,0,1,14.24-3.42,39.83,39.83,0,0,1,5.65,1.83c17.65,7.2,24.56,24.39,26,28.38-2-5-6.33-13.32-14.91-19.12-21-14.19-47.89-.13-51.67,1.85A66.21,66.21,0,0,0,533.09,257a237,237,0,0,1,47,2.38c19.75,3,29.33,7.13,42.89,3.7s23.3-12.58,29.2-19.57a17.35,17.35,0,0,0,3.7-.2h0a.15.15,0,0,0,.09,0,16.8,16.8,0,0,0,4.46-1.37c6.86-3.19,9.33-9.91,9.81-11.37,0,1.24.06,9-5.94,14.55a18.34,18.34,0,0,1-10.59,4.76,19.77,19.77,0,0,1-11.63,10.84Zm35.83,5.69c1.24.67,2.42,1.37,3.55,2.11-16.17-10-33.2-8.61-39.38-7.8C648.26,259.71,663,258.27,677.94,266.38Zm40.4,139.21c8.44-42.45,6.78-76,4.13-97.31-2.8-22.46-7.09-34.48-12.4-44.42a107.75,107.75,0,0,0-36.69-39.4c1.74-4,4.13-11.23,2.33-19.3-2.12-9.48-9.14-16.11-19.38-22.48-15.14-9.4-31.7-14.7-45-17.68a157.37,157.37,0,0,1,21.2,3.93c29.16,7.54,38.74,19.41,41.59,23.54a28.49,28.49,0,0,1,3.62,27.76,89.66,89.66,0,0,1,23,20.36c11.28,14.2,15.15,28.1,19.37,43.9a220.56,220.56,0,0,1,7.23,57.38A234.74,234.74,0,0,1,718.34,405.59ZM421.8,453.11c-4.69-17-8.08-29-8.08-29l-4.38,14.28c-.33-4.36-.93-11-2.07-19A301.56,301.56,0,0,0,399,380.47c-3.47-13.44-4.39-35,8.27-69.54-.71,7.3-1.19,15.1-1.31,23.32,0,0,0,0,0,0s0,0,0,0c-1.53,10-2,17.37-2.17,19.85a215.35,215.35,0,0,0-.13,24.59,196.31,196.31,0,0,0,7.37,43c.54-3.24,1.14-6.55,1.81-9.91,1.11-5.69,2.33-11.15,3.61-16.4a166.2,166.2,0,0,0,2.33,36c.15.89.33,1.78.5,2.69a0,0,0,0,0,0,0c.39,4.6.93,9.23,1.68,14.07C421.23,449.84,421.5,451.49,421.8,453.11Zm0,0c2.95,10.74,6.42,23.5,9.88,36.52A217.61,217.61,0,0,1,421.8,453.11Zm58.58,23.08c-.6,12.19-1,20.38-2.58,30.68a206.41,206.41,0,0,1-22.22,66.37c.11-6,0-12.4-.26-19a297.11,297.11,0,0,0-3.1-31.47,99,99,0,0,1-5.17,9.52,100.5,100.5,0,0,1-7.48,10.58,108.38,108.38,0,0,0,.25-11.37,110.75,110.75,0,0,0-3.88-25.65c-1.39-5.36-2.82-10.79-4.26-16.18q.66,1.78,1.29,3.42c0-3.36.06-6.73.11-10.11,1.51,4.78,2.22,6.88,3.38,11.5a208.41,208.41,0,0,1,6,40.46,38.47,38.47,0,0,0,6.2-9.72,39.2,39.2,0,0,0,3.3-14,108.82,108.82,0,0,1,5.33,18.53,110,110,0,0,1,1.13,34.52A196.82,196.82,0,0,0,472.63,523a224.76,224.76,0,0,0,4.14-27,295.09,295.09,0,0,0,1.11-40.33c.5,1.33,1,2.65,1.47,4q-1.16-11.52-2.29-23s0-.08,0-.12c-.89-16.83-2.37-37.64-4.94-61.61q2.82,9.36,5.62,18.74s0,0,0,0c.66,4,1.38,7.68,2.13,11.12A639.81,639.81,0,0,1,480.38,476.19Z" fill="#fff" opacity="0.5" style="mix-blend-mode:overlay"/><path d="M453.77,330.76c6.73-33.4,23-58,35.14-73a221.72,221.72,0,0,0-29,74.83c-8.88,47.85,1.37,85.3,0,85.48S444.32,377.72,453.77,330.76Zm33.33,16.66a130.65,130.65,0,0,1,17.31-62.93,60.19,60.19,0,0,0-17.83,28.82A61.43,61.43,0,0,0,487.1,347.42Zm83.19-141.2a69.84,69.84,0,0,0-37.46,9.52,74.2,74.2,0,0,0-28.68,30.67,72.11,72.11,0,0,1,13.18-14.28,71.27,71.27,0,0,1,13.43-8.73,86.28,86.28,0,0,0-9.55,13.49,88.29,88.29,0,0,0-9.31,23.53c2.39-5.54,13-28.54,39.27-40.45a76.28,76.28,0,0,1,50.39-4.23A67.23,67.23,0,0,0,570.29,206.22Zm2.59-18.51c-17-3.59-31.58,4.08-37.47,7.67a67,67,0,0,1,30-4.5c17.67,1.58,30,10.47,30.49,9.52S586.51,190.58,572.88,187.71Zm-64.59,13.22a109.39,109.39,0,0,1,34.62-14.54c22.18-5,40-1.36,40.3-3.71.25-2.05-13.21-6.71-26.09-8.19-4.47-.52-8.52-.61-8.53-1.06,0-.7,9.64-1.5,18.6-2.12a85.78,85.78,0,0,0-27.64,1.59c-1.39.32-8.38,1.92-8.27,3.17.18,2,17.7,1.26,17.83,2.91.09,1.26-10.12,1.59-20.67,6.35A57,57,0,0,0,508.29,200.93Z" fill="#fff" opacity="0.5" style="mix-blend-mode:overlay"/><path d="M676.08,265.43c-13.47-6.48-26.64-5.69-32.38-5A56.6,56.6,0,0,1,676.08,265.43Zm29.34,35.72c.51,1.36,1,2.73,1.42,4.08a92.1,92.1,0,0,0-5.59-14C703.05,294.9,704.35,298.32,705.42,301.15Zm1.5,4.35c.19.58.37,1.16.54,1.75-.07-.3-.17-.6-.27-.9S707,305.79,706.92,305.5ZM709.29,348a84.17,84.17,0,0,0-1.83-40.7A88.84,88.84,0,0,1,709.29,348Zm13.63-73.32c-3.79-11.4-8.73-25.83-21.16-40.36a98.6,98.6,0,0,0-18-16.42,40.07,40.07,0,0,0-1.29-20.09c-1.8-5.25-6.18-14.1-23.25-24.6-17.28-10.63-34.52-14.95-49.09-17.18-16.31-2.5-45.88-6.69-82.16,4.49a170.57,170.57,0,0,0-64.59,36.76c-21.58,20-31.93,40.34-40.3,56.85A245.6,245.6,0,0,0,398.23,335c-2.25,18.62-5.32,43.92,1.55,67.69a198.86,198.86,0,0,1,5.68,23.54,189.89,189.89,0,0,1,2.84,31.46q3.49-10.71,7-21.41c1.83,8.48,4.8,21.57,9,37.54,4.55,17.15,6.53,22.46,8.53,32.26a179.11,179.11,0,0,1,3.1,46,49,49,0,0,0,15.24-24.32q.44,19.79,1.55,40.45c.29,5.34.61,10.62,1,15.87,17.45-32.34,24-60.39,26.74-77.74,3.95-24.84,3.25-47.14,2.91-56.72-.42-11.77-1.41-21.67-2.33-29q5.63,13.69,11.24,27.37c-.79-11.06-1.53-26.27-1.36-44.42s.31-32,3.1-50.37a227.25,227.25,0,0,1,12.79-50.18,213.54,213.54,0,0,1,21.38-41.31,113.29,113.29,0,0,1,34.36-.27c11.58,1.73,14.49,4.11,29.71,6.08,9.63,1.25,17.67,2.23,27.91.53a73.24,73.24,0,0,0,22-7.4,19.7,19.7,0,0,0,11.62-10.84,18.31,18.31,0,0,0,10.6-4.76c6-5.6,6-13.31,5.94-14.55-.5,1.46-2.95,8.18-9.82,11.37a17.5,17.5,0,0,1-8.27,1.59c-5.9,7-15.5,16.1-29.19,19.57s-23.15-.68-42.89-3.7a236.94,236.94,0,0,0-47-2.38,66.12,66.12,0,0,1,23.77-21.42c3.78-2,30.71-16,51.67-1.85,8.68,5.87,13,14.31,15,19.3-1.33-3.62-8.16-21.24-26.1-28.56-14.35-5.85-27.42-1.67-35.14.8-3.18,1-18.25,6.1-34.1,23.53-18.15,20-24.2,41.73-30,63.46-5.92,22.27-7.23,40-9.3,67.69-1.39,18.61-1.74,34.12-1.81,45l-15-50c2.8,26.15,4.3,48.54,5.16,66.1,1.18,24.06,1.12,38.58-.51,55a229.78,229.78,0,0,1-4.14,27,196,196,0,0,1-14.21,41.25,109.88,109.88,0,0,0-1.12-34.51A106.85,106.85,0,0,0,452,511.2a38.64,38.64,0,0,1-9.49,23.7,207.63,207.63,0,0,0-6-40.46c-2-7.75-2.62-8.42-7.94-26.48-5.47-18.54-8.2-27.82-9.75-36.59a165,165,0,0,1-2.33-36c-1.28,5.25-2.5,10.71-3.62,16.4-.65,3.36-1.26,6.67-1.81,9.91a196.1,196.1,0,0,1-7.36-43,215.35,215.35,0,0,1,.13-24.59,241.37,241.37,0,0,1,6.33-41c3.15-12.93,10-40,28.16-69.41,11.24-18.17,27.74-44.85,61-63.73,35.79-20.33,69.51-19.45,86.56-18.77,1.61.06,39.13,1.91,70.53,21.41,10.25,6.36,17.25,13,19.37,22.48,1.81,8.08-.58,15.29-2.32,19.3a107.75,107.75,0,0,1,36.69,39.4c5.3,9.94,9.6,22,12.4,44.42,2.65,21.28,4.3,54.86-4.14,97.31a246,246,0,0,0,8-29.88,213.23,213.23,0,0,0,4.91-46.54C731.14,318.06,730.8,298.36,722.92,274.63Zm-39.21-4.69a50.77,50.77,0,0,0-7.26-4.34c.49.26,1,.51,1.49.78,11.75,6.36,18.82,16,23.21,24.65A54.79,54.79,0,0,0,683.71,269.94Zm28.94,89.38c-1-4-2.15-7.76-3.36-11.37q4.53,28.82,9,57.64A179.57,179.57,0,0,0,712.65,359.32Z" fill="#010000"/></g></g></g></svg>