<svg xmlns="http://www.w3.org/2000/svg" viewBox="0 0 1080 1920"><g style="isolation:isolate"><g id="hair"><g id="_36" data-name="36"><path d="M440.22,408.7c-9.54-24.43-16.07-44.8-20.45-59.82-2.73-9.34-4.95-17.69-5.29-28.86a99.38,99.38,0,0,1,5.42-35.14,89.9,89.9,0,0,1,7.89-42.81,86.48,86.48,0,0,1,40-41.06c16.54-22.38,34.76-32.73,44.46-37.3,37.12-17.48,72.54-8.27,89.32-3.9A163.52,163.52,0,0,1,649.48,181a49.93,49.93,0,0,1,26.74,2.23c15.86,6.09,24.39,19.45,32.09,31.51,1.47,2.3,5.94,9.46,14.71,31,9.27,22.7,13.9,34.05,15.78,43.78,4.62,23.86-.32,43.12-7.49,71.12a300.93,300.93,0,0,1-17.11,48.8c-.23-12.06-.68-21.56-1.07-28.17-.57-9.63-.86-11-.8-16.17.1-8.72,1-10.77-.27-15.06-1.87-6.32-5.56-7.68-8.83-12.83-2.85-4.49-5.38-11.84-3.47-24.26a44.64,44.64,0,0,1-24.2-6.14,45.44,45.44,0,0,1-11.37-9.62,28,28,0,0,0,1.87,7.67,26.65,26.65,0,0,0,2.28,4.46,51.14,51.14,0,0,1-19.53-15.61c-10.41-13.72-11-28.71-11-33.61-6.78,6.29-12.41,12-16.85,16.6-5,5.24-7.69,8.33-7.75,12.68s2.62,8,4.41,9.9c-1.47.57-8.69,3.15-15.91-.69a19,19,0,0,1-6.56-5.86,12.65,12.65,0,0,1-4.94.28,14.37,14.37,0,0,1-9-5.44,19.68,19.68,0,0,1-8,4.6,19.13,19.13,0,0,1-9.5.28,16.44,16.44,0,0,0,.94,7.25,15.7,15.7,0,0,0,4.28,6.28,44.4,44.4,0,0,1-19.39-8.51,48.36,48.36,0,0,1-16.45-24.26,34.6,34.6,0,0,0,.14,20.36,32.39,32.39,0,0,0,6.28,11.15A51.67,51.67,0,0,1,516,291.16a55.68,55.68,0,0,1-14.84-27.75,49.45,49.45,0,0,0-.41,27A47.79,47.79,0,0,0,511.49,310a61.59,61.59,0,0,1-35.57-11.85,15.36,15.36,0,0,0,.54,5.58,14.64,14.64,0,0,0,1.2,2.92,45.39,45.39,0,0,1-11-4.6,46.09,46.09,0,0,1-7.49-5.44l-3.88,6.14c-.64,1.92-1.23,4-1.74,6.14a72.36,72.36,0,0,0-1.07,26.63l-9.89,13c.09,10.07-.07,20.64-.53,31.65Q441.46,395,440.22,408.7Z" fill="#42210b"/><path d="M427.65,247.51c.31,6.55.32,11.93.27,15.76-.08,5.88-.33,9.67,1.2,10.32,2.15.9,5.49-5.32,7.23-4.46,1.18.58.63,3.94-.41,14.08-.63,6.22-.84,9-.4,9.06.65.16,1.33-5.57,5.75-11.43,1.69-2.23,2.31-2.36,3.08-4,1.87-4.1.32-8.09-.14-10.87-1.82-11.1,10.27-23.72,12.31-22.73,1.12.55-1.1,5.12-1.34,13.8a56.17,56.17,0,0,0,2.54,18.13,68.75,68.75,0,0,1,1.74-14.36c2.2-9.58,6.14-17.16,6.95-16.87s-1.95,6.71-.94,16.17c.62,5.8,2.48,11.31,4.15,11.3.78,0,1.18-1.22,5.21-6.84,1.06-1.46,1.48-2,2-1.95,1.47.14,1.44,4.5,3.48,8.65a18.5,18.5,0,0,0,6.82,7.39,79.44,79.44,0,0,1,4.68-22.45,78.58,78.58,0,0,1,21.26-31.38c-1.91,5.36-6.4,20.27-.41,36.12a46,46,0,0,0,6,11,61.48,61.48,0,0,1,9.5-14.22,59.25,59.25,0,0,1,19.12-14.22,32.87,32.87,0,0,0-3,14.08,33.41,33.41,0,0,0,7,19.66,19.5,19.5,0,0,1,.67-7.81,19,19,0,0,1,3.21-6.27c.5,1.85,1.08,3.75,1.73,5.72.35,1,.71,2.07,1.07,3.06a73.66,73.66,0,0,1,2.68-12.68,72.23,72.23,0,0,1,8.69-18.55,113.23,113.23,0,0,0,2.81,20.08c.54,2.34,1.14,4.57,1.78,6.69a46.62,46.62,0,0,0,16.67-15.06,49.14,49.14,0,0,0,7.75-19.66,89.69,89.69,0,0,1,1.74,41.55A54.06,54.06,0,0,0,629,246.12a56.93,56.93,0,0,0,3.21-34.72c10.75,17.44,12.66,29.9,12.3,38.2A50.87,50.87,0,0,0,648,270.94c1.29,3.16,3.31,8.13,6,8.23,4.42.15,8.24-12.72,10-19.67a50.74,50.74,0,0,0,4.28,17.71c1.68,3.78,3.56,8,5.88,8,4-.07,6.85-13.14,7.22-14.92,1.54-7.48,3-24.37-12.17-49.22,13.9,20.41,17.65,32.56,18.32,40a31.06,31.06,0,0,0,2.14,9.76c2.94,7.23,6.72,8,12.3,15.62,6.58,8.95,7,15.58,9.76,15.33,2-.17,3.34-3.83,6-11.15a60.72,60.72,0,0,0,2.94-9.62c1.94-10.3-1.8-19.44-4.28-25.52a67.11,67.11,0,0,0-15-22.31,38.12,38.12,0,0,1,11.36,8.51,39.84,39.84,0,0,1,6,8.64,111.58,111.58,0,0,0-13.51-34.16c-5-8.29-11.91-19.41-24.87-27.33-4-2.48-11.82-7.1-22.59-7.53a40.81,40.81,0,0,0-8.56.56,63.17,63.17,0,0,1,15.78,13.1,68.07,68.07,0,0,1,15,30.82,154.67,154.67,0,0,0-15.51-22.87,151.65,151.65,0,0,0-24.47-23.84q3.75,13,7.49,26.07a91.38,91.38,0,0,0-21-25.51,87.39,87.39,0,0,0-38.78-18.69A71.93,71.93,0,0,0,554,159.53c-8.93,1.82-33.17,8.6-46,31.79a62,62,0,0,0-6.68,19,84.15,84.15,0,0,1,5.35-32.07A34.66,34.66,0,0,0,484,189.37c-11.88,13.18-8.9,30.54-8.56,32.35a19.52,19.52,0,0,1-2.54-6.56,19.81,19.81,0,0,1-.27-5.57,38.13,38.13,0,0,0-4.28,21.61,15.8,15.8,0,0,1-5.75-5.72c-4.65-8.07-.1-17.39.27-18.13a98.92,98.92,0,0,0-21.39,19A102.67,102.67,0,0,0,427.65,247.51Z" fill="#fff" opacity="0.5" style="mix-blend-mode:overlay"/><path d="M493.31,191.81a22.58,22.58,0,0,0-3,5.17,24.33,24.33,0,0,1,5.16-1.56,23.7,23.7,0,0,1,5.62-.37,39.51,39.51,0,0,0-8.33,5.65,40.52,40.52,0,0,0-6.51,7.32c.55-1.79,1.09-3.66,1.6-5.6.32-1.22.62-2.42.9-3.61a26.24,26.24,0,0,0-4.61,3.3c-2.43,2.17-4.31,4.7-4.56,4.5-.08-.07,0-.37.08-.47,3.56-8.4,7.54-12.29,7.54-12.29a35.62,35.62,0,0,1,13.54-8.21A22.12,22.12,0,0,0,493.31,191.81ZM513,190.76c-.49-.36-7.09,5.71-9.63,15.06a31.59,31.59,0,0,0-.66,13,72.28,72.28,0,0,1,3.47-13.67C509.46,196,513.38,191.06,513,190.76Zm9.5-2.79c-1.4,2.68-2.8,5.61-4.15,8.79-1.54,3.62-2.82,7.08-3.88,10.32a29.32,29.32,0,0,0,6.15-2.37,29.72,29.72,0,0,0,6-4.19,102.76,102.76,0,0,0-6.28,11.3,104.05,104.05,0,0,0-4,9.62,72,72,0,0,0,12.57-16.18,74.07,74.07,0,0,0,7-16.59q-4.38,3.41-9,6.83c-2.29,1.71-4.56,3.39-6.82,5Q521.25,194.25,522.46,188Zm12.06,16.39a100.27,100.27,0,0,1-.2,13.8c-.51,6.22-1.43,10.65-.7,10.88s2.31-3.28,3.11-5.44a24,24,0,0,0,1.1-4.08c.5,1.12,1.25,2.37,2.21,2.41s1.34-1.09,2-1c1.28.28.88,4.7,1.91,4.92s2.36-3.44,2.81-4.6c.8-2.1,1.2-3.17.7-4.08-.66-1.21-2.49-1.57-3.81-1.36-1.73.28-2.13,1.5-3.21,1.26s-1.56-1.53-2.21-3a19.67,19.67,0,0,1-1.1-3.76A18.29,18.29,0,0,0,534.52,204.36Zm16-13.18A37.61,37.61,0,0,1,556.18,207c1,9-1.85,15.17-.4,15.79s6.52-5.85,8.53-13.38a30.67,30.67,0,0,0,1-8.16,38.46,38.46,0,0,1,4.11,16.31c.16,8.74-3,14.49-1.7,15.17s7.37-5.43,10.23-13.6c2.25-6.45,1.83-12,3.31-12.13,1.23-.13,2.57,3.63,3.1,5.13,2.23,6.24,1.54,11.15,1.91,11.19.53.05,3-9.59,2.61-22.8-.32-12.06-2.78-21.41-3.31-21.34-.3,0-.44,5.78-.7,17.26,0,1.67-.12,5-.81,5.12s-1.27-2.43-3.71-7c-1.76-3.32-2.14-3.36-2.3-3.35-1.79.15-2.72,9.81-3.21,14.95-.35,3.66-.45,6.26-.86,6.28-.64,0-.53-6.41-3.76-13.49-2-4.34-5.32-9.15-6.92-8.58-1.2.44-.54,3.66-1.6,11.19-.14,1-1.18,8.3-2.11,8.26-.76,0-.22-5-2.5-10.24A21.68,21.68,0,0,0,550.47,191.18Zm48.87,3.42a148.28,148.28,0,0,1,4.35,21.26c1.15,8.94,1.21,15.72,2.47,15.83,1.43.12,3.35-8.49,3.81-10.53,1.83-8.2,1.33-12.3,2.74-12.62,2.1-.48,5.62,8.05,6.15,9.34,2.64,6.39,3,11,3.68,10.88s1.14-4.66.93-8.72c-.22-4.6-1.19-7.2-.6-7.46s2.61,2.61,3.88,5.37a30.9,30.9,0,0,1,2.21,7.67c.17,0,.23-6.15-2.21-13.32-1.8-5.3-4.52-9.81-5.15-9.55s1.29,6.17.4,6.56c-.49.21-1.5-1.46-3.74-4.53-3.36-4.61-5-6.91-6.08-6.7-1.31.27-1.92,3.56-3.08,10.11-.78,4.43-1,6.68-1.4,6.69-.72,0-.57-5.75-3.21-12.06A30.57,30.57,0,0,0,599.34,194.6Zm30.89,1.88a69.76,69.76,0,0,1,10,19.8,71.09,71.09,0,0,1,3.2,17.08,33.84,33.84,0,0,0-.46-20.5A32.28,32.28,0,0,0,630.23,196.48ZM656.57,211a82.41,82.41,0,0,1-5.75-7.95,22.4,22.4,0,0,0,9.63,6,39.37,39.37,0,0,0-2.68-6.42A40.71,40.71,0,0,0,643.06,187a41.93,41.93,0,0,1,9,9.62,42.91,42.91,0,0,1,3.75,6.83,23.3,23.3,0,0,1-4-2.09,24.45,24.45,0,0,1-5.34-4.74,29.6,29.6,0,0,0,4.28,10.32c4.29,6.47,10.29,9.81,10.56,9.48S659.62,214.71,656.57,211Zm25.27-10.18a94.62,94.62,0,0,1,20.59,24.26c-2.81-7.63-8.13-18.39-18.45-26.77-10-8.13-21.35-11.26-21.66-10.6S671.51,192.21,681.84,200.8Z" fill="#fff" opacity="0.6" style="mix-blend-mode:overlay"/><path d="M738.8,289.48c-1.88-9.73-6.52-21.09-15.78-43.78-8.77-21.5-13.23-28.65-14.71-31-7.69-12.06-16.23-25.42-32.09-31.51A50,50,0,0,0,649.48,181a163.65,163.65,0,0,0-47.87-21.19c-16.78-4.37-52.2-13.58-89.32,3.9-9.7,4.57-27.92,14.92-44.46,37.3a86.39,86.39,0,0,0-40,41.06,89.92,89.92,0,0,0-7.89,42.81A99.56,99.56,0,0,0,414.48,320c.34,11.17,2.56,19.52,5.29,28.86,4.39,15,10.9,35.39,20.45,59.82q1.23-13.68,1.88-28.58.69-16.53.53-31.65l9.89-13a72.36,72.36,0,0,1,1.07-26.63c.52-2.18,1.1-4.22,1.74-6.14l3.88-6.14A45.66,45.66,0,0,0,466.7,302a45,45,0,0,0,11,4.6,14.64,14.64,0,0,1-1.2-2.92,15.36,15.36,0,0,1-.54-5.58A61.59,61.59,0,0,0,511.49,310a47.86,47.86,0,0,1-10.7-19.52,49.54,49.54,0,0,1,.41-27A55.68,55.68,0,0,0,516,291.16a51.72,51.72,0,0,0,23.53,13.52,32.65,32.65,0,0,1-6.28-11.15,34.69,34.69,0,0,1-.14-20.36,48.4,48.4,0,0,0,16.45,24.26A44.28,44.28,0,0,0,569,305.94a15.7,15.7,0,0,1-4.28-6.28,16.42,16.42,0,0,1-.94-7.25,19,19,0,0,0,9.5-.28,19.72,19.72,0,0,0,8-4.6,14.33,14.33,0,0,0,9,5.44,12.65,12.65,0,0,0,4.94-.28,19.17,19.17,0,0,0,6.56,5.86c7.22,3.84,14.44,1.25,15.91.69-1.8-1.91-4.48-5.46-4.41-9.9s2.74-7.43,7.75-12.68c4.44-4.64,10.07-10.31,16.85-16.6,0,4.89.56,19.9,11,33.61a51.07,51.07,0,0,0,19.53,15.61,26.65,26.65,0,0,1-2.28-4.46,28,28,0,0,1-1.87-7.67,44.38,44.38,0,0,0,35.57,15.76c-1.91,12.42.62,19.78,3.47,24.26,3.28,5.15,7,6.51,8.83,12.83,1.27,4.29.37,6.33.27,15.06-.06,5.22.23,6.54.8,16.17.39,6.62.85,16.11,1.07,28.17a300.93,300.93,0,0,0,17.11-48.8C738.49,332.6,743.43,313.34,738.8,289.48ZM732.25,334a204.81,204.81,0,0,1-14.58,54.38c-.1-8.44-.43-20.78-1.6-32.34a33.13,33.13,0,0,0-1.6-8.09c-2.7-7.76-7.05-9.67-9.5-15.06-1.58-3.46-2.67-9,.14-17.85a35.86,35.86,0,0,0,13.9,8.79,53.47,53.47,0,0,1-15.51-15.9c-4-6.45-5.36-12-12.3-24-1.81-3.13-3.37-5.63-4.41-7.25a81.16,81.16,0,0,0-2.41-22.73,87,87,0,0,0-6.28-16.74,90.27,90.27,0,0,0-11.5-17.7,112.39,112.39,0,0,1,12.83,33.88c2.42,12.33,3.64,18.5,3.21,26.49a46.63,46.63,0,0,0,.8,13,28.24,28.24,0,0,0,5.09,11.71,23.57,23.57,0,0,0,2.51,2.8,32.91,32.91,0,0,1-25.38-16.74,33.07,33.07,0,0,1-3.61-11.16,32.57,32.57,0,0,0-3.21,12,31.83,31.83,0,0,0,.14,5.71,50.29,50.29,0,0,1-9.63-11.57c-5.48-9.08-6.83-17.85-7.89-25.24a94.29,94.29,0,0,1-.94-14.92,23.13,23.13,0,0,1-4.14,8.65,22,22,0,0,1-4.28,4.18,35.22,35.22,0,0,0,2.54-9.76,36.12,36.12,0,0,0,0-8,42.14,42.14,0,0,1-3.74,14.08c-1.9,4.05-5,7.91-11.1,15.48-6.7,8.3-9.15,10.63-10.3,15.62a23,23,0,0,0-.13,9.34c-8.61-.93-12.19-5-13.37-6.55-1.35-1.79-2.58-4.33-3.75-16.87-.59-6.37-.83-11.62-.93-15.2a56.68,56.68,0,0,0,.93,32.21,10.21,10.21,0,0,1-8.15-2.51,11,11,0,0,1-3.35-6.7,13.47,13.47,0,0,1-5.21,7.39,12.91,12.91,0,0,1-11.1,1.4,34.89,34.89,0,0,1,.67-8.09,34.39,34.39,0,0,1,3.48-9.62A31.87,31.87,0,0,0,560,284.6a33,33,0,0,0-1.07,13,48,48,0,0,1-15.78-15.2,49.92,49.92,0,0,1-6.68-15.75,40.67,40.67,0,0,1,2.54-7.95A39.9,39.9,0,0,1,547.86,246a53,53,0,0,0-15.78,19.24,55.7,55.7,0,0,0-5.35,27.47,49.7,49.7,0,0,1-17.11-18.41A51.68,51.68,0,0,1,503.74,255L510,236.22a62.27,62.27,0,0,0-9.89,66.37,42.17,42.17,0,0,1-18.86-5.72c-4.61-2.75-6-4.88-6.68-6.55-1.86-4.47-.24-9,.44-10.68a39.06,39.06,0,0,0-3.38,10.4,40.29,40.29,0,0,0-.54,9.34,25.34,25.34,0,0,1-11.77-9.62c-3.25-5.12-3.9-10.7-4.94-19.8-.45-3.84-.61-7.07-.67-9.34a60.63,60.63,0,0,0-2.68,17.85,61.34,61.34,0,0,0,1.74,14.5,57.85,57.85,0,0,1-9.36,15.34,55.72,55.72,0,0,1-15.24,12.55,55.66,55.66,0,0,0,21.39-11.72c.67,2.83,3.09,14-.26,22a51.23,51.23,0,0,1-2.55,5,50.33,50.33,0,0,1-6.15,8.22c-3.17,3.95-2.78,8.91-2.27,20.22.81,18,1.2,27,.13,27.26-1.61.38-5.9-12.63-8.29-21.26-2-7.24-1.66-7.82-4.54-20.78-2-9.18-3.72-18.45-5.88-27.61-1.23-5.2-2.52-10.33-.54-16.17a21,21,0,0,1,4.28-7.25,133.63,133.63,0,0,1,1.6-29.29c1.31-7.83,2.45-14.67,6.29-23,1.87-4.07,6.36-13.82,15.51-21.9,3.35-3,7.81-6.11,15.11-13.24,1.83-1.78,3.29-3.29,4.28-4.32-.81,2.55-1.61,5.11-2.41,7.66a122.72,122.72,0,0,1,14.71-18.68,117.23,117.23,0,0,1,54.82-32.49,114.65,114.65,0,0,1,27.41-3.21,148.24,148.24,0,0,1,46.93,7.26c9.82,3.14,22.87,7.44,37.31,18a116.79,116.79,0,0,1,19.12,17.57,168.7,168.7,0,0,0-8.69-14.78q-1.68-2.52-3.34-4.88c10,1.48,24.68,5.5,37.44,17,7.57,6.85,12.36,14.42,15.24,19s4.73,8.26,12.7,26.77c7.29,16.94,10.93,25.41,11.77,28.44,3.88,14.05,4.13,25.87,4.28,35A180.4,180.4,0,0,1,732.25,334ZM691,307.34l.23,0,.06.24Zm.23,0c-.44-1.56-1.06-3.84-1.81-6.59-1.63-6-2.22-8.35-2.27-11.58a29.14,29.14,0,0,1,.13-3.34,61,61,0,0,0,3.88,10.6,59.25,59.25,0,0,0,6.69,10.87A33.12,33.12,0,0,1,691.27,307.37Z" fill="#030202"/></g></g></g></svg>