<svg xmlns="http://www.w3.org/2000/svg" viewBox="0 0 1080 1920"><g style="isolation:isolate"><g id="hair"><g id="_37" data-name="37"><path d="M441.15,415.55c-8.89-24.34-11.42-44.06-12-57.92-.49-11.31.23-20.92-1.25-42.77-1.1-16.34-1.65-24.51-2.27-27.63-1.8-8.92-4-14.66-2.28-22.51a32.1,32.1,0,0,1,7.45-14.12A25,25,0,0,1,424.37,222a21.1,21.1,0,0,0,10.36,10.84,19.29,19.29,0,0,0,6.42,1.64,50.69,50.69,0,0,1-3.31-24.56,56.77,56.77,0,0,1,6.42-19.44,71.43,71.43,0,0,1,8.49-13.1l2.9,12.28a108.2,108.2,0,0,1,20.5-22.31A109.35,109.35,0,0,1,506,149.91q-5.89,8.51-11.8,17.6-4,6.09-7.67,12.07a180.94,180.94,0,0,1,84.09-44.41l-16.16,14.74a349.45,349.45,0,0,0,39.77-10.85c10.35-3.49,19.89-7.25,28.58-11.05L611,150.52a73.6,73.6,0,0,0,32.93-29.06,40.76,40.76,0,0,1-1.24,32.13A29.11,29.11,0,0,0,658,133.33a63.68,63.68,0,0,1,7.87,20.87,62.79,62.79,0,0,1,1,11.26,16.87,16.87,0,0,0,3.1-8.39,69.65,69.65,0,0,0-.41-10.85c-.17-1.43-.27-1.87,0-2,1.5-1,10.49,8.8,16.77,18.83a86.61,86.61,0,0,1,6.84,13.3q-.62-5.62-1.24-11.26a35.73,35.73,0,0,1,13.25,15.76,35.12,35.12,0,0,1,2.49,18,48.75,48.75,0,0,0,2.69-28c3.61,4.16,14.91,18.23,14.5,38.27a53.76,53.76,0,0,1-4.77,20.88,34.93,34.93,0,0,0,9.11-3.07,35.5,35.5,0,0,0,13-11.26c.38,4.28.68,14.89-6,25a37.08,37.08,0,0,1-7.46,8.19,68.65,68.65,0,0,1,4.76,16c2.07,12.24.14,21.48-1,28.86-.86,5.42.33-.48-2.07,42.77-2.05,37-3.08,44.09-4.35,50.75A211.63,211.63,0,0,1,718.46,416a236.52,236.52,0,0,1-1.66-38.27c.21-5,.72-12.39-2.07-21.49a53.79,53.79,0,0,0-7-14.53,251.07,251.07,0,0,0-5.6-36.63,70.72,70.72,0,0,0-6.62-18.42c-3.29-6.16-6.59-12.16-13.46-15.35-4.41-2-8.35-2-12.43-2-9.08,0-10.88,2.68-22,4.71-6.25,1.15-14.61,2.59-24.23,0a43.23,43.23,0,0,1-9.94-4.09,78.6,78.6,0,0,1-18.64,7.36,85.74,85.74,0,0,1-31.07,1.64c-15.42-1.86-16-5.75-36-9.62-9.5-1.83-16.69-3.16-26.31-2.45-8.48.62-19.44,1.42-29.2,8.59-11.79,8.67-15.24,21.8-18.43,34a96.13,96.13,0,0,0-2.9,30.7,44.13,44.13,0,0,0-4.55,9,47.77,47.77,0,0,0-2.49,21.08C444.52,378.94,444.28,392.7,441.15,415.55Z" fill="#42210b"/><path d="M426.65,237.55a31.11,31.11,0,0,1-1.45-13.1,37.41,37.41,0,0,0,7.46,6.75,38,38,0,0,0,8.28,4.3A95,95,0,0,0,451.5,241,93.85,93.85,0,0,0,467,246.35a51.17,51.17,0,0,1-36.45-1A30.48,30.48,0,0,1,426.65,237.55Zm12.7-24.07a40,40,0,0,0,12.15,15.27,40.73,40.73,0,0,0,19.89,8,89.52,89.52,0,0,1,15.32-17.6,92.36,92.36,0,0,1,33.55-18.83A73.53,73.53,0,0,0,502,220a71.33,71.33,0,0,0-5.6,10.84,111.72,111.72,0,0,1,38.32-17.6,184.19,184.19,0,0,0-37.9,35.41,53,53,0,0,0,35.62-6.55c-3.33,2.77-7,5.59-11,8.39q-2.94,2.06-5.8,3.89a110.24,110.24,0,0,0,56.34-34,62.55,62.55,0,0,1-14.71,24.55,92,92,0,0,0,32.31-10.43,90.71,90.71,0,0,0,18.85-13.72,111.12,111.12,0,0,1-8.08,15.76c-1.64,2.66-3.32,5.11-5,7.37a84.21,84.21,0,0,0,29.2-18.42,81.58,81.58,0,0,0,12.22-15.14,33.38,33.38,0,0,1-5.39,19.85,98.25,98.25,0,0,0,28-86.78l-1.24-4.91a28.55,28.55,0,0,1-11,13.71,26.94,26.94,0,0,1-6.62,3.07,73.29,73.29,0,0,1-35.42,14.13l5-6.55a41.81,41.81,0,0,1-25.26,3.89,165.94,165.94,0,0,0,13-11.47,162.3,162.3,0,0,0,17-19.44q-15.69,3.73-32.1,8.19-13.93,3.78-27.13,7.78a51.94,51.94,0,0,0-19.47,13.3,48.88,48.88,0,0,0-3.32,4.09,26.81,26.81,0,0,1,4.77-9.62c4.14-5.24,8.36-6.25,14.08-10.84a46.38,46.38,0,0,0,10.36-11.87,180.41,180.41,0,0,0-51.78,24.35,178.21,178.21,0,0,0-32.93,29.06,104.49,104.49,0,0,1,22.16-37c-7.61,2.94-25.08,11-36,29.47a64.07,64.07,0,0,0-6.77,16.1,29.47,29.47,0,0,1-4-9.14,28.71,28.71,0,0,1-.83-7.78,43.49,43.49,0,0,0-11.19,19.24A42,42,0,0,0,439.35,213.48Zm227.26-46.27a83.68,83.68,0,0,1,14.5,46.8,230.57,230.57,0,0,0,9.66-22.24c2-5.3,3.67-10.41,5.11-15.28q-4.27-5-8.7-10.1-7.12-8.17-14.22-16a22.93,22.93,0,0,1-6.35,16.78Zm39.63,34.25a83,83,0,0,1-18.37,21,84.26,84.26,0,0,1-31.34,16c4.61.91,28.25,5.09,48.74-9.82a57.6,57.6,0,0,0,17.53-20.87,38.92,38.92,0,0,0-2.48-20.47,38.32,38.32,0,0,0-6.08-10,22.91,22.91,0,0,1-8,24.15Z" fill="#fff" opacity="0.5" style="mix-blend-mode:overlay"/><path d="M475.53,223.22a49.3,49.3,0,0,1,7.25-23.13,50.67,50.67,0,0,1,23-19.64,145.44,145.44,0,0,0-20.29,24.76A143.25,143.25,0,0,0,475.53,223.22ZM537,201.94a175.37,175.37,0,0,1,36-10.44,64.27,64.27,0,0,0-35,3.27,63.48,63.48,0,0,0-27.34,20.67A174.52,174.52,0,0,1,537,201.94Zm.2-27.22c3.25-2.37,12.93-9.44,13.88-8.39s-7.62,9.07-6.63,10.23,10.88-5.89,20.71-12.08a288.11,288.11,0,0,1,32.52-17.6,85.4,85.4,0,0,0-37.9,14.33l11-9.82a67.09,67.09,0,0,0-26.09,11.46,66.19,66.19,0,0,0-18.43,20.46C528.74,181.23,532.49,178.19,537.24,174.72Zm95.06,0c1.44-.89,6.78-4.27,8.29-2.87.66.62.42,2,0,4.5-.61,3.53-1.67,5.15-.83,6.14a2.62,2.62,0,0,0,2.07.62c3.87,0,6.08-3.78,7-3.28,1.16.61-.93,6.7-1.86,9.42-5.37,15.63-5.88,17.25-5.6,17.39.62.32,5.6-6.39,9.12-15.35s5.21-19.41,3.1-20.26c-1.73-.69-5.44,5.22-6.21,4.71s1.89-4.78,3.52-9a41.73,41.73,0,0,0,2.49-18.22,105.06,105.06,0,0,1-15.95,18.22,106.69,106.69,0,0,1-30.86,19.44C619.09,182.08,627.12,177.93,632.3,174.72Zm-7.38,45.84a42,42,0,0,0,7.87-20.87,92.87,92.87,0,0,1-26,35.06A42.8,42.8,0,0,0,624.92,220.56Zm58.12,13a40.52,40.52,0,0,0,19.88-8.73,39.57,39.57,0,0,0,12-16.92A151.83,151.83,0,0,1,683,233.52Z" fill="#fff" opacity="0.6" style="mix-blend-mode:overlay"/><path d="M441.29,412.57c-.05.32-.1.65-.14,1-.08-.21-.16-.43-.23-.64C441.05,412.91,441.17,412.79,441.29,412.57Zm2.44-23.6a167.15,167.15,0,0,0,.32-17.33C444.05,372.56,444.07,381.07,443.73,389Zm1-36.41c-.17.72-.3,1.41-.41,2.05C444.4,353.94,444.54,353.26,444.69,352.56Zm.87-3.21c-.37,1.14-.65,2.21-.87,3.21C444.93,351.52,445.21,350.45,445.56,349.35Zm8.22-42c1.8-6.84,3.67-14,7.05-20.47-8.38,13.78-9.44,28-9.94,38.05A96,96,0,0,1,453.78,307.33Zm231.54-40.52a29.84,29.84,0,0,0-13.46-4.7c-7.61-.89-8.73,1.69-25.68,4.5-7.61,1.26-12.62,1.61-18.43.41a39.31,39.31,0,0,1-7.25-2.25,62.82,62.82,0,0,0,5.8-6.14,60.55,60.55,0,0,0,5.17-7.37,133.17,133.17,0,0,1-16.2,10.27c-4.75,2.54-13,7-22.11,9.38-13.42,3.52-24.39,1.44-41.63-1.85-17.9-3.41-18.77-6.06-33.13-7.57-12.06-1.27-20.89-2.2-31.07,1.64a48.91,48.91,0,0,0-20.22,14.77,35.64,35.64,0,0,1,5.1-4.54c9.76-7.16,20.73-8,29.2-8.59,9.61-.71,16.8.62,26.31,2.45,20.06,3.87,20.6,7.76,36,9.62a86,86,0,0,0,31.07-1.64,78.6,78.6,0,0,0,18.64-7.36,42.16,42.16,0,0,0,9.94,4.09c9.63,2.59,18,1.15,24.23,0,11.07-2,12.86-4.71,22-4.71,4.08,0,8,0,12.43,2,6.86,3.19,10.18,9.2,13.46,15.35q1.54,2.92,2.67,5.64c0-.05,0-.08,0-.13C697.81,287.39,696.25,274.18,685.32,266.81Zm22.37,72.86a174.12,174.12,0,0,0-5.37-35.61A252.6,252.6,0,0,1,707.69,339.67ZM716.3,361a67.26,67.26,0,0,1,.5,14.71,224.31,224.31,0,0,0,.48,26.15A94.7,94.7,0,0,0,716.3,361Zm20-122.41c6.68-10.07,6.38-20.69,6-25a35.67,35.67,0,0,1-13,11.26,35.31,35.31,0,0,1-9.11,3.07,53.8,53.8,0,0,0,4.77-20.88c.41-20-10.89-34.12-14.5-38.27a48.75,48.75,0,0,1-2.69,28,35,35,0,0,0-2.49-18A35.67,35.67,0,0,0,692,163.05l1.24,11.26a87.07,87.07,0,0,0-6.84-13.3c-6.29-10-15.27-19.81-16.77-18.83-.26.17-.17.61,0,2a69.74,69.74,0,0,1,.41,10.85,16.77,16.77,0,0,1-3.1,8.39,61.8,61.8,0,0,0-1-11.26A63.24,63.24,0,0,0,658,131.33a29.11,29.11,0,0,1-15.32,20.26,40.76,40.76,0,0,0,1.24-32.13A73.6,73.6,0,0,1,611,148.52L622.78,126c-8.69,3.81-18.23,7.56-28.58,11a350,350,0,0,1-39.77,10.85l16.16-14.74a180.94,180.94,0,0,0-84.09,44.41q3.72-6,7.67-12.07,5.9-9.09,11.8-17.6a109.35,109.35,0,0,0-29.82,17.39,108,108,0,0,0-20.5,22.31q-1.45-6.13-2.9-12.28a71.43,71.43,0,0,0-8.49,13.1,56.77,56.77,0,0,0-6.42,19.44,50.45,50.45,0,0,0,3.31,24.56,19.73,19.73,0,0,1-6.42-1.64A21.1,21.1,0,0,1,424.37,220a25.74,25.74,0,0,0-.82,17.6,25.41,25.41,0,0,0,7.24,11,32.16,32.16,0,0,0-7.45,14.12c-1.76,7.86.48,13.59,2.28,22.51.62,3.12,1.17,11.29,2.27,27.63,1.48,21.85.76,31.46,1.25,42.77A189.38,189.38,0,0,0,439.56,409c-1.11-6-2.15-17.8-2.86-26-.67-7.56-1.67-20.23-3.21-57.72-.4-9.39-1.07-26.63-1.87-39.29-.73-11.79-1.11-17.69-1.24-18.21-.69-2.79-1.57-5.29-.62-8.19,1.32-4.07,5.44-6.42,8.7-7.78A47.32,47.32,0,0,1,426,226.29a23,23,0,0,0,13.25,10.44,22.52,22.52,0,0,0,12,0,37.25,37.25,0,0,1-7.67-15.35,39.05,39.05,0,0,1,.42-18.22,40.12,40.12,0,0,1,5.8-12.68,16.86,16.86,0,0,0,1.86,9.21,16.54,16.54,0,0,0,2.69,3.68,110.05,110.05,0,0,1,9.32-15.76,112.26,112.26,0,0,1,25.06-25.38,68.06,68.06,0,0,0-13.87,24.36,65.46,65.46,0,0,0-2.9,14.94,186.41,186.41,0,0,1,80.77-60.38,30.39,30.39,0,0,0-9.74,9,29.57,29.57,0,0,0-3.93,8.18c12-3.71,22-6.28,29-8,9.1-2.19,14-3.08,22.16-5.52a191.64,191.64,0,0,0,21.75-8c-1.9,3.47-4,7.1-6.42,10.84-2.16,3.37-4.31,6.51-6.42,9.42A66.23,66.23,0,0,0,623,149.34a64.61,64.61,0,0,0,15.74-12.28,32,32,0,0,1-6.42,23.54,35.14,35.14,0,0,0,15.12-5.12,34.26,34.26,0,0,0,9.94-9.41,66.14,66.14,0,0,1,5,29.06,45.51,45.51,0,0,0,13.26-19.45,88.22,88.22,0,0,1,8.49,10.85,86.2,86.2,0,0,1,8.69,17,11.63,11.63,0,0,0,5-8.8,47.88,47.88,0,0,1,4.55,13.5,48.66,48.66,0,0,1-1.24,22.11,26.28,26.28,0,0,0,13.05-11.67,25.41,25.41,0,0,0,2.9-13.3,63.61,63.61,0,0,1,2.07,31.31,62.68,62.68,0,0,1-6.22,17.6,33,33,0,0,0,14.29-2.86,32.36,32.36,0,0,0,9.12-6.14,26.37,26.37,0,0,1-5.6,12.69,26.81,26.81,0,0,1-11.39,8.18A37.49,37.49,0,0,1,729,261.29c2.68,8.24,1.17,14.54-.42,27-.31,2.42-1,11.71-2.48,30.29-1.61,20.68-.63,24.09-1.66,38.48a264.53,264.53,0,0,1-7.18,44.77h0q.42,5.67,1.18,12.11a211.63,211.63,0,0,0,7.66-28.86c1.28-6.66,2.3-13.76,4.35-50.75,2.39-43.25,1.21-37.35,2.07-42.77,1.17-7.37,3.1-16.63,1-28.86a68.16,68.16,0,0,0-4.76-16A37.08,37.08,0,0,0,736.27,238.57ZM440.92,412.91c-.47-1.3-.93-2.59-1.36-3.87C440,411.43,440.47,412.91,440.92,412.91Zm2.78-23.47c-.43,6.43-1.19,14.05-2.41,23.13C442.71,409.94,443.55,392.79,443.7,389.44Zm.14-21.32c.08,1.07.15,2.21.21,3.44-.06-10-.46-11.79,0-15.46A52,52,0,0,0,443.84,368.12ZM446,347.9a48.39,48.39,0,0,1,4.85-9.87,44.4,44.4,0,0,0-4.55,9C446.22,347.32,446.12,347.62,446,347.9Zm4.78-21.52a98,98,0,0,0,.07,11.65A105.84,105.84,0,0,1,450.81,326.38ZM467.06,278a40.2,40.2,0,0,0-6.18,8.83A72.11,72.11,0,0,1,467.06,278Zm231.08,12.3c1.49,4.3,2.92,8.89,4.18,13.78-.08-.34-.15-.67-.23-1A77.34,77.34,0,0,0,698.14,290.26Zm16.59,63.94a54.09,54.09,0,0,0-7-14.53,86.51,86.51,0,0,1,5.68,12A82.34,82.34,0,0,1,716.3,361,48.77,48.77,0,0,0,714.73,354.2Z" fill="#030202"/></g></g></g></svg>