<svg xmlns="http://www.w3.org/2000/svg" viewBox="0 0 1080 1920"><g style="isolation:isolate"><g id="hair"><g id="_38" data-name="38"><path d="M441.89,394.39c0,.14-.75,2.68-2.93,3.28a4.15,4.15,0,0,1-5.06-3.33,3.71,3.71,0,0,1,.37-2.13,4.29,4.29,0,0,1,2.16-2.1,4.18,4.18,0,0,1,3.94.59h0a.6.6,0,0,1,.05-.16,3.47,3.47,0,0,1,.24-.59,2.26,2.26,0,0,1,.16-.26,2.88,2.88,0,0,1,2-1.32,2.51,2.51,0,0,1,1,0,2.92,2.92,0,0,1,2.22,2.14C446.25,392.05,444.67,394.14,441.89,394.39ZM446,376.56c-.23-1.05-2.28-1.69-3.86-1.13a3.78,3.78,0,0,0-1.77,1.38,3.9,3.9,0,0,0-.65-.49,5,5,0,0,0-4.09-.74,5.56,5.56,0,0,0-3.32,3.06,3.94,3.94,0,0,0-.19,2.86c.77,2.36,3.84,3.29,6,2.38A5.41,5.41,0,0,0,441,380.6a7.34,7.34,0,0,0,3.25-1.5C444.92,378.56,446.21,377.49,446,376.56Zm.38-15.17c-.19-.92-1.44-1.65-2.91-1.86a5.62,5.62,0,0,0-2.83.32,4.62,4.62,0,0,0-1.48,1,5.08,5.08,0,0,0-.72.82c-.05.07-.11.14-.15.21a6,6,0,0,0-5.63-.17,6.32,6.32,0,0,0-2.22,2.17,3.36,3.36,0,0,0-.42,1.54c0,2.68,3.53,5.46,6.45,4.48a5.55,5.55,0,0,0,3.33-4.45,6,6,0,0,0,3.94-.66C444.82,364.18,446.65,362.68,446.39,361.39Zm.36-16.79c-.41-.25-.75-.41-.88-.48a7.33,7.33,0,0,0-5.63-.17,7.33,7.33,0,0,0-4.86-3.33,7.44,7.44,0,0,0-7.61,5.2,5.06,5.06,0,0,0-.14,1.6,6.42,6.42,0,0,0,5.17,5.44,6.49,6.49,0,0,0,6.5-2.79,7.15,7.15,0,0,0,4.55,1c2.17-.29,5-1.82,5-3.72C448.85,346.13,447.64,345.16,446.75,344.6Zm4.95-13.47a6.14,6.14,0,0,0-.72-1.21,7.4,7.4,0,0,0-6.91-2.42,10.47,10.47,0,0,0-2.7-5.25c-.78-.78-3.43-3.48-6.74-2.58-2.62.71-4.29,3.33-4.69,5.83,0,.23-.07.46-.09.71a7.62,7.62,0,0,0,2.31,6.11,7.15,7.15,0,0,0,9.38-.17,7.91,7.91,0,0,0,2.89,3.88c1.91,1.29,5.28,2.16,6.91.26C452.53,334.91,452.32,332.6,451.7,331.13Zm3.67-20.06a9.17,9.17,0,0,0-1.26-1.76,8.17,8.17,0,0,0-7.42-2.16,9.22,9.22,0,0,0-.05-4.82,5.62,5.62,0,0,0-.79-1.59v0c-2.4-3.36-8.32-3.77-10.75-.22a6.2,6.2,0,0,0-1,3.14,7.8,7.8,0,0,0,2.48,6.33c2.92,2.56,6.71,1.19,6.92,1.1a9,9,0,0,0,2.31,5.25c2.91,3,8.44,3.59,10.17,1C457,315.71,456.54,313.14,455.37,311.07ZM467,296a29.74,29.74,0,0,0-3.47-5.16,21.45,21.45,0,0,0-2.29-2.3,9.7,9.7,0,0,0,.07-3.47s0-.06,0-.08a9.35,9.35,0,0,0-1-2.93,10.5,10.5,0,0,0-2.28-2.87,28.12,28.12,0,0,0,.57-2.76,33.72,33.72,0,0,0,.45-6.3c-.05-2.62-.09-4-.92-4.73-.07-.06-.13-.13-.21-.19-2.52-1.86-9.25.62-10.81,5.22a5.71,5.71,0,0,0-.31,1.23,6.31,6.31,0,0,0,.34,3.3,4.46,4.46,0,0,0,.28.58,6.22,6.22,0,0,0,3.4,2.86,7.94,7.94,0,0,0-4.17,6.26,7.21,7.21,0,0,0,9.4,7.61,9.92,9.92,0,0,0,1.42,4.83c2.74,4.42,9.14,5.76,10.5,3.93C468.68,300,468.09,298.05,467,296Zm22.77-61.48a14.65,14.65,0,0,0-2.09-.62,13,13,0,0,0-14.26,5.79c-3.17,5.49-.88,11.72-.6,12.44a12.58,12.58,0,0,0-6.15,9.52,10.94,10.94,0,0,0,0,1.71,12.74,12.74,0,0,0,2.45,6.94,10.71,10.71,0,0,0,1.72,2,11.79,11.79,0,0,0-.64,3.67,9.43,9.43,0,0,0,.59,3.5c1.52,4.07,5.94,7,8,5.83,1.75-1,1.64-4.64,1.51-9a38,38,0,0,0-1-7.78,22,22,0,0,0,1.93-5.49,23.06,23.06,0,0,0,0-9.27,41.73,41.73,0,0,0,2.45-3.49A46.15,46.15,0,0,0,489.79,234.49Zm33.57-18.3A10.24,10.24,0,0,0,515.9,214c-4.79.61-8.81,4.92-9.6,10.61a13.61,13.61,0,0,0-7.46,5.95,15.39,15.39,0,0,0-1.79,10.65,16,16,0,0,0-6.94,9.53,16.75,16.75,0,0,0,.16,8.63,17.67,17.67,0,0,0-2.46,10.27v0c0,.43.09.87.17,1.31.94,5.29,4.79,10.61,7.29,10.06.44-.1,1.66-.57,3.78-9.19a113.55,113.55,0,0,0,2.28-12.13,21.9,21.9,0,0,0,5.36-8.89,23,23,0,0,0,1-7.16,24.28,24.28,0,0,0,5.77-6.58,25.73,25.73,0,0,0,3.11-7.92,17.31,17.31,0,0,0,5.39-4.35,19,19,0,0,0,3.51-6.56A12.8,12.8,0,0,0,523.36,216.19Zm64.21-16.54a3.11,3.11,0,0,0-2.1-1.92,12.8,12.8,0,0,0-5.22-.76A13,13,0,0,0,572,201a13.51,13.51,0,0,0-9.69-2.35,14.25,14.25,0,0,0-9.14,5.75,11.26,11.26,0,0,0-9.36,2.07,12.77,12.77,0,0,0-4.49,8,13.62,13.62,0,0,0-8.74,5.86,14.77,14.77,0,0,0-2.32,7.28,11.44,11.44,0,0,0-7.56,5.21A12.92,12.92,0,0,0,519,241a18.47,18.47,0,0,0-6.25,8.89,19.49,19.49,0,0,0-.83,8.22,18.34,18.34,0,0,0-1.61,9.17c0,.31.07.65.12,1,.43,3.1,1.72,7.93,4.29,8.44,3.18.62,7.5-5.52,8.21-11.33a15.16,15.16,0,0,0,0-3.79,11,11,0,0,0,5.78-5.31,12.26,12.26,0,0,0,1-7.69,17.2,17.2,0,0,0,7-6.48,18.7,18.7,0,0,0,2.61-8.13,8.78,8.78,0,0,0,5.32-2.14,10.19,10.19,0,0,0,3.21-6.56,18,18,0,0,0,8.05-5.11,19.7,19.7,0,0,0,4.1-7,11.66,11.66,0,0,0,8.69.88,12.25,12.25,0,0,0,6.48-4.78,20.79,20.79,0,0,0,5.54-2.17c.53-.3,1.09-.65,1.65-1a23.28,23.28,0,0,0,4.09-3.44A3.69,3.69,0,0,0,587.57,199.65Zm29,5.51a11.38,11.38,0,0,0-9.05-5.55,11.09,11.09,0,0,0-11,8.51,11.67,11.67,0,0,0-9-.78c-6.48,2.21-8.15,9.6-8.22,10a10.21,10.21,0,0,0-7.2.9c-3.61,2-5.85,6.24-5.84,11a14.42,14.42,0,0,0-8.85,4.8,17,17,0,0,0-3.76,12.46,11.37,11.37,0,0,0-7.77,4.48,12.42,12.42,0,0,0-2.24,8.19c0,.12,0,.24,0,.35a14,14,0,0,0,1.23,4.63,15,15,0,0,0-7.06,7.11,18,18,0,0,0-1.47,8c.13,2.95,1,5.38,2.47,6,3,1.25,8.28-5.66,10.59-9.67a31.2,31.2,0,0,0,3.39-8.87,16.31,16.31,0,0,0,7.56-6.05,18,18,0,0,0,3-8.77,25.55,25.55,0,0,0,5.59-4.78,28,28,0,0,0,5.46-9.51,17.94,17.94,0,0,0,6.79-4.06,19.47,19.47,0,0,0,5-7.83,11.34,11.34,0,0,0,7,.37,12.36,12.36,0,0,0,7.06-5.42c10.76.15,17.65-6.39,17.49-11.71A8.05,8.05,0,0,0,616.57,205.16Zm33.66,13.62a10.8,10.8,0,0,0-1-1.78c-3.05-4.3-8.37-4.94-12.17-3.7a12.77,12.77,0,0,0-7.26,6.79,8.68,8.68,0,0,0-10.38-2.45,9.67,9.67,0,0,0-5.27,8.78c-.28-.18-4.89-2.82-9.48-.14a10.65,10.65,0,0,0-5,10.14,10.86,10.86,0,0,0-8.18,1.43c-3.8,2.53-5.8,7.61-5,12.89A11.12,11.12,0,0,0,579,255c-3.85,5.09-1.81,11.45-1.69,11.81a11.81,11.81,0,0,0-6.08,5.42,14.45,14.45,0,0,0-1.47,6.38c0,2.64.78,4.95,2.27,5.77,3,1.66,8-3.3,9-4.33a21.89,21.89,0,0,0,5.65-10.47,25.88,25.88,0,0,0,4.81-4.24,27.9,27.9,0,0,0,5.17-8.68,10.8,10.8,0,0,0,7.28-2.89,12.78,12.78,0,0,0,3.79-9,12,12,0,0,0,7-1.42,13.55,13.55,0,0,0,5.77-6.57,14.15,14.15,0,0,0,6.31-1.42,15.25,15.25,0,0,0,5.79-5,15.16,15.16,0,0,0,7.93,2.71,11.75,11.75,0,0,0,6.78-1.73h0a8.56,8.56,0,0,0,3-3.22A10.85,10.85,0,0,0,650.23,218.78Zm34.57,18v0a5.84,5.84,0,0,0-.31-.61c-.26-.5-3.73-6.84-9.72-6.36-4.22.35-6.73,3.84-7.17,4.48-5.19-4.56-11-4.92-13.54-2.22-.4.43-1.62,1.91-1.55,5.17-4.27-2-8.89-1.49-11.73,1.35a10,10,0,0,0-2.63,5.18c-.5-.15-6.44-1.74-10.65,2.4a11.26,11.26,0,0,0-2.92,5.28,7.92,7.92,0,0,0-8.28,2.28c-3.13,3.45-2.07,8.09-2,8.33a16.69,16.69,0,0,0-8.34,7,21.32,21.32,0,0,0-2.5,6.7c-.31,1.89-.19,3.55.71,4.37,2.16,2,8.51-1.12,12-5.67a17.19,17.19,0,0,0,2.92-6,11.29,11.29,0,0,0,7.19-1.84,12.26,12.26,0,0,0,3.92-4.35,14.37,14.37,0,0,0,7.48-2.79,16,16,0,0,0,4.8-5.83,12.61,12.61,0,0,0,8.58-1.33,13.81,13.81,0,0,0,5.29-5.41,16,16,0,0,0,11,.77,15.73,15.73,0,0,0,5.21-2.78,16.68,16.68,0,0,0,7.43,2.79,16,16,0,0,0,5.13-.25A14.63,14.63,0,0,0,684.8,236.75Zm16.06,22a11.52,11.52,0,0,0-.71-1.4c-.79-1.34-2.24-3.79-5-4.49s-6.08.7-8.36,3.64c-.37-.43-3.59-4.09-8.52-3.62a10.38,10.38,0,0,0-8.44,6.48c-.61-.25-5.82-2.31-10.56.92a12.09,12.09,0,0,0-4.4,5.83,16.77,16.77,0,0,0-8,2.58,20.37,20.37,0,0,0-6.64,7.2c-.81,1.6-1.08,3-.58,3.81,1.35,2.16,8.22,0,12.22-2.09a26.55,26.55,0,0,0,5.8-4.15,12.32,12.32,0,0,0,9.87.56,12.79,12.79,0,0,0,5.89-4.89,16.55,16.55,0,0,0,14.6-2.42,16.44,16.44,0,0,0,6.72,1.95,16.24,16.24,0,0,0,7-1.11A15.84,15.84,0,0,0,700.86,258.78Zm15.87,24a9,9,0,0,0-1.7-2,7.69,7.69,0,0,0-8.2-1c-.18-.22-3.26-4-7.72-3.21a8.32,8.32,0,0,0-5.11,3.31,7.46,7.46,0,0,0-4.16-1.76c-1.37-.11-2.85.22-6.4,2.57-2.16,1.43-3.93,2.6-5.16,3.61-1.39,1.12-2.08,2-1.9,2.87.37,1.7,4.28,2.11,7.72,2.47a37.19,37.19,0,0,0,9-.17,10.68,10.68,0,0,0,5.64,2.06,10.54,10.54,0,0,0,6.51-1.84,7.33,7.33,0,0,0,4.76,3.76,7.11,7.11,0,0,0,7.86-6A7,7,0,0,0,716.73,282.74Zm9.32,32.69a7.93,7.93,0,0,0-.93-2.29,8.14,8.14,0,0,0-6.23-3.87,8.79,8.79,0,0,0-5.48-7.13,8.27,8.27,0,0,0-7.46,1.19,7,7,0,0,0-1.82-1.43c-3.54-1.94-8.7-.6-10.44,1.58a2.56,2.56,0,0,0-.6,1.24c-.34,2.2,2.94,5,6,5.85a9,9,0,0,0,5.92-.47,9.93,9.93,0,0,0,2.59,3.78,9.34,9.34,0,0,0,6.87,2.2,3.36,3.36,0,0,0,.46-.05,4.89,4.89,0,0,0-.1.66h0a7.18,7.18,0,0,0,.42,3.33c1.11,2.8,4.27,5.05,7.14,4.16C725.6,323.19,726.8,318.68,726.05,315.43Zm.94,21.09a6.09,6.09,0,0,0-.73-1.44,7.9,7.9,0,0,0-7.59-3.14,9.76,9.76,0,0,0-2.79-3.63c-3.52-2.71-8.85-2.25-10.85-.63a2.1,2.1,0,0,0-.74,1c-.6,2,3.32,5,4.13,5.59a14.7,14.7,0,0,0,8.11,2.88h.07s0,.06,0,.09a6.79,6.79,0,0,0,2.42,6.07c1.74,1.35,4.47,1.91,6.46.38C727.69,342,727.73,338.59,727,336.52Zm-1.56,20.09s-.06-.08-.08-.12a6.41,6.41,0,0,0-7.05-2.5,10.09,10.09,0,0,0-5.3-5,9.61,9.61,0,0,0-6.82.23h0c-1,.45-1.63,1-1.71,1.65-.19,1.48,3,3.16,5.69,4.59a28.43,28.43,0,0,0,5.41,2.21,8.29,8.29,0,0,0,3.34,5.87c1.45,1,4.43,2.1,6.32.38S726.75,358.71,725.43,356.61Zm-.39,19a5.35,5.35,0,0,0-.64-1,4.82,4.82,0,0,0-4.77-1.53,7.57,7.57,0,0,0-2.92-2.79,7.69,7.69,0,0,0-6.2-.34,1.91,1.91,0,0,0-1.17,1.1c-.33,1.13,1.26,2.61,2.66,3.91a16.39,16.39,0,0,0,5.43,3.33c1.43,3.46,4.68,4.66,6.47,3.6S726.21,377.81,725,375.57Zm-1.2,16a2.4,2.4,0,0,0-.64-.47,3.35,3.35,0,0,0-3.83.5,3.15,3.15,0,0,0-.94-1.67,2.7,2.7,0,0,0-1-.56c-1.43-.46-3.19.11-3.48,1s.91,2.13,1.6,2.66a4.49,4.49,0,0,0,3,.82,3.46,3.46,0,0,0,.42,2.24,3.12,3.12,0,0,0,4.21.95A3.77,3.77,0,0,0,723.84,391.58Z" fill="#42210b"/><path d="M446,390.57a2.94,2.94,0,0,0-2.23-2.16,4.92,4.92,0,0,1-2.94,1.29,1.7,1.7,0,0,0-.18.26,4.53,4.53,0,0,0-.23.59,1,1,0,0,0-.06.16h0a3.85,3.85,0,0,1-6.1,1.51,3.79,3.79,0,0,0-.36,2.13,4.15,4.15,0,0,0,5.06,3.33c2.18-.6,2.9-3.14,2.93-3.28C444.67,394.15,446.26,392.05,446,390.57Zm0-14c-.23-1-2.28-1.68-3.86-1.12a3.65,3.65,0,0,0-1.76,1.38,7.68,7.68,0,0,0-.66-.49,5.32,5.32,0,0,1-2.69,2.89,5,5,0,0,1-4.71-.57,3.91,3.91,0,0,0-.2,2.87c.77,2.35,3.84,3.28,6,2.37A5.46,5.46,0,0,0,441,380.6a7.25,7.25,0,0,0,3.24-1.5C444.92,378.55,446.22,377.49,446,376.55Zm.39-15.16c-.2-.93-1.45-1.65-2.92-1.86a5.91,5.91,0,0,1-.86.58,6,6,0,0,1-3.45.72,6.22,6.22,0,0,0-.72.83,5.17,5.17,0,0,1-3.09,3.55,5,5,0,0,1-4.91-1.34,3.36,3.36,0,0,0-.42,1.54c0,2.68,3.53,5.46,6.45,4.47a5.53,5.53,0,0,0,3.33-4.44,6,6,0,0,0,3.94-.66C444.82,364.17,446.66,362.68,446.4,361.39Zm.35-16.79a7.78,7.78,0,0,1-4,1.82,7.16,7.16,0,0,1-4.55-1,6.49,6.49,0,0,1-6.5,2.78,6.91,6.91,0,0,1-3.9-2.35,5.27,5.27,0,0,0-.14,1.59,6.39,6.39,0,0,0,5.18,5.43,6.47,6.47,0,0,0,6.49-2.78,7.08,7.08,0,0,0,4.55,1c2.17-.29,5-1.82,5-3.73C448.85,346.12,447.65,345.16,446.75,344.6Zm4.94-13.47a5.06,5.06,0,0,0-.71-1.21,3.53,3.53,0,0,1-.77,1.7c-1.64,1.89-5,1-6.91-.27a7.83,7.83,0,0,1-2.89-3.88,7.13,7.13,0,0,1-9.39.18,5.78,5.78,0,0,1-1.16-1.44,7.61,7.61,0,0,0,2.3,6.12,7.12,7.12,0,0,0,9.37-.18,8,8,0,0,0,2.9,3.88c1.91,1.29,5.28,2.16,6.91.26C452.53,334.92,452.33,332.6,451.69,331.13Zm-5.84-30.4h0a8.41,8.41,0,0,1-.29,1.77,5.26,5.26,0,0,1,1.09-.15A5.86,5.86,0,0,0,445.85,300.73Zm9.52,10.33a3.64,3.64,0,0,1-.56,1.57c-1.74,2.61-7.25,2.05-10.17-1a9,9,0,0,1-2.31-5.25c-.21.08-4,1.46-6.93-1.11a6.92,6.92,0,0,1-1.35-1.65,7.79,7.79,0,0,0,2.49,6.32c2.93,2.57,6.7,1.19,6.91,1.11a9.15,9.15,0,0,0,2.32,5.25c2.91,3,8.44,3.59,10.17,1C457,315.71,456.54,313.15,455.37,311.06ZM467,296a1.31,1.31,0,0,1-.19.35c-1.35,1.84-7.75.5-10.49-3.92a9.84,9.84,0,0,1-1.42-4.83,7.23,7.23,0,0,1-8.26-2.94,6.91,6.91,0,0,0,.18,2.52,7.25,7.25,0,0,0,9.21,5.09,10,10,0,0,0,1.42,4.83c2.74,4.42,9.13,5.76,10.5,3.92C468.68,300,468.09,298.05,467,296ZM460.31,282a10.93,10.93,0,0,1-.18,1.81c.34.29.75.66,1.2,1.12A9.61,9.61,0,0,0,460.31,282Zm-2.18-16.67-.21-.18v.24a34.41,34.41,0,0,1-1,9.07,10.14,10.14,0,0,1,1.7,1.91,33.72,33.72,0,0,0,.45-6.3C459,267.48,459,266.15,458.13,265.36Zm-11.33,6.27a6.26,6.26,0,0,0,.34,3.29,4.6,4.6,0,0,0,.28.59,7.3,7.3,0,0,1,2.27-1.8A6.4,6.4,0,0,1,446.8,271.63Zm19.85-8.3a12.74,12.74,0,0,0,2.45,6.94,12.68,12.68,0,0,1,.58-2.72A13.18,13.18,0,0,1,466.65,263.33Zm23.14-28.84a13.1,13.1,0,0,0-2.09-.61,45.32,45.32,0,0,1-5.15,11.67,39.68,39.68,0,0,1-2.44,3.5,23.2,23.2,0,0,1,0,9.26,22.38,22.38,0,0,1-1.93,5.5,37.29,37.29,0,0,1,1,7.78c.13,4.32.23,8-1.51,9-1.9,1-5.66-1.22-7.5-4.66a9.23,9.23,0,0,0,.59,3.5c1.52,4.07,5.94,7,8,5.83,1.75-1,1.65-4.64,1.51-9a37.29,37.29,0,0,0-1-7.78,22.35,22.35,0,0,0,1.94-5.5,23.17,23.17,0,0,0,0-9.26c.83-1.06,1.65-2.23,2.45-3.49A46.15,46.15,0,0,0,489.79,234.49Zm33.57-18.3a18.42,18.42,0,0,1-2.49,3.91,17.38,17.38,0,0,1-5.4,4.36,25.75,25.75,0,0,1-3.1,7.92,24,24,0,0,1-5.78,6.58,22.61,22.61,0,0,1-1,7.16A22,22,0,0,1,500.2,255a106,106,0,0,1-2.29,12.13c-2.12,8.64-3.33,9.1-3.78,9.2-1.95.43-4.74-2.75-6.32-6.69,0,.43.09.85.17,1.3.94,5.3,4.79,10.61,7.29,10.06.45-.1,1.66-.56,3.78-9.2a113,113,0,0,0,2.28-12.12,22,22,0,0,0,5.36-8.88,22.76,22.76,0,0,0,1-7.17,24.37,24.37,0,0,0,5.78-6.57,25.72,25.72,0,0,0,3.09-7.93,17.51,17.51,0,0,0,5.41-4.36,19,19,0,0,0,3.5-6.55A13.27,13.27,0,0,0,523.36,216.19Zm64.22-16.54a3.13,3.13,0,0,0-2.1-1.92,21.61,21.61,0,0,1-4.32,3.71,20.49,20.49,0,0,1-7.19,3.21,12.3,12.3,0,0,1-6.48,4.79,11.58,11.58,0,0,1-8.69-.89,19.63,19.63,0,0,1-4.09,7,18.07,18.07,0,0,1-8.07,5.12,10.1,10.1,0,0,1-3.2,6.56,8.78,8.78,0,0,1-5.32,2.14,18.63,18.63,0,0,1-2.61,8.12,17.17,17.17,0,0,1-7,6.49,12.15,12.15,0,0,1-1,7.68,10.94,10.94,0,0,1-5.78,5.32,14.69,14.69,0,0,1,0,3.79c-.71,5.8-5,11.94-8.21,11.33-1.41-.28-2.45-1.89-3.16-3.77.43,3.1,1.72,7.93,4.3,8.44,3.17.62,7.49-5.53,8.21-11.33a15.59,15.59,0,0,0,0-3.79,11,11,0,0,0,5.78-5.31,12.25,12.25,0,0,0,1-7.69,17.27,17.27,0,0,0,7-6.48,18.79,18.79,0,0,0,2.6-8.13,8.8,8.8,0,0,0,5.32-2.14,10.09,10.09,0,0,0,3.2-6.56,18.05,18.05,0,0,0,8.06-5.11,19.85,19.85,0,0,0,4.1-7,11.66,11.66,0,0,0,8.69.88,12.26,12.26,0,0,0,6.48-4.79,20.24,20.24,0,0,0,5.54-2.17,18.48,18.48,0,0,0,1.65-1,22,22,0,0,0,4.08-3.43A3.72,3.72,0,0,0,587.58,199.65Zm29,5.51c-.6,5.12-7.31,10.92-17.44,10.79a12.43,12.43,0,0,1-7.07,5.42,11.42,11.42,0,0,1-7-.37,19.41,19.41,0,0,1-5,7.83,18,18,0,0,1-6.79,4.06,28.08,28.08,0,0,1-5.45,9.51,25.81,25.81,0,0,1-5.6,4.78,18,18,0,0,1-3,8.76,16.34,16.34,0,0,1-7.55,6.07,31.58,31.58,0,0,1-3.39,8.86c-2.31,4-7.55,10.92-10.6,9.66a3,3,0,0,1-1.34-1.3c.14,2.95,1,5.38,2.48,6,3,1.26,8.28-5.65,10.58-9.66a30.67,30.67,0,0,0,3.39-8.86,16.2,16.2,0,0,0,7.56-6.07,17.9,17.9,0,0,0,3-8.76,25.33,25.33,0,0,0,5.59-4.78,27.78,27.78,0,0,0,5.46-9.51,17.85,17.85,0,0,0,6.78-4.06,19.35,19.35,0,0,0,5-7.83,11.25,11.25,0,0,0,7,.37,12.35,12.35,0,0,0,7.07-5.42c10.76.14,17.65-6.39,17.49-11.71A8.12,8.12,0,0,0,616.58,205.16Zm-72.93,54c0,.12,0,.23,0,.35l.1-.06A2.52,2.52,0,0,1,543.65,259.13Zm106.58-40.35a9.45,9.45,0,0,1-1,4.7c-2.62,5-10.63,7.05-17.76,2.24a15.32,15.32,0,0,1-5.79,5,14,14,0,0,1-6.31,1.41,13.47,13.47,0,0,1-5.77,6.57,12,12,0,0,1-7,1.42,12.73,12.73,0,0,1-3.78,9,10.84,10.84,0,0,1-7.28,2.9,27.87,27.87,0,0,1-5.17,8.67,25.31,25.31,0,0,1-4.81,4.25,21.89,21.89,0,0,1-5.65,10.47c-1,1-6,6-9,4.33a3.38,3.38,0,0,1-1.13-1.1c0,2.63.77,4.95,2.26,5.77,3,1.66,8-3.3,9-4.33a22,22,0,0,0,5.64-10.47,25.26,25.26,0,0,0,4.81-4.25,28.15,28.15,0,0,0,5.17-8.66,10.86,10.86,0,0,0,7.28-2.91,12.73,12.73,0,0,0,3.79-9,11.94,11.94,0,0,0,7-1.43,13.37,13.37,0,0,0,5.77-6.57,14.07,14.07,0,0,0,6.31-1.4,15.25,15.25,0,0,0,5.79-5,15.28,15.28,0,0,0,7.92,2.71,11.57,11.57,0,0,0,6.78-1.74h0a8.35,8.35,0,0,0,3-3.21A10.81,10.81,0,0,0,650.23,218.78Zm34.57,18a15.6,15.6,0,0,1-.86,6,15.73,15.73,0,0,1-5.13.24,16.63,16.63,0,0,1-7.43-2.78,15.33,15.33,0,0,1-16.17,2,13.85,13.85,0,0,1-5.3,5.42,12.77,12.77,0,0,1-8.58,1.32,15.77,15.77,0,0,1-4.79,5.82,14.31,14.31,0,0,1-7.49,2.8,12.21,12.21,0,0,1-3.91,4.35,11.36,11.36,0,0,1-7.2,1.84,17,17,0,0,1-2.91,6c-3.29,4.28-9.1,7.29-11.58,6-.31,1.89-.18,3.55.7,4.37,2.17,2,8.52-1.12,12-5.67a17.19,17.19,0,0,0,2.92-6,11.35,11.35,0,0,0,7.19-1.84,12.08,12.08,0,0,0,3.92-4.35,14.4,14.4,0,0,0,7.48-2.79,15.71,15.71,0,0,0,4.79-5.83,12.73,12.73,0,0,0,8.59-1.32,13.89,13.89,0,0,0,5.29-5.42,15.36,15.36,0,0,0,16.18-2,16.58,16.58,0,0,0,7.42,2.79,16,16,0,0,0,5.13-.25A14.63,14.63,0,0,0,684.8,236.75Zm16.06,22a16.23,16.23,0,0,1-.19,4.13,16.42,16.42,0,0,1-7,1.11,16.17,16.17,0,0,1-6.73-2,16.92,16.92,0,0,1-5.31,2.57,16.61,16.61,0,0,1-9.28-.15,12.89,12.89,0,0,1-5.9,4.9,12.35,12.35,0,0,1-9.88-.56,25.66,25.66,0,0,1-5.79,4.14c-3.07,1.6-7.85,3.27-10.51,3-.81,1.59-1.08,3-.58,3.81,1.35,2.16,8.22,0,12.22-2.1a26.24,26.24,0,0,0,5.8-4.14,12.32,12.32,0,0,0,9.87.56,12.79,12.79,0,0,0,5.89-4.89,16.72,16.72,0,0,0,9.28.15,17.33,17.33,0,0,0,5.32-2.57,16.44,16.44,0,0,0,6.72,1.95,16.61,16.61,0,0,0,7-1.1A15.78,15.78,0,0,0,700.86,258.78Zm15.87,24a.09.09,0,0,0,0,.05c-.54,3.76-4.34,6.59-7.86,5.95A7.29,7.29,0,0,1,704.1,285a10.35,10.35,0,0,1-12.15-.23,36.25,36.25,0,0,1-9,.17,41.86,41.86,0,0,1-4.68-.66c-1.39,1.12-2.08,2-1.9,2.86.37,1.71,4.28,2.11,7.72,2.48a36.11,36.11,0,0,0,9-.18,10.35,10.35,0,0,0,12.15.23,7.3,7.3,0,0,0,4.76,3.76,7.09,7.09,0,0,0,7.85-6A6.92,6.92,0,0,0,716.73,282.75Zm-2.64,32.61a7.2,7.2,0,0,1-.32-4,9.36,9.36,0,0,1-7.33-2.16,9.68,9.68,0,0,1-2.59-3.77,9,9,0,0,1-5.92.47,10.67,10.67,0,0,1-4.24-2.41,2.59,2.59,0,0,0-.6,1.22c-.34,2.2,2.94,5,6,5.86a9,9,0,0,0,5.92-.47,9.86,9.86,0,0,0,2.6,3.78,9.35,9.35,0,0,0,6.86,2.2A4.36,4.36,0,0,1,714.09,315.36Zm12,.07a7.56,7.56,0,0,0-.93-2.29c-.11,2.76-1.39,5.62-3.89,6.39s-5-.71-6.43-2.83a7.2,7.2,0,0,0,.42,3.33c1.11,2.8,4.28,5.05,7.14,4.17C725.6,323.18,726.8,318.68,726.05,315.43Zm.94,21.08a6,6,0,0,0-.73-1.43,5.37,5.37,0,0,1-1.93,3.93c-2,1.54-4.72,1-6.45-.37a5.91,5.91,0,0,1-1.29-1.4,6.79,6.79,0,0,0,2.43,6.07c1.73,1.35,4.46,1.91,6.45.37C727.69,342,727.74,338.6,727,336.51Zm-11.53-4a14.76,14.76,0,0,1-8.18-2.88,20.51,20.51,0,0,1-2.25-1.93,2.22,2.22,0,0,0-.74,1c-.6,2,3.32,5,4.13,5.59a14.7,14.7,0,0,0,8.11,2.88A7.09,7.09,0,0,1,715.46,332.48Zm10,24.13-.08-.12a4.28,4.28,0,0,1-1.26,2.75c-1.89,1.72-4.87.58-6.33-.38a8.3,8.3,0,0,1-3.33-5.87,28.94,28.94,0,0,1-5.41-2.2c-.94-.51-1.95-1-2.85-1.57h0c-1,.44-1.62,1-1.71,1.64-.18,1.48,3,3.17,5.7,4.6a28.94,28.94,0,0,0,5.41,2.2,8.29,8.29,0,0,0,3.34,5.87c1.45,1,4.43,2.1,6.32.38S726.75,358.72,725.43,356.61Zm-.39,19a4.5,4.5,0,0,0-.65-1,3.81,3.81,0,0,1-1.62,2.61c-1.79,1.06-5-.14-6.48-3.61a16.13,16.13,0,0,1-5.42-3.33l-.36-.33a1.88,1.88,0,0,0-1.16,1.09c-.34,1.15,1.25,2.61,2.66,3.91a15.85,15.85,0,0,0,5.42,3.33c1.43,3.47,4.68,4.67,6.47,3.61S726.21,377.81,725,375.57Zm-1.2,16a2.5,2.5,0,0,0-.64-.48,3.09,3.09,0,0,1-1.11,1.29,3.13,3.13,0,0,1-4.21-.95,3.35,3.35,0,0,1-.44-2.06c-1.43-.45-3.19.11-3.48,1s.9,2.13,1.6,2.66a4.49,4.49,0,0,0,3,.82,3.5,3.5,0,0,0,.41,2.24,3.15,3.15,0,0,0,4.23.95A3.79,3.79,0,0,0,723.84,391.58Zm-283.4-1a3.47,3.47,0,0,1,.24-.59C440.63,390.1,440.55,390.31,440.44,390.55Zm30.38-118.33a11.79,11.79,0,0,0-.64,3.67,9.56,9.56,0,0,1-.54-1.17,9.88,9.88,0,0,1-.54-4.45A10.71,10.71,0,0,0,470.82,272.22Zm111.47-66.1c-.56.39-1.12.74-1.65,1a11.61,11.61,0,0,1,5.74-4.48A23.28,23.28,0,0,1,582.29,206.12Zm-37.39,58a15,15,0,0,0-7,7.11,18,18,0,0,0-1.49,8c-1.53-2.62-1.64-8.33.35-12.69a14.87,14.87,0,0,1,7-7.06A14,14,0,0,0,544.9,264.1Zm95.65-31a9.54,9.54,0,0,1,6.78-1.73A11.75,11.75,0,0,1,640.55,233.1ZM714.89,316c0,.19-.07.4-.09.66a3.48,3.48,0,0,1-.36-.61C714.65,316.07,714.8,316,714.89,316Zm1.71,21.12s0,.06,0,.09a.18.18,0,0,1-.06-.09Z" fill="#fff" opacity="0.5" style="mix-blend-mode:overlay"/><path d="M454.81,306.92a8.63,8.63,0,0,0-5.8-1.64,7.72,7.72,0,0,0,.49-4.78c-1-4.13-6.24-6.93-10.57-5.54s-6.13,6.41-6.11,10.15a12.46,12.46,0,0,0,4.67,9.38,10.77,10.77,0,0,0-9.42,8.07c-1.1,4.92,2.06,9,2.84,9.94a12.05,12.05,0,0,0,5.16,3.63,10.43,10.43,0,0,0-9,6.37,11.32,11.32,0,0,0-.08,8.15,10.64,10.64,0,0,0,8.87,6.68c-5.31.66-8.67,5.38-8.09,9.46a8.22,8.22,0,0,0,5.58,6.28,9.32,9.32,0,0,0-3.1,8.87,8.75,8.75,0,0,0,3.73,5.44,9.81,9.81,0,0,0,2.88,15.29,30.86,30.86,0,0,0,7-4.19c4.1-3.27,9-8.84,7.82-11-.13-.24-.43-.62-5.44-1.33-2-.29-3.77-.48-5-.6.91-1.34,1.83-2.67,2.74-4a4.84,4.84,0,0,0,3.74-.45,5.31,5.31,0,0,0,2.43-5.8c-.79-2.43-3.79-2.95-5.46-3.22a10.2,10.2,0,0,0-4.83.34,5.26,5.26,0,0,0,1.85-3.27,4.85,4.85,0,0,0,0-1.27,6.18,6.18,0,0,0,5.23-.46c2.55-1.62,3.76-5.4,2.58-7.64-.81-1.5-2.52-2-4.5-2.49a13,13,0,0,0-4.87-.35,19.58,19.58,0,0,0,.78-2.29c.16-.65.28-1.27.38-1.83a8.66,8.66,0,0,0,5.53.39c2.59-.72,6.46-3.21,6.26-6.93a7.06,7.06,0,0,0-4.78-5.86A7,7,0,0,0,454,338.1a7.11,7.11,0,0,0,1.68-4.93c-.26-3.72-4.44-7.31-10.46-8.07-.45-1.45-.9-2.89-1.34-4.34a16.49,16.49,0,0,0,8.55.22c2.22-.55,4.36-1.08,5.51-3C459.81,314.85,458.16,309.45,454.81,306.92Zm-12,81.46a2.56,2.56,0,0,1,1,0,2.94,2.94,0,0,1,2.23,2.16c.24,1.48-1.35,3.58-4.13,3.82,0,.14-.75,2.68-2.93,3.28a4.15,4.15,0,0,1-5.06-3.33,3.79,3.79,0,0,1,.36-2.13,4.33,4.33,0,0,1,2.18-2.1,4.14,4.14,0,0,1,3.92.59h0a1,1,0,0,1,.06-.16,4.53,4.53,0,0,1,.23-.59,1.7,1.7,0,0,1,.18-.26A2.79,2.79,0,0,1,442.83,388.38Zm-2.44-11.57a3.65,3.65,0,0,1,1.76-1.38c1.58-.56,3.63.08,3.86,1.12s-1.09,2-1.76,2.55a7.25,7.25,0,0,1-3.24,1.5,5.46,5.46,0,0,1-2.85,3.28c-2.19.91-5.26,0-6-2.37a3.91,3.91,0,0,1,.2-2.87,5.53,5.53,0,0,1,3.3-3.06,5,5,0,0,1,4.1.74A7.68,7.68,0,0,1,440.39,376.81Zm.26-17a5.73,5.73,0,0,1,2.83-.32c1.47.21,2.72.93,2.92,1.86.26,1.29-1.58,2.78-2.65,3.39a6,6,0,0,1-3.94.66,5.53,5.53,0,0,1-3.33,4.44c-2.92,1-6.47-1.79-6.45-4.47a3.36,3.36,0,0,1,.42-1.54,6.3,6.3,0,0,1,2.22-2.17,6,6,0,0,1,5.63.17c0-.07.1-.14.15-.21a6.22,6.22,0,0,1,.72-.83A5,5,0,0,1,440.65,359.85Zm8.21-12.49c0,1.91-2.84,3.44-5,3.73a7.08,7.08,0,0,1-4.55-1,6.47,6.47,0,0,1-6.49,2.78,6.39,6.39,0,0,1-5.18-5.43,5.27,5.27,0,0,1,.14-1.59,7.45,7.45,0,0,1,7.61-5.21,7.3,7.3,0,0,1,4.86,3.34,7.27,7.27,0,0,1,5.63.16c.13.07.48.23.88.48C447.65,345.16,448.85,346.12,448.86,347.36Zm-4.79-19.86a7.42,7.42,0,0,1,6.91,2.42,5.06,5.06,0,0,1,.71,1.21c.64,1.47.84,3.79-.35,5.16-1.63,1.9-5,1-6.91-.26a8,8,0,0,1-2.9-3.88,7.12,7.12,0,0,1-9.37.18,7.61,7.61,0,0,1-2.3-6.12,4.29,4.29,0,0,1,.08-.72c.4-2.49,2.06-5.11,4.69-5.82,3.31-.91,6,1.8,6.73,2.59A10.53,10.53,0,0,1,444.07,327.5Zm11.87-10.2c-1.73,2.61-7.26,2.05-10.17-1a9.15,9.15,0,0,1-2.32-5.25c-.21.08-4,1.46-6.91-1.11a7.79,7.79,0,0,1-2.49-6.32,6.4,6.4,0,0,1,1-3.14c2.43-3.56,8.36-3.14,10.76.22h0a5.86,5.86,0,0,1,.79,1.61,9.24,9.24,0,0,1,.05,4.82,8.15,8.15,0,0,1,7.42,2.15,9,9,0,0,1,1.26,1.75C456.54,313.15,457,315.71,455.94,317.3ZM730,343.51c1.91-4.41-.68-8.67-1-9.25a10.24,10.24,0,0,0-4.77-4c-.33-1.18-.67-2.37-1-3.57,5-3.82,6.44-10.17,4.24-14.35-1.92-3.64-6-4.46-6.75-4.58a12.73,12.73,0,0,0-1.42-6.1,11.92,11.92,0,0,0-6.57-5.64,10.67,10.67,0,0,0,7.07-6.79,10.91,10.91,0,0,0-4.24-12,9.82,9.82,0,0,0-7.71-1.21,19.15,19.15,0,0,0-3-2.09,18.09,18.09,0,0,0-4.17-1.65c5.28-4.43,6.88-11.47,4.43-16.25s-7.79-5.57-8.14-5.63a11.32,11.32,0,0,0-8.08,2c-.66-1-1.33-2-2-2.93.52-.81,3.56-5.67,2.09-11.4-1.78-6.93-8.64-9.13-10.14-9.61a16.65,16.65,0,0,0-13.41,1.78,9.37,9.37,0,0,0-4.76-3.12,8.94,8.94,0,0,0-6.91,1.11c.22-.59,2.87-8-1.09-13.68-4.49-6.43-13.37-4.62-14.84-4.33a18.45,18.45,0,0,0-9,4.92,18.19,18.19,0,0,0-2.58-1,17.83,17.83,0,0,0-4.94-.8A16.91,16.91,0,0,0,618.79,202a14.36,14.36,0,0,0-14.26-6.21c-6.06,1-9.36,5.82-10,6.81l-2.76-.19a8.92,8.92,0,0,0-1-5.68c-1.94-3.17-5.67-3.53-7.73-3.73-6-.6-10.73,2.9-12.4,4.3a13.7,13.7,0,0,0-11.28-2.44,14.31,14.31,0,0,0-8.44,6.37,10.62,10.62,0,0,0-8.69.7c-5.19,3-5.63,9.35-5.65,9.73a8.48,8.48,0,0,0-4.73.25,9.27,9.27,0,0,0-4.72,3.83c-5.69-5.57-13.57-6.42-18.77-2.61-4.79,3.51-5.54,9.64-5.65,10.79a10.67,10.67,0,0,0-5.31,2.56,12.09,12.09,0,0,0-3.71,6.35,15.7,15.7,0,0,0-18.77-1.34c-6.21,4-9.19,12.19-7.16,19.85a11.92,11.92,0,0,0-4.91,3.41,13.4,13.4,0,0,0-3.1,7.81,11,11,0,0,0-13.6,3.89,12.65,12.65,0,0,0-.5,12.44,12.85,12.85,0,0,0,.08,10.52,11.27,11.27,0,0,0,6.95,5.85,19.4,19.4,0,0,0,5.78,7.12c5.19,3.84,13,5.09,14.83,2.2,1.66-2.68-2.15-8.54-3.84-11.13a29.56,29.56,0,0,0-4.88-5.75,10,10,0,0,0-1-5.48,9.24,9.24,0,0,0-2.3-2.82,6.36,6.36,0,0,0,.78-2.11,6.65,6.65,0,0,0-.63-4.1,6.6,6.6,0,0,0,2.28.61,6.5,6.5,0,0,0,2.66-.34,12.67,12.67,0,0,0,.66,8.22c1,2.2,2.52,3.38,4.37,4.81,2.52,1.93,7,5.41,9.41,3.83,2-1.35,1.8-5.88,1.49-11.6-.08-1.48-.21-2.71-.31-3.58l1.45-2.64c.15.23.35.56.6.94a45.87,45.87,0,0,0,5.49,6.91c3.64,3.7,5.6,5.67,7.33,5.11,2-.66,2.69-4.39,3.5-9a42.2,42.2,0,0,0,.63-6.95,10.24,10.24,0,0,0,2.85-3.71,11.38,11.38,0,0,0,.53-7.38,6.3,6.3,0,0,0,1.58-1.27,7.53,7.53,0,0,0,1.74-3.7,8.74,8.74,0,0,0,0,2.11,8.19,8.19,0,0,0,1.31,3.36,39.78,39.78,0,0,0-.3,12.32c.52,3.88,1.45,10.81,4.43,11.55,4,1,9.24-9.53,10-11a39.71,39.71,0,0,0,3.47-10.25,23.87,23.87,0,0,0,4.71-5.71,25.42,25.42,0,0,0,3.09-8.35,14,14,0,0,0,4.42-3.4,15.49,15.49,0,0,0,3.5-7.29,10.49,10.49,0,0,0,5.32-1.93,12.52,12.52,0,0,0,4.68-7.84,26.38,26.38,0,0,0,5.9-3.93,27.86,27.86,0,0,0,5.38-6.47l4.44-.13a21.59,21.59,0,0,0-4.86,10.35,13.48,13.48,0,0,0-8.55,5,15.71,15.71,0,0,0-3,11.5,14.19,14.19,0,0,0-8.74,6.27c-3.78,6-1.73,12.63-1.49,13.38a20.61,20.61,0,0,0-6.73,9.85c-2.29,7.49-.32,17.17,3.49,18.3,5.24,1.56,13.4-13.18,14.79-15.69a59.72,59.72,0,0,0,3.7-8,18.15,18.15,0,0,0,6.18-5.09,20.08,20.08,0,0,0,3.88-9.19,28.15,28.15,0,0,0,4.61-4.47,29.52,29.52,0,0,0,4.87-8.56,17.41,17.41,0,0,0,6.79-3,19.65,19.65,0,0,0,6.65-8.89,20.82,20.82,0,0,0,4.53-1.3,21.81,21.81,0,0,0,4.13-2.25l2.57.63a12.12,12.12,0,0,0-2,3.9,12.63,12.63,0,0,0-.57,4.22,13,13,0,0,0-7.87,2.58c-5.72,4.32-5.75,11.91-5.73,12.69a12.63,12.63,0,0,0-6.6,3.72c-4.7,5.11-3.49,12.35-3.35,13.09a20.74,20.74,0,0,0-6.45,9c-2.13,5.91-1.85,13.88.9,15.05,1,.41,2.26-.4,4.82-2a36.85,36.85,0,0,0,10-8.81,40.44,40.44,0,0,0,4.78-7.82,22.88,22.88,0,0,0,4-2.87,24,24,0,0,0,5.57-7.63,33.71,33.71,0,0,0,7.55-5.95,35.53,35.53,0,0,0,5.09-6.89,13.1,13.1,0,0,0,7.08-3.63,14.35,14.35,0,0,0,3.22-5,6.36,6.36,0,0,0,5.83.27,6.74,6.74,0,0,0,3.13-3.6,31.62,31.62,0,0,0,3.36,0,28,28,0,0,0,5.71-1,10.49,10.49,0,0,0-2,2.76,10.85,10.85,0,0,0-1,3,9.73,9.73,0,0,0-6.91.47c-4.75,2.23-5.86,7.59-6,8.15a11,11,0,0,0-7.3,1.84c-4.87,3.35-5.23,9.49-5.25,10.14a18.64,18.64,0,0,0-5.88,5.43,21.54,21.54,0,0,0-3.59,9.6c-.55,3.35-1,5.86.35,7.05s4.12.27,7.1-.89a25.2,25.2,0,0,0,7-4.16,29.73,29.73,0,0,0,6.18-7,10.58,10.58,0,0,0,5.42-1,12.31,12.31,0,0,0,5.87-6.47,8.42,8.42,0,0,0,4.93-.88,9.51,9.51,0,0,0,4.31-4.87,11.35,11.35,0,0,0,6.11-1.41,12,12,0,0,0,4-3.72,15.3,15.3,0,0,0,5-.57,15.7,15.7,0,0,0,5-2.46,19.19,19.19,0,0,0,4.75.82,18.92,18.92,0,0,0,5.82-.69,25.16,25.16,0,0,0-2.35,2.76,23.56,23.56,0,0,0-2.34,4,12.8,12.8,0,0,0-9.08.39c-5.52,2.41-7.36,7.93-7.64,8.79a18.56,18.56,0,0,0-10.72,4.92c-3.84,3.67-7.34,10.31-5.43,13.1,2.2,3.23,11,.18,14.89-1.69a30.14,30.14,0,0,0,7.86-5.43,17.13,17.13,0,0,0,10.17.14,18.28,18.28,0,0,0,9-6.28,24.61,24.61,0,0,0,7.3-.16,24.3,24.3,0,0,0,4.14-1.08,17.29,17.29,0,0,0,2.87,1.56,16.81,16.81,0,0,0,6,1.32,10.6,10.6,0,0,0-3.15,1.82,11,11,0,0,0-2.25,2.54,9.75,9.75,0,0,0-7-1.74c-1.49.29-2.73,1-8.15,6.59-5.79,6-5.89,6.75-5.77,7.31.75,3.58,11.07,3.95,12.87,4a36.78,36.78,0,0,0,8.48-.69,9.76,9.76,0,0,0,5.75,2.91,9.5,9.5,0,0,0,6.3-1.53,6.77,6.77,0,0,0,1.1,1.36,7.24,7.24,0,0,0,3.67,1.88,5,5,0,0,0-2,1.27,5.72,5.72,0,0,0-1.46,2.85,8.61,8.61,0,0,0-3-1.66c-3.18-1-6,.35-8.88,1.75-4,2-6,2.95-6.28,4.79-.46,3.3,5.18,7.25,10,8.45a15.9,15.9,0,0,0,6.12.28,9.06,9.06,0,0,0,3.38,3.23,8.2,8.2,0,0,0,4.06,1,15.41,15.41,0,0,0,.41,2.32,14.69,14.69,0,0,0,.9,2.62,17.11,17.11,0,0,0-7.49,1.54c-2.26,1-4.7,2.15-5.1,4.25-.64,3.34,4.43,6.81,5.78,7.74a18,18,0,0,0,7.13,2.9,7.53,7.53,0,0,0,2.21,6.31,11.87,11.87,0,0,0-8.69-.78c-1.42.45-4.93,1.58-5.68,4.67-.85,3.44,2.4,6.54,2.81,6.93,3.48,3.34,8.21,2.4,8.9,2.26a12.94,12.94,0,0,0,.81,3.36,11.9,11.9,0,0,0,2.6,4,8,8,0,0,0-2-.4c-4.5-.38-9.64,2.85-9.53,5.59.09,2.36,4.13,4.44,6.05,5.17,2.54.95,4.52.78,5.16,2.28.46,1.1-.28,1.93.22,3.37a4.68,4.68,0,0,0,2.38,2.5c-4.2-.42-8.14.54-9.25,3-1.67,3.75,3.34,10.52,8.77,11.53.41.07,4.76.8,6.7-1.95,1.33-1.88.86-4.45.55-6.12a13,13,0,0,0-2.41-5.45c3.88-2.75,5.62-7.46,4.46-11.41a9.41,9.41,0,0,0-4.59-5.44c4.47-2.54,6.76-7.32,5.85-11.2a10.06,10.06,0,0,0-4.39-5.87,9.65,9.65,0,0,0-3.17-1.25l3.74-2.75A9,9,0,0,0,730,343.51ZM461.33,285s0,.05,0,.08a9.66,9.66,0,0,1-.08,3.47,23.5,23.5,0,0,1,2.29,2.3A30.12,30.12,0,0,1,467,296c1.07,2.08,1.66,4.06,1,5-1.37,1.84-7.76.5-10.5-3.92a10,10,0,0,1-1.42-4.83,7.25,7.25,0,0,1-9.21-5.09,6.91,6.91,0,0,1-.18-2.52,7.88,7.88,0,0,1,4.16-6.25,6.35,6.35,0,0,1-3.4-2.87,4.6,4.6,0,0,1-.28-.59,6.26,6.26,0,0,1-.34-3.29,6,6,0,0,1,.31-1.24c1.56-4.59,8.3-7.08,10.81-5.21l.21.18c.83.79.87,2.12.92,4.74a33.72,33.72,0,0,1-.45,6.3,28.12,28.12,0,0,1-.57,2.76,10.5,10.5,0,0,1,2.28,2.87A9.61,9.61,0,0,1,461.33,285Zm22.36-34.73c-.8,1.26-1.62,2.43-2.45,3.49a23.17,23.17,0,0,1,0,9.26,22.35,22.35,0,0,1-1.94,5.5,37.29,37.29,0,0,1,1,7.78c.14,4.32.24,8-1.51,9-2.1,1.17-6.52-1.76-8-5.83a9.23,9.23,0,0,1-.59-3.5,11.79,11.79,0,0,1,.64-3.67,10.71,10.71,0,0,1-1.72-2,12.74,12.74,0,0,1-2.45-6.94,12.31,12.31,0,0,1,0-1.71,12.69,12.69,0,0,1,6.15-9.53c-.28-.7-2.57-6.94.6-12.43a13,13,0,0,1,14.26-5.78,13.1,13.1,0,0,1,2.09.61A46.15,46.15,0,0,1,483.69,250.23Zm24-6.6a22.76,22.76,0,0,1-1,7.17,22,22,0,0,1-5.36,8.88,113,113,0,0,1-2.28,12.12c-2.12,8.64-3.33,9.1-3.78,9.2-2.5.55-6.35-4.76-7.29-10.06-.08-.45-.13-.87-.17-1.3v0a17.59,17.59,0,0,1,2.46-10.27,16.75,16.75,0,0,1-.16-8.63,16.07,16.07,0,0,1,6.93-9.53,15.56,15.56,0,0,1,1.8-10.66,13.57,13.57,0,0,1,7.47-5.94c.78-5.69,4.8-10,9.59-10.6a10.2,10.2,0,0,1,7.46,2.21,13.27,13.27,0,0,1,2.15,2,19,19,0,0,1-3.5,6.55,17.51,17.51,0,0,1-5.41,4.36,25.72,25.72,0,0,1-3.09,7.93A24.37,24.37,0,0,1,507.73,243.63Zm52.2-30.4a19.85,19.85,0,0,1-4.1,7,18.05,18.05,0,0,1-8.06,5.11,10.09,10.09,0,0,1-3.2,6.56,8.8,8.8,0,0,1-5.32,2.14,18.79,18.79,0,0,1-2.6,8.13,17.27,17.27,0,0,1-7,6.48,12.25,12.25,0,0,1-1,7.69,11,11,0,0,1-5.78,5.31,15.59,15.59,0,0,1,0,3.79c-.72,5.8-5,11.95-8.21,11.33-2.58-.51-3.87-5.34-4.3-8.44-.05-.37-.09-.7-.12-1a18.34,18.34,0,0,1,1.61-9.17,19.66,19.66,0,0,1,.83-8.22A18.66,18.66,0,0,1,519,241a12.92,12.92,0,0,1,1.72-8.13,11.45,11.45,0,0,1,7.57-5.21,14.68,14.68,0,0,1,2.31-7.29,13.58,13.58,0,0,1,8.75-5.85,12.69,12.69,0,0,1,4.48-8,11.26,11.26,0,0,1,9.36-2.07,14.25,14.25,0,0,1,9.14-5.75A13.51,13.51,0,0,1,572,201a13,13,0,0,1,8.27-4.06,12.85,12.85,0,0,1,5.23.76,3.13,3.13,0,0,1,2.1,1.92,3.72,3.72,0,0,1-1.21,3,22,22,0,0,1-4.08,3.43,18.48,18.48,0,0,1-1.65,1,20.24,20.24,0,0,1-5.54,2.17,12.26,12.26,0,0,1-6.48,4.79A11.66,11.66,0,0,1,559.93,213.23Zm40.33,7.39a12.35,12.35,0,0,1-7.07,5.42,11.25,11.25,0,0,1-7-.37,19.35,19.35,0,0,1-5,7.83,17.85,17.85,0,0,1-6.78,4.06,27.78,27.78,0,0,1-5.46,9.51,25.33,25.33,0,0,1-5.59,4.78,17.9,17.9,0,0,1-3,8.76,16.2,16.2,0,0,1-7.56,6.07,30.67,30.67,0,0,1-3.39,8.86c-2.3,4-7.55,10.92-10.58,9.66-1.44-.59-2.34-3-2.48-6a18,18,0,0,1,1.49-8,15,15,0,0,1,7-7.11,14,14,0,0,1-1.23-4.62c0-.12,0-.23,0-.35a12.43,12.43,0,0,1,2.24-8.2,11.37,11.37,0,0,1,7.77-4.48A16.91,16.91,0,0,1,557.41,234a14.52,14.52,0,0,1,8.86-4.8c0-4.75,2.24-9,5.84-11a10.21,10.21,0,0,1,7.2-.9c.07-.37,1.74-7.75,8.22-10a11.68,11.68,0,0,1,9,.78,11.07,11.07,0,0,1,11-8.5,11.4,11.4,0,0,1,9.07,5.54,8.12,8.12,0,0,1,1.17,3.75C617.91,214.23,611,220.76,600.26,220.62Zm32.36,9.77a15.25,15.25,0,0,1-5.79,5,14.07,14.07,0,0,1-6.31,1.4,13.37,13.37,0,0,1-5.77,6.57,11.94,11.94,0,0,1-7,1.43,12.73,12.73,0,0,1-3.79,9,10.86,10.86,0,0,1-7.28,2.91,28.15,28.15,0,0,1-5.17,8.66,25.26,25.26,0,0,1-4.81,4.25,22,22,0,0,1-5.64,10.47c-1,1-6,6-9,4.33-1.49-.82-2.25-3.14-2.26-5.77a14.37,14.37,0,0,1,1.46-6.39,11.77,11.77,0,0,1,6.09-5.41c-.13-.36-2.18-6.73,1.68-11.8a11.23,11.23,0,0,1,7.48-4.28c-.76-5.26,1.23-10.35,5-12.88a10.93,10.93,0,0,1,8.19-1.43,10.64,10.64,0,0,1,5-10.14c4.59-2.69,9.2,0,9.48.14a9.71,9.71,0,0,1,5.26-8.78,8.68,8.68,0,0,1,10.39,2.45A12.78,12.78,0,0,1,637,213.3c3.82-1.24,9.12-.6,12.18,3.7a11.22,11.22,0,0,1,1,1.78,10.81,10.81,0,0,1,.14,9.37,8.35,8.35,0,0,1-3,3.21h0a11.57,11.57,0,0,1-6.78,1.74A15.28,15.28,0,0,1,632.62,230.39Zm39.9,14.45a15.36,15.36,0,0,1-16.18,2,13.89,13.89,0,0,1-5.29,5.42,12.73,12.73,0,0,1-8.59,1.32,15.71,15.71,0,0,1-4.79,5.83,14.4,14.4,0,0,1-7.48,2.79,12.08,12.08,0,0,1-3.92,4.35,11.35,11.35,0,0,1-7.19,1.84,17.19,17.19,0,0,1-2.92,6c-3.49,4.55-9.84,7.67-12,5.67-.88-.82-1-2.48-.7-4.37A21.57,21.57,0,0,1,606,269a16.79,16.79,0,0,1,8.34-7c0-.24-1.12-4.88,2-8.34a7.94,7.94,0,0,1,8.28-2.27,11.13,11.13,0,0,1,2.92-5.28c4.2-4.14,10.16-2.54,10.64-2.4a10.11,10.11,0,0,1,2.64-5.18c2.84-2.84,7.46-3.36,11.73-1.34-.08-3.27,1.16-4.75,1.54-5.17,2.52-2.7,8.36-2.36,13.55,2.21.44-.64,2.95-4.13,7.17-4.48,6-.48,9.46,5.85,9.73,6.35l.3.62v0a14.63,14.63,0,0,1,.27,10.63,16,16,0,0,1-5.13.25A16.58,16.58,0,0,1,672.52,244.84Zm22.28,23.85a16.44,16.44,0,0,1-6.72-1.95,17.33,17.33,0,0,1-5.32,2.57,16.72,16.72,0,0,1-9.28-.15,12.79,12.79,0,0,1-5.89,4.89,12.32,12.32,0,0,1-9.87-.56,26.24,26.24,0,0,1-5.8,4.14c-4,2.09-10.87,4.26-12.22,2.1-.5-.81-.23-2.22.58-3.81a20.37,20.37,0,0,1,6.64-7.2,16.69,16.69,0,0,1,8-2.58,12.18,12.18,0,0,1,4.39-5.83c4.74-3.23,10-1.18,10.57-.92a10.38,10.38,0,0,1,8.44-6.48c4.93-.47,8.15,3.19,8.52,3.62,2.27-2.94,5.51-4.38,8.36-3.65s4.18,3.16,5,4.5a11.52,11.52,0,0,1,.71,1.4,15.78,15.78,0,0,1,.95,8.81A16.61,16.61,0,0,1,694.8,268.69Zm10.43,21a10.35,10.35,0,0,1-12.15-.23,36.11,36.11,0,0,1-9,.18c-3.44-.37-7.35-.77-7.72-2.48-.18-.83.51-1.74,1.9-2.86,1.23-1,3-2.18,5.16-3.61,3.55-2.35,5-2.69,6.4-2.58a7.57,7.57,0,0,1,4.15,1.76,8.38,8.38,0,0,1,5.12-3.29c4.46-.78,7.55,3,7.72,3.2a7.71,7.71,0,0,1,8.2,1,9.19,9.19,0,0,1,1.7,2,6.92,6.92,0,0,1,1.11,4.72,7.09,7.09,0,0,1-7.85,6A7.3,7.3,0,0,1,705.23,289.67Zm2.35,24.21a9.86,9.86,0,0,1-2.6-3.78,9,9,0,0,1-5.92.47c-3-.86-6.31-3.66-6-5.86a2.59,2.59,0,0,1,.6-1.22c1.73-2.19,6.91-3.53,10.44-1.59a6.81,6.81,0,0,1,1.82,1.44,8.21,8.21,0,0,1,7.47-1.2,8.81,8.81,0,0,1,5.47,7.12,8.17,8.17,0,0,1,6.23,3.88,7.56,7.56,0,0,1,.93,2.29c.75,3.25-.45,7.75-3.69,8.77-2.86.88-6-1.37-7.14-4.17a7.2,7.2,0,0,1-.42-3.33h0c0-.26.07-.47.09-.66-.09,0-.24,0-.45.05A9.35,9.35,0,0,1,707.58,313.88Zm16.26,77.7a3.79,3.79,0,0,1-.61,5.48,3.15,3.15,0,0,1-4.23-.95,3.5,3.5,0,0,1-.41-2.24,4.49,4.49,0,0,1-3-.82c-.7-.53-1.89-1.76-1.6-2.66s2-1.46,3.48-1a2.57,2.57,0,0,1,1,.56,3.19,3.19,0,0,1,.94,1.67,3.37,3.37,0,0,1,3.83-.51A2.5,2.5,0,0,1,723.84,391.58Zm.55-17a4.5,4.5,0,0,1,.65,1c1.17,2.24.55,5.33-1.14,6.32s-5-.14-6.47-3.61A15.85,15.85,0,0,1,712,375c-1.41-1.3-3-2.76-2.66-3.91a1.88,1.88,0,0,1,1.16-1.09,7.41,7.41,0,0,1,9.12,3.13A4.82,4.82,0,0,1,724.39,374.61Zm1-18.12.08.12c1.32,2.11,1.66,5.6-.21,7.3s-4.87.58-6.32-.38a8.29,8.29,0,0,1-3.34-5.87,28.94,28.94,0,0,1-5.41-2.2c-2.7-1.43-5.88-3.12-5.7-4.6.09-.6.74-1.2,1.71-1.64h0A9.58,9.58,0,0,1,713,349a10,10,0,0,1,5.3,5A6.41,6.41,0,0,1,725.35,356.49ZM719,343.31a6.79,6.79,0,0,1-2.43-6.07s0-.06,0-.09h-.07a14.7,14.7,0,0,1-8.11-2.88c-.81-.6-4.73-3.55-4.13-5.59a2.22,2.22,0,0,1,.74-1c2-1.61,7.32-2.07,10.84.64a9.62,9.62,0,0,1,2.8,3.63,7.88,7.88,0,0,1,7.59,3.14,6,6,0,0,1,.73,1.43c.75,2.09.7,5.47-1.52,7.17C723.48,345.22,720.75,344.66,719,343.31Z"/></g></g></g></svg>