<svg xmlns="http://www.w3.org/2000/svg" viewBox="0 0 1080 1920"><g style="isolation:isolate"><g id="hair"><g id="_39" data-name="39"><path d="M719.18,406.74c-8.07-9.7-10.24-18-10.72-23.8-.93-11.24,3-16.44-.26-23.27-3.09-6.39-7.76-6.4-11.11-13.48-1.77-3.77-1.21-5.42-1.8-15.61-1.33-22.71-5-33.86-5.95-36.49a63.26,63.26,0,0,0-3.22-8c-9.24-17.88-35.7-22.22-47.41-23.44a13.93,13.93,0,0,1-8.4,2.25c-3.48-.32-4.08-2-6.59-1.86-4.84.3-5,6.75-10.72,8.75-5.1,1.78-7.82-2.39-12.14,0-3.47,1.92-2.8,5.21-6.46,6.86s-5.84-1.17-8.53.39c-4.18,2.43-.59,10.17-5.42,15.34-3.37,3.6-7,1.85-9.31,5.68-2.19,3.62.53,6-1.42,9.66-2.68,5-9,2.67-12.4,7.8-2.72,4.1.41,7-2.58,11.37-2.82,4.1-6.61,3-8.91,7.14-1.89,3.4-.26,5.77-1.17,8.85-1,3.47-5.17,7.58-19.63,9.79a23.1,23.1,0,0,1,2.58-12.83c2.54-4.56,5.13-4.83,5.81-8.59.8-4.36-2.34-5.78-2.19-12.43,0-2.5.11-4.94,1.68-7.14,2.33-3.28,5.38-2.34,7.1-5.42,1.46-2.61-.39-3.88.91-7.8s3.33-3.27,4.39-7c.76-2.7-.08-3.85.77-8.72.26-1.46.56-2.64.78-3.44a13.67,13.67,0,0,0-5.56,1.06c-4.21,1.78-4.14,4.41-7.49,5.95-5.1,2.34-9.84-1.63-11.88.92-1,1.2-.1,2.3-1,4.89a11.3,11.3,0,0,1-4,5.16,54.11,54.11,0,0,1-1.16,13.62,12.31,12.31,0,0,1-1.42,4.1c-1.94,3.15-4.23,2.78-7.24,6.21a26.07,26.07,0,0,0-3.23,5.16c-1.93,3.58-1.78,4.33-2.84,6.21-3,5.36-7.07,4.29-11.5,10.18a21.24,21.24,0,0,0-3.1,5.82c-2.21,6.66,1.08,9.14-.77,13.62-2.3,5.57-8.46,4.35-10.21,9.91-1,3.25,1,3.87.39,9.52-.26,2.42-.76,6.92-3.88,10.18-2.9,3-5.28,2.07-6.45,4.63s1.06,3.82.9,9.39a16.21,16.21,0,0,1-1.81,7.53c-1.32,2.4-2.38,2.57-3.1,4.1-.91,2-.89,5.35,3.49,11.64-6.32,1.61-12.59,0-15.63-4.24-2.32-3.22-3.52-9-1.55-13.22.87-1.85,2.45-3.61,1.94-5.81a5.12,5.12,0,0,0-1.94-2.78c-.59.14-5,1.25-6.07,4.63-.77,2.5.57,5.54,1.16,6.87a18.74,18.74,0,0,1,1.42,3.18,10.18,10.18,0,0,1,.26,4.56c-.53,2.59-2.18,3.07-4,5.75a18.49,18.49,0,0,0-2.71,7.67c-.53,5.07,2.15,6.09,1.81,10.31a13.26,13.26,0,0,1-7.49,10.31c-6.6,3.17-12.8-.81-13.18-1.06,3.49-4.86,3.75-8.28,3.23-10.57-.76-3.39-3.1-3.8-3.75-7.41-.76-4.28,2.31-4.94,2.33-10.44,0-5-2.48-6.76-1-10.45.58-1.5,1.35-2.09,1.67-4a9.85,9.85,0,0,0-.77-5.56,15,15,0,0,1-3.88,3.71c-1.49,1-2,.93-2.58,1.71-1.42,2,.88,4.26.13,7-.86,3.16-4.6,2.85-7,6.22-1.12,1.59-2.19,4.36-1.29,9.38-4.29-.58-7.81-3.22-8.91-6.74a9.31,9.31,0,0,1,0-5.82c.6-1.63,1.37-1.93,1.81-3.3s.46-3.33-1.42-6.48a7.52,7.52,0,0,1-7.75.13,7.64,7.64,0,0,1-3.75-6.21c-.09-3,1.84-5.21,2.58-6.08,1.08-1.26,1.42-1.05,1.81-1.86,1.25-2.55-2.17-4.72-1.94-8.32.17-2.55,1.95-2.41,5.3-8.2,1.77-3.05,2.65-4.62,2.71-6.88.09-3-1.38-3.33-1.42-6.48,0-3.63,1.92-4.2,1.94-7.66s-2.05-3.61-2.33-7.28c-.24-3.24,1-8.21,4.27-10.84,1.06-.85,2.54-1.63,3.1-3.43a5.46,5.46,0,0,0,0-2.91,5.61,5.61,0,0,0-4.52.53c-1.59,1.14-1.22,2.81-2.72,5.42a11.84,11.84,0,0,1-5.42,5c-3.6,1.41-6.18-.6-7.37.93-1.06,1.36.84,3.2.13,6.34a8.74,8.74,0,0,1-3.61,5c-4,2.64-9.41,1-12.53-1.72-.76-.67-4-3.52-3.36-6.35.65-3,5-2.57,7.49-6.87.76-1.29.51-1.56,1.68-7.14,1.23-5.87,1.85-8.81,2.58-9.79,3.63-4.8,11.21-2.7,12-5.95.43-1.71-1.63-2.59-2.33-6.87a10,10,0,0,1,0-4.89c1.58-4.73,8.19-4.12,10.34-8.86a8.63,8.63,0,0,0,.13-6.08c-2.29-.88-4.61-1.23-6.33-.14s-1.58,3.08-3.75,7.54c-1.72,3.52-2.87,5.9-5.17,6.61-3.2,1-6.4-1.94-6.59-2.11-3.79-3.57-2.71-9.64-2.45-11.11a9.82,9.82,0,0,1,1.29-3.83c1.78-2.84,4.2-2.79,7.49-4.76a22.6,22.6,0,0,0,8.14-9.26c2.23-4.3,1.06-5.38,3.23-8.33,2.88-3.91,5.49-2.75,8.14-6.08,3.55-4.45.67-8.74,3.49-13.22,1.47-2.33,4.67-5,12.53-5.69a24.92,24.92,0,0,1,4.5-14.14c4.14-5.65,10.42-8.4,11.77-9,2.5-1.1,3.13-.94,4.78-2.12,3.18-2.25,3.25-4.49,7.24-8.19a13.35,13.35,0,0,1,3.87-2.91c3.48-1.57,5.61-.23,8.53-1.06,1.86-.53,4.37-2,6.72-6.61a18.49,18.49,0,0,1-3.23-1.59c-3-1.85-3.3-3.22-4.91-3.57-2.39-.51-3.33,2.14-6.46,2.91-3.95,1-5.53-2.5-9.82-3-7.7-1-12.54,9-16,7.1-2.5-1.35-1.72-7.5-1.19-9.88.41-1.86,1.25-5.62,4-6.87,2.27-1,3.43.74,6.58.26,4.11-.61,4.07-3.91,8-5.15,5-1.58,7.53,3,12.28,1.19,3-1.15,3-3.37,6.2-5.16,3.69-2,7.92-1.45,11.11-.53-.35-4.92.93-7.18,2.19-8.33,3.27-3,8.21-.18,13.44-3.3,3.12-1.86,2.24-4.35,4.91-5.42,3.78-1.53,6,2.5,10.33,1.71,4.65-.83,4.06-5.78,10.33-8.59.81-.36,6.91-3,11.37-.26,2.06,1.26,2.06,2.62,3.75,2.91,2.38.39,3.6-2.14,8.65-5.29,3.11-1.95,4.67-2.92,6.46-2.91,4.13,0,4.77,4.15,9.56,5.29,3.47.82,4.7-1,9.95-1.59a28.21,28.21,0,0,1,11.94,1.3c0-1.38-.19-3.49-1.61-4.74-3-2.67-8.16,1.73-12-.66-3.5-2.17-1.15-7-4.91-10.44-3.29-3.05-6.41-.6-12.92-3.18-4.34-1.71-10.5-5.79-10.07-9.52.44-3.94,8.09-5.82,12.91-7,4.67-1.15,10.42-2.56,14,.53,2.24,2,1.62,4,4.13,5.42,2.33,1.31,3.93.11,8.65.39,3.38.21,5.59.34,7.5,1.59,5.18,3.39,2.79,11.52,7,13.35,1.93.85,2.81-.72,8.53-2,5.54-1.22,9.1-2,12-.4,5.16,2.85,3.21,10.36,8.66,13,2.54,1.21,3.08-.36,7.23.79a18.46,18.46,0,0,1,13.18,15.08c2.72-1.67,3.32-3.1,3.36-4.1.06-1.59-1.29-2.1-3-5.56-1.32-2.7-.85-3.1-1.81-4.09-2-2.05-4.28-.59-6.33-2.38-1.89-1.65-2.18-4.81-1.81-6.88.73-4.19,4.37-5.23,3.87-7.54-.4-1.87-2.88-1.62-6.33-4.49-1.4-1.17-5.17-4.32-4.78-7.67.42-3.51,5.23-5.76,8.66-6.21,4.48-.59,9.79,1.46,11.37,5.15,1.09,2.56-.45,3.94.9,6.22,1.65,2.77,4.59,1.81,7.11,4.49,2.34,2.51.72,4.34,2.58,8.2,3.06,6.35,9.27,5.17,10.59,10.44.74,2.94-.79,4.83.78,8.73a13.21,13.21,0,0,0,2.06,3.44c2.43-.76,6-1.4,8.66.39,3.43,2.28,2.56,6.47,5.94,8.33,3.75,2.07,7-1.89,10,.14,3.35,2.33.5,8.63,4.53,11.88,1.63,1.32,2.28.42,5.67,1.87,2,.86,6.28,2.68,8.66,7.27.23.44,3.26,6.5.77,11.5-1.53,3.09-4,3.44-4.26,6.21-.18,2.09,1.14,2.87,1.94,5.69a14.53,14.53,0,0,1-.26,8.2,46.89,46.89,0,0,1,16.92,15.07c4.35,6.45,6.14,12.78,7.88,22.34a235.48,235.48,0,0,1,3.88,44.56c-.1,5.85-.48,18.83-4,46.93C725.55,367.46,723,385.36,719.18,406.74Z" fill="#42210b"/><path d="M489.18,291.55a10.37,10.37,0,0,1-6.25,3.54c2.54-1,5.25-2.14,7.31-5.35l0,0A8.22,8.22,0,0,1,489.18,291.55ZM506.62,301c-3.64,3-.41,8.89-3.88,12.89s-8,.29-13,4.56c-3.9,3.38-2.2,6.68-6.59,9.92a12.5,12.5,0,0,1-4.09,1.94,6.26,6.26,0,0,0-3.86,2.42c-1.74,2.54-.12,4.07-1.34,7.54-2.3,6.49-10.8,9.07-13.58,9.91a27.3,27.3,0,0,1-6.75,1.16l-1,0c.14,0,.6.42,1.19,1.16,2,2.45,5.39,8.38,3.63,13.42-1.42,4.08-5,4.09-5.52,7.63-.68,5,6.13,7.36,5.33,12-.61,3.52-4.75,3.45-6.49,8.73a14.32,14.32,0,0,0-.49,6.44c.61,4.48,2.73,5,2.81,8.43s-2.07,3.71-2.52,7.83c-.13,1.26-.45,5.94,2.81,9.52a11.51,11.51,0,0,0,8,3.57,28.94,28.94,0,0,1-2.7-5c-1.52-3.68-1.38-6.3-.69-8.19,1-2.85,2.92-2.87,4.45-6.25l.06-.13a9.13,9.13,0,0,0,.8-3c.29-3.23-1.27-5.69-.17-9.94,1.56-6.12,5.87-5.27,8-11.7,2.26-6.67-1.7-9.59,1.16-13.88,2.64-4,7.13-3.16,9.3-7.94.71-1.54.56-2.35.87-5.35s1-9.7,3.2-14.28c2.62-5.46,5.39-3.82,11.63-11.44,3.88-4.74,2.78-5.34,7-10.37.58-.7,1.13-1.31,1.63-1.86h0s0,0,0,0c2.36-2.54,4-3.7,5.28-5.09a10.15,10.15,0,0,0,1.83-2.79c1.15-2.56,2-6.62.06-12.95C511.11,299.49,508.49,299.41,506.62,301Zm13.82-14.28a4,4,0,0,1,2.62-.85A3,3,0,0,0,520.44,286.69Zm-1.66-60.52c1.41.89,2.86,1.87,4.81,1.71A19.59,19.59,0,0,0,518.78,226.17Zm13.81,59.46a9.08,9.08,0,0,1-4.76.87A7.79,7.79,0,0,0,532.59,285.63ZM537.3,281a11.42,11.42,0,0,1,1.53-1,5.33,5.33,0,0,0-2.28,1.56A8.93,8.93,0,0,1,537.3,281Zm11.31-57.87c-1.54-1.18-2.55-2.74-4-3.67C545.7,221.16,546.79,222.83,548.61,223.14Zm-9.24,34.4c5.86-5.83,11.37-3.27,14.33-9.12,2.26-4.45-.07-7.63,3.11-12.3,2.75-4.05,6.53-4.67,6.19-6.15-.38-1.68-5.65-2.64-10.26-1.19-4,1.25-3.91,3.18-7.75,4.76-5.9,2.42-8.29-1.21-13.13,1.06a18,18,0,0,0-5.77,7c-2.92,6.48,0,11.48-3.59,15.17-3,3.14-6.3.8-9.2,4a6.93,6.93,0,0,0-1.75,4.54c-.09,1.34.05,2.7.08,4,0,1.87-.13,3.63-1.43,5-3.9,4.23-11.75-1.39-15.88,2.72-3.93,3.91,1.39,10.75-2.82,16.41-3.79,5.11-10.11,2.25-13.17,7.64-2.34,4.12,0,8.15-3.29,11.2-2,1.85-3.58,1-5,3-2,2.82.61,5.5-1.16,8.92-1.55,3-4.11,2-5.62,5-1.86,3.62,1.28,6.62-.68,9.42-1,1.38-2.34,1.51-3.72,2h0a6,6,0,0,0-1.41.75,5.19,5.19,0,0,0-1,.89A8.45,8.45,0,0,0,455,348.1c8.94-1.07,12.27-4.1,13.63-6.74,2.21-4.31-.26-8.67,2.9-12.1,2-2.17,3.71-1.17,6.76-2.67a11.88,11.88,0,0,0,1.12-.63c5.35-3.41,3.88-7.89,8.72-11.24.32-.21.62-.4.91-.57,3-1.66,5.53-1,7.8-1.28,3.52-3.18.46-7.42,4.4-13.09,3-4.35,5.67-3.06,9.31-7.93,3.49-4.7,1.85-7,4.84-10.12,4.33-4.56,9-1,14.34-4.71C536.41,272.38,532.24,264.63,539.37,257.54Zm101,3.77,5.06,1a13,13,0,0,0-5-1.18A1.43,1.43,0,0,1,640.32,261.31Zm55.62,81.24a110.6,110.6,0,0,0-.08-17.81C695.9,332.17,695.93,340.67,695.94,342.55ZM380.4,306.87c.81-1.24,1.6-3.31,3.57-6.59.7-1.19,1.3-2.19,1.84-3A16,16,0,0,0,380.4,306.87Zm16.15,30.47a6.84,6.84,0,0,1,1.27-1A3,3,0,0,0,396.55,337.34Zm7.38-20.65c-1.89,1.9-2.34,3.42-2.24,4.61A17.84,17.84,0,0,1,403.93,316.69Zm-11.44,18.39c.6-3.31-3.53-5.61-2.33-8.46.66-1.54,2.06-1.36,3.88-3.17,2-2.06,2.26-4.3,3.1-7.41,2.42-8.9,6.63-11.9,5.17-14-.41-.58-1.3-1.21-3.66-1.08a11.33,11.33,0,0,1-1.12,3.39c-2.66,5.09-7.48,4.42-9.89,8.83-2.66,4.87,1.9,8.13-.48,13.18-2.78,5.92-10.27,4-12.5,9.82-1.76,4.58,1.9,8.45-.88,11.9-1.3,1.63-2.54,1.28-4.93,3.77-1.08,1.12-3.76,3.89-3.11,5.65,1,2.77,10.54,3.42,13.09-.5,1.05-1.62.46-3.33.22-5a4.05,4.05,0,0,1,.55-3.14,1.71,1.71,0,0,1,.11-.14,14.86,14.86,0,0,1,2.45-4.91C386.13,338.61,391.81,338.79,392.49,335.08Zm30,90.34c.58.8,1.25,1.44,1.71,2.16A3.46,3.46,0,0,0,422.48,425.42Zm19.23-5.76a10.26,10.26,0,0,1-1.68,6.06c1.35-1.53,2.35-3,2.06-4.87A3.54,3.54,0,0,0,441.71,419.66Zm13-61.49a10.64,10.64,0,0,0-.31-1.82C454.56,357,454.66,357.63,454.75,358.17Zm272.44-70.55c-1-18.35-1.67-28.75-7.87-40.06a59.58,59.58,0,0,0-16-18.51,15.63,15.63,0,0,1-11.11,5.68c7-5.3,8.46-9.71,8.53-12.69.12-5.14-3.81-6.77-3.61-12.56.21-6.51,5.32-8.3,4.13-12.69-.94-3.44-5-5.64-8.91-7.8-.58-.32-1.12-.59-1.62-.83a16.88,16.88,0,0,0-1.74,7.4c0,7.23,5.23,10.9,3.49,14.38-1.46,2.91-5.56,1.36-8.53,5.26-2.07,2.71-1.09,4.79-2.33,7.24-3.91,7.74-23.58,6.41-24.12,3.47-.51-2.76,15.69-7.28,14.92-10.91-.33-1.56-3.34-.9-4.95-3.27-2.8-4.19,3.86-10.3,1.56-15.87-1.66-4-6.11-3.15-8.72-6.84-2-2.77-2.9-8.14,2.62-19.66-2.57-2.15-5.72-2.05-7.79-5.76-2.29-4.11.55-6.07-1.68-10.18-2.69-5-7.64-3.56-10.59-9-1.87-3.43-.3-4.75-2.45-7.4-2.68-3.29-6-2.42-7.62-5.69-1.09-2.21.07-3.43-1.3-5.42-1.53-2.23-4.77-3.3-5.68-2.38s1,4.85,1.68,6.08c2.89,5.31,6.15,6.22,5.81,8.6-.3,2.09-2.95,2.21-4,5.55a7.77,7.77,0,0,0-.26,3.7c1.18,5.47,10.75,4.55,12.79,10.05,1.54,4.17-2.71,8.16-.52,10.71,1.34,1.56,3.14.31,5.94,2.25.2.14,3.52,2.5,3.88,6.21.22,2.32-.89,3.18-1.56,6.35a18.45,18.45,0,0,0,0,7.27,10.45,10.45,0,0,1-3.48-5.29c-1-4,1.45-6.56,0-9.12-.89-1.57-2.3-1.48-6.46-3s-7.39-2.78-9.81-5c-4.5-4.16-2.13-8.16-5.95-11.24-4.23-3.41-8.16.71-13.57-2.11-6.83-3.58-4.72-12.42-10.46-14.68-6.16-2.42-11.79,6.49-17.44,3.84-4.89-2.3-2.56-9.87-8.14-13.09-4.9-2.84-8.59,1.95-15.24-.93-5-2.14-5.12-5.75-9.43-6.87s-8.82,1.38-12,3.83a21.64,21.64,0,0,0,6.32,4.5c6.26,2.87,10.19.77,13.06,3.83s.31,6.6,3,8.86c3.66,3.12,10.2-2.22,14.2,1.19,1.17,1,.85,1.63,2.33,5.16,2,4.74,4.34,10.36,8.4,12.16,5,2.21,8.62-3.08,12.66-.66,3.63,2.17,1.5,6.95,5.55,10.18s8.48.29,11.49,3.83c1.63,1.9,1.79,4.42,2,6.88.35,5.67-2,7.68-.78,9.65,1.84,2.85,7.5-.44,10.73,2.64s1.82,9.78.71,11.5h0c-.15.24-.3.38-.44.39-.3,0-.44-.56-.63-1.45a18.69,18.69,0,0,0-4.72-3.24c-7.54-3.57-13.61.09-16.1-3.17-2.17-2.87,1.87-6.52-.38-11.11-1.69-3.45-4.51-2.48-9.1-6.74-5.23-4.84-3.83-8.16-7.57-9.92-4.76-2.24-7.84,2.78-14.72,1.39-6.2-1.25-6-5.78-10.85-6.35-8.19-1-12.38,11.48-20.35,10.12-4.2-.72-5-4.51-9.68-4.37-4.13.13-4.52,3.11-8.53,3.38-5.72.38-7.59-5.45-12.79-4.57-3.06.53-3.25,2.69-7,3.18-3.1.41-4.56-.88-7.17-1.19-2.32-.28-5.62.23-9.94,3.59a11.21,11.21,0,0,0,1.55,0,14.64,14.64,0,0,0,7.75-2.77c-5,6-8.89,7.15-11.49,7-2.08-.11-2.84-1-5.3-.79-4.22.33-4.93,3.09-8.66,3.84-4.53.9-5.52-2.76-9.94-2.12-5,.73-5.19,5.61-10.34,6.48-4.51.75-5.88-2.73-9.82-1.46-3.73,1.21-3.56,4.68-7.62,5.82-3.26.91-4.95-.87-7,.4s-2.54,4.82-2.51,7.53c1.4-.69,3.65-1.82,6.39-3.3,5.76-3.11,6.63-3.94,8.66-4,4-.06,4.47,3.11,8.14,3,4.9-.09,7.35-5.87,9.94-4.76,1.72.75,1,3.48,3.62,5.29a7,7,0,0,0,4.52,1.06,9.4,9.4,0,0,0,6.59-3.83,3.83,3.83,0,0,1,3.09,2.64,3.92,3.92,0,0,1-.39,3,33.52,33.52,0,0,0-7.74,5c-4.66,4.06-5.14,6.8-9,8.73-4.12,2-5.24-.19-9.69,1.45-5.74,2.12-5,6.22-11.89,11.38-5.79,4.32-8.51,3.07-12.2,7.13a20.27,20.27,0,0,0-4.74,11.64,11.86,11.86,0,0,0,6.35-2c5.17-3.6,3.63-9.6,8-12,4.1-2.28,7.32,2,11.62-.66,3.3-2,2.84-5.37,6.33-7.27,2.69-1.46,5.73-1,7.75-.39a16.85,16.85,0,0,0-7,3.07c-4.3,3.27-3.69,6.31-7.26,8.23-4.34,2.33-7.78-.78-10.76,2-1.74,1.61-.83,2.91-2.62,6.05a17.54,17.54,0,0,1-9.11,7.34c-5,1.68-7.08-.52-11.53,1.78a14.41,14.41,0,0,0-4.74,4.07c-4.32,5.64-1.8,10.71-5.72,14.87-1.82,1.94-2.51,1-5.81,3.08-7.91,5-5.72,11.61-13.57,18.34-3.65,3.14-6.27,3.54-7.84,7.24-.35.83-2.08,4.89.1,7.73,1.16,1.52,3.41,2.67,5.32,2.09a3.08,3.08,0,0,0,1.76-1.44,26.29,26.29,0,0,1,4.09-10.52c.13-.19.61-.89,1.29-1.73,4.46-5.51,9.66-7.24,13.44-10.31,6.41-5.22,2.8-9.52,8.78-14.54,6.42-5.4,11.24-1,17.57-6.08,7.07-5.7,3.83-13.46,10.59-16.93,5.28-2.71,10.51.35,13.69-3.7,1.75-2.22,1.14-4.37,3.36-5.82s4.05-.15,7.24-.79c2-.4,4.66-1.58,7.49-5a14.45,14.45,0,0,1-3.87,7.4c-3.39,3.27-6.33,2.16-10.08,5.29s-2.26,5.6-6,9.52c-4.79,5.1-8.63,2.31-12.4,6.61-4.74,5.4-.42,11.83-5.42,16.77-3.59,3.54-7.09,1.49-9.3,5.18s.37,7.37-2.59,11.37c-1.34,1.8-2.35,1.71-3.87,3.17-1.91,1.84-3.78,5.34-3.28,12.75l.11-.19a10.24,10.24,0,0,0,1.07-6.45c1.36,2,2.79,4.82,1.93,7.34-.53,1.59-1.57,1.82-4,4.07s-5.94,5.57-6.11,9.42c-.06,1.45.38,2,1,3.39.11.25.21.52.31.8s.1.29.15.45,0,.1.05.16c.09.28.18.6.27.95a23.65,23.65,0,0,1,.48,9.12c-1.41,8.7-10.09,10.65-9.4,16.76.3,2.6,1.87,2.27,2.23,5.45.5,4.35-2.3,6.28-1.45,10.81.37,2,1,1.88,1.26,4,.1.72.41,3.48-1.45,7.73-2.71,6.16-6.43,7.36-5.92,10.61.28,1.72,1.38,1.77,1.56,3.77.21,2.61-1.47,4.87-2.43,6.15-2.19,2.92-4.12,3.37-4,4.76s2.49,2.34,3.39,2.67a10.6,10.6,0,0,0,7.27-.19c-.57-5,.61-7.37,1.83-8.63a17.15,17.15,0,0,1,3.19-2.22c-1.55-6.7-.35-10.62,1-12.95,1.75-3.05,3.62-3.17,4.65-6.15,1.68-4.89-2.42-7.33-1.17-11.7,1.59-5.55,9.15-5.05,10.27-10.31.85-4-3.19-5.81-2.13-9.52,1.26-4.43,7.43-3.34,10.08-8.53,2.1-4.13-.72-6.95,1.16-11.11.86-1.92,2.64-3.91,6.25-5.45a8.28,8.28,0,0,0,3.73-3.77c2.94-6-1.76-11.14,1.26-14.57,2.45-2.8,6.45-.44,10-3.57,2.46-2.2,3.07-5.63,3.21-8.14.48,4.3.47,9.83-2.72,12.2-2.62,2-5.31.22-7.37,2.28-3,3,1.36,8.27-1.34,14.18-1.78,3.86-4.56,3.6-6.7,6.17a12.05,12.05,0,0,0-.87,3.25c-.51,4.46,1.92,6.23.77,9.72a6.41,6.41,0,0,1-2.5,3.33c-1.51,2.36-3.62,3-5.3,3.89a5.42,5.42,0,0,0-.72,1.51c-1.29,4.31,3.26,6.56,1.94,10.9a5.63,5.63,0,0,1-.72,1.52,3.85,3.85,0,0,1-.35,1.36c-1.27,2.83-4.77,2.37-5.52,5.25-.64,2.48,1.66,3.93,1.94,6.75.23,2.39-1,5.88-7.46,10.61,5.9-.68,8.91-2.6,10.55-4.53a8,8,0,0,0,.69-.93c1.64-2.53,1.05-4.47,2.13-6.88a8.1,8.1,0,0,1,1-1.65c2.32-3.14,5.05-3.15,6.92-4.45a32.72,32.72,0,0,1-2.17-7.64c-.38-2.81-1-7.55,1.55-10.91,1.95-2.59,3.75-1.66,5.42-4.16,2.42-3.61-.51-6.76,1.56-10.32s5.77-1.86,8.91-5.35c3.44-3.83.26-7.31,2.9-13.29,3.31-7.49,10.14-6.2,12.79-13.48,2-5.58-1.32-8.14,1.16-11.71,3.66-5.24,12.33-1.69,15.31-6.74,2.19-3.71-1.41-7.47,1.16-10.71,2.35-3,6.08-.72,9.5-3.77s1-6.5,4.07-10.9c4.16-5.9,11.14-3.31,13.75-8.73,1.94-4-1.1-7.12,1.56-10.31,1.91-2.3,4.53-1.93,6.2-5,.19-.35,1.46-2.65.77-4.16-1.6-3.54-13.14-1-15.46-.5l-.13,0-.25.06h0a10,10,0,0,1-6.43-.19c-5.12-2.18-6.26-9.35-6.39-10.31a22.83,22.83,0,0,0,11,0c2.89-.74,6-1.54,7.56-4.17,2-3.44-.62-6.62.77-9.12,1.25-2.25,5.64-3.69,18.8-.79-11.72-.5-15,1.41-15.7,3.37s.85,4-.38,7.34a11.68,11.68,0,0,1-2.52,3.77c-3.28,3.26-9.53,3.94-16.09,2,4.65,4.26,8.12,4.84,10.47,4.56,4.85-.59,6-5,11.63-5.95,4.85-.78,5.56,2.27,10.26,1.79a9.48,9.48,0,0,0,3.47-1,20.28,20.28,0,0,0,5.15-4.43h0c1.79-1.87,3.63-3.53,6.49-3.67,5.17-.26,5.94,4.81,11.61,5.83a50.2,50.2,0,0,1,7.57-6.42c4.33-3,6.49-4.45,8.91-4.37,6.53.23,7.75,8.94,14.73,9.72,5.15.58,7.39-3.83,11-2.18,4.11,1.87,3.12,8.32,6.58,9.32s5.88-5.63,10.47-5.15c4,.41,4.23,5.62,12.11,12.07a27.73,27.73,0,0,1,4.24,3.17c.36.33.72.66,1.09,1l-.12,0a19.08,19.08,0,0,1-8.51.07c-5.1-1.19-5.74-3.79-8.91-3.87h-.31a4.92,4.92,0,0,0-1.47.25l-.06,0c-2.42.82-4,3.33-5.89,5.58-1.58,1.86-3.4,3.54-6.13,4-5.26.8-6.9-4.2-13-3.18-5.5.93-8.78,5.8-9,6.15-2.69,4.12-.63,6.06-3,10-3.44,5.72-9.24,4.15-11.05,9-1.47,4,1.88,6.33-.1,10.81a12.52,12.52,0,0,1-4.93,5.25c-4.08,2.57-6.47,1.18-7.85,3.28-1.69,2.55,1.49,5.21,0,9.32-1.16,3.19-3.47,2.65-4.85,5.85-1.85,4.29,1.63,6.85.1,10.81-1.74,4.48-7,3.16-8.82,7.43-1.93,4.52,3.18,7.7,1.55,13.69-.95,3.52-3.06,3.68-5.81,8.52A28.37,28.37,0,0,0,528.71,351a17.25,17.25,0,0,0,7.65-2.78,16.77,16.77,0,0,0,2.23-1.79,34.22,34.22,0,0,1,5-15.66c1.43-2.22,2.76-3.61,4.26-6.94,2.69-6,1.15-7.62,3.29-11.71,3.09-5.85,7.31-4.47,9.69-9.91,2-4.62-.63-6.5,1.56-11.31,2-4.42,4.68-3.74,7.94-8.32,4.67-6.57,1.23-10.81,5.23-14.68,4.27-4.14,8.9,0,15.5-4.56,4.71-3.28,4.36-6.81,8.53-7.93,4.33-1.18,5.91,2.32,10.46,1.38,5.52-1.13,5.38-6.71,10.66-7.93,5.5-1.27,8.38,4.18,13.18,2.38,4.09-1.53,3.65-6.12,7-6.94,4.11-1,7.51,5.39,14.72,11.5,7.8,6.61,10.33,4.63,19.38,10.51,3.13,2.05,15.28,10.15,21.7,24.4,3.63,8.07,1,8.31,6,27.56,3.83,14.79,5,13.25,6.39,22,1.08,6.82.95,11.46,1.4,15.89a38.38,38.38,0,0,1,1.83,6.05,31.7,31.7,0,0,1,.69,3.88h0c.62,5.12-.27,8.45.47,15.15a56.77,56.77,0,0,0,3.36,13.88c1.15-5,2.42-10.93,3.64-17.66.75-4.09,1.48-8.48,2.18-13.14,2.55-17.26,3.34-30.45,3.87-39.53C727.36,310.72,727.92,301,727.19,287.62Zm-89.68-28.89c-2.8,2-6.11,1.81-8.13,1.68-4.21-.25-4.65-1.82-7.27-1.58-4.58.4-4.5,5.28-9.89,7.83-5.76,2.72-9-1.36-14.24,2-2.78,1.77-2.46,3.29-6,5.46-4.06,2.48-5.43,1.06-8.13,2.92-4.88,3.35-2,9-7.18,14.33-3.45,3.55-6,2.26-8.23,5.95s-.18,5.76-2.33,9.42c-2.5,4.28-6,2.66-9.68,7.14-3.07,3.77-1.18,5.68-4.75,11-2.71,4-4,3.26-6.11,7-2.29,4.13-1,5.58-3.48,9.91a19.07,19.07,0,0,1-3.49,4.56c-.09.77-.15,1.56-.19,2.38a14.46,14.46,0,0,0,5.23-4.95c2-3.33.88-4.78,2.65-8.53,2.54-5.41,6-4.53,7-9.12.45-1.9.28-3.76,1.53-7.29a20.29,20.29,0,0,1,1-2.43c2.76-5.4,9.26-4.08,12.41-8.73,2.28-3.36-.31-5.26,2.13-9.52s5.13-2.92,8.72-6.94c5.17-5.77,2.6-11.76,7.17-14.23,2.86-1.55,4.59.41,8.33-1.63,3.16-1.73,2.55-3.87,5.43-5.16,4.86-2.19,7.72,1.21,12.59-.59,5.46-2,5-7.52,9.69-8.14,3.68-.48,5,2.78,9.69,2.19,2.93-.38,3.41-1.78,6.2-2.38a9.92,9.92,0,0,1,2.21-.22,22.34,22.34,0,0,0,1.18-4.25,24.46,24.46,0,0,0,.2-7.14C641.74,250.61,641.44,255.91,637.51,258.73ZM694.77,295a46.54,46.54,0,0,0-16.18-24.69c-13.57-10.1-28.36-8.21-31.49-7.74l-1.7-.32a32,32,0,0,1,3.48,1.85c13,7.59,19.15,4.26,28.27,11.45,8.46,6.67,11.14,15.86,14.9,28.7a105.12,105.12,0,0,1,3.81,20.43c0-6-.05-11.29-.05-11.83C695.75,301.34,695.74,298.92,694.77,295ZM713,366.07h0a32.52,32.52,0,0,1-2.52-9.93,22,22,0,0,0-2.57-4.66,25.27,25.27,0,0,0-12-8.92c8.07,5.09,11,11,12.2,13.95,1.71,4.32,2,8.48,2.32,14.48.48,7.91-.73,9.33.2,14.08a39.51,39.51,0,0,0,6.58,15.27q1.63-11.44,3.26-22.89A39.74,39.74,0,0,1,713,366.07ZM421.55,408.85c1.7,5,2.06,5.38,1.94,6.55-.36,3.63-4.22,4.39-4,7,.16,1.57,1.68,2.2,3,3.06a5.72,5.72,0,0,1-1.12-2.78c-.43-3.69,2.83-5.18,3.58-9,.52-2.66-.14-6.59-5.22-12.19a13.14,13.14,0,0,1-3.59,7.73c-2.28,2.18-4,1.76-5.24,3.87-1.88,3.13.83,5.77-1.06,8.92-1.36,2.28-3.3,1.79-4.85,4.17-1.42,2.2-1.24,4.9-.87,6.84-2.47-1.71-5.37-4.31-5.32-7.44s2.72-3.64,3.49-7.43c1-4.91-2.9-6.81-1.65-10.71s5.55-3.37,6.49-7.54c.53-2.38-.57-3.89.58-6.54a8.55,8.55,0,0,1,2.32-3.08c-5.15,2.62-6.17,4.55-6.1,5.85.05.79.48,1.06.39,1.89a3.25,3.25,0,0,1-1.76,2.24C398.23,407,398,411.33,398.69,414c.36,1.43,1.33,3.82.4,6.44-.61,1.74-1.54,2.1-1.95,3.87a8.39,8.39,0,0,0,1,5.56c2.19,4.32,6.95,5.41,7.74,5.57-1-3.94-.35-6.32.4-7.76,1.91-3.61,5.68-3.57,6.4-6.94.48-2.26-1-3.46,0-5.95a7.9,7.9,0,0,1,2.33-3,22.79,22.79,0,0,0,5-7.74C420.34,405.17,420.87,406.83,421.55,408.85Zm11.1-84.38a8.11,8.11,0,0,0-3.83,3.87c-2.63,5.63,1.87,9.48-.88,14.47-2.34,4.29-6.54,3.06-7.94,6.95-1.69,4.72,3.83,8.37,1.94,13-1.41,3.45-5.14,3-6,6.45-.77,3.06,1.86,4.72,2,8.13a7.72,7.72,0,0,1,0,.83c.37-3.61-.93-4.66-.09-7.37,1.33-4.31,5.47-4.54,7.42-7.41.24-3.56-4.23-7-3-11.14a4.55,4.55,0,0,1,2.46-2.79c1.27-1.87,3.5-2.57,5.3-3.89.09-.14.19-.3.28-.46,2.72-4.89-1.43-8.42,1.16-14a8.26,8.26,0,0,1,1.16-1.86,17.81,17.81,0,0,1,4.75-6.27A27.55,27.55,0,0,0,432.65,324.47ZM440,425.72c-2,2.26-4.73,4.72-5.21,9.11a23.75,23.75,0,0,0,.2,5.26c.59,4.68,1.83,5.32,1.55,7.73-.49,4.16-4.67,6.75-5.71,7.34a12.5,12.5,0,0,1-7.57,1.49c1.43-1.81,3.8-5.45,3.11-9.42-.55-3.1-3-6.47-3.39-7-1.56-2.17-2.33-2.39-2.42-3.57-.24-2.81,3.84-3.68,4.16-6.84a3.24,3.24,0,0,0-.56-2.19c.71,3.45-5.78,5.39-5.82,9.77,0,4.12,5.69,5.33,6.48,10.17.59,3.65-2,7.14-4.26,9.51.51.27,6.29,3.13,11.62,0,4.84-2.83,5.66-8.43,5.82-9.51.82-5.7-2.6-6.7-2.33-12.3C435.92,430.66,438.32,428.48,440,425.72Zm14.28-63.57c-1.08,3.05-3.1,3.34-4.66,7.54a12,12,0,0,0-1,6.54c.88,4.62,5,5.26,4.84,8.33-.13,2.71-3.42,3.15-5.52,7.14a14.08,14.08,0,0,0-1.26,8.23,15.42,15.42,0,0,0-7.27,7.44,11.66,11.66,0,0,0-1.06,7.14c.66,3.08,2.47,3.56,3.3,5.15-.14-4.35-2.39-5.46-1.75-9,.73-4.08,4.46-6.83,7.55-8.53a28.7,28.7,0,0,1,1.56-8.13c2.38-6.81,5.92-8.21,5.62-12.3-.33-4.48-4.75-5.14-4.46-9.12.27-3.65,4.07-4.14,5-8.92.14-.71.17-1.26-.52-5.47A9.53,9.53,0,0,1,454.31,362.15Zm20.24-62.77c-1.73,3.74,1.08,7.18-1.55,10.41-1.79,2.21-3.55,1.16-5.43,3.47-2.45,3-.16,5.74-2.52,9.62-1.92,3.18-4.11,2.46-5.22,5.36-1.3,3.37,1.26,5.4-.2,8-1.3,2.35-3.84,1.64-6.11,4-1.34,1.39-2.6,3.87-2.32,8.62-1.27,2.77-3.43,6.22-7,7.24s-6.47-1.15-7.94.4c-1.94,2,2.29,6.52.39,10.61a4.23,4.23,0,0,1-1.51,1.79,3.27,3.27,0,0,1,0,2.87c-1.41,2.46-4.82.59-7.85,3.23-2.39,2.1-2.4,5.14-2.82,7.81-.28,1.76-.73,3.35-2.12,4.43s-3.72,1.72-8.43.1a17.67,17.67,0,0,0,3.92-8.19c-.54,2.44-2.46,5.55-7.6,9.28,8.35,2.39,12.29.92,14.33-.9,3.54-3.13,2-7.78,6.7-11.8,3.46-3,5.92-1.8,7.55-4.66,2.18-3.8-1.15-7.7,1.16-10.41,1.56-1.81,3.63-.74,6.78-2.38a13.25,13.25,0,0,0,5.79-6.88,40.22,40.22,0,0,1,1.9,4.89c-.25-1.46-.47-2.71-.66-3.79-.08-.42-.15-.82-.22-1.19-.88-4.86-1-5.7-.41-6.91,1-1.95,2.73-2.38,4.34-3.07a7.63,7.63,0,0,0,1.41-.75h0a4.53,4.53,0,0,0,1.59-1.92c1.42-3.08-1.21-4.75,0-8.33,1.42-4.16,5.5-3.41,7.17-7.93,1.1-2.95-.24-4.34,1.36-7.14,1.21-2.13,2.47-2.19,4.06-4,3.1-3.45,1.4-6.66,3.11-10.71,1.43-3.39,4-4.39,6.73-5.48C479.5,295.91,476.06,296.12,474.55,299.38ZM508,230c4.71-1.73,4.76-3.23,7.94-3.77a8.61,8.61,0,0,1,2.86,0c-1.48-.95-2.91-1.8-4.8-1.16-1.38.48-1.55,1.25-3.87,3a24,24,0,0,1-6.35,3.36l.25-.06C505.37,230.93,506.7,230.44,508,230Zm9.49,64.45c-3.55,3.83-9.61-.46-13.43,3s.14,9.84-3.88,13.88a5.28,5.28,0,0,1-3.37,1.59c-2.33,2.1-5,1.47-7.8,1.28a8.56,8.56,0,0,0-6.2,1.49c-3.08,2.32-4.77,6.9-4.55,10.95a10.55,10.55,0,0,0,.84,3.69h0c1.64,3.69,4.78,3.63,5.07,6.38.4,3.92-5.91,4.94-8.53,11.5-2.13,5.33,1.05,7.07-1,12.29-2.68,6.91-9.17,6.24-10.47,11.9s4.83,8.69,3.3,14.08-8.58,4.64-10.27,10.32c-1.49,5,3.47,7.33,2.32,14.28-.78,4.78-3.51,6-3.09,9.51a8.15,8.15,0,0,0,2.23,4.53,19.12,19.12,0,0,0,4.76,3.63c-3.11-4.3-3.6-7.69-3.51-9.94.13-3.12,1.39-4.62,2.57-8.26.28-.87.55-1.86.8-3,0,0,0,0,0-.05,1.12-5.2-.1-5.05.88-8.3,2.21-7.27,8.08-7.28,9.88-13.89,1.25-4.57-1.37-5.27-.18-10.11,1.53-6.29,6.26-6.32,9.48-12.89,3.4-6.92-.64-9.34,2.52-15.67,3.42-6.83,8.55-4.85,14-12.89,3.83-5.69,1.79-7.49,6.08-13h0s0,0,0,0a29.1,29.1,0,0,1,5.28-5.09,11.34,11.34,0,0,0,3.7-4.51c1.86-4.29.76-8.95-.39-12.09a8.6,8.6,0,0,0,4.27-3.38c2.18-3.58-.22-6.88,1.61-8.92C518,288.68,519.94,291.76,517.47,294.42Zm10.28-7.92c-1.6-.17-3.1-.61-4.46-.65C524.57,286,526.08,286.38,527.75,286.5Zm-6.79-40c-.38,2.72.55,4.43-.78,6.64-2.44,4.09-7.76,1.94-10.85,5.66-3.43,4.13.8,9.61-2.32,12.94-3.56,3.8-10.67-1.61-14.73,2-3.86,3.45.37,10.27-2,15.88,3.94-6.18-.13-11.3,3.74-14.89,4.69-4.35,12.71,1.3,16.48-3a4.84,4.84,0,0,0,1.13-2.51,18.08,18.08,0,0,0-.08-4c-.16-2.06-.15-4.18,1.47-6.13,2.88-3.45,7-1.72,9.48-5.55,1.59-2.45.28-3.76,1.36-7.93.21-.8,2.29-8.36,8-11,.59-.45,1.17-.83,1.7-1.16C524,238.37,521.44,243.09,521,246.53Zm11.63,39.1c2.4-1.18,2.86-2.75,4-4C534.76,283.2,534.69,284.47,532.59,285.63Zm12-66.16c-1.18-1.83-2.35-3.66-4.47-3.78-1-.05-1.86.27-4.74,2.48h0a55.94,55.94,0,0,0-5.15,4.43c-3.45,3.36-4.26,5.08-6.64,5.28a10.8,10.8,0,0,0,3.36.9c7.16.59,8.65-10.16,14.93-10.11A4.86,4.86,0,0,1,544.61,219.47Zm84.55,17c-1-.74-2.6-1.83-4.19-3.13l-.05,0a18.48,18.48,0,0,0-8-2.75c-7.06-.63-9.93,3.66-15.69,1.78s-5-6.62-10.86-8.33-8.74,2.23-12.78-.2-2.46-6.87-5.81-8.52c-4.77-2.35-9.31,6-17.44,5.15-.27,0-.54-.07-.79-.12-2,2-3.14,3.1-4.86,2.82h0a7.4,7.4,0,0,0,3.54,1.47c7.19,1,11.06-7.65,16.4-5.89,4.29,1.42,3.36,7.53,8.27,9.13,4.09,1.33,6.89-2.23,10.91-.6,2.73,1.1,4.24,3.86,5.1,6.08-10.87-.1-15.37,3-17.44,6-2.86,4.19-.61,7.66-4.06,12.43-4.09,5.64-9.27,3.6-12.2,8.85-2.58,4.61.35,8.06-2.4,12.5-2.12,3.44-6,4.84-9,5.49a16,16,0,0,0-8.93,1.42c4-1.47,5.85,1.77,11.19,1.09.6-.08,6-.85,8.92-5,3.13-4.48-.4-7.76,2.13-13.09,2.79-5.88,8.27-4.35,11.63-10.91,2.25-4.41.38-6.29,2.9-9.52,3.64-4.66,10.7-4.74,12.21-4.76,7.16-.07,9.56,3.72,14.73,2.58a10.26,10.26,0,0,0,2.44-.88,16.15,16.15,0,0,0,5.89-5.58,0,0,0,0,0,0,0h0c.43-.09.92-.17,1.47-.25h0a24,24,0,0,1,4.08-.21c7.32.26,12.76,3.9,13.64,4l.12,0C630.31,237.38,629.88,237,629.16,236.49Zm-238,109.3c-4.3,3.21-9.16.06-11.42,2.93a19.41,19.41,0,0,0-.66,3.28,23.66,23.66,0,0,1,7-2c2-.24,2.4,0,3.37-.52,1.75-.85,2.09-2.4,3.87-6.15A7.7,7.7,0,0,1,391.13,345.79Zm5.38-8.41a12.46,12.46,0,0,0-2.57,4.56A29,29,0,0,1,396.51,337.38Zm9.13-9.06q-.08-.24-.15-.45c-.1-.28-.2-.55-.31-.8-1.28-2.85-3.3-3.59-3.49-5.77-1.9,6.24,1.28,12.14,2.23,13.78a10.11,10.11,0,0,0-6.1,1.29c2.54-.9,4.36,2,6.29,1.09s2.56-5.51,1.58-9C405.67,328.42,405.66,328.37,405.64,328.32Zm0-13.87a17.36,17.36,0,0,0-1.74,2.24,31.43,31.43,0,0,1,7.42-5.14c-.07-.72-.14-1.41-.18-2.06C409.79,311.7,408,312,405.67,314.45Zm14.82-37.58c-4,2.08-7.18-1.67-10.66.1s-2.15,6.75-6.59,11.8a17.2,17.2,0,0,1-6.58,4.56,10.07,10.07,0,0,0-7.37.4,9.47,9.47,0,0,0-3.47,3.51,11,11,0,0,1,4.09-2.09,11.4,11.4,0,0,1,6.46.27v5.81a17.53,17.53,0,0,1,2.28-.28,14.39,14.39,0,0,0,.14-3.75,18.72,18.72,0,0,0,7.36-6.05c3.11-4.43,2.22-7.7,5.13-9.52,3.43-2.14,6.85,1,10-1.09,2.44-1.63,3-5.3,3-8.33A8.68,8.68,0,0,1,420.49,276.87Zm206.27-79.62c-3.27-4-11.41-.56-13.56-4.36-1.13-2,.87-3.24.18-7.54a14.86,14.86,0,0,0-4.45-8.33c-3.43-3-5.78-1.54-8.52-4.56s-1.33-5.2-3.49-6.74c-3.4-2.42-7.89,2.37-13.18,1.19-2.62-.59-6.1-2.78-9.3-10.32a34.38,34.38,0,0,0-13.76-.79c-5.11.79-7.45,2.46-11.43,1.39-4.47-1.2-4.3-4.05-7.75-4.56-5.56-.83-7.57,6.3-14.73,6.94-5.47.49-5.86-3.53-11-3-7.32.79-9,9.1-16.27,8.93-2.7-.07-3.71-1.25-6.59-.6-3.49.8-3.56,2.89-7,4.56-5.77,2.83-10-1-13.36,2.38a6.38,6.38,0,0,0-1.95,4.57,5.86,5.86,0,0,0,1.36,3.37A17.46,17.46,0,0,1,476.2,178a17.66,17.66,0,0,1,8.91,0c.72-.66,1.41-1.25,2.07-1.76-2.41-.2-4.33-1-8-.88a23.86,23.86,0,0,0-4.79.66,5.72,5.72,0,0,1,1.82-3.57c2.47-2,5.45.5,10.33-.66,3.46-.83,3-2.33,6.85-3.44,4.68-1.34,6.07.68,9.43-.53,4.86-1.74,3.88-6.68,8.14-8.59,5.46-2.45,9.38,4.66,16.53,3,6.18-1.4,6.72-7.5,11.89-7.54,4.91,0,5.53,5.49,11.49,6.88,7.24,1.68,10-5.56,16.92-4.23,7.58,1.45,8.21,11,15.76,11.5,4.55.3,6.64-3,9.82-1.32s2.08,5.77,5.82,8.46,7.35.07,9.42,2.64-1,5.89,1,11.64a10.72,10.72,0,0,0,3.62,5.42c3.38,2.43,6.09.3,9.17,2.38,2.69,1.81,3.24,5.2,3.63,7.14.41.37.76.73,1.07,1.06h0v0h0C628.69,201,627.81,198.55,626.76,197.25Zm58.07-12.89c1,2.06,2.72,2.31,5.87,3.8.19-.41.4-.78.58-1.12-1.47-.08-3.7-.44-4.94-2.09-2.17-2.89.72-7-1.26-9.12s-5.1,1-9-1c-3-1.55-2.71-4.13-6.11-6.15a11.33,11.33,0,0,0-6-1.49c-.39.74-.75,1.47-1.07,2.16a8.7,8.7,0,0,1,1.9,2.31c2.36,4.13,0,6.65,2.46,9.65,3.12,3.75,8.64,1.91,9.68,4.76.88,2.41-2.94,4.13-2.58,7.67.46,4.6,7.4,6.08,7,9.12-.32,2.32-4.47,2.06-5.69,5.15-1.62,4.11,3.47,10.15,4.26,9.79s-2.17-4.48-.38-8.07c1.87-3.74,6.92-3.13,7.36-5.55.57-3.16-7.81-5.37-7.88-10.18,0-3.43,4.17-4.73,3.49-7.4s-5.3-2.56-7.37-6.88a8.63,8.63,0,0,1-.77-2.64c2.07,1.27,4.31,2,6.46,1.45,1.41-.38,2.12-1.16,2.84-.79C685,178.43,683.52,181.59,684.83,184.36Z" fill="#fff" opacity="0.5" style="mix-blend-mode:overlay"/><path d="M413.8,348.17c-.44.2-1.86-4-5.62-9.52-1.56-2.31-2.34-3.09-2.2-4.42.31-3,4.82-3.26,5.5-6.29.77-3.45-4.52-5.58-3.88-8.92.68-3.54,6.95-3,8.53-7.34,1.34-3.7-2.44-6.23-1-9.52,1.72-3.84,7.83-2.49,9.11-6s-4.25-7-2.91-10.11,7-.83,10.27-4.37c4.14-4.42.35-13.19,1.42-13.49s7.28,10.15,3.81,15.28c-2.39,3.53-7.7,2.13-8.91,5.35-1.35,3.6,4.49,7.41,3.1,10.51s-8.25,1.05-10.08,4.56c-1.53,2.94,2.52,5.85,1.17,9.52-1.61,4.35-8.48,3.53-9.31,7.14s5.14,6.34,4.07,9.92c-.61,2.05-2.74,1.7-4.26,4C409.39,339.33,414.47,347.87,413.8,348.17Zm37.59-112.78c2.73-2.13,1.53-5.14,4.14-6.87,3.48-2.31,7.15,2,11.11,0s2.64-7.88,6.46-9.52,7.76,3.62,10.85,1.85c3.44-2,.38-9.58,4.13-12.16,3.07-2.12,6.64,1.9,11.89-.27,3.61-1.49,5.82-5,5.42-5.55s-2.85,2.11-7,2.64c-5.95.76-8.31-3.75-11.89-2.38-4.06,1.56-2.76,8.07-7,9.79-3.85,1.57-6.7-3.15-10.34-1.59-4.35,1.86-2.57,9.6-7.49,11.9-2.91,1.36-4.82-.75-7.85,1.15-2.37,1.49-1.91,3.24-4.29,5.72-4,4.19-9.35,3.45-9.32,4.56C440.3,235.94,447.48,238.46,451.39,235.39Zm24.81,76.95c.75.32,1.93-5.83,7.75-10.58s10.05-3.12,12.14-7.14c2.35-4.49-1.9-8.64.52-11.9,2.62-3.52,8.5.17,13.17-3.17,6.68-4.77,4.41-19.23,4-19.27s1,7.22-3.26,11.49c-5.07,5.05-12.73.66-16.18,5.25-2.93,3.91,1.61,8.44-1.44,13.61-2.68,4.55-7.2,2.77-12,7.82C475.79,303.89,475.36,312,476.2,312.34Zm55.69,28.58c.36.56,10.68-3.24,11.09-9.15.26-3.58-3.36-4.9-2.71-8.32.72-3.79,5.43-3.82,6.72-8.47.79-2.85-.8-3.53,0-6.34,1.23-4.31,5.28-3.77,7.49-7.94,2.72-5.12-1.39-9.74,1.55-12.95,2-2.2,4.38-.55,7.23-2.91,4-3.32,3.85-10.34,3.1-10.58s-1,4.32-4.9,7.41-7,1.22-9.31,4c-2.57,3,.61,5.94-1.55,11.64-2,5.32-5.79,5.41-6.71,10.57-.63,3.5,1,4.19,0,6.88-1.66,4.58-6.91,4.27-7.64,7.79-.65,3.21,3.48,4.61,3.5,8.6C539.78,336.76,531.56,340.41,531.89,340.92Zm-8-133.36c-.08.85,4,3,7.37,1.79,3-1.11,2.71-3.85,5.42-4.76,3.56-1.2,5.81,2.92,9.3,1.78,3.08-1,2.5-4.59,5.62-5.75,3.61-1.34,6,2.82,9.89,1.59,3.43-1.09,3.14-4.81,6-5.36,4.14-.78,7.14,6.54,10.85,5.56,2.47-.66,2.22-4.17,4.85-5,3.89-1.18,8.25,5.33,8.91,4.76s-4.51-11-8.91-10.32c-2.53.42-2.62,4.14-5.62,4.76-3.27.69-4.68-3.42-8.72-3.37-3.84.05-4.18,3.79-8.33,4.37-5.08.7-7.75-4.44-11-3-2.91,1.3-2,5.83-4.84,6.94-3.2,1.23-6-3.64-9.3-2.38-2.47,1-1.77,4.06-5,6.35C527.18,207.73,523.94,206.81,523.86,207.56ZM624,164.13c-.76.28-.76,7.21,3.3,10.91s9.1,1.49,10.85,4.76c1.55,2.9-1.87,5.75-.19,8.72,1.79,3.19,6.69,1.68,8.13,4.76,1.2,2.55-1.7,4.54-.58,7.74,1,2.84,3.71,2.45,5.82,5.35,3.39,4.68.39,11.23,1.35,11.5s6.15-7.47,3.68-12.49c-1.7-3.46-5.9-3.35-6.58-6.74-.58-2.84,2.1-4.12,1.35-6.55-1-3.2-6.07-2.35-7.75-6-1.35-2.89,1.35-4.69.19-7.33-1.69-3.9-8.21-1.56-14-6.35C625.34,168.85,624.7,163.88,624,164.13Zm74.11,69a67.28,67.28,0,0,1,16.58,15.29c13.38,17.41,13.63,36.07,14.53,35.89s2.51-24.41-12.59-44.22A60.09,60.09,0,0,0,701.36,226a9.29,9.29,0,0,1-.39,2.77A9.51,9.51,0,0,1,698.15,233.13Z" fill="#fff" opacity="0.6" style="mix-blend-mode:overlay"/><path d="M731.2,307.45c-.11,5.86-.49,18.83-4,46.93-1.63,13.08-4.15,31-8,52.36-8.07-9.71-10.23-18-10.72-23.8-.93-11.24,3-16.44-.26-23.27-3.1-6.39-7.76-6.4-11.11-13.48a13.18,13.18,0,0,1-1.15-3.64,25.26,25.26,0,0,1,12,8.92,28.22,28.22,0,0,1,4.39,10.71c1.81,7.65.26,10.8,1.16,19a56.77,56.77,0,0,0,3.36,13.88c1.85-8,4-18.48,5.81-30.8,2.56-17.26,3.35-30.45,3.88-39.53.81-14,1.38-23.77.64-37.15-1-18.35-1.68-28.75-7.88-40.06a59.57,59.57,0,0,0-16-18.51,15.93,15.93,0,0,1-3.75,3.3,15.72,15.72,0,0,1-7.36,2.38c7-5.3,8.46-9.71,8.52-12.69.12-5.15-3.81-6.78-3.62-12.56.22-6.51,5.33-8.3,4.14-12.69-.94-3.44-5-5.63-8.91-7.8-4.19-2.3-6.37-2.24-7.5-4.63-1.3-2.77.16-5.93-1.16-6.61-.72-.37-1.43.41-2.84.79-2.14.59-4.38-.18-6.46-1.45a8.92,8.92,0,0,0,.77,2.64c2.08,4.32,6.68,4.18,7.37,6.88s-3.54,4-3.49,7.4c.08,4.81,8.45,7,7.88,10.18-.44,2.42-5.5,1.81-7.36,5.55-1.79,3.58,1,7.77.38,8.07s-5.88-5.68-4.26-9.79c1.23-3.09,5.36-2.83,5.69-5.15.41-3-6.52-4.52-7-9.12-.36-3.54,3.45-5.26,2.58-7.67-1-2.86-6.55-1-9.69-4.76-2.49-3-.08-5.52-2.45-9.65-2.73-4.79-7.07-3.38-9.69-8.07-2.29-4.11.55-6.07-1.68-10.18-2.7-5-7.64-3.56-10.59-9-1.86-3.43-.3-4.75-2.46-7.4-2.68-3.3-6-2.42-7.62-5.69-1.07-2.21.07-3.44-1.29-5.42-1.53-2.24-4.78-3.29-5.68-2.38-1.06,1.07,1,4.85,1.68,6.08,2.89,5.3,6.15,6.22,5.81,8.6-.3,2.09-2.94,2.21-4,5.55a7.79,7.79,0,0,0-.26,3.7c1.18,5.47,10.76,4.55,12.79,10.05,1.54,4.18-2.71,8.15-.52,10.71,1.34,1.56,3.14.32,5.94,2.25.21.14,3.51,2.5,3.88,6.21.22,2.32-.9,3.18-1.55,6.35a18.08,18.08,0,0,0,0,7.27,10.46,10.46,0,0,1-3.49-5.29c-1-4,1.45-6.56,0-9.12-.89-1.57-2.29-1.48-6.46-3s-7.38-2.78-9.82-5c-4.49-4.16-2.13-8.16-5.94-11.24-4.24-3.41-8.17.71-13.56-2.11-6.85-3.58-4.73-12.42-10.47-14.68-6.16-2.42-11.79,6.49-17.44,3.84-4.88-2.31-2.56-9.87-8.14-13.09-4.9-2.83-8.59,1.95-15.24-.93-5-2.13-5.12-5.75-9.43-6.87s-8.83,1.39-12,3.83a21.25,21.25,0,0,0,6.33,4.5c6.24,2.86,10.18.77,13,3.83s.32,6.6,3,8.86c3.67,3.12,10.19-2.22,14.21,1.19,1.16,1,.85,1.63,2.32,5.16,2,4.73,4.34,10.36,8.4,12.16,5,2.2,8.62-3.07,12.66-.66,3.62,2.17,1.5,6.95,5.55,10.18s8.47.3,11.5,3.83c1.62,1.9,1.79,4.42,1.94,6.88.35,5.67-2,7.69-.78,9.65,1.84,2.84,7.5-.44,10.72,2.64,3.55,3.39,1.38,11.83.26,11.9-1,.07-.34-5.95-4.26-8.59-3.08-2.08-5.79,0-9.17-2.38a10.72,10.72,0,0,1-3.62-5.42c-2-5.75,1.06-9.05-1-11.64s-5.59.14-9.43-2.64-2.51-6.74-5.82-8.46-5.28,1.62-9.81,1.32c-7.56-.51-8.19-10-15.76-11.5-6.89-1.32-9.69,5.91-16.93,4.23-6-1.39-6.57-6.91-11.49-6.88-5.17,0-5.7,6.14-11.89,7.54-7.16,1.62-11.08-5.49-16.53-3-4.26,1.9-3.28,6.85-8.14,8.59-3.36,1.2-4.75-.81-9.43.53-3.86,1.1-3.39,2.61-6.85,3.44-4.88,1.17-7.86-1.35-10.33.66a5.67,5.67,0,0,0-1.81,3.57,22.17,22.17,0,0,1,4.78-.66c4.42-.16,6.32,1.06,9.56.92a14.61,14.61,0,0,0,7.75-2.77c-5,6-8.88,7.15-11.5,7-2.07-.12-2.83-1-5.3-.79-4.2.33-4.93,3.09-8.65,3.84-4.53.9-5.52-2.76-9.95-2.12-5,.73-5.18,5.62-10.33,6.48-4.51.76-5.88-2.73-9.82-1.46-3.72,1.22-3.56,4.69-7.62,5.82-3.25.92-4.94-.87-7,.4s-2.54,4.81-2.52,7.53c1.4-.69,3.65-1.83,6.4-3.3,5.75-3.11,6.63-3.93,8.65-4,4-.06,4.48,3.11,8.14,3,4.91-.09,7.37-5.87,9.95-4.76,1.72.75,1,3.49,3.62,5.29a7,7,0,0,0,4.52,1.06,9.4,9.4,0,0,0,6.59-3.83,3.84,3.84,0,0,1,3.1,2.64,4,4,0,0,1-.39,3,33.12,33.12,0,0,0-7.75,5c-4.66,4.06-5.14,6.8-9,8.73-4.12,2-5.24-.19-9.69,1.45-5.74,2.12-5,6.22-11.89,11.38-5.79,4.31-8.5,3.07-12.21,7.13a20.21,20.21,0,0,0-4.72,11.64,11.88,11.88,0,0,0,6.34-2c5.18-3.6,3.63-9.6,8-12,4.1-2.28,7.33,2,11.62-.66,3.3-2,2.84-5.37,6.33-7.27,2.7-1.45,5.73-1,7.76-.39a16.88,16.88,0,0,0-7,3.07c-4.31,3.27-3.69,6.3-7.27,8.23-4.34,2.34-7.77-.78-10.75,2-1.73,1.61-.83,2.9-2.62,6.05a17.61,17.61,0,0,1-9.1,7.34c-5,1.67-7.09-.52-11.53,1.78a14.25,14.25,0,0,0-4.75,4.07c-4.33,5.64-1.8,10.71-5.72,14.87-1.83,1.94-2.51,1-5.81,3.08-7.91,5-5.73,11.61-13.56,18.34-3.66,3.14-6.28,3.54-7.85,7.24-.36.84-2.08,4.89.1,7.73,1.16,1.51,3.41,2.67,5.32,2.09s2.18-2.75,5.33-8c2.17-3.63,3.3-5.47,5.33-6.54a10,10,0,0,1,7.36-.4,17.08,17.08,0,0,0,6.59-4.56c4.44-5,3-10,6.59-11.8s6.69,2,10.66-.1a8.71,8.71,0,0,0,3.78-4.66c0,3-.56,6.69-3,8.33-3.13,2.1-6.55-1-10,1.09-2.91,1.82-2,5.09-5.13,9.52a18.72,18.72,0,0,1-7.36,6.05,13.14,13.14,0,0,1-1.26,7.14c-2.66,5.09-7.47,4.42-9.89,8.83-2.67,4.87,1.9,8.14-.48,13.18-2.79,5.92-10.27,4-12.5,9.82-1.76,4.58,1.9,8.45-.87,11.9-1.31,1.63-2.55,1.28-4.94,3.77-1.08,1.12-3.76,3.9-3.1,5.65,1,2.76,10.53,3.43,13.08-.5,1.74-2.68-1-5.59.77-8.13,2.21-3.1,7.16.19,11.53-3.07,3.69-2.76,2.61-6.92,6.69-9.42a10.11,10.11,0,0,1,6.1-1.29c-.95-1.64-4.12-7.55-2.23-13.78a19.31,19.31,0,0,1,4-6.85c2.38-2.49,4.24-2.77,5.62-5.15a10.11,10.11,0,0,0,1.07-6.45c1.37,2,2.8,4.82,1.94,7.34-.54,1.59-1.57,1.82-4,4.07s-5.95,5.57-6.11,9.42c-.08,2.07.86,2.3,1.75,5.75a23.65,23.65,0,0,1,.48,9.12c-1.4,8.7-10.1,10.64-9.4,16.76.29,2.6,1.86,2.27,2.23,5.45.5,4.35-2.29,6.28-1.45,10.81.37,2,1,1.88,1.26,4,.09.71.41,3.48-1.46,7.73-2.7,6.16-6.42,7.36-5.91,10.61.27,1.72,1.38,1.76,1.55,3.77.23,2.61-1.46,4.87-2.42,6.15-2.19,2.93-4.11,3.37-4,4.76s2.49,2.34,3.39,2.67a10.61,10.61,0,0,0,7.27-.19c-.57-5,.61-7.36,1.84-8.63,1.77-1.83,4.72-2.39,4.94-4.46.08-.83-.35-1.09-.39-1.89-.07-1.3.95-3.23,6.1-5.85a8.67,8.67,0,0,0-2.32,3.08c-1.15,2.65-.05,4.16-.58,6.54-.93,4.16-5.24,3.63-6.49,7.54s2.63,5.8,1.64,10.71c-.76,3.79-3.44,4.45-3.48,7.43s2.85,5.73,5.32,7.44c-.37-1.94-.56-4.64.88-6.84,1.54-2.38,3.47-1.89,4.84-4.17,1.9-3.16-.82-5.79,1.07-8.92,1.27-2.11,3-1.69,5.23-3.87a13.06,13.06,0,0,0,3.58-7.73c5.09,5.59,5.75,9.53,5.23,12.19-.75,3.85-4,5.34-3.58,9s3.68,4.24,3.39,7.14c-.32,3.16-4.4,4-4.16,6.84.09,1.18.86,1.41,2.42,3.57.42.57,2.84,3.93,3.39,7,.7,4-1.68,7.61-3.1,9.42a12.44,12.44,0,0,0,7.55-1.49c1-.59,5.24-3.18,5.72-7.34.28-2.41-1-3.05-1.55-7.73a23.24,23.24,0,0,1-.19-5.26c.8-7.36,8-9.31,7.26-14-.41-2.71-2.88-2.61-3.68-6.34a11.58,11.58,0,0,1,1.07-7.14,15.33,15.33,0,0,1,7.26-7.44A13.92,13.92,0,0,1,448,391.7c2.1-4,5.39-4.43,5.53-7.14.16-3.06-4-3.71-4.85-8.33a12,12,0,0,1,1-6.54c1.55-4.2,3.59-4.49,4.65-7.54,1.78-5.07-1.76-10.14-1.76-10.75a13.27,13.27,0,0,1-5.8,6.88c-3.15,1.63-5.23.58-6.78,2.38-2.31,2.7,1,6.61-1.16,10.41-1.64,2.86-4.09,1.69-7.56,4.66-4.67,4-3.15,8.68-6.68,11.8-2.05,1.82-6,3.29-14.34.9,6.53-4.75,7.88-8.48,7.75-11.11-.16-3.4-2.8-5.07-2-8.13.87-3.44,4.6-3,6-6.45,1.89-4.61-3.64-8.26-1.94-13,1.4-3.89,5.59-2.66,7.95-6.95,2.74-5-1.77-8.84.87-14.47,2.07-4.42,5.39-3.22,7.56-7.64,2.95-6-1.77-11.14,1.26-14.57,2.45-2.79,6.46-.45,10-3.57,2.46-2.2,3.06-5.62,3.19-8.14.49,4.3.48,9.83-2.71,12.2-2.63,1.95-5.32.22-7.36,2.28-3,3,1.35,8.28-1.36,14.18-2.12,4.61-5.66,3.35-7.85,8-2.59,5.56,1.56,9.08-1.16,14-2.46,4.43-6.86,3.33-8,7.14-1.44,4.65,4.43,8.45,2.61,12.5-1.27,2.83-4.77,2.37-5.52,5.25-.64,2.48,1.66,3.93,1.94,6.75.24,2.4-1,5.88-7.46,10.61,6.86-.8,9.82-3.25,11.24-5.46,2-3.08.71-5.27,3.1-8.53,3.06-4.15,6.83-2.83,8.43-6.24,1.9-4.09-2.33-8.57-.39-10.61,1.48-1.54,4.3.65,7.94-.4s5.71-4.47,7-7.24c-.28-4.76,1-7.24,2.33-8.62,2.26-2.33,4.8-1.61,6.1-4,1.45-2.63-1.1-4.66.19-8,1.11-2.9,3.31-2.17,5.24-5.36,2.34-3.88.06-6.59,2.51-9.62,1.88-2.31,3.63-1.26,5.43-3.47,2.64-3.22-.18-6.67,1.55-10.41,2.52-5.43,10.43-2.4,14.63-7.83,4.53-5.86-1.2-13.91,3.1-17.75,4.06-3.64,11.17,1.76,14.73-2,3.11-3.32-1.1-8.81,2.32-12.94,3.09-3.73,8.41-1.57,10.85-5.66,1.33-2.21.4-3.92.78-6.64.47-3.45,3-8.15,12.59-13.09a19.1,19.1,0,0,0-7.46,8.13c-2.93,6.48,0,11.48-3.58,15.17-3,3.13-6.3.8-9.21,4-3.81,4.17.22,10-3.1,13.59-3.9,4.23-11.75-1.39-15.89,2.72-3.92,3.91,1.4,10.75-2.81,16.41-3.78,5.12-10.11,2.25-13.17,7.64-2.34,4.12,0,8.15-3.3,11.2-2,1.85-3.57,1-4.94,3-2,2.82.62,5.51-1.16,8.92-1.56,3-4.11,2-5.62,5-1.86,3.63,1.28,6.62-.68,9.42-1.54,2.19-4.07,1.21-6.1,3.67A8.45,8.45,0,0,0,455,348.1c8.94-1.07,12.27-4.1,13.63-6.74,2.21-4.32-.26-8.67,2.9-12.1,2.24-2.42,4.1-.9,7.88-3.3,5.35-3.41,3.88-7.89,8.72-11.24,5-3.49,8.75-.09,12.08-3.44,4-4,0-10.4,3.88-13.88s9.88.86,13.43-3c2.47-2.66.47-5.75,3-7.73,3.14-2.5,7.34,1.58,12.14-1.06,2.37-1.3,2.17-2.75,4.72-4.62,3.43-2.53,7.53-2.66,10.46-2.38,3-.65,6.86-2.05,9-5.49,2.75-4.44-.18-7.89,2.39-12.5,2.94-5.25,8.12-3.21,12.21-8.85,3.45-4.77,1.2-8.23,4.07-12.43,2.05-3,6.55-6.12,17.44-6-.86-2.21-2.38-5-5.11-6.08-4-1.63-6.81,1.93-10.91.6-4.91-1.6-4-7.71-8.27-9.13-5.35-1.76-9.21,6.92-16.41,5.89-5.33-.77-5.7-5.92-10.26-6-6.28,0-7.77,10.7-14.93,10.11-4-.33-6.23-3.38-11-2.58-3.18.53-3.24,2-7.94,3.77-3.4,1.25-7.21,2.66-10.66,1.19-5.13-2.18-6.26-9.35-6.4-10.31a22.88,22.88,0,0,0,11.05,0c2.89-.74,6-1.54,7.56-4.17,2-3.44-.62-6.62.77-9.12,1.25-2.25,5.64-3.69,18.8-.79-11.73-.5-15,1.41-15.7,3.37s.85,4-.39,7.34a11.48,11.48,0,0,1-2.52,3.77c-3.27,3.26-9.52,3.94-16.08,2,4.65,4.26,8.13,4.85,10.46,4.56,4.87-.58,6-5,11.63-5.95,4.87-.78,5.58,2.27,10.27,1.79,7.47-.78,8.65-8.8,15.12-9.13,5.41-.27,6,5.27,12.4,5.95,8.12.87,12.67-7.5,17.44-5.15,3.34,1.65,1.87,6.17,5.81,8.52s7.05-1.46,12.79.2,5.21,6.49,10.85,8.33,8.62-2.4,15.69-1.78c3.35.29,8,1.72,13.37,6.94a19,19,0,0,1-8.62.1c-5.1-1.19-5.74-3.79-8.91-3.87-5.92-.15-7.05,8.78-13.86,9.82-5.26.8-6.9-4.2-13-3.18-5.5.93-8.78,5.8-9,6.15-2.68,4.12-.62,6.06-3,10-3.44,5.71-9.24,4.15-11.05,9-1.47,4,1.89,6.32-.09,10.81a12.53,12.53,0,0,1-5,5.25c-4.06,2.57-6.47,1.18-7.84,3.28-1.68,2.55,1.49,5.22,0,9.32-1.17,3.19-3.47,2.65-4.85,5.85-1.85,4.29,1.63,6.85.1,10.8-1.73,4.49-7,3.17-8.82,7.44-1.94,4.52,3.18,7.7,1.55,13.69-1,3.52-3.07,3.68-5.81,8.52A28.37,28.37,0,0,0,528.71,351a17.13,17.13,0,0,0,7.65-2.78,18.23,18.23,0,0,0,5.72-6.35c2.46-4.34,1.19-5.78,3.49-9.91,2.1-3.78,3.4-3,6.1-7,3.56-5.33,1.68-7.24,4.75-11,3.65-4.48,7.18-2.86,9.69-7.14,2.14-3.66,0-5.71,2.32-9.42s4.78-2.4,8.24-5.95c5.14-5.29,2.29-11,7.17-14.33,2.7-1.85,4.07-.44,8.13-2.92,3.56-2.17,3.22-3.68,6-5.46,5.25-3.33,8.48.74,14.24-2,5.4-2.54,5.31-7.43,9.89-7.83,2.61-.23,3,1.33,7.26,1.58,2,.12,5.34.32,8.14-1.68,3.94-2.82,4.23-8.11,4.26-9a23.73,23.73,0,0,1-.19,7.14,24.52,24.52,0,0,1-1.26,4.47l6.78,1.28c3.12-.47,17.92-2.36,31.49,7.74A46.49,46.49,0,0,1,694.77,295c1,3.9,1,6.32,1,17.85,0,1.22.12,26.26.14,29.67-.37-2.34-.27-5.34-.65-12-1.33-22.71-5-33.86-5.95-36.49a60.56,60.56,0,0,0-3.23-8c-9.22-17.88-35.69-22.22-47.4-23.44a13.93,13.93,0,0,1-8.4,2.25c-3.48-.31-4.08-2-6.59-1.86-4.84.3-5,6.76-10.72,8.75-5.1,1.79-7.83-2.4-12.14,0-3.47,1.92-2.79,5.2-6.46,6.86s-5.84-1.17-8.53.39c-4.18,2.43-.59,10.17-5.42,15.34-3.37,3.6-7,1.85-9.31,5.68-2.19,3.63.53,6-1.42,9.66-2.68,5-9,2.67-12.4,7.8-2.72,4.11.41,7-2.58,11.37-2.82,4.09-6.6,3-8.91,7.14-1.89,3.4-.26,5.77-1.17,8.85-1,3.46-5.16,7.58-19.63,9.79a23,23,0,0,1,2.58-12.83c2.54-4.56,5.12-4.83,5.81-8.59.8-4.35-2.34-5.77-2.19-12.43,0-2.5.11-4.94,1.68-7.14,2.33-3.27,5.38-2.33,7.1-5.42,1.47-2.61-.39-3.88.91-7.8s3.33-3.27,4.39-7c.76-2.7-.08-3.84.77-8.72a34.22,34.22,0,0,1,.78-3.44,13.84,13.84,0,0,0-5.56,1.06c-4.21,1.78-4.14,4.4-7.49,5.95-5.1,2.34-9.84-1.63-11.88.92-1,1.2-.1,2.29-1,4.89a11.2,11.2,0,0,1-4,5.16,54.54,54.54,0,0,1-1.16,13.62,12.4,12.4,0,0,1-1.42,4.1c-1.94,3.16-4.22,2.78-7.24,6.21a26.07,26.07,0,0,0-3.23,5.16c-1.94,3.58-1.79,4.34-2.84,6.21-3,5.36-7.07,4.29-11.5,10.18a21.24,21.24,0,0,0-3.1,5.82c-2.2,6.65,1.08,9.13-.77,13.62-2.31,5.57-8.45,4.35-10.21,9.91-1,3.24,1,3.87.39,9.52-.27,2.41-.75,6.92-3.88,10.18-2.9,3-5.28,2.07-6.45,4.63s1.06,3.81.9,9.39a16,16,0,0,1-1.81,7.53c-1.32,2.4-2.38,2.57-3.1,4.1-.91,2-.89,5.36,3.49,11.64-6.32,1.61-12.6,0-15.63-4.24-2.33-3.22-3.52-9-1.55-13.22.87-1.85,2.45-3.61,1.94-5.81a5.12,5.12,0,0,0-1.94-2.78c-.58.14-5,1.26-6.07,4.63-.77,2.5.57,5.54,1.16,6.87a18.74,18.74,0,0,1,1.42,3.18,10.16,10.16,0,0,1,.26,4.56c-.53,2.59-2.18,3.07-4,5.75a18.33,18.33,0,0,0-2.71,7.67c-.53,5.08,2.15,6.09,1.81,10.31a13.25,13.25,0,0,1-7.49,10.31c-6.6,3.17-12.8-.8-13.18-1.06,3.49-4.87,3.75-8.28,3.23-10.57-.76-3.4-3.1-3.8-3.75-7.41-.76-4.27,2.32-4.94,2.33-10.44,0-5-2.48-6.76-1-10.45.59-1.51,1.35-2.09,1.67-4a9.85,9.85,0,0,0-.77-5.56,15,15,0,0,1-3.88,3.71c-1.48,1-2,.93-2.58,1.71-1.42,2,.88,4.26.13,7-.86,3.15-4.6,2.86-7,6.22-1.13,1.59-2.19,4.36-1.29,9.38-4.29-.57-7.8-3.21-8.91-6.74a9.39,9.39,0,0,1,0-5.82c.6-1.63,1.38-1.93,1.81-3.3s.46-3.33-1.42-6.48a7.5,7.5,0,0,1-7.75.13,7.62,7.62,0,0,1-3.75-6.21c-.09-3,1.84-5.21,2.58-6.08,1.08-1.26,1.42-1.05,1.81-1.86,1.25-2.55-2.17-4.72-1.94-8.32.18-2.55,1.95-2.42,5.3-8.2,1.77-3.05,2.65-4.62,2.71-6.88.09-3-1.39-3.32-1.42-6.48C395,367,397,366.45,397,363s-2.05-3.61-2.33-7.28c-.24-3.23,1-8.2,4.27-10.84,1.06-.85,2.55-1.63,3.1-3.43a5.46,5.46,0,0,0,0-2.91,5.57,5.57,0,0,0-4.52.53c-1.6,1.14-1.22,2.82-2.72,5.42a11.74,11.74,0,0,1-5.42,5c-3.6,1.41-6.18-.59-7.37.93-1.06,1.36.84,3.2.13,6.34a8.74,8.74,0,0,1-3.61,5c-4,2.64-9.41,1-12.53-1.72-.76-.67-4-3.52-3.36-6.35.65-3,5-2.57,7.49-6.87.76-1.29.51-1.57,1.68-7.14,1.23-5.88,1.85-8.81,2.58-9.79,3.62-4.8,11.21-2.71,12-5.95.43-1.71-1.63-2.6-2.33-6.87a9.87,9.87,0,0,1,0-4.89c1.57-4.73,8.19-4.12,10.34-8.86a8.69,8.69,0,0,0,.13-6.08c-2.29-.88-4.61-1.24-6.33-.14s-1.58,3.08-3.75,7.54c-1.71,3.53-2.88,5.91-5.17,6.61-3.2,1-6.4-1.94-6.59-2.11-3.79-3.57-2.71-9.63-2.45-11.11a9.71,9.71,0,0,1,1.29-3.83c1.78-2.84,4.2-2.79,7.49-4.76a22.54,22.54,0,0,0,8.14-9.26c2.23-4.31,1.06-5.37,3.23-8.33,2.89-3.91,5.49-2.75,8.14-6.08,3.55-4.45.67-8.75,3.49-13.22,1.47-2.34,4.67-5,12.53-5.69a24.89,24.89,0,0,1,4.51-14.14c4.13-5.65,10.41-8.4,11.76-9,2.5-1.09,3.13-.95,4.78-2.12,3.18-2.26,3.26-4.49,7.24-8.19a13.35,13.35,0,0,1,3.87-2.91c3.48-1.57,5.61-.22,8.53-1.06,1.86-.53,4.37-2,6.72-6.61a18.16,18.16,0,0,1-3.23-1.59c-3-1.85-3.3-3.22-4.91-3.57-2.39-.52-3.33,2.14-6.46,2.91-3.95,1-5.52-2.5-9.82-3-7.69-1-12.54,9-16,7.11-2.5-1.36-1.72-7.51-1.19-9.89.41-1.86,1.25-5.62,4-6.87,2.27-1,3.43.74,6.58.26,4.11-.61,4.07-3.91,8-5.15,5-1.58,7.53,3,12.28,1.19,3-1.15,3-3.36,6.2-5.16,3.69-2,7.92-1.45,11.11-.53-.35-4.91.93-7.17,2.19-8.33,3.26-3,8.2-.19,13.44-3.3,3.12-1.87,2.24-4.36,4.91-5.42,3.77-1.52,6,2.5,10.33,1.71,4.65-.83,4.06-5.78,10.33-8.59.81-.36,6.92-3,11.37-.26,2.06,1.26,2.06,2.63,3.75,2.91,2.39.39,3.6-2.13,8.65-5.29,3.11-1.95,4.68-2.92,6.46-2.91,4.13,0,4.77,4.15,9.56,5.29,3.47.82,4.69-1,9.95-1.59a28.22,28.22,0,0,1,11.94,1.3c0-1.38-.2-3.49-1.61-4.74-3-2.67-8.16,1.73-12-.66-3.5-2.17-1.15-7-4.91-10.44-3.29-3-6.42-.6-12.92-3.18-4.34-1.72-10.49-5.79-10.07-9.52.45-3.94,8.08-5.81,12.91-7,4.67-1.15,10.42-2.56,14,.53,2.25,2,1.62,4,4.13,5.42,2.34,1.31,3.93.11,8.65.39,3.37.2,5.59.34,7.5,1.59,5.17,3.39,2.8,11.52,7,13.35,1.93.85,2.81-.72,8.53-2,5.54-1.22,9.09-2,12-.4,5.16,2.85,3.21,10.36,8.66,13,2.54,1.21,3.08-.36,7.23.79a18.46,18.46,0,0,1,13.18,15.08c2.71-1.67,3.31-3.1,3.36-4.1.06-1.59-1.28-2.11-3-5.56-1.33-2.7-.86-3.1-1.81-4.09-2-2.05-4.28-.6-6.33-2.38-1.89-1.65-2.18-4.81-1.81-6.88.73-4.2,4.37-5.23,3.87-7.54-.39-1.87-2.88-1.61-6.33-4.49-1.4-1.17-5.17-4.32-4.78-7.67.41-3.51,5.23-5.76,8.66-6.21,4.48-.6,9.8,1.46,11.37,5.15,1.08,2.56-.46,3.94.9,6.22,1.65,2.77,4.59,1.8,7.11,4.49,2.34,2.5.72,4.33,2.58,8.2,3.06,6.35,9.27,5.18,10.59,10.44.75,2.94-.79,4.83.78,8.73a12.93,12.93,0,0,0,2.06,3.44c2.43-.75,6-1.4,8.66.39,3.43,2.29,2.56,6.47,5.94,8.33,3.75,2.06,7-1.89,10,.14,3.36,2.33.5,8.63,4.53,11.87,1.64,1.33,2.27.42,5.67,1.88,2,.86,6.28,2.67,8.66,7.27.23.44,3.26,6.5.77,11.5-1.54,3.09-4,3.45-4.26,6.21-.18,2.09,1.14,2.87,1.94,5.69a14.44,14.44,0,0,1-.26,8.2,46.89,46.89,0,0,1,16.92,15.07c4.34,6.45,6.14,12.78,7.88,22.34A236.41,236.41,0,0,1,731.2,307.45Zm-218.06-7.6c-2-.36-4.65-.43-6.52,1.12-3.64,3-.42,8.89-3.88,12.89s-8.05.29-13,4.56c-3.9,3.37-2.2,6.68-6.59,9.92-3.47,2.56-6,1.56-7.94,4.36-1.76,2.55-.13,4.07-1.36,7.54-2.29,6.5-10.78,9.07-13.56,9.91a27.35,27.35,0,0,1-7.73,1.19c.63,0,7.11,8,4.82,14.58-1.43,4.07-5,4.1-5.52,7.63-.68,5,6.12,7.36,5.33,12-.61,3.53-4.75,3.45-6.49,8.73a14.32,14.32,0,0,0-.49,6.44c.6,4.49,2.73,5,2.81,8.43s-2.08,3.71-2.52,7.83c-.14,1.26-.44,5.94,2.81,9.52a11.45,11.45,0,0,0,8,3.57c-4.25-6.45-4.37-10.54-3.39-13.18,1-2.85,2.92-2.87,4.46-6.25,2.3-5.07-.73-7.57.68-13.09,1.56-6.12,5.86-5.28,8-11.7,2.25-6.67-1.7-9.6,1.16-13.88,2.64-4,7.13-3.17,9.3-7.94.7-1.54.56-2.34.87-5.35s1-9.7,3.2-14.28c2.62-5.46,5.38-3.81,11.63-11.44,3.88-4.73,2.78-5.34,7-10.37,4.78-5.73,7.08-6,8.79-9.79C514.23,310.25,515.07,306.18,513.14,299.85Z"/></g></g></g></svg>