<svg xmlns="http://www.w3.org/2000/svg" viewBox="0 0 1080 1920"><g style="isolation:isolate"><g id="hair"><g id="_4" data-name="4"><path d="M442.66,436.56a131.09,131.09,0,0,1-16.36-37.81c-3.67-14.53-3.86-26.09-4.15-43.66A363.1,363.1,0,0,1,423.72,315c-7-10.2-8.71-22.15-4-31a22.27,22.27,0,0,1,7.09-7.79,61.08,61.08,0,0,1,9.4-54.56,59.28,59.28,0,0,0,5.52,9.13,58.67,58.67,0,0,0,6,6.92A72.68,72.68,0,0,1,455.5,214a71.18,71.18,0,0,1,18.82-22.47c0,3.79.11,7.77.49,11.94.08,1,.18,2,.29,2.91a63.35,63.35,0,0,1,13.13-15.85,62.06,62.06,0,0,1,11.56-7.92,77.39,77.39,0,0,0,1.28,13.24c.42,2.29.92,4.43,1.47,6.42a51.42,51.42,0,0,1,15.38-16.65c8.59-5.82,16.77-7.31,25.68-8.93a102.34,102.34,0,0,1,23.52-1.5q-3.42,4.19-6.86,8.62-3.87,5-7.45,9.83a67,67,0,0,1,17.64-10.13c6.14-2.35,9.73-2.61,23.81-7.22,5.49-1.8,8.54-2.93,11.86-5.62A29.24,29.24,0,0,0,614.25,160a223.83,223.83,0,0,1,15.68,17.45c5.22,6.48,7.71,10.34,9.31,15.55a36.77,36.77,0,0,1,1.57,9.63A25.08,25.08,0,0,0,653,198.67a25.78,25.78,0,0,0,8.13-8.43,36.32,36.32,0,0,1,5.29,18A25.65,25.65,0,0,1,664.91,219a25.17,25.17,0,0,1-6.07,9.43,47.32,47.32,0,0,1,42.82-11.83,20.61,20.61,0,0,0-2.25,9.12A21,21,0,0,0,703,237.68a14.76,14.76,0,0,0,4.9-4.41,15.15,15.15,0,0,0,2.06-4.22,73,73,0,0,1,6.27,25.48,28.79,28.79,0,0,1,4.8,10.33,29.23,29.23,0,0,1,.3,12.33A27.93,27.93,0,0,1,728,287.52c4.2,11.63-1,22.22-2.06,24.28A168.45,168.45,0,0,1,728,339.28c-.08,9.34-.94,17.07-2.65,32.39-.21,1.95-1.22,11-2,16.75-1.58,10.91-5.19,28.51-14.51,52.35-.32-18.94-.2-32.85,0-42.82.16-7.74.45-16.8-3.23-27.89a66.18,66.18,0,0,0-6-13,165.34,165.34,0,0,0-2.94-29.49c-2.12-11-4.06-20.59-10.68-30.79-3.22-4.95-6.09-9.27-11.56-12.44-5-2.88-11-3.15-22.93-3.71-10.76-.49-16.14-.74-22,.41-4.74.93-8.62,2.31-15,2.1a41.45,41.45,0,0,1-9.8-1.5,42.91,42.91,0,0,1-32.92,6.62,42.12,42.12,0,0,1-16.66-7.83c-2.8-.22-6.95-.58-12-1.2-13.38-1.65-15.27-2.89-23.51-3.81a96.59,96.59,0,0,0-29.5,1.1,86.09,86.09,0,0,0-16.76,5.32,109.94,109.94,0,0,0-12.54,21.46c-4.72,10.74-6.58,19.71-8.23,27.88a178.54,178.54,0,0,0-3.14,23.67,87.13,87.13,0,0,0-6.37,19c-1.65,7.82-1.83,14.06-1.51,30.3C441.82,413.07,442.12,424,442.66,436.56Z" fill="#42210b"/><path d="M609,280.93c4.59-.06,8.8-.18,12.59-.33C616.07,281.67,612.9,282.21,609,280.93Zm97.08-39.41a39.63,39.63,0,0,1-9.5,6.55,39.21,39.21,0,0,1-12.14,3.68,41.74,41.74,0,0,0,8.65-5.07,42.32,42.32,0,0,0,5.82-5.36,30.08,30.08,0,0,1-5.62-18.24,86.23,86.23,0,0,0-23.83,3.77,87.31,87.31,0,0,0-21.13,9.71,35.26,35.26,0,0,0,11.63-21,34,34,0,0,0-1-14.28,92.56,92.56,0,0,1-14.33,6.55c-5.22,1.85-7.94,2.26-13.18,4.36A75.43,75.43,0,0,0,620,217.92a37,37,0,0,1,6.2-6.35A36.32,36.32,0,0,1,635.9,206a40.32,40.32,0,0,0-14.53-27.56,33.37,33.37,0,0,1-.19,15.46A32.9,32.9,0,0,1,612.65,209a33.55,33.55,0,0,0-.58-36.89,46.56,46.56,0,0,1-12.59,10.31c-7.86,4.35-12.42,3.71-25,7.14-12,3.27-18,4.9-23.25,9.32-3.48,2.92-10.11,9.9-12.41,25.19a48.54,48.54,0,0,1,1.79-13.1c2.25-8,6-13.45,9.64-18.63a93.08,93.08,0,0,1,9.12-11.11c-3.2.32-7.84.9-13.38,2-10,2-16.49,3.24-22.86,6.94-3.8,2.21-10.91,7.22-16.66,18,.94,2.63,2,5.35,3.1,8.13,1.24,3.07,2.52,6,3.8,8.75-1-1.15-2.56-2.87-4.39-5-5.59-6.46-8.42-9.75-9.88-12.49a29.81,29.81,0,0,1-3.29-12.89,142.58,142.58,0,0,0-14.15,15.07c-3.27,4-6.09,8-8.53,11.7-.54-1.52-1.07-3.18-1.54-5a57.73,57.73,0,0,1-1.75-10.71A48.58,48.58,0,0,0,458,220.9a49.7,49.7,0,0,0-5.24,19.83A24.28,24.28,0,0,0,458,243.9a23.5,23.5,0,0,0,8.32,2,25.8,25.8,0,0,1-12.4.6c-9.78-2-15.26-9.14-16.66-11.11a47.09,47.09,0,0,0-6,18.45,48.12,48.12,0,0,0,4.26,25.38c-1.63.37-7.31,1.88-9.88,6.94-1.71,3.36-1.2,6.64-.39,11.5a54.55,54.55,0,0,0,5.61,16.46c-.44,5.19-1,12.88-1.35,22.22-.59,16.88-1,29.72,1.35,45.21a156.68,156.68,0,0,0,8.21,31.14c-.22-2.9-.36-6.1-.38-9.57a114.14,114.14,0,0,1-2.21-24.54c.35-16.75,4.17-15.67,3.71-31.37-.29-9.72-2-19.63,3.68-29.69a32.12,32.12,0,0,1,2.7-4,13.31,13.31,0,0,1-5.63-5.16,13.87,13.87,0,0,1-1.94-7.53,10.75,10.75,0,0,0,7.93,2.23,10.32,10.32,0,0,0,5.25-2.43,19,19,0,0,1-11.43-4.17,19.67,19.67,0,0,1-6.4-9.51,30.79,30.79,0,0,0,12.6,3,30.35,30.35,0,0,0,10.27-1.59,23.12,23.12,0,0,1-17.63-7.73c-7.84-9-5.08-20.5-4.85-21.42a41.08,41.08,0,0,0,15.7,13.49,39.71,39.71,0,0,0,18,4,29.58,29.58,0,0,1-7.35-13.28c4.05,4.79,7.87,6.46,10.46,7.14,4.2,1.09,7,0,16.47-.8,4.36-.39,7.9-.53,10.08-.59a33.29,33.29,0,0,1-6.78-9.32,34.41,34.41,0,0,1-3.3-11.11,50.35,50.35,0,0,0,23.83,17.06,49.13,49.13,0,0,0,27.32,1,41.64,41.64,0,0,1,0-12.1,40.86,40.86,0,0,1,4.08-12.69c.2,2.78,1.61,17.6,13.75,27,2.94,2.26,11.18,8.63,22.09,6.54,10.59-2,16.17-10.57,17.24-12.29a28.09,28.09,0,0,0,12.79,6.94A28.58,28.58,0,0,0,628,267.7c11.38-5.3,16-15.87,17-18.64a23.41,23.41,0,0,1-1,12.69,22.27,22.27,0,0,1-3.68,6.35,56.09,56.09,0,0,1,32.75,9.12,56.44,56.44,0,0,0,21-13.67A58.13,58.13,0,0,0,706.94,243C706.61,242.42,706.31,241.93,706.05,241.52Zm9.24,38.2a41.06,41.06,0,0,0-1.3-18.17,14,14,0,0,1-1.93,5,13.56,13.56,0,0,1-1.5,1.94h0A40.7,40.7,0,0,1,700,284.56a20.78,20.78,0,0,0,15.25-4.84ZM719,311.13A24.24,24.24,0,0,0,715,281.58c.12-.57.22-1.19.32-1.84a27.85,27.85,0,0,1-5.85,11.92,26.79,26.79,0,0,1-6.87,5.79,19,19,0,0,0,14-4c-.07,9.86-2.77,14.17-5.49,16.22-1.74,1.31-4.48,2.47-5.35,5.4a8.65,8.65,0,0,0,.57,5.55c.66,1.89,1.21,6.88,2.33,16.86.91,8.13-.28,8.09.39,15.27.75,8.16,2.57,11.35,5,20.62a153.1,153.1,0,0,1,3.92,20.22,275.9,275.9,0,0,0,3.45-56.71C721.08,330.61,720.49,321.74,719,311.13ZM595.79,269.68a16,16,0,0,0,2.53,7.93,14.56,14.56,0,0,0,2.13,2.58A45.74,45.74,0,0,1,577.78,285c-4.53-.25-16.63-.92-26-10.51a35.27,35.27,0,0,1-7.95-13.09,25.37,25.37,0,0,0,2.33,10.12,25,25,0,0,0,3.88,5.95,111.63,111.63,0,0,0-41.28-6.94c-9.38.29-19.71.62-29.45,5.94A47.42,47.42,0,0,1,473,279.6a43.58,43.58,0,0,1-20.55,2.58,20,20,0,0,0,17.25,1.19,128.08,128.08,0,0,0-12.6,23.79,130.93,130.93,0,0,0-9.29,46.61,135.69,135.69,0,0,0-9,49.33c.6,3,1.34,6.11,2.25,9.37a116,116,0,0,1,8.92-60.29c-.19-13.07,1.72-31.47,11.43-50,4.94-9.44,9.79-18.67,20.15-24.4S502.32,273,522.16,275a210.92,210.92,0,0,1,33.14,6.14,58.47,58.47,0,0,0,32.16,4.17A56.6,56.6,0,0,0,601.8,281c2.49,0,4.87,0,7.17-.06-.32-.1-.64-.21-1-.34C602,278.26,598.11,273.42,595.79,269.68Zm111.81,1.19a13.57,13.57,0,0,0,2.95-2.41h0a38.85,38.85,0,0,0,1.89-8.09,40.29,40.29,0,0,0-3.88-22.61c-.36,1.38-.88,3.17-1.63,5.24a29.44,29.44,0,0,1,3.76,12.21A29.77,29.77,0,0,1,707.6,270.87Zm10.31,122.75q-.93,5.61-2.15,11.48c-1.8,8.57-3.68,15.52-5,20.07.17-9.62.27-20.95.13-33.72-.12-12.32-.37-17.67-2.9-24.39-2.21-5.85-4-7.05-6-13.29-2.47-7.62-1.18-10-2.32-21-.94-9-2.39-21.71-9.89-33.72a55.13,55.13,0,0,0-6.2-8.13,24.53,24.53,0,0,0,19.26-2.61,71.13,71.13,0,0,1-22.74-1.55A46.84,46.84,0,0,0,665.36,279c-11.43-3.53-22.73-1.88-34.88,0-3.6.56-6.5,1.14-8.92,1.6,4.78-.18,8.87-.4,12.21-.61,16.74-1,22.2-2.2,30.81.6a45.36,45.36,0,0,1,20.35,13.29c7.2,8.36,9.23,18.65,13,38.87,1.89,10.19,2.92,18.63,3.49,24.19a89.83,89.83,0,0,1,5,14.88c2.09,8.56,2.2,14.5,2.9,29.35.26,5.45.7,14.07,1.36,24.95l7.56-29.52C718.15,395.58,718,394.59,717.91,393.62Z" fill="#fff" opacity="0.5" style="mix-blend-mode:overlay"/><path d="M474,215.14a44.32,44.32,0,0,1,3.29-5,43.78,43.78,0,0,1,9.21-9,73.71,73.71,0,0,0-9,23.21,74.58,74.58,0,0,0-1,23.8,46.6,46.6,0,0,1-8.24-19.94,47.41,47.41,0,0,1,4-27.36Zm28.26-8.23a51.37,51.37,0,0,0,4,8.43c2,3.28,3.61,6.09,6.69,8.86,2.62,2.35,4.08,2.73,5.71,5.22a14.41,14.41,0,0,1,2.14,5.75,25.91,25.91,0,0,0-.1-11.78c-1.33-5.28-3.8-7.27-5.52-11.62-1.45-3.65-2.48-9.28-.2-17.65Zm159.6,11.21A67.09,67.09,0,0,1,651.7,232.3a52.08,52.08,0,0,1-8.92,7.34,58.31,58.31,0,0,0,17.64-5.06,59.3,59.3,0,0,0,16.47-11.5q-6.06,2.79-12.59,5.51-5,2.07-9.79,3.91C660.68,220.83,662,218.17,661.87,218.12Zm-63.94,30.21a48.49,48.49,0,0,1,13.56-22.08c-3.32,2.1-11.63,8-15.11,18.91-3.36,10.49-.61,20.5-.13,20.49S595.4,257.69,597.93,248.33Zm58.39,17.58c12.29-5.05,19.64-14.75,19.25-15.21s-6.65,6.65-18.74,12.17c-11,5-19.6,5.53-19.5,6.08S646.62,269.9,656.32,265.91Zm-216.64-21A25,25,0,0,0,444.07,258a24.48,24.48,0,0,0,14.21,9.65A61.58,61.58,0,0,1,446.53,256,62.23,62.23,0,0,1,439.68,244.89Zm51-16.92c1.86-.38,4.19,5.47,5.29,5,1.31-.52-1.34-9-.13-9.52.93-.39,3.23,4.25,6.59,8.86,6.47,8.88,14.36,14.26,14.86,13.75S511.53,240.43,505,230c-6.41-10.26-9-19-10.92-18.54-.74.2-1.1,2.25-1.81,6.35s-.83,7.27-1.17,7.27-.41-1.46-.51-2.25c-.77-6-1.44-11.22-1.94-11.24s-1.48,6.5-1.68,14.15c-.24,9.38.72,16.41,1.16,16.4C488.73,242.1,488,228.53,490.71,228Zm56.84-4.36c-.64,0-1.95,9.57,1.8,19.3,3.06,7.91,8.43,13.29,8.92,13s-3.4-5.33-6.59-14.28C547.92,231,548.11,223.56,547.55,223.61Zm6.2-6.88c.31.27,3.92-5.77,11.75-10.58a41.76,41.76,0,0,1,17.57-5.81,34.85,34.85,0,0,1-1,6.74c-1.78,6.93-5.14,11-4.65,11.37s4.51-5.11,10.2-9.92c10.8-9.1,22.24-10.79,22-11.76-.18-.63-5-.09-9.94,1.58-6.92,2.37-11.22,6.07-11.5,5.69-.15-.2.86-1.42,6.2-6.08l-7.36.66a40.63,40.63,0,0,0,8.78-4.1A41.71,41.71,0,0,0,608,182.75a58.1,58.1,0,0,1-16.27,9.13c-9.43,3.4-12.63,1.67-19.51,4.75C559.26,202.44,553.29,216.34,553.75,216.73Zm70.92-29.35c-.55.32,2.46,4.25,2.58,10.18a21.43,21.43,0,0,1-3.49,11.64c.55-.34,6.84-4.27,7-11C630.87,191.81,625.32,187,624.67,187.38Zm13.17,29.75c-.21-.45-9,2.08-17.82,8.46-8.53,6.16-13.77,13.52-13.31,14s9.4-7.54,10.59-6.34c.63.63-1.55,3.18-.85,4,1.62,2,15.58-9.51,18.81-6.55,1.49,1.36.12,5.31-1.16,9-2.94,8.43-7.69,13.46-7.5,13.61s5.66-5.68,12-15.07c4.57-6.75,7.11-11.64,6.59-12s-5.16,5.46-6.46,4.63c-1.08-.69,1.4-5.18,0-6.35-1-.8-3,.58-9.82,3.7-4.31,2-5,2.1-5.17,1.85-.51-.7,3-4.39,5.82-6.87C634.34,219,638,217.42,637.84,217.13Zm33.43,20.23a79.16,79.16,0,0,1,14.82-9.62,32.83,32.83,0,0,0-16.57,7,34,34,0,0,0-10.65,15.27A80.34,80.34,0,0,1,671.27,237.36Z" fill="#fff" opacity="0.6" style="mix-blend-mode:overlay"/><path d="M726.2,288.22A27.41,27.41,0,0,0,719.61,278a28.92,28.92,0,0,0-.29-12.2,28.55,28.55,0,0,0-4.74-10.21,74.6,74.6,0,0,0-1.26-9.72,72.58,72.58,0,0,0-5-15.46,14.86,14.86,0,0,1-2,4.16,14.53,14.53,0,0,1-4.84,4.36,20.82,20.82,0,0,1-3.59-11.8,20.36,20.36,0,0,1,2.23-9,47.85,47.85,0,0,0-27.9,2.38,47.19,47.19,0,0,0-14.44,9.32,25,25,0,0,0,6-9.32,25.69,25.69,0,0,0,1.45-10.61,35.45,35.45,0,0,0-1.45-9.32A36.06,36.06,0,0,0,660,192a25.44,25.44,0,0,1-8,8.33,24.72,24.72,0,0,1-12,3.87,35.39,35.39,0,0,0-1.55-9.52c-1.57-5.15-4-9-9.2-15.37a219.23,219.23,0,0,0-15.5-17.26,29,29,0,0,1-8,10.61c-3.29,2.66-6.3,3.78-11.73,5.56-13.92,4.56-17.46,4.81-23.54,7.14a66.36,66.36,0,0,0-17.44,10q3.56-4.8,7.36-9.72,3.42-4.38,6.79-8.52a101.39,101.39,0,0,0-23.26,1.48c-8.8,1.6-16.9,3.08-25.38,8.83a51,51,0,0,0-15.21,16.46c-.54-2-1-4.09-1.45-6.35a75.41,75.41,0,0,1-1.26-13.09,61,61,0,0,0-11.44,7.84,62.42,62.42,0,0,0-13,15.67c-.11-.95-.2-1.91-.29-2.88-.37-4.12-.51-8.07-.48-11.8a70.31,70.31,0,0,0-18.61,22.21,71.91,71.91,0,0,0-7.65,23.4,58.12,58.12,0,0,1-5.91-6.84,58.73,58.73,0,0,1-5.46-9,60.41,60.41,0,0,0-9.3,53.94,22.18,22.18,0,0,0-7,7.7c-4.7,8.74-3,20.56,3.91,30.64A357.9,357.9,0,0,0,423.79,355c.28,17.38.47,28.82,4.1,43.17a129.46,129.46,0,0,0,16.18,37.38c-.54-12.39-.84-23.22-1-32.11-.31-16-.14-22.22,1.5-30a86.62,86.62,0,0,1,6.29-18.74,176.82,176.82,0,0,1,3.1-23.4c1.63-8.08,3.47-16.95,8.14-27.57a108.64,108.64,0,0,1,12.4-21.22,84.2,84.2,0,0,1,16.57-5.25,95.24,95.24,0,0,1,29.16-1.09c8.15.91,10,2.13,23.26,3.76,4.95.61,9,1,11.82,1.19a41.57,41.57,0,0,0,16.47,7.74,42.42,42.42,0,0,0,32.55-6.55,41.24,41.24,0,0,0,9.69,1.49c6.31.2,10.14-1.16,14.82-2.08,5.75-1.14,11.07-.89,21.7-.4,11.84.55,17.75.82,22.68,3.67,5.41,3.13,8.25,7.41,11.43,12.3,6.54,10.08,8.47,19.56,10.56,30.44a162.88,162.88,0,0,1,2.91,29.15A66.2,66.2,0,0,1,704,369.83c3.63,11,3.35,19.91,3.19,27.57-.2,9.86-.32,23.61,0,42.34,9.22-23.58,12.78-41,14.34-51.76.83-5.72,1.82-14.63,2-16.56,1.69-15.14,2.54-22.8,2.61-32a166.43,166.43,0,0,0-2-27.17C725.21,310.18,730.36,299.72,726.2,288.22Zm-4.84,48.69a276.66,276.66,0,0,1-5.6,68.19c-1.8,8.57-3.68,15.52-5,20.06.18-9.62.26-20.94.13-33.71-.13-12.33-.37-17.66-2.9-24.39-2.2-5.85-4-7-6-13.29-2.48-7.61-1.18-10-2.32-21-.94-9-2.38-21.71-9.89-33.72a55.13,55.13,0,0,0-6.2-8.13,24.53,24.53,0,0,0,19.26-2.61,71.12,71.12,0,0,1-12.86,0,72.5,72.5,0,0,1-9.89-1.58A46.54,46.54,0,0,0,665.36,279c-11.42-3.52-22.73-1.88-34.88,0-12.41,1.93-16.26,4-22.48,1.59-6-2.34-9.88-7.17-12.21-10.91a16.13,16.13,0,0,0,2.52,7.93,15.48,15.48,0,0,0,2.13,2.58A45.57,45.57,0,0,1,577.77,285c-4.52-.25-16.62-.91-26-10.51a34.93,34.93,0,0,1-7.95-13.09,25.55,25.55,0,0,0,2.33,10.12,24.67,24.67,0,0,0,3.87,5.95,111.57,111.57,0,0,0-41.27-6.94c-9.39.29-19.71.61-29.45,5.94a47,47,0,0,1-6.4,3.18,43.4,43.4,0,0,1-20.54,2.58,20,20,0,0,0,17.25,1.19,127.5,127.5,0,0,0-12.59,23.79,131.29,131.29,0,0,0-9.31,46.61,136,136,0,0,0-8.65,58.91,156.76,156.76,0,0,1-8.2-31.15c-2.4-15.49-1.95-28.33-1.36-45.21.32-9.35.9-17,1.36-22.22a54.35,54.35,0,0,1-5.62-16.46c-.82-4.85-1.33-8.14.38-11.5,2.58-5.05,8.26-6.56,9.89-6.94a48.08,48.08,0,0,1-4.27-25.38,47.47,47.47,0,0,1,6-18.45c1.4,2,6.88,9.15,16.66,11.11a25.84,25.84,0,0,0,12.41-.6,23.64,23.64,0,0,1-8.34-2,24.43,24.43,0,0,1-5.23-3.17A49.89,49.89,0,0,1,458,220.9a48.73,48.73,0,0,1,11.82-15.08,56.91,56.91,0,0,0,1.75,10.71c.47,1.79,1,3.44,1.55,5a141.23,141.23,0,0,1,22.67-26.77,29.67,29.67,0,0,0,3.29,12.89c1.46,2.74,4.29,6,9.89,12.49,1.81,2.11,3.34,3.83,4.38,5q-1.92-4.14-3.8-8.75c-1.13-2.78-2.17-5.49-3.1-8.13,5.74-10.82,12.85-15.83,16.66-18,6.36-3.71,12.81-5,22.87-6.94,5.53-1.1,10.17-1.67,13.37-2a91.1,91.1,0,0,0-9.11,11.11c-3.61,5.19-7.41,10.63-9.65,18.63a48.86,48.86,0,0,0-1.78,13.1c2.29-15.29,8.92-22.27,12.4-25.19,5.26-4.42,11.26-6,23.25-9.32,12.58-3.42,17.15-2.79,25-7.14a46.56,46.56,0,0,0,12.59-10.31,33.6,33.6,0,0,1,.58,36.89,33,33,0,0,0,8.53-15.08,33.37,33.37,0,0,0,.19-15.46A40.44,40.44,0,0,1,635.9,206a36.32,36.32,0,0,0-9.68,5.55,37,37,0,0,0-6.2,6.35,76.38,76.38,0,0,1,11.43-5.75c5.24-2.1,7.95-2.51,13.17-4.36A90.81,90.81,0,0,0,659,201.26a34,34,0,0,1,1,14.28,35.27,35.27,0,0,1-11.62,21,86.71,86.71,0,0,1,45-13.48,30.53,30.53,0,0,0,1,8.33,30,30,0,0,0,4.65,9.91,42.15,42.15,0,0,1-5.81,5.36,41.39,41.39,0,0,1-8.66,5.07,39.32,39.32,0,0,0,21.64-10.23,29.42,29.42,0,0,1,1.55,29.35,13.74,13.74,0,0,0,4.46-4.36,13.93,13.93,0,0,0,1.93-5,41.05,41.05,0,0,1,1,20A24.24,24.24,0,0,1,719,311.13C720.5,321.74,721.09,330.61,721.36,336.91Z"/></g></g></g></svg>