<svg xmlns="http://www.w3.org/2000/svg" viewBox="0 0 1080 1920"><g style="isolation:isolate"><g id="hair"><g id="_40" data-name="40"><path d="M560.13,182.25a43.33,43.33,0,0,1,16.15-8.46c4.88-1.31,8.13-1.18,14-1.58,14.06-1,15.32-3.15,23.64-3.57,15.5-.79,27.89,5.88,34.88,9.65A84.1,84.1,0,0,1,668.38,193a115.32,115.32,0,0,1,36.69,29.62c11.46,14.14,17.76,29.07,21,36.89.57,1.35,2.75,7.2,7.11,18.9,6.74,18.11,10.1,27.26,11.24,31.47a121.52,121.52,0,0,1,4,36.09,23,23,0,0,0,11.37,8.6l-11.75.92q-1.2,10.57-2.39,21.16a52.58,52.58,0,0,0,9.88,8.33,50.67,50.67,0,0,0,4.84,2.77,35,35,0,0,1-34.3,6.35,8,8,0,0,0,2.91,5.15,7.18,7.18,0,0,0,3.3,1.39,28.62,28.62,0,0,1-20.93,3.18,29,29,0,0,1-15.89-10.52,27.25,27.25,0,0,1-17.25-5.35,25.66,25.66,0,0,1-5-5.16,35.33,35.33,0,0,1-16.67-10.51c-5.42-6.34-5.28-11.39-9.88-28.36,0,0-4.46-16.44-11.43-34.31-3.93-10.06-7.76-18-10.39-23.19a102.28,102.28,0,0,0-46.19,6.14,144.07,144.07,0,0,0-73.44-1.59,89,89,0,0,0-5,15.67c-1.85,8.31-1.58,12.77-2.71,30.14-.76,11.56-1.13,17.33-1.94,21.82-1.68,9.26-3.2,17.22-8.72,25.19a44.8,44.8,0,0,1-13.95,12.89,73.68,73.68,0,0,0,2.32-15.08c.12-2.46.11-4.78,0-6.94-1.44,3.62-12.66,30.65-34.49,33.52a29.71,29.71,0,0,1-8.91-.2,44.24,44.24,0,0,1-12.6,5.55,45.52,45.52,0,0,1-25.38-.79,31.77,31.77,0,0,0,16.28-10.51,22.09,22.09,0,0,1-6.21.59,22.45,22.45,0,0,1-6.78-1.38,33.39,33.39,0,0,0,8.72-6.95,29,29,0,0,0,1.94-2.38q-1.65-6.63-3.29-13.28a23.22,23.22,0,0,1-6.4,2.58,23,23,0,0,1-9.49.19,25.66,25.66,0,0,0,7.94-4.36,26.28,26.28,0,0,0,4.85-5.16,283,283,0,0,1-.39-29.35c.6-15.93,1.27-33.51,7.75-54.73,2.95-9.67,7.95-25.58,20.34-42.84a129.68,129.68,0,0,1,30-29.94A31.73,31.73,0,0,1,470,199.71a30.35,30.35,0,0,1,14.73-6,90.44,90.44,0,0,1,18.21-11.31A92.27,92.27,0,0,1,526,175.31c12.2-2.33,19.51-3.62,26.74.4A24.18,24.18,0,0,1,560.13,182.25Z" fill="#42210b"/><path d="M418.67,363.38c0,.49-.06,1-.1,1.56h0a31.57,31.57,0,0,1-2,2.8A31.72,31.72,0,0,0,418.67,363.38Zm-16.58,36.27h0c.45-.39.92-.79,1.39-1.21-.93.56-1.66.94-2.12,1.17ZM470,379.32c-1.22,2.19-2.41,4.07-3.39,5.62A51.49,51.49,0,0,0,470,379.32ZM534.59,252.8c2.91-.35,14.83-1.23,24.63,7.72A31.49,31.49,0,0,1,567.83,274a40.13,40.13,0,0,0-15.13-8.75c-14.41-4.49-31.22-.62-41.47,10.51a37.73,37.73,0,0,0-7.75,13.09,138.31,138.31,0,0,0-6.29,21.32c-1.09,5.18-1.64,9.26-2.81,21.81-2.86,30.41-2.64,38.35-8.53,48a46,46,0,0,1-7.75,9.52,257.66,257.66,0,0,0,1-31.34c-.23-7.58-.75-13.17-1.54-32.13-.46-10.79-.53-14.6.19-19.83.13-.95.27-1.89.44-2.79,0,0,0-.05,0-.08s0-.11,0-.17c1.93-8.72,6.61-23.83,19.54-40.26a102,102,0,0,0-24,24.86,107.43,107.43,0,0,0-18.08,54.47,207.32,207.32,0,0,1,6.45-84.88c-14.87,25.34-18.59,46-19.12,60.55-.47,12.87,1.37,26.66-5.17,44.43a86.06,86.06,0,0,1-13.43,23.79,71.59,71.59,0,0,0,.77-10,72.77,72.77,0,0,0-2.58-19.83,35,35,0,0,1-3.66,8.19c-.08-.4-.15-.75-.22-1.06a27.83,27.83,0,0,1-8.26,9A27,27,0,0,1,399,376.87a107.62,107.62,0,0,0,6.71-8.63c1-1.46,2.06-3,3.1-4.71l.1-.17c1.36-2.19,2.72-4.55,4.05-7.11,6-11.62,8.33-21.37,12.13-37.82,1.82-7.84,4-18.37,5.83-31v0c.78-3,1.59-6.09,2.45-9.39a170.4,170.4,0,0,0-19.12,24.32c-3,4.59-5.57,9.05-7.82,13.3,1.21-6.35,2.63-11.78,3.94-16.21a177.52,177.52,0,0,1,12.66-30.93c8-15.42,15.7-30.14,31-42,15.92-12.38,33.35-16.47,46-17.71a50.72,50.72,0,0,0-33.33,2.11,51.9,51.9,0,0,1,20.15-12.69,51.3,51.3,0,0,1,30-.79,31,31,0,0,0-13.94-5.56,30.15,30.15,0,0,0-7.5,0,119.6,119.6,0,0,1,33.85-11.63c1.66-.3,3.17-.54,4.56-.71a37.93,37.93,0,0,1,15.07,9.44,39.87,39.87,0,0,1,9.56,16.39,95.82,95.82,0,0,0-49.87,2.64,61,61,0,0,1,23,1.59A63.4,63.4,0,0,1,561,227.21a28.92,28.92,0,0,0-25.58-2.91c1.95-.1,17.76-.61,28.68,12.43,9,10.75,8.44,23.29,8.27,25.91a48.28,48.28,0,0,0-37.81-9.84Zm9.2-23c-3.13-1.71-22.43-11.81-45-3.57C480,233.19,471.14,248.47,469,252.46a82.34,82.34,0,0,1,33.52-20.63A80.82,80.82,0,0,1,543.79,229.85ZM689.69,358.1a130.72,130.72,0,0,1-9.82-37.52v0c-4.23-12.62-7.23-21.55-13.68-31.74-6-9.5-15.23-24.09-33.06-30.68a53.82,53.82,0,0,0-29.2-2.11c-6.2,1.22-13,2.68-18.6,8.72a28.46,28.46,0,0,0-7,15.34c1.62-2.21,7.19-9.19,16.78-11.1,12.25-2.45,21.68,5.21,24.18,7.27l.06,0h0a28.74,28.74,0,0,1,7.93,8.43c-.24-.16-.57-.38-1-.64-3.76-2.35-14.82-8.26-27.88-4.77A33.74,33.74,0,0,0,584.59,287l-.3.27,1-.44A51.25,51.25,0,0,1,611.41,283c5,.62,11.58,1.45,17.5,5.8h0c.51.36,1,.76,1.49,1.18,2.79,2.39,5.11,5.45,11.5,24.74,5.24,15.83,7.86,23.75,9.17,29.88.19.91.37,1.79.55,2.64l.68,1,3,4.32q1.41-12.42,2.83-24.85a77,77,0,0,0,5.71,23.64c.18-1.15.4-2.2.62-3.15-.09.7-.27,2-.34,3.82a68.69,68.69,0,0,0,8,13.76c4.66,6.22,14.14,18.92,29.46,21.16a32.83,32.83,0,0,0,5.55.33A128.31,128.31,0,0,1,689.69,358.1ZM731,360.21a73.15,73.15,0,0,1-2.74-6.9,128.11,128.11,0,0,1-5.85-11.61,131.4,131.4,0,0,1-11-48,160.25,160.25,0,0,0,13.15,33.8c0-.12,0-.24,0-.35.36.83.8,1.82,1.38,2.93,0,0,0,0,0,0,.46.89,1,1.86,1.64,2.88,0,.08.09.15.14.23a42.12,42.12,0,0,0,8.46,9.8,41.22,41.22,0,0,0,15.24,8.2,123.33,123.33,0,0,1-19.12-25.38C729,320,726,312.63,719.92,298.07c-12.71-30.72-12.6-30.54-13.17-31.73a124.67,124.67,0,0,0-18.44-27.71.15.15,0,0,0,0-.07c-3.48-3.83-7.38-7.74-11.74-11.68a122.13,122.13,0,0,1,30.61,18.44,95,95,0,0,1,16.06,16A132.11,132.11,0,0,0,714,243.6c-6.07-9.82-14.4-23-30.23-34.37A98,98,0,0,0,649,193.47h0a118.19,118.19,0,0,0-54.18,7.83,71.27,71.27,0,0,1,49.15-20.85,72.51,72.51,0,0,0-24.48-6.91,69.75,69.75,0,0,0-7.7-.3c-7.36,2.53-20.71,8.8-29.51,23.3a55.56,55.56,0,0,0-7.74,25.12,47.35,47.35,0,0,1,42.37-15.6c-6,1.51-21.23,6.29-30.75,20.89a45.55,45.55,0,0,0-4.9,10.05,42.05,42.05,0,0,1,17.57-10.58,33.34,33.34,0,0,0-10.86,23.8,73,73,0,0,1,34.1-1.32,77.63,77.63,0,0,1,30.49,14c15.73,11.81,23.22,26.54,29.72,39.67,8.7,17.61,5.3,18.88,14.46,37,6.24,12.35,12.91,25.23,26.35,36.22a80.23,80.23,0,0,0,24.42,13.61A57.09,57.09,0,0,0,754,388,70.18,70.18,0,0,1,731,360.21Zm-327.4,10.6q-4.36,3.78-8.69,7.56A45.85,45.85,0,0,0,403.63,370.81Zm15.26-6.36-.32.49h0a34,34,0,0,1-5.39,15.82,31.41,31.41,0,0,1-3.67,4.56L408,377.4a30.43,30.43,0,0,0,4.26-3.77,31.15,31.15,0,0,0,4.37-5.88,27.28,27.28,0,0,1-21.07,10.61l11-.17q1.63,6.88,3.29,13.75a63.26,63.26,0,0,1-4.46,4.76c-.63.61-1.26,1.18-1.87,1.74a33,33,0,0,0,13.88-16.55A33.33,33.33,0,0,0,418.89,364.45Zm.82-46c-1.86,8.52-2.76,16.28-7.23,27A94.06,94.06,0,0,1,404,361.27a174.77,174.77,0,0,1,2.52-45.66c-1,1.87-1.92,3.69-2.78,5.47a249.73,249.73,0,0,0-1.14,33.1c.2,5.81.58,11.34,1.1,16.59.71-.79,1.41-1.63,2.1-2.53a41,41,0,0,0,3.1-4.71l.1-.17c3.1-5.59,4.6-11.55,6.89-20.07,2.71-10.17,5.89-20.21,8.52-30.41,1.43-5.51,3.67-14.22,6.6-25.49v0c.13-.86.25-1.75.38-2.63A156.53,156.53,0,0,0,419.71,318.43Zm38.24,76a47.81,47.81,0,0,1-18.6,9.52A48.75,48.75,0,0,0,449,388.31a49.59,49.59,0,0,0,3.23-18.58c-.4,3.17-2.87,20.35-18.08,32A46,46,0,0,1,404,411a31.89,31.89,0,0,0,7.75-6.08,32.45,32.45,0,0,0,6.46-10.31,25,25,0,0,1-9.56,4.49,23.88,23.88,0,0,1-6.5.57h0c-.42.36-.83.69-1.24,1a22.63,22.63,0,0,0,13.95-2.12,23.67,23.67,0,0,1-8.78,9.79,22.48,22.48,0,0,1-8.37,3.05,46.1,46.1,0,0,0,37.3-6,31.35,31.35,0,0,0,13.7-2.38c8.81-3.76,13.28-10.74,17.93-18A48,48,0,0,1,458,394.45Zm15.5-75.95c-.37,6.09.22,9.92.77,29.15.23,8.1.34,14.77.39,19.24a53.85,53.85,0,0,1-4.48,12.23,58.63,58.63,0,0,0,6.93-20.49c1.49-10.82-1.4-13.33-1.54-28.56a126.69,126.69,0,0,1,2.63-26.66s0-.05,0-.08a73.41,73.41,0,0,1,5.95-18.59C476.18,298.66,474,310.27,473.45,318.5Zm75.7-137.83c10.47,5.42,12.73,19.32,13.17,22.47a28,28,0,0,0,1.81-11.89,27.23,27.23,0,0,0-1-5.82,127.35,127.35,0,0,1,22-7.93c1.31-.34,2.73-.71,4.27-1.09-5.44,1.18-7.4.33-11.77.82s-10.78,2.36-18.08,8.46a34.83,34.83,0,0,0-37.2-8.46,41.3,41.3,0,0,1,11.54,2.2C543.23,178.2,546.87,179.49,549.15,180.67Zm66.91-8.73a31.54,31.54,0,0,0-13.95,0c-4.78,1.14-6.4,2.82-11.33,4.12a95.2,95.2,0,0,1,20.94-2.83C613.64,172.58,615.14,172.17,616.06,171.94Zm3.32,104.37h0l-.06,0a26.05,26.05,0,0,0-5.09-2.78,27.81,27.81,0,0,0-21.32.4,29.89,29.89,0,0,0-14.62,14A47.51,47.51,0,0,0,567.83,274a33.48,33.48,0,0,1,1.47,6.62c-8.54-11.77-22.71-17.65-36.43-15.07-18.72,3.51-26.47,20.85-27.09,22.3h0a180,180,0,0,1,22.85-2.33q-6.27.17-12.71.59c-2.5.16-5,.35-7.43.56A36.8,36.8,0,0,1,523.35,272a34.16,34.16,0,0,1,23.25-3.37c14.92,3.36,21.91,16.14,23,18.15-11-1-22.46-1.49-34.37-1.37A179.35,179.35,0,0,1,575,289.87a82.13,82.13,0,0,1,9.61-2.91l.7-.17a81.55,81.55,0,0,1,43.62,2h0a37.72,37.72,0,0,0-2.6-4.7A34,34,0,0,0,619.38,276.31Zm50.94,97.92A37.82,37.82,0,0,1,664.16,352c-.1-.22-.19-.45-.28-.67a40.27,40.27,0,0,0,.89,17.74,37.8,37.8,0,0,0,1.93,5.29,38.41,38.41,0,0,1-9-9.65c-3.79-5.85-4.71-10.9-6-17.46l-2.22-3.15c.08.39,1.3,6.47,2.19,10.22,2.13,9.05,3.2,13.57,6.07,16.73,1.5,1.66,4.66,4.43,10.85,5.56a35.87,35.87,0,0,0,27.92,13.45,33.91,33.91,0,0,1-5.06-.89A36.91,36.91,0,0,1,670.32,374.23Zm77.12,15.19a58.12,58.12,0,0,1-16.8.27,57.4,57.4,0,0,1-13.81-3.57,27.34,27.34,0,0,0,4.38,9.66,27.76,27.76,0,0,0,3.36,3.83c-1.32.59-8.57,3.66-16.15.13a19,19,0,0,1-7.31-6.12,28.93,28.93,0,0,0,6.8.17,29.29,29.29,0,0,0,8.52-2.11,99.74,99.74,0,0,1-15.76-20.36c-2.91-5-5.76-11-14.47-37.42-3-9-5.32-16.49-7-21.81.11,2.52.3,5.36.63,8.47v0c5.86,17.42,4.9,21.49,9.57,33.81a118.39,118.39,0,0,0,19.12,32.79c-.42,0-.9.06-1.43.07l1.56,1.92a36.15,36.15,0,0,1-12.22.89,26.27,26.27,0,0,0,11.83,10.87c8.84,3.86,18.88,1.58,19.12-.26.12-1-2.55-1.33-4.52-4.38a11.6,11.6,0,0,1-1.68-6.29,76.08,76.08,0,0,0,12.18,2.07,74.8,74.8,0,0,0,19.6-.92C751.35,390.7,749.48,390.13,747.44,389.42ZM657.33,186a56.28,56.28,0,0,0-9.29-5.55c-1.21,0-2.6-.06-4.14,0a87.08,87.08,0,0,1,17.63,11.33l-16.79.8c1.28.24,2.67.54,4.19.89h0a118.91,118.91,0,0,1,19.62,3.46A58,58,0,0,0,657.33,186Zm67.24,120c7.65,18,12.38,26.93,19.57,35.7,1.38,1.68,2.74,3.23,4.05,4.63a246.75,246.75,0,0,0-7.53-43.7c-4.51-16.81-7.85-28.79-17.46-41.3,3.81,8.91,6.6,17.95,9.9,28.66A331.7,331.7,0,0,1,744,337.21a312.31,312.31,0,0,1-15.5-30.41c-8.11-18.31-9.56-26.32-14.47-36.76-5.32-11.33-15.33-26.81-35.92-42,3.81,3.58,7.19,7.11,10.2,10.56a.15.15,0,0,1,0,.07,131.75,131.75,0,0,1,24.64,38C715.79,283.46,717.69,289.8,724.57,306Zm3.17,27.22c0-.08-.1-.15-.14-.23-.53-.92-1.08-1.88-1.64-2.88,0,0,0,0,0,0-.46-.82-.92-1.68-1.4-2.58a72.48,72.48,0,0,0,3.74,25.8,127.56,127.56,0,0,0,16.05,22.3l2.52-23C741.56,350.8,735.76,346.86,727.74,333.22ZM756.16,354l-8-7.66A98.16,98.16,0,0,0,756.16,354Z" fill="#fff" opacity="0.5" style="mix-blend-mode:overlay"/><path d="M461.53,224.89c.47,1.18,11.81-3.72,13.66-.79,1.71,2.7-6.2,9.67-4.84,11.5,1.77,2.4,17.1-7.21,17.44-6.64s-23.51,17.28-25.48,14.77c-1.48-1.88,10.85-12.65,8.62-16.06-2.36-3.61-18.76,4.5-19.77,2.38-.6-1.28,4.85-5.31,8.56-7.65,8.21-5.2,16.39-7.52,16.63-6.93C476.7,216.32,461,223.5,461.53,224.89Zm5.72,39c1.54-2.24,4.65-6.33,5.52-5.85s-.79,3.58-1.84,9.82c-.59,3.51-1.21,9-.49,9.22s2.06-6.59,6.79-15c4.06-7.2,8.33-11.4,7.75-12-.77-.78-8.16,6.22-9,5.35-.6-.59,2.32-4.57,3.78-6.54,6.3-8.54,10.74-11.87,10.36-12.4-.55-.77-12.76,3.9-20.68,15.53-6.71,9.85-7.56,20.61-7.12,20.77C462.58,272.88,463.71,269,467.25,263.86ZM496,286c.63.24-1,4.85-1.74,11.71-1,9-.16,17.58.77,17.65s.27-10.89,5.91-23.7c5.27-12,13.3-19.06,12.31-20-.66-.66-4.52,2.2-6.78,4.16-5,4.33-6.79,8.37-7.46,8s.54-5.55,3.1-10.81c4-8.16,8.93-12.16,8.62-12.49s-10.59,5.53-17,17.16c-5.53,10.11-6.32,21.06-5.23,21.41C489.85,299.48,494.93,285.56,496,286Zm4-94.42c.06.88,7.58-.37,19.57,1.91,13,2.47,20.22,7,20.63,6.15s-7.74-8.2-19-10.41S499.92,190.52,500,191.55Zm136.7,78.06c2.71,4.06,6,9.72,5.52,10.12s-3.41-4-8.33-8.23c-7.68-6.62-17.25-10.43-18.21-9-1.21,1.77,12.9,9.15,23.05,26.58,9,15.42,9.56,29.55,11.34,29.25,1.42-.24,2-9.35-.19-18.24s-6.58-14.33-5.82-14.88,5,3.57,8.14,9.12a35,35,0,0,1,4.26,13.39,56.16,56.16,0,0,0-7.17-26.77c-7.1-12.65-18-19.75-18.4-19.34C630.68,261.79,633,264.11,636.7,269.61Zm-4.84-24.89c-.28.93,13.43,3.12,27.41,13.29,13.29,9.66,18.26,20.29,19.38,19.54,1.37-.94-5-17.74-19-30.74-8.46-7.87-17.38-12.18-17.63-11.8s4.27,3.62,10.66,10.31c5.52,5.79,5.24,6.49,5.13,6.64-.52.73-4-1.52-9.11-3.57C640.23,245,632.07,244,631.86,244.72Zm45.73-3.27c-7.6-9.28-16.49-12.7-15.89-14.18s11.48,2.34,12.49.2-10-8.92-8.91-11.4,12.44,1.61,13.27-.4c.55-1.3-3.52-4.66-8.91-7.83-15.86-9.33-32-10.43-32.07-10.12a84.46,84.46,0,0,1,17,5.06c8.11,3.43,15.65,8.12,15.11,9.62s-10-1.57-11,.69c-1.11,2.51,9.44,9,8.52,10.71-.58,1.09-5-.93-12.88-2.08-4.39-.64-12.28-1.37-12.6-.1-.37,1.5,10.42,3.3,21.9,11.11,13.18,9,19.5,20.57,20.34,19.93C684.45,252.22,681.87,246.69,677.59,241.45Zm11.46,64.95c-.83.35,3.9,19.09,15.63,38.08,8.87,14.35,19.11,24.58,19.77,24.06s-9-12.29-20.8-33.32C693.53,317.14,689.69,306.13,689.05,306.4Z" fill="#fff" opacity="0.6" style="mix-blend-mode:overlay"/><path d="M755.58,384.94a52.2,52.2,0,0,1-9.88-8.33q1.18-10.59,2.39-21.16l11.75-.92a23.27,23.27,0,0,1-8-4.76,22.72,22.72,0,0,1-3.36-3.84,121.56,121.56,0,0,0-4-36.09c-1.14-4.21-4.5-13.37-11.24-31.47-4.36-11.7-6.54-17.55-7.11-18.9-3.29-7.82-9.59-22.76-21-36.89A115.07,115.07,0,0,0,668.38,193a84.1,84.1,0,0,0-19.63-14.67c-7-3.77-19.38-10.45-34.88-9.65-8.32.42-9.58,2.59-23.64,3.57-5.83.4-9.07.27-14,1.58a43.27,43.27,0,0,0-16.15,8.46,24.18,24.18,0,0,0-7.43-6.54c-7.23-4-14.53-2.73-26.74-.4a92.27,92.27,0,0,0-23.06,7.14,90,90,0,0,0-18.21,11.31,30.35,30.35,0,0,0-14.73,6,31.73,31.73,0,0,0-10.85,15.47,129.68,129.68,0,0,0-30,29.94c-12.39,17.27-17.39,33.16-20.34,42.84-6.48,21.22-7.15,38.8-7.75,54.73a285.89,285.89,0,0,0,.39,29.35,25.8,25.8,0,0,1-12.79,9.52,22.7,22.7,0,0,0,15.89-2.77q1.63,6.65,3.29,13.28c-.58.79-1.23,1.58-1.94,2.38a33.44,33.44,0,0,1-8.72,6.95,22.34,22.34,0,0,0,13,.79,32.34,32.34,0,0,1-4.85,4.76,31.77,31.77,0,0,1-11.43,5.75,45.62,45.62,0,0,0,25.38.79,44.65,44.65,0,0,0,12.6-5.55,29.71,29.71,0,0,0,8.91.2c21.83-2.87,33.05-29.89,34.49-33.52.11,2.16.12,4.49,0,6.94a73,73,0,0,1-2.32,15.08,44.8,44.8,0,0,0,13.95-12.89c5.52-8,7.05-15.94,8.72-25.19.81-4.49,1.18-10.26,1.94-21.82,1.13-17.37.86-21.83,2.71-30.14a89.87,89.87,0,0,1,5-15.67,144.07,144.07,0,0,1,73.44,1.59A103.17,103.17,0,0,1,605,286.37a102.08,102.08,0,0,1,19.83,0c-4.74-2.29-9.59-2.89-13.44-3.37a51.33,51.33,0,0,0-27.13,4.23,33.82,33.82,0,0,1,14.15-7.9c14.54-3.89,26.6,3.88,28.87,5.41a28.22,28.22,0,0,0-13.08-11.26,27.79,27.79,0,0,0-21.31.4,29.88,29.88,0,0,0-14.63,14c-1.43-2.93-8.93-17.42-25.58-22.61-14.4-4.48-31.23-.63-41.47,10.51a38.05,38.05,0,0,0-7.75,13.09,138.65,138.65,0,0,0-6.29,21.32c-1.09,5.18-1.64,9.27-2.81,21.81-2.86,30.4-2.64,38.35-8.53,48a45.65,45.65,0,0,1-7.75,9.52,260.09,260.09,0,0,0,1-31.34c-.24-7.58-.76-13.16-1.55-32.13-.45-10.79-.52-14.59.19-19.83a73.61,73.61,0,0,1,6.4-21.46c-7.93,13.92-10.16,25.53-10.66,33.76-.38,6.09.22,9.93.77,29.15.24,8.1.34,14.78.39,19.24-1.09,4.68-4.75,17.64-16.66,27.56A47.77,47.77,0,0,1,439.34,404,48.51,48.51,0,0,0,449,388.31a49.56,49.56,0,0,0,3.23-18.58c-.4,3.17-2.86,20.35-18.08,32A46,46,0,0,1,404,411a31.64,31.64,0,0,0,7.75-6.08,32.55,32.55,0,0,0,6.46-10.31,24.8,24.8,0,0,1-9.56,4.49,24.37,24.37,0,0,1-7.23.53,33.08,33.08,0,0,0,16-17.72,33.51,33.51,0,0,0,1.3-18.51,34.65,34.65,0,0,1-5.49,17.39,30.41,30.41,0,0,1-3.69,4.56c-.51-2.64-1-5.29-1.55-7.93a30.46,30.46,0,0,0,4.27-3.77,32.38,32.38,0,0,0,6.46-10.25,27.91,27.91,0,0,1-8.27,9A27,27,0,0,1,399,376.87,106.76,106.76,0,0,0,413,356.25c6-11.62,8.34-21.37,12.14-37.82,1.94-8.38,4.29-19.84,6.21-33.69a157.09,157.09,0,0,0-11.63,33.69c-1.86,8.52-2.76,16.29-7.23,27A93.34,93.34,0,0,1,404,361.27a171.91,171.91,0,0,1,6.46-61.88,176.87,176.87,0,0,1,12.66-30.93c8-15.42,15.7-30.15,31-42,15.91-12.38,33.34-16.47,46-17.71a50.4,50.4,0,0,0-15-1.85,51.41,51.41,0,0,0-18.34,4,51.9,51.9,0,0,1,20.15-12.69,51.29,51.29,0,0,1,30-.79,30.74,30.74,0,0,0-14-5.56,30.09,30.09,0,0,0-7.49,0,119.76,119.76,0,0,1,33.84-11.63c12.88-2.31,17.29-.82,19.9.53,10.48,5.42,12.73,19.32,13.17,22.47a27.66,27.66,0,0,0,.78-17.71,128,128,0,0,1,22-7.93c8.06-2.11,20.31-5.3,34.36-4,19.37,1.84,33.93,11.51,42.11,18.24l-16.79.8a98.32,98.32,0,0,1,39,16.66c15.83,11.36,24.16,24.55,30.23,34.37,9.6,15.54,13.66,28.69,19.12,46.39A330.33,330.33,0,0,1,744,337.21a314.6,314.6,0,0,1-15.5-30.41c-8.11-18.31-9.56-26.31-14.47-36.76-5.33-11.33-15.33-26.81-35.91-42,15.31,14.4,23.76,28.16,28.68,38.34.57,1.19.46,1,13.17,31.73,6,14.56,9.11,21.95,12.41,27.77a123.15,123.15,0,0,0,19.11,25.38A41.45,41.45,0,0,1,736.2,343a42.79,42.79,0,0,1-11.63-15.86,71.72,71.72,0,0,0,6.46,33A70,70,0,0,0,754,388a58.88,58.88,0,0,1-23.38,1.71,57.46,57.46,0,0,1-13.83-3.57,27.78,27.78,0,0,0,4.4,9.66,27.1,27.1,0,0,0,3.35,3.83c-1.32.58-8.56,3.66-16.14.13a19,19,0,0,1-7.31-6.11,29.37,29.37,0,0,0,15.32-1.95,98.66,98.66,0,0,1-15.76-20.36c-2.91-5-5.76-10.95-14.47-37.42-3-9-5.33-16.49-7-21.81a131.11,131.11,0,0,0,10.47,46,127.91,127.91,0,0,0,19,31.07,35.77,35.77,0,0,1-17.31,0,37,37,0,0,1-21.06-14.94,38.08,38.08,0,0,1-5.81-26.05,41.33,41.33,0,0,0,.25,20.89,37.78,37.78,0,0,0,1.94,5.29,38.41,38.41,0,0,1-9-9.65c-4.29-6.6-4.9-12.2-6.59-20.1-1.31-6.13-3.93-14.05-9.17-29.88-6.38-19.28-8.72-22.34-11.5-24.74a24.81,24.81,0,0,0-5.54-3.62c2.62,5.17,6.46,13.13,10.39,23.2,7,17.88,11.43,34.31,11.43,34.31,4.6,17,4.47,22,9.88,28.36a35.33,35.33,0,0,0,16.67,10.51,25.92,25.92,0,0,0,5,5.16,27.25,27.25,0,0,0,17.25,5.35,28,28,0,0,0,36.82,7.34,7.18,7.18,0,0,1-3.3-1.39,8,8,0,0,1-2.91-5.15,35.22,35.22,0,0,0,18,1.39,35.61,35.61,0,0,0,16.27-7.74A52.91,52.91,0,0,1,755.58,384.94ZM523.34,272a34.2,34.2,0,0,1,23.26-3.37c14.93,3.36,21.9,16.14,23,18.15a348,348,0,0,0-53.61-.66c-2.5.16-5,.35-7.43.56A36.69,36.69,0,0,1,523.34,272Zm28.59-65.34a15.07,15.07,0,0,1,9.49,4,14.56,14.56,0,0,1,2.71,3.57,19.28,19.28,0,0,1,3.68-8.52,18.79,18.79,0,0,1,9.69-6.55,33,33,0,0,0-8.91,12.1c-1.19,2.81-2.06,4.87-1.74,7.54.56,4.84,4.38,6.26,7,10.9,1.55,2.77,3,7.31,1.75,14.68a71.13,71.13,0,0,0-4.85-12.1c-1.72-3.35-2.3-3.77-6.78-11.7a61.87,61.87,0,0,0-3.49-5.95A30.28,30.28,0,0,0,551.93,206.65Z" fill="#0c0509"/></g></g></g></svg>