<svg xmlns="http://www.w3.org/2000/svg" viewBox="0 0 1080 1920"><g style="isolation:isolate"><g id="hair"><g id="_41" data-name="41"><path d="M579,203.6a23.19,23.19,0,0,1,15.86-1.9,21.94,21.94,0,0,1,8.55,4.37,21,21,0,0,1,6-1.39,21.78,21.78,0,0,1,6.37.39,10.77,10.77,0,0,1,10-5,11.18,11.18,0,0,1,8.16,5.25A10.36,10.36,0,0,1,650,211.52a14.69,14.69,0,0,1,11.23,2.87,14,14,0,0,1,4.58,7,11.2,11.2,0,0,1,7.46,3.17,11,11,0,0,1,3,5.75,8.65,8.65,0,0,1,15.31,4.07c.41-.11,6.55-1.59,11,2.67a11.61,11.61,0,0,1,3.48,7.84c1.59.47,8.21,2.66,11.54,9.22a17,17,0,0,1,1.79,6.54c.67.12,6.45,1.2,9.15,6.55a12.23,12.23,0,0,1,1,7.83,13.14,13.14,0,0,1,6.37,14.28c.41.24,5.41,3.27,5.66,8.92a10.7,10.7,0,0,1-2,6.55,10.13,10.13,0,0,1,1.59,16.86,7.72,7.72,0,0,1,3.58,7.33,8,8,0,0,1-3.78,5.66,7.12,7.12,0,0,1-1,13.68,17.27,17.27,0,0,0,3.19,13.09c5.6,7.24,14.86,6.4,15.41,6.34-3.51,2.18-16.61,9.79-26.65,4.57a15.4,15.4,0,0,1-2.19-1.39,109.06,109.06,0,0,1-12.33,31.63,75,75,0,0,0-2.59-21.42c-2.53-9.3-4.63-9.7-8-19.63-3.14-9.4-4-17.32-5.67-31.9-1.29-11.45-.75-12.44-2.12-17.32A53.8,53.8,0,0,0,687.2,291a11.82,11.82,0,0,1,2.14,8.68,11.64,11.64,0,0,1-3.38,6.4,7.85,7.85,0,0,1,2.13,5.15c.06,4.31-3.77,6.72-4,6.84a18.29,18.29,0,0,0,6.46,15.37C681.5,333.79,674,329.3,672,323a13.69,13.69,0,0,1,.4-8.72,6,6,0,0,1-2.78-5.46,6.33,6.33,0,0,1,3-4.76,9.28,9.28,0,0,1-2.39-5.35,9.64,9.64,0,0,1,2.59-7.24,9.57,9.57,0,0,1-3.28-5.85,9.36,9.36,0,0,1,.79-5.25,54.79,54.79,0,0,1-5.86-1.39,52.73,52.73,0,0,1-5.07-1.79c-.34,1.36-.67,2.71-1,4.07a7.1,7.1,0,0,1,5.67,6.24,7.22,7.22,0,0,1-2.59,5.66,7.14,7.14,0,0,1,.2,12.09,17.1,17.1,0,0,1,0,19,15.6,15.6,0,0,1-.4,10.71,14.89,14.89,0,0,1-3.68,5.16,6.45,6.45,0,0,1-.29,4.46,6.53,6.53,0,0,1-3.38,3.27,8.18,8.18,0,0,1-1,6.05c-2.4,3.54-7.5,3.41-10.14,2.78-6.23-1.49-8.49-8-8.65-8.53,3.42,1.91,5.19,1.52,6.06,1.09a18.65,18.65,0,0,0,2.29-1.69l2.59-2a5.3,5.3,0,0,1,1.19-8.82,6.59,6.59,0,0,1-2.59-4.76,6.69,6.69,0,0,1,2.49-5.36,18.57,18.57,0,0,1-3.28-19.73,8.76,8.76,0,0,1-1.39-5.55,8.57,8.57,0,0,1,1.49-4.07,7.83,7.83,0,0,1-1.79-10.11,8.18,8.18,0,0,1-4.18-3.67,7.92,7.92,0,0,1-.89-4.66,10.3,10.3,0,0,1-4.48-.6,9.73,9.73,0,0,1-1.29-.59,202.06,202.06,0,0,1-50,6.94l.93-47.6a15.59,15.59,0,0,1,7.55-2.51,15.76,15.76,0,0,1,8.62,2,11.78,11.78,0,0,0-5.86-4.4,12.48,12.48,0,0,0-10.18,1.36q-.74-5.88-1.46-11.76Zm0,0a23.19,23.19,0,0,0-15.86-1.9,21.94,21.94,0,0,0-8.55,4.37,21,21,0,0,0-6-1.39,21.78,21.78,0,0,0-6.37.39,10.77,10.77,0,0,0-10-5,11.18,11.18,0,0,0-8.16,5.25,10.36,10.36,0,0,0-16.11,6.25,14.69,14.69,0,0,0-11.23,2.87,14,14,0,0,0-4.58,7,11.2,11.2,0,0,0-7.46,3.17,11,11,0,0,0-3,5.75,8.65,8.65,0,0,0-15.31,4.07c-.41-.11-6.55-1.59-11,2.67a11.61,11.61,0,0,0-3.48,7.84c-1.59.47-8.21,2.66-11.54,9.22a17,17,0,0,0-1.79,6.54c-.67.12-6.45,1.2-9.15,6.55a12.23,12.23,0,0,0-1,7.83A13.14,13.14,0,0,0,422,289.26c-.41.24-5.41,3.27-5.66,8.92a10.7,10.7,0,0,0,2,6.55,10.13,10.13,0,0,0-1.59,16.86,7.72,7.72,0,0,0-3.58,7.33,8,8,0,0,0,3.78,5.66,7.12,7.12,0,0,0,1,13.68,17.27,17.27,0,0,1-3.19,13.09c-5.6,7.24-14.86,6.4-15.41,6.34,3.51,2.18,16.61,9.79,26.65,4.57a15.4,15.4,0,0,0,2.19-1.39,109.06,109.06,0,0,0,12.33,31.63,75,75,0,0,1,2.59-21.42c2.53-9.3,4.63-9.7,7.95-19.63,3.14-9.4,4-17.32,5.67-31.9,1.29-11.45.75-12.44,2.12-17.32A53.8,53.8,0,0,1,470.72,291a11.82,11.82,0,0,0-2.14,8.68,11.64,11.64,0,0,0,3.38,6.4,7.85,7.85,0,0,0-2.13,5.15c-.06,4.31,3.77,6.72,4,6.84a18.29,18.29,0,0,1-6.46,15.37c9.08.31,16.58-4.18,18.6-10.51a13.69,13.69,0,0,0-.4-8.72,6,6,0,0,0,2.78-5.46,6.33,6.33,0,0,0-3-4.76,9.28,9.28,0,0,0,2.39-5.35,9.64,9.64,0,0,0-2.59-7.24,9.57,9.57,0,0,0,3.28-5.85,9.36,9.36,0,0,0-.79-5.25,54.79,54.79,0,0,0,5.86-1.39,52.73,52.73,0,0,0,5.07-1.79c.34,1.36.67,2.71,1,4.07a7.1,7.1,0,0,0-5.67,6.24,7.22,7.22,0,0,0,2.59,5.66,7.14,7.14,0,0,0-.2,12.09,17.1,17.1,0,0,0,0,19,15.6,15.6,0,0,0,.4,10.71,15,15,0,0,0,3.67,5.16,6.39,6.39,0,0,0,3.68,7.73,8.18,8.18,0,0,0,1,6.05c2.4,3.54,7.5,3.41,10.14,2.78,6.23-1.49,8.49-8,8.65-8.53-3.42,1.91-5.19,1.52-6.06,1.09a18.65,18.65,0,0,1-2.29-1.69l-2.59-2a5.3,5.3,0,0,0-1.19-8.82,6.59,6.59,0,0,0,2.59-4.76,6.69,6.69,0,0,0-2.49-5.36,18.57,18.57,0,0,0,3.28-19.73,8.76,8.76,0,0,0,1.39-5.55,8.57,8.57,0,0,0-1.49-4.07,7.83,7.83,0,0,0,1.79-10.11,8.18,8.18,0,0,0,4.18-3.67,7.92,7.92,0,0,0,.89-4.66,10.3,10.3,0,0,0,4.48-.6,9.73,9.73,0,0,0,1.29-.59,202.06,202.06,0,0,0,50,6.94l-.93-47.6a15.59,15.59,0,0,0-7.55-2.51,15.76,15.76,0,0,0-8.62,2,11.78,11.78,0,0,1,5.86-4.4,12.48,12.48,0,0,1,10.18,1.36q.74-5.88,1.46-11.76A70.72,70.72,0,0,0,579.1,212,69.44,69.44,0,0,0,579,203.6Z" fill="#42210b"/><path d="M605.56,273.1a11.7,11.7,0,0,0,6.85-9,8.4,8.4,0,0,1-7.25-1.4,8.69,8.69,0,0,0,5.84-.93,8.9,8.9,0,0,0,4.2-6.21,10.8,10.8,0,0,0-5.17-1.1,10.93,10.93,0,0,0-5.67,1.89,9,9,0,0,0-1.49-3.47c-3.27-4.55-9.81-4.12-10.44-4.07.77-.25,8.26-2.57,12.73,1.59a8.72,8.72,0,0,1,1.79,2.38,10.81,10.81,0,0,1,9,0,7.41,7.41,0,0,0,1.39-3.07,7.9,7.9,0,0,0-1.09-5.56,5.39,5.39,0,0,1,3.38,3,5.29,5.29,0,0,1-.1,4.16,13.68,13.68,0,0,1,4,.3,14.09,14.09,0,0,1,2.88,1,12.44,12.44,0,0,0,3.88-6.74,8.16,8.16,0,0,1-.8,7.83,11.46,11.46,0,0,0,2,1.49,10.54,10.54,0,0,0,2.88,1.19c2.15.43,4.86-1.17,7-3.77a7.86,7.86,0,0,1-2.89,4c-1.63,1.1-3.21,1.08-3.38,2s1.27,1.94,2.09,2.38a7.57,7.57,0,0,0,5.17.4,12.68,12.68,0,0,0,5.67-2.78,4.66,4.66,0,0,1-.9,3.17c-1.34,1.65-3.42,1.1-4.07,2.38s.6,3.65,2.18,4.76c2.25,1.59,5.79,1.2,8.85-1a7,7,0,0,1-7.25,4,7.37,7.37,0,0,0,6.26,7.63,8,8,0,0,0,4.09-.36,2.91,2.91,0,0,0,.09,1.75,3.43,3.43,0,0,0,2.58,1.89,9.12,9.12,0,0,0-3.65-.29,5.14,5.14,0,0,0-3.31,1.18c-1.5,1.63-.73,5.16,1.09,7.24a7.88,7.88,0,0,0,6,2.38,17.38,17.38,0,0,0,1.29,2.38,17.81,17.81,0,0,0,1.1,1.48,14,14,0,0,0-3.08-.69c-1.91-.2-3.32-.35-4.28.4-1.89,1.46-1.2,5.74.6,8.23a4,4,0,0,0,2.48,1.88c1.94.31,3.46-1.53,3.58-1.69.25.21,1.34,1.15,1.11,1.93-.14.47-.71.74-2.5,1.15-3,.69-3.56.39-4.38.79-2.07,1-4,5.56-1.49,8.73a6.12,6.12,0,0,0,8.46.89,2.81,2.81,0,0,1-.4,2.28c-1.41,1.62-5-.72-7.26,1.09a3.19,3.19,0,0,0-1.2,3.17c.45,1.42,2.61,2.43,5.29,1.93l-1.21,1.64c.33.8.67,1.59,1,2.38a3.65,3.65,0,0,0-3-1,3.8,3.8,0,0,0-2.48,2.18,4.15,4.15,0,0,0-.5,3.57c.65,1.44,2.58,2.28,4.67,1.89l-2.65,1.87a5.72,5.72,0,0,0-3.51-2.17c-2.05-.32-4.9.55-5.37,2.58-.39,1.66,1,3.41,2.39,4.16a5.52,5.52,0,0,0,6.37-1.36,3.1,3.1,0,0,1-.41,1.76,3.32,3.32,0,0,1-2.29,1.49l.2,3.76a5.72,5.72,0,0,0-2.58-2.77,6.15,6.15,0,0,0-5.47.2,7.49,7.49,0,0,0,.4-2.58c-.06-1.87-.84-2.65-.9-3.87-.05-1.05.44-2.55,2.89-4.46a6,6,0,0,0,3.58-2.38c.09-.14,2.05-3.16.39-5.26a4.23,4.23,0,0,0-4.07-1.29,5.57,5.57,0,0,0-.2-3,6.13,6.13,0,0,0-3.86-3.5,21.37,21.37,0,0,1,2.12,1.14c2.06,1.26,2.38,2,3.6,2.28.1,0,2.26.54,3.51-.71s.94-3.56,0-4.86c-1.32-1.83-4.46-2.4-7.46-.89a33.94,33.94,0,0,1-.8-4.47c-.24-2.27-.3-5,.1-5.05s.7,4.84,3,5.55c1.85.57,4.94-1.72,5.56-4.66.33-1.54.2-4.25-1.88-5.45a4.94,4.94,0,0,0-6.17,1.48c-.75-1.34-.54-2-.4-2.28.74-1.42,4.16-1.09,6.17-.89a18.3,18.3,0,0,1,2.48.4,10.86,10.86,0,0,0,.2-4.57c-.23-1.34-.53-3.09-1.59-3.66-1.51-.82-4.49.84-7.16,4.26a11.18,11.18,0,0,1,2.39-6.15c1.51-1.82,3.07-2.26,3.88-4.36.55-1.45.68-3.52-.1-4s-2.6.44-7.56,6.25c-.25-3.9.75-6.27,1.79-7.73s1.89-1.89,2.19-3.38c.43-2.18-.84-4.91-2.29-5.15s-3.73,2.31-5,6.59a9.84,9.84,0,0,1,.34-4.81c.72-2.11,1.77-2.55,2.18-4.46.46-2.11-.08-4.91-1.39-5.35-1.62-.56-4.15,2.62-5.77,4.66a26.35,26.35,0,0,0-2,2.94,14.23,14.23,0,0,0,1.13-9c-.26-1.11-.81-3.55-2.09-3.77-2.1-.37-4.69,5.54-5.27,5.25s1.94-4.15.6-8a5.18,5.18,0,0,0-2-2.77,5.39,5.39,0,0,0-6,.39c-2.23,1.7-2.9,5.12-1.69,6.55,1.48,1.75,5.11-.29,6.56,1.58,1.1,1.42-.44,3.29.8,4.76,1.06,1.26,2.68.49,4.28,1.49,1.09.69,2.33,2.32,2.38,6.64a45.12,45.12,0,0,0-9.74.7c-5.13.94-9.88,2.77-10,2.58s4.67-1.15,7.76-5.06c.9-1.15,2.21-2.85,1.79-4.86a5.38,5.38,0,0,0-4.18-3.87,5.45,5.45,0,0,0-2,0,6.88,6.88,0,0,1-1.19,4C612.15,272.68,608.91,273.76,605.56,273.1Zm-16.51-55.66a18.52,18.52,0,0,1,3.58,0,15.39,15.39,0,0,0-3.45,3.17,17.14,17.14,0,0,0-3.51,11.14c1-1.71,7.9-12.76,11.86-11.41.73.25,1.65,1,2.26,3.44a5.17,5.17,0,0,1,1.78-4,5.23,5.23,0,0,1,4.45-1c0,.29.86,5.4,4.91,6.87A6.52,6.52,0,0,0,614,226c-.33-.17-3.75-2-3.76-4.81,0-3.28,4.79-5.09,7.3-5.56s6-.11,6.36,1.19c.25.86-.95,1.63-3.85,4.9-1.25,1.41-2.25,2.65-3,3.56.16,2.6.69,3.42,1.24,3.58,2.31.63,6-10.39,9.42-9.79,1.38.25,2.17,2.33,2.38,3.44a6.24,6.24,0,0,1-1.84,5.32l3,4.73a12.26,12.26,0,0,1,1.73-8.07c.82-1.26,3-4.6,6.23-4.36a5.45,5.45,0,0,1,4.77,4c.43,1.87-.58,3.45-1.32,4.62a12.93,12.93,0,0,1-7,5.16l4.23-1.45,3.59,5.28c-.62-4.79,1.17-8.92,4.11-10.18a7.19,7.19,0,0,1,4.11-.26,7.32,7.32,0,0,1,4.25,3.3,7.56,7.56,0,0,1,1.32,5,7.71,7.71,0,0,1-5.17,5.95q1,2.12,2,4.23c1.1-5.91,4.29-9.94,7.43-10a6.48,6.48,0,0,1,6.23,6.48,6.72,6.72,0,0,1-2.12,4.23,10.73,10.73,0,0,1-6.9,3.17c5.26.57,7.87-.67,9.28-2.11s2-3.27,3.19-3.18,1.9,2.14,2,2.38c1.14,3.27-.65,7.51-3.58,9.92a10.85,10.85,0,0,1-4.9,2.25l1.72,2.91a6.75,6.75,0,0,1,3.58-3.44,6.26,6.26,0,0,1,6.9,1.45c2.27,2.71,1.06,7.47-2,9.39-2.83,1.78-6.14.42-6.5.26a13.34,13.34,0,0,0-9.41-13.48c.52-1.74.94-4.24-.27-6.35-.94-1.63-2-1.5-4.64-3.83-3.1-2.72-3.17-4.22-5.3-5a7.52,7.52,0,0,0-5,.14,7,7,0,0,0-8.09-7,37.93,37.93,0,0,0,7.43,11c4,4.08,7.68,5.88,8,9.52.18,2.36-1.17,4.42-2.39,5.82a6.69,6.69,0,0,1,6.77,3.7,6.93,6.93,0,0,1-.53,6.22,13.22,13.22,0,0,1,4.11,5.15,16.08,16.08,0,0,0,14.5-1.71c.42-.21,3.9-1.86,5.78-.4,2.42,1.86,1.56,8.36-2.12,9.78-2.78,1.07-5.77-1.3-6-1.45a4.88,4.88,0,0,0,.66,2.9c1.86,3,6.61,2,7.16,4,.37,1.33-1.45,3.21-3.18,4a5.79,5.79,0,0,1-3.19.39c.28.86.55,1.71.82,2.56a4.6,4.6,0,0,1,4.89.62c1.62,1.56,1.62,4.81-.67,6.87l-4.11,2.51a5,5,0,0,0-2.92,4.37,5.12,5.12,0,0,0,4.38,4.89,22.64,22.64,0,0,0-.49,6.7,12.09,12.09,0,0,0,1.15,5.2c2.43,4.36,8.9,5.17,9.15,4.63s-4.75-1.71-7-6.22a12.18,12.18,0,0,1-.92-7.4,4.85,4.85,0,0,0,5.66-1.82,7.72,7.72,0,0,1-1.18-.06c-2-.24-5.57-1.45-6.34-4.34a4.52,4.52,0,0,1,1.06-4.36c1.25-1.13,3-.9,4.91-.66a13.38,13.38,0,0,1,5,1.72c-.14-1.19-.27-2.38-.4-3.57a4,4,0,0,1-3.05-.66c-1.57-1.24-1.42-3.55-.93-4.89a4.42,4.42,0,0,1,2.12-2.52,4.68,4.68,0,0,1,4.11.14,3,3,0,0,1,.12-3.9,4.4,4.4,0,0,1-5.42.46,4.27,4.27,0,0,1-1.46-3.7c.3-2.69,3.18-3.82,3.58-4a6.26,6.26,0,0,1,4.24,0c-.08-1.26-.15-2.53-.23-3.79-.44.39-2.63,2.28-4.67,1.67-2.76-.81-3.48-5.63-2.39-8.72a5,5,0,0,1,2.59-3.21,4.61,4.61,0,0,1,3.38,0l.92-3.05a5,5,0,0,1-3.23.74c-2.93-.42-4.9-3.92-4.72-6.82a4.67,4.67,0,0,1,1.72-3.7,4.6,4.6,0,0,1,4.71-.1c-.38-1-.75-2.05-1.13-3.07a7.9,7.9,0,0,1-6.36-1.19c-1.82-1.38-3.59-4.19-2.65-6.61a4.29,4.29,0,0,1,1.85-2.12c1.88-1.09,4.49-.73,6.63.93-.7-.8-1.41-1.59-2.12-2.38-.18-1.59-.35-3.18-.53-4.76-1.95,2.86-5.07,4.34-7.82,3.7-3-.7-5.54-3.95-4.91-5.68.12-.33.42-.77,3.05-1.86a40,40,0,0,1,5.2-1.72l-2.54-.7L674,228.54a5,5,0,0,1-.93,3c-2,2.62-6.43,1.67-7.42,1.46-1.17-.25-4.93-1.06-5.84-4a4.16,4.16,0,0,1,.13-2.91c1.08-2.17,4.89-3.17,9.29-1.85l-6.1-.66-1.86-6a7.26,7.26,0,0,1-2.12,5.82c-2.22,1.94-5.13,1.44-6.63,1.19-4.58-.78-9.7-4.54-9-7.41.51-2.1,4.08-3.48,8.36-3.7l-5-4.23c-.52,1.31-2.62,6.19-7.29,7.54-3.18.91-6.91,0-7-.93-.1-.72,2-.94,2.78-2.51,1-1.91-.55-4.71-2.52-7.27a7.92,7.92,0,0,1,.21,4.92,5.3,5.3,0,0,1-1.8,3c-1.63,1.15-3.82.53-6.89-.4A29.55,29.55,0,0,1,618,211a4.91,4.91,0,0,0-.62-2.89,5,5,0,0,0-2.56-2.14,7.22,7.22,0,0,1-.26,6.22c-2.19,3.66-7.06,3.07-7.3,3-.42-.06-3.89-.58-4.64-2.78s2-4.66,1.46-5.15-3.52,1.13-5,4a8.57,8.57,0,0,0-1,3.77,8.88,8.88,0,0,0-4.38-1.59c-5.32-.37-8.76,4.68-9,5A19.37,19.37,0,0,1,589.05,217.44ZM706.92,285c-2-1.53-4.19.07-6.23-1.72-1.88-1.66-1.92-4.68-1.69-6.86a39.13,39.13,0,0,1-6.93-.68,37,37,0,0,1-4.27-1.06,12.66,12.66,0,0,1,1.12,9,12.42,12.42,0,0,1-3.82,6.17,14.12,14.12,0,0,1,8.26,4.75c3,3.92,1,6.82,4.41,11.28,1,1.33,4.24,5.49,9,6.21,1.46.22,2.71.07,3.71,1.06,1.23,1.22.68,2.77,1.2,5.55.58,3.13,1.71,3.45,2.65,6.35,1.13,3.47-.05,4.44.23,9,.22,3.55,1.35,6.55,3.61,12.55,2.73,7.24,3.37,6.58,3.45,8.72.24,6.68-6.2,9.15-5,14.15.76,3.24,3.49,3.52,5.44,6.74s2.72,9-2.82,19.83c1-1.94,1.94-3.9,2.93-5.86q1.59-3.18,3.2-6.3L728,376l1.73-5.12a19.77,19.77,0,0,1-4.54-10.12,19.37,19.37,0,0,1,.8-8.59c.75.37,5.72,2.71,9.14.4.78-.53,1.94-1.61,1.69-2.25-.39-1-3.55.41-6.86-.53-4.91-1.4-8.2-7.4-7.22-8.68.51-.67,2.43-.3,3.64.48s1.33,1.62,2.12,2.65a8.74,8.74,0,0,0,4.91,2.91,5.53,5.53,0,1,1,5.2-9.56c0-1.13-.11-2.27-.16-3.4-1.68,1.78-3,1.84-3.49,1.8-3.3-.25-6.23-6.63-4.33-10.53a4.8,4.8,0,0,1,3.31-2.77c2.48-.4,4.3,1.85,4.39,2,.08-1.58.17-3.16.25-4.74-4.14,1.09-8-1-9-4.1a6.2,6.2,0,0,1,1.85-6.35,6.34,6.34,0,0,1,6.23-1.2l.27-2.63a6.34,6.34,0,0,1-7.29,1.32c-3.42-1.74-3.21-6.05-3.19-6.34a6.76,6.76,0,0,1,3.19-5.42c2.43-1.35,4.66.07,5.57-1.19.74-1.05.21-3.38-1.2-4.37-2.82-2-7,3-10.47,1.19-2.78-1.43-3.83-6.65-2.12-9.25.82-1.26,1.69-1,2.78-2.38,2.28-2.89,1.5-7.9.26-8.2-1.51-.37-2.62,6.55-6.09,6.88s-8.4-6.58-6.9-9.52c.28-.56.61-.62,1.46-1.32,3-2.49,4.68-6.48,4-7.14-.94-.89-5.24,5.07-9.68,4-3.27-.81-6-5.32-5-7.93.21-.58.46-.66,1.19-1.59,2.13-2.68,3.47-6.33,2.79-6.87-1-.76-4.89,5.31-8.22,4.36-.89-.25-1.76-1-4.78-8.73-1.63-4.16-2.82-7.64-3.31-7.53s1.31,5.3-1.33,8.59c-1.23,1.55-3,2.16-2.91,2.51s3-1.28,5.56-.39c3,1.05,5.07,5.63,4.25,9.52-.1.45-.87,4.12-3.58,5.29-1.7.73-3.33.12-4,1.19a1.93,1.93,0,0,0,.26,2.24c1.37,1.3,5.24-.8,5.71-1.05,3.53-2,4.57-4.59,6.36-4.24.65.13,1,.58,1.72,1.46.58.72,3.82,4.75,2.52,7.93-1.05,2.59-4.05,2.09-5.7,5.16a7.62,7.62,0,0,0-.75,4.37c4.64-5.57,10.2-7.11,12.55-5.3,1.84,1.42,2.35,5.38.8,7.67-1.8,2.65-6.07,2.65-6.1,4.23,0,.57.53,1,.93,1.32,4.89-4.09,9.34-5.79,11-4.36s.82,5.33-1.19,7.8c-2.88,3.54-7.65,2.95-8,2.91l.27,3.7c3.25-4.18,8.27-5.58,11.67-3.83s4,5.67,4.11,6.48c.45,2.55.17,6.68-2.39,8.46-2.23,1.55-4.52.16-6.1,1.78-1.31,1.35-1.08,3.7-.73,5.36,2.43-4.29,6.78-5.84,9.22-4.56,2.79,1.46,2.55,6.37,1.92,8.85-.36,1.44-1,3.95-3.18,4.83-2,.81-4.7-.07-6.63-2.25l1,4c.66-.16,4.65-1.11,7.5,1.19,4.37,3.53,2.8,12,.4,12.85-1,.35-2.23-.61-3.18-1.34-3-2.31-3.59-5.7-3.93-5.61-.18.06-.29,1.16.9,5.85.71,2.82,2.61,10.11,3,10s.75-6.67-3-10c-1.27-1.12-2.82-1.72-3.38-3.56-.3-1-.14-1.66.21-3.54.77-4.2,1.16-6.29,1.06-7.44-.23-2.72-1.49-2.25-2.4-5.82-1-4,.36-5.5-1.2-8.33-.87-1.59-1.45-1.36-2.65-3.3-1.38-2.23-1.42-4.43-2-5.95C706.6,292.25,710,287.33,706.92,285ZM552.36,273.1a11.7,11.7,0,0,1-6.85-9,8.4,8.4,0,0,0,7.25-1.4,8.69,8.69,0,0,1-5.84-.93,8.9,8.9,0,0,1-4.2-6.21,10.8,10.8,0,0,1,5.17-1.1,10.93,10.93,0,0,1,5.67,1.89,9,9,0,0,1,1.49-3.47c3.27-4.55,9.81-4.12,10.44-4.07-.77-.25-8.26-2.57-12.73,1.59a8.72,8.72,0,0,0-1.79,2.38,10.81,10.81,0,0,0-9.05,0,7.41,7.41,0,0,1-1.39-3.07,7.9,7.9,0,0,1,1.09-5.56,5.39,5.39,0,0,0-3.38,3,5.29,5.29,0,0,0,.1,4.16,13.68,13.68,0,0,0-4,.3,14.09,14.09,0,0,0-2.88,1,12.44,12.44,0,0,1-3.88-6.74,8.16,8.16,0,0,0,.8,7.83,11.46,11.46,0,0,1-2,1.49,10.54,10.54,0,0,1-2.88,1.19c-2.15.43-4.86-1.17-7-3.77a7.86,7.86,0,0,0,2.89,4c1.63,1.1,3.21,1.08,3.38,2s-1.27,1.94-2.09,2.38a7.57,7.57,0,0,1-5.17.4,12.68,12.68,0,0,1-5.67-2.78,4.66,4.66,0,0,0,.9,3.17c1.34,1.65,3.42,1.1,4.07,2.38s-.6,3.65-2.18,4.76c-2.25,1.59-5.79,1.2-8.85-1a7,7,0,0,0,7.25,4,7.37,7.37,0,0,1-6.26,7.63,8,8,0,0,1-4.09-.36,2.91,2.91,0,0,1-.09,1.75,3.43,3.43,0,0,1-2.58,1.89,9.12,9.12,0,0,1,3.65-.29,5.14,5.14,0,0,1,3.31,1.18c1.5,1.63.73,5.16-1.09,7.24a7.88,7.88,0,0,1-6,2.38,17.38,17.38,0,0,1-1.29,2.38,17.81,17.81,0,0,1-1.1,1.48,14,14,0,0,1,3.08-.69c1.91-.2,3.32-.35,4.28.4,1.89,1.46,1.2,5.74-.6,8.23a4,4,0,0,1-2.48,1.88c-1.94.31-3.46-1.53-3.58-1.69-.25.21-1.34,1.15-1.11,1.93.14.47.71.74,2.5,1.15,3.05.69,3.56.39,4.38.79,2.07,1,4,5.56,1.49,8.73a6.12,6.12,0,0,1-8.46.89,2.81,2.81,0,0,0,.4,2.28c1.41,1.62,5-.72,7.26,1.09a3.19,3.19,0,0,1,1.2,3.17c-.45,1.42-2.61,2.43-5.29,1.93l1.21,1.64c-.33.8-.67,1.59-1,2.38a3.65,3.65,0,0,1,3-1,3.8,3.8,0,0,1,2.48,2.18,4.15,4.15,0,0,1,.5,3.57c-.65,1.44-2.58,2.28-4.67,1.89l2.65,1.87a5.72,5.72,0,0,1,3.51-2.17c2.05-.32,4.9.55,5.37,2.58.39,1.66-1,3.41-2.39,4.16a5.52,5.52,0,0,1-6.37-1.36,3.1,3.1,0,0,0,.41,1.76,3.32,3.32,0,0,0,2.29,1.49l-.2,3.76a5.72,5.72,0,0,1,2.58-2.77,6.15,6.15,0,0,1,5.47.2,7.49,7.49,0,0,1-.4-2.58c.06-1.87.84-2.65.9-3.87,0-1.05-.44-2.55-2.89-4.46a6,6,0,0,1-3.58-2.38c-.09-.14-2.05-3.16-.39-5.26a4.23,4.23,0,0,1,4.07-1.29,5.57,5.57,0,0,1,.2-3,6.13,6.13,0,0,1,3.86-3.5,21.37,21.37,0,0,0-2.12,1.14c-2.06,1.26-2.38,2-3.6,2.28-.1,0-2.26.54-3.51-.71s-.93-3.56,0-4.86c1.32-1.83,4.46-2.4,7.46-.89a33.94,33.94,0,0,0,.8-4.47c.24-2.27.3-5-.1-5.05s-.7,4.84-3,5.55c-1.85.57-4.94-1.72-5.56-4.66-.33-1.54-.2-4.25,1.88-5.45a4.94,4.94,0,0,1,6.17,1.48c.75-1.34.54-2,.4-2.28-.74-1.42-4.16-1.09-6.17-.89a18.3,18.3,0,0,0-2.48.4,10.86,10.86,0,0,1-.2-4.57c.23-1.34.53-3.09,1.59-3.66,1.51-.82,4.49.84,7.16,4.26a11.18,11.18,0,0,0-2.39-6.15c-1.51-1.82-3.07-2.26-3.88-4.36-.55-1.45-.68-3.52.1-4s2.6.44,7.56,6.25c.25-3.9-.75-6.27-1.79-7.73s-1.89-1.89-2.19-3.38c-.43-2.18.84-4.91,2.29-5.15s3.73,2.31,5,6.59a9.84,9.84,0,0,0-.34-4.81c-.72-2.11-1.77-2.55-2.18-4.46-.46-2.11.08-4.91,1.39-5.35,1.62-.56,4.15,2.62,5.77,4.66a26.35,26.35,0,0,1,2,2.94,14.23,14.23,0,0,1-1.13-9c.26-1.11.81-3.55,2.09-3.77,2.1-.37,4.69,5.54,5.27,5.25s-1.94-4.15-.6-8a5.18,5.18,0,0,1,2-2.77,5.39,5.39,0,0,1,6,.39c2.23,1.7,2.9,5.12,1.69,6.55-1.48,1.75-5.11-.29-6.56,1.58-1.1,1.42.44,3.29-.8,4.76-1.06,1.26-2.68.49-4.28,1.49-1.09.69-2.33,2.32-2.38,6.64a45.12,45.12,0,0,1,9.74.7c5.13.94,9.88,2.77,9.95,2.58s-4.67-1.15-7.76-5.06c-.9-1.15-2.21-2.85-1.79-4.86a5.38,5.38,0,0,1,4.18-3.87,5.45,5.45,0,0,1,2,0,6.88,6.88,0,0,0,1.19,4C545.77,272.68,549,273.76,552.36,273.1Zm20.89-54.74c-.19-.28-3.63-5.33-9-5a8.88,8.88,0,0,0-4.38,1.59,8.57,8.57,0,0,0-1-3.77c-1.52-2.83-4.54-4.44-5-4s2.24,2.86,1.46,5.15-4.22,2.72-4.64,2.78c-.24,0-5.11.62-7.3-3a7.22,7.22,0,0,1-.26-6.22,5,5,0,0,0-2.56,2.14A4.91,4.91,0,0,0,540,211a29.55,29.55,0,0,1-6.37,2.77c-3.07.93-5.26,1.55-6.89.4a5.3,5.3,0,0,1-1.8-3,7.92,7.92,0,0,1,.21-4.92c-2,2.56-3.48,5.36-2.52,7.27.79,1.57,2.88,1.79,2.78,2.51-.12.94-3.85,1.84-7,.93-4.67-1.35-6.77-6.23-7.29-7.54l-5,4.23c4.28.22,7.85,1.6,8.36,3.7.68,2.87-4.44,6.63-9,7.41-1.5.25-4.41.75-6.63-1.19a7.26,7.26,0,0,1-2.12-5.82l-1.86,6-6.1.66c4.4-1.32,8.21-.32,9.29,1.85a4.16,4.16,0,0,1,.13,2.91c-.91,2.91-4.67,3.72-5.84,4-1,.21-5.41,1.16-7.42-1.46a5,5,0,0,1-.93-3l-1.73,4.32-2.54.7a40,40,0,0,1,5.2,1.72c2.63,1.09,2.93,1.53,3.05,1.86.63,1.73-1.87,5-4.91,5.68-2.75.64-5.87-.84-7.82-3.7-.18,1.58-.35,3.17-.53,4.76-.71.79-1.42,1.58-2.12,2.38,2.14-1.66,4.75-2,6.63-.93a4.29,4.29,0,0,1,1.85,2.12c.94,2.42-.83,5.23-2.65,6.61a7.9,7.9,0,0,1-6.36,1.19c-.38,1-.75,2.05-1.13,3.07a4.6,4.6,0,0,1,4.71.1,4.67,4.67,0,0,1,1.72,3.7c.18,2.9-1.79,6.4-4.72,6.82a5,5,0,0,1-3.23-.74l.92,3.05a4.61,4.61,0,0,1,3.38,0,5,5,0,0,1,2.59,3.21c1.09,3.09.37,7.91-2.39,8.72-2,.61-4.23-1.28-4.67-1.67-.07,1.26-.15,2.53-.23,3.79a6.26,6.26,0,0,1,4.24,0c.4.15,3.28,1.28,3.58,4a4.27,4.27,0,0,1-1.46,3.7,4.4,4.4,0,0,1-5.42-.46,3,3,0,0,1,.12,3.9,4.68,4.68,0,0,1,4.11-.14,4.42,4.42,0,0,1,2.12,2.52c.49,1.34.64,3.65-.93,4.89a4,4,0,0,1-3.05.66c-.13,1.19-.26,2.38-.4,3.57a13.38,13.38,0,0,1,5-1.72c1.91-.24,3.66-.47,4.91.66a4.52,4.52,0,0,1,1.06,4.36c-.77,2.89-4.32,4.1-6.34,4.34a7.72,7.72,0,0,1-1.18.06,4.85,4.85,0,0,0,5.66,1.82,12.18,12.18,0,0,1-.92,7.4c-2.28,4.51-7.25,5.72-7,6.22s6.72-.27,9.15-4.63a12.09,12.09,0,0,0,1.15-5.2,22.64,22.64,0,0,0-.49-6.7,5.12,5.12,0,0,0,4.38-4.89,5,5,0,0,0-2.92-4.37l-4.11-2.51c-2.29-2.06-2.29-5.31-.67-6.87a4.6,4.6,0,0,1,4.89-.62c.27-.85.54-1.7.82-2.56a5.79,5.79,0,0,1-3.19-.39c-1.73-.76-3.55-2.64-3.18-4,.55-1.94,5.3-1,7.16-4a4.88,4.88,0,0,0,.66-2.9c-.19.15-3.18,2.52-6,1.45-3.68-1.42-4.54-7.92-2.12-9.78,1.88-1.46,5.36.19,5.78.4a16.08,16.08,0,0,0,14.5,1.71,13.46,13.46,0,0,1,.93-1.72,13.61,13.61,0,0,1,3.18-3.43,6.93,6.93,0,0,1-.53-6.22,6.69,6.69,0,0,1,6.77-3.7c-1.22-1.4-2.57-3.46-2.39-5.82.27-3.64,4-5.44,7.95-9.52a37.93,37.93,0,0,0,7.43-11,7,7,0,0,0-8.09,7,7.52,7.52,0,0,0-5-.14c-2.13.81-2.2,2.31-5.3,5-2.66,2.33-3.7,2.2-4.64,3.83-1.21,2.11-.79,4.61-.27,6.35a13.34,13.34,0,0,0-9.41,13.48c-.36.16-3.67,1.52-6.5-.26-3.05-1.92-4.26-6.68-2-9.39a6.26,6.26,0,0,1,6.9-1.45,6.75,6.75,0,0,1,3.58,3.44l1.72-2.91a10.85,10.85,0,0,1-4.9-2.25c-2.93-2.41-4.72-6.65-3.58-9.92.08-.24.79-2.28,2-2.38s1.88,1.84,3.19,3.18,4,2.68,9.28,2.11a10.73,10.73,0,0,1-6.9-3.17,6.72,6.72,0,0,1-2.12-4.23,6.48,6.48,0,0,1,6.23-6.48c3.14.11,6.33,4.14,7.43,10q1-2.11,2-4.23a7.71,7.71,0,0,1-5.17-5.95,7.56,7.56,0,0,1,1.32-5,7.32,7.32,0,0,1,4.25-3.3,7.19,7.19,0,0,1,4.11.26c2.94,1.26,4.73,5.39,4.11,10.18l3.59-5.28,4.23,1.45a12.93,12.93,0,0,1-7-5.16c-.74-1.17-1.75-2.75-1.32-4.62a5.45,5.45,0,0,1,4.77-4c3.25-.24,5.41,3.1,6.23,4.36a12.26,12.26,0,0,1,1.73,8.07l3-4.73a6.24,6.24,0,0,1-1.84-5.32c.21-1.11,1-3.19,2.38-3.44,3.41-.6,7.11,10.42,9.42,9.79.55-.16,1.08-1,1.24-3.58-.71-.91-1.71-2.15-3-3.56-2.9-3.27-4.1-4-3.85-4.9.38-1.3,3.77-1.66,6.36-1.19s7.3,2.28,7.3,5.56c0,2.77-3.43,4.64-3.76,4.81a6.52,6.52,0,0,0,3.09-.32c4-1.47,4.87-6.58,4.91-6.87a5.23,5.23,0,0,1,4.45,1,5.17,5.17,0,0,1,1.78,4c.61-2.43,1.53-3.19,2.26-3.44,4-1.35,10.82,9.7,11.86,11.41a17.14,17.14,0,0,0-3.51-11.14,15.39,15.39,0,0,0-3.45-3.17,18.52,18.52,0,0,1,3.58,0A19.37,19.37,0,0,1,573.25,218.36ZM448.35,300.2c-.57,1.52-.61,3.72-2,5.95-1.2,1.94-1.78,1.71-2.65,3.3-1.56,2.83-.16,4.29-1.2,8.33-.91,3.57-2.17,3.1-2.4,5.82-.1,1.15.29,3.24,1.06,7.44.35,1.88.51,2.57.21,3.54-.56,1.84-2.11,2.44-3.38,3.56-3.74,3.35-3.34,9.94-3,10s2.28-7.2,3-10c1.19-4.69,1.08-5.79.9-5.85-.34-.09-.95,3.3-3.93,5.61-1,.73-2.18,1.69-3.18,1.34-2.4-.84-4-9.32.4-12.85,2.85-2.3,6.84-1.35,7.5-1.19l1-4c-1.93,2.18-4.6,3.06-6.63,2.25-2.19-.88-2.82-3.39-3.18-4.83-.63-2.48-.87-7.39,1.92-8.85,2.44-1.28,6.79.27,9.22,4.56.35-1.66.58-4-.73-5.36-1.58-1.62-3.87-.23-6.1-1.78-2.56-1.78-2.84-5.91-2.39-8.46.15-.81.86-4.81,4.11-6.48s8.42-.35,11.67,3.83l.27-3.7c-.31,0-5.08.63-8-2.91-2-2.47-2.71-6.49-1.19-7.8s6.11.27,11,4.36c.4-.28.94-.75.93-1.32,0-1.58-4.3-1.58-6.1-4.23-1.55-2.29-1-6.25.8-7.67,2.35-1.81,7.91-.27,12.55,5.3a7.62,7.62,0,0,0-.75-4.37c-1.65-3.07-4.65-2.57-5.7-5.16-1.3-3.18,1.94-7.21,2.52-7.93.7-.88,1.07-1.33,1.72-1.46,1.79-.35,2.83,2.28,6.36,4.24.47.25,4.34,2.35,5.71,1.05a1.93,1.93,0,0,0,.26-2.24c-.65-1.07-2.28-.46-4-1.19-2.71-1.17-3.48-4.84-3.58-5.29-.82-3.89,1.22-8.47,4.25-9.52,2.53-.89,5.36.85,5.56.39s-1.68-1-2.91-2.51c-2.64-3.29-.73-8.46-1.33-8.59s-1.68,3.37-3.31,7.53c-3,7.72-3.89,8.48-4.78,8.73-3.33.95-7.26-5.12-8.22-4.36-.68.54.66,4.19,2.79,6.87.73.93,1,1,1.19,1.59,1,2.61-1.77,7.12-5,7.93-4.44,1.11-8.74-4.85-9.68-4-.69.66,1,4.65,4,7.14.85.7,1.18.76,1.46,1.32,1.5,2.94-3.28,9.85-6.9,9.52-3.47-.33-4.58-7.25-6.09-6.88-1.24.3-2,5.31.26,8.2,1.09,1.37,2,1.12,2.78,2.38,1.71,2.6.66,7.82-2.12,9.25-3.43,1.77-7.65-3.17-10.47-1.19-1.41,1-1.94,3.32-1.2,4.37.91,1.26,3.14-.16,5.57,1.19a6.76,6.76,0,0,1,3.19,5.42c0,.29.23,4.6-3.19,6.34a6.34,6.34,0,0,1-7.29-1.32l.27,2.63a6.34,6.34,0,0,1,6.23,1.2,6.2,6.2,0,0,1,1.85,6.35c-1,3.09-4.87,5.19-9,4.1.08,1.58.17,3.16.25,4.74.09-.11,1.91-2.36,4.39-2a4.8,4.8,0,0,1,3.31,2.77c1.9,3.9-1,10.28-4.33,10.53-.52,0-1.81,0-3.49-1.8-.05,1.13-.11,2.27-.16,3.4a5.53,5.53,0,1,1,5.2,9.56,8.7,8.7,0,0,0,4.91-2.91c.79-1,1-1.92,2.12-2.65s3.13-1.15,3.64-.48c1,1.28-2.31,7.28-7.22,8.68-3.31.94-6.47-.46-6.86.53-.25.64.91,1.72,1.69,2.25,3.42,2.31,8.39,0,9.14-.4a19.37,19.37,0,0,1,.8,8.59,19.77,19.77,0,0,1-4.54,10.12l1.73,5.12,2.68,7.9q1.6,3.12,3.2,6.3c1,2,2,3.92,2.93,5.86-5.54-10.86-4.79-16.58-2.82-19.83s4.68-3.5,5.44-6.74c1.16-5-5.28-7.47-5-14.15.08-2.14.72-1.48,3.45-8.72,2.26-6,3.39-9,3.61-12.55.28-4.56-.9-5.53.23-9,.94-2.9,2.07-3.22,2.65-6.35.52-2.78,0-4.33,1.2-5.55,1-1,2.25-.84,3.71-1.06,4.78-.72,8-4.88,9-6.21,3.44-4.46,1.37-7.36,4.41-11.28a14.12,14.12,0,0,1,8.26-4.75,12.42,12.42,0,0,1-3.82-6.17,12.66,12.66,0,0,1,1.12-9,37,37,0,0,1-4.27,1.06,39.13,39.13,0,0,1-6.93.68c.23,2.18.19,5.2-1.69,6.86-2,1.79-4.19.19-6.23,1.72C447.88,287.33,451.32,292.25,448.35,300.2Z" fill="#fff" opacity="0.5" style="mix-blend-mode:overlay"/><path d="M592.43,250.49a8.87,8.87,0,0,1,7.89,5.49,8.16,8.16,0,0,1,4.11,8.72,8.28,8.28,0,0,1-9,6.22,11.06,11.06,0,0,0,5.64-7.41,10.62,10.62,0,0,0-1.26-7.14,13.25,13.25,0,0,0-8.82-3.1,13,13,0,0,0-6.83,2.24A8.88,8.88,0,0,1,592.43,250.49Zm.13,9.91a14.67,14.67,0,0,0-4,5.82,18,18,0,0,0,7.43-4.56,17.64,17.64,0,0,0,3.25-4.63A14.77,14.77,0,0,0,592.56,260.4Zm-6.83-24.32a28.4,28.4,0,0,0,18.17,10c-2.85-1.8-5.93-3.62-9.22-5.42C591.6,239,588.61,237.44,585.73,236.08Zm2.92-6a13,13,0,0,0,12-6.94L595,226.43Q591.81,228.27,588.65,230.13Zm-23.16,20.36A8.87,8.87,0,0,0,557.6,256a8.16,8.16,0,0,0-4.11,8.72,8.28,8.28,0,0,0,9,6.22,11.06,11.06,0,0,1-5.64-7.41,10.62,10.62,0,0,1,1.26-7.14,13.25,13.25,0,0,1,8.82-3.1,13,13,0,0,1,6.83,2.24A8.88,8.88,0,0,0,565.49,250.49ZM558.66,257a17.64,17.64,0,0,0,3.25,4.63,18,18,0,0,0,7.43,4.56A14.56,14.56,0,0,0,558.66,257Zm4.58-16.39c-3.29,1.8-6.37,3.62-9.22,5.42a28.4,28.4,0,0,0,18.17-10C569.31,237.44,566.32,239,563.24,240.64Zm-.34-14.21-5.63-3.24a13,13,0,0,0,12,6.94Q566.11,228.27,562.9,226.43Z" fill="#fff" opacity="0.6" style="mix-blend-mode:overlay"/><path d="M576.32,205.07c1.62-1,9.28-5.7,18.5-3.37a22.07,22.07,0,0,1,8.55,4.37,21,21,0,0,1,6-1.39,21.78,21.78,0,0,1,6.37.39,10.77,10.77,0,0,1,10-5,11.18,11.18,0,0,1,8.16,5.25A10.36,10.36,0,0,1,650,211.52a14.69,14.69,0,0,1,11.23,2.87,14,14,0,0,1,4.58,7,11.2,11.2,0,0,1,7.46,3.17,11,11,0,0,1,3,5.75,8.65,8.65,0,0,1,15.31,4.07c.41-.11,6.55-1.59,11,2.67a11.61,11.61,0,0,1,3.48,7.84c1.59.47,8.21,2.66,11.54,9.22a17,17,0,0,1,1.79,6.54c.67.12,6.45,1.2,9.15,6.55a12.23,12.23,0,0,1,1,7.83,13.14,13.14,0,0,1,6.37,14.28c.41.24,5.41,3.27,5.66,8.92a10.7,10.7,0,0,1-2,6.55,10.13,10.13,0,0,1,1.59,16.86,7.72,7.72,0,0,1,3.58,7.33,8,8,0,0,1-3.78,5.66,7.12,7.12,0,0,1-1,13.68,17.27,17.27,0,0,0,3.19,13.09c5.6,7.24,14.86,6.4,15.41,6.34-3.51,2.18-16.61,9.79-26.65,4.57a15.4,15.4,0,0,1-2.19-1.39,109.06,109.06,0,0,1-12.33,31.63,75,75,0,0,0-2.59-21.42c-2.53-9.3-4.63-9.7-8-19.63-3.14-9.4-4-17.32-5.67-31.9-1.29-11.45-.75-12.44-2.12-17.32A53.8,53.8,0,0,0,687.2,291a11.82,11.82,0,0,1,2.14,8.68,11.64,11.64,0,0,1-3.38,6.4,7.85,7.85,0,0,1,2.13,5.15c.06,4.31-3.77,6.72-4,6.84a18.29,18.29,0,0,0,6.46,15.37C681.5,333.79,674,329.3,672,323a13.69,13.69,0,0,1,.4-8.72,6,6,0,0,1-2.78-5.46,6.33,6.33,0,0,1,3-4.76,9.28,9.28,0,0,1-2.39-5.35,9.64,9.64,0,0,1,2.59-7.24,9.57,9.57,0,0,1-3.28-5.85,9.36,9.36,0,0,1,.79-5.25,54.79,54.79,0,0,1-5.86-1.39,52.73,52.73,0,0,1-5.07-1.79c-.34,1.36-.67,2.71-1,4.07a7.1,7.1,0,0,1,5.67,6.24,7.22,7.22,0,0,1-2.59,5.66,7.14,7.14,0,0,1,.2,12.09,17.1,17.1,0,0,1,0,19,15.6,15.6,0,0,1-.4,10.71,14.89,14.89,0,0,1-3.68,5.16,6.45,6.45,0,0,1-.29,4.46,6.53,6.53,0,0,1-3.38,3.27,8.18,8.18,0,0,1-1,6.05c-2.4,3.54-7.5,3.41-10.14,2.78-6.23-1.49-8.49-8-8.65-8.53,3.42,1.91,5.19,1.52,6.06,1.09a18.65,18.65,0,0,0,2.29-1.69l2.59-2a5.3,5.3,0,0,1,1.19-8.82,6.59,6.59,0,0,1-2.59-4.76,6.69,6.69,0,0,1,2.49-5.36,18.57,18.57,0,0,1-3.28-19.73,8.76,8.76,0,0,1-1.39-5.55,8.57,8.57,0,0,1,1.49-4.07,7.83,7.83,0,0,1-1.79-10.11,8.18,8.18,0,0,1-4.18-3.67,7.92,7.92,0,0,1-.89-4.66,10.3,10.3,0,0,1-4.48-.6,9.73,9.73,0,0,1-1.29-.59,202.06,202.06,0,0,1-50,6.94c.06-1.39.13-2.78.2-4.17a136.2,136.2,0,0,0,47.43-5.75c-.26-.79-.53-1.58-.79-2.38a7.68,7.68,0,0,1-2.89-2.38,7.8,7.8,0,0,1-1.49-4.56,8.11,8.11,0,0,1-3.78-.3,8.31,8.31,0,0,1-4.08-3,10.74,10.74,0,0,1-3.87,2.68,11.31,11.31,0,0,1-7.76.1A23.23,23.23,0,0,0,617,256.34a6.19,6.19,0,0,0,9.45,6.25,8,8,0,0,0,.89,4.36A8.47,8.47,0,0,0,633,271a4.58,4.58,0,0,0,0,4c1.09,1.77,4,2.47,6.57,1a6.38,6.38,0,0,0,5.76,9.22,7.77,7.77,0,0,0-1.69,6.85,7.3,7.3,0,0,0,3.28,4.16,7.64,7.64,0,0,0-2.28,6.25,7.44,7.44,0,0,0,2.88,4.86,13.87,13.87,0,0,0,1.69,18,7.18,7.18,0,0,0-3,5.95,6.85,6.85,0,0,0,2.68,4.86,8.12,8.12,0,0,0-2.38,5.06,7.87,7.87,0,0,0,.89,4.26,9.27,9.27,0,0,1-9.74,5.65,8.13,8.13,0,0,0,7.85,3.87c2.44-.35,5.49-2.12,6-5.06a5.75,5.75,0,0,0-.8-3.76,5.08,5.08,0,0,0,4.18-7.14A10.65,10.65,0,0,0,658.36,325a26.08,26.08,0,0,0,.4-19,7.51,7.51,0,0,0-.7-12.59,7.64,7.64,0,0,0,1.59-5.46,7.83,7.83,0,0,0-3.78-5.65,7.86,7.86,0,0,0,1.1-6.74,8,8,0,0,0-5.17-5,5.43,5.43,0,0,0-3.88-9.22,6.75,6.75,0,0,0-1.79-5.16,7,7,0,0,0-6-1.88,6.69,6.69,0,0,0-2.19-4.37,7.22,7.22,0,0,0-6.46-1.29,8.73,8.73,0,0,0-5.67-2.67,8.52,8.52,0,0,0-5.07,1.29,9.43,9.43,0,0,0-5.57-1.79,9.68,9.68,0,0,0-6.56,2.78,23.39,23.39,0,0,0-2.89-6.15c-1.82-2.75-3.72-4.31-3.58-4.46s2.71,1.72,5.08,4.16c1,1,1.68,1.86,2.18,2.48a11.44,11.44,0,0,1,6.67-1.09,11.09,11.09,0,0,1,4.57,1.79,10,10,0,0,1,6.86-1,9.91,9.91,0,0,1,4.38,2.28c.53-.1,4.89-.87,8.05,2.09a8.31,8.31,0,0,1,2.29,3.77c.23,0,4.25-.34,6.56,2.77a7.18,7.18,0,0,1,1.3,5,6.68,6.68,0,0,1,5.76,3.47,7,7,0,0,1-.09,6.54,6.93,6.93,0,0,1,3.08,2.48,6.72,6.72,0,0,1,1,2.38A29.4,29.4,0,0,0,670,277.06c.29-1.19.59-2.38.89-3.57a4.94,4.94,0,0,1-2.29-1.78,5.05,5.05,0,0,1-.79-3.67,10,10,0,0,1-4.28-7.54,8.4,8.4,0,0,1-5.37-4.46,8.13,8.13,0,0,1-.4-5.35,10,10,0,0,1-7.16-7.44,9.84,9.84,0,0,1-10.84-7.64,10.45,10.45,0,0,1-12.43-4.56,10.91,10.91,0,0,1-8.45,0,10,10,0,0,1-3.68-2.87,12,12,0,0,1-9.64,1.49,11.76,11.76,0,0,1-6.37-4.76,13.18,13.18,0,0,0,9.95,2.87A12.79,12.79,0,0,0,616.4,224a8.79,8.79,0,0,0,5,4.47,9,9,0,0,0,7.75-1.19,8.32,8.32,0,0,0,12.53,4.26,11.33,11.33,0,0,0,5,7.44,11.21,11.21,0,0,0,7.75,1.48,6.8,6.8,0,0,0,1.3,5.46,7,7,0,0,0,6,2.38,7.62,7.62,0,0,0-.1,6.34,7.84,7.84,0,0,0,5.87,4.17,7,7,0,0,0,.7,4.06,7,7,0,0,0,2.88,3,6.42,6.42,0,0,0,0,2.68,6.94,6.94,0,0,0,3,4.16,7.69,7.69,0,0,0-.2,7.54,8.08,8.08,0,0,0-1.09,4.16,8.45,8.45,0,0,0,2.69,5.85,12,12,0,0,0,1,14.38,5.18,5.18,0,0,0,.1,9.82,9.74,9.74,0,0,0-1.89,4.85c-.48,5.51,4.36,9.15,4.87,9.52a12.28,12.28,0,0,0,5.47,2.19,24,24,0,0,1-3.08-15.18,5.44,5.44,0,0,0,4.08-4.26,5.51,5.51,0,0,0-3.58-5.95,9.69,9.69,0,0,0,2.18-14.77,11.16,11.16,0,0,0,1.89-6.65,10.85,10.85,0,0,0-1.29-4.66,8.79,8.79,0,0,0,.7-3.37,9.09,9.09,0,0,0-1.49-5,11.28,11.28,0,0,0-1-13.28,9.74,9.74,0,0,0-2.68-13.59,11.2,11.2,0,0,0-1.2-6,11.76,11.76,0,0,0-7.06-5.65c4.92-.42,9.32,1.74,11,5.35a9.15,9.15,0,0,1,.6,5.66c.54.44,5.19,4.37,4.67,10a10.17,10.17,0,0,1-1.59,4.56,9.7,9.7,0,0,1,1.69,12.79,11.22,11.22,0,0,0,10.34,4.56,7.14,7.14,0,0,0,1,5.46,7.49,7.49,0,0,0,8.45,2.38A16.84,16.84,0,0,0,718,305.92a19.74,19.74,0,0,0,.3,9.91,20,20,0,0,0,4,7.34,8.74,8.74,0,0,0-4.17,8.93c.83,4.68,5.35,6.46,5.57,6.54a7.59,7.59,0,0,0-.8,5.85c1.17,4,5.39,5.11,5.57,5.16a25.15,25.15,0,0,0,1.29,21.22,19.66,19.66,0,0,1-5.47-19.24,10.76,10.76,0,0,1-5.07-5.95,10.58,10.58,0,0,1,0-6.54c-.3-.16-5-2.7-5.37-8a10.33,10.33,0,0,1,3.28-8.13,15.83,15.83,0,0,1-2.88-6,15.66,15.66,0,0,1-.2-6.54,20.36,20.36,0,0,1-9.75-12.2,19.39,19.39,0,0,1,.3-10.71,8.22,8.22,0,0,1-6-2.77,8.09,8.09,0,0,1-1.89-5.85,13,13,0,0,1-6-1.79,12.4,12.4,0,0,1-3-2.48,7.13,7.13,0,0,1,.59,3.47,6.51,6.51,0,0,1-.4,1.79,10.17,10.17,0,0,1,.9,9.22A52.57,52.57,0,0,1,698,302.55c2.7,5.69,3.66,10.39,4.67,15.56,1.58,8.06.79,8.89,2.39,23.11,1.39,12.36,2.5,16.32,3.88,19.83,1.93,4.94,3.28,6.19,5.27,10.31,2.53,5.27,5.14,13.24,5,24.69a156.7,156.7,0,0,0,7.16-15.66q1.93-4.93,3.38-9.52a33,33,0,0,0,9,1.48,33.84,33.84,0,0,0,14.82-3.07A19.3,19.3,0,0,1,737,347.37a5.8,5.8,0,0,0-2-11.21,8.67,8.67,0,0,0,4.28-9.42,8.51,8.51,0,0,0-4.68-5.25,8.44,8.44,0,0,0-.69-15.77,10.9,10.9,0,0,0,1.89-6.74,11.14,11.14,0,0,0-4.08-7.74,15.2,15.2,0,0,0-.8-8,15.42,15.42,0,0,0-6.06-7.34,11.34,11.34,0,0,0-2-7.14,11.5,11.5,0,0,0-7.16-4.56,14.69,14.69,0,0,0-2.78-9.62,15,15,0,0,0-10.05-5.75,9.63,9.63,0,0,0-3.78-9.12,10.07,10.07,0,0,0-8.45-1.39,9.18,9.18,0,0,0-14.52-4.56,13.62,13.62,0,0,0-6.16-6.84,13.43,13.43,0,0,0-7.16-1.49A11.23,11.23,0,0,0,647,215.68a8.1,8.1,0,0,0-13.52-6,10.42,10.42,0,0,0-7.26-5,10.16,10.16,0,0,0-9.55,4.16,12.83,12.83,0,0,0-7.36-1.29A13.66,13.66,0,0,0,600,213.7l1.89-5.95a19.95,19.95,0,0,0-21.09,1.58ZM579,203.6a23.19,23.19,0,0,0-15.86-1.9,21.94,21.94,0,0,0-8.55,4.37,21,21,0,0,0-6-1.39,21.78,21.78,0,0,0-6.37.39,10.77,10.77,0,0,0-10-5,11.18,11.18,0,0,0-8.16,5.25,10.36,10.36,0,0,0-16.11,6.25,14.69,14.69,0,0,0-11.23,2.87,14,14,0,0,0-4.58,7,11.2,11.2,0,0,0-7.46,3.17,11,11,0,0,0-3,5.75,8.65,8.65,0,0,0-15.31,4.07c-.41-.11-6.55-1.59-11,2.67a11.61,11.61,0,0,0-3.48,7.84c-1.59.47-8.21,2.66-11.54,9.22a17,17,0,0,0-1.79,6.54c-.67.12-6.45,1.2-9.15,6.55a12.23,12.23,0,0,0-1,7.83A13.14,13.14,0,0,0,422,289.26c-.41.24-5.41,3.27-5.66,8.92a10.7,10.7,0,0,0,2,6.55,10.13,10.13,0,0,0-1.59,16.86,7.72,7.72,0,0,0-3.58,7.33,8,8,0,0,0,3.78,5.66,7.12,7.12,0,0,0,1,13.68,17.27,17.27,0,0,1-3.19,13.09c-5.6,7.24-14.86,6.4-15.41,6.34,3.51,2.18,16.61,9.79,26.65,4.57a15.4,15.4,0,0,0,2.19-1.39,109.06,109.06,0,0,0,12.33,31.63,75,75,0,0,1,2.59-21.42c2.53-9.3,4.63-9.7,7.95-19.63,3.14-9.4,4-17.32,5.67-31.9,1.29-11.45.75-12.44,2.12-17.32A53.8,53.8,0,0,1,470.72,291a11.82,11.82,0,0,0-2.14,8.68,11.64,11.64,0,0,0,3.38,6.4,7.85,7.85,0,0,0-2.13,5.15c-.06,4.31,3.77,6.72,4,6.84a18.29,18.29,0,0,1-6.46,15.37c9.08.31,16.58-4.18,18.6-10.51a13.69,13.69,0,0,0-.4-8.72,6,6,0,0,0,2.78-5.46,6.33,6.33,0,0,0-3-4.76,9.28,9.28,0,0,0,2.39-5.35,9.64,9.64,0,0,0-2.59-7.24,9.57,9.57,0,0,0,3.28-5.85,9.36,9.36,0,0,0-.79-5.25,54.79,54.79,0,0,0,5.86-1.39,52.73,52.73,0,0,0,5.07-1.79c.34,1.36.67,2.71,1,4.07a7.1,7.1,0,0,0-5.67,6.24,7.22,7.22,0,0,0,2.59,5.66,7.14,7.14,0,0,0-.2,12.09,17.1,17.1,0,0,0,0,19,15.6,15.6,0,0,0,.4,10.71,15,15,0,0,0,3.67,5.16,6.39,6.39,0,0,0,3.68,7.73,8.18,8.18,0,0,0,1,6.05c2.4,3.54,7.5,3.41,10.14,2.78,6.23-1.49,8.49-8,8.65-8.53-3.42,1.91-5.19,1.52-6.06,1.09a18.65,18.65,0,0,1-2.29-1.69l-2.59-2a5.3,5.3,0,0,0-1.19-8.82,6.59,6.59,0,0,0,2.59-4.76,6.69,6.69,0,0,0-2.49-5.36,18.57,18.57,0,0,0,3.28-19.73,8.76,8.76,0,0,0,1.39-5.55,8.57,8.57,0,0,0-1.49-4.07,7.83,7.83,0,0,0,1.79-10.11,8.18,8.18,0,0,0,4.18-3.67,7.92,7.92,0,0,0,.89-4.66,10.3,10.3,0,0,0,4.48-.6,9.73,9.73,0,0,0,1.29-.59,202.06,202.06,0,0,0,50,6.94c-.06-1.39-.13-2.78-.2-4.17A136.2,136.2,0,0,1,530,274.68c.26-.79.53-1.58.79-2.38a7.68,7.68,0,0,0,2.89-2.38,7.8,7.8,0,0,0,1.49-4.56,8.11,8.11,0,0,0,3.78-.3,8.31,8.31,0,0,0,4.08-3,10.74,10.74,0,0,0,3.87,2.68,11.31,11.31,0,0,0,7.76.1,23.23,23.23,0,0,1-13.72-8.53,6.19,6.19,0,0,1-9.45,6.25,8,8,0,0,1-.89,4.36,8.47,8.47,0,0,1-5.67,4.06,4.58,4.58,0,0,1,0,4c-1.09,1.77-4,2.47-6.57,1a6.38,6.38,0,0,1-5.76,9.22,7.77,7.77,0,0,1,1.69,6.85A7.3,7.3,0,0,1,511,296.2a7.64,7.64,0,0,1,2.28,6.25,7.44,7.44,0,0,1-2.88,4.86,13.87,13.87,0,0,1-1.69,18,7.18,7.18,0,0,1,3,5.95,6.85,6.85,0,0,1-2.68,4.86,8.12,8.12,0,0,1,2.38,5.06,7.87,7.87,0,0,1-.89,4.26,9.27,9.27,0,0,0,9.74,5.65,8.13,8.13,0,0,1-7.85,3.87c-2.44-.35-5.49-2.12-6-5.06a5.75,5.75,0,0,1,.8-3.76A5.08,5.08,0,0,1,503,339,10.65,10.65,0,0,1,499.56,325a26.08,26.08,0,0,1-.4-19,7.51,7.51,0,0,1,.7-12.59,7.64,7.64,0,0,1-1.59-5.46,7.83,7.83,0,0,1,3.78-5.65,7.86,7.86,0,0,1-1.1-6.74,8,8,0,0,1,5.17-5A5.43,5.43,0,0,1,510,261.3a6.75,6.75,0,0,1,1.79-5.16,7,7,0,0,1,6-1.88,6.69,6.69,0,0,1,2.19-4.37,7.22,7.22,0,0,1,6.46-1.29,8.73,8.73,0,0,1,5.67-2.67,8.52,8.52,0,0,1,5.07,1.29,9.43,9.43,0,0,1,5.57-1.79,9.68,9.68,0,0,1,6.56,2.78,23.39,23.39,0,0,1,2.89-6.15c1.82-2.75,3.72-4.31,3.57-4.46s-2.7,1.72-5.07,4.16c-.95,1-1.68,1.86-2.18,2.48a11.44,11.44,0,0,0-6.67-1.09,11.09,11.09,0,0,0-4.57,1.79,10,10,0,0,0-6.86-1,9.91,9.91,0,0,0-4.38,2.28c-.53-.1-4.89-.87-8,2.09a8.31,8.31,0,0,0-2.29,3.77c-.23,0-4.25-.34-6.56,2.77a7.18,7.18,0,0,0-1.3,5,6.68,6.68,0,0,0-5.76,3.47,7,7,0,0,0,.09,6.54,6.93,6.93,0,0,0-3.08,2.48,6.72,6.72,0,0,0-1,2.38,29.4,29.4,0,0,1-10.15,2.38l-.89-3.57a4.94,4.94,0,0,0,2.29-1.78,5.05,5.05,0,0,0,.79-3.67,10,10,0,0,0,4.28-7.54,8.4,8.4,0,0,0,5.37-4.46,8.13,8.13,0,0,0,.4-5.35,10,10,0,0,0,7.16-7.44,9.84,9.84,0,0,0,10.84-7.64,10.45,10.45,0,0,0,12.43-4.56,10.91,10.91,0,0,0,8.45,0,10,10,0,0,0,3.68-2.87,12,12,0,0,0,9.64,1.49,11.76,11.76,0,0,0,6.37-4.76,13.18,13.18,0,0,1-10,2.87,12.79,12.79,0,0,1-7.26-3.77,8.79,8.79,0,0,1-5,4.47,9,9,0,0,1-7.75-1.19,8.32,8.32,0,0,1-12.53,4.26,11.33,11.33,0,0,1-5,7.44,11.21,11.21,0,0,1-7.75,1.48,6.84,6.84,0,0,1-1.3,5.46,7,7,0,0,1-6,2.38,7.62,7.62,0,0,1,.1,6.34,7.84,7.84,0,0,1-5.87,4.17,7,7,0,0,1-.7,4.06,7,7,0,0,1-2.88,3,6.42,6.42,0,0,1,0,2.68,6.94,6.94,0,0,1-3,4.16,7.69,7.69,0,0,1,.2,7.54,8.08,8.08,0,0,1,1.09,4.16,8.45,8.45,0,0,1-2.69,5.85,12,12,0,0,1-1,14.38,5.18,5.18,0,0,1-.1,9.82,9.74,9.74,0,0,1,1.89,4.85c.48,5.51-4.36,9.15-4.87,9.52A12.28,12.28,0,0,1,473,331a24,24,0,0,0,3.08-15.18,5.44,5.44,0,0,1-4.08-4.26,5.51,5.51,0,0,1,3.58-5.95,9.69,9.69,0,0,1-2.18-14.77,11.16,11.16,0,0,1-1.89-6.65,10.85,10.85,0,0,1,1.29-4.66,8.79,8.79,0,0,1-.7-3.37,9.09,9.09,0,0,1,1.49-5,11.28,11.28,0,0,1,1-13.28,9.74,9.74,0,0,1,2.68-13.59,11.2,11.2,0,0,1,1.2-6,11.76,11.76,0,0,1,7.06-5.65c-4.92-.42-9.32,1.74-11,5.35a9.15,9.15,0,0,0-.6,5.66c-.54.44-5.19,4.37-4.67,10a10.17,10.17,0,0,0,1.59,4.56,9.7,9.7,0,0,0-1.69,12.79,11.22,11.22,0,0,1-10.34,4.56,7.14,7.14,0,0,1-1,5.46,7.49,7.49,0,0,1-8.45,2.38,16.84,16.84,0,0,1-9.45,22.41,19.74,19.74,0,0,1-.3,9.91,20,20,0,0,1-4,7.34,8.74,8.74,0,0,1,4.17,8.93c-.83,4.68-5.35,6.46-5.57,6.54a7.59,7.59,0,0,1,.8,5.85c-1.17,4-5.39,5.11-5.57,5.16a25.15,25.15,0,0,1-1.29,21.22,19.66,19.66,0,0,0,5.47-19.24,10.76,10.76,0,0,0,5.07-5.95,10.58,10.58,0,0,0,0-6.54c.3-.16,4.95-2.7,5.37-8a10.33,10.33,0,0,0-3.28-8.13,15.83,15.83,0,0,0,2.88-6,15.66,15.66,0,0,0,.2-6.54,20.36,20.36,0,0,0,9.75-12.2,19.39,19.39,0,0,0-.3-10.71,8.22,8.22,0,0,0,6-2.77,8.09,8.09,0,0,0,1.89-5.85,13,13,0,0,0,6-1.79,12.4,12.4,0,0,0,3-2.48,7.13,7.13,0,0,0-.59,3.47,6.51,6.51,0,0,0,.4,1.79,10.17,10.17,0,0,0-.9,9.22,52.57,52.57,0,0,0-9.15,13.39c-2.7,5.69-3.66,10.39-4.67,15.56-1.58,8.06-.79,8.89-2.39,23.11-1.39,12.36-2.5,16.32-3.88,19.83-1.93,4.94-3.28,6.19-5.27,10.31-2.53,5.27-5.14,13.24-5,24.69a156.7,156.7,0,0,1-7.16-15.66q-1.94-4.93-3.38-9.52a33,33,0,0,1-9.05,1.48,33.84,33.84,0,0,1-14.82-3.07,19.3,19.3,0,0,0,16.61-21.91,5.8,5.8,0,0,1,2-11.21,8.67,8.67,0,0,1-4.28-9.42,8.51,8.51,0,0,1,4.68-5.25,8.44,8.44,0,0,1,.69-15.77,10.9,10.9,0,0,1-1.89-6.74,11.14,11.14,0,0,1,4.08-7.74,15.2,15.2,0,0,1,.8-8,15.42,15.42,0,0,1,6.06-7.34,11.34,11.34,0,0,1,2-7.14,11.5,11.5,0,0,1,7.16-4.56,14.69,14.69,0,0,1,2.78-9.62A15,15,0,0,1,455,248.8a9.63,9.63,0,0,1,3.78-9.12,10.07,10.07,0,0,1,8.45-1.39,9.18,9.18,0,0,1,14.52-4.56,13.62,13.62,0,0,1,6.16-6.84,13.43,13.43,0,0,1,7.16-1.49,11.23,11.23,0,0,1,15.82-9.72,8.1,8.1,0,0,1,13.52-6,10.42,10.42,0,0,1,7.26-5,10.16,10.16,0,0,1,9.55,4.16,12.83,12.83,0,0,1,7.36-1.29,13.66,13.66,0,0,1,9.34,6.15L556,207.75a26.86,26.86,0,0,1,10-2.28,27.39,27.39,0,0,1,14.8,3.86l-4.47-4.26,1-.59C577.87,204.15,578.43,203.86,579,203.6Z" fill="#090909"/></g></g></g></svg>