<svg xmlns="http://www.w3.org/2000/svg" viewBox="0 0 1080 1920"><g style="isolation:isolate"><g id="hair"><g id="_42" data-name="42"><path d="M454.36,359.58c-.33,5.17-1,7.8-1.05,13.2a66.57,66.57,0,0,0,1.05,12.44,33.22,33.22,0,0,0-8.85,11.06,32.18,32.18,0,0,0-1.89,4.89c-1.48,5-1.2,8.6-1.86,8.62-1.52,0-4.54-18.82-3.76-41a200.37,200.37,0,0,1,2.41-24.57l3.38-.15,10-.46A81.42,81.42,0,0,1,454.36,359.58Zm8.85-33c-5-2.35-10.74,2.31-11.1,2.61a8.74,8.74,0,0,0-10.85-5.61,6.45,6.45,0,0,0-3.84,2.68,0,0,0,0,1,0,0c-2.17,3.37-.6,8.53,2.71,11.05a5.82,5.82,0,0,0,.73.49,9.3,9.3,0,0,0,9.77-.33,5.93,5.93,0,0,0,4.2,1.84c1.74-.08,2.54-1.19,4.15-2.61a17.36,17.36,0,0,1,3.05-2.15l.64-.35c2.69-1.35,4.11-1.2,4.46-2.42a1.7,1.7,0,0,0,.07-.51C467.18,329.61,465.17,327.5,463.21,326.56Zm13.53-15.47a12.91,12.91,0,0,0-2.13-2.65c-3.55-3.36-8.52-3.41-11.1-3.22a4.91,4.91,0,0,0-7.05-1.85,7.49,7.49,0,0,0-4-4.91,6.19,6.19,0,0,0-3.24-.43,4.21,4.21,0,0,0-1.11.28c-2.8,1.1-4,4.48-3.9,7.06s1.67,6.12,4.2,6.45a4,4,0,0,0,2.7-.77,5.65,5.65,0,0,0,2.1,2.46,6.39,6.39,0,0,0,6.75-.31,9.16,9.16,0,0,0,5.7,2.15c2.63,0,3.39-1.44,6.75-1.69,3-.2,4.43.77,5,0C477.68,313.14,477.37,312.15,476.74,311.09Zm30.76-6.94c-.35-1.93-2.41-4.55-4.68-6a10.36,10.36,0,0,0-4.5-1.53,7.43,7.43,0,0,0-2.85-6.15,6.66,6.66,0,0,0-7.5,0,10.05,10.05,0,0,0-4.35-5.52,9.84,9.84,0,0,0-8.26-.62,8.49,8.49,0,0,0-10.69-8.64,6.93,6.93,0,0,0-2.66,1.43,8.32,8.32,0,0,0-2.87,6.29,7.9,7.9,0,0,0,1.82,5.22c.14.17.29.33.45.49a8.06,8.06,0,0,0,9.15,1.35,10.22,10.22,0,0,0,4.5,5.07,9.86,9.86,0,0,0,6.16,1.08c0,.2,1.25,4.81,5.7,6.14a8.54,8.54,0,0,0,7.5-1.54,11.83,11.83,0,0,0,4.8,4.3c2.78,1.31,7.09,1.89,8.1.16A2.21,2.21,0,0,0,507.5,304.15Zm34.93-8.61a10.07,10.07,0,0,0-7.65-2.92,7.86,7.86,0,0,0-1.5-4.14,8.35,8.35,0,0,0-6.75-3.07,9.45,9.45,0,0,0-4.65-5.38,8.88,8.88,0,0,0-6-.61,11.4,11.4,0,0,0-5.56-6.6,10.76,10.76,0,0,0-6.75-.93,8.59,8.59,0,0,0-2.55-4.3,8.81,8.81,0,0,0-7.35-1.84,12.41,12.41,0,0,0-3.45-5.83c-2.36-2.18-6.19-3.77-9.17-3.4a4.62,4.62,0,0,0-3,1.4,5.66,5.66,0,0,0-1.35,3.72,9.66,9.66,0,0,0,1.15,4.9,8.32,8.32,0,0,0,1.1,1.67,9.46,9.46,0,0,0,7.65,3.07,9.74,9.74,0,0,0,4.8,5.53,9.32,9.32,0,0,0,5.7.77,13.48,13.48,0,0,0,6.6,5.83,12.61,12.61,0,0,0,6.3.77,8.43,8.43,0,0,0,4.66,7.37,7.62,7.62,0,0,0,5.1.31,9.82,9.82,0,0,0,3.6,4.76,9.52,9.52,0,0,0,5.4,1.69,14.31,14.31,0,0,0,6.9,5.22c2.38.79,7.52,1.73,9-.77a2.41,2.41,0,0,0,.35-1C545.4,299.75,543.83,297,542.43,295.54Zm30.45-.71c-.28-2.05-5.73-4.05-7.49-4.66a8,8,0,0,0-1.95-6,7.63,7.63,0,0,0-5.55-2.46,7.66,7.66,0,0,0-1.8-4.6,7.91,7.91,0,0,0-6.9-2.31,8,8,0,0,0-9.91-8,11.48,11.48,0,0,0-3.9-4.92,11.34,11.34,0,0,0-7.8-2,10.63,10.63,0,0,0-3.3-6.3c-3.92-3.51-9-2.28-9.45-2.15a9,9,0,0,0-2-6.6,8.89,8.89,0,0,0-8.91-2.23,7.23,7.23,0,0,0-3.85,2.69,8.06,8.06,0,0,0-1.41,5.08c0,.06,0,.14,0,.22a8.13,8.13,0,0,0,1.55,4.22,7.89,7.89,0,0,0,8.7,2.92,8.44,8.44,0,0,0,4.21,7.21,8.25,8.25,0,0,0,7.05.31,11,11,0,0,0,4.95,6,10.57,10.57,0,0,0,8,.92,9.4,9.4,0,0,0,3.75,6.45,8.78,8.78,0,0,0,5.85,1.54A7.48,7.48,0,0,0,545,288a7,7,0,0,0,7.36,1.07,7.72,7.72,0,0,0,3.3,3.84,7.55,7.55,0,0,0,6.15.46c.14.21,3.13,4.56,7.35,4,1.46-.2,3.64-1.05,3.75-2.31A1,1,0,0,0,572.88,294.83Zm-1.15-26.08a2.89,2.89,0,0,0-.34-1,11.84,11.84,0,0,0-3.15-6.91,11.08,11.08,0,0,0-4.75-2.92,9.8,9.8,0,0,0-3.35-7.22,9.26,9.26,0,0,0-7.8-1.84,8.65,8.65,0,0,0-3.9-5.38,8.25,8.25,0,0,0-6.76-.61,11.93,11.93,0,0,0-3.75-6.45,12.64,12.64,0,0,0-9.3-2.76,4.55,4.55,0,0,0-3.45,1.84c-1.19,2,.41,5.17,1.65,6.76,2.89,3.68,7.59,3.41,8.1,3.37a12,12,0,0,0,14.41,6.76,11.67,11.67,0,0,0,3.9,6.45,11.15,11.15,0,0,0,5.7,2.46,10.84,10.84,0,0,0,2.55,6,10.42,10.42,0,0,0,5.7,3.38,2.68,2.68,0,0,0,3.9.3A2.63,2.63,0,0,0,571.73,268.75ZM456.46,289.09a7.57,7.57,0,0,1-.7-1.75c-.23-.9-.26-1.52-.65-1.63-.85-.23-2.16,2.31-2.4,2.77-.81,1.56-2.09,4-1,5.22s3.32.4,3.6.31l2.34-2.28.66-.64A6.58,6.58,0,0,1,456.46,289.09ZM474.14,269c-.25-1.07-.53-2.17-.8-3.28l-.45-1.76a6.27,6.27,0,0,0-2,.11,5.67,5.67,0,0,0-4,3,5.83,5.83,0,0,0-.15,4.22l4.87.31,2.55-2.54S474.15,269,474.14,269Zm20.74-16.3a10.42,10.42,0,0,1-.31-3,11.13,11.13,0,0,1,.34-2.3l-3.57,1.08-3,.88a7,7,0,0,1-2.14,3.22,6,6,0,0,1-1.46.92c.6.13,1.21.29,1.84.45,1,.26,2,.57,3,.94.42.15.84.3,1.24.46l.08,0,4.08-2.14A4.6,4.6,0,0,1,494.88,252.65Zm49-25.14a12.35,12.35,0,0,0-.45-7.37c-2-4.87-7.37-8-13.65-8a20.44,20.44,0,0,0-9.75-10.29,19.48,19.48,0,0,0-11.86-1.54,12.37,12.37,0,0,0-7.35-1.69,11.28,11.28,0,0,0-3.56,1h0a12.86,12.86,0,0,0-2.88,1.78,14,14,0,0,0-2.7,3c-1.26-.5-9-3.37-16.68.62,0,0,0,0,0,0l-.56.28a18.92,18.92,0,0,0-5.57,4.78,20.38,20.38,0,0,0-1.78,2.59,14.2,14.2,0,0,0-7,1.2h0a12.8,12.8,0,0,0-3.83,2.64,14,14,0,0,0-3.89,7.79h0a12.3,12.3,0,0,0-.16,1.56,16.39,16.39,0,0,0-4.72,1.5,16,16,0,0,0-5,3.88,17,17,0,0,0-4.06,10c-1,.55-7.71,4.42-9.15,12.44a17.7,17.7,0,0,0,1.05,9.67,13.74,13.74,0,0,0-3.75,6.91,14.26,14.26,0,0,0,1.65,9.83l-1.05,7.68a7.67,7.67,0,0,1,3-3.53,8.62,8.62,0,0,1,.95-.49,5.71,5.71,0,0,1,.84-.3,6.92,6.92,0,0,1,2-.29c0-.44,0-.93,0-1.48a26.56,26.56,0,0,1,2.1-9.73,27,27,0,0,1,5.86-8.44,30.28,30.28,0,0,1,5.55-4.46,11.22,11.22,0,0,0,2.55-7.67,10.86,10.86,0,0,0-1.95-5.53,16.93,16.93,0,0,0,4.05-2.11c.47-.35,1-.75,1.47-1.19l0,0a16.59,16.59,0,0,0,5.24-10.8,16,16,0,0,0,3.41-.36,17,17,0,0,0,.34-2.2,16.89,16.89,0,0,0,7.54-1.78h0a17.85,17.85,0,0,0,2.65-3c.43,0,.94.06,1.52.06a17.5,17.5,0,0,0,2.24-2.62,19.63,19.63,0,0,0,9-1.38c.59-.25,1.15-.5,1.67-.77a20.49,20.49,0,0,0,3.28-3.58c.17.16.45.42.82.71a12.46,12.46,0,0,0,6.83,2.67,12.29,12.29,0,0,0,7.5-2,12.06,12.06,0,0,0,7.21,5.07,11.75,11.75,0,0,0,7.65-.92,10.8,10.8,0,0,0,1.7,5.32,0,0,0,0,1,0,0,8.72,8.72,0,0,0,2,2.19c.09.06.17.13.26.18a9.48,9.48,0,0,0,10.09.43,6.87,6.87,0,0,0,.64,1.46,5.88,5.88,0,0,0,4.16,3,6.33,6.33,0,0,0,2.38-.14,4,4,0,0,0,2.87-2.32.16.16,0,0,0,0-.09A4.83,4.83,0,0,0,543.93,227.51Zm29.17,15.77a4,4,0,0,0-.36-.72,4.47,4.47,0,0,0-1.25-1.33,5.33,5.33,0,0,0-1.75-.82,5.28,5.28,0,0,0,.16-1.2,5.35,5.35,0,0,0-3.91-5.55,6.4,6.4,0,0,0-3.45-4.76,5.68,5.68,0,0,0-3.9-.16,6.13,6.13,0,0,0-3.6-3.53,6.54,6.54,0,0,0-2.09-.27,3.84,3.84,0,0,0-3.46,1.81,4.19,4.19,0,0,0,.6,4.45,4.48,4.48,0,0,0,3.75,1.54,6,6,0,0,0,2.7,4.6,5.71,5.71,0,0,0,5,.44,5.72,5.72,0,0,0,2.23,3.09,5.47,5.47,0,0,0,3.3.93,7.15,7.15,0,0,0,1.65,3.37c1,1.19,3.15,2.69,4.2,2C573.73,246.61,573.73,244.76,573.1,243.28Zm-6.71-20.54a12.36,12.36,0,0,1-3.25-5.82c-1-4.51,1.7-6.58.75-10.9a12.61,12.61,0,0,0-4.95-7.07,13.08,13.08,0,0,0-1.5-10c-3.74-5.85-10.82-5.54-11.11-5.53a12.48,12.48,0,0,0-7.65-5.83,11.61,11.61,0,0,0-6.24.32,7.75,7.75,0,0,0-1.11.44c-2.69,1.3-2.57,2.68-5.49,5.17,0,0,0,0,0,0l-.8.65a18.74,18.74,0,0,1-2.79,1.82c-1.59.83-2.55,1.06-3.81,2.63-.4.5-3.19,4-2.1,7.37a5.29,5.29,0,0,0,.73,1.49c1.57,2.22,4.83,3.62,8.57,3.27,0,.22,0,4.07,3,5.84a5.87,5.87,0,0,0,3.45.77,13,13,0,0,0,4.24,4.69c.89.59,4.93,3.25,7,1.6a2.39,2.39,0,0,0,.57-.62,4.16,4.16,0,0,0,.51-1.5h0a8.65,8.65,0,0,0-.78-4.62c-1.68-3.6-5.65-4.37-6.15-4.46a7.57,7.57,0,0,0-1.35-4,8,8,0,0,0-6.27-3.06,5.12,5.12,0,0,0,3.72-1.7,4.88,4.88,0,0,0,.59-.83.18.18,0,0,1,.05-.08h0s0,.08,0,.1a4.93,4.93,0,0,0,1.57,2.51,5.28,5.28,0,0,0,4.34,1l.16,0q0,.09,0,.24v0a7.29,7.29,0,0,0,1.08,5,7.49,7.49,0,0,0,6.12,3.09c.19,0,.31,0,.34,0s-.12.27-.18.43h0a14.38,14.38,0,0,0-.94,6.29,11.6,11.6,0,0,0,.37,2c1.28,4.77,5.22,7.35,8.66,9.09.75.39,1.48.72,2.14,1a34,34,0,0,0,3.9,1.54h0c2.9.91,5.6,1.28,6.14.3C568.3,224.72,567.48,223.94,566.39,222.74ZM413.1,458.47a10,10,0,0,0-4.05-5.22,22.43,22.43,0,0,0,2.85-14.59,20.36,20.36,0,0,0-1.5-4.91,11.14,11.14,0,0,0,2.55-9.21,10.65,10.65,0,0,0-4.5-6.61,15.57,15.57,0,0,1,3.6-17.66,42.81,42.81,0,0,1,.9-12.59,42,42,0,0,1,1.65-5.53,11.16,11.16,0,0,0-2.1-3.22,10.58,10.58,0,0,0-1.94-1.62c-.34-.21-.65-.39-.91-.53a21.05,21.05,0,0,0-7.06,14.59,20.34,20.34,0,0,0,2.86,11.05c-1,.86-9,8.18-8,18.74a20.62,20.62,0,0,0,3.6,9.67,18.68,18.68,0,0,0-4.2,13.36,17.42,17.42,0,0,0,2.85,7.83c-.2.2-4.18,4.18-3,9.52a10.11,10.11,0,0,0,4.35,6.15,14.48,14.48,0,0,0-3.6,18.89,15.32,15.32,0,0,0-5.7,8.29A16.18,16.18,0,0,0,394,507.61a22.23,22.23,0,0,0-4.5,27.34,29.49,29.49,0,0,0-6.3,16.28,28.66,28.66,0,0,0,1.2,10.13,30.72,30.72,0,0,0-6.6,13.82,31,31,0,0,0-.08,11.42c0,.14.05.28.08.41a6.36,6.36,0,0,0-.66.2,8.77,8.77,0,0,0-5.64,6.24,9,9,0,0,0,2.65,8.73,1.71,1.71,0,0,0,.2.18c-.33.14-.68.32-1.07.53a17.16,17.16,0,0,0-7.79,7.92c-.68,1.53-1.65,3.68-.75,5.68a6.12,6.12,0,0,0,7.51,2.76,4.35,4.35,0,0,0,2-2.15,43.33,43.33,0,0,0,2.09-5.52,55,55,0,0,0,1.5-5.38,9.83,9.83,0,0,0,4.05-4.91c1.82-5-1.41-9.51-1.65-9.83a19.32,19.32,0,0,0,8.4-24.57,22.55,22.55,0,0,0,7.5-28.56,23.54,23.54,0,0,0,8.56-13.67,23.07,23.07,0,0,0-.31-10.14A30.58,30.58,0,0,0,409.2,497a29.5,29.5,0,0,0-1.65-8.45,25.74,25.74,0,0,0,3.3-9.67,26.09,26.09,0,0,0-.6-9.68A10.89,10.89,0,0,0,413.1,458.47ZM521.43,233.81c-.34-4-5.53-6.23-9-6.6a12.35,12.35,0,0,0-8.26,2.3,14.42,14.42,0,0,0-8.7-2.3,13.33,13.33,0,0,0-5,1.34h0a16.49,16.49,0,0,0-6.25,5.41,19.25,19.25,0,0,0-12.78,1.67h0l-.85.47a19.82,19.82,0,0,0-7.8,8.63h0a15.57,15.57,0,0,0-.75,1.81,11.93,11.93,0,0,0-3.34.88h0a11.26,11.26,0,0,0-1.3.65,12.14,12.14,0,0,0-3.8,3.51v0a17.52,17.52,0,0,0-2.29,4.75,22.42,22.42,0,0,0-.94,4.89h0c0,.16,0,.26,0,.34a12.75,12.75,0,0,0-1.26.65,24.35,24.35,0,0,0-10.86,12.32,0,0,0,0,0,0,0,27.35,27.35,0,0,0-1.65,6,31.73,31.73,0,0,0-.33,4,15.85,15.85,0,0,0-8.1,9.37,16.09,16.09,0,0,0,.6,10.9,24.07,24.07,0,0,0-4.95,8.91,25,25,0,0,0,.6,15.66,12.74,12.74,0,0,0-4.05,7.68,13.32,13.32,0,0,0,3.45,10.44A17.93,17.93,0,0,0,419.7,355a18.23,18.23,0,0,0,.15,10,6,6,0,0,0-1.8,11.06,8,8,0,0,0-.46,2.11,7.52,7.52,0,0,0,0,1.42,7.94,7.94,0,0,0,1.35,3.69,21.46,21.46,0,0,0-2.84,5.12c-.11.28-.21.57-.31.87a22.36,22.36,0,0,0-1,9.5,24.45,24.45,0,0,0,.68,3.55,20,20,0,0,0-3.75,9.67,17.17,17.17,0,0,0-.1,2s0,0,0,0a21,21,0,0,0,4,12.1,23.27,23.27,0,0,0-2.4,9.37,23,23,0,0,0,.9,7.37,7.93,7.93,0,0,0,.15,9.06h0c-.49.82-1,1.63-1.49,2.45a14.15,14.15,0,0,1,2.1,6.91,14.32,14.32,0,0,1-.88,5.4s0,0,0,.05-.1.27-.15.38l.6,3.69a20.07,20.07,0,0,0-1.8,6.91,20.58,20.58,0,0,0,.23,5.1,20.11,20.11,0,0,0,.82,3.19,6.37,6.37,0,0,0-1.2,1.54,5,5,0,0,0-.44,1c-.46,1.56-.28,3.79.87,8.49.11.38.2.8.32,1.23.4,1.52.94,3.51,1.65,5.83a13.24,13.24,0,0,0-2.25,10.6,12.89,12.89,0,0,0,5.85,8,11.83,11.83,0,0,0-2.4,19.66,16.07,16.07,0,0,0-2.85,11.52A15.83,15.83,0,0,0,419.1,564a16.88,16.88,0,0,0,2.7,23,14.6,14.6,0,0,0,.3,18.12,12.52,12.52,0,0,0-2.55,7.83A12.74,12.74,0,0,0,423.9,622a14.17,14.17,0,0,0-2.7,10,14.32,14.32,0,0,0,6.6,10.13,18.23,18.23,0,0,0-1.8,11.21,18,18,0,0,0,6.75,11.21,16.22,16.22,0,0,0-.9,11.52,15.82,15.82,0,0,0,7.65,9.22,40.6,40.6,0,0,0-1.35,9.06c-.16,4.65-.25,7.2,1.5,8.75,2.24,2,6.56,1.53,9-.77a5.71,5.71,0,0,0,.77-.88c2-2.77,1.35-6.62,1-8.49a15.22,15.22,0,0,0-4.35-8.13,14.09,14.09,0,0,0,2.4-10.45,13.8,13.8,0,0,0-6.45-9.21,19.15,19.15,0,0,0,2.4-13.82,18.46,18.46,0,0,0-6.16-10.14,15.1,15.1,0,0,0-5.4-20.11c.29-.18,5.45-3.57,5.4-9.83a12,12,0,0,0-4.35-8.91,12.12,12.12,0,0,0,2.4-10,11.8,11.8,0,0,0-5.85-7.68,16.74,16.74,0,0,0,3-10.75,17,17,0,0,0-6.9-12.13c.4-.28,5.78-4.27,5.55-11.21a13.68,13.68,0,0,0-5.25-10.13,13.95,13.95,0,0,0,0-19.35,17.75,17.75,0,0,0,1.2-21.35c.29-.22,6-4.8,5.25-11.82a12.9,12.9,0,0,0-4.2-8,16.92,16.92,0,0,0,3.15-11.52,16.14,16.14,0,0,0-2.55-7.06,15,15,0,0,0,3-10.9,14.58,14.58,0,0,0-4.05-8.29,15.55,15.55,0,0,0,2.1-9.68,15.29,15.29,0,0,0-3.9-8.6,17.93,17.93,0,0,0,.45-21.34,11.5,11.5,0,0,0,5.4-10.91,11.84,11.84,0,0,0-5.7-8.6,5.06,5.06,0,0,0,2.85-3.22,5.12,5.12,0,0,0-2.1-5.38,14.13,14.13,0,0,0,5.7-6.75c1.95-5,.74-11-3-15.51a10.93,10.93,0,0,0,6.75-9.37,11.36,11.36,0,0,0-3.9-8.91l.45-7.52c.4-.28,7.29-5.4,6.61-13.21a13.55,13.55,0,0,0-2.86-7.06,6.34,6.34,0,0,0,2.1-2.61,6.58,6.58,0,0,0,.31-4.3,18.14,18.14,0,0,0,5-4.46,19.07,19.07,0,0,0,3.75-9.36,24,24,0,0,0,7-6.61,25.3,25.3,0,0,0,4.5-13.2,22.6,22.6,0,0,0,3.7-1.76,21,21,0,0,0,2.95-2.11c.34-.28.67-.57,1-.89a22.88,22.88,0,0,0,5.85-9.22,20.66,20.66,0,0,0,2.82-.24h0a19.71,19.71,0,0,0,6.63-2.37,18.27,18.27,0,0,0,3-2.15h0a20,20,0,0,0,4-4.75,12.58,12.58,0,0,0,1.49.48,13.37,13.37,0,0,0,5.26.29,13.9,13.9,0,0,0,7.53-3.7h0c.46-.44.8-.81,1-1l.35.32a13.07,13.07,0,0,0,2.19,1.55,10,10,0,0,0,7.23,1.18,7.79,7.79,0,0,0,1.94-.75,9.25,9.25,0,0,0,2.43-2A6.33,6.33,0,0,0,521.43,233.81ZM700.15,360.86c.33,5.17,1,7.8,1.05,13.2a65.72,65.72,0,0,1-1.05,12.44,31.68,31.68,0,0,1,10.74,15.95c1.48,5,1.2,8.6,1.87,8.62,1.51,0,4.54-18.82,3.75-41a202.73,202.73,0,0,0-2.4-24.57l-3.39-.15-10-.46A82.22,82.22,0,0,0,700.15,360.86Zm-12.81-28.31a1.7,1.7,0,0,0,.06.51c.35,1.22,1.77,1.07,4.46,2.42l.64.35a17,17,0,0,1,3,2.15c1.61,1.42,2.41,2.53,4.15,2.61a5.91,5.91,0,0,0,4.2-1.84,9.3,9.3,0,0,0,9.77.33,6.76,6.76,0,0,0,.74-.49c3.3-2.52,4.87-7.68,2.7-11.06h0a6.58,6.58,0,0,0-3.84-2.69,9.72,9.72,0,0,0-2.75-.37,9.47,9.47,0,0,0-8.11,6c-.36-.3-6.14-5-11.1-2.61C689.34,328.78,687.34,330.89,687.34,332.55ZM677.2,314.94c.52.77,2-.2,4.95,0,3.36.25,4.12,1.67,6.75,1.69a9.22,9.22,0,0,0,5.7-2.15,6.41,6.41,0,0,0,6.75.31,5.7,5.7,0,0,0,2.1-2.46,4,4,0,0,0,2.7.77c2.53-.33,4.09-3.79,4.21-6.45s-1.1-6-3.91-7.06a4.67,4.67,0,0,0-1.11-.29,6.27,6.27,0,0,0-3.24.44,7.49,7.49,0,0,0-4.05,4.91,4.91,4.91,0,0,0-7,1.85c-2.58-.2-7.55-.14-11.1,3.22a12.91,12.91,0,0,0-2.13,2.65C677.15,313.43,676.83,314.42,677.2,314.94Zm-30-8c1,1.73,5.32,1.15,8.1-.16a11.69,11.69,0,0,0,4.8-4.3,8.54,8.54,0,0,0,7.5,1.54c4.45-1.33,5.66-5.94,5.71-6.14a9.83,9.83,0,0,0,6.15-1.08,10.11,10.11,0,0,0,4.5-5.07,8.06,8.06,0,0,0,9.15-1.35c.16-.16.31-.32.45-.49a8,8,0,0,0,1.83-5.22,8.4,8.4,0,0,0-2.88-6.3,6.89,6.89,0,0,0-2.66-1.42,8.49,8.49,0,0,0-10.69,8.64,9.84,9.84,0,0,0-8.26.62,10.05,10.05,0,0,0-4.35,5.52,6.66,6.66,0,0,0-7.5,0,7.43,7.43,0,0,0-2.85,6.15,10.36,10.36,0,0,0-4.5,1.53c-2.26,1.45-4.33,4.07-4.68,6A2.21,2.21,0,0,0,647.19,307Zm-37.71-3.89a2.41,2.41,0,0,0,.35,1c1.49,2.5,6.62,1.56,9,.77a14.25,14.25,0,0,0,6.9-5.22,9.52,9.52,0,0,0,5.4-1.69,9.82,9.82,0,0,0,3.6-4.76,7.64,7.64,0,0,0,5.11-.31,8.44,8.44,0,0,0,4.65-7.37,12.72,12.72,0,0,0,6.3-.77,13.53,13.53,0,0,0,6.6-5.83,9.32,9.32,0,0,0,5.7-.77,9.77,9.77,0,0,0,4.8-5.53,9.49,9.49,0,0,0,7.66-3.07,9.28,9.28,0,0,0,1.1-1.67,9.87,9.87,0,0,0,1.15-4.9,5.71,5.71,0,0,0-1.35-3.72,4.67,4.67,0,0,0-3-1.4c-3-.37-6.8,1.22-9.17,3.4a12.41,12.41,0,0,0-3.45,5.83,8.81,8.81,0,0,0-7.35,1.84,8.59,8.59,0,0,0-2.55,4.3,10.81,10.81,0,0,0-6.75.92,11.37,11.37,0,0,0-5.55,6.61,8.91,8.91,0,0,0-6,.61,9.43,9.43,0,0,0-4.65,5.38,8.35,8.35,0,0,0-6.75,3.07,7.86,7.86,0,0,0-1.5,4.14,10.07,10.07,0,0,0-7.65,2.92C610.68,298.31,609.11,301,609.48,303.07Zm-27.86-6.71c.11,1.26,2.29,2.11,3.75,2.31,4.23.56,7.22-3.79,7.35-4a7.55,7.55,0,0,0,6.15-.46,7.76,7.76,0,0,0,3.31-3.84,7,7,0,0,0,7.35-1.07,7.48,7.48,0,0,0,2.25-7.83,8.78,8.78,0,0,0,5.85-1.54,9.4,9.4,0,0,0,3.75-6.45,10.57,10.57,0,0,0,8-.92,11,11,0,0,0,4.95-6,8.27,8.27,0,0,0,7.06-.31,8.45,8.45,0,0,0,4.2-7.21,7.89,7.89,0,0,0,8.7-2.92,8.13,8.13,0,0,0,1.55-4.22c0-.08,0-.16,0-.22a8,8,0,0,0-1.41-5.08,7.23,7.23,0,0,0-3.85-2.69,8.12,8.12,0,0,0-10.85,8.83c-.48-.13-5.54-1.36-9.46,2.15a10.63,10.63,0,0,0-3.3,6.3,11.35,11.35,0,0,0-7.8,2,11.56,11.56,0,0,0-3.9,4.92,7.94,7.94,0,0,0-9.9,8c-.3,0-4.29-.66-6.91,2.3a7.7,7.7,0,0,0-1.8,4.61,7.63,7.63,0,0,0-5.55,2.46,8,8,0,0,0-2,6c-1.76.61-7.21,2.61-7.49,4.66A1,1,0,0,0,581.62,296.36Zm1.8-24.11a2.69,2.69,0,0,0,3.9-.3,10.42,10.42,0,0,0,5.7-3.38,10.77,10.77,0,0,0,2.55-6,11.21,11.21,0,0,0,5.71-2.46,11.8,11.8,0,0,0,3.9-6.45,11.95,11.95,0,0,0,14.4-6.76c.51,0,5.21.31,8.1-3.37,1.24-1.59,2.84-4.78,1.65-6.76a4.55,4.55,0,0,0-3.45-1.84,12.64,12.64,0,0,0-9.3,2.76,12,12,0,0,0-3.75,6.45,8.23,8.23,0,0,0-6.75.61,8.56,8.56,0,0,0-3.9,5.38,9.27,9.27,0,0,0-7.81,1.84A9.8,9.8,0,0,0,591,259.2a11.08,11.08,0,0,0-4.75,2.92,11.91,11.91,0,0,0-3.15,6.91,3.12,3.12,0,0,0-.34,1A2.63,2.63,0,0,0,583.42,272.25Zm112.83,20.12.66.64,2.34,2.28c.28.09,2.64.8,3.6-.31s-.23-3.66-1.05-5.22c-.23-.46-1.55-3-2.4-2.77-.38.11-.42.73-.65,1.63a7.57,7.57,0,0,1-.7,1.75A6.58,6.58,0,0,1,696.25,292.37Zm-15.9-22,2.55,2.54,4.87-.31a5.77,5.77,0,0,0-.15-4.22,5.63,5.63,0,0,0-4-3,6.27,6.27,0,0,0-2-.11l-.45,1.76c-.27,1.1-.55,2.21-.8,3.28C680.36,270.27,680.36,270.29,680.35,270.33Zm-20.86-15.89,4.08,2.14.09.05c.4-.16.81-.31,1.23-.46,1-.37,2-.68,3-.94.63-.16,1.24-.32,1.84-.45a6,6,0,0,1-1.46-.92,7,7,0,0,1-2.14-3.22l-3-.88-3.57-1.08a10.55,10.55,0,0,1,0,5.25A4.6,4.6,0,0,1,659.49,254.44ZM609.8,232.85a.16.16,0,0,0,0,.09,4,4,0,0,0,2.87,2.32,6.33,6.33,0,0,0,2.38.14,5.88,5.88,0,0,0,4.16-3,6.4,6.4,0,0,0,.64-1.46,9.48,9.48,0,0,0,10.09-.43,2.4,2.4,0,0,0,.26-.18,8.54,8.54,0,0,0,2-2.19h0a10.8,10.8,0,0,0,1.7-5.33,11.7,11.7,0,0,0,7.66.93,12.07,12.07,0,0,0,7.2-5.07,12.23,12.23,0,0,0,7.5,2,12.36,12.36,0,0,0,6.83-2.66c.37-.29.65-.55.82-.71a21.29,21.29,0,0,0,3.28,3.58c.52.27,1.09.52,1.67.77a19.67,19.67,0,0,0,9,1.38,17.32,17.32,0,0,0,2.23,2.62c.58,0,1.09,0,1.52-.06a17.85,17.85,0,0,0,2.65,3h0a16.92,16.92,0,0,0,7.54,1.78,17,17,0,0,0,.34,2.2,16,16,0,0,0,3.41.36,16.93,16.93,0,0,0,3.15,8.45,17.42,17.42,0,0,0,2.09,2.35.05.05,0,0,1,0,0c.5.44,1,.84,1.47,1.19a17.12,17.12,0,0,0,4.05,2.11,10.86,10.86,0,0,0-2,5.53,11.22,11.22,0,0,0,2.55,7.67,30,30,0,0,1,5.56,4.46,27.16,27.16,0,0,1,5.85,8.44,26.36,26.36,0,0,1,2.1,9.73c0,.55,0,1,0,1.48a6.92,6.92,0,0,1,2,.29,5.71,5.71,0,0,1,.84.3,8.62,8.62,0,0,1,.95.49,7.67,7.67,0,0,1,3,3.53l-1-7.68a14.2,14.2,0,0,0,1.65-9.83,13.74,13.74,0,0,0-3.75-6.91,17.7,17.7,0,0,0,1.05-9.67c-1.44-8-8.16-11.89-9.15-12.44a17,17,0,0,0-4-10,16.12,16.12,0,0,0-5-3.88,16.39,16.39,0,0,0-4.72-1.5,10.63,10.63,0,0,0-.16-1.56h0a14,14,0,0,0-3.89-7.79,12.89,12.89,0,0,0-3.82-2.64h0a14.18,14.18,0,0,0-7-1.2,20.38,20.38,0,0,0-1.78-2.59,18.77,18.77,0,0,0-5.57-4.78c-.18-.11-.37-.19-.55-.28l0,0c-7.68-4-15.41-1.12-16.68-.62a14,14,0,0,0-2.7-3,13,13,0,0,0-2.87-1.78h0a11.28,11.28,0,0,0-3.56-1,12.37,12.37,0,0,0-7.35,1.69,19.48,19.48,0,0,0-11.86,1.54,20.44,20.44,0,0,0-9.75,10.29c-6.27-.07-11.69,3.11-13.65,8a12.43,12.43,0,0,0-.45,7.37A4.83,4.83,0,0,0,609.8,232.85Zm-28.18,15.6c1,.69,3.15-.81,4.2-2a7.15,7.15,0,0,0,1.65-3.37,5.45,5.45,0,0,0,3.3-.93,5.72,5.72,0,0,0,2.23-3.09,5.71,5.71,0,0,0,5-.44,6.1,6.1,0,0,0,2.71-4.61,4.43,4.43,0,0,0,3.75-1.53A4.21,4.21,0,0,0,605,228a3.87,3.87,0,0,0-3.47-1.81,6.54,6.54,0,0,0-2.09.27,6.13,6.13,0,0,0-3.6,3.53,5.67,5.67,0,0,0-3.9.16c-2.89,1.24-3.42,4.55-3.45,4.76a5.41,5.41,0,0,0-3,2.15,5.48,5.48,0,0,0-.91,3.4,5.28,5.28,0,0,0,.16,1.2,5.42,5.42,0,0,0-1.75.82,4.47,4.47,0,0,0-1.25,1.33,4,4,0,0,0-.36.72C580.78,246,580.78,247.89,581.62,248.45Zm5-21.81c.54,1,3.24.61,6.14-.3h0a33.28,33.28,0,0,0,3.9-1.54c.67-.32,1.39-.65,2.14-1,3.44-1.74,7.38-4.32,8.67-9.09a12.56,12.56,0,0,0,.36-2,14.23,14.23,0,0,0-.94-6.29h0l-.17-.43a3.27,3.27,0,0,0,.33,0,7.49,7.49,0,0,0,6.12-3.09,7.37,7.37,0,0,0,1.09-5v0c0-.1,0-.18,0-.24l.16,0a5.28,5.28,0,0,0,4.34-1,5,5,0,0,0,1.58-2.51.87.87,0,0,0,0-.1h0a.18.18,0,0,1,.05.08,5.51,5.51,0,0,0,.59.83,5.13,5.13,0,0,0,3.73,1.7,8,8,0,0,0-6.28,3.06,7.57,7.57,0,0,0-1.35,4c-.5.09-4.46.86-6.15,4.46a8.75,8.75,0,0,0-.78,4.62h0a4,4,0,0,0,.52,1.5,2.35,2.35,0,0,0,.56.62c2.09,1.65,6.12-1,7-1.6a12.86,12.86,0,0,0,4.24-4.69,5.87,5.87,0,0,0,3.45-.77c3-1.77,3-5.62,3-5.84,3.74.35,7-1,8.57-3.27a5.61,5.61,0,0,0,.74-1.49c1.08-3.39-1.7-6.87-2.1-7.37-1.27-1.57-2.23-1.8-3.82-2.63a18.74,18.74,0,0,1-2.79-1.82l-.8-.65s0,0,0,0c-2.91-2.49-2.8-3.87-5.49-5.17a7.31,7.31,0,0,0-1.11-.44,11.61,11.61,0,0,0-6.24-.32,12.48,12.48,0,0,0-7.65,5.83c-.29,0-7.37-.32-11.11,5.53a13.12,13.12,0,0,0-1.5,10,12.62,12.62,0,0,0-5,7.06c-1,4.33,1.72,6.4.75,10.91a12.36,12.36,0,0,1-3.25,5.82C587,225.22,586.21,226,586.57,226.64ZM744.27,470.5a25.84,25.84,0,0,0-.61,9.68,25.54,25.54,0,0,0,3.31,9.67,29.17,29.17,0,0,0-1.65,8.45,30.52,30.52,0,0,0,4.8,17.5,22.94,22.94,0,0,0-.3,10.14,23.49,23.49,0,0,0,8.55,13.67,22.55,22.55,0,0,0,7.5,28.56,19.32,19.32,0,0,0,8.4,24.57c-.23.32-3.47,4.81-1.65,9.83a9.83,9.83,0,0,0,4,4.91,55,55,0,0,0,1.5,5.38,43.33,43.33,0,0,0,2.09,5.52,4.36,4.36,0,0,0,2,2.15,6.11,6.11,0,0,0,7.5-2.76c.9-2-.06-4.15-.75-5.68a17.16,17.16,0,0,0-7.79-7.92c-.39-.21-.74-.39-1.06-.53l.2-.18a9,9,0,0,0,2.65-8.73,8.79,8.79,0,0,0-5.64-6.24c-.22-.08-.44-.14-.67-.2,0-.13.05-.27.08-.41a31,31,0,0,0-.08-11.42,30.66,30.66,0,0,0-6.6-13.82,28.45,28.45,0,0,0,1.2-10.14,29.49,29.49,0,0,0-6.3-16.27,22.23,22.23,0,0,0-4.5-27.34,16.18,16.18,0,0,0,2.25-12.74,15.4,15.4,0,0,0-5.7-8.3,14.47,14.47,0,0,0-3.6-18.88,10.11,10.11,0,0,0,4.35-6.15c1.19-5.35-2.8-9.32-3-9.52a17.42,17.42,0,0,0,2.85-7.83,18.59,18.59,0,0,0-4.2-13.36,20.51,20.51,0,0,0,3.6-9.67c1-10.56-7-17.88-7.95-18.74a20.36,20.36,0,0,0,2.85-11.05,21.06,21.06,0,0,0-7-14.59c-.27.14-.58.32-.92.53a10.58,10.58,0,0,0-1.94,1.62,11.16,11.16,0,0,0-2.1,3.22,40.57,40.57,0,0,1,1.65,5.53,42.81,42.81,0,0,1,.9,12.59,15.55,15.55,0,0,1,3.61,17.66,10.62,10.62,0,0,0-4.51,6.61,11.13,11.13,0,0,0,2.56,9.21,19.91,19.91,0,0,0-1.51,4.91,22.42,22.42,0,0,0,2.86,14.59,10,10,0,0,0-4.06,5.22A10.87,10.87,0,0,0,744.27,470.5ZM634.85,239.71a9.13,9.13,0,0,0,2.44,2,7.58,7.58,0,0,0,1.93.75,10,10,0,0,0,7.23-1.18,13.07,13.07,0,0,0,2.19-1.55l.35-.32c.21.24.55.61,1,1.05h0a13.9,13.9,0,0,0,7.53,3.7,13.37,13.37,0,0,0,5.26-.29,11.47,11.47,0,0,0,1.49-.48,20.23,20.23,0,0,0,4,4.75h0a18.27,18.27,0,0,0,3,2.15,19.71,19.71,0,0,0,6.63,2.37h0a20.66,20.66,0,0,0,2.82.24,22.88,22.88,0,0,0,5.85,9.22c.34.32.66.61,1,.89a21,21,0,0,0,3,2.11,23,23,0,0,0,3.7,1.76,25.4,25.4,0,0,0,4.5,13.2,24.12,24.12,0,0,0,7.05,6.61,19.11,19.11,0,0,0,3.76,9.36,18,18,0,0,0,4.95,4.46,6.62,6.62,0,0,0,.3,4.3,6.34,6.34,0,0,0,2.1,2.61,13.56,13.56,0,0,0-2.85,7.06c-.69,7.81,6.2,12.93,6.6,13.21l.45,7.52a11.39,11.39,0,0,0-3.9,8.91,10.93,10.93,0,0,0,6.75,9.37c-3.74,4.55-5,10.5-3,15.51a14.18,14.18,0,0,0,5.7,6.75,5.12,5.12,0,0,0-2.1,5.38,5.06,5.06,0,0,0,2.85,3.22,11.84,11.84,0,0,0-5.7,8.6,11.52,11.52,0,0,0,5.4,10.91,17.93,17.93,0,0,0,.45,21.34,15.36,15.36,0,0,0-3.9,8.6,15.62,15.62,0,0,0,2.1,9.68,14.64,14.64,0,0,0-4,8.29,15.08,15.08,0,0,0,3,10.9,16.14,16.14,0,0,0-2.55,7.06,16.92,16.92,0,0,0,3.15,11.52,12.9,12.9,0,0,0-4.2,8c-.8,7,5,11.6,5.25,11.82a17.75,17.75,0,0,0,1.2,21.35,13.95,13.95,0,0,0,0,19.35,13.71,13.71,0,0,0-5.25,10.13c-.23,6.94,5.15,10.93,5.55,11.21a17,17,0,0,0-6.9,12.13A16.74,16.74,0,0,0,724,586a11.83,11.83,0,0,0-5.85,7.68,12.15,12.15,0,0,0,2.4,10,12,12,0,0,0-4.35,8.91c-.05,6.26,5.11,9.65,5.4,9.83A15.74,15.74,0,0,0,714.56,633a15.53,15.53,0,0,0,1.65,9.52,18.41,18.41,0,0,0-6.15,10.14,19,19,0,0,0,2.4,13.82,13.77,13.77,0,0,0-6.46,9.21,14,14,0,0,0,2.41,10.44,15.3,15.3,0,0,0-4.36,8.14c-.32,1.87-1,5.72,1,8.49a5.71,5.71,0,0,0,.77.88c2.46,2.3,6.77,2.75,9,.77,1.75-1.55,1.66-4.1,1.5-8.75a40.6,40.6,0,0,0-1.35-9.06,15.82,15.82,0,0,0,7.65-9.22,16.22,16.22,0,0,0-.9-11.52,18,18,0,0,0,6.75-11.21,18.23,18.23,0,0,0-1.8-11.21,13.73,13.73,0,0,0,3.9-20.11,12.74,12.74,0,0,0,4.35-9.06,12.45,12.45,0,0,0-2.55-7.83,14.6,14.6,0,0,0,.3-18.12,16.88,16.88,0,0,0,2.7-23,15.83,15.83,0,0,0,5.85-10.13,16,16,0,0,0-2.85-11.52,11.83,11.83,0,0,0-2.4-19.66,12.89,12.89,0,0,0,5.85-8,13.23,13.23,0,0,0-2.25-10.6c.72-2.32,1.25-4.31,1.65-5.83.12-.43.22-.85.32-1.23,1.15-4.7,1.33-6.93.87-8.49a5,5,0,0,0-.44-1,6.37,6.37,0,0,0-1.2-1.54,20.11,20.11,0,0,0,.82-3.19,20.58,20.58,0,0,0,.23-5.1,20,20,0,0,0-1.8-6.91l.6-3.69c0-.11-.1-.24-.15-.38s0,0,0-.05a14,14,0,0,1,1.22-12.31c-.5-.82-1-1.63-1.48-2.45,0,0,0,0,0,0a8,8,0,0,0,1-2,7.91,7.91,0,0,0-.9-7.05,23.1,23.1,0,0,0-1.5-16.74,21,21,0,0,0,4-12.1s0,0,0,0a17.17,17.17,0,0,0-.1-2,20,20,0,0,0-3.75-9.67,24.45,24.45,0,0,0,.68-3.55,22.2,22.2,0,0,0-1-9.5c-.1-.3-.2-.59-.31-.87a21.46,21.46,0,0,0-2.84-5.12,7.77,7.77,0,0,0,1.08-2.29,8.08,8.08,0,0,0,.27-1.4,8.51,8.51,0,0,0,0-1.42,8,8,0,0,0-.47-2.11,6,6,0,0,0-1.8-11.06,18.23,18.23,0,0,0,.15-10,17.93,17.93,0,0,0-4-7.37,13.28,13.28,0,0,0,3.45-10.44,12.69,12.69,0,0,0-4.05-7.68,25,25,0,0,0,.6-15.66,23.7,23.7,0,0,0-5-8.91,16.09,16.09,0,0,0,.6-10.9,15.79,15.79,0,0,0-8.1-9.37,28.29,28.29,0,0,0-.33-4,27.35,27.35,0,0,0-1.65-6,0,0,0,0,0,0,0,24.26,24.26,0,0,0-10.85-12.32c-.45-.26-.88-.48-1.27-.66,0-.07,0-.17,0-.33h0a22.42,22.42,0,0,0-.94-4.89A17.47,17.47,0,0,0,701,252.9s0,0,0,0a12,12,0,0,0-3.8-3.51,11.26,11.26,0,0,0-1.3-.65h0a11.84,11.84,0,0,0-3.34-.88,13.38,13.38,0,0,0-.75-1.81h0a19.82,19.82,0,0,0-7.8-8.63c-.29-.16-.56-.32-.85-.47h0a19.25,19.25,0,0,0-12.78-1.67,16.33,16.33,0,0,0-2.43-2.8,16.87,16.87,0,0,0-3.82-2.61h0a13.1,13.1,0,0,0-5-1.34,14.44,14.44,0,0,0-8.7,2.3,12.34,12.34,0,0,0-8.25-2.3c-3.48.37-8.67,2.61-9,6.6A6.38,6.38,0,0,0,634.85,239.71Z" fill="#42210b"/><path d="M454.36,359.58c-.33,5.17-1,7.8-1.05,13.2a66.57,66.57,0,0,0,1.05,12.44,33.22,33.22,0,0,0-8.85,11.06,32.18,32.18,0,0,0-1.89,4.89,185.47,185.47,0,0,1-1.86-34.94,198.86,198.86,0,0,1,2-22.16l10-.46A81.42,81.42,0,0,1,454.36,359.58Zm8.85-33c-5-2.35-10.74,2.31-11.1,2.61a8.74,8.74,0,0,0-10.85-5.61.39.39,0,0,0-.1.14c-2.18,3.37-.6,8.53,2.7,11.05a9.2,9.2,0,0,0,10.5.16,5.89,5.89,0,0,0,4.2,1.84,1.29,1.29,0,0,0,.4-.05c1.45-.21,2.25-1.22,3.69-2.5a16.45,16.45,0,0,1,3.11-2.21,13.61,13.61,0,0,1,1.42-.72C467.18,329.61,465.17,327.5,463.21,326.56Zm11.4-18.12c-3.55-3.36-8.52-3.41-11.1-3.22a4.91,4.91,0,0,0-7.05-1.85,7.49,7.49,0,0,0-4-4.91,6.19,6.19,0,0,0-3.24-.43,8.41,8.41,0,0,0-1.26,4.78c.11,2.66,1.67,6.12,4.2,6.45a4,4,0,0,0,2.7-.77,5.65,5.65,0,0,0,2.1,2.46,6.39,6.39,0,0,0,6.75-.31,9.18,9.18,0,0,0,5.7,2.15c2.63,0,3.39-1.44,6.76-1.69.22,0,.42,0,.62,0A12.91,12.91,0,0,0,474.61,308.44Zm28.21-10.29a10.36,10.36,0,0,0-4.5-1.53,7.43,7.43,0,0,0-2.85-6.15,6.66,6.66,0,0,0-7.5,0,10.05,10.05,0,0,0-4.35-5.52,9.84,9.84,0,0,0-8.26-.62,8.49,8.49,0,0,0-10.69-8.64,8.38,8.38,0,0,0,0,10.38,8,8,0,0,0,9.6,1.85,10.23,10.23,0,0,0,4.51,5.06,9.82,9.82,0,0,0,6.15,1.08c0,.2,1.25,4.81,5.7,6.14a8.57,8.57,0,0,0,7.5-1.53A11.89,11.89,0,0,0,503,303a13.2,13.2,0,0,0,4.53,1.19C507.15,302.22,505.09,299.6,502.82,298.15Zm-12-42.8.08,0a12.68,12.68,0,0,0-4.32-1.35c1,.26,2,.57,3,.94C490,255,490.46,255.19,490.86,255.35Zm51.57,40.19a10.07,10.07,0,0,0-7.65-2.92,7.86,7.86,0,0,0-1.5-4.14,8.35,8.35,0,0,0-6.75-3.07,9.45,9.45,0,0,0-4.65-5.38,8.88,8.88,0,0,0-6-.61,11.4,11.4,0,0,0-5.56-6.6,10.76,10.76,0,0,0-6.75-.93,8.59,8.59,0,0,0-2.55-4.3,8.81,8.81,0,0,0-7.35-1.84,12.41,12.41,0,0,0-3.45-5.83c-2.36-2.18-6.19-3.77-9.17-3.4-1.22,2.59-.48,6.57,1.67,9.13a9.46,9.46,0,0,0,7.65,3.07,9.74,9.74,0,0,0,4.8,5.53,9.32,9.32,0,0,0,5.7.77,13.48,13.48,0,0,0,6.6,5.83,12.63,12.63,0,0,0,6.31.77,8.4,8.4,0,0,0,4.65,7.37,7.55,7.55,0,0,0,5.1.31,9.82,9.82,0,0,0,3.6,4.76,9.45,9.45,0,0,0,5.4,1.69,14.31,14.31,0,0,0,6.9,5.22,15.78,15.78,0,0,0,5.6.82C545.4,299.75,543.83,297,542.43,295.54Zm-27.14-54.38a9.2,9.2,0,0,0-7.23-1.18A10,10,0,0,0,515.29,241.16Zm50.1,49a8,8,0,0,0-1.95-6,7.63,7.63,0,0,0-5.55-2.46,7.66,7.66,0,0,0-1.8-4.6,7.91,7.91,0,0,0-6.9-2.31,8,8,0,0,0-9.91-8,11.48,11.48,0,0,0-3.9-4.92,11.34,11.34,0,0,0-7.8-2,10.63,10.63,0,0,0-3.3-6.3c-3.92-3.51-9-2.28-9.45-2.15a9,9,0,0,0-2-6.6,8.89,8.89,0,0,0-8.91-2.23l-.1.13a8.29,8.29,0,0,0,.15,9.52,7.9,7.9,0,0,0,8.71,2.92,8.41,8.41,0,0,0,4.2,7.21,8.25,8.25,0,0,0,7.05.31,11,11,0,0,0,4.95,6,10.57,10.57,0,0,0,8,.92,9.4,9.4,0,0,0,3.75,6.45,8.78,8.78,0,0,0,5.85,1.54,7.47,7.47,0,0,0,2.26,7.83,7,7,0,0,0,7.35,1.07,7.72,7.72,0,0,0,3.3,3.84,7.51,7.51,0,0,0,6.15.46c.14.21,3.13,4.55,7.34,4C572.6,292.78,567.15,290.78,565.39,290.17Zm-26-56.05a6.33,6.33,0,0,0,2.38-.14l-.13-.12a12.6,12.6,0,0,0-6.41-2.74A5.88,5.88,0,0,0,539.43,234.12Zm32,33.63a11.84,11.84,0,0,0-3.15-6.91,11.08,11.08,0,0,0-4.75-2.92,9.8,9.8,0,0,0-3.35-7.22,9.26,9.26,0,0,0-7.8-1.84,8.65,8.65,0,0,0-3.9-5.38,8.25,8.25,0,0,0-6.76-.61,11.93,11.93,0,0,0-3.75-6.45,12.64,12.64,0,0,0-9.3-2.76c-.53,2,.85,4.63,2,6,2.89,3.68,7.59,3.41,8.1,3.38a12.48,12.48,0,0,0,4.8,5.52,12.31,12.31,0,0,0,9.61,1.23,11.67,11.67,0,0,0,3.9,6.45,11.15,11.15,0,0,0,5.7,2.46,10.84,10.84,0,0,0,2.55,6,10.46,10.46,0,0,0,5.7,3.38,3.18,3.18,0,0,0,.79.64A2.89,2.89,0,0,0,571.39,267.75ZM456.46,289.09a7.57,7.57,0,0,1-.7-1.75c-.64,1.38-1.11,2.93-.35,3.8a2.52,2.52,0,0,0,2.19.59l.66-.64A6.58,6.58,0,0,1,456.46,289.09Zm3.75-2.56a15.54,15.54,0,0,1-1.07-3.12,7.9,7.9,0,0,0,1.82,5.22c.14.17.29.33.45.49.2-.21.4-.4.6-.59A6.72,6.72,0,0,1,460.21,286.53Zm12.68-22.62a6.27,6.27,0,0,0-2,.11,3.2,3.2,0,0,0-.26.48,5.83,5.83,0,0,0-.15,4.22l3.65.23c-.25-1.07-.53-2.17-.8-3.28Zm4.2-.79c-.12-.49-.25-1-.37-1.48a9.66,9.66,0,0,0,1.15,4.9l.05-.05C477.65,265.38,477.38,264.25,477.09,263.12Zm14.25-14.64A6.3,6.3,0,0,1,490,250a6.38,6.38,0,0,1-1.46.93,38.64,38.64,0,0,1,4.84,1.38c.42.15.84.3,1.24.46l.27-.14a10.42,10.42,0,0,1-.31-3,11.13,11.13,0,0,1,.34-2.3Zm7.37,1.93c0,.06,0,.14,0,.22s0,0,0,0A1.39,1.39,0,0,0,498.71,250.41Zm26.92-49.62c0,.22,0,4.07,3,5.84a5.87,5.87,0,0,0,3.45.77,13,13,0,0,0,4.24,4.69c.89.59,4.93,3.25,7,1.6a2.39,2.39,0,0,0,.57-.62,15.71,15.71,0,0,0-10.32-3.47,20.44,20.44,0,0,0-9.75-10.29,19.25,19.25,0,0,0-6.77-1.79C518.63,199.74,521.89,201.14,525.63,200.79Zm-89.1,79.86a6.54,6.54,0,0,1,1.17-.11,26.74,26.74,0,0,1,.48-5.93A27.35,27.35,0,0,0,436.53,280.65Zm17-29a17.52,17.52,0,0,0-2.29,4.75A11.49,11.49,0,0,0,453.55,251.62Zm90.38-24.11a12.35,12.35,0,0,0-.45-7.37c-2-4.87-7.37-8-13.65-8a20.44,20.44,0,0,0-9.75-10.29,19.48,19.48,0,0,0-11.86-1.54,12.37,12.37,0,0,0-7.35-1.69,11.28,11.28,0,0,0-3.56,1h0a14.38,14.38,0,0,0-1.83,2.17c-.2-.08-.56-.22-1.05-.39a14,14,0,0,0-2.7,3c-1.26-.5-9-3.37-16.68.62,0,0,0,0,0,0a20.43,20.43,0,0,0-4.16,5.09,11.75,11.75,0,0,0-2,0,13.62,13.62,0,0,0-8.74,3.79h0l-.08.08a14.33,14.33,0,0,0-4.05,9.37,15.88,15.88,0,0,0-3.59,1h0a15.85,15.85,0,0,0-6.16,4.38,16.89,16.89,0,0,0-4.05,10c-1,.55-7.72,4.42-9.16,12.44a17.79,17.79,0,0,0,1.05,9.67,13.81,13.81,0,0,0-3.75,6.92,14.3,14.3,0,0,0,1.65,9.82q-.42,3.12-.85,6.22c-.06.49-.14,1-.2,1.46a8.47,8.47,0,0,1,1-1.76,7.42,7.42,0,0,1,2-1.77,26.56,26.56,0,0,1,2.1-9.73,27,27,0,0,1,5.86-8.44,30.28,30.28,0,0,1,5.55-4.46,11.22,11.22,0,0,0,2.55-7.67,10.86,10.86,0,0,0-1.95-5.53,16.93,16.93,0,0,0,4.05-2.11c-.11-.18-.21-.32-.3-.45a17.08,17.08,0,0,0,1.77-.74l0,0a16.26,16.26,0,0,0,8.65-11.16,17,17,0,0,0,.34-2.2,16.89,16.89,0,0,0,7.54-1.78h0a3,3,0,0,0,.4-.21,16.41,16.41,0,0,0,3.77-2.75,17.5,17.5,0,0,0,2.24-2.62,19.63,19.63,0,0,0,9-1.38c.59-.25,1.15-.5,1.67-.77a19.65,19.65,0,0,0,4.1-2.87,20.39,20.39,0,0,0,2.93-3.27,12.55,12.55,0,0,0,7.65,3.38,12.29,12.29,0,0,0,7.5-2,12.06,12.06,0,0,0,7.21,5.07,11.74,11.74,0,0,0,7.65-.92,10.25,10.25,0,0,0,3.75,7.52,9.49,9.49,0,0,0,10.35.61,6.17,6.17,0,0,0,4.8,4.46,6.49,6.49,0,0,0,1.53,0A4.83,4.83,0,0,0,543.93,227.51Zm17.86-2.45a5.54,5.54,0,0,0-3-2.41,6.4,6.4,0,0,0-3-.17c.75.39,1.48.72,2.14,1A34,34,0,0,0,561.79,225.06Zm4.2,8.6a6.4,6.4,0,0,0-3.45-4.76,5.68,5.68,0,0,0-3.9-.16,6.13,6.13,0,0,0-3.6-3.53,6.54,6.54,0,0,0-2.09-.27,4.39,4.39,0,0,0,.89,3.7,4.48,4.48,0,0,0,3.75,1.54,6,6,0,0,0,2.7,4.6,5.74,5.74,0,0,0,5,.44,5.63,5.63,0,0,0,2.22,3.09,5.31,5.31,0,0,0,2.41.9,5.35,5.35,0,0,0-3.91-5.55Zm6.75,8.9a4.47,4.47,0,0,0-1.25-1.33,6.56,6.56,0,0,0,1,1.38,6.9,6.9,0,0,0,.66.67A4,4,0,0,0,572.74,242.56Zm-38.48-49.65a4.93,4.93,0,0,0,1.57,2.51,5.28,5.28,0,0,0,4.34,1c-.09-.15-.19-.3-.29-.45A7.75,7.75,0,0,0,534.26,192.91Zm7,7a7.45,7.45,0,0,0-.93-3.32,7.29,7.29,0,0,0,1.08,5,7.49,7.49,0,0,0,6.12,3.09c0-.09-.08-.18-.11-.27C545.7,200.78,541.73,200,541.23,199.92Zm5.49,11.44a2.06,2.06,0,0,0,.37-.23c1.48-1.16,1.33-4,.57-6.06A14.38,14.38,0,0,0,546.72,211.36Zm16.42,5.56c-1-4.51,1.7-6.58.75-10.9a12.61,12.61,0,0,0-4.95-7.07,13.08,13.08,0,0,0-1.5-10c-3.74-5.85-10.82-5.54-11.11-5.53a12.48,12.48,0,0,0-7.65-5.83,11.61,11.61,0,0,0-6.24.32,19.57,19.57,0,0,1-3.66,3.72,17.63,17.63,0,0,1-2.94,1.89s0,0,0,0c-1.46.74-2.4,1-3.59,2.47l-.06.07c-.4.5-3.19,4-2.1,7.37,1,3.06,4.79,5.19,9.3,4.76,0,.22,0,4.07,3,5.84a5.87,5.87,0,0,0,3.45.77,13,13,0,0,0,4.24,4.69,13.65,13.65,0,0,0,4.34,2,8.65,8.65,0,0,0-.78-4.62c-1.68-3.6-5.65-4.37-6.15-4.46a7.57,7.57,0,0,0-1.35-4,8,8,0,0,0-6.27-3.06,5.12,5.12,0,0,0,3.72-1.7,4.88,4.88,0,0,0,.59-.83,3.83,3.83,0,0,0-.56,0c.17,0,.37,0,.61-.05h0a5,5,0,0,0,3.1-1.64,5.54,5.54,0,0,0,.65-.95,4.94,4.94,0,0,0,1.6,2.64,5.29,5.29,0,0,0,4.5.92,7.42,7.42,0,0,0,1,5.22c2.19,3.3,6.26,3.09,6.46,3.07a13.8,13.8,0,0,0-.75,8.76c1.56,5.79,7,8.37,10.8,10.13a29.25,29.25,0,0,0,4.75,1.78A12.36,12.36,0,0,1,563.14,216.92ZM412.06,488.53c-.46,1.56-.28,3.79.87,8.49a21.78,21.78,0,0,0,0-2.56A29.19,29.19,0,0,0,412.06,488.53Zm1-30.06a10,10,0,0,0-4.05-5.22,22.43,22.43,0,0,0,2.85-14.59,20.36,20.36,0,0,0-1.5-4.91,11.14,11.14,0,0,0,2.55-9.21,10.65,10.65,0,0,0-4.5-6.61,15.57,15.57,0,0,1,3.6-17.66,42.81,42.81,0,0,1,.9-12.59,42,42,0,0,1,1.65-5.53,11.16,11.16,0,0,0-2.1-3.22,10.58,10.58,0,0,0-1.94-1.62,19.91,19.91,0,0,0-1.36,22.55c-1,.86-9,8.18-8,18.74a20.5,20.5,0,0,0,3.61,9.67,18.63,18.63,0,0,0-4.21,13.36,17.37,17.37,0,0,0,2.85,7.83c-.2.2-4.18,4.18-3,9.52a10,10,0,0,0,4.36,6.15A14.47,14.47,0,0,0,401.24,484a15.32,15.32,0,0,0-5.7,8.29,16.18,16.18,0,0,0,2.25,12.74,22.23,22.23,0,0,0-4.5,27.34,29.49,29.49,0,0,0-6.3,16.28,28.89,28.89,0,0,0,1.2,10.13,30.72,30.72,0,0,0-6.6,13.82,31.07,31.07,0,0,0,0,11.83,8.62,8.62,0,0,0-3.83,2.15,5.58,5.58,0,0,0-.58.61,8.44,8.44,0,0,0-1.89,3.69,9,9,0,0,0,2.85,8.9,20.14,20.14,0,0,0-3.95,2.38c-.29.22-.58.45-.87.71a15.44,15.44,0,0,0-4,5.36c-.69,1.53-1.66,3.68-.75,5.68a6.08,6.08,0,0,0,5.71,3.17,43.33,43.33,0,0,0,2.09-5.52,55,55,0,0,0,1.5-5.38,9.83,9.83,0,0,0,4.05-4.91c1.82-5-1.41-9.51-1.65-9.83a19.32,19.32,0,0,0,8.4-24.57,22.55,22.55,0,0,0,7.5-28.56,23.54,23.54,0,0,0,8.56-13.67,23.07,23.07,0,0,0-.31-10.14A30.58,30.58,0,0,0,409.2,497a29.5,29.5,0,0,0-1.65-8.45,25.74,25.74,0,0,0,3.3-9.67,26.09,26.09,0,0,0-.6-9.68A10.89,10.89,0,0,0,413.1,458.47Zm.75,8.6.6,3.69a20.07,20.07,0,0,0-1.8,6.91,20.58,20.58,0,0,0,.23,5.1,24.76,24.76,0,0,0,1.72-6.43,25.73,25.73,0,0,0-.6-9.65C414,466.83,413.9,467,413.85,467.07Zm1.95-69.36a43.07,43.07,0,0,1,.31-9.36c-.11.28-.21.57-.31.87a22.36,22.36,0,0,0-1,9.5C415.24,398.26,415.57,397.93,415.8,397.71Zm-3.6,17.66c-.17-.36-.35-.83-.55-1.4a21,21,0,0,0,4,12.1,23.27,23.27,0,0,0-2.4,9.37,23,23,0,0,0,.9,7.37,7.91,7.91,0,0,0-.9,7.05,22.14,22.14,0,0,0,2.4-13.76,20.36,20.36,0,0,0-1.5-4.91A11.1,11.1,0,0,0,416.7,422,10.65,10.65,0,0,0,412.2,415.37Zm2.09,36.51c-.49.82-1,1.63-1.49,2.45a14.15,14.15,0,0,1,2.1,6.91,14.32,14.32,0,0,1-.88,5.4,10.85,10.85,0,0,0,2.83-10.73A9.67,9.67,0,0,0,414.29,451.88Zm3.3-73.76a7.52,7.52,0,0,0,0,1.42,8.08,8.08,0,0,0,.27,1.4c.15-.46.32-.91.48-1.35A10.45,10.45,0,0,0,417.59,378.12Zm22.52-40.81a5.82,5.82,0,0,0,.73.49,11.75,11.75,0,0,0-3.74-6.43l.3-5.11C435.23,329.63,436.8,334.79,440.11,337.31Zm72.32-110.1a12.35,12.35,0,0,0-8.26,2.3,14.42,14.42,0,0,0-8.7-2.3,13.33,13.33,0,0,0-5,1.34h0a16.48,16.48,0,0,0-2.5,2.85c-.28-.06-.73-.15-1.31-.24a19.36,19.36,0,0,0-12.35,2.39,18.72,18.72,0,0,0-2.87,2.08h0a20.16,20.16,0,0,0-5.65,8.36,12.38,12.38,0,0,0-3,.74h0a11.18,11.18,0,0,0-1.65.78,11.59,11.59,0,0,0-2.44,1.91h0c-4.18,4.22-4.56,10.75-4.6,11.61a23.92,23.92,0,0,0-3.74,2.21h0c-.41.31-.85.63-1.27,1a23,23,0,0,0-3.24,3.24A26.66,26.66,0,0,0,440,282.08a15.88,15.88,0,0,0-3.76,2.56,15.32,15.32,0,0,0-4.35,6.81,16.14,16.14,0,0,0,.6,10.9,24.07,24.07,0,0,0-4.95,8.91,25.06,25.06,0,0,0,.6,15.66,12.74,12.74,0,0,0-4.05,7.68A13.32,13.32,0,0,0,427.5,345a17.93,17.93,0,0,0-4.05,7.37,18.33,18.33,0,0,0,.15,10,6,6,0,0,0-1.8,11.06,7.92,7.92,0,0,0,.9,7.22,21.44,21.44,0,0,0-3.15,6,22.73,22.73,0,0,0-.3,13,20,20,0,0,0-3.75,9.67,20.8,20.8,0,0,0,3.9,14.13,23.27,23.27,0,0,0-2.4,9.37,23,23,0,0,0,.9,7.37,7.92,7.92,0,0,0,.15,9.06l-1.5,2.46a14,14,0,0,1,1.05,12.74l.6,3.69a20.47,20.47,0,0,0-.75,15.2,6.37,6.37,0,0,0-1.2,1.54c-1,1.79-1,4,.75,10.75.4,1.52.94,3.52,1.65,5.83a13.24,13.24,0,0,0-2.25,10.6,12.89,12.89,0,0,0,5.85,8,11.83,11.83,0,0,0-2.4,19.66A16.07,16.07,0,0,0,417,551.28a15.87,15.87,0,0,0,5.85,10.13,16.88,16.88,0,0,0,2.7,23,14.6,14.6,0,0,0,.3,18.12,12.52,12.52,0,0,0-2.55,7.83,12.74,12.74,0,0,0,4.35,9.06,14.17,14.17,0,0,0-2.7,10,14.37,14.37,0,0,0,6.6,10.14A17.79,17.79,0,0,0,436.5,662a16.18,16.18,0,0,0-.9,11.51,15.79,15.79,0,0,0,7.66,9.22,39.46,39.46,0,0,0-1.35,9.06c-.17,4.65-.25,7.2,1.5,8.75a6.4,6.4,0,0,0,6,.91c2-2.77,1.35-6.62,1-8.49a15.22,15.22,0,0,0-4.35-8.13,14.09,14.09,0,0,0,2.4-10.45,13.8,13.8,0,0,0-6.45-9.21,19.15,19.15,0,0,0,2.4-13.82,18.46,18.46,0,0,0-6.16-10.14,15.1,15.1,0,0,0-5.4-20.11c.29-.18,5.45-3.57,5.4-9.83a12,12,0,0,0-4.35-8.91,12.12,12.12,0,0,0,2.4-10,11.8,11.8,0,0,0-5.85-7.68,16.74,16.74,0,0,0,3-10.75,17,17,0,0,0-6.9-12.13c.4-.28,5.78-4.27,5.55-11.21a13.68,13.68,0,0,0-5.25-10.13,13.95,13.95,0,0,0,0-19.35,17.75,17.75,0,0,0,1.2-21.35c.29-.22,6-4.8,5.25-11.82a12.9,12.9,0,0,0-4.2-8,16.92,16.92,0,0,0,3.15-11.52,16.14,16.14,0,0,0-2.55-7.06,15,15,0,0,0,3-10.9,14.58,14.58,0,0,0-4.05-8.29,15.55,15.55,0,0,0,2.1-9.68,15.29,15.29,0,0,0-3.9-8.6,17.93,17.93,0,0,0,.45-21.34,11.5,11.5,0,0,0,5.4-10.91,11.84,11.84,0,0,0-5.7-8.6,5.06,5.06,0,0,0,2.85-3.22,5.12,5.12,0,0,0-2.1-5.38,14.13,14.13,0,0,0,5.7-6.75c1.95-5,.74-11-3-15.51a10.93,10.93,0,0,0,6.75-9.37,11.36,11.36,0,0,0-3.9-8.91l.45-7.52c.4-.28,7.29-5.4,6.61-13.21a13.55,13.55,0,0,0-2.86-7.06,6.34,6.34,0,0,0,2.1-2.61,6.58,6.58,0,0,0,.31-4.3,18.14,18.14,0,0,0,5-4.46,19.07,19.07,0,0,0,3.75-9.36,24,24,0,0,0,7-6.61,25.3,25.3,0,0,0,4.5-13.2,22.6,22.6,0,0,0,3.7-1.76c0-.29,0-.56,0-.8a20.93,20.93,0,0,0,2.9-1.31,21.15,21.15,0,0,0,4.75-3.45,22.34,22.34,0,0,0,4.92-6.9h0c.41-.9.71-1.69.93-2.32a19.51,19.51,0,0,0,8.71-2.2h0c.24-.11.48-.26.73-.4a20.08,20.08,0,0,0,4.79-3.87,21,21,0,0,0,2.26-3,13.51,13.51,0,0,0,6.75.77,13.2,13.2,0,0,0,3.78-1.14h0a10.87,10.87,0,0,0,1.36-.73,14.78,14.78,0,0,0,3.4-2.88c3.13,2.93,7.13,4,10.39,2.88a6.33,6.33,0,0,0,1.77-4.62C521.09,229.82,515.9,227.58,512.43,227.21Zm9.81-.35a8.72,8.72,0,0,0,2,2.19c.09.06.17.13.26.18A7.22,7.22,0,0,0,522.24,226.86Zm177.91,134c.33,5.17,1,7.8,1.05,13.2a65.72,65.72,0,0,1-1.05,12.44,31.68,31.68,0,0,1,10.74,15.95,186.16,186.16,0,0,0,1.87-34.94,198.52,198.52,0,0,0-2-22.16l-10-.46A82.22,82.22,0,0,0,700.15,360.86Zm-12.81-28.31a14.6,14.6,0,0,1,1.41.72,16.45,16.45,0,0,1,3.11,2.21c1.44,1.28,2.24,2.29,3.69,2.5a1.33,1.33,0,0,0,.4,0,5.89,5.89,0,0,0,4.2-1.84,9.21,9.21,0,0,0,10.51-.16c3.3-2.52,4.87-7.68,2.7-11l-.1-.15a9.72,9.72,0,0,0-2.75-.37,9.47,9.47,0,0,0-8.11,6c-.36-.3-6.14-5-11.1-2.61C689.34,328.78,687.34,330.89,687.34,332.55Zm-9.57-20.18c.2,0,.4,0,.63,0,3.36.25,4.12,1.67,6.75,1.69a9.16,9.16,0,0,0,5.7-2.15,6.39,6.39,0,0,0,6.75.31,5.65,5.65,0,0,0,2.1-2.46,4,4,0,0,0,2.7.77c2.53-.33,4.09-3.79,4.2-6.45a8.46,8.46,0,0,0-1.26-4.79,6.27,6.27,0,0,0-3.24.44,7.49,7.49,0,0,0-4.05,4.91,4.91,4.91,0,0,0-7,1.85c-2.58-.2-7.55-.14-11.1,3.22A12.91,12.91,0,0,0,677.77,312.37ZM647,305.43a13.14,13.14,0,0,0,4.53-1.19,11.69,11.69,0,0,0,4.8-4.3,8.54,8.54,0,0,0,7.5,1.54c4.45-1.33,5.65-5.94,5.7-6.14a9.86,9.86,0,0,0,6.16-1.08,10.25,10.25,0,0,0,4.5-5.06,8,8,0,0,0,9.6-1.85,8.35,8.35,0,0,0,0-10.38,8.49,8.49,0,0,0-10.69,8.64,9.84,9.84,0,0,0-8.26.62,10.05,10.05,0,0,0-4.35,5.52,6.66,6.66,0,0,0-7.5,0,7.43,7.43,0,0,0-2.85,6.15,10.36,10.36,0,0,0-4.5,1.53C649.43,300.88,647.36,303.5,647,305.43Zm17.88-49.26c1-.37,2-.68,3-.94a12.81,12.81,0,0,0-4.32,1.35l.09.05C664.06,256.47,664.47,256.32,664.89,256.17Zm-55.41,46.9a15.75,15.75,0,0,0,5.6-.82A14.31,14.31,0,0,0,622,297a9.52,9.52,0,0,0,5.4-1.69,9.82,9.82,0,0,0,3.6-4.76,7.64,7.64,0,0,0,5.11-.31,8.44,8.44,0,0,0,4.65-7.37,12.61,12.61,0,0,0,6.3-.77,13.48,13.48,0,0,0,6.6-5.83,9.32,9.32,0,0,0,5.7-.77,9.74,9.74,0,0,0,4.8-5.53,9.46,9.46,0,0,0,7.65-3.07c2.16-2.56,2.89-6.54,1.67-9.13-3-.37-6.8,1.22-9.17,3.4a12.41,12.41,0,0,0-3.45,5.83,8.81,8.81,0,0,0-7.35,1.84,8.59,8.59,0,0,0-2.55,4.3,10.81,10.81,0,0,0-6.75.92,11.37,11.37,0,0,0-5.55,6.61,8.91,8.91,0,0,0-6,.61,9.43,9.43,0,0,0-4.65,5.38,8.35,8.35,0,0,0-6.75,3.07,7.86,7.86,0,0,0-1.5,4.14,10.07,10.07,0,0,0-7.65,2.92C610.68,298.31,609.11,301,609.48,303.07Zm37-61.81a9.2,9.2,0,0,0-7.23,1.18A10,10,0,0,0,646.45,241.26Zm-64.82,54.85c4.22.55,7.2-3.79,7.34-4a7.55,7.55,0,0,0,6.15-.46,7.72,7.72,0,0,0,3.3-3.84,7,7,0,0,0,7.36-1.07,7.48,7.48,0,0,0,2.25-7.83,8.78,8.78,0,0,0,5.85-1.54,9.4,9.4,0,0,0,3.75-6.45,10.57,10.57,0,0,0,8-.92,11,11,0,0,0,4.95-6,8.27,8.27,0,0,0,7.06-.31,8.45,8.45,0,0,0,4.2-7.21,7.89,7.89,0,0,0,8.7-2.92,8.29,8.29,0,0,0,.15-9.52,1.13,1.13,0,0,0-.1-.13,8.12,8.12,0,0,0-10.85,8.83c-.48-.13-5.54-1.36-9.46,2.15a10.63,10.63,0,0,0-3.3,6.3,11.35,11.35,0,0,0-7.8,2,11.56,11.56,0,0,0-3.9,4.92,7.94,7.94,0,0,0-9.9,8c-.3,0-4.29-.66-6.91,2.3a7.7,7.7,0,0,0-1.8,4.61,7.63,7.63,0,0,0-5.55,2.46,8,8,0,0,0-2,6C587.36,292.06,581.91,294.06,581.63,296.11Zm37.61-63.71a12.6,12.6,0,0,0-6.41,2.74l-.13.12a6.33,6.33,0,0,0,2.38.14A5.88,5.88,0,0,0,619.24,232.4ZM582.78,270a3.18,3.18,0,0,0,.79-.64,10.42,10.42,0,0,0,5.7-3.38,10.84,10.84,0,0,0,2.55-6,11.15,11.15,0,0,0,5.7-2.46,11.77,11.77,0,0,0,3.91-6.45,11.95,11.95,0,0,0,14.4-6.76c.51,0,5.21.31,8.1-3.37,1.1-1.41,2.48-4.07,2-6a12.64,12.64,0,0,0-9.3,2.76,12,12,0,0,0-3.75,6.45,8.23,8.23,0,0,0-6.75.61,8.56,8.56,0,0,0-3.9,5.38,9.27,9.27,0,0,0-7.81,1.84A9.8,9.8,0,0,0,591,259.2a11.08,11.08,0,0,0-4.75,2.92,11.91,11.91,0,0,0-3.15,6.91A3.12,3.12,0,0,0,582.78,270Zm113.47,22.34.66.64a2.52,2.52,0,0,0,2.19-.59c.77-.87.29-2.42-.35-3.8a7.57,7.57,0,0,1-.7,1.75A6.58,6.58,0,0,1,696.25,292.37Zm-3.75-2.56c.2.19.4.38.6.59.16-.16.31-.32.45-.49a8,8,0,0,0,1.83-5.22,16.48,16.48,0,0,1-1.08,3.12A6.58,6.58,0,0,1,692.5,289.81ZM681.17,267c-.27,1.1-.55,2.21-.8,3.28L684,270a5.77,5.77,0,0,0-.15-4.22,3.2,3.2,0,0,0-.26-.48,6.27,6.27,0,0,0-2-.11Zm-4.57.82,0,.05a9.87,9.87,0,0,0,1.15-4.9c-.13.49-.25,1-.38,1.47C677.13,265.53,676.86,266.66,676.6,267.77Zm-17-19.09a10.55,10.55,0,0,1,0,5.25l.27.14c.4-.16.82-.31,1.24-.46a40.54,40.54,0,0,1,4.84-1.39,6,6,0,0,1-1.46-.92,6.3,6.3,0,0,1-1.35-1.54Zm-3.86,3.2s0,0,0,0,0-.16,0-.22A1.39,1.39,0,0,0,655.74,251.88ZM637.45,198.8a19.25,19.25,0,0,0-6.77,1.79,20.44,20.44,0,0,0-9.75,10.29,15.66,15.66,0,0,0-10.31,3.47,2.35,2.35,0,0,0,.56.62c2.09,1.65,6.12-1,7-1.6a12.86,12.86,0,0,0,4.24-4.69,5.87,5.87,0,0,0,3.45-.77c3-1.77,3-5.62,3-5.84C632.62,202.42,635.88,201,637.45,198.8Zm78.88,77.09a26.74,26.74,0,0,1,.48,5.93,6.47,6.47,0,0,1,1.17.11A27.35,27.35,0,0,0,716.33,275.89Zm-13.08-18.24A17.47,17.47,0,0,0,701,252.9,11.39,11.39,0,0,0,703.25,257.65Zm-93.45-24.8a6.49,6.49,0,0,0,1.53,0,6.16,6.16,0,0,0,4.8-4.46,9.49,9.49,0,0,0,10.35-.61,10.21,10.21,0,0,0,3.75-7.52,11.77,11.77,0,0,0,7.66.92,12.07,12.07,0,0,0,7.2-5.07,12.29,12.29,0,0,0,7.5,2,12.55,12.55,0,0,0,7.65-3.38,20.39,20.39,0,0,0,2.93,3.27,19.92,19.92,0,0,0,4.1,2.87c.52.27,1.09.52,1.67.77a19.67,19.67,0,0,0,9,1.38,17.32,17.32,0,0,0,2.23,2.62,16.64,16.64,0,0,0,3.77,2.75,3.84,3.84,0,0,0,.4.21h0a16.92,16.92,0,0,0,7.54,1.78,17,17,0,0,0,.34,2.2,16.26,16.26,0,0,0,8.65,11.16.05.05,0,0,1,0,0,18.05,18.05,0,0,0,1.77.74l-.3.45a17.12,17.12,0,0,0,4.05,2.11,10.86,10.86,0,0,0-2,5.53,11.22,11.22,0,0,0,2.55,7.67,30,30,0,0,1,5.56,4.46,27.16,27.16,0,0,1,5.85,8.44,26.36,26.36,0,0,1,2.1,9.73,7.26,7.26,0,0,1,2,1.77,8,8,0,0,1,1,1.76c-.06-.49-.14-1-.2-1.46-.29-2.07-.56-4.14-.85-6.22a14.24,14.24,0,0,0,1.65-9.82,13.74,13.74,0,0,0-3.75-6.92,17.7,17.7,0,0,0,1.05-9.67c-1.44-8-8.17-11.89-9.15-12.44a17,17,0,0,0-4.06-10A16.14,16.14,0,0,0,707,228.6a16,16,0,0,0-4.88-3.06h0a15.34,15.34,0,0,0-3.59-1,14.33,14.33,0,0,0-4-9.37l-.07-.08h0a13.62,13.62,0,0,0-8.74-3.79,11.75,11.75,0,0,0-2,0,20.58,20.58,0,0,0-4.15-5.09l0,0c-7.68-4-15.41-1.12-16.68-.62a14,14,0,0,0-2.7-3c-.49.17-.85.31-1.05.39a14.72,14.72,0,0,0-1.82-2.17h0a11.28,11.28,0,0,0-3.56-1,12.37,12.37,0,0,0-7.35,1.69,19.48,19.48,0,0,0-11.86,1.54,20.44,20.44,0,0,0-9.75,10.29c-6.27-.07-11.69,3.11-13.65,8a12.43,12.43,0,0,0-.45,7.37A4.83,4.83,0,0,0,609.8,232.85Zm-13.18-8c.67-.32,1.39-.65,2.14-1a6.41,6.41,0,0,0-3,.17,5.54,5.54,0,0,0-3,2.41A33.28,33.28,0,0,0,596.62,224.8Zm-11.1,12.29a5.48,5.48,0,0,0-.91,3.4,5.27,5.27,0,0,0,2.41-.9,5.72,5.72,0,0,0,2.23-3.09,5.71,5.71,0,0,0,5-.44,6,6,0,0,0,2.7-4.6,4.5,4.5,0,0,0,3.76-1.54,4.38,4.38,0,0,0,.88-3.7,6.54,6.54,0,0,0-2.09.27,6.13,6.13,0,0,0-3.6,3.53,5.67,5.67,0,0,0-3.9.16c-2.89,1.24-3.42,4.55-3.45,4.76A5.41,5.41,0,0,0,585.52,237.09Zm-4.11,7.47a6.9,6.9,0,0,0,.66-.67,6.56,6.56,0,0,0,.95-1.38,4.47,4.47,0,0,0-1.25,1.33A4,4,0,0,0,581.41,244.56Zm33.22-47.35c-.1.15-.2.3-.29.45a5.28,5.28,0,0,0,4.34-1,5,5,0,0,0,1.58-2.51A7.75,7.75,0,0,0,614.63,197.21Zm-7.5,8.45-.12.27a7.49,7.49,0,0,0,6.12-3.09,7.37,7.37,0,0,0,1.09-5,7.63,7.63,0,0,0-.94,3.32C612.78,201.29,608.81,202.06,607.13,205.66Zm-.28.69c-.76,2.06-.91,4.9.58,6.06a1.69,1.69,0,0,0,.36.23A14.23,14.23,0,0,0,606.85,206.35ZM588.12,224a28.91,28.91,0,0,0,4.75-1.78c3.75-1.76,9.24-4.34,10.81-10.13a13.94,13.94,0,0,0-.75-8.76c.2,0,4.26.23,6.45-3.07a7.37,7.37,0,0,0,1-5.22,5.29,5.29,0,0,0,4.5-.92,4.94,4.94,0,0,0,1.6-2.64,5.54,5.54,0,0,0,.65.95,5,5,0,0,0,3.1,1.64h0c.24,0,.44,0,.62.05a4,4,0,0,0-.57,0,5.51,5.51,0,0,0,.59.83,5.13,5.13,0,0,0,3.73,1.7,8,8,0,0,0-6.28,3.06,7.57,7.57,0,0,0-1.35,4c-.5.09-4.46.86-6.15,4.46a8.75,8.75,0,0,0-.78,4.62,13.87,13.87,0,0,0,4.34-2,13,13,0,0,0,4.24-4.69,5.87,5.87,0,0,0,3.45-.77c3-1.77,3-5.62,3-5.84,4.52.43,8.33-1.7,9.3-4.76,1.09-3.39-1.7-6.87-2.1-7.37,0,0,0,0-.06-.07a8.55,8.55,0,0,0-3.59-2.47s0,0,0,0a17.63,17.63,0,0,1-2.94-1.89,19.57,19.57,0,0,1-3.66-3.72,11.61,11.61,0,0,0-6.24-.32,12.48,12.48,0,0,0-7.65,5.83c-.29,0-7.37-.32-11.11,5.53a13.12,13.12,0,0,0-1.5,10,12.62,12.62,0,0,0-5,7.06c-1,4.33,1.72,6.4.75,10.91A12.36,12.36,0,0,1,588.12,224ZM741.56,495.74c0,.88,0,1.73,0,2.56,1.15-4.7,1.33-6.93.87-8.49A29.19,29.19,0,0,0,741.56,495.74Zm2.71-25.24a25.84,25.84,0,0,0-.61,9.68,25.54,25.54,0,0,0,3.31,9.67,29.17,29.17,0,0,0-1.65,8.45,30.52,30.52,0,0,0,4.8,17.5,22.94,22.94,0,0,0-.3,10.14,23.49,23.49,0,0,0,8.55,13.67,22.55,22.55,0,0,0,7.5,28.56,19.32,19.32,0,0,0,8.4,24.57c-.23.32-3.47,4.81-1.65,9.83a9.83,9.83,0,0,0,4,4.91,55,55,0,0,0,1.5,5.38,43.33,43.33,0,0,0,2.09,5.52,6.11,6.11,0,0,0,5.72-3.17c.9-2-.07-4.15-.75-5.68a15.46,15.46,0,0,0-4-5.36c-.29-.26-.58-.49-.86-.71a20.47,20.47,0,0,0-4-2.38,9,9,0,0,0,2.86-8.9,8.66,8.66,0,0,0-1.89-3.69,6.82,6.82,0,0,0-.59-.61,8.56,8.56,0,0,0-3.83-2.15,31.08,31.08,0,0,0,0-11.83,30.72,30.72,0,0,0-6.6-13.82,28.66,28.66,0,0,0,1.2-10.13,29.49,29.49,0,0,0-6.3-16.28,22.23,22.23,0,0,0-4.5-27.34A16.18,16.18,0,0,0,759,493.59a15.32,15.32,0,0,0-5.7-8.29,14.48,14.48,0,0,0-3.6-18.89,10.08,10.08,0,0,0,4.35-6.15c1.19-5.34-2.8-9.32-3-9.52a17.42,17.42,0,0,0,2.85-7.83,18.63,18.63,0,0,0-4.2-13.36,20.62,20.62,0,0,0,3.6-9.67c1-10.56-7-17.88-7.95-18.74A19.89,19.89,0,0,0,744,378.59a10.58,10.58,0,0,0-1.94,1.62,11.16,11.16,0,0,0-2.1,3.22,40.57,40.57,0,0,1,1.65,5.53,42.81,42.81,0,0,1,.9,12.59,15.55,15.55,0,0,1,3.61,17.66,10.62,10.62,0,0,0-4.51,6.61,11.13,11.13,0,0,0,2.56,9.21,19.91,19.91,0,0,0-1.51,4.91,22.42,22.42,0,0,0,2.86,14.59,10,10,0,0,0-4.06,5.22A10.87,10.87,0,0,0,744.27,470.5ZM740.51,468a25.94,25.94,0,0,0-.6,9.65,24.76,24.76,0,0,0,1.72,6.43,20.58,20.58,0,0,0,.23-5.1,20,20,0,0,0-1.8-6.91l.6-3.69C740.61,468.24,740.56,468.11,740.51,468Zm-.82-68a22.2,22.2,0,0,0-1-9.5c-.1-.3-.2-.59-.31-.87a42.44,42.44,0,0,1,.31,9.36C738.94,399.21,739.28,399.54,739.69,400Zm-1.88,23.26a11.17,11.17,0,0,0,2.55,9.21,20.36,20.36,0,0,0-1.5,4.91,22.14,22.14,0,0,0,2.4,13.76,7.91,7.91,0,0,0-.9-7.05,23.1,23.1,0,0,0-1.5-16.74,21,21,0,0,0,4-12.1c-.2.57-.38,1-.55,1.4A10.65,10.65,0,0,0,737.81,423.26Zm-.15,33.93a10.85,10.85,0,0,0,2.83,10.73,14,14,0,0,1,1.22-12.31c-.5-.82-1-1.63-1.48-2.45A9.58,9.58,0,0,0,737.66,457.19Zm-1.5-76.32q.26.66.48,1.35a8.08,8.08,0,0,0,.27-1.4,8.51,8.51,0,0,0,0-1.42A10.65,10.65,0,0,0,736.16,380.87Zm-19-53.34.3,5.12a11.75,11.75,0,0,0-3.74,6.43,6.76,6.76,0,0,0,.74-.49C717.71,336.07,719.28,330.91,717.11,327.53Zm-84-92.44a6.38,6.38,0,0,0,1.77,4.62c3.26,1.09,7.26,0,10.39-2.88a14.78,14.78,0,0,0,3.4,2.88,10.87,10.87,0,0,0,1.36.73h0a13.2,13.2,0,0,0,3.78,1.14,13.47,13.47,0,0,0,6.75-.77,21,21,0,0,0,2.26,3,20.08,20.08,0,0,0,4.79,3.87c.25.14.49.28.73.4h0a19.54,19.54,0,0,0,8.72,2.2,23.82,23.82,0,0,0,.92,2.32h0a22.51,22.51,0,0,0,4.92,6.9,21.37,21.37,0,0,0,4.75,3.45,20.93,20.93,0,0,0,2.9,1.31c0,.24,0,.51.05.8a23,23,0,0,0,3.7,1.76,25.4,25.4,0,0,0,4.5,13.2,24.12,24.12,0,0,0,7.05,6.61,19.11,19.11,0,0,0,3.76,9.36,18,18,0,0,0,4.95,4.46,6.62,6.62,0,0,0,.3,4.3,6.34,6.34,0,0,0,2.1,2.61,13.56,13.56,0,0,0-2.85,7.06c-.69,7.81,6.2,12.93,6.6,13.21l.45,7.52a11.39,11.39,0,0,0-3.9,8.91,10.93,10.93,0,0,0,6.75,9.37c-3.74,4.55-5,10.5-3,15.51a14.18,14.18,0,0,0,5.7,6.75,5.12,5.12,0,0,0-2.1,5.38,5.06,5.06,0,0,0,2.85,3.22,11.84,11.84,0,0,0-5.7,8.6,11.52,11.52,0,0,0,5.4,10.91,17.93,17.93,0,0,0,.45,21.34,15.36,15.36,0,0,0-3.9,8.6,15.62,15.62,0,0,0,2.1,9.68,14.64,14.64,0,0,0-4,8.29,15.08,15.08,0,0,0,3,10.9,16.14,16.14,0,0,0-2.55,7.06,16.92,16.92,0,0,0,3.15,11.52,12.9,12.9,0,0,0-4.2,8c-.8,7,5,11.6,5.25,11.82a17.75,17.75,0,0,0,1.2,21.35,13.95,13.95,0,0,0,0,19.35,13.71,13.71,0,0,0-5.25,10.13c-.23,6.94,5.15,10.93,5.55,11.21a17,17,0,0,0-6.9,12.13A16.74,16.74,0,0,0,724,586a11.83,11.83,0,0,0-5.85,7.68,12.15,12.15,0,0,0,2.4,10,12,12,0,0,0-4.35,8.91c-.05,6.26,5.11,9.65,5.4,9.83A15.74,15.74,0,0,0,714.56,633a15.53,15.53,0,0,0,1.65,9.52,18.41,18.41,0,0,0-6.15,10.14,19,19,0,0,0,2.4,13.82,13.77,13.77,0,0,0-6.46,9.21,14,14,0,0,0,2.41,10.44,15.3,15.3,0,0,0-4.36,8.14c-.32,1.87-1,5.72,1,8.49a6.43,6.43,0,0,0,6-.91c1.75-1.55,1.66-4.1,1.5-8.75a40.6,40.6,0,0,0-1.35-9.06,15.78,15.78,0,0,0,7.65-9.22,16.22,16.22,0,0,0-.9-11.52,18,18,0,0,0,6.75-11.21,18.23,18.23,0,0,0-1.8-11.21,14.32,14.32,0,0,0,6.6-10.13,14.17,14.17,0,0,0-2.7-10,12.74,12.74,0,0,0,4.35-9.06,12.52,12.52,0,0,0-2.55-7.83,14.6,14.6,0,0,0,.3-18.12,16.88,16.88,0,0,0,2.7-23,15.83,15.83,0,0,0,5.85-10.13A16,16,0,0,0,734.66,541a11.83,11.83,0,0,0-2.4-19.66,12.89,12.89,0,0,0,5.85-8,13.24,13.24,0,0,0-2.25-10.6c.72-2.31,1.25-4.31,1.65-5.83,1.75-6.79,1.75-9,.75-10.75a6.37,6.37,0,0,0-1.2-1.54,20.52,20.52,0,0,0,1.05-8.29,20.07,20.07,0,0,0-1.8-6.91l.6-3.69A14,14,0,0,1,738,453.05l-1.5-2.46A8,8,0,0,0,738,446a7.89,7.89,0,0,0-1.35-4.45,23.1,23.1,0,0,0-1.5-16.74,20.74,20.74,0,0,0,3.9-14.13,20,20,0,0,0-3.75-9.67,22.73,22.73,0,0,0-.3-13.05,21.44,21.44,0,0,0-3.15-6,7.92,7.92,0,0,0,.9-7.22,6,6,0,0,0-1.8-11.06,18.23,18.23,0,0,0,.15-10,17.93,17.93,0,0,0-4-7.37,13.32,13.32,0,0,0,3.45-10.44,12.69,12.69,0,0,0-4.05-7.68,25,25,0,0,0,.6-15.66,23.92,23.92,0,0,0-5-8.91,16.08,16.08,0,0,0,.6-10.9,15.24,15.24,0,0,0-4.35-6.81,15.9,15.9,0,0,0-3.75-2.56,26.73,26.73,0,0,0-5.85-16.58,24.15,24.15,0,0,0-3.24-3.24c-.43-.36-.87-.68-1.28-1h0a23.92,23.92,0,0,0-3.74-2.21c0-.86-.42-7.39-4.6-11.61h0a11.34,11.34,0,0,0-2.44-1.91,11.18,11.18,0,0,0-1.65-.78h0a12.38,12.38,0,0,0-3-.74,20.06,20.06,0,0,0-5.65-8.36h0a17.63,17.63,0,0,0-2.87-2.08,19.33,19.33,0,0,0-12.34-2.39c-.59.09-1,.18-1.32.24a16.48,16.48,0,0,0-2.5-2.85h0a13.1,13.1,0,0,0-5-1.34,14.44,14.44,0,0,0-8.7,2.3,12.34,12.34,0,0,0-8.25-2.3C638.61,228.86,633.42,231.1,633.08,235.09ZM630,230.51a2.4,2.4,0,0,0,.26-.18,8.54,8.54,0,0,0,2-2.19A7.22,7.22,0,0,0,630,230.51Z" fill="#fff" opacity="0.5" style="mix-blend-mode:overlay"/><path d="M572.89,289.32c-2-1.24-4,.33-5.28-1s.22-3.88-1-5.88c-.67-1.09-2.28-2.16-6.3-2.07a9.72,9.72,0,0,0-2.55-5.61,9.34,9.34,0,0,0-6.38-2.84,7.7,7.7,0,0,0-2-5.52,7.33,7.33,0,0,0-7.8-1.62,11.25,11.25,0,0,0-4.66-5.22,10.86,10.86,0,0,0-7.27-1.23,8.2,8.2,0,0,0-2.26-5.45,7.76,7.76,0,0,0-7.87-1.76,12.46,12.46,0,0,0-1.21-4,11.91,11.91,0,0,0-1.65-2.53l4.36-2.15a12.12,12.12,0,0,0,3.75,4.15,12,12,0,0,0,6.82,2.07,18.89,18.89,0,0,0,7.28,6.37,18.07,18.07,0,0,0,8,1.84,9.74,9.74,0,0,0,3.45,4.77,9.3,9.3,0,0,0,5.85,1.76,10.44,10.44,0,0,0,3.23,5.68,9.92,9.92,0,0,0,5.55,2.46,5.83,5.83,0,0,0,2.93,4,5.17,5.17,0,0,0,5.39-.38c2.18-1.67,2.76-5.47.68-8.52a10.08,10.08,0,0,0-1.27-6.22,10.19,10.19,0,0,0-7.2-4.69c-1.47-5.08-3.55-6.87-5.26-7.52-1.92-.73-3.05.11-4.94-1-2.35-1.37-2.09-3.49-4.21-5.3-1.11-.94-3-1.91-6.38-1.76-.32-1.08-.65-2.15-1-3.23l4.5-2.15,4.12.46a6.69,6.69,0,0,0,2,3.38,7.08,7.08,0,0,0,6.3,1.38,3.92,3.92,0,0,0,5.25,4.15,7.28,7.28,0,0,0,1.95,3.68c1.83,1.81,5.21,3,6.9,1.54s1-5.26-.6-7.37a6.54,6.54,0,0,0-2.1-1.84,6,6,0,0,0,0-5.22,5.59,5.59,0,0,0-3.6-2.77,4.81,4.81,0,0,0,3.6-1.53c2-2.46.27-7.25-1.65-10s-3-2.07-4.05-4.14c-1.78-3.62,1.22-6.44.3-11.21a12.44,12.44,0,0,0-4.05-6.76,17.23,17.23,0,0,0-2.4-10.75c-4.41-7.05-12.48-7.63-13.35-7.68a16.79,16.79,0,0,0-5.86-3.68c-1-.39-6.47-2.36-11.25.15-2.3,1.21-1.79,2.05-5.7,5.22-3.62,2.94-4.84,2.84-6.6,4.61s-3.62,4.84-3.76,11.06a21.09,21.09,0,0,0-13.5-.77,21.35,21.35,0,0,0-9.6,5.83,20.31,20.31,0,0,0-24.75,9.06,12.08,12.08,0,0,0-11.87,3.38,13,13,0,0,0-3.14,10.14,15.55,15.55,0,0,0-10.2,5.37,16.21,16.21,0,0,0-3.75,10.29c-.79.33-8.18,3.56-10.06,11.67a17.18,17.18,0,0,0,1.35,11.21,14.43,14.43,0,0,0-4.2,10,14,14,0,0,0,2.1,7.22c-.3.29-5.67,5.52-4.2,12.44a12.68,12.68,0,0,0,4.2,6.91c-1.3,1.44-6.76,7.79-6.3,16.89a22.25,22.25,0,0,0,2.55,9.22,11.85,11.85,0,0,0-6.6,11.21,12.09,12.09,0,0,0,5.1,8.75,11.77,11.77,0,0,0-3.6,12.9,14.21,14.21,0,0,0-7.88,6.22,14.86,14.86,0,0,0-1.8,10.13c-1,.82-8,6.59-8.11,16.13a20.82,20.82,0,0,0,3.39,11.51c-1,.72-8.16,6-8.78,15.44a20.62,20.62,0,0,0,3.15,12.2,19.36,19.36,0,0,0-4.28,13.36,18.36,18.36,0,0,0,2.93,8.53,12.11,12.11,0,0,0-2,9.21,11.34,11.34,0,0,0,2.92,5.53,11.48,11.48,0,0,0-6.53,10.37,11,11,0,0,0,2.92,6.91,17.39,17.39,0,0,0-2.69,21.42,22.83,22.83,0,0,0-7.65,15.66,22.48,22.48,0,0,0,3.82,13.59c-1.14,1.06-7.32,7-7.21,16.13a20.6,20.6,0,0,0,2.49,9.44,22.74,22.74,0,0,0-7,13.82,22.26,22.26,0,0,0,1.35,10.37,9.94,9.94,0,0,0-7.65,8.29,10.2,10.2,0,0,0,2.69,7.83c-.8.37-7.26,3.47-8.54,10.37-.09.44-1.27,7.25,2.47,9.9s10.39-.41,13.5-4.84a14.18,14.18,0,0,0,2.26-9.44,9.94,9.94,0,0,0,5.62-5.76c1.76-5-1.38-9.19-1.58-9.44a22.07,22.07,0,0,0,8.1-26,21.35,21.35,0,0,0,8.56-13.59,21.57,21.57,0,0,0-2.48-14,23.43,23.43,0,0,0,6.53-8.3,24.84,24.84,0,0,0,1.58-15.89l2-4.38a19.58,19.58,0,0,0,0,9.68,18.85,18.85,0,0,0,2,4.83,16,16,0,0,0-2.47,10.6,15.49,15.49,0,0,0,3.6,8.06,19.37,19.37,0,0,0-1.35,11.29,19.08,19.08,0,0,0,5.4,10.13,15.35,15.35,0,0,0,2.92,22.58,13.77,13.77,0,0,0-3.82,10.36,13.21,13.21,0,0,0,3.15,7.38c-.2.18-5,4.5-3.82,10.59a11.27,11.27,0,0,0,4.49,6.91,15.32,15.32,0,0,0,4.51,21c-.46,1.16-3.2,8.36.45,15.44A17.25,17.25,0,0,0,430.2,665c-.4.7-4,7.32-.9,14.28a15.22,15.22,0,0,0,6.75,7.14c0,1.49.06,3.82,0,6.68-.14,6.65-.6,7.8.23,9.44,1.71,3.39,7.12,5.42,11.48,3.92,5.68-2,8.16-9.45,6.3-15a12.51,12.51,0,0,0-6.3-6.92A12.9,12.9,0,0,0,444.15,665a17.06,17.06,0,0,0,3.38-12.9,16.83,16.83,0,0,0-7-11.06,13.93,13.93,0,0,0,1.8-11.06,13.54,13.54,0,0,0-7.21-8.52,12,12,0,0,0,6.08-10.6,12.21,12.21,0,0,0-4.28-8.75,17,17,0,0,0,1.35-11.52,16.48,16.48,0,0,0-4-7.37,17.78,17.78,0,0,0,1.79-12.44,17.21,17.21,0,0,0-5.4-9,13.24,13.24,0,0,0-.9-21.65,16.14,16.14,0,0,0,3.16-7.6,16.59,16.59,0,0,0-2.26-10.6,15,15,0,0,0,4.06-7.83c1.24-7.16-3.46-12.47-4.06-13.13a13.87,13.87,0,0,0,6.75-12.9,13.26,13.26,0,0,0-4.27-8.29A15.89,15.89,0,0,0,437,469.68a15.68,15.68,0,0,0-2.65-8.78,18.85,18.85,0,0,0,2.88-12.64,17.88,17.88,0,0,0-2.7-7.14,16.51,16.51,0,0,0,2.47-8.06,16.92,16.92,0,0,0-3.14-10.37,15.47,15.47,0,0,0,2-9.21,15.31,15.31,0,0,0-4.06-9,11.56,11.56,0,0,0,3.38-3.92,11.37,11.37,0,0,0,1.12-3.31,65.71,65.71,0,0,0,6.54,19.66,58.37,58.37,0,0,1,6.3-20.5,56.42,56.42,0,0,1,7.42-10.82,53.08,53.08,0,0,1-.22-19.35c.76-4.16,2.11-8.36,2.25-15.15a56.47,56.47,0,0,0-.45-8.35,60.13,60.13,0,0,1,6.75-6,59.07,59.07,0,0,1,8.33-5.29,12.84,12.84,0,0,0-5.4-6.45c-6.15-3.54-12.7.25-13.05.46-1.22-1.53-2.23-2.69-2.94-3.46-1.23-1.36-1.92-2-2.24-3.22a5.12,5.12,0,0,1,0-2.54,10.29,10.29,0,0,0,9.68,0,13,13,0,0,0,6.53,1.85c4.05,0,5.25-2.23,10.12-2.31,2.76,0,4,.64,4.73-.23,1.18-1.38-.36-4.92-1.8-6.91-3.66-5-10.53-5.48-12.83-5.53a6.69,6.69,0,0,0-7.13-3.3l-.75-3.68,3-4.61A9.08,9.08,0,0,0,469,293.7a10.59,10.59,0,0,0,5.29,5.41,10.12,10.12,0,0,0,6.52.58,10.76,10.76,0,0,0,5.41,5.41,10.4,10.4,0,0,0,7.87.12,34,34,0,0,0,4.95,1.61c3.72.9,9.79,2.38,11.37,0,1.42-2.16-1.27-6.88-4.06-9.44a13.43,13.43,0,0,0-5.28-3,10.7,10.7,0,0,0-5.06-5.64,10.25,10.25,0,0,0-7.32-.69,9.12,9.12,0,0,0-3.37-5.07,8.88,8.88,0,0,0-7.1-1.38,10.55,10.55,0,0,0-1.69-3.69,10.14,10.14,0,0,0-2.59-2.53l2.82-3a21,21,0,0,0,7.87,2.88,12.41,12.41,0,0,0,5.07,5.3,12,12,0,0,0,7.76,1.27,12.81,12.81,0,0,0,5,4.83,12.39,12.39,0,0,0,7.31,1.39,10.62,10.62,0,0,0,3,4.37,10.42,10.42,0,0,0,7,2.42,8.43,8.43,0,0,0,3.49,5.07,8.06,8.06,0,0,0,6,1.15,14.09,14.09,0,0,0,4.95,4.72c.74.41,7.57,4.1,11.36.46,3.06-2.93,2.57-9.1-.67-12.43a9.52,9.52,0,0,0-7-2.65,8.63,8.63,0,0,0-3.71-6.57,7.94,7.94,0,0,0-6.08-.92,9.93,9.93,0,0,0-9.89-6.8,11.65,11.65,0,0,0-5.63-6,11.14,11.14,0,0,0-7.43-.7,10,10,0,0,0-2.93-4,10.1,10.1,0,0,0-7.42-2.07,17.94,17.94,0,0,0-.68-3.68,16.74,16.74,0,0,0-1-2.65l2.94-1.5a14.93,14.93,0,0,0,6.75,4.61,14.61,14.61,0,0,0,5.18.69,13.18,13.18,0,0,0,6.18,6.22,11.89,11.89,0,0,0,4.06,1,16.68,16.68,0,0,0,6.3,5.07,16.41,16.41,0,0,0,6.41,1.5,14.36,14.36,0,0,0,5.06,6,13.76,13.76,0,0,0,4.62,1.95,10.59,10.59,0,0,0,4,6.45,9.9,9.9,0,0,0,5.17,1.85c1.71,3.67,3.59,4.81,5,5.18,3.08.84,5.19-1.75,8-.46,2.1,1,1.69,2.79,3.83,3.8a6.46,6.46,0,0,0,7.88-2.19C576.48,294.84,575,290.65,572.89,289.32Zm-24.45-45.84a8.49,8.49,0,0,1,3.89,5.38,9.27,9.27,0,0,1,7.81,1.84,9.8,9.8,0,0,1,3.35,7.22,11,11,0,0,1,4.75,2.92,11.84,11.84,0,0,1,3.15,6.91,3.12,3.12,0,0,1,.34,1,2.6,2.6,0,0,1-.64,2.22,2.68,2.68,0,0,1-3.9-.3,10.46,10.46,0,0,1-5.7-3.38,10.84,10.84,0,0,1-2.55-6,11.21,11.21,0,0,1-5.71-2.46,11.7,11.7,0,0,1-3.89-6.45,12,12,0,0,1-14.41-6.76c-.51,0-5.21.31-8.1-3.37-1.24-1.59-2.84-4.78-1.65-6.76a4.57,4.57,0,0,1,3.45-1.84,12.65,12.65,0,0,1,9.3,2.76,12,12,0,0,1,3.75,6.45A8.25,8.25,0,0,1,548.44,243.48ZM569,235.81a5.48,5.48,0,0,1,.91,3.4,5.28,5.28,0,0,1-.16,1.2,5.54,5.54,0,0,1,1.76.82,4.74,4.74,0,0,1,1.25,1.33,4.84,4.84,0,0,1,.36.72c.62,1.48.62,3.33-.22,3.89-1,.69-3.15-.81-4.2-2A7.25,7.25,0,0,1,567,241.8a5.45,5.45,0,0,1-3.3-.93,5.72,5.72,0,0,1-2.23-3.09,5.71,5.71,0,0,1-5-.44,6,6,0,0,1-2.7-4.6,4.47,4.47,0,0,1-3.75-1.54,4.22,4.22,0,0,1-.61-4.45,3.88,3.88,0,0,1,3.47-1.81,6.54,6.54,0,0,1,2.09.27,6.13,6.13,0,0,1,3.6,3.53,5.68,5.68,0,0,1,3.9.16c2.89,1.24,3.42,4.55,3.45,4.76A5.41,5.41,0,0,1,569,235.81Zm-50.56-47.15c1.26-1.57,2.22-1.8,3.81-2.63a18.74,18.74,0,0,0,2.79-1.82l.8-.65s0,0,0,0c2.91-2.49,2.79-3.87,5.48-5.17a7.75,7.75,0,0,1,1.11-.44,11.65,11.65,0,0,1,6.25-.32,12.52,12.52,0,0,1,7.65,5.83c.28,0,7.36-.32,11.1,5.53a13.08,13.08,0,0,1,1.5,10,12.57,12.57,0,0,1,4.95,7.07c1,4.32-1.72,6.39-.75,10.9a12.44,12.44,0,0,0,3.25,5.82c1.09,1.2,1.91,2,1.55,2.62-.54,1-3.24.61-6.14-.3h0a34.89,34.89,0,0,1-3.91-1.54c-.65-.32-1.38-.65-2.13-1-3.43-1.74-7.37-4.32-8.66-9.09a10.7,10.7,0,0,1-.36-2,14.25,14.25,0,0,1,.93-6.29h0l.17-.43a3.27,3.27,0,0,1-.33,0,7.5,7.5,0,0,1-6.12-3.09,7.29,7.29,0,0,1-1.08-5v0a1.19,1.19,0,0,1,0-.24l-.17,0a5.28,5.28,0,0,1-4.34-1,4.93,4.93,0,0,1-1.57-2.51s0-.06,0-.1h0a.18.18,0,0,0-.05.08,5.51,5.51,0,0,1-.59.83,5.14,5.14,0,0,1-3.73,1.7,8,8,0,0,1,6.28,3.06,7.57,7.57,0,0,1,1.35,4c.5.09,4.47.86,6.16,4.46a8.75,8.75,0,0,1,.77,4.62h0a4,4,0,0,1-.52,1.5,2.32,2.32,0,0,1-.55.62c-2.09,1.65-6.13-1-7-1.6a12.86,12.86,0,0,1-4.24-4.69,5.87,5.87,0,0,1-3.45-.77c-3-1.77-3-5.62-3-5.84-3.74.35-7-1-8.57-3.27a5.29,5.29,0,0,1-.73-1.49C515.24,192.64,518,189.16,518.43,188.66ZM426.61,270.2a13.75,13.75,0,0,1,3.74-6.91,17.6,17.6,0,0,1-1.05-9.67c1.44-8,8.17-11.89,9.16-12.44a17,17,0,0,1,4-10,16,16,0,0,1,5-3.88,16.39,16.39,0,0,1,4.72-1.5,10.63,10.63,0,0,1,.16-1.56h0a14,14,0,0,1,3.89-7.79,12.93,12.93,0,0,1,3.83-2.64h0a14.2,14.2,0,0,1,7-1.2,21.49,21.49,0,0,1,1.78-2.59,18.92,18.92,0,0,1,5.57-4.78L475,205s0,0,0,0c7.68-4,15.42-1.12,16.68-.62a14,14,0,0,1,2.7-3,12.86,12.86,0,0,1,2.88-1.78h0a11.28,11.28,0,0,1,3.56-1,12.37,12.37,0,0,1,7.35,1.69,19.48,19.48,0,0,1,11.86,1.54,20.44,20.44,0,0,1,9.75,10.29c6.28-.07,11.69,3.11,13.65,8a12.43,12.43,0,0,1,.45,7.37,4.83,4.83,0,0,1,.78,4.06.32.32,0,0,1,0,.09,4,4,0,0,1-2.87,2.32,6.29,6.29,0,0,1-2.37.14,5.86,5.86,0,0,1-4.17-3,7.41,7.41,0,0,1-.64-1.46,9.48,9.48,0,0,1-10.09-.43,2.4,2.4,0,0,1-.26-.18,8.54,8.54,0,0,1-2-2.19,0,0,0,0,0,0,0,10.91,10.91,0,0,1-1.7-5.32,11.79,11.79,0,0,1-7.66.92,12,12,0,0,1-7.2-5.07,12.11,12.11,0,0,1-14.32-.67,10.25,10.25,0,0,1-.83-.71,20.91,20.91,0,0,1-3.28,3.58c-.53.27-1.08.52-1.67.77a19.65,19.65,0,0,1-9,1.38,17.32,17.32,0,0,1-2.23,2.62c-.58,0-1.09,0-1.52-.06a17.85,17.85,0,0,1-2.65,3h0a16.87,16.87,0,0,1-7.54,1.78,18.47,18.47,0,0,1-.33,2.2,16.15,16.15,0,0,1-3.42.36,16.59,16.59,0,0,1-5.24,10.8.05.05,0,0,0,0,0c-.5.44-1,.84-1.47,1.19a16.93,16.93,0,0,1-4.05,2.11,10.86,10.86,0,0,1,1.95,5.53,11.22,11.22,0,0,1-2.55,7.67,30.28,30.28,0,0,0-5.55,4.46,27,27,0,0,0-5.86,8.44,26.36,26.36,0,0,0-2.1,9.73c0,.55,0,1,0,1.48a6.92,6.92,0,0,0-2,.29,5.71,5.71,0,0,0-.84.3,7.82,7.82,0,0,0-.95.49,7.73,7.73,0,0,0-3,3.53q.53-3.84,1.06-7.68A14.14,14.14,0,0,1,426.61,270.2ZM410.85,478.9a25.36,25.36,0,0,1-3.31,9.67,29.17,29.17,0,0,1,1.65,8.45,30.61,30.61,0,0,1-4.79,17.5,23.25,23.25,0,0,1,.3,10.14,23.54,23.54,0,0,1-8.56,13.67,22.52,22.52,0,0,1-7.5,28.56,19.29,19.29,0,0,1-8.41,24.57c.25.32,3.48,4.81,1.65,9.83a9.77,9.77,0,0,1-4,4.91,55,55,0,0,1-1.5,5.38,43.33,43.33,0,0,1-2.09,5.52,4.35,4.35,0,0,1-2,2.15,6.11,6.11,0,0,1-7.5-2.76c-.9-2,0-4.15.75-5.68a17.06,17.06,0,0,1,7.79-7.92c.39-.21.73-.39,1.06-.53a1.71,1.71,0,0,1-.2-.18,9,9,0,0,1-2.65-8.73,8.77,8.77,0,0,1,5.64-6.24c.21-.08.44-.14.66-.2,0-.13,0-.27-.08-.41a30.78,30.78,0,0,1,6.67-25.24,28.92,28.92,0,0,1-1.19-10.13A29.41,29.41,0,0,1,389.55,535,22.21,22.21,0,0,1,394,507.61a16.14,16.14,0,0,1-2.25-12.74,15.32,15.32,0,0,1,5.7-8.29,14.48,14.48,0,0,1,3.6-18.89,10.07,10.07,0,0,1-4.34-6.15c-1.2-5.34,2.79-9.32,3-9.52a17.17,17.17,0,0,1-2.86-7.83,18.63,18.63,0,0,1,4.2-13.36,20.51,20.51,0,0,1-3.6-9.67c-1-10.56,7-17.88,7.95-18.74a20.37,20.37,0,0,1-2.84-11.05,21.06,21.06,0,0,1,7-14.59c.27.14.58.32.92.53a10.58,10.58,0,0,1,1.94,1.62,11.16,11.16,0,0,1,2.1,3.22,40.57,40.57,0,0,0-1.65,5.53,42.47,42.47,0,0,0-.9,12.59,15.6,15.6,0,0,0-3.61,17.66,10.61,10.61,0,0,1,4.51,6.61,11.14,11.14,0,0,1-2.55,9.21,20.36,20.36,0,0,1,1.5,4.91,22.49,22.49,0,0,1-2.85,14.59,10,10,0,0,1,4.05,5.22,10.89,10.89,0,0,1-2.85,10.75A26.09,26.09,0,0,1,410.85,478.9Zm24.61-89.38a24.59,24.59,0,0,0-2.55-5.29,10.58,10.58,0,0,1,1.35-5.53,10.41,10.41,0,0,1,1.79-2.31A70.26,70.26,0,0,0,435.46,389.52Zm18.9-29.94c-.33,5.17-1,7.8-1.05,13.2a66.57,66.57,0,0,0,1.05,12.44,31.68,31.68,0,0,0-10.74,15.95c-1.48,5-1.21,8.6-1.86,8.62-1.51,0-4.54-18.82-3.75-41a201.05,201.05,0,0,1,2.39-24.57l3.39-.15,10-.46A81.42,81.42,0,0,1,454.36,359.58Zm-2.25-30.41c.36-.3,6.13-5,11.11-2.61,1.95.94,3.95,3.05,3.95,4.71a1.7,1.7,0,0,1-.06.51c-.35,1.22-1.77,1.07-4.46,2.42-.21.1-.41.22-.64.35A17.36,17.36,0,0,0,459,336.7c-1.62,1.42-2.42,2.53-4.15,2.61a5.94,5.94,0,0,1-4.2-1.84,9.3,9.3,0,0,1-9.77.33,6.65,6.65,0,0,1-.73-.49c-3.3-2.52-4.88-7.68-2.71-11.05a0,0,0,0,0,0,0,6.49,6.49,0,0,1,3.83-2.68,8.75,8.75,0,0,1,10.86,5.61Zm8.4-26.41a5.06,5.06,0,0,1,3,2.46c2.58-.19,7.55-.14,11.11,3.22a13.2,13.2,0,0,1,2.12,2.65c.62,1.06.94,2.05.58,2.57-.53.77-2-.2-5,0-3.36.25-4.12,1.67-6.75,1.69a9.18,9.18,0,0,1-5.7-2.15,6.39,6.39,0,0,1-6.75.31,5.58,5.58,0,0,1-2.1-2.46,4,4,0,0,1-2.71.77c-2.52-.33-4.08-3.79-4.2-6.45s1.11-6,3.91-7.06a4.11,4.11,0,0,1,1.11-.28,6.19,6.19,0,0,1,3.24.43,7.4,7.4,0,0,1,4,4.91A5.15,5.15,0,0,1,460.51,302.76Zm-2.91-11c-.77.77-1.57,1.52-2.34,2.28-.27.09-2.64.8-3.6-.31s.23-3.66,1-5.22c.24-.46,1.55-3,2.4-2.77.39.11.43.73.65,1.63a7.5,7.5,0,0,0,.69,1.75,6.59,6.59,0,0,0,1.81,2Zm17.76-7.4a9.84,9.84,0,0,1,8.26.62,10,10,0,0,1,4.35,5.52,6.66,6.66,0,0,1,7.5,0,7.43,7.43,0,0,1,2.85,6.15,10.4,10.4,0,0,1,4.51,1.53c2.25,1.45,4.32,4.07,4.67,6a2.15,2.15,0,0,1-.18,1.53c-1,1.73-5.32,1.15-8.1-.16a11.76,11.76,0,0,1-4.8-4.3,8.53,8.53,0,0,1-7.5,1.54c-4.46-1.33-5.66-5.94-5.71-6.14a9.8,9.8,0,0,1-6.14-1.08,10.2,10.2,0,0,1-4.51-5.07,8.06,8.06,0,0,1-9.15-1.35c-.16-.16-.31-.32-.45-.49a8,8,0,0,1-1.83-5.22,8.36,8.36,0,0,1,2.88-6.29,6.86,6.86,0,0,1,2.66-1.43,8.49,8.49,0,0,1,10.69,8.64Zm-3.75-12.74-4.88-.31a5.9,5.9,0,0,1,.16-4.22,5.65,5.65,0,0,1,4-3,6.21,6.21,0,0,1,2-.11l.45,1.76c.27,1.11.55,2.21.8,3.28a.38.38,0,0,0,0,.1Zm22.06-5.84a8.81,8.81,0,0,1,7.35,1.84,8.59,8.59,0,0,1,2.55,4.3,10.76,10.76,0,0,1,6.75.93,11.36,11.36,0,0,1,5.56,6.6,8.88,8.88,0,0,1,6,.61,9.45,9.45,0,0,1,4.65,5.38,8.35,8.35,0,0,1,6.75,3.07,7.86,7.86,0,0,1,1.5,4.14,10.09,10.09,0,0,1,7.66,2.92c1.39,1.49,3,4.21,2.6,6.25a2.43,2.43,0,0,1-.36,1c-1.48,2.5-6.62,1.56-9,.77a14.29,14.29,0,0,1-6.91-5.22,9.56,9.56,0,0,1-5.41-1.69,9.85,9.85,0,0,1-3.59-4.76,7.61,7.61,0,0,1-5.1-.31,8.4,8.4,0,0,1-4.65-7.37,12.59,12.59,0,0,1-6.3-.77,13.47,13.47,0,0,1-6.61-5.83,9.32,9.32,0,0,1-5.7-.77,9.74,9.74,0,0,1-4.8-5.53,9.46,9.46,0,0,1-7.65-3.07,8.82,8.82,0,0,1-1.11-1.67,9.75,9.75,0,0,1-1.14-4.9,5.71,5.71,0,0,1,1.35-3.72,4.63,4.63,0,0,1,3-1.4c3-.37,6.8,1.22,9.16,3.4A12.41,12.41,0,0,1,493.67,265.75ZM491,255.3l-.09,0c-.4-.16-.81-.31-1.24-.46-1-.37-2-.68-3-.94-.63-.16-1.24-.32-1.84-.45a6.21,6.21,0,0,0,1.47-.92,7.14,7.14,0,0,0,2.14-3.22l3-.88,3.56-1.08a11.13,11.13,0,0,0-.34,2.3,10.8,10.8,0,0,0,.31,3,4.6,4.6,0,0,0,.14.51Zm6-12.43a13.38,13.38,0,0,1-5.26-.29,12,12,0,0,1-1.49-.48,20.13,20.13,0,0,1-4,4.75h0a18.27,18.27,0,0,1-3,2.15,19.71,19.71,0,0,1-6.63,2.37h0a20.42,20.42,0,0,1-2.81.24,22.94,22.94,0,0,1-5.84,9.22c-.34.32-.67.61-1,.89a21,21,0,0,1-2.95,2.11,23,23,0,0,1-3.7,1.76,25.3,25.3,0,0,1-4.5,13.2,24.12,24.12,0,0,1-7,6.61,19.17,19.17,0,0,1-3.75,9.36,18,18,0,0,1-5,4.46,6.53,6.53,0,0,1-.29,4.3,6.42,6.42,0,0,1-2.1,2.61,13.48,13.48,0,0,1,2.84,7.06c.7,7.81-6.19,12.93-6.59,13.21q-.24,3.76-.45,7.52a11.39,11.39,0,0,1,3.9,8.91,10.91,10.91,0,0,1-6.76,9.37c3.74,4.55,5,10.5,3,15.51a14.08,14.08,0,0,1-5.7,6.75,4.85,4.85,0,0,1-.75,8.6,11.82,11.82,0,0,1,5.7,8.6,11.5,11.5,0,0,1-5.4,10.91,17.93,17.93,0,0,1-.45,21.34,15.35,15.35,0,0,1,3.91,8.6,15.76,15.76,0,0,1-2.1,9.68,14.71,14.71,0,0,1,4,8.29,15,15,0,0,1-3,10.9,16.14,16.14,0,0,1,2.55,7.06A16.93,16.93,0,0,1,429.16,480a13,13,0,0,1,4.2,8c.8,7-5,11.6-5.26,11.82a17.75,17.75,0,0,1-1.2,21.35,13.92,13.92,0,0,1,0,19.35,13.74,13.74,0,0,1,5.26,10.13c.22,6.94-5.15,10.93-5.55,11.21A17.06,17.06,0,0,1,433.5,574a16.74,16.74,0,0,1-3,10.75,11.86,11.86,0,0,1,5.86,7.68,12.18,12.18,0,0,1-2.41,10,12,12,0,0,1,4.35,8.91c.06,6.26-5.11,9.65-5.39,9.83a15.74,15.74,0,0,1,7,10.59,15.45,15.45,0,0,1-1.65,9.52,18.4,18.4,0,0,1,6.16,10.14,19,19,0,0,1-2.41,13.82,13.77,13.77,0,0,1,6.46,9.21,14,14,0,0,1-2.4,10.45,15.29,15.29,0,0,1,4.35,8.13c.33,1.87,1,5.72-1,8.49a5.71,5.71,0,0,1-.77.88c-2.45,2.3-6.76,2.75-9,.77-1.76-1.55-1.67-4.1-1.51-8.75a41.2,41.2,0,0,1,1.35-9.06,15.82,15.82,0,0,1-7.65-9.22,16.22,16.22,0,0,1,.9-11.52A18,18,0,0,1,426,653.34a18.23,18.23,0,0,1,1.8-11.21A13.73,13.73,0,0,1,423.9,622a12.74,12.74,0,0,1-4.35-9.06,12.52,12.52,0,0,1,2.55-7.83,14.6,14.6,0,0,1-.3-18.12,16.88,16.88,0,0,1-2.7-23,15.83,15.83,0,0,1-5.85-10.13,16.07,16.07,0,0,1,2.85-11.52,12.35,12.35,0,0,1-4.2-8.75,12.22,12.22,0,0,1,6.6-10.91,12.89,12.89,0,0,1-5.86-8,13.27,13.27,0,0,1,2.26-10.6c-.71-2.32-1.25-4.31-1.65-5.83-.12-.43-.22-.85-.31-1.23-1.16-4.7-1.34-6.93-.88-8.49a5,5,0,0,1,.44-1,6.62,6.62,0,0,1,1.2-1.54,19.19,19.19,0,0,1-.81-3.19,20.15,20.15,0,0,1,1.56-12c-.2-1.23-.4-2.46-.61-3.69.05-.11.11-.24.16-.38s0,0,0-.05a14,14,0,0,0-1.22-12.31c.5-.82,1-1.63,1.48-2.45h0a8.45,8.45,0,0,1-1-2,7.66,7.66,0,0,1-.45-2.6,8.06,8.06,0,0,1,1.35-4.45,23.1,23.1,0,0,1,1.5-16.74,21,21,0,0,1-4-12.1s0,0,0,0c0-.64,0-1.32.09-2a20,20,0,0,1,3.76-9.67,24.45,24.45,0,0,1-.68-3.55,22.36,22.36,0,0,1,1-9.5c.1-.3.19-.59.31-.87a21.81,21.81,0,0,1,2.84-5.12,7.77,7.77,0,0,1-1.08-2.29,8.08,8.08,0,0,1-.27-1.4,7.52,7.52,0,0,1,0-1.42,8.44,8.44,0,0,1,.46-2.11,6,6,0,0,1,1.8-11.06,18.33,18.33,0,0,1-.15-10,17.93,17.93,0,0,1,4.05-7.37,13.32,13.32,0,0,1-3.45-10.44,12.74,12.74,0,0,1,4.05-7.68,25,25,0,0,1-.6-15.66,23.78,23.78,0,0,1,5-8.91,16.13,16.13,0,0,1-.61-10.9,15.85,15.85,0,0,1,8.1-9.37,31.73,31.73,0,0,1,.33-4,27.91,27.91,0,0,1,1.65-6,0,0,0,0,1,0,0,24.22,24.22,0,0,1,10.86-12.32,12.75,12.75,0,0,1,1.26-.65c0-.08,0-.18,0-.34h0a23.06,23.06,0,0,1,.94-4.89,17.77,17.77,0,0,1,2.28-4.75l0,0a12.14,12.14,0,0,1,3.8-3.51,10.51,10.51,0,0,1,1.3-.65h0a11.93,11.93,0,0,1,3.34-.88,15.57,15.57,0,0,1,.75-1.81h0a19.88,19.88,0,0,1,7.8-8.63l.85-.47h0A19.22,19.22,0,0,1,484.21,234a17.39,17.39,0,0,1,2.45-2.8,16.57,16.57,0,0,1,3.81-2.61h0a13.18,13.18,0,0,1,5-1.34,14.44,14.44,0,0,1,8.7,2.3,12.36,12.36,0,0,1,8.25-2.3c3.48.37,8.67,2.61,9,6.6a6.33,6.33,0,0,1-1.77,4.62,9.09,9.09,0,0,1-2.43,2,7.57,7.57,0,0,1-2,.75,10,10,0,0,1-7.22-1.18,12.61,12.61,0,0,1-2.18-1.55l-.36-.32a14.12,14.12,0,0,1-1,1h0A13.9,13.9,0,0,1,497,242.87Zm72.17,54.52c-4.22.56-7.21-3.79-7.35-4a7.55,7.55,0,0,1-6.15-.46,7.81,7.81,0,0,1-3.31-3.84A7,7,0,0,1,545,288a7.47,7.47,0,0,1-2.26-7.83,8.79,8.79,0,0,1-5.85-1.54,9.33,9.33,0,0,1-3.74-6.45,10.6,10.6,0,0,1-8-.92,11,11,0,0,1-4.95-6,8.27,8.27,0,0,1-7.06-.31,8.43,8.43,0,0,1-4.2-7.21,7.87,7.87,0,0,1-8.69-2.92,8.15,8.15,0,0,1-1.56-4.22c0-.08,0-.16,0-.22a8.06,8.06,0,0,1,1.41-5.08,7.27,7.27,0,0,1,3.85-2.69,8.87,8.87,0,0,1,8.9,2.23,9,9,0,0,1,2,6.6c.47-.13,5.54-1.36,9.45,2.15a10.63,10.63,0,0,1,3.3,6.3,11.34,11.34,0,0,1,7.8,2,11.56,11.56,0,0,1,3.9,4.92,8,8,0,0,1,9.91,8c.29-.05,4.29-.66,6.9,2.31a7.5,7.5,0,0,1,1.79,4.6,7.63,7.63,0,0,1,5.56,2.46,8,8,0,0,1,1.95,6c1.77.61,7.22,2.61,7.49,4.66a1,1,0,0,1,0,.25C572.78,296.34,570.61,297.19,569.14,297.39ZM791.82,612.86c-1.27-6.91-7.74-10-8.54-10.37a10.23,10.23,0,0,0,2.7-7.83,10,10,0,0,0-7.66-8.29A22.37,22.37,0,0,0,779.68,576a22.79,22.79,0,0,0-7-13.82,20.6,20.6,0,0,0,2.49-9.44c.11-9.12-6.07-15.07-7.21-16.13A22.48,22.48,0,0,0,771.79,523a22.78,22.78,0,0,0-7.65-15.66,17.35,17.35,0,0,0-2.69-21.42,11,11,0,0,0,2.92-6.92,11.48,11.48,0,0,0-6.53-10.36,11.41,11.41,0,0,0,2.93-5.53,12.14,12.14,0,0,0-2-9.21,18.36,18.36,0,0,0,2.93-8.53A19.31,19.31,0,0,0,757.39,432a20.6,20.6,0,0,0,3.16-12.2c-.63-9.43-7.78-14.72-8.79-15.44a20.82,20.82,0,0,0,3.39-11.51c-.14-9.54-7.09-15.31-8.1-16.13a15,15,0,0,0-1.81-10.13,14.18,14.18,0,0,0-7.88-6.22,11.79,11.79,0,0,0-3.59-12.9,12.16,12.16,0,0,0,5.1-8.75,11.89,11.89,0,0,0-6.61-11.22,22.15,22.15,0,0,0,2.55-9.21c.46-9.1-5-15.45-6.3-16.89a12.68,12.68,0,0,0,4.2-6.91c1.47-6.92-3.9-12.15-4.2-12.44a13.92,13.92,0,0,0,2.1-7.22,14.43,14.43,0,0,0-4.2-10,17.12,17.12,0,0,0,1.35-11.21c-1.88-8.11-9.26-11.34-10.06-11.67A16.21,16.21,0,0,0,714,231.71a15.55,15.55,0,0,0-10.2-5.37,13,13,0,0,0-3.14-10.14,12.06,12.06,0,0,0-11.86-3.38A20.33,20.33,0,0,0,664,203.76a20.86,20.86,0,0,0-23.1-5.06c-.14-6.22-2-9.35-3.76-11.06s-3-1.67-6.6-4.61c-3.91-3.17-3.4-4-5.7-5.22-4.78-2.51-10.19-.54-11.25-.15a16.63,16.63,0,0,0-5.85,3.68c-.87,0-9,.63-13.35,7.68A17.19,17.19,0,0,0,592,199.77a12.47,12.47,0,0,0-4.05,6.76c-.92,4.77,2.08,7.59.3,11.21-1,2.07-2.15,1.43-4.05,4.14s-3.69,7.53-1.65,10a4.81,4.81,0,0,0,3.6,1.53,5.62,5.62,0,0,0-3.6,2.76,6,6,0,0,0,0,5.23,6.54,6.54,0,0,0-2.1,1.84c-1.57,2.11-2.33,5.84-.6,7.37s5.08.27,6.9-1.54a7.28,7.28,0,0,0,1.95-3.68,3.91,3.91,0,0,0,5.25-4.15,7.08,7.08,0,0,0,6.3-1.38,6.69,6.69,0,0,0,2-3.38l4.12-.46,4.5,2.15c-.32,1.08-.65,2.15-1,3.23-3.38-.15-5.27.82-6.37,1.76-2.13,1.81-1.87,3.93-4.21,5.3-1.9,1.11-3,.27-5,1-1.71.65-3.78,2.43-5.26,7.52a10.21,10.21,0,0,0-7.2,4.69,10.08,10.08,0,0,0-1.27,6.22c-2.08,3.05-1.5,6.85.68,8.52a5.19,5.19,0,0,0,5.4.38,5.81,5.81,0,0,0,2.92-4,9.89,9.89,0,0,0,5.55-2.46,10.44,10.44,0,0,0,3.23-5.68,9.25,9.25,0,0,0,5.85-1.77,9.73,9.73,0,0,0,3.46-4.76,18.06,18.06,0,0,0,8-1.84,18.89,18.89,0,0,0,7.28-6.37,12,12,0,0,0,6.83-2.07,12.34,12.34,0,0,0,3.75-4.15l4.35,2.15a12.31,12.31,0,0,0-1.65,2.53,12.72,12.72,0,0,0-1.21,4,7.76,7.76,0,0,0-7.87,1.76,8.11,8.11,0,0,0-2.25,5.45,10.88,10.88,0,0,0-7.28,1.23A11.21,11.21,0,0,0,613,266a7.35,7.35,0,0,0-7.81,1.62,7.7,7.7,0,0,0-2,5.52,9.35,9.35,0,0,0-6.38,2.84,9.72,9.72,0,0,0-2.55,5.61c-4-.09-5.62,1-6.3,2.07-1.24,2,.39,4.43-1,5.88s-3.32-.21-5.29,1-3.59,5.52-1.58,8.64a6.46,6.46,0,0,0,7.88,2.19c2.14-1,1.73-2.83,3.83-3.8,2.79-1.29,4.9,1.3,8,.46,1.37-.37,3.25-1.51,5-5.18a9.9,9.9,0,0,0,5.17-1.85,10.68,10.68,0,0,0,4.06-6.45,13.81,13.81,0,0,0,4.61-1.95,14.36,14.36,0,0,0,5.06-6,16.49,16.49,0,0,0,6.42-1.5,16.84,16.84,0,0,0,6.3-5.07,11.84,11.84,0,0,0,4.05-1,13.21,13.21,0,0,0,6.19-6.22,14.58,14.58,0,0,0,5.17-.69,14.93,14.93,0,0,0,6.75-4.61l2.94,1.5a17,17,0,0,0-1,2.64,18.14,18.14,0,0,0-.68,3.69,10.1,10.1,0,0,0-7.42,2.07,9.91,9.91,0,0,0-2.92,4,11.16,11.16,0,0,0-7.44.7,11.56,11.56,0,0,0-5.62,6,10,10,0,0,0-9.9,6.8,7.94,7.94,0,0,0-6.08.92,8.63,8.63,0,0,0-3.71,6.57,9.55,9.55,0,0,0-7,2.64c-3.24,3.34-3.73,9.51-.67,12.44,3.79,3.64,10.62,0,11.36-.46a14.09,14.09,0,0,0,4.95-4.72,8.05,8.05,0,0,0,6-1.15,8.45,8.45,0,0,0,3.49-5.07,10.42,10.42,0,0,0,7-2.42,10.62,10.62,0,0,0,3-4.37,12.39,12.39,0,0,0,7.31-1.39,12.81,12.81,0,0,0,5-4.83,11.94,11.94,0,0,0,7.76-1.27,12.41,12.41,0,0,0,5.07-5.3,21.44,21.44,0,0,0,3-.69,20.93,20.93,0,0,0,4.83-2.19l2.82,3A10.14,10.14,0,0,0,678,279.2a10.55,10.55,0,0,0-1.69,3.69,8.86,8.86,0,0,0-7.09,1.38,9.07,9.07,0,0,0-3.38,5.07,10.25,10.25,0,0,0-7.32.69,10.75,10.75,0,0,0-5.06,5.64,13.5,13.5,0,0,0-5.28,3c-2.79,2.56-5.48,7.28-4.06,9.44,1.58,2.38,7.65.9,11.38,0a33.77,33.77,0,0,0,4.94-1.61,10.4,10.4,0,0,0,7.87-.12,10.76,10.76,0,0,0,5.41-5.41,10.19,10.19,0,0,0,6.52-.58,10.67,10.67,0,0,0,5.3-5.41,9,9,0,0,0,4.16-.12,9.13,9.13,0,0,0,3.75-2l3,4.61c-.25,1.23-.49,2.45-.75,3.68a6.68,6.68,0,0,0-7.12,3.3c-2.31.05-9.18.49-12.83,5.53-1.45,2-3,5.53-1.81,6.91.74.87,2,.19,4.73.23,4.88.08,6.07,2.28,10.13,2.31a13,13,0,0,0,6.53-1.85,10.41,10.41,0,0,0,3.82,1.16,10.62,10.62,0,0,0,5.85-1.16,5.12,5.12,0,0,1,0,2.54c-.32,1.2-1,1.86-2.24,3.22-.7.77-1.72,1.93-2.94,3.46-.34-.21-6.9-4-13-.46a12.84,12.84,0,0,0-5.4,6.45,58.5,58.5,0,0,1,8.33,5.29,60.13,60.13,0,0,1,6.75,6,56.47,56.47,0,0,0-.45,8.35c.15,6.79,1.49,11,2.25,15.15a53.08,53.08,0,0,1-.22,19.35,56.42,56.42,0,0,1,7.42,10.82,58.16,58.16,0,0,1,6.3,20.5,64.9,64.9,0,0,0,4.73-11.74,66.18,66.18,0,0,0,1.81-7.92,11.37,11.37,0,0,0,1.12,3.31,11.67,11.67,0,0,0,3.38,3.92,15.38,15.38,0,0,0-4.06,9,15.53,15.53,0,0,0,2,9.21,16.84,16.84,0,0,0-3.15,10.37A16.51,16.51,0,0,0,720,442.4a17.82,17.82,0,0,0-2.7,7.14,18.85,18.85,0,0,0,2.88,12.64,15.57,15.57,0,0,0,1.18,18.92,13.31,13.31,0,0,0-4.28,8.29,13.87,13.87,0,0,0,6.75,12.9c-.6.66-5.29,6-4.06,13.13a15.08,15.08,0,0,0,4.06,7.83,16.6,16.6,0,0,0-2.25,10.6,16.05,16.05,0,0,0,3.15,7.6,13.24,13.24,0,0,0-.9,21.65,17.21,17.21,0,0,0-5.4,9,17.78,17.78,0,0,0,1.79,12.44,16.58,16.58,0,0,0-4,7.37,17.08,17.08,0,0,0,1.35,11.52,12.21,12.21,0,0,0-4.28,8.75,12,12,0,0,0,6.08,10.6,13.57,13.57,0,0,0-7.21,8.52,14,14,0,0,0,1.8,11.06,16.83,16.83,0,0,0-7,11.06,17.07,17.07,0,0,0,3.38,12.9,12.9,12.9,0,0,0-3.61,19.57,12.52,12.52,0,0,0-6.3,6.91c-1.86,5.53.62,13,6.3,15,4.37,1.5,9.78-.53,11.48-3.92.83-1.64.37-2.79.23-9.44-.06-2.86,0-5.19,0-6.68a15.18,15.18,0,0,0,6.75-7.14c3.1-7-.5-13.58-.9-14.28a17.25,17.25,0,0,0,5.85-6.45c3.65-7.08.91-14.28.45-15.44a15.32,15.32,0,0,0,4.51-21,11.18,11.18,0,0,0,4.49-6.91c1.14-6.09-3.62-10.41-3.82-10.6a13.14,13.14,0,0,0,3.15-7.37,13.77,13.77,0,0,0-3.82-10.36A15.35,15.35,0,0,0,738,565.63a19.06,19.06,0,0,0,4.05-21.42,15.49,15.49,0,0,0,3.6-8.06,16,16,0,0,0-2.47-10.6,18.85,18.85,0,0,0,2-4.83,19.58,19.58,0,0,0,0-9.68q1,2.19,2,4.38a24.74,24.74,0,0,0,1.57,15.89,23.65,23.65,0,0,0,6.53,8.3,21.57,21.57,0,0,0-2.48,14,21.35,21.35,0,0,0,8.56,13.59,22.51,22.51,0,0,0-.68,13.59,22.28,22.28,0,0,0,8.78,12.44c-.2.25-3.34,4.47-1.58,9.44a10,10,0,0,0,5.63,5.76,14.16,14.16,0,0,0,2.25,9.44c3.11,4.43,9.74,7.51,13.5,4.84S791.91,613.3,791.82,612.86ZM604.42,232.48a4.41,4.41,0,0,1-3.75,1.53,6,6,0,0,1-2.7,4.61,5.71,5.71,0,0,1-5,.44,5.72,5.72,0,0,1-2.23,3.09,5.45,5.45,0,0,1-3.3.93,7.25,7.25,0,0,1-1.65,3.37c-1.05,1.19-3.15,2.69-4.2,2-.84-.56-.84-2.41-.22-3.89a6.06,6.06,0,0,1,.37-.72,4.6,4.6,0,0,1,1.25-1.33,5.42,5.42,0,0,1,1.75-.82,6,6,0,0,1-.16-1.2,5.34,5.34,0,0,1,3.92-5.55,6.38,6.38,0,0,1,3.44-4.76,5.68,5.68,0,0,1,3.9-.16,6.16,6.16,0,0,1,3.61-3.53,6.47,6.47,0,0,1,2.08-.27A3.88,3.88,0,0,1,605,228,4.2,4.2,0,0,1,604.42,232.48Zm3.37-19.84a10.74,10.74,0,0,1-.37,2c-1.28,4.77-5.22,7.35-8.65,9.09-.76.39-1.48.72-2.14,1a35.5,35.5,0,0,1-3.9,1.54h0c-2.9.91-5.6,1.28-6.14.3-.36-.64.46-1.42,1.55-2.62a12.44,12.44,0,0,0,3.25-5.82c1-4.51-1.7-6.58-.74-10.91a12.52,12.52,0,0,1,4.94-7.06,13.08,13.08,0,0,1,1.5-10c3.75-5.85,10.82-5.54,11.1-5.53a12.55,12.55,0,0,1,7.65-5.83,11.65,11.65,0,0,1,6.25.32,7.31,7.31,0,0,1,1.11.44c2.69,1.3,2.58,2.68,5.49,5.17,0,0,0,0,0,0l.8.65a18.74,18.74,0,0,0,2.79,1.82c1.59.83,2.55,1.06,3.82,2.63.39.5,3.18,4,2.1,7.37a5.61,5.61,0,0,1-.74,1.49c-1.57,2.22-4.83,3.62-8.57,3.27,0,.22,0,4.07-3,5.84a5.87,5.87,0,0,1-3.45.77,13,13,0,0,1-4.24,4.69c-.89.59-4.93,3.25-7,1.6a2.32,2.32,0,0,1-.55-.62,4,4,0,0,1-.52-1.5h0a8.65,8.65,0,0,1,.78-4.62c1.68-3.6,5.65-4.37,6.15-4.46a7.57,7.57,0,0,1,1.35-4,8,8,0,0,1,6.28-3.06,5.16,5.16,0,0,1-3.73-1.7,4.88,4.88,0,0,1-.59-.83.18.18,0,0,0-.05-.08h0s0,.08,0,.1a4.93,4.93,0,0,1-1.57,2.51,5.28,5.28,0,0,1-4.34,1,.58.58,0,0,1-.16,0q0,.09,0,.24v0a7.23,7.23,0,0,1-1.08,5,7.49,7.49,0,0,1-6.12,3.09,3.27,3.27,0,0,1-.33,0c.05.13.11.27.18.43h0A14.55,14.55,0,0,1,607.79,212.64Zm19.9,30.9c-2.9,3.68-7.6,3.41-8.11,3.37a12,12,0,0,1-14.41,6.76,11.7,11.7,0,0,1-3.89,6.45,11.17,11.17,0,0,1-5.71,2.46,10.84,10.84,0,0,1-2.55,6,10.42,10.42,0,0,1-5.7,3.38,2.69,2.69,0,0,1-3.9.3,2.6,2.6,0,0,1-.64-2.22,3.12,3.12,0,0,1,.34-1,11.91,11.91,0,0,1,3.15-6.91A11.1,11.1,0,0,1,591,259.2a9.75,9.75,0,0,1,3.35-7.22,9.25,9.25,0,0,1,7.8-1.84,8.57,8.57,0,0,1,3.89-5.38,8.25,8.25,0,0,1,6.76-.61,12,12,0,0,1,3.75-6.45,12.65,12.65,0,0,1,9.3-2.76,4.59,4.59,0,0,1,3.46,1.84C630.52,238.76,628.92,242,627.69,243.54Zm4.58-15.4a8.67,8.67,0,0,1-2,2.19l-.27.18a9.48,9.48,0,0,1-10.09.43,6.87,6.87,0,0,1-.64,1.46,5.86,5.86,0,0,1-4.16,3,6.27,6.27,0,0,1-2.37-.14,4,4,0,0,1-2.88-2.32.29.29,0,0,1,0-.09,4.8,4.8,0,0,1,.77-4.06,12.43,12.43,0,0,1,.45-7.37c2-4.87,7.37-8,13.65-8a20.43,20.43,0,0,1,9.76-10.29,19.44,19.44,0,0,1,11.85-1.54,12.37,12.37,0,0,1,7.35-1.69,11.28,11.28,0,0,1,3.56,1h0a13.17,13.17,0,0,1,2.89,1.78,13.88,13.88,0,0,1,2.69,3c1.26-.5,9-3.37,16.68.62l0,0a5.68,5.68,0,0,1,.55.28,19,19,0,0,1,5.58,4.78,21.24,21.24,0,0,1,1.77,2.59,14.18,14.18,0,0,1,7,1.2h0a12.8,12.8,0,0,1,3.83,2.64,14,14,0,0,1,3.89,7.79h0a12.9,12.9,0,0,1,.17,1.56,16.45,16.45,0,0,1,4.71,1.5,16,16,0,0,1,5,3.88,16.92,16.92,0,0,1,4,10c1,.55,7.72,4.42,9.16,12.44a17.6,17.6,0,0,1-1.05,9.67,13.74,13.74,0,0,1,3.75,6.91,14.2,14.2,0,0,1-1.65,9.83l1,7.68a7.73,7.73,0,0,0-3-3.53,7.82,7.82,0,0,0-.95-.49,5.71,5.71,0,0,0-.84-.3,6.92,6.92,0,0,0-2-.29c0-.44,0-.93,0-1.48a26.36,26.36,0,0,0-2.1-9.73,27,27,0,0,0-5.86-8.44,29.94,29.94,0,0,0-5.55-4.46,11.22,11.22,0,0,1-2.55-7.67,10.76,10.76,0,0,1,2-5.53A16.76,16.76,0,0,1,702.4,245c-.48-.35-1-.75-1.47-1.19a.05.05,0,0,0,0,0,16.59,16.59,0,0,1-5.24-10.8,16,16,0,0,1-3.41-.36,17,17,0,0,1-.34-2.2,16.87,16.87,0,0,1-7.54-1.78h0a18.32,18.32,0,0,1-2.65-3c-.43,0-.94.06-1.52.06A17.94,17.94,0,0,1,678,223a19.62,19.62,0,0,1-9-1.38c-.6-.25-1.15-.5-1.68-.77a21.29,21.29,0,0,1-3.28-3.58,10.25,10.25,0,0,1-.83.71,12.15,12.15,0,0,1-14.32.67,12,12,0,0,1-7.2,5.07,11.66,11.66,0,0,1-7.65-.93,11,11,0,0,1-1.7,5.33Zm23.54,23.55c0,.06,0,.14,0,.22a8.13,8.13,0,0,1-1.55,4.22,7.89,7.89,0,0,1-8.7,2.92,8.41,8.41,0,0,1-4.2,7.21,8.27,8.27,0,0,1-7.06.31,11,11,0,0,1-4.94,6,10.6,10.6,0,0,1-8,.92,9.4,9.4,0,0,1-3.75,6.45,8.78,8.78,0,0,1-5.85,1.54,7.47,7.47,0,0,1-2.26,7.83,7,7,0,0,1-7.34,1.07,7.81,7.81,0,0,1-3.31,3.84,7.53,7.53,0,0,1-6.14.46c-.14.21-3.13,4.56-7.36,4-1.47-.2-3.64-1.05-3.75-2.31a.67.67,0,0,1,0-.25c.27-2.05,5.72-4.05,7.48-4.66a8,8,0,0,1,2-6,7.6,7.6,0,0,1,5.55-2.46,7.6,7.6,0,0,1,1.79-4.61c2.62-3,6.61-2.35,6.91-2.3a7.94,7.94,0,0,1,9.9-8,11.56,11.56,0,0,1,3.9-4.92,11.35,11.35,0,0,1,7.8-2,10.6,10.6,0,0,1,3.31-6.3c3.9-3.51,9-2.28,9.44-2.15a9,9,0,0,1,2-6.6,8.87,8.87,0,0,1,8.9-2.23,7.27,7.27,0,0,1,3.85,2.69A8,8,0,0,1,655.81,251.69Zm3.68,2.75a4.6,4.6,0,0,0,.14-.51,10.42,10.42,0,0,0,.31-3,11.93,11.93,0,0,0-.33-2.3l3.55,1.08,3,.88a7.1,7.1,0,0,0,2.13,3.22,6.21,6.21,0,0,0,1.47.92c-.6.13-1.21.29-1.84.45-1,.26-2,.57-3,.94-.43.15-.84.3-1.24.46l-.09-.05Zm17.16,13.38a8.82,8.82,0,0,1-1.11,1.67,9.46,9.46,0,0,1-7.65,3.07,9.78,9.78,0,0,1-4.79,5.53,9.36,9.36,0,0,1-5.71.77,13.52,13.52,0,0,1-6.61,5.83,12.7,12.7,0,0,1-6.3.77,8.38,8.38,0,0,1-4.65,7.37,7.62,7.62,0,0,1-5.1.31,9.78,9.78,0,0,1-3.59,4.76,9.56,9.56,0,0,1-5.41,1.69,14.25,14.25,0,0,1-6.9,5.22c-2.38.79-7.52,1.73-9-.77a2.43,2.43,0,0,1-.36-1c-.36-2,1.21-4.76,2.61-6.25a10.08,10.08,0,0,1,7.65-2.92,7.86,7.86,0,0,1,1.5-4.14,8.35,8.35,0,0,1,6.75-3.07,9.43,9.43,0,0,1,4.65-5.38,8.91,8.91,0,0,1,6-.61,11.37,11.37,0,0,1,5.55-6.61,10.81,10.81,0,0,1,6.75-.92,8.67,8.67,0,0,1,2.55-4.3,8.81,8.81,0,0,1,7.35-1.84,12.36,12.36,0,0,1,3.46-5.83c2.35-2.18,6.18-3.77,9.16-3.4a4.62,4.62,0,0,1,3,1.4,5.71,5.71,0,0,1,1.36,3.72A9.87,9.87,0,0,1,676.65,267.82Zm3.7,2.51s0-.06,0-.1c.25-1.07.53-2.18.8-3.28l.45-1.76a6.27,6.27,0,0,1,2,.11,5.65,5.65,0,0,1,4,3,5.9,5.9,0,0,1,.16,4.22l-4.88.31Zm13.2,19.58a5.12,5.12,0,0,1-.45.49,8.06,8.06,0,0,1-9.15,1.35,10.22,10.22,0,0,1-4.5,5.07,9.82,9.82,0,0,1-6.15,1.08c0,.2-1.25,4.81-5.71,6.14a8.49,8.49,0,0,1-7.49-1.54,11.87,11.87,0,0,1-4.81,4.3c-2.78,1.31-7.08,1.89-8.1.16a2.21,2.21,0,0,1-.18-1.53c.35-1.93,2.42-4.55,4.68-6a10.36,10.36,0,0,1,4.5-1.53,7.43,7.43,0,0,1,2.85-6.15,6.66,6.66,0,0,1,7.5,0,10,10,0,0,1,4.35-5.52,9.84,9.84,0,0,1,8.26-.62,9,9,0,0,1,1.8-5.68,8.8,8.8,0,0,1,8.89-3,7.08,7.08,0,0,1,2.67,1.42,8.43,8.43,0,0,1,2.87,6.3A8,8,0,0,1,693.55,289.91Zm2.7,2.46a6.59,6.59,0,0,0,1.81-2,7.5,7.5,0,0,0,.69-1.75c.22-.9.26-1.52.65-1.63.85-.23,2.16,2.31,2.41,2.77.81,1.56,2.08,4,1,5.22s-3.32.4-3.59.31c-.78-.76-1.57-1.51-2.35-2.28Zm7.21,20a5.77,5.77,0,0,1-2.1,2.46,6.41,6.41,0,0,1-6.75-.31,9.26,9.26,0,0,1-5.71,2.15c-2.63,0-3.39-1.44-6.75-1.69-3-.2-4.43.77-5,0-.36-.52,0-1.51.58-2.57a12.91,12.91,0,0,1,2.13-2.65c3.55-3.36,8.52-3.42,11.1-3.22a4.92,4.92,0,0,1,7.06-1.85,7.43,7.43,0,0,1,4-4.91,6.27,6.27,0,0,1,3.24-.44,4.75,4.75,0,0,1,1.12.29c2.79,1.1,4,4.48,3.9,7.06s-1.68,6.12-4.2,6.45A4,4,0,0,1,703.46,312.33ZM695.55,338a17.62,17.62,0,0,0-3-2.15c-.23-.13-.44-.25-.65-.35-2.69-1.35-4.11-1.2-4.46-2.42a1.7,1.7,0,0,1-.06-.51c0-1.66,2-3.77,4-4.71,5-2.35,10.74,2.31,11.1,2.61a9.48,9.48,0,0,1,8.1-6,9.74,9.74,0,0,1,2.76.37,6.58,6.58,0,0,1,3.84,2.69h0c2.18,3.38.59,8.54-2.7,11.06a6.76,6.76,0,0,1-.74.49,9.28,9.28,0,0,1-9.76-.33,6,6,0,0,1-4.2,1.84C698,340.51,697.17,339.4,695.55,338Zm17.21,73.09c-.66,0-.39-3.61-1.87-8.62a31.72,31.72,0,0,0-10.73-15.95,67.6,67.6,0,0,0,1-12.44c-.05-5.4-.72-8-1-13.2a80.49,80.49,0,0,1,.59-16l10,.46,3.39.15a200.71,200.71,0,0,1,2.4,24.57C717.29,392.25,714.26,411.11,712.76,411.07Zm6.29-20.27a70.26,70.26,0,0,0-.59-13.13,9.65,9.65,0,0,1,1.79,2.31,10.69,10.69,0,0,1,1.36,5.52A24.34,24.34,0,0,0,719.05,390.8ZM741.87,516a12.89,12.89,0,0,1-5.86,8,12.24,12.24,0,0,1,6.61,10.91,12.39,12.39,0,0,1-4.2,8.75,16.13,16.13,0,0,1,2.84,11.52,15.83,15.83,0,0,1-5.85,10.13,16.88,16.88,0,0,1-2.7,23,14.6,14.6,0,0,1-.3,18.12,12.45,12.45,0,0,1,2.55,7.83,12.74,12.74,0,0,1-4.35,9.06,13.73,13.73,0,0,1-3.9,20.11,17.79,17.79,0,0,1-5,22.42,16.11,16.11,0,0,1,.9,11.52,15.82,15.82,0,0,1-7.65,9.22,40.6,40.6,0,0,1,1.35,9.06c.16,4.65.25,7.2-1.5,8.75-2.24,2-6.56,1.53-9-.77a6.3,6.3,0,0,1-.77-.88c-2-2.77-1.35-6.62-1-8.49a15.38,15.38,0,0,1,4.35-8.14A14,14,0,0,1,706,675.66a13.73,13.73,0,0,1,6.45-9.21,19.08,19.08,0,0,1-2.41-13.82,18.46,18.46,0,0,1,6.16-10.14,15.45,15.45,0,0,1-1.65-9.52,15.7,15.7,0,0,1,7.05-10.59c-.29-.18-5.45-3.57-5.4-9.83a12,12,0,0,1,4.35-8.91,12.18,12.18,0,0,1-2.41-10A11.86,11.86,0,0,1,724,586a16.74,16.74,0,0,1-3-10.75,17,17,0,0,1,6.9-12.13c-.4-.28-5.78-4.27-5.56-11.21a13.74,13.74,0,0,1,5.26-10.13,13.95,13.95,0,0,1,0-19.35,17.75,17.75,0,0,1-1.2-21.35c-.28-.22-6-4.8-5.25-11.82a12.9,12.9,0,0,1,4.2-8,16.92,16.92,0,0,1-3.15-11.52,16.14,16.14,0,0,1,2.55-7.06,15,15,0,0,1-3-10.9,14.64,14.64,0,0,1,4-8.29,15.62,15.62,0,0,1-2.1-9.68,15.29,15.29,0,0,1,3.9-8.6,17.93,17.93,0,0,1-.45-21.34,11.52,11.52,0,0,1-5.4-10.91,11.82,11.82,0,0,1,5.7-8.6,4.85,4.85,0,0,1-.75-8.6A14.13,14.13,0,0,1,721,369c-2-5-.74-11,3-15.51a11,11,0,0,1-3.76-2.56,10.89,10.89,0,0,1-3-6.81,11.39,11.39,0,0,1,3.91-8.91l-.45-7.52c-.4-.28-7.3-5.4-6.6-13.21a13.48,13.48,0,0,1,2.85-7.06,6.42,6.42,0,0,1-2.1-2.61,6.62,6.62,0,0,1-.3-4.3,18,18,0,0,1-5-4.46,19.17,19.17,0,0,1-3.75-9.36,24.12,24.12,0,0,1-7.05-6.61,25.4,25.4,0,0,1-4.5-13.2,23,23,0,0,1-3.7-1.76,21,21,0,0,1-3-2.11c-.34-.28-.67-.57-1-.89a22.88,22.88,0,0,1-5.85-9.22,20.54,20.54,0,0,1-2.81-.24h0a19.67,19.67,0,0,1-6.64-2.37,18.71,18.71,0,0,1-3-2.15h0a19.65,19.65,0,0,1-4-4.75,12.22,12.22,0,0,1-1.5.48,13.34,13.34,0,0,1-5.25.29,13.9,13.9,0,0,1-7.54-3.7h0a14.12,14.12,0,0,1-1-1.05l-.36.32a12.61,12.61,0,0,1-2.18,1.55,10,10,0,0,1-7.22,1.18,7.71,7.71,0,0,1-2-.75,9.25,9.25,0,0,1-2.43-2,6.33,6.33,0,0,1-1.77-4.62c.34-4,5.53-6.23,9-6.6a12.28,12.28,0,0,1,8.24,2.3,14.51,14.51,0,0,1,8.71-2.3,13,13,0,0,1,5,1.34h0a16.35,16.35,0,0,1,3.81,2.61,16.86,16.86,0,0,1,2.45,2.8,19.25,19.25,0,0,1,12.78,1.67h0c.29.15.56.31.85.47a19.88,19.88,0,0,1,7.8,8.63h0a17.32,17.32,0,0,1,.76,1.81,12,12,0,0,1,3.33.88h0a11.38,11.38,0,0,1,1.31.65,12.25,12.25,0,0,1,3.8,3.51,0,0,0,0,1,0,0,17.77,17.77,0,0,1,2.28,4.75,22.42,22.42,0,0,1,.94,4.89h0c0,.16,0,.26,0,.33.39.18.82.4,1.27.66a24.73,24.73,0,0,1,7,5.79,24.47,24.47,0,0,1,3.86,6.53,0,0,0,0,1,0,0,29.11,29.11,0,0,1,1.65,6,31.28,31.28,0,0,1,.32,4,15.79,15.79,0,0,1,8.1,9.37,16.09,16.09,0,0,1-.6,10.9,23.7,23.7,0,0,1,5,8.91,25,25,0,0,1-.6,15.66,12.79,12.79,0,0,1,4.06,7.68,13.27,13.27,0,0,1-3.46,10.44,17.93,17.93,0,0,1,4,7.37,18.46,18.46,0,0,1-.14,10,6,6,0,0,1,1.79,11.06,7.63,7.63,0,0,1,.46,2.11,7.52,7.52,0,0,1,0,1.42,7.24,7.24,0,0,1-.27,1.4,7.77,7.77,0,0,1-1.08,2.29,21.46,21.46,0,0,1,2.84,5.12c.12.28.21.57.31.87a22.36,22.36,0,0,1,1,9.5,24.45,24.45,0,0,1-.68,3.55,20,20,0,0,1,3.76,9.67,19.62,19.62,0,0,1,.09,2s0,0,0,0a21,21,0,0,1-4,12.1,23.29,23.29,0,0,1,2.39,9.37,23,23,0,0,1-.9,7.37,7.86,7.86,0,0,1,1.35,4.45,7.66,7.66,0,0,1-.45,2.6,8.45,8.45,0,0,1-1,2,0,0,0,0,0,0,0c.48.82,1,1.63,1.48,2.45a14,14,0,0,0-1.22,12.31l0,.05c.05.14.1.27.15.38-.21,1.23-.41,2.46-.61,3.69a20.15,20.15,0,0,1,1.56,12,19.19,19.19,0,0,1-.81,3.19,6.37,6.37,0,0,1,1.2,1.54,5,5,0,0,1,.44,1c.46,1.56.28,3.79-.88,8.49-.09.38-.19.8-.31,1.23-.4,1.52-.94,3.51-1.65,5.83A13.26,13.26,0,0,1,741.87,516Zm47.85,101.81a6.1,6.1,0,0,1-7.49,2.76,4.26,4.26,0,0,1-2-2.15,41.61,41.61,0,0,1-2.1-5.52,55,55,0,0,1-1.5-5.38,9.77,9.77,0,0,1-4-4.91c-1.83-5,1.4-9.51,1.65-9.83a19.31,19.31,0,0,1-8.41-24.57,22.55,22.55,0,0,1-7.5-28.56,23.54,23.54,0,0,1-8.55-13.67,23.13,23.13,0,0,1,.29-10.14,30.61,30.61,0,0,1-4.79-17.5,29.17,29.17,0,0,1,1.65-8.45,25.54,25.54,0,0,1-3.31-9.67,26.09,26.09,0,0,1,.6-9.68,10.86,10.86,0,0,1-2.84-10.75,10,10,0,0,1,4-5.22,22.44,22.44,0,0,1-2.84-14.59,19.94,19.94,0,0,1,1.49-4.91,11.17,11.17,0,0,1-2.55-9.21,10.58,10.58,0,0,1,4.51-6.61,15.55,15.55,0,0,0-3.61-17.66,42.14,42.14,0,0,0-.9-12.59,40.57,40.57,0,0,0-1.65-5.53,11.16,11.16,0,0,1,2.1-3.22,10.58,10.58,0,0,1,1.94-1.62c.34-.21.65-.39.92-.53a21.06,21.06,0,0,1,7,14.59,20.45,20.45,0,0,1-2.85,11.05c1,.86,9,8.18,7.95,18.74a20.51,20.51,0,0,1-3.6,9.67,18.59,18.59,0,0,1,4.2,13.36,17.17,17.17,0,0,1-2.86,7.83c.21.2,4.2,4.17,3,9.52a10.11,10.11,0,0,1-4.35,6.15,14.47,14.47,0,0,1,3.6,18.88,15.35,15.35,0,0,1,5.7,8.3,16.1,16.1,0,0,1-2.25,12.74,22.23,22.23,0,0,1,4.5,27.34,29.55,29.55,0,0,1,6.31,16.27,29.16,29.16,0,0,1-1.2,10.14,30.78,30.78,0,0,1,6.67,25.24c0,.14,0,.28-.08.41.22.06.45.12.66.2a8.75,8.75,0,0,1,5.64,6.24,9,9,0,0,1-2.65,8.73,1.62,1.62,0,0,1-.19.18c.32.14.67.32,1,.53a17,17,0,0,1,7.8,7.92C789.67,613.62,790.63,615.77,789.72,617.77Z"/></g></g></g></svg>