<svg xmlns="http://www.w3.org/2000/svg" viewBox="0 0 1080 1920"><g style="isolation:isolate"><g id="hair"><g id="_43" data-name="43"><path d="M441.37,407c-6.59-17.29-16.84-51.53-10.07-93.64,2.5-15.48,6.79-40.37,24.79-64.69,31.19-42.13,80.63-51.62,94.88-53.85a141.17,141.17,0,0,0,5.31-29.12c.45-6.14.83-11.78-.33-19.19a68.5,68.5,0,0,0-6.14-19.39,48.63,48.63,0,0,1,10.63,9.19,48,48,0,0,1,6.55,9.8,86.83,86.83,0,0,0,4.87-14.69,88.13,88.13,0,0,0,1.47-32.09,178.07,178.07,0,0,1,19.58,39.33,175.78,175.78,0,0,1,6.59,24.24,72.56,72.56,0,0,1,4.09-6.59,70.61,70.61,0,0,1,5.93-7.4,172,172,0,0,0,3.31,45.78,146.26,146.26,0,0,1,51.28,22.19c8.14,5.6,33.53,23.52,47.85,56.18,11.07,25.23,10.22,47.15,8.59,89.16-.68,17.44-2.32,31.81-3.68,41.58.9-12,.62-33.41-11-55.58A98.26,98.26,0,0,0,694,330.67c.22-2.66,4.06-54.8-19.63-65-5.35-2.31-11.84-2.37-21.4-2.47-10.8-.11-18.69,1.31-35.45,4.72-14.13,2.88-26.76,5.59-37.62,8-30-13.57-54.94-15.89-69.93-16-21.56-.15-28.79,4.22-31.08,5.75-24,16-16.58,58.84-15.95,62.22A140.75,140.75,0,0,0,441.37,407Z" fill="#42210b"/><path d="M542.52,219.92a26.72,26.72,0,0,0,11-3.9c9.32-6,12.64-17.27,12.46-16.63q-2.61,9-5.73,18.4-2.75,8.24-5.61,15.94c-.77,2.6-1.53,5.19-2.3,7.78a24.72,24.72,0,0,0,14.18-10.93,23,23,0,0,0,3-12.26q-1.11,11.24-2.23,22.49,4.05,6.39,8.11,12.93,2.73,4.39,5.4,8.76c.21-11.77.38-29,0-49.87-.39-24.72-1.33-45.06-.49-45.11s2.91,26.87,4.16,26.81c1-.05,1.42-18.91,0-38.12a315.74,315.74,0,0,0-4.36-34.12,174.47,174.47,0,0,0-5.83,19.56c-2.06,8.7-2.58,13.81-4.8,14.18-1.14.19-3.65-.7-8.45-11.61a93.8,93.8,0,0,1,.32,33.32A95.82,95.82,0,0,1,542.52,219.92Z" fill="#fff" opacity="0.5" style="mix-blend-mode:overlay"/><path d="M568.42,178.6c-.66.12,1,6.76.41,15.13-.77,10.52-4.74,18.23-3.84,18.61s4.13-8.2,6.8-7.81c4.42.63,3.88,25.26,4.54,25.25s.55-15.82.88-31.85c.21-9.77.6-23-.07-23.06s-1.45,14.65-3.81,14.76C571.24,189.73,569.28,178.45,568.42,178.6Z" fill="#fff" opacity="0.6" style="mix-blend-mode:overlay"/><path d="M462.9,327.87a143.4,143.4,0,0,0-12,23.83,155.67,155.67,0,0,1,11.18-23.63,98.82,98.82,0,0,1,.07-31.38A106.5,106.5,0,0,0,462.9,327.87Zm7.4-53.81c-4.35,5.47-6,10.91-7.24,17.53A47.9,47.9,0,0,1,470.3,274.06Zm16.79-11.89c4.62-1.23,11.53-2.27,21.77-2.27C498.52,259.88,493.13,260,487.09,262.17Zm25.51-2.23c-1.2,0-2.1,0-2.66,0Zm61.71,13.53a177.15,177.15,0,0,0-18.43-6.56A186.16,186.16,0,0,1,574.31,273.47Zm5.56,2.42q-2.83-1.29-5.56-2.42C576.15,274.24,578,275,579.87,275.89Zm57.81-11.71A188.44,188.44,0,0,0,619,267.6C626.73,266,632.54,264.91,637.68,264.18Zm6.71-.73c2.79-.21,5.55-.3,8.54-.27s5.84.06,8.34.16A83,83,0,0,0,644.39,263.45Zm35.18,5.46a28,28,0,0,1,5.63,6.68A23.27,23.27,0,0,0,679.57,268.91Zm7.22,9.51a64.6,64.6,0,0,1,5.45,17.17l0-.21A50.33,50.33,0,0,0,686.79,278.42Zm33.76,83.84c-.68,17.44-2.32,31.81-3.68,41.58a106.81,106.81,0,0,0-2.75-33.8,170.09,170.09,0,0,0-.31-66C711,290.35,707.36,273.62,695,255.7s-27.22-27.89-38-35a168.68,168.68,0,0,0-40.49-19.39,115.52,115.52,0,0,0,18.2,25,24.87,24.87,0,0,1-22.69-5,75.65,75.65,0,0,0,2,12.79,76.82,76.82,0,0,0,4.49,13,19,19,0,0,1-8.59-1.2,18.48,18.48,0,0,1-7.15-5q-3.43,4.22-6.87,8.77C590.08,257.41,585,265,580.48,272.3a142.2,142.2,0,0,0-9.4-15.6,144.13,144.13,0,0,0-10-12.79,28.84,28.84,0,0,1-5.93,2.4,29.25,29.25,0,0,1-9.62,1c1-3.75,1.87-7.76,2.66-12,.68-3.61,1.21-7.08,1.64-10.39a60.89,60.89,0,0,1-18.4,1.6c2.49-2.94,5.06-6.22,7.61-9.87a132.87,132.87,0,0,0,8.74-14.32,128.76,128.76,0,0,0-59.49,24,122.37,122.37,0,0,0-30.68,33.18c-12.51,20-15.72,38.38-17.78,51-2.75,16.67-2.18,30-1.65,42.58A275.84,275.84,0,0,0,442,388.68a142.29,142.29,0,0,0-.64,18.36c-6.6-17.29-16.85-51.53-10.06-93.64,2.49-15.48,6.78-40.37,24.78-64.69,31.19-42.13,80.63-51.62,94.88-53.85a141.17,141.17,0,0,0,5.31-29.12c.45-6.14.83-11.78-.33-19.19a68.82,68.82,0,0,0-6.14-19.39,48.63,48.63,0,0,1,10.63,9.19,48,48,0,0,1,6.55,9.8,86.74,86.74,0,0,0,6.33-46.78A177.2,177.2,0,0,1,592.9,138.7a174.5,174.5,0,0,1,6.6,24.24,71.81,71.81,0,0,1,10-14,171.53,171.53,0,0,0,3.32,45.78,146.31,146.31,0,0,1,51.27,22.19c8.14,5.6,33.53,23.52,47.85,56.18C723,298.33,722.18,320.25,720.55,362.26ZM610.4,202.33a71,71,0,0,1-6.53-32.52c-1.34,4.8-2.63,5.8-3.55,5.86-3.09.19-5.81-10.14-11.73-28.52-3.48-10.82-6.49-19.53-8.45-25.06a232.43,232.43,0,0,0-7.63,27.46c-.49,2.33-1.19,6-3,6.28-2.54.46-5.88-5.83-8.44-11.61a93.64,93.64,0,0,1,.55,32,96,96,0,0,1-19.09,43.72A23.53,23.53,0,0,0,557,215.21a84.9,84.9,0,0,1-1.68,15.37,83,83,0,0,1-3,10.93,23.5,23.5,0,0,0,7.56-3,22.23,22.23,0,0,0,4-3.08q3.78,5.89,7.55,11.91,4.77,7.6,9.37,15.13a173.19,173.19,0,0,1,10.26-16.19c3.3-4.63,6.61-8.8,9.82-12.53a17.75,17.75,0,0,0,7.63,5.06,34.92,34.92,0,0,1-1.1-23.72,29.22,29.22,0,0,0,12.27,6.66,27.45,27.45,0,0,0,4.91.8A72,72,0,0,1,610.4,202.33ZM442,388.58a156.12,156.12,0,0,1,8.85-36.74q-1.28,3.23-2.43,6.69A140.86,140.86,0,0,0,442,388.58Zm21-96.75c-.34,1.59-.61,3.18-.83,4.76C462.45,294.93,462.72,293.35,463,291.83Zm7.3-17.79a38.67,38.67,0,0,1,16.75-11.86,26,26,0,0,0-8.2,3.47A32.37,32.37,0,0,0,470.31,274Zm56.49-13.11c-1.53-.18-3-.33-4.46-.45C523.75,260.6,525.24,260.75,526.8,260.93Zm6.05.81,2.4.39Zm2.4.39c2.82.47,6.12,1.11,9.77,1.94C541.62,263.29,538.36,262.65,535.25,262.13Zm12.56,2.59c-.94-.23-1.86-.44-2.79-.65C545.93,264.27,546.86,264.49,547.81,264.72Zm32.06,11.17c17.14-3.4,30.13-6.25,39-8.27l-1.39.28C603.36,270.78,590.72,273.49,579.87,275.89Zm61.71-12.17,2.43-.24c-1.76.14-3.52.33-5.38.58Zm19.69-.38c7.4.78,13,1.43,18.17,5.46a20.81,20.81,0,0,0-5.1-3.15C670.72,264.08,666.55,263.55,661.27,263.34Zm25.48,15c-.44-.85-.89-1.67-1.38-2.47C685.84,276.69,686.29,277.52,686.75,278.35ZM694,330.5c.18-2.3,1.28-18.82-1.72-34.82A180.06,180.06,0,0,1,694,330.5Zm6.16,8.3c.62.92,1.25,1.86,1.86,2.84C701.39,340.67,700.77,339.72,700.14,338.8Zm3.69,5.87c.26.45.52.9.77,1.35-.85-1.51-1.71-3-2.6-4.38C702.62,342.62,703.22,343.63,703.83,344.67Zm6.57,13.64c-.23-.58-.46-1.16-.7-1.74Zm-4.57-10.05c-.22-.42-.45-.82-.67-1.23a101.52,101.52,0,0,1,4.54,9.54C708.58,353.83,707.3,351.05,705.83,348.26Zm-.67-1.23-.56-1C704.79,346.36,705,346.7,705.16,347Zm7.4,17.46c-.46-1.51-1-3-1.55-4.55Q711.88,362.29,712.56,364.49Zm.5,1.64c.39,1.36.75,2.67,1.06,3.91C713.81,368.75,713.44,367.45,713.06,366.13Z" fill="#030200"/></g></g></g></svg>