<svg xmlns="http://www.w3.org/2000/svg" viewBox="0 0 1080 1920"><g style="isolation:isolate"><g id="hair"><g id="_44" data-name="44"><path d="M437.48,412.63c.89,1.36,1.65,2.47,2.19,3.22,0-2.12.09-5.24.2-9,.06-2,.25-8.3.41-10.29.32-4,2.07-10.64,10.23-19.31a146.94,146.94,0,0,1,2.89-27.46c2.92-14.46,5.63-27.88,15.73-40.53a66.61,66.61,0,0,1,29.26-20.59c17.06-6,31.53-2.75,44.81.21a120.56,120.56,0,0,1,36.83,15c10.76-1.2,19.94-2.12,27-2.79,34.82-3.31,46.71-3.32,60-1.08a138.1,138.1,0,0,1,13.5,3A63.33,63.33,0,0,1,694.4,321.9c7.09,14.81,6.77,29.26,6.55,39a112.86,112.86,0,0,1-1.23,14.37,40.57,40.57,0,0,1,12.89,16.95,42.19,42.19,0,0,1,3.07,15.65,123.17,123.17,0,0,0,11.67-78.29,72.88,72.88,0,0,0-2.26-23.37,71.9,71.9,0,0,0-6.54-16.31,80.32,80.32,0,0,0-10-13.94c-10.47-12.4-19.29-21.32-19.85-21.88-13.17-13.27-19.75-19.91-28.23-26.81a190.21,190.21,0,0,0-28-19.52c-11.2-6.3-25-13.89-44.2-16.94a93.66,93.66,0,0,0-84.71,27.67,100.74,100.74,0,0,0-18,25.95,148,148,0,0,0-32.94,27c-7.68,8.41-18,19.66-25.17,38a116.52,116.52,0,0,0-7,53.2A114.31,114.31,0,0,0,437.48,412.63Z" fill="#42210b"/><path d="M453.38,276a88,88,0,0,1,29.46-17.16,41.18,41.18,0,0,0-11,6,43.66,43.66,0,0,0-12.07,14.37,40.79,40.79,0,0,1,14.73-8.8,39.31,39.31,0,0,1,15.14-1.93,65.57,65.57,0,0,0-15.34,11.16,68.27,68.27,0,0,0-13.1,17.85,53.78,53.78,0,0,1,29.67-17,100.08,100.08,0,0,0-34.58,40.75,106,106,0,0,0-9.41,53.41,96.73,96.73,0,0,1,0-43.54,154.41,154.41,0,0,0-5.73,20.37,157.76,157.76,0,0,0-3.27,36,210.74,210.74,0,0,1,0-66.92,79.64,79.64,0,0,0-3.69,7.5,83.16,83.16,0,0,0-3.89,11.37,72.89,72.89,0,0,1,2.05-16.09A71.12,71.12,0,0,1,439.05,306c-2,3-4,6.34-5.93,10.08a119.07,119.07,0,0,0-6.34,14.37c.57-3.1,1.48-7.56,2.86-12.87,2.17-8.28,4-15.37,7.61-22.3C442.11,286,448.26,280.52,453.38,276Zm110.24-86.34c-17.32,3.29-37.3,17.21-42.31,20.71-.76.53-4.27,3-3.89,3.86.69,1.57,13.69-3.64,14.12-2.58S521.93,216,512.71,225c-7.15,7-11.93,15.42-10.84,16.52s7.76-6.94,20.87-13.73,24.73-8.23,25-7.51-7,2.84-16.78,9.44c-2.34,1.58-10.14,6.86-9.41,8.58,1,2.29,16.36-3.41,17.19-1.29.72,1.86-10.48,7.53-16.37,19.31-.59,1.18-1.36,2.88-.82,3.43,1.29,1.32,8.34-5.77,18.41-10.94a63,63,0,0,1,15.76-5.58,73.3,73.3,0,0,0-20,19.09,75.12,75.12,0,0,0-8.39,15.23c2.59-2.56,6.49-6.28,11.46-10.51,9.55-8.13,18.34-14.14,18.82-13.51s-9.32,8.91-8.18,10.72,12.83-4.63,13.91-2.78c.92,1.58-7.09,7.38-5.93,9.86s10.68-1.64,13.09,1.93c2.09,3.1-2.9,9.42-1.64,10.51,1.5,1.29,7.53-8.38,18.21-12,4.85-1.63,10.63-1.06,22,.13a158,158,0,0,1,20.15,3c17.82,4.23,32.62,13.82,42.15,21.23a141.66,141.66,0,0,0-17.39-15.65,138.58,138.58,0,0,0-27-16.09,57.78,57.78,0,0,1,13.1.64,58.94,58.94,0,0,1,16.57,5.36,93.9,93.9,0,0,0-21.28-12A90.91,90.91,0,0,0,606,252a44.32,44.32,0,0,1,22.51,1.29,50.93,50.93,0,0,0-17.37-8.54,49.64,49.64,0,0,0-17-1.55,88.28,88.28,0,0,1,21.88.49c13.44,2,23.21,6.68,36.22,13a236.08,236.08,0,0,1,24.35,13.72c-11.19-11.68-31.5-29.32-61.17-38a127.8,127.8,0,0,0-26-4.72A39.49,39.49,0,0,1,609.08,225a37.78,37.78,0,0,1,8.8,2.15,109.25,109.25,0,0,0-23.12-9.87,107.17,107.17,0,0,0-25.58-4.29,123.62,123.62,0,0,1,33.35.43,125.1,125.1,0,0,1,33.77,10.08c-7.42-3.83-15.33-7.65-23.74-11.37q-11.64-5.15-22.51-9.22a134.54,134.54,0,0,1,33.35,8.79A137.48,137.48,0,0,1,652.66,228C623.13,196.54,586.85,185.24,563.62,189.66Z" fill="#fff" opacity="0.5" style="mix-blend-mode:overlay"/><path d="M439.62,317.56A26.59,26.59,0,0,1,442.43,304a25.08,25.08,0,0,1,9.1-10,20,20,0,0,0-5,6.49,20.55,20.55,0,0,0-1.18,3.05,34,34,0,0,0,4.81-2.89,36.3,36.3,0,0,0,5.27-4.61,59,59,0,0,0-9.26,10A60.91,60.91,0,0,0,439.62,317.56Zm98.57-109.34A45.8,45.8,0,0,1,558.34,203a44.79,44.79,0,0,1,14,1.93c-1.89-1.24-10.56-6.6-21.39-4A27.39,27.39,0,0,0,538.19,208.22Zm10,20.81c10.29-3.3,20.1-3.08,20.26-2,.12.77-5.08,1.34-12.59,5.58-4.79,2.7-10.1,6.65-9.61,7.72s7.45-2.54,19-3.86c7.55-.87,14.68-.44,14.73.21s-5.14.92-10.44,2.47c-5.68,1.66-13.42,5.27-21.79,13.94A209.64,209.64,0,0,1,598.34,236a49.62,49.62,0,0,0-13.2-3.86,50.16,50.16,0,0,0-23.73,2.36,46.49,46.49,0,0,1,8.39-4.29c10-3.88,17.67-2.83,17.7-3.54,0-.88-11.66-4.28-25.78-1.93a71.62,71.62,0,0,0-23.84,8.9A44.26,44.26,0,0,1,548.21,229Zm51.36,19.09c-.42-1-11,3.39-17.91,6.75-2.64,1.29-4.1,2.1-4,2.69.38,1.83,15.58-.65,15.76.42.21,1.24-20.08,4.82-19.9,6.22.14,1.12,13.31,1.52,25.42-4.82,3-1.59,6.57-3.9,6.24-4.83-.59-1.71-13.77,2.57-14.42.75C590.2,253.7,600,249.1,599.57,248.12Z" fill="#fff" opacity="0.6" style="mix-blend-mode:overlay"/><path d="M728.78,326.41a59.72,59.72,0,0,0-2.66-28.91c-3-8.07-7.1-13.25-16.78-24.29-15.14-17.24-22.71-25.86-29.26-32C661,223.47,642.77,206.53,614.4,196c-15.5-5.76-41.47-15.39-71-5.8a98.88,98.88,0,0,0-37.24,23,107.23,107.23,0,0,0-22.3,31.31,113.89,113.89,0,0,0-44.74,37.18,117.06,117.06,0,0,0-19.1,42.9C411,368.07,432.07,404,437.48,412.63c-4.58-8.22-23.71-44.6-12.75-87.51,7.62-29.85,26.21-48.84,32.94-55.55a124.11,124.11,0,0,1,28.85-21.45,86,86,0,0,0,5.12,18,84.31,84.31,0,0,0,4.91,10.09,34.57,34.57,0,0,1,3.68-15.88c6.15-12,17.55-15.76,20-16.51a57.62,57.62,0,0,0-13.91,17.59,60.65,60.65,0,0,0-6.55,24.23c-11.66,3.69-25,10.37-34.17,23.38-14.12,20.07-12.32,46.73-12.07,46.76a74.46,74.46,0,0,1,6.14-27.45c1.76-4,10.93-24.82,32.12-34.75,19.56-9.16,38.53-3.93,60.57,2.14a159.9,159.9,0,0,1,30.28,11.8,292,292,0,0,1,96-3.64A69.28,69.28,0,0,1,691.54,320a74.84,74.84,0,0,1,9.82,36,67,67,0,0,0-3.89-30,63.63,63.63,0,0,0-10.23-17.8A88.54,88.54,0,0,1,703.61,315,92.61,92.61,0,0,1,725.91,332a131.93,131.93,0,0,1,.41,39.69,130.25,130.25,0,0,1-10.64,36.24,113.58,113.58,0,0,0,13.71-37.1A116.17,116.17,0,0,0,728.78,326.41Zm-4.3-5a157,157,0,0,0-16.09-10c-7.54-4.06-24.59-13.07-47.61-16.16-12.77-1.71-22.85-.79-43,1-12.69,1.16-23.21,2.77-30.69,4.08a35.17,35.17,0,0,1,5.73-11.26c10.35-13.47,27.17-13.83,30.28-13.84-2.23-.43-20.18-3.57-33.05,9.33a36.87,36.87,0,0,0-9.2,16.2l-15.86-7a44,44,0,0,1,15.65-16.4,42.18,42.18,0,0,1,30.8-4.72,40.77,40.77,0,0,0-28.75.53,43.58,43.58,0,0,0-21.9,20.17,119.84,119.84,0,0,0-56.19-9.16,62.42,62.42,0,0,1,5.45-19.73,61.15,61.15,0,0,1,23.74-26.31c-4-.13-19.75-.17-31.65,12a40.69,40.69,0,0,0-8.18,12.3,61.94,61.94,0,0,1-1.91-6,63.25,63.25,0,0,1-1.91-11.15,69.74,69.74,0,0,1,4.09-10.3c8.13-16.51,20.62-25.2,26.46-29.17,28.34-19.22,61.27-14.6,69.57-13.15,20.44,3.54,34.61,12.49,46.1,19.73,7.43,4.68,19.59,15.71,43.93,37.75a338.51,338.51,0,0,1,27.55,28.89c6.31,7.41,10.95,13.53,13.91,22.59A57.38,57.38,0,0,1,724.48,321.4Z"/></g></g></g></svg>