<svg xmlns="http://www.w3.org/2000/svg" viewBox="0 0 1080 1920"><g style="isolation:isolate"><g id="hair"><g id="_5" data-name="5"><path d="M443,434.58a140.57,140.57,0,0,1-18.8-42.65c-2.87-11.43-3.25-24.27-4-49.93-.22-7.43-.63-25.82,3.44-45.7,1.17-5.66,3-13.07,8.49-20.53a45.88,45.88,0,0,1,11.28-10.85,82.12,82.12,0,0,1,16.12-33.24,80.53,80.53,0,0,1,29.91-22.94,92.22,92.22,0,0,0-11.12,18.33,108.22,108.22,0,0,1,25.36-27.9c6.38-4.85,10.34-6.63,17.56-12.46a119.21,119.21,0,0,0,21.26-22.35q-1.29,7.23-2.93,14.83-.94,4.34-1.95,8.51a222.73,222.73,0,0,0,19.51-17.8c5.55-5.72,10.41-11.32,14.63-16.62-.35,4.58-.62,9.33-.78,14.24-.13,3.79-.19,7.49-.2,11.08a19,19,0,0,0,6.83-11.08A57.92,57.92,0,0,0,586.76,181a57.11,57.11,0,0,0,9.76,8.51,67.27,67.27,0,0,0-8-25.72q10.38,7.81,21.07,16.42,14.94,12.06,28.28,23.94c-2-3.48-4.27-7.12-6.83-10.88-2.22-3.27-4.45-6.3-6.63-9.1a96,96,0,0,1,26.14,17.61c3.91,3.76,9,9.34,21.06,21.16,2,1.92,3.59,3.49,4.68,4.55a56,56,0,0,1,19.9,14,57.12,57.12,0,0,1,12.09,21,70.23,70.23,0,0,1,15.2,21.26c2.06,4.47,4.91,11.9,6.45,25.82,1.32,11.81.57,21.68-1,40.95-2,24.55-3.31,40.77-6.63,57.56a79.78,79.78,0,0,1-10,26.71c-1.47,2.42-2.81,4.33-3.71,5.54-2.22-22.91-2-37.92-1-48.27.43-4.46,1.59-14.22-2.93-24.8a41.52,41.52,0,0,0-5.46-9.23,113.8,113.8,0,0,0-8.06-47.47,110.92,110.92,0,0,0-13-23.48,64.4,64.4,0,0,1-10.67-2.9,65.19,65.19,0,0,1-10.14-4.75,47.5,47.5,0,0,1-33.55.79,60.36,60.36,0,0,1-20.29,4.22,59.58,59.58,0,0,1-13.26-1.05,45.91,45.91,0,0,1-18.53,5.87,46.63,46.63,0,0,1-26.53-5.67c-7.52.42-15.7.56-24.44.26-7.56-.26-14.67-.83-21.26-1.58-2.22.34-4.58.61-7.08.79a86,86,0,0,1-16.33-.4,64.18,64.18,0,0,0-7.41,7.27,67.77,67.77,0,0,0-11.32,18.75c-4.75,11.76-5.17,22.19-5.65,34.22-.17,4.09-.15,7.46-.1,9.69a95.88,95.88,0,0,0-9.07,27.47,109.35,109.35,0,0,0-1.34,15.67A261.25,261.25,0,0,0,443,434.58Z" fill="#42210b"/><path d="M497.92,279.77l.67.29c-.49.07-1,.15-1.55.21C497.36,280.1,497.65,279.93,497.92,279.77ZM711.2,398.35c-.14-4.08-.28-7.48-.43-10.37C710.87,391.11,711,394.57,711.2,398.35ZM606,196.59a15.49,15.49,0,0,1-3.36-2.15A37.28,37.28,0,0,1,606,196.59ZM722.78,361.46a9.65,9.65,0,0,1-5.88,0c-1.66-.56-5.26-2.4-9.1-14.67a95.53,95.53,0,0,1-3.69-18.45c-.79-6.32-2.16-15.41-4.65-26.57a36.38,36.38,0,0,1,13,6.15,21.71,21.71,0,0,0-7.76-9.72,20.68,20.68,0,0,0-10.27-3.57,22,22,0,0,0,4.07-7.73,22.64,22.64,0,0,0,0-12.5,20.46,20.46,0,0,1-7.94,5.16,20,20,0,0,1-9.11,1,29.26,29.26,0,0,0,4.46-5.36,30,30,0,0,0,3.1-6.34A19.15,19.15,0,0,1,678.73,275a17.57,17.57,0,0,1-6,.19,21.61,21.61,0,0,0,5.81-11.5,22.35,22.35,0,0,0-3.29-15.47,27.61,27.61,0,0,1-6.78,21.62,35.62,35.62,0,0,0,.76-24.67,34.51,34.51,0,0,0-14.91-18.36c.76.83,13.94,15.62,8.73,30.54-1.65,4.69-6.81,14.24-14.54,13.68-7-.5-10.93-8.83-11.24-9.52a38.18,38.18,0,0,0-.77-8.33A37.21,37.21,0,0,0,631,240.16c.25.92,4.17,15.91-5.56,26.55a25.48,25.48,0,0,1-14.53,7.73,41.73,41.73,0,0,0,8.52-21.22c1.61-16.53-7.69-29-12.78-34.48a31.68,31.68,0,0,1,5.8,34.68c-5.77,14.38-18.62,20.79-22.66,22.61a58.85,58.85,0,0,0,1.93-14.88c0-17.21-7.64-30-11.62-35.69,1.95,7.06,5.17,20.67,4.65,34.31-.22,5.63-1,10.38-4.27,14.47a19,19,0,0,1-6.78,5.36,23.19,23.19,0,0,0,3.1-6.35c2.7-8.59-.39-16.29-1.54-18.84,1.28,10.91-3,20.3-9.89,23.2a13.63,13.63,0,0,1-10.27,0c-6.57-2.9-8.44-11-9.49-15.46-3.39-14.58,2.83-27.58,5.81-32.92a40.56,40.56,0,0,0-11.24,16.65,41.65,41.65,0,0,0-1.74,21.22c-2.9-.06-8.27-.68-12.59-4.56-7.15-6.39-8.67-19.15-2.72-30.94a49.55,49.55,0,0,0-6,39.07,16.06,16.06,0,0,1-5-5.35,17.47,17.47,0,0,1-2-11.5,43.46,43.46,0,0,0-2.9,20.62,15.16,15.16,0,0,1-8.33-1.39c-6.25-3.11-8.2-10.12-9.3-14.08-3.91-14.05,2.71-27.16,5-31.33-13.7,16-15.68,27.08-14.54,34.51.53,3.43,2.36,10.24-.58,12.49-1.93,1.48-5.13.38-6.78-.6-3.76-2.2-5.65-7.36-4.87-13.1-2.06,4-4.11,9.66-1.91,14.29,1.6,3.4,5,5.35,4.46,6.55-.69,1.38-5.27-1.22-8.73,1.19-2.32,1.62-2.17,4.15-3.87,4.36-2.22.28-4.34-3.76-4.65-4.36A15.42,15.42,0,0,1,452,272.85a20.27,20.27,0,0,0-4.65,8.33c-1.05,3.9-.37,6.5-.39,10.12a33,33,0,0,1-3.87,14.87,19.31,19.31,0,0,1,5.31-6,18.84,18.84,0,0,1,6.7-3.14c-10.74,13.76-13.87,25.5-14.73,33.71-1.21,11.53,1.37,22.53-5.81,32.13a26.22,26.22,0,0,1-6.59,6.16c-.67-8.47-.63-16.57-.58-26.59.06-12.7,2-25.19,5.81-50.17.61-3.92,1.81-11.13,7.37-16.86a24.35,24.35,0,0,1,8.32-5.55,92.64,92.64,0,0,1,13.57-28.56,91.28,91.28,0,0,1,10.31-12.14,33.62,33.62,0,0,0-2.56,7.68,35.12,35.12,0,0,0,.77,16.66q2-8.39,3.88-16.76l0,0a110.48,110.48,0,0,1,17.68-22.25c5.14-4.95,11.1-9.32,22.8-17.85,5.71-4.15,10.72-7.7,14.75-10.5-.62,2.07-1.31,4.21-2.09,6.41-1,2.8-2.06,5.43-3.13,7.88h0l-.48.44.37-.18c2.56-1.22,5.36-2.68,8.31-4.42A110.05,110.05,0,0,0,551,183.15a111.77,111.77,0,0,0,13.81-14.94,43.17,43.17,0,0,0,2.33,18c.35,1,.73,1.9,1.11,2.78v0a46.27,46.27,0,0,0,9.48,22.45,28.72,28.72,0,0,1,4.38-20.62l-4.38,3.57c-.22-2.31-.36-4.78-.39-7.41a86.48,86.48,0,0,1,.38-9.37h0A45.9,45.9,0,0,0,590.05,190a44.55,44.55,0,0,0,16.43,6.92h0c.55.4,1.1.83,1.65,1.28a40.77,40.77,0,0,1,7.62,8.33q-3.85-7.31-8.28-14.94-3.36-5.81-6.73-11.23L611,187.91c13.61,10,16.27,11.85,20.41,15.34a150.26,150.26,0,0,1,15.24,14.8c-1.82-2.87-3.71-6.09-5.55-9.65s-3.26-6.71-4.52-9.78c8,6.36,14.8,12,20.28,16.66,12.17,10.29,15.9,14,19.38,19.56A56.76,56.76,0,0,1,683.06,251a33,33,0,0,0-1.56-14.8,71.15,71.15,0,0,1,14,15.33,73.25,73.25,0,0,1,8.14,16.13,61.85,61.85,0,0,1,16,23.4c2.42,6.41,3.54,12.82,3.75,34C723.53,341.25,723.62,349.89,722.78,361.46ZM520.23,212.37a24.31,24.31,0,0,0-9,5.25,25,25,0,0,0-5,6.53,22.18,22.18,0,0,1,1.38-7A21.7,21.7,0,0,1,511,211a32.13,32.13,0,0,0-8.23,13.29,33.06,33.06,0,0,0-.59,17.85,51.78,51.78,0,0,1,6.3-16.27A50.52,50.52,0,0,1,520.23,212.37Zm38.68-8.46c-2,2.36-3.39,2.32-3.87,2.24-2.53-.38-4.55-5.31-4.52-12.56a31.29,31.29,0,0,1-3.62,6.88,30.37,30.37,0,0,1-5.29,5.82,21.21,21.21,0,0,1,4.73,5.27,22.48,22.48,0,0,1,3.27,12.71,52.66,52.66,0,0,1,4.4-12.43A51.52,51.52,0,0,1,558.91,203.91ZM604,227.57c-.91-4.78-3.07-7.52-6.08-12.69a113.28,113.28,0,0,1-6.7-13.49,50.94,50.94,0,0,0,1.43,8.76,48.44,48.44,0,0,0,2.06,6.32l-8-1.72a26.27,26.27,0,0,1,14.08,11.76,25.92,25.92,0,0,1,3.1,10.32A23.58,23.58,0,0,0,604,227.57Zm42.25,14.81a36.38,36.38,0,0,0-5.69-18.64c-7.64-11.84-19.77-14.76-22.47-15.34a54.53,54.53,0,0,1,17.7,21.68c6,13.76,4.22,27.24,5.17,27.24.76,0,2-9,.51-18.77a58.74,58.74,0,0,0-3.88-13.89,34.14,34.14,0,0,1,8.66,17.72Z" fill="#fff" opacity="0.5" style="mix-blend-mode:overlay"/><path d="M462.29,278.9a13.9,13.9,0,0,1-2.62-23.4,14.76,14.76,0,0,0-1.89,11.75,11.32,11.32,0,0,1,1.26-5.7,11,11,0,0,1,4.65-4.61,27.59,27.59,0,0,0-1.4,22Zm33-59a68.82,68.82,0,0,1,16.28-13.68,29.81,29.81,0,0,0-18.21,9.92,30.9,30.9,0,0,0-7.27,17.25A70,70,0,0,1,495.32,219.9Zm18.51,8.53a96.11,96.11,0,0,1,8.62-11.9,30.53,30.53,0,0,0-.48,4.37,28.63,28.63,0,0,0,.39,5.95,44.42,44.42,0,0,1,6.1-12.3,43.82,43.82,0,0,1,9.3-9.62,43.62,43.62,0,0,0-20.25,12.79,45.77,45.77,0,0,0-11.14,25.68A96,96,0,0,1,513.83,228.43Zm36.53-37.18a36.58,36.58,0,0,0,10.17-10.32,40.81,40.81,0,0,0,1.35,5.46,42.87,42.87,0,0,0,3.49,7.93,83.66,83.66,0,0,1-1.94-11.6,82.72,82.72,0,0,1-.29-11,92.43,92.43,0,0,1-22.47,24.1A35.92,35.92,0,0,0,550.36,191.25Zm11.94,42.49a27.42,27.42,0,0,0,1.78-6.83,29,29,0,0,1,1.55,2.91c2.47,5.33,2.56,9.76,3,16.26.21,3.28.56,8.07,1.16,14,3.72-12.44,3.09-21,1.69-26.71-.53-2.14-1.63-5.74-2.72-11.5a124.19,124.19,0,0,1-1.81-13.75,25.14,25.14,0,0,0-5.16,10.31c-.81,3.53-.4,5.52-.78,9.65a46.39,46.39,0,0,1-3.23,13.09A27,27,0,0,0,562.3,233.74ZM585,213.61c-.42.51,7.56,5.54,12.77,15.68a45.75,45.75,0,0,1,4.78,20.49c.87-4.56,2-14.31-3.1-23.4S585.45,213.1,585,213.61Zm62.5,7.68c-.3.3,4.64,3.92,7.56,11.11,3.68,9.08,1.42,17.2,1.94,17.25s3.81-8.6.58-17.05C654.71,225,647.87,221,647.53,221.29Zm39.82,28.06a36.54,36.54,0,0,1-.05,18.45,9.39,9.39,0,0,0,3.15-4.17,9.25,9.25,0,0,0,.58-3.12,35.4,35.4,0,0,1,.68,5.4,36.3,36.3,0,0,1-.05,4.22,15.6,15.6,0,0,0,2.09-11.26A15.33,15.33,0,0,0,687.35,249.35Z" fill="#fff" opacity="0.6" style="mix-blend-mode:overlay"/><path d="M729.11,310.14c-1.54-13.95-4.36-21.4-6.41-25.88a70.54,70.54,0,0,0-15.1-21.32,57.52,57.52,0,0,0-12-21,55.66,55.66,0,0,0-19.77-14.08l-4.65-4.56c-12-11.86-17-17.46-20.93-21.22a95.13,95.13,0,0,0-26-17.65c2.16,2.79,4.38,5.83,6.59,9.12,2.54,3.77,4.79,7.42,6.78,10.91-8.84-7.92-18.2-15.95-28.1-24Q599,171.82,588.62,164a68,68,0,0,1,8,25.78,56.81,56.81,0,0,1-9.69-8.53,58.41,58.41,0,0,1-9.11-13.48A19.45,19.45,0,0,1,576,172.7a18.93,18.93,0,0,1-5,6.15q0-5.4.2-11.1c.16-4.93.43-9.69.77-14.28-4.19,5.31-9,10.93-14.53,16.66A223.57,223.57,0,0,1,538.05,188c.67-2.79,1.31-5.63,1.94-8.53,1.1-5.08,2-10,2.91-14.88A118.41,118.41,0,0,1,521.77,187c-7.17,5.85-11.11,7.63-17.44,12.5a108,108,0,0,0-25.19,28,94.4,94.4,0,0,1,5.24-9.92,95.54,95.54,0,0,1,5.81-8.46,80.18,80.18,0,0,0-29.71,23,82.51,82.51,0,0,0-16,33.31,46.22,46.22,0,0,0-11.21,10.88c-5.42,7.48-7.27,14.91-8.43,20.59-4,19.93-3.63,38.36-3.42,45.81.77,25.73,1.14,38.6,4,50.06a141.73,141.73,0,0,0,18.67,42.76,266.5,266.5,0,0,1-1.72-39,113.33,113.33,0,0,1,1.33-15.71,96.71,96.71,0,0,1,9-27.54c-.05-2.23-.07-5.62.09-9.71.49-12.07.91-22.51,5.62-34.31a68.42,68.42,0,0,1,11.24-18.8,63.76,63.76,0,0,1,7.36-7.28,85.9,85.9,0,0,0,16.23.39c2.47-.17,4.82-.45,7-.79,6.55.76,13.6,1.32,21.12,1.59,8.68.31,16.81.16,24.28-.27A45.88,45.88,0,0,0,572,289.78a45.22,45.22,0,0,0,18.4-5.89A58.29,58.29,0,0,0,603.61,285a59.47,59.47,0,0,0,20.15-4.23,46.76,46.76,0,0,0,33.33-.79,64,64,0,0,0,20.67,7.67,111.71,111.71,0,0,1,12.92,23.53,115.18,115.18,0,0,1,8,47.6,41.77,41.77,0,0,1,5.42,9.25c4.49,10.61,3.34,20.38,2.91,24.86-1,10.38-1.24,25.43,1,48.39.88-1.22,2.21-3.12,3.68-5.56a80.39,80.39,0,0,0,9.88-26.77c3.31-16.82,4.64-33.1,6.59-57.71C729.67,331.88,730.41,322,729.11,310.14Zm-6.53,53.74a337.79,337.79,0,0,1-10.2,59.23c-.84-17.35-1.52-31-1.81-40.59a48.4,48.4,0,0,0-2.07-13.61c-1.87-6.07-3.34-6.29-5.42-11.77-2.47-6.5-1.41-8.89-3.23-25-.7-6.2-1.05-9.31-1.68-12.43-1.39-6.86-3.27-15.74-9.56-24.19a44.25,44.25,0,0,0-6.2-6.74,18.27,18.27,0,0,0,7.49-1.72,18.67,18.67,0,0,0,7.62-6.75,27.73,27.73,0,0,1-10.33,4.5,28.11,28.11,0,0,1-11.89-.13A34.14,34.14,0,0,1,658.12,275a38.69,38.69,0,0,1-21.44,5.55,36.68,36.68,0,0,1-9.82-1.85,18.56,18.56,0,0,0,8.53-5.69,18.94,18.94,0,0,0,3.49-6.34,40,40,0,0,1-8.66,7.8,43,43,0,0,1-19.89,6.61,53.13,53.13,0,0,1-13.7-.27,37.21,37.21,0,0,0,7.88-7.66,37.94,37.94,0,0,0,4.78-8.2,52.94,52.94,0,0,1-25.06,17.85,54,54,0,0,1-19.5,2.24C546.81,284,534,274.53,528.3,269.75q3.08,3.47,6.46,7,1.95,2,3.87,4a81.19,81.19,0,0,1-26.09-.66,82.46,82.46,0,0,1-31.13-13,45.3,45.3,0,0,0,17.18,13,51.22,51.22,0,0,1-16.28-.13,51.91,51.91,0,0,1-13.69-4.36,15.76,15.76,0,0,0,4.52,4.75,14.58,14.58,0,0,0,1.81,1.06c-11.39,9-16.22,18.21-18.48,24-1.94,5-2.81,10.14-4.52,20.43-2.39,14.3-1.39,16.82-4,26.44-2.31,8.46-3.51,8.08-5.82,16.92a108.81,108.81,0,0,0-3.22,21.55,144.2,144.2,0,0,0,1,28.92,181.3,181.3,0,0,1-9.94-35.33c-2.65-15.13-2.6-26.13-2.52-41.85.06-12.7,2-25.19,5.81-50.17.6-3.92,1.81-11.13,7.36-16.86a24.3,24.3,0,0,1,8.34-5.55,92.44,92.44,0,0,1,13.56-28.56A90.92,90.92,0,0,1,480,222.81q-2.06,5.48-4.19,11L474.17,238a110.74,110.74,0,0,1,18.41-23.47c5.13-4.95,11.1-9.32,22.8-17.85,7.86-5.72,14.41-10.3,18.86-13.35q-.25,4-.52,7.93c-1.43,1.71-3,3.49-4.78,5.29-1.54,1.59-3.05,3-4.52,4.37A110.78,110.78,0,0,0,551,183.15a112,112,0,0,0,13.83-14.94,42.93,42.93,0,0,0,2.32,18,42.15,42.15,0,0,0,5,9.78,16.12,16.12,0,0,1-.78-8.06,16.6,16.6,0,0,1,6.33-10.31A46,46,0,0,0,590.05,190,44.53,44.53,0,0,0,607,197c-5.7-2.42-7-5.83-7.36-6.87a20.31,20.31,0,0,1-.65-4.76,45.56,45.56,0,0,1,0-6.35c2.66,2,6.85,5.07,12,8.86,13.61,10,16.27,11.84,20.41,15.34a151.22,151.22,0,0,1,15.25,14.8c-1.83-2.87-3.72-6.09-5.56-9.65s-3.26-6.71-4.52-9.78c8,6.36,14.8,12,20.28,16.66,12.17,10.29,15.9,14,19.38,19.56A56.76,56.76,0,0,1,683.06,251a34.14,34.14,0,0,0,0-8.06,33.26,33.26,0,0,0-1.55-6.74,71.65,71.65,0,0,1,14,15.33,73.47,73.47,0,0,1,8.14,16.13,61.69,61.69,0,0,1,16,23.4c2.43,6.42,3.53,12.82,3.75,34C723.53,342.37,723.63,351,722.58,363.88Z" fill="#000001"/></g></g></g></svg>