<svg xmlns="http://www.w3.org/2000/svg" viewBox="0 0 1080 1920"><g style="isolation:isolate"><g id="hair"><g id="_6" data-name="6"><path d="M441,423.26c-1.53-17.76-3-33-4.16-45.12-2.27-23.23-3.43-34.91-4.54-38.34-1.51-4.7-4.85-13.69-4.95-26.18a71.44,71.44,0,0,1,.58-9.78,54.24,54.24,0,0,1-7.22-30.76c1.3-18,11.56-29.53,15.22-33.55a58.75,58.75,0,0,1,14.24-11.38,33.79,33.79,0,0,1,12.88-18,32,32,0,0,1,16.59-5.59c0-1.27.37-10,7.22-15.38,6.46-5.11,16-5.21,23.61,0,4.72-4.88,16.8-16,35.42-19.06a60.78,60.78,0,0,1,21.19.27c-1.33,1.06-2.71,2.25-4.12,3.61-.92.88-1.76,1.75-2.54,2.6a38,38,0,0,1,38.49,4.23,65.05,65.05,0,0,1,25.21,3.24A66,66,0,0,1,646,196.52a63.15,63.15,0,0,1,23.12-.54c6.4,1.06,11.8,2,16.89,6.12,7.92,6.49,9.47,16.34,9.85,19.71a66,66,0,0,1,17.94,20.25,67.62,67.62,0,0,1,8.09,23.4,34,34,0,0,1,12.83,22.14,34.39,34.39,0,0,1-6.68,25c-3.06,17.08-3.81,25.52-3.87,30.06,0,.8,0,3.44-.35,7a80.73,80.73,0,0,1-1.76,11c-3,13.33-6.34,57.52-8.44,57.42-.92,0-.16-8.58-2.72-22.2-2-10.78-4.84-16.23-7.22-24.76a250.2,250.2,0,0,1-7.41-37.95,40.31,40.31,0,0,0-7.8-.68,39.81,39.81,0,0,0-8.35,1A33.71,33.71,0,0,1,666,341.24a33.11,33.11,0,0,1-13.63.63,25.15,25.15,0,0,0,11.16-14.07,25.66,25.66,0,0,0-.59-16.57,43.93,43.93,0,0,1-10,7.33,43.19,43.19,0,0,1-10,3.87,27.41,27.41,0,0,0-6.33,15.48,26.37,26.37,0,0,0,1,9.09,32.19,32.19,0,0,1-19.09-5.22A33.7,33.7,0,0,1,605.1,324c-.56,7.24-2.78,11.86-4.75,14.76-2.12,3.12-4.44,5-5,8.64a13.41,13.41,0,0,0,1.93,8.64A30.21,30.21,0,0,1,581,354.65,31,31,0,0,1,567,344c.26,2.64.53,5.28.79,7.92a58.26,58.26,0,0,1-19-17.28,59.85,59.85,0,0,1-9.06-20.07c-2.59,3.33-11,15-8.19,28.18a26.14,26.14,0,0,0,1.77,5.3,39.59,39.59,0,0,1-19-7.83,40.62,40.62,0,0,1-10.89-12.76,46.13,46.13,0,0,1-8-5A47.23,47.23,0,0,1,486,312.8c.4,4.84,1.05,10,2,15.4.38,2.1.79,4.13,1.22,6.11-9.78-.49-16.2-3.4-20.4-6.21-3.91-2.63-9.16-7.35-10.46-6.21-.36.31-.32,1-.21,1.52-.37,5.33-.93,12.89-1.76,22-1,11-1.54,16.67-2.54,21.76-2.22,11.36-4.73,14.66-7.8,25A126.68,126.68,0,0,0,441,423.26Z" fill="#42210b"/><path d="M716.38,395.33c0,.68.12,1.36.2,2.05l-.35-1ZM450.23,242l-.54-7.78a59.66,59.66,0,0,0-15.88,20,51.86,51.86,0,0,0-6,25.19,49,49,0,0,0,2.61,14.38,109.42,109.42,0,0,1,3.1-17.26c2-8,4.43-17.2,11-27.17A68.48,68.48,0,0,1,450.23,242Zm78.15,104.73,1.21.47a1.42,1.42,0,0,0,0-.2Zm201.69-52a35.43,35.43,0,0,1-5.22,19c-.46,5.76-1.33,14.28-3,24.56q.06-5.55-.07-11.37a347.4,347.4,0,0,0-2.81-36.79,48.44,48.44,0,0,1-6.49,12,47.44,47.44,0,0,1-8,8.33,63,63,0,0,0,1.35-11.51,63.93,63.93,0,0,0-3.53-22.52,56.47,56.47,0,0,1-6.25,19.65,55.6,55.6,0,0,1-21.42,21.81,88,88,0,0,0-15.1-78.13c1.84,3,13.14,22.33,6.19,45.41a54.55,54.55,0,0,1-18,26.57,30,30,0,0,0-.23-3.66,37.83,37.83,0,0,0-.47-15.18c-5.18-21.66-28.11-29.45-29.94-30a60.23,60.23,0,0,1,11.73,19.63,61.76,61.76,0,0,1,3.59,24.69,102.81,102.81,0,0,0-16.28-16.26,100.62,100.62,0,0,0-28.68-16,109.7,109.7,0,0,0,9.2,13.48,108,108,0,0,0,18.61,18.25,70.46,70.46,0,0,1-31.3-3,72.78,72.78,0,0,1-33.23-23.2A55.43,55.43,0,0,0,582,319a55.54,55.54,0,0,1-29.27-9.52,57.91,57.91,0,0,1-20.92-26.07,50.91,50.91,0,0,0-9.39,17.35A52.46,52.46,0,0,0,521.29,327a51.72,51.72,0,0,1-11.24-11.61,55.52,55.52,0,0,1-9.69-30.64,26.38,26.38,0,0,0-1.45,26.88,29.41,29.41,0,0,1-12.11-8.83c-7-8.62-6.81-18.53-6.69-21.12a35.23,35.23,0,0,0-7.06,18.84,36,36,0,0,0,7.74,24.39,37.94,37.94,0,0,1-11.92-8.82A40.39,40.39,0,0,1,459,294.17a27.79,27.79,0,0,0,1.83,21.52,49.16,49.16,0,0,1-17.15-24.89,50.35,50.35,0,0,1,.59-30.34,35.11,35.11,0,0,0,8.81,22.41,64,64,0,0,1,1.17-26.08,63.15,63.15,0,0,1,11.23-23,29.4,29.4,0,0,0-6.48,4,30.73,30.73,0,0,0-7.91,9.63v0a41.94,41.94,0,0,1,4.61-15.15A44,44,0,0,1,486.9,210c0-1.7-.15-10.7,5.62-14.68,1.24-.86,5.4-3.31,17.62,1.19,7,2.56,18.13,8,29.47,20.11a86.47,86.47,0,0,0-13-14.75,84,84,0,0,0-10.86-8.33,70.59,70.59,0,0,1,24.62-17.26A68.77,68.77,0,0,1,563,171.12l-.74.53h0a42.86,42.86,0,0,0-13.2,6.2c-12.74,8.93-16.86,22.23-18,26.58a75.17,75.17,0,0,1,32.17,4.16c18.68,6.89,28.38,19.56,29.64,18.25s-7.67-17.81-24.4-25.79c-11.67-5.55-23-5.08-29.66-4.16a136.32,136.32,0,0,1,11.92-13.46c-.38.53-.73,1.05-1.06,1.56a52.3,52.3,0,0,1,28.1-5.75,53.5,53.5,0,0,1,24.6,8.53,55.93,55.93,0,0,1,17.25,17.85,34.34,34.34,0,0,0-5.43-13.49,33.17,33.17,0,0,0-8.14-8.33,72.68,72.68,0,0,1,26.55,9.12,74.42,74.42,0,0,1,22.67,20.43,36.47,36.47,0,0,0-6.2-13.09c3-.27,19.85-1.61,31.39,3.57a23.6,23.6,0,0,1,13.76,15.07,34.41,34.41,0,0,0-10.08-5.75,33.74,33.74,0,0,0-12.79-2c1.36.51,2.84,1.12,4.42,1.83h0c1.9.86,4,1.88,6.08,3.1a73.1,73.1,0,0,1,12.21,8.66c.75.66,1.51,1.35,2.26,2.07,4.39,4.18,13.87,13.43,18.6,28.75.58,1.88,1,3.69,1.41,5.37a64.69,64.69,0,0,1,1.11,7.52C719.26,270,729.75,279.42,730.07,294.67ZM516,276.76a31.33,31.33,0,0,1-19.64-12.83A32,32,0,0,1,491,245.42c-5.26,7.18-5.84,16.71-1.56,23.8C494.61,277.81,506.07,281.37,516,276.76Zm25.31-50.38a38.78,38.78,0,0,1-18.81-5c-6.6-3.84-9.55-8.5-16.71-9.13-2.86-.26-7.79,0-8.79,2.51-.75,1.9,1.09,4.32,2,5.42,1.87,2.42,6,6.32,16.4,8.06A56.85,56.85,0,0,0,541.34,226.38Zm65.89-5.29a89.77,89.77,0,0,0-7-7.93,85.09,85.09,0,0,0-8.53-7.53q.78,8.13,1.55,16.26Zm26.5-2.12a72.74,72.74,0,0,0-14.68-10.77q-.59,6.95-1.16,13.89a52.14,52.14,0,0,1,17.44,6.14c6.81,3.91,10.42,8.13,11,7.54C647.2,235,641.46,226.29,633.73,219ZM451.09,247.38v0l.06-6.42c-.29.32-.6.66-.92,1,.21,3,.41,6,.63,9.08C450.88,250.05,450.93,248.81,451.09,247.38Zm57.51,84.11A46.66,46.66,0,0,1,501,315.56l.7,9.12a31,31,0,0,1-10.32-8.13,32,32,0,0,1-5.95-11.1,65.48,65.48,0,0,0-.45,20.09c.3,2.23.7,4.33,1.16,6.28A54,54,0,0,1,451.7,308a24.58,24.58,0,0,0,5.61,13c-.35.84-.9,2.22-1.48,4-3.4,10.18-2.57,17.1-3.49,28.82a120.43,120.43,0,0,1-2.07,15.74A90,90,0,0,1,442,392.8a46.72,46.72,0,0,1-7.78-19.64c-1.06-7.57.56-11.13,1.4-31.92.14-3.25.26-6.2.28-9.62a175.85,175.85,0,0,0-2.47-30.8,48.68,48.68,0,0,1-3-7c-.18,1.88-.32,3.86-.38,6a105.34,105.34,0,0,0,2.42,25.88c2.57,12.64.36,13.75,2.23,39.63.62,8.62,1.8,21.44,4.26,37.22a159.3,159.3,0,0,0,8.23-18A104.23,104.23,0,0,0,452.6,367a106.43,106.43,0,0,0,1.84-15.27c.92-12.8-.12-17.67,3.1-24.69a30.27,30.27,0,0,1,3.78-6.19,56.25,56.25,0,0,0,12,7.87,55.46,55.46,0,0,0,15.41,4.86,46.14,46.14,0,0,1-1.94-7.83,47.07,47.07,0,0,1-.19-13.29,48,48,0,0,0,16.85,15.07c-.55-2.58-1.09-5.15-1.64-7.73a37,37,0,0,0,9,16.75,35.91,35.91,0,0,0,17.55,10.18A46.19,46.19,0,0,1,508.6,331.49Zm197.84,33.58a352.49,352.49,0,0,1-7.37-35.5,21,21,0,0,0,4.27-4.76,22.3,22.3,0,0,0,3.49-10.51A26.06,26.06,0,0,1,696,327.19a24.71,24.71,0,0,1-12.59,3.38,49.22,49.22,0,0,0,9.36-22.15,72.13,72.13,0,0,1-9.81,17.25c-4.38,5.65-7.31,7.62-8.33,8.27a27,27,0,0,1-12.34,4,36,36,0,0,0,5.55-19.3,35.1,35.1,0,0,0-2.19-11.9,47.06,47.06,0,0,0,2.52-5,48.23,48.23,0,0,0,2.45-7.27,74.48,74.48,0,0,1-11.82,14.35,72.85,72.85,0,0,1-11.63,8.92,31.26,31.26,0,0,0,.6-6c-.47.39-.9.72-1.27,1a43,43,0,0,0,1-4.66c-.07-.65-.17-1.33-.3-2a30.86,30.86,0,0,0-5-11.9c1.65,4.43,3.08,10.61,1.35,17.19a75.76,75.76,0,0,1-3.55,8.39c-4.49,9.9-5.93,11.74-6.72,16.13a28.84,28.84,0,0,0-.06,9.52,35.63,35.63,0,0,1-16.54-8.92c-9.75-9.35-11-21.35-11.23-24.46,0,9.79-2.66,15.7-5.17,19.3-2.4,3.43-4.56,4.71-6.4,8.6-2.65,5.61-2.13,11.49-1.29,15.53a32,32,0,0,1-20.15-8.92,33.92,33.92,0,0,1-9.89-22.41,38.63,38.63,0,0,0-.51,15.86,37.09,37.09,0,0,0,2.39,8.07,125.73,125.73,0,0,1-24.29-39,46.87,46.87,0,0,0-11,24.86,44.79,44.79,0,0,0,.41,13.09c.56.11,1,.2,1.43.26A41.78,41.78,0,0,1,532,328.38a41,41,0,0,1,8.24-15.17,72.75,72.75,0,0,0,11,22,71.3,71.3,0,0,0,17,16.56q-2.22-7.89-4.45-15.77a31.48,31.48,0,0,0,13.46,16,30.19,30.19,0,0,0,17.92,3.87c-.9-3.09-1.65-7.58.1-12,1.16-2.91,2.75-4.14,4.55-6.64,2.1-2.91,4.52-7.59,5.33-15.07a48.86,48.86,0,0,0,4.36,8.62c2.39,3.75,5.61,8.81,11.63,12.4a29.12,29.12,0,0,0,15.41,4,26.87,26.87,0,0,1-.88-11.6,27.16,27.16,0,0,1,7-14.47,28.84,28.84,0,0,0,10-3.47,29.88,29.88,0,0,0,10.27-9.92,31.45,31.45,0,0,1,1.74,19,30.56,30.56,0,0,1-6.88,13.38A31,31,0,0,0,671.26,338a31.88,31.88,0,0,0,11.15-7.43,12.5,12.5,0,0,0,14.73-.9,154.65,154.65,0,0,0,11.23,47l6.21,32.43c.54-4.23,1.1-8.45,1.65-12.68C712.79,387,709.44,376.51,706.44,365.07Zm15.31-26.37c-1.68,10-3,14.65-4.08,20.62a131.43,131.43,0,0,0-1.29,36q1.17-9.07,2.36-18.16,1.41-14.18,2.81-28.36c.14-3.43.24-6.94.27-10.54C721.8,338.41,721.77,338.55,721.75,338.7Zm-159.45-167h0a52.36,52.36,0,0,0-8.93,8.38c-1,1.15-1.84,2.29-2.62,3.4a133.39,133.39,0,0,1,14.63-12.52C564.44,171.11,563.4,171.35,562.3,171.65Zm105.19,39.53a76.49,76.49,0,0,1,7.17,12.89,77.5,77.5,0,0,1,5,16.26,101.8,101.8,0,0,0,2.13-16.46c.16-3.39.14-6.57,0-9.52Zm24,9.52a77,77,0,0,1,12.2,30.54,34.92,34.92,0,0,1,7.17,4.36,36.71,36.71,0,0,1,10.27,12.89,83.6,83.6,0,0,0-11.43-27.76A81.69,81.69,0,0,0,691.52,220.7Z" fill="#fff" opacity="0.5" style="mix-blend-mode:overlay"/><path d="M476.24,262.15a22.63,22.63,0,0,1-2.75-14.91,22.3,22.3,0,0,1,7.2-13,22.13,22.13,0,0,0-2,9.62,22.21,22.21,0,0,1,5.33-9,21.58,21.58,0,0,1,7.46-5A32.82,32.82,0,0,0,484,246a33.46,33.46,0,0,0,3.39,20.63,35.7,35.7,0,0,1-10.17-17.26,18.29,18.29,0,0,0-1,12.8Zm30.13-16.07a34.8,34.8,0,0,0,1.74,13.79A34.21,34.21,0,0,0,515.28,272a16.45,16.45,0,0,1,2.13-17.65,26.83,26.83,0,0,0,7.46,14.38,25.48,25.48,0,0,0,11,6.35,50.76,50.76,0,0,1-18.51-33.92,24.07,24.07,0,0,0-2.9,7.14,23.68,23.68,0,0,0-.58,6.35,18.22,18.22,0,0,1-5.14-4.46A18.41,18.41,0,0,1,506.37,246.08Zm28.19,3a60.5,60.5,0,0,0,13.57,15.86,59.13,59.13,0,0,0,24,11.9,45.6,45.6,0,0,1-15.5-15.07,40.46,40.46,0,0,0,8.33,1.78,39.57,39.57,0,0,0,5.62.2,24.72,24.72,0,0,1-13-5.55A25.73,25.73,0,0,1,549.87,247a16.91,16.91,0,0,0,.78,6.65,16.58,16.58,0,0,0,2.52,4.86,37.41,37.41,0,0,1-11-4A38.2,38.2,0,0,1,534.56,249.06Zm37.79,3a90.27,90.27,0,0,0,8.91,8.53,89.34,89.34,0,0,0,14,9.52,54.2,54.2,0,0,1-9-11.06q5.79,4,12.06,8,6,3.86,11.87,7.29a111.36,111.36,0,0,1-8.9-9.5c-1.49-1.79-2.86-3.56-4.13-5.29a80.48,80.48,0,0,1,9.82,4.1c3.87,1.93,5.81,2.9,7.86,4.5.22.17.56.44.6.39.2-.21-6.14-7.11-13-13.29-3.7-3.33-6.93-5.91-9.24-7.66L600,257.78A66.23,66.23,0,0,0,572.35,252Zm36-9.45,10.08,9,7.81.13-11.11-9.32Zm10.85-1.06,7.62,7.54a9.36,9.36,0,0,0,6.72-2.52,9.67,9.67,0,0,0,2.78-5.35,51.47,51.47,0,0,1,13.17,9.92,52.8,52.8,0,0,1,9.05,12.75,40.93,40.93,0,0,0-12.53-23.07A38.24,38.24,0,0,0,630,232.2a8.26,8.26,0,0,1-.64,6.21C627.51,241.46,623.34,242.87,619.24,241.52Zm55.81,3.82a55.81,55.81,0,0,1,3.34,31.23,47.58,47.58,0,0,0,3.92-9.17,48.31,48.31,0,0,0,1.7-7.63A42.76,42.76,0,0,1,687.3,266a44,44,0,0,1,2.81,9.18,32,32,0,0,0,.29-16.07,31.48,31.48,0,0,0-6.92-13.33,24.76,24.76,0,0,1,.33,9.51,44.52,44.52,0,0,0-4.11-5.4A45.68,45.68,0,0,0,675.05,245.34Z" fill="#fff" opacity="0.6" style="mix-blend-mode:overlay"/><path d="M735.7,286.34a37.26,37.26,0,0,0-12.79-22,73,73,0,0,0-8.33-23.21,71.47,71.47,0,0,0-17.83-20.82c-.37-3.3-1.84-12.82-9.5-19.43-5.72-5-12-5.8-19-6.73a60,60,0,0,0-22.7,1.37,53.48,53.48,0,0,0-21.89-13.68A52.38,52.38,0,0,0,598.89,180a35.78,35.78,0,0,0-15.69-6.54,36.28,36.28,0,0,0-22.48,4c.78-.84,1.62-1.7,2.52-2.57a57.75,57.75,0,0,1,5.62-4.76,55.3,55.3,0,0,0-22.48-1c-19.61,3.24-31.56,16.39-35.26,20.83-7.53-5.18-17-5.08-23.45,0-6.8,5.39-7.14,14-7.17,15.27A31.66,31.66,0,0,0,464,210.78a33.55,33.55,0,0,0-12.79,17.85,57.84,57.84,0,0,0-14.14,11.3c-3.64,4-13.83,15.47-15.12,33.32a53.86,53.86,0,0,0,7.17,30.54c-.25,2.27-.53,5.64-.58,9.72-.14,10.53,2.39,15.23,2.91,26,.25,5.28-.23,5.65-.32,12.43-.15,11.05,1,19.2,2.58,29.76a376.09,376.09,0,0,0,8.39,40.71,125.43,125.43,0,0,1,5-30.94c3.06-10.24,5.55-13.51,7.75-24.79,1-5.06,1.52-10.66,2.52-21.62.83-9,1.39-16.51,1.75-21.81a57.41,57.41,0,0,0,32.16,14.08c-.9-2.86-1.76-6-2.52-9.32a114.16,114.16,0,0,1-2.13-13.09,34.49,34.49,0,0,0,9.69,10.31,33.76,33.76,0,0,0,7.75,4A33.72,33.72,0,0,0,515,343.26a32.61,32.61,0,0,0,20.54,6.34,20.93,20.93,0,0,1-3.49-7.14c-3.31-12.53,6.83-23.77,8-25a60.65,60.65,0,0,0,8.91,19.23,59.6,59.6,0,0,0,20.93,18.45L567.7,346A33.26,33.26,0,0,0,581.84,356a32.53,32.53,0,0,0,17.83,1.19c-2.06-2.66-4.44-6.6-3.49-10.51.78-3.2,3.25-4.21,5.62-7.74,1.68-2.5,3.53-6.59,3.49-13.28a34.54,34.54,0,0,0,13.18,17.25A33.14,33.14,0,0,0,639,348.41a25.81,25.81,0,0,1-1.36-10.71,26.24,26.24,0,0,1,5.81-14.27,28.86,28.86,0,0,0,9.69-3.57,29.66,29.66,0,0,0,9.3-8.73,26.36,26.36,0,0,1,.58,16.46,25.94,25.94,0,0,1-11,14.48,32.26,32.26,0,0,0,13.56,0,32.66,32.66,0,0,0,14.92-7.74,51.7,51.7,0,0,0,5.43,0,52.94,52.94,0,0,0,9.69-1.38A248.58,248.58,0,0,0,703,370.63c3.77,13.54,5.38,14.68,7.17,24.59,3.47,19.22,1.27,36.44,2.13,36.49.32,0,.69-2.4.71-2.51,2.39-15.8,3.52-10.63,6.65-33.19,2.64-18.94,1.34-19,4.07-36.29,1.22-7.74,1.68-9,2.91-17.06,1.87-12.26,2.8-22.36,3.29-29.15A38.09,38.09,0,0,0,735.7,286.34Zm-10.85,27.37c-.48,5.84-1.35,14.52-3.11,25-1.67,10-3,14.65-4.06,20.62a132,132,0,0,0-1.1,38.07c-3.57-9.7-7.05-20.5-10.14-32.32a352.49,352.49,0,0,1-7.37-35.5,21,21,0,0,0,4.27-4.76,22.23,22.23,0,0,0,3.48-10.51A26,26,0,0,1,696,327.19a24.69,24.69,0,0,1-12.59,3.38,49.22,49.22,0,0,0,9.36-22.15,71.79,71.79,0,0,1-9.81,17.25c-4.37,5.66-7.31,7.62-8.34,8.27a27,27,0,0,1-12.33,4,36.06,36.06,0,0,0,5.55-19.3,35.1,35.1,0,0,0-2.19-11.9,47.06,47.06,0,0,0,2.52-5,48.23,48.23,0,0,0,2.45-7.27,74.18,74.18,0,0,1-11.82,14.35,71.83,71.83,0,0,1-11.63,8.92,31.07,31.07,0,0,0,.07-11.7,30.68,30.68,0,0,0-5-11.9c1.65,4.43,3.09,10.61,1.36,17.19a75.76,75.76,0,0,1-3.55,8.39c-4.49,9.9-5.93,11.75-6.72,16.13a29.12,29.12,0,0,0-.06,9.52,35.59,35.59,0,0,1-16.54-8.92c-9.74-9.36-11-21.35-11.24-24.46,0,9.79-2.66,15.7-5.16,19.3-2.39,3.43-4.57,4.72-6.4,8.6-2.65,5.62-2.13,11.49-1.29,15.53a32.06,32.06,0,0,1-20.15-8.92,33.84,33.84,0,0,1-9.88-22.41,38.43,38.43,0,0,0-.52,15.86,37.65,37.65,0,0,0,2.39,8.07,126.31,126.31,0,0,1-24.29-39,46.87,46.87,0,0,0-11,24.86,44.89,44.89,0,0,0,.45,13.29,46.16,46.16,0,0,1-21-15.67A46.66,46.66,0,0,1,501,315.56q.34,4.56.71,9.12a31.06,31.06,0,0,1-10.34-8.13,32,32,0,0,1-5.94-11.1,65.16,65.16,0,0,0-.45,20.09c.3,2.24.7,4.33,1.16,6.28A54.18,54.18,0,0,1,451.69,308a24.67,24.67,0,0,0,5.62,13c-.35.83-.9,2.22-1.48,4-3.4,10.18-2.58,17.1-3.49,28.82a120.22,120.22,0,0,1-2.07,15.74A90.16,90.16,0,0,1,442,392.8a86.59,86.59,0,0,1-5.44-18.56c-2.35-13.52-.56-22.76.06-33.46a149.46,149.46,0,0,0-3.19-40,49.62,49.62,0,0,1-5.62-21.42,51.88,51.88,0,0,1,6-25.19,59.89,59.89,0,0,1,15.89-20q.58,8.43,1.16,16.86a42.2,42.2,0,0,1,4.85-18.84A44,44,0,0,1,486.9,210c0-1.7-.14-10.7,5.61-14.68,1.24-.86,5.41-3.31,17.64,1.19,7,2.56,18.12,8,29.47,20.11a87.47,87.47,0,0,0-13-14.75,84,84,0,0,0-10.85-8.33,70.44,70.44,0,0,1,24.61-17.26,68.87,68.87,0,0,1,22.67-5.15,51.61,51.61,0,0,0-9.69,8.92,49.7,49.7,0,0,0-3.68,5,52.38,52.38,0,0,1,28.09-5.75,53.52,53.52,0,0,1,24.61,8.53,55.81,55.81,0,0,1,17.25,17.85,34.4,34.4,0,0,0-5.43-13.49,33.52,33.52,0,0,0-8.14-8.33,72.81,72.81,0,0,1,26.55,9.12,74.67,74.67,0,0,1,22.67,20.43,36.47,36.47,0,0,0-6.2-13.09c3.06-.26,19.85-1.61,31.39,3.57a24.17,24.17,0,0,1,8.37,5.72,24.51,24.51,0,0,1,5.39,9.35,34.41,34.41,0,0,0-10.08-5.75,34,34,0,0,0-12.79-2,74,74,0,0,1,25,15.67c4.39,4.18,13.87,13.43,18.6,28.75a62,62,0,0,1,2.52,12.89c1.78,1.54,12.27,10.93,12.6,26.18A35.47,35.47,0,0,1,724.85,313.71Z" fill="#020000"/></g></g></g></svg>