<svg xmlns="http://www.w3.org/2000/svg" viewBox="0 0 1080 1920"><g style="isolation:isolate"><g id="hair"><g id="_7" data-name="7"><path d="M444.49,434c0-17-.21-30.38-.4-39.06-.33-15.37-.68-21.08,3.19-27.72,5.16-8.83,11.65-8.81,16.88-17.19,4.36-7,5.57-16.11,3.15-27.72a22.9,22.9,0,0,0,13.77-10.68,22.22,22.22,0,0,0,2.23-15.23,60.6,60.6,0,0,0,30.56-16.79,65.19,65.19,0,0,0,41.71,6.9A62.63,62.63,0,0,0,568,283a40.52,40.52,0,0,0,36.2,17.45,19.43,19.43,0,0,1-5.72-8.53c-.66-2.06-1.24-3.84-.57-5.79,1.21-3.58,5.66-5,9.31-6.12a28.49,28.49,0,0,1,8.53-1.3,36.46,36.46,0,0,0,30.29-2.87,29.17,29.17,0,0,0,11.68,9.64c10.42,4.68,20.18,1.45,22.43.65a66.9,66.9,0,0,0,21.25,36.58,52,52,0,0,0,8.26,40.61,29.1,29.1,0,0,0,6.95,32.15c-1.21,5.29-2.49,11.73-3.54,19.14-.52,3.64-.87,6.15-1.05,9.34a77.49,77.49,0,0,0,1.44,19.82A64,64,0,0,0,726,424.1a76.33,76.33,0,0,0,4.66-19.59c.43-3.45.59-6.36.66-8.46a34.28,34.28,0,0,0,10.69-29,51.64,51.64,0,0,0,8.39-20.7,50.66,50.66,0,0,0,.13-15.75,42.75,42.75,0,0,0,6.69-7.2c2.81-3.83,5.6-7.62,5.77-11.94.35-8.8-10.35-15.09-11.28-15.62,1.73-3.86,6.65-16.23,2.1-30.07-3.39-10.32-10.48-16.7-13.9-19.79a55.66,55.66,0,0,0-13-8.72,21.47,21.47,0,0,0-3.8-22.39,21.87,21.87,0,0,0-21.64-6.64c-.53-2.36-5.05-21.09-23.42-29.68a43.35,43.35,0,0,0-29.31-2.34,20.27,20.27,0,0,0-35.61-8.4c-5.26-4.39-19.8-15.36-39.16-15.42-4.85,0-12.61,0-20.85,4.68a37.18,37.18,0,0,0-12.59,11.72,45.53,45.53,0,0,0-28.14-10.55A44.76,44.76,0,0,0,490.13,164,21.59,21.59,0,0,1,501.35,170a20,20,0,0,1,3.34,4.69c-2.48-.52-19.08-3.65-33.45,7.42a40.67,40.67,0,0,0-14.56,23c-1.82.12-19.72,1.57-29.51,17.18-7.68,12.26-5.12,24.87-4.52,27.53-10.75,1.85-19.61,9-23,18.75-3.82,10.9.82,20.41,1.77,22.26a12.13,12.13,0,0,1-6.1-1.37,12,12,0,0,1-4.33-3.9c-.22,1-2.56,12.84,5.9,21.48a23.85,23.85,0,0,0,15.35,6.83,34.46,34.46,0,0,0,0,23,33.23,33.23,0,0,0,7.67,11.91,19.44,19.44,0,0,0,3.35,24.21c-3.14,5.06-3.22,11.19-.2,15.63a13.94,13.94,0,0,0,8.26,5.46A64.53,64.53,0,0,0,444.49,434Z" fill="#42210b"/><path d="M718.94,218.43a10.33,10.33,0,0,0-.74-.74,33.11,33.11,0,0,1,5.67,12.91A18.32,18.32,0,0,0,718.94,218.43Zm40.53,92a16,16,0,0,0-13.76-12.88,39.15,39.15,0,0,0-10.23-50,43.12,43.12,0,0,0-12.78-7.26,43.69,43.69,0,0,0-9.5-2.31c-.66-.09-1.25-.15-1.73-.19l1.89-.22A42.72,42.72,0,0,0,716,226.78a43.32,43.32,0,0,0-.26-11.06,20.58,20.58,0,0,0-13.07-3,27.15,27.15,0,0,1-.2,5.28,27.72,27.72,0,0,1-2.75,8.78A46.58,46.58,0,0,0,695.73,205c-1.68-3.73-7-15.17-20.26-21.67-14.17-7-27.64-3.49-31.23-2.42l-8.39,5.62a29.77,29.77,0,0,0-.51-13.75,29.22,29.22,0,0,0-3.37-7.67c-7.4-1.83-16.24,2.12-20.25,10.41A48,48,0,0,0,571,158.09a48.8,48.8,0,0,0-28,11.72q2.54,4.19,5.05,8.39a46.62,46.62,0,0,0-43.17-14.33,31.82,31.82,0,0,1,17.51,7.54A32.41,32.41,0,0,1,531,183.58a34.44,34.44,0,0,0-4.86-2.85,32.32,32.32,0,0,1,5.74,4.76c-1.61-.89-26.8-14.44-50.11-1.3a48,48,0,0,0-19.94,22.39A20.4,20.4,0,0,1,474.39,211c7.24,5.87,7.35,14.66,7.35,15.88a29.85,29.85,0,0,0-27.29-16.41c-15.17.53-23.15,13.16-23.87,14.32-8.41,13.83-1.53,28.2-1,29.16a25.34,25.34,0,0,0-25.71,13.8,24.84,24.84,0,0,0,2.88,25.78,25.72,25.72,0,0,0,10.5-2.09c10.69-4.66,14.29-15.37,15-17.44-1.47,10.43-8.07,19.17-17.32,22.65a25,25,0,0,1-6.74,1.52,15.94,15.94,0,0,0,6.54,6c7.88,3.86,15.41-.88,15.88-1.19-7.15,13-6.35,26.53.39,32.52a16.26,16.26,0,0,0,12.4,3.77c8.6-1,12.91-8.67,13.37-9.52a29.11,29.11,0,0,1-9.29-4,29.63,29.63,0,0,1-7-6.35A30.28,30.28,0,0,0,461,316.71,31,31,0,0,0,473.54,304,21.28,21.28,0,0,1,461,297.87a22.85,22.85,0,0,1-6.21-16.06,45.64,45.64,0,0,0,21.9,5.35c16.64-.24,27.89-9.86,31.19-12.93a31.2,31.2,0,0,1-3.93-8.75c-3.08-11.29,1.27-20.87,2.76-23.82a33.66,33.66,0,0,0-1.16,10.91s0-.07,0-.11a55.72,55.72,0,0,1,7.57-23.8c-4,16.82-.68,32.92,8.91,39.66,7.22,5.09,18.63,5.3,21.5,5.36a50.93,50.93,0,0,0,12.79-1.39,27.61,27.61,0,0,1,4.65-15.47,27,27,0,0,1,17.25-11.1,32.19,32.19,0,0,0-4.3,4.23,32.83,32.83,0,0,1,5.58-4.19c-1.42,1.09-12.11,9.58-11.61,22.65a25.6,25.6,0,0,0,3.93,12.3c7.08,11.3,20.39,13.19,22.63,13.48l0,0v0a24.74,24.74,0,0,1-3.73-10.21A25.28,25.28,0,0,1,592.84,270a13.29,13.29,0,0,0-6.59,5.16,13.83,13.83,0,0,0-2.19,8.72c-.22-1-2.82-14,4.78-20.88,6.61-6,16.76-3.59,21.83-2.38,10.4,2.47,10.81,7.15,19,8.06s17.66-2.7,23.64-10.18c1.56-2,7.46-9.89,5.94-20.23-1.59-10.74-10.55-19.73-22.48-22.34,2-.23,16.88-1.68,25.71,8.86a24.25,24.25,0,0,1,4.52,8.33,50.56,50.56,0,0,0-1.3-30,35,35,0,0,1,11.25,18.51,34.23,34.23,0,0,1,.38,13A25.36,25.36,0,0,1,689,239.77a25.81,25.81,0,0,1,6.33,7.4,27.73,27.73,0,0,0-13.31-5A27.42,27.42,0,0,0,669.06,244a35.56,35.56,0,0,1-4,13.48,32.88,32.88,0,0,1-4.43,6.37,43.26,43.26,0,0,0,3.24-3.05,33.72,33.72,0,0,1-14.37,13.28l.12.11a51.9,51.9,0,0,0,15.7,3,57.89,57.89,0,0,0,17.57-2.25c9.09-2.74,12.1-6.33,16.79-4.89,3.9,1.2,6.21,5,7.49,7.8a13.79,13.79,0,0,0-7.87.8c-.71.29-5.06,2.1-6.73,5.95-2.28,5.27,1.76,11.48,6.34,18.51a48.42,48.42,0,0,0,12.27,13.61,44.94,44.94,0,0,0,18,7.94,20.15,20.15,0,0,1-5.94-8.73,20.64,20.64,0,0,1-.79-10.44,39.61,39.61,0,0,0,10.34,11.1c3.3,2.38,6.39,4.6,10.59,4.89a8.53,8.53,0,0,0,1.13,0c-.25-.86-.5-1.63-.73-2.31l1.62,2.27c7.18-.59,12.37-6.81,13.36-8a31,31,0,0,1-6.09,11.84,26,26,0,0,1-2,2.15A15.93,15.93,0,0,0,759.47,310.39ZM484.46,240a15.33,15.33,0,0,1-7,7.4c-.17-1.41-.34-2.82-.52-4.23A29.91,29.91,0,0,0,464.05,242a30.63,30.63,0,0,0-16.15,7.41c-.38-11.42,8.12-20,16.66-19.83,6.25.13,12.27,4.95,14.86,12a25.6,25.6,0,0,0,2.07-3.31,26,26,0,0,0,2.84-11A16.26,16.26,0,0,1,484.46,240Zm88.35-40.59c-14.69-3.82-16.64-11.27-25.83-13-16.31-3-31.11,16.66-31.52,16.13s15.52-21.76,32-19c7.54,1.24,9.26,6.49,19.64,7.66,7.33.83,13.33-1,18.59-2.64a65.86,65.86,0,0,0,18.35-9c-.48,2.2-3.7,16.11-14.72,20.36C583.63,202.18,578.24,200.85,572.81,199.44Zm64.67,23.12c2.43,8.76-.73,17.92-7.57,22.56-8.28,5.64-17.68,1.7-18.4,1.39a22,22,0,0,0-6.78-10.31,21.12,21.12,0,0,0-9.7-4.57,44.11,44.11,0,0,1,14.92-.39,44.7,44.7,0,0,1,18.41,7.14A11.56,11.56,0,0,0,634,235.6C639,231,637.64,223.35,637.48,222.56ZM745.4,298.47l-9,.39a23.36,23.36,0,0,0-4.65-12.69c-6.31-8.2-16-8.68-17.45-8.72,8.65-4.42,18.75-3.07,25.07,3.17C746.29,287.49,745.53,297.15,745.4,298.47Z" fill="#fff" opacity="0.5" style="mix-blend-mode:overlay"/><path d="M415.09,268.19c7.94-9.68,20.88-7.51,21.44-7.4a39.66,39.66,0,0,0-18.34,10.71,40.33,40.33,0,0,0-8,12A23.1,23.1,0,0,1,415.09,268.19Zm24-37.15A30.39,30.39,0,0,1,467,214.91a26.33,26.33,0,0,0-32,11.37,27.64,27.64,0,0,0,3.36,31.47C437.64,256.1,432.59,243.6,439.12,231Zm10.46,33.85c.4,1.2,4.28,12.32,15.63,16a24.34,24.34,0,0,0,25.45-7.27,45.19,45.19,0,0,1-25.84.93,28.32,28.32,0,0,0,8.53-3.57,29,29,0,0,0,7.62-7,28,28,0,0,1-31.39.93Zm21.83-61.42a50.77,50.77,0,0,1,20.93-11.7,49.79,49.79,0,0,1,24.8-.39c-1.45-1-12.09-8.46-25.77-4.76C477.89,190.26,472.2,201.8,471.41,203.47Zm66.27-7.33a30.39,30.39,0,0,1,12.79,1.58,15.33,15.33,0,0,0-8.72-.2,16,16,0,0,0-8.72,6.35,43.74,43.74,0,0,1,19-1.19c5.55.93,8.29,2.62,15.5,4a71.12,71.12,0,0,0,14.53,1.19,120,120,0,0,0-18.94-12.21c-9.66-5-14.62-7.52-20.78-7-10.81.87-18.16,10.13-20.93,14.08A31.22,31.22,0,0,1,537.68,196.14Zm-1.29,58.7c4.47-1,6.17-5.41,11.88-11.9a69.15,69.15,0,0,1,15.5-13.09c-9.5,2.51-15,6.79-18.21,10.31-4.64,5-5.65,9.46-10.08,11-5.16,1.77-11-1.77-15.11-5C528.07,254.56,533.15,255.56,536.39,254.84Zm19.5-90.7a75.39,75.39,0,0,1,49.48,11.37A40.89,40.89,0,0,0,582.89,161,40.16,40.16,0,0,0,555.89,164.14Zm42.63,46.8A31.74,31.74,0,0,1,616,200.5a31.29,31.29,0,0,1,21.58,3.44c-6.54-7.43-16.45-10.29-25.06-7.28C602.67,200.1,599,209.57,598.52,210.94Zm43.93-21.41a47.14,47.14,0,0,1,28.41,3.7,48.2,48.2,0,0,1,18.35,15.33c-.57-2-4.25-14.21-16.54-20.36C657.8,180.76,643.62,188.83,642.45,189.53Zm-6.14,62.6a21.44,21.44,0,0,0,10.14-8.86,16.48,16.48,0,0,1-2.26,8.59A15.52,15.52,0,0,1,641,255.7a14.59,14.59,0,0,0,11.24-12.76,14.74,14.74,0,0,0-10.79-15.4c.39,1.4,2.22,8.46-1.68,15.27A19.59,19.59,0,0,1,621,252.26,21.06,21.06,0,0,0,636.31,252.13Zm35.59.2a47.89,47.89,0,0,1,23.64,3.7,17.6,17.6,0,0,0-8.66,1.06,18,18,0,0,0-6.71,4.62,39.3,39.3,0,0,1,21.05.14,38.54,38.54,0,0,1,11.11,5.28,30.79,30.79,0,0,0-12.92-14.28C686.56,245.76,673.51,251.57,671.9,252.33Z" fill="#fff" opacity="0.6" style="mix-blend-mode:overlay"/><path d="M690,281.32c-.56.3-1.33.68-2.3,1.1Zm69.91,31.56c-.17,4.38-2.91,8.23-5.68,12.13a42.65,42.65,0,0,1-6.59,7.3,52.94,52.94,0,0,1-8.4,37,35.4,35.4,0,0,1-10.53,29.42c-.06,2.13-.22,5.09-.64,8.59a79.66,79.66,0,0,1-4.59,19.9,65.56,65.56,0,0,1-12.27,20,81.23,81.23,0,0,1-1.42-20.13c.18-3.24.53-5.79,1-9.49,1-7.52,2.29-14.07,3.49-19.43a30.09,30.09,0,0,1-8-13.89,30.88,30.88,0,0,1,1.16-18.77,53.87,53.87,0,0,1-8.14-19.3,54.47,54.47,0,0,1,0-21.95,67.83,67.83,0,0,1-11.62-13.88,69.48,69.48,0,0,1-9.3-23.27c-2.21.81-11.82,4.1-22.09-.66a29,29,0,0,1-11.5-9.79,35,35,0,0,1-29.84,2.91,27.63,27.63,0,0,0-8.4,1.32c-3.59,1.16-8,2.58-9.17,6.22-.66,2-.08,3.79.57,5.88a19.57,19.57,0,0,0,5.63,8.66,39.26,39.26,0,0,1-18.08-3,40.61,40.61,0,0,1-17.57-14.68,60.48,60.48,0,0,1-12.27,3.57,62.54,62.54,0,0,1-41.08-7A60.43,60.43,0,0,1,502,290.54a58.88,58.88,0,0,1-17.57,7,23.33,23.33,0,0,1-2.2,15.47,22.52,22.52,0,0,1-13.56,10.84c2.39,11.8,1.19,21.09-3.1,28.16-5.16,8.51-11.55,8.49-16.62,17.46-3.82,6.74-3.48,12.53-3.15,28.16.19,8.81.41,22.36.39,39.66a67,67,0,0,1-13-40.46,13.62,13.62,0,0,1-8.14-5.55c-3-4.51-2.9-10.73.19-15.87a20.25,20.25,0,0,1-5.81-11.3A20.58,20.58,0,0,1,422,350.82a33.78,33.78,0,0,1-7.56-12.09,36.09,36.09,0,0,1,0-23.41,23.08,23.08,0,0,1-15.11-6.94c-8.33-8.77-6-20.79-5.81-21.81a11.78,11.78,0,0,0,4.26,4,11.51,11.51,0,0,0,6,1.38c-.94-1.88-5.51-11.53-1.75-22.6a29.11,29.11,0,0,1,22.67-19c-.59-2.71-3.11-15.52,4.46-28,9.64-15.85,27.27-17.33,29.06-17.45a41.58,41.58,0,0,1,14.34-23.4c14.15-11.25,30.5-8.05,32.94-7.54a20.38,20.38,0,0,0-3.29-4.76,21.06,21.06,0,0,0-11-6.14,42.83,42.83,0,0,1,21.89-5.75A44.09,44.09,0,0,1,540.78,168a37.14,37.14,0,0,1,12.4-11.9c8.12-4.71,15.75-4.79,20.54-4.76,19.07.06,33.38,11.2,38.56,15.66a19.71,19.71,0,0,1,20.15-7.14,20.21,20.21,0,0,1,14.92,15.67,41.61,41.61,0,0,1,28.88,2.38c18.08,8.72,22.54,27.75,23,30.15a21.11,21.11,0,0,1,21.32,6.74,22.36,22.36,0,0,1,3.75,22.74,54.77,54.77,0,0,1,12.78,8.86c3.37,3.13,10.36,9.61,13.7,20.09,4.48,14.06-.37,26.62-2.07,30.54C749.68,297.55,760.21,303.94,759.87,312.88Zm-3.42-1.12a16,16,0,0,0-13.57-13.09,42.07,42.07,0,0,0,3.88-28.36,41.2,41.2,0,0,0-14-22.41A42.74,42.74,0,0,0,709.17,238l11.62-1.39c.14-.51,2.76-10.61-4.26-18.24-6.38-6.95-15.23-5.87-16.08-5.75a28.64,28.64,0,0,1-2.91,14.28,48.51,48.51,0,0,0-3.87-22.22c-1.66-3.79-6.93-15.4-20-22-14.31-7.25-27.88-3.36-31-2.38-.35-7-4.22-13.09-9.88-15.47-7.62-3.19-17.59.73-21.89,9.92a47.77,47.77,0,0,0-14.34-12.1,46.62,46.62,0,0,0-25.78-5.55A47.28,47.28,0,0,0,543.3,169q2.49,4.26,5,8.52a45.26,45.26,0,0,0-47-13.48,15.34,15.34,0,0,1,6.46,4.49,15.93,15.93,0,0,1,3.36,6.61,29.39,29.39,0,0,1,8.78,1.59,30.34,30.34,0,0,1,12.4,8.2c-1.57-.91-26.37-14.67-49.34-1.32-12.1,7-17.62,18-19.64,22.74a19.68,19.68,0,0,1,12.4,4.49c7.14,6,7.25,14.9,7.24,16.13-5.28-10.52-15.77-17.05-26.87-16.66-14.94.54-22.81,13.37-23.51,14.55-8.29,14-1.51,28.63-1,29.61a24.8,24.8,0,0,0-25.32,14A25.87,25.87,0,0,0,409,294.63a24.38,24.38,0,0,0,10.33-2.11c10.54-4.74,14.08-15.61,14.73-17.72-1.44,10.6-7.94,19.47-17.05,23a26.44,26.44,0,0,1-18.86-.27,23.46,23.46,0,0,0,8.52,10.31,23,23,0,0,0,16,3.44c-1.09,1.38-7.59,9.92-5.68,21.42a27,27,0,0,0,7.49,14.48,8.53,8.53,0,0,1,2.07-1.65,8.82,8.82,0,0,1,4.58-1.19c-.66.47-7.82,5.78-7.81,15.27,0,10.1,8.16,15.48,8.65,15.79-.26.24-5.22,4.89-3.94,10.58a10.35,10.35,0,0,0,3.62,5.55,13.39,13.39,0,0,0,9.75,3,23.17,23.17,0,0,1-2.84,1.06,21.33,21.33,0,0,1-3,.66,60,60,0,0,0,2.33,14.48,59.31,59.31,0,0,0,5.23,12.49,249.61,249.61,0,0,0,.39-34.35c-.56-9.4-1.47-14.77,1.55-21.38,4.68-10.28,11.24-15.07,11.24-15.07a22.52,22.52,0,0,0,5.62-5.16,21.65,21.65,0,0,0,3.68-8.13,23.2,23.2,0,0,0-1.36-13.88l-12-2.18c10.25.53,17-2.55,20.15-4.36a17.41,17.41,0,0,0,5.43-4.37c4.66-6,3.34-13.83,2.9-16.06a20.69,20.69,0,0,1-11.43-1.39,21.83,21.83,0,0,1-10.85-10.71c2.09,2.3,7.7,7.85,16.08,8.73,5.93.63,10.44-1.38,16.08-4A64,64,0,0,0,510,277.05a32.31,32.31,0,0,1-5.23-10.91c-3-11.47,1.25-21.2,2.71-24.19-.77,2.9-3.06,12.8,1.94,22.8,4.32,8.64,11.56,12.35,15.7,14.48,17.5,9,35.81,3.1,41.07,1.19a27.86,27.86,0,0,1-1.55-12.89c1.64-13.33,12.86-20.39,14.54-21.42-1.4,1.1-11.92,9.73-11.44,23a26.91,26.91,0,0,0,3.88,12.49c7,11.47,20.08,13.4,22.28,13.68-.24-.59-2.61-6.58.78-12.29a13.2,13.2,0,0,1,12.4-6.35,24.19,24.19,0,0,1-4.26-2.77,25,25,0,0,1-6.2-7.54,48.93,48.93,0,0,0,32,10.71c19.34-.73,31.31-13.09,33.71-15.67a33.75,33.75,0,0,1-14.14,13.49,35.5,35.5,0,0,0,39.53,7.55l-5.81,2.76c1.07,5.52,5.12,22.51,20.34,34.9a55.47,55.47,0,0,0,20.73,10.52,21.64,21.64,0,0,1-7.36,1.38A22.6,22.6,0,0,1,703,328.22a54.77,54.77,0,0,0,8.91,37.68,28.7,28.7,0,0,0,5.62,31.73,111.82,111.82,0,0,0-4.65,41.64,70.89,70.89,0,0,0,7.36-14.08,74.25,74.25,0,0,0,4.85-30.34A32.45,32.45,0,0,0,734.74,375a32.87,32.87,0,0,0-6.39-22.81l8.72,10.12a50.45,50.45,0,0,0,5.43-14.08A52.52,52.52,0,0,0,741,320.68l6,8.73A16.31,16.31,0,0,0,756.45,311.76Zm-68.79-29.34c1-.42,1.74-.8,2.3-1.1Z" fill="#0b0600"/></g></g></g></svg>