<svg xmlns="http://www.w3.org/2000/svg" viewBox="0 0 1080 1920"><g style="isolation:isolate"><g id="hair"><g id="_8" data-name="8"><path d="M439,395.15c.58-8.17,1.48-20.29,2.79-35.6.84-9.83,1.47-16.39,5.59-23.73a42.74,42.74,0,0,1,11.13-12.76c-.33-4.61-.65-11.16-.52-19,.17-10.21.26-15.32,1.58-21.15,1.4-6.2,4.68-20.71,16.46-28,7.43-4.63,15.07-4.4,29.72-4a123,123,0,0,1,21.37,2.52,31.33,31.33,0,0,0,25.48,2.71,49.16,49.16,0,0,0,22.16,7.33,50.13,50.13,0,0,0,22.7-3.63,54.21,54.21,0,0,0,13.66-7.8,20.09,20.09,0,0,0,7.77,4.76,21.28,21.28,0,0,0,9.82.66A30.78,30.78,0,0,0,644,250.73a38.91,38.91,0,0,1,26.33,1.6,38.27,38.27,0,0,1,17,15.33c5.16,8.49,5.7,17.3,6.77,34.91.4,6.65.44,12.18.4,16A113.2,113.2,0,0,1,708.66,347c8.42,25.37,5.19,46.81,6.48,46.85s3.68-19.67,4.53-45.79c.67-20.45,1-30.68-.26-41.78-1.8-15.75-4.85-42.55-23.63-68a116,116,0,0,0-32.64-29.74,59.72,59.72,0,0,0-14.2-25.12,61.08,61.08,0,0,0-33.45-17.72c.9-.64,8.91-6.58,8.76-16.26a18.56,18.56,0,0,0-3.08-9.79,22,22,0,0,0-1.43-15.2c-3.31-6.59-9.16-9.21-12.21-10.58-10.16-4.55-19.93-1.92-23.13-.9a20.55,20.55,0,0,0-12-3.78,19.35,19.35,0,0,0-5.81,1,11.44,11.44,0,0,1,4.61,4.6c.52,1,.85,1.64.6,2.26-.58,1.42-3.38.73-5.64,2.63a6.2,6.2,0,0,0-1.69,2.3,29.49,29.49,0,0,0-12.65,1c-2,.61-12.43,3.82-16.45,13.08-3.77,8.68-.74,19.92,7.69,27.77-5,.26-23.18,1.81-38.08,16.39a57.57,57.57,0,0,0-15.13,25.92c-22.36,14.9-33.82,31-39.82,41.51-22.25,39-17.6,85.35-13.12,130C437.62,385.15,438.43,391.22,439,395.15Z" fill="#42210b"/><path d="M495,217.39c1.32,4.85,2.61,8.59,3.58,11.21.34.91,1.11,3,1.79,2.87s.54-2.3,1.89-5.06c.29-.58,1.9-3.87,3.08-3.7,1.84.27.14,8.76,3.69,16.5a25.39,25.39,0,0,0,9.83,10.67,26.38,26.38,0,0,1-10.73-8.69,26,26,0,0,1-4.57-11.4,23.58,23.58,0,0,0-1.3,3.17c-.6,1.86-.54,2.47-.89,2.58-1.06.32-3.87-4.36-5.28-9.22A28.18,28.18,0,0,1,495,217.39Zm42.5-5.65A36.08,36.08,0,0,0,557,250a62.39,62.39,0,0,1-19.51-38.27Zm25.88,13.48A24.5,24.5,0,0,0,568,236.53a24.78,24.78,0,0,0,10,7.93,78.08,78.08,0,0,1-14.53-19.24Zm58.12-36.88A78,78,0,0,1,614,229.79a37.4,37.4,0,0,0,7.56-41.45Zm31.85,53.35a19.87,19.87,0,0,0,3.32-9.92,21,21,0,0,0,2.39-4.1,22.63,22.63,0,0,0,1.39-13.09,15.38,15.38,0,0,1-3.12,12.76,14.92,14.92,0,0,0-.2-3.83,15.62,15.62,0,0,0-2.52-6.15,32.08,32.08,0,0,1,.53,14.28,32.56,32.56,0,0,1-8.29,16.13A20.09,20.09,0,0,0,653.38,241.69ZM506.8,178.54a37.66,37.66,0,0,0-7,20.51,37.28,37.28,0,0,0,4,17.94A24.76,24.76,0,0,1,506,204a32.52,32.52,0,0,0,32.44,32,46.29,46.29,0,0,1,.1-28.16A50.39,50.39,0,0,0,552.85,234,48.64,48.64,0,0,0,567,243.27a26,26,0,0,1-3.39-12.69,25.44,25.44,0,0,1,1-6.94c0,8,6.28,14.19,13.14,14.28,5.46.07,10.71-3.75,12.74-9.52.52,2.28,2.15,8.11,6.37,9.52,7.23,2.4,16.08-10.23,17.12-11.7,9.6-13.71,7-30.67,5.37-37.88a42.18,42.18,0,0,1,11.35,22,40.49,40.49,0,0,1,0,13.49,31.67,31.67,0,0,0,9.55-15.47,31.24,31.24,0,0,0,0-15.87A30,30,0,0,1,649,205.19a29.21,29.21,0,0,1,1.6,7.94,46.77,46.77,0,0,0-.42-28.33,82.33,82.33,0,0,0-20.69-13.12c-4.33-1.86-12.14-4.65-17.38-6.43-2-.68-3.68-1.23-4.83-1.6,1.51-1.17,4-3,7.09-5.26,6.93-5,9.39-6.22,9.88-8.92.22-1.19.23-3.6-2.86-7.12a31.26,31.26,0,0,1-14.79,9.5,25.17,25.17,0,0,0,8.76-9.13c.76-1.37,6.2-11.62,1.2-21-4.22-7.91-14.27-12.27-24.65-10.23a9.73,9.73,0,0,1,1.16,7.46,9.06,9.06,0,0,1-2,3.57,17.89,17.89,0,0,0-8-10.34,18.32,18.32,0,0,0-15-1.29,23.32,23.32,0,0,1,10,29.08A26.82,26.82,0,0,0,571,129.24a23.2,23.2,0,0,0-13.14-6.35c-1.54-.16-12-1.1-16.28,5.36-4.57,6.84,1.07,16.93,4.74,21.42,6.73,8.24,16.55,9.51,19.05,9.76a28.89,28.89,0,0,0-7.51,11.06A28.25,28.25,0,0,0,556,180a8.79,8.79,0,0,1-2.19-4.76,8.64,8.64,0,0,1,.6-4.36,79.56,79.56,0,0,0-11.15,20,77.82,77.82,0,0,0-2.59,8.13,34.75,34.75,0,0,1,4.18-31.93c-1.13-.12-16.79-1.42-26.67,10.91-8.07,10.06-6.29,21.72-6,23.59a50.47,50.47,0,0,1-5.45-23.08Z" fill="#fff" opacity="0.5" style="mix-blend-mode:overlay"/><path d="M520.87,216.3a27.29,27.29,0,0,0,10,13.82c-.65-.08-8.72-1.2-12.47-8.6A16.05,16.05,0,0,1,520,204.67,26.33,26.33,0,0,0,520.87,216.3ZM555,183.71a34.12,34.12,0,0,0-5.71,20.36c.72,12.56,8.88,21.49,9.29,21.29.25-.13-2-4-3.32-10.71a46.29,46.29,0,0,1-.79-7.67,54.45,54.45,0,0,0,3.85,7.27,55.86,55.86,0,0,0,4.64,6.35,56.88,56.88,0,0,1-2-32.53,29.68,29.68,0,0,0-6,12.17,36.82,36.82,0,0,1-.93-8.33A37.56,37.56,0,0,1,555,183.71Zm23-5.55a147.84,147.84,0,0,1,1.85,21.55,149.71,149.71,0,0,1-.92,18.64A47,47,0,0,0,583,205.66a45.14,45.14,0,0,0,.66-7.27,20.53,20.53,0,0,1,1.73,5.81,21.1,21.1,0,0,1,0,5.82,17.73,17.73,0,0,0,3.58-4,18.23,18.23,0,0,0,2.92-8.46,51.55,51.55,0,0,1-.13,17.45,46.58,46.58,0,0,0,.4-40.32,31.66,31.66,0,0,1,1.19,11.77,31,31,0,0,1-1.19,6.21,20.93,20.93,0,0,0-6-11.11,18.67,18.67,0,0,1,.27,6.62,18.89,18.89,0,0,1-1.86,5.95,30.61,30.61,0,0,0-3.32-11A29.91,29.91,0,0,0,577.94,178.16Zm32.78,7.8a51.79,51.79,0,0,1-4.52,34.77A26,26,0,0,0,610.72,186Zm13.53-4.37a30.07,30.07,0,0,1,7.5,6.68,29.76,29.76,0,0,1,5.77,12.1c.2-.54,2.44-7.21-1.92-13.09A14.78,14.78,0,0,0,624.25,181.59ZM556.4,139.52a15.9,15.9,0,0,1,11.09,9.09,12.92,12.92,0,0,0-.34-3.87A13.1,13.1,0,0,0,566,141.6a21.09,21.09,0,0,1,7.66,6.68,19.3,19.3,0,0,0-17.75-14.12,32.38,32.38,0,0,1,3.65,2.65,32,32,0,0,1,2.56,2.38,7.47,7.47,0,0,0-3.55-.33A7.35,7.35,0,0,0,556.4,139.52Zm51-6.86c1.7-5.46-1.61-9.93-1.94-10.36a23.27,23.27,0,0,1-1.1,8.28,23.54,23.54,0,0,1-6.37,10A11.59,11.59,0,0,0,607.35,132.66Z" fill="#fff" opacity="0.6" style="mix-blend-mode:overlay"/><path d="M439.12,399.48c-1.38.23-14.93-36.43-10.61-83.56,1.59-17.42,4.55-46,23.68-75.79a148.3,148.3,0,0,1,33.12-36.32A65.84,65.84,0,0,1,503.49,178a66.76,66.76,0,0,1,34.24-15.47c-1.62-1.33-8.57-7.34-9.16-16.93-.68-11,7.43-19.81,15.39-23.53a27.88,27.88,0,0,1,17.26-1.85,22.25,22.25,0,0,1,3.91-2.71,23,23,0,0,1,4-1.72,8,8,0,0,0-2.39-2.84,9.27,9.27,0,0,0-7.56-1.26c2-1.21,10.69-6.3,20.37-3.3a21.41,21.41,0,0,1,6.37,3.24,27.33,27.33,0,0,1,10.35-2.55c1.52-.06,15-.4,23,10.51,6.43,8.79,4.73,18.63,4.38,20.43A15.66,15.66,0,0,1,626,146c1.78,10.18-7.67,18.3-8.56,19a106.57,106.57,0,0,1,14.73,5.35c10,4.5,20.06,9,27,19.14A41.76,41.76,0,0,1,665.53,205a133.78,133.78,0,0,1,34.23,34.11c16.08,23.29,20.32,45.61,22.7,58.9.74,4.15.76,23.13.79,61.08,0,8.33-.08,21.09-5.17,36.49a102.77,102.77,0,0,1-5,12.3c1.14-7,2.51-16.57,3.58-28,.94-10,2.79-30.38,1.6-52.35-1.4-25.76-2.6-47.81-14.73-71.2-5.5-10.59-17.5-29.68-42.6-46.41a45.07,45.07,0,0,0-7-17A48.19,48.19,0,0,0,643.43,182c-11.6-9.08-24.63-13.26-33.44-15.27a25,25,0,0,0,10.55-13.29,24.2,24.2,0,0,0,.59-12.49c.1-1.81.51-12.21-7.36-20.23-6.94-7.08-17.65-9.57-27.67-6.54a24.78,24.78,0,0,0-20.8-4.27,11.31,11.31,0,0,1,6.17,3.47,10.75,10.75,0,0,1,1.89,3.08A25.48,25.48,0,0,0,561.81,125a22.2,22.2,0,0,0-17.52,3.17c-1,.68-8,5.77-8.75,14.28-.77,8.92,5.74,18.14,16.22,21.81a83.85,83.85,0,0,0-25.88,6.65c-8.6,3.77-21.37,9.37-28.66,22.7a42.59,42.59,0,0,0-4.78,14.68,140.76,140.76,0,0,0-23.79,21.81s-14.81,17.11-24,39.07C423.58,319.64,441.13,399.15,439.12,399.48Zm99.14-225a76.09,76.09,0,0,1,35.43-13.62c8.43-.93,22.38-2.46,35.57,5.82A43.46,43.46,0,0,1,621.33,178a45.67,45.67,0,0,0-17.78-16.53C584.58,151.85,558.94,157.12,538.26,174.46Zm46.84-23.27c9.87,1,15.94,10.18,16.06,10s-9.62-14.54-21.5-13.75c-10.48.71-17.74,12.9-17,13.75S572.94,150,585.1,151.19Zm-73.78,93.87a38.54,38.54,0,0,0,12.6,10.18c12.92,6.45,25.5,3.38,29.07,2.38a52.9,52.9,0,0,0,25.35,7.4c4.59.13,15.8.29,26.54-6.61a38.89,38.89,0,0,0,5.17-4,26.57,26.57,0,0,0,10.22,4c8.64,1.38,15.46-2.1,19.11-4a39.67,39.67,0,0,0,12.48-10c-1.58,1.6-15.06,15-30.93,11.5a26,26,0,0,1-8.89-3.84l8.76-9.12a60.84,60.84,0,0,1-26,15.73,53,53,0,0,1-54-13L548.34,256a54.55,54.55,0,0,1-37-11Z"/></g></g></g></svg>