<svg xmlns="http://www.w3.org/2000/svg" viewBox="0 0 1080 1920"><g style="isolation:isolate"><g id="hair"><g id="_9" data-name="9"><path d="M713.15,252.4a135.65,135.65,0,0,0-16.58-24.54c1-1.72,4.4-8.29,1.48-14.06-1.47-2.9-4.1-4.68-7.81-7.22a47,47,0,0,0-8.66-4.65,30.68,30.68,0,0,0-12.14-16.13,34.33,34.33,0,0,0-19.32-5.74,10.7,10.7,0,0,0-2-2.78c-.74-.73-2.45-2.2-7.07-3.36a35.86,35.86,0,0,0-10.67-1,23.26,23.26,0,0,0,5.6-4.06,21.75,21.75,0,0,0,5.07-7.72,21,21,0,0,0,8.44-7.22c3.8-5.8,3-11.79,2.54-15.94a33.45,33.45,0,0,0-6-15.14,22,22,0,0,0,5.59-10.79c.31-1.58,1.42-7.35-1.69-12.86-.68-1.21-1.23-1.82-6.12-6.83-2.52-2.59-4.89-5-7.07-7.23A44.81,44.81,0,0,1,639,79a49.89,49.89,0,0,1,8.66-12.77c11.08-12.48,16.62-18.73,15.41-20.59C661,42.43,642.36,46.78,628.68,58a55.57,55.57,0,0,0-12.24,14.16q-4.23-.39-8.77-.6c-5.36-.24-10.45-.25-15.2-.1-1.34-1.39-3.3-3.47-5.59-6-6.22-6.94-9.33-10.41-11.72-14.25-5.44-8.76-5.6-15.54-7.82-15.44-1.28.05-2.1,2.36-3.16,5.44a46.08,46.08,0,0,0-2.54,16.33,51.24,51.24,0,0,0,3.28,16.17c-.73,0-1.81,0-3.1,0-12.93.18-21.86.31-26.89,5.41a13.77,13.77,0,0,0-3.38,13.46c2.4,7.65,11.18,9.9,11.69,10a30.06,30.06,0,0,0-13.94,10.83,26.44,26.44,0,0,0-4.08,9.76,14.35,14.35,0,0,0-6.48,5.41,13.06,13.06,0,0,0-1.69,9.63,59.52,59.52,0,0,0-9,14A56.89,56.89,0,0,0,503,172.14a18.75,18.75,0,0,0-10.14,4.22,16.94,16.94,0,0,0-5.91,11.08,18.46,18.46,0,0,0-9.43,5.81A16.73,16.73,0,0,0,474,206.71a30.33,30.33,0,0,0-10.28,9.63,27.81,27.81,0,0,0-4.08,10.43A170.65,170.65,0,0,0,432,285.89c-5.15,21-4.82,37.87-4.51,50.14a228.21,228.21,0,0,0,9.58,59.65c.45-4.87,1.16-12.48,2-21.84,1.49-17.24,1.51-19.39,2.43-28.21,1.51-14.57,2.31-22.05,4.61-31.77a162.56,162.56,0,0,1,6.58-21.37c4.56-11.75,7.86-20.22,15.83-29,4.32-4.76,10.06-10.92,20-14.06a41.58,41.58,0,0,1,15.2-1.78,28.2,28.2,0,0,0,8.76,4.36c4.44,1.29,12.44,2.45,14.15-.44.76-1.3,0-2.95-1.37-5.9a28.42,28.42,0,0,0-5.34-7.76,85.9,85.9,0,0,0,12.73,9.39,43.41,43.41,0,0,0,6.06,3.12c3.41,1.4,9.47,3.91,11.46,2.28,3.16-2.58-4.55-15-5.43-16.43a60.41,60.41,0,0,0,10.71,11.13,73.1,73.1,0,0,0,6.92,4.8c5.91,3.82,8.88,5.72,10.34,4.9.4-.22,2-1.33.48-7.77a31.51,31.51,0,0,0,7,7.08c2.91,2.15,6.54,4.83,8.93,3.71,1.8-.86,2.38-3.67,3.05-7a26.44,26.44,0,0,0,.43-3.13,23.13,23.13,0,0,0,4,5.05c1.4,1.35,2.1,2,3,2.13,3.62.45,7.56-9.29,7.86-10,.13.42.31,1,.57,1.68,1,2.48,2.68,6.83,5,7.14,2,.27,4-2.68,7.56-8,1.64-2.46,2.88-4.62,3.75-6.23a23.26,23.26,0,0,0,3.7,6.21c1.9,2.32,4.08,5,6.27,5.07,3.48.15,7.38-6,9.55-15.1.45,1.77,1.13,4.34,2.07,7.43,1.94,6.41,2.8,7.72,3.8,7.82s2-1.21,2.74-2.24c2-2.82,4.79-6.91,8.07-12.27,0,1.34.09,3.24.27,5.55.4,4.86.93,6,1.66,6.14.34.08,1-.2,2.19-.75a19.32,19.32,0,0,0,2-1,51.81,51.81,0,0,1,10.22,4.74c6.72,4.08,12.68,9.91,18.29,19.28,18.18,30.37,22,71,22,71a228.91,228.91,0,0,1-1.27,53.05,222,222,0,0,0,11.4-53.84C729,320.37,731.31,287,713.15,252.4ZM559.43,89.1a13.51,13.51,0,0,1-6.34-5.54,11.58,11.58,0,0,1-1.27-3.37l18.06-.69L572,82.17Z" fill="#42210b"/><path d="M492.76,240.86c-.32.68-5.4.06-9.45-2.64-6.24-4.16-8-11.87-7.19-12.3s2.81,4.52,9.73,9.92C490,239.06,493,240.3,492.76,240.86Zm20.66-3.9c.91-2.72-3.92-4.79-9.94-11.7-4.48-5.14-7-9.95-9.52-9.42a7.86,7.86,0,0,0-4.44,3.67c-.91,1.94,1.67,5.12,10.79,13.29,5.94,5.33,8.09,6.9,10.36,6.34A3.82,3.82,0,0,0,513.42,237Zm-26-19.53c.58.16.87-.42,2.86-1.59s2.4-1.05,2.85-1.78c.67-1.08.5-2.75-.31-3.18-.34-.17-.68-.07-3.18,1.09s-2.84,1.4-3.06,1.79C485.8,215.08,486.43,217.15,487.4,217.43Zm-2.11-13.09c-.27.3-.46.72-.11,3.77.23,2,.37,2.37.74,2.58s1,.1,2.12-.2c1.36-.39,2-.58,2.43-1.09.64-.87-.19-1.54-.11-4.07,0-1.28.28-1.74-.1-2.08-.56-.5-1.76-.15-3,.2S485.65,203.92,485.29,204.34Zm16-6.45c.89.37,1.75-2.22,5.39-3.66,3.83-1.52,6.63-.14,7.3-1.39s-1.7-3.94-4-5.26c-1-.55-2.94-1.67-4.86-1.19C500.37,187.56,499.63,197.22,501.26,197.89Zm4.23.4a11,11,0,0,0-3.7,5.16c-.35,1.11-1.2,4.57,4.76,14.38,3.95,6.51,5.93,9.76,10.26,12.89,2.6,1.88,8.06,5.81,14.7,4.85,1.8-.26,5.12-.73,6.45-3,1.66-2.79-1.39-5.58-7.4-16.36A124.75,124.75,0,0,0,519,199a8.67,8.67,0,0,0-4.44-3.18C510.23,194.62,506,197.9,505.49,198.29Zm26,2.08c-.32,2.31.73,3.79,3.07,7.74,7.28,12.28,6.93,14.52,11.21,17.25,1.68,1.07,5.38,3.43,9.2,2.28a8.79,8.79,0,0,0,5.19-4.86c.54-1.31,1-3.49-2.12-11.5-2.26-5.76-2.9-5.63-5-10.81-2.8-7-2.42-9.22-4.76-10.31-3.17-1.48-7.44,1-9.73,2.28C536.66,193.55,532.1,196.17,531.51,200.37Zm-4-5c1.81.43,3.53-4.81,8.15-8.73a21.72,21.72,0,0,1,8.25-4.26,22.7,22.7,0,0,0-13,1c-3,1.21-7.57,4-7.2,6.34,0,.26.11.35,1.59,2.58C527.19,195.24,527.25,195.36,527.49,195.42Zm-6.24-8.33c.45.3,3.16-5.37,9.73-7.54,5.15-1.7,9.55-.22,9.63-.69s-5.64-3.33-11-1.59C523.2,179.35,520.75,186.76,521.25,187.09Zm-3.17-3.57c1.72.32,2.21-5.33,7.3-7.84,5.52-2.72,11.57.67,12.37-1,.63-1.3-2.64-4.33-6-5.65a12.3,12.3,0,0,0-6.45-.69c-.53.09-5.49,1-7.83,5.25S516.44,183.21,518.08,183.52Zm39.84,11.2c-1.39,2.21,1,4.62,4.23,11.64,4.27,9.12,3.13,11.08,7.05,16.26,1.95,2.57,6,7.86,9.73,7.14,4.4-.84,5.71-9.28,5.93-11,.48-3.69-.52-7.27-2.54-14.27-3.2-11.12-5-12.31-6.06-12.83-2.16-1-4.78-.59-10,.26C561.35,192.74,558.91,193.14,557.92,194.72Zm-1.18-3.37c1.47,1,3.47-1.29,7.67-2.13,4.71-.95,8.17.67,8.41,0s-2.28-2.2-5.08-3c-4.53-1.26-10.68-.58-11.74,2.14A2.6,2.6,0,0,0,556.74,191.35Zm-2.2-5.88c.24.29,2.54-2.12,6.62-3,5.43-1.14,9.2,1.48,10.16.13.71-1-.58-3.46-2.54-4.36-2.39-1.09-5.16.45-8,2.05C557,182.39,554.27,185.15,554.54,185.47Zm-1-4.17c1.38.39,2.18-2.47,6.42-4.16s6.95-.39,7.47-1.59c.74-1.69-4.49-5.21-7.9-6.94-2.54-1.29-3.82-1.94-5-1.52C550.46,168.53,550.83,180.54,553.55,181.3Zm37,7.47a5.81,5.81,0,0,0-3.17,2.71c-2.49,4-.27,7.84,2.25,18.71,1.65,7.09,1.49,8.82,3.53,12.63,1.34,2.5,4.05,7.54,7.12,7.33,3.24-.21,5.53-6.15,6.14-10.31.47-3.27-.3-4.09-2.89-15.14-1.78-7.57-2-9.47-4.16-11.9C599,192.38,594.55,187.6,590.57,188.77Zm-6.35-2.44c.24.13,1.25-2.87,4.31-4.17,3.53-1.5,7.23.37,7.33.07s-4-3.09-7.62-1.66C584.83,181.93,584,186.18,584.22,186.33Zm-1.34-4.17c.16.07.85-3,3.6-4.23s5.32,0,5.43-.33-2.52-2.15-4.94-1.52C583.57,177,582.69,182.08,582.88,182.16Zm-1.9-4.43c.92.08,1-1.91,3.17-3,2.46-1.2,4.78.17,5.15-.53.47-.88-2.79-3.73-6.7-4.69-1.23-.31-2.11-.51-2.82-.07C577.52,170.89,579.32,177.59,581,177.73ZM602.79,179a54.07,54.07,0,0,1,6.75,13c2.72,7.64,3,14.11,3.31,22.48a128.41,128.41,0,0,1-.21,13.68c-.72,4.06,2.45,7.3,5.36,7.34s6.1-3,5.64-7a80.85,80.85,0,0,0,1.27-19.31,66,66,0,0,0-2.46-15.8,63.53,63.53,0,0,0-10.79-21,6.23,6.23,0,0,0-7.13.2A5.32,5.32,0,0,0,602.79,179Zm-2.35-4.18c1.15-.23.62-2.34,2.4-3.8s4.38-.71,4.73-1.72c.26-.79-1-2.11-2.4-2.51-2.09-.6-4.07,1-5.15,1.85s-2.42,1.94-2.33,3.37S599.4,175,600.44,174.79Zm-5-5.72c.49.12.7-1.81,2.61-3s4.12-.67,4.3-1.39c.14-.57-1.08-1.5-2.33-1.72a4.54,4.54,0,0,0-4.3,2.15C594.64,166.76,594.93,169,595.44,169.07Zm36.67,67.3c1.54.55,3.9-2,5.92-4.17,2.37-2.54,4.56-4.9,5.82-8.72,1.15-3.52.8-6.28.1-11.8-.66-5.23-1.76-7.2-2.54-8.33-1-1.46-2.61-3.8-5.28-4.07a7.18,7.18,0,0,0-5.93,2.88c-2,2.51-1,4.72-.42,12.59.21,3,.64,10.95.85,15.17C630.82,233.8,630.89,235.94,632.11,236.37Zm-3.55-36.74c.6.38,1.7-1.64,4.45-2.23,3.36-.72,6,1.41,6.5.69s-.9-2.49-2.7-3.47c-.19-.1-3.19-1.68-5.81-.2S627.87,199.18,628.56,199.63Zm-.53-6.94c.78.63,1.94-.4,4.6-.55s4.23.76,4.45.35-1.41-1.88-3.33-2.63c-.45-.17-4.18-1.58-5.61,0A2.16,2.16,0,0,0,628,192.69Zm-.9-4.86c1,.52,2.15-1.13,4.82-1,2,.1,3.09,1.17,3.38.84.6-.66-4-4.82-4.55-5.35-1.73-1.59-2.13-1.71-2.48-1.64C626.41,181.05,625.48,187,627.13,187.83Zm23.17,51.41c2,.49,5.71-7.09,7.19-10.71,3.12-7.61,2.72-13.51,2.22-20.72-.35-5.12-1.12-7.42-3.06-8.53a5.66,5.66,0,0,0-5.4-.1c-3.1,1.93-1.7,7.58-1.06,15C651.58,230,648.2,238.73,650.3,239.24Zm-1.43-41.69c.7.12,1-.93,2.49-1.49,1.92-.72,3.39.26,3.75-.25.24-.33,0-1.29-5-5.8-3.28-3-5.41-4.92-5.92-4.56s1.65,2.55,2.91,7.19C647.84,195.26,647.91,197.38,648.87,197.55Zm18.57,10.86c-2,1.61.24,5.1.74,11.3.7,8.76-2.8,13.49-1.48,14.08,1.7.76,8.37-6.81,9.3-14a17.9,17.9,0,0,0-.31-5.95c-.51-2.39-.84-3.92-2.29-5C671.74,207.66,668.86,207.24,667.44,208.41Zm-1-2.19a6.44,6.44,0,0,1,3.28-.66c2.33,0,3.6,1.17,3.81.9s-1.36-2.56-4-3.28c-1.19-.33-3.64-.64-4.58.63-.75,1-.37,2.79.28,3C665.63,206.88,665.86,206.57,666.48,206.22Zm-1.9-5.2c.78.51,1.66-.43,3.6-.25s2.75,1.26,3.06,1c.54-.47-1.84-3.77-4.39-6.39-1-1-3-3.14-3.65-2.78s.67,1.82.9,5C664.26,199.59,663.89,200.56,664.58,201ZM684,229.36c.82.6,5.41-1.81,6.34-5.68,1-4.22-2.68-8.55-3.66-8.27-.68.19.27,2.5-.5,6.75C685.36,226.78,683.36,228.89,684,229.36ZM537,145.67a12.79,12.79,0,0,1,5.5-6.35l-4.23-.13c-5,1.55-7.87,6.09-7,10.18a9.17,9.17,0,0,0,6.7,6.48A12.15,12.15,0,0,1,537,145.67Zm4.51,2c1.55-5.49,4.82-8.37,4.44-8.66s-4.76,2.5-6.2,7.14c-1.33,4.26.3,8.49.77,8.47S540.33,151.73,541.49,147.65Zm9.1,5.62c1.48-1.37-.32-3.31.56-6.94,1-4.14,4.38-5.82,3.6-7-.62-.93-3.22-.68-5,.14-3,1.36-3.91,4.4-4.65,6.81-.86,2.74-1.66,5.33-.07,6.8C546.4,154.36,549.29,154.48,550.59,153.27Zm6.72-12.81a15.2,15.2,0,0,0-2,3.89c-1.58,3.66-2.66,6.15-1.59,7.53s3.15.09,7,1.19c4.55,1.31,4.94,4.11,7.72,4.17,3.46.08,4.19-4.26,8.57-6.84,7.58-4.49,18.12,1,18.61-.2.42-1.06-7.22-5-16-7.93C573.32,140.15,561.36,136.14,557.31,140.46Zm-21-9.6c.41,2,11.13-.63,26.23,1.59,12.29,1.81,20.82,5.84,23.09,2.81.5-.66.49-2.48.47-6.12,0-4.15-.57-5-1.13-5.55-1.3-1.2-3.4-1-4.37-1-7.66.61-15.35.92-23,1.74-7.41.8-10.18.56-15.09,2.52C541.08,127.48,536.06,129.48,536.34,130.86ZM587.57,125c-.87.56.88,2.75.74,6.84-.11,3.38-1.42,5.15-.74,5.56s3.07-1.2,4.23-3.27c.24-.43,1.85-3.43.22-6.25C590.87,125.92,588.4,124.48,587.57,125Zm6.67,5.75a13,13,0,0,1-.53,3.77c-.79,3.07-1.89,4.23-1.48,4.56s2.85-.85,4.23-2.77a6.18,6.18,0,0,0,1.27-4.47c-.46-2.94-3.46-5-4-4.66C593.35,127.4,594.17,128.45,594.24,130.76Zm5.82,4.37c-.38.08-.17.85-.85,2.48-1,2.3-2.18,2.68-2.12,3.66.14,2,5.25,4.12,6.67,2.88C605.61,142.52,601.27,134.85,600.06,135.13Zm-45.38-17.95c.92-.45,0-2.19.84-4.46,1.19-3.06,4.46-3.83,4.13-4.66s-3.54-1-5.82.49-3.63,4.61-2.43,6.75C552.12,116.59,553.83,117.59,554.68,117.18Zm21.89-1c5.95.51,10.3,2.08,10.9.89.41-.82-1.27-2.32-2.22-3.17-1.35-1.2-3.87-3.06-10.58-4.76-5.62-1.43-8.48-2.11-11.11-.8a10.31,10.31,0,0,0-3.7,3.38c-1,1.44-2.33,3.38-1.69,4.56C559.36,118.49,566,115.27,576.57,116.19Zm-32.47-20c.58-.67-2.68-2.45-2.89-5.62-.39-5.74,9.61-9.57,8.81-11.11-.63-1.22-7.9-.65-11.92,3.84-.67.75-3.63,4-2.46,7.67C537,95.28,543.36,97,544.1,96.16Zm25.39-51c-2,0-6.21,11.34-1,19.7C573.21,72.44,584,75,585.14,73.48c.89-1.17-4.72-4.28-9.59-12.82C570.42,51.66,571,45.16,569.49,45.19ZM632.25,78c2-.37,2.4-3.13,4.23-7.14,3.48-7.65,8-10.89,7.33-11.5s-6.78,4.11-10.43,7.53c-5.93,5.56-5.73,7.42-5.51,8.2A4.37,4.37,0,0,0,632.25,78Zm-55.57,9.85c-1-1-3-.76-4.13-.1-1,.55-2.06,1.73-1.8,2.87.37,1.55,3.17,2.66,5,1.59C577.25,91.29,577.8,89,576.68,87.83Zm12.59.3c6.94-2.44,9-1.23,13.43-4.07,1.24-.79,4-2.55,3.6-4-.52-1.93-6.55-2-7.2-2-2,0-3.32.26-10.36,2.28-6.82,2-9.55,2.84-10,4.66a4,4,0,0,0,.11,1.69,5.15,5.15,0,0,0,2.75,3.07C583.6,90.7,585.43,89.47,589.27,88.13Zm17.84-10.45c-.18.49.9.83,1.13,1.95.18.94-.43,1.37-.15,1.75.5.66,3.1.46,4.06-1a2.32,2.32,0,0,0-.11-2.78c-.51-.49-1.24-.46-2.71-.4C608.3,77.19,607.27,77.24,607.11,77.68Zm-24.3,17.59a5.68,5.68,0,0,0-.55.7,5.55,5.55,0,0,0-.72,1.87,4.41,4.41,0,0,0,1.17,3.77c1.51,1.25,4.22.14,7.08-.59s6.65-.78,14-.8c9.3,0,13,1.42,14-.29s-2-5.35-2.75-6.25a12.36,12.36,0,0,0-4.55-3.47c-3.45-1.43-5.16.28-12.69,1.39C597.73,91.6,584.4,93.56,582.81,95.27Zm35.12-4.47c-.33.39,2.57,1.82,3.28,5.06.57,2.63-.78,4.24.32,5.26a3.11,3.11,0,0,0,3.7-.1c1.74-1.59-.59-5.51-.74-5.75C622.42,91.87,618.31,90.36,617.93,90.8Zm13.12,1.29c-.66.41.62,2,.32,5.65-.26,3.09-1.33,3.61-.85,5.06.79,2.38,4,2,7.51,4.66,4.35,3.25,4.71,7.74,5.5,7.54.94-.24,1-6.79-2.22-13S632.23,91.35,631.05,92.09ZM598.68,114c.11,1.25,3.42,1.93,6.56,2.57,2.71.56,4.09.83,5.18.1,1.26-.84.76-2,2.33-4.16,1.44-2,2.81-2.24,2.64-2.78-.33-1-5.74-.73-10.57.8C603.11,111.07,598.55,112.51,598.68,114Zm18.83,3.67c1.36-.64,1-1.84,2.54-3.48,1.77-1.92,3.77-1.93,3.7-2.77s-1.74-1.51-3.17-1.29c-.83.12-1.43.55-2.86,2.08-2.64,2.83-4,4.24-3.49,5.06S616.35,118.21,617.51,117.68Zm8.46,4.26c2.75,1.23,5.5,4.8,10.9,11.9,6.24,8.21,7.79,11.52,8.67,11.2,1.17-.43-.26-6.79-1.8-11.2a49,49,0,0,0-7.51-13.39c-2.09-2.72-7.13-9.3-9.84-8.33-.72.26-.53.8-3,3.87-1.35,1.71-1.84,2.09-1.8,2.78C621.73,120.33,624.46,121.27,626,121.94Zm-16.5,4.46c4.38,6.15,5.27,9.24,6.66,9s1.77-3.45,1.8-3.76a8.31,8.31,0,0,0-2.11-6.15c-3-3.51-8.45-4.72-9.21-3.67C606.24,122.36,607.18,123.18,609.47,126.4Zm16.61,6.35c-1.16.12-.9,2.31-2.75,5.15-2.22,3.39-5,4-4.76,5.85a2.62,2.62,0,0,0,1.69,2c2.45.85,6.08-2.75,7.61-5.85a5.83,5.83,0,0,0,.75-4.27C628.24,134.27,627.1,132.64,626.08,132.75Zm5.18,5.95c-1.53.24-.91,3.17-3.91,6.05-2.31,2.2-4.24,2-4.55,3.47-.4,1.91,2.37,4.28,5,5.15a6.82,6.82,0,0,0,4.86.1c3.76-1.59,3.61-6.95,3.6-7.24C636.07,142.28,633.09,138.41,631.26,138.7Z" fill="#fff" opacity="0.5" style="mix-blend-mode:overlay"/><path d="M498.4,223.58c-1.66,1.49-5,.68-6.77-1.09s-2.22-5.24-.42-6.6,5.11-.21,6.72,1.69C499.33,219.24,500,222.15,498.4,223.58Zm24.23-16.86c.16-1.72-1-3.11-2.33-4.56-4-4.31-7.25-7.75-8.89-6.94s-.52,5.87.32,8.23c.64,1.78,2.18,6.07,5.61,6.74a4.94,4.94,0,0,0,3.7-.69A4.12,4.12,0,0,0,522.63,206.72Zm19-16.26c-1.78.41-2.09,4.49-2.23,6.34-.18,2.49-.71,9.43,3.81,12,.19.11,3.07,1.69,5.82.5a6.24,6.24,0,0,0,3.39-6.35c-.17-1.43-.84-2.16-3.6-5.35C543.35,191.23,542.62,190.24,541.67,190.46ZM570,192.74c-1.89,1.8-1.62,4.47-1.37,7,.28,2.86.67,6.84,3.7,8.23a5.47,5.47,0,0,0,5-.2,4.87,4.87,0,0,0,2.12-5.16c-.69-2.69-3.77-2.53-4.76-5.35s1.24-4.92.1-5.85C573.84,190.68,571.41,191.41,570,192.74Zm20.84-6.65c-2.1,2-.24,5.15.21,11.11.51,6.66-1.37,8.51.74,12,.22.36,2.4,3.86,4.87,3.57,1.75-.21,2.79-2.2,3.28-3.17,2.39-4.72.71-9.77-1.38-15.77-1.45-4.2-3-8.55-5.53-8.67A3.23,3.23,0,0,0,590.85,186.09Zm16.72-11c-1.7,1.17,1.74,5.5,2.85,13.68.92,6.8-.66,9.66,2.12,13.29,1.19,1.55,3.7,3.93,5.6,3.37,3.16-.92,3.06-9.43,2.33-14.28-.45-3-1.62-10.71-8-14.67C611.55,175.93,608.81,174.23,607.57,175.09Zm33.84,30.24c-.82-3.11-4-6.28-6.87-5.75-3,.57-4.42,5.2-3.91,8.53.47,3.15,2.92,6.89,5.6,6.84C639.37,214.89,642.56,209.65,641.41,205.33ZM654,202.46c-2.2.1-4.07,4.06-4,7.33.07,4.63,4,9.29,6.35,8.83,2.21-.43,3.3-5.32,2.64-9C658.42,206.49,656.31,202.34,654,202.46Zm16.72,7.63c-1,.4-.8,2.93-.43,4.36.44,1.7,1.66,4.09,2.75,4s2.1-2.85,1.38-5.06C673.77,211.39,671.7,209.7,670.72,210.09Zm-96-59.46c.92-1.65-1.71-5-4.72-6.61-4.55-2.42-11.08-1.39-11.71.66-.56,1.83,3.59,4.65,6.84,5.88S573.76,152.45,574.77,150.63Zm-19-19.67c.39,1.15,6.69-1.55,16.61.3,7.33,1.37,10.95,4.16,11.64,3.27.89-1.16-3.82-7.87-10.9-9.52C564.29,123,555.25,129.53,555.73,131Zm7.09-18.34c.21.61,2.71-.33,7.3.3,4.82.65,7.08,2.35,7.51,1.78.55-.73-2.22-4.74-6.35-5.45C566.88,108.49,562.54,111.77,562.82,112.62Zm48.84,16.59c3.82,5.33,4.52,8,5.21,7.87.91-.24,1.3-5.34-1.55-9-2.43-3.15-6.68-4.59-7.23-4C607.74,124.5,609.13,125.69,611.66,129.21ZM592.47,88.82c.39.38,2.46-1.67,6.92-3.64,6-2.64,10.19-2.46,10.15-3s-6.12-2.09-11.21.4C594.31,84.51,592,88.36,592.47,88.82Z" fill="#fff" opacity="0.6" style="mix-blend-mode:overlay"/><path d="M712.92,252.93a135,135,0,0,0-16.61-24.59c1-1.72,4.41-8.31,1.48-14.08-1.46-2.91-4.1-4.7-7.82-7.24a46.89,46.89,0,0,0-8.68-4.66,30.72,30.72,0,0,0-12.16-16.17,34.49,34.49,0,0,0-19.36-5.75,10.28,10.28,0,0,0-2-2.77c-.74-.74-2.46-2.21-7.09-3.38a35.94,35.94,0,0,0-10.68-1,23.28,23.28,0,0,0,5.61-4.06,21.65,21.65,0,0,0,5.07-7.74,21,21,0,0,0,8.47-7.24c3.8-5.8,3.05-11.81,2.54-16a33.49,33.49,0,0,0-6-15.17,22.11,22.11,0,0,0,5.6-10.81c.31-1.59,1.42-7.37-1.69-12.89-.68-1.21-1.23-1.82-6.14-6.84-2.52-2.59-4.9-5-7.08-7.24a45.37,45.37,0,0,1,2.32-6.15,50,50,0,0,1,8.68-12.79c11.1-12.5,16.65-18.76,15.44-20.62-2.1-3.23-20.78,1.12-34.48,12.39A55.78,55.78,0,0,0,616,72.36c-2.82-.25-5.75-.46-8.78-.6-5.37-.24-10.47-.25-15.23-.09-1.34-1.4-3.31-3.49-5.61-6-6.23-7-9.34-10.43-11.74-14.28-5.44-8.77-5.61-15.57-7.83-15.47-1.28.05-2.1,2.37-3.17,5.45a46.26,46.26,0,0,0-2.54,16.36,51.34,51.34,0,0,0,3.28,16.2c-.73,0-1.81,0-3.1,0-13,.19-21.9.32-26.94,5.42A13.81,13.81,0,0,0,531,92.79c2.4,7.66,11.2,9.92,11.71,10a30,30,0,0,0-14,10.85,26.38,26.38,0,0,0-4.09,9.78,14.35,14.35,0,0,0-6.49,5.42,13,13,0,0,0-1.69,9.65,58.73,58.73,0,0,0-9,14,57.13,57.13,0,0,0-5.08,20,19,19,0,0,0-10.15,4.23,17,17,0,0,0-5.93,11.11,18.46,18.46,0,0,0-9.45,5.81,16.8,16.8,0,0,0-3.52,13.49A30.16,30.16,0,0,0,463,216.8a27.7,27.7,0,0,0-4.09,10.45,170.8,170.8,0,0,0-27.64,59.23c-5.16,21-4.83,37.94-4.51,50.24a228.18,228.18,0,0,0,9.59,59.76c.45-4.88,1.16-12.51,2-21.88,1.49-17.28,1.52-19.43,2.43-28.27,1.52-14.59,2.32-22.09,4.62-31.82a161.57,161.57,0,0,1,6.6-21.42c4.57-11.77,7.87-20.25,15.86-29.06,4.33-4.77,10.07-10.94,20-14.08a41.58,41.58,0,0,1,15.24-1.78,28.12,28.12,0,0,0,8.78,4.36c4.44,1.3,12.45,2.46,14.17-.44.76-1.3,0-3-1.37-5.91a28.71,28.71,0,0,0-5.35-7.77A87.55,87.55,0,0,0,532,247.82a44.22,44.22,0,0,0,6.08,3.12c3.4,1.4,9.48,3.92,11.48,2.28,3.16-2.58-4.56-15.05-5.44-16.46a59.67,59.67,0,0,0,10.73,11.15,71.84,71.84,0,0,0,6.93,4.82c5.91,3.82,8.9,5.73,10.36,4.9.4-.22,2-1.33.48-7.78a31.6,31.6,0,0,0,7,7.09c2.91,2.16,6.56,4.85,8.94,3.72,1.81-.86,2.39-3.68,3.06-7a22.41,22.41,0,0,0,.43-3.13,23.49,23.49,0,0,0,4,5.06c1.4,1.35,2.11,2,3,2.14,3.63.45,7.58-9.31,7.87-10.07.13.42.32,1,.58,1.68,1,2.48,2.68,6.84,5,7.15,2,.27,4-2.69,7.57-8,1.64-2.47,2.89-4.64,3.76-6.25a23,23,0,0,0,3.7,6.23c1.9,2.32,4.09,5,6.29,5.08,3.48.14,7.39-6,9.57-15.13.44,1.77,1.12,4.34,2.06,7.44,2,6.42,2.81,7.73,3.81,7.83s2-1.21,2.75-2.23c2-2.84,4.8-6.94,8.09-12.3,0,1.34.08,3.25.27,5.56.4,4.87.93,6,1.66,6.15.34.08,1-.2,2.19-.75a20.77,20.77,0,0,0,2-1,51.41,51.41,0,0,1,10.23,4.75c6.74,4.09,12.71,9.93,18.33,19.31,18.21,30.43,22,71.13,22,71.13a229.77,229.77,0,0,1-1.27,53.15,222.52,222.52,0,0,0,11.42-53.94C728.75,321,731.11,287.62,712.92,252.93ZM569.38,79.7l2.12,2.67-12.59,6.95a13.59,13.59,0,0,1-6.35-5.56,11.58,11.58,0,0,1-1.27-3.37Zm153.7,248a249,249,0,0,1-4.24,39,186.6,186.6,0,0,0-3.8-41.65,208.17,208.17,0,0,0-6.91-24.85c-7.33-22.38-11.19-33.77-21.58-43.37A59.47,59.47,0,0,0,669.62,246c-3.52,2-5.3,1.32-5.71,1.12-2.06-1-2.33-4.07-2.75-8.92a46.54,46.54,0,0,1-.14-5.75A89,89,0,0,1,655,244.3c-2.77,4.54-3.83,5.33-4.72,5.22-1.25-.15-1.82-2.05-4.14-8.51-1.11-3.15-2-5.66-2.56-7.09-1.57,3.32-3.65,7.66-6.21,12.83-1.11,2.27-1.7,3.4-2.75,3.57-3.09.49-7.24-7.1-9.09-12.17A32.9,32.9,0,0,1,624,232.8a53.45,53.45,0,0,1-7.13,16.59c-2.37,3.63-3.58,4.45-4.51,4.3-.55-.09-1.9-.67-3.45-10a105.3,105.3,0,0,1-1.27-11.24A112.35,112.35,0,0,1,602.21,250c-1.06,2.61-1.9,4.36-3.32,4.56-3.17.45-6.84-7.19-8.18-10.18-.62,2.81-1.06,5.09-1.34,6.67-.47,2.66-.64,4-1.83,4.76-.3.18-1.28.72-3.53.2-3.3-.76-5.47-2.93-7.75-5.49a92,92,0,0,1-7.55-9.71c1.46,4.26,3.76,11.94,1.41,13.22-1.79,1-5.56-2.14-8.6-4.83A182.17,182.17,0,0,1,536,220.9a26.44,26.44,0,0,0,3.67,13.15,113.53,113.53,0,0,1,7.68,13c1.15,2.38,1.51,3.43,1,4-1.54,1.82-9.73-1.53-15.44-4.82-7.09-4.09-9.95-7.84-19.33-16.53-4.9-4.55-9-8.09-11.7-10.31a126.29,126.29,0,0,1,18.61,22.54c2,3.21,4.14,6.84,2.9,8.13-1.5,1.53-6.43-1.63-15-3.63a67.89,67.89,0,0,0-15.17-1.59c-13,.41-23,12-28.06,18-8.46,10.05-17.13,25.05-23,59.89-5.49,32.64-3.92,55.24-5.22,55.27s-3.1-24.2-3.38-46.94c-.4-32.11,2.32-43.6,3.38-47.73a125.79,125.79,0,0,1,27.5-52.22,23.87,23.87,0,0,1,3.39-10.84A26.33,26.33,0,0,1,478,210.72a16,16,0,0,1,2.26-11.37,17.91,17.91,0,0,1,9.73-7.27,17.25,17.25,0,0,1,7.62-11.9,19,19,0,0,1,10.86-2.91,44.57,44.57,0,0,1,4.79-22.08,47.22,47.22,0,0,1,11.57-14.54,12.89,12.89,0,0,1,1.12-8.33,14.59,14.59,0,0,1,7.62-6.75,46.32,46.32,0,0,1,5.36-11.63,49.5,49.5,0,0,1,11.57-12.56c-6.56.66-12.6-2.72-14.67-7.93-1.82-4.6-.13-9.53,3-12.7a14.75,14.75,0,0,1,13.82-3.83c-3.89,2.09-4.3,4.14-4.37,4.76-.45,3.81,5.48,8.72,15.51,10.71l13.12-7.93a55.61,55.61,0,0,1-9.31-16.93c-4-12-3.38-24.57-1.13-25,2-.38,3.68,9.36,12.7,21.41a78.75,78.75,0,0,0,13.68,14.15,40.36,40.36,0,0,1,26.09-1.19,69,69,0,0,1,14-15.6c10.2-8.38,22.11-13.25,23.13-11.9s-8.39,6.71-16.78,18.91a72.15,72.15,0,0,0-9,18.24c1.38.64,13.52,6.46,15.66,18.91a23.34,23.34,0,0,1-2.12,14l-3.52,5.16a22,22,0,0,1,.42,32.13c-1.33,0-2.66.07-4,.12A24,24,0,0,1,633,166a27.5,27.5,0,0,1-13.4,10.31,41.06,41.06,0,0,1,15.38,1.85,39,39,0,0,1,11.7,6.09,36.84,36.84,0,0,1,18.2,6.87,33.26,33.26,0,0,1,11.56,15.21c7.71-.42,14.51,3.83,16.5,9.91,2.22,6.74-2.5,12.55-3,13.09a135.14,135.14,0,0,1,11.43,14.15,127.61,127.61,0,0,1,17.2,34.5C724,295.44,723.62,309.08,723.08,327.73ZM466,218.52a26.25,26.25,0,0,0,6.49,20.1,29.65,29.65,0,0,0,17.21,9.12L484,249.85c-1.61-.08-13.63-.86-20-10a20.43,20.43,0,0,1-3.53-9.66Q463.22,224.35,466,218.52Zm10.58-12.69A55.13,55.13,0,0,0,485.43,229a60.1,60.1,0,0,0,21.86,19.44c-5.43-3.46-17-11.91-23.7-27a56.52,56.52,0,0,1-4.79-20.89C478.05,202.3,477.29,204.06,476.54,205.83Zm15.8-22a40.65,40.65,0,0,0,1.83,24.59,56.94,56.94,0,0,1,0-19.83A56.33,56.33,0,0,1,497,178.46a40.26,40.26,0,0,1,15.8,7.93,37.16,37.16,0,0,1,7.76,8.86c-.27-1.51-2.17-11.25-11.71-16.53a25.77,25.77,0,0,0-13.4-3A38.71,38.71,0,0,0,492.34,183.88Zm11.14-9.19c1.09-1.6,6.27-8.84,15.87-10.51a21.24,21.24,0,0,1,11.95,1.09c2.08.88,4.35,2.31,9.41,8.43a113,113,0,0,1,9.84,13.88,167.16,167.16,0,0,0-8.25-16.06c-.77-1.32-1.54-2.61-2.33-3.87,2.74-1.8,8-4.68,14.18-3.87,7.35,1,12,6.74,18.19,14.58,7.49,9.51,10.23,17,10.9,16.76s-1.84-9-6.77-18a81.89,81.89,0,0,0-7-10.61c3.69-.27,10.82-.27,17.55,3.67,4.45,2.59,6.82,5.79,10.69,11.1a87.32,87.32,0,0,1,9.94,17.75,48.33,48.33,0,0,0-12.59-26.57,50.34,50.34,0,0,0-12.16-9.42c3.77-1,13.22-3,21.58,1.49,2.07,1.12,5.83,3.59,12.48,15.57a136.24,136.24,0,0,1,10.68,24.78,84.57,84.57,0,0,0-4.12-17.74,86.73,86.73,0,0,0-4.13-9.82c2.77-.4,8.4-.8,13.44,2.18,4.33,2.57,6.1,6.38,9.09,13.09a70.31,70.31,0,0,1,5,16.06,33.55,33.55,0,0,0,0-12.09A35.57,35.57,0,0,0,640,181.33a42.64,42.64,0,0,1,11.85,8.24,39.31,39.31,0,0,1,9.62,15.36,43.78,43.78,0,0,0-6.77-16.06,46.78,46.78,0,0,0-12.06-12.1L619,171.32a93.55,93.55,0,0,0-1.59-14.87c-1.75-9.28-5.33-28.31-18.3-40.26-20-18.45-53.33-11.69-56.91-10.91,4-.59,30.94-4.11,51.62,13.09a58.07,58.07,0,0,1,17.78,26.38,54.23,54.23,0,0,1,2.32,21,30.41,30.41,0,0,0-12.9-9.13c-15.08-5.48-29.14,3.19-30.68,4.17a34.37,34.37,0,0,0-17.77-4.36,34,34,0,0,0-13.75,3.37,37.56,37.56,0,0,0-15.87-2.18,37.17,37.17,0,0,0-15.23,4.56Zm15.82-32.17a94,94,0,0,1,46.33-3,51,51,0,0,0-20.94-5.76,51.52,51.52,0,0,0-24.12,4.57C520.15,139.74,519.72,141.13,519.3,142.52Zm4-11.7a143.88,143.88,0,0,1,33.21-6.94,53.43,53.43,0,0,0-31.73,1.78C524.31,127.38,523.81,129.1,523.32,130.82Zm107-49a52.35,52.35,0,0,0-21.58.4,50.56,50.56,0,0,0-16.29,6.94,53.28,53.28,0,0,1,26-4.56A52.25,52.25,0,0,1,637.77,90Q634.06,85.91,630.37,81.83ZM629.52,115a50.28,50.28,0,0,1,10.63,9.7l4.81-.38a25,25,0,0,0-10.57-13.68c-9.73-6.1-20.19-3.58-21.79-3.17A53.15,53.15,0,0,1,629.52,115Zm10.58,45.42a32.09,32.09,0,0,0,0-13.49c-2.63-12.1-11.66-19.12-14.6-21.22a39.72,39.72,0,0,1,9.31,18.05,38.44,38.44,0,0,1-2.17,22.78Zm22.19,25.49c6.7,6.7,15.2,17.44,15.65,31.07.47,14-7.8,25.06-6.77,25.52s9.45-9,11.15-21.68c1.53-11.48-3.08-20.91-5.93-25.65Z"/></g></g></g></svg>