<svg id="eyes" xmlns="http://www.w3.org/2000/svg" viewBox="0 0 1080 1920"><g id="_1" data-name="1"><g id="Right_Eye" data-name="Right Eye"><g id="white"><path id="mask" d="M497.67,394.29a38.59,38.59,0,0,0-7.44,5.57,33.32,33.32,0,0,0-4.34,5.28,55.17,55.17,0,0,0,4.27,5.56c3.14,3.6,7,8.06,13.07,10.85,8.61,4,17,2.43,20.08,1.86a51.21,51.21,0,0,0,13-4.64c.57-.3,2.06-1.16,5.05-2.87,1.23-.71-.29.16,4.13-2.6,2-1.26,2.8-1.73,2.93-2.58s-.64-1.81-1.24-2.5c-2.51-2.87-1-2.38-4.43-6.6a35.45,35.45,0,0,0-6.67-7,28.44,28.44,0,0,0-8-4.17C513.72,385.49,499.31,393.36,497.67,394.29Z" fill="#fff"/><path d="M494.27,396.48c3.12-2.08,12-7.45,23.3-6.14a30.69,30.69,0,0,1,11,3.41A27.8,27.8,0,0,1,539.21,404c1.37,2.36,2,3.55,1.95,5.22-.28,4.48-5.88,7.37-10.34,9.66a51.28,51.28,0,0,1-17.34,5.26,43,43,0,0,0,16-2.41,72.16,72.16,0,0,0,9.75-4.62c1.43-.82,4-2.4,5-3,1.69-1.05,1.24-.83,1.89-1.21a10.62,10.62,0,0,0,1.33-.9,2,2,0,0,0,.83-1,1.76,1.76,0,0,0,.06-.71,2.11,2.11,0,0,0-.31-.87c-.05-.07-.1-.15-.21-.29l-.29-.39c-.13-.17-.2-.23-.51-.59l-.35-.4a8.67,8.67,0,0,1-1-1.45c-.12-.21-.05-.11-.36-.73s-.48-.93-.74-1.37-.52-.79-.79-1.16c-1.36-1.83-2.38-3-2.38-3-1-1.2-1.51-1.8-2.21-2.53a29.58,29.58,0,0,0-2.68-2.43,29.06,29.06,0,0,0-5-3.1,31.27,31.27,0,0,0-5.8-2.12,32.47,32.47,0,0,0-7-1,36.48,36.48,0,0,0-8.24.8A49.52,49.52,0,0,0,494.27,396.48Z" fill="#1e184d" opacity="0.1"/><path d="M494.27,396.48c2-1.25,16.21-9.94,32.79-4.32A37.94,37.94,0,0,1,546,406.7a32.29,32.29,0,0,0-12.59-13.8C522,386.38,506.83,387.89,494.27,396.48Z" fill="#1e184d" opacity="0.1"/></g><g id="_Right_Pupil" data-name="+Right Pupil"><path d="M521.86,389.39a18.61,18.61,0,1,0,13.3,22.72A18.61,18.61,0,0,0,521.86,389.39Z" fill="#3c2415"/><path d="M521.45,391a17,17,0,1,0,12.12,20.7A17,17,0,0,0,521.45,391Z" fill="#0071bc"/><path d="M520.09,396.19a11.54,11.54,0,1,0,8.24,14.08A11.53,11.53,0,0,0,520.09,396.19Z" fill="#231f20"/><path d="M510.26,393.77a5.72,5.72,0,1,0,4.09,7A5.72,5.72,0,0,0,510.26,393.77Z" fill="#fff"/></g><path d="M499.59,393.72a37.84,37.84,0,0,1,13.51-4.45c3.33-.41,10.81-1.23,18.46,2.64a30.52,30.52,0,0,1,9.25,7.32c.41.51,1.27,1.64,2.08,2.76a29.75,29.75,0,0,1,2.65,4,10,10,0,0,0,.55,1,8.29,8.29,0,0,0,1.07,1.29,37,37,0,0,0-7.67-11.61,33.55,33.55,0,0,0-12-8.12,30.65,30.65,0,0,0-19.46-1.25,29.26,29.26,0,0,0-6.55,2.82,43.32,43.32,0,0,0-15.61,15.08A43.61,43.61,0,0,1,499.59,393.72Z" fill="#da9e73"/><path d="M494.7,397c4-2.82,10.64-7.55,20.22-8a33.25,33.25,0,0,1,17.47,4.29,35.75,35.75,0,0,1,14.05,14,33.39,33.39,0,0,0-14.14-15.06A32.73,32.73,0,0,0,514.22,388c-7.58.52-12.87,3.8-17.15,6.45a37.86,37.86,0,0,0-5.43,4,36.23,36.23,0,0,0-5.75,6.63A47.4,47.4,0,0,1,494.7,397Z" fill="#685645"/><path d="M522.31,423.8c-2,.32-12.83,2-22.15-3.91a43.73,43.73,0,0,1-7.05-5.91,60.1,60.1,0,0,1-7.24-8.54,50.25,50.25,0,0,0,6.88,10.71,39.26,39.26,0,0,0,7,6.82c10.4,7.29,25.54,2.22,29.07,1A46.25,46.25,0,0,0,547.51,412a80.38,80.38,0,0,1-10,6.08C531.75,420.94,527.82,422.94,522.31,423.8Z" fill="#b67d54"/></g><g id="left_eye" data-name="left eye"><g id="white-2" data-name="white"><path id="mask-2" data-name="mask" d="M656.22,392.72a38.59,38.59,0,0,1,7.44,5.57,33.73,33.73,0,0,1,4.33,5.28,53.37,53.37,0,0,1-4.26,5.56c-3.15,3.6-7.05,8.06-13.08,10.85-8.6,4-17,2.43-20.07,1.86a51.21,51.21,0,0,1-13-4.64c-.58-.3-2.07-1.16-5.06-2.87-1.22-.71.3.16-4.12-2.6-2-1.26-2.8-1.73-2.93-2.59s.63-1.8,1.24-2.49c2.51-2.87,1-2.38,4.42-6.6a35.8,35.8,0,0,1,6.68-7,28.42,28.42,0,0,1,8-4.17C640.17,383.92,654.57,391.79,656.22,392.72Z" fill="#fff"/><path d="M659.61,394.91c-3.11-2.08-12-7.45-23.3-6.14a30.77,30.77,0,0,0-11,3.41,27.79,27.79,0,0,0-10.67,10.23c-1.37,2.36-2,3.55-1.95,5.22.28,4.47,5.88,7.36,10.34,9.66a51.29,51.29,0,0,0,17.33,5.26,42.94,42.94,0,0,1-16-2.41,71.51,71.51,0,0,1-9.75-4.62c-1.43-.82-4-2.4-5-3-1.69-1.05-1.24-.83-1.89-1.21a10.41,10.41,0,0,1-1.34-.9,2,2,0,0,1-.82-1,1.76,1.76,0,0,1-.06-.71,2,2,0,0,1,.31-.87c0-.07.1-.15.2-.29s.16-.22.3-.39.19-.24.5-.59l.35-.4a9.17,9.17,0,0,0,1.05-1.45c.12-.21,0-.11.36-.73s.47-.93.74-1.37a11.65,11.65,0,0,1,.79-1.16c1.36-1.83,2.37-3,2.37-3,1-1.2,1.51-1.8,2.22-2.53a31.63,31.63,0,0,1,2.67-2.43,28.23,28.23,0,0,1,5-3.1,31.08,31.08,0,0,1,5.79-2.12,32.7,32.7,0,0,1,7-1,36.41,36.41,0,0,1,8.23.8A49.43,49.43,0,0,1,659.61,394.91Z" fill="#1e184d" opacity="0.1"/><path d="M659.61,394.91c-2-1.25-16.2-9.94-32.79-4.32a38,38,0,0,0-18.89,14.54,32.16,32.16,0,0,1,12.59-13.8C631.87,384.81,647.05,386.32,659.61,394.91Z" fill="#1e184d" opacity="0.1"/></g><g id="_Leftt_Pupil" data-name="+Leftt Pupil"><path d="M632,387.82a18.62,18.62,0,1,1-13.3,22.72A18.62,18.62,0,0,1,632,387.82Z" fill="#3c2415"/><path d="M632.44,389.42a17,17,0,1,1-12.12,20.7A17,17,0,0,1,632.44,389.42Z" fill="#0071bc"/><path d="M633.8,394.62a11.54,11.54,0,1,1-8.24,14.08A11.54,11.54,0,0,1,633.8,394.62Z" fill="#231f20"/><path d="M643.62,392.2a5.72,5.72,0,1,1-4.09,7A5.71,5.71,0,0,1,643.62,392.2Z" fill="#fff"/></g><g opacity="0.63"><path d="M654.3,392.15a37.91,37.91,0,0,0-13.51-4.45c-3.33-.41-10.81-1.24-18.46,2.64a30.39,30.39,0,0,0-9.25,7.32c-.41.51-1.28,1.64-2.09,2.76a29.41,29.41,0,0,0-2.64,4,8.13,8.13,0,0,1-.56,1,8.62,8.62,0,0,1-1.06,1.3A36.79,36.79,0,0,1,614.4,395a33.45,33.45,0,0,1,12-8.12,30.63,30.63,0,0,1,19.45-1.25,29.58,29.58,0,0,1,6.56,2.82A43.32,43.32,0,0,1,668,403.57,43.43,43.43,0,0,0,654.3,392.15Z" fill="#da9e73"/><path d="M659.18,395.46c-4-2.82-10.63-7.55-20.21-8a33.29,33.29,0,0,0-17.48,4.29,35.78,35.78,0,0,0-14,14,33.84,33.84,0,0,1,8.34-11,33.5,33.5,0,0,1,5.8-4,32.68,32.68,0,0,1,18.08-4.31c7.57.52,12.87,3.8,17.15,6.45a38.17,38.17,0,0,1,5.42,4,35.84,35.84,0,0,1,5.75,6.63A47.08,47.08,0,0,0,659.18,395.46Z" fill="#685645"/><path d="M631.58,422.23c2,.32,12.82,2,22.15-3.91a44.17,44.17,0,0,0,7-5.91,60.78,60.78,0,0,0,7.24-8.54,50.76,50.76,0,0,1-6.89,10.71,39.15,39.15,0,0,1-7,6.82c-10.41,7.29-25.54,2.22-29.07,1a46.29,46.29,0,0,1-18.74-12.06,80.62,80.62,0,0,0,10,6.08C622.14,419.37,626.07,421.37,631.58,422.23Z" fill="#b67d54"/></g></g></g></svg>