<svg xmlns="http://www.w3.org/2000/svg" xmlns:xlink="http://www.w3.org/1999/xlink" viewBox="0 0 1080 1920"><defs><linearGradient id="linear-gradient" x1="636.19" y1="408.33" x2="636.19" y2="383.59" gradientUnits="userSpaceOnUse"><stop offset="0" stop-color="#ffc596"/><stop offset="0.5" stop-color="#fdc091"/><stop offset="1" stop-color="#fdae91"/></linearGradient><clipPath id="clip-path"><path d="M664.79,403.13c-5.63,16.47-33,23.73-54.07,12.81a44.47,44.47,0,0,1-4.43-2.63,28.57,28.57,0,0,1,1.66-3.9C617.89,390.25,647.64,387.85,664.79,403.13Z" fill="none"/></clipPath><linearGradient id="linear-gradient-2" x1="460.86" y1="408.33" x2="460.86" y2="383.59" gradientTransform="matrix(-1, 0, 0, 1, 978.86, 0)" xlink:href="#linear-gradient"/><clipPath id="clip-path-2"><path d="M489.4,403.13c5.63,16.47,33,23.73,54.06,12.81a43.5,43.5,0,0,0,4.44-2.63,28.57,28.57,0,0,0-1.66-3.9C536.3,390.25,506.55,387.85,489.4,403.13Z" fill="none"/></clipPath></defs><g style="isolation:isolate"><g id="eyes"><g id="_2" data-name="2"><g opacity="0.35"><path d="M616,387c-5.78,5.35-10.88,18.78-9.69,26.32l2.12.56C608.72,405.36,609.75,395.41,616,387Z" fill="#da634d"/><path d="M608.41,408.33c7.44-30.28,44.25-32.78,55.56-7.4Z" fill="url(#linear-gradient)" style="mix-blend-mode:multiply"/></g><path d="M664.79,403.13a20.39,20.39,0,0,1-3.72,6.52c-9.67,11.66-32.29,15.63-50.35,6.29-1.2-.63-2.41-1.31-3.58-2.07-.29-.18-.56-.37-.85-.56a28.57,28.57,0,0,1,1.66-3.9C617.89,390.25,647.64,387.85,664.79,403.13Z" fill="#fff"/><g clip-path="url(#clip-path)"><circle cx="634.71" cy="404.52" r="14.33" transform="translate(-100.14 567.29) rotate(-45)" fill="#0071bc"/><path d="M640.77,404.52a6.06,6.06,0,1,1-6.06-6A6.06,6.06,0,0,1,640.77,404.52Z" fill="#23031b"/></g><path d="M610.72,415.94a44.47,44.47,0,0,1-4.43-2.63,28.57,28.57,0,0,1,1.66-3.9C610.68,411.22,611.85,413.33,610.72,415.94Z" fill="#da634d"/><path d="M639,408.12c.72-4.19,3.9-3.9,3.24-.84S638.46,411.45,639,408.12Z" fill="#fff"/><path d="M664.79,403.13a20.39,20.39,0,0,1-3.72,6.52c-14.3-17.63-43.19-12-53.93,4.22-.29-.18-.56-.37-.85-.56a28.57,28.57,0,0,1,1.66-3.9C617.89,390.25,647.64,387.85,664.79,403.13Z" fill="#23031b" opacity="0.15" style="mix-blend-mode:multiply"/><path d="M606.29,413.31c8.17-24.21,39.93-32,61-11l-3,2.19c-26.12-23.71-54.28-4.25-57.11,9.35Z" fill="#23031b"/><path d="M606.29,413.31a60.61,60.61,0,0,0,15.11,5.89,47.52,47.52,0,0,0,16,1.1,38.61,38.61,0,0,0,15.28-4.69,30.79,30.79,0,0,0,11.55-11.09,40.5,40.5,0,0,1-2,3.57l-1.85,2.49-.71.74a24.46,24.46,0,0,1-3,2.81L655,415.42l-1.76,1.11a38,38,0,0,1-15.67,5.13,45.88,45.88,0,0,1-16.42-1.44l-2-.55-1.93-.72a30.2,30.2,0,0,1-3.81-1.57c-1.22-.64-2.49-1.16-3.65-1.9S607.43,414,606.29,413.31Z" fill="#da634d"/><g opacity="0.35"><path d="M538.21,387c5.78,5.35,10.88,18.78,9.69,26.32l-2.12.56C545.47,405.36,544.44,395.41,538.21,387Z" fill="#da634d"/><path d="M545.78,408.33c-7.44-30.28-44.25-32.78-55.56-7.4Z" fill="url(#linear-gradient-2)" style="mix-blend-mode:multiply"/></g><path d="M489.4,403.13a20.21,20.21,0,0,0,3.72,6.52c9.67,11.66,32.29,15.63,50.34,6.29,1.21-.63,2.42-1.31,3.59-2.07.29-.18.56-.37.85-.56a28.57,28.57,0,0,0-1.66-3.9C536.3,390.25,506.55,387.85,489.4,403.13Z" fill="#fff"/><g clip-path="url(#clip-path-2)"><circle cx="519.48" cy="404.52" r="14.33" transform="translate(-58.09 88.43) rotate(-9.22)" fill="#0071bc"/><path d="M513.42,404.52a6.06,6.06,0,1,0,6.06-6A6.06,6.06,0,0,0,513.42,404.52Z" fill="#23031b"/></g><path d="M543.46,415.94a43.5,43.5,0,0,0,4.44-2.63,28.57,28.57,0,0,0-1.66-3.9C543.51,411.22,542.34,413.33,543.46,415.94Z" fill="#da634d"/><path d="M523.69,408.12c.71-4.19,3.9-3.9,3.24-.84S523.12,411.45,523.69,408.12Z" fill="#fff"/><path d="M489.4,403.13a20.21,20.21,0,0,0,3.72,6.52c14.3-17.63,43.19-12,53.93,4.22.29-.18.56-.37.85-.56a28.57,28.57,0,0,0-1.66-3.9C536.3,390.25,506.55,387.85,489.4,403.13Z" fill="#23031b" opacity="0.15" style="mix-blend-mode:multiply"/><path d="M547.9,413.31c-8.18-24.21-39.93-32-61-11l3,2.19c26.12-23.71,54.28-4.25,57.11,9.35Z" fill="#23031b"/><path d="M547.9,413.31c-1.14.73-2.3,1.46-3.47,2.17s-2.43,1.26-3.65,1.9A30.82,30.82,0,0,1,537,419l-1.93.72-2,.55a45.92,45.92,0,0,1-16.43,1.44A38,38,0,0,1,501,416.53l-1.76-1.11-1.63-1.29a23.77,23.77,0,0,1-3-2.81l-.71-.74L492,408.09a40.5,40.5,0,0,1-2-3.57,30.79,30.79,0,0,0,11.55,11.09,38.61,38.61,0,0,0,15.28,4.69,47.52,47.52,0,0,0,16-1.1A60.61,60.61,0,0,0,547.9,413.31Z" fill="#da634d"/></g></g></g></svg>