<svg xmlns="http://www.w3.org/2000/svg" xmlns:xlink="http://www.w3.org/1999/xlink" viewBox="0 0 1080 1920"><defs><linearGradient id="linear-gradient" x1="489.21" y1="183.24" x2="489.21" y2="137.29" gradientTransform="matrix(0.96, 0.27, -0.17, 0.63, 193.22, 166.43)" gradientUnits="userSpaceOnUse"><stop offset="0" stop-color="#ffc596"/><stop offset="0.5" stop-color="#fdc091"/><stop offset="1" stop-color="#fdae91"/></linearGradient><clipPath id="clip-path"><path d="M665.42,412c-16.7,24.51-54,6.45-62.77-1.7l-.19-4.44C615.81,390,650.88,392.48,665.42,412Z" fill="none"/></clipPath><linearGradient id="linear-gradient-2" x1="649.69" y1="115.76" x2="649.69" y2="69.8" gradientTransform="matrix(-0.96, 0.27, 0.17, 0.63, 1126.64, 166.43)" xlink:href="#linear-gradient"/><clipPath id="clip-path-2"><path d="M488,412c16.7,24.51,54,6.45,62.77-1.7l.19-4.44C537.57,390,502.5,392.48,488,412Z" fill="none"/></clipPath></defs><g style="isolation:isolate"><g id="eyes"><g id="_3" data-name="3"><g opacity="0.35"><path d="M603.92,404.61c17.79-31.82,58.29-26.79,60,7.46Z" fill="url(#linear-gradient)" style="mix-blend-mode:multiply"/><path d="M624.47,385.68c-8.08,2.25-19.46,12.48-22,20.2l1.74,1.57C608.64,399.53,614.47,390.61,624.47,385.68Z" fill="#da634d"/><path d="M665.42,412c-13.33,18.72-57.92,7.83-62.77-1.7l-.19-4.44C615.81,390,650.88,392.48,665.42,412Z" fill="#f0edfe"/></g><path d="M604.53,411.52l-.24-6.35a40.62,40.62,0,0,1,17-9.24c14.72-3.75,31.19,1.36,40.44,12a33.68,33.68,0,0,1,3.65,5.1,32.85,32.85,0,0,1-11.45,7c-5.18,1.84-9.24,1.69-17.16,1.32-10.15-.47-18.74-1-27.48-6.36A38.47,38.47,0,0,1,604.53,411.52Z" fill="#fff"/><path d="M602.65,410.32l-.19-4.44,3.09-2.71c-1.81,2.28-2.08,4.49-2,8.62Z" fill="#da634d"/><g clip-path="url(#clip-path)"><path d="M649.4,409.75a16.27,16.27,0,1,1-11.35-20A16.27,16.27,0,0,1,649.4,409.75Z" fill="#0071bc"/><path d="M640.35,407.25a6.88,6.88,0,1,1-4.8-8.46A6.87,6.87,0,0,1,640.35,407.25Z" fill="#23031b"/></g><path d="M637.32,410.16c1.92-4.1,5.11-2.9,3.56.06S635.79,413.41,637.32,410.16Z" fill="#fff"/><path d="M665.42,412a21.72,21.72,0,0,1-5.67,5.64c-9.68-22.16-40.93-24.62-56.57-11-.25-.26-.47-.54-.72-.82C622.18,387.89,653,391.2,665.42,412Z" fill="#23031b" opacity="0.15" style="mix-blend-mode:multiply"/><path d="M602.65,410.32c1.43,2.44,3.93,3.9,6.4,5.08a43.4,43.4,0,0,0,7.8,2.8,82.55,82.55,0,0,0,16.38,2.65,68.4,68.4,0,0,0,16.55-.63,34.07,34.07,0,0,0,7.94-2.22,17.54,17.54,0,0,0,6.75-4.71,16.75,16.75,0,0,1-6.45,5.36,34.94,34.94,0,0,1-8,2.68,64.44,64.44,0,0,1-16.86,1,75.5,75.5,0,0,1-16.6-3,43.57,43.57,0,0,1-7.81-3.23C606.32,414.63,603.8,413,602.65,410.32Z" fill="#da634d"/><path d="M602.46,405.88c14.17-16.67,49.31-18.49,66.06,3.07l-4,4.34c-20.53-26.94-54.86-16.06-61.29-6.59Z" fill="#23031b"/><g opacity="0.35"><path d="M549.46,404.61c-17.79-31.82-58.29-26.79-60,7.46Z" fill="url(#linear-gradient-2)" style="mix-blend-mode:multiply"/><path d="M528.92,385.68c8.07,2.25,19.45,12.48,22,20.2l-1.74,1.57C544.74,399.53,538.91,390.61,528.92,385.68Z" fill="#da634d"/><path d="M488,412c13.33,18.72,57.92,7.83,62.77-1.7l.19-4.44C537.57,390,502.5,392.48,488,412Z" fill="#f0edfe"/></g><path d="M549.81,411.79c.07-2.12.15-4.23.23-6.35a40.57,40.57,0,0,0-17-9.24c-14.72-3.75-31.18,1.36-40.44,12a33.68,33.68,0,0,0-3.65,5.09,32.8,32.8,0,0,0,11.45,7c5.18,1.84,9.25,1.69,17.16,1.32,10.15-.47,18.75-1,27.48-6.36A40.61,40.61,0,0,0,549.81,411.79Z" fill="#fff"/><path d="M550.73,410.32l.19-4.44-3.09-2.71c1.82,2.28,2.08,4.49,2,8.62Z" fill="#da634d"/><g clip-path="url(#clip-path-2)"><path d="M504,409.75a16.27,16.27,0,1,0,11.35-20A16.27,16.27,0,0,0,504,409.75Z" fill="#0071bc"/><path d="M513,407.25a6.88,6.88,0,1,0,4.8-8.46A6.87,6.87,0,0,0,513,407.25Z" fill="#23031b"/></g><path d="M527.47,409.88c-1.92,4.1-5.11,2.9-3.57-.06S529,406.63,527.47,409.88Z" fill="#fff"/><path d="M488,412a21.72,21.72,0,0,0,5.67,5.64c9.68-22.16,40.93-24.62,56.57-11,.25-.26.48-.54.72-.82C531.2,387.89,500.38,391.2,488,412Z" fill="#23031b" opacity="0.15" style="mix-blend-mode:multiply"/><path d="M550.73,410.32c-1.15,2.63-3.67,4.31-6.07,5.72a43.57,43.57,0,0,1-7.81,3.23,75.5,75.5,0,0,1-16.6,3,64.44,64.44,0,0,1-16.86-1,34.94,34.94,0,0,1-8-2.68,16.82,16.82,0,0,1-6.45-5.36,17.61,17.61,0,0,0,6.75,4.71,34.07,34.07,0,0,0,7.94,2.22,68.4,68.4,0,0,0,16.55.63,82.76,82.76,0,0,0,16.39-2.65,44,44,0,0,0,7.8-2.8C546.8,414.22,549.3,412.76,550.73,410.32Z" fill="#da634d"/><path d="M550.92,405.88c-14.17-16.67-49.31-18.49-66.06,3.07l4.05,4.34c20.54-26.94,54.87-16.06,61.29-6.59Z" fill="#23031b"/></g></g></g></svg>