<svg xmlns="http://www.w3.org/2000/svg" xmlns:xlink="http://www.w3.org/1999/xlink" viewBox="0 0 1080 1920"><defs><linearGradient id="linear-gradient" x1="607.05" y1="125.11" x2="607.05" y2="94.05" gradientTransform="matrix(1, 0.05, -0.03, 0.66, 32.57, 296.79)" gradientUnits="userSpaceOnUse"><stop offset="0" stop-color="#ffc596"/><stop offset="0.5" stop-color="#fdc091"/><stop offset="1" stop-color="#fdae91"/></linearGradient><clipPath id="clip-path"><path d="M663.84,402.35c-10.06,25.28-47,16.54-56.54,11l-1-3.94C615,392.52,646.93,387.76,663.84,402.35Z" fill="none"/></clipPath><linearGradient id="linear-gradient-2" x1="773.23" y1="112.36" x2="773.23" y2="81.3" gradientTransform="matrix(-1, 0.05, 0.03, 0.66, 1287.29, 296.79)" xlink:href="#linear-gradient"/><clipPath id="clip-path-2"><path d="M489.63,402.35c10.06,25.28,47,16.54,56.54,11l1.05-3.94C538.44,392.52,506.54,387.76,489.63,402.35Z" fill="none"/></clipPath></defs><g style="isolation:isolate"><g id="eyes"><g id="_4" data-name="4"><g opacity="0.35"><path d="M607.3,408C614,385.1,651,382.53,662.5,402.7Z" fill="url(#linear-gradient)" style="mix-blend-mode:multiply"/><path d="M621.92,386.93c-6.78,3.63-14.93,15.06-15.67,22.48l1.87,1.06C610.52,402.49,614,393.35,621.92,386.93Z" fill="#da634d"/><path d="M663.84,402.35c-10.06,25.28-47,16.54-56.54,11l-1-3.94C615,392.52,646.93,387.76,663.84,402.35Z" fill="#f0edfe"/></g><path d="M608.07,412.88,607,408.44c1.68-1.56,21.28-19.35,35-16.32a65,65,0,0,1,9.6,3.12A69,69,0,0,1,664,401.87a26.26,26.26,0,0,1-11,12.09c-9.84,5.77-23.06,5.2-23.76,5.16A48.73,48.73,0,0,1,608.07,412.88Z" fill="#fff"/><path d="M607.3,413.35l-1-3.94,2.23-3c-1.18,2.4,2,4.67.33,7.7Z" fill="#da634d"/><g clip-path="url(#clip-path)"><path d="M649.05,403.51a14.92,14.92,0,1,1-14.15-15.65A14.93,14.93,0,0,1,649.05,403.51Z" fill="#0071bc"/><path d="M640.45,403.08a6.31,6.31,0,1,1-6-6.62A6.31,6.31,0,0,1,640.45,403.08Z" fill="#23031b"/></g><path d="M638.31,406.29c.9-4.05,4-3.62,3.2-.65S637.59,409.51,638.31,406.29Z" fill="#fff"/><path d="M663.84,402.35a19.72,19.72,0,0,1-4,6.19c-13.08-17.91-41.56-13.89-52.84,1.46l-.8-.59C620.32,389.37,648.57,386.19,663.84,402.35Z" fill="#23031b" opacity="0.15" style="mix-blend-mode:multiply"/><path d="M607.3,413.35a72.18,72.18,0,0,0,14.89,4.52,53.79,53.79,0,0,0,15.4.69,39.22,39.22,0,0,0,14.72-4.26,25.81,25.81,0,0,0,10.94-10.62A21.92,21.92,0,0,1,659,410.3c-.46.47-.89,1-1.39,1.41L656.09,413a26.28,26.28,0,0,1-3.28,2.23,38.34,38.34,0,0,1-15.08,4.69,51,51,0,0,1-15.74-1A55.76,55.76,0,0,1,607.3,413.35Z" fill="#da634d"/><path d="M606.25,409.41C615.61,391.66,646.71,383,666,399l-2.76,4.69c-23.76-20-52.33-3.44-56.19,6.32Z" fill="#23031b"/><path d="M546.17,408c-6.73-22.88-43.68-25.45-55.2-5.28Z" opacity="0.35" fill="url(#linear-gradient-2)" style="mix-blend-mode:multiply"/><path d="M531.55,386.93c6.78,3.63,14.93,15.06,15.67,22.48l-1.87,1.06C543,402.49,539.51,393.35,531.55,386.93Z" fill="#da634d" opacity="0.35"/><path d="M489.63,402.35c10.06,25.28,47,16.54,56.54,11l1.05-3.94C538.44,392.52,506.54,387.76,489.63,402.35Z" fill="#f0edfe" opacity="0.35"/><path d="M545.6,413.36l1.08-4.44c-1.68-1.56-21.29-19.35-35-16.32a65,65,0,0,0-9.6,3.12,69,69,0,0,0-12.41,6.63,26.26,26.26,0,0,0,11,12.09c9.84,5.77,23.06,5.2,23.76,5.16A48.73,48.73,0,0,0,545.6,413.36Z" fill="#fff"/><path d="M546.17,413.35l1.05-3.94-2.23-3c1.18,2.4-2,4.67-.33,7.7Z" fill="#da634d"/><g clip-path="url(#clip-path-2)"><path d="M504.42,403.51a14.92,14.92,0,1,0,14.15-15.65A14.93,14.93,0,0,0,504.42,403.51Z" fill="#0071bc"/><path d="M513,403.08a6.31,6.31,0,1,0,6-6.62A6.31,6.31,0,0,0,513,403.08Z" fill="#23031b"/></g><path d="M527.1,405.36c-.91,4.05-4,3.62-3.21.65S527.82,402.14,527.1,405.36Z" fill="#fff"/><path d="M489.63,402.35a19.72,19.72,0,0,0,3.95,6.19c13.08-17.91,41.56-13.89,52.84,1.46l.8-.59C533.15,389.37,504.9,386.19,489.63,402.35Z" fill="#23031b" opacity="0.15" style="mix-blend-mode:multiply"/><path d="M546.17,413.35a55.9,55.9,0,0,1-14.69,5.52,51,51,0,0,1-15.74,1,38.34,38.34,0,0,1-15.08-4.69,26.28,26.28,0,0,1-3.28-2.23l-1.55-1.26c-.49-.43-.92-.94-1.38-1.41a21.72,21.72,0,0,1-4.23-6.62,25.81,25.81,0,0,0,10.94,10.62,39.17,39.17,0,0,0,14.72,4.26,53.79,53.79,0,0,0,15.4-.69A72.37,72.37,0,0,0,546.17,413.35Z" fill="#da634d"/><path d="M547.22,409.41C537.86,391.66,506.76,383,487.46,399l2.76,4.69c23.76-20,52.33-3.44,56.19,6.32Z" fill="#23031b"/></g></g></g></svg>