<svg xmlns="http://www.w3.org/2000/svg" xmlns:xlink="http://www.w3.org/1999/xlink" viewBox="0 0 1080 1920"><defs><linearGradient id="linear-gradient" x1="721.89" y1="1526.2" x2="721.89" y2="1509.65" gradientTransform="matrix(0.99, -0.15, -0.15, -0.99, 155.59, 2025.86)" gradientUnits="userSpaceOnUse"><stop offset="0" stop-color="#ffc596"/><stop offset="0.5" stop-color="#fdc091"/><stop offset="1" stop-color="#fdae91"/></linearGradient><linearGradient id="linear-gradient-2" x1="552.19" y1="426.7" x2="552.19" y2="401.51" gradientTransform="translate(155.59 -96.37) rotate(8.81)" xlink:href="#linear-gradient"/><clipPath id="clip-path"><path d="M661.29,409.23c-7.07,13.47-31.65,16.08-48.42,3.82a36,36,0,0,1-3.48-2.87,25.18,25.18,0,0,1,2-3.14C622.5,391.82,648.52,393.73,661.29,409.23Z" fill="none"/></clipPath><linearGradient id="linear-gradient-3" x1="884.59" y1="1500.97" x2="884.59" y2="1484.43" gradientTransform="translate(1164.27 2025.86) rotate(-171.19)" xlink:href="#linear-gradient"/><linearGradient id="linear-gradient-4" x1="714.88" y1="401.47" x2="714.88" y2="376.29" gradientTransform="matrix(-0.99, 0.15, 0.15, 0.99, 1164.27, -96.37)" xlink:href="#linear-gradient"/><clipPath id="clip-path-2"><path d="M493.93,409.23c7.07,13.47,31.65,16.08,48.42,3.82a36,36,0,0,0,3.48-2.87,25.23,25.23,0,0,0-2-3.14C532.72,391.82,506.7,393.73,493.93,409.23Z" fill="none"/></clipPath></defs><g style="isolation:isolate"><g id="eyes"><g id="_5" data-name="5"><g opacity="0.35"><path d="M611.18,410.79c9.76,17.8,42,15.78,49-.61Z" fill="url(#linear-gradient)" style="mix-blend-mode:multiply"/><path d="M621.28,388.75c-5.7,3.84-11.91,14.76-11.89,21.43l1.76.77C612.55,403.64,614.78,395.18,621.28,388.75Z" fill="#da634d"/><path d="M621,421.75c-4.36-1.43-10.34-7.31-11.54-11.6l1-.81C612.65,413.78,615.62,418.8,621,421.75Z" fill="#da634d"/><path d="M611.89,406.17c9.76-30.47,42-27,49,1Z" fill="url(#linear-gradient-2)" style="mix-blend-mode:multiply"/><path d="M661.29,409.23a17.72,17.72,0,0,1-4.09,5.13c-9.91,8.78-30,9.18-44.33-1.31a35.45,35.45,0,0,1-2.82-2.27c-.23-.19-.44-.39-.66-.6a25.18,25.18,0,0,1,2-3.14C622.5,391.82,648.52,393.73,661.29,409.23Z" fill="#f0edfe"/></g><path d="M610.26,410c.49-.73,10.26-14.61,27.18-13.68,14.77.81,22.81,12.24,23.72,13.59a33.24,33.24,0,0,1-14.09,8.91c-12,3.76-22.66-.91-26.73-2.7A45,45,0,0,1,610.26,410Z" fill="#fff"/><g clip-path="url(#clip-path)"><path d="M647.5,408.32A12.53,12.53,0,1,1,637,394,12.52,12.52,0,0,1,647.5,408.32Z" fill="#0071bc"/><path d="M640.35,407.21a5.29,5.29,0,1,1-4.42-6A5.29,5.29,0,0,1,640.35,407.21Z" fill="#23031b"/></g><path d="M612.87,413.05a36,36,0,0,1-3.48-2.87,25.18,25.18,0,0,1,2-3.14C613.46,409,614.19,411,612.87,413.05Z" fill="#da634d"/><path d="M638.37,410.08c1.18-3.52,3.89-2.84,2.91-.28S637.43,412.88,638.37,410.08Z" fill="#fff"/><path d="M661.29,409.23a17.72,17.72,0,0,1-4.09,5.13c-10-17.14-35.7-16.2-47.15-3.58-.23-.19-.44-.39-.66-.6a25.18,25.18,0,0,1,2-3.14C622.5,391.82,648.52,393.73,661.29,409.23Z" fill="#23031b" opacity="0.15" style="mix-blend-mode:multiply"/><path d="M609.38,410.18a52.77,52.77,0,0,0,12.27,7.12,41.29,41.29,0,0,0,13.7,3.09,33.69,33.69,0,0,0,13.82-2,26.92,26.92,0,0,0,11.47-8c-.74.93-1.4,1.94-2.23,2.81l-1.93,1.9-.72.55a21.57,21.57,0,0,1-3,2l-1.58.89-1.67.72a33.19,33.19,0,0,1-14.22,2.34,40.07,40.07,0,0,1-14-3.45A43.19,43.19,0,0,1,609.38,410.18Z" fill="#da634d"/><path d="M609.38,410.18c10.31-19.82,38.8-24.73,54.15-3.75l-2.89,3.93c-19.39-24-46.32-10.95-50.59.42Z" fill="#23031b"/><g opacity="0.35"><path d="M544,410.79c-9.77,17.8-42,15.78-49-.61Z" fill="url(#linear-gradient-3)" style="mix-blend-mode:multiply"/><path d="M533.94,388.75c5.7,3.84,11.91,14.76,11.89,21.43l-1.76.77C542.67,403.64,540.44,395.18,533.94,388.75Z" fill="#da634d"/><path d="M534.25,421.75c4.37-1.43,10.34-7.31,11.55-11.6l-1-.81C542.57,413.78,539.6,418.8,534.25,421.75Z" fill="#da634d"/><path d="M543.33,406.17c-9.77-30.47-42-27-49,1Z" fill="url(#linear-gradient-4)" style="mix-blend-mode:multiply"/><path d="M493.93,409.23a17.72,17.72,0,0,0,4.09,5.13c9.91,8.78,30,9.18,44.33-1.31,1-.7,1.91-1.46,2.82-2.27.23-.19.44-.39.66-.6a25.23,25.23,0,0,0-2-3.14C532.72,391.82,506.7,393.73,493.93,409.23Z" fill="#f0edfe"/></g><path d="M545.48,410.45c-.49-.73-10.26-14.61-27.18-13.68-14.77.81-22.81,12.24-23.72,13.59a33.24,33.24,0,0,0,14.09,8.91c12,3.76,22.66-.91,26.73-2.7A45,45,0,0,0,545.48,410.45Z" fill="#fff"/><g clip-path="url(#clip-path-2)"><path d="M507.72,408.32A12.53,12.53,0,1,0,518.18,394,12.52,12.52,0,0,0,507.72,408.32Z" fill="#0071bc"/><path d="M514.86,407.21a5.3,5.3,0,1,0,4.43-6A5.3,5.3,0,0,0,514.86,407.21Z" fill="#23031b"/></g><path d="M542.35,413.05a36,36,0,0,0,3.48-2.87,25.23,25.23,0,0,0-2-3.14C541.75,409,541,411,542.35,413.05Z" fill="#da634d"/><path d="M526.51,409.54c-1.18,3.52-3.89,2.84-2.91.28S527.45,406.74,526.51,409.54Z" fill="#fff"/><path d="M493.93,409.23a17.72,17.72,0,0,0,4.09,5.13c10-17.14,35.69-16.2,47.15-3.58.23-.19.44-.39.66-.6a25.23,25.23,0,0,0-2-3.14C532.72,391.82,506.7,393.73,493.93,409.23Z" fill="#23031b" opacity="0.15" style="mix-blend-mode:multiply"/><path d="M545.83,410.18a43,43,0,0,1-11.91,8,40,40,0,0,1-14,3.45,33.19,33.19,0,0,1-14.22-2.34l-1.67-.72-1.58-.89a21,21,0,0,1-3-2l-.72-.55-1.93-1.9c-.83-.87-1.5-1.88-2.23-2.81a26.92,26.92,0,0,0,11.47,8,33.65,33.65,0,0,0,13.82,2,41.29,41.29,0,0,0,13.69-3.09A52.56,52.56,0,0,0,545.83,410.18Z" fill="#da634d"/><path d="M545.83,410.18c-10.31-19.82-38.79-24.73-54.14-3.75l2.89,3.93c19.39-24,46.32-10.95,50.59.42Z" fill="#23031b"/></g></g></g></svg>