<svg id="goggles" xmlns="http://www.w3.org/2000/svg" viewBox="0 0 1080 1920"><g id="_1" data-name="1"><path d="M521,377.87c-15.45-4.28-39.61-2.39-51.57,4.51-10.59,6.12-20.91,20.2-18.53,37.78s11.29,32.46,25.9,40.39c15.38,8.36,25.64,7.26,37.54,5.47a44.17,44.17,0,0,0,33.51-25.19c6.89-14.73,6.17-30.65,3.08-39.44S536.45,382.14,521,377.87Z" fill="#fff" opacity="0.17"/><path d="M687.06,376.23c-15-4.9-29.42-7.59-50.75-3.66s-32,15.72-35.64,16-13.43-4.36-23.31-4.36-19.71,4.6-23.39,4.36-14.33-12.05-35.67-16-35.74-1.24-50.7,3.66-22.74,11.27-36.47,11.27V403s8.34.24,9.32,5.15,4.17,27,15.2,40.7,23,22.9,43.9,23.79c22.93,1,38.4-8.58,46.78-18.15,11.8-13.48,16.72-34.33,17.94-44.14,0,0-5.1-2.7-3.14-8.34,1.55-4.46,6.35-5.39,16.23-5.39s14.61.93,16.16,5.39c2,5.64-3.22,8.34-3.22,8.34,1.23,9.81,6.15,30.66,18,44.14,8.37,9.57,23.85,19.13,46.78,18.15,20.92-.89,32.88-10,43.92-23.79s14.26-35.8,15.24-40.7,9.39-5.15,9.39-5.15V387.5C709.76,387.5,702,381.13,687.06,376.23Zm-139.2,64.6A44.17,44.17,0,0,1,514.35,466c-11.9,1.79-22.16,2.89-37.54-5.47-14.61-7.93-23.52-22.81-25.9-40.39s7.94-31.66,18.53-37.78c12-6.9,36.12-8.79,51.57-4.51s26.85,14.73,29.93,23.52S554.75,426.1,547.86,440.83Zm155.8-20.67c-2.37,17.58-11.29,32.46-25.9,40.39-15.38,8.36-25.63,7.26-37.54,5.47a44.14,44.14,0,0,1-33.5-25.19c-6.89-14.73-6.18-30.65-3.09-39.44s14.49-19.25,29.94-23.52,39.6-2.39,51.56,4.51C695.72,388.5,706,402.58,703.66,420.16Z" fill="#323232"/><path d="M685.13,382.38c-12-6.9-36.12-8.79-51.56-4.51s-26.85,14.73-29.94,23.52-3.8,24.71,3.09,39.44A44.14,44.14,0,0,0,640.22,466c11.91,1.79,22.16,2.89,37.54-5.47,14.61-7.93,23.53-22.81,25.9-40.39S695.72,388.5,685.13,382.38Z" fill="#fff" opacity="0.17"/></g></svg>