<svg id="goggles" xmlns="http://www.w3.org/2000/svg" viewBox="0 0 1080 1920"><g id="_11" data-name="11"><path d="M605,374c-26.83,11.73-22.92,11.73-49.75,0-57.63-25.22-119.2,4.64-119.2,4.64s3.31,15.75,6.2,18.94,7.62-3.8,10.84,10.42c2.49,11,13.58,42,27,50.33,14.55,9,44.58,11,62.74-.45,29.65-18.69,26.22-49.2,37.26-49.88,11,.68,7.62,31.19,37.25,49.88,18.17,11.44,48.2,9.41,62.76.45,13.44-8.29,24.55-39.3,27-50.33,3.2-14.22,7.94-7.25,10.83-10.42s6.19-18.94,6.19-18.94S662.68,348.81,605,374Zm-82.36,82.06c-28.07,4.09-44.58-2.72-55.93-33.1-1.69-4.53-9.39-27.2-7.12-36.5S476.28,375.6,490.9,374c20.92-2.27,70,1.59,71.41,24.48S550.76,452,522.68,456.09ZM693.59,423c-11.35,30.38-27.87,37.19-55.94,33.1S596.58,421.41,598,398.51s50.51-26.75,71.42-24.48c14.62,1.57,29,3.17,31.28,12.46S695.28,418.46,693.59,423Z" fill="#333"/><path d="M466.75,423c-1.69-4.52-9.39-27.2-7.12-36.5S476.28,375.61,490.9,374c20.92-2.27,70,1.58,71.42,24.48s-11.56,53.5-39.63,57.58S478.1,453.37,466.75,423Z" fill="#666" opacity="0.75"/><path d="M693.59,423c1.69-4.52,9.39-27.2,7.12-36.5S684.06,375.61,669.44,374c-20.91-2.27-70,1.58-71.42,24.48s11.56,53.5,39.64,57.58S682.24,453.37,693.59,423Z" fill="#666" opacity="0.75"/><g opacity="0.45"><path d="M522.69,456.09c13.66-2,23.75-10.25,30.34-20.86-11.48-6.65-26.18-10.64-42.21-10.64a86.06,86.06,0,0,0-39.36,9.08C482.59,455,498.27,459.64,522.69,456.09Z" fill="#555"/><path d="M637.66,456.09c24.42,3.55,40.09-1.14,51.22-22.42a86.06,86.06,0,0,0-39.36-9.08c-16,0-30.73,4-42.21,10.64C613.9,445.84,624,454.11,637.66,456.09Z" fill="#555"/></g></g></svg>