<svg id="goggles" xmlns="http://www.w3.org/2000/svg" viewBox="0 0 1080 1920"><g id="_12" data-name="12"><path d="M605.61,374.8c-26.83,11.75-22.91,11.75-49.74,0-57.65-25.22-119.2,4.65-119.2,4.65s3.29,15.76,6.19,18.93,7.61-3.79,10.83,10.43c2.49,11,13.6,42.05,27,50.33,14.55,9,44.59,11,62.75-.45,29.64-18.69,26.21-49.19,37.25-49.88,11,.69,7.62,31.19,37.27,49.88,18.15,11.45,48.19,9.41,62.74.45,13.45-8.28,24.55-39.3,27-50.33,3.22-14.22,7.94-7.26,10.84-10.43s6.19-18.93,6.19-18.93S663.25,349.58,605.61,374.8Zm-82.35,82.07c-28.08,4.08-44.59-2.72-55.94-33.1-1.7-4.52-9.4-27.2-7.13-36.5s16.66-10.88,31.28-12.47c20.91-2.26,70,1.59,71.42,24.49S551.32,452.79,523.26,456.87Zm170.9-33.1c-11.36,30.38-27.86,37.18-55.94,33.1s-41.07-34.68-39.63-57.58,50.5-26.75,71.42-24.49c14.62,1.59,29,3.17,31.27,12.47S695.85,419.25,694.16,423.77Z" fill="#333"/><path d="M467.31,423.77c-1.69-4.53-9.39-27.2-7.12-36.5s16.65-10.88,31.27-12.47c20.92-2.26,70,1.59,71.42,24.49s-11.56,53.5-39.63,57.58S478.67,454.15,467.31,423.77Z" fill="#333" opacity="0.75"/><path d="M694.16,423.77c1.69-4.53,9.39-27.2,7.12-36.5S684.63,376.39,670,374.8c-20.92-2.26-70,1.59-71.42,24.49s11.56,53.5,39.63,57.58S682.8,454.15,694.16,423.77Z" fill="#333" opacity="0.75"/></g></svg>