<svg id="goggles" xmlns="http://www.w3.org/2000/svg" viewBox="0 0 1080 1920"><g id="_13" data-name="13"><path d="M723,379c-32.26-16.49-102.44-9.27-121.11,0a52.11,52.11,0,0,1-45,0c-18.68-9.27-88.85-16.49-121.11,0,0,0-2,22.85,2.26,27s6.66,2.22,9.49,16.18c2.9,14.33,9.54,30.87,36.5,33.79,23.49,2.54,58.71,2.7,69.19-8.09S565.65,414.18,569,409.1c6.61-9.88,14.05-9.88,20.66,0,3.4,5.08,5.38,27.92,15.85,38.71s45.7,10.63,69.19,8.09c27-2.92,33.59-19.46,36.5-33.79,2.83-14,5.23-12.05,9.48-16.18S723,379,723,379ZM548,442c-10.33,9.91-72.37,13.09-85.31-4.76s-9.73-43.83-3.19-51.17c9.33-10.46,76.83-7.14,92.75,3.34C560.19,394.68,555.44,434.84,548,442Zm148.14-4.76c-13,17.85-75,14.67-85.32,4.76-7.48-7.18-12.22-47.34-4.24-52.59,15.92-10.48,83.4-13.8,92.74-3.34C705.82,393.43,709.05,419.41,696.1,437.26Z" fill="#333"/><path d="M459.46,386.1c9.34-10.47,76.83-7.14,92.75,3.33,8,5.25,3.23,45.41-4.25,52.59-10.33,9.91-72.37,13.09-85.32-4.76S452.92,393.43,459.46,386.1Z" fill="#666" opacity="0.75"/><path d="M699.28,386.1c-9.33-10.47-76.83-7.14-92.74,3.33-8,5.25-3.24,45.41,4.24,52.59,10.33,9.91,72.37,13.09,85.32-4.76S705.82,393.43,699.28,386.1Z" fill="#666" opacity="0.75"/><g opacity="0.45"><path d="M548,442c1.91-1.83,3.63-5.8,5-10.79-11.5-7.39-28.7-12.08-47.94-12.08-18.43,0-35,4.31-46.48,11.18a42.66,42.66,0,0,0,4.08,6.93C475.59,455.11,537.63,451.93,548,442Z" fill="#555"/><path d="M610.78,442c10.33,9.91,72.37,13.09,85.32-4.76a42.66,42.66,0,0,0,4.08-6.93c-11.47-6.87-28-11.18-46.48-11.18-19.23,0-36.44,4.69-47.94,12.08C607.15,436.22,608.88,440.19,610.78,442Z" fill="#555"/></g></g></svg>