<svg id="goggles" xmlns="http://www.w3.org/2000/svg" viewBox="0 0 1080 1920"><g id="_14" data-name="14"><path d="M723.25,375.06c-32.26-16.5-102.44-9.28-121.12,0a52.11,52.11,0,0,1-45,0c-18.67-9.28-88.85-16.5-121.11,0,0,0-2,22.84,2.27,27s6.64,2.21,9.47,16.17c2.91,14.33,9.55,30.88,36.51,33.79,23.48,2.55,58.72,2.7,69.18-8.09s12.45-33.63,15.86-38.7c6.61-9.89,14-9.89,20.66,0,3.39,5.07,5.37,27.92,15.84,38.7S651.51,454.55,675,452c27-2.91,33.59-19.46,36.5-33.79,2.83-14,5.24-12,9.48-16.17S723.25,375.06,723.25,375.06Zm-175,63.06c-10.32,9.91-72.37,13.09-85.32-4.76s-9.72-43.83-3.18-51.16c9.34-10.47,76.83-7.14,92.74,3.33C560.45,390.79,555.7,431,548.22,438.12Zm148.14-4.76c-12.94,17.85-75,14.67-85.32,4.76-7.48-7.17-12.23-47.33-4.24-52.59,15.92-10.47,83.41-13.8,92.75-3.33C706.08,389.53,709.31,415.52,696.36,433.36Z" fill="#333"/><path d="M459.72,382.2c9.34-10.47,76.83-7.14,92.75,3.33,8,5.25,3.23,45.41-4.25,52.59-10.33,9.92-72.37,13.09-85.31-4.76S453.18,389.53,459.72,382.2Z" fill="#fff" opacity="0.35"/><path d="M699.55,382.2c-9.34-10.47-76.83-7.14-92.75,3.33-8,5.25-3.24,45.41,4.24,52.59,10.33,9.92,72.38,13.09,85.32-4.76S706.08,389.53,699.55,382.2Z" fill="#fff" opacity="0.35"/></g></svg>