<svg id="goggles" xmlns="http://www.w3.org/2000/svg" viewBox="0 0 1080 1920"><g id="_15" data-name="15"><path d="M454.93,389.68c-2.18-2.65-8.62-.51-10.09,0a8.18,8.18,0,0,0-8.18,8.18h0a8.18,8.18,0,0,0,8.18,8.18c1.07.39,7.54,2.72,10.09,0,1.28-1.36.33-2.66.51-11.18C455.51,391.55,455.68,390.59,454.93,389.68Z" fill="#333"/><path d="M716.63,389.68c-.31-.15-5.92-2.81-10.09,0-5.07,3.42-5.07,12.94,0,16.36,4.17,2.81,9.78.15,10.09,0a8.18,8.18,0,0,0,8.18-8.18h0A8.18,8.18,0,0,0,716.63,389.68Z" fill="#333"/><path d="M558.78,398.26c14.82-18.58,29.09-18.58,43.91,0q-.29-6.66-.56-13.31a30.06,30.06,0,0,0-21.39-9.73c-13.4-.17-21.53,9-22.64,10.32Q558.45,391.9,558.78,398.26Z" fill="#333"/><path d="M508.46,338.42a59.44,59.44,0,1,0,59.43,59.44A59.45,59.45,0,0,0,508.46,338.42Zm0,109.41a50,50,0,1,1,50-50A50,50,0,0,1,508.46,447.83Z" fill="#333"/><path d="M653,338.42a59.44,59.44,0,1,0,59.44,59.44A59.44,59.44,0,0,0,653,338.42Zm0,109.41a50,50,0,1,1,50-50A50,50,0,0,1,653,447.83Z" fill="#333"/><circle cx="653.02" cy="397.86" r="49.97" transform="translate(146.65 970.85) rotate(-79.88)" fill="#666" opacity="0.57"/><circle cx="508.46" cy="397.86" r="49.97" transform="translate(-1.43 793.89) rotate(-75.88)" fill="#666" opacity="0.57"/><g opacity="0.28"><path d="M508.46,447.83a50,50,0,0,0,47.69-35,69.54,69.54,0,0,0-95.38,0A50,50,0,0,0,508.46,447.83Z" fill="#555"/><path d="M653,447.83a50,50,0,0,0,47.69-35,69.55,69.55,0,0,0-95.39,0A50,50,0,0,0,653,447.83Z" fill="#555"/></g></g></svg>