<svg id="goggles" xmlns="http://www.w3.org/2000/svg" viewBox="0 0 1080 1920"><g id="_16" data-name="16"><path d="M510.39,371.54c-15.95,0-31.82,0-41.35,6.59,0,0-17.75,12.67-6.44,50,2.63,8.68,4.06,15.51,10.23,19.67,7.33,4.92,15.11,5.77,24.91,6,17.57.36,40-1.13,47.35-8.37C560,430.72,565.71,391.27,556.17,382,550.83,376.79,530.74,371.52,510.39,371.54Z" fill="#fff" opacity="0.17"/><path d="M713.08,368.85c-9.11-1.55-69-9.1-99.68-1-41.84,11-25.69,11-67.54,0-30.7-8.06-90.57-.51-99.68,1s-11.42,3.6-10.39,10.48c.83,5.57,2.23,6.7,7.39,10.48s8.68,28.19,14.18,45.55S463.2,458.9,507,458.9c23,0,35.73-3.21,43.64-10,10-8.6,12-21.72,13.85-27.7,3.38-10.71,5.07-20.2,7.48-25.7,3.91-8.93,11.38-8.93,15.29,0,2.41,5.5,4.1,15,7.48,25.7,1.89,6,3.87,19.1,13.85,27.7,7.9,6.81,20.63,10,43.63,10,43.83,0,44.17-6.19,49.67-23.54s9-41.77,14.18-45.55,6.55-4.91,7.39-10.48C724.51,372.45,722.19,370.39,713.08,368.85Zm-168,76.56c-7.37,7.24-29.78,8.73-47.35,8.37-9.8-.2-17.58-1-24.91-6-6.17-4.16-7.6-11-10.23-19.67-11.31-37.34,6.44-50,6.44-50,9.53-6.58,25.4-6.58,41.35-6.59,20.35,0,40.44,5.25,45.78,10.45C565.71,391.27,560,430.72,545.09,445.41Zm151.58-17.27c-2.63,8.68-4.06,15.51-10.24,19.67-7.32,4.92-15.1,5.77-24.91,6-17.56.36-40-1.13-47.34-8.37-14.95-14.69-20.63-54.14-11.09-63.42,5.35-5.2,25.44-10.47,45.79-10.45,15.94,0,31.82,0,41.35,6.59C690.23,378.13,708,390.8,696.67,428.14Z" fill="#333"/><path d="M690.23,378.13c-9.53-6.58-25.41-6.58-41.35-6.59-20.35,0-40.44,5.25-45.79,10.45-9.54,9.28-3.86,48.73,11.09,63.42,7.37,7.24,29.78,8.73,47.34,8.37,9.81-.2,17.59-1,24.91-6,6.18-4.16,7.61-11,10.24-19.67C708,390.8,690.23,378.13,690.23,378.13Z" fill="#fff" opacity="0.17"/></g></svg>