<svg id="goggles" xmlns="http://www.w3.org/2000/svg" viewBox="0 0 1080 1920"><g id="_17" data-name="17"><path d="M607.54,364.41h-51a2,2,0,0,0-2,2V369h55v-2.52A2,2,0,0,0,607.54,364.41Z"/><rect x="567.35" y="388.72" width="29.4" height="4.33"/><path d="M531.6,459.66c-31.73,19.52-61.51,8-71.86-3.24-10.56-11.44-19.47-42.9-14-67.77,7.91-36.19,100-28.42,113.52-17.27C573.5,383.15,571.67,435,531.6,459.66Z" fill="#666" opacity="0.57"/><path d="M496.22,472.34a60.66,60.66,0,0,1-8.88-.64c-14-2-24.25-8.47-29.19-13.82-11.37-12.31-20-44.74-14.55-69.69C445.82,378.05,454,370.45,468,365.6c13.77-4.76,33.4-6.65,53.88-5.2,18.21,1.3,33.39,5,38.68,9.32,6.36,5.24,9.71,17.17,8.74,31.13a78.58,78.58,0,0,1-9.59,32.27,75.87,75.87,0,0,1-27,28.37l-1.13-1.83,1.13,1.83C519,470,506.22,472.34,496.22,472.34Zm12.25-108.07c-13.69,0-27.8,1.53-39,5.41C457,374,449.69,380.54,447.82,389.11c-2.44,11.14-2.08,24.62,1,38,2.76,12,7.43,22.39,12.49,27.86,8.72,9.46,37.11,22.59,69.15,2.87h0A71.57,71.57,0,0,0,556,431,74.37,74.37,0,0,0,565,400.56c.85-12.41-2-23.21-7.18-27.51C552.2,368.38,530.89,364.27,508.47,364.27Z"/><path d="M632.49,459.66c31.74,19.52,61.51,8,71.87-3.24,10.56-11.44,19.47-42.9,14-67.77-7.92-36.19-100-28.42-113.52-17.27C590.6,383.15,592.43,435,632.49,459.66Z" fill="#666" opacity="0.57"/><path d="M631.36,461.49l1.13-1.83-1.13,1.83a75.76,75.76,0,0,1-27-28.37,78.75,78.75,0,0,1-9.6-32.27c-1-14,2.39-25.89,8.74-31.13,5.3-4.37,20.48-8,38.68-9.32,20.48-1.45,40.12.44,53.88,5.2,14,4.85,22.23,12.45,24.45,22.59,5.45,24.95-3.19,57.38-14.56,69.69-4.93,5.35-15.19,11.79-29.19,13.82a60.45,60.45,0,0,1-8.88.64C657.87,472.34,645.12,470,631.36,461.49Zm-25.12-88.44c-5.22,4.3-8,15.1-7.18,27.51A74.22,74.22,0,0,0,608.13,431a71.62,71.62,0,0,0,25.49,26.78h0c32,19.72,60.43,6.59,69.15-2.87,5.06-5.47,9.73-15.89,12.5-27.86,3.09-13.36,3.44-26.84,1-38-1.88-8.57-9.16-15.11-21.64-19.43-11.22-3.88-25.32-5.41-39-5.41C633.21,364.27,611.9,368.38,606.24,373.05Z"/></g></svg>