<svg xmlns="http://www.w3.org/2000/svg" xmlns:xlink="http://www.w3.org/1999/xlink" viewBox="0 0 1080 1920"><defs><linearGradient id="Degradado_sin_nombre_302" x1="430.89" y1="403.17" x2="395.29" y2="402.85" gradientUnits="userSpaceOnUse"><stop offset="0.22"/><stop offset="0.55" stop-color="#373737"/><stop offset="0.8"/></linearGradient><linearGradient id="Degradado_sin_nombre_302-2" x1="922.85" y1="402.52" x2="887.25" y2="402.21" gradientTransform="matrix(-1, 0, 0, 1, 1633.02, 0)" xlink:href="#Degradado_sin_nombre_302"/><linearGradient id="Degradado_sin_nombre_1284" x1="435.13" y1="427.2" x2="435.13" y2="364.04" gradientUnits="userSpaceOnUse"><stop offset="0"/><stop offset="0.27" stop-color="#111"/><stop offset="0.79" stop-color="#3c3c3c"/><stop offset="0.92" stop-color="#494949"/></linearGradient><linearGradient id="Degradado_sin_nombre_1284-2" x1="1053.54" y1="427.2" x2="1053.54" y2="364.04" gradientTransform="matrix(1, 0, 0, -1, -347.6, 806.94)" xlink:href="#Degradado_sin_nombre_1284"/><clipPath id="clip-path"><path d="M472.39,451.72a1291.35,1291.35,0,0,0,196.29,0,29.37,29.37,0,0,0,27-26.78,253.92,253.92,0,0,0-.23-43.05,29.34,29.34,0,0,0-27-26.68,1291.27,1291.27,0,0,0-195.89,0,29.34,29.34,0,0,0-27,26.68,253.92,253.92,0,0,0-.23,43.05A29.37,29.37,0,0,0,472.39,451.72Z" fill="none"/></clipPath><linearGradient id="Degradado_sin_nombre_1034" x1="436.36" y1="403.47" x2="704.71" y2="403.47" gradientUnits="userSpaceOnUse"><stop offset="0" stop-color="#4a067a"/><stop offset="0.05" stop-color="#66139a"/><stop offset="0.1" stop-color="#8120b9"/><stop offset="0.16" stop-color="#972ad3"/><stop offset="0.23" stop-color="#a932e7"/><stop offset="0.31" stop-color="#b538f4"/><stop offset="0.41" stop-color="#bc3bfd"/><stop offset="0.58" stop-color="#be3cff"/><stop offset="0.65" stop-color="#bb3bfb"/><stop offset="0.73" stop-color="#b136f0"/><stop offset="0.8" stop-color="#a12edd"/><stop offset="0.87" stop-color="#8a24c3"/><stop offset="0.94" stop-color="#6c16a1"/><stop offset="1" stop-color="#4a067a"/></linearGradient><linearGradient id="Degradado_sin_nombre_1273" x1="469.9" y1="467.95" x2="697.93" y2="321.99" gradientUnits="userSpaceOnUse"><stop offset="0.07"/><stop offset="0.18"/><stop offset="0.27" stop-color="#6d6d6d"/><stop offset="0.4"/><stop offset="0.64"/><stop offset="0.75" stop-color="#6d6d6d"/><stop offset="0.85"/></linearGradient><linearGradient id="Degradado_sin_nombre_1263" x1="434.55" y1="403.47" x2="733.56" y2="403.47" gradientUnits="userSpaceOnUse"><stop offset="0.07"/><stop offset="0.18"/><stop offset="0.27" stop-color="#31312f"/><stop offset="0.4"/><stop offset="0.64"/><stop offset="0.73" stop-color="#333"/><stop offset="0.74" stop-color="#2e2e2e"/><stop offset="0.78" stop-color="#151515"/><stop offset="0.82" stop-color="#050505"/><stop offset="0.85"/></linearGradient><radialGradient id="Degradado_sin_nombre_1029" cx="609.47" cy="617.58" r="68.91" gradientTransform="matrix(1.42, 0, 0, 0.13, -299.82, 264.3)" gradientUnits="userSpaceOnUse"><stop offset="0" stop-color="#e6aeff"/><stop offset="0.27" stop-color="#be3cff"/><stop offset="0.34" stop-color="#a835e2"/><stop offset="0.49" stop-color="#712498"/><stop offset="0.71" stop-color="#190822"/><stop offset="0.77"/></radialGradient><radialGradient id="Degradado_sin_nombre_1029-2" cx="609.47" cy="716.29" r="68.91" gradientTransform="matrix(1.42, 0, 0, 0.13, -299.76, 360.18)" xlink:href="#Degradado_sin_nombre_1029"/></defs><g style="isolation:isolate"><g id="goggles"><g id="_18" data-name="18"><path d="M444.36,387.31a75.61,75.61,0,0,1-24.56-1.21c-.29,1.13-.56,2.26-.85,3.39a36.16,36.16,0,0,1-.41,10.07c0,1.16-.17,2.33-.21,3.49a65.37,65.37,0,0,0,.14,7,.17.17,0,0,0,0,.07c.21.9.24,2,.4,2.83.37,1.9.83,3.78,1.31,5.66a73.73,73.73,0,0,0,24.17,1C445.82,419.47,443.37,387.42,444.36,387.31Z" fill="url(#Degradado_sin_nombre_302)"/><path d="M423.05,386.74a5.39,5.39,0,0,0,1.62.48c1.05.26,2.59.54,4.51.81a116.14,116.14,0,0,0,15.06,1c5.89.07,11.21-.08,15.06-.19s6.22-.22,6.23-.36-2.38-.3-6.24-.37-9.17,0-15-.1-11.16-.34-15-.72S423.08,386.58,423.05,386.74Z" fill="#696969"/><path d="M728.51,397.57c-.78-4.26-1.55-8.53-2.27-12.81-1.46.48-2.94.89-4.42,1.23a75.39,75.39,0,0,1-25.11,1.32c1,.11-1.46,32.16,0,32.33,10.52,1.22,22.29.5,32.14-3.49,1-.4,2-.86,2.9-1.35C730.68,409.05,729.57,403.32,728.51,397.57Z" fill="url(#Degradado_sin_nombre_302-2)"/><path d="M723.45,385.61c-.05-.17-2.65.54-6.94,1.18-2.15.33-4.72.59-7.58.78s-6,.26-9.33.28c-6.63,0-12.66-.11-17,0-2.18.07-3.94.17-5.16.3a7.16,7.16,0,0,0-1.88.3c0,.16,2.7.08,7.05.12s10.35.25,17,.25c3.33,0,6.51-.13,9.39-.36a71.37,71.37,0,0,0,7.63-1c1.08-.17,2-.43,2.89-.63s1.56-.4,2.15-.59A6.74,6.74,0,0,0,723.45,385.61Z" fill="#696969"/><rect x="428.76" y="384.2" width="12.75" height="38.54" rx="3.96" fill="url(#Degradado_sin_nombre_1284)"/><rect x="699.57" y="384.2" width="12.75" height="38.54" rx="3.96" transform="translate(1411.88 806.94) rotate(180)" fill="url(#Degradado_sin_nombre_1284-2)"/><g clip-path="url(#clip-path)"><polygon points="697.05 350.36 696.9 350.25 697.05 350.25 697.05 350.36" fill="#20201f"/><polygon points="697.05 351.72 695.07 350.25 696.9 350.25 697.05 350.36 697.05 351.72" fill="#212120"/><polygon points="697.05 353.08 693.23 350.25 695.07 350.25 697.05 351.72 697.05 353.08" fill="#222221"/><polygon points="697.05 354.44 691.39 350.25 693.23 350.25 697.05 353.08 697.05 354.44" fill="#232322"/><polygon points="697.05 355.8 689.56 350.25 691.39 350.25 697.05 354.44 697.05 355.8" fill="#242423"/><polygon points="697.05 357.15 687.72 350.25 689.56 350.25 697.05 355.8 697.05 357.15" fill="#262624"/><polygon points="697.05 358.51 685.88 350.25 687.72 350.25 697.05 357.15 697.05 358.51" fill="#272725"/><polygon points="697.05 359.88 684.05 350.25 685.88 350.25 697.05 358.51 697.05 359.88" fill="#282827"/><polygon points="697.05 361.23 682.21 350.25 684.05 350.25 697.05 359.88 697.05 361.23" fill="#292928"/><polygon points="697.05 362.59 680.38 350.25 682.21 350.25 697.05 361.23 697.05 362.59" fill="#2a2a29"/><polygon points="697.05 363.95 678.54 350.25 680.38 350.25 697.05 362.59 697.05 363.95" fill="#2b2b2a"/><polygon points="697.05 365.31 676.7 350.25 678.54 350.25 697.05 363.95 697.05 365.31" fill="#2c2c2b"/><polygon points="697.05 366.67 674.87 350.25 676.7 350.25 697.05 365.31 697.05 366.67" fill="#2d2d2c"/><polygon points="697.05 368.03 673.03 350.25 674.87 350.25 697.05 366.67 697.05 368.03" fill="#2e2e2d"/><polygon points="697.05 369.39 671.2 350.25 673.03 350.25 697.05 368.03 697.05 369.39" fill="#30302e"/><polygon points="697.05 370.75 669.36 350.25 671.2 350.25 697.05 369.39 697.05 370.75" fill="#313131"/><polygon points="697.05 372.11 667.52 350.25 669.36 350.25 697.05 370.75 697.05 372.11" fill="#323232"/><polygon points="697.05 373.47 665.69 350.25 667.52 350.25 697.05 372.11 697.05 373.47" fill="#333"/><polygon points="697.05 374.83 663.85 350.25 665.69 350.25 697.05 373.47 697.05 374.83" fill="#343434"/><polygon points="697.05 376.19 662.01 350.25 663.85 350.25 697.05 374.83 697.05 376.19" fill="#353535"/><polygon points="697.05 377.55 660.18 350.25 662.01 350.25 697.05 376.19 697.05 377.55" fill="#363636"/><polygon points="697.05 378.91 658.34 350.25 660.18 350.25 697.05 377.55 697.05 378.91" fill="#373737"/><polygon points="697.05 380.27 656.5 350.25 658.34 350.25 697.05 378.91 697.05 380.27" fill="#383838"/><polygon points="697.05 381.63 654.67 350.25 656.5 350.25 697.05 380.27 697.05 381.63" fill="#393939"/><polygon points="697.05 382.99 652.83 350.25 654.67 350.25 697.05 381.63 697.05 382.99" fill="#3b3b3b"/><polygon points="697.05 384.35 651 350.25 652.83 350.25 697.05 382.99 697.05 384.35" fill="#3c3c3c"/><polygon points="697.05 385.71 649.16 350.25 651 350.25 697.05 384.35 697.05 385.71" fill="#3d3d3d"/><polygon points="697.05 387.07 647.32 350.25 649.16 350.25 697.05 385.71 697.05 387.07" fill="#3e3e3e"/><polygon points="697.05 388.43 645.49 350.25 647.32 350.25 697.05 387.07 697.05 388.43" fill="#3f3f3f"/><polygon points="697.05 389.79 643.65 350.25 645.49 350.25 697.05 388.43 697.05 389.79" fill="#404040"/><polygon points="697.05 391.15 641.82 350.25 643.65 350.25 697.05 389.79 697.05 391.15" fill="#414141"/><polygon points="697.05 392.51 639.98 350.25 641.82 350.25 697.05 391.15 697.05 392.51" fill="#424242"/><polygon points="697.05 393.87 638.14 350.25 639.98 350.25 697.05 392.51 697.05 393.87" fill="#434343"/><polygon points="697.05 394.72 636.99 350.25 638.14 350.25 697.05 393.87 697.05 394.72" fill="#434343"/><polygon points="697.05 395.58 635.83 350.25 636.99 350.25 697.05 394.72 697.05 395.58" fill="#424242"/><polygon points="697.05 396.44 634.67 350.25 635.83 350.25 697.05 395.58 697.05 396.44" fill="#414141"/><polygon points="697.05 397.29 633.51 350.25 634.67 350.25 697.05 396.44 697.05 397.29" fill="#404040"/><polygon points="697.05 398.15 632.36 350.25 633.51 350.25 697.05 397.29 697.05 398.15" fill="#3f3f3f"/><polygon points="697.05 399.01 631.2 350.25 632.36 350.25 697.05 398.15 697.05 399.01" fill="#3e3e3e"/><polygon points="697.05 399.86 630.04 350.25 631.2 350.25 697.05 399.01 697.05 399.86" fill="#3d3d3d"/><polygon points="697.05 400.72 628.88 350.25 630.04 350.25 697.05 399.86 697.05 400.72" fill="#3c3c3c"/><polygon points="697.05 401.58 627.73 350.25 628.88 350.25 697.05 400.72 697.05 401.58" fill="#3b3b3b"/><polygon points="697.05 402.44 626.57 350.25 627.73 350.25 697.05 401.58 697.05 402.44" fill="#393939"/><polygon points="697.05 403.29 625.41 350.25 626.57 350.25 697.05 402.44 697.05 403.29" fill="#383838"/><polygon points="697.05 404.15 624.25 350.25 625.41 350.25 697.05 403.29 697.05 404.15" fill="#373737"/><polygon points="697.05 405.01 623.1 350.25 624.25 350.25 697.05 404.15 697.05 405.01" fill="#363636"/><polygon points="697.05 405.86 621.94 350.25 623.1 350.25 697.05 405.01 697.05 405.86" fill="#353535"/><polygon points="697.05 406.72 620.78 350.25 621.94 350.25 697.05 405.86 697.05 406.72" fill="#343434"/><polygon points="697.05 407.58 619.63 350.25 620.78 350.25 697.05 406.72 697.05 407.58" fill="#333"/><polygon points="697.05 408.43 618.47 350.25 619.63 350.25 697.05 407.58 697.05 408.43" fill="#323232"/><polygon points="697.05 409.29 617.31 350.25 618.47 350.25 697.05 408.43 697.05 409.29" fill="#313131"/><polygon points="697.05 410.15 616.15 350.25 617.31 350.25 697.05 409.29 697.05 410.15" fill="#30302e"/><polygon points="697.05 411 615 350.25 616.15 350.25 697.05 410.15 697.05 411" fill="#2e2e2d"/><polygon points="697.05 411.86 613.84 350.25 615 350.25 697.05 411 697.05 411.86" fill="#2d2d2c"/><polygon points="697.05 412.72 612.68 350.25 613.84 350.25 697.05 411.86 697.05 412.72" fill="#2c2c2b"/><polygon points="697.05 413.57 611.52 350.25 612.68 350.25 697.05 412.72 697.05 413.57" fill="#2b2b2a"/><polygon points="697.05 414.43 610.37 350.25 611.52 350.25 697.05 413.57 697.05 414.43" fill="#2a2a29"/><polygon points="697.05 415.29 609.21 350.25 610.37 350.25 697.05 414.43 697.05 415.29" fill="#292928"/><polygon points="697.05 416.15 608.05 350.25 609.21 350.25 697.05 415.29 697.05 416.15" fill="#282827"/><polygon points="697.05 417 606.89 350.25 608.05 350.25 697.05 416.15 697.05 417" fill="#272725"/><polygon points="697.05 417.86 605.74 350.25 606.89 350.25 697.05 417 697.05 417.86" fill="#262624"/><polygon points="697.05 418.72 604.58 350.25 605.74 350.25 697.05 417.86 697.05 418.72" fill="#242423"/><polygon points="697.05 419.57 603.42 350.25 604.58 350.25 697.05 418.72 697.05 419.57" fill="#232322"/><polygon points="697.05 420.43 602.26 350.25 603.42 350.25 697.05 419.57 697.05 420.43" fill="#222221"/><polygon points="697.05 421.29 601.11 350.25 602.26 350.25 697.05 420.43 697.05 421.29" fill="#212120"/><polygon points="697.05 422.14 599.95 350.25 601.11 350.25 697.05 421.29 697.05 422.14" fill="#20201f"/><polygon points="697.05 423 598.79 350.25 599.95 350.25 697.05 422.14 697.05 423" fill="#1f1f1e"/><polygon points="697.05 423.86 597.64 350.25 598.79 350.25 697.05 423 697.05 423.86" fill="#1e1e1c"/><polygon points="697.05 424.72 596.48 350.25 597.64 350.25 697.05 423.86 697.05 424.72" fill="#1c1c1b"/><polygon points="697.05 438.56 683.62 456.7 670.14 456.7 526.38 350.25 596.48 350.25 697.05 424.72 697.05 438.56" fill="#1c1c1b"/><polygon points="667.27 456.7 523.51 350.25 526.38 350.25 670.14 456.7 667.27 456.7" fill="#1c1c1b"/><polygon points="664.4 456.7 520.64 350.25 523.51 350.25 667.27 456.7 664.4 456.7" fill="#1e1e1c"/><polygon points="661.53 456.7 517.77 350.25 520.64 350.25 664.4 456.7 661.53 456.7" fill="#1f1f1e"/><polygon points="658.66 456.7 514.9 350.25 517.77 350.25 661.53 456.7 658.66 456.7" fill="#20201f"/><polygon points="655.79 456.7 512.03 350.25 514.9 350.25 658.66 456.7 655.79 456.7" fill="#212120"/><polygon points="652.92 456.7 509.17 350.25 512.03 350.25 655.79 456.7 652.92 456.7" fill="#222221"/><polygon points="650.06 456.7 506.3 350.25 509.17 350.25 652.92 456.7 650.06 456.7" fill="#232322"/><polygon points="647.19 456.7 503.43 350.25 506.3 350.25 650.06 456.7 647.19 456.7" fill="#242423"/><polygon points="644.32 456.7 500.56 350.25 503.43 350.25 647.19 456.7 644.32 456.7" fill="#262624"/><polygon points="641.45 456.7 497.69 350.25 500.56 350.25 644.32 456.7 641.45 456.7" fill="#272725"/><polygon points="638.58 456.7 494.82 350.25 497.69 350.25 641.45 456.7 638.58 456.7" fill="#282828"/><polygon points="635.71 456.7 491.95 350.25 494.82 350.25 638.58 456.7 635.71 456.7" fill="#292929"/><polygon points="632.84 456.7 489.08 350.25 491.95 350.25 635.71 456.7 632.84 456.7" fill="#2a2a2a"/><polygon points="629.97 456.7 486.21 350.25 489.08 350.25 632.84 456.7 629.97 456.7" fill="#2b2b2b"/><polygon points="627.1 456.7 483.34 350.25 486.21 350.25 629.97 456.7 627.1 456.7" fill="#2c2c2c"/><polygon points="624.23 456.7 480.47 350.25 483.34 350.25 627.1 456.7 624.23 456.7" fill="#2d2d2d"/><polygon points="621.36 456.7 477.6 350.25 480.47 350.25 624.23 456.7 621.36 456.7" fill="#2e2e2e"/><polygon points="618.49 456.7 474.73 350.25 477.6 350.25 621.36 456.7 618.49 456.7" fill="#303030"/><polygon points="615.62 456.7 471.86 350.25 474.73 350.25 618.49 456.7 615.62 456.7" fill="#313131"/><polygon points="612.75 456.7 468.99 350.25 471.86 350.25 615.62 456.7 612.75 456.7" fill="#323232"/><polygon points="609.88 456.7 466.12 350.25 468.99 350.25 612.75 456.7 609.88 456.7" fill="#333"/><polygon points="606.77 456.7 463.01 350.25 466.12 350.25 609.88 456.7 606.77 456.7" fill="#333"/><polygon points="603.66 456.7 459.9 350.25 463.01 350.25 606.77 456.7 603.66 456.7" fill="#313131"/><polygon points="600.54 456.7 457.36 350.68 457.67 350.25 459.9 350.25 603.66 456.7 600.54 456.7" fill="#2e2e2e"/><polygon points="597.43 456.7 456.25 352.16 457.36 350.68 600.54 456.7 597.43 456.7" fill="#2c2c2c"/><polygon points="594.31 456.7 455.15 353.65 456.25 352.16 597.43 456.7 594.31 456.7" fill="#2b2b2a"/><polygon points="591.2 456.7 454.05 355.14 455.15 353.65 594.31 456.7 591.2 456.7" fill="#292928"/><polygon points="588.09 456.7 452.94 356.63 454.05 355.14 591.2 456.7 588.09 456.7" fill="#272727"/><polygon points="584.97 456.7 451.84 358.12 452.94 356.63 588.09 456.7 584.97 456.7" fill="#262626"/><polygon points="581.86 456.7 450.74 359.61 451.84 358.12 584.97 456.7 581.86 456.7" fill="#242423"/><polygon points="578.74 456.7 449.64 361.1 450.74 359.61 581.86 456.7 578.74 456.7" fill="#232322"/><polygon points="575.63 456.7 448.53 362.59 449.64 361.1 578.74 456.7 575.63 456.7" fill="#222221"/><polygon points="572.52 456.7 447.43 364.08 448.53 362.59 575.63 456.7 572.52 456.7" fill="#212120"/><polygon points="569.4 456.7 446.33 365.57 447.43 364.08 572.52 456.7 569.4 456.7" fill="#20201f"/><polygon points="566.29 456.7 445.23 367.06 446.33 365.57 569.4 456.7 566.29 456.7" fill="#1f1f1e"/><polygon points="563.17 456.7 444.12 368.55 445.23 367.06 566.29 456.7 563.17 456.7" fill="#1f1f1e"/><polygon points="560.06 456.7 444.02 370.78 444.02 368.68 444.12 368.55 563.17 456.7 560.06 456.7" fill="#1e1e1c"/><polygon points="556.95 456.7 444.02 373.08 444.02 370.78 560.06 456.7 556.95 456.7" fill="#1e1e1c"/><polygon points="553.83 456.7 444.02 375.39 444.02 373.08 556.95 456.7 553.83 456.7" fill="#1c1c1b"/><polygon points="550.72 456.7 444.02 377.69 444.02 375.39 553.83 456.7 550.72 456.7" fill="#1c1c1b"/><polygon points="547.6 456.7 444.02 380 444.02 377.69 550.72 456.7 547.6 456.7" fill="#1c1c1b"/><polygon points="544.49 456.7 444.02 382.31 444.02 380 547.6 456.7 544.49 456.7" fill="#1c1c1b"/><polygon points="444.02 382.31 544.49 456.7 444.02 456.7 444.02 382.31" fill="#1c1c1b"/></g><path d="M570.53,463.65c-33,0-66-1.25-98.77-3.75a37.39,37.39,0,0,1-34.56-34.27,261.42,261.42,0,0,1,.23-44.46A37.42,37.42,0,0,1,472,347a1305,1305,0,0,1,197.13,0,37.42,37.42,0,0,1,34.54,34.15,261.42,261.42,0,0,1,.23,44.46,37.39,37.39,0,0,1-34.56,34.27C636.54,462.4,603.54,463.65,570.53,463.65Z" fill="url(#Degradado_sin_nombre_1034)"/><path d="M570.53,465.7c-33,0-66.26-1.26-98.92-3.75a39.44,39.44,0,0,1-36.45-36.14,261.53,261.53,0,0,1,.23-44.82,39.44,39.44,0,0,1,36.42-36,1305.33,1305.33,0,0,1,197.45,0,39.44,39.44,0,0,1,36.42,36,261.53,261.53,0,0,1,.23,44.82A39.43,39.43,0,0,1,669.46,462C636.8,464.44,603.51,465.7,570.53,465.7Zm0-120.36c-32.88,0-65.76,1.25-98.4,3.73a35.36,35.36,0,0,0-32.65,32.28,257.33,257.33,0,0,0-.23,44.11,35.34,35.34,0,0,0,32.67,32.39c32.56,2.49,65.74,3.75,98.61,3.75s66.06-1.26,98.62-3.75a35.34,35.34,0,0,0,32.67-32.39,257.33,257.33,0,0,0-.23-44.11,35.36,35.36,0,0,0-32.65-32.28C636.29,346.59,603.41,345.34,570.53,345.34Z" fill="url(#Degradado_sin_nombre_1273)"/><path d="M472.39,451.72a1291.35,1291.35,0,0,0,196.29,0,29.37,29.37,0,0,0,27-26.78,253.92,253.92,0,0,0-.23-43.05,29.34,29.34,0,0,0-27-26.68,1291.27,1291.27,0,0,0-195.89,0,29.34,29.34,0,0,0-27,26.68,253.92,253.92,0,0,0-.23,43.05A29.37,29.37,0,0,0,472.39,451.72Z" fill="url(#Degradado_sin_nombre_1263)"/><ellipse cx="567.28" cy="348.94" rx="96.41" ry="6.19" fill="url(#Degradado_sin_nombre_1029)" style="mix-blend-mode:screen"/><ellipse cx="567.28" cy="458" rx="96.41" ry="6.19" fill="url(#Degradado_sin_nombre_1029-2)" style="mix-blend-mode:screen"/></g></g></g></svg>