<svg id="goggles" xmlns="http://www.w3.org/2000/svg" xmlns:xlink="http://www.w3.org/1999/xlink" viewBox="0 0 1080 1920"><defs><linearGradient id="Gold_Dust" x1="456.62" y1="413.96" x2="557.03" y2="413.96" gradientUnits="userSpaceOnUse"><stop offset="0" stop-color="#ff7300"/><stop offset="0.18" stop-color="#f97c01"/><stop offset="0.47" stop-color="#ea9602"/><stop offset="0.55" stop-color="#e59e03"/><stop offset="0.87" stop-color="#e5c500"/><stop offset="0.99" stop-color="#bf6f00"/></linearGradient><linearGradient id="Gold_Dust-2" x1="601.45" y1="413.96" x2="701.86" y2="413.96" xlink:href="#Gold_Dust"/></defs><g id="_19" data-name="19"><path d="M712.9,371.1c-8.92-1.52-48.89-15.89-133.66-.74-84.76-15.15-124.74-.78-133.66.74s-11.2,5.49-10.19,12.22c.81,5.45,2.78,6,7.82,9.68s7.92,28.2,13.31,45.21,10.92,23.07,48.67,23.07c22.53,0,35-3.15,42.74-9.82,9.78-8.43,11.73-21.28,13.58-27.15,3.3-10.49,5-19.78,7.31-25.17,5.56-12.67,15.29-12.67,20.84,0,2.36,5.39,4,14.68,7.31,25.17,1.85,5.87,3.81,18.72,13.58,27.15,7.74,6.67,20.2,9.82,42.75,9.82,37.74,0,43.27-6.07,48.66-23.07s8.25-41.51,13.31-45.21,7-4.23,7.82-9.68C724.11,376.59,721.83,372.61,712.9,371.1ZM557,389.5c-.66,14.59-3.38,46.43-14.53,57.39-7.23,7.09-29.18,8.95-46.39,8.59-9.61-.2-17.23-1.22-24.41-6.05-6.05-4.06-7.08-9.67-9.24-18.3-3.7-14.76-5.21-32.1-5.8-41.69a11.12,11.12,0,0,1,7.15-11.09c21.69-8.23,64-7.65,85.85.15A11.13,11.13,0,0,1,557,389.5Zm144.83-.06c-.58,9.59-2.09,26.93-5.8,41.69-2.15,8.63-3.2,14.24-9.24,18.3-7.18,4.83-14.8,5.85-24.4,6.05-17.21.36-39.17-1.5-46.4-8.59-11.15-11-13.87-42.8-14.53-57.39a11.12,11.12,0,0,1,7.37-11c21.81-7.8,64.17-8.38,85.84-.15A11.12,11.12,0,0,1,701.84,389.44Z" fill="#333"/><path d="M549.64,378.5c-21.81-7.8-64.17-8.39-85.84-.16a11.14,11.14,0,0,0-7.16,11.1c.59,9.58,2.1,26.93,5.79,41.69,2.16,8.63,3.21,14.23,9.25,18.3,7.18,4.83,14.8,5.86,24.41,6.05,17.21.35,39.17-1.5,46.39-8.59,11.15-11,13.87-42.8,14.54-57.4A11.13,11.13,0,0,0,549.64,378.5Z" fill="url(#Gold_Dust)"/><path d="M608.84,378.5c21.82-7.8,64.17-8.39,85.84-.16a11.14,11.14,0,0,1,7.16,11.1c-.58,9.58-2.09,26.93-5.79,41.69-2.16,8.63-3.21,14.23-9.25,18.3-7.18,4.83-14.8,5.86-24.41,6.05-17.21.35-39.17-1.5-46.39-8.59-11.14-11-13.87-42.8-14.53-57.4A11.11,11.11,0,0,1,608.84,378.5Z" fill="url(#Gold_Dust-2)"/></g></svg>