<svg id="goggles" xmlns="http://www.w3.org/2000/svg" viewBox="0 0 1080 1920"><g id="_2" data-name="2"><path d="M532.1,382.42c-20.31-12.42-50.43-9.56-62.14-.71-7.21,5.44-17.68,23.9-10.51,44.21s23.62,36,46.84,36.57c27.48.71,42.06-17.69,44.21-33S552.42,394.85,532.1,382.42Z" fill="#fff" opacity="0.17"/><path d="M632.26,369.25c-18.84,4.2-38.76,17.89-38.76,17.89-3.58-4.06-6.74-4.36-16.3-4.36s-12.75.3-16.33,4.36c0,0-20-13.69-38.84-17.89-19.18-4.27-61.58-3.56-82.33,7V393.9s3.54,2.62,5.93,13.86,4.52,26.05,17.9,42.54,37.16,23.94,58.66,19.36c26.89-5.74,40.93-32.51,42.84-58.56,0,0-5.58-2.39-5.1-8.36s7.78-5,17.34-5,16.87-1,17.34,5-5.09,8.36-5.09,8.36c1.91,26,16,52.82,42.84,58.56,21.5,4.58,45.29-2.87,58.67-19.36s15.26-31.31,17.65-42.54,5.7-13.86,5.7-13.86V376.21C693.63,365.69,651.44,365,632.26,369.25ZM550.5,429.51c-2.15,15.29-16.73,33.69-44.21,33-23.22-.61-39.67-16.26-46.84-36.57s3.3-38.77,10.51-44.21c11.71-8.85,41.83-11.71,62.14.71S552.65,414.21,550.5,429.51Zm144.59-3.59c-7.17,20.31-23.62,36-46.84,36.57-27.48.71-42.06-17.69-44.21-33s-1.91-34.66,18.4-47.09,50.43-9.56,62.14-.71C691.79,387.15,702.26,405.61,695.09,425.92Z" fill="#323232"/><path d="M684.58,381.71c-11.71-8.85-41.83-11.71-62.14.71s-20.55,31.79-18.4,47.09,16.73,33.69,44.21,33c23.22-.61,39.67-16.26,46.84-36.57S691.79,387.15,684.58,381.71Z" fill="#fff" opacity="0.17"/></g></svg>