<svg xmlns="http://www.w3.org/2000/svg" viewBox="0 0 1080 1920"><g style="isolation:isolate"><g id="goggles"><g id="_20" data-name="20"><path d="M710,406.51c.16-20.11-7.26-30.66-13.51-36a29.41,29.41,0,0,0-15.25-7l-.32,0H480.41l-.66,0a29.51,29.51,0,0,0-15.25,7c-6.25,5.31-13.65,15.86-13.49,36-.29,4.06-1.94,36.83,17.5,58,11.86,12.91,28.86,18.73,50.36,17.19l.58-.07c1.32-.2,31.87-5.33,43-37.07l.25-.78.1-.78c.1-.78,2.42-19.23,15.62-19.23l.71,0,.31.17,1.08-.08,1.06.08.3-.17.72,0c8.09,0,12.1,6.93,14,12.47a37.37,37.37,0,0,1,1.47,5.81h0c.09.51.13.83.14.92l.09.8.27.78c11.14,31.74,41.7,36.87,43,37.07l.59.07c2.24.16,4.46.24,6.6.24a66.78,66.78,0,0,0,24.82-4.38,51.26,51.26,0,0,0,19-13.05C712,443.34,710.33,410.57,710,406.51Zm-68.67,67.82c-5.57-1.27-27.5-7.72-36.07-32.14,0,0-2.95-26.9-24.3-25.48l-.47-.26-.48.26c-21.36-1.42-24.31,25.48-24.31,25.48-8.58,24.44-30.52,30.88-36.08,32.14-62,3.38-56.16-65-56.16-65-.38-32.49,21.3-34.49,21.3-34.49H676.23s21.69,2,21.32,34.49C697.55,409.37,703.38,477.73,641.37,474.33Z" fill="#575756"/><path d="M705.67,405.91c.16-18.38-7-28-13.09-32.88a29.55,29.55,0,0,0-14.79-6.36l-.3,0H483l-.66,0A29.58,29.58,0,0,0,467.53,373c-6.07,4.86-13.24,14.5-13.09,32.88-.27,3.73-1.88,33.7,17,53a50.4,50.4,0,0,0,22,13.16l.46.14a66.24,66.24,0,0,0,12.72,2.34c.36,0,.72.06,1.08.08a89,89,0,0,0,12.55,0l.59-.06c1.25-.19,30.89-4.88,41.69-33.92l.27-.7.08-.71c.08-.72,2.35-17.58,15.15-17.58h.7l.28.14,1-.06,1,.06.28-.14h.7c9.62,0,13.28,9.48,14.54,14.52a29,29,0,0,1,.61,3l.08.74.26.7c.17.45.34.9.52,1.34h0c11.22,27.84,39.95,32.38,41.18,32.57l.58.06c2.17.15,4.33.22,6.4.22h0c1.5,0,3,0,4.42-.11,11.39-.6,21.2-3.52,29.33-8.73a49.78,49.78,0,0,0,8.71-7.11C707.56,439.61,706,409.64,705.67,405.91Zm-64.3,68.42c-5.57-1.27-27.5-7.72-36.07-32.14,0,0-2.95-26.9-24.3-25.48l-.47-.26-.48.26c-21.36-1.42-24.31,25.48-24.31,25.48-8.58,24.44-30.52,30.88-36.08,32.14-62,3.38-56.16-65-56.16-65-.38-32.49,21.3-34.49,21.3-34.49H676.23s21.69,2,21.32,34.49C697.55,409.37,703.38,477.73,641.37,474.33Z" fill="#6f6f6e"/><path d="M680,466.06c-7.27,5.07-16.82,8.42-29.33,8.73-2.55.06-5.21,0-8-.2,0,0-.47-.07-1.31-.26,62,3.4,56.18-65,56.18-65,.37-32.49-21.32-34.49-21.32-34.49H484.8s-21.68,2-21.3,34.49c0,0-5.84,68.34,56.16,65-.83.19-1.3.26-1.3.26a79.49,79.49,0,0,1-10.66.08c-.36,0-.72,0-1.08-.08a57.57,57.57,0,0,1-12.72-2.34l-.46-.14c-39.82-12.62-35.31-65.37-35.31-65.37-.41-34,22.28-36.07,22.28-36.07H680.64s22.68,2.09,22.29,36.07C702.93,406.74,706.42,447.68,680,466.06Z" fill="#3c3c3b"/><path d="M641.37,474.33l-1.42-.09s-26.31-4.12-35.73-31c0,0-2.83-25.73-23.24-24.36l-.45-.24-.46.24c-20.41-1.37-23.24,24.36-23.24,24.36-9.43,26.87-35.73,31-35.73,31l-1.44.09c5.56-1.26,27.5-7.7,36.08-32.14,0,0,3-26.9,24.31-25.48l.48-.26.47.26c21.35-1.42,24.3,25.48,24.3,25.48C613.87,466.61,635.8,473.06,641.37,474.33Z" fill="#8acfe4"/><path d="M580.53,374.88H484.8s-21.68,2-21.3,34.49c0,0-5.93,69.4,57.6,64.87,0,0,26.3-4.12,35.73-31,0,0,2.83-25.73,23.24-24.36l.46-.24.45.24c20.41-1.37,23.24,24.36,23.24,24.36,9.42,26.87,35.73,31,35.73,31,63.52,4.53,57.6-64.87,57.6-64.87.37-32.49-21.32-34.49-21.32-34.49Z" fill="#8acfe4" opacity="0.49"/><path d="M520.05,474.29q3.74-5.42,7.42-10.83c14.68-21.68,29.26-43.48,43-65.75,4.68-7.57,9.27-15.21,13.87-22.83H541.71c-16.78,22.26-33.11,44.73-48.67,67.88q-6.41,9.53-12.82,19C488.65,470,501.27,475.4,520.05,474.29Z" fill="#fff" opacity="0.5"/><path d="M603,437.53c11.45-21.07,23.43-41.88,35.48-62.65H610.15c-8.56,14-16.94,28.06-25.71,41.91l-1.32,2.06C595.72,419.2,601,430.43,603,437.53Z" fill="#fff" opacity="0.5"/><path d="M721.92,409.94V399a8.53,8.53,0,0,0-8.54-8.54h-5.22v.06c-1.33.57-2.37,6.58-2.37,13.94s1,13.36,2.37,13.94v.06h5.22A8.54,8.54,0,0,0,721.92,409.94Z" fill="#3c3c3b"/><path d="M726.38,409.94V399a8.54,8.54,0,0,0-8.55-8.54h-5.22v.06c-1.34.57-2.37,6.58-2.37,13.94s1,13.36,2.37,13.94v.06h5.22A8.55,8.55,0,0,0,726.38,409.94Z" fill="#868686"/><path d="M714.31,405.77c1.25-5,4.89-10.37,10.33-11.28a2.71,2.71,0,0,1,.38-.06,8.51,8.51,0,0,0-7.19-3.95h-5.22v.06c-1.34.57-2.37,6.58-2.37,13.94s1,13.36,2.37,13.94v.06h4.66A14.07,14.07,0,0,1,714.31,405.77Z" fill="#d9d9d9" style="mix-blend-mode:multiply"/><path d="M439,409.94V399a8.54,8.54,0,0,1,8.55-8.54h5.21v.06c1.33.57,2.37,6.58,2.37,13.94s-1,13.36-2.37,13.94v.06h-5.21A8.54,8.54,0,0,1,439,409.94Z" fill="#3c3c3b"/><path d="M434.51,409.94V399a8.54,8.54,0,0,1,8.54-8.54h5.22v.06c1.33.57,2.37,6.58,2.37,13.94s-1,13.36-2.37,13.94v.06h-5.22A8.55,8.55,0,0,1,434.51,409.94Z" fill="#868686"/><path d="M446.56,405.77c-1.24-5-4.87-10.37-10.33-11.28a2,2,0,0,0-.37-.06,8.52,8.52,0,0,1,7.19-3.95h5.22v.06c1.33.57,2.37,6.58,2.37,13.94s-1,13.36-2.37,13.94v.06H443.6A14,14,0,0,0,446.56,405.77Z" fill="#d9d9d9" style="mix-blend-mode:multiply"/></g></g></g></svg>