<svg id="goggles" xmlns="http://www.w3.org/2000/svg" viewBox="0 0 1080 1920"><g id="_3" data-name="3"><path d="M705.73,377.85c-4.29-5-12.43-11.36-17.3-15-1.26-1-2.54-2-3.87-2.86l-.09-.06h0a59.4,59.4,0,0,0-75.06,7.47c-5.21,4.87-9.7,10.2-14.34,15.42-5.88,6.61-9.36,3.37-15.24,3.37s-9.36,3.24-15.24-3.37c-4.64-5.22-9.13-10.55-14.33-15.42A59.67,59.67,0,0,0,508,349.92c-12.21,0-24.28,3.68-33.17,10h0s.14,0,.09.06c-1.33.9-2.53,1.86-3.79,2.86-4.87,3.66-13.22,10.07-17.51,15-6.37,7.34-20.29,7.83-20.29,7.83v15.19s8.33-.49,11,2.7c1.59,1.88,3.31,10.93,6.11,20.39a59.09,59.09,0,0,0,3.47,9.75,41.39,41.39,0,0,0,4.6,8.32l0,0a59.41,59.41,0,0,0,103.73-8.19l.05-.05.13-.23c4.27-7.24,8.56-27.07,10.5-30.22s6.86-3.43,6.86-3.43,4.9.25,6.86,3.43,6.23,23,10.5,30.22l.14.23,0,.05A59.4,59.4,0,0,0,701.09,442v0a40.84,40.84,0,0,0,4.57-8.32,58.9,58.9,0,0,0,3.41-9.75c2.8-9.46,4.38-18.51,6-20.39,2.69-3.19,10.76-2.7,10.76-2.7V385.68S712.1,385.19,705.73,377.85Zm-197.55,82.8a51.33,51.33,0,1,1,51.32-51.32A51.33,51.33,0,0,1,508.18,460.65Zm143.31,0a51.33,51.33,0,1,1,51.32-51.32A51.33,51.33,0,0,1,651.49,460.65Z" fill="#323232"/><path d="M559.5,409.33a51.33,51.33,0,1,0-51.32,51.32A51.33,51.33,0,0,0,559.5,409.33Z" fill="#fff" opacity="0.17"/><circle cx="651.49" cy="409.33" r="51.32" transform="translate(-81.22 174.55) rotate(-14.37)" fill="#fff" opacity="0.17"/></g></svg>