<svg id="goggles" xmlns="http://www.w3.org/2000/svg" viewBox="0 0 1080 1920"><g id="_4" data-name="4"><path d="M629,375.48a118.66,118.66,0,0,1,32.61-3.73q-30.2-4.69-77.67-4.41l-3.4,0-3.4,0q-47.4-.3-77.66,4.41a118.66,118.66,0,0,1,32.61,3.73c24.77,6.19,31.3,21.42,31.3,21.42,1.84-.84,10.12-2.09,17.15-2.09s15.32,1.25,17.16,2.09C597.74,396.9,604.27,381.67,629,375.48Z" fill="none"/><path d="M505.69,378.07c-26.49-.17-44.88,8.44-50.44,20.25s-2.44,34.66,5.39,49.43c7.43,14,19.11,24.41,43.53,25s41.1-11.22,48.25-22.94c7.68-12.57,11.48-33.58.51-50.79C547.55,390.55,532.18,378.24,505.69,378.07Z" fill="#fff" opacity="0.17"/><path d="M712.4,386a28.38,28.38,0,0,1-6-2.07c-17.22-13.4-58.4-20-122.47-19.55l-3.36,0-3.37,0c-64.06-.42-105.29,6.15-122.51,19.55a30.61,30.61,0,0,1-6.32,2.07c-6,1.17-14.91,3.67-14.91,3.67v14.23s8-.51,10,4.52,3.76,25.64,9.42,37.82c7.61,16.4,20.11,29.72,42,32.46,24.15,3,41.88-2.86,55.6-15.74,16.66-15.64,17.81-38.23,15.7-57.56,0,0,5.38-2.67,14.42-2.67S595,405.35,595,405.35c-2.11,19.33-1,41.92,15.68,57.56,13.72,12.88,31.42,18.76,55.57,15.74,21.92-2.74,34.35-16.06,42-32.46,5.65-12.18,7.13-32.8,9.14-37.82s9.57-4.52,9.57-4.52V389.62S718.43,387.12,712.4,386Zm-160,63.83c-7.15,11.72-23.83,23.5-48.25,22.94s-36.1-11-43.53-25c-7.83-14.77-11-37.62-5.39-49.43s23.95-20.42,50.44-20.25,41.86,12.48,47.24,20.92C563.9,416.2,560.1,437.21,552.42,449.78Zm28.16-55c-7,0-15.31,1.25-17.15,2.09,0,0-6.53-15.23-31.3-21.42a118.66,118.66,0,0,0-32.61-3.73q30.19-4.69,77.66-4.41l3.4,0,3.4,0q47.43-.3,77.67,4.41A118.66,118.66,0,0,0,629,375.48c-24.77,6.19-31.3,21.42-31.3,21.42C595.9,396.06,587.61,394.81,580.58,394.81Zm119.94,52.94c-7.42,14-19.1,24.41-43.52,25s-41.1-11.22-48.26-22.94c-7.67-12.57-11.47-33.58-.5-50.79,5.38-8.44,20.75-20.75,47.24-20.92s44.88,8.44,50.44,20.25S708.36,433,700.52,447.75Z" fill="#323232"/><path d="M655.48,378.07c-26.49.17-41.86,12.48-47.24,20.92-11,17.21-7.17,38.22.5,50.79,7.16,11.72,23.84,23.5,48.26,22.94s36.1-11,43.52-25c7.84-14.77,11-37.62,5.4-49.43S682,377.9,655.48,378.07Z" fill="#fff" opacity="0.17"/></g></svg>