<svg id="goggles" xmlns="http://www.w3.org/2000/svg" viewBox="0 0 1080 1920"><g id="_5" data-name="5"><path d="M536.4,376.51c-20.42-5.6-31.7-5.44-41.41-4.61-12.16,1-28.91,5.43-36.81,15.15s-8.56,34.91-2,52.69,16.47,23.39,28.16,26.85,36.73,4,51.38-13.34,19.76-39.69,20.42-48.58a39.7,39.7,0,0,0-.17-10.74C554.71,387.4,550.34,380.33,536.4,376.51Z" fill="#fff" opacity="0.17"/><path d="M720.63,382.52c-6.17-7.91-25.69-16.06-57.8-17.38-19.5-.8-33.47,2.06-45.33,4.29s-25.66-1.24-37.29-1.24-25.45,3.46-37.3,1.24-25.83-5.09-45.33-4.29c-32.11,1.32-51.63,9.47-57.8,17.38s-3.15,21.24-.43,25.93,4,18,8.67,30.88,14.34,31.37,39.79,34.58,39.54-4.14,50.73-13.25c16-13,28.82-37.63,33.51-62.33,0,0-11.85-3.21-10.87-16.31,0,0,10.13-1,19-1s19,1,19,1c1,13.1-10.87,16.31-10.87,16.31,4.69,24.7,17.53,49.32,33.51,62.33,11.19,9.11,25.29,16.46,50.73,13.25s35.1-21.73,39.79-34.58,6-26.18,8.68-30.88S726.81,390.42,720.63,382.52ZM556.16,404.67c-.66,8.89-5.76,31.29-20.42,48.58S496.06,470,484.36,466.59s-21.57-9.06-28.16-26.85-5.92-43,2-52.69S482.83,372.93,495,371.9c9.71-.83,21-1,41.41,4.61,13.94,3.82,18.31,10.89,19.59,17.42A39.7,39.7,0,0,1,556.16,404.67Zm148.05,35.07c-6.59,17.79-16.47,23.39-28.16,26.85s-36.72,4-51.38-13.34-19.76-39.69-20.42-48.58a39.7,39.7,0,0,1,.17-10.74c1.28-6.53,5.65-13.6,19.59-17.42,20.42-5.6,31.7-5.44,41.42-4.61,12.15,1,28.9,5.43,36.8,15.15S710.79,422,704.21,439.74Z" fill="#323232"/><path d="M665.43,371.9c-9.72-.83-21-1-41.42,4.61-13.94,3.82-18.31,10.89-19.59,17.42a39.7,39.7,0,0,0-.17,10.74c.66,8.89,5.76,31.29,20.42,48.58s39.68,16.79,51.38,13.34,21.57-9.06,28.16-26.85,5.93-43-2-52.69S677.58,372.93,665.43,371.9Z" fill="#fff" opacity="0.17"/></g></svg>