<svg id="goggles" xmlns="http://www.w3.org/2000/svg" viewBox="0 0 1080 1920"><g id="_6" data-name="6"><path d="M499.58,367.26c-11.19.48-33.26.5-44,9.39s-9.38,31-6.25,43.48,8.89,31.94,31,40a55.36,55.36,0,0,0,60.93-15.31c14.73-16.64,22.23-45,13.33-59.78S511.27,366.77,499.58,367.26Z" fill="#fff" opacity="0.17"/><path d="M714.14,369.91c-5.69-.74-32.11-7.75-48.19-7.75-25.2,0-34.44,2.12-46.3,5.58s-18.49,8.21-21.95,7.72-12.83-2.1-18.76-2.1-15.31,1.6-18.76,2.1-10.13-4.26-22-7.72-21.15-5.58-46.35-5.58c-16.09,0-42.88,7-48.56,7.75s-11,1.22-11,1.22v13.1a7.59,7.59,0,0,1,6.42,5.92c1.24,5.44,2.24,28.93,8.15,43.23,6.71,16.22,17.42,28.16,35.94,33.35s38.06,1.46,50.7-7.16c9.42-6.43,18.28-16,25-29.4a123.45,123.45,0,0,0,10.89-31.86,9.3,9.3,0,0,1-1.64-9.31c1.48-4.12,6.34-4.77,11.28-4.77s9.81.65,11.29,4.77a9.33,9.33,0,0,1-1.64,9.31,122.89,122.89,0,0,0,10.87,31.86c6.71,13.42,15.55,23,25,29.4,12.64,8.62,32.14,12.35,50.67,7.16S704.27,449.6,711,433.38c5.91-14.3,6.54-37.79,7.78-43.23a7.25,7.25,0,0,1,5.93-5.92v-13.1S719.82,370.66,714.14,369.91ZM541.25,444.83a55.36,55.36,0,0,1-60.93,15.31c-22.07-8.07-27.84-27.5-31-40s-4.45-34.59,6.25-43.48,32.78-8.91,44-9.39c11.69-.49,46.11,3,55,17.79S556,428.19,541.25,444.83Zm167.31-24.7c-3.13,12.51-8.9,31.94-31,40a55.35,55.35,0,0,1-60.93-15.31c-14.74-16.64-22.24-45-13.34-59.78s43.31-18.28,55-17.79c11.19.48,33.27.5,44,9.39S711.69,407.61,708.56,420.13Z" fill="#323232"/><path d="M702.3,376.65c-10.7-8.89-32.78-8.91-44-9.39-11.69-.49-46.11,3-55,17.79s-1.4,43.14,13.34,59.78a55.35,55.35,0,0,0,60.93,15.31c22.06-8.07,27.83-27.5,31-40S713,385.54,702.3,376.65Z" fill="#fff" opacity="0.17"/></g></svg>