<svg id="goggles" xmlns="http://www.w3.org/2000/svg" viewBox="0 0 1080 1920"><g id="_7" data-name="7"><path d="M554.83,392.09c-3.53-6.56-12.12-12.1-34.3-15.89s-44.41-.25-54.75,5.3c-7.68,4.12-10.52,15.34-11.48,20.84-.36,7.5,0,23.91,4.15,35.64,4.38,12.52,11.69,19.4,24.45,23s29.47,3.51,41.49-.24c13-4.06,22.47-14.44,26.73-29.23,4.72-16.41,5.78-32.61,4.1-38.75C555.09,392.55,555,392.32,554.83,392.09Z" fill="none"/><path d="M694.33,381.5c-10.33-5.55-32.55-9.08-54.74-5.3s-30.77,9.33-34.3,15.89c-.13.23-.26.46-.4.67-1.67,6.14-.62,22.34,4.1,38.75,4.26,14.79,13.76,25.17,26.74,29.23,12,3.75,28.69,3.85,41.49.24s20.07-10.48,24.45-23c4.1-11.73,4.51-28.14,4.14-35.64C704.86,396.84,702,385.62,694.33,381.5Z" fill="none"/><path d="M707,372.39c-13.11-2.27-58.21-7.34-86.95-2.05-28,5.15-25.21,11.91-24.93,14.47-4.55-2.9-9.94-3.9-15.13-3.9s-10.6,1-15.15,3.9c.28-2.56,3-9.32-25-14.47-28.74-5.29-74.21-.22-87.32,2.05S433.33,378,433.33,378v14.37a8.39,8.39,0,0,1,9.32,3c3.4,4.25,4.34,7.95,8.42,9.47-.16,8.49.64,23.22,4.46,34.15,4.68,13.38,12.88,21.06,26.51,24.91a80.56,80.56,0,0,0,21.37,2.74,75.11,75.11,0,0,0,21.88-3c14-4.37,24.19-15.48,28.74-31.28,4.13-14.36,5.38-28.34,4.64-36.44a3,3,0,0,0,3.11-.93h0l.13,0a5.65,5.65,0,0,0,.62-.66c1.61-1.73,6.81-6.15,17.5-6.15s15.87,4.42,17.48,6.15c.18.25,0,.47.2.66l-.36,0h0a3.88,3.88,0,0,0,3.6.93c-.74,8.1.81,22.08,4.95,36.44,4.55,15.8,14.85,26.91,28.83,31.28a75.32,75.32,0,0,0,21.91,3A80.64,80.64,0,0,0,678,463.89c13.63-3.85,21.81-11.53,26.49-24.91,3.82-10.93,4.57-25.66,4.41-34.15,4.07-1.52,4.65-5.22,8-9.47,4-5,8.84-3,8.84-3V378S720.15,374.66,707,372.39Zm-259,13.2c-4.73,0-8.57-.74-8.57-1.65s3.84-1.64,8.57-1.64,8.56.73,8.56,1.64S452.72,385.59,448,385.59Zm103.13,45.92c-4.26,14.79-13.75,25.17-26.73,29.23-12,3.75-28.69,3.85-41.49.24s-20.07-10.48-24.45-23c-4.11-11.73-4.51-28.14-4.15-35.64,1-5.5,3.8-16.72,11.48-20.84,10.34-5.55,32.56-9.08,54.75-5.3s30.77,9.33,34.3,15.89c.13.23.26.46.39.67C556.9,398.9,555.84,415.1,551.12,431.51ZM701.67,438c-4.38,12.52-11.69,19.4-24.45,23s-29.48,3.51-41.49-.24c-13-4.06-22.48-14.44-26.74-29.23-4.72-16.41-5.77-32.61-4.1-38.75.14-.21.27-.44.4-.67,3.53-6.56,12.11-12.1,34.3-15.89s44.41-.25,54.74,5.3c7.69,4.12,10.53,15.34,11.48,20.84C706.18,409.84,705.77,426.25,701.67,438Zm10.46-52.39c-4.73,0-8.56-.74-8.56-1.65s3.83-1.64,8.56-1.64,8.56.73,8.56,1.64S716.86,385.59,712.13,385.59Z" fill="#323232"/><path d="M456.55,383.94c0-.91-3.83-1.64-8.56-1.64s-8.57.73-8.57,1.64,3.84,1.65,8.57,1.65S456.55,384.85,456.55,383.94Z" fill="#fff" opacity="0.17"/><path d="M712.13,382.3c-4.73,0-8.56.73-8.56,1.64s3.83,1.65,8.56,1.65,8.56-.74,8.56-1.65S716.86,382.3,712.13,382.3Z" fill="#fff" opacity="0.17"/></g></svg>