<svg id="goggles" xmlns="http://www.w3.org/2000/svg" viewBox="0 0 1080 1920"><g id="_8" data-name="8"><path d="M511.52,379.82c-16-1-40.26-.5-49.9,6.17s-6.17,26.93-4.2,36.31,6,25,14.25,29.89c9.39,5.6,28,8.65,43.56,6.67s25.93-7.9,32.11-19.51c5-9.4,12.35-36.81,7.41-46.2S523.62,380.56,511.52,379.82Z" fill="#fff" opacity="0.17"/><ellipse cx="447.38" cy="386.48" rx="8.32" ry="2.63" fill="#fff" opacity="0.17"/><path d="M605.88,377.59c-8.61,2.84-18.77,6.88-27.42,6.88s-18.8-4-27.42-6.88c-23.22-7.66-81.76-12.6-118.81-.74l1.11,20.5s6.73-1.48,9,5.93,7.38,38,16.82,49.9c11.73,14.82,37,15.39,54,14.65,23-1,38-11.19,44.46-28.48s10-32.12,14.16-36.81a9.55,9.55,0,0,1,13.35,0c4.11,4.69,7.73,19.51,14.15,36.81s21.48,27.5,44.47,28.48c17.07.74,42.32.17,54-14.65,9.44-11.94,14.61-42.49,16.83-49.9s9-5.93,9-5.93l1.12-20.5C687.64,365,629.1,369.93,605.88,377.59Zm-166.82,8.89c0-1.45,3.73-2.63,8.32-2.63s8.32,1.18,8.32,2.63-3.73,2.64-8.32,2.64S439.06,387.94,439.06,386.48Zm108.28,52.87c-6.18,11.61-16.55,17.53-32.11,19.51s-34.17-1.07-43.56-6.67c-8.26-4.92-12.27-20.5-14.25-29.89S452,392.66,461.62,386s33.86-7.16,49.9-6.17c12.1.74,38.29,3.95,43.23,13.33S552.34,430,547.34,439.35ZM699.5,422.3c-2,9.39-6,25-14.25,29.89-9.38,5.6-28,8.65-43.55,6.67s-25.94-7.9-32.11-19.51c-5-9.4-12.35-36.81-7.41-46.2s31.12-12.59,43.22-13.33c16.05-1,40.27-.5,49.9,6.17S701.48,412.92,699.5,422.3Zm10-33.18c-4.6,0-8.32-1.18-8.32-2.64s3.72-2.63,8.32-2.63,8.31,1.18,8.31,2.63S714.14,389.12,709.55,389.12Z" fill="#323232"/><path d="M695.3,386c-9.63-6.67-33.85-7.16-49.9-6.17-12.1.74-38.28,3.95-43.22,13.33s2.41,36.8,7.41,46.2c6.17,11.61,16.55,17.53,32.11,19.51s34.17-1.07,43.55-6.67c8.26-4.92,12.27-20.5,14.25-29.89S704.93,392.66,695.3,386Z" fill="#fff" opacity="0.17"/><ellipse cx="709.55" cy="386.48" rx="8.32" ry="2.63" fill="#fff" opacity="0.17"/></g></svg>