<svg id="goggles" xmlns="http://www.w3.org/2000/svg" viewBox="0 0 1080 1920"><g id="_9" data-name="9"><path d="M714.4,371.94c-8.92-1.51-48.9-15.89-133.67-.74-84.77-15.15-124.74-.77-133.66.74s-11.2,5.48-10.18,12.21c.81,5.46,2.76,6,7.82,9.69S452.63,422,458,439s10.91,23.08,48.65,23.08c22.55,0,35-3.14,42.75-9.82,9.79-8.43,11.72-21.28,13.58-27.14,3.31-10.5,5-19.79,7.32-25.17,5.54-12.68,15.28-12.68,20.83,0,2.35,5.38,4,14.67,7.32,25.17,1.85,5.86,3.79,18.71,13.58,27.14,7.74,6.68,20.2,9.82,42.74,9.82,37.75,0,43.28-6.06,48.67-23.08s8.25-41.49,13.3-45.2,7-4.23,7.83-9.69C725.59,377.42,723.32,373.46,714.4,371.94Zm-155.89,18.4c-.66,14.59-3.39,46.43-14.54,57.39-7.22,7.09-29.18,8.94-46.39,8.59-9.6-.19-17.23-1.22-24.4-6.05-6.05-4.06-7.1-9.67-9.25-18.3-3.7-14.76-5.21-32.1-5.8-41.69a11.12,11.12,0,0,1,7.16-11.09c21.68-8.23,64-7.65,85.85.15A11.13,11.13,0,0,1,558.51,390.34Zm144.83-.06c-.59,9.59-2.1,26.93-5.8,41.69-2.16,8.63-3.2,14.24-9.25,18.3-7.17,4.83-14.8,5.86-24.41,6.05-17.21.35-39.16-1.5-46.38-8.59-11.15-11-13.87-42.8-14.54-57.39a11.13,11.13,0,0,1,7.37-11c21.82-7.8,64.18-8.38,85.85-.15A11.12,11.12,0,0,1,703.34,390.28Z" fill="#333"/><path d="M551.14,379.34c-21.82-7.8-64.17-8.38-85.85-.15a11.12,11.12,0,0,0-7.16,11.09c.59,9.59,2.1,26.93,5.8,41.7,2.16,8.62,3.2,14.23,9.25,18.29,7.18,4.83,14.8,5.86,24.4,6.05,17.21.35,39.17-1.49,46.39-8.59,11.15-11,13.87-42.8,14.54-57.39A11.14,11.14,0,0,0,551.14,379.34Z" fill="#666" opacity="0.57"/><path d="M610.33,379.34c21.82-7.8,64.17-8.38,85.85-.15a11.12,11.12,0,0,1,7.16,11.09c-.59,9.59-2.1,26.93-5.8,41.7-2.16,8.62-3.2,14.23-9.25,18.29-7.18,4.83-14.79,5.86-24.4,6.05-17.21.35-39.17-1.49-46.39-8.59-11.15-11-13.87-42.8-14.54-57.39A11.15,11.15,0,0,1,610.33,379.34Z" fill="#666" opacity="0.72"/><g opacity="0.44"><path d="M473.18,450.27c7.18,4.83,14.8,5.86,24.4,6.05,17.21.35,39.17-1.49,46.39-8.59,4.21-4.13,7.22-11.24,9.37-19.28-11.31-7.41-27.29-12-45-12s-33.89,4.67-45.2,12.15c.26,1.15.53,2.28.81,3.41C466.09,440.6,467.13,446.21,473.18,450.27Z" fill="#555"/><path d="M663.89,456.32c9.61-.19,17.22-1.22,24.4-6.05,6.05-4.06,7.09-9.67,9.25-18.29.28-1.13.55-2.26.81-3.41-11.31-7.48-27.38-12.15-45.2-12.15s-33.71,4.62-45,12c2.15,8,5.15,15.15,9.36,19.28C624.72,454.83,646.68,456.67,663.89,456.32Z" fill="#555"/></g></g></svg>